<svg width="100" height="100" viewBox="0 0 100 100" fill="none" xmlns="http://www.w3.org/2000/svg">
<rect width="100" height="100" rx="24" fill="#00A1E3"/>
<path d="M60.7453 56.9999H58.4366V55.1968C57.1711 56.3038 55.5575 56.9999 53.7544 56.9999C49.8949 56.9999 46.7635 53.8684 46.7635 50.0089C46.7635 46.1495 49.8949 43.018 53.7544 43.018C57.6138 43.018 60.7453 46.1495 60.7453 50.0089V56.9999ZM53.7863 40.5817C48.6613 40.5817 44.5176 44.7573 44.5176 49.8504C44.5176 54.9754 48.6613 59.1191 53.7863 59.1191C55.1785 59.1191 56.5069 58.8029 57.6777 58.2654L58.31 58.5187L63.0231 60.4794V49.8504C63.0231 44.7573 58.8794 40.5817 53.7863 40.5817Z" fill="white"/>
<path d="M15.1926 55.4181C12.1878 55.4181 9.7525 52.9509 9.7525 49.9461C9.7525 46.9403 12.1878 44.473 15.1926 44.473C18.2304 44.473 20.6657 46.9403 20.6657 49.9461C20.6657 52.9509 18.2304 55.4181 15.1926 55.4181ZM15.1926 41.7524C10.67 41.7524 7 45.4224 7 49.9461C7 54.4697 10.67 58.1387 15.1926 58.1387C17.3129 58.1387 19.2107 57.3479 20.6657 56.0514V58.1387H23.4182V49.9461C23.4182 45.4224 19.7482 41.7524 15.1926 41.7524Z" fill="white"/>
<path d="M25.6002 58.1388H28.3208V39H25.6002V58.1388Z" fill="white"/>
<path d="M89.2794 58.1388H92V39H89.2794V58.1388Z" fill="white"/>
<path d="M38.6975 55.4181C35.6917 55.4181 33.2563 52.9509 33.2563 49.9461C33.2563 46.9403 35.6917 44.473 38.6975 44.473C40.2153 44.473 41.5756 45.1053 42.5879 46.0866L44.5176 44.1569C43.0307 42.6699 40.9743 41.7524 38.6975 41.7524C34.1738 41.7524 30.5038 45.4224 30.5038 49.9461C30.5038 54.4697 34.1738 58.1387 38.6975 58.1387C40.9743 58.1387 43.0307 57.2212 44.5176 55.7343L42.5879 53.8045C41.5756 54.7859 40.2153 55.4181 38.6975 55.4181Z" fill="white"/>
<path d="M67.9586 41.7525V39H65.2381V58.1388H67.9586V44.4731H70.6782V41.7525" fill="white"/>
<path d="M78.8718 44.473C81.4338 44.473 83.5541 46.2133 84.1863 48.5858H73.5893C74.2215 46.2133 76.3407 44.473 78.8718 44.473ZM83.0155 53.4884C82.0352 54.6592 80.5482 55.4181 78.8718 55.4181C76.3407 55.4181 74.2215 53.6789 73.5893 51.3064H86.9697C87.0336 50.8626 87.0964 50.4198 87.0964 49.9461C87.0964 45.4224 83.4274 41.7524 78.8718 41.7524C74.3482 41.7524 70.6782 45.4224 70.6782 49.9461C70.6782 54.4697 74.3482 58.1387 78.8718 58.1387C82.1299 58.1387 84.9452 56.2409 86.2736 53.4884" fill="white"/>
<path d="M53.7544 45.2639C51.1296 45.2639 49.0093 47.3831 49.0093 50.009C49.0093 52.6348 51.1296 54.754 53.7544 54.754C56.3802 54.754 58.4994 52.6348 58.4994 50.009C58.4994 47.3831 56.3802 45.2639 53.7544 45.2639Z" fill="white"/>
</svg>
