<svg width="100" height="100" viewBox="0 0 100 100" fill="none" xmlns="http://www.w3.org/2000/svg">
<rect width="100" height="100" rx="24" fill="url(#paint0_linear_255_137)"/>
<path fill-rule="evenodd" clip-rule="evenodd" d="M72.2649 79.9575C73.5207 82.1326 76.3019 82.8778 78.4769 81.622C80.652 80.3663 81.3972 77.5851 80.1414 75.41L75.5721 67.4957H82.2125C84.724 67.4957 86.76 65.4597 86.76 62.9482C86.76 60.4366 84.724 58.4007 82.2125 58.4007H70.3211L57.2004 35.675C55.0008 38.6901 52.6615 42.517 53.5096 47.4724L72.2649 79.9575ZM45.129 32.9568L40.4324 24.822C39.1767 22.647 39.9219 19.8658 42.0969 18.61C44.272 17.3543 47.0532 18.0995 48.3089 20.2745L50.38 23.8618L52.4511 20.2745C53.7069 18.0995 56.4881 17.3543 58.6631 18.61C60.8382 19.8658 61.5834 22.647 60.3276 24.822L40.941 58.4007H55.7286C58.4329 59.3289 60.6119 62.3744 60.6119 65.2217C60.6119 65.887 60.4542 66.6673 60.1964 67.4957H18.5475C16.036 67.4957 14 65.4597 14 62.9482C14 60.4366 16.036 58.4007 18.5475 58.4007H30.439L45.129 32.9568ZM27.6425 69.2007C29.565 69.2007 31.2844 70.2167 33.1442 71.9051L28.4951 79.9575C27.2394 82.1326 24.4582 82.8778 22.2831 81.622C20.1081 80.3663 19.3629 77.5851 20.6186 75.41L23.8928 69.7389C24.7884 69.465 25.2846 69.3304 25.7898 69.2644C26.277 69.2007 26.7725 69.2007 27.6425 69.2007Z" fill="url(#paint1_linear_255_137)"/>
<defs>
<linearGradient id="paint0_linear_255_137" x1="50" y1="0" x2="50" y2="100" gradientUnits="userSpaceOnUse">
<stop stop-color="#313131"/>
<stop offset="1" stop-color="#141514"/>
</linearGradient>
<linearGradient id="paint1_linear_255_137" x1="50.38" y1="18" x2="50.38" y2="82.232" gradientUnits="userSpaceOnUse">
<stop stop-color="#15C7FA"/>
<stop offset="1" stop-color="#216FF0"/>
</linearGradient>
</defs>
</svg>
