<svg width="100" height="100" viewBox="0 0 100 100" fill="none" xmlns="http://www.w3.org/2000/svg">
<rect width="100" height="100" rx="24" fill="url(#paint0_linear_257_55)"/>
<path d="M9.89161 40.2597C9.59726 40.0866 9.28558 40 8.92197 40C8.55835 40 8.22937 40.0866 7.95233 40.2597C7.65797 40.4329 7.43288 40.658 7.25973 40.9523C7.08658 41.2467 7 41.5584 7 41.9047C7 42.251 7.08658 42.5626 7.25973 42.857C7.43288 43.1513 7.65797 43.3764 7.95233 43.5496C8.24668 43.7227 8.55835 43.8093 8.92197 43.8093C9.28558 43.8093 9.61457 43.7227 9.89161 43.5496C10.186 43.3764 10.4111 43.1513 10.5842 42.857C10.7574 42.5626 10.8439 42.251 10.8439 41.9047C10.8439 41.5584 10.7574 41.2467 10.5842 40.9523C10.4111 40.658 10.186 40.4329 9.89161 40.2597Z" fill="white"/>
<path d="M10.792 45.6448H7.08658V59.2371H10.792V45.6448Z" fill="white"/>
<path d="M25.579 42.6666C25.0076 42.1125 24.3497 41.6796 23.5705 41.3852C22.7913 41.0909 21.9429 40.9351 21.0079 40.9351H13.5624V59.2371H17.389V53.4711H20.8174C21.787 53.4711 22.6701 53.3153 23.4666 53.021C24.2631 52.7266 24.9557 52.2937 25.5271 51.7396C26.0985 51.1856 26.5487 50.5276 26.8777 49.7657C27.1893 49.0039 27.3452 48.1381 27.3452 47.2031C27.3452 46.2681 27.1893 45.4023 26.895 44.6405C26.5833 43.8786 26.1504 43.2206 25.579 42.6666ZM22.5316 49.6445C21.9256 50.1986 21.0771 50.493 19.969 50.493H17.389V43.9825H19.9863C21.0771 43.9825 21.9429 44.2595 22.5489 44.8309C23.1549 45.385 23.4493 46.1988 23.4493 47.2377C23.4493 48.2766 23.1376 49.0731 22.5316 49.6445Z" fill="white"/>
<path d="M37.5091 45.9217C36.6433 45.5408 35.6391 45.3503 34.4617 45.3503C33.2669 45.3503 32.228 45.5408 31.3449 45.9217C30.4619 46.3027 29.7866 46.8221 29.2845 47.4801C28.7996 48.1554 28.5226 48.9172 28.4707 49.8003H31.8644C31.951 49.2982 32.2107 48.8999 32.6263 48.5883C33.0418 48.2766 33.5959 48.1207 34.2885 48.1207C34.9984 48.1207 35.5525 48.2939 35.9507 48.6402C36.3663 48.9865 36.5741 49.4886 36.5741 50.112V51.0124L33.1457 51.2201C31.4488 51.324 30.1502 51.7223 29.2325 52.4322C28.3148 53.1421 27.8646 54.0944 27.8646 55.3411C27.8646 56.1549 28.0551 56.8648 28.4533 57.4882C28.8516 58.1115 29.3883 58.5963 30.0809 58.9426C30.7736 59.2889 31.5527 59.4621 32.4012 59.4621C32.9726 59.4621 33.5266 59.3755 34.0634 59.1851C34.6002 59.0119 35.085 58.7349 35.5179 58.4059C35.9507 58.0596 36.297 57.644 36.5568 57.1765H36.626V59.2543H40.2102V49.9042C40.2102 48.9865 39.9678 48.19 39.5003 47.5147C39.0501 46.8221 38.3749 46.3027 37.5091 45.9217ZM36.5914 54.2676C36.5914 54.7524 36.4529 55.1853 36.1932 55.5662C35.9334 55.9471 35.5698 56.2415 35.1196 56.4666C34.6694 56.6744 34.1846 56.7956 33.6478 56.7956C33.0245 56.7956 32.5224 56.6397 32.1241 56.3454C31.7432 56.051 31.5527 55.6528 31.5527 55.1333C31.5527 54.6485 31.7432 54.2676 32.1241 53.9732C32.5051 53.6789 33.0418 53.5057 33.7344 53.4538L36.6087 53.2806V54.2676H36.5914Z" fill="white"/>
<path d="M51.9152 47.9823H51.8459C51.6208 47.4802 51.3092 47.03 50.9109 46.649C50.5127 46.2681 50.0279 45.9738 49.4911 45.7487C48.9543 45.5409 48.3483 45.4197 47.6903 45.4197C46.5475 45.4197 45.5606 45.6967 44.7295 46.2681C43.8983 46.8395 43.2577 47.636 42.8075 48.6922C42.3573 49.7311 42.1322 50.9778 42.1322 52.4149C42.1322 53.8694 42.3573 55.1161 42.8075 56.1723C43.2577 57.2285 43.8983 58.025 44.7295 58.5964C45.5606 59.1678 46.5302 59.4449 47.673 59.4449C48.3483 59.4449 48.9543 59.341 49.5084 59.1159C50.0625 58.9081 50.5473 58.5964 50.9629 58.2155C51.3784 57.8346 51.6901 57.3844 51.9152 56.8822H51.9845V59.2198H55.6379V40.9524H51.9325V47.9823H51.9152ZM51.5516 54.5966C51.3092 55.2027 50.9456 55.6702 50.4954 55.9992C50.0452 56.3281 49.5084 56.484 48.9024 56.484C48.279 56.484 47.7423 56.3281 47.2921 55.9992C46.8419 55.6702 46.4956 55.2027 46.2532 54.5966C46.0108 53.9906 45.8896 53.2807 45.8896 52.4496C45.8896 51.6185 46.0108 50.9085 46.2532 50.3025C46.4956 49.6965 46.8419 49.229 47.2921 48.9C47.7423 48.571 48.279 48.3979 48.9024 48.3979C49.5084 48.3979 50.0452 48.571 50.4954 48.9C50.9456 49.229 51.2919 49.6965 51.5516 50.3025C51.794 50.9085 51.9325 51.6185 51.9325 52.4496C51.9325 53.2807 51.8113 53.9906 51.5516 54.5966Z" fill="white"/>
<path d="M73.0915 43.1686C72.3296 42.3375 71.3946 41.7141 70.3038 41.2813C69.2129 40.8484 68.0009 40.6233 66.6503 40.6233C65.2824 40.6233 64.0704 40.8484 62.9795 41.2813C61.8887 41.7141 60.971 42.3548 60.2091 43.1686C59.4473 43.9997 58.8585 44.9867 58.443 46.1468C58.0274 47.3069 57.8196 48.6228 57.8196 50.0773C57.8196 51.5318 58.0274 52.8477 58.443 54.0078C58.8585 55.1679 59.4473 56.1722 60.2091 56.986C60.971 57.8171 61.906 58.4405 62.9795 58.8733C64.0704 59.3062 65.2824 59.5313 66.6503 59.5313C68.0009 59.5313 69.2303 59.3062 70.3038 58.8733C71.3946 58.4405 72.3123 57.7998 73.0915 56.986C73.8534 56.1549 74.4421 55.1679 74.8576 54.0078C75.2732 52.8477 75.481 51.5318 75.481 50.0773C75.481 48.6228 75.2732 47.3069 74.8576 46.1468C74.4594 45.004 73.8707 43.9997 73.0915 43.1686ZM70.9618 53.4191C70.5635 54.3541 69.9921 55.0813 69.2476 55.5835C68.5203 56.1029 67.6373 56.3453 66.6503 56.3453C65.646 56.3453 64.7803 56.0856 64.0357 55.5835C63.3085 55.064 62.7371 54.3541 62.3216 53.4191C61.9233 52.4841 61.7155 51.3759 61.7155 50.0946C61.7155 48.8133 61.9233 47.7051 62.3216 46.7701C62.7198 45.8351 63.2912 45.1079 64.0357 44.5884C64.763 44.069 65.646 43.8266 66.633 43.8266C67.6373 43.8266 68.503 44.0863 69.2303 44.5884C69.9575 45.1079 70.5289 45.8351 70.9444 46.7701C71.3427 47.7051 71.5505 48.8306 71.5505 50.0946C71.5678 51.3759 71.36 52.4841 70.9618 53.4191Z" fill="white"/>
<path d="M90.6836 50.4063C89.8005 49.5925 88.398 48.9865 86.4587 48.6055L84.5194 48.2073C83.4286 47.9822 82.6667 47.7051 82.1819 47.3415C81.7144 46.9779 81.472 46.5277 81.472 45.9563C81.472 45.5061 81.6105 45.1252 81.8702 44.7789C82.13 44.4499 82.4936 44.1902 82.9784 43.9997C83.4459 43.8093 84 43.7227 84.6406 43.7227C85.2813 43.7227 85.8527 43.8266 86.3548 44.017C86.857 44.2075 87.2552 44.5019 87.5496 44.8828C87.8439 45.2637 88.0171 45.6966 88.0517 46.216H91.6705C91.6532 45.0906 91.3416 44.1036 90.7702 43.2725C90.1988 42.4414 89.385 41.7834 88.3461 41.3159C87.3072 40.8484 86.0778 40.6233 84.6406 40.6233C83.619 40.6233 82.684 40.7618 81.8356 41.0215C80.9872 41.2813 80.2426 41.6622 79.6193 42.1643C78.9959 42.6665 78.5111 43.2552 78.1648 43.9305C77.8185 44.6058 77.6454 45.3676 77.6454 46.1987C77.6454 47.5666 78.0956 48.6748 78.9959 49.5405C79.8963 50.4063 81.2642 51.0296 83.0823 51.3932L85.0042 51.7742C86.147 52.0166 86.9608 52.3109 87.4457 52.6746C87.9305 53.0382 88.1556 53.523 88.1556 54.129C88.1556 54.5792 88.0171 54.9775 87.7227 55.3238C87.4284 55.6701 87.0301 55.9471 86.5107 56.1549C85.9912 56.3627 85.4025 56.4666 84.7099 56.4666C84.0173 56.4666 83.3939 56.3627 82.8399 56.1722C82.2858 55.9817 81.8356 55.7047 81.4893 55.3238C81.143 54.9601 80.9352 54.51 80.8486 54.0078H77.2298C77.2644 55.1506 77.5934 56.1549 78.2168 56.9687C78.8401 57.7998 79.6885 58.4405 80.7794 58.8733C81.8702 59.3235 83.1515 59.5313 84.606 59.5313C86.1297 59.5313 87.4457 59.2889 88.5538 58.8214C89.6447 58.3366 90.4931 57.6613 91.0991 56.7955C91.6879 55.9125 91.9995 54.8909 91.9995 53.6961C92.0168 52.3283 91.5666 51.2201 90.6836 50.4063Z" fill="white"/>
<defs>
<linearGradient id="paint0_linear_257_55" x1="50" y1="0" x2="50" y2="100" gradientUnits="userSpaceOnUse">
<stop stop-color="#3D3D3D"/>
<stop offset="1" stop-color="#030303"/>
</linearGradient>
</defs>
</svg>
