<svg width="100" height="100" viewBox="0 0 100 100" fill="none" xmlns="http://www.w3.org/2000/svg">
<rect width="100" height="100" rx="24" fill="url(#paint0_linear_255_135)"/>
<path fill-rule="evenodd" clip-rule="evenodd" d="M59.7335 17.6594C61.9887 20.8454 64.1678 25.1792 65.4981 29.1238C66.4799 32.0351 67.2091 35.3579 67.4875 38.1899C67.757 40.9305 67.5941 44.9749 67.1073 47.6315C66.7639 49.5048 65.826 52.7815 65.6331 52.7815C65.5031 52.7815 61.5109 49.879 57.2433 46.6819C46.1431 38.3656 36.8479 30.7018 31.0682 25.1005C30.1853 24.2447 29.5538 23.6895 29.665 23.8665C29.776 24.0435 30.7368 25.4195 31.8001 26.9243C39.5324 37.8682 46.426 46.6967 49.2501 49.272C49.8093 49.782 49.8178 49.7971 49.4111 49.5598C43.3179 46.0055 32.2953 37.6941 21.2514 28.3265C20.5162 27.7028 19.9569 27.265 20.0086 27.3535C20.242 27.7529 25.2334 34 27.9384 37.2779C34.589 45.3372 39.7911 51.1608 45.0076 56.386C49.3235 60.7092 51.6545 62.7557 54.3027 64.5472C55.1005 65.0869 55.3344 65.2967 55.2505 65.3978C55.0794 65.604 52.6448 66.7706 51.5033 67.1934C49.0729 68.0936 46.6459 68.6902 43.9375 69.0536C42.1904 69.288 37.1197 69.3226 35.4096 69.1119C30.1363 68.4621 25.1993 66.9906 20.1893 64.5753C18.3385 63.6831 15.4803 62.0944 13.9527 61.109C13.4519 60.7859 13.0244 60.5393 13.0027 60.561C12.9347 60.629 14.1491 62.4342 15.2398 63.8862C19.3545 69.3637 24.9413 74.3385 30.6887 77.6428C37.5615 81.5941 44.8258 83.6328 52.8444 83.8609C57.7556 84.0006 61.6943 83.307 65.6912 81.5983C66.2968 81.3396 68.1029 80.4768 69.7048 79.6812C72.7398 78.1738 73.7954 77.7553 75.1887 77.5068C77.9274 77.0185 80.8714 77.8508 83.4545 79.8437C84.3356 80.5234 85.813 82.0471 86.4804 82.9645C86.8049 83.4104 87.1046 83.7783 87.1465 83.7819C87.2579 83.7918 87.6267 82.5363 87.8302 81.4549C88.0719 80.1694 87.9886 77.2867 87.6697 75.9028C86.8718 72.4411 84.7505 68.2485 82.1084 64.9114L81.4761 64.1128L81.8363 62.9802C82.2942 61.541 82.6784 59.6505 82.8984 57.7549C83.0324 56.6011 83.0586 55.6443 83.0154 53.4789C82.9579 50.5934 82.8543 49.6317 82.3352 47.1614C80.3215 37.5781 74.1296 28.5087 64.1505 20.526C62.9212 19.5425 59.8351 17.2765 59.3547 17.0044C59.2768 16.9603 59.4472 17.255 59.7335 17.6594Z" fill="url(#paint1_linear_255_135)"/>
<defs>
<linearGradient id="paint0_linear_255_135" x1="50" y1="0" x2="50" y2="100" gradientUnits="userSpaceOnUse">
<stop stop-color="#313131"/>
<stop offset="1" stop-color="#141514"/>
</linearGradient>
<linearGradient id="paint1_linear_255_135" x1="50.485" y1="17" x2="50.485" y2="83.8784" gradientUnits="userSpaceOnUse">
<stop stop-color="#FAA729"/>
<stop offset="1" stop-color="#FF2C17"/>
</linearGradient>
</defs>
</svg>
