<svg width="100" height="100" viewBox="0 0 100 100" fill="none" xmlns="http://www.w3.org/2000/svg">
<rect width="100" height="100" rx="24" fill="white"/>
<path d="M92 50.5C92 73.9685 72.9685 93 49.5 93C26.0315 93 7 73.9685 7 50.5C7 27.0315 26.0315 8 49.5 8C72.9685 8 92 27.0315 92 50.5Z" fill="#CFD8DC"/>
<path d="M85.625 50.5C85.625 70.4559 69.4559 86.625 49.5 86.625C29.5441 86.625 13.375 70.4559 13.375 50.5C13.375 30.5441 29.5441 14.375 49.5 14.375C69.4559 14.375 85.625 30.5441 85.625 50.5Z" fill="#448AFF"/>
<path d="M45.0333 46.0332L53.9646 54.9646L73.5125 26.4854L45.0333 46.0332Z" fill="#FF3D00"/>
<path d="M49.5 50.5L73.5146 26.4854L53.9667 54.9646L49.5 50.5Z" fill="#BF360C"/>
<path d="M45.0332 46.0332L25.4854 74.5124L53.9646 54.9646L45.0332 46.0332Z" fill="white"/>
<path d="M49.5 50.5L25.4854 74.5146L53.9646 54.9667L49.5 50.5Z" fill="#BDBDBD"/>
<path d="M34.8417 22.2354C36.1125 21.5958 37.3896 20.9646 38.6604 20.5332L41.2167 26.2771L37.3896 27.9707L34.8417 22.2354ZM75 52.625H81.1582C81.1582 51.9854 81.375 51.1396 81.375 50.5C81.375 49.8604 81.375 49.0146 81.1582 48.375H75V52.625ZM25.4854 29.4668L29.9521 33.925L32.9229 30.9543L28.4646 26.4875C27.4042 27.5479 26.5479 28.4043 25.4854 29.4668ZM51.625 18.8418C50.9854 18.625 50.1396 18.625 49.5 18.625C48.8604 18.625 48.0146 18.625 47.375 18.8418V25H51.625V18.8418ZM63.0957 21.8125C61.825 21.1729 60.5479 20.75 59.0625 20.3271L56.7207 26.2793L60.7625 27.7646L63.0957 21.8125ZM25.0625 43.0625L26.5479 39.0292L20.8125 36.6875C20.1729 37.9667 19.75 39.2354 19.3271 40.7208L25.0625 43.0625ZM24 48.375H17.8417C17.625 49.0146 17.625 49.8604 17.625 50.5C17.625 51.1396 17.625 51.9854 17.8417 52.625H24V48.375ZM73.9375 57.9375L72.4521 61.9708L78.1875 64.3125C78.8271 63.0332 79.25 61.7646 79.6729 60.2792L73.9375 57.9375ZM79.4667 39.6583C79.0354 38.3875 78.4042 37.1104 77.7646 35.8396L72.0292 38.3875L73.7229 42.2146L79.4667 39.6583ZM73.5146 71.5332L69.0479 67.075L66.0771 70.0458L70.5354 74.5125C71.5957 73.4521 72.4521 72.5957 73.5146 71.5332ZM26.9707 62.6104L25.2771 58.7833L19.5332 61.3396C19.9646 62.6104 20.5957 63.8875 21.2354 65.1583L26.9707 62.6104ZM61.6104 73.0293L57.7832 74.7229L60.3396 80.4668C61.6104 80.0354 62.8875 79.4042 64.1582 78.7646L61.6104 73.0293ZM42.0625 74.9375L38.0292 73.4521L35.6875 79.1875C36.9667 79.8271 38.2354 80.25 39.7207 80.6729L42.0625 74.9375ZM51.625 82.1582V76H47.375V82.1582C48.0146 82.1582 48.8604 82.375 49.5 82.375C50.1396 82.375 50.9854 82.375 51.625 82.1582Z" fill="#BBDEFB"/>
</svg>
