<svg width="100" height="100" viewBox="0 0 100 100" fill="none" xmlns="http://www.w3.org/2000/svg">
<rect width="100" height="100" rx="24" fill="white"/>
<path d="M89.1949 43.2726L81.7614 37.4018V24.0552C81.7614 23.1472 81.4024 22.8938 80.7583 22.8938H73.9583C73.2192 22.8938 72.7651 23.0416 72.7651 24.0552V30.2956C62.9347 22.5348 52.2807 14.1193 51.8795 13.8025C51.077 13.1689 50.5807 13 50 13C49.4298 13 48.9335 13.1689 48.1205 13.8025C47.318 14.436 11.8821 42.4279 10.8051 43.2726C9.49577 44.3074 9.86534 45.7962 11.3225 45.7962H18.2386V83.3439C18.2386 85.7724 19.21 86.7439 21.5224 86.7439H78.4775C80.79 86.7439 81.7614 85.7724 81.7614 83.3439V45.7856H88.6775C90.1347 45.7856 90.5042 44.3074 89.1949 43.2726ZM75.9328 78.0644C75.9328 79.7433 75.067 80.9048 73.3142 80.9048H26.6752C24.9224 80.9048 24.0566 79.7433 24.0566 78.0644V42.9769C24.0566 40.939 24.9436 39.6403 25.9678 38.8378L48.395 21.1304C48.9863 20.6658 49.4932 20.4652 49.9894 20.4652C50.4857 20.4652 50.9925 20.6658 51.5838 21.141L74.0111 38.8484C75.0248 39.6509 75.9223 40.9496 75.9223 42.9875V78.0644H75.9328Z" fill="#FA9012"/>
<path d="M74.0323 38.8378L51.5944 21.1198C51.0031 20.6552 50.4752 20.4546 50 20.4546C49.5143 20.4546 48.9969 20.6552 48.4056 21.1304L25.9678 38.8378C24.9542 39.6402 24.0566 40.939 24.0566 42.9769V78.0644C24.0566 79.7432 24.9225 80.9047 26.6753 80.9047H73.3143C75.067 80.9047 75.9329 79.7432 75.9329 78.0644V42.9769C75.9329 40.939 75.0459 39.6402 74.0323 38.8378ZM70.1254 72.7954C70.1254 74.3582 69.2385 75.0867 67.9397 75.0867H32.0709C30.7722 75.0867 29.8852 74.3582 29.8852 72.7954V45.3949C29.8852 43.8744 30.2442 43.0086 31.3212 42.1533C31.9336 41.6676 48.2473 28.7856 48.6802 28.4477C49.1131 28.0993 49.5777 27.9303 50 27.9303C50.4224 27.9303 50.887 28.1098 51.3199 28.4477C51.7528 28.7962 68.0664 41.6781 68.6789 42.1533C69.7559 43.0086 70.1149 43.885 70.1149 45.3949L70.1254 72.7954Z" fill="#FFAB1F"/>
<path d="M68.6788 42.1534C68.0664 41.6782 51.7528 28.7857 51.3198 28.4478C50.8869 28.0994 50.4223 27.9304 50 27.9304C49.5776 27.9304 49.113 28.1099 48.6801 28.4478C48.2472 28.7963 31.9336 41.6782 31.3211 42.1534C30.2441 43.0086 29.8851 43.885 29.8851 45.395V72.7955C29.8851 74.3582 30.7721 75.0868 32.0708 75.0868H67.9397C69.2384 75.0868 70.1254 74.3582 70.1254 72.7955V45.395C70.1148 43.885 69.7558 43.0086 68.6788 42.1534ZM64.2968 67.5266C64.2968 68.7831 63.5999 69.2688 62.6496 69.2688H37.3503C36.4 69.2688 35.7031 68.7831 35.7031 67.5266V47.8235C35.7031 46.9471 35.7031 46.2502 36.664 45.4794C37.2975 44.9726 48.6167 36.0397 48.9546 35.7757C49.2925 35.5118 49.6304 35.3745 50 35.3745C50.3801 35.3851 50.7497 35.5329 51.0453 35.7757C51.3832 36.0397 62.7024 44.9726 63.3359 45.4794C64.2968 46.2502 64.2968 46.9471 64.2968 47.8235V67.5266Z" fill="#FFBE41"/>
<path d="M63.336 45.4795C62.7024 44.9726 51.3832 36.0397 51.0453 35.7758C50.7497 35.5223 50.3801 35.3851 50 35.3745C49.6304 35.3745 49.2925 35.5118 48.9546 35.7758C48.6167 36.0397 37.287 44.9726 36.664 45.4795C35.7031 46.2503 35.7031 46.9472 35.7031 47.8235V67.5266C35.7031 68.7831 36.4 69.2688 37.3503 69.2688H62.6391C63.5894 69.2688 64.2863 68.7831 64.2863 67.5266V47.8235C64.2968 46.9366 64.2968 46.2397 63.336 45.4795ZM58.4788 62.2682C58.4788 63.2396 57.9931 63.4508 57.3173 63.4508H42.6932C42.0174 63.4508 41.5317 63.2291 41.5317 62.2682V50.2415C41.5317 49.5658 41.8379 48.9111 42.3553 48.4888C42.6509 48.2459 49.0074 43.2726 49.2292 43.0931C49.6726 42.7236 50.3273 42.7236 50.7708 43.0931C51.0031 43.2726 57.349 48.2459 57.6447 48.4888C58.1726 48.9217 58.4788 49.5658 58.4683 50.2415L58.4788 62.2682Z" fill="#FFD260"/>
<path d="M50 63.4402H57.3069C57.9826 63.4402 58.4683 63.2185 58.4683 62.2576V50.2415C58.4683 49.5657 58.1621 48.9111 57.6447 48.4887C57.3491 48.2459 50.9926 43.2726 50.7708 43.0931C50.3274 42.7235 49.6727 42.7235 49.2292 43.0931C49.0075 43.2726 42.651 48.2459 42.3553 48.4887C41.8274 48.9216 41.5212 49.5657 41.5317 50.2415V62.2576C41.5317 63.2291 42.0175 63.4402 42.6932 63.4402H50Z" fill="#FFE780"/>
</svg>
