<svg width="100" height="100" viewBox="0 0 100 100" fill="none" xmlns="http://www.w3.org/2000/svg">
<g clip-path="url(#clip0_175_86)">
<rect width="100" height="100" rx="24" fill="url(#paint0_linear_175_86)"/>
<g clip-path="url(#clip1_175_86)">
<path d="M22.2181 4.31461e-05H77.5866C80.2594 -0.00991393 82.914 0.439269 85.4347 1.328C89.1557 2.68915 92.4439 5.02251 94.9574 8.08531C97.4708 11.1481 99.1176 14.8285 99.7265 18.7435C99.933 20.1785 100.023 21.6278 99.9964 23.0774V77.0792C100.03 78.8075 99.8861 80.5347 99.5672 82.2336C98.7747 86.1041 96.9641 89.6932 94.3222 92.6308C91.6803 95.5684 88.3028 97.7483 84.5377 98.9456C82.2723 99.6345 79.9157 99.9766 77.548 99.9604C76.4935 99.9604 22.0616 99.9604 21.2419 99.9218C17.2272 99.7224 13.3412 98.4406 9.99568 96.2123C6.73903 94.0097 4.11431 90.9945 2.38151 87.4654C0.906537 84.4373 0.145388 81.1114 0.156546 77.7432V22.2182C0.0727194 18.9099 0.782272 15.6296 2.22586 12.6516C3.91599 9.10849 6.51655 6.07762 9.76176 3.86876C13.0782 1.59981 16.9556 0.288351 20.9684 0.0783172C21.3815 0.0121452 21.8 -0.0140673 22.2181 4.31461e-05Z" fill="url(#paint1_linear_175_86)"/>
<path d="M84.3425 81.7649C83.9878 81.2065 83.5971 80.6719 83.1729 80.1643C82.1983 79.0002 81.0686 77.9755 79.8152 77.1188C78.2572 76.0453 76.4331 75.4227 74.5439 75.3194C73.213 75.2527 71.8829 75.4653 70.6392 75.9438C69.3866 76.4072 68.1724 76.9686 67.008 77.6226C65.6413 78.3253 64.2747 79.028 62.8298 79.6137C61.0989 80.3185 59.3086 80.8674 57.4801 81.2538C55.1876 81.6685 52.8591 81.8518 50.5299 81.8008C46.351 81.7289 42.2003 81.0996 38.1878 79.9295C34.6845 78.8829 31.3164 77.4283 28.1526 75.5956C25.3988 74.0021 22.7978 72.158 20.3827 70.0867C18.4102 68.3811 16.5576 66.5417 14.8379 64.5815C13.6548 63.2008 12.5345 61.7676 11.4802 60.2863C11.0541 59.6984 10.6635 59.0855 10.3106 58.4509L1.53978e-05 47.3243V22.1398C-0.00341278 19.2347 0.565629 16.3573 1.67463 13.6722C2.78363 10.987 4.41084 8.5467 6.4633 6.49065C8.51576 4.43459 10.9532 2.80311 13.6364 1.68942C16.3197 0.575726 19.196 0.00165273 22.1012 0L41.8199 0L56.423 14.8379C89.379 37.2476 78.7194 61.9678 78.7194 61.9678C78.7194 61.9678 88.0907 72.5105 84.3425 81.7649Z" fill="#EF3E31"/>
<path d="M56.5021 14.8379C89.4582 37.2512 78.7985 61.9678 78.7985 61.9678C78.7985 61.9678 88.1698 72.5492 84.3821 81.8036C84.3821 81.8036 80.5134 75.3257 74.0355 75.3257C67.788 75.3257 64.1172 81.8036 51.543 81.8036C23.5461 81.8036 10.3088 58.4113 10.3088 58.4113C35.5337 75.0063 52.7531 63.2535 52.7531 63.2535C41.3908 56.6542 17.2203 25.1062 17.2203 25.1062C38.267 43.03 47.3648 47.7544 47.3648 47.7544C41.9369 43.2684 26.7085 21.3157 26.7085 21.3157C38.8914 33.6587 63.1006 50.8781 63.1006 50.8781C69.9734 31.8233 56.5021 14.8379 56.5021 14.8379Z" fill="white"/>
</g>
</g>
<defs>
<linearGradient id="paint0_linear_175_86" x1="50" y1="0" x2="50" y2="100" gradientUnits="userSpaceOnUse">
<stop stop-color="#FAAE42"/>
<stop offset="1" stop-color="#EF3E31"/>
</linearGradient>
<linearGradient id="paint1_linear_175_86" x1="-720.676" y1="490.323" x2="-701.663" y2="383.168" gradientUnits="userSpaceOnUse">
<stop stop-color="#FAAE42"/>
<stop offset="1" stop-color="#EF3E31"/>
</linearGradient>
<clipPath id="clip0_175_86">
<rect width="100" height="100" rx="24" fill="white"/>
</clipPath>
<clipPath id="clip1_175_86">
<rect width="100" height="99.9613" fill="white"/>
</clipPath>
</defs>
</svg>
