<svg width="100" height="100" viewBox="0 0 100 100" fill="none" xmlns="http://www.w3.org/2000/svg">
<rect width="100" height="100" rx="24" fill="url(#paint0_linear_145_24)"/>
<path d="M58.4857 61.272C58.3471 60.024 57.9311 59.1227 57.0991 58.2907C55.5391 56.6613 52.8004 55.5867 49.5764 55.5867C46.3524 55.5867 43.6137 56.6267 42.0537 58.2907C41.2564 59.1573 40.8057 60.024 40.6671 61.272C40.3897 63.6987 40.5631 65.7787 40.8404 69.1413C41.1177 72.3307 41.6377 76.5947 42.2964 80.8933C42.7817 83.9787 43.1631 85.6427 43.5097 86.8213C44.0991 88.7627 46.2137 90.4267 49.5764 90.4267C52.9391 90.4267 55.0884 88.728 55.6431 86.8213C55.9897 85.6427 56.3711 83.9787 56.8564 80.8933C57.5151 76.56 58.0351 72.3307 58.3124 69.1413C58.6244 65.7787 58.7631 63.6987 58.4857 61.272Z" fill="white"/>
<path d="M58.1044 43.592C58.1044 48.3066 54.2911 52.12 49.5764 52.12C44.8618 52.12 41.0484 48.3066 41.0484 43.592C41.0484 38.8773 44.8618 35.064 49.5764 35.064C54.2911 35.064 58.1044 38.912 58.1044 43.592Z" fill="white"/>
<path d="M49.4724 10.0001C29.5738 10.0694 13.2804 26.2241 13.0031 46.1227C12.7951 62.2427 23.0911 76.04 37.4778 81.1014C37.8244 81.2401 38.1711 80.928 38.1364 80.5814C37.9631 79.3334 37.7551 78.0854 37.6164 76.8374C37.5471 76.3867 37.2698 76.04 36.8884 75.832C25.5178 70.8747 17.5791 59.4694 17.7178 46.2614C17.8911 28.9281 32.0351 14.8187 49.3338 14.6801C67.0484 14.5414 81.5044 28.8934 81.5044 46.5734C81.5044 59.6427 73.6004 70.8747 62.3338 75.832C61.9178 76.0054 61.6404 76.3867 61.6058 76.8374C61.4324 78.0854 61.2591 79.3334 61.0858 80.5814C61.0164 80.9627 61.3978 81.2401 61.7444 81.1014C75.9924 76.1094 86.2191 62.52 86.2191 46.5734C86.1498 26.3974 69.6831 9.96539 49.4724 10.0001Z" fill="white"/>
<path d="M48.6404 22.1333C35.6751 22.6186 25.2751 33.3306 25.1017 46.2959C24.9977 54.8239 29.2617 62.3813 35.8137 66.8533C36.1257 67.0613 36.5764 66.8186 36.5764 66.4373C36.4724 64.9466 36.4724 63.6293 36.5417 62.2426C36.5764 61.7919 36.4031 61.3759 36.0564 61.0639C32.0697 57.32 29.6431 51.9813 29.7817 46.088C30.0591 35.688 38.4137 27.2293 48.8137 26.8133C60.1151 26.3626 69.4057 35.4453 69.4057 46.608C69.4057 52.2933 66.9791 57.424 63.1311 61.0639C62.8191 61.3759 62.6457 61.7919 62.6457 62.2426C62.7151 63.5946 62.6804 64.9119 62.6111 66.4026C62.5764 66.7839 63.0271 67.0613 63.3737 66.8186C69.8218 62.416 74.0857 54.9626 74.0857 46.5733C74.1204 32.7759 62.5764 21.5786 48.6404 22.1333Z" fill="white"/>
<defs>
<linearGradient id="paint0_linear_145_24" x1="50" y1="0" x2="50" y2="100" gradientUnits="userSpaceOnUse">
<stop stop-color="#F452FF"/>
<stop offset="1" stop-color="#832BC1"/>
</linearGradient>
</defs>
</svg>
