<svg width="100" height="100" viewBox="0 0 100 100" fill="none" xmlns="http://www.w3.org/2000/svg">
<rect width="100" height="100" rx="24" fill="#0052CC"/>
<path d="M83.8441 38.7386H61.3139L57.5589 60.8516H41.9129L23.5549 82.7559C23.5549 82.7559 24.3894 83.5904 25.6411 83.5904H74.6651C75.9168 83.5904 76.7513 82.7559 76.9599 81.5043L83.8441 38.7386Z" fill="url(#paint0_linear_175_626)"/>
<path d="M14.3761 16C12.9158 16 11.6641 17.2517 12.0813 18.7122L22.3034 80.6702C22.512 81.5047 22.9292 82.1305 23.3465 82.5478C23.3465 82.5478 24.1809 83.3822 25.4326 83.3822L44.4164 60.6434H41.7044L37.5321 38.5304H61.1054H83.6356L86.9734 18.7122C87.182 17.2517 86.139 16 84.6787 16H14.3761Z" fill="white"/>
<defs>
<linearGradient id="paint0_linear_175_626" x1="86.7855" y1="48.485" x2="51.4554" y2="72.3999" gradientUnits="userSpaceOnUse">
<stop offset="0.0718327" stop-color="white" stop-opacity="0.4"/>
<stop offset="1" stop-color="white"/>
</linearGradient>
</defs>
</svg>
