<svg width="100" height="100" viewBox="0 0 100 100" fill="none" xmlns="http://www.w3.org/2000/svg">
<rect width="100" height="100" rx="24" fill="#0052CC"/>
<path d="M15.662 69.2351C14.8857 70.5011 14.0138 71.9822 13.333 73.1407C13.0144 73.6791 12.9197 74.321 13.0693 74.9285C13.219 75.536 13.601 76.0605 14.1332 76.3894L29.6599 85.9443C29.9297 86.1109 30.23 86.2221 30.5433 86.2714C30.8565 86.3207 31.1764 86.3072 31.4844 86.2316C31.7923 86.156 32.0821 86.0198 32.3369 85.8311C32.5917 85.6423 32.8063 85.4047 32.9683 85.1321C33.5775 84.093 34.3777 82.7434 35.2496 81.2982C41.4005 71.1461 47.5993 72.3882 58.7427 77.7151L74.1381 85.0365C74.4267 85.1739 74.7399 85.252 75.0592 85.2661C75.3785 85.2802 75.6974 85.2301 75.997 85.1187C76.2966 85.0073 76.5708 84.837 76.8034 84.6177C77.0359 84.3984 77.2221 84.1347 77.3509 83.8422L84.744 67.1211C84.9951 66.5471 85.0106 65.8974 84.7871 65.3121C84.5637 64.7267 84.1193 64.2526 83.5496 63.9919C80.301 62.4631 73.8395 59.4174 68.0229 56.6107C47.0499 46.4108 29.2658 47.0797 15.662 69.2351Z" fill="url(#paint0_linear_175_630)"/>
<path d="M85.2815 30.06C86.0578 28.7939 86.9297 27.3129 87.6702 26.1544C87.9878 25.6145 88.0806 24.9716 87.9287 24.3639C87.7768 23.7563 87.3923 23.2326 86.858 22.9057L71.3313 13.3508C71.062 13.1861 70.7627 13.0764 70.4507 13.0281C70.1387 12.9798 69.8202 12.9938 69.5137 13.0694C69.2071 13.1449 68.9186 13.2804 68.6648 13.4681C68.411 13.6558 68.1969 13.892 68.0349 14.163C67.4138 15.2021 66.6136 16.5517 65.7417 17.9969C59.5907 28.149 53.4039 26.9068 42.2485 21.58L26.8054 14.2944C26.5174 14.1589 26.2052 14.0824 25.8872 14.0692C25.5692 14.0561 25.2518 14.1066 24.9536 14.2179C24.6554 14.3292 24.3825 14.4989 24.1508 14.7171C23.9191 14.9354 23.7334 15.1977 23.6045 15.4887L16.2114 32.2098C15.9603 32.7838 15.9448 33.4335 16.1683 34.0188C16.3917 34.6042 16.8361 35.0783 17.4058 35.3391C20.6544 36.8679 27.1279 39.9135 32.9325 42.7202C53.8936 52.8365 71.6777 52.1676 85.2815 30.06Z" fill="url(#paint1_linear_175_630)"/>
<defs>
<linearGradient id="paint0_linear_175_630" x1="84.2782" y1="90.8412" x2="37.3039" y2="63.8485" gradientUnits="userSpaceOnUse">
<stop stop-color="white" stop-opacity="0.48"/>
<stop offset="0.38" stop-color="white" stop-opacity="0.66"/>
<stop offset="1" stop-color="white"/>
</linearGradient>
<linearGradient id="paint1_linear_175_630" x1="16.6653" y1="8.4181" x2="63.6396" y2="35.4107" gradientUnits="userSpaceOnUse">
<stop stop-color="white" stop-opacity="0.5"/>
<stop offset="0.39" stop-color="white" stop-opacity="0.68"/>
<stop offset="1" stop-color="white"/>
</linearGradient>
</defs>
</svg>
