<svg width="100" height="100" viewBox="0 0 100 100" fill="none" xmlns="http://www.w3.org/2000/svg">
<rect width="100" height="100" rx="24" fill="#5865F2"/>
<path d="M79.0031 22.5106C73.5009 19.9362 67.6177 18.0653 61.4669 17C60.7115 18.3657 59.829 20.2026 59.2206 21.6639C52.6822 20.6806 46.2039 20.6806 39.7858 21.6639C39.1774 20.2026 38.2749 18.3657 37.5127 17C31.3554 18.0653 25.4654 19.9431 19.9632 22.5242C8.86519 39.2947 5.85671 55.6487 7.36095 71.7705C14.7217 77.2673 21.8552 80.6065 28.8683 82.7915C30.5999 80.4084 32.1442 77.8751 33.4746 75.2052C30.9408 74.2424 28.514 73.0542 26.2209 71.6749C26.8292 71.2242 27.4243 70.753 27.9992 70.2682C41.9853 76.8098 57.1815 76.8098 71.0005 70.2682C71.5822 70.753 72.1771 71.2242 72.7788 71.6749C70.479 73.061 68.0455 74.2491 65.5117 75.212C66.8421 77.8751 68.3798 80.4153 70.118 82.7983C77.1379 80.6132 84.278 77.2742 91.6387 71.7705C93.4037 53.0812 88.6236 36.8775 79.0031 22.5106ZM35.38 61.8557C31.1815 61.8557 27.7384 57.9362 27.7384 53.1632C27.7384 48.3901 31.108 44.4638 35.38 44.4638C39.6521 44.4638 43.0951 48.3832 43.0216 53.1632C43.0282 57.9362 39.6521 61.8557 35.38 61.8557ZM63.6197 61.8557C59.4212 61.8557 55.9781 57.9362 55.9781 53.1632C55.9781 48.3901 59.3476 44.4638 63.6197 44.4638C67.8917 44.4638 71.3348 48.3832 71.2613 53.1632C71.2613 57.9362 67.8917 61.8557 63.6197 61.8557Z" fill="white"/>
</svg>
