<svg width="100" height="100" viewBox="0 0 100 100" fill="none" xmlns="http://www.w3.org/2000/svg">
<rect width="100" height="100" rx="24" fill="white"/>
<path d="M88.4456 35.9455C86.63 31.5769 82.9472 26.8601 80.0632 25.3691C82.1197 29.3516 83.5472 33.6285 84.2948 38.0479L84.3024 38.1179C79.578 26.3448 71.5697 21.5902 65.0254 11.251C64.6944 10.7281 64.3635 10.2041 64.0411 9.65105C63.8567 9.33516 63.709 9.05053 63.5807 8.78855C63.3094 8.26302 63.1002 7.70762 62.9576 7.13362C62.9578 7.10713 62.9482 7.0815 62.9307 7.06162C62.9132 7.04173 62.889 7.02898 62.8627 7.02581C62.8369 7.01874 62.8098 7.01874 62.784 7.02581C62.7786 7.02581 62.77 7.03551 62.7635 7.03767C62.757 7.03982 62.743 7.04953 62.7333 7.05384L62.7495 7.02581C52.2539 13.1711 48.6907 24.5454 48.3673 30.2379C44.1744 30.5254 40.1655 32.0699 36.8636 34.6701C36.5193 34.3784 36.1594 34.1056 35.7855 33.8529C34.8335 30.5203 34.7929 26.9934 35.668 23.6398C31.8135 25.5069 28.3887 28.1538 25.6101 31.4131H25.5907C23.9347 29.3139 24.0512 22.3924 24.146 20.9466C23.6561 21.1435 23.1885 21.3918 22.7509 21.6873C21.289 22.7306 19.9224 23.9014 18.667 25.1858C17.2364 26.6362 15.9298 28.2039 14.7609 29.8724V29.8789V29.8713C12.0748 33.6789 10.1694 37.9807 9.15468 42.5286L9.09861 42.8046C9.01991 43.1722 8.73636 45.0136 8.68785 45.4136C8.68785 45.4449 8.68138 45.474 8.67814 45.5053C8.31239 47.4064 8.08574 49.3316 8 51.2657V51.4813C8.01847 61.9376 11.9563 72.007 19.0361 79.7018C26.1159 87.3966 35.8233 92.1577 46.2418 93.045C56.6604 93.9324 67.0331 90.8816 75.3122 84.495C83.5914 78.1083 89.1754 68.8499 90.962 58.5474C91.032 58.0083 91.0892 57.4746 91.1517 56.9302C92.0124 49.8166 91.0807 42.6007 88.4413 35.939L88.4456 35.9455ZM40.2856 68.6559C40.4808 68.7497 40.664 68.8511 40.8646 68.9405L40.8937 68.9589C40.691 68.8618 40.4883 68.7608 40.2856 68.6559ZM84.3034 38.1298V38.0899L84.311 38.1341L84.3034 38.1298Z" fill="url(#paint0_linear_175_718)"/>
<path d="M88.4455 35.9455C86.63 31.5769 82.9471 26.8601 80.0631 25.3691C82.1196 29.3515 83.5471 33.6285 84.2947 38.0478V38.0877L84.3023 38.1319C87.5235 47.3489 87.0576 57.4543 83.002 66.3358C78.213 76.6114 66.6253 87.1436 48.4804 86.6261C28.88 86.0709 11.6084 71.5216 8.38481 52.471C7.79723 49.4663 8.38481 47.9429 8.68022 45.5009C8.27727 47.3978 8.0524 49.3281 8.00855 51.2668V51.4824C8.02701 61.9387 11.9648 72.0081 19.0446 79.7029C26.1245 87.3977 35.8318 92.1587 46.2504 93.0461C56.6689 93.9334 67.0416 90.8827 75.3208 84.496C83.5999 78.1094 89.184 68.851 90.9705 58.5484C91.0406 58.0094 91.0977 57.4757 91.1602 56.9312C92.0209 49.8177 91.0892 42.6018 88.4498 35.9401L88.4455 35.9455Z" fill="url(#paint1_radial_175_718)"/>
<path d="M88.4455 35.9455C86.63 31.5769 82.9471 26.8601 80.0631 25.3691C82.1196 29.3515 83.5471 33.6285 84.2947 38.0478V38.0877L84.3023 38.1319C87.5235 47.3489 87.0576 57.4543 83.002 66.3358C78.213 76.6114 66.6253 87.1436 48.4804 86.6261C28.88 86.0709 11.6084 71.5216 8.38481 52.471C7.79723 49.4663 8.38481 47.9429 8.68022 45.5009C8.27727 47.3978 8.0524 49.3281 8.00855 51.2668V51.4824C8.02701 61.9387 11.9648 72.0081 19.0446 79.7029C26.1245 87.3977 35.8318 92.1587 46.2504 93.0461C56.6689 93.9334 67.0416 90.8827 75.3208 84.496C83.5999 78.1094 89.184 68.851 90.9705 58.5484C91.0406 58.0094 91.0977 57.4757 91.1602 56.9312C92.0209 49.8177 91.0892 42.6018 88.4498 35.9401L88.4455 35.9455Z" fill="url(#paint2_radial_175_718)"/>
<path d="M68.1336 40.851C68.2241 40.9146 68.3082 40.9782 68.3934 41.0418C67.3438 39.1806 66.0372 37.4766 64.5122 35.98C51.5207 22.9885 61.1085 7.81928 62.7246 7.04303L62.7408 7.01931C52.2452 13.1646 48.682 24.5389 48.3586 30.2314C48.8459 30.198 49.3289 30.157 49.827 30.157C53.5507 30.1642 57.206 31.1573 60.4215 33.0352C63.637 34.9132 66.2978 37.6091 68.1336 40.8488V40.851Z" fill="url(#paint3_radial_175_718)"/>
<path d="M49.8485 43.4493C49.7795 44.4886 46.1074 48.0733 44.8234 48.0733C32.9424 48.0733 31.0126 55.2612 31.0126 55.2612C31.5387 61.3138 35.7563 66.3013 40.8548 68.9319C41.0877 69.0526 41.3238 69.1615 41.5599 69.2683C41.9689 69.4494 42.3778 69.6169 42.7868 69.7707C44.5366 70.3899 46.3693 70.7435 48.2238 70.8197C69.0532 71.7965 73.0854 45.9149 58.0553 38.4004C61.6007 37.9391 65.1912 38.8108 68.1304 40.8467C66.2946 37.6069 63.6337 34.911 60.4183 33.0331C57.2028 31.1551 53.5474 30.1621 49.8237 30.1549C49.3278 30.1549 48.8426 30.1958 48.3553 30.2293C44.1624 30.5167 40.1535 32.0613 36.8517 34.6614C37.4889 35.2005 38.208 35.9207 39.7228 37.4139C42.5582 40.2073 49.8302 43.101 49.8464 43.4406L49.8485 43.4493Z" fill="url(#paint4_radial_175_718)"/>
<path d="M49.8485 43.4493C49.7795 44.4886 46.1074 48.0733 44.8234 48.0733C32.9424 48.0733 31.0126 55.2612 31.0126 55.2612C31.5387 61.3138 35.7563 66.3013 40.8548 68.9319C41.0877 69.0526 41.3238 69.1615 41.5599 69.2683C41.9689 69.4494 42.3778 69.6169 42.7868 69.7707C44.5366 70.3899 46.3693 70.7435 48.2238 70.8197C69.0532 71.7965 73.0854 45.9149 58.0553 38.4004C61.6007 37.9391 65.1912 38.8108 68.1304 40.8467C66.2946 37.6069 63.6337 34.911 60.4183 33.0331C57.2028 31.1551 53.5474 30.1621 49.8237 30.1549C49.3278 30.1549 48.8426 30.1958 48.3553 30.2293C44.1624 30.5167 40.1535 32.0613 36.8517 34.6614C37.4889 35.2005 38.208 35.9207 39.7228 37.4139C42.5582 40.2073 49.8302 43.101 49.8464 43.4406L49.8485 43.4493Z" fill="url(#paint5_radial_175_718)"/>
<path d="M34.9057 33.2825C35.2442 33.4981 35.5234 33.6857 35.7682 33.855C34.8162 30.5224 34.7756 26.9955 35.6507 23.6419C31.7962 25.509 28.3713 28.1559 25.5928 31.4152C25.7966 31.4098 31.8578 31.3009 34.9057 33.2825Z" fill="url(#paint6_radial_175_718)"/>
<path d="M8.37727 52.4732C11.6019 71.5237 28.8725 86.0784 48.4728 86.6283C66.6177 87.1415 78.2076 76.6082 82.9945 66.3379C87.0501 57.4564 87.516 47.3511 84.2947 38.1341V38.0942C84.2947 38.0629 84.2883 38.0446 84.2947 38.0543L84.3023 38.1244C85.7847 47.8027 80.862 57.1749 73.1652 63.5251L73.1415 63.579C58.1447 75.7942 43.7948 70.9469 40.8947 68.9696C40.692 68.8726 40.4893 68.7716 40.2866 68.6667C31.5441 64.4879 27.9313 56.527 28.7075 49.6916C26.6322 49.7222 24.5926 49.1504 22.8358 48.0453C21.0789 46.9402 19.6802 45.3493 18.8092 43.4654C21.1044 42.0595 23.7213 41.2647 26.4106 41.1567C29.0999 41.0488 31.7721 41.6313 34.1726 42.8487C39.1204 45.0946 44.7505 45.3159 49.8593 43.4654C49.8431 43.1258 42.5712 40.231 39.7357 37.4387C38.2209 35.9455 37.5018 35.2264 36.8646 34.6862C36.5203 34.3946 36.1604 34.1217 35.7865 33.869C35.5385 33.6997 35.2593 33.5165 34.924 33.2965C31.8761 31.3149 25.8149 31.4238 25.6144 31.4292H25.595C23.939 29.3301 24.0554 22.4085 24.1503 20.9627C23.6604 21.1596 23.1927 21.4079 22.7552 21.7034C21.2933 22.7468 19.9266 23.9175 18.6712 25.2019C17.2355 26.6483 15.9235 28.2124 14.749 29.8778C12.0629 33.6853 10.1575 37.9861 9.14274 42.5339C9.12225 42.6191 7.63767 49.1094 8.36972 52.4753L8.37727 52.4732Z" fill="url(#paint7_radial_175_718)"/>
<path d="M64.5111 35.9778C66.0365 37.4761 67.3432 39.1819 68.3923 41.045C68.622 41.2186 68.8365 41.3911 69.0187 41.5582C78.4922 50.2911 73.5285 62.6356 73.1587 63.5089C80.8544 57.1684 85.7728 47.7898 84.2958 38.1082C79.5693 26.3243 71.5523 21.5697 65.0189 11.2305C64.6879 10.7076 64.3569 10.1836 64.0345 9.63054C63.8502 9.31465 63.7025 9.03002 63.5742 8.76804C63.3028 8.24251 63.0937 7.68711 62.951 7.11311C62.9512 7.08662 62.9416 7.06099 62.9241 7.04111C62.9067 7.02122 62.8824 7.00848 62.8561 7.0053C62.8304 6.99823 62.8032 6.99823 62.7774 7.0053C62.7721 7.0053 62.7634 7.015 62.757 7.01716C62.7505 7.01931 62.7365 7.02902 62.7268 7.03333C61.1107 7.79988 51.525 22.9788 64.5165 35.9595L64.5111 35.9778Z" fill="url(#paint8_radial_175_718)"/>
<path d="M69.0176 41.5625C68.8354 41.3954 68.6209 41.2229 68.3913 41.0493C68.3061 40.9857 68.222 40.9221 68.1314 40.8585C65.1923 38.8227 61.6018 37.9509 58.0563 38.4122C73.0854 45.9268 69.0532 71.8019 48.2249 70.8316C46.3703 70.7553 44.5377 70.4017 42.7879 69.7825C42.3789 69.6294 41.9699 69.462 41.561 69.2801C41.3249 69.1723 41.0887 69.0645 40.8559 68.9438L40.885 68.9621C43.7895 70.9448 58.135 75.7888 73.1318 63.5714L73.1555 63.5175C73.5296 62.6442 78.4933 50.2997 69.0155 41.5668L69.0176 41.5625Z" fill="url(#paint9_radial_175_718)"/>
<path d="M31.0136 55.2548C31.0136 55.2548 32.9424 48.0669 44.8245 48.0669C46.1085 48.0669 49.7838 44.4821 49.8496 43.4428C44.7407 45.2933 39.1107 45.072 34.1629 42.8261C31.7624 41.6086 29.0902 41.0261 26.4009 41.1341C23.7116 41.242 21.0946 42.0369 18.7995 43.4428C19.6705 45.3267 21.0692 46.9176 22.8261 48.0226C24.5829 49.1277 26.6225 49.6996 28.6978 49.669C27.9237 56.5011 31.5355 64.4609 40.2769 68.644C40.4721 68.7378 40.6553 68.8392 40.8559 68.9287C35.7531 66.2926 31.5398 61.3074 31.0136 55.258V55.2548Z" fill="url(#paint10_radial_175_718)"/>
<path d="M88.4456 35.9455C86.6301 31.5769 82.9472 26.8601 80.0632 25.3691C82.1198 29.3516 83.5472 33.6285 84.2948 38.0479L84.3024 38.1179C79.578 26.3448 71.5697 21.5902 65.0255 11.251C64.6945 10.7281 64.3635 10.2041 64.0411 9.65105C63.8568 9.33516 63.7091 9.05053 63.5808 8.78855C63.3094 8.26302 63.1003 7.70762 62.9576 7.13362C62.9578 7.10713 62.9482 7.0815 62.9307 7.06162C62.9132 7.04173 62.889 7.02898 62.8627 7.02581C62.837 7.01874 62.8098 7.01874 62.784 7.02581C62.7786 7.02581 62.77 7.03551 62.7635 7.03767C62.7571 7.03982 62.7431 7.04953 62.7334 7.05384L62.7495 7.02581C52.254 13.1711 48.6907 24.5454 48.3673 30.2379C48.8546 30.2045 49.3376 30.1635 49.8357 30.1635C53.5594 30.1707 57.2148 31.1638 60.4302 33.0417C63.6457 34.9197 66.3066 37.6156 68.1423 40.8553C65.2032 38.8195 61.6127 37.9477 58.0672 38.409C73.0963 45.9236 69.0641 71.7987 48.2358 70.8283C46.3812 70.7521 44.5486 70.3985 42.7988 69.7793C42.3898 69.6262 41.9808 69.4588 41.5719 69.2769C41.3358 69.1691 41.0996 69.0613 40.8668 68.9405L40.8959 68.9589C40.6932 68.8618 40.4905 68.7608 40.2878 68.6559C40.483 68.7497 40.6662 68.8511 40.8668 68.9405C35.764 66.3034 31.5507 61.3182 31.0245 55.2699C31.0245 55.2699 32.9533 48.082 44.8354 48.082C46.1194 48.082 49.7947 44.4972 49.8605 43.4579C49.8443 43.1183 42.5724 40.2235 39.7369 37.4312C38.2221 35.938 37.503 35.2189 36.8658 34.6787C36.5215 34.387 36.1616 34.1142 35.7877 33.8615C34.8357 30.5289 34.7951 27.002 35.6702 23.6484C31.8157 25.5155 28.3909 28.1624 25.6123 31.4217H25.5929C23.9369 29.3226 24.0534 22.401 24.1482 20.9552C23.6583 21.1521 23.1907 21.4004 22.7531 21.6959C21.2912 22.7392 19.9246 23.91 18.6692 25.1944C17.2386 26.6448 15.932 28.2125 14.7631 29.881C12.077 33.6886 10.1716 37.9893 9.15687 42.5372L9.10081 42.8132C9.02211 43.1808 8.66956 45.0481 8.61889 45.4492C8.29642 47.3768 8.09048 49.322 8.0022 51.2743V51.49C8.02066 61.9462 11.9585 72.0156 19.0383 79.7104C26.1181 87.4053 35.8254 92.1663 46.244 93.0536C56.6626 93.941 67.0353 90.8903 75.3144 84.5036C83.5936 78.117 89.1776 68.8585 90.9641 58.556C91.0342 58.0169 91.0914 57.4833 91.1539 56.9388C92.0146 49.8252 91.0828 42.6093 88.4435 35.9477L88.4456 35.9455Z" fill="url(#paint11_linear_175_718)"/>
<defs>
<linearGradient id="paint0_linear_175_718" x1="82.9148" y1="20.3729" x2="13.5448" y2="87.3031" gradientUnits="userSpaceOnUse">
<stop offset="0.048" stop-color="#FFF44F"/>
<stop offset="0.111" stop-color="#FFE847"/>
<stop offset="0.225" stop-color="#FFC830"/>
<stop offset="0.368" stop-color="#FF980E"/>
<stop offset="0.401" stop-color="#FF8B16"/>
<stop offset="0.462" stop-color="#FF672A"/>
<stop offset="0.534" stop-color="#FF3647"/>
<stop offset="0.705" stop-color="#E31587"/>
</linearGradient>
<radialGradient id="paint1_radial_175_718" cx="0" cy="0" r="1" gradientUnits="userSpaceOnUse" gradientTransform="translate(80.2302 16.7225) scale(87.1127 87.1127)">
<stop offset="0.129" stop-color="#FFBD4F"/>
<stop offset="0.186" stop-color="#FFAC31"/>
<stop offset="0.247" stop-color="#FF9D17"/>
<stop offset="0.283" stop-color="#FF980E"/>
<stop offset="0.403" stop-color="#FF563B"/>
<stop offset="0.467" stop-color="#FF3750"/>
<stop offset="0.71" stop-color="#F5156C"/>
<stop offset="0.782" stop-color="#EB0878"/>
<stop offset="0.86" stop-color="#E50080"/>
</radialGradient>
<radialGradient id="paint2_radial_175_718" cx="0" cy="0" r="1" gradientUnits="userSpaceOnUse" gradientTransform="translate(47.8863 52.3007) scale(87.1127 87.1127)">
<stop offset="0.3" stop-color="#960E18"/>
<stop offset="0.351" stop-color="#B11927" stop-opacity="0.74"/>
<stop offset="0.435" stop-color="#DB293D" stop-opacity="0.343"/>
<stop offset="0.497" stop-color="#F5334B" stop-opacity="0.094"/>
<stop offset="0.53" stop-color="#FF3750" stop-opacity="0"/>
</radialGradient>
<radialGradient id="paint3_radial_175_718" cx="0" cy="0" r="1" gradientUnits="userSpaceOnUse" gradientTransform="translate(58.6676 -2.68384) scale(63.1028 63.1028)">
<stop offset="0.132" stop-color="#FFF44F"/>
<stop offset="0.252" stop-color="#FFDC3E"/>
<stop offset="0.506" stop-color="#FF9D12"/>
<stop offset="0.526" stop-color="#FF980E"/>
</radialGradient>
<radialGradient id="paint4_radial_175_718" cx="0" cy="0" r="1" gradientUnits="userSpaceOnUse" gradientTransform="translate(38.1832 74.9414) scale(41.4756 41.4756)">
<stop offset="0.353" stop-color="#3A8EE6"/>
<stop offset="0.472" stop-color="#5C79F0"/>
<stop offset="0.669" stop-color="#9059FF"/>
<stop offset="1" stop-color="#C139E6"/>
</radialGradient>
<radialGradient id="paint5_radial_175_718" cx="0" cy="0" r="1" gradientUnits="userSpaceOnUse" gradientTransform="translate(52.0997 44.8228) rotate(-13.5916) scale(21.9939 25.7494)">
<stop offset="0.206" stop-color="#9059FF" stop-opacity="0"/>
<stop offset="0.278" stop-color="#8C4FF3" stop-opacity="0.064"/>
<stop offset="0.747" stop-color="#7716A8" stop-opacity="0.45"/>
<stop offset="0.975" stop-color="#6E008B" stop-opacity="0.6"/>
</radialGradient>
<radialGradient id="paint6_radial_175_718" cx="0" cy="0" r="1" gradientUnits="userSpaceOnUse" gradientTransform="translate(46.8082 13.4881) scale(29.8426 29.8426)">
<stop stop-color="#FFE226"/>
<stop offset="0.121" stop-color="#FFDB27"/>
<stop offset="0.295" stop-color="#FFC82A"/>
<stop offset="0.502" stop-color="#FFA930"/>
<stop offset="0.732" stop-color="#FF7E37"/>
<stop offset="0.792" stop-color="#FF7139"/>
</radialGradient>
<radialGradient id="paint7_radial_175_718" cx="0" cy="0" r="1" gradientUnits="userSpaceOnUse" gradientTransform="translate(70.527 -5.91823) scale(127.327 127.327)">
<stop offset="0.113" stop-color="#FFF44F"/>
<stop offset="0.456" stop-color="#FF980E"/>
<stop offset="0.622" stop-color="#FF5634"/>
<stop offset="0.716" stop-color="#FF3647"/>
<stop offset="0.904" stop-color="#E31587"/>
</radialGradient>
<radialGradient id="paint8_radial_175_718" cx="0" cy="0" r="1" gradientUnits="userSpaceOnUse" gradientTransform="translate(59.9441 1.14136) rotate(83.976) scale(93.307 61.2366)">
<stop stop-color="#FFF44F"/>
<stop offset="0.06" stop-color="#FFE847"/>
<stop offset="0.168" stop-color="#FFC830"/>
<stop offset="0.304" stop-color="#FF980E"/>
<stop offset="0.356" stop-color="#FF8B16"/>
<stop offset="0.455" stop-color="#FF672A"/>
<stop offset="0.57" stop-color="#FF3647"/>
<stop offset="0.737" stop-color="#E31587"/>
</radialGradient>
<radialGradient id="paint9_radial_175_718" cx="0" cy="0" r="1" gradientUnits="userSpaceOnUse" gradientTransform="translate(46.8082 24.2694) scale(79.4796 79.4796)">
<stop offset="0.137" stop-color="#FFF44F"/>
<stop offset="0.48" stop-color="#FF980E"/>
<stop offset="0.592" stop-color="#FF5634"/>
<stop offset="0.655" stop-color="#FF3647"/>
<stop offset="0.904" stop-color="#E31587"/>
</radialGradient>
<radialGradient id="paint10_radial_175_718" cx="0" cy="0" r="1" gradientUnits="userSpaceOnUse" gradientTransform="translate(67.2926 28.5819) scale(86.9941 86.9941)">
<stop offset="0.094" stop-color="#FFF44F"/>
<stop offset="0.231" stop-color="#FFE141"/>
<stop offset="0.509" stop-color="#FFAF1E"/>
<stop offset="0.626" stop-color="#FF980E"/>
</radialGradient>
<linearGradient id="paint11_linear_175_718" x1="82.0739" y1="20.0172" x2="23.0572" y2="79.0447" gradientUnits="userSpaceOnUse">
<stop offset="0.167" stop-color="#FFF44F" stop-opacity="0.8"/>
<stop offset="0.266" stop-color="#FFF44F" stop-opacity="0.634"/>
<stop offset="0.489" stop-color="#FFF44F" stop-opacity="0.217"/>
<stop offset="0.6" stop-color="#FFF44F" stop-opacity="0"/>
</linearGradient>
</defs>
</svg>
