<svg width="100" height="100" viewBox="0 0 100 100" fill="none" xmlns="http://www.w3.org/2000/svg">
<rect width="100" height="100" rx="24" fill="white"/>
<path d="M90.5852 41.4029L90.4657 41.0975L78.8965 10.9043C78.6611 10.3126 78.2443 9.81056 77.7059 9.47035C77.1672 9.13593 76.5388 8.97486 75.9057 9.00889C75.2725 9.04293 74.665 9.27042 74.1653 9.66067C73.671 10.0621 73.3125 10.6061 73.1385 11.2186L65.3268 35.1181H33.6953L25.8837 11.2186C25.7142 10.6028 25.3549 10.0561 24.8569 9.65624C24.3571 9.266 23.7496 9.0385 23.1164 9.00447C22.4833 8.97043 21.8549 9.1315 21.3162 9.46593C20.779 9.8075 20.3626 10.3091 20.1256 10.8999L8.53434 41.0798L8.41926 41.3852C6.75383 45.7367 6.54826 50.5117 7.83355 54.9902C9.11883 59.4688 11.8253 63.4081 15.5449 66.2142L15.5847 66.2451L15.6909 66.3204L33.3147 79.5183L42.0336 86.1172L47.3446 90.127C47.9659 90.5987 48.7244 90.854 49.5044 90.854C50.2844 90.854 51.043 90.5987 51.6642 90.127L56.9753 86.1172L65.6942 79.5183L83.4241 66.2407L83.4684 66.2053C87.1796 63.3987 89.8798 59.4635 91.1631 54.991C92.4465 50.5184 92.2436 45.7502 90.5852 41.4029Z" fill="#E24329"/>
<path d="M90.5852 41.4029L90.4657 41.0975C84.8284 42.2546 79.5163 44.6424 74.9088 48.0903L49.5 67.3029C58.1525 73.8488 65.6853 79.536 65.6853 79.536L83.4153 66.2584L83.4595 66.223C87.1761 63.4165 89.8804 59.4787 91.1656 55.0024C92.4507 50.5261 92.247 45.7534 90.5852 41.4029Z" fill="#FC6D26"/>
<path d="M33.3147 79.536L42.0336 86.1349L47.3446 90.1447C47.9659 90.6164 48.7244 90.8718 49.5044 90.8718C50.2844 90.8718 51.043 90.6164 51.6642 90.1447L56.9753 86.1349L65.6942 79.536C65.6942 79.536 58.1525 73.831 49.5 67.3029C40.8475 73.831 33.3147 79.536 33.3147 79.536Z" fill="#FCA326"/>
<path d="M24.0868 48.0903C19.483 44.6353 14.172 42.2413 8.53434 41.0798L8.41926 41.3852C6.75383 45.7367 6.54826 50.5117 7.83355 54.9902C9.11883 59.4688 11.8253 63.4081 15.5449 66.2142L15.5847 66.2452L15.6909 66.3204L33.3147 79.5183C33.3147 79.5183 40.8386 73.8311 49.5 67.2852L24.0868 48.0903Z" fill="#FC6D26"/>
</svg>
