<svg width="100" height="100" viewBox="0 0 100 100" fill="none" xmlns="http://www.w3.org/2000/svg">
<rect width="100" height="100" rx="24" fill="white"/>
<path d="M71.2031 72.7961C71.2104 75.6402 72.2071 78.5485 72.206 81.3926C72.2049 84.2794 71.2061 87.102 71.2149 89.989C56.8761 89.9869 42.5371 89.989 28.1986 89.9878C28.2055 87.1498 26.8624 84.2303 26.8612 81.3926C26.8601 78.4999 28.201 75.689 28.2068 72.7961C42.5392 72.8007 56.8707 72.7974 71.2031 72.7961Z" fill="#3BAB59"/>
<path d="M54.6122 25.3755C56.6039 23.3879 59.7836 22.3408 61.7525 20.3306C69.9107 28.539 78.1033 36.7153 86.2809 44.9068C87.0176 45.6653 87.9158 46.3633 88.2035 47.4336C88.4844 48.1301 88.3985 48.8889 88.4112 49.6211C88.4124 61.6148 88.41 73.6073 88.4131 85.5998C88.5942 87.9663 86.338 90.1768 83.9818 89.9887C79.7259 89.9887 75.4709 89.9899 71.2148 89.9887C71.1975 84.2578 71.2181 78.527 71.2033 72.7962C71.2136 66.4955 71.2078 60.1961 71.2057 53.8967C65.894 48.5935 60.5938 43.2782 55.2858 37.9725C53.434 36.1047 51.5534 34.2641 49.7189 32.3802C50.7248 31.4175 53.5714 26.4141 54.6122 25.3755Z" fill="#4586F7"/>
<path d="M28.193 53.9199C28.2169 60.2112 28.1906 66.504 28.2066 72.7961C28.1951 78.527 28.2124 84.2569 28.1988 89.9878C23.7203 89.9856 19.2418 89.989 14.7634 89.9856C12.8931 89.7507 11.2464 88.1762 11.008 86.2908C10.9932 81.2341 11.0035 76.1768 11.0047 71.1206C13.9888 68.1643 15.8506 64.3248 18.8244 61.3579C21.5793 58.5915 25.4508 56.699 28.193 53.9199Z" fill="#FDC00D"/>
<path d="M49.4838 10.0077C49.854 10.0537 50.294 9.90792 50.6231 10.1154C51.5168 10.2896 52.3004 10.8065 52.9289 11.4516C55.5988 14.1275 58.2711 16.801 60.9437 19.4746C61.2117 19.761 61.5244 20.0075 61.7524 20.3305C58.7547 23.3914 55.7007 26.3961 52.6812 29.4353C51.691 30.4139 50.7247 31.4177 49.7188 32.3804C48.3917 33.6307 47.1357 34.9541 45.8361 36.2331C39.9574 42.1312 34.0581 48.0078 28.193 53.9198C25.4508 56.6989 22.6753 59.4468 19.9201 62.2132C16.9466 65.1801 13.9888 68.1642 11.0047 71.1205C10.9944 64.6381 11.0047 58.1551 11.0025 51.6737C11.0095 50.45 10.9829 49.226 11.0252 48.0033C11.0128 47.7556 11.1994 47.5596 11.1879 47.3122C11.3612 47.0213 11.5158 46.7185 11.6842 46.4252C12.1082 45.8614 12.6354 45.3893 13.1271 44.8864C24.251 33.7395 35.3782 22.5951 46.5054 11.4503C46.9606 10.9725 47.4817 10.5382 48.1156 10.3217C48.5602 10.1729 49.0002 9.95631 49.4838 10.0077Z" fill="#EC5043"/>
</svg>
