<svg width="100" height="100" viewBox="0 0 100 100" fill="none" xmlns="http://www.w3.org/2000/svg">
<rect width="100" height="100" rx="24" fill="white"/>
<g clip-path="url(#clip0_242_472)">
<path d="M49.5001 49.5004L67.9036 60.1252L49.5001 92.0001C72.9722 92.0001 92 72.9724 92 49.5004C92 41.7569 89.9188 34.5035 86.3003 28.2502H49.4997L49.5001 49.5004Z" fill="url(#paint0_linear_242_472)"/>
<path d="M49.4997 7C33.7692 7 20.0454 15.5523 12.6965 28.2552L31.0962 60.1251L49.4997 49.5003V28.2502H86.3003C78.9502 15.5504 65.2283 7 49.4997 7Z" fill="url(#paint1_linear_242_472)"/>
<path d="M7.00025 49.5003C7.00025 72.9723 26.0274 92 49.5001 92L67.9036 60.125L49.5001 49.5003L31.0967 60.125L12.697 28.2551C9.08047 34.5066 7 41.7574 7 49.4996" fill="url(#paint2_linear_242_472)"/>
<path d="M70.7504 49.5004C70.7504 61.2364 61.2362 70.7506 49.5001 70.7506C37.7641 70.7506 28.2499 61.2364 28.2499 49.5004C28.2499 37.7644 37.7641 28.2502 49.5001 28.2502C61.2362 28.2502 70.7504 37.7644 70.7504 49.5004Z" fill="white"/>
<path d="M66.766 49.5004C66.766 59.0359 59.0357 66.7662 49.5001 66.7662C39.9646 66.7662 32.2343 59.0359 32.2343 49.5004C32.2343 39.9649 39.9646 32.2346 49.5001 32.2346C59.0357 32.2346 66.766 39.9649 66.766 49.5004Z" fill="url(#paint3_linear_242_472)"/>
</g>
<defs>
<linearGradient id="paint0_linear_242_472" x1="70.8406" y1="28.1625" x2="70.7498" y2="92.0001" gradientUnits="userSpaceOnUse">
<stop stop-color="#AFCCFB"/>
<stop offset="1" stop-color="#8BB5F8"/>
</linearGradient>
<linearGradient id="paint1_linear_242_472" x1="43.3361" y1="7.64752" x2="46.849" y2="64.7603" gradientUnits="userSpaceOnUse">
<stop stop-color="#1972E7"/>
<stop offset="1" stop-color="#1969D5"/>
</linearGradient>
<linearGradient id="paint2_linear_242_472" x1="37.4518" y1="28.2551" x2="37.4518" y2="92" gradientUnits="userSpaceOnUse">
<stop stop-color="#659CF6"/>
<stop offset="1" stop-color="#4285F4"/>
</linearGradient>
<linearGradient id="paint3_linear_242_472" x1="49.324" y1="32.3003" x2="49.5001" y2="66.7662" gradientUnits="userSpaceOnUse">
<stop stop-color="#3680F0"/>
<stop offset="1" stop-color="#2678EC"/>
</linearGradient>
<clipPath id="clip0_242_472">
<rect width="85" height="85" fill="white" transform="translate(7 7)"/>
</clipPath>
</defs>
</svg>
