<svg width="100" height="100" viewBox="0 0 100 100" fill="none" xmlns="http://www.w3.org/2000/svg">
<rect width="100" height="100" rx="24" fill="white"/>
<path d="M32.9429 61.7845C47.2708 61.7845 58.8859 50.1695 58.8859 35.8416C58.8859 21.5137 47.2708 9.89868 32.9429 9.89868C18.615 9.89868 7 21.5137 7 35.8416C7 50.1695 18.615 61.7845 32.9429 61.7845Z" fill="#4285F4"/>
<path d="M92 38.3726C92 41.2852 89.6386 43.6456 86.727 43.6456C83.8154 43.6456 81.454 41.2852 81.454 38.3726C81.454 35.4602 83.8154 33.0996 86.727 33.0996C89.6386 33.0996 92 35.4602 92 38.3726Z" fill="#34A853"/>
<path d="M82.5087 51.2386C82.5087 57.0626 77.7876 61.7842 71.9629 61.7842C66.1377 61.7842 61.4169 57.0626 61.4169 51.2386C61.4169 45.4143 66.1379 40.6926 71.9629 40.6926C77.7877 40.6926 82.5087 45.4144 82.5087 51.2386Z" fill="#EA4335"/>
<path d="M84.6178 78.4469C84.6178 85.4361 78.9527 91.1014 71.9628 91.1014C64.9728 91.1014 59.3076 85.4361 59.3076 78.4469C59.3076 71.4579 64.9727 65.792 71.9628 65.792C78.9527 65.792 84.6178 71.4579 84.6178 78.4469Z" fill="#FBBC05"/>
</svg>
