<svg width="100" height="100" viewBox="0 0 100 100" fill="none" xmlns="http://www.w3.org/2000/svg">
<rect width="100" height="100" rx="24" fill="#DCDAF5"/>
<path d="M84.2678 50.5C84.2353 42.5953 81.5101 34.9376 76.5416 28.7895V72.2492C81.5803 66.1256 84.3141 58.43 84.2678 50.5ZM71.2492 77.5416H27.7895C30.9152 79.8955 34.3974 81.7344 38.1039 82.9885C41.746 84.3887 45.5996 85.1595 49.5 85.2678C53.466 85.1853 57.3874 84.4141 61.0893 82.9885C64.7361 81.7067 68.1631 79.8694 71.2492 77.5416ZM45.6369 69.8154L30.1846 38.9107V69.8154H45.6369ZM68.8154 38.9107L53.3631 69.8154H68.8154V38.9107ZM49.5 60.2736L63.9866 31.1846H35.0134L49.5 60.2736ZM71.2492 23.4584C65.1099 18.4608 57.4356 15.7321 49.5193 15.7321C41.6031 15.7321 33.9287 18.4608 27.7895 23.4584H71.2492ZM22.4584 72.2492V28.7895C17.4899 34.9376 14.7647 42.5953 14.7322 50.5C14.6859 58.43 17.4197 66.1256 22.4584 72.2492ZM91.9939 50.5C92.0904 56.0946 91.036 61.6494 88.8962 66.8195C86.7564 71.9896 83.5768 76.6648 79.5548 80.5548C75.6648 84.5768 70.9896 87.7564 65.8195 89.8962C60.6494 92.036 55.0946 93.0904 49.5 92.9939C43.906 93.0858 38.3526 92.0293 33.1832 89.8898C28.0137 87.7502 23.338 84.5731 19.4452 80.5548C15.4232 76.6648 12.2436 71.9896 10.1038 66.8195C7.96397 61.6494 6.90958 56.0946 7.00607 50.5C6.91418 44.906 7.97067 39.3526 10.1102 34.1832C12.2498 29.0137 15.4269 24.338 19.4452 20.4452C23.338 16.4269 28.0137 13.2498 33.1832 11.1102C38.3526 8.97067 43.906 7.91418 49.5 8.00607C55.0946 7.90958 60.6494 8.96397 65.8195 11.1038C70.9896 13.2436 75.6648 16.4232 79.5548 20.4452C83.5731 24.338 86.7502 29.0137 88.8898 34.1832C91.0293 39.3526 92.0858 44.906 91.9939 50.5Z" fill="#22182B"/>
</svg>
