<svg width="100" height="100" viewBox="0 0 100 100" fill="none" xmlns="http://www.w3.org/2000/svg">
<rect width="100" height="100" rx="24" fill="#629FBC"/>
<path d="M17.1037 46.9199L17.7058 47.816C16.5017 47.7806 15.2408 47.6637 15 47.1466C15 47.1218 15.0071 47.097 15.0142 47.0722C15.6871 46.8951 16.2644 46.8845 17.1037 46.9199ZM23.5 49.647L23.7904 50.5324L23.1104 50.5608L23.2733 49.6541C23.349 49.6541 23.4246 49.6541 23.5 49.647ZM25.8162 56.1105C25.2141 56.663 24.7502 57.0314 24.3925 57.8707C23.8966 57.4634 23.6381 56.6559 23.4787 55.7528C23.3016 54.7682 23.245 53.6739 23.1104 52.8557L23.1529 52.4378L23.8506 52.3882L25.6285 55.7528L25.8162 56.107V56.1105ZM24.9166 47.816C25.005 47.2111 25.0959 46.6067 25.1893 46.0026L25.4196 45.9885C25.2496 46.5976 25.0796 47.2068 24.9166 47.816ZM24.4314 39.5922L27.6189 40.4564C27.6137 40.5036 27.609 40.5508 27.6048 40.5981C26.1208 41.696 24.7502 42.1776 24.0135 44.161L24.2933 39.7481L24.4314 39.5958V39.5922ZM27.4064 35.0235C27.201 37.0777 27.4914 37.9843 27.8491 39.2593C28.4158 39.6631 28.6425 39.9074 28.4583 40.506C27.5021 40.0314 26.4891 39.5356 25.0229 39.6135C24.9871 39.5725 24.9517 39.5311 24.9166 39.4895C25.3275 37.871 26.1279 36.8758 26.7477 35.5937L27.41 35.02L27.4064 35.0235ZM31.9893 32.2893L32.1275 32.2787C31.6883 33.7945 31.5112 37.2902 30.7427 38.6785C28.9258 37.8179 28.9612 34.0885 30.9941 32.6152L31.9893 32.2893ZM30.2964 43.5164L31.8264 45.1774C31.2243 47.0262 30.0875 48.418 29.6058 50.5608L28.7027 50.4899C27.9306 48.333 29.8608 44.8197 30.1902 43.2472L31.6068 43.4101C31.7839 43.8529 31.9539 44.2956 32.1275 44.7418L30.2964 43.5164ZM34.4827 32.2752C34.3268 34.0708 34.7235 35.0022 34.8297 36.3906C33.9302 36.851 33.027 37.3043 32.1275 37.7612C32.2945 35.9025 32.7399 34.0795 33.4485 32.3531L34.4827 32.2752ZM35.531 29.5481L35.7329 29.5339L35.4283 30.4087L34.8297 30.4477L35.2902 29.9058L35.531 29.5481ZM35.7329 37.9241L33.027 39.5887C33.0837 38.5829 34.3658 37.2264 35.4389 36.851L35.6868 36.9856L35.7329 37.9241ZM37.5391 31.627C37.3727 32.555 37.2097 33.4793 37.0504 34.4072L36.5439 34.726L36.2747 35.02C35.786 34.3329 35.662 32.647 35.7683 31.365L37.5391 31.627ZM39.3383 29.5375C39.3383 29.5729 39.3312 29.6012 39.3276 29.6296L38.637 30.2918C38.1766 30.4689 38.1199 30.4618 37.5391 30.4406C37.6135 30.1396 37.6985 29.8385 37.7799 29.5375H39.3383ZM41.1445 25.8825L40.337 27.7064L37.5391 27.5046L37.5497 27.3558C38.7008 26.8246 39.7101 26.1941 41.141 25.8789L41.1445 25.8825ZM39.6854 30.6283L39.9829 30.4512L40.2414 31.365L39.3383 31.1879L39.6854 30.6248V30.6283ZM42.0441 33.3306C40.971 33.7485 39.487 33.6316 38.6264 34.1098C38.5646 33.7437 38.502 33.3777 38.4387 33.0118L38.9983 32.2787C39.9085 32.6329 40.8187 32.9941 41.7253 33.3518L42.0441 33.3306ZM39.7385 34.9739L38.5131 35.02C38.4847 34.8925 38.4635 34.765 38.4387 34.6339C39.2993 34.2833 40.7443 34.2514 42.0441 34.1062L40.6735 34.8606L39.7385 34.9739ZM42.9437 34.9739C41.9131 35.2325 40.9249 36.1427 40.2485 36.851C40.1174 36.0222 41.7076 34.5631 42.4691 34.1062C42.8056 34.4072 42.841 34.3754 42.9437 34.9739ZM44.7499 24.055L44.7358 24.1967L43.652 24.8519L42.0441 24.9687L42.0583 24.8271L44.7499 24.055ZM43.2908 26.7962L42.9437 26.2827C43.7583 25.5991 45.5539 25.9746 46.5526 26.0773L43.2908 26.7962ZM51.3587 24.1046C52.8639 24.2285 54.2416 24.5827 55.2899 25.2379L55.5661 25.2202L55.3997 25.4539L53.9582 25.8789C53.0905 25.7585 52.2228 25.631 51.3587 25.5071L45.6495 24.696L45.6637 24.5792C47.5275 24.1365 49.4474 23.9777 51.3587 24.1081V24.1046ZM57.3547 23.6229L57.0359 24.055C56.1717 23.9932 55.3455 23.675 54.663 23.1412L57.3688 23.4848L57.3547 23.6229ZM62.1572 27.0016L62.9045 26.7183L63.6801 27.3841C63.5738 28.1456 62.8407 28.7689 62.2776 29.5091L61.8455 29.5375C60.6697 27.5896 59.1857 25.461 56.5826 24.7102L56.4693 24.48L57.5211 24.055C59.2884 24.6712 60.7618 25.6062 62.4015 26.1446C62.614 26.6581 62.5467 26.4846 62.1536 27.0016H62.1572ZM64.3317 31.3331L64.1263 31.1312L63.6801 31.1631L64.4238 30.4548L64.3317 31.3331ZM65.1286 41.4197C66.3469 42.4751 66.6586 44.0051 66.1522 45.9885C65.628 44.8126 65.1074 43.6333 64.5797 42.4574C64.7567 42.1954 64.9232 41.9333 65.0967 41.6712C65.1074 41.5862 65.1145 41.5012 65.1286 41.4197ZM65.4828 33.2031L65.4686 33.3731L64.8276 34.1062L64.5797 33.621C64.9657 32.9304 64.6859 33.3023 65.1924 33.2314L65.4828 33.2031ZM66.2336 33.1925L69.0882 34.2514C69.0836 34.3461 69.0753 34.4407 69.0634 34.5347C68.8226 34.7012 68.5817 34.8606 68.3409 35.02L65.4828 33.9645L65.5076 33.6777L66.2336 33.1925ZM71.794 36.851L70.2109 35.7991L69.9913 35.3741C70.6784 34.9491 70.5792 34.9704 71.3053 35.112C71.4646 35.6929 71.6311 36.2737 71.794 36.851ZM72.6936 36.5039L72.3749 36.851C71.9924 36.6527 71.9251 36.4012 71.794 35.9337L72.6192 36.295L72.6936 36.5039ZM72.0207 33.8866L71.794 33.9043C72.0419 33.667 72.2899 33.4298 72.5449 33.196C72.3678 33.4262 72.1907 33.6564 72.0207 33.8866ZM76.3025 38.4837L75.8598 38.6785C75.0551 38.2277 74.2512 37.7755 73.448 37.322C73.1959 36.9801 72.9444 36.6378 72.6936 36.295C73.9438 35.3741 73.9898 36.4437 75.1692 37.0281L76.3025 38.4837ZM77.2021 39.2912L76.3025 38.9618L76.8444 38.6785L77.2021 39.2912ZM76.1042 40.7645C76.43 41.4197 76.43 41.2356 77.2021 41.1364L75.8173 42.3335L74.4963 39.8118L74.514 39.656C75.488 39.447 75.7996 39.7977 76.7523 39.9393L77.1171 40.5272L76.1042 40.7645ZM76.3025 42.4043L78.1053 41.4197C77.744 42.2343 77.273 42.6522 76.7169 43.2472L76.3025 42.4043ZM79.908 45.8928C79.4192 46.3143 79.1005 46.4489 78.1761 46.5268L78.9198 46.6083L78.9057 46.7393L76.3663 47.816L76.3025 44.5576L78.0521 42.4858L78.3709 42.3335L79.908 45.8928ZM79.0048 40.892C83.9844 39.5037 83.0211 42.1458 80.8005 44.161C80.1984 43.0737 79.5998 41.9829 79.0048 40.892ZM83.5134 41.4197C81.6788 50.0401 81.3246 50.5112 74.8363 54.2157C74.7275 54.0416 74.6141 53.8704 74.4963 53.7022L74.7265 52.7389C78.9588 51.5347 81.3636 49.3176 81.1121 44.2991L83.2336 41.572L83.5134 41.4197ZM83.7329 41.4197C83.6621 41.1222 83.5913 40.8247 83.5134 40.5272L84.1863 40.506L83.7329 41.4197ZM72.6936 49.8028L72.7574 48.8501L72.814 48.0355L73.4373 47.8266C73.4692 47.8266 73.4976 47.8195 73.5259 47.816C73.703 48.8962 73.5259 49.693 73.1717 50.5608C72.8671 50.366 72.8069 50.2845 72.6936 49.8028ZM69.0882 57.7999L69.1024 57.6405L70.2853 54.8107L70.5332 54.2157L72.6157 54.3574C72.6476 54.5132 72.6688 54.6655 72.6794 54.8107C72.7715 55.8874 72.3996 56.748 72.0171 57.8707L69.0882 57.7999ZM69.9913 61.4691L70.0161 60.0524L70.0515 59.6982L71.5744 59.8116L71.794 59.7939C71.4434 60.3711 71.0963 60.9484 70.7528 61.5293L69.9913 61.4691ZM69.0988 55.5545L69.1909 55.5084L69.9099 55.1366L69.9913 55.1295L69.8851 55.5084L69.4636 56.957L69.0882 55.6678L69.0988 55.5545ZM67.6928 60.1055L67.2855 59.6982C67.6822 59.9745 67.4236 59.7053 67.6928 60.1055ZM65.4828 59.0182C65.9892 58.6995 66.5382 58.7986 67.289 58.8057L67.0659 59.5389C66.4461 59.7868 66.3576 59.6947 65.6599 59.6203L65.4828 59.0182ZM66.5878 62.4395L67.2855 64.0899C66.7472 64.4547 66.2053 64.8159 65.667 65.1843C65.1853 64.522 65.7094 62.6697 66.5878 62.4395ZM64.8063 56.702L64.5797 56.7197L64.8772 56.0432L64.8063 56.702ZM67.4024 56.957L67.2855 56.8826L67.6822 56.0468L67.8132 56.0432L68.1886 56.9216L67.4024 56.957ZM73.6463 45.0747L73.5967 44.7666C73.834 44.4762 73.9863 44.2956 74.3936 44.1645L74.4998 44.7028C74.3228 44.8197 74.1457 44.9331 73.9721 45.0535L73.6463 45.0747ZM73.5967 47.306C73.4338 47.522 73.1434 47.6424 72.938 47.816L72.6936 43.2472L73.5967 47.306ZM71.9428 53.433C72.5378 53.1001 72.6228 53.4082 72.6936 54.2122H70.8909L70.9228 53.9289L71.9428 53.433ZM71.0574 50.9078L71.4646 50.5608L71.794 51.1487L71.6417 51.4745L70.8909 51.386L71.0574 50.9078ZM70.8909 53.3303L69.9524 54.2157L69.3397 54.113L69.0917 54.1378C69.2334 53.858 69.3821 53.5782 69.5274 53.302L70.8909 53.3303ZM67.4909 52.8097C67.1155 52.5476 67.3847 52.583 67.3138 52.3847L67.4909 52.8097ZM70.3313 48.7297L67.2855 47.1501C67.4272 45.0606 67.6822 42.6593 67.4767 40.506C69.8249 41.356 71.9321 45.1774 70.3313 48.7297ZM68.1886 48.7297C68.9359 49.1264 68.8969 49.4876 69.9346 49.8064C70.1153 50.4828 69.839 50.752 69.4069 51.471L68.3019 51.4285C68.0753 50.2243 68.3232 49.5337 68.1886 48.7297ZM68.394 54.6407C68.0151 54.3787 68.2878 54.4141 68.2169 54.2157L68.394 54.6407ZM74.4963 45.8433L74.5069 45.6733L75.3215 45.0747C75.4632 46.0097 75.41 47.5681 75.1976 48.7297C74.7159 48.3543 74.6273 46.7676 74.4963 45.8433ZM74.4963 48.7297C74.6805 48.4251 74.8646 48.1206 75.0417 47.816L74.723 48.7155L74.4963 48.7297ZM79.7557 45.9991L79.908 45.9885C79.9505 49.4912 77.79 50.1287 74.9496 51.4426L74.4963 51.4745L76.2671 47.8053L79.7557 45.9991ZM74.4078 39.1566C74.4361 39.2487 74.468 39.3372 74.4928 39.4293L74.2696 39.5922L73.5932 38.6785L74.4078 39.1566ZM73.5932 40.6795L73.618 40.5202C73.684 40.5149 73.7502 40.5102 73.8163 40.506L74.4963 41.4197C73.9721 41.1718 73.8871 41.1116 73.5932 40.6795ZM74.4928 43.017L73.278 44.161L70.6678 40.3714L67.2819 37.4318L68.0257 36.851C69.6655 37.5593 72.5342 38.9087 73.1115 40.5945C73.2992 41.1435 72.6511 41.5968 73.0903 42.0537C73.6144 42.5991 74.1386 42.2095 74.4963 43.0135L74.4928 43.017ZM66.8853 48.7297L67.1615 48.8395L67.2819 51.4745L66.8605 51.3753C66.4638 51.0814 66.1876 49.7214 66.5488 49.1299L66.8853 48.7297ZM64.8878 53.3126L65.1782 53.302L65.4792 54.0174L65.0188 54.1945L64.5761 54.2157C64.6824 53.9147 64.7886 53.6137 64.8878 53.3126ZM64.0661 67.9255L63.6765 66.5903C64.2326 66.4309 64.7851 66.2715 65.3411 66.1051L65.4828 66.098C65.4755 66.1391 65.4696 66.1805 65.4651 66.222L64.0661 67.9255ZM62.7734 64.2705C62.9399 63.7322 63.0567 63.6507 63.3578 63.3532L63.6057 63.4524L63.6765 63.6861L63.1205 64.2315L62.7734 64.267V64.2705ZM63.1984 65.1843L62.7734 64.7168L63.6765 64.2705L63.4428 65.1665L63.1984 65.1843ZM62.2493 69.328C62.1217 69.2288 62.0013 69.1261 61.8738 69.0199L62.1501 69.0022L63.542 67.9255L63.6765 69.0234L62.6105 69.753L62.2493 69.328ZM62.3201 79.7971C60.149 79.8892 58.8493 79.3367 57.0784 79.1809L55.0491 75.1682L54.6595 74.7644C58.0666 74.3607 60.2093 72.7174 62.7345 71.5805C63.627 72.4305 65.6492 76.7584 63.8678 78.6744C63.4428 79.3296 62.9682 79.3969 62.3201 79.7971ZM52.9984 75.2886L53.813 75.2355C55.042 76.0607 55.8778 77.5376 56.4657 78.894L52.8568 77.8492C53.1259 76.9355 53.2393 76.0076 52.9984 75.2886ZM50.4059 71.839L54.4718 70.6667L60.8609 71.2901L60.9743 71.6124C59.0724 72.4694 56.9084 73.1919 54.7268 74.2969C52.3645 74.4846 51.7943 73.6028 50.158 73.0219L50.4059 71.839ZM50.1545 76.1457L50.2359 75.3524L51.7907 75.2355C51.9182 75.9261 52.0528 76.3121 51.8616 77.063L50.1545 76.1421V76.1457ZM48.3482 77.5765L48.9539 77.2436C49.6976 76.7513 50.2537 77.4065 51.0541 77.6651L50.7353 77.9767L48.3482 77.5765ZM50.1014 76.1492C49.9049 76.0618 49.7089 75.9733 49.5135 75.8836L49.2514 75.2355L50.1545 75.2921L50.1014 76.1492ZM47.4487 76.1492L48.3518 76.9249C48.3518 77.403 48.3093 77.3498 48.1995 77.9767L47.4487 76.1492ZM45.1112 72.7244C45.9576 72.4659 47.0839 72.5226 48.3518 72.4942L47.1724 73.408L44.7464 73.1707L45.1112 72.7244ZM42.9437 26.9202C44.6189 25.3194 48.8193 25.7975 49.8712 26.8139L50.1545 26.7891C48.7555 28.096 46.588 28.2448 45.2564 29.5375C44.2116 28.8433 43.3474 28.3971 42.9437 26.9202ZM52.152 29.5375L52.8603 30.3414C52.2299 30.3768 51.5676 30.4158 50.9053 30.4725C49.4143 30.6 47.941 30.8231 46.9103 31.3579L46.7758 31.365C46.7012 31.2482 46.6269 31.1313 46.5526 31.0143C48.2444 30.1269 50.1121 29.6261 52.0209 29.5481L52.152 29.5375ZM55.6653 24.9687C56.8305 26.1375 58.5695 26.8316 59.1716 28.6237C56.7278 27.4869 52.9666 27.5046 51.0612 25.6948C52.7399 26.0525 54.1707 25.9179 55.6653 24.9687ZM56.4693 31.365L59.8126 31.8254L60.0747 31.8041L57.3936 34.1062C56.9686 33.2598 56.8695 32.1123 56.4693 31.365ZM60.7653 35.275L60.0747 35.1687L60.9743 35.02L60.7618 35.275H60.7653ZM60.0747 33.0898L60.8999 32.2787L60.9743 33.1925L60.3757 33.0614L60.0747 33.0898ZM61.7109 63.3355L61.3143 63.3532L60.9743 63.0345L61.2363 62.6909L61.8738 62.443L61.7109 63.3355ZM60.992 65.0072C61.0982 64.8797 61.2115 64.7522 61.3249 64.6247L61.3532 64.2705L61.8774 65.1028L60.9743 65.1843L60.992 65.0072ZM60.6343 67.9255L60.0747 67.2526L61.8774 67.0118L61.0168 67.8972L60.6343 67.9255ZM60.9743 70.6667L59.1716 70.4507L60.4466 69.753L60.9743 70.6667ZM59.7099 68.0884L60.0747 68.4355L58.7678 68.7684L57.3688 68.8392L59.3168 67.9255L59.7099 68.0884ZM54.6666 28.6237C55.7184 28.6521 56.8305 28.9177 57.3688 29.5375C56.6428 29.4666 55.3359 29.5835 55.0066 29.0239L54.6666 28.6237ZM55.5803 32.2787C56.0939 32.7285 56.2745 33.2598 56.1824 34.1062C55.3891 33.8335 55.5945 32.9658 55.5803 32.2787ZM56.4657 38.041L56.4976 37.8852C58.2932 37.4956 58.6793 38.1189 57.8611 38.6785C57.1528 38.5793 56.8305 38.3137 56.4657 38.041ZM58.7784 61.5257L59.1716 61.6249C59.1663 61.6673 59.1616 61.7098 59.1574 61.7524L58.272 62.4395L58.6403 61.5364L58.7784 61.5257ZM58.2826 39.2345L58.9555 38.6785L59.1716 39.5922L58.272 39.3939L58.2791 39.2345H58.2826ZM60.9743 63.672L58.7961 64.2422L58.272 64.267C58.272 64.2386 58.2791 64.2068 58.2861 64.1784C59.1007 64.0155 59.6249 63.7463 60.1065 63.3532L60.8715 63.4949L60.9743 63.672ZM59.4195 61.5257L59.1716 61.0193L59.7913 60.612L60.0747 60.7643L59.7205 61.5009L59.4195 61.5257ZM53.7634 67.8476L54.8366 67.0118L58.1586 67.2951L58.272 67.543L56.0266 68.8392C55.1943 68.7011 54.4753 68.3328 54.0432 67.8263L53.7634 67.8476ZM52.0953 67.9255L53.7599 68.8392L51.0576 68.3611C51.4047 68.2195 51.7482 68.0707 52.0953 67.9255ZM51.9607 69.792C51.9569 69.8651 51.9533 69.9383 51.9501 70.0115L51.4366 70.2949L51.0576 70.3445L51.0718 70.1249C51.4649 69.6042 51.3976 69.7778 51.9572 69.792H51.9607ZM47.7107 32.5939C47.6254 32.5023 47.5392 32.4114 47.4522 32.3212C48.3482 31.8325 49.7614 31.5987 51.1497 31.4889C52.2937 31.3933 53.4199 31.3827 54.2274 31.365L54.6666 34.1062C53.4872 33.9787 52.3645 33.8229 51.1497 33.7698C50.1001 33.7177 49.0479 33.7556 48.0047 33.8831C47.9087 33.4529 47.8107 33.0232 47.7107 32.5939ZM49.0353 69.2678L49.2549 69.6574L49.0424 70.4755L46.5526 70.6667C46.8183 69.8522 47.2149 69.459 47.6435 68.8392L49.0353 69.2678ZM45.9612 66.098C44.8278 66.0343 43.2766 65.2055 42.9437 64.2705L46.5526 65.1878L45.9612 66.098ZM47.2291 66.0484L46.5526 66.098L46.5739 65.8784L47.3247 65.1843C47.2893 65.4711 47.261 65.758 47.2291 66.0484ZM44.7499 32.6258L45.8478 32.2787L46.5526 33.1641L45.8089 33.1925L44.7499 32.6258ZM44.7358 71.8674C44.6755 72.0657 44.6224 72.2676 44.5658 72.4694C44.4781 72.474 44.3906 72.4823 44.3037 72.4942C44.1519 72.1894 43.9996 71.8848 43.8468 71.5805L44.7499 71.6726L44.7358 71.8674ZM45.2351 67.9255L47.3389 68.3505L47.4522 68.6338L45.8195 70.6667L43.8468 70.3763L45.2351 67.9255ZM60.9743 39.2806L61.3815 38.682L61.5303 38.6785L62.6636 38.9618L62.777 39.1247L61.5126 39.5922C61.3334 39.488 61.1539 39.3841 60.9743 39.2806ZM63.4145 36.3268L62.777 35.9372C63.4251 36.1745 63.0532 35.9054 63.4145 36.3268ZM63.209 40.506L62.777 40.1377L63.6801 39.5922L63.209 40.506ZM62.777 46.9022L64.1795 47.2493C64.5584 47.398 64.5478 47.437 64.5797 47.816C63.9776 47.5858 62.9717 47.4264 62.777 46.9022ZM62.9186 44.4124L63.1099 44.1645L63.6801 45.0747L62.777 44.8976L62.9186 44.4124ZM44.6543 74.4846L44.7499 74.7255L43.5351 75.1894L42.9437 75.2355L42.9578 75.1115L43.3722 74.4634C43.946 74.1978 43.9601 74.3713 44.6543 74.4846ZM42.0441 28.6202C42.8303 29.2081 43.0358 29.9306 42.9118 32.2787C42.3947 31.6164 42.0795 30.2104 42.0441 28.6237V28.6202ZM42.5612 26.7962L42.4974 27.4585L42.0476 27.4904L42.5647 26.7962H42.5612ZM42.0441 27.71C42.0193 27.9296 42.0016 28.1491 41.9733 28.3687L41.141 28.2164L41.8281 27.7241L42.0406 27.71H42.0441ZM42.0441 80.7215L42.4903 76.0678L45.6495 75.2355L42.3274 80.5515L42.0441 80.7215ZM42.2672 68.2124L42.7524 67.9255C43.1951 68.4497 42.7985 69.204 42.3806 69.753C42.0335 69.4272 41.9945 69.2217 42.0866 68.4815L42.2672 68.2124ZM39.3383 67.7661L40.376 66.098L42.0406 67.0755C41.4739 67.968 40.8966 68.8605 40.3229 69.753C39.8058 69.2926 39.487 68.6161 39.3383 67.7697V67.7661ZM39.3383 74.9238L41.0028 73.408L41.7856 73.4788L42.0441 73.9038C41.9733 74.3501 41.9095 74.7928 41.8458 75.2355L39.3383 74.9238ZM36.636 73.6842L38.6193 72.4942L40.1281 72.7315L40.2414 72.9405L38.6512 74.3217C37.8579 74.2403 37.3302 74.0278 36.9158 73.6665L36.6324 73.6842H36.636ZM36.3704 71.9169L37.0964 71.5805L37.4081 71.6478L37.5356 71.7965L35.4354 72.4942L34.8333 72.2817L36.3704 71.9169ZM33.9302 71.0599L34.4614 69.7742C35.446 69.6467 35.6797 70.132 36.4199 70.4401L36.6324 70.7659L35.531 71.5203L34.6349 71.5805L33.9302 71.0599ZM32.1239 74.8105L33.4379 72.4942C34.3091 72.4942 34.4154 72.5651 34.7731 73.0255C34.9324 73.2947 34.7943 73.1494 34.4472 73.2097L34.3658 74.0065L35.7329 74.219C35.4637 74.8884 35.4212 74.7999 35.0174 75.2249C33.6716 75.2957 33.0625 75.0407 32.1239 74.8105ZM30.6081 71.5805L32.8995 72.2711L33.027 72.5438L31.5572 74.3217L29.4216 73.6205L30.6081 71.5805ZM21.7787 69.1084L21.8071 68.8357L23.0856 69.8203L23.1954 70.0824C20.5356 72.1365 24.605 78.8303 29.2339 74.4917L31.2243 75.2921C30.4593 76.6557 29.1454 77.194 27.7606 77.9661C24.4491 78.2423 19.8167 72.8342 21.7787 69.1084ZM24.8671 70.0434L24.9166 70.6632C24.6687 70.4755 24.4208 70.2949 24.18 70.1072L24.0135 69.7495L24.8671 70.0434ZM29.4216 73.9251L27.7748 75.2001C24.5306 75.5401 23.2166 73.2947 23.1104 70.5357L23.7444 69.7707L24.0206 69.7495C25.6533 71.0351 27.0983 72.9971 29.3154 73.6453L29.4216 73.9251ZM26.2802 60.6084C25.9862 60.3959 25.9685 60.2897 25.8198 59.9284L26.436 57.5839L27.155 56.9534L27.6189 57.6334L26.2802 60.6084ZM25.8198 61.3982L27.24 58.0372L27.5304 57.8672C28.1856 59.0218 29.1348 59.5459 29.4216 61.1149L27.2825 63.3497C26.6173 62.8542 26.1084 62.1781 25.8162 61.4018L25.8198 61.3982ZM28.522 64.1961L30.3283 62.4359L31.2243 64.267C30.3237 64.2398 29.4229 64.2162 28.522 64.1961ZM33.027 45.7264C32.1735 47.5503 31.0366 48.7899 30.3566 50.5572C30.0591 48.9528 31.8512 46.6472 32.4285 45.2306L32.7047 45.0712L33.027 45.7264ZM33.027 40.6972C34.3693 40.2829 35.2689 39.5249 36.2287 38.6749L36.636 39.8933L35.4956 41.4162L33.027 40.6972ZM37.5356 40.7929L37.0468 41.4162L36.636 41.3454L36.6431 41.2462L37.4647 40.5024L37.5356 40.7929ZM36.8272 36.8545L36.9689 36.8475L37.5356 38.041L37.3231 38.6749C36.4979 38.2429 36.5297 37.7293 36.8272 36.8545ZM36.6572 63.3497L37.4895 63.9482L36.636 63.5728C36.6408 63.4982 36.6479 63.4238 36.6572 63.3497ZM36.6431 64.267L37.5356 64.653C37.5302 64.6883 37.5255 64.7238 37.5214 64.7593L35.6089 66.0945C35.0599 65.8465 34.9927 65.3543 34.8297 64.8195L34.8474 64.7061L36.6431 64.267ZM33.9762 62.4359L34.8333 62.783L34.3729 63.0486L33.9302 63.0982L33.9762 62.4359ZM33.9302 44.161C35.0139 44.4656 34.6704 44.2601 34.7164 45.0712C34.2206 44.7808 34.1852 44.6462 33.9302 44.161ZM33.9302 60.4845L34.0045 59.6947C34.426 59.9886 34.5712 60.1622 34.8333 60.6084C34.5323 60.5665 34.2313 60.5252 33.9302 60.4845ZM35.7364 49.0697C35.3964 49.5053 35.4106 49.3885 34.8333 49.6399L35.2264 48.7262L35.7364 49.0697ZM35.7364 45.3935L35.1697 45.9849C34.6031 45.6662 34.8687 45.7937 35.1237 45.2022L35.4602 45.0712L35.7364 45.3935ZM35.662 43.8387L34.8333 43.2437C35.4708 43.4881 35.322 43.3393 35.662 43.8387ZM33.9302 60.6084L34.8333 61.3274C34.3729 61.3168 34.125 61.2176 33.9302 60.6084ZM36.636 60.573L36.2677 60.6084L35.9524 60.0276L35.7329 59.7443L36.2216 59.6947C36.3597 59.9886 36.4943 60.2826 36.636 60.573ZM36.1402 43.651L35.7329 43.2472C36.1295 43.5235 35.8674 43.2543 36.1366 43.6545L36.1402 43.651ZM36.1933 58.703L35.7329 57.7468L35.9277 56.9605L36.041 56.9534L36.636 58.7809C36.4885 58.7547 36.3409 58.7287 36.1933 58.703ZM33.831 69.3386L33.9302 69.459L33.6079 70.6667C33.2286 70.5093 32.8945 70.2597 32.636 69.9406C32.3775 69.6215 32.2027 69.243 32.1275 68.8392L33.831 69.3422V69.3386ZM31.2243 70.6667L32.1275 71.4672C31.5502 71.2122 31.5147 71.2228 31.2243 70.6667ZM32.7827 62.5634L32.8889 63.3532L32.1275 62.4395L32.7827 62.5634ZM31.8902 66.8382L31.2243 65.1843C32.0141 65.4853 32.6304 66.3884 33.0306 67.0118L31.8902 66.8382ZM32.5985 50.5678L32.8216 50.5608L32.1629 51.4745C32.0566 51.2478 32.1877 51.0318 32.5525 50.7662L32.5985 50.5678ZM32.1275 58.4232L31.9468 58.7845L31.4297 58.3843C31.3612 58.2391 31.2927 58.0939 31.2243 57.9487L31.9327 57.8707L32.1275 58.4232ZM25.8162 66.098C27.6225 67.2738 30.6931 68.3647 31.2243 70.6667C29.0828 69.5973 27.2284 68.0307 25.8162 66.098ZM30.5018 65.2126L31.2243 66.098L29.4216 65.1843L30.5018 65.2126ZM37.1035 67.9255L35.7329 66.5443L38.1306 64.2705L38.4387 66.7745L37.1035 67.9255ZM38.4387 69.452L38.676 68.857L38.9947 68.8392L39.3383 69.753L38.4387 69.452ZM39.6535 66.098L39.3383 65.1843L39.9935 65.3047L39.6535 66.098ZM38.4387 35.321L38.4458 35.2395C38.7433 35.1687 39.0408 35.0979 39.3383 35.02L38.7149 35.9337L38.4387 35.321ZM29.3473 54.2157L28.522 52.3882C29.581 52.6185 29.4075 53.3728 29.3473 54.2157ZM27.1408 55.1295C26.3687 54.5947 25.8764 53.5287 25.8162 52.3882C27.3993 52.7601 27.3108 53.3835 27.6225 54.8284L27.1408 55.1295ZM26.2093 50.3589C25.0583 49.2716 26.7335 44.9224 27.4702 43.9201C27.8598 43.4279 28.3485 43.4385 28.9931 43.2472L29.4216 43.357C28.3379 45.2766 27.6083 47.8903 27.3498 50.5608L26.2093 50.3589ZM24.5271 65.1843L25.076 66.1086L24.5837 67.2597L24.3004 67.5607C24.7041 67.6174 24.7962 67.2703 25.3983 66.778C26.5671 68.6728 28.352 70.4861 30.3212 71.5167L29.2481 73.408L25.9898 71.3113C25.6179 70.6207 26.1314 69.8274 25.5329 69.4059C24.991 69.0234 24.2933 69.5759 23.7408 69.4095L22.2108 68.007C22.6606 67.0011 23.0927 66.0165 23.9816 65.503L24.5271 65.1843ZM21.4104 55.1047C21.5333 54.1932 21.7095 53.2897 21.9381 52.3989L22.0585 52.3882L22.5296 55.1047L22.7775 56.5214C23.4858 58.4976 24.2012 60.4703 24.9166 62.4395C23.2025 61.5045 22.1435 59.3405 22.2958 56.4293C21.885 57.3678 22.225 58.8447 22.3596 59.6734C21.3077 58.7809 21.1767 57.0066 21.4104 55.1047ZM19.845 56.0432C19.6812 55.6975 19.5782 55.3261 19.5404 54.9453C19.49 54.4328 19.4947 53.9163 19.5546 53.4047L19.7104 53.0789L20.4081 52.3882L20.015 54.9418L19.845 56.0397V56.0432ZM82.6102 65.1807L80.8075 64.4865L82.5571 64.2705L82.6102 65.1807ZM34.9041 80.0557L35.3752 79.8078L34.8297 80.718L34.9006 80.0592L34.9041 80.0557ZM21.3077 48.7333L20.5392 48.6624C19.5829 48.3472 18.6869 47.2316 18.6054 45.992C20.0681 46.1231 20.5639 46.8172 21.2864 47.6637C21.2935 48.0178 21.3042 48.3755 21.3077 48.7333ZM21.2014 48.6589C21.3077 46.6862 19.8025 45.4537 17.8475 45.5068C18.1804 42.7372 20.5887 41.3206 22.735 40.3891L23.1494 40.3572C22.7916 43.8351 23.0644 46.8314 21.7646 49.8418C20.8048 52.0589 17.4012 52.0164 17.5854 55.4376L17.6102 55.7209C18.0954 60.2684 23.0396 61.1928 23.7231 65.1913C16.3919 68.9207 25.3275 84.5925 31.1252 75.3878C32.1664 75.5365 33.0908 76.0076 34.3835 75.5542C34.9856 75.2213 35.1024 74.9521 35.3362 74.258L37.4081 75.3311L37.5143 75.5932C35.616 77.0665 34.2772 79.0888 32.2372 80.47L32.432 79.9105L31.9008 79.8148L31.6068 79.9742L31.3412 81.2138C32.5064 82.4038 36.0374 78.1007 37.0716 77.2578C36.4872 79.3013 35.0422 80.3532 34.2383 82.2232L34.4862 82.4782C36.0091 81.3873 37.8756 78.299 38.1589 75.9509L40.4397 76.3299C37.5816 80.1938 30.2398 88.6938 26.3793 90.964C26.9673 89.1188 27.9023 87.7092 28.3768 86.1934L28.1006 86.2146C28.0182 86.1293 27.9356 86.0443 27.8527 85.9596C26.9141 87.8084 25.3664 89.1081 25.0902 91.6015C25.2552 91.8486 25.4641 92.0635 25.7064 92.2354C30.2964 91.4704 37.9606 79.9353 41.6226 76.7832C40.631 86.7352 35.2972 88.2865 30.6718 94.3144C34.8758 92.2177 37.4258 86.8698 41.0206 83.9019C40.6239 88.0563 39.6358 97.346 37.1495 99L37.5604 98.9681C40.3512 97.2327 40.5141 90.0963 41.4456 86.4484L41.8422 82.6127L45.8266 77.0169L46.117 76.8576C46.5632 78.2565 48.582 79.7759 50.7672 79.3686L52.3362 78.7098L56.2745 80.1832C56.7916 85.8498 56.5932 89.0267 53.0055 93.3404C56.6711 91.4669 58.017 84.249 56.7951 80.4169C65.3199 81.405 64.9763 78.5292 63.3613 72.3207L64.8595 72.3455C64.5832 71.9311 63.8359 72.2392 63.2657 71.9205C63.0072 71.754 63.0568 71.7859 62.8974 71.538C64.9232 69.2536 69.8036 71.5238 68.7765 75.3169C70.179 72.1719 67.0801 69.374 64.0945 70.5003C65.3694 68.988 66.9136 67.7449 67.7211 65.7438L68.0115 65.588L75.024 72.9547L75.4384 72.9228L75.7571 72.4907C73.5259 69.8486 71.2982 67.203 69.074 64.5574L69.7894 64.2315C69.9476 64.0684 70.1418 63.9446 70.3565 63.8702C70.5711 63.7958 70.8003 63.7728 71.0255 63.803C70.9073 63.7443 70.7892 63.6852 70.6713 63.6259C74.2519 63.9836 78.8278 66.9693 82.5642 66.0059C82.9077 65.4074 82.9255 65.0851 82.7165 64.5007C86.6973 64.5999 93.8585 63.2682 96.1394 61.3345C90.0123 62.6201 83.1132 63.0557 77.489 62.3049L72.5059 61.7205L72.2261 61.7418L73.5684 59.3334C77.6767 59.2555 88.4504 59.1528 90.6286 56.5745L90.1469 55.9299L88.2698 55.6607C88.1384 55.8704 88.065 56.1111 88.0573 56.3584L89.5448 56.5178C86.3148 57.3324 77.319 59.0501 74.383 58.0478C74.0748 57.6724 74.3015 56.3691 74.3157 55.4305C74.3209 55.2626 74.3138 55.0945 74.2944 54.9276C78.5161 53.6668 81.6505 50.8264 82.9361 46.541C83.6692 44.0866 83.184 40.8637 84.7707 39.3337C85.7836 39.4222 85.989 39.8508 86.7327 40.1412C86.3396 39.5958 85.7765 39.2912 85.0717 39.0433L83.7507 39.9535C82.543 40.421 81.2786 39.1991 79.228 40.1518C77.5634 38.7281 76.6248 36.4791 74.3759 35.6185L74.1457 35.2289L76.8728 32.5762C75.9803 33.3235 75.0701 34.2054 74.1598 35.0908L72.3324 34.2727L72.2261 34.007C74.3086 32.5337 76.1573 31.9883 78.5267 32.4558C78.6365 32.6754 78.7534 32.8914 78.8667 33.111C78.7569 33.2987 78.6578 33.3518 78.5621 33.405L77.7653 33.1925C78.1088 33.3943 78.4665 33.4581 78.8242 33.5218L79.1253 33.2279L79.1713 32.817C78.6542 32.3566 78.4948 32.0237 77.4784 31.9883L77.9636 31.2729C76.8019 32.0733 74.4432 32.2858 73.2886 32.98L75.959 30.8762L76.2778 30.4477L71.3371 33.3943C70.2817 33.3235 69.159 32.8277 68.5888 32.2362C68.4979 32.2432 68.407 32.2503 68.3161 32.2575L74.1811 28.2908L74.0855 27.8906C71.8613 29.1868 69.6336 30.4831 67.413 31.7829L65.2809 31.2587L65.4792 29.3427L80.7686 17.3365L81.0413 17.3152L80.8252 16.7875C80.2586 16.5183 77.9317 18.406 77.0534 18.9692C73.6676 21.1402 70.6749 23.8425 67.3457 25.8046C68.7199 24.0585 71.2344 22.3196 71.6524 19.7767L70.9794 19.6917L69.9311 20.5842L71.0715 20.0883C70.3349 22.3302 66.9986 26.3323 65.1145 27.6002L64.8949 27.0725C66.1203 25.0112 67.328 22.2381 66.7613 19.5925L65.7342 18.9904L64.6328 19.0719C65.3376 19.3517 65.8157 19.419 66.3328 19.7625C66.6622 22.3267 65.4013 24.0621 64.7213 26.1375L64.4309 26.2933C63.9776 25.4539 64.0059 25.0502 63.0745 24.8979L62.993 24.3596L63.6305 23.4954L64.0697 23.1908C64.2184 23.4742 64.2255 23.3714 64.2715 23.8567C64.4021 23.6481 64.4742 23.4084 64.4805 23.1625L63.9599 22.9287L62.5822 24.3879C61.4311 23.6194 60.1632 22.8119 58.5447 22.5108C59.462 20.609 62.2492 17.5525 60.8113 15.1406C59.0547 12.2081 53.0586 15.5869 50.8628 17.9138C50.6081 18.1732 50.3868 18.4635 50.2041 18.7779C50.4214 18.6051 50.641 18.435 50.8628 18.2679C53.0303 16.6529 58.7997 12.7854 60.0499 15.8773C61.3603 17.6021 58.8493 20.9206 58.1657 22.27C55.8282 22.0327 53.3845 21.8096 50.8699 21.8592C48.2232 21.8822 45.5952 22.3049 43.0747 23.1129C41.7997 23.5344 36.3597 26.7927 36.1508 26.7502L33.6716 24.3489L28.4866 21.7458L28.4583 22.0185L28.1537 22.3125L34.7979 27.9366L33.785 28.5564C31.0508 26.4846 29.1666 25.2273 25.0973 24.1683L24.4102 24.2214C26.7866 25.8577 29.1808 27.3558 31.5714 28.8575L32.0495 29.5021C30.3425 30.221 29.62 31.7156 28.1785 32.6435C25.926 31.5668 23.84 30.5893 21.1094 29.7641L20.9181 30.3237L26.0323 33.6175L26.3085 33.5962L25.4266 34.2054C25.0193 35.576 24.2225 37.1662 23.5566 39.0999C21.0067 41.1754 17.7023 41.0514 17.1887 45.2801C16.3742 45.5033 15.8004 45.5741 15.0567 46.1195L15 46.6685C15.4675 47.3201 19.6077 49.0733 20.5958 49.2433L21.205 48.6553L21.2014 48.6589ZM51.4472 19.419L51.8262 19.4898L51.3197 19.426C51.2312 19.426 51.1426 19.4331 51.0576 19.4367C51.4578 18.6929 52.6337 18.5087 53.7634 18.5902L53.6855 19.1285L51.4755 19.2383L51.4472 19.419ZM53.0268 20.4L54.0893 20.0529C54.5497 19.2879 54.8118 18.4769 54.578 17.7367C53.4836 17.5206 52.8532 17.7863 51.8297 18.2183C51.6434 18.5212 51.4581 18.8246 51.2737 19.1285L51.0612 19.4827C51.1266 19.5587 51.1976 19.6297 51.2737 19.6952C51.6207 19.9785 52.0387 20.0777 52.8072 20.014C53.0197 20.3752 52.7718 20.2158 52.3928 20.315L53.0303 20.4H53.0268ZM79.2457 28.6273L78.1053 28.8398L78.8065 28.7902L79.6105 29.1373L78.3921 31.3685C79.019 30.6283 79.6423 30.1041 79.908 28.9814L79.2457 28.6273ZM72.6936 64.274C72.4103 63.7676 72.1021 63.4347 71.794 63.3568C72.0667 63.6153 72.3819 63.9199 72.6936 64.274ZM69.0882 75.239L68.1886 75.7632L68.8792 75.6994L69.0917 75.239H69.0882ZM72.6936 64.274C73.6109 65.3082 74.298 67.2915 74.0996 68.8428C75.1409 66.5938 73.9544 65.1913 72.6936 64.274Z" fill="white"/>
</svg>
