<svg width="100" height="100" viewBox="0 0 100 100" fill="none" xmlns="http://www.w3.org/2000/svg">
<rect width="100" height="100" rx="24" fill="black"/>
<path d="M16.2136 42.2141V48.6707H9.85741V42.2141H7V58.1435H9.85741V51.5086H16.2136V58.1435H19.071V42.2141H16.2136ZM82.3388 45.052H85.52C86.8254 45.052 87.8824 46.102 87.8824 47.3972C87.8814 47.7064 87.8195 48.0124 87.7002 48.2976C87.5809 48.5828 87.4066 48.8418 87.1872 49.0596C86.9678 49.2775 86.7077 49.45 86.4216 49.5673C86.1356 49.6846 85.8292 49.7444 85.52 49.7433H82.3388V45.052ZM79.483 42.2141V58.1435H82.3396V51.0548L88.2872 58.1435H92L87.125 52.3368C89.5723 51.5584 91.0854 49.1299 90.6939 46.6088C90.3024 44.0876 88.1221 42.2234 85.5535 42.2141H79.4783H79.483ZM52.4594 42.1666V52.1064L45.5233 42.1666H43.2411V58.0944H46.0993V48.1095L53.0696 58.0952H55.3129V42.1666H52.4594ZM25.7845 50.1683C25.7861 47.2221 28.192 44.8348 31.1584 44.8356C34.1256 44.8372 36.5292 47.226 36.5284 50.1721C36.5276 53.1183 34.1232 55.5063 31.1561 55.5063C29.7309 55.5063 28.3648 54.9444 27.3576 53.9442C26.3504 52.9439 25.7845 51.5865 25.7845 50.1714V50.1683ZM22.9271 50.1714C22.9271 53.4779 24.9314 56.4575 28.0068 57.7232C31.0821 58.988 34.6214 58.2898 36.9752 55.9524C39.329 53.6149 40.0334 50.0998 38.7592 47.0454C37.4858 43.9911 34.4844 42 31.1561 42C26.6135 42.0008 22.931 45.6568 22.9286 50.169L22.9271 50.1714ZM62.0279 50.1683C62.0295 47.2221 64.4354 44.8341 67.4026 44.8356C70.3698 44.8372 72.7726 47.2268 72.7711 50.1729C72.7703 53.1191 70.3643 55.5071 67.3972 55.5056C65.9727 55.5056 64.6067 54.9436 63.5987 53.9434C62.5907 52.9432 62.0256 51.5857 62.0256 50.1706L62.0279 50.1683ZM59.1682 50.1714C59.1674 53.4779 61.1725 56.4575 64.2471 57.7232C67.3224 58.988 70.8625 58.2898 73.2155 55.9524C75.5685 53.6149 76.2745 50.0998 74.9995 47.0454C73.7261 43.9911 70.7255 42 67.3964 42C62.8538 42.0008 59.1705 45.6568 59.1682 50.169V50.1714Z" fill="white"/>
</svg>
