<svg width="100" height="100" viewBox="0 0 100 100" fill="none" xmlns="http://www.w3.org/2000/svg">
<rect width="100" height="100" rx="24" fill="#F7F7F7"/>
<g clip-path="url(#clip0_148_253)">
<path d="M84.9315 59.8507C80.4339 59.8799 76.1744 59.9158 74.9866 59.8103C72.584 59.6014 70.9785 58.0297 70.7921 55.7169C70.6664 54.199 70.6664 52.9416 70.7854 51.7448C71.0032 49.4926 72.8871 47.3482 74.9866 47.245C75.7388 47.2045 77.7507 47.209 81.395 47.2247L92 47.245V42.8462C92 42.8462 83.5528 42.8372 81.0132 42.826C77.6047 42.8103 75.8892 42.808 74.8024 42.8462C72.4111 42.9383 70.4082 43.7893 68.8521 45.37C67.3769 46.8632 66.4967 49.2389 66.3664 51.6437C66.2923 52.9416 66.2676 54.6368 66.3664 55.645C66.6112 58.2317 67.4487 60.2616 68.8521 61.6829C70.352 63.2098 72.6356 64.1776 74.8047 64.2068C76.5853 64.2292 92 64.2068 92 64.2068V59.8103C92 59.8103 87.3183 59.8282 84.9315 59.8507Z" fill="#8CC751"/>
<path d="M37.0571 43.082V47.4763H47.5207V64.1305H51.9374V47.4763H62.401V43.082H37.0571Z" fill="#8CC751"/>
<path d="M32.4697 51.3923C32.4383 49.0256 31.603 46.9958 29.984 45.3544C28.2955 43.6366 25.72 42.9226 24.0337 42.8328C22.5674 42.7497 16.79 42.7766 15.4338 42.8328C13.5229 42.9136 12.1308 43.4839 11.4325 44.0049C11.4257 44.0094 11.419 44.0071 11.419 43.9959V36H7V64.2068H11.4122C11.4122 64.2068 11.3247 52.6609 11.4235 51.4035C11.5986 49.1693 13.2939 47.4134 15.4562 47.2248C17.1897 47.0766 22.3923 47.117 24.0247 47.227C26.2656 47.382 27.9205 49.1334 28.0507 51.4933C28.0934 52.3623 28.0487 64.2068 28.0487 64.2068H32.4699C32.4699 64.2068 32.4809 52.4072 32.4697 51.3923Z" fill="#8CC751"/>
</g>
<defs>
<clipPath id="clip0_148_253">
<rect width="85" height="28.2168" fill="white" transform="translate(7 36)"/>
</clipPath>
</defs>
</svg>
