<svg width="100" height="100" viewBox="0 0 100 100" fill="none" xmlns="http://www.w3.org/2000/svg">
<rect width="100" height="100" rx="24" fill="#C91C2E"/>
<path fill-rule="evenodd" clip-rule="evenodd" d="M70.97 2H29.0016C9.23158 2 2 9.23316 2 29.0095V70.9913C2 90.7668 9.23158 98 29.0016 98H70.9566C90.7274 98 97.9708 90.7668 97.9708 70.9913V29.0095C97.9708 9.23316 90.74 2 70.97 2Z" fill="#C91C2E"/>
<path d="M43.8698 57.6753H47.7192L45.7882 53.1848L43.8698 57.6753ZM42.9224 59.9395L41.7808 62.5527H39.1819L44.7098 50.0087H46.955L52.4608 62.5527H49.7916L48.6642 59.9395H42.9224ZM84.7487 62.544H87.2608V50.0087H84.7487V62.544ZM74.75 57.1574H79.3803V54.8727H74.75V52.3029H81.4716V50.0166H72.2387V62.5519H81.714V60.2656H74.75V57.1574ZM64.7687 58.6392L61.9195 50.0079H59.8424L56.9932 58.6392L54.2213 50.0143H51.5119L55.8856 62.559H57.9927L60.8458 54.3185L63.6974 62.559H65.8242L70.1861 50.0143H67.5461L64.7687 58.6392ZM35.3466 57.1921C35.3466 59.2329 34.3329 60.3232 32.4934 60.3232C30.6445 60.3232 29.6261 59.2021 29.6261 57.1053V50.0158H27.08V57.1921C27.08 60.7235 29.0411 62.7477 32.4595 62.7477C35.9111 62.7477 37.8911 60.6848 37.8911 57.0879V50.0079H35.3466V57.1921ZM21.0058 50.0087H23.5503V62.5598H21.0058V57.4629H15.2561V62.5598H12.7108V50.0087H15.2561V55.0716H21.0058V50.0087Z" fill="white"/>
<path d="M49.9857 34.0273C41.1776 34.0273 34.0115 26.8589 34.0115 18.0483H36.2678C36.2678 25.6147 42.421 31.7702 49.9857 31.7702C57.5505 31.7702 63.7036 25.6147 63.7036 18.0483H65.9607C65.9607 26.8589 58.7939 34.0273 49.9857 34.0273Z" fill="white"/>
</svg>
