<svg width="100" height="100" viewBox="0 0 100 100" fill="none" xmlns="http://www.w3.org/2000/svg">
<rect width="100" height="100" rx="24" fill="white"/>
<g clip-path="url(#clip0_175_120)">
<path d="M29.1804 15.7249L13.4083 15.7272C10.421 15.7272 8 18.1489 8 21.1363V36.4185C8 37.9972 8.69005 39.4977 9.88854 40.5256L60.5709 83.9683C61.5516 84.8082 62.8003 85.2702 64.0915 85.2702H79.8636C82.851 85.2702 85.2727 82.8485 85.2727 79.8612V64.5767C85.2727 62.998 84.5827 61.4973 83.3842 60.4696L32.7018 17.0277C31.7212 16.1869 30.4724 15.7249 29.1804 15.7249Z" fill="#FF8100"/>
<path d="M27.2834 15.7249H13.4091C10.4217 15.7249 8 18.1466 8 21.1339V38.5226C8 38.7784 8.01855 39.0342 8.05409 39.2876L15.0627 88.3535C15.4437 91.0186 17.7255 92.9975 20.4177 92.9975H41.2334C44.2216 92.9975 46.6433 90.575 46.6426 87.5869L46.6364 62.9656C46.6364 62.3844 46.5429 61.8072 46.3589 61.2563L32.4143 19.4231C31.6779 17.2147 29.6116 15.7249 27.2834 15.7249Z" fill="url(#paint0_linear_175_120)"/>
<path d="M87.5912 8H42.4771C40.3134 8 38.3576 9.28968 37.5052 11.2779L16.1649 61.0701C15.8766 61.7432 15.7275 62.4688 15.7275 63.2013V87.5909C15.7275 90.5783 18.1492 93 21.1366 93H44.9977C46.0663 93 47.111 92.6832 48.0005 92.0897L90.5917 63.6634C92.0954 62.6604 92.9979 60.972 92.9979 59.1646L93.0003 13.4091C93.0003 10.4217 90.5786 8 87.5912 8Z" fill="url(#paint1_linear_175_120)"/>
<path d="M77.0625 23.9375H23.9375V77.0625H77.0625V23.9375Z" fill="black"/>
<path d="M30.5781 47.0277H34.5343V34.0504H30.5781V30.5781H42.3174V34.0504H38.3612V47.0277H42.3174V50.5H30.5781V47.0277Z" fill="white"/>
<path d="M44.3095 46.9143H47.17C47.7483 46.9143 48.2634 46.7911 48.7139 46.5446C49.1644 46.2979 49.5129 45.9494 49.7594 45.4989C50.0061 45.0484 50.1293 44.5341 50.1293 43.955V30.5781H54.014V44.2243C54.014 45.4198 53.7385 46.4944 53.1884 47.4478C52.6381 48.4013 51.8795 49.1485 50.9116 49.6888C49.9436 50.2299 48.8578 50.5 47.6532 50.5H44.3095V46.9143Z" fill="white"/>
<path d="M30.5781 66.4375H51.8281V70.4219H30.5781V66.4375Z" fill="white"/>
</g>
<defs>
<linearGradient id="paint0_linear_175_120" x1="7.04723" y1="18.1195" x2="40.0682" y2="89.3417" gradientUnits="userSpaceOnUse">
<stop offset="0.1" stop-color="#FC801D"/>
<stop offset="0.59" stop-color="#FE2857"/>
</linearGradient>
<linearGradient id="paint1_linear_175_120" x1="13.6079" y1="87.7122" x2="91.5753" y2="9.74404" gradientUnits="userSpaceOnUse">
<stop offset="0.21" stop-color="#FE2857"/>
<stop offset="0.7" stop-color="#007EFF"/>
</linearGradient>
<clipPath id="clip0_175_120">
<rect width="85" height="85" fill="white" transform="translate(8 8)"/>
</clipPath>
</defs>
</svg>
