<svg width="100" height="100" viewBox="0 0 100 100" fill="none" xmlns="http://www.w3.org/2000/svg">
<rect width="100" height="100" rx="24" fill="white"/>
<path d="M88 88H13V13H88L50.3242 50.5L88 88Z" fill="#E6E6E6"/>
<path d="M56.0078 67.4336H23.5469V51.1445C23.5469 42.1211 30.8125 34.8555 39.7773 34.8555C48.7422 34.8555 56.0078 42.1797 56.0078 51.1445V67.4336Z" fill="#3DDB84"/>
<path d="M58.2344 67.668C49.2695 67.668 42.0039 60.3438 42.0039 51.3789C42.0039 42.3555 49.2695 35.0898 58.2344 35.0898C67.1992 35.0898 74.4648 42.4141 74.4648 51.3789C74.4062 60.3438 67.1406 67.668 58.2344 67.668Z" fill="#4D4D4D"/>
<path d="M67.9609 22.4922C62.1602 22.4922 57.4141 26.8867 57.4141 32.2773C57.4141 32.3945 57.4141 32.5117 57.4141 32.6289C57.5312 32.6289 57.6484 32.6289 57.7656 32.6289C63.5664 32.6289 68.3125 28.2344 68.3125 22.8437C68.3125 22.7266 68.3125 22.6094 68.3125 22.4922C68.1953 22.4922 68.0781 22.4922 67.9609 22.4922Z" fill="#4D4D4D"/>
</svg>
