<svg width="100" height="100" viewBox="0 0 100 100" fill="none" xmlns="http://www.w3.org/2000/svg">
<rect width="100" height="100" rx="24" fill="#E60012"/>
<path d="M42.6257 44.7632C41.0909 44.7632 39.3453 45.4747 38.2788 46.8991L38.2795 46.8962L38.2788 46.897L38.2795 44.9869H34.6188V58.3178H38.2788V50.7323C38.2788 49.367 39.3374 47.9159 41.2972 47.9159C42.8119 47.9159 44.3792 48.9694 44.3792 50.7323V58.3178H48.0399V50.054C48.0399 46.9879 45.8462 44.7632 42.6257 44.7632Z" fill="white"/>
<path d="M74.0572 44.9874L70.7479 54.0681L67.4387 44.9874H63.257L68.7419 58.314H72.7533L78.2382 44.9874H74.0572Z" fill="white"/>
<path d="M23.6904 49.0033C24.3138 48.1663 25.3068 47.6748 26.5061 47.6748C27.8252 47.6748 28.826 48.4282 29.3434 49.5402L22.9478 52.1935C22.7732 50.8319 23.1217 49.7668 23.6904 49.0033ZM30.7231 54.2191C29.1825 55.3592 28.3021 55.6313 26.8972 55.6313C25.6329 55.6313 24.6429 55.2387 23.9451 54.5503L33.3036 50.6681C33.0994 49.2212 32.5502 47.9289 31.7052 46.946C30.4756 45.518 28.6557 44.7625 26.4397 44.7625C22.4146 44.7625 19.3795 47.7319 19.3795 51.6538C19.3795 55.6774 22.4218 58.5444 26.8431 58.5444C29.3203 58.5444 31.8532 57.3703 33.038 55.9986L30.7231 54.2191Z" fill="white"/>
<path d="M19.0306 54.9566H10.7105V41H7V58.3178H19.0306V54.9566Z" fill="white"/>
<path d="M84.8114 47.8994C82.7671 47.8994 81.2827 49.4487 81.2827 51.6525C81.2827 53.7567 82.8551 55.4055 84.8604 55.4055C86.9055 55.4055 88.3891 53.8137 88.3891 51.6525C88.3891 49.5483 86.8174 47.8994 84.8114 47.8994ZM84.8114 58.5423C80.8079 58.5423 77.6711 55.5599 77.6711 51.6525C77.6711 47.789 80.8296 44.7626 84.8604 44.7626C88.8639 44.7626 92 47.745 92 51.6525C92 55.5152 88.8423 58.5423 84.8114 58.5423Z" fill="white"/>
<path d="M56.6276 47.8994C54.5833 47.8994 53.0997 49.4487 53.0997 51.6525C53.0997 53.7567 54.6714 55.4055 56.6774 55.4055C58.7217 55.4055 60.2054 53.8137 60.2054 51.6525C60.2054 49.5483 58.6337 47.8994 56.6276 47.8994ZM56.6276 58.5423C52.6242 58.5423 49.4881 55.5599 49.4881 51.6525C49.4881 47.789 52.6458 44.7626 56.6774 44.7626C60.6802 44.7626 63.817 47.745 63.817 51.6525C63.817 55.5152 60.6585 58.5423 56.6276 58.5423Z" fill="white"/>
</svg>
