<svg width="100" height="100" viewBox="0 0 100 100" fill="none" xmlns="http://www.w3.org/2000/svg">
<g clip-path="url(#clip0_154_678)">
<rect width="100" height="100" rx="24" fill="white"/>
<path d="M77.4563 0H22.5438C10.0932 0 0 10.0932 0 22.5438V77.4563C0 89.9068 10.0932 100 22.5438 100H77.4563C89.9068 100 100 89.9068 100 77.4563V22.5438C100 10.0932 89.9068 0 77.4563 0Z" fill="#06C755"/>
<path d="M83.3313 45.2875C83.3313 30.3688 68.375 18.2313 49.9907 18.2313C31.6063 18.2313 16.65 30.3688 16.65 45.2875C16.65 58.6625 28.525 69.8656 44.5313 71.9813C45.6188 72.2156 47.0969 72.6969 47.4688 73.625C47.8063 74.4688 47.6906 75.7906 47.5781 76.6406C47.5781 76.6406 47.1875 78.9938 47.1031 79.4938C46.9563 80.3375 46.4313 82.7906 49.9907 81.2938C53.55 79.7969 69.1906 69.9875 76.1844 61.9344C81.0156 56.6375 83.3313 51.25 83.3313 45.2875Z" fill="white"/>
<path d="M72.2375 53.9031H62.8625C62.6967 53.9031 62.5378 53.8373 62.4205 53.7201C62.3033 53.6029 62.2375 53.4439 62.2375 53.2781V38.7313C62.2375 38.5655 62.3033 38.4065 62.4205 38.2893C62.5378 38.1721 62.6967 38.1063 62.8625 38.1063H72.2375C72.4032 38.1063 72.5622 38.1721 72.6794 38.2893C72.7966 38.4065 72.8625 38.5655 72.8625 38.7313V41.0969C72.8625 41.2626 72.7966 41.4216 72.6794 41.5388C72.5622 41.656 72.4032 41.7219 72.2375 41.7219H65.8719V44.175H72.2375C72.4032 44.175 72.5622 44.2409 72.6794 44.3581C72.7966 44.4753 72.8625 44.6343 72.8625 44.8V47.1875C72.8625 47.3533 72.7966 47.5122 72.6794 47.6295C72.5622 47.7467 72.4032 47.8125 72.2375 47.8125H65.8719V50.2688H72.2375C72.4032 50.2688 72.5622 50.3346 72.6794 50.4518C72.7966 50.569 72.8625 50.728 72.8625 50.8938V53.2563C72.8654 53.3402 72.8514 53.4238 72.8213 53.5022C72.7913 53.5805 72.7457 53.652 72.6873 53.7124C72.629 53.7728 72.5591 53.8208 72.4818 53.8536C72.4045 53.8863 72.3214 53.9032 72.2375 53.9031Z" fill="#06C755"/>
<path d="M37.5907 53.9032C37.7564 53.9032 37.9154 53.8373 38.0326 53.7201C38.1498 53.6029 38.2157 53.4439 38.2157 53.2782V50.9156C38.2157 50.7499 38.1498 50.5909 38.0326 50.4737C37.9154 50.3565 37.7564 50.2906 37.5907 50.2906H31.225V38.7281C31.225 38.5624 31.1592 38.4034 31.042 38.2862C30.9248 38.169 30.7658 38.1031 30.6 38.1031H28.225C28.0593 38.1031 27.9003 38.169 27.7831 38.2862C27.6659 38.4034 27.6 38.5624 27.6 38.7281V53.2688C27.6 53.4345 27.6659 53.5935 27.7831 53.7107C27.9003 53.8279 28.0593 53.8938 28.225 53.8938H37.6L37.5907 53.9032Z" fill="#06C755"/>
<path d="M43.2281 38.0781H40.8656C40.5135 38.0781 40.2281 38.3635 40.2281 38.7156V53.2656C40.2281 53.6177 40.5135 53.9031 40.8656 53.9031H43.2281C43.5802 53.9031 43.8656 53.6177 43.8656 53.2656V38.7156C43.8656 38.3635 43.5802 38.0781 43.2281 38.0781Z" fill="#06C755"/>
<path d="M59.325 38.0781H56.9625C56.7967 38.0781 56.6378 38.144 56.5206 38.2612C56.4034 38.3784 56.3375 38.5374 56.3375 38.7031V47.3469L49.6813 38.3562C49.6661 38.3324 49.6483 38.3104 49.6281 38.2906L49.5906 38.2531L49.5563 38.225H49.5375L49.5031 38.2H49.4844L49.45 38.1813H49.4281H49.3938H49.3719H49.3344H49.3094H49.2719H49.2469H49.2125H46.8031C46.6374 38.1813 46.4784 38.2471 46.3612 38.3643C46.244 38.4815 46.1781 38.6405 46.1781 38.8063V53.3563C46.1781 53.522 46.244 53.681 46.3612 53.7982C46.4784 53.9154 46.6374 53.9813 46.8031 53.9813H49.1688C49.3345 53.9813 49.4935 53.9154 49.6107 53.7982C49.7279 53.681 49.7938 53.522 49.7938 53.3563V44.6281L56.4594 53.6281C56.503 53.6919 56.5581 53.747 56.6219 53.7906L56.6594 53.8156H56.6781L56.7094 53.8312H56.7406H56.7625H56.8063C56.8615 53.8449 56.9181 53.8522 56.975 53.8531H59.325C59.4908 53.8531 59.6497 53.7873 59.7669 53.6701C59.8842 53.5529 59.95 53.3939 59.95 53.2281V38.7156C59.9517 38.6325 59.9367 38.5499 59.9061 38.4726C59.8754 38.3953 59.8296 38.3249 59.7714 38.2656C59.7132 38.2062 59.6438 38.1591 59.5671 38.1269C59.4904 38.0947 59.4081 38.0781 59.325 38.0781Z" fill="#06C755"/>
</g>
<defs>
<clipPath id="clip0_154_678">
<rect width="100" height="100" rx="24" fill="white"/>
</clipPath>
</defs>
</svg>
