<svg width="100" height="100" viewBox="0 0 100 100" fill="none" xmlns="http://www.w3.org/2000/svg">
<rect width="100" height="100" rx="24" fill="white"/>
<path d="M28.5175 43.1671L21.4368 50.248C21.4228 50.2619 21.405 50.2715 21.3856 50.2753C21.3662 50.2792 21.3461 50.2772 21.3279 50.2697C21.3096 50.2621 21.294 50.2493 21.283 50.2328C21.2721 50.2164 21.2662 50.1971 21.2662 50.1773V43.428C21.2662 43.3145 21.2211 43.2056 21.1409 43.1254C21.0606 43.0451 20.9517 43 20.8382 43H18.0787C17.9273 43 17.7822 43.0602 17.6752 43.1672L7.16711 53.6751C7.11412 53.7281 7.07209 53.791 7.04342 53.8603C7.01474 53.9295 6.99999 54.0037 7 54.0787V56.8382C7 56.9517 7.04509 57.0606 7.12535 57.1409C7.20562 57.2211 7.31448 57.2662 7.42799 57.2662H10.1875C10.3388 57.2661 10.4839 57.206 10.591 57.0991L17.6719 50.0182C17.6859 50.0042 17.7037 49.9947 17.723 49.9909C17.7424 49.9871 17.7625 49.9891 17.7807 49.9966C17.799 50.0042 17.8145 50.017 17.8255 50.0334C17.8365 50.0498 17.8424 50.0691 17.8424 50.0888V56.8382C17.8424 56.9517 17.8875 57.0606 17.9678 57.1409C18.048 57.2211 18.1569 57.2662 18.2704 57.2662H21.03C21.1813 57.2661 21.3263 57.206 21.4334 57.0991L31.941 46.591C31.9939 46.538 32.036 46.4751 32.0646 46.4059C32.0933 46.3366 32.1081 46.2624 32.1081 46.1875V43.428C32.1081 43.3145 32.063 43.2056 31.9827 43.1254C31.9024 43.0451 31.7936 43 31.6801 43H28.921C28.7696 43.0001 28.6245 43.0602 28.5175 43.1672V43.1671Z" fill="#FF4132"/>
<path d="M27.9714 57.2663H31.6807C31.7942 57.2663 31.903 57.2212 31.9833 57.1409C32.0636 57.0607 32.1087 56.9518 32.1087 56.8383V53.129C32.1087 53.0155 32.0636 52.9067 31.9833 52.8264C31.903 52.7461 31.7942 52.701 31.6807 52.701H27.9714C27.8579 52.701 27.749 52.7461 27.6688 52.8264C27.5885 52.9067 27.5434 53.0155 27.5434 53.129V56.8383C27.5434 56.9518 27.5885 57.0607 27.6688 57.1409C27.749 57.2212 27.8579 57.2663 27.9714 57.2663Z" fill="#FF4132"/>
<path d="M91.8998 57.2662H83.8811C83.3155 57.2661 82.7732 57.0414 82.3733 56.6414C81.9734 56.2415 81.7488 55.6991 81.7488 55.1335V47.3796C81.7488 47.3665 81.7513 47.3535 81.7564 47.3414C81.7614 47.3293 81.7687 47.3183 81.778 47.309C81.7873 47.2997 81.7983 47.2924 81.8104 47.2874C81.8225 47.2823 81.8355 47.2798 81.8486 47.2798H83.2484C83.2615 47.2798 83.2744 47.2824 83.2866 47.2874C83.2987 47.2924 83.3097 47.2998 83.3189 47.309C83.3282 47.3183 83.3356 47.3293 83.3406 47.3414C83.3456 47.3536 83.3481 47.3665 83.3481 47.3796V54.8177C83.3482 55.0429 83.4376 55.2588 83.5968 55.418C83.756 55.5772 83.9719 55.6666 84.1971 55.6667H90.3007C90.3271 55.6666 90.3525 55.6561 90.3712 55.6374C90.3899 55.6187 90.4004 55.5933 90.4004 55.5668V47.3796C90.4004 47.3665 90.403 47.3535 90.4081 47.3414C90.4131 47.3293 90.4204 47.3183 90.4297 47.309C90.439 47.2997 90.45 47.2924 90.4622 47.2874C90.4743 47.2823 90.4873 47.2798 90.5004 47.2798H91.9001C91.9266 47.2798 91.952 47.2903 91.9707 47.309C91.9895 47.3278 92 47.3532 92 47.3796V57.1663C92 57.1928 91.9895 57.2182 91.9707 57.237C91.952 57.2557 91.9266 57.2662 91.9001 57.2662H91.8998Z" fill="black"/>
<path d="M49.1158 47.2798H38.2003C38.1871 47.2798 38.1742 47.2823 38.162 47.2874C38.1499 47.2924 38.1389 47.2997 38.1296 47.309C38.1203 47.3183 38.1129 47.3293 38.1079 47.3414C38.1029 47.3535 38.1003 47.3665 38.1003 47.3796V57.1663C38.1003 57.1795 38.1029 57.1925 38.1079 57.2046C38.1129 57.2167 38.1203 57.2277 38.1296 57.237C38.1389 57.2463 38.1499 57.2536 38.162 57.2586C38.1742 57.2637 38.1871 57.2662 38.2003 57.2662H39.6C39.6265 57.2662 39.6519 57.2557 39.6706 57.237C39.6893 57.2182 39.6999 57.1928 39.6999 57.1663V48.9791C39.6998 48.966 39.7024 48.953 39.7074 48.9409C39.7124 48.9287 39.7198 48.9177 39.7291 48.9085C39.7383 48.8992 39.7494 48.8918 39.7615 48.8868C39.7736 48.8818 39.7866 48.8792 39.7997 48.8792H43.7746C43.7877 48.8792 43.8007 48.8818 43.8128 48.8868C43.8249 48.8919 43.8359 48.8992 43.8452 48.9085C43.8545 48.9178 43.8618 48.9288 43.8669 48.9409C43.8719 48.953 43.8745 48.966 43.8745 48.9791V57.1663C43.8745 57.1928 43.885 57.2182 43.9037 57.237C43.9224 57.2557 43.9478 57.2662 43.9743 57.2662H45.374C45.4005 57.2662 45.4259 57.2557 45.4446 57.2369C45.4633 57.2182 45.4738 57.1928 45.4738 57.1663V48.9791C45.4738 48.9526 45.4843 48.9272 45.5031 48.9085C45.5218 48.8898 45.5472 48.8792 45.5737 48.8792H48.7997C49.0248 48.8793 49.2406 48.9687 49.3998 49.1279C49.559 49.2871 49.6484 49.503 49.6484 49.7281V57.1663C49.6484 57.1928 49.6589 57.2182 49.6777 57.237C49.6964 57.2557 49.7218 57.2662 49.7483 57.2662H51.148C51.1611 57.2662 51.1741 57.2637 51.1863 57.2586C51.1984 57.2536 51.2094 57.2463 51.2187 57.237C51.228 57.2277 51.2353 57.2167 51.2404 57.2046C51.2454 57.1925 51.248 57.1795 51.248 57.1663V49.4123C51.2479 48.8468 51.0233 48.3045 50.6235 47.9046C50.2236 47.5046 49.6813 47.2799 49.1158 47.2798Z" fill="black"/>
<path d="M67.1929 57.2662H65.7932C65.7801 57.2662 65.7671 57.2636 65.755 57.2586C65.7429 57.2536 65.7319 57.2462 65.7226 57.237C65.7133 57.2277 65.706 57.2167 65.701 57.2046C65.6959 57.1924 65.6934 57.1795 65.6934 57.1663V47.3796C65.6934 47.3665 65.6959 47.3536 65.701 47.3414C65.706 47.3293 65.7133 47.3183 65.7226 47.309C65.7319 47.2998 65.7429 47.2924 65.755 47.2874C65.7671 47.2824 65.7801 47.2798 65.7932 47.2798H67.1929C67.2061 47.2798 67.2191 47.2823 67.2312 47.2874C67.2433 47.2924 67.2543 47.2997 67.2636 47.309C67.2729 47.3183 67.2803 47.3293 67.2853 47.3414C67.2903 47.3535 67.2929 47.3665 67.2929 47.3796V57.1663C67.2929 57.1795 67.2903 57.1925 67.2853 57.2046C67.2803 57.2167 67.2729 57.2277 67.2636 57.237C67.2543 57.2463 67.2433 57.2536 67.2312 57.2586C67.2191 57.2637 67.2061 57.2662 67.1929 57.2662Z" fill="black"/>
<path d="M63.5963 48.7794V47.3796C63.5963 47.3532 63.5858 47.3278 63.567 47.309C63.5483 47.2903 63.5229 47.2798 63.4964 47.2798H53.445C53.4319 47.2798 53.419 47.2824 53.4068 47.2874C53.3947 47.2924 53.3837 47.2998 53.3745 47.309C53.3652 47.3183 53.3579 47.3293 53.3528 47.3414C53.3478 47.3536 53.3453 47.3665 53.3453 47.3796V55.1335C53.3453 55.6991 53.57 56.2415 53.9699 56.6415C54.3698 57.0414 54.9122 57.2661 55.4778 57.2661H63.4965C63.523 57.2661 63.5484 57.2556 63.5671 57.2369C63.5859 57.2181 63.5964 57.1927 63.5964 57.1663V55.7665C63.5964 55.7401 63.5859 55.7147 63.5671 55.6959C63.5484 55.6772 63.523 55.6667 63.4965 55.6667H55.7934C55.6819 55.6667 55.5715 55.6447 55.4685 55.6021C55.3655 55.5594 55.2719 55.4969 55.1931 55.418C55.1143 55.3392 55.0517 55.2456 55.0091 55.1426C54.9664 55.0396 54.9445 54.9292 54.9445 54.8177V53.1723C54.9445 53.1592 54.9471 53.1462 54.9521 53.1341C54.9572 53.122 54.9645 53.111 54.9738 53.1017C54.9831 53.0925 54.9941 53.0851 55.0062 53.0801C55.0183 53.0751 55.0313 53.0725 55.0444 53.0725H62.9479C62.9611 53.0725 62.974 53.0699 62.9862 53.0649C62.9983 53.0599 63.0093 53.0525 63.0186 53.0433C63.0279 53.034 63.0352 53.023 63.0402 53.0109C63.0452 52.9987 63.0478 52.9857 63.0478 52.9726V51.5731C63.0478 51.56 63.0452 51.547 63.0402 51.5349C63.0352 51.5228 63.0278 51.5118 63.0185 51.5025C63.0093 51.4932 62.9983 51.4859 62.9861 51.4809C62.974 51.4759 62.9611 51.4733 62.9479 51.4733H55.0444C55.0179 51.4733 54.9925 51.4628 54.9738 51.4441C54.9551 51.4253 54.9445 51.3999 54.9445 51.3735V48.9791C54.9445 48.9526 54.9551 48.9272 54.9738 48.9085C54.9925 48.8898 55.0179 48.8792 55.0444 48.8792H63.4964C63.5229 48.8792 63.5483 48.8687 63.567 48.85C63.5857 48.8313 63.5963 48.8059 63.5963 48.7795V48.7794Z" fill="black"/>
<path d="M72.6528 55.6667H79.5515C79.5646 55.6667 79.5776 55.6692 79.5897 55.6742C79.6018 55.6793 79.6129 55.6866 79.6222 55.6959C79.6314 55.7052 79.6388 55.7162 79.6438 55.7283C79.6488 55.7404 79.6514 55.7534 79.6514 55.7665V57.1663C79.6514 57.1794 79.6488 57.1924 79.6438 57.2045C79.6388 57.2166 79.6314 57.2276 79.6222 57.2369C79.6129 57.2462 79.6018 57.2535 79.5897 57.2585C79.5776 57.2636 79.5646 57.2661 79.5515 57.2661H69.7458C69.6771 57.2661 69.6098 57.2462 69.5522 57.2088C69.4946 57.1714 69.4491 57.118 69.4212 57.0553C69.3933 56.9925 69.3841 56.923 69.3949 56.8551C69.4057 56.7873 69.4359 56.724 69.4819 56.673L76.4255 48.9625C76.432 48.9553 76.4363 48.9464 76.4378 48.9368C76.4393 48.9273 76.438 48.9175 76.4341 48.9086C76.4302 48.8998 76.4237 48.8923 76.4156 48.887C76.4075 48.8818 76.398 48.879 76.3883 48.879H69.4899C69.4768 48.8791 69.4638 48.8765 69.4517 48.8715C69.4395 48.8665 69.4285 48.8591 69.4192 48.8498C69.41 48.8405 69.4026 48.8295 69.3976 48.8174C69.3925 48.8053 69.39 48.7923 69.39 48.7792V47.3796C69.39 47.3665 69.3925 47.3535 69.3976 47.3414C69.4026 47.3293 69.41 47.3183 69.4192 47.309C69.4285 47.2997 69.4395 47.2924 69.4517 47.2874C69.4638 47.2823 69.4768 47.2798 69.4899 47.2798H79.2956C79.3643 47.2798 79.4316 47.2997 79.4892 47.3371C79.5468 47.3745 79.5923 47.4278 79.6202 47.4906C79.6482 47.5533 79.6573 47.6228 79.6465 47.6907C79.6357 47.7585 79.6055 47.8218 79.5595 47.8728L72.6158 55.5835C72.6093 55.5906 72.6051 55.5995 72.6037 55.609C72.6022 55.6185 72.6034 55.6282 72.6073 55.637C72.6113 55.6458 72.6176 55.6533 72.6257 55.6586C72.6337 55.6638 72.6431 55.6666 72.6528 55.6667Z" fill="black"/>
</svg>
