<svg width="100" height="100" viewBox="0 0 100 100" fill="none" xmlns="http://www.w3.org/2000/svg">
<rect width="100" height="100" rx="24" fill="white"/>
<g clip-path="url(#clip0_175_927)">
<path d="M17.181 59.2326C17.181 62.4782 17.8934 64.97 18.8245 66.4775C20.0453 68.452 21.8661 69.2886 23.7225 69.2886C26.1167 69.2886 28.3071 68.6944 32.5281 62.8565C35.9097 58.1773 39.8942 51.6093 42.5752 47.4917L47.1155 40.5158C50.2694 35.6711 53.92 30.2854 58.1055 26.6349C61.5226 23.6553 65.2086 22 68.9182 22C75.1463 22 81.0788 25.6092 85.6191 32.3782C90.588 39.7916 93 49.1293 93 58.7655C93 64.4941 91.8708 68.7033 89.9495 72.0287C88.0932 75.2447 84.4752 78.4578 78.389 78.4578V69.2886C83.6002 69.2886 84.9008 64.5 84.9008 59.0198C84.9008 51.2103 83.08 42.5435 79.0688 36.3509C76.2223 31.9584 72.5333 29.2745 68.4749 29.2745C64.0853 29.2745 60.553 32.5851 56.5833 38.488C54.4727 41.6243 52.3061 45.4462 49.8733 49.7589L47.1953 54.5031C41.8156 64.0418 40.4529 66.2144 37.763 69.7999C33.0483 76.0783 29.0224 78.4578 23.7225 78.4578C17.4352 78.4578 13.4596 75.7354 10.9973 71.6326C8.98727 68.2895 8 63.9029 8 58.9045L17.181 59.2326Z" fill="#0081FB"/>
<path d="M15.239 33.0255C19.4482 26.5373 25.5226 22 32.4897 22C36.5245 22 40.5356 23.1942 44.7242 26.6142C49.3058 30.3534 54.189 36.5105 60.2811 46.6582L62.4655 50.2998C67.7388 59.0848 70.7391 63.6044 72.4949 65.7356C74.7532 68.4727 76.3346 69.2886 78.389 69.2886C83.6002 69.2886 84.9008 64.5 84.9008 59.0198L93 58.7655C93 64.4941 91.8708 68.7033 89.9495 72.0287C88.0932 75.2447 84.4752 78.4578 78.389 78.4578C74.6054 78.4578 71.2534 77.636 67.5467 74.1392C64.6972 71.4552 61.3659 66.6874 58.8031 62.4013L51.1799 49.6673C47.3549 43.2766 43.8463 38.5117 41.8156 36.3539C39.6311 34.0335 36.823 31.2313 32.3419 31.2313C28.715 31.2313 25.6349 33.7763 23.0574 37.6693L15.239 33.0255Z" fill="url(#paint0_linear_175_927)"/>
<path d="M32.3419 31.2313C28.715 31.2313 25.6349 33.7763 23.0574 37.6693C19.4127 43.1702 17.181 51.364 17.181 59.2326C17.181 62.4782 17.8934 64.97 18.8245 66.4775L10.9973 71.6326C8.98727 68.2895 8 63.9029 8 58.9045C8 49.8151 10.4948 40.3414 15.239 33.0255C19.4482 26.5373 25.5226 22 32.4897 22L32.3419 31.2313Z" fill="url(#paint1_linear_175_927)"/>
</g>
<defs>
<linearGradient id="paint0_linear_175_927" x1="26.031" y1="56.5841" x2="84.5579" y2="59.54" gradientUnits="userSpaceOnUse">
<stop stop-color="#0064E1"/>
<stop offset="0.4" stop-color="#0064E1"/>
<stop offset="0.83" stop-color="#0073EE"/>
<stop offset="1" stop-color="#0082FB"/>
</linearGradient>
<linearGradient id="paint1_linear_175_927" x1="21.3016" y1="63.0871" x2="21.3016" y2="41.509" gradientUnits="userSpaceOnUse">
<stop stop-color="#0082FB"/>
<stop offset="1" stop-color="#0064E0"/>
</linearGradient>
<clipPath id="clip0_175_927">
<rect width="85" height="56.4578" fill="white" transform="translate(8 22)"/>
</clipPath>
</defs>
</svg>
