<svg width="100" height="100" viewBox="0 0 100 100" fill="none" xmlns="http://www.w3.org/2000/svg">
<rect width="100" height="100" rx="24" fill="#27D045"/>
<path d="M49.2369 86.925C69.7069 86.925 86.3011 70.3307 86.3011 49.8608C86.3011 29.3906 69.7069 12.7964 49.2369 12.7964C28.7668 12.7964 12.1725 29.3906 12.1725 49.8608C12.1725 70.3307 28.7668 86.925 49.2369 86.925Z" stroke="white" stroke-width="5.26269"/>
<path d="M15.3674 70.949L9.48828 91.7816L31.0879 85.7748L32.238 79.1286L18.1791 83.602L21.8856 70.1821L15.3674 70.949Z" fill="white"/>
<path d="M17.9239 83.73C17.9239 83.6022 22.3972 68.7766 22.3972 68.7766L33.1331 78.8734L17.9239 83.73Z" fill="#27D045"/>
<path d="M33.2199 31.4988C31.915 32.4042 30.8024 33.5596 29.9468 34.8979C29.0914 36.236 28.5097 37.7307 28.2354 39.2951C27.5963 44.2796 30.6639 49.392 30.6639 49.392C33.7753 54.0212 37.4693 58.2308 41.6552 61.9171C45.3168 64.8145 49.4742 67.0232 53.9248 68.4353C56.5209 69.4719 59.3609 69.738 62.1044 69.2021C64.5363 68.5347 66.6877 67.1002 68.2392 65.1124C68.6028 64.2079 68.8603 63.2644 69.0061 62.3005C69.1524 61.4548 69.1524 60.5901 69.0061 59.7444C68.8783 58.8497 59.6762 54.632 58.7816 54.8877C57.887 55.1434 57.1199 56.8048 56.0974 58.2107C55.0749 59.6165 54.6916 60.2556 53.6693 60.2556C52.6468 60.2556 48.1733 58.4662 43.9556 54.632C41.5466 52.5433 39.664 49.916 38.4601 46.9635C38.4601 46.9635 39.2269 46.0689 40.2495 44.663C41.045 43.7913 41.6154 42.7383 41.9107 41.5956C41.9107 40.9567 38.3322 31.8822 37.4376 31.4988C36.0385 31.3021 34.619 31.3021 33.2199 31.4988Z" fill="white"/>
</svg>
