<svg width="100" height="100" viewBox="0 0 100 100" fill="none" xmlns="http://www.w3.org/2000/svg">
<rect width="100" height="100" rx="24" fill="#512BD4"/>
<path d="M10.0546 65.6665C9.20608 65.6665 8.48487 65.3839 7.89092 64.8184C7.29697 64.2384 7 63.5497 7 62.7523C7 61.9402 7.29697 61.2444 7.89092 60.6644C8.48487 60.0844 9.20608 59.7944 10.0546 59.7944C10.9172 59.7944 11.6455 60.0844 12.2394 60.6644C12.8475 61.2444 13.1515 61.9402 13.1515 62.7523C13.1515 63.5497 12.8475 64.2384 12.2394 64.8184C11.6455 65.3839 10.9172 65.6665 10.0546 65.6665Z" fill="white"/>
<path d="M43.9738 65.1881H38.4585L23.9283 42.2647C23.5606 41.6847 23.2564 41.0829 23.0162 40.4595H22.8888C23.0019 41.1266 23.0585 42.5547 23.0585 44.7439V65.1881H18.1796V34H24.0554L38.098 56.3797C38.6919 57.3079 39.0738 57.9458 39.2435 58.2937H39.3282C39.1869 57.4673 39.1161 56.0681 39.1161 54.096V34H43.9738V65.1881Z" fill="white"/>
<path d="M67.7322 65.1881H50.6564V34H67.0535V38.3934H55.7051V47.2234H66.1627V51.595H55.7051V60.8165H67.7322V65.1881Z" fill="white"/>
<path d="M92 38.3934H83.2605V65.1881H78.2119V38.3934H69.4937V34H92V38.3934Z" fill="white"/>
</svg>
