<svg width="100" height="100" viewBox="0 0 100 100" fill="none" xmlns="http://www.w3.org/2000/svg">
<rect width="100" height="100" rx="24" fill="#23A8F2"/>
<path d="M89.9922 17.0044L72.4782 8.52802C70.4509 7.54688 68.0283 7.96073 66.4373 9.55998L9.10358 62.1058C7.56145 63.5192 7.56322 65.9597 9.10738 67.3708L13.7906 71.6503C15.053 72.8039 16.9543 72.8885 18.3135 71.8524L87.3563 19.2033C89.6726 17.437 93 19.0976 93 22.0201V21.8158C93 19.7643 91.8303 17.8943 89.9922 17.0044Z" fill="#D9D9D9"/>
<path d="M89.9922 83.9964L72.4782 92.4729C70.4509 93.454 68.0283 93.0401 66.4373 91.4404L9.10358 38.8946C7.56145 37.4813 7.56322 35.0407 9.10738 33.6296L13.7906 29.3502C15.053 28.1965 16.9543 28.1116 18.3135 29.1481L87.3563 81.7972C89.6726 83.5638 93 81.9031 93 78.9803V79.1851C93 81.2365 91.8303 83.1064 89.9922 83.9964Z" fill="#E6E6E6"/>
<path d="M72.4791 92.4737C70.4513 93.4549 68.0286 93.0401 66.4375 91.4404C68.3979 93.4107 71.75 92.0154 71.75 89.2287V11.7716C71.75 8.98485 68.398 7.58913 66.4375 9.55979C68.0286 7.96036 70.4513 7.54597 72.4791 8.52622L89.9896 16.9908C91.8295 17.8802 93 19.751 93 21.8033V79.1975C93 81.2499 91.8295 83.1198 89.9896 84.0097L72.4791 92.4737Z" fill="white"/>
<g style="mix-blend-mode:overlay" opacity="0.25">
<path style="mix-blend-mode:overlay" opacity="0.25" fill-rule="evenodd" clip-rule="evenodd" d="M68.2232 92.6365C69.5619 93.1607 71.0885 93.1276 72.4398 92.4736L89.94 84.0097C91.779 83.1206 92.9478 81.2498 92.9478 79.1974V21.8033C92.9478 19.751 91.779 17.8804 89.94 16.9908L72.4398 8.52618C70.6664 7.66848 68.591 7.87861 67.0346 9.01595C66.8122 9.17847 66.6005 9.35985 66.4017 9.55974L32.9 40.2826L18.3072 29.1481C16.9488 28.1116 15.0487 28.1965 13.7871 29.3501L9.10666 33.6296C7.56346 35.0408 7.56169 37.4812 9.10285 38.8946L21.7581 50.5001L9.10285 62.1056C7.56169 63.519 7.56346 65.9594 9.10666 67.3705L13.7871 71.6501C15.0487 72.8036 16.9488 72.8882 18.3072 71.8521L32.9 60.7176L66.4017 91.4404C66.9318 91.9735 67.554 92.3749 68.2232 92.6365ZM71.711 31.1041L46.2909 50.5001L71.711 69.896V31.1041Z" fill="url(#paint0_linear_175_473)"/>
</g>
<defs>
<linearGradient id="paint0_linear_175_473" x1="50.4481" y1="8.00001" x2="50.4481" y2="93.0009" gradientUnits="userSpaceOnUse">
<stop stop-color="white"/>
<stop offset="1" stop-color="white" stop-opacity="0"/>
</linearGradient>
</defs>
</svg>
