<svg width="100" height="100" viewBox="0 0 100 100" fill="none" xmlns="http://www.w3.org/2000/svg">
<rect width="100" height="100" rx="24" fill="white"/>
<g clip-path="url(#clip0_175_545)">
<path d="M67.2885 39.6511H89.2442C91.3185 39.6511 93 41.3326 93 43.4069V63.4057C93 71.0292 86.8199 77.2093 79.1964 77.2093H79.1311C71.5076 77.2103 65.3267 71.0311 65.3256 63.4076C65.3256 63.407 65.3256 63.4063 65.3256 63.4056V41.614C65.3256 40.5299 66.2044 39.6511 67.2885 39.6511Z" fill="#5059C9"/>
<path d="M82.1279 35.6977C87.0407 35.6977 91.0232 31.7151 91.0232 26.8023C91.0232 21.8896 87.0407 17.907 82.1279 17.907C77.2151 17.907 73.2325 21.8896 73.2325 26.8023C73.2325 31.7151 77.2151 35.6977 82.1279 35.6977Z" fill="#5059C9"/>
<path d="M54.4535 35.6977C61.5497 35.6977 67.3023 29.9451 67.3023 22.8489C67.3023 15.7526 61.5497 10 54.4535 10C47.3572 10 41.6046 15.7526 41.6046 22.8489C41.6046 29.9451 47.3572 35.6977 54.4535 35.6977Z" fill="#7B83EB"/>
<path d="M71.5859 39.6511H35.3443C33.2947 39.7018 31.6734 41.4028 31.7209 43.4524V66.2621C31.4347 78.5618 41.1657 88.7687 53.4651 89.0698C65.7646 88.7687 75.4955 78.5618 75.2093 66.2621V43.4524C75.2568 41.4028 73.6355 39.7018 71.5859 39.6511Z" fill="#7B83EB"/>
<path opacity="0.1" d="M55.4418 39.6511V71.6151C55.432 73.0809 54.5438 74.3977 53.1884 74.9558C52.7568 75.1383 52.293 75.2324 51.8244 75.2325H33.4604C33.2035 74.5802 32.9663 73.9279 32.7686 73.2558C32.0766 70.9875 31.7235 68.6296 31.7209 66.2581V43.4465C31.6734 41.4001 33.292 39.7018 35.3383 39.6511H55.4418Z" fill="black"/>
<path opacity="0.2" d="M53.4651 39.6511V73.5918C53.465 74.0604 53.3709 74.5242 53.1884 74.9558C52.6303 76.3112 51.3134 77.1995 49.8477 77.2093H34.3895C34.0535 76.5569 33.7372 75.9046 33.4604 75.2325C33.1837 74.5604 32.9663 73.9279 32.7686 73.2558C32.0766 70.9876 31.7235 68.6296 31.7209 66.2581V43.4465C31.6734 41.4001 33.292 39.7018 35.3383 39.6511H53.4651Z" fill="black"/>
<path opacity="0.2" d="M53.4651 39.6511V69.6383C53.4501 71.63 51.8393 73.2407 49.8477 73.2558H32.7686C32.0767 70.9876 31.7236 68.6296 31.7209 66.2581V43.4465C31.6734 41.4001 33.2921 39.7018 35.3384 39.6511H53.4651Z" fill="black"/>
<path opacity="0.2" d="M51.4884 39.6511V69.6383C51.4733 71.63 49.8625 73.2407 47.8709 73.2558H32.7686C32.0767 70.9876 31.7236 68.6296 31.7209 66.2581V43.4465C31.6734 41.4001 33.2921 39.7018 35.3384 39.6511H51.4884Z" fill="black"/>
<path opacity="0.1" d="M55.4419 29.4314V35.6581C55.1058 35.6779 54.7895 35.6977 54.4535 35.6977C54.1174 35.6977 53.8012 35.6779 53.4651 35.6581C52.7979 35.6138 52.1361 35.508 51.4884 35.3418C47.4854 34.3939 44.1784 31.5866 42.593 27.7907C42.3202 27.1532 42.1085 26.4913 41.9604 25.814H51.8244C53.8191 25.8215 55.4343 27.4366 55.4419 29.4314Z" fill="black"/>
<path opacity="0.2" d="M53.4652 31.4082V35.6582C52.7979 35.6139 52.1362 35.508 51.4884 35.3419C47.4855 34.394 44.1785 31.5867 42.5931 27.7908H49.8477C51.8424 27.7983 53.4576 29.4135 53.4652 31.4082Z" fill="black"/>
<path opacity="0.2" d="M53.4652 31.4082V35.6582C52.7979 35.6139 52.1362 35.508 51.4884 35.3419C47.4855 34.394 44.1785 31.5867 42.5931 27.7908H49.8477C51.8424 27.7983 53.4576 29.4135 53.4652 31.4082Z" fill="black"/>
<path opacity="0.2" d="M51.4884 31.4082V35.3419C47.4854 34.394 44.1784 31.5867 42.593 27.7908H47.8709C49.8657 27.7984 51.4808 29.4135 51.4884 31.4082Z" fill="black"/>
<path d="M11.6234 27.7908H47.865C49.8661 27.7908 51.4883 29.413 51.4883 31.4141V67.6557C51.4883 69.6569 49.8661 71.2791 47.865 71.2791H11.6234C9.62221 71.2791 8 69.6568 8 67.6557V31.4141C8 29.413 9.62225 27.7908 11.6234 27.7908Z" fill="url(#paint0_linear_175_545)"/>
<path d="M39.28 41.5845H32.0352V61.3125H27.4195V41.5845H20.2084V37.7576H39.28V41.5845Z" fill="white"/>
</g>
<defs>
<linearGradient id="paint0_linear_175_545" x1="15.5548" y1="24.9595" x2="43.9336" y2="74.1104" gradientUnits="userSpaceOnUse">
<stop stop-color="#5A62C3"/>
<stop offset="0.5" stop-color="#4D55BD"/>
<stop offset="1" stop-color="#3940AB"/>
</linearGradient>
<clipPath id="clip0_175_545">
<rect width="85" height="79.0698" fill="white" transform="translate(8 10)"/>
</clipPath>
</defs>
</svg>
