<svg width="100" height="100" viewBox="0 0 100 100" fill="none" xmlns="http://www.w3.org/2000/svg">
<rect width="100" height="100" rx="24" fill="white"/>
<path d="M31.5259 12C29.2302 12.005 26.983 13.3082 25.8276 15.2961L7.8534 46.5189C6.71553 48.5121 6.71553 51.1176 7.8534 53.1108L25.8276 84.334C26.983 86.3218 29.2302 87.6254 31.5259 87.63H67.4742C69.7699 87.6251 72.0171 86.3218 73.1726 84.334L91.1467 53.1108C92.2846 51.1176 92.2843 48.5121 91.1467 46.5189L73.1726 15.2961C72.0171 13.3079 69.7699 12.0046 67.4742 12L31.5259 12ZM31.8523 30.266C31.9018 30.261 31.9536 30.261 32.003 30.266H38.2034C38.3411 30.2705 38.4756 30.3097 38.5941 30.3801C38.7126 30.4505 38.8115 30.5496 38.8814 30.6684L49.3998 49.4123C49.4529 49.5052 49.4868 49.6082 49.4994 49.7144C49.5127 49.6082 49.5465 49.5052 49.5997 49.4123L60.0928 30.6684C60.1652 30.5463 60.2679 30.4449 60.3912 30.3744C60.5144 30.3039 60.6538 30.2665 60.7958 30.266H66.9964C67.5453 30.2707 67.9567 30.9623 67.6993 31.4484L57.432 49.815L67.6993 68.1564C67.9809 68.6452 67.5599 69.3687 66.9964 69.364H60.7958C60.6513 69.361 60.5102 69.3198 60.3868 69.2447C60.2634 69.1696 60.162 69.0632 60.0928 68.9364L49.5997 50.1922C49.5465 50.0996 49.5127 49.9963 49.4997 49.8904C49.4868 49.9967 49.4528 50.0995 49.3998 50.1925L38.881 68.9364C38.8142 69.0596 38.7168 69.1637 38.5982 69.2386C38.4796 69.3135 38.3438 69.3567 38.2037 69.364H32.0027C31.4392 69.369 31.0182 68.6452 31.2998 68.1564L41.5672 49.815L31.2998 31.4484C31.0537 31.0048 31.3542 30.3607 31.8523 30.266Z" fill="#3498DB"/>
</svg>
