<svg width="100" height="100" viewBox="0 0 100 100" fill="none" xmlns="http://www.w3.org/2000/svg">
<rect width="100" height="100" rx="24" fill="white"/>
<path d="M12 34.716V66.2817C12 70.1868 14.0831 73.7985 17.4672 75.7495L44.8033 91.5343C46.4653 92.4945 48.351 93 50.2705 93C52.19 93 54.0756 92.4945 55.7377 91.5343L83.0736 75.7495C84.7357 74.7901 86.116 73.41 87.0757 71.748C88.0353 70.086 88.5406 68.2007 88.5406 66.2816V34.7162C88.5406 30.8098 86.4577 27.1986 83.0736 25.2469L55.7375 9.46601C54.0756 8.50564 52.1899 8 50.2704 8C48.3509 8 46.4652 8.50564 44.8033 9.46601L17.4672 25.2469C15.805 26.2065 14.4246 27.5868 13.4649 29.249C12.5052 30.9112 11.9999 32.7968 12 34.7162V34.716Z" fill="url(#paint0_linear_175_840)"/>
<g style="mix-blend-mode:screen">
<path d="M31.1361 45.0358V55.9713C31.1354 56.3305 31.2057 56.6863 31.3429 57.0184C31.4801 57.3504 31.6815 57.6521 31.9355 57.9061C32.1895 58.1601 32.4912 58.3615 32.8232 58.4987C33.1552 58.6359 33.5111 58.7061 33.8703 58.7055C34.2295 58.7057 34.5851 58.6351 34.9169 58.4978C35.2488 58.3605 35.5503 58.1591 35.8042 57.9051C36.0582 57.6512 36.2596 57.3497 36.3969 57.0179C36.5342 56.686 36.6048 56.3304 36.6046 55.9713C36.6046 55.2463 36.8926 54.551 37.4052 54.0384C37.9178 53.5258 38.6131 53.2378 39.3381 53.2378C40.063 53.2378 40.7583 53.5258 41.2709 54.0384C41.7835 54.551 42.0715 55.2463 42.0715 55.9713C42.0715 58.1463 41.2075 60.2323 39.6695 61.7704C38.1314 63.3084 36.0454 64.1725 33.8703 64.1725C31.6952 64.1725 29.6092 63.3084 28.0712 61.7704C26.5332 60.2323 25.6691 58.1463 25.6691 55.9713V45.0374C25.6691 42.8623 26.5332 40.7763 28.0712 39.2383C29.6092 37.7002 31.6952 36.8362 33.8703 36.8362C36.0454 36.8362 38.1314 37.7002 39.6695 39.2383C41.2075 40.7763 42.0715 42.8623 42.0715 45.0374C42.0715 45.7623 41.7835 46.4576 41.2709 46.9702C40.7583 47.4829 40.063 47.7708 39.3381 47.7708C38.6131 47.7708 37.9178 47.4829 37.4052 46.9702C36.8926 46.4576 36.6046 45.7623 36.6046 45.0374C36.6046 44.3124 36.3166 43.6172 35.804 43.1045C35.2914 42.5919 34.5961 42.3039 33.8711 42.3039C33.1462 42.3039 32.4509 42.5919 31.9383 43.1045C31.4256 43.6172 31.1377 44.3124 31.1377 45.0374L31.1361 45.0358ZM74.8747 55.9713C74.8752 56.3304 74.8047 56.6862 74.6675 57.0181C74.5302 57.35 74.3288 57.6516 74.0748 57.9056C73.8208 58.1596 73.5193 58.361 73.1873 58.4982C72.8554 58.6355 72.4997 58.7059 72.1405 58.7055H69.4062V61.4382C69.4062 62.164 69.1191 62.8596 68.6054 63.3716C68.3519 63.6261 68.0508 63.828 67.7191 63.9657C67.3875 64.1035 67.0319 64.1744 66.6727 64.1744C66.3136 64.1744 65.958 64.1035 65.6264 63.9657C65.2947 63.828 64.9935 63.6261 64.7401 63.3716C64.2281 62.8584 63.9401 62.1632 63.9393 61.4382V58.7055H58.4723V61.4382C58.4732 61.7975 58.403 62.1534 58.2659 62.4855C58.1288 62.8177 57.9274 63.1194 57.6734 63.3735C57.4193 63.6275 57.1175 63.8289 56.7854 63.966C56.4533 64.1031 56.0974 64.1733 55.7381 64.1725C55.3789 64.1731 55.0231 64.1028 54.6912 63.9656C54.3593 63.8284 54.0577 63.627 53.8038 63.3729C53.5499 63.1189 53.3487 62.8172 53.2117 62.4852C53.0747 62.1532 53.0046 61.7974 53.0054 61.4382V58.7055H50.2695C49.5446 58.7055 48.8493 58.4175 48.3367 57.9049C47.8241 57.3923 47.5361 56.697 47.5361 55.972C47.5361 55.2471 47.8241 54.5518 48.3367 54.0392C48.8493 53.5266 49.5446 53.2386 50.2695 53.2386H53.0038V47.7717H50.2695C49.5446 47.7717 48.8493 47.4837 48.3367 46.971C47.8241 46.4584 47.5361 45.7631 47.5361 45.0382C47.5361 44.3132 47.8241 43.6179 48.3367 43.1053C48.8493 42.5927 49.5446 42.3047 50.2695 42.3047H53.0038V39.5704C53.0038 38.8455 53.2918 38.1502 53.8044 37.6376C54.317 37.125 55.0123 36.837 55.7373 36.837C56.4622 36.837 57.1575 37.125 57.6701 37.6376C58.1828 38.1502 58.4707 38.8455 58.4707 39.5704V42.3031H63.9377V39.5704C63.9377 38.8455 64.2257 38.1502 64.7383 37.6376C65.2509 37.125 65.9462 36.837 66.6711 36.837C67.3961 36.837 68.0914 37.125 68.604 37.6376C69.1166 38.1502 69.4046 38.8455 69.4046 39.5704V42.3031H72.1389C72.8631 42.3031 73.5587 42.5903 74.0707 43.1039C74.3252 43.3574 74.5271 43.6586 74.6648 43.9902C74.8026 44.3219 74.8735 44.6775 74.8735 45.0366C74.8735 45.3957 74.8026 45.7513 74.6648 46.083C74.5271 46.4146 74.3252 46.7158 74.0707 46.9692C73.8173 47.2234 73.5162 47.4251 73.1847 47.5627C72.8532 47.7004 72.4978 47.7714 72.1389 47.7717H69.4046V53.2386H72.1389C72.8633 53.2403 73.5575 53.5287 74.0699 54.0407C74.5822 54.5528 74.8726 55.2469 74.8747 55.9713ZM63.9393 47.7717H58.4723V53.2386H63.9393V47.7717Z" fill="white"/>
</g>
<defs>
<linearGradient id="paint0_linear_175_840" x1="19.5169" y1="26.5807" x2="56.4213" y2="90.8213" gradientUnits="userSpaceOnUse">
<stop stop-color="#927BE5"/>
<stop offset="1" stop-color="#512BD4"/>
</linearGradient>
</defs>
</svg>
