<svg width="100" height="100" viewBox="0 0 100 100" fill="none" xmlns="http://www.w3.org/2000/svg">
<rect width="100" height="100" rx="24" fill="black"/>
<path d="M8 85.5625C10.5 85.5625 14.25 80.3125 18.625 79.5625C21.125 79.5625 23 84.8125 29.25 85.5625C33.625 85.5625 35.5 80.3125 39.875 80.3125C44.25 80.3125 46.125 85.5625 50.5 85.5625C54.875 85.5625 56.75 80.3125 61.125 80.3125C65.5 80.3125 67.375 85.5625 71.75 85.5625C76.125 85.5625 78 80.3125 82.375 80.3125C86.75 80.3125 88.625 85.5625 93 85.5625" stroke="white" stroke-width="1.75781" stroke-linecap="round" stroke-linejoin="round"/>
<path d="M16.55 80.3375L13.6875 74.8625L87.4375 70.1125C81.6375 75.3875 74.1875 79.6625 66.65 83.1625" stroke="white" stroke-width="1.75781" stroke-linecap="round" stroke-linejoin="round"/>
<path d="M43.05 23.8625C55.6 27.7 73.15 46.2375 79.125 66.1625C75.85 64.875 73.4 63.5625 68.8 64.7375C64.35 48.55 56.3875 33.0875 43.05 23.8625Z" stroke="white" stroke-width="1.75781" stroke-linecap="round" stroke-linejoin="round"/>
<path d="M19.7125 15C35.7875 21.875 57.8375 41.0125 61.8875 66.5C43.35 59.025 29.2375 63.0125 19.4125 69.075C34.4 50.025 27.675 28.3625 19.7125 15Z" stroke="white" stroke-width="1.75781" stroke-linecap="round" stroke-linejoin="round"/>
</svg>
