<svg width="100" height="100" viewBox="0 0 100 100" fill="none" xmlns="http://www.w3.org/2000/svg">
<rect width="100" height="100" rx="24" fill="white"/>
<g clip-path="url(#clip0_150_332)">
<path d="M86.3163 51.1552C86.3163 71.4659 69.8476 87.9365 49.5331 87.9365C29.2185 87.9365 12.7517 71.4659 12.7517 51.1552C12.7517 30.8369 29.2185 14.3719 49.5331 14.3719C69.8476 14.3719 86.3163 30.8369 86.3163 51.1552Z" fill="white"/>
<path d="M49.4934 8C73.2775 8 92 27.1612 92 50.4991C92 73.975 72.9655 93 49.4934 93C26.025 93.0019 7 73.975 7 50.5009C7 27.0231 26.025 8 49.4934 8ZM49.3988 59.4122L37.5115 19.9667L22.1187 70.4695H25.0059C25.0059 70.4695 26.9477 61.6849 30.1053 56.438C31.824 53.5886 34.473 51.2592 38.0145 51.3234C40.5084 51.3726 42.6696 52.7358 45.3677 56.5098C46.99 58.7693 49.4877 64.5343 49.4877 64.5343C49.4877 64.5343 51.9873 58.7769 53.6153 56.5098C56.3059 52.7358 58.467 51.3726 60.9685 51.3234C64.5062 51.2592 67.1608 53.5886 68.872 56.4437C72.0315 61.683 73.9714 70.4695 73.9714 70.4695H76.8662L61.4639 19.9667L49.5785 59.4122L49.4934 59.4822L49.3988 59.4122Z" fill="#005DAA"/>
</g>
<defs>
<clipPath id="clip0_150_332">
<rect width="85" height="85" fill="white" transform="translate(7 8)"/>
</clipPath>
</defs>
</svg>
