<svg width="100" height="100" viewBox="0 0 100 100" fill="none" xmlns="http://www.w3.org/2000/svg">
<rect width="100" height="100" rx="24" fill="#005AFF"/>
<path d="M65.757 40.6082V59.3918H68.574V40.6082H65.757ZM35.6611 40.2874C30.1732 40.2873 25.9151 44.2817 25.9151 50C25.9151 55.9759 30.1732 59.7127 35.6611 59.7127C41.1489 59.7126 45.4157 55.9759 45.407 50C45.399 44.5821 41.1489 40.2874 35.6611 40.2874ZM42.5951 50C42.5951 54.2333 39.4906 57.0387 35.6611 57.0387C31.8315 57.0387 28.7271 54.2333 28.7271 50C28.7271 45.8435 31.8315 42.9613 35.6611 42.9613C39.4906 42.9613 42.5951 45.8435 42.5951 50ZM7 40V59.3918H9.87496V46.5766L24.8149 60V55.9796L7 40ZM47.5257 50L57.9805 59.3918H62.1725L51.7019 50L62.1725 40.6082H57.9805L47.5257 50ZM92 59.3918H88.901L86.635 55.2322H76.371L74.1045 59.3918H71.0055L74.7585 52.4588H85.161L79.974 42.8239L81.503 40L92 59.3918Z" fill="white"/>
</svg>
