<svg width="100" height="100" viewBox="0 0 100 100" fill="none" xmlns="http://www.w3.org/2000/svg">
<rect width="100" height="100" rx="24" fill="black"/>
<path d="M8.09017 44.1803C8.7005 44.1803 9.18034 43.7014 9.18034 43.0902C9.18034 42.4807 8.7005 42 8.09017 42C7.48071 42 7 42.4807 7 43.0902C7 43.7014 7.48071 44.1803 8.09017 44.1803ZM16.8116 44.1803C17.4219 44.1803 17.9017 43.7014 17.9017 43.0902C17.9017 42.4807 17.4219 42 16.8116 42C16.2021 42 15.7214 42.4807 15.7214 43.0902C15.7214 43.7014 16.2021 44.1803 16.8116 44.1803ZM8.09017 47.4509C8.7005 47.4509 9.18034 46.9719 9.18034 46.3607C9.18034 45.7512 8.7005 45.2705 8.09017 45.2705C7.48071 45.2705 7 45.7512 7 46.3607C7 46.9719 7.48071 47.4509 8.09017 47.4509ZM10.2705 47.4509C10.8808 47.4509 11.3607 46.9719 11.3607 46.3607C11.3607 45.7512 10.8808 45.2705 10.2705 45.2705C9.66105 45.2705 9.18034 45.7512 9.18034 46.3607C9.18034 46.9719 9.66105 47.4509 10.2705 47.4509ZM16.8116 47.4509C17.4219 47.4509 17.9017 46.9719 17.9017 46.3607C17.9017 45.7512 17.4219 45.2705 16.8116 45.2705C16.2021 45.2705 15.7214 45.7512 15.7214 46.3607C15.7214 46.9719 16.2021 47.4509 16.8116 47.4509ZM8.09017 50.7214C8.7005 50.7214 9.18034 50.2424 9.18034 49.6312C9.18034 49.0217 8.7005 48.541 8.09017 48.541C7.48071 48.541 7 49.0217 7 49.6312C7 50.2424 7.48071 50.7214 8.09017 50.7214ZM12.4509 50.7214C13.0612 50.7214 13.541 50.2424 13.541 49.6312C13.541 49.0217 13.0612 48.541 12.4509 48.541C11.8414 48.541 11.3607 49.0217 11.3607 49.6312C11.3607 50.2424 11.8414 50.7214 12.4509 50.7214ZM16.8116 50.7214C17.4219 50.7214 17.9017 50.2424 17.9017 49.6312C17.9017 49.0217 17.4219 48.541 16.8116 48.541C16.2021 48.541 15.7214 49.0217 15.7214 49.6312C15.7214 50.2424 16.2021 50.7214 16.8116 50.7214ZM8.09017 53.9919C8.7005 53.9919 9.18034 53.5129 9.18034 52.9017C9.18034 52.2923 8.7005 51.8116 8.09017 51.8116C7.48071 51.8116 7 52.2923 7 52.9017C7 53.5129 7.48071 53.9919 8.09017 53.9919ZM14.6312 53.9919C15.2415 53.9919 15.7214 53.5129 15.7214 52.9017C15.7214 52.2923 15.2415 51.8116 14.6312 51.8116C14.0217 51.8116 13.541 52.2923 13.541 52.9017C13.541 53.5129 14.0217 53.9919 14.6312 53.9919ZM16.8116 53.9919C17.4219 53.9919 17.9017 53.5129 17.9017 52.9017C17.9017 52.2923 17.4219 51.8116 16.8116 51.8116C16.2021 51.8116 15.7214 52.2923 15.7214 52.9017C15.7214 53.5129 16.2021 53.9919 16.8116 53.9919ZM8.09017 57.2624C8.7005 57.2624 9.18034 56.7834 9.18034 56.1722C9.18034 55.5628 8.7005 55.0821 8.09017 55.0821C7.48071 55.0821 7 55.5628 7 56.1722C7 56.7834 7.48071 57.2624 8.09017 57.2624ZM16.8116 57.2624C17.4219 57.2624 17.9017 56.7834 17.9017 56.1722C17.9017 55.5628 17.4219 55.0821 16.8116 55.0821C16.2021 55.0821 15.7214 55.5628 15.7214 56.1722C15.7214 56.7834 16.2021 57.2624 16.8116 57.2624ZM23.344 44.1803C23.9552 44.1803 24.4342 43.7014 24.4342 43.0902C24.4342 42.4807 23.9552 42 23.344 42C22.7345 42 22.2538 42.4807 22.2538 43.0902C22.2538 43.7014 22.7345 44.1803 23.344 44.1803ZM25.5244 44.1803C26.1355 44.1803 26.6145 43.7014 26.6145 43.0902C26.6145 42.4807 26.1355 42 25.5244 42C24.9149 42 24.4342 42.4807 24.4342 43.0902C24.4342 43.7014 24.9149 44.1803 25.5244 44.1803ZM27.7047 44.1803C28.3159 44.1803 28.7949 43.7014 28.7949 43.0902C28.7949 42.4807 28.3159 42 27.7047 42C27.0952 42 26.6145 42.4807 26.6145 43.0902C26.6145 43.7014 27.0952 44.1803 27.7047 44.1803ZM21.1637 47.4509C21.7748 47.4509 22.2538 46.9719 22.2538 46.3607C22.2538 45.7512 21.7748 45.2705 21.1637 45.2705C20.5542 45.2705 20.0735 45.7512 20.0735 46.3607C20.0735 46.9719 20.5542 47.4509 21.1637 47.4509ZM29.885 47.4509C30.4962 47.4509 30.9752 46.9719 30.9752 46.3607C30.9752 45.7512 30.4962 45.2705 29.885 45.2705C29.2756 45.2705 28.7949 45.7512 28.7949 46.3607C28.7949 46.9719 29.2756 47.4509 29.885 47.4509ZM21.1637 50.7214C21.7748 50.7214 22.2538 50.2424 22.2538 49.6312C22.2538 49.0217 21.7748 48.541 21.1637 48.541C20.5542 48.541 20.0735 49.0217 20.0735 49.6312C20.0735 50.2424 20.5542 50.7214 21.1637 50.7214ZM29.885 50.7214C30.4962 50.7214 30.9752 50.2424 30.9752 49.6312C30.9752 49.0217 30.4962 48.541 29.885 48.541C29.2756 48.541 28.7949 49.0217 28.7949 49.6312C28.7949 50.2424 29.2756 50.7214 29.885 50.7214ZM21.1637 53.9919C21.7748 53.9919 22.2538 53.5129 22.2538 52.9017C22.2538 52.2923 21.7748 51.8116 21.1637 51.8116C20.5542 51.8116 20.0735 52.2923 20.0735 52.9017C20.0735 53.5129 20.5542 53.9919 21.1637 53.9919ZM29.885 53.9919C30.4962 53.9919 30.9752 53.5129 30.9752 52.9017C30.9752 52.2923 30.4962 51.8116 29.885 51.8116C29.2756 51.8116 28.7949 52.2923 28.7949 52.9017C28.7949 53.5129 29.2756 53.9919 29.885 53.9919ZM23.344 57.2624C23.9552 57.2624 24.4342 56.7834 24.4342 56.1722C24.4342 55.5628 23.9552 55.0821 23.344 55.0821C22.7345 55.0821 22.2538 55.5628 22.2538 56.1722C22.2538 56.7834 22.7345 57.2624 23.344 57.2624ZM25.5244 57.2624C26.1355 57.2624 26.6145 56.7834 26.6145 56.1722C26.6145 55.5628 26.1355 55.0821 25.5244 55.0821C24.9149 55.0821 24.4342 55.5628 24.4342 56.1722C24.4342 56.7834 24.9149 57.2624 25.5244 57.2624ZM27.7047 57.2624C28.3159 57.2624 28.7949 56.7834 28.7949 56.1722C28.7949 55.5628 28.3159 55.0821 27.7047 55.0821C27.0952 55.0821 26.6145 55.5628 26.6145 56.1722C26.6145 56.7834 27.0952 57.2624 27.7047 57.2624ZM34.2372 44.1803C34.8483 44.1803 35.3273 43.7014 35.3273 43.0902C35.3273 42.4807 34.8483 42 34.2372 42C33.6277 42 33.147 42.4807 33.147 43.0902C33.147 43.7014 33.6277 44.1803 34.2372 44.1803ZM36.4175 44.1803C37.0287 44.1803 37.5077 43.7014 37.5077 43.0902C37.5077 42.4807 37.0287 42 36.4175 42C35.808 42 35.3273 42.4807 35.3273 43.0902C35.3273 43.7014 35.808 44.1803 36.4175 44.1803ZM38.5978 44.1803C39.209 44.1803 39.688 43.7014 39.688 43.0902C39.688 42.4807 39.209 42 38.5978 42C37.9884 42 37.5077 42.4807 37.5077 43.0902C37.5077 43.7014 37.9884 44.1803 38.5978 44.1803ZM40.7782 44.1803C41.3894 44.1803 41.8684 43.7014 41.8684 43.0902C41.8684 42.4807 41.3894 42 40.7782 42C40.1687 42 39.688 42.4807 39.688 43.0902C39.688 43.7014 40.1687 44.1803 40.7782 44.1803ZM42.9585 44.1803C43.5697 44.1803 44.0487 43.7014 44.0487 43.0902C44.0487 42.4807 43.5697 42 42.9585 42C42.3491 42 41.8684 42.4807 41.8684 43.0902C41.8684 43.7014 42.3491 44.1803 42.9585 44.1803ZM38.5978 47.4509C39.209 47.4509 39.688 46.9719 39.688 46.3607C39.688 45.7512 39.209 45.2705 38.5978 45.2705C37.9884 45.2705 37.5077 45.7512 37.5077 46.3607C37.5077 46.9719 37.9884 47.4509 38.5978 47.4509ZM38.5978 50.7214C39.209 50.7214 39.688 50.2424 39.688 49.6312C39.688 49.0217 39.209 48.541 38.5978 48.541C37.9884 48.541 37.5077 49.0217 37.5077 49.6312C37.5077 50.2424 37.9884 50.7214 38.5978 50.7214ZM38.5978 53.9919C39.209 53.9919 39.688 53.5129 39.688 52.9017C39.688 52.2923 39.209 51.8116 38.5978 51.8116C37.9884 51.8116 37.5077 52.2923 37.5077 52.9017C37.5077 53.5129 37.9884 53.9919 38.5978 53.9919ZM38.5978 57.2624C39.209 57.2624 39.688 56.7834 39.688 56.1722C39.688 55.5628 39.209 55.0821 38.5978 55.0821C37.9884 55.0821 37.5077 55.5628 37.5077 56.1722C37.5077 56.7834 37.9884 57.2624 38.5978 57.2624ZM47.3106 44.1803C47.9218 44.1803 48.4008 43.7014 48.4008 43.0902C48.4008 42.4807 47.9218 42 47.3106 42C46.7012 42 46.2205 42.4807 46.2205 43.0902C46.2205 43.7014 46.7012 44.1803 47.3106 44.1803ZM56.032 44.1803C56.6432 44.1803 57.1222 43.7014 57.1222 43.0902C57.1222 42.4807 56.6432 42 56.032 42C55.4226 42 54.9419 42.4807 54.9419 43.0902C54.9419 43.7014 55.4226 44.1803 56.032 44.1803ZM47.3106 47.4509C47.9218 47.4509 48.4008 46.9719 48.4008 46.3607C48.4008 45.7512 47.9218 45.2705 47.3106 45.2705C46.7012 45.2705 46.2205 45.7512 46.2205 46.3607C46.2205 46.9719 46.7012 47.4509 47.3106 47.4509ZM56.032 47.4509C56.6432 47.4509 57.1222 46.9719 57.1222 46.3607C57.1222 45.7512 56.6432 45.2705 56.032 45.2705C55.4226 45.2705 54.9419 45.7512 54.9419 46.3607C54.9419 46.9719 55.4226 47.4509 56.032 47.4509ZM47.3106 50.7214C47.9218 50.7214 48.4008 50.2424 48.4008 49.6312C48.4008 49.0217 47.9218 48.541 47.3106 48.541C46.7012 48.541 46.2205 49.0217 46.2205 49.6312C46.2205 50.2424 46.7012 50.7214 47.3106 50.7214ZM49.491 50.7214C50.1022 50.7214 50.5812 50.2424 50.5812 49.6312C50.5812 49.0217 50.1022 48.541 49.491 48.541C48.8815 48.541 48.4008 49.0217 48.4008 49.6312C48.4008 50.2424 48.8815 50.7214 49.491 50.7214ZM51.6713 50.7214C52.2825 50.7214 52.7615 50.2424 52.7615 49.6312C52.7615 49.0217 52.2825 48.541 51.6713 48.541C51.0619 48.541 50.5812 49.0217 50.5812 49.6312C50.5812 50.2424 51.0619 50.7214 51.6713 50.7214ZM53.8517 50.7214C54.4629 50.7214 54.9419 50.2424 54.9419 49.6312C54.9419 49.0217 54.4629 48.541 53.8517 48.541C53.2422 48.541 52.7615 49.0217 52.7615 49.6312C52.7615 50.2424 53.2422 50.7214 53.8517 50.7214ZM56.032 50.7214C56.6432 50.7214 57.1222 50.2424 57.1222 49.6312C57.1222 49.0217 56.6432 48.541 56.032 48.541C55.4226 48.541 54.9419 49.0217 54.9419 49.6312C54.9419 50.2424 55.4226 50.7214 56.032 50.7214ZM47.3106 53.9919C47.9218 53.9919 48.4008 53.5129 48.4008 52.9017C48.4008 52.2923 47.9218 51.8116 47.3106 51.8116C46.7012 51.8116 46.2205 52.2923 46.2205 52.9017C46.2205 53.5129 46.7012 53.9919 47.3106 53.9919ZM56.032 53.9919C56.6432 53.9919 57.1222 53.5129 57.1222 52.9017C57.1222 52.2923 56.6432 51.8116 56.032 51.8116C55.4226 51.8116 54.9419 52.2923 54.9419 52.9017C54.9419 53.5129 55.4226 53.9919 56.032 53.9919ZM47.3106 57.2624C47.9218 57.2624 48.4008 56.7834 48.4008 56.1722C48.4008 55.5628 47.9218 55.0821 47.3106 55.0821C46.7012 55.0821 46.2205 55.5628 46.2205 56.1722C46.2205 56.7834 46.7012 57.2624 47.3106 57.2624ZM56.032 57.2624C56.6432 57.2624 57.1222 56.7834 57.1222 56.1722C57.1222 55.5628 56.6432 55.0821 56.032 55.0821C55.4226 55.0821 54.9419 55.5628 54.9419 56.1722C54.9419 56.7834 55.4226 57.2624 56.032 57.2624ZM60.385 44.1803C60.9945 44.1803 61.4752 43.7014 61.4752 43.0902C61.4752 42.4807 60.9945 42 60.385 42C59.7738 42 59.2948 42.4807 59.2948 43.0902C59.2948 43.7014 59.7738 44.1803 60.385 44.1803ZM62.5653 44.1803C63.1748 44.1803 63.6555 43.7014 63.6555 43.0902C63.6555 42.4807 63.1748 42 62.5653 42C61.9542 42 61.4752 42.4807 61.4752 43.0902C61.4752 43.7014 61.9542 44.1803 62.5653 44.1803ZM64.7457 44.1803C65.3551 44.1803 65.8359 43.7014 65.8359 43.0902C65.8359 42.4807 65.3551 42 64.7457 42C64.1345 42 63.6555 42.4807 63.6555 43.0902C63.6555 43.7014 64.1345 44.1803 64.7457 44.1803ZM62.5653 47.4509C63.1748 47.4509 63.6555 46.9719 63.6555 46.3607C63.6555 45.7512 63.1748 45.2705 62.5653 45.2705C61.9542 45.2705 61.4752 45.7512 61.4752 46.3607C61.4752 46.9719 61.9542 47.4509 62.5653 47.4509ZM62.5653 50.7214C63.1748 50.7214 63.6555 50.2424 63.6555 49.6312C63.6555 49.0217 63.1748 48.541 62.5653 48.541C61.9542 48.541 61.4752 49.0217 61.4752 49.6312C61.4752 50.2424 61.9542 50.7214 62.5653 50.7214ZM62.5653 53.9919C63.1748 53.9919 63.6555 53.5129 63.6555 52.9017C63.6555 52.2923 63.1748 51.8116 62.5653 51.8116C61.9542 51.8116 61.4752 52.2923 61.4752 52.9017C61.4752 53.5129 61.9542 53.9919 62.5653 53.9919ZM60.385 57.2624C60.9945 57.2624 61.4752 56.7834 61.4752 56.1722C61.4752 55.5628 60.9945 55.0821 60.385 55.0821C59.7738 55.0821 59.2948 55.5628 59.2948 56.1722C59.2948 56.7834 59.7738 57.2624 60.385 57.2624ZM62.5653 57.2624C63.1748 57.2624 63.6555 56.7834 63.6555 56.1722C63.6555 55.5628 63.1748 55.0821 62.5653 55.0821C61.9542 55.0821 61.4752 55.5628 61.4752 56.1722C61.4752 56.7834 61.9542 57.2624 62.5653 57.2624ZM64.7457 57.2624C65.3551 57.2624 65.8359 56.7834 65.8359 56.1722C65.8359 55.5628 65.3551 55.0821 64.7457 55.0821C64.1345 55.0821 63.6555 55.5628 63.6555 56.1722C63.6555 56.7834 64.1345 57.2624 64.7457 57.2624ZM69.1141 44.1803C69.7253 44.1803 70.2043 43.7014 70.2043 43.0902C70.2043 42.4807 69.7253 42 69.1141 42C68.5046 42 68.0239 42.4807 68.0239 43.0902C68.0239 43.7014 68.5046 44.1803 69.1141 44.1803ZM77.8355 44.1803C78.4467 44.1803 78.9257 43.7014 78.9257 43.0902C78.9257 42.4807 78.4467 42 77.8355 42C77.226 42 76.7453 42.4807 76.7453 43.0902C76.7453 43.7014 77.226 44.1803 77.8355 44.1803ZM69.1141 47.4509C69.7253 47.4509 70.2043 46.9719 70.2043 46.3607C70.2043 45.7512 69.7253 45.2705 69.1141 45.2705C68.5046 45.2705 68.0239 45.7512 68.0239 46.3607C68.0239 46.9719 68.5046 47.4509 69.1141 47.4509ZM71.2944 47.4509C71.9056 47.4509 72.3846 46.9719 72.3846 46.3607C72.3846 45.7512 71.9056 45.2705 71.2944 45.2705C70.685 45.2705 70.2043 45.7512 70.2043 46.3607C70.2043 46.9719 70.685 47.4509 71.2944 47.4509ZM77.8355 47.4509C78.4467 47.4509 78.9257 46.9719 78.9257 46.3607C78.9257 45.7512 78.4467 45.2705 77.8355 45.2705C77.226 45.2705 76.7453 45.7512 76.7453 46.3607C76.7453 46.9719 77.226 47.4509 77.8355 47.4509ZM69.1141 50.7214C69.7253 50.7214 70.2043 50.2424 70.2043 49.6312C70.2043 49.0217 69.7253 48.541 69.1141 48.541C68.5046 48.541 68.0239 49.0217 68.0239 49.6312C68.0239 50.2424 68.5046 50.7214 69.1141 50.7214ZM73.4748 50.7214C74.086 50.7214 74.565 50.2424 74.565 49.6312C74.565 49.0217 74.086 48.541 73.4748 48.541C72.8653 48.541 72.3846 49.0217 72.3846 49.6312C72.3846 50.2424 72.8653 50.7214 73.4748 50.7214ZM77.8355 50.7214C78.4467 50.7214 78.9257 50.2424 78.9257 49.6312C78.9257 49.0217 78.4467 48.541 77.8355 48.541C77.226 48.541 76.7453 49.0217 76.7453 49.6312C76.7453 50.2424 77.226 50.7214 77.8355 50.7214ZM69.1141 53.9919C69.7253 53.9919 70.2043 53.5129 70.2043 52.9017C70.2043 52.2923 69.7253 51.8116 69.1141 51.8116C68.5046 51.8116 68.0239 52.2923 68.0239 52.9017C68.0239 53.5129 68.5046 53.9919 69.1141 53.9919ZM75.6551 53.9919C76.2663 53.9919 76.7453 53.5129 76.7453 52.9017C76.7453 52.2923 76.2663 51.8116 75.6551 51.8116C75.0457 51.8116 74.565 52.2923 74.565 52.9017C74.565 53.5129 75.0457 53.9919 75.6551 53.9919ZM77.8355 53.9919C78.4467 53.9919 78.9257 53.5129 78.9257 52.9017C78.9257 52.2923 78.4467 51.8116 77.8355 51.8116C77.226 51.8116 76.7453 52.2923 76.7453 52.9017C76.7453 53.5129 77.226 53.9919 77.8355 53.9919ZM69.1141 57.2624C69.7253 57.2624 70.2043 56.7834 70.2043 56.1722C70.2043 55.5628 69.7253 55.0821 69.1141 55.0821C68.5046 55.0821 68.0239 55.5628 68.0239 56.1722C68.0239 56.7834 68.5046 57.2624 69.1141 57.2624ZM77.8355 57.2624C78.4467 57.2624 78.9257 56.7834 78.9257 56.1722C78.9257 55.5628 78.4467 55.0821 77.8355 55.0821C77.226 55.0821 76.7453 55.5628 76.7453 56.1722C76.7453 56.7834 77.226 57.2624 77.8355 57.2624ZM84.3688 44.1803C84.9783 44.1803 85.459 43.7014 85.459 43.0902C85.459 42.4807 84.9783 42 84.3688 42C83.7576 42 83.2786 42.4807 83.2786 43.0902C83.2786 43.7014 83.7576 44.1803 84.3688 44.1803ZM86.5491 44.1803C87.1586 44.1803 87.6393 43.7014 87.6393 43.0902C87.6393 42.4807 87.1586 42 86.5491 42C85.938 42 85.459 42.4807 85.459 43.0902C85.459 43.7014 85.938 44.1803 86.5491 44.1803ZM88.7295 44.1803C89.339 44.1803 89.8196 43.7014 89.8196 43.0902C89.8196 42.4807 89.339 42 88.7295 42C88.1183 42 87.6393 42.4807 87.6393 43.0902C87.6393 43.7014 88.1183 44.1803 88.7295 44.1803ZM90.9098 44.1803C91.5193 44.1803 92 43.7014 92 43.0902C92 42.4807 91.5193 42 90.9098 42C90.2986 42 89.8196 42.4807 89.8196 43.0902C89.8196 43.7014 90.2986 44.1803 90.9098 44.1803ZM82.1884 47.4509C82.7979 47.4509 83.2786 46.9719 83.2786 46.3607C83.2786 45.7512 82.7979 45.2705 82.1884 45.2705C81.5773 45.2705 81.0983 45.7512 81.0983 46.3607C81.0983 46.9719 81.5773 47.4509 82.1884 47.4509ZM82.1884 50.7214C82.7979 50.7214 83.2786 50.2424 83.2786 49.6312C83.2786 49.0217 82.7979 48.541 82.1884 48.541C81.5773 48.541 81.0983 49.0217 81.0983 49.6312C81.0983 50.2424 81.5773 50.7214 82.1884 50.7214ZM86.5491 50.7214C87.1586 50.7214 87.6393 50.2424 87.6393 49.6312C87.6393 49.0217 87.1586 48.541 86.5491 48.541C85.938 48.541 85.459 49.0217 85.459 49.6312C85.459 50.2424 85.938 50.7214 86.5491 50.7214ZM88.7295 50.7214C89.339 50.7214 89.8196 50.2424 89.8196 49.6312C89.8196 49.0217 89.339 48.541 88.7295 48.541C88.1183 48.541 87.6393 49.0217 87.6393 49.6312C87.6393 50.2424 88.1183 50.7214 88.7295 50.7214ZM90.9098 50.7214C91.5193 50.7214 92 50.2424 92 49.6312C92 49.0217 91.5193 48.541 90.9098 48.541C90.2986 48.541 89.8196 49.0217 89.8196 49.6312C89.8196 50.2424 90.2986 50.7214 90.9098 50.7214ZM82.1884 53.9919C82.7979 53.9919 83.2786 53.5129 83.2786 52.9017C83.2786 52.2923 82.7979 51.8116 82.1884 51.8116C81.5773 51.8116 81.0983 52.2923 81.0983 52.9017C81.0983 53.5129 81.5773 53.9919 82.1884 53.9919ZM90.9098 53.9919C91.5193 53.9919 92 53.5129 92 52.9017C92 52.2923 91.5193 51.8116 90.9098 51.8116C90.2986 51.8116 89.8196 52.2923 89.8196 52.9017C89.8196 53.5129 90.2986 53.9919 90.9098 53.9919ZM84.3688 57.2624C84.9783 57.2624 85.459 56.7834 85.459 56.1722C85.459 55.5628 84.9783 55.0821 84.3688 55.0821C83.7576 55.0821 83.2786 55.5628 83.2786 56.1722C83.2786 56.7834 83.7576 57.2624 84.3688 57.2624ZM86.5491 57.2624C87.1586 57.2624 87.6393 56.7834 87.6393 56.1722C87.6393 55.5628 87.1586 55.0821 86.5491 55.0821C85.938 55.0821 85.459 55.5628 85.459 56.1722C85.459 56.7834 85.938 57.2624 86.5491 57.2624ZM88.7295 57.2624C89.339 57.2624 89.8196 56.7834 89.8196 56.1722C89.8196 55.5628 89.339 55.0821 88.7295 55.0821C88.1183 55.0821 87.6393 55.5628 87.6393 56.1722C87.6393 56.7834 88.1183 57.2624 88.7295 57.2624Z" fill="white"/>
</svg>
