<svg width="100" height="100" viewBox="0 0 100 100" fill="none" xmlns="http://www.w3.org/2000/svg">
<rect width="100" height="100" rx="24" fill="white"/>
<path fill-rule="evenodd" clip-rule="evenodd" d="M60.1475 8.19274L13.1144 11.6667C9.32005 11.9948 8 14.4742 8 17.4458V69.0068C8 71.3214 8.82195 73.3019 10.805 75.9488L21.8609 90.3248C23.6774 92.6394 25.3289 93.1358 28.7969 92.9709L83.4154 89.6644C88.0334 89.3354 89.3569 87.1849 89.3569 83.5503V25.5438C89.3569 23.6653 88.6149 23.1238 86.4304 21.5207L71.0419 10.6713C67.4099 8.03039 65.9249 7.69634 60.1475 8.19189V8.19274ZM30.032 24.5943C25.572 24.8944 24.5605 24.9624 22.0275 22.9028L15.5879 17.7807C14.9334 17.1177 15.2624 16.2907 16.9114 16.1258L62.1254 12.8218C65.9224 12.4903 67.8995 13.8138 69.3844 14.9698L77.139 20.5883C77.4705 20.7557 78.295 21.7443 77.303 21.7443L30.61 24.5552L30.032 24.5943ZM24.8325 83.0548V33.8117C24.8325 31.6612 25.493 30.6693 27.4701 30.5027L81.1 27.3628C82.919 27.1987 83.741 28.3547 83.741 30.5018V79.4168C83.741 81.5673 83.4094 83.3863 80.4404 83.5503L29.1199 86.5253C26.1509 86.6894 24.8334 85.7008 24.8334 83.0548H24.8325ZM75.4925 36.4518C75.8215 37.9393 75.4925 39.4268 74.0051 39.5968L71.5315 40.0873V76.4443C69.3836 77.6003 67.4065 78.2608 65.7541 78.2608C63.1131 78.2608 62.4535 77.4337 60.4756 74.9568L44.3001 49.5078V74.1298L49.4171 75.2883C49.4171 75.2883 49.4171 78.2633 45.2886 78.2633L33.9071 78.9238C33.5756 78.2608 33.9071 76.6092 35.0606 76.2803L38.033 75.4558V42.9008L33.908 42.5667C33.5765 41.0792 34.401 38.9313 36.713 38.7647L48.9249 37.9427L65.7549 63.7207V40.9152L61.465 40.4222C61.1335 38.6006 62.4535 37.2772 64.1025 37.1157L75.4925 36.4518Z" fill="black"/>
</svg>
