<svg width="100" height="100" viewBox="0 0 100 100" fill="none" xmlns="http://www.w3.org/2000/svg">
<rect width="100" height="100" rx="24" fill="#0B5ED7"/>
<path d="M35.8351 42.3126H31.2684V48.259H26.5146V42.3126H21.948V57.2733H26.5146V51.3885H31.2684V57.2733H35.8351V42.3126ZM51.7206 54.2671V42.3126H47.1539V57.2733H55.4114L56.0981 54.2671H51.7206ZM43.7778 42.3126H39.2112V57.2733H43.7778V42.3126ZM62.2911 42.3126H57.7266V57.2733H62.2911V42.3126ZM84.8056 46.1309C84.8056 45.3166 85.6199 44.9403 86.9316 44.9403C88.3709 44.9403 89.9357 45.255 90.9987 45.695L90.6245 42.438C89.4339 42.1871 88.3709 42 86.4341 42C82.7434 42 80.241 43.4564 80.241 46.5072C80.241 51.7648 87.3738 50.7018 87.3738 53.1425C87.3738 54.08 86.6829 54.5796 84.9948 54.5796C83.496 54.5796 81.1786 54.08 79.8031 53.3912L80.3048 56.8353C81.6804 57.3371 83.5555 57.5858 85.0586 57.5858C88.8727 57.5858 92 56.3336 92 52.5769C92 47.5723 84.8056 48.5099 84.8056 46.1309ZM71.9241 53.7058C76.174 53.7058 78.8655 51.5139 78.8655 47.6956C78.8655 43.5031 75.989 42 71.2969 42C69.4834 42 67.2936 42.1255 65.731 42.3126V57.2733H70.2977V53.7058H71.9241ZM74.3626 47.7594C74.3626 49.6983 73.4251 51.0143 71.0461 51.0143H70.2977V44.8319C70.5635 44.817 70.8122 44.817 71.0461 44.817C73.2975 44.817 74.3626 45.88 74.3626 47.7594ZM13.1931 53.7058C17.4451 53.7058 20.1345 51.5139 20.1345 47.6956C20.1345 43.5031 17.258 42 12.568 42C10.7524 42 8.56474 42.1255 7 42.3126V57.2733H11.5667V53.7058H13.1931ZM15.6337 47.7594C15.6337 49.6983 14.694 51.0143 12.3172 51.0143H11.5667V44.8319C11.8324 44.817 12.0833 44.817 12.3172 44.817C14.5686 44.817 15.6337 45.88 15.6337 47.7594Z" fill="white"/>
</svg>
