<svg width="100" height="100" viewBox="0 0 100 100" fill="none" xmlns="http://www.w3.org/2000/svg">
<rect width="100" height="100" rx="24" fill="#FFD403"/>
<path fill-rule="evenodd" clip-rule="evenodd" d="M82.0338 62.3938C78.7671 62.3938 72.0675 61.5684 72.0675 49.6988C72.0675 37.8274 78.7671 37.0019 82.0338 37.0019C85.3005 37.0019 92 37.8274 92 49.6988C92 61.5684 85.3005 62.3938 82.0338 62.3938ZM82.0338 40.9244C78.2984 40.9244 77.7789 44.377 77.7789 49.6991C77.7789 54.9349 78.2982 58.4745 82.0338 58.4745C85.7688 58.4745 86.2921 54.9157 86.2921 49.6991C86.2921 44.5309 85.7688 40.9244 82.0338 40.9244ZM68.5063 41.8231C68.4174 42.0596 68.1658 42.1845 67.9213 42.1168C67.2202 41.9222 65.7594 41.5733 64.2406 41.5733C59.6063 41.5733 58.0483 45.085 58.0483 49.7007C58.0483 54.3185 59.6063 57.8717 64.2406 57.8717C65.7594 57.8717 67.2242 57.5271 67.9213 57.3292C68.1658 57.2616 68.4174 57.3876 68.5063 57.62L69.5603 60.2863C69.6537 60.5224 69.5491 60.7861 69.3241 60.8963C68.3903 61.3516 65.9219 62.3978 62.8527 62.3978C54.572 62.3978 52.3633 56.1536 52.3633 49.7009C52.3633 43.2493 54.572 37.0062 62.8527 37.0062C65.9256 37.0062 68.394 38.0524 69.3241 38.5085C69.5526 38.619 69.6535 38.8834 69.564 39.1169L68.5063 41.8231ZM38.8494 62.3938C35.583 62.3938 28.8832 61.5684 28.8832 49.6988C28.8832 37.8274 35.583 37.0019 38.8494 37.0019C42.1177 37.0019 48.8154 37.8274 48.8154 49.6988C48.8154 61.5684 42.1177 62.3938 38.8494 62.3938ZM38.8494 40.9244C35.116 40.9244 34.5949 44.377 34.5949 49.6991C34.5949 54.9349 35.1162 58.4745 38.8494 58.4745C42.5826 58.4745 43.1077 54.9154 43.1077 49.6988C43.1077 44.5309 42.5826 40.9244 38.8494 40.9244ZM17.1327 53.2454C14.9822 53.2454 13.8391 53.2185 13.2306 53.1913C12.9209 53.1775 12.6651 53.4198 12.6651 53.7262L12.6632 61.7124C12.6632 62.0802 12.361 62.3827 11.985 62.3827H7.67608C7.30223 62.3827 7 62.0802 7 61.7124V37.8857C7 37.5621 7.25962 37.2956 7.58901 37.2842C7.58901 37.2842 13.1939 37.0815 17.1327 37.0022C22.2862 36.8996 25.3766 40.4489 25.3766 45.125C25.3766 49.7987 22.2862 53.2454 17.1327 53.2454ZM15.637 41.1444C14.3679 41.1444 13.6162 41.1588 13.1902 41.1723C12.8956 41.1801 12.6651 41.4184 12.6651 41.7081V48.5405C12.6651 48.8299 12.8956 49.0683 13.1902 49.0781C13.6162 49.0906 14.3679 49.1063 15.637 49.1063C18.7407 49.1063 20.4744 47.845 20.4744 45.125C20.4744 42.4049 18.741 41.1444 15.637 41.1444Z" fill="black"/>
</svg>
