<svg width="100" height="100" viewBox="0 0 100 100" fill="none" xmlns="http://www.w3.org/2000/svg">
<rect width="100" height="100" rx="24" fill="white"/>
<path d="M70.5577 60.2709L73.0132 54.0614H80.1033L76.7385 44.642L80.9467 34L93 66.0027H84.1111L82.0515 60.2709H70.5577Z" fill="#3D3D3D"/>
<path d="M62.9744 66.0028L75.8776 34.0001L67.3232 34.0001L58.4966 54.681L52.22 34.0001H45.6447L38.9053 54.681L34.1525 45.2571L29.8514 58.508L34.2183 66.0028H42.6369L48.727 47.4565L54.5336 66.0028H62.9744Z" fill="#5A0FC8"/>
<path d="M16.1201 55.0167H21.3892C22.9853 55.0167 24.4066 54.8386 25.653 54.4823L27.0157 50.2842L30.8241 38.5511C30.5339 38.0912 30.2026 37.6563 29.8302 37.2466C27.8748 35.0822 25.0139 34 21.2474 34H8V66.0027H16.1201V55.0167ZM23.0946 41.3625C23.8583 42.1312 24.2402 43.1599 24.2402 44.4486C24.2402 45.7472 23.9043 46.7772 23.2326 47.5384C22.4963 48.3843 21.1404 48.8072 19.1651 48.8072H16.1201V40.2094H19.1875C21.0285 40.2094 22.3308 40.5938 23.0946 41.3625Z" fill="#3D3D3D"/>
</svg>
