<svg width="100" height="100" viewBox="0 0 100 100" fill="none" xmlns="http://www.w3.org/2000/svg">
<rect width="100" height="100" rx="24" fill="#FFC915"/>
<path d="M40.0636 44.1092C41.737 44.1092 43.351 44.6759 44.5734 45.6787V44.3377H46.8668V58.9321H44.5734V57.597C43.3718 58.5938 41.7578 59.1576 40.0636 59.1576C37.9868 59.1576 36.0968 58.3891 34.7439 56.9947C33.4028 55.618 32.667 53.7192 32.667 51.6453C32.667 49.5684 33.4058 47.6636 34.7439 46.281C36.0998 44.8806 37.9897 44.1092 40.0636 44.1092ZM24.1875 44.0558C26.0656 44.0558 27.7686 44.7412 28.988 45.9903C30.2846 47.3195 30.9759 49.1857 30.9907 51.3931V52.1437H19.1793C19.3217 54.8852 21.4134 56.9205 24.1341 56.9205C26.0864 56.9205 27.4838 56.0868 28.5341 54.2977L28.6617 54.0811L30.6495 55.3599L30.5338 55.5587C29.1868 57.8758 26.9735 59.1012 24.1311 59.1012C19.8439 59.1012 16.8503 56.0126 16.8503 51.5919C16.8503 47.2245 19.9359 44.0558 24.1875 44.0558ZM85.1968 44.0558C87.0749 44.0558 88.7779 44.7412 89.9973 45.9903C91.2939 47.3195 91.9852 49.1857 92 51.3931V52.1437H80.1886C80.331 54.8852 82.4227 56.9205 85.1434 56.9205C87.0956 56.9205 88.4931 56.0868 89.5434 54.2977L89.6709 54.0811L91.6588 55.3599L91.5431 55.5587C90.1961 57.8758 87.9827 59.1012 85.1404 59.1012C80.8532 59.1012 77.8595 56.0126 77.8566 51.5919C77.8566 47.2245 80.9452 44.0558 85.1968 44.0558ZM15.9661 44.308V46.4887H9.32015V58.9291H7V44.308H15.9661ZM70.4926 44.1092C73.8156 44.1092 75.8806 46.3908 75.8806 50.0639V58.9024H73.5604V50.0639C73.5604 47.7704 72.2461 46.2899 70.2108 46.2899C67.5939 46.2899 66.6623 48.0938 66.6623 49.782V58.9054H64.3421V50.0668C64.3421 47.7378 63.0693 46.2929 61.0192 46.2929C59.331 46.2929 57.5271 47.6043 57.5271 49.5565V58.8965H55.2069V44.305H57.5271V45.7203C58.4854 44.6759 59.8502 44.1092 61.4434 44.1092C63.8022 44.1092 65.0928 45.3019 65.787 46.4323C66.8433 44.9518 68.5344 44.1092 70.4926 44.1092ZM52.1955 40V58.9024H49.8753V40H52.1955ZM39.9479 46.4323C37.1204 46.4323 34.9872 48.6753 34.9872 51.6482C34.9872 54.6063 37.1204 56.8344 39.9479 56.8374C42.8822 56.8374 44.8523 54.7517 44.8523 51.6482C44.8523 48.53 42.8822 46.4323 39.9479 46.4323ZM24.1341 46.2336C21.7962 46.2336 19.8439 47.7882 19.2861 50.049H28.632C28.2226 47.7556 26.4483 46.2336 24.1341 46.2336ZM85.1404 46.2336C82.8025 46.2336 80.8502 47.7882 80.2924 50.049H89.6383C89.2289 47.7556 87.4546 46.2336 85.1404 46.2336Z" fill="#111111"/>
</svg>
