<svg width="100" height="100" viewBox="0 0 100 100" fill="none" xmlns="http://www.w3.org/2000/svg">
<rect width="100" height="100" rx="24" fill="black"/>
<path d="M17.5712 39C11.7059 39 7 43.7613 7 49.6266C7 55.5217 11.7059 60.2575 17.5712 60.2575C23.4663 60.2575 28.1722 55.5217 28.1722 49.6266C28.1722 43.7613 23.4663 39 17.5712 39ZM17.5712 56.4552C13.8031 56.4552 10.8278 53.3947 10.8278 49.6266C10.8278 45.8585 13.8031 42.798 17.5712 42.798C21.3393 42.798 24.3444 45.8585 24.3444 49.6266C24.3444 53.399 21.3393 56.4552 17.5712 56.4552Z" fill="white"/>
<path d="M38.9096 43.0537C36.7826 43.0537 35.0562 43.9872 33.948 45.4365V43.3905H30.15V59.9719H33.9778V50.8755C33.9778 47.9855 35.6786 46.37 37.861 46.37C40.3546 46.37 41.6036 47.9855 41.6036 50.5345V59.9719H45.4868V50.1381C45.4868 45.7178 42.9932 43.0537 38.9096 43.0537Z" fill="white"/>
<path d="M55.7724 43.0537C50.9258 43.0537 47.1577 46.8815 47.1577 51.7281C47.1577 56.5192 50.6999 60.3171 55.913 60.3171C59.5959 60.3171 62.2046 58.5013 63.6496 55.8372L60.5038 54.0256C59.711 55.7818 58.0401 56.9454 55.913 56.9454C53.1935 56.9454 51.3223 55.3598 50.8107 53.0324H64.3018V51.5874C64.3018 46.6812 60.7042 43.0537 55.7724 43.0537ZM51.0111 49.8269C51.6931 47.815 53.4748 46.4254 55.7724 46.4254C58.1509 46.4254 59.8559 47.6147 60.4186 49.8269H51.0111Z" fill="white"/>
<path d="M81.8423 53.058C81.8423 55.0998 80.2268 56.6855 78.2148 56.6855C76.1731 56.6855 74.6428 55.0998 74.6428 53.058V39.2814H70.7894V52.8278C70.7894 57.7042 73.9352 60.2532 78.2447 60.2532C82.52 60.2532 85.6957 57.7 85.6957 52.8278V39.2814H81.8423V53.058Z" fill="white"/>
<path d="M88.1637 39.2643H92V59.9719H88.1637V39.2643Z" fill="white"/>
</svg>
