<svg width="100" height="100" viewBox="0 0 100 100" fill="none" xmlns="http://www.w3.org/2000/svg">
<rect width="100" height="100" rx="24" fill="#3A76F0"/>
<path d="M39.3002 8.24054L40.2563 12.1052C36.4948 13.0304 32.8949 14.5192 29.5788 16.5212L27.5332 13.1084C31.1877 10.9018 35.1549 9.26067 39.3002 8.24054ZM59.6998 8.24054L58.7437 12.1052C62.5052 13.0304 66.1051 14.5192 69.4212 16.5212L71.48 13.1084C67.8214 10.9006 63.8497 9.2594 59.6998 8.24054ZM13.1095 27.5316C10.9029 31.1861 9.26176 35.1533 8.24164 39.2986L12.1068 40.2547C13.032 36.4932 14.5208 32.8933 16.5228 29.5772L13.1095 27.5316ZM10.9846 49.4984C10.9833 47.5667 11.1277 45.6378 11.4163 43.7278L7.47812 43.1299C6.84063 47.3516 6.84063 51.6451 7.47812 55.8668L11.4163 55.2689C11.1277 53.359 10.9833 51.43 10.9846 49.4984ZM71.4678 85.8883L69.4223 82.4755C66.11 84.4762 62.5145 85.9648 58.7574 86.891L59.7141 90.7557C63.8548 89.7345 67.8174 88.0935 71.4678 85.8883ZM88.016 49.4984C88.0172 51.43 87.8729 53.359 87.5842 55.2689L91.5219 55.8668C92.1594 51.6451 92.1594 47.3516 91.5219 43.1299L87.5842 43.7278C87.8729 45.6378 88.0172 47.5667 88.016 49.4984ZM90.7584 59.6981L86.8937 58.742C85.9685 62.5035 84.4797 66.1035 82.4777 69.4196L85.8905 71.4784C88.0983 67.8198 89.7395 63.848 90.7584 59.6981ZM55.2711 87.5884C51.4456 88.1639 47.5555 88.1639 43.73 87.5884L43.1321 91.5261C47.3538 92.1636 51.6473 92.1636 55.869 91.5261L55.2711 87.5884ZM80.5051 72.3483C78.208 75.4594 75.457 78.2083 72.3441 80.503L74.7082 83.7105C78.1422 81.1855 81.1776 78.1591 83.7127 74.7325L80.5051 72.3483ZM72.3441 18.4948C75.4575 20.7914 78.2085 23.5425 80.5051 26.6559L83.7127 24.2654C81.1857 20.8406 78.1593 17.8143 74.7346 15.2873L72.3441 18.4948ZM18.4959 26.6559C20.7925 23.5425 23.5436 20.7914 26.657 18.4948L24.2664 15.2873C20.8419 17.8143 17.8158 20.8407 15.2889 24.2654L18.4959 26.6559ZM85.8894 27.5326L82.4766 29.5777C84.4773 32.8899 85.9659 36.4855 86.8921 40.2425L90.7573 39.2864C89.7359 35.1457 88.0948 31.183 85.8894 27.5326ZM43.7289 11.4158C47.5544 10.8402 51.4445 10.8402 55.27 11.4158L55.8679 7.47808C51.6464 6.84064 47.3531 6.84064 43.1316 7.47808L43.7289 11.4158ZM20.5399 84.7672L12.3121 86.6868L14.2312 78.459L10.3528 77.549L8.43423 85.7767C8.2796 86.4368 8.29597 87.1255 8.48179 87.7775C8.66762 88.4295 9.01676 89.0233 9.49617 89.5027C9.97558 89.9821 10.5694 90.3313 11.2214 90.5171C11.8734 90.7029 12.5621 90.7193 13.2222 90.5647L21.4431 88.6789L20.5399 84.7672ZM11.183 73.997L15.0614 74.8997L16.3895 69.1958C14.4536 65.9421 13.0102 62.4196 12.1063 58.7431L8.24111 59.6992C9.10739 63.2204 10.4241 66.6151 12.1587 69.7995L11.183 73.997ZM29.7767 82.6295L24.0728 83.9576L24.9755 87.836L29.1724 86.8593C32.3568 88.594 35.7515 89.9109 39.2727 90.7774L40.2288 86.9127C36.5601 85.998 33.0469 84.5457 29.8031 82.6031L29.7767 82.6295ZM49.4989 14.9714C43.3292 14.9747 37.2731 16.6309 31.9604 19.7678C26.6477 22.9047 22.2724 27.4077 19.2897 32.8085C16.307 38.2093 14.8259 44.3107 15.0002 50.4779C15.1746 56.6451 16.9981 62.653 20.2811 67.8767L16.9604 82.0411L31.1249 78.7204C35.655 81.574 40.7867 83.3351 46.1144 83.8645C51.4422 84.394 56.8201 83.6773 61.8232 81.7711C66.8264 79.8649 71.3177 76.8214 74.9425 72.881C78.5673 68.9406 81.2261 64.2114 82.7089 59.0668C84.1918 53.9223 84.4581 48.5034 83.4867 43.2383C82.5153 37.9731 80.3329 33.006 77.1119 28.7292C73.8909 24.4525 69.7196 20.9834 64.9274 18.5959C60.1352 16.2083 54.8535 14.9679 49.4995 14.9725L49.4989 14.9714Z" fill="white"/>
</svg>
