<svg width="100" height="100" viewBox="0 0 100 100" fill="none" xmlns="http://www.w3.org/2000/svg">
<rect width="100" height="100" rx="24" fill="#FFFC00"/>
<path d="M83.7156 67.1423C83.4209 66.1669 82.0105 65.4793 82.0105 65.4793C81.8772 65.4091 81.7579 65.346 81.6596 65.2968C79.309 64.1601 77.225 62.7918 75.4707 61.2411C74.0603 59.9921 72.8534 58.6167 71.8851 57.1572C70.6992 55.3749 70.1449 53.8874 69.9063 53.0804C69.773 52.5542 69.7941 52.3436 69.9063 52.07C69.9976 51.8384 70.2712 51.6209 70.3975 51.5157C71.1904 50.9543 72.4675 50.1263 73.2534 49.6211C73.934 49.179 74.5164 48.8001 74.8603 48.5615C75.9619 47.7897 76.7197 47.0038 77.1618 46.1547C77.7372 45.0601 77.8074 43.8532 77.3583 42.6674C76.7548 41.0675 75.2602 40.1132 73.3586 40.1132C72.9376 40.1132 72.5026 40.1623 72.0675 40.2535C70.9799 40.4921 69.9484 40.878 69.0854 41.2149C69.0222 41.2429 68.952 41.1938 68.9591 41.1236C69.0503 38.9835 69.1555 36.1066 68.917 33.377C68.7064 30.907 68.1942 28.823 67.3662 27.0056C66.5312 25.1813 65.4436 23.834 64.5945 22.8587C63.7876 21.9324 62.3632 20.5641 60.216 19.3362C57.1987 17.61 53.7605 16.7329 49.9994 16.7329C46.2454 16.7329 42.8141 17.61 39.7898 19.3362C37.5164 20.6343 36.0639 22.1008 35.4043 22.8587C34.5552 23.834 33.4676 25.1813 32.6326 27.0056C31.7976 28.823 31.2924 30.9 31.0819 33.377C30.8433 36.1206 30.9415 38.766 31.0398 41.1236C31.0398 41.1938 30.9766 41.2429 30.9064 41.2149C30.0434 40.878 29.0119 40.4921 27.9243 40.2535C27.4962 40.1623 27.0612 40.1132 26.6331 40.1132C24.7386 40.1132 23.244 41.0675 22.6335 42.6674C22.1844 43.8532 22.2546 45.0601 22.83 46.1547C23.2791 47.0038 24.0299 47.7897 25.1315 48.5615C25.4683 48.8001 26.0578 49.179 26.7384 49.6211C27.5032 50.1193 28.7452 50.9262 29.5452 51.4806C29.6434 51.5507 29.9802 51.8033 30.0855 52.07C30.1977 52.3507 30.2188 52.5612 30.0714 53.1225C29.8258 53.9365 29.2715 55.41 28.1067 57.1572C27.1384 58.6238 25.9315 59.9921 24.5211 61.2411C22.7668 62.7918 20.6828 64.1601 18.3322 65.2968C18.2199 65.353 18.0866 65.4161 17.9462 65.5003C17.9462 65.5003 16.5429 66.216 16.2762 67.1423C15.8833 68.5106 16.9288 69.7947 17.9883 70.4823C19.7285 71.605 21.8476 72.2085 23.0756 72.5383C23.4194 72.6295 23.7282 72.7137 24.0088 72.7979C24.1843 72.854 24.6263 73.0224 24.8158 73.268C25.0543 73.5768 25.0824 73.9557 25.1666 74.3837C25.2999 75.1065 25.6017 75.9976 26.4928 76.6151C27.4752 77.2887 28.7172 77.3378 30.296 77.401C31.9449 77.4641 33.9939 77.5413 36.3445 78.3202C37.4321 78.678 38.4215 79.2885 39.5583 79.9902C41.944 81.4567 44.9122 83.2811 49.9784 83.2811C55.0516 83.2811 58.0408 81.4497 60.4405 79.9762C61.5773 79.2815 62.5526 78.6781 63.6192 78.3272C65.9699 77.5483 68.0188 77.4711 69.6678 77.408C71.2466 77.3448 72.4886 77.3027 73.4709 76.6221C74.4252 75.9625 74.6989 74.9801 74.8252 74.2434C74.8953 73.8785 74.9375 73.5487 75.148 73.2821C75.3304 73.0505 75.7374 72.8891 75.9268 72.826C76.2145 72.7347 76.5373 72.6505 76.8952 72.5523C78.1231 72.2225 79.6668 71.8366 81.5403 70.777C83.7998 69.4929 83.9542 67.9212 83.7156 67.1423Z" fill="white"/>
<path d="M85.6663 66.3845C85.1681 65.0233 84.2138 64.3005 83.1332 63.6971C82.9297 63.5778 82.7403 63.4795 82.5859 63.4094C82.2631 63.241 81.9333 63.0796 81.6035 62.9112C78.2284 61.1219 75.5901 58.8624 73.7657 56.189C73.1482 55.2838 72.7202 54.4699 72.4184 53.8033C72.2641 53.3542 72.2711 53.1016 72.3833 52.87C72.4675 52.6946 72.6921 52.5121 72.8184 52.4209C73.4008 52.035 73.9972 51.6491 74.4042 51.3894C75.127 50.9193 75.7023 50.5474 76.0672 50.2948C77.4566 49.3265 78.4249 48.295 79.0283 47.1442C79.8844 45.5233 79.9897 43.6709 79.3301 41.9307C78.4179 39.5169 76.1304 38.0152 73.3657 38.0152C72.7903 38.0152 72.2079 38.0784 71.6325 38.2047C71.4782 38.2398 71.3308 38.2749 71.1835 38.3099C71.2115 36.668 71.1694 34.9138 71.0221 33.2017C70.5028 27.1671 68.3907 24.0025 66.1874 21.4834C65.2682 20.4309 63.6684 18.8942 61.2686 17.5189C57.9215 15.5963 54.1324 14.6279 49.9995 14.6279C45.8805 14.6279 42.0914 15.5963 38.7444 17.5119C36.3305 18.8872 34.7307 20.4309 33.8185 21.4764C31.6152 23.9955 29.5031 27.1601 28.9839 33.1946C28.8365 34.9068 28.8014 36.661 28.8225 38.3029C28.6751 38.2678 28.5207 38.2328 28.3734 38.1977C27.798 38.0714 27.2086 38.0082 26.6402 38.0082C23.8756 38.0082 21.588 39.5098 20.6758 41.9237C20.0163 43.6638 20.1215 45.5163 20.9776 47.1372C21.581 48.288 22.5564 49.3195 23.9387 50.2878C24.3106 50.5474 24.879 50.9193 25.6017 51.3824C25.9947 51.635 26.563 52.0069 27.1244 52.3788C27.2086 52.435 27.5103 52.6595 27.6156 52.87C27.7348 53.1086 27.7348 53.3682 27.5594 53.8454C27.2647 54.4979 26.8367 55.2978 26.2332 56.182C24.4439 58.7993 21.8828 61.0166 18.6199 62.7849C16.8867 63.7041 15.0904 64.3146 14.3326 66.3775C13.7572 67.9353 14.1361 69.7106 15.5886 71.2052C16.0657 71.7174 16.6692 72.1735 17.427 72.5945C19.2093 73.5769 20.725 74.061 21.9178 74.3908C22.1283 74.454 22.6125 74.6083 22.823 74.7978C23.3563 75.2609 23.2791 75.9626 23.9878 76.9871C24.4159 77.6256 24.907 78.0607 25.314 78.3413C26.7946 79.3658 28.4646 79.429 30.2329 79.4991C31.8257 79.5623 33.6361 79.6324 35.699 80.3131C36.5551 80.5938 37.4462 81.1411 38.4707 81.7726C40.9406 83.2953 44.3298 85.3723 49.9924 85.3723C55.6621 85.3723 59.0653 83.2812 61.5563 81.7586C62.5807 81.1341 63.4649 80.5867 64.2929 80.3131C66.3558 79.6324 68.1662 79.5623 69.759 79.4991C71.5273 79.429 73.1903 79.3658 74.6779 78.3413C75.141 78.0186 75.7304 77.4923 76.1935 76.6924C76.6987 75.8293 76.6917 75.2188 77.1689 74.8048C77.3653 74.6364 77.7934 74.4891 78.0249 74.4189C79.2248 74.0891 80.7615 73.6049 82.5789 72.6015C83.3858 72.1594 84.0103 71.6753 84.5085 71.1209C84.5156 71.1139 84.5226 71.1069 84.5296 71.0999C85.8839 69.6264 86.2277 67.9072 85.6663 66.3845ZM80.6352 69.086C77.5618 70.7841 75.5199 70.6017 73.9341 71.6191C72.5868 72.4892 73.3797 74.3628 72.4044 75.0364C71.1975 75.8714 67.6399 74.9802 63.0439 76.4959C59.2547 77.7519 56.8339 81.3516 50.0065 81.3516C43.165 81.3516 40.8143 77.7659 36.9691 76.4959C32.373 74.9802 28.8084 75.8714 27.6085 75.0364C26.6332 74.3628 27.4261 72.4892 26.0789 71.6191C24.493 70.5947 22.4511 70.7771 19.3777 69.086C17.42 68.0054 18.5287 67.3388 19.1812 67.0231C30.31 61.6411 32.0783 53.3191 32.1625 52.6946C32.2607 51.9508 32.366 51.3614 31.545 50.5965C30.7521 49.8598 27.2226 47.6775 26.2473 46.9969C24.6264 45.8671 23.9177 44.7374 24.4439 43.3481C24.8088 42.3868 25.707 42.0289 26.6542 42.0289C26.949 42.0289 27.2507 42.064 27.5384 42.1271C29.3136 42.5131 31.0398 43.4042 32.0362 43.6428C32.1765 43.6779 32.2958 43.6919 32.4011 43.6919C32.9344 43.6919 33.1168 43.4253 33.0817 42.8148C32.9694 40.8711 32.6888 37.082 32.9975 33.5385C33.4185 28.6687 34.9903 26.2549 36.8568 24.1148C37.755 23.0903 41.9651 18.6416 50.0135 18.6416C58.0829 18.6416 62.272 23.0903 63.1702 24.1148C65.0367 26.2479 66.6084 28.6617 67.0295 33.5385C67.3382 37.082 67.0716 40.8711 66.9453 42.8148C66.9032 43.4533 67.0996 43.6919 67.6259 43.6919C67.7311 43.6919 67.8575 43.6779 67.9908 43.6428C68.9872 43.4042 70.7133 42.5131 72.4886 42.1271C72.7763 42.064 73.078 42.0289 73.3727 42.0289C74.32 42.0289 75.2182 42.3938 75.583 43.3481C76.1093 44.7374 75.3936 45.8671 73.7797 46.9969C72.8044 47.6775 69.2749 49.8598 68.482 50.5965C67.661 51.3544 67.7662 51.9438 67.8645 52.6946C67.9417 53.3191 69.7169 61.6411 80.8457 67.0231C81.4772 67.3388 82.5929 68.0054 80.6352 69.086Z" fill="black"/>
</svg>
