<svg width="100" height="100" viewBox="0 0 100 100" fill="none" xmlns="http://www.w3.org/2000/svg">
<g clip-path="url(#clip0_175_567)">
<rect width="100" height="100" rx="24" fill="white"/>
<path d="M70.3333 78.1667V58.8333H76.75V84.5833H18.8333V58.8333H25.25V78.1667H70.3333Z" fill="#BCBBBB"/>
<path d="M32.3334 57L63.8334 63.5834L65.1667 57.25L33.6667 50.6667L32.3334 57ZM36.5 42L65.6667 55.5834L68.3334 49.75L39.1667 36.0834L36.5 42ZM44.5834 27.6667L69.3334 48.25L73.4167 43.3334L48.6667 22.75L44.5834 27.6667ZM60.5834 12.4167L55.4167 16.25L74.5834 42.0834L79.75 38.25L60.5834 12.4167ZM31.6667 71.6667H63.8334V65.25H31.6667V71.6667Z" fill="#F48023"/>
</g>
<defs>
<clipPath id="clip0_175_567">
<rect width="100" height="100" rx="24" fill="white"/>
</clipPath>
</defs>
</svg>
