<svg width="100" height="100" viewBox="0 0 100 100" fill="none" xmlns="http://www.w3.org/2000/svg">
<rect width="100" height="100" rx="24" fill="#6D9A00"/>
<path d="M27.5298 49.4241C27.5025 48.7652 27.6123 48.1078 27.8521 47.4935C28.092 46.8792 28.4567 46.3214 28.9232 45.8553C29.3898 45.3893 29.948 45.0251 30.5625 44.7859C31.177 44.5467 31.8345 44.4376 32.4934 44.4656C33.4739 44.4666 34.432 44.7583 35.2468 45.3037C36.0615 45.8492 36.6963 46.6239 37.0708 47.5301C37.4453 48.4362 37.5428 49.433 37.3509 50.3945C37.159 51.356 36.6863 52.2391 35.9927 52.932C35.299 53.625 34.4155 54.0967 33.4538 54.2876C32.4921 54.4785 31.4954 54.38 30.5896 54.0046C29.6839 53.6291 28.9098 52.9936 28.3651 52.1783C27.8205 51.363 27.5298 50.4045 27.5298 49.4241Z" fill="white"/>
<path d="M44.6558 49.4241C44.6285 48.7652 44.7383 48.1078 44.9781 47.4935C45.2179 46.8792 45.5827 46.3214 46.0492 45.8553C46.5158 45.3893 47.0739 45.0251 47.6885 44.7859C48.303 44.5467 48.9605 44.4376 49.6194 44.4656C50.5998 44.4666 51.558 44.7583 52.3727 45.3037C53.1875 45.8492 53.8222 46.6239 54.1968 47.5301C54.5713 48.4362 54.6687 49.433 54.4768 50.3945C54.2849 51.356 53.8123 52.2391 53.1186 52.932C52.425 53.625 51.5415 54.0967 50.5798 54.2876C49.6181 54.4785 48.6213 54.38 47.7156 54.0046C46.8098 53.6291 46.0357 52.9936 45.4911 52.1783C44.9465 51.363 44.6558 50.4045 44.6558 49.4241Z" fill="white"/>
<path d="M61.7717 49.4241C61.7444 48.7652 61.8541 48.1078 62.0939 47.4935C62.3338 46.8792 62.6985 46.3214 63.1651 45.8553C63.6316 45.3893 64.1898 45.0251 64.8043 44.7859C65.4189 44.5467 66.0764 44.4376 66.7352 44.4656C67.7157 44.4666 68.6739 44.7583 69.4886 45.3037C70.3033 45.8492 70.9381 46.6239 71.3126 47.5301C71.6871 48.4362 71.7846 49.433 71.5927 50.3945C71.4008 51.356 70.9281 52.2391 70.2345 52.932C69.5408 53.625 68.6573 54.0967 67.6956 54.2876C66.7339 54.4785 65.7372 54.38 64.8314 54.0046C63.9257 53.6291 63.1516 52.9936 62.607 52.1783C62.0624 51.363 61.7717 50.4045 61.7717 49.4241Z" fill="white"/>
<path d="M7 54.032V45.1514C8.52075 45.1497 10.0315 44.9062 11.4758 44.43C12.4149 43.9075 13.1879 43.1311 13.7061 42.1896C14.39 40.9725 14.8285 39.6331 14.9965 38.2472C15.2278 36.1965 15.3211 34.1326 15.276 32.0694C15.1709 28.7211 15.3801 25.3703 15.9008 22.0611C16.2192 20.3569 17.0035 18.7743 18.1667 17.4887C19.2374 16.1746 20.6671 15.2002 22.2818 14.6843C24.4689 14.1543 26.7189 13.9303 28.9676 14.0188H30.8118V21.3193C29.1433 21.2155 27.4688 21.3714 25.8482 21.7816C25.1622 22.0502 24.5897 22.5473 24.2276 23.1889C23.8344 24.7507 23.6634 26.3601 23.7196 27.9696C23.7196 29.5242 23.6146 32.4725 23.4046 36.8145C23.3577 38.8247 23.0538 40.8205 22.5003 42.7535C22.0969 44.1019 21.4663 45.3716 20.6358 46.5079C19.6458 47.6974 18.4769 48.7258 17.1709 49.5561C18.4615 50.3241 19.6012 51.3209 20.5342 52.4977C21.4518 53.714 22.131 55.0931 22.5358 56.562C23.0737 58.6677 23.377 60.8265 23.4401 62.9989C23.6027 67.0936 23.684 69.7083 23.684 70.843C23.6236 72.4407 23.8121 74.0381 24.2428 75.5779C24.633 76.2363 25.2268 76.7499 25.9346 77.041C27.5259 77.4808 29.1793 77.6525 30.827 77.5491V85.0985H28.9828C26.7553 85.1503 24.5352 84.8204 22.419 84.1231C20.8037 83.6384 19.3431 82.7399 18.1819 81.5169C17.0065 80.233 16.2052 78.6517 15.8653 76.9445C15.3904 74.1153 15.1913 71.2467 15.2709 68.379C15.3916 65.4193 15.2043 62.455 14.712 59.534C14.4016 57.9143 13.5915 56.4325 12.3954 55.297C10.7392 54.4088 8.87834 53.9725 7 54.032Z" fill="white"/>
<path d="M86.5894 55.3173C85.3933 56.4528 84.5831 57.9346 84.2727 59.5544C83.7805 62.4754 83.5932 65.4396 83.7139 68.3993C83.7888 71.2606 83.5863 74.1223 83.1093 76.9445C82.7694 78.6517 81.9681 80.2331 80.7927 81.5169C79.6377 82.754 78.1785 83.6667 76.5607 84.1638C74.4444 84.8611 72.2244 85.191 69.9968 85.1392H68.1526V77.605C69.8003 77.7084 71.4538 77.5367 73.0451 77.097C73.7528 76.8058 74.3467 76.2922 74.7368 75.6338C75.1676 74.094 75.3561 72.4966 75.2957 70.8989C75.2957 69.7643 75.377 67.1496 75.5395 63.0548C75.6064 60.8837 75.9131 58.7267 76.454 56.623C76.8589 55.1541 77.538 53.775 78.4557 52.5587C79.3887 51.3819 80.5284 50.3851 81.8189 49.6171C80.513 48.7868 79.3441 47.7584 78.3541 46.5689C77.5235 45.4326 76.893 44.1629 76.4896 42.8145C75.936 40.8815 75.6321 38.8856 75.5853 36.8755C75.3753 32.5335 75.2703 29.5852 75.2703 28.0306C75.3265 26.4211 75.1555 24.8117 74.7622 23.2499C74.4001 22.6083 73.8277 22.1112 73.1416 21.8426C71.521 21.4324 69.8465 21.2765 68.178 21.3803V14.029H70.0222C72.2709 13.9405 74.5209 14.1645 76.708 14.6945C78.3227 15.2104 79.7525 16.1848 80.8231 17.4989C81.9863 18.7845 82.7706 20.3671 83.089 22.0713C83.6097 25.3805 83.8189 28.7313 83.7139 32.0796C83.6687 34.1428 83.7621 36.2067 83.9933 38.2574C84.1614 39.6433 84.5998 40.9827 85.2837 42.1998C85.8019 43.1413 86.5749 43.9177 87.514 44.4402C88.961 44.9209 90.4753 45.1679 92 45.1718V54.032C90.1147 53.976 88.2481 54.4195 86.5894 55.3173Z" fill="white"/>
</svg>
