<svg width="100" height="100" viewBox="0 0 100 100" fill="none" xmlns="http://www.w3.org/2000/svg">
<rect width="100" height="100" rx="24" fill="#0064FE"/>
<path fill-rule="evenodd" clip-rule="evenodd" d="M69.6358 41H57.2581V58H61.7721V43.2884H66.8909C68.1121 43.2884 69.1165 44.287 69.1165 45.5139V58H73.6304V44.9889C73.6247 42.7976 71.8271 41 69.6358 41Z" fill="white"/>
<path fill-rule="evenodd" clip-rule="evenodd" d="M88.0111 41H79.6224C77.431 41 75.6334 42.7976 75.6334 44.9889V54.0111C75.6334 56.2024 77.431 58 79.6224 58H88.0111C90.2081 58 92 56.2024 92 54.0111V44.9889C92.0057 42.7976 90.2081 41 88.0111 41ZM85.2662 43.2884C86.4874 43.2884 87.4918 44.287 87.4918 45.5139V53.4918C87.4918 54.713 86.4931 55.7174 85.2662 55.7174H82.3729C81.1517 55.7174 80.1474 54.7187 80.1474 53.4918V45.5139C80.1474 44.2927 81.146 43.2884 82.3729 43.2884H85.2662Z" fill="white"/>
<path fill-rule="evenodd" clip-rule="evenodd" d="M29.3642 41H39.3051V43.2884H32.1091C30.8879 43.2884 29.8892 44.287 29.8892 45.5139V45.9476C29.8892 47.1688 30.8879 48.1732 32.1091 48.1732H39.3051V50.4616H29.8892V53.4918C29.8892 54.713 30.8879 55.7174 32.1091 55.7174H39.3051V58.0057H29.3642C27.1729 58.0057 25.3753 56.2081 25.3753 54.0168V44.9889C25.3753 42.7976 27.1729 41 29.3642 41Z" fill="white"/>
<path fill-rule="evenodd" clip-rule="evenodd" d="M45.3085 41H55.2494V43.2884H48.0534C46.8322 43.2884 45.8278 44.287 45.8278 45.5139V53.4918C45.8278 54.713 46.8265 55.7174 48.0534 55.7174H55.2494V58.0057H45.3085C43.1115 58.0057 41.3196 56.2081 41.3196 54.0168V44.9889C41.3196 42.7976 43.1115 41 45.3085 41Z" fill="white"/>
<path fill-rule="evenodd" clip-rule="evenodd" d="M23.3609 41H7V43.2884H12.9292V58H17.4431V45.5139C17.4431 44.2927 18.4418 43.2941 19.663 43.2884H23.3723V41H23.3609Z" fill="white"/>
</svg>
