<svg width="100" height="100" viewBox="0 0 100 100" fill="none" xmlns="http://www.w3.org/2000/svg">
<rect width="100" height="100" rx="24" fill="white"/>
<path d="M49.5 93C72.9721 93 92 73.9721 92 50.5C92 27.0279 72.9721 8 49.5 8C26.0279 8 7 27.0279 7 50.5C7 73.9721 26.0279 93 49.5 93Z" fill="url(#paint0_linear_175_522)"/>
<path fill-rule="evenodd" clip-rule="evenodd" d="M26.2379 50.0513C38.6275 44.6534 46.8892 41.0947 51.023 39.3753C62.8257 34.4662 65.2782 33.6134 66.8767 33.5853C67.2282 33.5791 68.0144 33.6662 68.5236 34.0794C68.9535 34.4283 69.0718 34.8996 69.1284 35.2303C69.185 35.5611 69.2555 36.3146 69.1995 36.9034C68.5599 43.6237 65.7924 59.932 64.3844 67.4588C63.7887 70.6436 62.6156 71.7115 61.48 71.816C59.0119 72.0431 57.1378 70.1849 54.7473 68.618C51.0068 66.166 48.8936 64.6396 45.2628 62.247C41.0667 59.4818 43.7868 57.962 46.1782 55.4783C46.804 54.8283 57.6783 44.9373 57.8888 44.04C57.9151 43.9278 57.9395 43.5095 57.691 43.2886C57.4425 43.0677 57.0757 43.1433 56.8111 43.2033C56.4359 43.2885 50.4603 47.2381 38.8843 55.0522C37.1882 56.2169 35.6518 56.7844 34.2754 56.7547C32.7579 56.7219 29.8389 55.8967 27.6689 55.1913C25.0073 54.3261 22.892 53.8687 23.0762 52.3994C23.1721 51.6341 24.226 50.8514 26.2379 50.0513Z" fill="white"/>
<defs>
<linearGradient id="paint0_linear_175_522" x1="4257" y1="8" x2="4257" y2="8444.96" gradientUnits="userSpaceOnUse">
<stop stop-color="#2AABEE"/>
<stop offset="1" stop-color="#229ED9"/>
</linearGradient>
</defs>
</svg>
