<svg width="100" height="100" viewBox="0 0 100 100" fill="none" xmlns="http://www.w3.org/2000/svg">
<rect width="100" height="100" rx="24" fill="#F2F2F2"/>
<path d="M67.7474 38.6832C73.2357 42.6045 79.9592 44.9116 87.2209 44.9116V30.9452C85.8466 30.9455 84.4758 30.8022 83.1313 30.5175V41.5111C75.8702 41.5111 69.1476 39.2039 63.6579 35.283V63.7844C63.6579 78.0423 52.0937 89.5998 37.8294 89.5998C32.507 89.5998 27.5601 87.9916 23.4507 85.2334C28.1409 90.0266 34.6818 93 41.9181 93C56.1832 93 67.748 81.4426 67.748 67.1841V38.6832H67.7474ZM72.7923 24.5928C69.9875 21.5301 68.1459 17.5721 67.7474 13.1963V11.4H63.872C64.8475 16.9615 68.1748 21.713 72.7923 24.5928ZM32.4729 74.2923C30.9058 72.2386 30.059 69.7264 30.0628 67.1433C30.0628 60.6222 35.3521 55.3349 41.8778 55.3349C43.094 55.3346 44.3028 55.5207 45.4618 55.8883V41.6097C44.1074 41.4242 42.7404 41.3454 41.374 41.3743V52.4881C40.2142 52.1205 39.0047 51.9338 37.7883 51.935C31.2626 51.935 25.9735 57.2217 25.9735 63.7436C25.9735 68.355 28.6173 72.3475 32.4729 74.2923Z" fill="#FF004F"/>
<path d="M63.6578 35.2827C69.1476 39.2036 75.8701 41.5108 83.1312 41.5108V30.5172C79.0781 29.6543 75.49 27.5374 72.7923 24.5928C68.1744 21.7127 64.8474 16.9612 63.8719 11.4H53.6922V67.1835C53.6692 73.6867 48.3888 78.9525 41.8772 78.9525C38.0399 78.9525 34.6309 77.1243 32.472 74.2923C28.6167 72.3475 25.9728 68.3547 25.9728 63.7439C25.9728 57.2226 31.2619 51.9353 37.7876 51.9353C39.0379 51.9353 40.243 52.1298 41.3734 52.4884V41.3746C27.3597 41.664 16.0892 53.1085 16.0892 67.1838C16.0892 74.2101 18.8958 80.5797 23.451 85.2337C27.5604 87.9916 32.5073 89.6001 37.8296 89.6001C52.0942 89.6001 63.6581 78.042 63.6581 63.7844V35.2827H63.6578Z" fill="black"/>
<path d="M83.1313 30.5172V27.5446C79.4764 27.5502 75.8932 26.5271 72.7923 24.5925C75.5373 27.5963 79.152 29.6674 83.1313 30.5172ZM63.8719 11.3999C63.7789 10.8684 63.7074 10.3334 63.6578 9.79638V8H49.6024V63.7841C49.5799 70.2865 44.2999 75.5522 37.7876 75.5522C35.8757 75.5522 34.0706 75.0986 32.472 74.2926C34.631 77.1243 38.04 78.9522 41.8772 78.9522C48.3883 78.9522 53.6695 73.687 53.6922 67.1838V11.3999H63.8719ZM41.374 41.3746V38.21C40.1995 38.0496 39.0155 37.9691 37.8299 37.9697C23.5642 37.9694 12 49.5274 12 63.7841C12 72.7223 16.5449 80.5995 23.4513 85.2331C18.8962 80.5793 16.0896 74.2094 16.0896 67.1835C16.0896 53.1085 27.3597 41.6639 41.374 41.3746Z" fill="#00F2EA"/>
</svg>
