<svg width="100" height="100" viewBox="0 0 100 100" fill="none" xmlns="http://www.w3.org/2000/svg">
<rect width="100" height="100" rx="24" fill="#020202"/>
<path d="M68.2161 20.6157C67.9908 20.3557 67.7829 20.0958 67.5749 19.8185C67.7829 20.0958 68.0082 20.3557 68.2161 20.6157Z" fill="#020202"/>
<path d="M38.7737 78.5647C38.5484 78.5127 38.3405 78.4434 38.1152 78.3741C38.3232 78.426 38.5484 78.4954 38.7737 78.5647Z" fill="#020202"/>
<path d="M65.686 16.8033C66.2232 17.8777 66.8644 18.8828 67.5749 19.8185C66.8644 18.8828 66.2232 17.8603 65.686 16.8033Z" fill="#020202"/>
<path d="M37.474 78.1142C37.2661 78.0275 37.0581 77.9409 36.8502 77.8369C37.0581 77.9409 37.2661 78.0449 37.474 78.1142Z" fill="#020202"/>
<path d="M41.8929 78.9807C47.9928 78.9807 53.0183 74.3538 53.6422 68.4099C53.0183 74.3365 47.9928 78.9807 41.8929 78.9807Z" fill="#020202"/>
<path d="M35.6718 77.2131C35.949 77.3864 36.2436 77.5597 36.5555 77.6984C36.2609 77.5597 35.9664 77.3864 35.6718 77.2131Z" fill="#020202"/>
<path d="M83.154 30.5106C81.9409 30.2507 80.7625 29.8694 79.6361 29.4016C80.7625 29.8868 81.9409 30.2507 83.154 30.5106Z" fill="#020202"/>
<path d="M79.5494 29.3669C79.3935 29.2976 79.2202 29.2283 79.0642 29.1416C79.2202 29.2283 79.3761 29.2976 79.5494 29.3669Z" fill="#020202"/>
<path d="M77.4873 28.3445C77.4526 28.3272 77.4179 28.3099 77.3833 28.2752C77.4179 28.2925 77.4526 28.3272 77.4873 28.3445Z" fill="#020202"/>
<path d="M78.8389 29.055C78.7176 29.003 78.5963 28.9337 78.475 28.8817C78.6137 28.9337 78.7176 29.003 78.8389 29.055Z" fill="#020202"/>
<path d="M40.9572 52.7095C41.0265 52.7268 41.1132 52.7615 41.1825 52.7788C41.0958 52.7615 41.0265 52.7441 40.9572 52.7095Z" fill="#020202"/>
<path d="M39.1723 52.0163C39.2243 52.0163 39.2762 52.0337 39.3282 52.0337C39.2762 52.0337 39.2243 52.0337 39.1723 52.0163Z" fill="#020202"/>
<path d="M40.5066 52.259C40.5933 52.2763 40.6972 52.311 40.7839 52.3283C40.6972 52.311 40.6106 52.2763 40.5066 52.259Z" fill="#020202"/>
<path d="M39.6228 52.0857C39.6922 52.103 39.7615 52.103 39.8481 52.1203C39.7788 52.103 39.6922 52.103 39.6228 52.0857Z" fill="#020202"/>
<path d="M40.0734 52.1551C40.16 52.1724 40.2467 52.1897 40.3333 52.207C40.2467 52.207 40.16 52.1724 40.0734 52.1551Z" fill="#020202"/>
<path d="M68.2161 20.6158C68.4414 20.8757 68.6667 21.1356 68.892 21.3783C70.053 22.6086 71.3701 23.7004 72.8084 24.6015C70.001 21.5342 68.1641 17.5832 67.7656 13.1989V11.3966H63.8838C64.2131 13.3028 64.8369 15.1224 65.6861 16.8033C66.2233 17.8778 66.8644 18.8828 67.5749 19.8186C67.7829 20.0959 68.0082 20.3558 68.2161 20.6158Z" fill="#EE2353"/>
<path d="M41.3904 52.5016C41.3211 52.4842 41.2518 52.4669 41.1824 52.4322C41.1131 52.4149 41.0265 52.3802 40.9572 52.3629C40.9052 52.3456 40.8532 52.3283 40.8012 52.3283C40.7146 52.3109 40.6106 52.2763 40.5239 52.2589C40.4719 52.2416 40.4026 52.2416 40.3506 52.2243C40.264 52.207 40.1773 52.1896 40.0907 52.1723C40.0214 52.155 39.9347 52.1376 39.8654 52.1376C39.7961 52.1203 39.7268 52.103 39.6401 52.103C39.5362 52.0857 39.4495 52.0683 39.3455 52.0683C39.2936 52.0683 39.2416 52.051 39.1896 52.051C39.0683 52.0337 38.9296 52.0163 38.8083 52.0163C38.791 52.0163 38.7563 52.0163 38.739 52.0163C38.4271 51.999 38.1325 51.9817 37.8206 51.9817C31.2874 51.9817 26.002 57.2671 26.002 63.8002C26.002 68.4098 28.6534 72.4129 32.5005 74.3537C30.9409 72.2916 30.0917 69.7788 30.0917 67.1968C30.0917 60.681 35.3771 55.3782 41.9103 55.3782C43.1233 55.3782 44.3364 55.5688 45.4974 55.9327V41.6534C44.1457 41.4628 42.7767 41.3935 41.4077 41.4108L41.3904 52.5016Z" fill="#EE2353"/>
<path d="M83.1539 41.5149C77.9378 41.5149 72.9816 40.3192 68.58 38.1877C67.8175 37.8238 67.055 37.4252 66.3272 36.9919C65.9633 36.784 65.5994 36.5587 65.2355 36.3334C64.6982 35.9869 64.1784 35.6403 63.6585 35.2764V63.783C63.6585 78.0449 52.0825 89.6036 37.8206 89.6036C32.5005 89.6036 27.5443 87.9919 23.4373 85.2366C28.1335 90.0368 34.6666 93.0001 41.9103 93.0001C56.1896 93.0001 67.7482 81.4415 67.7482 67.1795V38.6902C73.2416 42.6066 79.9653 44.9287 87.2263 44.9287V30.9614C85.8573 30.9614 84.4883 30.8227 83.1366 30.5281V41.5149H83.1539Z" fill="#EE2353"/>
<path d="M37.8379 89.6208C52.0999 89.6208 63.6759 78.0622 63.6759 63.8002V35.2936C64.1957 35.6575 64.7156 36.0214 65.2528 36.3507C65.6167 36.576 65.9806 36.8012 66.3446 37.0092C67.0724 37.4424 67.8349 37.841 68.5974 38.2049C72.999 40.3364 77.9552 41.5321 83.1713 41.5321V30.5281C81.9409 30.2681 80.7625 29.8869 79.6534 29.419C79.6188 29.4016 79.6014 29.4016 79.5668 29.3843C79.4108 29.315 79.2375 29.2457 79.0816 29.159C79.0122 29.1244 78.9429 29.0897 78.8736 29.0551C78.7523 29.0031 78.631 28.9338 78.5097 28.8818C78.4057 28.8298 78.2844 28.7778 78.1804 28.7258C78.0938 28.6911 78.0245 28.6392 77.9552 28.6045C77.7992 28.5179 77.6606 28.4485 77.5219 28.3619C77.4873 28.3446 77.4526 28.3272 77.4179 28.2926C75.8583 27.3741 74.42 26.2477 73.155 24.9307C73.051 24.8267 72.947 24.7228 72.843 24.6188C71.4047 23.7177 70.0877 22.6432 68.9266 21.3955C68.7013 21.1529 68.4761 20.893 68.2508 20.633C68.0255 20.3731 67.8175 20.1132 67.6096 19.8359C66.8991 18.9001 66.2579 17.8777 65.7207 16.8206C64.8716 15.1397 64.2651 13.3201 63.9185 11.4139H53.7115V67.2141C53.7115 67.6127 53.6942 68.0286 53.6422 68.4098C53.0184 74.3537 47.9929 78.9807 41.893 78.9807C40.8186 78.9807 39.7615 78.842 38.7737 78.5648C38.5484 78.5128 38.3405 78.4434 38.1152 78.3741C37.9073 78.3048 37.682 78.2182 37.474 78.1315C37.2661 78.0449 37.0581 77.9582 36.8502 77.8542C36.7462 77.8023 36.6422 77.7503 36.5556 77.6983C36.261 77.5423 35.9664 77.3864 35.6718 77.2131C34.4414 76.4506 33.3497 75.4628 32.4832 74.3191C28.6188 72.3782 25.9847 68.3751 25.9847 63.7656C25.9847 57.2498 31.2701 51.947 37.8033 51.947C38.1152 51.947 38.4271 51.9643 38.7217 51.9817C38.7391 51.9817 38.7737 51.9817 38.791 51.9817C38.9123 51.999 39.051 51.999 39.1723 52.0163C39.2243 52.0163 39.2763 52.0337 39.3282 52.0337C39.4322 52.051 39.5189 52.051 39.6228 52.0683C39.6922 52.0856 39.7615 52.0856 39.8481 52.103C39.9174 52.1203 40.0041 52.1203 40.0734 52.1376C40.1601 52.155 40.2467 52.1723 40.3333 52.1896C40.3853 52.207 40.4546 52.2069 40.5066 52.2243C40.5933 52.2416 40.6973 52.2763 40.7839 52.2936C40.8359 52.3109 40.8879 52.3283 40.9399 52.3283C41.0092 52.3456 41.0958 52.3802 41.1652 52.3976C41.2345 52.4149 41.3038 52.4322 41.3731 52.4669V41.3415C27.3537 41.6361 16.0724 53.0734 16.0724 67.1621C16.0724 74.1978 18.8797 80.5576 23.4373 85.2192C27.5617 88.0092 32.5179 89.6208 37.8379 89.6208Z" fill="white"/>
<path d="M63.6759 63.8003C63.6759 78.0622 52.0999 89.6209 37.8379 89.6209C52.1172 89.6209 63.6759 78.0622 63.6759 63.8003Z" fill="white"/>
<path d="M40.3333 52.2242C40.3853 52.2415 40.4546 52.2415 40.5066 52.2588C40.4546 52.2415 40.4027 52.2242 40.3333 52.2242Z" fill="white"/>
<path d="M41.3904 52.5016C41.3211 52.4842 41.2518 52.4669 41.1825 52.4323C41.2518 52.4496 41.3211 52.4842 41.3904 52.5016Z" fill="white"/>
<path d="M40.7839 52.3283C40.8359 52.3457 40.8879 52.363 40.9399 52.363C40.9052 52.363 40.8359 52.3457 40.7839 52.3283Z" fill="white"/>
<path d="M66.3445 37.0093C65.9806 36.8013 65.6167 36.576 65.2528 36.3507C65.6167 36.576 65.9806 36.784 66.3445 37.0093Z" fill="white"/>
<path d="M39.8481 52.1203C39.9174 52.1376 40.0041 52.1376 40.0734 52.1549C40.0041 52.1549 39.9174 52.1376 39.8481 52.1203Z" fill="white"/>
<path d="M68.5973 38.2048C67.8349 37.8409 67.0724 37.4423 66.3445 37.0091C67.0724 37.425 67.8175 37.8236 68.5973 38.2048Z" fill="white"/>
<path d="M83.1539 41.5147C77.9378 41.5147 72.9816 40.319 68.58 38.1875C72.999 40.319 77.9378 41.5147 83.1539 41.5147Z" fill="white"/>
<path d="M38.791 51.9818C38.9123 51.9991 39.051 51.9991 39.1723 52.0164C39.051 52.0164 38.9296 51.9991 38.791 51.9818Z" fill="white"/>
<path d="M37.8033 51.947C38.1152 51.947 38.4271 51.9643 38.7217 51.9816C38.4098 51.9643 38.1152 51.947 37.8033 51.947Z" fill="white"/>
<path d="M36.8502 77.8542C37.0581 77.9582 37.2661 78.0449 37.474 78.1315C37.682 78.2181 37.8899 78.2875 38.1152 78.3741C38.3231 78.4434 38.5484 78.5127 38.7737 78.5647C39.7615 78.842 40.8186 78.9806 41.893 78.9806C47.9929 78.9806 53.0184 74.3537 53.6422 68.4098C53.6769 68.0112 53.7115 67.6126 53.7115 67.2141V11.4139H63.9011C63.8145 10.8767 63.7278 10.3395 63.6932 9.80224V8H49.6392V63.8002C49.6218 70.2987 44.3364 75.5668 37.8206 75.5668C35.9144 75.5668 34.0948 75.1162 32.5005 74.3017C33.3843 75.4455 34.4587 76.4332 35.6891 77.1957C35.9664 77.369 36.261 77.5423 36.5729 77.6809C36.6595 77.7503 36.7635 77.8022 36.8502 77.8542Z" fill="#6BCAD0"/>
<path d="M41.3904 41.3763V38.205C40.212 38.049 39.0336 37.9624 37.8379 37.9624C23.5586 37.9624 12 49.521 12 63.783C12 72.7249 16.5403 80.6097 23.4546 85.2366C18.897 80.575 16.0897 74.2152 16.0897 67.1795C16.0897 53.1255 27.371 41.6709 41.3904 41.3763Z" fill="#6BCAD0"/>
<path d="M77.3833 28.2752C77.4179 28.2926 77.4526 28.3099 77.4872 28.3446C77.6259 28.4312 77.7818 28.5005 77.9205 28.5872C77.9898 28.6218 78.0764 28.6738 78.1458 28.7085C78.2497 28.7605 78.371 28.8124 78.475 28.8644C78.5963 28.9164 78.7176 28.9857 78.8389 29.0377C78.9082 29.0724 78.9776 29.107 79.0469 29.1417C79.2028 29.211 79.3761 29.2977 79.5321 29.367C79.5668 29.3843 79.5841 29.3843 79.6187 29.4016C80.7451 29.8869 81.9235 30.2508 83.1366 30.5107V27.5301C79.4801 27.5301 75.893 26.5077 72.791 24.5841C72.895 24.6881 72.999 24.7921 73.103 24.896C74.368 26.2131 75.8063 27.3568 77.3833 28.2752Z" fill="#6BCAD0"/>
<path d="M79.6361 29.4016C79.6014 29.3843 79.5841 29.3843 79.5494 29.367C79.5668 29.3843 79.6014 29.3843 79.6361 29.4016Z" fill="#6BCAD0"/>
<path d="M79.0642 29.1417C78.9949 29.107 78.9256 29.0723 78.8563 29.0377C78.9082 29.0897 78.9949 29.1243 79.0642 29.1417Z" fill="#6BCAD0"/>
<path d="M77.9205 28.5872C77.7645 28.5005 77.6259 28.4312 77.4872 28.3445C77.6259 28.4312 77.7818 28.5005 77.9205 28.5872Z" fill="#6BCAD0"/>
<path d="M78.4924 28.8819C78.3884 28.8299 78.2671 28.7779 78.1631 28.7259C78.2671 28.7606 78.3711 28.8126 78.4924 28.8819Z" fill="#6BCAD0"/>
<path d="M16.0897 67.1966C16.0897 53.1079 27.3711 41.6706 41.3904 41.376C27.3711 41.6706 16.0897 53.1253 16.0897 67.1966Z" fill="#6BCAD0"/>
<path d="M77.3833 28.2753C75.8063 27.3568 74.368 26.2131 73.1203 24.9134C74.3853 26.2304 75.8237 27.3568 77.3833 28.2753Z" fill="#6BCAD0"/>
</svg>
