<svg width="100" height="100" viewBox="0 0 100 100" fill="none" xmlns="http://www.w3.org/2000/svg">
<rect width="100" height="100" rx="24" fill="#FFFCDC"/>
<path fill-rule="evenodd" clip-rule="evenodd" d="M50.5872 85.2703V80.1183C66.9067 80.0712 80.1206 66.8301 80.1206 50.4988C80.1206 34.1687 66.9067 20.9277 50.5872 20.8805V15.7286C69.7519 15.7769 85.2714 31.3235 85.2714 50.4988C85.2714 69.6753 69.7519 85.2231 50.5872 85.2703ZM50.5872 67.2377C59.7919 67.1894 67.2425 59.7165 67.2425 50.4988C67.2425 41.2823 59.7919 33.8094 50.5872 33.7611V28.6103C62.6383 28.6574 72.3944 38.4371 72.3944 50.4988C72.3944 62.5617 62.6383 72.3414 50.5872 72.3885V67.2377ZM50.5872 41.4885C55.5247 41.5356 59.5151 45.5495 59.5151 50.4988C59.5151 55.4493 55.5247 59.4632 50.5872 59.5104V41.4885ZM8 50.4988C8 73.972 27.0269 93 50.5 93C73.972 93 93 73.972 93 50.4988C93 27.0269 73.972 8 50.5 8C27.0269 8 8 27.0269 8 50.4988Z" fill="url(#paint0_linear_175_1037)"/>
<defs>
<linearGradient id="paint0_linear_175_1037" x1="4258" y1="8508" x2="4258" y2="8" gradientUnits="userSpaceOnUse">
<stop stop-color="#420C5D"/>
<stop offset="1" stop-color="#951AD1"/>
</linearGradient>
</defs>
</svg>
