<svg width="100" height="100" viewBox="0 0 100 100" fill="none" xmlns="http://www.w3.org/2000/svg">
<rect width="100" height="100" rx="24" fill="#7360F2"/>
<path d="M81.5439 16.3128C79.4247 14.4168 70.9481 8.17086 51.8758 8.05932C51.8758 8.05932 29.4574 6.7209 18.5271 16.759C12.3927 22.8933 10.2736 31.7046 10.0505 42.7464C9.82743 53.7883 9.49285 74.4221 29.4575 80.1104V88.6985C29.4575 88.6985 29.3459 92.156 31.5766 92.8252C34.365 93.7175 35.9264 91.0407 38.6032 88.2523C40.0532 86.6909 42.0608 84.4602 43.5107 82.6756C57.1179 83.791 67.6021 81.2257 68.829 80.7795C71.6173 79.8873 87.1206 77.8797 89.6859 57.2459C92.3627 35.8313 88.5705 22.3357 81.5439 16.3128ZM83.8861 55.5729C81.7669 72.8606 69.1636 73.976 66.8214 74.6452C65.8176 74.9798 56.6718 77.2105 45.0722 76.5413C45.0722 76.5413 36.4841 86.9139 33.6957 89.7023C33.2496 90.1484 32.8035 90.2599 32.4689 90.2599C32.0227 90.1484 31.9112 89.5907 31.9112 88.81C31.9112 87.6947 32.0227 74.5337 32.0227 74.5337C15.1811 69.8492 16.1849 52.2268 16.2964 42.9695C16.5195 33.7122 18.1925 26.2394 23.3231 21.1088C32.5804 12.7437 51.6527 13.9706 51.6527 13.9706C67.7137 14.0821 75.4095 18.8781 77.194 20.5511C82.9938 25.6817 86.0052 37.8389 83.8861 55.5729Z" fill="white"/>
<path d="M59.6833 42.3005C59.4602 38.0621 57.341 35.8313 53.2141 35.6082" stroke="white" stroke-width="1.92693" stroke-linecap="round" stroke-linejoin="round"/>
<path d="M65.2604 44.0854C65.3719 40.1816 64.145 36.8355 61.8027 34.2701C59.3489 31.5931 56.0027 30.1431 51.7643 29.8085" stroke="white" stroke-width="1.92693" stroke-linecap="round" stroke-linejoin="round"/>
<path d="M70.8374 46.3163C70.8374 39.5125 68.7182 34.1586 64.7028 30.2548C60.6874 26.3509 55.6682 24.3433 49.6451 24.3433" stroke="white" stroke-width="1.92693" stroke-linecap="round" stroke-linejoin="round"/>
<path d="M53.437 56.6882C53.437 56.6882 54.9985 56.7997 55.7792 55.7959L57.3407 53.7883C58.1215 52.7845 59.906 52.1153 61.8021 53.1191C62.8059 53.6768 64.5904 54.7921 65.7058 55.6844C66.9327 56.5767 69.3864 58.5843 69.3864 58.5843C70.6133 59.5881 70.8363 61.038 70.0556 62.5995C69.2749 64.0495 68.1595 65.3879 66.7096 66.6148C65.5942 67.6186 64.4789 68.0647 63.3636 68.2878H62.9174C62.4713 68.2878 61.9136 68.1762 61.4675 68.0647C59.7945 67.6185 57.0061 66.3917 52.2101 63.8264C49.1987 62.1534 46.6334 60.3688 44.5143 58.6958C43.399 57.8036 42.1721 56.7998 41.0567 55.5729L40.6106 55.1267C39.3837 53.8998 38.3799 52.7845 37.4876 51.6692C35.8146 49.55 34.0301 46.9847 32.3571 43.9733C29.7918 39.2889 28.5649 36.5005 28.1188 34.716C28.0072 34.2699 27.8957 33.8237 27.8957 33.2661V32.8199C28.0072 31.7046 28.5649 30.5892 29.5687 29.4739C30.7956 28.1355 32.134 27.0201 33.5839 26.1279C35.1454 25.3471 36.5954 25.5702 37.5992 26.7971C37.5992 26.7971 39.6068 29.2508 40.4991 30.4777C41.2798 31.5931 42.3951 33.3776 43.0643 34.3814C44.0681 36.1659 43.3989 38.062 42.5067 38.8428L40.4991 40.4042C39.4953 41.185 39.6068 42.7465 39.6068 42.7465C39.6068 42.7465 42.3952 53.7883 53.437 56.6882Z" fill="white"/>
</svg>
