<svg width="100" height="100" viewBox="0 0 100 100" fill="none" xmlns="http://www.w3.org/2000/svg">
<g clip-path="url(#clip0_175_649)">
<rect width="100" height="100" rx="24" fill="#2C3036"/>
<path d="M100 50.5357V49.4643C77.8571 48.75 67.75 48.2143 59.6429 40.3571C51.7857 32.25 51.2143 22.1429 50.5357 0H49.4643C48.75 22.1429 48.2143 32.25 40.3571 40.3571C32.25 48.2143 22.1429 48.7857 0 49.4643V50.5357C22.1429 51.25 32.25 51.7857 40.3571 59.6429C48.2143 67.75 48.7857 77.8571 49.4643 100H50.5357C51.25 77.8571 51.7857 67.75 59.6429 59.6429C67.75 51.7857 77.8571 51.2143 100 50.5357Z" fill="white"/>
</g>
<defs>
<clipPath id="clip0_175_649">
<rect width="100" height="100" rx="24" fill="white"/>
</clipPath>
</defs>
</svg>
