<svg width="100" height="100" viewBox="0 0 100 100" fill="none" xmlns="http://www.w3.org/2000/svg">
<rect width="100" height="100" rx="24" fill="#FF7700"/>
<path d="M62.5208 43.2608C60.8832 44.917 58.9332 46.232 56.7838 47.1294C54.6344 48.0268 52.3283 48.4889 49.9991 48.4889C47.6699 48.4889 45.3639 48.0268 43.2145 47.1294C41.0651 46.232 39.1151 44.917 37.4774 43.2608C35.0086 40.7683 33.3294 37.6033 32.6499 34.1615C31.9703 30.7198 32.3206 27.1541 33.6569 23.9103C34.9932 20.6666 37.2561 17.8888 40.1628 15.9244C43.0694 13.96 46.4907 12.8962 49.9988 12.866C53.5135 12.89 56.9428 13.9516 59.8563 15.9176C62.7697 17.8836 65.0376 20.6665 66.3751 23.9168C67.7127 27.1671 68.0604 30.7401 67.3745 34.1873C66.6887 37.6345 64.9999 40.8023 62.5201 43.2932L62.5208 43.2608ZM49.9664 22.5788C47.8306 22.5888 45.7858 23.4443 44.2791 24.9581C42.7725 26.4719 41.9267 28.5208 41.9267 30.6565C41.9267 32.7923 42.7725 34.8412 44.2791 36.3549C45.7858 37.8687 47.8306 38.7242 49.9664 38.7343C52.1021 38.7242 54.147 37.8687 55.6536 36.3549C57.1603 34.8412 58.0061 32.7923 58.0061 30.6565C58.0061 28.5208 57.1603 26.4719 55.6536 24.9581C54.147 23.4443 52.1021 22.5888 49.9664 22.5788ZM68.6 48.5474L73.7869 55.6836C74.0512 56.0471 73.9851 56.5426 73.6547 56.8069C69.3585 60.31 64.3185 62.7847 58.9197 64.0422L68.9302 83.4678C68.9992 83.5938 69.0341 83.7355 69.0315 83.8791C69.0289 84.0226 68.989 84.163 68.9156 84.2864C68.8422 84.4098 68.7379 84.5119 68.6131 84.5828C68.4882 84.6536 68.347 84.6906 68.2034 84.6902H57.466C57.1357 84.6902 56.8383 84.492 56.7062 84.1946L49.9994 68.1712L43.2596 84.1946C43.1952 84.3424 43.0889 84.468 42.9538 84.5561C42.8188 84.6441 42.661 84.6908 42.4998 84.6902H31.7624C31.1347 84.6902 30.7713 84.0294 31.0356 83.4678L41.079 64.0422C35.793 62.7868 30.7051 60.408 26.344 56.8069C26.1781 56.6763 26.0686 56.4871 26.0378 56.2782C26.0071 56.0693 26.0576 55.8565 26.1789 55.6836L31.3989 48.5805C31.4672 48.4879 31.5534 48.41 31.6523 48.3513C31.7513 48.2927 31.8611 48.2546 31.9751 48.2391C32.0891 48.2237 32.205 48.2314 32.316 48.2617C32.427 48.2919 32.5308 48.3442 32.6213 48.4153C37.3967 52.7335 43.5628 55.1952 49.9992 55.3532C56.4416 55.3532 62.4545 52.644 67.3771 48.4153C67.7075 48.0849 68.3021 48.151 68.5995 48.5474L68.6 48.5474Z" fill="white"/>
</svg>
