<svg width="100" height="100" viewBox="0 0 100 100" fill="none" xmlns="http://www.w3.org/2000/svg">
<rect width="100" height="100" rx="24" fill="#2DC100"/>
<path d="M66.0551 37.1017C58.1648 37.5139 51.3035 39.9058 45.733 45.3097C40.1049 50.7694 37.5357 57.4596 38.238 65.7531C35.1539 65.3712 32.3449 64.9508 29.5199 64.7129C28.5442 64.6308 27.3864 64.7474 26.56 65.2138C23.8168 66.7617 21.187 68.5093 18.07 70.4577C18.6419 67.8709 19.0121 65.6058 19.6674 63.427C20.1494 61.8257 19.9262 60.9344 18.451 59.8916C8.97913 53.2044 4.98653 43.1965 7.97446 32.893C10.7388 23.3612 17.5274 17.5806 26.7516 14.5672C39.3417 10.4547 53.4908 14.6496 61.1465 24.6455C63.9116 28.2562 65.6071 32.3087 66.0551 37.1017ZM29.7408 33.8912C29.8135 32.0066 28.1805 30.3088 26.241 30.2521C24.2551 30.1938 22.6218 31.7114 22.5638 33.6683C22.5051 35.6515 24.0221 37.2408 26.0223 37.2916C28.0052 37.3418 29.6675 35.8223 29.7408 33.8912ZM48.6874 30.2508C46.7407 30.2867 45.0956 31.9447 45.1302 33.8367C45.1657 35.7978 46.7794 37.3321 48.7813 37.3079C50.7883 37.2838 52.3105 35.7333 52.2916 33.7308C52.275 31.7652 50.6684 30.2147 48.6874 30.2508Z" fill="white"/>
<path d="M83.782 86.2922C81.2835 85.1796 78.9917 83.5105 76.5515 83.2557C74.1208 83.0018 71.5657 84.4041 69.0226 84.6641C61.2762 85.4567 54.3364 83.2977 48.6141 78.0059C37.7309 67.9397 39.286 52.505 51.8774 44.2559C63.0682 36.9244 79.4802 39.3684 87.3702 49.5412C94.2556 58.418 93.4464 70.2016 85.0409 77.6588C82.6085 79.8171 81.7332 81.5931 83.2939 84.4383C83.5819 84.9636 83.6148 85.6287 83.782 86.2922ZM55.3418 58.7562C56.9323 58.7579 58.242 57.513 58.3023 55.942C58.3659 54.2787 57.0282 52.8837 55.3626 52.8768C53.7137 52.8693 52.3323 54.284 52.3897 55.9224C52.4438 57.4879 53.7626 58.7543 55.3418 58.7562ZM73.6757 52.8834C72.1324 52.8726 70.8211 54.136 70.7582 55.6953C70.6914 57.3628 71.9874 58.7321 73.6376 58.7364C75.2337 58.7416 76.4948 57.5345 76.5528 55.9462C76.6148 54.2748 75.3181 52.8948 73.6757 52.8834Z" fill="white"/>
</svg>
