<svg width="100" height="100" viewBox="0 0 100 100" fill="none" xmlns="http://www.w3.org/2000/svg">
<rect width="100" height="100" rx="24" fill="black"/>
<path d="M97.0504 39.2131L96.662 37.3571L80.9941 34.6379L90.1013 22.3367L89.0223 21.1713L75.642 27.6025L77.3253 10.5534L75.9441 9.77647L67.7865 23.5452L58.7224 3H57.1254L59.2835 22.8546L36.2781 4.42435L34.3358 4.98546L52.0754 27.2572L16.9846 15.5602L15.3876 17.3298L46.7233 35.1558L3.47478 38.7815L3 41.4575L47.9318 46.3348L10.4671 77.3253L12.0641 79.4834L56.6506 55.2263L47.8024 97.9568H50.5216L67.6138 57.7728L78.0159 89.2381L79.8719 87.8137L75.5988 55.8305L91.8278 74.2608L92.9069 72.5775L80.4762 49.7447L97.8273 56.1758L98 54.2335L82.4616 42.7524L97.1367 39.2131H97.0504Z" fill="#FFBC0D"/>
</svg>
