<svg width="100" height="100" viewBox="0 0 100 100" fill="none" xmlns="http://www.w3.org/2000/svg">
<rect width="100" height="100" rx="24" fill="#3D8CFF"/>
<path d="M12.7395 26C9.56964 26 7 28.5697 7 31.7395V58.7974C7 66.9485 13.6078 73.5563 21.7588 73.5563H62.4823C65.6522 73.5563 68.2219 70.9866 68.2219 67.8167V40.7588C68.2219 32.6078 61.6141 26 53.463 26H12.7395Z" fill="white"/>
<path d="M74.3777 37.2881C72.5562 38.7938 71.5016 41.0338 71.5016 43.3971V56.1206C71.5016 58.5059 72.5759 60.7644 74.4265 62.2696L86.6508 72.212C88.7939 73.9551 92 72.43 92 69.6676V29.6868C92 26.9122 88.7691 25.3911 86.6306 27.159L74.3777 37.2881Z" fill="white"/>
</svg>
