<svg width="100" height="100" viewBox="0 0 100 100" fill="none" xmlns="http://www.w3.org/2000/svg">
<rect width="100" height="100" rx="24" fill="#2D8CFF"/>
<path fill-rule="evenodd" clip-rule="evenodd" d="M76.2058 45.728C76.5307 46.2886 76.637 46.9264 76.6721 47.6434L76.7182 48.5991V55.2818L76.7653 56.2385C76.8596 57.8008 78.0118 58.9561 79.5862 59.0544L80.5379 59.1015V48.5991L80.585 47.6434C80.6242 46.9344 80.7294 46.2846 81.0594 45.72C81.3956 45.1409 81.8782 44.6605 82.4588 44.3269C83.0394 43.9933 83.6975 43.8184 84.3671 43.8196C85.0367 43.8208 85.6942 43.9982 86.2736 44.3338C86.8529 44.6695 87.3338 45.1517 87.6679 45.7321C87.9928 46.2926 88.0941 46.9424 88.1332 47.6434L88.1803 48.5961V55.2818L88.2274 56.2385C88.3257 57.8089 89.4689 58.9641 91.0483 59.0544L92 59.1015V47.6434C92 45.6173 91.1953 43.6741 89.7629 42.2412C88.3306 40.8082 86.3877 40.0028 84.3616 40.002C83.2772 40.0009 82.205 40.2312 81.2167 40.6775C80.2284 41.1238 79.3467 41.7759 78.6306 42.5903C77.9141 41.7763 77.0324 41.1243 76.0442 40.6778C75.0559 40.2314 73.9839 40.0006 72.8995 40.001C71.3131 40.001 69.841 40.4824 68.6215 41.3137C67.8775 40.4834 66.2128 40.001 65.2571 40.001V59.1015L66.2128 59.0544C67.8113 58.9491 68.9665 57.8249 69.0287 56.2385L69.0798 55.2818V48.5991L69.127 47.6434C69.1671 46.9224 69.2673 46.2886 69.5933 45.724C69.9297 45.1453 70.4121 44.665 70.9923 44.331C71.5725 43.997 72.2301 43.821 72.8995 43.8207C73.5695 43.8208 74.2276 43.9971 74.8079 44.3319C75.3882 44.6667 75.8703 45.1482 76.2058 45.728ZM10.8197 59.0554L11.7754 59.1015H26.1005L26.0533 58.1488C25.924 56.5784 24.8119 55.4312 23.2365 55.3289L22.2808 55.2818H13.6867L25.1448 43.8197L25.0977 42.868C25.0235 41.2816 23.8642 40.1354 22.2808 40.0481L21.3251 40.005L7 40.001L7.04713 40.9567C7.17248 42.512 8.30064 43.6833 9.86302 43.7736L10.8197 43.8207H19.4138L7.95568 55.2828L8.00281 56.2385C8.09707 57.8129 9.23325 58.9531 10.8197 59.0544V59.0554ZM61.5076 42.7968C62.3946 43.6836 63.0982 44.7365 63.5783 45.8952C64.0583 47.054 64.3054 48.296 64.3054 49.5502C64.3054 50.8045 64.0583 52.0465 63.5783 53.2052C63.0982 54.364 62.3946 55.4169 61.5076 56.3037C59.7156 58.0942 57.286 59.1 54.7527 59.1C52.2194 59.1 49.7898 58.0942 47.9978 56.3037C44.2684 52.5742 44.2684 46.5263 47.9978 42.7968C48.884 41.9103 49.9361 41.2071 51.0941 40.7272C52.2521 40.2473 53.4932 40.0002 54.7467 40C56.0022 39.9991 57.2456 40.2458 58.4057 40.7259C59.5658 41.2059 60.6199 41.91 61.5076 42.7978V42.7968ZM58.8051 45.5014C59.8793 46.5764 60.4827 48.034 60.4827 49.5538C60.4827 51.0735 59.8793 52.5311 58.8051 53.6061C57.73 54.6803 56.2725 55.2837 54.7527 55.2837C53.233 55.2837 51.7754 54.6803 50.7004 53.6061C49.6261 52.5311 49.0227 51.0735 49.0227 49.5538C49.0227 48.034 49.6261 46.5764 50.7004 45.5014C51.7754 44.4272 53.233 43.8238 54.7527 43.8238C56.2725 43.8238 57.73 44.4272 58.8051 45.5014ZM34.7026 40C35.9561 40.0003 37.1973 40.2476 38.3553 40.7276C39.5133 41.2077 40.5654 41.9111 41.4515 42.7978C45.1819 46.5263 45.1819 52.5752 41.4515 56.3037C39.6594 58.0942 37.2298 59.1 34.6966 59.1C32.1633 59.1 29.7337 58.0942 27.9416 56.3037C24.2122 52.5742 24.2122 46.5263 27.9416 42.7968C28.8278 41.9103 29.8799 41.2071 31.0379 40.7272C32.1959 40.2473 33.4371 40.0002 34.6905 40H34.7026ZM38.7489 45.4994C39.8234 46.5745 40.427 48.0323 40.427 49.5522C40.427 51.0722 39.8234 52.53 38.7489 53.6051C37.6739 54.6793 36.2163 55.2827 34.6966 55.2827C33.1768 55.2827 31.7192 54.6793 30.6442 53.6051C29.57 52.5301 28.9666 51.0725 28.9666 49.5527C28.9666 48.033 29.57 46.5754 30.6442 45.5004C31.7192 44.4262 33.1768 43.8228 34.6966 43.8228C36.2163 43.8228 37.6739 44.4262 38.7489 45.5004V45.4994Z" fill="white"/>
<circle cx="34.7" cy="49.6" r="5.8" fill="#2D8CFF"/>
<circle cx="54.8" cy="49.6" r="5.8" fill="#2D8CFF"/>
</svg>
