<svg width="100" height="100" viewBox="0 0 100 100" fill="none" xmlns="http://www.w3.org/2000/svg">
<rect width="100" height="100" rx="24" fill="white"/>
<g clip-path="url(#clip0_175_832)">
<path d="M59.918 9.87466C67.9352 5.6966 77.8616 8.74022 82.0811 16.6744C86.3007 24.6086 83.2225 34.4242 75.2053 38.6023L68.6131 42.0679C74.2922 42.2754 79.7085 45.3951 82.5446 50.7283C86.7642 58.6625 83.6929 68.4782 75.6688 72.6562L40.515 91.1255C32.4978 95.3035 22.5715 92.2599 18.3519 84.3258C14.1323 76.3916 17.2105 66.5759 25.2277 62.3979L31.8199 58.9323C26.1408 58.7248 20.7245 55.6051 17.8884 50.2718C13.6689 42.3376 16.7471 32.522 24.7642 28.3439L59.918 9.87466ZM40.9438 37.4194L62.2215 50.5554L40.9438 63.6291V37.4194Z" fill="#F40407"/>
<path d="M40.9438 37.4194V63.6292L62.2215 50.5554L40.9438 37.4194Z" fill="white"/>
</g>
<defs>
<clipPath id="clip0_175_832">
<rect width="68.4399" height="85" fill="white" transform="translate(16 8)"/>
</clipPath>
</defs>
</svg>
