<svg width="100" height="100" viewBox="0 0 100 100" fill="none" xmlns="http://www.w3.org/2000/svg">
<g clip-path="url(#clip0_175_372)">
<rect width="100" height="100" rx="24" fill="white"/>
<path d="M50.0002 87.1787C44.8488 87.1787 41.4434 83.6052 38.0467 77.722C34.65 71.8388 17.878 42.789 14.4814 36.9058C11.0847 31.0226 9.6927 26.2867 12.2683 21.8255C14.8439 17.3644 19.6414 16.2019 26.4348 16.2019C33.2281 16.2019 66.7719 16.2019 73.5652 16.2019C80.3586 16.2019 85.1561 17.3644 87.7316 21.8255C90.3072 26.2867 88.9152 31.0226 85.5186 36.9058C82.1219 42.789 65.35 71.8388 61.9533 77.722C58.5566 83.6052 55.1512 87.1787 50 87.1787H50.0002Z" fill="#202124"/>
<mask id="mask0_175_372" style="mask-type:luminance" maskUnits="userSpaceOnUse" x="10" y="16" width="80" height="72">
<path d="M50.0002 87.1787C44.8488 87.1787 41.4434 83.6052 38.0467 77.722C34.65 71.8388 17.878 42.789 14.4814 36.9058C11.0847 31.0226 9.6927 26.2867 12.2683 21.8255C14.8439 17.3644 19.6414 16.2019 26.4348 16.2019C33.2281 16.2019 66.7719 16.2019 73.5652 16.2019C80.3586 16.2019 85.1561 17.3644 87.7316 21.8255C90.3072 26.2867 88.9152 31.0226 85.5186 36.9058C82.1219 42.789 65.35 71.8388 61.9533 77.722C58.5566 83.6052 55.1512 87.1787 50 87.1787H50.0002Z" fill="white"/>
</mask>
<g mask="url(#mask0_175_372)">
<path d="M67.1906 55.6721C55.9236 51.2041 51.2072 36.6176 50.5859 29.8828H50V77.9297L87.6953 62.5711C85.5551 62.133 78.4578 60.14 67.1906 55.6721Z" fill="#C6FF00"/>
<path d="M32.8094 55.6721C44.0764 51.2041 48.7928 36.6176 49.4141 29.8828H50V77.9297L12.3047 62.5711C14.4449 62.133 21.5422 60.14 32.8094 55.6721Z" fill="#C6FF00"/>
<path d="M58.1055 55.6281C52.793 51.1678 50.8789 36.6061 50.5859 29.8828H50V77.8477L67.7734 62.5152C66.7643 62.0781 63.418 60.0885 58.1055 55.6281Z" fill="white"/>
<path d="M41.8945 55.6281C47.207 51.1678 49.1211 36.6061 49.4141 29.8828H50V77.8477L32.2266 62.5152C33.2357 62.0781 36.582 60.0885 41.8945 55.6281Z" fill="white"/>
<path d="M50 30.4688C50.3236 30.4688 50.5859 30.2064 50.5859 29.8828C50.5859 29.5592 50.3236 29.2969 50 29.2969C49.6764 29.2969 49.4141 29.5592 49.4141 29.8828C49.4141 30.2064 49.6764 30.4688 50 30.4688Z" fill="white"/>
<path d="M68.3594 68.3594H29.4922V88.6719H68.3594V68.3594Z" fill="#5F6368"/>
<path d="M70.0045 68.4449C69.9914 68.3625 69.9791 68.2813 69.9652 68.1994C69.8822 67.6945 69.7787 67.1957 69.6582 66.7033C69.4475 65.843 69.1822 65.0037 68.8654 64.1906C68.5977 63.502 68.2932 62.8321 67.9547 62.1828C67.5194 61.3492 67.0283 60.5488 66.4861 59.7877C65.8217 58.8551 65.0799 57.9813 64.2694 57.176C63.9289 56.8377 63.5772 56.5111 63.2133 56.1983C62.4262 55.5188 61.585 54.8998 60.6992 54.3467C60.707 54.334 60.7135 54.3201 60.7215 54.3074C61.1274 53.6061 61.534 52.9059 61.9399 52.2047C62.3371 51.5201 62.734 50.8356 63.1307 50.151C63.4162 49.6596 63.7016 49.1672 63.9858 48.6758C64.0531 48.5592 64.1063 48.4385 64.1461 48.3151C64.2574 47.9707 64.2621 47.6088 64.1731 47.2723C64.1502 47.1891 64.1233 47.1076 64.0899 47.0281C64.0565 46.9487 64.0172 46.8713 63.9727 46.7967C63.8207 46.5416 63.6041 46.3201 63.3317 46.1582C63.0906 46.0151 62.8209 45.9297 62.5447 45.9051C62.4287 45.8953 62.3123 45.8963 62.1963 45.908C62.1008 45.9178 62.0059 45.9356 61.9117 45.9602C61.575 46.0494 61.2635 46.2338 61.0205 46.5004C60.9334 46.5967 60.8549 46.7026 60.7869 46.8192C60.5022 47.3104 60.2166 47.8028 59.9324 48.2942L58.7416 50.3479C58.3356 51.049 57.9289 51.7494 57.5231 52.4506C57.4785 52.5272 57.4334 52.6035 57.3897 52.6811C57.3279 52.6565 57.2672 52.632 57.2055 52.6086C54.967 51.7553 52.5393 51.2885 50.0014 51.2885C49.9317 51.2885 49.8631 51.2885 49.7936 51.2893C47.5369 51.3119 45.3688 51.7043 43.3465 52.4084C43.1121 52.4899 42.8809 52.5762 42.6514 52.6664C42.6104 52.5947 42.5682 52.5231 42.527 52.4516C42.1211 51.7502 41.7143 51.05 41.3086 50.3488C40.9115 49.6643 40.5145 48.9797 40.1176 48.2951C39.8322 47.8037 39.5471 47.3113 39.2627 46.8201C39.1951 46.7033 39.1168 46.5975 39.0293 46.5014C38.7861 46.2346 38.4746 46.0502 38.1383 45.961C38.0442 45.9365 37.949 45.9188 37.8531 45.909C37.7375 45.8973 37.6207 45.8963 37.5051 45.9061C37.2287 45.9297 36.959 46.0151 36.718 46.1592C36.4453 46.3211 36.2299 46.5426 36.0768 46.7977C36.0326 46.8721 35.9936 46.9496 35.9602 47.0291C35.927 47.1086 35.8985 47.1901 35.877 47.2733C35.7877 47.6098 35.7926 47.9717 35.9033 48.316C35.9436 48.4395 35.9965 48.5602 36.0643 48.6768C36.3494 49.1682 36.6348 49.6606 36.919 50.152C37.316 50.8365 37.7129 51.5211 38.11 52.2055C38.5158 52.9069 38.9227 53.607 39.3283 54.3084C39.3313 54.3143 39.3354 54.3201 39.3383 54.326C38.5197 54.8352 37.7402 55.399 37.0053 56.0158C36.5651 56.3856 36.1406 56.7731 35.7338 57.1779C34.9242 57.9832 34.182 58.857 33.5164 59.7897C32.9735 60.5508 32.4822 61.35 32.0481 62.1848C31.71 62.834 31.4051 63.5039 31.1373 64.1926C30.8207 65.0057 30.5551 65.8451 30.3444 66.7053C30.2238 67.1977 30.1219 67.6951 30.0375 68.2014C30.0238 68.2832 30.011 68.3656 29.9983 68.4469C29.9533 68.7403 29.9151 69.0356 29.8826 69.3328H70.1172C70.0852 69.0356 70.0465 68.7403 70.0014 68.4469L70.0045 68.4449Z" fill="#5F6368"/>
</g>
<path d="M25.5937 26.2388H24.8047V27.0278H25.5937V26.2388Z" fill="white"/>
<path d="M32.625 50H31.8359V50.7891H32.625V50Z" fill="white"/>
<path d="M72.9467 24.8047H72.1576V25.5937H72.9467V24.8047Z" fill="white"/>
<path d="M57.0391 44.1406H56.25V44.9297H57.0391V44.1406Z" fill="white"/>
<path d="M62.3123 36.5059H61.5233V37.2949H62.3123V36.5059Z" fill="white"/>
<path d="M69.3438 43.3594H68.5547V44.1484H69.3438V43.3594Z" fill="white"/>
<path d="M37.5078 26.5625H36.7188V27.3516H37.5078V26.5625Z" fill="white"/>
<path d="M65.6406 38.2812H64.0625V39.8594H65.6406V38.2812Z" fill="white"/>
<path d="M43.3672 41.4062H42.5781V42.1953H43.3672V41.4062Z" fill="white"/>
<path d="M31.8516 34.1797H30.2734V35.7578H31.8516V34.1797Z" fill="white"/>
<path d="M41.2266 27.9297H39.6484V29.5078H41.2266V27.9297Z" fill="white"/>
<path d="M72.0859 39.8438H70.5078V41.4219H72.0859V39.8438Z" fill="white"/>
<path d="M33.049 39.9106H31.4709V41.4888H33.049V39.9106Z" fill="white"/>
<path d="M74.8115 31.2632H73.2334V32.8413H74.8115V31.2632Z" fill="white"/>
<path d="M37.5156 35.7422H35.9375V37.3203H37.5156V35.7422Z" fill="white"/>
<path d="M50.0002 87.1787C44.8488 87.1787 41.4434 83.6052 38.0467 77.722C34.65 71.8388 17.878 42.789 14.4814 36.9058C11.0847 31.0226 9.6927 26.2867 12.2683 21.8255C14.8439 17.3644 19.6414 16.2019 26.4348 16.2019C33.2281 16.2019 66.7719 16.2019 73.5652 16.2019C80.3586 16.2019 85.1561 17.3644 87.7316 21.8255C90.3072 26.2867 88.9152 31.0226 85.5186 36.9058C82.1219 42.789 65.35 71.8388 61.9533 77.722C58.5566 83.6052 55.1512 87.1787 50 87.1787H50.0002Z" stroke="#34A853" stroke-width="10.7422" stroke-miterlimit="10"/>
<path d="M33.2246 17.9112C33.3934 18.3401 33.4778 18.5546 33.4778 18.5546C33.4778 18.5546 33.275 18.5546 32.8696 18.5546C32.4641 18.5546 32.2614 18.5546 32.2614 18.5546C32.2614 18.5546 32.2121 18.4128 32.1137 18.1292L31.1926 15.5522L31.0203 14.9897H30.9781L30.8235 15.5522L29.9375 18.1292C29.8485 18.4128 29.8039 18.5546 29.8039 18.5546C29.8039 18.5546 29.5977 18.5546 29.1852 18.5546C28.775 18.5546 28.5699 18.5546 28.5699 18.5546C28.5699 18.5546 28.6531 18.3378 28.8196 17.9042L30.3137 14.037C30.4473 13.6854 30.5141 13.5097 30.5141 13.5097C30.5141 13.5097 30.6758 13.5097 30.9992 13.5097C31.3508 13.5097 31.5266 13.5097 31.5266 13.5097C31.5266 13.5097 31.5946 13.6854 31.7305 14.037L33.2246 17.9112ZM32.4301 17.6019H30.9852V16.7792H32.1137L32.4301 17.6019ZM30.9852 17.6019H29.5086L29.811 16.7792H30.9852V17.6019ZM39.8137 18.0589C39.8137 18.3894 39.8137 18.5546 39.8137 18.5546C39.8137 18.5546 39.6379 18.5546 39.2864 18.5546C38.9418 18.5546 38.7696 18.5546 38.7696 18.5546C38.7696 18.5546 38.677 18.4104 38.4918 18.1222L36.734 15.38H36.6953L36.7199 16.1042V18.0167C36.7199 18.3753 36.7199 18.5546 36.7199 18.5546C36.7199 18.5546 36.5301 18.5546 36.1504 18.5546C35.7707 18.5546 35.5809 18.5546 35.5809 18.5546C35.5809 18.5546 35.5809 18.3753 35.5809 18.0167L35.5774 14.2374C35.5774 13.7593 35.5774 13.5202 35.5774 13.5202C35.5774 13.5202 35.7789 13.5202 36.1821 13.5202C36.5711 13.5202 36.7657 13.5202 36.7657 13.5202C36.7657 13.5202 36.8559 13.6632 37.0364 13.9491L38.7028 16.5718H38.7414L38.7133 15.837V14.0405C38.7133 13.6937 38.7133 13.5202 38.7133 13.5202C38.7133 13.5202 38.8973 13.5202 39.2653 13.5202C39.6309 13.5202 39.8137 13.5202 39.8137 13.5202C39.8137 13.5202 39.8137 13.6937 39.8137 14.0405V18.0589ZM44.2426 18.5546H43.0016C42.6242 18.5546 42.4356 18.5546 42.4356 18.5546C42.4356 18.5546 42.4356 18.3624 42.4356 17.978V14.1003C42.4356 13.7136 42.4356 13.5202 42.4356 13.5202C42.4356 13.5202 42.6242 13.5202 43.0016 13.5202H44.2426C45.0114 13.5202 45.6301 13.7511 46.0989 14.2128C46.5676 14.6722 46.802 15.2792 46.802 16.0339C46.802 16.7933 46.5676 17.4038 46.0989 17.8655C45.6301 18.3249 45.0114 18.5546 44.2426 18.5546ZM43.5887 14.5784V17.528H44.1758C44.6211 17.5327 44.975 17.405 45.2375 17.1448C45.5 16.8823 45.6313 16.5167 45.6313 16.0479C45.6313 15.5815 45.5 15.2206 45.2375 14.9651C44.9774 14.7073 44.6235 14.5784 44.1758 14.5784H43.5887ZM50.2953 18.0132C50.2953 18.3741 50.2953 18.5546 50.2953 18.5546C50.2953 18.5546 50.1055 18.5546 49.7258 18.5546C49.3485 18.5546 49.1598 18.5546 49.1598 18.5546C49.1598 18.5546 49.1598 18.3765 49.1598 18.0202V14.1003C49.1598 13.7136 49.1598 13.5202 49.1598 13.5202C49.1598 13.5202 49.3485 13.5202 49.7258 13.5202H51.1496C51.6488 13.5202 52.0696 13.6679 52.4117 13.9632C52.7539 14.2585 52.925 14.6534 52.925 15.1479C52.925 15.605 52.7621 15.9823 52.4364 16.28C52.1106 16.5753 51.6899 16.7229 51.1742 16.7229H49.6133V15.9003H51.0406C51.2492 15.9003 51.4239 15.8358 51.5645 15.7069C51.7051 15.5757 51.7754 15.4058 51.7754 15.1972C51.7754 15.0073 51.7074 14.8491 51.5715 14.7226C51.4356 14.5937 51.268 14.5292 51.0688 14.5292H50.2953V18.0132ZM51.7121 18.1292L50.5203 16.3011L51.7192 16.2589L52.9742 18.0905C53.1969 18.3999 53.3082 18.5546 53.3082 18.5546C53.3082 18.5546 53.0891 18.5546 52.6508 18.5546C52.2078 18.5546 51.9864 18.5546 51.9864 18.5546C51.9864 18.5546 51.8949 18.4128 51.7121 18.1292ZM57.8207 18.6671C57.0965 18.6671 56.4766 18.4245 55.961 17.9394C55.4477 17.4542 55.191 16.819 55.191 16.0339C55.191 15.2487 55.4489 14.6147 55.9645 14.1319C56.4824 13.6491 57.1012 13.4077 57.8207 13.4077C58.5379 13.4077 59.1543 13.6526 59.6699 14.1425C60.1879 14.63 60.4469 15.2604 60.4469 16.0339C60.4469 16.8026 60.1891 17.4343 59.6735 17.9288C59.1602 18.421 58.5426 18.6671 57.8207 18.6671ZM57.8207 17.5456C58.2403 17.5456 58.5895 17.4026 58.8684 17.1167C59.1496 16.8308 59.2903 16.4698 59.2903 16.0339C59.2903 15.5933 59.1485 15.2323 58.8649 14.9511C58.5836 14.6698 58.2356 14.5292 57.8207 14.5292C57.4059 14.5292 57.0567 14.671 56.7731 14.9546C56.4918 15.2358 56.3512 15.5956 56.3512 16.0339C56.3512 16.4745 56.4907 16.8366 56.7696 17.1202C57.0508 17.4038 57.4012 17.5456 57.8207 17.5456ZM63.992 17.978C63.992 18.3624 63.992 18.5546 63.992 18.5546C63.992 18.5546 63.7951 18.5546 63.4014 18.5546C63.0053 18.5546 62.8073 18.5546 62.8073 18.5546C62.8073 18.5546 62.8073 18.3624 62.8073 17.978V14.0968C62.8073 13.7124 62.8073 13.5202 62.8073 13.5202C62.8073 13.5202 63.0041 13.5202 63.3979 13.5202C63.794 13.5202 63.992 13.5202 63.992 13.5202C63.992 13.5202 63.992 13.7124 63.992 14.0968V17.978ZM68.4203 18.5546H67.1793C66.802 18.5546 66.6133 18.5546 66.6133 18.5546C66.6133 18.5546 66.6133 18.3624 66.6133 17.978V14.1003C66.6133 13.7136 66.6133 13.5202 66.6133 13.5202C66.6133 13.5202 66.802 13.5202 67.1793 13.5202H68.4203C69.1891 13.5202 69.8078 13.7511 70.2766 14.2128C70.7453 14.6722 70.9797 15.2792 70.9797 16.0339C70.9797 16.7933 70.7453 17.4038 70.2766 17.8655C69.8078 18.3249 69.1891 18.5546 68.4203 18.5546ZM67.7664 14.5784V17.528H68.3535C68.7989 17.5327 69.1528 17.405 69.4153 17.1448C69.6778 16.8823 69.809 16.5167 69.809 16.0479C69.809 15.5815 69.6778 15.2206 69.4153 14.9651C69.1551 14.7073 68.8012 14.5784 68.3535 14.5784H67.7664Z" fill="#E9F3EB"/>
<path d="M46.2082 70.9473C46.2082 71.4355 46.2082 71.6797 46.2082 71.6797C46.2082 71.6797 45.9609 71.6797 45.466 71.6797C44.9844 71.6797 44.7433 71.6797 44.7433 71.6797C44.7433 71.6797 44.7433 71.4355 44.7433 70.9473V59.7363L42.3117 61.4746C41.9928 61.7025 41.8332 61.8164 41.8332 61.8164C41.8332 61.8164 41.7062 61.6211 41.4523 61.2305C41.2051 60.8594 41.0812 60.6738 41.0812 60.6738C41.0812 60.6674 41.2506 60.5436 41.5891 60.3027L44.4601 58.2422C44.981 57.858 45.2414 57.666 45.2414 57.666C45.2414 57.666 45.3326 57.666 45.5148 57.666C45.9771 57.666 46.2082 57.666 46.2082 57.666C46.2082 57.666 46.2082 57.9037 46.2082 58.3789V70.9473ZM48.2594 64.4531L49.0601 58.3984C49.1252 57.9297 49.1578 57.6953 49.1578 57.6953C49.1578 57.6953 49.3693 57.6953 49.7926 57.6953H55.5738C56.049 57.6953 56.2867 57.6953 56.2867 57.6953C56.2867 57.6953 56.2867 57.9264 56.2867 58.3887C56.2867 58.8834 56.2867 59.1309 56.2867 59.1309C56.2867 59.1309 56.049 59.1309 55.5738 59.1309H50.2906L49.6461 63.9551L49.6851 63.9648C50.0172 63.6264 50.4435 63.3561 50.9644 63.1543C51.4853 62.9459 52.081 62.8418 52.7516 62.8418C54.0146 62.8418 55.0758 63.2748 55.9351 64.1406C56.7945 65 57.2242 66.0775 57.2242 67.373C57.2242 68.7012 56.7978 69.8047 55.9449 70.6836C55.0986 71.5561 53.9885 71.9922 52.6148 71.9922C51.3844 71.9922 50.3459 71.6797 49.4996 71.0547C48.6533 70.4297 48.0967 69.6973 47.8297 68.8574C47.706 68.4213 47.6441 68.2031 47.6441 68.2031C47.6441 68.2031 47.8687 68.1186 48.318 67.9492C48.7867 67.7734 49.0211 67.6855 49.0211 67.6855C49.0211 67.6855 49.083 67.9166 49.2066 68.3789C49.376 68.8932 49.7471 69.3881 50.3199 69.8633C50.8994 70.3385 51.648 70.5762 52.566 70.5762C53.5685 70.5762 54.3433 70.2897 54.8902 69.7168C55.4371 69.1373 55.7105 68.3658 55.7105 67.4023C55.7105 66.4779 55.4045 65.726 54.7926 65.1465C54.1871 64.567 53.3994 64.2773 52.4293 64.2773C51.8498 64.2773 51.3584 64.3588 50.9547 64.5215C50.551 64.6777 50.2125 64.899 49.9391 65.1855C49.6851 65.4785 49.5582 65.625 49.5582 65.625C49.5582 65.625 49.3271 65.5307 48.8648 65.3418C48.4092 65.1596 48.1812 65.0684 48.1812 65.0684C48.1812 65.0684 48.2072 64.8633 48.2594 64.4531Z" fill="#E9F3EB"/>
<path d="M50.0234 23.6328C48.716 23.6328 47.6562 24.6621 47.6562 25.9318V28.7676C47.6562 29.0127 47.8549 29.2115 48.1002 29.2115C48.3453 29.2115 48.5441 29.0129 48.5441 28.7676V28.0031C48.5441 27.5129 48.9416 27.1154 49.4318 27.1154H50.6154C51.1057 27.1154 51.5031 27.5129 51.5031 28.0031V28.7676C51.5031 29.0127 51.7018 29.2115 51.9471 29.2115C52.1924 29.2115 52.391 29.0129 52.391 28.7676V25.9318C52.391 24.6621 51.3313 23.6328 50.0238 23.6328H50.0234Z" fill="#E9F3EB"/>
<rect width="11" height="62.4594" transform="translate(90.05 39.7903) rotate(30)" fill="white"/>
<rect width="11" height="60.9147" transform="translate(1.12 46.5) rotate(-30)" fill="white"/>
<rect x="33.2" y="80.4998" width="11" height="4" transform="rotate(54.6253 33.2 80.4998)" fill="white"/>
<rect x="36.48" y="85.1616" width="11" height="4" transform="rotate(49.4945 36.48 85.1616)" fill="white"/>
<rect x="36.8" y="86" width="11" height="4" transform="rotate(41.4931 36.8 86)" fill="white"/>
<rect x="40.04" y="89" width="7.88819" height="4" transform="rotate(34.0858 40.04 89)" fill="white"/>
<rect x="56.27" y="91.5889" width="7.88819" height="4" transform="rotate(-35.5736 56.27 91.5889)" fill="white"/>
<rect x="59.6" y="89.2043" width="7.88819" height="4" transform="rotate(-41.2815 59.6 89.2043)" fill="white"/>
<rect x="60.25" y="88.8853" width="7.88819" height="4" transform="rotate(-48.2525 60.25 88.8853)" fill="white"/>
<rect x="20" y="86.5728" width="5.91138" height="4" transform="rotate(-50.673 20 86.5728)" fill="white"/>
<rect x="63.3351" y="85.3645" width="3.83695" height="2.32072" transform="rotate(-53.3662 63.3351 85.3645)" fill="white"/>
<rect x="62.6965" y="86.1433" width="1.76969" height="0.135549" transform="rotate(-51.484 62.6965 86.1433)" fill="white"/>
</g>
<defs>
<clipPath id="clip0_175_372">
<rect width="100" height="100" rx="24" fill="white"/>
</clipPath>
</defs>
</svg>
