<svg width="100" height="100" viewBox="0 0 100 100" fill="none" xmlns="http://www.w3.org/2000/svg">
<rect width="100" height="100" rx="24" fill="white"/>
<g clip-path="url(#clip0_175_358)">
<path d="M49.5 93C72.9721 93 92 73.9721 92 50.5C92 27.0279 72.9721 8 49.5 8C26.0279 8 7 27.0279 7 50.5C7 73.9721 26.0279 93 49.5 93Z" fill="#9C28B1"/>
<path d="M38.875 58.0892C48.9345 58.0892 57.0893 49.9344 57.0893 39.8749C57.0893 29.8155 48.9345 21.6606 38.875 21.6606C28.8155 21.6606 20.6607 29.8155 20.6607 39.8749C20.6607 49.9344 28.8155 58.0892 38.875 58.0892Z" fill="#A235B6"/>
<path d="M47.0836 44.5402V46.0308C48.1931 44.9455 49.6852 44.2761 51.3442 44.2761C54.7806 44.2761 57.537 47.0811 57.537 50.5176C57.537 53.9297 54.7806 56.7226 51.3442 56.7226C49.6852 56.7226 48.266 56.1017 47.1564 55.0635V59.4553H45.4382V44.5393L47.0836 44.5395V44.5402ZM47.3461 48.2034C47.2748 48.3233 47.1549 48.5131 47.1549 48.9305V52.1286C47.1549 52.4276 47.2262 52.5946 47.3219 52.7616C48.1096 54.1094 49.5653 55.0292 51.2121 55.0292C53.706 55.0292 55.7581 52.9892 55.7581 50.4954C55.7581 48.0243 53.706 45.9722 51.2121 45.9722C49.5774 45.9722 48.1339 46.8662 47.3461 48.2034Z" fill="white"/>
<path d="M74.6556 44.5402V46.0308C75.7652 44.9455 77.2572 44.2761 78.9162 44.2761C82.3527 44.2761 85.1091 47.0811 85.1091 50.5176C85.1091 53.9297 82.3527 56.7226 78.9162 56.7226C77.2572 56.7226 75.838 56.1017 74.7285 55.0635L74.7283 59.4553H73.0101V44.5393L74.6556 44.5395V44.5402ZM74.918 48.2034C74.8467 48.3233 74.7268 48.5131 74.7268 48.9305V52.1286C74.7268 52.4276 74.7981 52.5946 74.8938 52.7616C75.6815 54.1094 77.1371 55.0292 78.784 55.0292C81.2779 55.0292 83.33 52.9892 83.33 50.4954C83.33 48.0243 81.2779 45.9722 78.784 45.9722C77.1493 45.9722 75.7058 46.8662 74.918 48.2034Z" fill="white"/>
<path d="M32.7262 50.4819C32.7262 53.9183 29.9454 56.7233 26.5318 56.7233C23.0953 56.7233 20.3025 53.9183 20.3025 50.4819C20.3025 47.0697 23.0938 44.2769 26.5318 44.2769C29.9454 44.2769 32.7262 47.0697 32.7262 50.4819ZM30.9958 50.5061C30.9958 48.0123 29.0028 45.9723 26.5318 45.9723C24.0258 45.9723 22.0693 48.0123 22.0693 50.5061C22.0693 52.9772 24.0258 55.0294 26.5318 55.0294C29.0028 55.0292 30.9958 52.9757 30.9958 50.5061Z" fill="white"/>
<path d="M71.3253 50.4819C71.3253 53.9183 68.5446 56.7233 65.1309 56.7233C61.6945 56.7233 58.9016 53.9183 58.9016 50.4819C58.9016 47.0697 61.693 44.2769 65.1309 44.2769C68.5446 44.2769 71.3253 47.0697 71.3253 50.4819ZM69.5957 50.5061C69.5957 48.0123 67.6027 45.9723 65.1317 45.9723C62.6257 45.9723 60.6692 48.0123 60.6692 50.5061C60.6692 52.9772 62.6257 55.0294 65.1317 55.0294C67.602 55.0292 69.5957 52.9757 69.5957 50.5061Z" fill="white"/>
<path d="M41.762 41.5447H43.4574V43.2872H41.762V41.5447Z" fill="white"/>
<path d="M41.762 44.5273H43.4574V56.4607H41.762V44.5273Z" fill="white"/>
<path d="M16.9268 41.5447H18.6222V56.4607H16.9268V41.5447Z" fill="white"/>
<path d="M34.4095 41.5447H36.1049V56.4607H34.4095V41.5447Z" fill="white"/>
<path d="M38.0857 41.5447H39.7812V56.4607H38.0857V41.5447Z" fill="white"/>
</g>
<defs>
<clipPath id="clip0_175_358">
<rect width="85" height="85" fill="white" transform="translate(7 8)"/>
</clipPath>
</defs>
</svg>
