<svg width="100" height="100" viewBox="0 0 100 100" fill="none" xmlns="http://www.w3.org/2000/svg">
<rect width="100" height="100" rx="24" fill="white"/>
<path d="M44.6582 93H18V39.6667C18 26.8136 25.6676 15.3377 37.5516 10.4243C49.4185 5.51092 62.9686 8.19713 72.0644 17.2929C81.1601 26.3886 83.8463 39.9217 78.9329 51.8057C74.0195 63.6726 62.5266 71.3573 49.6736 71.3573H44.6752V93H44.6582ZM44.6582 44.6651H49.6566C51.6797 44.6651 53.4989 43.458 54.2809 41.5708C55.063 39.7007 54.638 37.5585 53.1928 36.1304C51.7647 34.7023 49.6226 34.2772 47.7524 35.0423C45.8823 35.8244 44.6582 37.6265 44.6582 39.6667V44.6651Z" fill="#75BE5E"/>
<path d="M37.9936 93H24.6645V39.6667C24.6645 29.5169 30.717 20.4552 40.1018 16.5789C49.4696 12.7025 60.1634 14.8277 67.338 22.0023C74.5126 29.1769 76.6378 39.8707 72.7614 49.2385C68.8851 58.6063 59.8064 64.6757 49.6736 64.6757H44.6752V51.3467H49.6736C54.417 51.3467 58.6333 48.5244 60.4524 44.1381C62.2716 39.7687 61.2685 34.7703 57.9192 31.4211C54.57 28.0718 49.5886 27.0857 45.2022 28.8878C40.8329 30.707 37.9936 34.9233 37.9936 39.6667V93Z" fill="white"/>
</svg>
