<svg width="100" height="100" viewBox="0 0 100 100" fill="none" xmlns="http://www.w3.org/2000/svg">
<rect width="100" height="100" rx="24" fill="white"/>
<g clip-path="url(#clip0_175_275)">
<path d="M50.0509 92.6018C45.3475 92.1357 41.8898 91.2459 37.5763 89.4069C37.3983 89.3306 37.2543 89.2967 37.2543 89.3306C37.2543 89.373 37.2204 89.356 37.1865 89.3052C37.1526 89.2543 36.5848 88.9408 35.9153 88.6018C32.9746 87.1272 30.0848 85.1781 27.7712 83.1018C27.2288 82.6188 26.0848 81.5255 25.2204 80.6696C24.3559 79.8221 23.017 78.5001 22.2373 77.7374C21.4576 76.9832 20.839 76.3306 20.8644 76.2967C20.8814 76.2628 20.7204 76.0849 20.5 75.9154C20.2712 75.7374 19.9322 75.4493 19.7373 75.2713C19.5339 75.0933 19.322 74.9493 19.2458 74.9493C19.178 74.9493 19.1271 74.9154 19.1441 74.873C19.1526 74.8306 18.6441 74.2543 18 73.5849C16.0254 71.5001 14.7881 69.9493 13.3983 67.8391C8.28815 60.051 6.16103 50.6696 7.42374 41.4493C8.22035 35.6781 10.3475 30.0933 13.6187 25.2289C17.2458 19.8306 22.3051 15.3476 28.1017 12.4154C31.3305 10.7798 34.9153 9.56791 38.6526 8.84757C42.517 8.11028 47.6102 8.05943 51.661 8.72892C55.5763 9.38147 58.8136 10.4154 62.3814 12.1442C65.3729 13.6018 68.1526 15.4154 70.5593 17.4832C71.4492 18.2459 73.9237 20.7035 74.4746 21.373C74.7542 21.712 75.0085 21.9662 75.0424 21.9408C75.1356 21.8899 77.9322 24.7374 78.7119 25.6866C83.5932 31.5933 86.4915 38.2628 87.4661 45.8221C87.6441 47.2459 87.6441 53.6696 87.4661 55.0933C86.678 61.2035 84.6441 66.695 81.2797 71.7713C80.3814 73.1272 78.8644 75.1103 78.0763 75.9662C77.8051 76.2543 77.7881 76.2882 78.0085 76.0933C78.3559 75.7798 80.0763 73.6526 80.7797 72.6611C85.0593 66.6357 87.5763 59.2628 87.8305 52.0255C88.0339 46.356 87.1865 41.2967 85.178 36.1781C84.661 34.8476 83.178 31.8476 82.4661 30.6781C81.4746 29.034 79.5424 26.2798 79.161 25.9662C79.0932 25.9069 79.0339 25.8221 79.0339 25.7798C79.0339 25.6611 81.0509 27.6188 81.9407 28.6103C82.3475 29.0594 82.7288 29.4154 82.7881 29.3984C82.9322 29.3391 83.1356 29.4916 83.0678 29.6018C83.0339 29.6527 82.9576 29.6696 82.9068 29.6357C82.8559 29.6018 83 29.8137 83.2204 30.1018C83.5339 30.4916 83.6865 30.6272 83.8475 30.6272C84.017 30.6272 84.0339 30.6442 83.9492 30.7543C83.8305 30.8984 83.9068 31.051 84.1017 31.051C84.2034 31.051 84.2119 31.0764 84.1441 31.1188C84.0678 31.1611 84.0932 31.2543 84.2458 31.4408C84.3559 31.5764 84.7288 32.1103 85.0763 32.6188C87.1017 35.6188 88.6865 38.8645 89.8983 42.534C90.1441 43.2798 90.3729 43.9069 90.4153 43.9154C90.4492 43.9323 90.4746 44.0255 90.4746 44.1272C90.4831 44.3137 90.4831 44.3137 90.6017 44.1526C90.6695 44.0594 90.7288 44.0255 90.7288 44.0764C90.7288 44.1357 90.6865 44.2035 90.6441 44.2289C90.5932 44.2628 90.5848 44.3221 90.6102 44.373C90.6441 44.4323 90.6271 44.4408 90.5763 44.4069C90.517 44.373 90.4746 44.3984 90.4746 44.4747C90.4746 44.5594 90.5509 44.6103 90.6865 44.6103C90.839 44.6103 90.9407 44.5255 91.0678 44.2967C91.2288 44.0086 91.2458 44.051 91.1017 44.3899C91.0763 44.4662 91.1187 44.5255 91.2119 44.551C91.3136 44.5764 91.2881 44.5933 91.1356 44.6018C90.9237 44.6103 90.7797 44.7798 90.9831 44.7798C91.0339 44.7798 91.0678 44.8221 91.0678 44.8815C91.0678 44.9323 91.0085 44.9154 90.9153 44.8391C90.6271 44.5764 90.5509 44.7289 90.7627 45.1442C90.8305 45.2713 90.8475 45.373 90.8051 45.373C90.7288 45.373 90.7627 45.6611 90.8729 45.9662C90.8983 46.034 90.9322 46.212 90.9492 46.3476C90.9831 46.5933 91.0424 46.8984 91.0678 46.9832C91.0763 47.0086 91.0763 47.0933 91.0678 47.1866C91.0593 47.2713 91.0848 47.3221 91.1271 47.2967C91.1695 47.2713 91.1865 47.356 91.1695 47.4916C91.1526 47.6357 91.161 47.8137 91.1949 47.8899C91.2373 47.9747 91.2712 48.0849 91.2712 48.1272C91.4237 49.2967 91.4153 49.2543 91.6017 49.2204C91.7712 49.1866 91.7712 49.1866 91.5932 49.2713C91.4576 49.3221 91.4068 49.4069 91.4407 49.5001C91.4661 49.5849 91.5 49.8984 91.5254 50.2035C91.5678 50.712 91.5932 51.2289 91.7034 53.3815C91.7542 54.4154 91.5932 57.6611 91.4407 58.8052C91.3729 59.3221 91.2797 60.0086 91.2373 60.3306C91.1441 60.9832 90.8983 62.1866 90.6017 63.4069C90.4831 63.8815 90.4407 64.2035 90.4915 64.2374C90.5339 64.2713 90.517 64.3476 90.4492 64.4238C90.3814 64.5086 90.2966 64.7035 90.2627 64.8645C90.2288 65.0255 90.161 65.212 90.1187 65.2628C90.0678 65.3221 90.0509 65.4323 90.0848 65.5001C90.1102 65.5679 90.0932 65.6272 90.0593 65.6272C90.017 65.6272 89.8814 65.9408 89.7542 66.3306C89.2881 67.7459 88.3051 70.1188 87.5932 71.5171C85.5763 75.4916 83.5848 78.212 80.2288 81.5594C78.5 83.2882 76.9068 84.6781 75.9153 85.3306C75.678 85.4832 75.5678 85.6103 75.6017 85.695C75.6356 85.7798 75.6017 85.7967 75.517 85.7628C75.4322 85.7374 75.0848 85.9069 74.6441 86.195C70.5 88.8815 67.3559 90.2882 62.5932 91.551C59.6271 92.3391 56.7882 92.6611 52.9746 92.6442C51.5339 92.6357 50.2119 92.6188 50.0509 92.6018ZM49.9915 88.873C49.6526 88.856 49.0932 88.856 48.7627 88.873C48.4237 88.8815 48.6949 88.8984 49.3729 88.8984C50.0509 88.8984 50.322 88.8815 49.9915 88.873ZM74.7627 79.3391L75.0085 79.0594L74.7373 79.3052C74.4746 79.5425 74.4153 79.6103 74.4831 79.6103C74.5 79.6103 74.6187 79.4832 74.7627 79.3391ZM76.5339 77.6611C77.2288 76.9662 77.7797 76.3899 77.7627 76.3899C77.7373 76.3899 77.1441 76.9662 76.4492 77.6611C75.7542 78.3645 75.2034 78.9323 75.2204 78.9323C75.2458 78.9323 75.839 78.3645 76.5339 77.6611Z" fill="#2C292A"/>
<path d="M46.9068 88.8305C44.0847 88.6949 40.3983 88.0085 37.5762 87.1017C33.0169 85.6441 28.4237 83.1271 24.7712 80.0932C23.5 79.0424 20.7966 76.3983 20.8729 76.2797C20.8983 76.2288 21 76.2966 21.0847 76.4153C21.1779 76.5424 21.2966 76.6441 21.3474 76.6441C21.4068 76.6441 21.5 76.7204 21.5593 76.8136C21.6186 76.9068 21.7118 76.9831 21.7796 76.9831C21.8474 76.9831 21.9152 77.0424 21.9491 77.1102C21.9746 77.178 22.0508 77.2373 22.1186 77.2373C22.1779 77.2373 22.2542 77.2966 22.2881 77.3644C22.3135 77.4322 22.3898 77.4916 22.4576 77.4916C22.5169 77.4916 22.5932 77.5509 22.6271 77.6187C22.6525 77.6865 22.7118 77.7458 22.7542 77.7458C22.8051 77.7458 22.9407 77.839 23.0678 77.9577C23.1949 78.0763 23.3474 78.1695 23.4068 78.1695C23.4746 78.1695 23.5254 78.2119 23.5254 78.2543C23.5254 78.3051 23.5678 78.339 23.6101 78.339C23.661 78.339 23.7796 78.4153 23.8813 78.5085C23.983 78.6017 24.1695 78.7288 24.3051 78.7797C24.4322 78.839 24.5423 78.9153 24.5423 78.9492C24.5423 78.9916 24.6017 79.017 24.6695 79.017C24.7373 79.017 24.7966 79.0509 24.7966 79.0848C24.7966 79.1271 24.9576 79.2373 25.161 79.3475C25.3559 79.4492 25.6356 79.6102 25.7712 79.6949C25.9152 79.7882 26.1017 79.9068 26.1949 79.9492C26.2881 80 26.5593 80.1526 26.7881 80.2882C27.339 80.6102 29.0593 81.4746 29.5423 81.678C29.7542 81.7627 30.0762 81.9068 30.2627 81.9916C32.5339 83.0085 36.2966 84.1271 38.9491 84.5678C41.4746 84.9916 42.5423 85.0763 45.4746 85.0678C48.4068 85.0678 49.4915 84.9831 52 84.5593C58.4661 83.4661 64.8474 80.5339 70.0254 76.2712C71.1186 75.3644 74.0169 72.4831 74.8474 71.4746C77.7373 67.9577 79.6864 64.6865 81.2627 60.7119C83.9661 53.8899 84.6525 46.3644 83.2288 39.2288C82.5169 35.661 81.5084 32.7034 79.8898 29.4492C79.144 27.9322 79.0169 27.7034 78.9407 27.678C78.8983 27.661 78.8644 27.6017 78.8644 27.5424C78.8644 27.4831 78.7881 27.3475 78.6949 27.2373C78.6017 27.1271 78.5254 26.9916 78.5254 26.9238C78.5254 26.8644 78.4915 26.8136 78.4491 26.8136C78.4068 26.8136 78.339 26.7288 78.3051 26.6271C78.2712 26.517 78.2288 26.4153 78.1949 26.3899C78.1695 26.3644 78.0678 26.2034 77.983 26.0339C77.8898 25.856 77.7881 25.7119 77.7457 25.7119C77.7118 25.7119 77.6779 25.6526 77.6779 25.5848C77.6779 25.517 77.644 25.4577 77.5932 25.4577C77.5508 25.4577 77.5084 25.3983 77.5084 25.3305C77.5084 25.2627 77.483 25.2034 77.4407 25.2034C77.4068 25.2034 77.3305 25.0932 77.2712 24.9577C77.2118 24.8221 77.0678 24.6102 76.9576 24.4915C76.839 24.3644 76.7457 24.2288 76.7457 24.1865C76.7457 24.1441 76.6949 24.0763 76.6356 24.0424C76.5847 24.0085 76.483 23.8729 76.4152 23.7458C76.3474 23.6187 76.1695 23.3729 76.0084 23.2034C75.8559 23.0339 75.7288 22.8644 75.7288 22.8221C75.7288 22.7882 75.644 22.6949 75.5424 22.6271C75.4407 22.5509 75.3898 22.4916 75.4322 22.4916C75.483 22.4831 75.3898 22.3729 75.2373 22.2458C75.0762 22.1102 74.9915 21.9831 75.0339 21.9492C75.1356 21.8899 77.8729 24.6695 78.7118 25.6865C83.5932 31.5932 86.4915 38.2627 87.4661 45.8221C87.644 47.2458 87.644 53.6695 87.4661 55.0932C87.0847 58.0509 86.4491 60.7204 85.4576 63.4831C85.2712 64.0085 85.1525 64.4831 85.1864 64.5339C85.2203 64.5932 85.2118 64.6102 85.1525 64.5763C85.0424 64.5085 84.9322 64.8221 85.0169 64.9577C85.0508 65.017 85.0424 65.0339 84.9915 65.0085C84.8729 64.9322 84.6779 65.4153 84.7627 65.5509C84.7966 65.6102 84.7881 65.6356 84.7373 65.6017C84.6186 65.5254 84.4237 66.0085 84.5084 66.1441C84.5508 66.2119 84.5339 66.2204 84.4576 66.178C84.3729 66.1271 84.3559 66.1441 84.3983 66.2543C84.4322 66.3305 84.4237 66.3814 84.3813 66.356C84.2881 66.2966 83.7627 67.4831 83.839 67.6017C83.8729 67.6526 83.8474 67.661 83.7796 67.6187C83.6949 67.5678 83.6779 67.5848 83.7288 67.7119C83.7627 67.7966 83.7627 67.839 83.7288 67.8051C83.6356 67.7204 83.0762 68.7458 83.1525 68.8644C83.1949 68.9238 83.1779 68.9322 83.1017 68.8899C83.0169 68.839 83 68.856 83.0424 68.9661C83.0762 69.0424 83.0678 69.0932 83.0339 69.0678C82.9322 69.0085 82.661 69.5085 82.7288 69.6271C82.7627 69.678 82.7542 69.6949 82.7034 69.6695C82.6101 69.6102 82.144 70.3983 82.2118 70.4916C82.2373 70.517 82.2288 70.5254 82.1949 70.5C82.1101 70.4322 81.8983 70.7882 81.9661 70.8983C82 70.9577 81.9915 70.9661 81.9322 70.9322C81.839 70.8729 81.7881 70.9831 81.822 71.161C81.8305 71.2034 81.7966 71.2119 81.7457 71.178C81.661 71.1271 81.6186 71.2543 81.661 71.4322C81.6695 71.4746 81.644 71.4916 81.6101 71.4492C81.5254 71.3729 81.0593 72.0763 81.1271 72.178C81.1525 72.2288 81.1356 72.2373 81.0847 72.2034C80.9915 72.1441 80.9407 72.2543 80.9746 72.4322C80.983 72.4746 80.9491 72.4831 80.8983 72.4492C80.822 72.3983 80.7796 72.517 80.8051 72.6865C80.8135 72.7288 80.7796 72.7373 80.7373 72.7119C80.661 72.661 80.5169 72.8983 80.5508 73.0254C80.5593 73.0678 80.5254 73.0763 80.483 73.0509C80.4068 73 80.2627 73.2373 80.2966 73.3644C80.3051 73.4068 80.2712 73.4153 80.2288 73.3899C80.144 73.339 80.0084 73.5763 80.0424 73.7204C80.0593 73.7627 80.0339 73.7797 80 73.7458C79.9322 73.6695 79.661 74.017 79.6949 74.1271C79.7034 74.1695 79.6779 74.178 79.6356 74.1526C79.5678 74.1102 79.4407 74.2882 79.4237 74.4577C79.4152 74.4831 79.3813 74.5424 79.339 74.5848C79.2966 74.6271 79.2881 74.6017 79.322 74.5254C79.3644 74.4577 79.2966 74.5085 79.1779 74.6526C79.0593 74.7882 78.983 74.9407 79.0169 74.9916C79.0424 75.0339 79.0339 75.0509 78.9915 75.017C78.9237 74.9577 78.6525 75.2543 78.6525 75.3899C78.6525 75.4153 78.6186 75.4746 78.5762 75.517C78.5254 75.5593 78.5254 75.5339 78.5678 75.4577C78.6525 75.3051 78.6695 75.2882 78.1356 75.8814C77.9068 76.1356 77.7966 76.2882 77.8898 76.2204C77.983 76.1526 77.7288 76.4068 77.322 76.7966C76.9152 77.1865 76.5932 77.5509 76.6017 77.6017C76.6101 77.661 76.5762 77.6949 76.5254 77.6865C76.4661 77.678 76.1186 77.9916 75.7373 78.3814C75.3559 78.7797 75.0169 79.1017 74.9746 79.1017C74.9322 79.1017 74.7796 79.2373 74.6356 79.3983C74.4915 79.5593 74.339 79.6949 74.2966 79.6949C74.2542 79.6949 74.1186 79.8136 74.0084 79.9492C73.8898 80.0932 73.7542 80.2034 73.7034 80.2034C73.6525 80.2034 73.5678 80.2797 73.5084 80.3729C73.4491 80.4661 73.3559 80.5424 73.2966 80.5424C73.2373 80.5424 73.144 80.6187 73.0847 80.7119C73.0254 80.8051 72.9237 80.8814 72.8644 80.8814C72.8051 80.8814 72.7373 80.9407 72.7118 81.0085C72.6779 81.0763 72.6017 81.1356 72.5424 81.1356C72.4746 81.1356 72.3983 81.1949 72.3729 81.2627C72.339 81.3305 72.2796 81.3899 72.2203 81.3899C72.1695 81.3899 72.0339 81.4746 71.9152 81.5848C71.7966 81.6865 71.6017 81.8221 71.483 81.8814C71.3559 81.9492 71.161 82.0932 71.0424 82.2034C70.9237 82.3136 70.7796 82.4068 70.7288 82.4068C70.6864 82.4068 70.644 82.4322 70.644 82.4746C70.644 82.5085 70.5254 82.5848 70.3898 82.6441C70.2457 82.7119 70.0847 82.8051 70.0254 82.856C69.8644 83.0085 69.6017 83.1695 69.4407 83.2204C69.3559 83.2543 69.2881 83.3051 69.2881 83.339C69.2881 83.3729 69.1949 83.4322 69.0762 83.4577C68.9576 83.4916 68.8644 83.5509 68.8644 83.5932C68.8644 83.6441 68.8135 83.678 68.7542 83.678C68.6949 83.678 68.5678 83.7373 68.483 83.8051C68.2288 83.9916 65.9576 85.1695 65.2118 85.4916C65.0084 85.5848 64.7288 85.7119 64.5847 85.7797C63.6779 86.2119 60.6186 87.2543 59.1101 87.6526C57.0847 88.178 54.8983 88.5593 52.7203 88.7627C51.4915 88.8729 48.4915 88.9153 46.9068 88.8305Z" fill="#413C3E"/>
<path d="M45.2373 79.4323L45.2627 76.5171L46.2542 76.4917C47.2288 76.4662 47.2542 76.4747 47.2881 76.6612C47.3559 76.9917 47.6271 82.1527 47.5763 82.1951C47.5508 82.2205 47.0085 82.2713 46.3729 82.2968L45.2203 82.3476L45.2373 79.4323Z" fill="#413C3E"/>
<path d="M42 82.1356C41.5085 82.0932 41.0847 82.0254 41.0424 81.9915C41.0085 81.9576 41.1441 80.661 41.339 79.1102L41.7034 76.2966L42.5508 76.356C43.0169 76.3814 43.4153 76.4237 43.4237 76.4407C43.4661 76.4661 43.1017 81.9831 43.0593 82.1356C43.0339 82.1865 42.9915 82.2288 42.9576 82.2288C42.9237 82.2204 42.4915 82.178 42 82.1356Z" fill="#413C3E"/>
<path d="M49.678 81.8813C49.5932 81.4915 49.0254 76.3728 49.0593 76.3389C49.1356 76.2627 50.6864 76.0593 50.7373 76.1186C50.7966 76.1779 51.7458 81.4237 51.7458 81.6525C51.7458 81.7457 51.5508 81.805 50.9661 81.8898C50.5339 81.9406 50.0763 82.0084 49.9491 82.0339C49.7627 82.0762 49.7119 82.0423 49.678 81.8813Z" fill="#413C3E"/>
<path d="M37.7288 81.4407C37.2627 81.339 36.8729 81.2204 36.8559 81.1695C36.822 81.0763 38.1356 75.7373 38.2034 75.661C38.2288 75.6441 38.6102 75.7119 39.0593 75.8136C39.678 75.9492 39.8814 76.0254 39.8814 76.1271C39.8814 76.2034 39.6525 77.4661 39.3729 78.9322C39.0932 80.3983 38.8644 81.6102 38.8644 81.6187C38.8644 81.6695 38.5169 81.6187 37.7288 81.4407Z" fill="#413C3E"/>
<path d="M53.161 78.5424C52.7966 77.0254 52.5169 75.7627 52.5339 75.7458C52.6017 75.678 54.1356 75.2797 54.1779 75.3136C54.2627 75.4068 55.822 80.6525 55.7881 80.7458C55.7542 80.8305 54.1356 81.3051 53.8983 81.3051C53.8559 81.3051 53.5254 80.0593 53.161 78.5424Z" fill="#413C3E"/>
<path d="M33.7627 80.2967C33.2542 80.1188 32.8305 79.9577 32.8051 79.9323C32.7796 79.9069 33.2203 78.6865 33.7881 77.212L34.8135 74.5425L35.6271 74.8221C36.0847 74.9747 36.4491 75.1357 36.4407 75.1696C36.4237 75.356 34.7457 80.6272 34.7118 80.6188C34.6864 80.6188 34.2627 80.4747 33.7627 80.2967Z" fill="#413C3E"/>
<path d="M56.9068 77.4746C56.3729 76.017 55.9407 74.7966 55.9407 74.7543C55.9407 74.7119 56.2966 74.5339 56.7288 74.356L57.5169 74.0339L57.6864 74.4238C57.7797 74.6441 58.2966 75.8221 58.839 77.0509C59.3729 78.2797 59.7966 79.2966 59.7797 79.3136C59.7458 79.3475 57.9407 80.1187 57.8983 80.1187C57.8814 80.1187 57.4407 78.9238 56.9068 77.4746Z" fill="#413C3E"/>
<path d="M29.822 78.6525C29.339 78.4153 28.9492 78.178 28.9492 78.1356C28.9492 78.0508 31.4746 73.2458 31.5678 73.161C31.5932 73.1356 31.9661 73.2712 32.3983 73.4746L33.178 73.8475L32.6441 75.0085C32.3559 75.6525 31.8136 76.839 31.4492 77.6441C31.0848 78.4407 30.7627 79.1017 30.7373 79.0932C30.7119 79.0932 30.2966 78.8983 29.822 78.6525Z" fill="#413C3E"/>
<path d="M60.4322 75.9491C59.7288 74.5847 59.1525 73.4321 59.1356 73.3728C59.1186 73.322 59.4407 73.0931 59.8475 72.8728C60.4491 72.5423 60.5932 72.4915 60.678 72.5847C60.8305 72.7542 63.5508 77.4152 63.5085 77.4491C63.4661 77.4915 61.7627 78.4237 61.7288 78.4237C61.7119 78.4237 61.1271 77.3135 60.4322 75.9491Z" fill="#413C3E"/>
<path d="M26.1864 76.5933C25.7288 76.2798 25.339 76.0171 25.322 76.0086C25.2881 75.9832 28.1271 71.8391 28.4237 71.4747L28.5847 71.2798L29.2457 71.695C29.6102 71.9239 29.9407 72.1357 29.983 72.1611C30.0424 72.2035 27.6779 76.2205 27.1271 77.0001C27.0424 77.1357 26.9491 77.0933 26.1864 76.5933Z" fill="#413C3E"/>
<path d="M63.7457 73.9322C62.8813 72.6272 62.1695 71.5339 62.1779 71.5C62.1779 71.4577 62.4915 71.2204 62.8644 70.9492L63.5508 70.4746L64.144 71.2458C66.0508 73.7373 67 75.0509 66.9576 75.1187C66.9152 75.1865 65.7203 76.0678 65.4237 76.2458C65.3644 76.2797 64.7203 75.3814 63.7457 73.9322Z" fill="#413C3E"/>
<path d="M22.9407 74.2119C22.517 73.8645 22.1695 73.5425 22.1695 73.5001C22.1695 73.4662 23.0085 72.4747 24.0424 71.3052C25.7119 69.4069 25.9322 69.1865 26.0593 69.2967C26.3136 69.5086 27.2119 70.2374 27.2458 70.2628C27.2627 70.2713 26.4746 71.3052 25.4915 72.5679L23.7203 74.856L22.9407 74.2119Z" fill="#413C3E"/>
<path d="M66.8474 71.551L64.9661 69.3476L65.483 68.8645C65.7711 68.6018 66.0678 68.3391 66.144 68.2883C66.2542 68.212 66.6017 68.5255 68.2203 70.195C69.2881 71.2967 70.1779 72.2374 70.1949 72.2883C70.2118 72.3391 69.8898 72.695 69.4745 73.0679L68.7288 73.7544L66.8474 71.551Z" fill="#413C3E"/>
<path d="M19.7797 71.2711C19.4153 70.8728 19.1187 70.5338 19.1187 70.5084C19.1187 70.4491 23.2712 66.7288 23.339 66.7288C23.3729 66.7288 23.661 66.9915 23.9831 67.3135L24.5678 67.9067L22.6017 69.9237C21.517 71.0338 20.5848 71.9491 20.5339 71.966C20.4746 71.9745 20.1356 71.661 19.7797 71.2711Z" fill="#413C3E"/>
<path d="M39.7542 71.6441C38.1102 71.3136 36.7542 70.1272 36.1356 68.4577C35.9492 67.9831 35.9407 67.8136 35.9153 65.017L35.8898 62.0679H35.5593C34.2881 62.0679 32.8136 60.9492 32.3051 59.5933L32.1525 59.2035L31.6695 59.4916C28.9153 61.1611 25.2373 59.6441 24.5 56.5424C24.3136 55.7374 24.3136 41.4153 24.5 40.6696C24.7034 39.856 25.1271 39.1272 25.7288 38.5085C26.3983 37.8306 27.0169 37.4577 27.8983 37.2374C29.1356 36.9153 30.5847 37.1018 31.5932 37.7035L32.0847 37.9916V36.8645C32.0847 33.7543 33.2458 30.6526 35.2966 28.2713L35.8305 27.6526L35.1271 26.9153C34.2458 25.9831 34.0085 25.5001 34.0085 24.6102C34.0085 23.7967 34.2373 23.1696 34.7458 22.6357C35.678 21.6611 37.1271 21.4238 38.2119 22.0509C38.4237 22.178 39.1186 22.7628 39.7458 23.3645L40.8814 24.4408L41.9068 24.1526C43.339 23.7374 44.0593 23.6441 45.6017 23.6441C47.1017 23.6441 47.5508 23.7119 49.1441 24.1526L50.2288 24.4577L51.4322 23.2797C52.822 21.9153 53.178 21.7119 54.2373 21.7119C54.7373 21.7119 54.9068 21.7543 55.4407 22.017C57 22.7967 57.5339 24.6526 56.6017 26.0933C56.4746 26.2797 56.1102 26.7119 55.7881 27.0424L55.1949 27.6611L55.5254 28.017C56.5847 29.178 57.5763 30.7882 58.1271 32.2797C58.6525 33.695 58.9068 34.9916 59 36.7967C59.0254 37.4069 59.0678 37.9153 59.0847 37.9153C59.0932 37.9153 59.2881 37.8052 59.5169 37.6611C59.7373 37.5255 60.2458 37.3306 60.6441 37.2289C62.8475 36.6696 65.1017 37.6441 66.1356 39.6018C66.6864 40.6272 66.6695 40.3475 66.6441 48.8221L66.6186 56.517L66.4237 57.0255C65.8305 58.5848 64.4831 59.7374 62.8475 60.0848C61.6949 60.3306 60.3305 60.0933 59.3729 59.4916L58.9153 59.2035L58.7203 59.6696C58.1949 60.9662 56.9576 61.9238 55.6695 62.0424L55.1356 62.0933V64.8136C55.1356 67.8814 55.0932 68.2119 54.5678 69.2119C53.5763 71.0933 51.322 72.0933 49.2119 71.6018C47.4322 71.178 45.9492 69.6611 45.6271 67.9323L45.5254 67.3899L45.4153 67.9323C45.2373 68.8136 44.7712 69.6526 44.0847 70.3306C43.7542 70.6611 43.2881 71.0255 43.0424 71.1611C42.1525 71.6357 40.7542 71.8391 39.7542 71.6441ZM41.9322 69.5085C42.4492 69.2713 43.0339 68.7289 43.2712 68.2543C43.5763 67.6526 43.6102 67.1441 43.6102 63.5933V60.1187H45.5085H47.4153L47.4407 63.8306C47.4661 67.4408 47.4746 67.5424 47.661 68.0085C47.8983 68.6018 48.5 69.2289 49.1186 69.517C49.7458 69.8136 50.8983 69.8306 51.5085 69.5509C52.0678 69.2967 52.7034 68.6696 52.9407 68.1441C53.1441 67.7035 53.1441 67.6696 53.1864 63.9323L53.2288 60.1611L54.5424 60.1187C55.839 60.0763 55.8644 60.0763 56.2119 59.8221C56.4068 59.6865 56.678 59.3814 56.8051 59.1441L57.0424 58.7204L57.0678 48.873L57.0847 39.017H45.5169H33.9492L33.9661 48.873C33.9915 58.2967 34 58.7374 34.1525 59.017C34.2373 59.178 34.4068 59.4238 34.5339 59.5509C34.9576 60.017 35.161 60.0763 36.5339 60.1187L37.8051 60.1611L37.8475 63.9323C37.8898 67.5424 37.8983 67.7204 38.0678 68.0933C38.4068 68.8306 39.1271 69.4577 39.8644 69.6696C40.4661 69.8391 41.3644 69.7628 41.9322 69.5085ZM30.3898 57.9408C31.2881 57.5424 31.839 56.7967 32 55.7374C32.0593 55.3475 32.0847 52.8221 32.0678 48.2119L32.0424 41.2628L31.8475 40.7882C31.6017 40.1865 31.0169 39.5763 30.4068 39.2882C29.9915 39.0933 29.8136 39.0594 29.161 39.0594C28.5169 39.0594 28.322 39.0933 27.9322 39.2797C27.3729 39.5424 26.822 40.0763 26.5593 40.6102L26.3644 41.0085V48.6357V56.2628L26.6102 56.7119C27.3559 58.0594 28.9661 58.5848 30.3898 57.9408ZM63.1017 57.9492C63.7119 57.6696 64.2203 57.1696 64.5169 56.5255L64.7542 56.0085V48.6357V41.2628L64.5593 40.7797C64.3136 40.1611 63.7458 39.5848 63.1186 39.2882C62.7034 39.0933 62.5254 39.0594 61.8729 39.0594C61.2288 39.0594 61.0424 39.0933 60.6441 39.2797C60.0847 39.5509 59.6017 40.0085 59.3051 40.5848L59.0763 41.0085L59.0508 48.4831C59.0339 55.8052 59.0339 55.9577 59.2034 56.4069C59.7712 57.9238 61.5593 58.6272 63.1017 57.9492ZM57.0339 36.4153C56.9492 35.2967 56.7542 34.2713 56.4322 33.3391C55.8051 31.4831 54.983 30.2119 53.4746 28.7119L52.4322 27.6865L52.8136 27.3136C53.0254 27.1102 53.6186 26.4916 54.1356 25.9492C54.9153 25.1187 55.0763 24.8984 55.1102 24.6272C55.1441 24.3475 55.1186 24.2543 54.8898 23.9916C54.5678 23.6272 54.2373 23.5424 53.8559 23.7035C53.6949 23.7713 52.9237 24.4831 52.1271 25.2797C51.339 26.0763 50.6356 26.7289 50.5763 26.7289C50.5169 26.7289 50.3305 26.6611 50.1525 26.5679C49.5508 26.2628 48.0508 25.8136 47.2034 25.678C45.1356 25.3475 42.9915 25.6441 41 26.5255C40.7458 26.6357 40.4915 26.7289 40.4407 26.7289C40.3898 26.7289 39.6525 26.034 38.8051 25.1865C37.2712 23.6611 37.2712 23.6526 36.8814 23.6441C36.5508 23.6357 36.4576 23.678 36.2203 23.9153C35.9915 24.1441 35.9407 24.2543 35.9407 24.5679C35.9407 24.9408 35.9492 24.9577 37.2966 26.3052L38.6441 27.6526L37.6695 28.6102C36.2627 29.9831 35.5 31.0848 34.8729 32.6272C34.3475 33.9153 34.1186 34.9662 34 36.5424L33.9661 37.0679H45.5254H57.0847L57.0339 36.4153Z" fill="#413C3E"/>
<path d="M40.144 33.5254C39.983 33.4491 39.7711 33.2796 39.6864 33.1525C39.4576 32.8474 39.3983 32.0932 39.5678 31.7627C40.1186 30.7034 41.5932 30.8135 41.9067 31.9491C42.0423 32.4322 42.0169 32.661 41.805 33.0339C41.4661 33.6271 40.7457 33.8389 40.144 33.5254Z" fill="#413C3E"/>
<path d="M49.7288 33.339C49.5763 33.2457 49.3813 33.0508 49.2881 32.8983C48.9491 32.339 49.1441 31.5847 49.7288 31.2118C50.1186 30.9746 50.8135 31.0254 51.1186 31.3135C51.983 32.1186 51.5 33.5085 50.3474 33.5085C50.161 33.5085 49.8898 33.4322 49.7288 33.339Z" fill="#413C3E"/>
<path d="M69.6101 68.7796L67.5254 66.8644L68.0762 66.2288C68.3728 65.8729 68.6525 65.5847 68.6949 65.5847C68.7966 65.5847 73.1017 69.1017 73.1017 69.1864C73.1017 69.2796 71.839 70.7118 71.7627 70.7034C71.7288 70.7034 70.7627 69.839 69.6101 68.7796Z" fill="#413C3E"/>
<path d="M17.0254 68.0338L16.4152 67.2118L16.7288 66.9915C18.4152 65.7796 21.0678 63.9321 21.1271 63.9321C21.161 63.9321 21.4152 64.2372 21.6864 64.6101L22.1864 65.2965L21.983 65.4491C19.2034 67.6694 17.7118 68.8474 17.6779 68.8474C17.6525 68.8474 17.3559 68.483 17.0254 68.0338Z" fill="#413C3E"/>
<path d="M72.1695 65.9154C70.9831 65.051 69.9407 64.2967 69.8559 64.2374C69.7203 64.1357 69.7458 64.0764 70.161 63.4577C70.4068 63.0933 70.6356 62.7713 70.678 62.7544C70.7288 62.7289 74.6017 65.1188 75.5 65.7205C75.5763 65.7713 74.4746 67.4916 74.3729 67.4916C74.3475 67.4832 73.3559 66.7798 72.1695 65.9154Z" fill="#413C3E"/>
<path d="M14.6949 64.5086C14.4237 64.0255 14.2373 63.6103 14.2712 63.5764C14.3051 63.5425 15.4322 62.9238 16.7881 62.195L19.2458 60.8645L19.3729 61.0594C19.4407 61.1611 19.6441 61.5086 19.822 61.8221L20.1356 62.3984L19.822 62.6018C17.3305 64.1442 15.3136 65.373 15.2542 65.373C15.2119 65.373 14.9576 64.9831 14.6949 64.5086Z" fill="#413C3E"/>
<path d="M74.2457 62.7372C72.9915 62.0338 71.8728 61.4067 71.7711 61.3389L71.5762 61.2203L71.9576 60.4491C72.1695 60.0254 72.3813 59.6949 72.4152 59.7118C72.4576 59.7288 73.6356 60.2881 75.0423 60.9576L77.5847 62.1864L77.1101 63.1016C76.8474 63.6016 76.6101 64.0169 76.5847 64.0169C76.5593 64.0169 75.5084 63.4406 74.2457 62.7372Z" fill="#413C3E"/>
<path d="M13.0763 61.3305C12.9576 61.1101 12.7712 60.6864 12.6525 60.3898L12.4322 59.8559L12.6186 59.7881C12.7203 59.7457 13.8729 59.2881 15.178 58.7627C16.483 58.2372 17.6102 57.7881 17.678 57.7711C17.7712 57.7457 17.8983 57.9491 18.1356 58.5084C18.3135 58.9406 18.4322 59.3135 18.3898 59.3474C18.322 59.4067 13.6864 61.5847 13.3813 61.7033C13.322 61.7288 13.1864 61.5593 13.0763 61.3305Z" fill="#413C3E"/>
<path d="M75.7288 59.1357C74.3559 58.5679 73.1949 58.0848 73.161 58.0679C73.0593 58.0255 73.7118 56.3814 73.8135 56.4153C73.8644 56.4323 75.0932 56.8645 76.5508 57.3645L79.1949 58.2712L78.9491 58.9238C78.5593 59.9831 78.4576 60.2034 78.339 60.195C78.2796 60.1865 77.1017 59.7119 75.7288 59.1357Z" fill="#413C3E"/>
<path d="M11.4152 56.9239C11.2712 56.4154 11.1525 55.9662 11.1525 55.9069C11.1525 55.7883 11.178 55.7798 14.322 54.9493C15.5763 54.6188 16.6271 54.373 16.661 54.4154C16.7118 54.4747 16.8051 54.7629 17.1356 55.8985C17.1695 56.0171 16.7796 56.1696 14.6102 56.8815C13.1949 57.3476 11.9576 57.7459 11.8644 57.7798C11.6949 57.8307 11.661 57.7629 11.4152 56.9239Z" fill="#413C3E"/>
<path d="M77.0169 55.4576C75.5593 55.0508 74.3475 54.6949 74.322 54.6695C74.2542 54.6102 74.6441 53 74.7203 53C74.8559 53 80.2373 54.178 80.2797 54.2119C80.3475 54.2881 79.8475 56.161 79.7542 56.1864C79.7119 56.1949 78.4746 55.8729 77.0169 55.4576Z" fill="#413C3E"/>
<path d="M10.4491 52.8813C10.3729 52.3983 10.3051 51.9322 10.3051 51.839C10.3051 51.6949 10.5593 51.6441 13.1101 51.2796C14.6525 51.0508 15.9322 50.8898 15.9576 50.9152C15.983 50.9407 16.0678 51.3305 16.1525 51.7796C16.2457 52.339 16.2627 52.6017 16.2034 52.6186C16.1186 52.6525 10.661 53.7627 10.6101 53.7627C10.6017 53.7627 10.5254 53.3644 10.4491 52.8813Z" fill="#413C3E"/>
<path d="M77.7288 51.6357C76.2881 51.4068 75.0932 51.2035 75.0677 51.1865C75.0169 51.1357 75.144 49.6441 75.2118 49.5424C75.2627 49.4662 80.8389 49.9407 80.9237 50.034C80.9491 50.0594 80.9152 50.4746 80.8474 50.9662C80.7881 51.4577 80.7372 51.9068 80.7288 51.9662C80.7288 52.1102 80.6694 52.1018 77.7288 51.6357Z" fill="#413C3E"/>
<path d="M87.8729 50.839C87.8729 50.6102 87.8898 50.5169 87.9068 50.6525C87.9237 50.7797 87.9237 50.9661 87.9068 51.0763C87.8898 51.178 87.8729 51.0763 87.8729 50.839Z" fill="#413C3E"/>
<path d="M87.8729 49.9491C87.8729 49.6949 87.8898 49.5847 87.9068 49.7203C87.9237 49.8474 87.9237 50.0508 87.9068 50.1864C87.8898 50.3135 87.8729 50.2034 87.8729 49.9491Z" fill="#413C3E"/>
<path d="M10.0254 49.3898C9.9915 49.2542 9.96608 48.7796 9.94913 48.3389L9.92371 47.5339L11.4491 47.483C12.2881 47.4491 13.5932 47.4237 14.3559 47.4152L15.7288 47.4067V47.7796C15.7288 47.9745 15.7542 48.3728 15.7796 48.644L15.8305 49.1525L13.4322 49.3389C12.1101 49.4491 10.8135 49.5593 10.5508 49.5847C10.0762 49.6356 10.0678 49.6271 10.0254 49.3898Z" fill="#413C3E"/>
<path d="M77.5084 47.7373C76.6949 47.7118 75.8644 47.6779 75.6695 47.6695L75.3051 47.661V46.7796V45.8983L76.6864 45.8474C77.4406 45.822 78.7288 45.7796 79.5508 45.7542L81.0423 45.7034L81.0847 46.2373C81.1101 46.5339 81.1101 47.0085 81.0847 47.3051L81.0423 47.8305L80.0169 47.8135C79.4576 47.8051 78.322 47.7712 77.5084 47.7373Z" fill="#413C3E"/>
<path d="M12.0424 45.4576C11.2966 45.4237 10.5169 45.3898 10.3136 45.3813L9.94067 45.3728L9.99152 44.3389C10.0254 43.7711 10.0593 43.2966 10.0763 43.2881C10.0932 43.2711 11.3729 43.3813 12.9322 43.5339C16.1864 43.8474 15.8644 43.7034 15.7712 44.8389L15.7119 45.5423L14.5593 45.5254C13.9153 45.5169 12.7881 45.483 12.0424 45.4576Z" fill="#413C3E"/>
<path d="M75.1949 43.8305C75.161 43.678 75.1186 43.2797 75.0847 42.9577L75.0339 42.3644L77.8559 41.9661C79.7457 41.6949 80.6949 41.5932 80.7288 41.6526C80.7881 41.7458 81.0085 43.6017 80.9661 43.6356C80.9407 43.6526 75.5169 44.1017 75.339 44.1017C75.2796 44.1017 75.2203 43.9746 75.1949 43.8305Z" fill="#413C3E"/>
<path d="M13.2288 41.6102C11.7373 41.3644 10.4745 41.1525 10.4237 41.1271C10.3305 41.0932 10.6356 39.2542 10.7542 39.1271C10.7966 39.0847 16.3051 40.2458 16.3728 40.3135C16.3898 40.322 16.3474 40.5763 16.2796 40.8813C16.2203 41.1864 16.144 41.5763 16.1186 41.7542C16.0847 41.9237 16.0339 42.0593 16 42.0593C15.9661 42.0508 14.7203 41.8474 13.2288 41.6102Z" fill="#413C3E"/>
<path d="M74.6695 40.4408C74.644 40.3306 74.5508 39.9493 74.4661 39.5934L74.3135 38.9323L74.661 38.8391C78.644 37.7544 79.8983 37.4408 79.9322 37.5256C79.9915 37.6781 80.3898 39.4747 80.3644 39.4917C80.339 39.5171 74.8898 40.6273 74.7966 40.6273C74.7542 40.6273 74.6949 40.5425 74.6695 40.4408Z" fill="#413C3E"/>
<path d="M13.9067 37.7458C12.4576 37.339 11.2881 36.9661 11.2881 36.9322C11.3474 36.5678 11.8728 35.0339 11.9406 35.0339C12.0254 35.0339 17.2627 36.8136 17.3305 36.8644C17.3389 36.8814 17.2372 37.2543 17.0847 37.695C16.8898 38.2966 16.7796 38.5085 16.6779 38.5C16.6016 38.5 15.3559 38.1611 13.9067 37.7458Z" fill="#413C3E"/>
<path d="M73.5 36.4067C73.3305 35.9576 73.2034 35.5847 73.2118 35.5762C73.2203 35.5677 74.4237 35.0847 75.8813 34.4999L78.5339 33.4321L78.6695 33.7457C79.0847 34.7457 79.2796 35.3813 79.1779 35.4152C79.1271 35.4406 77.8898 35.8559 76.4406 36.3389L73.7966 37.2203L73.5 36.4067Z" fill="#413C3E"/>
<path d="M15.3898 34.144C14.0169 33.5677 12.839 33.0677 12.7797 33.0254C12.6864 32.9745 12.7373 32.7881 13.0169 32.161C13.2034 31.7203 13.3983 31.2966 13.4407 31.2118C13.5169 31.0762 13.7881 31.1949 16.0424 32.2966C17.4322 32.966 18.5932 33.5508 18.6356 33.5847C18.6949 33.644 18.0254 35.2118 17.9407 35.1949C17.9152 35.1949 16.7627 34.7203 15.3898 34.144Z" fill="#413C3E"/>
<path d="M72.0763 33.1779C71.8729 32.7796 71.6949 32.4237 71.678 32.3983C71.6695 32.3728 72.7881 31.7288 74.1695 30.9661C76.5339 29.661 76.6949 29.5932 76.7966 29.7372C76.9661 29.9745 77.6949 31.3983 77.661 31.4322C77.6356 31.4661 74.0763 33.1694 73.0508 33.6355L72.4492 33.9152L72.0763 33.1779Z" fill="#413C3E"/>
<path d="M16.983 30.6018C15.2288 29.6103 14.5593 29.195 14.5932 29.1103C14.6101 29.0425 14.8474 28.6273 15.1101 28.195C15.5593 27.4408 15.5847 27.4069 15.7627 27.5171C18.1525 29.0256 20.3898 30.5001 20.3898 30.5595C20.3898 30.7035 19.5847 31.9747 19.5 31.9747C19.4576 31.9747 18.322 31.3561 16.983 30.6018Z" fill="#413C3E"/>
<path d="M70.3136 30.1527C70.0593 29.7544 69.8898 29.3985 69.9322 29.3646C70.178 29.1442 74.4576 26.1357 74.5254 26.1357C74.6102 26.1357 75.6441 27.6696 75.6441 27.7883C75.6441 27.8646 71.0424 30.7968 70.8475 30.8476C70.8051 30.8646 70.5678 30.551 70.3136 30.1527Z" fill="#413C3E"/>
<path d="M19.0338 27.534C17.805 26.6272 16.7796 25.856 16.7627 25.8136C16.7457 25.7458 17.7711 24.3221 17.9237 24.2373C17.9745 24.2034 21.7627 27.2034 22.4067 27.7882C22.4406 27.8221 21.4067 29.1357 21.3305 29.1611C21.305 29.1695 20.2711 28.4323 19.0338 27.534Z" fill="#413C3E"/>
<path d="M68.1695 27.3137L67.6017 26.6527L69.7542 24.7035L71.8983 22.7544L72.5424 23.5256C72.8983 23.9578 73.1864 24.3307 73.1864 24.3646C73.1864 24.4069 69.3051 27.568 68.822 27.9154C68.7712 27.9578 68.483 27.6866 68.1695 27.3137Z" fill="#413C3E"/>
<path d="M21.5339 24.4916C20.4237 23.4493 19.5 22.5679 19.483 22.5255C19.4661 22.4832 19.7712 22.1272 20.161 21.7459L20.8644 21.0425L21.8813 22.0849C22.4322 22.6526 23.339 23.5849 23.8813 24.1442L24.8813 25.1696L24.2627 25.7798C23.9237 26.1188 23.6271 26.3899 23.6102 26.3815C23.5847 26.3815 22.6525 25.5255 21.5339 24.4916Z" fill="#413C3E"/>
<path d="M65.6949 24.7373L65.0593 24.1441L66.9068 22.0339C67.9237 20.8644 68.7881 19.9068 68.839 19.8898C68.8814 19.8729 69.2542 20.178 69.661 20.5593L70.3983 21.2627L68.3644 23.2966L66.339 25.3305L65.6949 24.7373Z" fill="#413C3E"/>
<path d="M24.3559 21.7967C23.3474 20.6187 22.5169 19.6187 22.5085 19.5848C22.5 19.5424 22.8474 19.2289 23.2796 18.8814C23.9152 18.3814 24.0932 18.2712 24.1779 18.356C24.2288 18.4153 25.0169 19.4577 25.9237 20.6611L27.5678 22.856L26.9237 23.3899C26.5678 23.6865 26.2627 23.9323 26.2288 23.9323C26.2034 23.9323 25.3644 22.9661 24.3559 21.7967Z" fill="#413C3E"/>
<path d="M63.0593 22.5593C62.7372 22.3305 62.4152 22.0932 62.3559 22.0339C62.2627 21.9492 62.5339 21.5 63.822 19.5848C64.6949 18.2882 65.4491 17.2373 65.5 17.2373C65.5593 17.2373 65.9576 17.5 66.3813 17.8136L67.1694 18.3983L65.4237 20.678C64.4661 21.9322 63.6694 22.9661 63.6694 22.9661C63.661 22.9746 63.3898 22.7882 63.0593 22.5593Z" fill="#413C3E"/>
<path d="M27.4576 19.4491C26.5932 18.144 25.9068 17.0423 25.9322 16.9915C26.0339 16.8389 27.5254 15.9491 27.6271 15.9915C27.7119 16.0254 30.3983 20.627 30.4576 20.8389C30.4746 20.9152 29.7797 21.4067 29.1441 21.7626C29.0763 21.805 28.5085 21.0254 27.4576 19.4491Z" fill="#413C3E"/>
<path d="M60.0932 20.6611C59.7203 20.4492 59.3983 20.2628 59.3813 20.2458C59.3559 20.2204 61.7881 15.5255 61.983 15.2204C62.0423 15.1357 62.2627 15.2289 62.9321 15.6018C63.4067 15.873 63.805 16.1272 63.805 16.1696C63.8135 16.2967 60.9406 21.0425 60.8559 21.0425C60.8135 21.0425 60.466 20.873 60.0932 20.6611Z" fill="#413C3E"/>
<path d="M30.7288 17.5255C30.0085 16.1103 29.4407 14.9408 29.4661 14.9153C29.5847 14.7882 31.2881 14.0425 31.339 14.0933C31.4407 14.1865 33.6102 19.2204 33.5847 19.2967C33.5763 19.3391 33.2203 19.534 32.7966 19.7374L32.0424 20.0848L30.7288 17.5255Z" fill="#413C3E"/>
<path d="M56.8983 19.1187C56.483 18.9577 56.1525 18.7798 56.1525 18.7374C56.1525 18.5764 58.1271 13.4238 58.1949 13.4238C58.3559 13.4238 60.0932 14.1781 60.0763 14.2374C60.0339 14.4662 57.7712 19.3984 57.7118 19.4069C57.6695 19.4154 57.3051 19.2882 56.8983 19.1187Z" fill="#413C3E"/>
<path d="M35.305 18.6441C35.305 18.6356 34.8644 17.4238 34.3305 15.9661C33.7966 14.5 33.3813 13.2797 33.4237 13.2458C33.5508 13.1187 35.2542 12.5763 35.3135 12.6356C35.3644 12.6949 36.9067 17.7882 36.9491 18.0339C36.9491 18.0678 36.5847 18.2288 36.1356 18.3814C35.6779 18.5424 35.305 18.6526 35.305 18.6441Z" fill="#413C3E"/>
<path d="M53.5338 17.9578C53.144 17.8391 52.805 17.7374 52.7881 17.712C52.7118 17.6357 54.0932 12.2035 54.1949 12.1696C54.3643 12.1103 56.161 12.6781 56.1271 12.7798C56.1101 12.8306 55.7203 14.0679 55.2627 15.5255C54.805 16.9747 54.3898 18.1696 54.3389 18.1611C54.2881 18.1611 53.9237 18.0679 53.5338 17.9578Z" fill="#413C3E"/>
<path d="M38.0254 14.9239C37.6864 13.4239 37.3983 12.1612 37.3898 12.1188C37.3813 12.034 39.339 11.5849 39.4067 11.6527C39.4745 11.712 40.3983 17.2544 40.3559 17.2968C40.3135 17.3391 38.9067 17.6527 38.7373 17.6612C38.6949 17.6612 38.3728 16.4324 38.0254 14.9239Z" fill="#413C3E"/>
<path d="M49.9322 17.1864C49.5678 17.1271 49.2627 17.0678 49.2457 17.0508C49.2288 17.0339 49.9322 11.3729 49.9576 11.339C49.9661 11.3305 50.1864 11.3644 50.4576 11.3983C51.5508 11.5593 52 11.6695 52 11.7627C52 11.8644 51.2457 15.9661 51.0593 16.8813C50.9576 17.3813 51.0084 17.3729 49.9322 17.1864Z" fill="#413C3E"/>
<path d="M42.161 17.051C42.1356 16.9408 41.5085 11.3476 41.5254 11.3306C41.5593 11.2883 43.5424 11.1272 43.5763 11.1611C43.5932 11.1781 43.6695 12.2713 43.7373 13.6018C43.8051 14.9239 43.8729 16.2035 43.8898 16.4493L43.9237 16.89L43.4492 16.9408C43.1864 16.9662 42.7966 17.0086 42.5763 17.034C42.3475 17.0595 42.1695 17.0679 42.161 17.051Z" fill="#413C3E"/>
<path d="M45.6864 16.8051C45.6525 16.7543 45.6525 15.4322 45.6864 13.8729L45.7542 11.0339L46.7373 11.0933C47.2797 11.1272 47.7458 11.178 47.7712 11.2119C47.7966 11.2373 47.7373 12.5255 47.6441 14.0594L47.4661 16.856L46.6017 16.8814C46.0339 16.8983 45.7203 16.8729 45.6864 16.8051Z" fill="#413C3E"/>
<path d="M45.6864 88.7628C40.9152 88.2458 36.8051 87.1102 32.7373 85.178C29.9407 83.839 27.1186 82.0509 24.7712 80.0933C23.7712 79.2628 20.7797 76.3984 20.8474 76.3306C20.8644 76.3136 21.2712 76.6018 21.7542 76.9831C27.1525 81.2035 33.6864 83.9153 40.6017 84.8136C43.2881 85.1611 47.0169 85.2035 49.5424 84.9153C57.2119 84.0255 64.1695 81.0933 70.0254 76.2712C71.1186 75.3645 74.0169 72.4831 74.8474 71.4746C79.2797 66.0763 81.9915 60.3899 83.2627 53.8475C84.1017 49.4746 84.1695 44.5848 83.4407 40.3051C82.322 33.7628 79.5763 27.6102 75.5339 22.5933C75.2627 22.2458 75.0508 21.9492 75.0678 21.9323C75.1271 21.8729 78.0424 24.8729 78.7119 25.6865C83.1102 31.0085 85.9322 37.017 87.1186 43.5933C87.5593 46.0424 87.5932 46.5763 87.5932 50.4577C87.5932 54.339 87.5593 54.8729 87.1186 57.3221C85.178 68.0763 78.6271 77.6272 69.2797 83.3136C64.6186 86.1526 59.9068 87.7967 53.9491 88.6441C52.8305 88.8051 46.8729 88.8899 45.6864 88.7628Z" fill="#FAFAFA"/>
</g>
<defs>
<clipPath id="clip0_175_275">
<rect width="85" height="85" fill="white" transform="translate(7 8)"/>
</clipPath>
</defs>
</svg>
