<svg width="100" height="100" viewBox="0 0 100 100" fill="none" xmlns="http://www.w3.org/2000/svg">
<rect width="100" height="100" rx="24" fill="white"/>
<g clip-path="url(#clip0_158_869)">
<path d="M73.9395 53.3066C78.8069 53.3066 82.7526 49.3608 82.7526 44.4935C82.7526 39.6262 78.8069 35.6804 73.9395 35.6804C69.0722 35.6804 65.1265 39.6262 65.1265 44.4935C65.1265 49.3608 69.0722 53.3066 73.9395 53.3066Z" fill="#00A94B"/>
<path d="M83.766 34.6127C88.3135 34.6127 92 30.9263 92 26.3788C92 21.8313 88.3135 18.1448 83.766 18.1448C79.2185 18.1448 75.532 21.8313 75.532 26.3788C75.532 30.9263 79.2185 34.6127 83.766 34.6127Z" fill="#FF4131"/>
<path d="M62.2853 82.9671C59.1365 82.9671 56.1143 81.1393 54.7571 78.081L33.1678 29.6001C31.3219 25.4378 33.1859 20.5698 37.3481 18.724C41.5103 16.8781 46.3783 18.7421 48.2242 22.9043L69.8135 71.3853C71.6594 75.5475 69.7954 80.4155 65.6332 82.2613C64.5474 82.75 63.4073 82.9671 62.2853 82.9671Z" fill="#FFBC00"/>
<path d="M36.8052 82.8404C33.3668 82.8404 30.0913 80.8498 28.6074 77.52L7.77816 30.722C5.76943 26.1979 7.79626 20.8955 12.3204 18.8868C16.8446 16.8781 22.1469 18.9049 24.1556 23.4291L44.9849 70.227C46.9936 74.7512 44.9668 80.0535 40.4426 82.0622C39.2663 82.587 38.0177 82.8404 36.8052 82.8404Z" fill="#0085F7"/>
</g>
<defs>
<clipPath id="clip0_158_869">
<rect width="85" height="64.967" fill="white" transform="translate(7 18)"/>
</clipPath>
</defs>
</svg>
