<svg width="100" height="100" viewBox="0 0 100 100" fill="none" xmlns="http://www.w3.org/2000/svg">
<rect width="100" height="100" rx="24" fill="white"/>
<path d="M12 83.4676V16.5341C12 9.20647 19.8514 4.625 26.1353 8.28978L83.517 41.7556C89.7989 45.4204 89.7989 54.5813 83.517 58.2442L26.1353 91.708C19.8534 95.3767 12 90.7952 12 83.4676Z" fill="#0080F4"/>
<path d="M68.5529 33.0286L39.4849 50.1426L33.9691 40.149C33.2577 38.8609 32.0928 37.9306 30.6875 37.5318C30.2008 37.3931 29.7004 37.3227 29.202 37.3227C28.2755 37.3227 27.3549 37.567 26.5379 38.0303L12 46.2843V57.6833L12.2365 57.5484L27.523 48.8702L33.074 58.9244C33.7815 60.2066 34.9933 61.1663 36.3947 61.5533C36.8599 61.6823 37.3427 61.7468 37.8274 61.7468C38.7969 61.7468 39.7487 61.4888 40.5794 61.0001L78.3687 38.7495L68.5529 33.0286Z" fill="#BEF7FF"/>
</svg>
