<svg width="100" height="100" viewBox="0 0 100 100" fill="none" xmlns="http://www.w3.org/2000/svg">
<rect width="100" height="100" rx="24" fill="white"/>
<path d="M89.6 50.9375C89.6 48.0125 89.3375 45.2 88.85 42.5H50V58.475H72.2C71.225 63.6125 68.3 67.9625 63.9125 70.8875V81.275H77.3C85.1 74.075 89.6 63.5 89.6 50.9375Z" fill="#4285F4"/>
<path d="M50 91.25C61.1375 91.25 70.475 87.575 77.3 81.275L63.9125 70.8875C60.2375 73.3625 55.55 74.8625 50 74.8625C39.275 74.8625 30.1625 67.625 26.9 57.875H13.175V68.525C19.9625 81.9875 33.875 91.25 50 91.25Z" fill="#34A853"/>
<path d="M26.9 57.8375C26.075 55.3625 25.5875 52.7375 25.5875 50C25.5875 47.2625 26.075 44.6375 26.9 42.1625V31.5125H13.175C10.3625 37.0625 8.75 43.325 8.75 50C8.75 56.675 10.3625 62.9375 13.175 68.4875L23.8625 60.1625L26.9 57.8375Z" fill="#FBBC05"/>
<path d="M50 25.175C56.075 25.175 61.475 27.275 65.7875 31.325L77.6 19.5125C70.4375 12.8375 61.1375 8.75 50 8.75C33.875 8.75 19.9625 18.0125 13.175 31.5125L26.9 42.1625C30.1625 32.4125 39.275 25.175 50 25.175Z" fill="#EA4335"/>
</svg>
