<svg width="100" height="100" viewBox="0 0 100 100" fill="none" xmlns="http://www.w3.org/2000/svg">
<rect width="100" height="100" rx="24" fill="white"/>
<path d="M49.4819 92.9953C26.023 92.9953 7 73.9845 7 50.5134C7 27.0545 26.023 8.0437 49.4819 8.0437C72.9408 8.0437 91.9638 27.0667 91.9638 50.5256C91.9638 73.9845 72.9408 92.9953 49.4819 92.9953Z" fill="#FEFEFE"/>
<path d="M49.5185 92.9953C38.7457 92.8734 29.2402 89.3393 21.185 82.1493C14.0681 75.788 9.63227 67.8546 7.76774 58.4955C7.35341 56.3506 7.10968 54.1693 7.06093 51.9757C6.76846 42.1778 9.44947 33.2817 15.238 25.4093C21.5628 16.8178 29.9958 11.3583 40.403 8.99415C43.9858 8.17766 47.6661 7.86081 51.3464 8.05579C60.2182 8.48232 68.2247 11.3583 75.305 16.7325C80.2649 20.486 84.3229 25.2996 87.1868 30.8079C89.5022 35.2072 91.0255 39.8868 91.6348 44.8223C93.0972 56.7284 90.1724 67.4647 82.7753 76.9457C81.91 78.0303 80.996 79.0783 80.0333 80.0776C79.8261 80.297 79.7165 80.3335 79.4849 80.102C77.3889 77.9816 75.2806 75.8733 73.1602 73.7772C72.9774 73.5944 72.953 73.5091 73.148 73.302C77.596 68.6468 80.4477 63.1629 81.6907 56.8503C82.3 53.7671 82.4462 50.6108 82.1294 47.4911C81.4957 41.0688 79.2168 35.2925 75.1831 30.2595C70.211 24.0566 63.8254 20.1326 56.0138 18.5118C53.4303 17.9634 50.798 17.7562 48.1658 17.8902C39.2941 18.3411 31.7507 21.7533 25.6452 28.2122C21.1728 32.9405 18.3578 38.5341 17.2975 44.9563C15.7377 54.3764 17.785 62.9801 23.6101 70.5722C28.6187 77.1041 35.2482 81.1744 43.3521 82.7465C50.8224 84.1845 57.9515 83.1121 64.715 79.6145C65.0318 79.4439 65.2146 79.4683 65.4705 79.7364C67.591 81.8812 69.7236 84.0138 71.8562 86.1221C72.1243 86.3902 72.1365 86.4999 71.7953 86.7071C66.9329 89.6927 61.5221 91.6669 55.892 92.5078C53.7715 92.8368 51.6511 92.9953 49.5185 92.9953Z" fill="#3DDC84"/>
<path d="M26.3886 51.4639C26.3155 49.7699 26.4252 48.076 26.7298 46.4065C27.522 41.8609 29.6911 37.6566 32.9327 34.3663C36.284 30.9297 40.3055 28.663 45.0217 27.7978C52.6016 26.3964 59.3529 28.2365 65.0927 33.3792C69.0899 36.962 71.5394 41.4588 72.3559 46.7721C73.4283 53.6696 71.6856 59.8481 67.2985 65.2833C66.9207 65.7585 66.5429 66.246 66.0433 66.6116C65.6411 66.2216 39.9887 40.6057 39.0869 39.6552C38.7822 39.3383 38.6238 39.3018 38.2948 39.643C34.4926 43.4696 30.6904 47.2839 26.8639 51.0861C26.742 51.2323 26.6202 51.3785 26.5105 51.5248L26.3886 51.4639Z" fill="#3DDC84"/>
<path d="M57.8174 72.1198C56.1235 72.7779 54.3565 73.2288 52.5651 73.4603C47.8855 74.0575 43.4253 73.3141 39.2087 71.2059C35.2603 69.2316 32.1406 66.3556 29.8008 62.6144C29.6058 62.2976 29.5693 62.1148 29.8739 61.8223C32.7256 58.995 35.5772 56.1434 38.4044 53.2918C38.6482 53.0359 38.7822 53.0359 39.026 53.2918C45.1923 59.4825 51.3708 65.661 57.5493 71.8274C57.6225 71.9127 57.6956 71.9858 57.8174 72.1198Z" fill="#3DDC84"/>
</svg>
