<svg width="100" height="100" viewBox="0 0 100 100" fill="none" xmlns="http://www.w3.org/2000/svg">
<rect width="100" height="100" rx="24" fill="white"/>
<path fill-rule="evenodd" clip-rule="evenodd" d="M19.5181 65.7869L9.02539 92.1054L35.2556 81.5702C37.1266 80.831 38.7846 79.6385 40.0806 78.0998C41.3766 76.5611 42.2699 74.7244 42.6802 72.755C43.0905 70.7855 43.005 68.745 42.4314 66.8167C41.8577 64.8885 40.8139 63.1331 39.3937 61.7082C37.9736 60.2833 36.2216 59.2337 34.2953 58.6536C32.369 58.0736 30.3287 57.9813 28.3579 58.3851C26.3871 58.7889 24.5475 59.6761 23.0045 60.9669C21.4615 62.2578 20.2635 63.9118 19.5181 65.7804V65.7869Z" fill="url(#paint0_linear_1340_247)"/>
<path fill-rule="evenodd" clip-rule="evenodd" d="M55.6015 57.8413C55.605 56.2088 55.2866 54.5916 54.6648 53.0821C54.0429 51.5727 53.1297 50.2006 51.9773 49.0442C50.8249 47.8879 49.4559 46.97 47.9486 46.343C46.4413 45.7159 44.8252 45.3921 43.1927 45.39H17.3189C15.4408 45.3827 13.6084 44.8104 12.0601 43.7474C10.5118 42.6844 9.31925 41.18 8.63771 39.43C7.95616 37.6799 7.81716 35.7652 8.23878 33.9351C8.6604 32.1049 9.62313 30.444 11.0017 29.1686L28.5048 12.957C31.9422 9.77111 36.4558 8.00069 41.1425 8L74.2197 8C76.6709 8.00257 79.0976 8.48814 81.3611 9.42896C83.6245 10.3698 85.6805 11.7474 87.4113 13.4831C89.1421 15.2188 90.514 17.2786 91.4485 19.5447C92.383 21.8108 92.8617 24.2389 92.8574 26.6901V59.6201C92.8557 64.2939 91.1063 68.7982 87.9527 72.248L71.7739 89.9833C70.504 91.3669 68.8456 92.3344 67.0162 92.7589C65.1867 93.1834 63.2717 93.045 61.5223 92.362C59.7729 91.6789 58.2708 90.483 57.2131 88.9312C56.1553 87.3794 55.5913 85.5441 55.595 83.666L55.6015 57.8413Z" fill="url(#paint1_linear_1340_247)"/>
<defs>
<linearGradient id="paint0_linear_1340_247" x1="9.02539" y1="92.1054" x2="42.9928" y2="58.1954" gradientUnits="userSpaceOnUse">
<stop stop-color="#FFD500"/>
<stop offset="0.502" stop-color="#FF8040"/>
<stop offset="1" stop-color="#FF0093"/>
</linearGradient>
<linearGradient id="paint1_linear_1340_247" x1="8" y1="93" x2="92.9999" y2="8.14267" gradientUnits="userSpaceOnUse">
<stop stop-color="#409FFF"/>
<stop offset="1" stop-color="#40DFFF"/>
</linearGradient>
</defs>
</svg>
