<svg width="100" height="100" viewBox="0 0 100 100" fill="none" xmlns="http://www.w3.org/2000/svg">
<rect width="100" height="100" rx="24" fill="#005A00"/>
<path d="M75.7613 55.7135C75.7621 54.1169 77.4474 53.53 80.1864 53.2371C82.461 52.9862 84.2729 52.6089 85.453 51.8533L85.452 53.8699C85.4507 56.2769 83.4183 57.4467 80.7055 57.7126C79.5989 57.6095 78.441 57.5127 77.2386 57.4242C76.3034 57.0679 75.7609 56.463 75.7613 55.7135ZM23.3098 56.4008L34.9798 56.4068L35.9359 59.2317C30.9125 60.1408 25.9115 61.3392 21.0868 62.8505L23.3098 56.4008ZM29.1328 39.2611L33.2129 51.2381L25.0398 51.2339L29.1328 39.2611ZM55.081 45.2829C58.1567 45.2845 60.6407 48.0591 60.639 51.5042C60.6377 53.9405 59.3282 56.0384 57.4384 57.012C56.0154 57.0588 54.574 57.1234 53.1184 57.2073C51.0125 56.3573 49.5157 54.1708 49.517 51.4985C49.5188 47.9692 52.0057 45.2813 55.081 45.2829ZM90.6369 58.9796C90.634 58.9001 90.631 58.8212 90.6311 58.7468L90.6369 47.4859C90.6377 45.7635 89.9669 40.0908 81.1619 40.0862C75.4744 40.0833 71.5124 43.1486 70.9625 47.2659L76.524 47.2688C77.0305 45.4201 79.3061 44.539 81.2863 44.54C83.7715 44.5413 85.2453 45.4667 85.2447 46.6009C85.2438 48.3654 82.6739 48.7847 79.0507 49.1188C74.248 49.5363 70.1605 50.7948 70.158 55.6689C70.1578 56.153 70.2063 56.6089 70.2913 57.0424C68.9599 56.9936 67.5936 56.9576 66.197 56.9364L66.2103 31.0029L60.6495 31L60.6435 42.681C58.9593 41.0833 56.7686 40.1578 54.241 40.1565C48.5956 40.1536 43.9168 45.0248 43.9135 51.4539C43.9122 53.8486 44.5708 56.0302 45.69 57.8229C44.2952 57.9748 42.8946 58.1484 41.491 58.3439L32.6744 33.0866L25.6389 33.083L14.4021 65.1957C11.1244 66.479 7.97161 67.9251 5 69.5421C19.3863 63.2908 54.8586 54.8365 95 60.0474C94.8085 59.8351 93.2522 59.4297 90.6369 58.9796Z" fill="white"/>
</svg>
