<svg width="100" height="100" viewBox="0 0 100 100" fill="none" xmlns="http://www.w3.org/2000/svg">
<rect width="100" height="100" rx="24" fill="#0D0D17"/>
<path d="M19.5736 89.9999C16.3077 89.9999 14.1454 86.5928 15.3265 83.5575C19.4805 72.8576 21.6062 61.4779 21.5948 49.9999C21.5948 38.1647 19.3736 26.8494 15.3265 16.4423C14.1454 13.4071 16.3077 10 19.5736 10C21.3501 10 22.9618 11.0541 23.6159 12.7012C28.2972 24.5786 30.6937 37.2332 30.6795 49.9999C30.6937 62.7666 28.2972 75.4212 23.6159 87.2987C23.29 88.1019 22.7304 88.7887 22.0097 89.2703C21.289 89.7519 20.4404 90.006 19.5736 89.9999ZM41.3524 80.9411C38.3642 80.9411 36.2089 78.0823 36.8842 75.1764C38.8008 66.9215 39.7663 58.4744 39.7618 49.9999C39.7618 41.3411 38.7665 32.9129 36.8842 24.8235C36.2089 21.9176 38.3642 19.0588 41.3547 19.0588C43.39 19.0588 45.1783 20.4188 45.6465 22.3953C47.7786 31.4419 48.8525 40.7055 48.8465 49.9999C48.8465 59.5011 47.7383 68.7411 45.6465 77.6046C45.4125 78.5636 44.8612 79.4153 44.0821 80.0214C43.303 80.6275 42.3418 80.9525 41.3547 80.9434M61.9406 67.3576C59.2018 67.3576 57.0983 64.9529 57.3547 62.2376C58.1223 54.0972 58.1223 45.9027 57.3547 37.7623C57.0983 35.047 59.2018 32.6423 61.9382 32.6423C64.2206 32.6423 66.15 34.3341 66.3688 36.5953C67.2294 45.511 67.2294 54.4889 66.3688 63.4046C66.15 65.6682 64.2182 67.3576 61.9382 67.3576M80.5076 44.2117L83.1029 46.7999C83.5241 47.2197 83.8583 47.7184 84.0863 48.2675C84.3143 48.8166 84.4317 49.4054 84.4317 49.9999C84.4317 50.5945 84.3143 51.1833 84.0863 51.7324C83.8583 52.2815 83.5241 52.7802 83.1029 53.1999L80.5076 55.7882C78.6018 57.6917 75.3382 56.3435 75.3382 53.6541V46.3435C75.3382 43.6564 78.5994 42.3082 80.5076 44.2094" fill="#5850F7"/>
</svg>
