<svg width="100" height="100" viewBox="0 0 100 100" fill="none" xmlns="http://www.w3.org/2000/svg">
<rect width="100" height="100" rx="24" fill="white"/>
<path d="M44.9557 14.8977L13.2651 28.0107C11.5028 28.74 11.5211 31.2437 13.2944 31.9466L45.1171 44.5661C47.9131 45.675 51.0269 45.675 53.8229 44.5661L85.6461 31.9461C87.4189 31.2437 87.4382 28.7405 85.6749 28.0112L53.9853 14.8973C51.0941 13.7009 47.8464 13.7009 44.9552 14.8973" fill="#FCB400"/>
<path d="M52.2937 51.4568V82.9826C52.2937 84.4816 53.8057 85.5088 55.1995 84.9563L90.6597 71.1923C91.0551 71.0356 91.3944 70.7636 91.6334 70.4116C91.8724 70.0597 92.0002 69.6441 92.0001 69.2186V37.6933C92.0001 36.1938 90.4881 35.1671 89.0943 35.7196L53.6342 49.4836C53.2387 49.6405 52.8996 49.9125 52.6606 50.2644C52.4215 50.6163 52.2937 51.0314 52.2937 51.4568Z" fill="#18BFFF"/>
<path d="M44.013 53.0837L33.4892 58.1649L32.4207 58.6814L10.2056 69.3258C8.79785 70.0052 7 68.9789 7 67.4146V37.8255C7 37.2595 7.29019 36.7709 7.67936 36.4034C7.83901 36.2444 8.02014 36.1085 8.21746 35.9998C8.74788 35.6813 9.50507 35.5962 10.1489 35.8509L43.8362 49.1988C45.5485 49.8781 45.6831 52.277 44.013 53.0837Z" fill="#F82B60"/>
<path d="M44.0131 53.0837L33.4893 58.1649L7.67944 36.4029C7.83913 36.2441 8.02025 36.1084 8.21755 35.9998C8.74797 35.6813 9.50516 35.5962 10.149 35.8509L43.8363 49.1988C45.5486 49.8781 45.6831 52.277 44.0131 53.0837Z" fill="black" fill-opacity="0.25"/>
</svg>
