<svg width="100" height="100" viewBox="0 0 100 100" fill="none" xmlns="http://www.w3.org/2000/svg">
<rect width="100" height="100" rx="24" fill="#003DFF"/>
<path d="M50.4744 12.003C29.9946 12.003 13.2995 28.5152 13.004 48.926C12.7039 69.6548 29.5221 86.8316 50.2539 86.9516C56.656 86.9891 62.8226 85.423 68.2992 82.447C68.8332 82.1575 68.9157 81.4225 68.4612 81.0205L64.9541 77.9124C64.2416 77.2809 63.2276 77.1024 62.3501 77.4744C58.528 79.1005 54.3745 79.9315 50.0934 79.879C33.3412 79.6735 19.8066 65.7353 20.0735 48.9845C20.3375 32.4453 33.8737 19.0726 50.4744 19.0726H80.8784V73.1139L63.6281 57.7867C63.0701 57.2901 62.2151 57.3876 61.7651 57.9832C58.9961 61.6492 54.4855 63.9292 49.4754 63.5842C42.5258 63.1042 36.8947 57.5092 36.3742 50.5625C35.7517 42.2764 42.3188 35.3343 50.4744 35.3343C57.8515 35.3343 63.9266 41.0119 64.5611 48.227C64.6181 48.869 64.9076 49.4675 65.3891 49.895L69.8817 53.8776C70.3917 54.3291 71.2002 54.0531 71.3262 53.3826C71.6502 51.6501 71.7642 49.8455 71.6367 47.9945C70.9137 37.4434 62.3666 28.9547 51.811 28.3052C39.7088 27.5597 29.5911 37.0264 29.2701 48.893C28.9566 60.4582 38.4323 70.4273 49.9989 70.6823C54.8275 70.7888 59.3036 69.2708 62.9201 66.6398L85.4594 86.6201C86.4254 87.4766 87.951 86.7911 87.951 85.4995V13.422C87.951 12.636 87.315 12 86.5289 12H50.4744V12.003Z" fill="white"/>
</svg>
