<svg width="100" height="100" viewBox="0 0 100 100" fill="none" xmlns="http://www.w3.org/2000/svg">
<rect width="100" height="100" rx="24" fill="#0BBCD4"/>
<path d="M48.5278 77.0306V68.2472C45.0333 67.5861 42.3889 64.5167 42.3889 60.8333C42.3889 59.3222 42.8611 57.8583 43.6167 56.6778L36.25 51.2472L28.8833 56.6778C29.6861 57.8583 30.1111 59.275 30.1111 60.8333C30.1111 62.3917 29.6389 63.8083 28.8361 64.9889L45.6 78.2111C46.4972 77.6444 47.4889 77.2194 48.5278 77.0306ZM51.3611 77.0306C52.4 77.2194 53.3917 77.6444 54.2417 78.2583L71.0056 65.0361C70.2028 63.8556 69.7306 62.3917 69.7306 60.8806C69.7306 59.3694 70.2028 57.9056 70.9583 56.725L63.6389 51.2472L56.2722 56.6778C57.075 57.8583 57.5 59.275 57.5 60.8333C57.5 64.5167 54.8556 67.5861 51.3611 68.2472V77.0306ZM56.225 80.2889C57.0278 81.4694 57.5 82.9333 57.5 84.4444C57.5 88.6 54.1 92 49.9444 92C45.7889 92 42.3889 88.6 42.3889 84.4444C42.3889 82.8861 42.8611 81.4694 43.6639 80.2889L26.9 67.0667C25.6722 67.9167 24.2083 68.4361 22.6028 68.4361C18.4472 68.4361 15.0472 65.0361 15.0472 60.8806C15.0472 57.1972 17.6917 54.1278 21.1861 53.4667V45.5806C17.6444 44.9194 15 41.85 15 38.1667C15 34.0111 18.4 30.6111 22.5556 30.6111C24.1611 30.6111 25.625 31.1306 26.8528 31.9806L43.6167 18.7583C42.8611 17.5306 42.3889 16.1139 42.3889 14.5556C42.3889 10.4 45.7889 7 49.9444 7C54.1 7 57.5 10.4 57.5 14.5556C57.5 16.1139 57.0278 17.5306 56.225 18.7111L72.9889 31.9333C74.2167 31.0833 75.6806 30.5639 77.2861 30.5639C81.4417 30.5639 84.8417 33.9639 84.8417 38.1194C84.8417 41.8028 82.1972 44.8722 78.7028 45.5333V53.3722C82.1972 54.0333 84.8417 57.1028 84.8417 60.7861C84.8417 64.9417 81.4417 68.3417 77.2861 68.3417C75.6806 68.3417 74.2167 67.8222 72.9889 66.9722L56.225 80.2889ZM26.9 54.6472L33.8417 49.5L26.9 44.3528C26.05 44.9667 25.0583 45.3917 23.9722 45.5806V53.4194C25.0583 53.6083 26.05 54.0333 26.9 54.6472ZM28.8833 42.3222L36.25 47.7528L43.6167 42.3222C42.8611 41.1417 42.3889 39.6778 42.3889 38.1667C42.3889 34.4833 45.0333 31.4139 48.5278 30.7528V21.9694C47.4889 21.7806 46.4972 21.3556 45.6472 20.7417L28.8833 33.9639C29.6389 35.1917 30.1111 36.6083 30.1111 38.1667C30.1111 39.6778 29.6389 41.1417 28.8833 42.3222ZM72.9889 54.6472C73.8389 54.0333 74.8306 53.6083 75.9167 53.4194V45.5806C74.8306 45.3917 73.8389 44.9667 72.9889 44.3528L66.0472 49.5L72.9889 54.6472ZM71.0528 34.0111L54.2889 20.7889C53.4389 21.4028 52.4472 21.8278 51.4083 22.0167V30.8C54.9028 31.4611 57.5472 34.5306 57.5472 38.2139C57.5472 39.725 57.075 41.1889 56.3194 42.3694L63.6389 47.7528L71.0056 42.3222C70.2028 41.1417 69.7778 39.725 69.7778 38.1667C69.7778 36.6083 70.25 35.1917 71.0528 34.0111ZM45.6 54.6472C46.8278 53.7972 48.3389 53.2778 49.9444 53.2778C51.55 53.2778 53.0611 53.7972 54.2889 54.6472L61.2306 49.5L54.2889 44.3528C53.0611 45.2028 51.55 45.7222 49.9444 45.7222C48.3389 45.7222 46.8278 45.2028 45.6 44.3528L38.6583 49.5L45.6 54.6472ZM49.9444 42.8889C52.5417 42.8889 54.6667 40.7639 54.6667 38.1667C54.6667 35.5694 52.5417 33.4444 49.9444 33.4444C47.3472 33.4444 45.2222 35.5694 45.2222 38.1667C45.2222 40.7639 47.3472 42.8889 49.9444 42.8889ZM49.9444 65.5556C52.5417 65.5556 54.6667 63.4306 54.6667 60.8333C54.6667 58.2361 52.5417 56.1111 49.9444 56.1111C47.3472 56.1111 45.2222 58.2361 45.2222 60.8333C45.2222 63.4306 47.3472 65.5556 49.9444 65.5556ZM77.3333 42.8889C79.9306 42.8889 82.0556 40.7639 82.0556 38.1667C82.0556 35.5694 79.9306 33.4444 77.3333 33.4444C74.7361 33.4444 72.6111 35.5694 72.6111 38.1667C72.6111 40.7639 74.7361 42.8889 77.3333 42.8889ZM77.3333 65.5556C79.9306 65.5556 82.0556 63.4306 82.0556 60.8333C82.0556 58.2361 79.9306 56.1111 77.3333 56.1111C74.7361 56.1111 72.6111 58.2361 72.6111 60.8333C72.6111 63.4306 74.7361 65.5556 77.3333 65.5556ZM22.5556 42.8889C25.1528 42.8889 27.2778 40.7639 27.2778 38.1667C27.2778 35.5694 25.1528 33.4444 22.5556 33.4444C19.9583 33.4444 17.8333 35.5694 17.8333 38.1667C17.8333 40.7639 19.9583 42.8889 22.5556 42.8889ZM22.5556 65.5556C25.1528 65.5556 27.2778 63.4306 27.2778 60.8333C27.2778 58.2361 25.1528 56.1111 22.5556 56.1111C19.9583 56.1111 17.8333 58.2361 17.8333 60.8333C17.8333 63.4306 19.9583 65.5556 22.5556 65.5556ZM49.9444 89.1667C52.5417 89.1667 54.6667 87.0417 54.6667 84.4444C54.6667 81.8472 52.5417 79.7222 49.9444 79.7222C47.3472 79.7222 45.2222 81.8472 45.2222 84.4444C45.2222 87.0417 47.3472 89.1667 49.9444 89.1667ZM49.9444 19.2778C52.5417 19.2778 54.6667 17.1528 54.6667 14.5556C54.6667 11.9583 52.5417 9.83333 49.9444 9.83333C47.3472 9.83333 45.2222 11.9583 45.2222 14.5556C45.2222 17.1528 47.3472 19.2778 49.9444 19.2778Z" fill="white"/>
</svg>
