<svg width="100" height="100" viewBox="0 0 100 100" fill="none" xmlns="http://www.w3.org/2000/svg">
<rect width="100" height="100" rx="24" fill="white"/>
<path d="M80.8711 74.8594L50 62.8906L19.1289 74.8555L31.3203 55.7852L0.0507812 44.1055L38.4531 44.2852L50 25.1016L61.5469 44.2852L99.9492 44.1094L68.6797 55.7852L80.8711 74.8594Z" fill="black"/>
<path d="M76.6953 71.4492L50.0273 61.1094L23.3594 71.4453L33.8906 54.9688L6.875 44.8828L40.0547 45.0352L50.0273 28.4648L60 45.0352L93.1758 44.8867L66.1641 54.9727L76.6953 71.4492Z" fill="#619CBC"/>
<path d="M29.5546 34.9023C32.2187 34.9023 30.6679 41.5625 29.7187 43.5664C28.9101 45.2851 27.082 47.7656 24.9179 47.7656C22.3203 47.7656 22.3984 44.8555 23.4335 42.668C23.9921 41.4805 24.8515 40.1523 26.0351 39.1758C25.7343 40.1953 26.7578 40.8906 26.3437 41.7695C26.0624 42.3711 25.4765 43.0273 25.1718 43.6719C24.6757 44.7148 24.8671 46.5664 26.0546 46.5664C27.121 46.5664 28.0663 45.2461 28.457 44.4258C29.2499 42.7383 31.2382 35.5547 29.0156 35.5547C26.457 35.5547 22.0468 41.7891 21.125 43.7461C19.4765 47.2383 20.6718 51.539 24.4257 51.539C26.9648 51.539 29.0507 49.0976 30.0585 46.9609C30.6601 45.6914 30.9882 44.4258 31.1171 43.2305L31.6093 43.1406C31.7187 46.4258 35.1913 51.8672 33.7148 55C31.8203 59.0117 26.1562 58.9765 22.9257 60.4023C22.246 58.8125 21.3242 57.332 20.0273 56.2031C22.9101 55.2344 29.9999 53.6054 31.539 50.3398C32.1874 48.9687 31.746 46.6953 30.9999 45.9258C30.8632 46.4336 30.6835 46.9258 30.4609 47.3984C29.1406 50.1953 26.3164 52.3633 23.4023 52.3633C19.3476 52.3633 17.6289 49.4492 19.539 45.4062C20.6835 42.9805 26.5312 34.9023 29.5546 34.9023Z" fill="black" stroke="black" stroke-width="4.46205" stroke-miterlimit="3.864" stroke-linejoin="round"/>
<path d="M36.4844 44.5391C36.6445 44.9336 37.1094 47.1758 37.4648 47.1758C38.2266 47.1758 39.6094 45.0977 39.9766 44.5586C40.6562 45.0039 40.2812 45.9375 41.5391 45.9375C42.1094 45.9375 42.3945 44.707 42.9883 44.6875C43.0117 45.1836 43.043 45.6328 42.7695 46.207C42.3555 47.0898 41.2969 48.2891 40.2617 48.2891C39.5195 48.2891 38.4844 47.3945 38.2812 47.3945C38.0586 47.3945 37.6523 47.4961 37.5234 47.7695C36.9844 48.9141 38.4297 52.7383 39.8789 52.7383C40.6523 52.7383 41.5742 52.168 42.3828 51.8203C42.1719 53.1953 42.1445 54.3555 42.4219 55.543C41.6836 56.0078 40.8203 56.207 40.1289 56.207C36.5664 56.207 38.5312 47.9297 35.25 46.1641L36.4844 44.5391Z" fill="black" stroke="black" stroke-width="4.46205" stroke-miterlimit="3.864" stroke-linejoin="round"/>
<path fill-rule="evenodd" clip-rule="evenodd" d="M50.1641 43.875C52.8516 43.875 53.9141 48.7148 52.7071 51.2695C51.7735 53.2539 50.1133 54.6914 47.9844 54.6914C44.2305 54.6914 44.6993 49.5703 46.1641 46.4688C46.5704 45.6133 47.9493 43.75 49.0313 43.75C49.4258 43.75 49.754 43.875 50.1641 43.875ZM50.0821 44.3281C49.6563 44.3281 49.2852 44.5352 49.086 44.9531C48.6758 45.8242 50.7305 46.7109 50.4376 47.3359C50.2501 47.7266 49.543 48.0938 49.1876 48.0938C47.4024 48.0938 47.418 45.7773 48.4805 44.2656C47.8204 44.6875 47.3868 45.3281 47.1055 45.9258C46.0626 48.1367 46.8907 51.1797 49.2735 51.1797C50.5938 51.1797 52.1094 49.9961 52.6993 48.75C53.4258 47.2109 51.5704 44.3281 50.0821 44.3281Z" fill="black"/>
<path d="M50.164 43.875C52.8515 43.875 53.914 48.7148 52.707 51.2695C51.7734 53.2539 50.1132 54.6914 47.9843 54.6914C44.2304 54.6914 44.6992 49.5703 46.164 46.4687C46.5702 45.6133 47.9491 43.75 49.0312 43.75C49.4257 43.75 49.7538 43.875 50.164 43.875Z" stroke="black" stroke-width="4.46205" stroke-miterlimit="3.864" stroke-linejoin="round"/>
<path d="M50.0781 44.3281C49.6563 44.3281 49.2852 44.5352 49.0859 44.9531C48.6758 45.8242 50.7305 46.7109 50.4375 47.3359C50.25 47.7266 49.543 48.0937 49.1875 48.0937C47.4024 48.0937 47.418 45.7773 48.4805 44.2656C47.8203 44.6875 47.3867 45.3281 47.1055 45.9258C46.0625 48.1367 46.8906 51.1797 49.2734 51.1797C50.5938 51.1797 52.1094 49.9961 52.6992 48.75C53.4258 47.2109 51.5703 44.3281 50.0781 44.3281Z" stroke="black" stroke-width="4.46205" stroke-miterlimit="3.864" stroke-linejoin="round"/>
<path fill-rule="evenodd" clip-rule="evenodd" d="M62.3867 51.8398C61.6836 53.332 60.375 54.1484 58.9023 54.1484C54.2187 54.1484 53.2929 49.8789 55.3203 45.582C55.7968 44.5664 56.5859 43.4453 57.7851 43.4453C61.5468 43.4453 64.164 48.0781 62.3867 51.8398ZM58.6523 43.9844C58.3086 43.9844 58.0039 44.1094 57.8398 44.4609C57.4765 45.2305 59.457 45.9219 59.4609 46.7188C59.2539 46.9609 58.6718 47.2383 58.4218 47.2383C56.9961 47.2383 55.9179 45.3047 57.1367 43.8672C56.6406 44.1797 56.3476 44.6484 56.1406 45.0898C54.9062 47.707 56.664 50.3516 59.2304 50.3516C60.2968 50.3516 61.6718 49.7578 62.2265 48.582C63.0117 46.918 60.2187 43.9844 58.6523 43.9844Z" fill="black"/>
<path d="M62.3867 51.8398C61.6835 53.332 60.3749 54.1484 58.9023 54.1484C54.2187 54.1484 53.2929 49.8789 55.3203 45.582C55.7968 44.5664 56.5859 43.4453 57.7851 43.4453C61.5468 43.4453 64.164 48.0781 62.3867 51.8398Z" stroke="black" stroke-width="4.46205" stroke-miterlimit="3.864" stroke-linejoin="round"/>
<path d="M58.6523 43.9844C58.3085 43.9844 58.0039 44.1094 57.8398 44.4609C57.4765 45.2305 59.457 45.9219 59.4609 46.7187C59.2539 46.9609 58.6718 47.2383 58.4218 47.2383C56.996 47.2383 55.9179 45.3047 57.1367 43.8672C56.6406 44.1797 56.3476 44.6484 56.1406 45.0898C54.9062 47.707 56.664 50.3516 59.2304 50.3516C60.2968 50.3516 61.6718 49.7578 62.2265 48.582C63.0117 46.918 60.2187 43.9844 58.6523 43.9844Z" stroke="black" stroke-width="4.46205" stroke-miterlimit="3.864" stroke-linejoin="round"/>
<path d="M67.2305 43.9609C71.2617 43.9609 73.3125 51.3633 71.5117 55.1797C71.1641 55.9101 70.5234 56.6406 69.6758 56.6406C65.0664 56.6406 66.2461 47.4805 63.6484 44.875C63.8867 44.625 64.1094 44.3672 64.3242 44.0937C66.0742 46.1523 65.2031 51.5664 68.9492 51.5664C69.8125 51.5664 70.4648 50.8125 70.8125 50.0742C71.7422 48.1055 70.0195 44.6836 68.1367 44.6836C68.1172 44.6836 67.8477 44.6953 67.8555 44.8047C67.9258 46.0625 68.9141 45.2773 67.918 47.418C66.8984 47.2148 65.8203 45.582 66.3789 44.4023C66.543 44.0547 66.9531 43.9609 67.2305 43.9609Z" fill="black" stroke="black" stroke-width="4.46205" stroke-miterlimit="3.864" stroke-linejoin="round"/>
<path fill-rule="evenodd" clip-rule="evenodd" d="M77.2577 43.8789C77.6405 43.9141 78.2108 43.8789 78.535 43.9766C78.5975 43.9961 78.5506 44.0742 78.5624 44.1328C78.66 44.6914 78.8163 45.2227 78.9491 45.7656C79.4764 47.8711 79.7928 50.0312 80.3944 52.1211C81.0506 54.3906 81.7342 56.9531 80.9413 59.8047C80.8592 60.0937 80.7538 60.3789 80.6249 60.6523C79.7264 62.5586 71.9686 64.7578 69.9452 64.7578C69.6991 64.7578 69.4335 64.6875 69.3163 64.5273C70.1678 63.9844 70.703 63.4297 71.0858 62.6211C71.5428 61.6484 71.5389 60.7422 71.4764 59.9062C71.6405 60 77.5975 59.8515 77.8124 59.8515C78.6913 59.8515 79.4413 59.0039 79.7928 58.2617C80.4374 56.8945 80.328 55.5 80.2147 54.332C80.16 53.75 80.0819 53.1758 79.9725 52.6172L79.8085 51.8086L79.7889 51.7187L79.7694 51.6328C79.8671 51.6328 79.7772 51.8047 79.7811 51.8906C79.8436 53.3008 79.8163 55.2656 79.0585 56.8711C78.7069 57.6172 78.1327 58.3867 77.246 58.3867C73.3749 58.3867 75.3241 47.4023 72.2186 44.7891C72.3866 44.5117 72.5389 44.2227 72.6717 43.9297C74.5116 46.1445 74.6053 52.2617 77.3085 52.2617C77.9647 52.2617 78.6444 51.6445 78.9217 51.0547C80.1249 48.5117 78.1288 45.5469 77.2577 43.8789Z" fill="black" stroke="black" stroke-width="4.46205" stroke-miterlimit="3.864" stroke-linejoin="round"/>
<path d="M29.5546 34.9023C32.2187 34.9023 30.6679 41.5625 29.7187 43.5664C28.9101 45.2851 27.082 47.7656 24.9179 47.7656C22.3203 47.7656 22.3984 44.8555 23.4335 42.668C23.9921 41.4805 24.8515 40.1523 26.0351 39.1758C25.7343 40.1953 26.7578 40.8906 26.3437 41.7695C26.0624 42.3711 25.4765 43.0273 25.1718 43.6719C24.6757 44.7148 24.8671 46.5664 26.0546 46.5664C27.121 46.5664 28.0663 45.2461 28.457 44.4258C29.2499 42.7383 31.2382 35.5547 29.0156 35.5547C26.457 35.5547 22.0468 41.7891 21.125 43.7461C19.4765 47.2383 20.6718 51.539 24.4257 51.539C26.9648 51.539 29.0507 49.0976 30.0585 46.9609C30.6601 45.6914 30.9882 44.4258 31.1171 43.2305L31.6093 43.1406C31.7187 46.4258 35.1913 51.8672 33.7148 55C31.8203 59.0117 26.1562 58.9765 22.9257 60.4023C22.246 58.8125 21.3242 57.332 20.0273 56.2031C22.9101 55.2344 29.9999 53.6054 31.539 50.3398C32.1874 48.9687 31.746 46.6953 30.9999 45.9258C30.8632 46.4336 30.6835 46.9258 30.4609 47.3984C29.1406 50.1953 26.3164 52.3633 23.4023 52.3633C19.3476 52.3633 17.6289 49.4492 19.539 45.4062C20.6835 42.9805 26.5312 34.9023 29.5546 34.9023Z" fill="black" stroke="black" stroke-width="0.371763" stroke-miterlimit="3.864"/>
<path d="M36.4844 44.5391C36.6445 44.9336 37.1094 47.1758 37.4648 47.1758C38.2266 47.1758 39.6094 45.0977 39.9766 44.5586C40.6562 45.0039 40.2812 45.9375 41.5391 45.9375C42.1094 45.9375 42.3945 44.707 42.9883 44.6875C43.0117 45.1836 43.043 45.6328 42.7695 46.207C42.3555 47.0898 41.2969 48.2891 40.2617 48.2891C39.5195 48.2891 38.4844 47.3945 38.2812 47.3945C38.0586 47.3945 37.6523 47.4961 37.5234 47.7695C36.9844 48.9141 38.4297 52.7383 39.8789 52.7383C40.6523 52.7383 41.5742 52.168 42.3828 51.8203C42.1719 53.1953 42.1445 54.3555 42.4219 55.543C41.6836 56.0078 40.8203 56.207 40.1289 56.207C36.5664 56.207 38.5312 47.9297 35.25 46.1641L36.4844 44.5391Z" fill="black" stroke="black" stroke-width="0.371763" stroke-miterlimit="3.864"/>
<path fill-rule="evenodd" clip-rule="evenodd" d="M50.1641 43.875C52.8516 43.875 53.9141 48.7148 52.7071 51.2695C51.7735 53.2539 50.1133 54.6914 47.9844 54.6914C44.2305 54.6914 44.6993 49.5703 46.1641 46.4688C46.5704 45.6133 47.9493 43.75 49.0313 43.75C49.4258 43.75 49.754 43.875 50.1641 43.875ZM50.0821 44.3281C49.6563 44.3281 49.2852 44.5352 49.086 44.9531C48.6758 45.8242 50.7305 46.7109 50.4376 47.3359C50.2501 47.7266 49.543 48.0938 49.1876 48.0938C47.4024 48.0938 47.418 45.7773 48.4805 44.2656C47.8204 44.6875 47.3868 45.3281 47.1055 45.9258C46.0626 48.1367 46.8907 51.1797 49.2735 51.1797C50.5938 51.1797 52.1094 49.9961 52.6993 48.75C53.4258 47.2109 51.5704 44.3281 50.0821 44.3281Z" fill="black"/>
<path d="M50.164 43.875C52.8515 43.875 53.914 48.7148 52.707 51.2695C51.7734 53.2539 50.1132 54.6914 47.9843 54.6914C44.2304 54.6914 44.6992 49.5703 46.164 46.4687C46.5702 45.6133 47.9491 43.75 49.0312 43.75C49.4257 43.75 49.7538 43.875 50.164 43.875Z" stroke="black" stroke-width="0.371763" stroke-miterlimit="3.864"/>
<path d="M50.0781 44.3281C49.6563 44.3281 49.2852 44.5352 49.0859 44.9531C48.6758 45.8242 50.7305 46.7109 50.4375 47.3359C50.25 47.7266 49.543 48.0937 49.1875 48.0937C47.4024 48.0937 47.418 45.7773 48.4805 44.2656C47.8203 44.6875 47.3867 45.3281 47.1055 45.9258C46.0625 48.1367 46.8906 51.1797 49.2734 51.1797C50.5938 51.1797 52.1094 49.9961 52.6992 48.75C53.4258 47.2109 51.5703 44.3281 50.0781 44.3281Z" stroke="black" stroke-width="0.371763" stroke-miterlimit="3.864"/>
<path fill-rule="evenodd" clip-rule="evenodd" d="M62.3867 51.8398C61.6836 53.332 60.375 54.1484 58.9023 54.1484C54.2187 54.1484 53.2929 49.8789 55.3203 45.582C55.7968 44.5664 56.5859 43.4453 57.7851 43.4453C61.5468 43.4453 64.164 48.0781 62.3867 51.8398ZM58.6523 43.9844C58.3086 43.9844 58.0039 44.1094 57.8398 44.4609C57.4765 45.2305 59.457 45.9219 59.4609 46.7188C59.2539 46.9609 58.6718 47.2383 58.4218 47.2383C56.9961 47.2383 55.9179 45.3047 57.1367 43.8672C56.6406 44.1797 56.3476 44.6484 56.1406 45.0898C54.9062 47.707 56.664 50.3516 59.2304 50.3516C60.2968 50.3516 61.6718 49.7578 62.2265 48.582C63.0117 46.918 60.2187 43.9844 58.6523 43.9844Z" fill="black"/>
<path d="M62.3867 51.8398C61.6835 53.332 60.3749 54.1484 58.9023 54.1484C54.2187 54.1484 53.2929 49.8789 55.3203 45.582C55.7968 44.5664 56.5859 43.4453 57.7851 43.4453C61.5468 43.4453 64.164 48.0781 62.3867 51.8398Z" stroke="black" stroke-width="0.371763" stroke-miterlimit="3.864"/>
<path d="M58.6523 43.9844C58.3085 43.9844 58.0039 44.1094 57.8398 44.4609C57.4765 45.2305 59.457 45.9219 59.4609 46.7187C59.2539 46.9609 58.6718 47.2383 58.4218 47.2383C56.996 47.2383 55.9179 45.3047 57.1367 43.8672C56.6406 44.1797 56.3476 44.6484 56.1406 45.0898C54.9062 47.707 56.664 50.3516 59.2304 50.3516C60.2968 50.3516 61.6718 49.7578 62.2265 48.582C63.0117 46.918 60.2187 43.9844 58.6523 43.9844Z" stroke="black" stroke-width="0.371763" stroke-miterlimit="3.864"/>
<path d="M67.2305 43.9609C71.2617 43.9609 73.3125 51.3633 71.5117 55.1797C71.1641 55.9101 70.5234 56.6406 69.6758 56.6406C65.0664 56.6406 66.2461 47.4805 63.6484 44.875C63.8867 44.625 64.1094 44.3672 64.3242 44.0937C66.0742 46.1523 65.2031 51.5664 68.9492 51.5664C69.8125 51.5664 70.4648 50.8125 70.8125 50.0742C71.7422 48.1055 70.0195 44.6836 68.1367 44.6836C68.1172 44.6836 67.8477 44.6953 67.8555 44.8047C67.9258 46.0625 68.9141 45.2773 67.918 47.418C66.8984 47.2148 65.8203 45.582 66.3789 44.4023C66.543 44.0547 66.9531 43.9609 67.2305 43.9609Z" fill="black" stroke="black" stroke-width="0.371763" stroke-miterlimit="3.864"/>
<path fill-rule="evenodd" clip-rule="evenodd" d="M77.2577 43.8789C77.6405 43.9141 78.2108 43.8789 78.535 43.9766C78.5975 43.9961 78.5506 44.0742 78.5624 44.1328C78.66 44.6914 78.8163 45.2227 78.9491 45.7656C79.4764 47.8711 79.7928 50.0312 80.3944 52.1211C81.0506 54.3906 81.7342 56.9531 80.9413 59.8047C80.8592 60.0937 80.7538 60.3789 80.6249 60.6523C79.7264 62.5586 77.41 64.375 75.3827 64.375C75.1366 64.375 74.871 64.3047 74.7538 64.1484C75.6092 63.6015 76.1444 63.0469 76.5272 62.2383C76.9842 61.2695 76.9764 60.3594 76.9178 59.5234C77.078 59.6172 77.5975 59.8515 77.8124 59.8515C78.6913 59.8515 79.4413 59.0039 79.7928 58.2617C80.4374 56.8945 80.328 55.5 80.2147 54.332C80.16 53.75 80.0819 53.1758 79.9725 52.6172L79.8085 51.8086L79.7889 51.7187L79.7694 51.6328C79.8671 51.6328 79.7772 51.8047 79.7811 51.8906C79.8436 53.3008 79.8163 55.2656 79.0585 56.8711C78.7069 57.6172 78.1327 58.3867 77.246 58.3867C73.3749 58.3867 75.3241 47.4023 72.2186 44.7891C72.3866 44.5117 72.5389 44.2227 72.6717 43.9297C74.5116 46.1445 74.6053 52.2617 77.3085 52.2617C77.9647 52.2617 78.6444 51.6445 78.9217 51.0547C80.1249 48.5117 78.1288 45.5469 77.2577 43.8789Z" fill="black" stroke="black" stroke-width="0.371763" stroke-miterlimit="3.864"/>
<path d="M29.5546 34.9023C32.2187 34.9023 30.6679 41.5625 29.7187 43.5664C28.9101 45.2851 27.082 47.7656 24.9179 47.7656C22.3203 47.7656 22.3984 44.8555 23.4335 42.668C23.9921 41.4805 24.8515 40.1523 26.0351 39.1758C25.7343 40.1953 26.7578 40.8906 26.3437 41.7695C26.0624 42.3711 25.4765 43.0273 25.1718 43.6719C24.6757 44.7148 24.8671 46.5664 26.0546 46.5664C27.121 46.5664 28.0663 45.2461 28.457 44.4258C29.2499 42.7383 31.2382 35.5547 29.0156 35.5547C26.457 35.5547 22.0468 41.7891 21.125 43.7461C19.4765 47.2383 20.6718 51.539 24.4257 51.539C26.9648 51.539 29.0507 49.0976 30.0585 46.9609C30.6601 45.6914 30.9882 44.4258 31.1171 43.2305L31.6093 43.1406C31.7187 46.4258 35.1913 51.8672 33.7148 55C31.8203 59.0117 26.1562 58.9765 22.9257 60.4023C22.246 58.8125 21.3242 57.332 20.0273 56.2031C22.9101 55.2344 29.9999 53.6054 31.539 50.3398C32.1874 48.9687 31.746 46.6953 30.9999 45.9258C30.8632 46.4336 30.6835 46.9258 30.4609 47.3984C29.1406 50.1953 26.3164 52.3633 23.4023 52.3633C19.3476 52.3633 17.6289 49.4492 19.539 45.4062C20.6835 42.9805 26.5312 34.9023 29.5546 34.9023Z" fill="black" stroke="black" stroke-width="4.46205" stroke-miterlimit="3.864" stroke-linejoin="round"/>
<path d="M36.4844 44.5391C36.6445 44.9336 37.1094 47.1758 37.4648 47.1758C38.2266 47.1758 39.6094 45.0977 39.9766 44.5586C40.6562 45.0039 40.2812 45.9375 41.5391 45.9375C42.1094 45.9375 42.3945 44.707 42.9883 44.6875C43.0117 45.1836 43.043 45.6328 42.7695 46.207C42.3555 47.0898 41.2969 48.2891 40.2617 48.2891C39.5195 48.2891 38.4844 47.3945 38.2812 47.3945C38.0586 47.3945 37.6523 47.4961 37.5234 47.7695C36.9844 48.9141 38.4297 52.7383 39.8789 52.7383C40.6523 52.7383 41.5742 52.168 42.3828 51.8203C42.1719 53.1953 42.1445 54.3555 42.4219 55.543C41.6836 56.0078 40.8203 56.207 40.1289 56.207C36.5664 56.207 38.5312 47.9297 35.25 46.1641L36.4844 44.5391Z" fill="black" stroke="black" stroke-width="4.46205" stroke-miterlimit="3.864" stroke-linejoin="round"/>
<path fill-rule="evenodd" clip-rule="evenodd" d="M50.1641 43.875C52.8516 43.875 53.9141 48.7148 52.7071 51.2695C51.7735 53.2539 50.1133 54.6914 47.9844 54.6914C44.2305 54.6914 44.6993 49.5703 46.1641 46.4688C46.5704 45.6133 47.9493 43.75 49.0313 43.75C49.4258 43.75 49.754 43.875 50.1641 43.875ZM50.0821 44.3281C49.6563 44.3281 49.2852 44.5352 49.086 44.9531C48.6758 45.8242 50.7305 46.7109 50.4376 47.3359C50.2501 47.7266 49.543 48.0938 49.1876 48.0938C47.4024 48.0938 47.418 45.7773 48.4805 44.2656C47.8204 44.6875 47.3868 45.3281 47.1055 45.9258C46.0626 48.1367 46.8907 51.1797 49.2735 51.1797C50.5938 51.1797 52.1094 49.9961 52.6993 48.75C53.4258 47.2109 51.5704 44.3281 50.0821 44.3281Z" fill="black"/>
<path d="M50.164 43.875C52.8515 43.875 53.914 48.7148 52.707 51.2695C51.7734 53.2539 50.1132 54.6914 47.9843 54.6914C44.2304 54.6914 44.6992 49.5703 46.164 46.4687C46.5702 45.6133 47.9491 43.75 49.0312 43.75C49.4257 43.75 49.7538 43.875 50.164 43.875Z" stroke="black" stroke-width="4.46205" stroke-miterlimit="3.864" stroke-linejoin="round"/>
<path d="M50.0781 44.3281C49.6563 44.3281 49.2852 44.5352 49.0859 44.9531C48.6758 45.8242 50.7305 46.7109 50.4375 47.3359C50.25 47.7266 49.543 48.0937 49.1875 48.0937C47.4024 48.0937 47.418 45.7773 48.4805 44.2656C47.8203 44.6875 47.3867 45.3281 47.1055 45.9258C46.0625 48.1367 46.8906 51.1797 49.2734 51.1797C50.5938 51.1797 52.1094 49.9961 52.6992 48.75C53.4258 47.2109 51.5703 44.3281 50.0781 44.3281Z" stroke="black" stroke-width="4.46205" stroke-miterlimit="3.864" stroke-linejoin="round"/>
<path fill-rule="evenodd" clip-rule="evenodd" d="M62.3867 51.8398C61.6836 53.332 60.375 54.1484 58.9023 54.1484C54.2187 54.1484 53.2929 49.8789 55.3203 45.582C55.7968 44.5664 56.5859 43.4453 57.7851 43.4453C61.5468 43.4453 64.164 48.0781 62.3867 51.8398ZM58.6523 43.9844C58.3086 43.9844 58.0039 44.1094 57.8398 44.4609C57.4765 45.2305 59.457 45.9219 59.4609 46.7188C59.2539 46.9609 58.6718 47.2383 58.4218 47.2383C56.9961 47.2383 55.9179 45.3047 57.1367 43.8672C56.6406 44.1797 56.3476 44.6484 56.1406 45.0898C54.9062 47.707 56.664 50.3516 59.2304 50.3516C60.2968 50.3516 61.6718 49.7578 62.2265 48.582C63.0117 46.918 60.2187 43.9844 58.6523 43.9844Z" fill="black"/>
<path d="M62.3867 51.8398C61.6835 53.332 60.3749 54.1484 58.9023 54.1484C54.2187 54.1484 53.2929 49.8789 55.3203 45.582C55.7968 44.5664 56.5859 43.4453 57.7851 43.4453C61.5468 43.4453 64.164 48.0781 62.3867 51.8398Z" stroke="black" stroke-width="4.46205" stroke-miterlimit="3.864" stroke-linejoin="round"/>
<path d="M58.6523 43.9844C58.3085 43.9844 58.0039 44.1094 57.8398 44.4609C57.4765 45.2305 59.457 45.9219 59.4609 46.7187C59.2539 46.9609 58.6718 47.2383 58.4218 47.2383C56.996 47.2383 55.9179 45.3047 57.1367 43.8672C56.6406 44.1797 56.3476 44.6484 56.1406 45.0898C54.9062 47.707 56.664 50.3516 59.2304 50.3516C60.2968 50.3516 61.6718 49.7578 62.2265 48.582C63.0117 46.918 60.2187 43.9844 58.6523 43.9844Z" stroke="black" stroke-width="4.46205" stroke-miterlimit="3.864" stroke-linejoin="round"/>
<path d="M67.2305 43.9609C71.2617 43.9609 73.3125 51.3633 71.5117 55.1797C71.1641 55.9101 70.5234 56.6406 69.6758 56.6406C65.0664 56.6406 66.2461 47.4805 63.6484 44.875C63.8867 44.625 64.1094 44.3672 64.3242 44.0937C66.0742 46.1523 65.2031 51.5664 68.9492 51.5664C69.8125 51.5664 70.4648 50.8125 70.8125 50.0742C71.7422 48.1055 70.0195 44.6836 68.1367 44.6836C68.1172 44.6836 67.8477 44.6953 67.8555 44.8047C67.9258 46.0625 68.9141 45.2773 67.918 47.418C66.8984 47.2148 65.8203 45.582 66.3789 44.4023C66.543 44.0547 66.9531 43.9609 67.2305 43.9609Z" fill="black" stroke="black" stroke-width="4.46205" stroke-miterlimit="3.864" stroke-linejoin="round"/>
<path fill-rule="evenodd" clip-rule="evenodd" d="M77.2577 43.8789C77.6405 43.9141 78.2108 43.8789 78.535 43.9766C78.5975 43.9961 78.5506 44.0742 78.5624 44.1328C78.66 44.6914 78.8163 45.2227 78.9491 45.7656C79.4764 47.8711 79.7928 50.0312 80.3944 52.1211C81.0506 54.3906 81.7342 56.9531 80.9413 59.8047C80.8592 60.0937 80.7538 60.3789 80.6249 60.6523C79.7264 62.5586 77.41 64.375 75.3827 64.375C75.1366 64.375 74.871 64.3047 74.7538 64.1484C75.6092 63.6015 76.1444 63.0469 76.5272 62.2383C76.9842 61.2695 76.9764 60.3594 76.9178 59.5234C77.078 59.6172 77.5975 59.8515 77.8124 59.8515C78.6913 59.8515 79.4413 59.0039 79.7928 58.2617C80.4374 56.8945 80.328 55.5 80.2147 54.332C80.16 53.75 80.0819 53.1758 79.9725 52.6172L79.8085 51.8086L79.7889 51.7187L79.7694 51.6328C79.8671 51.6328 79.7772 51.8047 79.7811 51.8906C79.8436 53.3008 79.8163 55.2656 79.0585 56.8711C78.7069 57.6172 78.1327 58.3867 77.246 58.3867C73.3749 58.3867 75.3241 47.4023 72.2186 44.7891C72.3866 44.5117 72.5389 44.2227 72.6717 43.9297C74.5116 46.1445 74.6053 52.2617 77.3085 52.2617C77.9647 52.2617 78.6444 51.6445 78.9217 51.0547C80.1249 48.5117 78.1288 45.5469 77.2577 43.8789Z" fill="black" stroke="black" stroke-width="4.46205" stroke-miterlimit="3.864" stroke-linejoin="round"/>
<path d="M29.5546 34.9023C32.2187 34.9023 30.6679 41.5625 29.7187 43.5664C28.9101 45.2852 27.082 47.7656 24.9179 47.7656C22.3203 47.7656 22.3984 44.8555 23.4335 42.668C23.9921 41.4805 24.8515 40.1523 26.0351 39.1758C25.7343 40.1953 26.7578 40.8906 26.3437 41.7695C26.0625 42.3711 25.4765 43.0273 25.1718 43.6719C24.6757 44.7148 24.8671 46.5664 26.0546 46.5664C27.121 46.5664 28.0664 45.2461 28.457 44.4258C29.25 42.7383 31.2382 35.5547 29.0156 35.5547C26.457 35.5547 22.0468 41.7891 21.125 43.7461C19.4765 47.2383 20.6718 51.5391 24.4257 51.5391C26.9648 51.5391 29.0507 49.0977 30.0585 46.9609C30.6601 45.6914 30.9882 44.4258 31.1171 43.2305L31.6093 43.1406C31.7187 46.4258 35.1914 51.8672 33.7148 55C31.8203 59.0117 26.1562 58.9766 22.9257 60.4023C22.246 58.8125 21.3242 57.332 20.0273 56.2031C22.9101 55.2344 30 53.6055 31.539 50.3398C32.1875 48.9688 31.746 46.6953 31 45.9258C30.8632 46.4336 30.6835 46.9258 30.4609 47.3984C29.1406 50.1953 26.3164 52.3633 23.4023 52.3633C19.3476 52.3633 17.6289 49.4492 19.539 45.4062C20.6835 42.9805 26.5312 34.9023 29.5546 34.9023ZM36.4843 44.5391C36.6445 44.9336 37.1093 47.1758 37.4648 47.1758C38.2265 47.1758 39.6093 45.0977 39.9765 44.5586C40.6562 45.0039 40.2812 45.9375 41.539 45.9375C42.1093 45.9375 42.3945 44.707 42.9882 44.6875C43.0117 45.1836 43.0429 45.6328 42.7695 46.207C42.3554 47.0898 41.2968 48.2891 40.2617 48.2891C39.5195 48.2891 38.4843 47.3945 38.2812 47.3945C38.0585 47.3945 37.6523 47.4961 37.5234 47.7695C36.9843 48.9141 38.4296 52.7383 39.8789 52.7383C40.6523 52.7383 41.5742 52.168 42.3828 51.8203C42.1718 53.1953 42.1445 54.3555 42.4218 55.543C41.6835 56.0078 40.8203 56.207 40.1289 56.207C36.5664 56.207 38.5312 47.9297 35.25 46.1641L36.4843 44.5391Z" fill="white"/>
<path fill-rule="evenodd" clip-rule="evenodd" d="M50.1641 43.875C52.8516 43.875 53.9141 48.7148 52.7071 51.2695C51.7735 53.2539 50.1133 54.6914 47.9844 54.6914C44.2305 54.6914 44.6993 49.5703 46.1641 46.4688C46.5704 45.6133 47.9493 43.75 49.0313 43.75C49.4258 43.75 49.754 43.875 50.1641 43.875ZM50.0821 44.3281C49.6563 44.3281 49.2852 44.5352 49.086 44.9531C48.6758 45.8242 50.7305 46.7109 50.4376 47.3359C50.2501 47.7266 49.543 48.0938 49.1876 48.0938C47.4024 48.0938 47.418 45.7773 48.4805 44.2656C47.8204 44.6875 47.3868 45.3281 47.1055 45.9258C46.0626 48.1367 46.8907 51.1797 49.2735 51.1797C50.5938 51.1797 52.1094 49.9961 52.6993 48.75C53.4258 47.2109 51.5704 44.3281 50.0821 44.3281ZM62.3868 51.8398C61.6837 53.332 60.3751 54.1484 58.9024 54.1484C54.2188 54.1484 53.293 49.8789 55.3204 45.582C55.7969 44.5664 56.586 43.4453 57.7852 43.4453C61.5469 43.4453 64.1641 48.0781 62.3868 51.8398ZM58.6524 43.9844C58.3087 43.9844 58.004 44.1094 57.8399 44.4609C57.4766 45.2305 59.4571 45.9219 59.461 46.7188C59.254 46.9609 58.6719 47.2383 58.4219 47.2383C56.9962 47.2383 55.918 45.3047 57.1368 43.8672C56.6407 44.1797 56.3477 44.6484 56.1407 45.0898C54.9063 47.707 56.6641 50.3516 59.2305 50.3516C60.2969 50.3516 61.6719 49.7578 62.2266 48.582C63.0118 46.918 60.2188 43.9844 58.6524 43.9844Z" fill="white"/>
<path d="M67.2305 43.9609C71.2617 43.9609 73.3125 51.3633 71.5117 55.1797C71.1641 55.9102 70.5234 56.6406 69.6758 56.6406C65.0664 56.6406 66.2461 47.4805 63.6484 44.875C63.8867 44.625 64.1094 44.3672 64.3242 44.0938C66.0742 46.1523 65.2031 51.5664 68.9492 51.5664C69.8125 51.5664 70.4648 50.8125 70.8125 50.0742C71.7422 48.1055 70.0195 44.6836 68.1367 44.6836C68.1172 44.6836 67.8477 44.6953 67.8555 44.8047C67.9258 46.0625 68.9141 45.2773 67.918 47.418C66.8984 47.2148 65.8203 45.582 66.3789 44.4023C66.543 44.0547 66.9531 43.9609 67.2305 43.9609Z" fill="white"/>
<path fill-rule="evenodd" clip-rule="evenodd" d="M77.2578 43.8789C77.6406 43.9141 78.2109 43.8789 78.5352 43.9766C78.5977 43.9961 78.5508 44.0742 78.5625 44.1328C78.6602 44.6914 78.8164 45.2227 78.9492 45.7656C79.4766 47.8711 79.793 50.0312 80.3945 52.1211C81.0508 54.3906 81.7344 56.9531 80.9414 59.8047C80.8594 60.0938 80.7539 60.3789 80.625 60.6523C77.6055 66.4531 71.1406 64.8906 69.1172 64.8906C68.8711 64.8906 68.6055 64.8203 68.4883 64.6602C69.3438 64.1172 69.8789 63.5586 70.2578 62.75C70.7188 61.7812 70.7109 60.8711 70.6484 60.0352C70.8125 60.1289 71.332 60.3672 71.5469 60.3672C72.4219 60.3672 77.3047 62.875 79.793 58.2617C80.4375 56.8945 80.3281 55.5 80.2148 54.332C80.1602 53.75 80.082 53.1758 79.9727 52.6172L79.8086 51.8086L79.7891 51.7188L79.7695 51.6328C79.8672 51.6328 79.7773 51.8047 79.7812 51.8906C79.8438 53.3008 79.8164 55.2656 79.0586 56.8711C78.707 57.6172 78.1328 58.3867 77.2461 58.3867C73.375 58.3867 75.3242 47.4023 72.2188 44.7891C72.3867 44.5117 72.5391 44.2227 72.6719 43.9297C74.5117 46.1445 74.6055 52.2617 77.3086 52.2617C77.9648 52.2617 78.6445 51.6445 78.9219 51.0547C80.125 48.5117 78.1289 45.5469 77.2578 43.8789Z" fill="white"/>
<path d="M80.8242 74.9062L49.9727 62.9258L19.125 74.9023L31.3086 55.8086L0.0585938 44.1172L38.4375 44.2969L49.9727 25.0938L61.5117 44.2969L99.8867 44.1211L68.6406 55.8125L80.8242 74.9062Z" fill="black"/>
<path d="M76.6953 71.4492L50.0273 61.1094L23.3594 71.4453L33.8906 54.9688L6.875 44.8828L40.0547 45.0352L50.0273 28.4648L60 45.0352L93.1758 44.8867L66.1641 54.9727L76.6953 71.4492Z" fill="#619CBC"/>
<path d="M29.5546 34.9023C32.2187 34.9023 30.6679 41.5625 29.7187 43.5664C28.9101 45.2851 27.082 47.7656 24.9179 47.7656C22.3203 47.7656 22.3984 44.8555 23.4335 42.668C23.9921 41.4805 24.8515 40.1523 26.0351 39.1758C25.7343 40.1953 26.7578 40.8906 26.3437 41.7695C26.0624 42.3711 25.4765 43.0273 25.1718 43.6719C24.6757 44.7148 24.8671 46.5664 26.0546 46.5664C27.121 46.5664 28.0663 45.2461 28.457 44.4258C29.2499 42.7383 31.2382 35.5547 29.0156 35.5547C26.457 35.5547 22.0468 41.7891 21.125 43.7461C19.4765 47.2383 20.6718 51.539 24.4257 51.539C26.9648 51.539 29.0507 49.0976 30.0585 46.9609C30.6601 45.6914 30.9882 44.4258 31.1171 43.2305L31.6093 43.1406C31.7187 46.4258 35.1913 51.8672 33.7148 55C31.8203 59.0117 26.1562 58.9765 22.9257 60.4023C22.246 58.8125 21.3242 57.332 20.0273 56.2031C22.9101 55.2344 29.9999 53.6054 31.539 50.3398C32.1874 48.9687 31.746 46.6953 30.9999 45.9258C30.8632 46.4336 30.6835 46.9258 30.4609 47.3984C29.1406 50.1953 26.3164 52.3633 23.4023 52.3633C19.3476 52.3633 17.6289 49.4492 19.539 45.4062C20.6835 42.9805 26.5312 34.9023 29.5546 34.9023Z" fill="black" stroke="black" stroke-width="4.46205" stroke-miterlimit="3.864" stroke-linejoin="round"/>
<path d="M36.4844 44.5391C36.6445 44.9336 37.1094 47.1758 37.4648 47.1758C38.2266 47.1758 39.6094 45.0977 39.9766 44.5586C40.6562 45.0039 40.2812 45.9375 41.5391 45.9375C42.1094 45.9375 42.3945 44.707 42.9883 44.6875C43.0117 45.1836 43.043 45.6328 42.7695 46.207C42.3555 47.0898 41.2969 48.2891 40.2617 48.2891C39.5195 48.2891 38.4844 47.3945 38.2812 47.3945C38.0586 47.3945 37.6523 47.4961 37.5234 47.7695C36.9844 48.9141 38.4297 52.7383 39.8789 52.7383C40.6523 52.7383 41.5742 52.168 42.3828 51.8203C42.1719 53.1953 42.1445 54.3555 42.4219 55.543C41.6836 56.0078 40.8203 56.207 40.1289 56.207C36.5664 56.207 38.5312 47.9297 35.25 46.1641L36.4844 44.5391Z" fill="black" stroke="black" stroke-width="4.46205" stroke-miterlimit="3.864" stroke-linejoin="round"/>
<path fill-rule="evenodd" clip-rule="evenodd" d="M50.1641 43.875C52.8516 43.875 53.9141 48.7148 52.7071 51.2695C51.7735 53.2539 50.1133 54.6914 47.9844 54.6914C44.2305 54.6914 44.6993 49.5703 46.1641 46.4688C46.5704 45.6133 47.9493 43.75 49.0313 43.75C49.4258 43.75 49.754 43.875 50.1641 43.875ZM50.0821 44.3281C49.6563 44.3281 49.2852 44.5352 49.086 44.9531C48.6758 45.8242 50.7305 46.7109 50.4376 47.3359C50.2501 47.7266 49.543 48.0938 49.1876 48.0938C47.4024 48.0938 47.418 45.7773 48.4805 44.2656C47.8204 44.6875 47.3868 45.3281 47.1055 45.9258C46.0626 48.1367 46.8907 51.1797 49.2735 51.1797C50.5938 51.1797 52.1094 49.9961 52.6993 48.75C53.4258 47.2109 51.5704 44.3281 50.0821 44.3281Z" fill="black"/>
<path d="M50.164 43.875C52.8515 43.875 53.914 48.7148 52.707 51.2695C51.7734 53.2539 50.1132 54.6914 47.9843 54.6914C44.2304 54.6914 44.6992 49.5703 46.164 46.4687C46.5702 45.6133 47.9491 43.75 49.0312 43.75C49.4257 43.75 49.7538 43.875 50.164 43.875Z" stroke="black" stroke-width="4.46205" stroke-miterlimit="3.864" stroke-linejoin="round"/>
<path d="M50.0781 44.3281C49.6563 44.3281 49.2852 44.5352 49.0859 44.9531C48.6758 45.8242 50.7305 46.7109 50.4375 47.3359C50.25 47.7266 49.543 48.0937 49.1875 48.0937C47.4024 48.0937 47.418 45.7773 48.4805 44.2656C47.8203 44.6875 47.3867 45.3281 47.1055 45.9258C46.0625 48.1367 46.8906 51.1797 49.2734 51.1797C50.5938 51.1797 52.1094 49.9961 52.6992 48.75C53.4258 47.2109 51.5703 44.3281 50.0781 44.3281Z" stroke="black" stroke-width="4.46205" stroke-miterlimit="3.864" stroke-linejoin="round"/>
<path fill-rule="evenodd" clip-rule="evenodd" d="M62.3867 51.8398C61.6836 53.332 60.375 54.1484 58.9023 54.1484C54.2187 54.1484 53.2929 49.8789 55.3203 45.582C55.7968 44.5664 56.5859 43.4453 57.7851 43.4453C61.5468 43.4453 64.164 48.0781 62.3867 51.8398ZM58.6523 43.9844C58.3086 43.9844 58.0039 44.1094 57.8398 44.4609C57.4765 45.2305 59.457 45.9219 59.4609 46.7188C59.2539 46.9609 58.6718 47.2383 58.4218 47.2383C56.9961 47.2383 55.9179 45.3047 57.1367 43.8672C56.6406 44.1797 56.3476 44.6484 56.1406 45.0898C54.9062 47.707 56.664 50.3516 59.2304 50.3516C60.2968 50.3516 61.6718 49.7578 62.2265 48.582C63.0117 46.918 60.2187 43.9844 58.6523 43.9844Z" fill="black"/>
<path d="M62.3867 51.8398C61.6835 53.332 60.3749 54.1484 58.9023 54.1484C54.2187 54.1484 53.2929 49.8789 55.3203 45.582C55.7968 44.5664 56.5859 43.4453 57.7851 43.4453C61.5468 43.4453 64.164 48.0781 62.3867 51.8398Z" stroke="black" stroke-width="4.46205" stroke-miterlimit="3.864" stroke-linejoin="round"/>
<path d="M58.6523 43.9844C58.3085 43.9844 58.0039 44.1094 57.8398 44.4609C57.4765 45.2305 59.457 45.9219 59.4609 46.7187C59.2539 46.9609 58.6718 47.2383 58.4218 47.2383C56.996 47.2383 55.9179 45.3047 57.1367 43.8672C56.6406 44.1797 56.3476 44.6484 56.1406 45.0898C54.9062 47.707 56.664 50.3516 59.2304 50.3516C60.2968 50.3516 61.6718 49.7578 62.2265 48.582C63.0117 46.918 60.2187 43.9844 58.6523 43.9844Z" stroke="black" stroke-width="4.46205" stroke-miterlimit="3.864" stroke-linejoin="round"/>
<path d="M67.2305 43.9609C71.2617 43.9609 73.3125 51.3633 71.5117 55.1797C71.1641 55.9101 70.5234 56.6406 69.6758 56.6406C65.0664 56.6406 66.2461 47.4805 63.6484 44.875C63.8867 44.625 64.1094 44.3672 64.3242 44.0937C66.0742 46.1523 65.2031 51.5664 68.9492 51.5664C69.8125 51.5664 70.4648 50.8125 70.8125 50.0742C71.7422 48.1055 70.0195 44.6836 68.1367 44.6836C68.1172 44.6836 67.8477 44.6953 67.8555 44.8047C67.9258 46.0625 68.9141 45.2773 67.918 47.418C66.8984 47.2148 65.8203 45.582 66.3789 44.4023C66.543 44.0547 66.9531 43.9609 67.2305 43.9609Z" fill="black" stroke="black" stroke-width="4.46205" stroke-miterlimit="3.864" stroke-linejoin="round"/>
<path fill-rule="evenodd" clip-rule="evenodd" d="M77.2577 43.8789C77.6405 43.9141 78.2108 43.8789 78.535 43.9766C78.5975 43.9961 78.5506 44.0742 78.5624 44.1328C78.66 44.6914 78.8163 45.2227 78.9491 45.7656C79.4764 47.8711 79.7928 50.0312 80.3944 52.1211C81.0506 54.3906 81.7342 56.9531 80.9413 59.8047C80.8592 60.0937 80.7538 60.3789 80.6249 60.6523C79.7264 62.5586 71.9686 64.7578 69.9452 64.7578C69.6991 64.7578 69.4335 64.6875 69.3163 64.5273C70.1678 63.9844 70.703 63.4297 71.0858 62.6211C71.5428 61.6484 71.5389 60.7422 71.4764 59.9062C71.6405 60 77.5975 59.8515 77.8124 59.8515C78.6913 59.8515 79.4413 59.0039 79.7928 58.2617C80.4374 56.8945 80.328 55.5 80.2147 54.332C80.16 53.75 80.0819 53.1758 79.9725 52.6172L79.8085 51.8086L79.7889 51.7187L79.7694 51.6328C79.8671 51.6328 79.7772 51.8047 79.7811 51.8906C79.8436 53.3008 79.8163 55.2656 79.0585 56.8711C78.7069 57.6172 78.1327 58.3867 77.246 58.3867C73.3749 58.3867 75.3241 47.4023 72.2186 44.7891C72.3866 44.5117 72.5389 44.2227 72.6717 43.9297C74.5116 46.1445 74.6053 52.2617 77.3085 52.2617C77.9647 52.2617 78.6444 51.6445 78.9217 51.0547C80.1249 48.5117 78.1288 45.5469 77.2577 43.8789Z" fill="black" stroke="black" stroke-width="4.46205" stroke-miterlimit="3.864" stroke-linejoin="round"/>
<path d="M29.5546 34.9023C32.2187 34.9023 30.6679 41.5625 29.7187 43.5664C28.9101 45.2851 27.082 47.7656 24.9179 47.7656C22.3203 47.7656 22.3984 44.8555 23.4335 42.668C23.9921 41.4805 24.8515 40.1523 26.0351 39.1758C25.7343 40.1953 26.7578 40.8906 26.3437 41.7695C26.0624 42.3711 25.4765 43.0273 25.1718 43.6719C24.6757 44.7148 24.8671 46.5664 26.0546 46.5664C27.121 46.5664 28.0663 45.2461 28.457 44.4258C29.2499 42.7383 31.2382 35.5547 29.0156 35.5547C26.457 35.5547 22.0468 41.7891 21.125 43.7461C19.4765 47.2383 20.6718 51.539 24.4257 51.539C26.9648 51.539 29.0507 49.0976 30.0585 46.9609C30.6601 45.6914 30.9882 44.4258 31.1171 43.2305L31.6093 43.1406C31.7187 46.4258 35.1913 51.8672 33.7148 55C31.8203 59.0117 26.1562 58.9765 22.9257 60.4023C22.246 58.8125 21.3242 57.332 20.0273 56.2031C22.9101 55.2344 29.9999 53.6054 31.539 50.3398C32.1874 48.9687 31.746 46.6953 30.9999 45.9258C30.8632 46.4336 30.6835 46.9258 30.4609 47.3984C29.1406 50.1953 26.3164 52.3633 23.4023 52.3633C19.3476 52.3633 17.6289 49.4492 19.539 45.4062C20.6835 42.9805 26.5312 34.9023 29.5546 34.9023Z" fill="black" stroke="black" stroke-width="0.371763" stroke-miterlimit="3.864"/>
<path d="M36.4844 44.5391C36.6445 44.9336 37.1094 47.1758 37.4648 47.1758C38.2266 47.1758 39.6094 45.0977 39.9766 44.5586C40.6562 45.0039 40.2812 45.9375 41.5391 45.9375C42.1094 45.9375 42.3945 44.707 42.9883 44.6875C43.0117 45.1836 43.043 45.6328 42.7695 46.207C42.3555 47.0898 41.2969 48.2891 40.2617 48.2891C39.5195 48.2891 38.4844 47.3945 38.2812 47.3945C38.0586 47.3945 37.6523 47.4961 37.5234 47.7695C36.9844 48.9141 38.4297 52.7383 39.8789 52.7383C40.6523 52.7383 41.5742 52.168 42.3828 51.8203C42.1719 53.1953 42.1445 54.3555 42.4219 55.543C41.6836 56.0078 40.8203 56.207 40.1289 56.207C36.5664 56.207 38.5312 47.9297 35.25 46.1641L36.4844 44.5391Z" fill="black" stroke="black" stroke-width="0.371763" stroke-miterlimit="3.864"/>
<path fill-rule="evenodd" clip-rule="evenodd" d="M50.1641 43.875C52.8516 43.875 53.9141 48.7148 52.7071 51.2695C51.7735 53.2539 50.1133 54.6914 47.9844 54.6914C44.2305 54.6914 44.6993 49.5703 46.1641 46.4688C46.5704 45.6133 47.9493 43.75 49.0313 43.75C49.4258 43.75 49.754 43.875 50.1641 43.875ZM50.0821 44.3281C49.6563 44.3281 49.2852 44.5352 49.086 44.9531C48.6758 45.8242 50.7305 46.7109 50.4376 47.3359C50.2501 47.7266 49.543 48.0938 49.1876 48.0938C47.4024 48.0938 47.418 45.7773 48.4805 44.2656C47.8204 44.6875 47.3868 45.3281 47.1055 45.9258C46.0626 48.1367 46.8907 51.1797 49.2735 51.1797C50.5938 51.1797 52.1094 49.9961 52.6993 48.75C53.4258 47.2109 51.5704 44.3281 50.0821 44.3281Z" fill="black"/>
<path d="M50.164 43.875C52.8515 43.875 53.914 48.7148 52.707 51.2695C51.7734 53.2539 50.1132 54.6914 47.9843 54.6914C44.2304 54.6914 44.6992 49.5703 46.164 46.4687C46.5702 45.6133 47.9491 43.75 49.0312 43.75C49.4257 43.75 49.7538 43.875 50.164 43.875Z" stroke="black" stroke-width="0.371763" stroke-miterlimit="3.864"/>
<path d="M50.0781 44.3281C49.6563 44.3281 49.2852 44.5352 49.0859 44.9531C48.6758 45.8242 50.7305 46.7109 50.4375 47.3359C50.25 47.7266 49.543 48.0937 49.1875 48.0937C47.4024 48.0937 47.418 45.7773 48.4805 44.2656C47.8203 44.6875 47.3867 45.3281 47.1055 45.9258C46.0625 48.1367 46.8906 51.1797 49.2734 51.1797C50.5938 51.1797 52.1094 49.9961 52.6992 48.75C53.4258 47.2109 51.5703 44.3281 50.0781 44.3281Z" stroke="black" stroke-width="0.371763" stroke-miterlimit="3.864"/>
<path fill-rule="evenodd" clip-rule="evenodd" d="M62.3867 51.8398C61.6836 53.332 60.375 54.1484 58.9023 54.1484C54.2187 54.1484 53.2929 49.8789 55.3203 45.582C55.7968 44.5664 56.5859 43.4453 57.7851 43.4453C61.5468 43.4453 64.164 48.0781 62.3867 51.8398ZM58.6523 43.9844C58.3086 43.9844 58.0039 44.1094 57.8398 44.4609C57.4765 45.2305 59.457 45.9219 59.4609 46.7188C59.2539 46.9609 58.6718 47.2383 58.4218 47.2383C56.9961 47.2383 55.9179 45.3047 57.1367 43.8672C56.6406 44.1797 56.3476 44.6484 56.1406 45.0898C54.9062 47.707 56.664 50.3516 59.2304 50.3516C60.2968 50.3516 61.6718 49.7578 62.2265 48.582C63.0117 46.918 60.2187 43.9844 58.6523 43.9844Z" fill="black"/>
<path d="M62.3867 51.8398C61.6835 53.332 60.3749 54.1484 58.9023 54.1484C54.2187 54.1484 53.2929 49.8789 55.3203 45.582C55.7968 44.5664 56.5859 43.4453 57.7851 43.4453C61.5468 43.4453 64.164 48.0781 62.3867 51.8398Z" stroke="black" stroke-width="0.371763" stroke-miterlimit="3.864"/>
<path d="M58.6523 43.9844C58.3085 43.9844 58.0039 44.1094 57.8398 44.4609C57.4765 45.2305 59.457 45.9219 59.4609 46.7187C59.2539 46.9609 58.6718 47.2383 58.4218 47.2383C56.996 47.2383 55.9179 45.3047 57.1367 43.8672C56.6406 44.1797 56.3476 44.6484 56.1406 45.0898C54.9062 47.707 56.664 50.3516 59.2304 50.3516C60.2968 50.3516 61.6718 49.7578 62.2265 48.582C63.0117 46.918 60.2187 43.9844 58.6523 43.9844Z" stroke="black" stroke-width="0.371763" stroke-miterlimit="3.864"/>
<path d="M67.2305 43.9609C71.2617 43.9609 73.3125 51.3633 71.5117 55.1797C71.1641 55.9101 70.5234 56.6406 69.6758 56.6406C65.0664 56.6406 66.2461 47.4805 63.6484 44.875C63.8867 44.625 64.1094 44.3672 64.3242 44.0937C66.0742 46.1523 65.2031 51.5664 68.9492 51.5664C69.8125 51.5664 70.4648 50.8125 70.8125 50.0742C71.7422 48.1055 70.0195 44.6836 68.1367 44.6836C68.1172 44.6836 67.8477 44.6953 67.8555 44.8047C67.9258 46.0625 68.9141 45.2773 67.918 47.418C66.8984 47.2148 65.8203 45.582 66.3789 44.4023C66.543 44.0547 66.9531 43.9609 67.2305 43.9609Z" fill="black" stroke="black" stroke-width="0.371763" stroke-miterlimit="3.864"/>
<path fill-rule="evenodd" clip-rule="evenodd" d="M77.2577 43.8789C77.6405 43.9141 78.2108 43.8789 78.535 43.9766C78.5975 43.9961 78.5506 44.0742 78.5624 44.1328C78.66 44.6914 78.8163 45.2227 78.9491 45.7656C79.4764 47.8711 79.7928 50.0312 80.3944 52.1211C81.0506 54.3906 81.7342 56.9531 80.9413 59.8047C80.8592 60.0937 80.7538 60.3789 80.6249 60.6523C79.7264 62.5586 77.41 64.375 75.3827 64.375C75.1366 64.375 74.871 64.3047 74.7538 64.1484C75.6092 63.6015 76.1444 63.0469 76.5272 62.2383C76.9842 61.2695 76.9764 60.3594 76.9178 59.5234C77.078 59.6172 77.5975 59.8515 77.8124 59.8515C78.6913 59.8515 79.4413 59.0039 79.7928 58.2617C80.4374 56.8945 80.328 55.5 80.2147 54.332C80.16 53.75 80.0819 53.1758 79.9725 52.6172L79.8085 51.8086L79.7889 51.7187L79.7694 51.6328C79.8671 51.6328 79.7772 51.8047 79.7811 51.8906C79.8436 53.3008 79.8163 55.2656 79.0585 56.8711C78.7069 57.6172 78.1327 58.3867 77.246 58.3867C73.3749 58.3867 75.3241 47.4023 72.2186 44.7891C72.3866 44.5117 72.5389 44.2227 72.6717 43.9297C74.5116 46.1445 74.6053 52.2617 77.3085 52.2617C77.9647 52.2617 78.6444 51.6445 78.9217 51.0547C80.1249 48.5117 78.1288 45.5469 77.2577 43.8789Z" fill="black" stroke="black" stroke-width="0.371763" stroke-miterlimit="3.864"/>
<path d="M29.5546 34.9023C32.2187 34.9023 30.6679 41.5625 29.7187 43.5664C28.9101 45.2851 27.082 47.7656 24.9179 47.7656C22.3203 47.7656 22.3984 44.8555 23.4335 42.668C23.9921 41.4805 24.8515 40.1523 26.0351 39.1758C25.7343 40.1953 26.7578 40.8906 26.3437 41.7695C26.0624 42.3711 25.4765 43.0273 25.1718 43.6719C24.6757 44.7148 24.8671 46.5664 26.0546 46.5664C27.121 46.5664 28.0663 45.2461 28.457 44.4258C29.2499 42.7383 31.2382 35.5547 29.0156 35.5547C26.457 35.5547 22.0468 41.7891 21.125 43.7461C19.4765 47.2383 20.6718 51.539 24.4257 51.539C26.9648 51.539 29.0507 49.0976 30.0585 46.9609C30.6601 45.6914 30.9882 44.4258 31.1171 43.2305L31.6093 43.1406C31.7187 46.4258 35.1913 51.8672 33.7148 55C31.8203 59.0117 26.1562 58.9765 22.9257 60.4023C22.246 58.8125 21.3242 57.332 20.0273 56.2031C22.9101 55.2344 29.9999 53.6054 31.539 50.3398C32.1874 48.9687 31.746 46.6953 30.9999 45.9258C30.8632 46.4336 30.6835 46.9258 30.4609 47.3984C29.1406 50.1953 26.3164 52.3633 23.4023 52.3633C19.3476 52.3633 17.6289 49.4492 19.539 45.4062C20.6835 42.9805 26.5312 34.9023 29.5546 34.9023Z" fill="black" stroke="black" stroke-width="4.46205" stroke-miterlimit="3.864" stroke-linejoin="round"/>
<path d="M36.4844 44.5391C36.6445 44.9336 37.1094 47.1758 37.4648 47.1758C38.2266 47.1758 39.6094 45.0977 39.9766 44.5586C40.6562 45.0039 40.2812 45.9375 41.5391 45.9375C42.1094 45.9375 42.3945 44.707 42.9883 44.6875C43.0117 45.1836 43.043 45.6328 42.7695 46.207C42.3555 47.0898 41.2969 48.2891 40.2617 48.2891C39.5195 48.2891 38.4844 47.3945 38.2812 47.3945C38.0586 47.3945 37.6523 47.4961 37.5234 47.7695C36.9844 48.9141 38.4297 52.7383 39.8789 52.7383C40.6523 52.7383 41.5742 52.168 42.3828 51.8203C42.1719 53.1953 42.1445 54.3555 42.4219 55.543C41.6836 56.0078 40.8203 56.207 40.1289 56.207C36.5664 56.207 38.5312 47.9297 35.25 46.1641L36.4844 44.5391Z" fill="black" stroke="black" stroke-width="4.46205" stroke-miterlimit="3.864" stroke-linejoin="round"/>
<path fill-rule="evenodd" clip-rule="evenodd" d="M50.1641 43.875C52.8516 43.875 53.9141 48.7148 52.7071 51.2695C51.7735 53.2539 50.1133 54.6914 47.9844 54.6914C44.2305 54.6914 44.6993 49.5703 46.1641 46.4688C46.5704 45.6133 47.9493 43.75 49.0313 43.75C49.4258 43.75 49.754 43.875 50.1641 43.875ZM50.0821 44.3281C49.6563 44.3281 49.2852 44.5352 49.086 44.9531C48.6758 45.8242 50.7305 46.7109 50.4376 47.3359C50.2501 47.7266 49.543 48.0938 49.1876 48.0938C47.4024 48.0938 47.418 45.7773 48.4805 44.2656C47.8204 44.6875 47.3868 45.3281 47.1055 45.9258C46.0626 48.1367 46.8907 51.1797 49.2735 51.1797C50.5938 51.1797 52.1094 49.9961 52.6993 48.75C53.4258 47.2109 51.5704 44.3281 50.0821 44.3281Z" fill="black"/>
<path d="M50.164 43.875C52.8515 43.875 53.914 48.7148 52.707 51.2695C51.7734 53.2539 50.1132 54.6914 47.9843 54.6914C44.2304 54.6914 44.6992 49.5703 46.164 46.4687C46.5702 45.6133 47.9491 43.75 49.0312 43.75C49.4257 43.75 49.7538 43.875 50.164 43.875Z" stroke="black" stroke-width="4.46205" stroke-miterlimit="3.864" stroke-linejoin="round"/>
<path d="M50.0781 44.3281C49.6563 44.3281 49.2852 44.5352 49.0859 44.9531C48.6758 45.8242 50.7305 46.7109 50.4375 47.3359C50.25 47.7266 49.543 48.0937 49.1875 48.0937C47.4024 48.0937 47.418 45.7773 48.4805 44.2656C47.8203 44.6875 47.3867 45.3281 47.1055 45.9258C46.0625 48.1367 46.8906 51.1797 49.2734 51.1797C50.5938 51.1797 52.1094 49.9961 52.6992 48.75C53.4258 47.2109 51.5703 44.3281 50.0781 44.3281Z" stroke="black" stroke-width="4.46205" stroke-miterlimit="3.864" stroke-linejoin="round"/>
<path fill-rule="evenodd" clip-rule="evenodd" d="M62.3867 51.8398C61.6836 53.332 60.375 54.1484 58.9023 54.1484C54.2187 54.1484 53.2929 49.8789 55.3203 45.582C55.7968 44.5664 56.5859 43.4453 57.7851 43.4453C61.5468 43.4453 64.164 48.0781 62.3867 51.8398ZM58.6523 43.9844C58.3086 43.9844 58.0039 44.1094 57.8398 44.4609C57.4765 45.2305 59.457 45.9219 59.4609 46.7188C59.2539 46.9609 58.6718 47.2383 58.4218 47.2383C56.9961 47.2383 55.9179 45.3047 57.1367 43.8672C56.6406 44.1797 56.3476 44.6484 56.1406 45.0898C54.9062 47.707 56.664 50.3516 59.2304 50.3516C60.2968 50.3516 61.6718 49.7578 62.2265 48.582C63.0117 46.918 60.2187 43.9844 58.6523 43.9844Z" fill="black"/>
<path d="M62.3867 51.8398C61.6835 53.332 60.3749 54.1484 58.9023 54.1484C54.2187 54.1484 53.2929 49.8789 55.3203 45.582C55.7968 44.5664 56.5859 43.4453 57.7851 43.4453C61.5468 43.4453 64.164 48.0781 62.3867 51.8398Z" stroke="black" stroke-width="4.46205" stroke-miterlimit="3.864" stroke-linejoin="round"/>
<path d="M58.6523 43.9844C58.3085 43.9844 58.0039 44.1094 57.8398 44.4609C57.4765 45.2305 59.457 45.9219 59.4609 46.7187C59.2539 46.9609 58.6718 47.2383 58.4218 47.2383C56.996 47.2383 55.9179 45.3047 57.1367 43.8672C56.6406 44.1797 56.3476 44.6484 56.1406 45.0898C54.9062 47.707 56.664 50.3516 59.2304 50.3516C60.2968 50.3516 61.6718 49.7578 62.2265 48.582C63.0117 46.918 60.2187 43.9844 58.6523 43.9844Z" stroke="black" stroke-width="4.46205" stroke-miterlimit="3.864" stroke-linejoin="round"/>
<path d="M67.2305 43.9609C71.2617 43.9609 73.3125 51.3633 71.5117 55.1797C71.1641 55.9101 70.5234 56.6406 69.6758 56.6406C65.0664 56.6406 66.2461 47.4805 63.6484 44.875C63.8867 44.625 64.1094 44.3672 64.3242 44.0937C66.0742 46.1523 65.2031 51.5664 68.9492 51.5664C69.8125 51.5664 70.4648 50.8125 70.8125 50.0742C71.7422 48.1055 70.0195 44.6836 68.1367 44.6836C68.1172 44.6836 67.8477 44.6953 67.8555 44.8047C67.9258 46.0625 68.9141 45.2773 67.918 47.418C66.8984 47.2148 65.8203 45.582 66.3789 44.4023C66.543 44.0547 66.9531 43.9609 67.2305 43.9609Z" fill="black" stroke="black" stroke-width="4.46205" stroke-miterlimit="3.864" stroke-linejoin="round"/>
<path fill-rule="evenodd" clip-rule="evenodd" d="M77.2577 43.8789C77.6405 43.9141 78.2108 43.8789 78.535 43.9766C78.5975 43.9961 78.5506 44.0742 78.5624 44.1328C78.66 44.6914 78.8163 45.2227 78.9491 45.7656C79.4764 47.8711 79.7928 50.0312 80.3944 52.1211C81.0506 54.3906 81.7342 56.9531 80.9413 59.8047C80.8592 60.0937 80.7538 60.3789 80.6249 60.6523C79.7264 62.5586 77.41 64.375 75.3827 64.375C75.1366 64.375 74.871 64.3047 74.7538 64.1484C75.6092 63.6015 76.1444 63.0469 76.5272 62.2383C76.9842 61.2695 76.9764 60.3594 76.9178 59.5234C77.078 59.6172 77.5975 59.8515 77.8124 59.8515C78.6913 59.8515 79.4413 59.0039 79.7928 58.2617C80.4374 56.8945 80.328 55.5 80.2147 54.332C80.16 53.75 80.0819 53.1758 79.9725 52.6172L79.8085 51.8086L79.7889 51.7187L79.7694 51.6328C79.8671 51.6328 79.7772 51.8047 79.7811 51.8906C79.8436 53.3008 79.8163 55.2656 79.0585 56.8711C78.7069 57.6172 78.1327 58.3867 77.246 58.3867C73.3749 58.3867 75.3241 47.4023 72.2186 44.7891C72.3866 44.5117 72.5389 44.2227 72.6717 43.9297C74.5116 46.1445 74.6053 52.2617 77.3085 52.2617C77.9647 52.2617 78.6444 51.6445 78.9217 51.0547C80.1249 48.5117 78.1288 45.5469 77.2577 43.8789Z" fill="black" stroke="black" stroke-width="4.46205" stroke-miterlimit="3.864" stroke-linejoin="round"/>
<path d="M29.5546 34.9023C32.2187 34.9023 30.6679 41.5625 29.7187 43.5664C28.9101 45.2852 27.082 47.7656 24.9179 47.7656C22.3203 47.7656 22.3984 44.8555 23.4335 42.668C23.9921 41.4805 24.8515 40.1523 26.0351 39.1758C25.7343 40.1953 26.7578 40.8906 26.3437 41.7695C26.0625 42.3711 25.4765 43.0273 25.1718 43.6719C24.6757 44.7148 24.8671 46.5664 26.0546 46.5664C27.121 46.5664 28.0664 45.2461 28.457 44.4258C29.25 42.7383 31.2382 35.5547 29.0156 35.5547C26.457 35.5547 22.0468 41.7891 21.125 43.7461C19.4765 47.2383 20.6718 51.5391 24.4257 51.5391C26.9648 51.5391 29.0507 49.0977 30.0585 46.9609C30.6601 45.6914 30.9882 44.4258 31.1171 43.2305L31.6093 43.1406C31.7187 46.4258 35.1914 51.8672 33.7148 55C31.8203 59.0117 26.1562 58.9766 22.9257 60.4023C22.246 58.8125 21.3242 57.332 20.0273 56.2031C22.9101 55.2344 30 53.6055 31.539 50.3398C32.1875 48.9688 31.746 46.6953 31 45.9258C30.8632 46.4336 30.6835 46.9258 30.4609 47.3984C29.1406 50.1953 26.3164 52.3633 23.4023 52.3633C19.3476 52.3633 17.6289 49.4492 19.539 45.4062C20.6835 42.9805 26.5312 34.9023 29.5546 34.9023ZM36.4843 44.5391C36.6445 44.9336 37.1093 47.1758 37.4648 47.1758C38.2265 47.1758 39.6093 45.0977 39.9765 44.5586C40.6562 45.0039 40.2812 45.9375 41.539 45.9375C42.1093 45.9375 42.3945 44.707 42.9882 44.6875C43.0117 45.1836 43.0429 45.6328 42.7695 46.207C42.3554 47.0898 41.2968 48.2891 40.2617 48.2891C39.5195 48.2891 38.4843 47.3945 38.2812 47.3945C38.0585 47.3945 37.6523 47.4961 37.5234 47.7695C36.9843 48.9141 38.4296 52.7383 39.8789 52.7383C40.6523 52.7383 41.5742 52.168 42.3828 51.8203C42.1718 53.1953 42.1445 54.3555 42.4218 55.543C41.6835 56.0078 40.8203 56.207 40.1289 56.207C36.5664 56.207 38.5312 47.9297 35.25 46.1641L36.4843 44.5391Z" fill="white"/>
<path fill-rule="evenodd" clip-rule="evenodd" d="M50.1641 43.875C52.8516 43.875 53.9141 48.7148 52.7071 51.2695C51.7735 53.2539 50.1133 54.6914 47.9844 54.6914C44.2305 54.6914 44.6993 49.5703 46.1641 46.4688C46.5704 45.6133 47.9493 43.75 49.0313 43.75C49.4258 43.75 49.754 43.875 50.1641 43.875ZM50.0821 44.3281C49.6563 44.3281 49.2852 44.5352 49.086 44.9531C48.6758 45.8242 50.7305 46.7109 50.4376 47.3359C50.2501 47.7266 49.543 48.0938 49.1876 48.0938C47.4024 48.0938 47.418 45.7773 48.4805 44.2656C47.8204 44.6875 47.3868 45.3281 47.1055 45.9258C46.0626 48.1367 46.8907 51.1797 49.2735 51.1797C50.5938 51.1797 52.1094 49.9961 52.6993 48.75C53.4258 47.2109 51.5704 44.3281 50.0821 44.3281ZM62.3868 51.8398C61.6837 53.332 60.3751 54.1484 58.9024 54.1484C54.2188 54.1484 53.293 49.8789 55.3204 45.582C55.7969 44.5664 56.586 43.4453 57.7852 43.4453C61.5469 43.4453 64.1641 48.0781 62.3868 51.8398ZM58.6524 43.9844C58.3087 43.9844 58.004 44.1094 57.8399 44.4609C57.4766 45.2305 59.4571 45.9219 59.461 46.7188C59.254 46.9609 58.6719 47.2383 58.4219 47.2383C56.9962 47.2383 55.918 45.3047 57.1368 43.8672C56.6407 44.1797 56.3477 44.6484 56.1407 45.0898C54.9063 47.707 56.6641 50.3516 59.2305 50.3516C60.2969 50.3516 61.6719 49.7578 62.2266 48.582C63.0118 46.918 60.2188 43.9844 58.6524 43.9844Z" fill="white"/>
<path d="M67.2305 43.9609C71.2617 43.9609 73.3125 51.3633 71.5117 55.1797C71.1641 55.9102 70.5234 56.6406 69.6758 56.6406C65.0664 56.6406 66.2461 47.4805 63.6484 44.875C63.8867 44.625 64.1094 44.3672 64.3242 44.0938C66.0742 46.1523 65.2031 51.5664 68.9492 51.5664C69.8125 51.5664 70.4648 50.8125 70.8125 50.0742C71.7422 48.1055 70.0195 44.6836 68.1367 44.6836C68.1172 44.6836 67.8477 44.6953 67.8555 44.8047C67.9258 46.0625 68.9141 45.2773 67.918 47.418C66.8984 47.2148 65.8203 45.582 66.3789 44.4023C66.543 44.0547 66.9531 43.9609 67.2305 43.9609Z" fill="white"/>
<path fill-rule="evenodd" clip-rule="evenodd" d="M77.2578 43.8789C77.6406 43.9141 78.2109 43.8789 78.5352 43.9766C78.5977 43.9961 78.5508 44.0742 78.5625 44.1328C78.6602 44.6914 78.8164 45.2227 78.9492 45.7656C79.4766 47.8711 79.793 50.0312 80.3945 52.1211C81.0508 54.3906 81.7344 56.9531 80.9414 59.8047C80.8594 60.0938 80.7539 60.3789 80.625 60.6523C77.6055 66.4531 71.1406 64.8906 69.1172 64.8906C68.8711 64.8906 68.6055 64.8203 68.4883 64.6602C69.3438 64.1172 69.8789 63.5586 70.2578 62.75C70.7188 61.7812 70.7109 60.8711 70.6484 60.0352C70.8125 60.1289 71.332 60.3672 71.5469 60.3672C72.4219 60.3672 77.3047 62.875 79.793 58.2617C80.4375 56.8945 80.3281 55.5 80.2148 54.332C80.1602 53.75 80.082 53.1758 79.9727 52.6172L79.8086 51.8086L79.7891 51.7188L79.7695 51.6328C79.8672 51.6328 79.7773 51.8047 79.7812 51.8906C79.8438 53.3008 79.8164 55.2656 79.0586 56.8711C78.707 57.6172 78.1328 58.3867 77.2461 58.3867C73.375 58.3867 75.3242 47.4023 72.2188 44.7891C72.3867 44.5117 72.5391 44.2227 72.6719 43.9297C74.5117 46.1445 74.6055 52.2617 77.3086 52.2617C77.9648 52.2617 78.6445 51.6445 78.9219 51.0547C80.125 48.5117 78.1289 45.5469 77.2578 43.8789Z" fill="white"/>
</svg>
