<svg width="100" height="100" viewBox="0 0 100 100" fill="none" xmlns="http://www.w3.org/2000/svg">
<rect width="100" height="100" rx="24" fill="white"/>
<g clip-path="url(#clip0_384_84)">
<path d="M82.913 74.9742L69.4046 60.5945L67.8488 61.6233C60.3622 57.21 54.7605 50.8441 51.8869 41.2979C41.6542 43.8151 29.7238 50.2715 22.037 59.0057C22.0384 59.0074 22.04 59.009 22.0413 59.011C14.4079 67.2741 9.48859 75.0497 8.18591 77.8777L15.6351 77.9254C15.3474 74.5807 16.2191 71.7924 18.4909 68.6914C28.7957 54.6266 67.4918 70.8333 82.7704 79.6149L90.9094 79.5435C90.9093 79.5435 89.6955 74.1889 82.913 74.9742Z" fill="#D1A41A"/>
<path d="M68.1342 61.6233C52.4091 53.7771 48.1436 34.636 51.9989 21.4993C51.9989 21.4993 54.9261 22.8558 57.7105 29.4241C64.0855 27.5966 71.5136 27.4249 77.9867 29.2099C77.9867 29.2099 78.7721 24.0695 83.4841 21.6421C84.1969 24.6891 88.9102 48.915 68.1342 61.6233Z" fill="#FFDC76"/>
<path d="M39.7871 46.4339L44.3641 44.2108L46.9796 51.2724L39.7871 46.4339ZM34.6545 49.0166L37.4987 47.3166L40.1141 51.9264L34.6545 49.0166ZM29.1295 52.5801L31.6139 50.9456L32.8562 55.1956L29.1295 52.5801ZM73.1335 64.3494L71.4988 62.7149L69.2104 66.311L73.1335 64.3494ZM76.4028 68.2725L75.0951 66.9648L71.1718 69.5801L76.4028 68.2725ZM52.0703 39.6218L51.8831 37.0186L56.4603 39.3397L52.0703 39.6218ZM53.5181 43.4263L52.6058 41.4899L55.8064 42.8051L53.5181 43.4263ZM83.5951 40.68L84.2488 38.7186L80.6526 40.2223L83.5951 40.68ZM82.2874 44.6685L82.6143 43.0666L79.9989 43.8512L82.2874 44.6685ZM50.5757 49.7359H59.141V50.7952H50.5757V49.7359ZM50.5757 47.1858H59.141V48.245H50.5757V47.1858ZM76.7296 49.7359H85.2949V50.7952H76.7296V49.7359ZM76.7296 47.1858H85.2949V48.245H76.7296V47.1858Z" fill="black"/>
<path d="M85.1458 30.9775L85.1315 30.9559C85.1255 29.305 84.6136 22.3271 83.675 20.406C81.1279 21.3797 76.4898 24.5414 75.4543 27.765C70.4375 27.0095 64.7737 27.1007 59.7894 27.9632C58.9609 24.4791 54.8053 21.8416 51.6657 20.3438C50.3419 22.5938 49.7529 27.8003 49.905 31.5124C49.8994 31.5162 49.8931 31.5199 49.8876 31.5242C50.4702 47.0561 58.0436 56.727 67.9474 62.5881C78.1426 56.727 85.4248 45.2976 85.1333 30.9705C85.1375 30.9729 85.142 30.9749 85.1458 30.9775ZM68.0879 60.5745C52.5199 52.76 49.5749 32.995 52.2291 22.4776C52.967 26.5478 54.3069 29.0875 57.2131 30.3249C59.909 29.5474 63.0423 29.0771 66.2465 28.9306L68.5567 34.2726L70.2656 28.9184C73.2224 29.0367 76.11 29.4379 78.6395 30.1399C81.3094 28.1861 82.3615 25.1905 82.9117 22.5854C83.617 25.6203 83.5364 32.1912 83.5395 32.1912L83.5592 32.0834C83.8211 45.01 77.2797 55.2999 68.088 60.5747L68.0879 60.5745Z" fill="black"/>
<path d="M90.3101 76.77C88.7113 74.9692 85.5846 74.1194 82.9631 74.1813C81.1053 71.9572 70.3407 60.5379 70.3407 60.5379L69.5932 61.4821L82.6043 75.5484L83.1673 75.4999C86.6952 75.1959 88.7017 77.1215 89.252 77.7207C89.6405 78.1605 89.8766 78.5607 90.0062 78.8736H82.8534C66.4764 70.2775 52.0736 64.2209 36.8943 62.8859C36.9278 60.7469 37.3052 58.3275 38.0335 55.6247L36.6287 55.2405C35.8813 58.0149 35.4895 60.5156 35.4441 62.7624C33.8389 62.655 32.2306 62.6012 30.6218 62.6012C29.2496 62.6012 28 62.7294 26.8673 62.9529C25.3818 61.4583 24.1163 60.0351 23.0482 58.6873C30.1363 51.2631 41.8525 44.523 52.0153 42.0484L51.685 40.6156C40.7456 43.2694 28.7702 50.4817 22.1031 57.4826C19.0089 53.282 17.7661 49.8305 17.4101 47.2255C16.9506 43.9368 17.7328 40.9086 19.6756 38.4664C22.7181 34.6567 27.0226 34.3961 31.4888 35.1451C31.4021 35.8516 31.4944 36.5257 31.7752 36.9424C32.9503 38.6877 39.2516 39.3033 43.0387 37.6099C40.2553 33.7026 34.6235 31.7815 33.0701 32.5303C32.5522 32.7843 32.1638 33.25 31.895 33.7968C30.3576 33.5204 28.8333 33.3149 27.7199 33.3215C23.8036 33.3503 20.7935 34.7281 18.5604 37.522C16.3596 40.2734 15.4696 43.6761 15.9874 47.3882C16.4791 50.9047 18.2076 54.6493 21.101 58.5242L19.7062 60.0612C12.6505 68.0062 7.47192 76.5702 7.47192 77.97V78.7026H16.7931L16.6298 77.8333C16.1022 75.0331 17.1541 71.5163 19.3095 68.9115C20.6625 67.2706 22.9021 65.3947 26.4299 64.5157C29.5564 67.5863 33.5503 70.8328 37.9845 73.9911H44.9107V73.2585C44.9107 72.4313 44.503 71.7085 43.765 71.2201C42.671 70.5006 40.9816 70.3997 39.4281 70.9329C37.9491 69.2758 37.117 67.058 36.9391 64.323C51.9889 65.6645 66.3593 71.7796 82.5744 80.3107H91.5072L91.5069 79.7306C91.3646 78.0171 90.3104 76.7697 90.3104 76.7697L90.3101 76.77ZM18.1349 68.0434C15.9277 70.7232 14.7689 74.2629 15.0278 77.291H9.13729C10.3186 74.7219 15.028 67.2946 21.954 59.7727C22.9121 60.9647 23.9769 62.1661 25.1485 63.3871C21.7499 64.4193 19.4846 66.3372 18.0928 68.0434H18.1349ZM59.3759 36.4132L59.3754 36.413L59.3752 36.4138L59.3759 36.4132Z" fill="black"/>
<path d="M79.434 36.5341V35.5792C75.8968 35.5792 73.7782 36.9784 72.7647 39.96H65.1147C65.6496 37.5736 65.7413 35.2328 64.9532 33.8793C64.5087 33.1177 63.8089 32.7123 62.9296 32.7123C59.7781 32.7123 58.5344 35.9423 58.4834 36.0796L59.3754 36.4128C59.411 36.2947 60.4543 33.6707 62.9386 33.6707C63.4813 33.6707 63.8626 33.8897 64.1383 34.3638C64.7837 35.4753 64.6789 37.6591 64.1427 39.9542H59.7946V40.9089L63.9297 40.9127C63.4883 42.4787 62.8705 44.025 62.1742 45.2608L61.9489 45.6565L67.4085 49.0892L64.3418 51.1097L64.8683 51.9073L68.3011 49.6482L71.9952 52.0606L72.502 51.2536L69.0693 49.1317L74.4635 45.6335C74.4616 45.6314 74.4606 45.6294 74.4593 45.6275L74.4408 45.6167L74.4469 45.6157C73.316 43.9487 72.9595 42.5235 73.4298 40.909L77.8876 40.9149L77.8972 39.9667H73.7452C74.53 38.1589 75.6089 36.5341 79.434 36.5341ZM68.2621 48.4969L64.2411 45.9632L72.12 45.9652L68.2621 48.4969ZM72.4594 40.9127C72.1194 41.9915 72.2568 43.6165 73.0904 44.9992H63.3808C63.9725 43.8158 64.5186 42.374 64.9174 40.9127H72.4594Z" fill="black"/>
</g>
<defs>
<clipPath id="clip0_384_84">
<rect width="85" height="60.543" fill="white" transform="translate(7 20)"/>
</clipPath>
</defs>
</svg>
