<svg width="100" height="100" viewBox="0 0 100 100" fill="none" xmlns="http://www.w3.org/2000/svg">
<rect width="100" height="100" rx="24" fill="white"/>
<path d="M49.8268 43.5779C49.7959 43.6507 49.7667 43.7449 49.7396 43.8585L49.7196 43.9472C49.7131 43.978 49.7067 44.0099 49.7004 44.0431L49.6821 44.1458L49.6647 44.2552L49.6482 44.3712L49.6327 44.4934L49.6181 44.6219L49.6046 44.7562C49.6025 44.7791 49.6004 44.8022 49.5983 44.8256L49.5864 44.9685L49.5757 45.117L49.5662 45.2707C49.5647 45.2968 49.5633 45.323 49.5619 45.3495L50.5142 45.8104C50.4997 45.2544 50.5176 44.7287 50.5677 44.2457L50.5775 44.1596L50.5708 44.2385L50.5623 44.3689L50.5592 44.4311L50.554 44.5731L50.552 44.6529L50.5499 44.8305L50.5502 44.9796L50.5524 45.1426L50.5552 45.259L50.5613 45.4453L50.5669 45.5775L50.5738 45.716C50.5751 45.7397 50.5764 45.7636 50.5778 45.7877C50.7552 45.6431 50.9676 45.4532 51.1885 45.2457L51.3368 45.105C51.3616 45.0812 51.3864 45.0573 51.4113 45.0333L51.56 44.8881L51.7069 44.7423L51.8501 44.5976L51.988 44.4558C51.8356 44.1445 51.6713 43.9158 51.5185 43.7487L51.468 43.6953C51.4347 43.6612 51.402 43.63 51.3704 43.6015L51.3236 43.5607L51.2784 43.5238C51.2637 43.5121 51.2492 43.5011 51.2351 43.4906L51.1937 43.461L51.1546 43.4347L51.1004 43.4012L51.0523 43.3743L50.9986 43.3477L50.9584 43.3304L50.8849 43.3038L50.8314 43.2867L50.7792 43.2719L50.7394 43.2619L50.6962 43.2522C50.6888 43.2507 50.6812 43.2491 50.6735 43.2476L50.6259 43.2392L50.576 43.232C50.3127 43.199 49.9726 43.2336 49.8268 43.5779Z" fill="url(#paint0_linear_277_320)"/>
<path d="M50.7633 48.6212C50.7194 48.3043 50.6792 47.9927 50.6429 47.6862C50.6135 47.4317 50.5894 47.181 50.5696 46.9328L50.5527 46.7102C50.5524 46.7044 50.5522 46.6987 50.5523 46.6933C50.5315 46.3915 50.5164 46.0976 50.5097 45.8096L49.5593 45.3513L49.5567 45.4096L49.5503 45.5305C49.5409 45.7581 49.5338 46.0001 49.5318 46.2544C49.5295 46.541 49.5322 46.84 49.5374 47.1532C49.5441 47.4412 49.5559 47.7416 49.5715 48.0472C49.5831 48.2434 49.5957 48.441 49.6102 48.6412L49.6277 48.8728L50.899 49.5169L50.8542 49.2168L50.7633 48.6212Z" fill="url(#paint1_linear_277_320)"/>
<path d="M52.6022 56.0041L52.6219 56.0719L52.7481 56.5009C52.7663 56.5619 52.7846 56.6231 52.8033 56.6846L52.8636 56.8797L52.8842 56.9499C52.8878 56.9613 52.8917 56.9727 52.8962 56.9842L53.101 57.6405C53.2823 57.603 53.5034 57.6707 53.737 57.7726L53.831 57.815C53.6591 57.6081 53.4211 57.4698 53.1367 57.4377C53.9153 56.9184 54.4276 56.2495 54.3557 55.4515C54.348 55.3809 54.3384 55.3077 54.3243 55.2338C54.3125 55.5279 54.1951 55.7438 53.8548 55.9746L53.8129 56.0024C54.1648 55.3829 54.2617 54.9626 54.2201 54.4193C54.2098 54.2904 54.1937 54.1537 54.17 54.0066C54.0575 54.8156 53.623 55.3391 52.9876 55.6489L52.6022 56.0041Z" fill="url(#paint2_linear_277_320)"/>
<path d="M52.1462 55.0546L52.0653 54.7514L51.9027 54.1378C51.8255 53.8412 51.7509 53.5428 51.6771 53.2399C51.6032 52.9369 51.5319 52.632 51.4607 52.3272C51.3882 52.0152 51.3203 51.7039 51.2549 51.3907L51.1904 51.081L51.0665 50.4614C51.0444 50.3493 51.0242 50.2397 51.0046 50.1256C50.9691 49.935 50.9361 49.7425 50.9032 49.55L50.8964 49.5188L49.6322 48.8735L49.6363 48.9136C49.6368 48.9205 49.637 48.9275 49.6367 48.9344C49.6623 49.2207 49.6871 49.5115 49.7209 49.8037C49.7541 50.1004 49.7918 50.3978 49.8359 50.6985C49.8734 50.9519 49.9135 51.2034 49.9555 51.4574L49.9831 51.6098C50.0413 51.9242 50.1035 52.2277 50.1711 52.5112C50.2467 52.8329 50.3277 53.1347 50.4096 53.4157C50.4646 53.6 50.5184 53.7772 50.5736 53.9454L50.6226 54.0871L50.7239 54.3689C50.8447 54.6975 50.9786 55.0166 51.1229 55.3281L52.4007 55.9755C52.3326 55.7405 52.2697 55.5017 52.2004 55.2597L52.1649 55.1239L52.1462 55.0546Z" fill="url(#paint3_linear_277_320)"/>
<path d="M51.1419 55.3703C51.2959 55.6998 51.4638 56.0189 51.6493 56.3253L51.7521 56.4916C51.631 56.4429 51.4779 56.4186 51.3291 56.4078L51.2553 56.4034C51.2431 56.4029 51.231 56.4024 51.2189 56.402L51.1481 56.4004L51.0482 56.4008L50.959 56.4034L50.8839 56.4073L50.7789 56.4159C50.778 56.416 50.7777 56.4161 50.7777 56.4161C51.4238 56.6402 51.9904 56.9147 52.3478 57.3305C52.2058 57.487 51.9399 57.6059 51.6056 57.7027C51.8545 57.7297 52.0441 57.7187 52.1808 57.6964L52.2361 57.6862C52.2448 57.6844 52.2533 57.6826 52.2614 57.6808L52.3073 57.6694L52.347 57.6578L52.3951 57.641L52.4198 57.6309C52.2145 57.802 52.086 58.0936 51.9793 58.4205L51.9424 58.5372C51.9364 58.5568 51.9304 58.5766 51.9245 58.5964C52.1963 58.1521 52.4659 57.8578 52.7285 57.7454C53.0218 58.7178 53.3609 59.7527 53.7332 60.8327L53.9072 61.3343C53.966 61.5025 54.0255 61.6717 54.0858 61.8419C54.1723 61.7302 54.182 61.6067 54.1458 61.4808L54.0268 61.1446L53.8912 60.7516L53.6811 60.1285L53.509 59.606L53.3188 59.0163L53.1372 58.4411L52.9705 57.9021L52.8479 57.4984L52.7481 57.1652C52.7348 57.1214 52.7226 57.0769 52.7094 57.0318L52.6718 56.9081L52.5641 56.5357L52.4545 56.1527L52.4052 55.9761L52.4033 55.9735L51.1255 55.3262C51.1284 55.3374 51.1316 55.3467 51.1355 55.356L51.1419 55.3703Z" fill="url(#paint4_linear_277_320)"/>
<path d="M51.0475 49.5442L51.0702 49.668C51.0866 49.7523 51.1018 49.8374 51.118 49.9231L51.2562 50.6323L51.307 50.8792L51.3809 51.2283C51.3936 51.2872 51.4063 51.3466 51.4191 51.4064C51.4573 51.5831 51.4975 51.7626 51.5396 51.9458L51.6264 52.3177L51.7128 52.6805C51.7276 52.7418 51.7426 52.8035 51.7577 52.8654L51.8505 53.2408L51.9432 53.6057C51.9903 53.7901 52.0388 53.9775 52.09 54.1687C52.1273 54.3098 52.1661 54.4529 52.2058 54.5978L52.3387 55.0817L52.4391 55.4373L52.5428 55.8005C52.5604 55.8616 52.5781 55.9229 52.596 55.9844C52.5972 55.9916 52.5984 55.9987 52.6022 56.0039L52.9877 55.6488L52.9784 55.6526L52.9578 55.6627C53.4152 55.2306 53.8072 54.365 53.8969 53.5849C53.9381 53.2256 53.9343 52.8431 53.8849 52.4259C53.8493 52.1149 53.786 51.7881 53.6991 51.4346C53.6233 51.129 53.5296 50.8045 53.4154 50.463C53.3447 50.6072 53.2442 50.7491 53.1211 50.8876L53.0544 50.9607L53.0315 50.9845L52.9831 51.0331C53.3205 50.5086 53.3606 49.9454 53.2605 49.3607C53.1992 49.5341 53.0788 49.791 52.879 50.0219C52.8535 50.0527 52.8234 50.0828 52.7933 50.1129C52.7881 50.1167 52.7837 50.1217 52.7783 50.1269L52.7691 50.1347C52.8811 49.9482 52.9638 49.7711 53.0168 49.5917C53.0252 49.5668 53.0317 49.5416 53.0374 49.5162L53.0458 49.4781C53.0593 49.4201 53.0683 49.3613 53.0773 49.3025L53.0902 49.1887C53.0952 49.1218 53.0967 49.053 53.0934 48.9832L53.0846 48.8547C53.0837 48.8452 53.0826 48.8358 53.081 48.8263L53.0676 48.744C53.0653 48.7308 53.0629 48.7178 53.0602 48.705C53.0341 48.5522 53.0054 48.4161 52.9758 48.2953L52.948 48.1869L52.923 48.0953L52.8904 47.987L52.848 47.86C52.8435 47.8473 52.839 47.835 52.8345 47.8233L52.8089 47.7593C52.8007 47.7396 52.7928 47.7216 52.7854 47.7054L52.7643 47.6621C52.7603 47.6785 52.7551 47.6957 52.7481 47.7129L52.7363 47.7388C52.6568 47.9257 52.4716 48.1819 52.3028 48.362C52.3002 48.3639 52.2976 48.3658 52.2969 48.3704L52.2621 48.4051C52.2561 48.4114 52.2503 48.418 52.2446 48.4248L52.2512 48.4119L51.0367 49.524C51.047 49.5325 51.0482 49.5396 51.0475 49.5442Z" fill="url(#paint5_linear_277_320)"/>
<path d="M50.5778 45.7877C50.5827 45.8764 50.5885 45.9688 50.5953 46.0649L50.61 46.262C50.6127 46.2956 50.6154 46.3296 50.6182 46.3641L50.6363 46.5754C50.6395 46.6114 50.6428 46.6478 50.6461 46.6846L50.649 46.7196C50.6497 46.7252 50.6506 46.7308 50.6521 46.7364C50.6623 46.8447 50.6738 46.9562 50.6864 47.0711L50.7134 47.3057C50.7229 47.3855 50.733 47.467 50.7437 47.5502L50.7942 47.9318C50.8178 48.105 50.8434 48.2845 50.872 48.4717L50.894 48.6135C50.9158 48.758 50.94 48.9058 50.9656 49.0576L51.0457 49.5255L52.2602 48.4135C52.5134 47.9547 52.5688 47.6693 52.5653 47.3146C52.5641 47.2433 52.5608 47.169 52.5561 47.0929L52.5509 47.0162C52.5315 46.7054 52.4942 46.3756 52.4412 46.0574C52.3913 45.7488 52.3303 45.4525 52.2604 45.1988C52.2162 45.0346 52.1692 44.8885 52.1213 44.7631C52.0778 44.6546 52.0329 44.5552 51.9873 44.4602L51.8496 44.6008C51.8261 44.6245 51.8024 44.6484 51.7786 44.6724L51.6334 44.817L51.4855 44.9621L51.3366 45.1057C51.3118 45.1294 51.287 45.153 51.2623 45.1764L51.1152 45.3144C50.9208 45.4948 50.7354 45.6591 50.5778 45.7877Z" fill="url(#paint6_linear_277_320)"/>
<path d="M43.2153 44.1111C43.8895 44.184 44.4817 44.3207 44.9919 44.5211C45.5203 44.7215 45.9485 44.9949 46.2765 45.3411C46.6227 45.6691 46.8504 46.0973 46.9598 46.6257C47.0144 46.9354 47.0144 47.2908 46.9598 47.6916C46.9051 48.0925 46.8322 48.5025 46.7411 48.9216L45.5112 55.0167C45.4565 55.3629 45.3927 55.7182 45.3198 56.0826C45.247 56.4288 45.2196 56.7477 45.2378 57.0393C45.2378 57.0939 45.2287 57.1577 45.2105 57.2306V57.3946C45.2105 57.595 45.1923 57.7954 45.1558 57.9959C45.1194 58.1963 45.001 58.333 44.8005 58.4059C44.673 58.4605 44.5363 58.4879 44.3905 58.4879H41.9853C41.8395 58.4696 41.7302 58.4241 41.6573 58.3512C41.548 58.2783 41.4751 58.1781 41.4387 58.0505C41.4022 57.9048 41.3384 57.7863 41.2473 57.6952C41.2109 57.6588 41.1653 57.6314 41.1107 57.6132C41.0742 57.5768 41.0105 57.5677 40.9194 57.5859C40.81 57.6223 40.7098 57.6679 40.6187 57.7226C40.5276 57.7772 40.4365 57.8228 40.3454 57.8592C40.236 57.9321 40.1176 57.9959 39.9901 58.0505C39.8807 58.1052 39.7623 58.1599 39.6347 58.2145C39.3796 58.3239 39.1154 58.415 38.8421 58.4879C38.5688 58.5425 38.2955 58.6063 38.0221 58.6792C37.8764 58.7156 37.7397 58.7338 37.6122 58.7338C37.5028 58.7521 37.3844 58.7703 37.2568 58.7885H37.0928C37.0382 58.8067 36.9835 58.8158 36.9289 58.8158H36.6282C36.4278 58.8523 36.2455 58.8523 36.0816 58.8158H35.8356C35.708 58.7794 35.5805 58.7612 35.4529 58.7612C35.3436 58.7794 35.2343 58.7703 35.1249 58.7338C34.9609 58.6974 34.7969 58.661 34.6329 58.6245C34.469 58.6063 34.3232 58.5607 34.1956 58.4879C33.7037 58.2874 33.3028 58.0323 32.993 57.7226C32.6833 57.3946 32.4737 56.9664 32.3644 56.4379C32.3279 56.3104 32.3006 56.1737 32.2824 56.028C32.2824 55.8822 32.2733 55.7273 32.255 55.5633C32.2368 55.4722 32.2368 55.3811 32.255 55.29C32.2915 55.1989 32.3097 55.1078 32.3097 55.0167C32.3097 54.962 32.3188 54.8527 32.337 54.6887C32.3735 54.5065 32.4099 54.3789 32.4464 54.306C32.5193 54.1238 32.5648 53.9689 32.583 53.8414L32.8564 53.2401C32.9657 53.0214 33.0841 52.8301 33.2117 52.6661C33.6125 52.1377 34.0408 51.7368 34.4963 51.4635C34.9518 51.1902 35.5167 50.9533 36.1909 50.7528C36.446 50.6617 36.7011 50.598 36.9562 50.5615C37.2113 50.5251 37.4755 50.4795 37.7488 50.4249C37.8946 50.3884 38.0495 50.3702 38.2135 50.3702C38.3957 50.352 38.5688 50.3246 38.7328 50.2882C38.8603 50.2518 38.9879 50.2426 39.1154 50.2609C39.243 50.2609 39.3888 50.2426 39.5527 50.2062C39.6803 50.1698 39.8078 50.1515 39.9354 50.1515C40.0629 50.1515 40.1996 50.1333 40.3454 50.0969C40.7463 50.0058 41.1107 49.9329 41.4387 49.8782C41.7849 49.8053 42.1129 49.6413 42.4226 49.3862C42.6048 49.2222 42.7506 49.04 42.8599 48.8396C42.8782 48.7849 42.8873 48.7394 42.8873 48.7029C42.8873 48.6665 42.8964 48.63 42.9146 48.5936C42.951 48.5572 42.9693 48.5025 42.9693 48.4296C42.9875 48.3567 43.0057 48.3021 43.0239 48.2656V47.8556C42.951 47.309 42.6413 46.9354 42.0946 46.735C41.9489 46.6803 41.7575 46.6439 41.5207 46.6257C41.302 46.5892 41.0742 46.5801 40.8374 46.5984C40.6005 46.5984 40.3636 46.6166 40.1267 46.653C39.9081 46.6895 39.7167 46.735 39.5527 46.7897C39.4252 46.8261 39.3068 46.8808 39.1974 46.9537C39.0881 47.0083 38.9788 47.0721 38.8694 47.145C38.7601 47.2179 38.6417 47.3181 38.5141 47.4456C38.3866 47.5732 38.2955 47.6916 38.2408 47.801C38.1132 47.9832 38.0039 48.1563 37.9128 48.3203C37.8217 48.4843 37.6668 48.5936 37.4482 48.6483C37.3024 48.6847 37.1475 48.7029 36.9835 48.7029H35.4529C35.3618 48.7029 35.2616 48.712 35.1523 48.7303C35.0612 48.7303 34.9883 48.7212 34.9336 48.7029H34.6876C34.6512 48.6847 34.6056 48.6756 34.551 48.6756C34.4963 48.6756 34.4507 48.6574 34.4143 48.6209C34.2867 48.5845 34.2139 48.4661 34.1956 48.2656C34.1956 48.1745 34.2139 48.0834 34.2503 47.9923C34.2867 47.9012 34.3232 47.8192 34.3596 47.7463C34.4507 47.5459 34.5418 47.3637 34.6329 47.1997C34.7423 47.0174 34.8516 46.8535 34.9609 46.7077L35.1796 46.4344C35.2525 46.3433 35.3254 46.2521 35.3983 46.161C35.5805 45.9606 35.7991 45.7693 36.0542 45.5871C36.1089 45.5688 36.1727 45.5233 36.2455 45.4504C36.3549 45.3775 36.446 45.3137 36.5189 45.2591C36.61 45.2044 36.7102 45.1497 36.8195 45.0951C37.1657 44.8946 37.5211 44.7398 37.8855 44.6304C38.2681 44.5029 38.6508 44.3844 39.0334 44.2751C39.2703 44.2204 39.5072 44.184 39.7441 44.1658C39.9809 44.1476 40.2269 44.1111 40.482 44.0565C40.5549 44.0382 40.6643 44.0382 40.81 44.0565C40.9558 44.0747 41.056 44.0656 41.1107 44.0291C41.8578 44.0109 42.5593 44.0382 43.2153 44.1111ZM73.6018 44.3298C74.2214 44.5484 74.7589 44.84 75.2144 45.2044C75.3602 45.3137 75.4969 45.4413 75.6244 45.5871C75.7702 45.7146 75.8886 45.8513 75.9797 45.997C76.0162 46.0882 76.0799 46.161 76.1711 46.2157C76.2804 46.4161 76.3715 46.6257 76.4444 46.8443C76.5355 47.0448 76.6357 47.2543 76.745 47.473C76.7997 47.637 76.8361 47.8101 76.8544 47.9923C76.8908 48.1563 76.9272 48.3385 76.9637 48.5389C77.0001 48.7758 77.0183 49.0218 77.0183 49.2769C77.0366 49.532 77.0548 49.7871 77.073 50.0422C77.073 50.188 77.0457 50.352 76.991 50.5342C76.9546 50.6982 76.9455 50.8531 76.9637 50.9988L76.909 51.2995C76.909 51.4453 76.8726 51.6093 76.7997 51.7915C76.7268 51.9737 76.6357 52.0921 76.5264 52.1468C76.4353 52.2197 76.2986 52.2743 76.1164 52.3108C75.9342 52.329 75.7337 52.3472 75.5151 52.3654H74.8864C74.686 52.3472 74.5038 52.3381 74.3398 52.3381H67.2881C67.1788 52.3381 67.0785 52.3563 66.9874 52.3928C66.8234 52.4657 66.7141 52.5386 66.6594 52.6114C66.623 52.6479 66.5683 52.7208 66.4955 52.8301C66.4408 52.9212 66.4135 53.0123 66.4135 53.1034C66.4317 53.2127 66.4317 53.3221 66.4135 53.4314C66.4135 53.5225 66.4226 53.6227 66.4408 53.7321C66.4955 54.1694 66.5957 54.5338 66.7414 54.8253C66.9054 55.0987 67.1423 55.3447 67.4521 55.5633C67.5796 55.6544 67.7163 55.7182 67.8621 55.7546C68.0261 55.7729 68.1809 55.8093 68.3267 55.864C68.4725 55.9004 68.6638 55.9277 68.9007 55.946C69.1558 55.9642 69.3836 55.9551 69.584 55.9186H69.83C70.0122 55.8822 70.1853 55.8457 70.3493 55.8093L70.8413 55.6453C71.0417 55.5542 71.2695 55.4358 71.5246 55.29C71.7797 55.1442 71.9801 54.9984 72.1259 54.8527C72.2352 54.7251 72.3537 54.6067 72.4812 54.4974C72.6088 54.3698 72.7454 54.2787 72.8912 54.224C73.0916 54.1329 73.3285 54.0965 73.6018 54.1147H74.7225C74.85 54.0965 74.9593 54.1056 75.0504 54.142H75.3238C75.4878 54.1785 75.6062 54.224 75.6791 54.2787C75.7337 54.3151 75.752 54.3971 75.7337 54.5247C75.7337 54.6522 75.7064 54.7616 75.6517 54.8527C75.506 55.1078 75.3511 55.3355 75.1871 55.536C75.0413 55.7364 74.8773 55.9369 74.6951 56.1373C74.1849 56.7386 73.6383 57.2215 73.0552 57.5859C72.4721 57.9503 71.7706 58.2601 70.9506 58.5152C70.7319 58.5881 70.5224 58.6336 70.322 58.6518C70.1215 58.6701 69.9029 58.7065 69.666 58.7612C69.5931 58.7794 69.5111 58.7794 69.42 58.7612C69.3471 58.7612 69.2742 58.7703 69.2013 58.7885H68.9007C68.7914 58.825 68.682 58.8341 68.5727 58.8158C68.4634 58.8158 68.3632 58.8067 68.2721 58.7885C68.1263 58.7703 67.9987 58.7703 67.8894 58.7885C67.7801 58.8067 67.6616 58.7976 67.5341 58.7612C67.443 58.7247 67.3428 58.7065 67.2334 58.7065C67.1241 58.7065 67.033 58.6883 66.9601 58.6518C66.7597 58.6154 66.5592 58.5699 66.3588 58.5152C66.1766 58.4787 66.0126 58.415 65.8668 58.3239C65.6846 58.251 65.5115 58.1872 65.3475 58.1325C65.1835 58.0597 65.0377 57.9777 64.9102 57.8866C64.4 57.5221 63.9627 57.103 63.5982 56.6293C63.252 56.1373 62.9969 55.5724 62.8329 54.9347C62.7783 54.7342 62.7418 54.5338 62.7236 54.3334C62.7236 54.1147 62.6963 53.896 62.6416 53.6774V53.4861C62.6598 53.4132 62.6689 53.3403 62.6689 53.2674C62.6507 53.0488 62.6507 52.8119 62.6689 52.5568L62.7783 51.7915C62.7965 51.7004 62.8056 51.6001 62.8056 51.4908C62.8238 51.3815 62.8512 51.2813 62.8876 51.1902L62.9696 50.8622L63.1883 50.2062C63.3158 49.8964 63.4342 49.5958 63.5436 49.3042C63.6529 49.0127 63.7896 48.7394 63.9536 48.4843C65.1197 46.5892 66.7232 45.25 68.764 44.4664C69.0373 44.3571 69.3107 44.2842 69.584 44.2478C69.8573 44.1931 70.1489 44.1293 70.4586 44.0565C70.6044 44.0382 70.7411 44.0291 70.8686 44.0291C70.9962 44.0291 71.1328 44.02 71.2786 44.0018C72.2079 43.9836 72.9823 44.0929 73.6018 44.3298ZM16.9968 39C17.3066 39 17.5253 39.0638 17.6528 39.1913C17.7621 39.2824 17.8259 39.4191 17.8441 39.6013C17.8624 39.7653 17.8897 39.9293 17.9261 40.0933C17.9626 40.3848 17.999 40.6855 18.0355 40.9953C18.0901 41.2868 18.1357 41.5874 18.1721 41.8972C18.3726 43.0452 18.5366 44.2113 18.6641 45.3957C18.8099 46.5801 18.983 47.7554 19.1834 48.9216C19.2563 49.286 19.311 49.6596 19.3474 50.0422C19.3839 50.4249 19.4385 50.7984 19.5114 51.1628C19.5296 51.2539 19.5479 51.345 19.5661 51.4362C19.5843 51.5273 19.6299 51.6001 19.7027 51.6548C19.7392 51.673 19.7665 51.6913 19.7847 51.7095C19.8212 51.7277 19.8667 51.7186 19.9214 51.6821C20.0672 51.6457 20.1856 51.5364 20.2767 51.3542C20.3678 51.1719 20.4589 51.0079 20.55 50.8622C20.7687 50.4431 20.9782 50.0331 21.1787 49.6322C21.3791 49.2131 21.5978 48.794 21.8346 48.3749C22.4177 47.2634 23.0008 46.1519 23.5839 45.0404C24.1852 43.9107 24.7774 42.781 25.3605 41.6512C25.5063 41.3597 25.652 41.0772 25.7978 40.8039C25.9618 40.5124 26.1167 40.2208 26.2625 39.9293C26.3353 39.7835 26.4173 39.6378 26.5085 39.492C26.5996 39.3462 26.7271 39.2278 26.8911 39.1367C27.0187 39.0456 27.1644 39 27.3284 39H32.0296C32.2118 39 32.3393 39.0364 32.4122 39.1093C32.5944 39.2187 32.6491 39.4282 32.5762 39.738C32.5215 40.0295 32.4669 40.3302 32.4122 40.6399L31.5922 44.7398L29.5423 54.9073L29.0777 57.2852C29.0412 57.4857 28.9957 57.6861 28.941 57.8866C28.8864 58.0688 28.7952 58.2054 28.6677 58.2965C28.5401 58.3876 28.3944 58.4423 28.2304 58.4605H25.6338C25.5063 58.4241 25.3878 58.3967 25.2785 58.3785C25.1874 58.3603 25.1145 58.2965 25.0598 58.1872C25.0052 58.0961 24.987 57.9777 25.0052 57.8319C25.0416 57.6861 25.0781 57.5312 25.1145 57.3672L25.3878 55.9733L26.8091 48.9489C26.8456 48.6938 26.882 48.4569 26.9184 48.2383C26.9731 48.0014 27.0187 47.7645 27.0551 47.5276C27.0915 47.3819 27.128 47.2361 27.1644 47.0903C27.2009 46.9263 27.2191 46.7715 27.2191 46.6257C27.2009 46.4981 27.2009 46.3615 27.2191 46.2157C27.2555 46.0699 27.2282 45.9788 27.1371 45.9424C27.0824 45.9242 27.0369 45.9333 27.0004 45.9697L26.9184 46.0517C26.8273 46.1246 26.7453 46.2157 26.6724 46.325L26.5085 46.5984C26.3445 46.8717 26.1805 47.1541 26.0165 47.4456C25.8707 47.7372 25.7067 48.0287 25.5245 48.3203L25.3605 48.6483C25.3241 48.7576 25.2694 48.8669 25.1965 48.9763C25.0507 49.2131 24.9141 49.45 24.7865 49.6869C24.6772 49.9238 24.5496 50.1606 24.4039 50.3975C24.3674 50.4522 24.3401 50.516 24.3219 50.5889C24.3037 50.6435 24.2763 50.6982 24.2399 50.7528C24.1306 50.9168 24.0303 51.0899 23.9392 51.2722C23.8663 51.4544 23.7661 51.6366 23.6386 51.8188C23.5292 51.9828 23.429 52.1559 23.3379 52.3381C23.265 52.5203 23.1739 52.7025 23.0646 52.8848C22.7366 53.4132 22.436 53.9507 22.1626 54.4974C21.8893 55.0258 21.6069 55.5542 21.3153 56.0826C21.2607 56.1373 21.2242 56.192 21.206 56.2466C21.206 56.3013 21.1787 56.3559 21.124 56.4106C20.9965 56.611 20.878 56.8206 20.7687 57.0393C20.6776 57.2397 20.5683 57.4401 20.4407 57.6406C20.3678 57.7681 20.2949 57.8865 20.222 57.9959C20.1492 58.1052 20.0672 58.1963 19.9761 58.2692C19.8667 58.3421 19.7665 58.3876 19.6754 58.4059C19.5843 58.4059 19.4659 58.4241 19.3201 58.4605H18.6914C18.5639 58.4605 18.409 58.4696 18.2268 58.4879H17.7075C17.5435 58.4879 17.3886 58.4787 17.2428 58.4605C17.0971 58.4423 16.9968 58.4059 16.9422 58.3512C16.8146 58.2601 16.7326 58.1599 16.6962 58.0505C16.678 57.923 16.6415 57.7772 16.5869 57.6132C16.5504 57.3946 16.5231 57.1759 16.5049 56.9573C16.4866 56.7204 16.4502 56.4926 16.3955 56.2739L16.3682 56.028C16.3135 55.8093 16.2771 55.5815 16.2589 55.3447C16.2407 55.0896 16.2042 54.8527 16.1496 54.634V54.4974C16.1496 54.4427 16.1404 54.388 16.1222 54.3334C16.0676 54.1694 16.0311 53.9963 16.0129 53.8141C15.9947 53.6318 15.9673 53.4496 15.9309 53.2674V53.1307C15.9309 53.0761 15.9218 53.0305 15.9036 52.9941C15.8671 52.8119 15.8398 52.6297 15.8216 52.4474C15.8216 52.2652 15.7942 52.083 15.7396 51.9008C15.6667 51.5364 15.6029 51.1537 15.5482 50.7528C15.5118 50.352 15.4571 49.9602 15.3842 49.5776C15.3114 49.122 15.2476 48.6574 15.1929 48.1836C15.1565 47.7099 15.0745 47.2543 14.9469 46.817C14.9105 46.5619 14.8558 46.3524 14.7829 46.1884C14.7465 46.1519 14.7101 46.1246 14.6736 46.1064C14.6554 46.0699 14.6189 46.0699 14.5643 46.1064C14.455 46.161 14.3821 46.2521 14.3456 46.3797C14.3274 46.5072 14.291 46.6348 14.2363 46.7623C14.1634 46.8899 14.1179 47.0266 14.0996 47.1723C14.0814 47.2999 14.0632 47.4365 14.045 47.5823C14.0085 47.7827 13.963 47.9832 13.9083 48.1836C13.8719 48.3841 13.8263 48.5845 13.7716 48.7849L12.323 56.0553L12.0497 57.3946L11.9404 57.8319C11.9222 57.9777 11.8675 58.0961 11.7764 58.1872C11.6853 58.3148 11.5304 58.3968 11.3118 58.4332C11.1842 58.4696 11.0475 58.4879 10.9018 58.4879C10.756 58.4696 10.6102 58.4605 10.4645 58.4605H8.49653C8.33254 58.4423 8.20499 58.3876 8.11388 58.2965C8.02278 58.2054 7.98633 58.0688 8.00456 57.8866L8.11388 57.2852L8.57853 54.88L10.6284 44.7124L11.3937 40.8859C11.412 40.7766 11.4302 40.649 11.4484 40.5033C11.4849 40.3393 11.5213 40.1844 11.5577 40.0386C11.5942 39.8929 11.6306 39.7562 11.6671 39.6286C11.7217 39.4829 11.7673 39.3735 11.8037 39.3007C11.9131 39.1731 12.0771 39.082 12.2957 39.0273C12.3504 39.0091 12.3868 39.0091 12.405 39.0273C12.4415 39.0273 12.487 39.0182 12.5417 39H16.9968ZM91.3191 44.4938C91.9933 44.84 92.467 45.3502 92.7403 46.0244C92.8315 46.2248 92.8861 46.4435 92.9043 46.6803C92.9408 46.899 92.9681 47.1268 92.9863 47.3637C93.0046 47.5094 93.0046 47.6461 92.9863 47.7736C92.9681 47.9012 92.9681 48.0287 92.9863 48.1563C92.9499 48.2656 92.9408 48.3385 92.959 48.3749C92.9408 48.63 92.9043 48.8943 92.8497 49.1676C92.795 49.4409 92.7403 49.7051 92.6857 49.9602L92.221 52.3928L91.3191 56.8206C91.2462 57.1668 91.1733 57.5039 91.1004 57.8319C91.0275 58.1416 90.8544 58.3421 90.5811 58.4332C90.4718 58.4696 90.3442 58.4879 90.1984 58.4879H88.2852C88.0665 58.4879 87.8752 58.4787 87.7112 58.4605C87.5472 58.4241 87.4288 58.3421 87.3559 58.2145C87.3012 58.1052 87.283 57.9685 87.3012 57.8046C87.3377 57.6223 87.3741 57.431 87.4106 57.2306L87.7932 55.3173L88.6132 51.2448C88.7407 50.5706 88.8318 49.9511 88.8865 49.3862C88.9594 48.8031 88.8956 48.3112 88.6952 47.9103C88.513 47.5459 88.1941 47.2908 87.7386 47.145C87.6474 47.1086 87.5472 47.0903 87.4379 47.0903C87.3468 47.0903 87.2557 47.0721 87.1646 47.0357C87.0735 47.0174 86.955 47.0174 86.8093 47.0357C86.6817 47.0357 86.5815 47.0448 86.5086 47.063C86.4175 47.0812 86.3446 47.0903 86.2899 47.0903C86.2353 47.0903 86.1806 47.0994 86.126 47.1177C85.6886 47.227 85.3242 47.3728 85.0327 47.555C84.3585 47.9741 83.8847 48.5845 83.6114 49.3862C83.3563 50.188 83.1285 51.0899 82.9281 52.0921L82.2448 55.5086L81.9168 57.1759C81.8804 57.3399 81.8439 57.5039 81.8075 57.6679C81.771 57.8319 81.7164 57.9685 81.6435 58.0779C81.5159 58.2783 81.3428 58.3968 81.1242 58.4332C80.9237 58.4696 80.6777 58.4879 80.3862 58.4879H79.0196C78.8191 58.4879 78.6187 58.4787 78.4183 58.4605C78.2178 58.4423 78.0903 58.3785 78.0356 58.2692C77.9263 58.1052 77.9081 57.8683 77.981 57.5586C78.0538 57.2488 78.1176 56.9573 78.1723 56.6839L78.9103 52.9668L80.1129 46.9537L80.4135 45.5597C80.45 45.3593 80.4864 45.1771 80.5229 45.0131C80.5593 44.8491 80.6413 44.7124 80.7688 44.6031C80.8053 44.5484 80.8691 44.512 80.9602 44.4938C81.0513 44.4573 81.1424 44.43 81.2335 44.4118H81.3701C81.4613 44.3936 81.5524 44.3844 81.6435 44.3844H83.0921C83.2378 44.3844 83.3745 44.3936 83.5021 44.4118C83.6478 44.4118 83.7754 44.43 83.8847 44.4664C83.994 44.5211 84.0578 44.6031 84.076 44.7124C84.1125 44.8218 84.1307 44.9493 84.1307 45.0951C84.1307 45.168 84.1216 45.2317 84.1034 45.2864C84.0852 45.3411 84.0852 45.3957 84.1034 45.4504C84.1216 45.5415 84.1398 45.5962 84.158 45.6144C84.1945 45.6326 84.24 45.6599 84.2947 45.6964C84.4769 45.7146 84.65 45.6508 84.814 45.5051C84.978 45.3411 85.142 45.2135 85.306 45.1224C85.8708 44.758 86.4722 44.4664 87.1099 44.2478C87.2921 44.1931 87.4652 44.1567 87.6292 44.1385C87.8114 44.1202 88.0119 44.0929 88.2305 44.0565C88.2852 44.0382 88.3672 44.0382 88.4765 44.0565C88.5858 44.0565 88.6587 44.0473 88.6952 44.0291C89.7885 43.9927 90.6631 44.1476 91.3191 44.4938ZM41.712 51.9281C41.6391 51.9464 41.5753 51.9646 41.5207 51.9828C41.466 51.9828 41.3931 51.9919 41.302 52.0101C41.1745 52.0466 41.0378 52.0739 40.892 52.0921C40.7463 52.1103 40.5914 52.1377 40.4274 52.1741C40.3727 52.1923 40.2907 52.2015 40.1814 52.2015C39.9263 52.2561 39.6803 52.2926 39.4434 52.3108C39.2065 52.329 38.9697 52.3746 38.7328 52.4474L38.2955 52.5568C38.1679 52.575 38.0404 52.6114 37.9128 52.6661C37.4937 52.8301 37.1202 53.0761 36.7922 53.4041C36.4642 53.7321 36.2729 54.1876 36.2182 54.7707C36.2 55.0804 36.2547 55.3355 36.3822 55.536C36.4551 55.7364 36.61 55.9004 36.8469 56.028C37.0837 56.1373 37.3479 56.2193 37.6395 56.2739C37.931 56.3286 38.2408 56.3468 38.5688 56.3286C38.915 56.2922 39.243 56.2284 39.5527 56.1373C40.0629 55.9915 40.482 55.7637 40.81 55.454C41.1562 55.126 41.4478 54.7251 41.6847 54.2514C41.7393 54.1238 41.7849 53.9963 41.8213 53.8687C41.8578 53.7229 41.9124 53.5772 41.9853 53.4314L42.04 53.1854C42.0764 53.0943 42.1037 52.9941 42.122 52.8848C42.1402 52.7572 42.1493 52.6479 42.1493 52.5568C42.1493 52.4474 42.1584 52.3472 42.1766 52.2561C42.1949 52.165 42.1675 52.0921 42.0946 52.0375C42.0218 51.9646 41.8942 51.9281 41.712 51.9281ZM70.7319 46.8717C70.6773 46.9081 70.6135 46.9172 70.5406 46.899C70.4677 46.8808 70.404 46.8808 70.3493 46.899C70.24 46.9354 70.1306 46.9628 70.0213 46.981C69.912 46.981 69.8118 46.9992 69.7207 47.0357C68.8642 47.2908 68.1718 47.7919 67.6434 48.5389C67.5887 48.6118 67.525 48.712 67.4521 48.8396C67.3792 48.9489 67.3245 49.0674 67.2881 49.1949C67.2516 49.3042 67.2334 49.4136 67.2334 49.5229C67.2334 49.6322 67.279 49.7233 67.3701 49.7962C67.4976 49.8873 67.689 49.9329 67.9441 49.9329H72.5085C72.8001 49.9147 73.0005 49.8327 73.1098 49.6869C73.2738 49.5047 73.3285 49.286 73.2738 49.0309C73.2374 48.7576 73.2101 48.5572 73.1918 48.4296C73.0279 47.9376 72.7636 47.5641 72.3992 47.309C72.0348 47.0357 71.479 46.8899 70.7319 46.8717Z" fill="black"/>
<path d="M62.2699 43.8164C62.231 43.8325 62.1887 43.8526 62.143 43.8767L62.0721 43.9158C62.0233 43.9439 61.9713 43.9758 61.9163 44.0115L61.8316 44.0679L61.7426 44.1298L61.6494 44.1972L61.5523 44.2699C61.5358 44.2824 61.5191 44.2952 61.5023 44.3082L61.3994 44.3888L61.2929 44.4744L61.183 44.565L61.0697 44.6606L60.9532 44.7609L60.8337 44.8659L60.7114 44.9756C60.6908 44.9942 60.67 45.0131 60.6492 45.0321L61.0496 46.1597C61.4827 45.6975 61.9178 45.286 62.3447 44.9354L62.495 44.8135L62.5058 44.8052L62.4025 44.8893L62.3012 44.9768L62.1914 45.0761L62.0873 45.1738L61.9997 45.258L61.9369 45.3196L61.8007 45.456L61.6895 45.5704L61.5291 45.7394L61.4438 45.8312L61.3551 45.9279L61.2158 46.0825L61.1188 46.192C61.2184 46.2015 61.3276 46.2097 61.4438 46.2167L61.6232 46.2262L61.8114 46.234L62.0064 46.24L62.2064 46.2444L62.4096 46.2471C62.4436 46.2474 62.4777 46.2477 62.5118 46.2479L62.7161 46.2482C62.7501 46.2481 62.784 46.248 62.8178 46.2478L63.0191 46.2458C63.0524 46.2454 63.0854 46.2449 63.1183 46.2443L63.3123 46.2402C63.4716 45.7653 63.5081 45.3835 63.4957 45.0984L63.4915 45.0262L63.4853 44.9584C63.4841 44.9475 63.4828 44.9368 63.4815 44.9262L63.473 44.8651L63.4633 44.8083C63.4616 44.7993 63.4598 44.7904 63.4581 44.7817L63.4471 44.7316L63.4357 44.6861L63.4241 44.645L63.4126 44.6085L63.3912 44.5489L63.3737 44.5076L63.3324 44.4223L63.3083 44.3767L63.2881 44.341L63.2647 44.3017L63.2382 44.2596L63.2085 44.2153L63.1758 44.1697C62.9931 43.9236 62.6811 43.6467 62.2699 43.8164Z" fill="url(#paint7_linear_277_320)"/>
<path d="M59.0168 48.6204C59.2332 48.3304 59.4485 48.0476 59.6628 47.7721C59.8859 47.4867 60.111 47.2128 60.3387 46.9466C60.3522 46.9301 60.3657 46.9136 60.3787 46.9007C60.6017 46.6413 60.8231 46.3927 61.0465 46.1555L60.6456 45.0315L60.5972 45.0763L60.496 45.1686C60.3075 45.3443 60.1096 45.5335 59.906 45.7366C59.7912 45.8511 59.6749 45.969 59.5568 46.0904L59.3179 46.3376C59.2776 46.3796 59.2371 46.4219 59.1963 46.4647C58.9729 46.7019 58.7437 46.953 58.5135 47.2114C58.3669 47.3785 58.22 47.5477 58.0726 47.7204L57.9027 47.9207L58.4144 49.4492L58.6167 49.1721L59.0168 48.6204Z" fill="url(#paint8_linear_277_320)"/>
<path d="M54.6315 56.0249L54.5554 56.1654L54.3542 56.5408C54.3204 56.6043 54.2865 56.6682 54.2527 56.7326L54.1462 56.9375C54.1259 56.9752 54.1061 57.0093 54.0894 57.0475L53.9775 57.2635L53.7328 57.7386C53.9321 57.8677 54.065 58.1461 54.1818 58.4591C54.2078 58.1559 54.1262 57.8555 53.9227 57.6037C54.9621 57.8043 55.906 57.6728 56.4821 56.9733C56.532 56.9103 56.5824 56.8438 56.6298 56.773C56.3859 57.0012 56.119 57.0815 55.6593 56.9957L55.6075 56.9855C56.383 56.7664 56.7949 56.5051 57.1931 56.0346C57.2872 55.9227 57.3828 55.7999 57.4806 55.6626C56.7473 56.2244 55.9816 56.3007 55.2239 56.0453L54.6315 56.0249Z" fill="url(#paint9_linear_277_320)"/>
<path d="M54.9786 54.9688L55.1944 54.5898L55.551 53.9665C55.7245 53.6665 55.9015 53.367 56.0828 53.0645C56.264 52.7619 56.4489 52.4598 56.6337 52.1578C56.8233 51.8491 57.0159 51.5445 57.2122 51.2404C57.4043 50.9394 57.6036 50.6395 57.7988 50.3427C57.8701 50.2348 57.9409 50.1305 58.0158 50.0232C58.1386 49.8415 58.2651 49.6603 58.3915 49.4792L58.4108 49.4487L57.9058 47.9248L57.8773 47.9603C57.8721 47.9663 57.8668 47.9721 57.8611 47.9774C57.6542 48.2281 57.4431 48.482 57.2382 48.7441C57.0292 49.0093 56.8232 49.2786 56.6198 49.5558C56.4487 49.7895 56.2811 50.0238 56.1131 50.2618L56.0142 50.4063C55.8112 50.7057 55.6202 50.9994 55.4494 51.2813C55.2546 51.6004 55.0801 51.9077 54.9227 52.1989C54.8206 52.3911 54.7231 52.5765 54.6339 52.7557C54.5599 52.9076 54.4889 53.0636 54.4184 53.216C54.2546 53.5766 54.1088 53.9398 53.9775 54.3052L54.4918 55.8415L54.5919 55.6592L54.7966 55.2923C54.8309 55.2307 54.8651 55.1687 54.8993 55.1062L54.9786 54.9688Z" fill="url(#paint10_linear_277_320)"/>
<path d="M53.9593 54.3542C53.8215 54.7418 53.7032 55.1322 53.609 55.5261L53.5597 55.7417C53.5134 55.6349 53.439 55.5246 53.3551 55.4205L53.3037 55.3589C53.295 55.3487 53.2863 55.3387 53.2775 55.3287L53.2244 55.2702L53.1714 55.2144L53.1191 55.1617L53.0443 55.0896L52.9765 55.0272L52.9021 54.9619L52.8352 54.9068C53.1773 55.6005 53.4154 56.2716 53.3727 56.8904C53.134 56.9034 52.8255 56.7879 52.4795 56.6003C52.6284 56.7829 52.7652 56.9118 52.8806 57.0022L52.9322 57.0412C52.9406 57.0472 52.9488 57.0531 52.9569 57.0587L53.0036 57.0902L53.0468 57.117L53.0863 57.1395L53.1218 57.1581L53.1531 57.173L53.1801 57.1846C53.1843 57.1863 53.1882 57.1879 53.1919 57.1893C52.902 57.1649 52.5807 57.2869 52.2487 57.4551L52.1377 57.5128L52.0261 57.573C52.598 57.4313 53.0488 57.4087 53.3495 57.5268C53.2018 57.8064 53.0532 58.0927 52.9036 58.385L52.6786 58.8279C52.3401 59.499 51.9973 60.1995 51.6511 60.9237L51.4197 61.41C51.3424 61.5732 51.265 61.7375 51.1874 61.9029C51.3458 61.8817 51.4517 61.79 51.5226 61.6599L51.7846 61.1044L52.0257 60.605L52.3338 59.9778L52.6059 59.4326L52.8755 58.8998L53.1317 58.4001L53.4872 57.7167L53.7396 57.2384L53.8263 57.0753L53.9011 56.9372L53.9691 56.8077L54.0728 56.6163L54.2854 56.2259C54.3214 56.16 54.3578 56.0936 54.3944 56.0269L54.4949 55.8456L54.4955 55.842L53.9812 54.3057C53.9746 54.317 53.9699 54.327 53.9656 54.3376L53.9593 54.3542Z" fill="url(#paint11_linear_277_320)"/>
<path d="M58.5122 49.5893L58.432 49.707C58.3783 49.7879 58.3229 49.8685 58.2679 49.9503L58.004 50.3481L57.8157 50.631L57.7679 50.7043C57.6964 50.814 57.6245 50.9255 57.552 51.0387L57.3317 51.3837C57.1855 51.6137 57.0383 51.8507 56.8879 52.0962L56.7745 52.282C56.5944 52.5773 56.4084 52.8866 56.2215 53.2031L56.0062 53.5706C55.8977 53.7564 55.7878 53.9458 55.6771 54.1403C55.6115 54.255 55.5456 54.3713 55.4792 54.4892L55.1519 55.0729L55.0516 55.2548L54.848 55.6254C54.7796 55.7503 54.7108 55.8766 54.6418 56.0041C54.6371 56.0108 54.6324 56.0175 54.6313 56.0247L55.2238 56.0451C55.2135 56.0399 55.2026 56.0383 55.1887 56.0325C55.9002 56.0482 56.9035 55.6628 57.5955 55.106C57.9142 54.8495 58.215 54.5386 58.5067 54.1635C58.7251 53.8849 58.9338 53.5715 59.1448 53.2178C59.3265 52.9116 59.5089 52.576 59.6884 52.2103C59.5168 52.2701 59.3232 52.3046 59.114 52.3183L59.0022 52.3241C58.9774 52.3254 58.9528 52.325 58.927 52.3251L58.8873 52.3257C59.5757 52.1715 60.0555 51.75 60.4395 51.1998C60.2523 51.2907 59.9512 51.4019 59.607 51.429C59.5619 51.4335 59.5138 51.4339 59.4657 51.4342C59.4584 51.4331 59.4509 51.4337 59.4425 51.4335L59.4289 51.4325C59.6672 51.3713 59.8745 51.2945 60.0596 51.1922C60.0863 51.1788 60.1115 51.1636 60.1363 51.1478L60.1732 51.1238C60.2303 51.0878 60.2843 51.0476 60.3382 51.0075L60.4389 50.9261C60.5153 50.8596 60.589 50.7854 60.6566 50.7028L60.6999 50.6527C60.7067 50.6444 60.7133 50.6359 60.7195 50.627L60.7741 50.5501C60.7828 50.5376 60.7912 50.5253 60.7991 50.5129C60.9016 50.3661 60.9881 50.2312 61.0612 50.1084L61.0917 50.0566C61.1313 49.9884 61.1662 49.9269 61.197 49.8686L61.2329 49.7999L61.2875 49.6894C61.2987 49.6665 61.309 49.6446 61.3179 49.6237L61.3339 49.5866L61.361 49.5196C61.3689 49.4989 61.3758 49.4798 61.3817 49.4626L61.3895 49.4382C61.3733 49.4482 61.3554 49.4579 61.3361 49.4663L61.3061 49.4778C61.0936 49.5649 60.7409 49.6241 60.462 49.635C60.4583 49.6345 60.4547 49.6339 60.4506 49.637L60.3949 49.6373C60.3851 49.6377 60.3752 49.6383 60.3652 49.6393L60.3807 49.6342L58.5195 49.5645C58.521 49.5795 58.5163 49.5862 58.5122 49.5893Z" fill="url(#paint12_linear_277_320)"/>
<path d="M61.1188 46.1919C61.0523 46.2672 60.9836 46.3463 60.9127 46.429L60.768 46.5993L60.6175 46.7792L60.4357 46.9987C60.4318 47.0038 60.4282 47.009 60.4249 47.0147C60.3211 47.1418 60.2147 47.2751 60.1049 47.4152L59.9376 47.6308C59.9093 47.6676 59.8808 47.7048 59.852 47.7426L59.6117 48.0603L59.4546 48.2708C59.3751 48.3781 59.2941 48.4885 59.2114 48.6026L59.1283 48.718C59.0449 48.8326 58.961 48.9505 58.8758 49.0716L58.7033 49.318L58.5258 49.5727L60.3869 49.6424C60.9553 49.4743 61.2266 49.2885 61.5056 49.0003C61.5614 48.9419 61.6177 48.8794 61.6744 48.8144L61.7312 48.7486C61.9625 48.483 62.1944 48.1878 62.4046 47.8895C62.6096 47.6015 62.796 47.3145 62.9413 47.0548C63.0361 46.8874 63.1144 46.7325 63.1754 46.5935C63.2266 46.4716 63.2695 46.3558 63.3082 46.2431L63.1151 46.2465L62.9166 46.2486L62.7145 46.2493L62.5107 46.2486C62.4767 46.2483 62.4427 46.248 62.4087 46.2476L62.2059 46.2447L62.0061 46.2401C61.9732 46.2393 61.9404 46.2383 61.9079 46.2373L61.7163 46.2303C61.6849 46.229 61.6539 46.2276 61.6232 46.2261L61.4439 46.2165C61.3276 46.2096 61.2184 46.2014 61.1188 46.1919Z" fill="url(#paint13_linear_277_320)"/>
<defs>
<linearGradient id="paint0_linear_277_320" x1="99.74" y1="207.724" x2="408.391" y2="107.074" gradientUnits="userSpaceOnUse">
<stop stop-color="#F69923"/>
<stop offset="0.3123" stop-color="#F79A23"/>
<stop offset="0.8383" stop-color="#E97826"/>
</linearGradient>
<linearGradient id="paint1_linear_277_320" x1="78.4766" y1="1690.62" x2="457.181" y2="187.132" gradientUnits="userSpaceOnUse">
<stop offset="0.3233" stop-color="#9E2064"/>
<stop offset="0.6302" stop-color="#C92037"/>
<stop offset="0.7514" stop-color="#CD2335"/>
<stop offset="1" stop-color="#E97826"/>
</linearGradient>
<linearGradient id="paint2_linear_277_320" x1="114.06" y1="786.415" x2="362.841" y2="-425.21" gradientUnits="userSpaceOnUse">
<stop stop-color="#282662"/>
<stop offset="0.0954839" stop-color="#662E8D"/>
<stop offset="0.7882" stop-color="#9F2064"/>
<stop offset="0.9487" stop-color="#CD2032"/>
</linearGradient>
<linearGradient id="paint3_linear_277_320" x1="133.343" y1="1259.73" x2="683.983" y2="-79.2501" gradientUnits="userSpaceOnUse">
<stop offset="0.3233" stop-color="#9E2064"/>
<stop offset="0.6302" stop-color="#C92037"/>
<stop offset="0.7514" stop-color="#CD2335"/>
<stop offset="1" stop-color="#E97826"/>
</linearGradient>
<linearGradient id="paint4_linear_277_320" x1="157.596" y1="559.023" x2="600.991" y2="6.58069" gradientUnits="userSpaceOnUse">
<stop stop-color="#282662"/>
<stop offset="0.0954839" stop-color="#662E8D"/>
<stop offset="0.7882" stop-color="#9F2064"/>
<stop offset="0.9487" stop-color="#CD2032"/>
</linearGradient>
<linearGradient id="paint5_linear_277_320" x1="166.109" y1="1613.25" x2="570.952" y2="-303.135" gradientUnits="userSpaceOnUse">
<stop offset="0.3233" stop-color="#9E2064"/>
<stop offset="0.6302" stop-color="#C92037"/>
<stop offset="0.7514" stop-color="#CD2335"/>
<stop offset="1" stop-color="#E97826"/>
</linearGradient>
<linearGradient id="paint6_linear_277_320" x1="94.9092" y1="2403.9" x2="475.908" y2="186.075" gradientUnits="userSpaceOnUse">
<stop offset="0.3233" stop-color="#9E2064"/>
<stop offset="0.6302" stop-color="#C92037"/>
<stop offset="0.7514" stop-color="#CD2335"/>
<stop offset="1" stop-color="#E97826"/>
</linearGradient>
<linearGradient id="paint7_linear_277_320" x1="108.036" y1="193.572" x2="508.633" y2="86.7994" gradientUnits="userSpaceOnUse">
<stop stop-color="#F69923"/>
<stop offset="0.3123" stop-color="#F79A23"/>
<stop offset="0.8383" stop-color="#E97826"/>
</linearGradient>
<linearGradient id="paint8_linear_277_320" x1="-210.652" y1="1789.91" x2="604.438" y2="296.558" gradientUnits="userSpaceOnUse">
<stop offset="0.3233" stop-color="#9E2064"/>
<stop offset="0.6302" stop-color="#C92037"/>
<stop offset="0.7514" stop-color="#CD2335"/>
<stop offset="1" stop-color="#E97826"/>
</linearGradient>
<linearGradient id="paint9_linear_277_320" x1="-23.5432" y1="417.059" x2="344.529" y2="-201.144" gradientUnits="userSpaceOnUse">
<stop stop-color="#282662"/>
<stop offset="0.0954839" stop-color="#662E8D"/>
<stop offset="0.7882" stop-color="#9F2064"/>
<stop offset="0.9487" stop-color="#CD2032"/>
</linearGradient>
<linearGradient id="paint10_linear_277_320" x1="94.8442" y1="1397.71" x2="921.42" y2="-1.48419" gradientUnits="userSpaceOnUse">
<stop offset="0.3233" stop-color="#9E2064"/>
<stop offset="0.6302" stop-color="#C92037"/>
<stop offset="0.7514" stop-color="#CD2335"/>
<stop offset="1" stop-color="#E97826"/>
</linearGradient>
<linearGradient id="paint11_linear_277_320" x1="173.739" y1="641.608" x2="627.113" y2="-32.9132" gradientUnits="userSpaceOnUse">
<stop stop-color="#282662"/>
<stop offset="0.0954839" stop-color="#662E8D"/>
<stop offset="0.7882" stop-color="#9F2064"/>
<stop offset="0.9487" stop-color="#CD2032"/>
</linearGradient>
<linearGradient id="paint12_linear_277_320" x1="-180.185" y1="1249.13" x2="772.696" y2="-277.716" gradientUnits="userSpaceOnUse">
<stop offset="0.3233" stop-color="#9E2064"/>
<stop offset="0.6302" stop-color="#C92037"/>
<stop offset="0.7514" stop-color="#CD2335"/>
<stop offset="1" stop-color="#E97826"/>
</linearGradient>
<linearGradient id="paint13_linear_277_320" x1="-562.543" y1="965.579" x2="47.7106" y2="-40.178" gradientUnits="userSpaceOnUse">
<stop offset="0.3233" stop-color="#9E2064"/>
<stop offset="0.6302" stop-color="#C92037"/>
<stop offset="0.7514" stop-color="#CD2335"/>
<stop offset="1" stop-color="#E97826"/>
</linearGradient>
</defs>
</svg>
