<svg width="100" height="100" viewBox="0 0 100 100" fill="none" xmlns="http://www.w3.org/2000/svg">
<rect width="100" height="100" rx="24" fill="#809CC9"/>
<path fill-rule="evenodd" clip-rule="evenodd" d="M49.4972 86.3774H7V13H91.9944V86.3774H49.4972Z" fill="white"/>
<path fill-rule="evenodd" clip-rule="evenodd" d="M7 13V35.4198C18.4832 30.6124 33.8535 25.777 53.1446 20.9027C65.5034 17.7851 77.4494 15.1527 88.9828 13H7ZM61.9173 23.6633C51.795 26.2176 43.6524 28.8165 37.4898 31.4545C31.316 34.0367 28.4326 36.1392 28.8398 37.751C29.1967 39.1732 31.7789 39.8201 36.603 39.6807C39.0793 39.636 43.1003 39.3683 48.6774 38.872C54.2544 38.3812 61.4488 37.6618 70.2606 36.7248C78.9887 35.8158 86.1998 35.1967 91.9944 34.8398V17.8019C80.7957 19.475 70.757 21.4269 61.9173 23.6633ZM56.8478 46.7914C52.4642 47.1205 47.0266 47.6224 40.5237 48.3084C30.4348 49.3903 22.0525 50.2102 15.3823 50.7623C12.1922 51.03 9.41487 51.2252 7 51.3646V69.5347C20.2344 67.5827 32.2027 65.2626 42.8772 62.5689C53.3677 59.9198 61.4488 57.3488 67.1263 54.8559C72.7982 52.3573 75.4138 50.2603 74.9844 48.5426C74.6107 47.0591 71.9895 46.3006 67.1319 46.2672C64.6445 46.2951 61.2202 46.4679 56.8478 46.7914ZM91.9944 52.6696C80.3607 57.254 65.9272 61.7212 48.683 66.0769C32.6154 70.1314 18.7341 73.0482 7 74.8385V75.0002H91.9944V52.6696Z" fill="#809CC9"/>
<path fill-rule="evenodd" clip-rule="evenodd" d="M10.6585 56.4564C10.8816 56.4564 11.0712 56.5401 11.2329 56.7074C11.3947 56.8691 11.4783 57.0587 11.4783 57.2818C11.4783 57.5161 11.3947 57.7168 11.2329 57.8786C11.0712 58.0403 10.876 58.1184 10.6474 58.1184C10.4131 58.1184 10.2179 58.0403 10.0562 57.8786C9.89445 57.7113 9.81079 57.5161 9.81079 57.2818C9.81079 57.0532 9.89445 56.858 10.0562 56.6962C10.2179 56.5345 10.4243 56.4564 10.6585 56.4564ZM11.2329 62.0614C11.3947 62.2231 11.4783 62.4183 11.4783 62.6525C11.4783 62.8812 11.3947 63.0764 11.2329 63.2381C11.0601 63.3999 10.8649 63.4779 10.6474 63.4779C10.5302 63.4779 10.4187 63.4556 10.3183 63.411C10.2179 63.372 10.1287 63.3106 10.0562 63.2381C9.9781 63.16 9.91676 63.0764 9.87772 62.9704C9.8331 62.87 9.81079 62.7585 9.81079 62.6414C9.81079 62.4127 9.89445 62.2175 10.0562 62.0558C10.2179 61.8941 10.4243 61.8104 10.6585 61.8104C10.8816 61.8104 11.0712 61.8941 11.2329 62.0614Z" fill="white"/>
<path fill-rule="evenodd" clip-rule="evenodd" d="M13.5363 56.4564C13.7594 56.4564 13.949 56.5401 14.1107 56.7074C14.2725 56.8691 14.3561 57.0587 14.3561 57.2818C14.3561 57.5161 14.2725 57.7168 14.1107 57.8786C13.949 58.0403 13.7538 58.1184 13.5252 58.1184C13.2909 58.1184 13.0901 58.0403 12.9284 57.8786C12.7667 57.7113 12.6886 57.5161 12.6886 57.2818C12.6886 57.0532 12.7667 56.858 12.9284 56.6962C13.0957 56.5345 13.3021 56.4564 13.5363 56.4564ZM14.1107 62.0614C14.2725 62.2231 14.3561 62.4183 14.3561 62.6525C14.3561 62.8812 14.2725 63.0764 14.1107 63.2381C13.9379 63.3999 13.7427 63.4779 13.5252 63.4779C13.408 63.4779 13.2965 63.4556 13.1961 63.411C13.0957 63.372 13.0065 63.3106 12.9284 63.2381C12.8559 63.16 12.7946 63.0764 12.7555 62.9704C12.7109 62.87 12.6886 62.7585 12.6886 62.6414C12.6886 62.4127 12.7667 62.2175 12.9284 62.0558C13.0957 61.8941 13.3021 61.8104 13.5363 61.8104C13.7594 61.8104 13.949 61.8941 14.1107 62.0614Z" fill="white"/>
<path fill-rule="evenodd" clip-rule="evenodd" d="M11.7461 82.3397C11.5676 82.6074 11.3111 82.8193 10.9764 82.9755C10.6362 83.126 10.2347 83.2041 9.7718 83.2041C9.21967 83.2041 8.76235 83.0982 8.39984 82.8918C8.1433 82.7412 7.93137 82.5349 7.77521 82.2839C7.61348 82.0329 7.5354 81.7876 7.5354 81.5477C7.5354 81.4083 7.58002 81.2912 7.67483 81.1908C7.77521 81.096 7.89791 81.0458 8.04291 81.0458C8.16561 81.0458 8.266 81.0848 8.34965 81.1629C8.43331 81.2354 8.50581 81.3525 8.56158 81.5031C8.63408 81.6816 8.71216 81.8322 8.79582 81.9549C8.87947 82.072 8.99659 82.1724 9.14717 82.2505C9.29775 82.3285 9.49853 82.3676 9.74392 82.3676C10.0841 82.3676 10.3574 82.2895 10.5693 82.1333C10.7813 81.9716 10.8872 81.7764 10.8872 81.5422C10.8872 81.3525 10.8314 81.202 10.7143 81.0848C10.6028 80.9677 10.4578 80.8785 10.2737 80.8171C10.0953 80.7558 9.84988 80.6945 9.54872 80.6219C9.14159 80.5271 8.80697 80.4156 8.52812 80.2873C8.25484 80.1646 8.04291 79.9917 7.88118 79.7687C7.71944 79.5512 7.64136 79.2779 7.64136 78.9544C7.64136 78.6421 7.72502 78.3632 7.89233 78.1234C8.06522 77.8836 8.31061 77.6996 8.6285 77.5713C8.9464 77.4374 9.32564 77.3761 9.76065 77.3761C10.1008 77.3761 10.402 77.4207 10.653 77.5044C10.9039 77.588 11.1159 77.7051 11.2832 77.8446C11.4505 77.9896 11.5732 78.1402 11.6457 78.2963C11.7238 78.4525 11.7628 78.6031 11.7628 78.7536C11.7628 78.8875 11.7126 79.0102 11.6178 79.1217C11.523 79.2277 11.4059 79.2835 11.2609 79.2835C11.1326 79.2835 11.0322 79.25 10.9653 79.1831C10.8984 79.1217 10.8259 79.0102 10.7478 78.8652C10.6418 78.6532 10.5191 78.4859 10.3741 78.3632C10.2347 78.2461 10.0005 78.1848 9.68257 78.1848C9.38698 78.1848 9.15275 78.2517 8.96871 78.38C8.79024 78.5082 8.70101 78.6644 8.70101 78.8484C8.70101 78.96 8.72889 79.0604 8.79024 79.1385C8.85159 79.2221 8.93524 79.2946 9.04678 79.3504C9.15275 79.4117 9.25871 79.4563 9.37025 79.4898C9.48179 79.5233 9.66584 79.5735 9.91681 79.6348C10.2347 79.7129 10.5247 79.7965 10.7813 79.8858C11.0378 79.975 11.2553 80.081 11.4338 80.2092C11.6122 80.3375 11.7572 80.4993 11.8576 80.6945C11.958 80.8952 12.0082 81.135 12.0082 81.4195C12.0082 81.7597 11.919 82.0664 11.7461 82.3397Z" fill="#809CC9"/>
<path fill-rule="evenodd" clip-rule="evenodd" d="M16.5367 78.0677C16.5367 77.839 16.5869 77.6661 16.6929 77.549C16.7933 77.4319 16.9327 77.3761 17.1 77.3761C17.2785 77.3761 17.4179 77.4319 17.5239 77.549C17.6298 77.6661 17.68 77.839 17.68 78.0677V80.845C17.68 81.1629 17.7135 81.425 17.786 81.637C17.8529 81.8489 17.9812 82.0162 18.1597 82.1333C18.3381 82.2505 18.5891 82.3062 18.907 82.3062C19.3532 82.3062 19.6655 82.1891 19.8495 81.9493C20.0336 81.7151 20.1284 81.3525 20.1284 80.8673V78.0677C20.1284 77.8334 20.1786 77.6605 20.279 77.549C20.3849 77.4319 20.5188 77.3761 20.6917 77.3761C20.8645 77.3761 21.004 77.4319 21.1099 77.549C21.2159 77.6605 21.2717 77.8334 21.2717 78.0677V80.7837C21.2717 81.2243 21.2271 81.5924 21.1434 81.8879C21.0542 82.1835 20.8924 82.4401 20.6526 82.6632C20.4518 82.8528 20.212 82.9866 19.9388 83.0759C19.6711 83.1595 19.3532 83.2041 18.9907 83.2041C18.5556 83.2041 18.182 83.1595 17.8697 83.0647C17.5573 82.9699 17.3064 82.8249 17.1056 82.6297C16.9104 82.4345 16.7654 82.1835 16.6762 81.8768C16.5814 81.57 16.5367 81.202 16.5367 80.7781V78.0677Z" fill="#809CC9"/>
<path fill-rule="evenodd" clip-rule="evenodd" d="M26.7261 83.1094C26.4807 83.1094 26.3022 83.0536 26.1963 82.9421C26.0903 82.8305 26.0345 82.6521 26.0345 82.4067V78.1737C26.0345 77.9227 26.0903 77.7443 26.1963 77.6383C26.3078 77.5268 26.4863 77.4766 26.7261 77.4766H28.5554C28.8287 77.4766 29.0573 77.4877 29.2581 77.5212C29.4533 77.5546 29.6318 77.6216 29.7879 77.7108C29.9218 77.7945 30.0389 77.8948 30.1393 78.0175C30.2452 78.1347 30.3233 78.2685 30.3735 78.4191C30.4293 78.5641 30.4572 78.7202 30.4572 78.882C30.4572 79.4508 30.1727 79.858 29.6094 80.1201C30.3512 80.3599 30.7193 80.8172 30.7193 81.4976C30.7193 81.8155 30.6412 82.0999 30.4795 82.3509C30.3177 82.6075 30.1002 82.7915 29.8269 82.9142C29.6541 82.9867 29.4589 83.0313 29.2302 83.0648C29.0127 83.0927 28.7506 83.1094 28.4494 83.1094H26.7261ZM27.1778 78.3243V79.7855H28.2263C28.5108 79.7855 28.7283 79.7576 28.8844 79.7074C29.0406 79.6516 29.1577 79.5457 29.2414 79.3951C29.3083 79.2891 29.3362 79.1664 29.3362 79.0326C29.3362 78.7481 29.2358 78.5585 29.035 78.4637C28.8342 78.3689 28.5219 78.3243 28.1036 78.3243H27.1778ZM27.1778 80.5997V82.2561H28.4048C29.18 82.2561 29.5648 81.9773 29.5648 81.414C29.5648 81.1295 29.4644 80.9232 29.2637 80.7893C29.0629 80.6611 28.7673 80.5997 28.3713 80.5997H27.1778Z" fill="#809CC9"/>
<path fill-rule="evenodd" clip-rule="evenodd" d="M37.3559 81.9047L38.633 78.0955C38.7055 77.8948 38.7502 77.7553 38.7836 77.6828C38.8171 77.6048 38.8729 77.5323 38.9509 77.4709C39.029 77.404 39.135 77.3761 39.2633 77.3761C39.3636 77.3761 39.4529 77.3984 39.5365 77.4486C39.6202 77.4988 39.6871 77.5601 39.7317 77.6438C39.7819 77.7219 39.8042 77.8055 39.8042 77.8892C39.8042 77.945 39.7931 78.0063 39.7819 78.0677C39.7652 78.1346 39.7485 78.2015 39.7206 78.2629C39.6983 78.3242 39.676 78.3911 39.6536 78.458L38.2928 82.1389C38.2427 82.2783 38.1925 82.4178 38.1478 82.5405C38.0976 82.6687 38.0419 82.7803 37.975 82.8751C37.9136 82.9699 37.8244 83.0535 37.7184 83.1149C37.6124 83.1762 37.4842 83.2041 37.3336 83.2041C37.1774 83.2041 37.0492 83.1762 36.9432 83.1149C36.8372 83.0535 36.748 82.9755 36.6867 82.8751C36.6197 82.7803 36.564 82.6687 36.5138 82.5405C36.4636 82.4122 36.419 82.2783 36.3688 82.1389L35.0303 78.4859C35.0024 78.419 34.9801 78.3521 34.9578 78.2907C34.9299 78.2238 34.9131 78.1569 34.8964 78.0844C34.8797 78.0063 34.8685 77.945 34.8685 77.8948C34.8685 77.7609 34.9243 77.6438 35.0303 77.5378C35.1307 77.4263 35.2645 77.3761 35.4207 77.3761C35.6159 77.3761 35.7553 77.4319 35.8389 77.5546C35.917 77.6717 36.0007 77.8613 36.0843 78.1234L37.3559 81.9047Z" fill="#999999"/>
<path fill-rule="evenodd" clip-rule="evenodd" d="M45.3535 78.3466V79.7353H47.7238C47.8966 79.7353 48.0249 79.7743 48.1141 79.8524C48.1978 79.9305 48.2424 80.0364 48.2424 80.1647C48.2424 80.293 48.1978 80.3934 48.1141 80.477C48.0305 80.5551 47.8966 80.5997 47.7238 80.5997H45.3535V82.2115H48.0138C48.1922 82.2115 48.3317 82.2505 48.4209 82.3342C48.5101 82.4178 48.5547 82.5238 48.5547 82.6632C48.5547 82.7915 48.5101 82.903 48.4209 82.9811C48.3317 83.0648 48.1922 83.1094 48.0138 83.1094H44.9129C44.6619 83.1094 44.4835 83.0536 44.3775 82.9421C44.266 82.8305 44.2102 82.6521 44.2102 82.4067V78.1737C44.2102 78.0064 44.2381 77.8781 44.2827 77.7721C44.3329 77.6662 44.411 77.5937 44.5114 77.5435C44.6173 77.4989 44.7512 77.4766 44.9129 77.4766H47.9245C48.1086 77.4766 48.2424 77.5156 48.3317 77.5937C48.4209 77.6718 48.4655 77.7777 48.4655 77.906C48.4655 78.0398 48.4209 78.1458 48.3317 78.2239C48.2424 78.3075 48.1086 78.3466 47.9245 78.3466H45.3535Z" fill="#999999"/>
<path fill-rule="evenodd" clip-rule="evenodd" d="M54.1372 80.6945V82.5071C54.1372 82.7469 54.0814 82.9254 53.9755 83.0369C53.8751 83.1484 53.7356 83.2042 53.5628 83.2042C53.3843 83.2042 53.2449 83.1484 53.1389 83.0257C53.0441 82.9086 52.9939 82.7357 52.9939 82.5071V78.1737C52.9939 77.9283 53.0497 77.7498 53.1556 77.6383C53.2672 77.5268 53.4456 77.4766 53.691 77.4766H55.5482C55.8047 77.4766 56.0222 77.4821 56.2063 77.5044C56.3848 77.5268 56.5521 77.5714 56.6971 77.6383C56.8755 77.7108 57.0317 77.8168 57.1655 77.9562C57.2994 78.0956 57.4054 78.2574 57.4723 78.4358C57.5448 78.6199 57.5782 78.8151 57.5782 79.0214C57.5782 79.4397 57.4611 79.7799 57.2269 80.0309C56.9871 80.2818 56.6301 80.4603 56.1449 80.5607C56.3513 80.6722 56.5409 80.8284 56.725 81.0403C56.909 81.2522 57.0763 81.4753 57.2213 81.7096C57.3663 81.9494 57.4779 82.1613 57.5615 82.3509C57.6396 82.5461 57.6786 82.6744 57.6786 82.7469C57.6786 82.825 57.6563 82.8975 57.6117 82.97C57.5615 83.0425 57.4946 83.0982 57.4165 83.1429C57.3329 83.1819 57.238 83.2042 57.1321 83.2042C57.0038 83.2042 56.8978 83.1763 56.8086 83.115C56.7194 83.0536 56.6469 82.9755 56.5855 82.8863C56.5186 82.7915 56.4349 82.6577 56.329 82.4792L55.8717 81.7151C55.7043 81.4363 55.5593 81.2243 55.4311 81.0793C55.3028 80.9288 55.169 80.834 55.0351 80.7782C54.9068 80.7224 54.7395 80.6945 54.5332 80.6945H54.1372ZM54.1372 78.3243V79.8859H55.1578C55.4311 79.8859 55.6597 79.858 55.8494 79.8134C56.0334 79.7632 56.1784 79.6851 56.2788 79.568C56.3736 79.4564 56.4238 79.2947 56.4238 79.0939C56.4238 78.9378 56.3848 78.7983 56.3067 78.6756C56.223 78.5585 56.1171 78.4693 55.972 78.4079C55.8438 78.3522 55.5817 78.3243 55.1857 78.3243H54.1372Z" fill="#999999"/>
<path fill-rule="evenodd" clip-rule="evenodd" d="M66.2229 82.3397C66.05 82.6074 65.7935 82.8193 65.4533 82.9755C65.1131 83.126 64.7171 83.2041 64.2542 83.2041C63.6965 83.2041 63.2392 83.0982 62.8767 82.8918C62.6201 82.7412 62.4138 82.5349 62.252 82.2839C62.0903 82.0329 62.0122 81.7876 62.0122 81.5477C62.0122 81.4083 62.0624 81.2912 62.1572 81.1908C62.252 81.096 62.3747 81.0458 62.5253 81.0458C62.6424 81.0458 62.7484 81.0848 62.832 81.1629C62.9101 81.2354 62.9826 81.3525 63.044 81.5031C63.1165 81.6816 63.1945 81.8322 63.2726 81.9549C63.3619 82.072 63.479 82.1724 63.6296 82.2505C63.7801 82.3285 63.9809 82.3676 64.2263 82.3676C64.5609 82.3676 64.8398 82.2895 65.0517 82.1333C65.2636 81.9716 65.3696 81.7764 65.3696 81.5422C65.3696 81.3525 65.3083 81.202 65.1967 81.0848C65.0796 80.9677 64.9346 80.8785 64.7505 80.8171C64.5721 80.7558 64.3323 80.6945 64.0255 80.6219C63.624 80.5271 63.2838 80.4156 63.0105 80.2873C62.7372 80.1646 62.5197 79.9917 62.358 79.7687C62.2018 79.5512 62.1182 79.2779 62.1182 78.9544C62.1182 78.6421 62.2018 78.3632 62.3747 78.1234C62.542 77.8836 62.7874 77.6996 63.1053 77.5713C63.4288 77.4374 63.8024 77.3761 64.2375 77.3761C64.5832 77.3761 64.8788 77.4207 65.1354 77.5044C65.3863 77.588 65.5983 77.7051 65.76 77.8446C65.9273 77.9896 66.05 78.1402 66.1281 78.2963C66.2062 78.4525 66.2396 78.6031 66.2396 78.7536C66.2396 78.8875 66.195 79.0102 66.1002 79.1217C66.0054 79.2277 65.8827 79.2835 65.7433 79.2835C65.6094 79.2835 65.5146 79.25 65.4421 79.1831C65.3752 79.1217 65.3027 79.0102 65.2246 78.8652C65.1242 78.6532 65.0015 78.4859 64.8565 78.3632C64.7115 78.2461 64.4828 78.1848 64.165 78.1848C63.8694 78.1848 63.6296 78.2517 63.4511 78.38C63.267 78.5082 63.1778 78.6644 63.1778 78.8484C63.1778 78.96 63.2057 79.0604 63.2726 79.1385C63.334 79.2221 63.4176 79.2946 63.5236 79.3504C63.6351 79.4117 63.7411 79.4563 63.8526 79.4898C63.9586 79.5233 64.1426 79.5735 64.3992 79.6348C64.7171 79.7129 65.0015 79.7965 65.2581 79.8858C65.5146 79.975 65.7321 80.081 65.9162 80.2092C66.0946 80.3375 66.234 80.4993 66.3344 80.6945C66.4348 80.8952 66.485 81.135 66.485 81.4195C66.485 81.7597 66.4014 82.0664 66.2229 82.3397Z" fill="#999999"/>
<path fill-rule="evenodd" clip-rule="evenodd" d="M71.0525 78.0677C71.0525 77.839 71.1027 77.6661 71.2086 77.549C71.3146 77.4319 71.4485 77.3761 71.6158 77.3761C71.7887 77.3761 71.9281 77.4319 72.0341 77.549C72.14 77.6605 72.1958 77.8334 72.1958 78.0677V82.507C72.1958 82.7412 72.14 82.9141 72.0341 83.0312C71.9281 83.1484 71.7887 83.2041 71.6158 83.2041C71.454 83.2041 71.3202 83.1484 71.2086 83.0312C71.1027 82.9141 71.0525 82.7412 71.0525 82.507V78.0677Z" fill="#999999"/>
<path fill-rule="evenodd" clip-rule="evenodd" d="M80.9908 77.733C81.409 77.9673 81.7214 78.3075 81.9389 78.7425C82.1564 79.1775 82.2623 79.6906 82.2623 80.2817C82.2623 80.7168 82.201 81.1127 82.0839 81.4697C81.9667 81.8266 81.7883 82.1389 81.554 82.3955C81.3198 82.6576 81.0298 82.8584 80.6896 82.9978C80.3438 83.1372 79.9534 83.2041 79.5128 83.2041C79.0723 83.2041 78.6763 83.1316 78.3305 82.9922C77.9792 82.8472 77.6891 82.6464 77.4549 82.3899C77.2262 82.1333 77.0478 81.821 76.9307 81.4529C76.808 81.0904 76.7522 80.7 76.7522 80.2762C76.7522 79.8412 76.8135 79.4452 76.9362 79.0827C77.0589 78.7202 77.2374 78.4134 77.4772 78.1569C77.7115 77.9059 77.9959 77.7107 78.3361 77.5769C78.6763 77.443 79.0555 77.3761 79.485 77.3761C80.0705 77.3761 80.5725 77.4932 80.9908 77.733ZM80.9071 79.1942C80.7733 78.8931 80.5836 78.6644 80.3382 78.5082C80.0873 78.3521 79.8028 78.274 79.485 78.274C79.2619 78.274 79.0499 78.3186 78.8547 78.4023C78.6651 78.4859 78.4978 78.6142 78.3584 78.7815C78.219 78.9433 78.1074 79.1552 78.0293 79.4117C77.9457 79.6683 77.9066 79.9527 77.9066 80.2762C77.9066 80.5941 77.9457 80.8896 78.0293 81.1462C78.1074 81.4083 78.2245 81.6258 78.3695 81.7931C78.5145 81.966 78.6874 82.0943 78.8771 82.1779C79.0667 82.2672 79.273 82.3062 79.5017 82.3062C79.7917 82.3062 80.0594 82.2337 80.3048 82.0887C80.5502 81.9381 80.7454 81.7151 80.8904 81.4083C81.0354 81.1016 81.1079 80.7223 81.1079 80.2762C81.1079 79.8579 81.041 79.501 80.9071 79.1942Z" fill="#999999"/>
<path fill-rule="evenodd" clip-rule="evenodd" d="M90.4775 81.386V78.0286C90.4775 77.8111 90.5221 77.6494 90.6169 77.5378C90.7117 77.4263 90.8344 77.3761 90.9906 77.3761C91.1579 77.3761 91.2862 77.4263 91.381 77.5378C91.4758 77.6494 91.5204 77.8111 91.5204 78.0286V82.4624C91.5204 82.9587 91.3196 83.2041 90.9069 83.2041C90.8065 83.2041 90.7117 83.193 90.6336 83.1595C90.55 83.1316 90.4719 83.087 90.3994 83.0201C90.3325 82.9587 90.2656 82.8807 90.2042 82.797C90.1373 82.7078 90.0815 82.6241 90.0202 82.5293L87.8674 79.2444V82.5516C87.8674 82.7635 87.8172 82.9309 87.7168 83.0368C87.6165 83.1484 87.4882 83.2041 87.332 83.2041C87.1703 83.2041 87.042 83.1484 86.9472 83.0368C86.8468 82.9253 86.7966 82.7635 86.7966 82.5516V78.2015C86.7966 78.0175 86.8189 77.8725 86.858 77.7665C86.9082 77.6494 86.9918 77.5601 87.1034 77.4821C87.2149 77.4096 87.3376 77.3761 87.4715 77.3761C87.5718 77.3761 87.6611 77.3928 87.7336 77.4263C87.8061 77.4598 87.873 77.5044 87.9232 77.5601C87.979 77.6159 88.0347 77.6884 88.0961 77.7776C88.1519 77.8669 88.2132 77.9617 88.2746 78.0621L90.4775 81.386Z" fill="#999999"/>
<path d="M7 85.9814H91.9944" stroke="#809CC9" stroke-width="5.32878" stroke-linejoin="round"/>
</svg>
