<svg width="100" height="100" viewBox="0 0 100 100" fill="none" xmlns="http://www.w3.org/2000/svg">
<rect width="100" height="100" rx="24" fill="white"/>
<path d="M15.7293 18C10.006 18 7 21.4925 7 26.7293V73.0946C7 78.3314 10.006 81.8239 15.7293 81.8239H83.2707C88.994 81.8239 92 78.3314 92 73.0946V26.7293C92 21.4925 88.994 18 83.2707 18H15.7293Z" fill="#D9D6CC"/>
<path d="M16.4184 21.5786C11.8882 21.5786 10.5391 24.2936 10.5391 27.6661V49.8599L30.532 49.8969C35.8733 49.9068 38.0604 52.0556 40.2862 55.0624C40.853 55.8282 41.5426 56.866 42.2159 57.54C44.2266 59.5526 46.8633 60.558 49.5 60.558C52.1368 60.558 54.7735 59.5526 56.7842 57.54C57.4575 56.866 58.1471 55.8282 58.7139 55.0624C60.9397 52.0556 63.1268 49.9068 68.4681 49.8969L88.461 49.8599V27.6661C88.461 24.2936 87.1119 21.5786 82.5817 21.5786H16.4184Z" fill="#F16D5E"/>
<path d="M16.4185 21.5786C11.8882 21.5786 10.5391 24.2936 10.5391 27.6661V34.7767C10.5391 31.4042 11.8882 28.6892 16.4185 28.6892H82.5816C87.1119 28.6892 88.461 31.4042 88.461 34.7767V27.6661C88.461 24.2936 87.1119 21.5786 82.5816 21.5786H16.4185Z" fill="#3295C9"/>
<path d="M16.4184 28.6892C11.8882 28.6892 10.5391 31.4042 10.5391 34.7767V41.8873C10.5391 38.5148 11.8882 35.7998 16.4184 35.7998H82.5817C87.1119 35.7998 88.461 38.5148 88.461 41.8873V34.7767C88.461 31.4042 87.1119 28.6892 82.5817 28.6892H16.4184Z" fill="black" fill-opacity="0.317757"/>
<path d="M16.4184 28.6892C11.8882 28.6892 10.5391 31.4042 10.5391 34.7767V41.8873C10.5391 38.5148 11.8882 35.7998 16.4184 35.7998H82.5817C87.1119 35.7998 88.461 38.5148 88.461 41.8873V34.7767C88.461 31.4042 87.1119 28.6892 82.5817 28.6892H16.4184Z" fill="#FCAD00"/>
<path d="M16.4184 35.7998C11.8882 35.7998 10.5391 38.5148 10.5391 41.8873V48.9979C10.5391 45.6254 11.8882 42.9104 16.4184 42.9104H82.5817C87.1119 42.9104 88.461 45.6254 88.461 48.9979V41.8873C88.461 38.5148 87.1119 35.7998 82.5817 35.7998H16.4184Z" fill="black" fill-opacity="0.313725"/>
<path d="M16.4184 35.7998C11.8882 35.7998 10.5391 38.5148 10.5391 41.8873V48.9979C10.5391 45.6254 11.8882 42.9104 16.4184 42.9104H82.5817C87.1119 42.9104 88.461 45.6254 88.461 48.9979V41.8873C88.461 38.5148 87.1119 35.7998 82.5817 35.7998H16.4184Z" fill="#50BE3D"/>
<mask id="mask0_255_132" style="mask-type:luminance" maskUnits="userSpaceOnUse" x="10" y="35" width="79" height="14">
<path d="M16.4184 35.7998C11.8882 35.7998 10.5391 38.5148 10.5391 41.8873V48.9979C10.5391 45.6254 11.8882 42.9104 16.4184 42.9104H82.5817C87.1119 42.9104 88.461 45.6254 88.461 48.9979V41.8873C88.461 38.5148 87.1119 35.7998 82.5817 35.7998H16.4184Z" fill="white"/>
</mask>
<g mask="url(#mask0_255_132)">
<path d="M16.4184 42.9104C11.8882 42.9104 10.5391 45.6254 10.5391 48.9979V56.1085C10.5391 52.736 11.8882 50.021 16.4184 50.021H82.5817C87.1119 50.021 88.461 52.736 88.461 56.1085V48.9979C88.461 45.6254 87.1119 42.9104 82.5817 42.9104H16.4184Z" fill="black" fill-opacity="0.313725"/>
</g>
<mask id="mask1_255_132" style="mask-type:luminance" maskUnits="userSpaceOnUse" x="10" y="42" width="79" height="19">
<path d="M16.4185 42.9104C11.8882 42.9104 10.5391 45.6254 10.5391 48.9979V49.8599L30.532 49.8969C35.8733 49.9068 38.0604 52.0556 40.2862 55.0624C40.853 55.8282 41.5426 56.866 42.216 57.54C44.2266 59.5526 46.8633 60.558 49.5 60.558C52.1368 60.558 54.7735 59.5526 56.7842 57.54C57.4575 56.866 58.1471 55.8282 58.7139 55.0624C60.9397 52.0556 63.1268 49.9068 68.4681 49.8969L88.461 49.8599V48.9979C88.461 45.6254 87.1119 42.9104 82.5816 42.9104H16.4185Z" fill="white"/>
</mask>
<g mask="url(#mask1_255_132)">
<path d="M15.7293 18C10.006 18 7 21.4925 7 26.7293V73.0946C7 78.3314 10.006 81.8239 15.7293 81.8239H83.2707C88.994 81.8239 92 78.3314 92 73.0946V26.7293C92 21.4925 88.994 18 83.2707 18H15.7293ZM16.4184 21.5786H82.5816C87.1118 21.5786 88.461 24.2936 88.461 27.6661V49.8599L68.4681 49.8969C63.1267 49.9068 60.9396 52.0557 58.7139 55.0624C58.147 55.8282 57.4575 56.8661 56.7841 57.5401C54.7734 59.5526 52.1368 60.558 49.5 60.558C46.8632 60.558 44.2266 59.5526 42.2159 57.5401C41.5425 56.8661 40.853 55.8282 40.2861 55.0624C38.0604 52.0557 35.8733 49.9068 30.5319 49.8969L10.539 49.8599V27.6661C10.539 24.2936 11.8882 21.5786 16.4184 21.5786Z" fill="#F26D5F" fill-opacity="0.298039"/>
</g>
<path d="M7 44.6501H10.539V49.86H7V44.6501Z" fill="url(#paint0_linear_255_132)"/>
<path d="M88.4609 44.6501H91.9999V49.86H88.4609V44.6501Z" fill="url(#paint1_linear_255_132)"/>
<defs>
<linearGradient id="paint0_linear_255_132" x1="7" y1="49.86" x2="7" y2="47.1597" gradientUnits="userSpaceOnUse">
<stop stop-color="#CBC9BE"/>
<stop offset="1" stop-color="#C8C5BB" stop-opacity="0"/>
</linearGradient>
<linearGradient id="paint1_linear_255_132" x1="88.4609" y1="49.86" x2="88.4609" y2="47.1597" gradientUnits="userSpaceOnUse">
<stop stop-color="#CBC9BE"/>
<stop offset="1" stop-color="#C8C5BB" stop-opacity="0"/>
</linearGradient>
</defs>
</svg>
