<svg width="100" height="100" viewBox="0 0 100 100" fill="none" xmlns="http://www.w3.org/2000/svg">
<rect width="100" height="100" rx="24" fill="url(#paint0_linear_274_58)"/>
<path d="M52.5 82C34.5791 82 20 67.4209 20 49.5C20 31.5791 34.5791 17 52.5 17C62.8729 17 72.7079 22.0167 78.8122 30.4196C79.0807 30.8098 79.1861 31.2894 79.106 31.7562C79.0259 32.223 78.7666 32.64 78.3834 32.9184C78.0002 33.1967 77.5234 33.3143 77.0547 33.2461C76.586 33.1779 76.1625 32.9292 75.8745 32.5532C70.4522 25.0874 61.7142 20.6297 52.5 20.6297C36.5811 20.6297 23.6304 33.5804 23.6304 49.4993C23.6304 65.4174 36.5811 78.3689 52.5 78.3689C61.6953 78.3689 70.4224 73.9272 75.8476 66.4853C76.1364 66.1105 76.56 65.8632 77.0284 65.7962C77.4967 65.7291 77.9727 65.8475 78.355 66.1263C78.7373 66.405 78.9957 66.822 79.0751 67.2884C79.1545 67.7548 79.0487 68.2338 78.7802 68.6233C72.6759 77 62.8511 82 52.5 82ZM46.5848 35.589C46.3056 35.3833 45.9858 35.2015 45.7233 35.2015C45.4035 35.2017 45.0969 35.3288 44.8707 35.555C44.6446 35.7811 44.5175 36.0877 44.5173 36.4075V62.157C44.5179 62.3717 44.5757 62.5824 44.6848 62.7673C44.794 62.9523 44.9505 63.1047 45.1382 63.2089C45.326 63.3132 45.5381 63.3654 45.7528 63.3603C45.9674 63.3552 46.1769 63.2929 46.3594 63.1798C46.5855 63.0374 68.3978 50.5984 68.6093 50.4138C68.8638 50.1928 69.0244 49.8671 69.0244 49.5036C69.0244 49.191 68.9059 48.9068 68.7111 48.6923C68.4901 48.4503 46.949 35.8572 46.5848 35.589Z" fill="white"/>
<defs>
<linearGradient id="paint0_linear_274_58" x1="50" y1="0" x2="50" y2="100" gradientUnits="userSpaceOnUse">
<stop stop-color="#0BD319"/>
<stop offset="0.22" stop-color="#18D722"/>
<stop offset="1" stop-color="#86FC6F"/>
</linearGradient>
</defs>
</svg>
