<svg width="100" height="100" viewBox="0 0 100 100" fill="none" xmlns="http://www.w3.org/2000/svg">
<rect width="100" height="100" rx="24" fill="url(#paint0_linear_379_22)"/>
<path d="M22.5311 37.4995C21.5349 38.6784 19.941 39.6082 18.347 39.4754C18.1478 37.8814 18.9282 36.1879 19.8413 35.1418C20.8376 33.9298 22.5809 33.0664 23.9922 33C24.1582 34.6603 23.5107 36.2875 22.5311 37.4995ZM23.9756 39.7908C21.6677 39.658 19.6919 41.1025 18.5961 41.1025C17.4837 41.1025 15.8067 39.8572 13.9803 39.8904C11.606 39.9236 9.39776 41.2685 8.18571 43.4104C5.69519 47.6941 7.53818 54.0366 9.94568 57.5233C11.1245 59.2501 12.5358 61.1429 14.3954 61.0765C16.1554 61.01 16.8527 59.9308 18.978 59.9308C21.1198 59.9308 21.7341 61.0765 23.5937 61.0433C25.5197 61.01 26.7318 59.3165 27.9106 57.5897C29.2555 55.6305 29.8034 53.7211 29.8366 53.6215C29.8034 53.5883 26.1175 52.177 26.0842 47.9265C26.051 44.3734 28.9899 42.6798 29.1227 42.5802C27.4623 40.1229 24.8722 39.8572 23.9756 39.7908ZM37.3082 34.9758V60.8606H41.3262V52.011H46.8884C51.969 52.011 55.5388 48.5242 55.5388 43.4768C55.5388 38.4293 52.0355 34.9758 47.0212 34.9758H37.3082ZM41.3262 38.3629H45.9586C49.4453 38.3629 51.4377 40.2225 51.4377 43.4934C51.4377 46.7643 49.4453 48.6405 45.942 48.6405H41.3262V38.3629ZM62.8775 61.0599C65.4012 61.0599 67.7423 59.7814 68.805 57.7558H68.888V60.8606H72.6072V47.9763C72.6072 44.2405 69.6185 41.833 65.0194 41.833C60.7523 41.833 57.5976 44.2738 57.4814 47.6277H61.101C61.3998 46.0337 62.8775 44.9877 64.9031 44.9877C67.3605 44.9877 68.7385 46.1333 68.7385 48.242V49.6699L63.7243 49.9687C59.0587 50.251 56.535 52.1604 56.535 55.4811C56.535 58.835 59.1417 61.0599 62.8775 61.0599ZM63.9567 57.9882C61.8149 57.9882 60.4534 56.9588 60.4534 55.3815C60.4534 53.7543 61.7651 52.8079 64.2722 52.6585L68.7385 52.3762V53.8373C68.7385 56.2615 66.6797 57.9882 63.9567 57.9882ZM77.5716 67.9005C81.49 67.9005 83.333 66.4062 84.9435 61.8734L92 42.0821H87.9156L83.1836 57.3739H83.1005L78.3686 42.0821H74.1679L80.9753 60.927L80.61 62.0727C79.9957 64.0153 78.9995 64.7624 77.2229 64.7624C76.9074 64.7624 76.2931 64.7292 76.0441 64.696V67.8009C76.2765 67.8673 77.2727 67.9005 77.5716 67.9005Z" fill="white"/>
<defs>
<linearGradient id="paint0_linear_379_22" x1="50" y1="0" x2="50" y2="100" gradientUnits="userSpaceOnUse">
<stop stop-color="#3D3D3D"/>
<stop offset="1" stop-color="#030303"/>
</linearGradient>
</defs>
</svg>
