<svg width="100" height="100" viewBox="0 0 100 100" fill="none" xmlns="http://www.w3.org/2000/svg">
<rect width="100" height="100" rx="24" fill="white"/>
<g clip-path="url(#clip0_275_243)">
<path d="M84.5836 54.2626C89.8477 58.3677 89.8477 65.1214 84.5836 69.2596L59.8157 88.726C54.5517 92.8311 45.9808 92.8311 40.7168 88.726L15.9489 69.2927C10.6848 65.1876 10.6848 58.434 15.9489 54.2957L40.7168 34.8293C45.9808 30.7242 54.5517 30.7242 59.8157 34.8293L84.5836 54.2626Z" fill="#FF9D00"/>
<g filter="url(#filter0_d_275_243)">
<path d="M40.7762 76.5755L15.8986 57.0237C13.3905 55.0585 12.0009 52.4272 12.0009 49.6293C12.0009 46.8314 13.3905 44.2001 15.8986 42.2349L40.7762 22.6498C43.2843 20.6846 46.6736 19.5854 50.2663 19.5854C53.8589 19.5854 57.2144 20.6846 59.7563 22.6498L84.6339 42.2016C87.142 44.1668 88.5317 46.7981 88.5317 49.596C88.5317 52.3938 87.142 55.0252 84.6339 56.9903L59.7563 76.5422C57.2144 78.5406 53.8589 79.6398 50.2663 79.6398C46.6736 79.6398 43.3182 78.5406 40.7762 76.5755Z" fill="black" fill-opacity="0.1"/>
</g>
<path d="M40.7762 76.5755L15.8986 57.0237C13.3905 55.0585 12.0009 52.4272 12.0009 49.6293C12.0009 46.8314 13.3905 44.2001 15.8986 42.2349L40.7762 22.6498C43.2843 20.6846 46.6736 19.5854 50.2663 19.5854C53.8589 19.5854 57.2144 20.6846 59.7563 22.6498L84.6339 42.2016C87.142 44.1668 88.5317 46.7981 88.5317 49.596C88.5317 52.3938 87.142 55.0252 84.6339 56.9903L59.7563 76.5422C57.2144 78.5406 53.8589 79.6398 50.2663 79.6398C46.6736 79.6398 43.3182 78.5406 40.7762 76.5755Z" fill="#FFCC00"/>
<g filter="url(#filter1_d_275_243)">
<path d="M40.7762 64.2566L15.8986 44.7048C13.3905 42.7396 12.0009 40.1083 12.0009 37.3104C12.0009 34.5126 13.3905 31.8812 15.8986 29.9161L40.7762 10.3309C43.2843 8.36577 46.6736 7.2666 50.2663 7.2666C53.8589 7.2666 57.2144 8.36577 59.7563 10.3309L84.6339 29.8827C87.142 31.8479 88.5317 34.4792 88.5317 37.2771C88.5317 40.075 87.142 42.7063 84.6339 44.6715L59.7563 64.2233C57.2144 66.2218 53.8589 67.3209 50.2663 67.3209C46.6736 67.3209 43.3182 66.2218 40.7762 64.2566Z" fill="black" fill-opacity="0.1"/>
</g>
<path d="M40.7762 64.2566L15.8986 44.7048C13.3905 42.7396 12.0009 40.1083 12.0009 37.3104C12.0009 34.5126 13.3905 31.8812 15.8986 29.9161L40.7762 10.3309C43.2843 8.36577 46.6736 7.2666 50.2663 7.2666C53.8589 7.2666 57.2144 8.36577 59.7563 10.3309L84.6339 29.8827C87.142 31.8479 88.5317 34.4792 88.5317 37.2771C88.5317 40.075 87.142 42.7063 84.6339 44.6715L59.7563 64.2233C57.2144 66.2218 53.8589 67.3209 50.2663 67.3209C46.6736 67.3209 43.3182 66.2218 40.7762 64.2566Z" fill="url(#paint0_linear_275_243)"/>
<path d="M50.3522 56.048C63.0645 56.048 73.3699 47.6242 73.3699 37.2329C73.3699 26.8416 63.0645 18.4178 50.3522 18.4178C37.6398 18.4178 27.3344 26.8416 27.3344 37.2329C27.3344 47.6242 37.6398 56.048 50.3522 56.048ZM50.3522 57.9849C36.3312 57.9849 24.965 48.6939 24.965 37.2329C24.965 25.7719 36.3312 16.481 50.3522 16.481C64.3731 16.481 75.7394 25.7719 75.7394 37.2329C75.7394 48.6939 64.3731 57.9849 50.3522 57.9849Z" fill="white"/>
<path d="M52.0487 45.2192C53.3212 45.0525 54.5615 44.6978 55.6969 44.155L62.9425 47.1333L59.1472 41.4475C61.1436 38.8758 61.1436 35.6184 59.1472 33.0466L62.9425 27.3608L56.1138 30.1677L55.9175 33.1703C58.7091 35.5116 58.6378 39.2091 55.737 41.4693C54.9968 42.0613 54.1469 42.4767 53.2544 42.7718L52.0487 45.2192ZM48.6617 29.2701C46.56 29.5433 44.9847 30.339 44.9847 30.339L37.7457 27.3608L41.5411 33.0466C39.5447 35.6184 39.5447 38.8758 41.5411 41.4475L37.7457 47.1333L44.7611 44.2497L44.9105 41.4375C41.9759 39.1031 41.9994 35.3685 44.9583 33.024C45.6467 32.4077 47.2028 31.7552 47.4364 31.7205L48.6617 29.2701Z" fill="#8CC8F6"/>
<path fill-rule="evenodd" clip-rule="evenodd" d="M46.8701 36.6121L45.9059 53.7041L53.7139 37.8523L54.832 20.7925L46.8701 36.6121ZM46.7692 50.419L53.0233 37.7298L47.5428 36.7298L46.7692 50.419Z" fill="white"/>
</g>
<defs>
<filter id="filter0_d_275_243" x="7.00085" y="19.5854" width="86.5308" height="70.0544" filterUnits="userSpaceOnUse" color-interpolation-filters="sRGB">
<feFlood flood-opacity="0" result="BackgroundImageFix"/>
<feColorMatrix in="SourceAlpha" type="matrix" values="0 0 0 0 0 0 0 0 0 0 0 0 0 0 0 0 0 0 127 0" result="hardAlpha"/>
<feOffset dy="5"/>
<feGaussianBlur stdDeviation="2.5"/>
<feColorMatrix type="matrix" values="0 0 0 0 0 0 0 0 0 0 0 0 0 0 0 0 0 0 0.07 0"/>
<feBlend mode="normal" in2="BackgroundImageFix" result="effect1_dropShadow_275_243"/>
<feBlend mode="normal" in="SourceGraphic" in2="effect1_dropShadow_275_243" result="shape"/>
</filter>
<filter id="filter1_d_275_243" x="7.00085" y="7.2666" width="86.5308" height="70.0544" filterUnits="userSpaceOnUse" color-interpolation-filters="sRGB">
<feFlood flood-opacity="0" result="BackgroundImageFix"/>
<feColorMatrix in="SourceAlpha" type="matrix" values="0 0 0 0 0 0 0 0 0 0 0 0 0 0 0 0 0 0 127 0" result="hardAlpha"/>
<feOffset dy="5"/>
<feGaussianBlur stdDeviation="2.5"/>
<feColorMatrix type="matrix" values="0 0 0 0 0 0 0 0 0 0 0 0 0 0 0 0 0 0 0.07 0"/>
<feBlend mode="normal" in2="BackgroundImageFix" result="effect1_dropShadow_275_243"/>
<feBlend mode="normal" in="SourceGraphic" in2="effect1_dropShadow_275_243" result="shape"/>
</filter>
<linearGradient id="paint0_linear_275_243" x1="3838.54" y1="7.2666" x2="3838.54" y2="6012.7" gradientUnits="userSpaceOnUse">
<stop stop-color="#34AADC"/>
<stop offset="1" stop-color="#007AFF"/>
</linearGradient>
<clipPath id="clip0_275_243">
<rect width="78.5326" height="85" fill="white" transform="translate(11 7)"/>
</clipPath>
</defs>
</svg>
