<svg width="100" height="100" viewBox="0 0 100 100" fill="none" xmlns="http://www.w3.org/2000/svg">
<rect width="100" height="100" rx="24" fill="white"/>
<path d="M70.8641 24.7161L72.9176 13.5186C69.7992 11.4396 66.4104 9.78322 62.8525 8.59163L55.272 17.0849C51.5789 16.4088 47.7929 16.3834 44.0913 17.0173L36.6038 8.42261C33.029 9.56349 29.6232 11.1776 26.471 13.2228L28.381 24.4457C25.5499 26.9134 23.1667 29.8543 21.3497 33.1502L9.97471 33.6403C8.63946 37.1475 7.77745 40.8152 7.41406 44.5506L17.3862 50.0522C17.5468 53.8044 18.3665 57.4975 19.8032 60.9708L13.0931 70.1739C15.003 73.4022 17.3355 76.3685 20.0229 78.9799L30.5444 74.6192C33.5783 76.8333 36.9841 78.4982 40.5926 79.5376L43.6012 90.5239C47.3196 91.0479 51.0887 91.0648 54.8072 90.5915L57.9509 79.6475C61.5764 78.6587 64.9991 77.0361 68.0583 74.8558L78.5206 79.3517C81.2419 76.7742 83.6166 73.8417 85.5603 70.6303L78.9685 61.3427C80.4475 57.8947 81.3179 54.2016 81.5292 50.4578L91.569 45.083C91.2478 41.3476 90.4365 37.663 89.1435 34.139L77.777 33.5051C76.0023 30.1923 73.6613 27.2176 70.8556 24.7161H70.8641Z" fill="#6B9543"/>
<path d="M50.1422 74.9404C64.8397 74.9404 76.7543 63.0257 76.7543 48.3282C76.7543 33.6307 64.8397 21.7161 50.1422 21.7161C35.4447 21.7161 23.53 33.6307 23.53 48.3282C23.53 63.0257 35.4447 74.9404 50.1422 74.9404Z" fill="#E9F4CA"/>
<path d="M31.3304 60.8525C38.2771 72.8698 52.3057 76.884 48.9507 52.0043C48.6887 50.069 47.6323 48.3281 46.0351 47.2042C25.195 32.5332 23.7498 47.745 31.3304 60.8525ZM44.3618 53.8804C44.9534 53.7368 45.4097 53.9903 45.621 54.5819C48.3845 62.323 43.4237 65.1371 39.9504 63.4047C36.7644 61.8159 36.7644 55.7904 44.3618 53.8804ZM42.5533 49.2746C42.9589 49.7564 42.9505 50.2803 42.5279 50.7113C37.0855 56.3481 31.8628 53.3311 32.0741 49.7902C32.3022 45.9196 37.2207 43.0209 42.5533 49.2746Z" fill="#C8D987"/>
<path d="M45.5669 64.7572C48.655 62.9742 48.5042 56.9316 45.2301 51.2607C41.9559 45.5897 36.7983 42.4378 33.7102 44.2207C30.6221 46.0036 30.7729 52.0462 34.047 57.7172C37.3212 63.3882 42.4788 66.5401 45.5669 64.7572Z" fill="#C8D987"/>
<path d="M48.6973 25.7724C34.8207 25.7808 24.3246 35.922 47.5479 45.4547C49.3564 46.1984 51.3847 46.1477 53.1594 45.3279C76.2897 34.6206 63.833 25.7555 48.6888 25.7639L48.6973 25.7724ZM48.224 40.5447C48.055 41.1278 47.6071 41.3982 46.9902 41.2884C38.9026 39.8095 38.9448 34.105 42.1815 31.9669C45.1478 30.0063 50.3705 33.0149 48.224 40.5531V40.5447ZM53.1171 41.2799C52.5002 41.3898 52.0438 41.1278 51.8833 40.5362C49.7198 33.0064 54.9425 29.9894 57.9088 31.9416C61.1456 34.0797 61.2047 39.7841 53.1171 41.2715V41.2799Z" fill="#C8D987"/>
<path d="M50.0494 42.6067C56.5976 42.6067 61.9061 39.716 61.9061 36.1502C61.9061 32.5843 56.5976 29.6936 50.0494 29.6936C43.5011 29.6936 38.1926 32.5843 38.1926 36.1502C38.1926 39.716 43.5011 42.6067 50.0494 42.6067Z" fill="#C8D987"/>
<path d="M70.3993 58.3594C77.3291 46.3337 73.7966 32.1783 53.9198 47.5253C52.3733 48.7169 51.393 50.5 51.224 52.4522C48.9338 77.839 62.8356 71.4838 70.3993 58.3679V58.3594ZM57.8411 50.5592C57.4186 50.1197 57.4101 49.5958 57.8157 49.1225C63.1399 42.8603 68.0583 45.7506 68.295 49.6211C68.5147 53.1705 63.292 56.1875 57.8411 50.5592ZM54.7565 54.4297C54.9678 53.8382 55.4241 53.5846 56.0157 53.7283C63.6131 55.6213 63.6216 61.6553 60.444 63.2441C56.9791 64.9766 52.0099 62.1793 54.7565 54.4297Z" fill="#C8D987"/>
<path d="M66.318 57.5677C69.5921 51.8967 69.7429 45.8541 66.6548 44.0712C63.5667 42.2883 58.4091 45.4402 55.1349 51.1112C51.8608 56.7821 51.71 62.8247 54.7981 64.6077C57.8862 66.3906 63.0438 63.2387 66.318 57.5677Z" fill="#C8D987"/>
</svg>
