<svg width="100" height="100" viewBox="0 0 100 100" fill="none" xmlns="http://www.w3.org/2000/svg">
<rect width="100" height="100" rx="24" fill="white"/>
<path fill-rule="evenodd" clip-rule="evenodd" d="M74.5142 52.5936C64.3045 52.5936 56.0283 60.8702 56.0283 71.0802C56.0283 81.2898 64.3045 89.5665 74.5142 89.5665C84.7238 89.5665 93 81.2898 93 71.0802C93 60.8702 84.7238 52.5936 74.5142 52.5936ZM26.486 52.5952C16.2765 52.5952 8 60.8702 8 71.0802C8 81.2898 16.2765 89.5665 26.486 89.5665C36.6958 89.5665 44.9728 81.2898 44.9728 71.0802C44.9728 60.8702 36.6958 52.5952 26.486 52.5952ZM68.9857 29.4856C68.9857 39.6958 60.7094 47.9732 50.5002 47.9732C40.2902 47.9732 32.0141 39.6958 32.0141 29.4856C32.0141 19.2773 40.2902 11 50.5002 11C60.7094 11 68.9857 19.2773 68.9857 29.4856Z" fill="#F06A6A"/>
</svg>
