<svg width="100" height="100" viewBox="0 0 100 100" fill="none" xmlns="http://www.w3.org/2000/svg">
<rect width="100" height="100" rx="24" fill="white"/>
<path d="M92 44.7764H67.1436L88.6729 32.3482L83.9432 24.1518L62.42 36.5861L74.8421 15.0568L66.6518 10.3271L54.2357 31.8504V7H44.7643V31.8564L32.3421 10.3271L24.1579 15.0568L36.58 36.58L15.0568 24.1579L10.3271 32.3421L31.8564 44.7704H7V54.2236H31.8504L10.3271 66.6518L15.0568 74.8482L36.58 62.42L24.1518 83.9432L32.3482 88.6729L44.7704 67.1436V92H54.2236V67.1436L66.6518 88.6729L74.8421 83.9432L62.4139 62.4139L83.9371 74.8421L88.6668 66.6518L67.1436 54.2296H91.9939L92 44.7764ZM49.5 62.3593C46.0766 62.3593 42.7935 60.9994 40.3728 58.5787C37.9521 56.158 36.5921 52.8748 36.5921 49.4514C36.5921 46.0281 37.9521 42.7449 40.3728 40.3242C42.7935 37.9035 46.0766 36.5436 49.5 36.5436C52.9234 36.5436 56.2065 37.9035 58.6272 40.3242C61.0479 42.7449 62.4079 46.0281 62.4079 49.4514C62.4079 52.8748 61.0479 56.158 58.6272 58.5787C56.2065 60.9994 52.9234 62.3593 49.5 62.3593Z" fill="#625DF5"/>
</svg>
