<svg width="100" height="100" viewBox="0 0 100 100" fill="none" xmlns="http://www.w3.org/2000/svg">
<rect width="100" height="100" rx="24" fill="white"/>
<path d="M33.724 46.9192C32.5284 45.6421 30.6656 45.7145 29.8531 47.3395L10.2476 86.5513C9.88419 87.2778 9.9229 88.1408 10.35 88.8319C10.777 89.5229 11.5315 89.9436 12.3439 89.9435H39.6472C40.541 89.9642 41.3629 89.4562 41.7439 88.6475C47.6312 76.475 44.0644 57.9673 33.724 46.9192Z" fill="url(#paint0_linear_273_42)"/>
<path d="M48.1108 11.2557C37.1452 28.6293 37.8687 47.871 45.0915 62.317L58.2568 88.6477C58.6538 89.4417 59.4653 89.9433 60.3531 89.9433H87.656C88.4684 89.9434 89.2228 89.5227 89.6499 88.8316C90.077 88.1405 90.1157 87.2776 89.7522 86.551C89.7522 86.551 53.0215 13.079 52.0975 11.2408C51.2714 9.59511 49.173 9.57274 48.1108 11.2557Z" fill="#2681FF"/>
<defs>
<linearGradient id="paint0_linear_273_42" x1="3457.19" y1="739.861" x2="708.484" y2="3692.45" gradientUnits="userSpaceOnUse">
<stop stop-color="#0052CC"/>
<stop offset="0.923" stop-color="#2684FF"/>
</linearGradient>
</defs>
</svg>
