<svg width="100" height="100" viewBox="0 0 100 100" fill="none" xmlns="http://www.w3.org/2000/svg">
<rect width="100" height="100" rx="24" fill="#60B57D"/>
<path d="M45.092 15.9346C45.8501 16.5436 45.971 17.6519 45.362 18.41C44.753 19.1681 43.6447 19.289 42.8866 18.68C38.2966 14.9929 34.4734 13.7756 32.1153 14.9793C29.371 16.3789 28.3067 20.8817 28.8606 27.1651L28.944 28.0133C28.9906 28.4426 29.0442 28.8795 29.1051 29.3237L29.2363 30.2217C29.3992 31.2718 29.6005 32.3594 29.8397 33.4797C33.1449 32.9674 36.7024 32.6325 40.4383 32.493C42.0591 30.4108 43.7068 28.4565 45.3618 26.6469L46.1911 25.7528C48.2655 23.5483 50.346 21.5751 52.3932 19.8671L53.2102 19.1982C60.6817 13.1972 67.6356 10.8227 72.1327 13.7424C76.0502 16.284 77.1002 22.0412 75.6453 29.7564C75.4651 30.712 74.5443 31.3406 73.5887 31.1604C72.6331 30.9802 72.0046 30.0594 72.1848 29.1038C73.4032 22.6426 72.601 18.2439 70.2156 16.6963C67.1154 14.6835 61.3543 17.0007 54.8583 22.4123L54.1336 23.0262C53.7698 23.3395 53.404 23.6622 53.0364 23.9941L52.2992 24.6701C51.5598 25.3582 50.8145 26.0825 50.0658 26.8414L49.3161 27.6117C49.191 27.742 49.0658 27.8732 48.9406 28.0053L48.1887 28.8095L47.4359 29.6357L46.6831 30.4836C46.4321 30.7698 46.1813 31.0596 45.9306 31.3528L45.1791 32.243L45.0327 32.4204C46.7844 32.4297 48.5667 32.4805 50.3726 32.5744L51.0736 32.613L52.4669 32.7023C53.623 32.7834 54.7661 32.8811 55.8946 32.9948L57.2417 33.1389C57.465 33.1642 57.6876 33.1901 57.9097 33.2166L59.2343 33.3833C60.3316 33.5283 61.4125 33.6887 62.4751 33.8638L63.7412 34.0809L64.9891 34.312L66.2181 34.5566C70.2822 35.3946 74.0187 36.4558 77.3116 37.6995L78.286 38.0781C86.9341 41.5336 92.2634 46.2904 91.99 51.5483C91.7632 55.8948 87.8672 59.4828 81.3366 62.0541C80.4318 62.4103 79.4095 61.9656 79.0533 61.0608C78.697 60.156 79.1417 59.1337 80.0465 58.7774C85.4317 56.6571 88.3367 53.9818 88.4732 51.3651C88.6475 48.0149 84.6392 44.5503 77.9672 41.7555L77.137 41.4167C76.5748 41.1932 75.9953 40.9743 75.3992 40.7605L74.4929 40.4437C74.1867 40.3394 73.8765 40.2365 73.5624 40.1349L72.6083 39.8344L71.6314 39.5425C71.4667 39.4946 71.3011 39.447 71.1345 39.3998L70.1244 39.1215C69.9542 39.0758 69.7832 39.0306 69.6113 38.9858L68.5693 38.7217C67.5171 38.4624 66.4342 38.218 65.3234 37.9899L64.2034 37.7673C64.0153 37.7311 63.8264 37.6954 63.6367 37.6602L62.49 37.4544L61.3264 37.2604C61.1311 37.229 60.935 37.1982 60.7384 37.1678L59.5503 36.9918C59.1517 36.9352 58.7505 36.8807 58.3468 36.8283L57.1285 36.6775L55.8959 36.5399C55.2761 36.4744 54.6512 36.4139 54.0216 36.3587L52.7562 36.2552C52.3323 36.223 51.9064 36.1932 51.4786 36.1659L50.1896 36.0911L48.8998 36.0317L47.6199 35.988C46.1327 35.9459 44.6669 35.9354 43.2273 35.9544L42.2211 35.9733L41.8255 36.498C41.5796 36.8277 41.3344 37.1606 41.09 37.4966L40.3593 38.5138C39.5098 39.7111 38.6714 40.9455 37.8482 42.2141C37.6131 42.5765 37.3809 42.939 37.1519 43.3013L36.474 44.3878C35.7522 45.5602 35.0629 46.73 34.4067 47.8935C34.467 48.0409 34.5282 48.1888 34.5898 48.3369L35.0685 49.4674C35.1498 49.6563 35.2319 49.8455 35.3147 50.0348L35.821 51.1737L36.3458 52.3173L36.8889 53.465L37.4503 54.616L38.0301 55.7696L38.6235 56.9164L39.2255 58.0468L39.8356 59.1604C39.938 59.3446 40.0406 59.5281 40.1435 59.7108L40.7647 60.7983C40.9729 61.1579 41.1822 61.5145 41.3926 61.868L42.0266 62.9193C42.239 63.2666 42.4522 63.6108 42.6663 63.9518L43.311 64.9652L43.9603 65.9588C44.5031 66.7786 45.05 67.5774 45.5997 68.3542L46.2605 69.2757C46.7018 69.8829 47.1445 70.4757 47.5878 71.0535L48.2532 71.9088L48.9191 72.7413C49.03 72.8781 49.141 73.0139 49.252 73.1488L49.9175 73.9461L50.582 74.7193C51.246 75.4805 51.9077 76.2049 52.5648 76.8908L53.2203 77.5637L53.8721 78.2105C54.197 78.5272 54.5203 78.834 54.8418 79.1305L55.4821 79.7099C55.8009 79.9927 56.1176 80.2652 56.432 80.527L57.0574 81.0363C61.3082 84.4188 65.0749 85.7849 67.5757 84.5094C69.9242 83.3119 71.0448 79.8161 70.9621 74.8582L70.9407 74.1037C70.9306 73.8486 70.9174 73.59 70.9013 73.3279L70.8438 72.5314C70.8217 72.2625 70.7965 71.9903 70.7683 71.7148L70.6749 70.8788C70.6578 70.7379 70.64 70.5962 70.6215 70.4538L70.5011 69.5898L70.3628 68.708L70.2066 67.809C70.069 67.0529 69.9127 66.2794 69.7379 65.4903L69.5191 64.5359L69.2826 63.5672C69.2416 63.4046 69.2 63.2414 69.1576 63.0776L68.8943 62.0884L68.6133 61.0864C68.5649 60.9184 68.5159 60.7498 68.4661 60.5808L68.1584 59.5607L67.8329 58.5294C67.6658 58.011 67.492 57.4886 67.3116 56.9626L66.9419 55.9058L66.5545 54.84C66.2904 54.1266 66.0145 53.4075 65.7268 52.6836L65.2866 51.5944L64.8287 50.4985C64.7509 50.3154 64.6724 50.132 64.5932 49.9483L64.109 48.8438L63.6072 47.7344C63.5221 47.5491 63.4363 47.3636 63.3497 47.1779L62.8216 46.0621C62.7322 45.8759 62.642 45.6895 62.551 45.5029C62.1249 44.6288 62.4881 43.5748 63.3623 43.1487C64.2364 42.7226 65.2904 43.0858 65.7165 43.9599L66.3004 45.1759C66.4919 45.5807 66.6802 45.9849 66.8653 46.3884L67.411 47.5967C67.947 48.8027 68.454 50.0015 68.9315 51.1902L69.3991 52.3753C69.4753 52.5722 69.5508 52.7688 69.6254 52.9651L70.0633 54.1389C70.1346 54.3338 70.205 54.5284 70.2747 54.7226L70.6825 55.8835C70.9476 56.6544 71.1993 57.419 71.4374 58.1764L71.7843 59.3072C75.9365 73.1843 75.4036 84.4708 69.1756 87.6465C64.1377 90.216 56.9949 86.647 49.805 79.12L49.0611 78.3273C48.5652 77.7895 48.0694 77.2333 47.5744 76.6593L46.8325 75.7851C44.8563 73.419 42.8982 70.7744 41.0012 67.8974L40.2928 66.8077C38.5294 64.0566 36.8246 61.1061 35.2139 57.9941L34.893 57.3695C34.6799 56.9517 34.4702 56.5342 34.2637 56.1172L33.6544 54.8672C33.175 53.8683 32.7148 52.8725 32.2741 51.8812L31.9899 52.4438C31.9022 52.6198 31.8154 52.7955 31.7293 52.9709L31.2225 54.0199L30.7353 55.0612L30.2677 56.0942C30.1914 56.2656 30.116 56.4367 30.0413 56.6074L29.6034 57.6266C29.5321 57.7957 29.4616 57.9643 29.3919 58.1325L28.9839 59.1365C28.9176 59.3029 28.8521 59.4689 28.7874 59.6343L28.4095 60.6214C28.3482 60.7849 28.2878 60.948 28.2281 61.1105L27.8806 62.0791L27.5535 63.0346C27.395 63.509 27.2442 63.9782 27.1012 64.4418L26.8254 65.3615L26.5704 66.2656C26.5296 66.4149 26.4897 66.5636 26.4507 66.7116L26.227 67.5911C26.0493 68.3169 25.8935 69.0247 25.7598 69.7127L25.6101 70.5287C24.6133 76.3071 25.2629 80.5687 27.7323 82.1712C30.2195 83.7848 34.8314 82.5573 40.5222 78.4489C41.3106 77.8797 42.4112 78.0574 42.9804 78.8459C43.5496 79.6343 43.3719 80.7349 42.5835 81.3041C35.8388 86.1733 29.8768 87.7602 25.8155 85.1253C20.9085 81.9408 20.5636 73.5205 23.8296 63.0452L24.1682 61.991C24.4019 61.2837 24.6515 60.5678 24.9167 59.8442L25.3263 58.7531C25.8879 57.2908 26.5114 55.7996 27.1946 54.287L27.7182 53.1486L28.2639 52.0028C28.9592 50.5677 29.7059 49.117 30.5021 47.657C30.3966 47.3871 30.2919 47.1181 30.1888 46.8496L29.7332 45.6404C29.1398 44.0336 28.6026 42.4495 28.1231 40.8958L27.7743 39.7364C27.559 39.0015 27.357 38.274 27.1684 37.5547C26.9513 37.5981 26.7363 37.6425 26.523 37.6877L25.5654 37.8983L24.6311 38.1194C24.4773 38.157 24.3245 38.1952 24.1728 38.2337L23.2744 38.4699L22.4009 38.7159C22.1139 38.7995 21.8312 38.8847 21.5528 38.9715L20.7309 39.2364C20.4613 39.3262 20.1962 39.4175 19.9357 39.5103L19.1679 39.793C13.8909 41.802 10.6764 44.4383 10.5271 47.3099C10.3906 49.927 13.0023 52.8896 18.1391 55.5568C19.0022 56.005 19.3385 57.0678 18.8904 57.9309C18.4423 58.7939 17.3794 59.1302 16.5164 58.6821C10.2867 55.4475 6.78363 51.4737 7.01037 47.1267C7.32557 41.0667 14.975 36.4412 26.353 34.1057C24.0501 23.1026 25.2221 14.5417 30.5148 11.8426C34.4268 9.84558 39.5377 11.4729 45.092 15.9346ZM54.7412 48.6874C55.3255 51.3914 53.607 54.0553 50.903 54.6407C48.199 55.225 45.5351 53.5065 44.9497 50.8025C44.3666 48.0985 46.0839 45.4346 48.7879 44.8492C51.4919 44.2649 54.1558 45.9834 54.7412 48.6874ZM37.6942 36.1791L37.3763 36.2013C37.1339 36.2188 36.8924 36.2372 36.6521 36.2564L35.5066 36.3551L34.3782 36.4667C34.1915 36.4864 34.0057 36.5066 33.8205 36.5273L32.7188 36.6577C32.5368 36.6804 32.3555 36.7037 32.1749 36.7275L31.1015 36.8761L30.6755 36.941L30.826 37.5031C31.0617 38.3596 31.317 39.2301 31.5918 40.1127L31.9309 41.1777C31.989 41.3561 32.0479 41.535 32.1075 41.7143L32.4747 42.7955C32.5758 43.0873 32.679 43.3801 32.7841 43.6739C33.3419 42.7464 33.9185 41.8169 34.5138 40.8874L34.8942 40.2972C35.8107 38.8847 36.7455 37.5108 37.6942 36.1791Z" fill="white"/>
</svg>
