<svg width="100" height="100" viewBox="0 0 100 100" fill="none" xmlns="http://www.w3.org/2000/svg">
<rect width="100" height="100" rx="24" fill="#F0B90B"/>
<path d="M23.6568 49.9999L23.699 65.4729L36.8463 73.2094V82.2681L16.0047 70.0445V45.4752L23.6568 49.9999ZM23.6568 34.5269V43.5435L16 39.0141V29.9976L23.6568 25.4682L31.3511 29.9976L23.6568 34.5269ZM42.3369 29.9976L49.9937 25.4682L57.688 29.9976L49.9937 34.5269L42.3369 29.9976Z" fill="white"/>
<path d="M29.1897 62.2658V53.207L36.8465 57.7364V66.7529L29.1897 62.2658ZM42.337 76.454L49.9938 80.9834L57.6881 76.454V85.4705L49.9938 89.9999L42.337 85.4705V76.454ZM68.6692 29.9976L76.326 25.4682L84.0203 29.9976V39.0141L76.326 43.5435V34.5269L68.6692 29.9976ZM76.326 65.4729L76.3682 49.9999L84.025 45.4705V70.0398L63.1834 82.2634V73.2047L76.326 65.4729Z" fill="white"/>
<path d="M70.8352 62.2655L63.1785 66.7527V57.7361L70.8352 53.2068V62.2655Z" fill="white"/>
<path d="M70.8355 37.7341L70.8777 46.7929L57.6928 54.5294V70.0399L50.036 74.527L42.3792 70.0399V54.5294L29.1944 46.7929V37.7341L36.884 33.2048L49.9891 40.9788L63.174 33.2048L70.8683 37.7341H70.8355ZM29.1897 22.2659L49.9938 10L70.8355 22.2659L63.1787 26.7952L49.9938 19.0212L36.8465 26.7952L29.1897 22.2659Z" fill="white"/>
</svg>
