<svg width="100" height="100" viewBox="0 0 100 100" fill="none" xmlns="http://www.w3.org/2000/svg">
<rect width="100" height="100" rx="24" fill="black"/>
<path d="M7 42.4612L7.67367 45.185V57.57H15.6854C18.7289 57.2032 19.8234 54.7409 19.7316 53.2321C19.6434 51.8281 19.3751 50.3509 18.1005 49.586C18.8279 48.8455 19.1738 47.7069 19.1067 46.6416C19.082 44.127 16.9812 42.4612 15.0287 42.4612L7 42.4612ZM10.34 45.0988H14.6051C16.2998 45.0988 16.4269 46.8196 16.4269 46.8196C16.2363 48.5405 14.9439 48.4474 14.9439 48.4474H10.34V45.0988ZM10.34 51.0854H14.923C15.961 51.0854 16.9143 51.975 16.9779 53.1276C17.0414 54.2801 15.4525 54.8784 15.4525 54.8784H10.34V51.0854Z" fill="white"/>
<path d="M64.2127 46.6754C63.4581 46.6754 62.7109 46.8176 62.0137 47.0939C61.3166 47.3702 60.6831 47.7751 60.1495 48.2856C59.616 48.7961 59.1927 49.4022 58.9039 50.0691C58.6152 50.7361 58.4665 51.451 58.4666 52.173C58.4666 53.631 59.072 55.0292 60.1496 56.0602C61.2272 57.0912 62.6888 57.6703 64.2127 57.6703C65.297 57.6682 66.3585 57.3725 67.2746 56.8176V57.6703H69.9589V52.173V46.6754H67.2746V47.5234C66.358 46.9701 65.2965 46.6762 64.2127 46.6754ZM64.1498 49.2064C64.9562 49.2064 65.7297 49.5211 66.2999 50.0813C66.8702 50.6415 67.1906 51.4013 67.1906 52.1936C67.1906 52.5859 67.112 52.9744 66.9592 53.3368C66.8064 53.6992 66.5824 54.0286 66.3 54.306C66.0176 54.5834 65.6824 54.8034 65.3135 54.9535C64.9445 55.1037 64.5491 55.1809 64.1498 55.1809C63.7504 55.1809 63.355 55.1037 62.9861 54.9535C62.6172 54.8034 62.2819 54.5834 61.9996 54.306C61.7172 54.0286 61.4932 53.6992 61.3404 53.3368C61.1876 52.9744 61.1089 52.5859 61.1089 52.1936C61.109 51.4013 61.4294 50.6415 61.9996 50.0813C62.5699 49.5211 63.3433 49.2064 64.1498 49.2064Z" fill="white"/>
<path d="M33.0281 46.4462C32.2599 46.4462 31.4992 46.594 30.7894 46.8812C30.0796 47.1684 29.4347 47.5894 28.8915 48.1202C28.3482 48.6509 27.9173 49.2809 27.6234 49.9744C27.3294 50.6678 27.1781 51.411 27.1781 52.1616C27.1781 52.9121 27.3294 53.6553 27.6234 54.3487C27.9174 55.0421 28.3483 55.6722 28.8915 56.2029C29.4348 56.7336 30.0797 57.1546 30.7894 57.4418C31.4992 57.729 32.2599 57.8768 33.0281 57.8768C33.7964 57.8768 34.5571 57.729 35.2668 57.4418C35.9766 57.1546 36.6215 56.7336 37.1647 56.2029C37.7079 55.6722 38.1389 55.0421 38.4328 54.3487C38.7268 53.6553 38.8782 52.9121 38.8782 52.1616C38.8782 51.411 38.7269 50.6678 38.4329 49.9744C38.1389 49.2809 37.708 48.6509 37.1648 48.1202C36.6216 47.5894 35.9766 47.1684 35.2669 46.8812C34.5571 46.594 33.7964 46.4462 33.0281 46.4462ZM33.0281 49.0819C33.8346 49.0819 34.6081 49.401 35.1783 49.969C35.7486 50.537 36.069 51.3074 36.069 52.1107C36.069 52.914 35.7486 53.6844 35.1783 54.2524C34.6081 54.8204 33.8346 55.1395 33.0281 55.1395C32.2216 55.1395 31.4482 54.8204 30.8779 54.2524C30.3077 53.6844 29.9873 52.914 29.9873 52.1107C29.9873 51.3074 30.3077 50.537 30.8779 49.969C31.4482 49.401 32.2216 49.0819 33.0281 49.0819Z" fill="white"/>
<path d="M86.2613 46.3922C83.0918 46.3921 80.5225 48.9759 80.5225 52.1632C80.5231 55.3326 83.0653 57.9085 86.2169 57.933C88.2887 58.0102 90.7588 56.8959 91.2997 55.7239L89.1109 54.4965C88.5446 55.2206 87.4332 55.5506 86.2169 55.5487C84.8584 55.5418 83.7081 54.6098 83.2801 53.314H89.1817C89.1815 53.3146 89.1812 53.3155 89.181 53.3163H91.8781C91.9571 52.9371 91.9981 52.5507 92.0001 52.1632C92.0001 48.976 89.4308 46.3923 86.2615 46.3922H86.2613ZM86.2316 48.8531C87.6625 48.8532 88.8665 49.88 89.2409 51.281H83.2222C83.5966 49.88 84.8006 48.8532 86.2316 48.8531Z" fill="white"/>
<path d="M79.1877 46.3922C79.1877 46.3922 76.7852 46.3337 75.8362 48.0353V46.6755H73.0188V57.6705H75.8362V51.4972C75.8362 51.4972 76.3998 49.4436 79.1877 49.2969V46.3922Z" fill="white"/>
<path d="M38.8821 42.319L43.2717 57.6704H46.4154L48.6309 50.3681L50.7909 57.6704H53.8318L58.3616 42.319H55.4675L52.3638 53.0235L49.1971 42.319H46.4289L47.3516 45.1403L44.9609 53.0235L41.7522 42.319L38.8821 42.319Z" fill="white"/>
<path d="M22.083 46.7357V57.5699H24.8794V46.7357H22.083Z" fill="white"/>
<path d="M23.552 42C23.3238 42 23.0979 42.045 22.887 42.1324C22.6762 42.2198 22.4846 42.3479 22.3233 42.5094C22.1619 42.6709 22.0339 42.8627 21.9466 43.0737C21.8593 43.2848 21.8143 43.5109 21.8143 43.7394C21.8143 43.9678 21.8593 44.194 21.9466 44.405C22.0339 44.616 22.1619 44.8078 22.3233 44.9693C22.4846 45.1308 22.6762 45.2589 22.887 45.3463C23.0979 45.4337 23.3238 45.4787 23.552 45.4787C23.7802 45.4787 24.0062 45.4337 24.217 45.3463C24.4278 45.2589 24.6194 45.1308 24.7807 44.9693C24.9421 44.8078 25.0701 44.616 25.1574 44.405C25.2448 44.194 25.2897 43.9678 25.2897 43.7394C25.2897 43.5109 25.2448 43.2848 25.1574 43.0737C25.0701 42.8627 24.9421 42.6709 24.7807 42.5094C24.6194 42.3479 24.4278 42.2198 24.217 42.1324C24.0062 42.045 23.7802 42 23.552 42Z" fill="white"/>
</svg>
