<svg width="100" height="100" viewBox="0 0 100 100" fill="none" xmlns="http://www.w3.org/2000/svg">
<rect width="100" height="100" rx="24" fill="#0AC18E"/>
<path d="M81.3914 53.0754L81.3555 53.0087L81.3495 52.9976C81.3277 52.9305 81.3114 52.8603 81.2867 52.7878L81.2836 52.7822L81.2806 52.7765L81.2776 52.7709L81.2745 52.7652L81.2715 52.7596L81.2684 52.7539L81.2624 52.7428C80.5053 50.2113 79.0045 47.9659 76.9548 46.2984L76.9518 46.2927C76.8912 46.2465 76.8275 46.1948 76.7667 46.1487L76.6829 46.0864L76.6223 46.0403L76.5962 46.0186L76.5384 45.978L76.5124 45.9563L76.4546 45.9157L76.4285 45.8939L76.3679 45.8479L76.3362 45.829L76.2756 45.7829L76.2439 45.7641L76.1787 45.7206L76.147 45.7017L76.1086 45.6435L76.074 45.6192L76.0089 45.5757L75.9743 45.5514L75.9092 45.508L75.8746 45.4836L75.8095 45.4402L75.7749 45.4159L75.7057 45.3672L75.6711 45.3429L75.5964 45.297L75.5619 45.2727L75.4871 45.2269L75.4526 45.2026L75.3779 45.1567L75.3433 45.1324L75.2686 45.0866L75.2284 45.0648L75.1537 45.019L75.1135 44.9973L75.0332 44.9539L74.993 44.9321L74.9096 44.8839L74.8694 44.8622L74.786 44.814L74.7458 44.7922L74.6624 44.744L74.6189 44.7171L74.5355 44.6689L74.4921 44.6419L74.4033 44.5965L74.3598 44.5696L74.271 44.5242L74.2108 44.4921L74.208 44.4864C74.1645 44.4595 74.1191 44.441 74.0759 44.4141C72.2319 43.4664 70.241 42.8374 68.1873 42.5535C68.7632 41.9344 69.2906 41.272 69.7649 40.5721L69.8405 40.4598L69.8462 40.4567L69.8811 40.402L69.927 40.3273L69.9513 40.2927L69.9971 40.218L70.0215 40.1835L70.0673 40.1087L70.0916 40.0742L70.1374 39.9995L70.1618 39.9649L70.2076 39.8902L70.2319 39.8557L70.2721 39.7838L70.2964 39.7493L70.3366 39.6774L70.3555 39.6456L70.3957 39.5738L70.4146 39.542L70.4548 39.4701L70.4735 39.4384L70.508 39.3696L70.5269 39.3379L70.5614 39.269L70.5803 39.2373L70.6149 39.1684L70.6338 39.1367L70.6711 39.0735L70.69 39.0418L70.7276 38.9786L70.7465 38.9469L70.7786 38.8867L70.7976 38.855L70.8297 38.7948L70.8429 38.7662L70.8751 38.706L70.8883 38.6773L70.9205 38.6172L70.9337 38.5885L70.9659 38.5283L70.9791 38.4996L71.0056 38.4423L71.0189 38.4136L71.0454 38.3563L71.0586 38.3276L71.0851 38.2703L71.0984 38.2416L71.1275 38.1764L71.1672 38.0895C71.1963 38.0244 71.2198 37.961 71.2489 37.8941L71.2546 37.891C72.1382 35.7129 72.3454 33.3191 71.8491 31.0215L71.846 31.0158L71.8399 31.0048L71.8369 30.9991L71.8339 30.9935L71.8308 30.9878L71.8278 30.9822L71.8247 30.9765L71.8217 30.9709C71.8084 30.9057 71.7952 30.8419 71.7765 30.7802V30.7678L71.7735 30.7621L71.7704 30.7565L71.7435 30.7065C71.724 30.6168 71.7042 30.5271 71.676 30.4348C71.6564 30.3451 71.6282 30.2528 71.603 30.1659L71.5702 30.1049L71.5641 30.0938C71.5452 30.0323 71.5265 29.9706 71.5076 29.9092L71.5046 29.9035L71.5015 29.8979L71.4985 29.8922L71.4954 29.8866L71.4924 29.8809L71.4894 29.8753L71.4865 29.8696C70.8143 27.6166 69.479 25.6184 67.6547 24.1352L67.6519 24.1296C67.5998 24.0862 67.542 24.0453 67.4899 24.0019L67.418 23.9476L67.3602 23.907L67.3341 23.8852L67.285 23.8472L67.259 23.8255L67.2097 23.7875L67.1838 23.7658L67.1288 23.7308L67.1028 23.7091L67.0452 23.6685L67.0192 23.6467L66.9614 23.6061L66.9353 23.5844L66.8775 23.5438L66.8458 23.5249L66.788 23.4843L66.7563 23.4654L66.6985 23.4247L66.6668 23.4058L66.6036 23.3683L66.5719 23.3494L66.5087 23.3118L66.477 23.2929L66.4138 23.2553L66.3821 23.2364L66.3189 23.1988L66.2872 23.1799L66.2209 23.1365L66.1892 23.1176L66.1229 23.0742L66.0912 23.0553L66.0193 23.0151L65.9876 22.9962L65.9159 22.956L65.8814 22.9317L65.8095 22.8915L65.775 22.8672L65.7033 22.827L65.6688 22.8026L65.594 22.7568L65.5539 22.7351L65.4772 22.6875L65.437 22.6658L65.3566 22.6224L65.3164 22.6006L65.2361 22.5572L65.1787 22.5307L65.1757 22.5251L65.0551 22.4599C61.5333 20.6295 57.0589 20.0784 52.5572 21.2333L51.3862 21.5339L48.4243 10L41.5605 11.7594L44.5126 23.2477L39.0208 24.6642L36.0668 13.2126L29.2029 14.972L32.155 26.4603L18 30.1027L19.8834 37.4227L25.587 35.9578C26.4935 35.7242 27.4557 35.8601 28.2619 36.3359C29.0681 36.8116 29.6523 37.5882 29.886 38.4946L29.8878 38.5016L37.8045 69.3059C37.9595 69.9109 37.8681 70.5527 37.5505 71.0904C37.2329 71.6282 36.7149 72.018 36.1102 72.1743L31.1126 73.46L31.4063 82.1658L45.5446 78.5325L48.5347 90L55.3951 88.2347L52.441 76.7408L57.9317 75.333L60.8868 86.8268L67.7472 85.0615L64.7821 73.5228C65.9446 73.2187 66.9446 72.9606 67.6365 72.7817C72.7097 71.4769 76.8121 68.5026 79.2946 64.7937L79.3785 64.6699L79.3841 64.6669L79.4247 64.6091L79.4786 64.5222L79.5055 64.4788L79.5594 64.3919L79.5863 64.3484L79.6346 64.265L79.6615 64.2216L79.7097 64.1382L79.7315 64.098L79.7797 64.0146L79.8014 63.9744L79.8496 63.891L79.8713 63.8508L79.9148 63.7704L79.9365 63.7302L79.9799 63.6499L80.0017 63.6097L80.0475 63.535L80.0692 63.4948L80.115 63.4201L80.1368 63.3799L80.1769 63.308L80.1987 63.2678L80.2389 63.1961L80.2606 63.1559L80.3008 63.0843L80.3166 63.0471L80.3568 62.9754L80.3727 62.9383L80.4072 62.8694L80.4261 62.8377L80.4606 62.7689L80.4795 62.7372L80.5141 62.6683L80.533 62.6366L80.5675 62.5677L80.5864 62.536L80.6209 62.4672L80.6398 62.4355L80.6744 62.3666L80.6933 62.3349L80.7224 62.2697L80.7413 62.238L80.7702 62.1728L80.7834 62.1442L80.8151 62.0699L80.8586 61.9754C80.8903 61.9011 80.9237 61.8323 80.9509 61.7608L80.9535 61.7523C81.9466 59.3021 82.1801 56.6099 81.6238 54.0253L81.621 54.0196L81.6179 54.014L81.6149 54.0083L81.6118 54.0027L81.6088 53.997L81.6058 53.9914L81.6027 53.9857L81.5997 53.9801C81.5834 53.9099 81.5673 53.84 81.551 53.7698V53.7557L81.548 53.75L81.5449 53.7444L81.5419 53.7387L81.5389 53.7331L81.5358 53.7275L81.5328 53.7218L81.5297 53.7162L81.5267 53.7105L81.5237 53.7049L81.5206 53.6992L81.5176 53.6936L81.5145 53.6879L81.5115 53.6823L81.4995 53.6606C81.4739 53.5598 81.4539 53.4559 81.4226 53.358C81.4068 53.2645 81.3964 53.1701 81.3914 53.0754ZM41.0637 32.4683C42.2347 32.1677 47.0763 30.9518 48.6728 30.5367C51.2109 29.887 53.7121 30.1392 55.6649 31.0797L55.73 31.1088L55.7587 31.1221L55.7989 31.1438L55.8189 31.1544L55.8591 31.1761L55.879 31.1868L55.9192 31.2085L55.9392 31.2192L55.9794 31.2409L55.9994 31.2515L56.0396 31.2732L56.0595 31.2839L56.0997 31.3056L56.1197 31.3162L56.1599 31.338L56.1799 31.3486L56.2201 31.3703L56.24 31.381L56.2802 31.4027L56.3002 31.4133L56.3348 31.4377L56.3547 31.4483L56.3893 31.4726L56.4093 31.4833L56.4438 31.5076L56.4638 31.5183L56.4955 31.5371L56.5155 31.5478L56.5472 31.5667L56.5672 31.5773L56.5989 31.5962L56.6189 31.6069L56.6506 31.6258L56.6706 31.6364L56.7023 31.6553L56.7168 31.669L56.7485 31.6879L56.7601 31.6959L56.7918 31.7148L56.8033 31.7229L56.835 31.7418L56.8465 31.7498L56.8782 31.7687L56.8897 31.7767L56.9158 31.7985L56.9273 31.8065L56.959 31.8254L57.0025 31.8523C57.0342 31.8712 57.0631 31.8986 57.0948 31.9175C58.0944 32.6721 58.8289 33.7243 59.1926 34.9228L59.2015 34.9395C59.2108 34.9704 59.2232 35.0067 59.2326 35.0375L59.2356 35.0432L59.2536 35.0764C59.2665 35.1268 59.2819 35.1687 59.2947 35.2191C59.3088 35.2705 59.318 35.3232 59.3221 35.3764L59.3401 35.4096L59.3431 35.4152C59.3479 35.4497 59.3565 35.4835 59.3688 35.516L59.3777 35.5328C59.6344 36.7577 59.4976 38.0324 58.9867 39.1749L58.9417 39.2779L58.9178 39.3266L58.8989 39.3583L58.8937 39.3754L58.8805 39.4041L58.8753 39.4213L58.8564 39.453L58.8511 39.4701L58.8322 39.5019L58.827 39.519L58.8081 39.5507L58.8029 39.5679L58.784 39.5996L58.7788 39.6168L58.7599 39.6485L58.7547 39.6656L58.7358 39.6973L58.7252 39.7173L58.7063 39.749L58.6956 39.769L58.6769 39.8007L58.6661 39.8207L58.6474 39.8524L58.6368 39.8724L58.6124 39.907L58.6016 39.9269L58.5772 39.9615L58.5666 39.9815L58.5423 40.016L58.5316 40.036L58.5073 40.0705L58.4966 40.0905L58.4723 40.125L58.4617 40.145L58.4374 40.1796L58.4267 40.1995L58.4024 40.2341L58.3917 40.2541L58.3674 40.2886L58.3568 40.3086L58.3268 40.3462L58.3161 40.3661L58.2862 40.4037L58.2755 40.4237L58.2456 40.4613L58.2349 40.4813L58.2049 40.5188L58.1832 40.5449L58.1426 40.6027C56.8804 42.3712 54.8119 43.8 52.2738 44.4497C50.6742 44.8594 45.8443 46.1257 44.6744 46.4263L41.0637 32.4683ZM67.8919 56.0842L67.9099 56.1174L67.913 56.1231C67.9197 56.1624 67.9293 56.1932 67.936 56.2317L67.939 56.2373L67.9421 56.243L67.9451 56.2486L67.9482 56.2543C68.2189 57.6053 68.0243 59.0081 67.3962 60.2345L67.3348 60.3463L67.3052 60.398L67.2835 60.4382L67.2729 60.4582L67.254 60.4899L67.2433 60.5099L67.2244 60.5416L67.2138 60.5616L67.1894 60.5961L67.1788 60.6161L67.1545 60.6506L67.1438 60.6706L67.1195 60.7051L67.1089 60.7251L67.0845 60.7597L67.0739 60.7797L67.0496 60.8142L67.0389 60.8342L67.0146 60.8687L67.0039 60.8887L66.9796 60.9232L66.969 60.9432L66.9446 60.9777L66.934 60.9977L66.9097 61.0323L66.899 61.0522L66.8691 61.0898L66.8584 61.1098L66.8284 61.1474L66.8178 61.1674L66.7909 61.2108L66.7802 61.2308L66.7533 61.2742L66.7426 61.2942L66.7157 61.3377L66.6994 61.3607L66.6725 61.4041L66.6562 61.4272L66.6236 61.4732L66.6073 61.4962L66.5747 61.5423L66.5585 61.5653L66.5259 61.6114L66.5096 61.6344L66.4768 61.6804L66.4605 61.7035L66.4279 61.7495L66.4005 61.7786L66.3488 61.8423C64.816 63.7998 62.3435 65.4099 59.3405 66.1808C57.4467 66.6698 51.7244 68.1664 50.3321 68.5217L46.4364 53.3636C47.8266 53.0026 53.564 51.5621 55.4577 51.0731C58.4608 50.3022 61.4092 50.521 63.688 51.4941L63.7623 51.5258L63.7994 51.5417L63.8537 51.5634L63.8794 51.571L63.928 51.5949L63.9537 51.6025L64.0023 51.6264L64.0279 51.634L64.0766 51.6579L64.0964 51.6685L64.145 51.6924L64.165 51.703L64.2137 51.7269L64.2336 51.7376L64.2823 51.7615L64.3023 51.7721L64.3425 51.7938L64.3624 51.8045L64.4026 51.8262L64.4226 51.8368L64.4628 51.8586L64.4828 51.8692L64.523 51.8909L64.5429 51.9016L64.5831 51.9233L64.6031 51.9339L64.6433 51.9557L64.6633 51.9663L64.7035 51.988L64.7235 51.9987L64.7636 52.0204L64.7836 52.031L64.8238 52.0528L64.8438 52.0634L64.8783 52.0877L64.8983 52.0984L64.9328 52.1227L64.9528 52.1333L64.9874 52.1577L65.0073 52.1683L65.0419 52.1926L65.0619 52.2033L65.0964 52.2276L65.1164 52.2383L65.1481 52.2571L65.1681 52.2678L65.2026 52.2921L65.2487 52.3247C65.2832 52.349 65.3234 52.3705 65.3573 52.3949C66.4973 53.1681 67.3431 54.3032 67.7579 55.6168L67.7698 55.6385C67.7822 55.6748 67.7916 55.7056 67.8039 55.7419L67.807 55.7475L67.825 55.7808C67.8378 55.8311 67.8506 55.8815 67.8665 55.9376C67.8945 55.95 67.8991 56.0119 67.8902 56.0883L67.8919 56.0842Z" fill="white"/>
</svg>
