<svg width="100" height="100" viewBox="0 0 100 100" fill="none" xmlns="http://www.w3.org/2000/svg">
<rect width="100" height="100" rx="24" fill="#34D186"/>
<path fill-rule="evenodd" clip-rule="evenodd" d="M71.2616 30V60.0737H64.1259V31.5037L71.2616 30ZM50.9448 62.9238C52.9153 62.9238 54.5126 64.5079 54.5126 66.4619C54.5126 68.4159 52.9153 70 50.9448 70C48.9744 70 47.377 68.4159 47.377 66.4619C47.377 64.5079 48.9744 62.9238 50.9448 62.9238ZM50.9448 38.5405C57.0201 38.5405 61.9556 43.4251 61.9556 49.4595C61.9556 55.4939 57.02 60.3784 50.9448 60.3784C44.8597 60.3784 39.9341 55.4939 39.9341 49.4595C39.9341 43.4251 44.8696 38.5405 50.9448 38.5405ZM50.9448 52.9975C52.917 52.9975 54.5126 51.4152 54.5126 49.4595C54.5126 47.5037 52.917 45.9214 50.9448 45.9214C48.9726 45.9214 47.377 47.5037 47.377 49.4595C47.377 51.4152 48.9726 52.9975 50.9448 52.9975ZM28.4973 52.9975C29.7262 52.9975 30.7272 52.0049 30.7272 50.7862C30.7272 49.5676 29.7262 48.5749 28.4973 48.5749H23.1455V52.9975H28.4973ZM23.1455 37.0762V41.4988H27.1098C28.3387 41.4988 29.3397 40.5061 29.3397 39.2875C29.3397 38.0688 28.3387 37.0762 27.1098 37.0762H23.1455ZM35.068 44.172C36.7925 45.8624 37.8628 48.2015 37.8529 50.7862C37.8529 55.9165 33.6608 60.0737 28.4874 60.0737H16V30H27.0999C32.2733 30 36.4654 34.1572 36.4654 39.2875C36.4654 41.0762 35.96 42.7568 35.068 44.172ZM84.74 46.0197H81.1822V51.5725C81.1822 53.2531 81.7273 54.4914 83.1543 54.4914C84.0761 54.4914 84.75 54.285 84.75 54.285V59.4939C84.75 59.4939 83.2732 60.3784 81.2713 60.3784H81.1822C81.0929 60.3784 81.0136 60.3686 80.9244 60.3686H80.855C80.8154 60.3686 80.7658 60.3587 80.7262 60.3587C76.7421 60.1523 74.0365 57.6658 74.0365 53.3514V35.0418L81.1722 33.5381V38.9435H84.74V46.0197Z" fill="white"/>
</svg>
