<svg width="100" height="100" viewBox="0 0 100 100" fill="none" xmlns="http://www.w3.org/2000/svg">
<rect width="100" height="100" rx="24" fill="white"/>
<path d="M86.4368 34.475L83.8053 27.3728L85.6162 23.2983C85.8425 22.7607 85.7294 22.1664 85.3332 21.742L80.3815 16.7337C78.2027 14.5549 74.977 13.7909 72.0626 14.8096L70.6761 15.2906L63.0929 7.08489L50.275 7H50.1901L37.2873 7.11318L29.7324 15.3755L28.3742 14.8945C25.4314 13.8475 22.1774 14.6115 19.9987 16.8469L14.9621 21.9401C14.6225 22.2796 14.5376 22.7607 14.7074 23.1851L16.6032 27.4294L14 34.5316L15.6977 40.9547L23.3941 70.1841C24.2713 73.5513 26.3086 76.494 29.1664 78.5313C29.1664 78.5313 38.504 85.1242 47.7001 91.0945C48.5206 91.6322 49.3695 92 50.275 92C51.1804 92 52.0293 91.6322 52.8499 91.0945C63.2061 84.3036 71.3835 78.503 71.3835 78.503C74.2131 76.4657 76.2503 73.523 77.1275 70.1558L84.7673 40.9264L86.4368 34.475Z" fill="#F15A22"/>
<path d="M51.9161 59.2905C51.5765 59.1491 51.2087 59.0359 51.0955 59.0359H50.6428H50.19C50.0769 59.0359 49.709 59.1491 49.3695 59.2905L45.691 60.8185C45.3515 60.96 44.7856 61.2147 44.446 61.3844L38.9001 64.2706C38.5605 64.4403 38.5322 64.7516 38.8435 64.978L43.7386 68.43C44.0499 68.6564 44.5309 69.0242 44.8139 69.2789L46.9926 71.1464C47.2756 71.4011 47.7283 71.7972 48.0113 72.0519L50.1052 73.9194C50.3881 74.174 50.8408 74.174 51.1238 73.9194L53.2743 72.0519C53.5572 71.7972 54.0099 71.4011 54.2929 71.1464L56.4717 69.2506C56.7546 68.9959 57.2356 68.6281 57.5469 68.4017L62.442 64.9214C62.7533 64.695 62.725 64.3838 62.3854 64.214L56.8395 61.3844C56.5 61.2147 55.934 60.96 55.5945 60.8185L51.9161 59.2905Z" fill="white"/>
<path d="M78.4612 35.7362C78.5744 35.3683 78.5744 35.2268 78.5744 35.2268C78.5744 34.859 78.5461 34.2365 78.4895 33.8686L78.2065 33.0481C78.0367 32.7085 77.7538 32.1709 77.5274 31.8597L74.33 27.1343C74.1319 26.823 73.7641 26.342 73.5094 26.0308L69.3783 20.8527C69.1519 20.5697 68.9256 20.3151 68.8973 20.3433H68.8407C68.8407 20.3433 68.5294 20.3999 68.1616 20.4565L61.8517 21.7015C61.4838 21.7864 60.8896 21.8996 60.5218 21.9562L60.4086 21.9845C60.0407 22.0411 59.4465 22.0128 59.0787 21.8996L53.7874 20.2019C53.4196 20.0887 52.8254 19.9189 52.4858 19.834C52.4858 19.834 51.4106 19.5794 50.5334 19.6077C49.6562 19.6077 48.581 19.834 48.581 19.834C48.2132 19.9189 47.619 20.0887 47.2794 20.2019L41.9881 21.8996C41.6203 22.0128 41.0261 22.0411 40.6582 21.9845L40.5451 21.9562C40.1772 21.8996 39.583 21.7581 39.2152 21.7015L32.8487 20.5131C32.4808 20.4282 32.1696 20.3999 32.1696 20.3999H32.113C32.0847 20.3999 31.8583 20.6263 31.6319 20.9093L27.5008 26.0874C27.2744 26.3703 26.9066 26.8796 26.6802 27.1909L23.4828 31.9163C23.2847 32.2275 22.9735 32.7651 22.8037 33.1047L22.5208 33.9252C22.4642 34.2931 22.4076 34.9156 22.4359 35.2834C22.4359 35.2834 22.4359 35.3966 22.5491 35.7927C22.7471 36.4718 23.2281 37.0943 23.2281 37.0943C23.4545 37.3773 23.8789 37.8583 24.1336 38.113L33.4995 48.073C33.7541 48.356 33.839 48.8653 33.6975 49.2049L31.7451 53.8171C31.6036 54.1566 31.5754 54.7225 31.7168 55.0904L32.2544 56.5334C32.7072 57.7501 33.4712 58.8254 34.4898 59.6459L36.3856 61.1739C36.6686 61.4003 37.1779 61.4852 37.5174 61.3154L43.5161 58.4575C43.8556 58.2878 44.365 57.9482 44.6479 57.6936L48.9489 53.8171C49.5714 53.2511 49.5997 52.2891 49.0337 51.6666L40.0074 45.583C39.6962 45.385 39.583 44.9322 39.7528 44.5927L43.7142 37.1226C43.8839 36.7831 43.9122 36.2455 43.7708 35.9059L43.2897 34.8024C43.1483 34.4629 42.7238 34.0667 42.3843 33.9252L30.7548 29.5677C30.4152 29.4262 30.4152 29.2848 30.7831 29.2565L38.2814 28.5491C38.6493 28.5208 39.2435 28.5774 39.6113 28.6623L46.2891 30.5298C46.6569 30.6429 46.8833 31.0108 46.8267 31.3786L44.5064 44.0834C44.4499 44.4512 44.4499 44.9605 44.5347 45.2435C44.6196 45.5264 44.9875 45.7811 45.3553 45.866L49.9958 46.8563C50.3636 46.9412 50.9578 46.9412 51.3257 46.8563L55.6549 45.866C56.0228 45.7811 56.3906 45.4981 56.4755 45.2435C56.5604 44.9888 56.5887 44.4512 56.5038 44.0834L54.2118 31.3786C54.1552 31.0108 54.3816 30.6147 54.7495 30.5298L61.4272 28.6623C61.7951 28.5491 62.3893 28.5208 62.7571 28.5491L70.2554 29.2565C70.6233 29.2848 70.6516 29.4262 70.2837 29.5677L58.6542 33.9818C58.3147 34.1233 57.8903 34.4912 57.7488 34.859L57.2678 35.9625C57.1263 36.3021 57.1263 36.868 57.3244 37.1792L61.314 44.6493C61.4838 44.9888 61.3706 45.4133 61.0594 45.6396L52.0331 51.7515C51.4389 52.3457 51.4955 53.336 52.118 53.9019L56.4189 57.7784C56.7019 58.0331 57.2112 58.3726 57.5507 58.5141L63.5777 61.372C63.9172 61.5418 64.4266 61.4569 64.7095 61.2305L66.6053 59.6742C67.624 58.8537 68.3879 57.7784 68.8124 56.5617L69.35 55.1186C69.4915 54.7791 69.4632 54.1849 69.3217 53.8453L67.3693 49.2332C67.2278 48.8936 67.3127 48.3843 67.5674 48.1013L76.9332 38.1413C77.1879 37.8583 77.584 37.4056 77.8387 37.1226C77.7821 37.0378 78.2914 36.4153 78.4612 35.7362Z" fill="white"/>
</svg>
