<svg width="100" height="100" viewBox="0 0 100 100" fill="none" xmlns="http://www.w3.org/2000/svg">
<rect width="100" height="100" rx="24" fill="#717074"/>
<path d="M66.3183 43.2711C68.0845 43.2711 69.4722 43.7126 70.4184 44.6588C71.3014 45.5419 71.743 46.8034 71.743 48.3803V55.3819C71.743 55.8865 71.3645 56.3281 70.7968 56.3281C70.2922 56.3281 69.8507 55.9496 69.8507 55.445V54.1834C68.9676 55.3819 67.4537 56.3911 65.246 56.3911C62.998 56.4536 60.6262 55.156 60.579 52.6206L60.5783 52.5434C60.5783 49.8311 62.786 48.3803 66.003 48.3803C67.643 48.3803 68.7784 48.5696 69.9137 48.885V48.4434C69.9137 46.1096 68.526 45.0372 66.1291 45.0372C64.9036 45.0372 64.1543 45.1563 63.2451 45.5679L63.1645 45.6049C63.0383 45.668 62.9122 45.668 62.8491 45.668C62.4076 45.668 61.966 45.2896 61.966 44.848C61.966 44.4065 62.1553 44.2172 62.4706 44.028L62.6531 43.956C63.8261 43.4994 64.7583 43.2711 66.3183 43.2711ZM51.369 43.208C51.8737 43.208 52.2521 43.5234 52.3783 44.028L55.5321 53.3634L58.7491 44.028C58.8752 43.6495 59.1275 43.2711 59.6952 43.2711C60.2629 43.2711 60.6414 43.6495 60.6414 44.1542C60.6414 44.3434 60.5783 44.5326 60.5152 44.6588L56.6045 55.445C56.4152 56.0127 56.0368 56.3281 55.5321 56.3281H55.4691C55.0275 56.3281 54.586 56.0758 54.3968 55.445L51.2429 46.2988L48.089 55.445C47.8998 56.0127 47.5844 56.3281 47.0167 56.3281H46.9536C46.449 56.3911 46.0706 56.0127 45.8813 55.5081L42.0336 44.7219C41.9705 44.5957 41.9075 44.4065 41.9075 44.2172C41.9075 43.7757 42.2859 43.2711 42.9167 43.2711C43.3582 43.2711 43.7367 43.5865 43.9259 44.0911L47.0798 53.3634L50.2967 44.028C50.4229 43.5865 50.7383 43.208 51.2429 43.208H51.369ZM66.1291 49.768C63.7322 49.768 62.4076 50.8403 62.4076 52.4173V52.4804C62.4076 54.0573 63.8583 55.0034 65.5614 55.0034C68.0214 55.0034 69.9137 53.5527 69.9137 51.5342V50.2727C68.9676 50.0203 67.706 49.768 66.1291 49.768ZM74.9599 43.2711C75.4645 43.2711 75.9692 43.6495 75.9692 44.2803V46.488C76.9153 44.3434 78.9969 43.3972 80.3215 43.3972C80.8892 43.3972 81.2676 43.7757 81.2676 44.4065C81.2676 44.9111 80.9523 45.2896 80.3846 45.4157C77.9245 45.668 75.9061 47.5603 75.9061 51.2188V55.5081C75.9061 56.0127 75.5276 56.5173 74.9599 56.5173C74.4553 56.5173 73.9507 56.1388 73.9507 55.5081V44.2803H74.0138C74.0138 43.7757 74.3922 43.2711 74.9599 43.2711ZM87.1969 43.2711C90.9184 43.2711 93 46.2988 93 49.705C93 50.2096 92.6215 50.588 92.1169 50.588H83.0338C83.2861 53.3004 85.2415 54.8773 87.4492 54.8773C88.9631 54.8773 90.1615 54.3096 91.0446 53.4265C91.1708 53.3004 91.36 53.2373 91.5492 53.2373C91.9908 53.2373 92.3692 53.6157 92.3692 54.0573C92.3692 54.2465 92.3061 54.4988 92.1169 54.625C90.9184 55.6973 89.5308 56.4542 87.3861 56.4542C84.014 56.4542 81.2601 53.8577 81.2054 50.0111L81.2046 49.8311C81.2046 46.1726 83.7276 43.2711 87.1969 43.2711ZM87.1338 44.848C84.9261 44.848 83.2861 46.6773 83.0969 49.1373H91.1077C90.9185 46.8034 89.5938 44.848 87.1338 44.848Z" fill="white"/>
<path d="M11.4412 44.0912C11.0627 43.145 9.99041 42.7666 9.04425 43.145C8.09809 43.5235 7.71963 44.6589 8.22425 45.542L12.2612 54.3097C12.892 55.6974 13.5858 56.4543 14.8474 56.4543C16.172 56.4543 16.7397 55.6343 17.4335 54.3097C17.4335 54.3097 20.9658 46.6143 21.0289 46.5512C21.092 46.4881 21.1551 46.2358 21.5335 46.2358C21.8489 46.2358 22.0382 46.4881 22.0382 46.8035V54.2466C22.0382 55.382 22.6689 56.3912 23.8674 56.3912C25.1289 56.3912 25.7597 55.4451 25.7597 54.2466V48.1912C25.7597 46.9927 26.6428 46.2358 27.7151 46.2358C28.8505 46.2358 29.6074 47.0558 29.6074 48.1912V54.3097C29.6074 55.4451 30.2382 56.4543 31.4367 56.4543C32.6982 56.4543 33.329 55.5082 33.329 54.3097V48.1912C33.329 46.9927 34.212 46.2358 35.2844 46.2358C36.4198 46.2358 37.1767 47.0558 37.1767 48.1912V54.3097C37.1767 55.4451 37.8075 56.4543 39.0059 56.4543C40.2675 56.4543 40.8982 55.5082 40.8982 54.3097V47.3712C40.8982 44.785 38.8798 43.0189 36.3567 43.0189C33.8336 43.0189 32.3197 44.722 32.3197 44.722C31.4367 43.6496 30.3643 43.0189 28.409 43.0189C26.3905 43.0189 24.5612 44.722 24.5612 44.722C23.7412 43.6496 22.2905 43.0189 21.2182 43.0189C19.452 43.0189 18.0012 43.8389 17.1181 45.7943L14.532 51.8497L11.4412 44.0912Z" fill="white"/>
</svg>
