<svg width="100" height="100" viewBox="0 0 100 100" fill="none" xmlns="http://www.w3.org/2000/svg">
<rect width="100" height="100" rx="24" fill="#FFDD06"/>
<path d="M73.5662 26.7672L73.5145 26.7413L73.3854 26.6897C73.4112 26.7413 73.4887 26.7672 73.5662 26.7672Z" fill="#010202"/>
<path d="M74.3409 32.8106L74.4442 32.7589L74.4701 32.7331L74.4959 32.7073C74.4442 32.7331 74.3926 32.7848 74.3409 32.8106Z" fill="#010202"/>
<path d="M73.7211 26.8963L73.6178 26.793L73.5403 26.7672C73.5919 26.8189 73.6436 26.8705 73.7211 26.8963Z" fill="#010202"/>
<path d="M49.5219 85.8834C49.4444 85.9092 49.367 85.9609 49.3153 86.0384L49.367 85.9867C49.4444 85.9351 49.4961 85.9092 49.5219 85.8834Z" fill="#010202"/>
<path d="M63.5973 83.0943C63.5973 83.0168 63.5456 83.0168 63.5714 83.3267C63.5714 83.3009 63.5714 83.2751 63.5973 83.2493C63.5714 83.2234 63.5714 83.1718 63.5973 83.0943Z" fill="#010202"/>
<path d="M62.1251 85.8834C62.0476 85.9092 61.9701 85.9609 61.9185 86.0384L61.9701 85.9867C62.0476 85.9351 62.0992 85.9092 62.1251 85.8834Z" fill="#010202"/>
<path d="M39.6304 86.5291C39.5788 86.4774 39.5013 86.4516 39.4238 86.4258C39.4755 86.4516 39.553 86.4774 39.5788 86.5033L39.6304 86.5291Z" fill="#010202"/>
<path d="M37.4353 84.4113C37.4353 84.3339 37.4094 84.2306 37.3578 84.1531C37.3836 84.2306 37.4094 84.308 37.4353 84.4113Z" fill="#010202"/>
<path d="M52.3628 46.266C49.3153 47.5831 45.8288 49.0552 41.335 49.0552C39.4497 49.0552 37.5902 48.7969 35.7823 48.2804L38.8815 80.2016C38.9848 81.5446 39.6046 82.7843 40.586 83.6882C41.5674 84.5921 42.8587 85.1086 44.2017 85.1086C44.2017 85.1086 48.618 85.3411 50.0901 85.3411C51.6655 85.3411 56.4175 85.1086 56.4175 85.1086C57.7605 85.1086 59.0518 84.6179 60.0332 83.6882C61.0146 82.7843 61.6344 81.5446 61.7377 80.2016L65.0693 44.9488C63.5714 44.4323 62.0735 44.0966 60.3948 44.0966C57.4506 44.0966 55.1004 45.1038 52.3628 46.266Z" fill="white"/>
<path d="M26.1492 32.6814L26.2008 32.733L26.2266 32.7589C26.2266 32.7072 26.2008 32.6814 26.1492 32.6814Z" fill="#010202"/>
<path d="M79.4287 29.7114L78.9638 27.3612C78.5506 25.2435 77.595 23.229 75.4256 22.4801C74.7283 22.2476 73.9277 22.1185 73.4112 21.6278C72.8688 21.1113 72.7139 20.3365 72.5848 19.6134C72.3523 18.2704 72.1457 16.9274 71.9133 15.5845C71.7067 14.4223 71.5517 13.131 71.0352 12.0979C70.3379 10.6775 68.9174 9.85103 67.497 9.30868C66.7739 9.05042 66.0249 8.81798 65.2759 8.61137C61.7377 7.68163 58.0188 7.34589 54.3773 7.13928C50.0126 6.90684 45.6222 6.95849 41.2575 7.34589C38.0034 7.62998 34.5944 7.99154 31.521 9.1279C30.3847 9.54112 29.2225 10.0318 28.3702 10.9099C27.3114 11.9688 26.9756 13.6475 27.7504 14.9646C28.2928 15.9202 29.2225 16.5917 30.2039 17.0307C31.4694 17.5989 32.8124 18.038 34.1811 18.322C38.0034 19.1743 41.929 19.4842 45.8288 19.6392C50.1418 19.82 54.4547 19.665 58.7677 19.226C59.8266 19.0968 60.8855 18.9677 61.9443 18.8127C63.184 18.632 63.9846 16.9791 63.6231 15.8685C63.184 14.4998 61.996 13.9832 60.6789 14.1898C60.4723 14.2157 60.2915 14.2415 60.0849 14.2673L59.9557 14.2931C59.4909 14.3448 59.0518 14.3965 58.5869 14.4481C57.6572 14.5514 56.7274 14.6289 55.7719 14.7064C53.68 14.8613 51.5622 14.913 49.4444 14.913C47.3783 14.913 45.3123 14.8613 43.2462 14.7064C42.2906 14.6547 41.3608 14.5772 40.4311 14.4739C39.992 14.4223 39.5788 14.3706 39.1656 14.319L38.7524 14.2673H38.6749L38.2617 14.2157C37.4094 14.0865 36.5572 13.9316 35.7049 13.7508C35.6274 13.725 35.5499 13.6733 35.4983 13.6217C35.4466 13.57 35.4208 13.4667 35.4208 13.3892C35.4208 13.3117 35.4466 13.2084 35.4983 13.1568C35.5499 13.1051 35.6274 13.0535 35.7049 13.0277H35.7307C36.4538 12.8727 37.2028 12.7436 37.9518 12.6144C38.21 12.5628 38.4425 12.537 38.7007 12.5111C39.1656 12.4853 39.6305 12.4078 40.0953 12.3304C44.1242 11.9171 48.179 11.7622 52.2337 11.8913C54.1965 11.943 56.1593 12.0721 58.1221 12.2529C58.5353 12.3045 58.9743 12.3304 59.3876 12.382C59.5425 12.4078 59.6975 12.4337 59.8782 12.4337L60.214 12.4853C61.1696 12.6144 62.0993 12.7952 63.0549 13.0018C64.4495 13.3117 66.2315 13.4151 66.8513 14.913C67.0579 15.4037 67.1354 15.9202 67.2387 16.4367L67.3679 17.0824V17.1082C67.7036 18.632 68.0135 20.1557 68.3493 21.6795C68.3751 21.7828 68.3751 21.9119 68.3493 22.0152C68.3234 22.1185 68.2718 22.2476 68.2201 22.3251C68.1426 22.4284 68.0652 22.5059 67.9619 22.5575C67.8586 22.6092 67.7553 22.6608 67.6519 22.6608L67.4453 22.6867L67.2387 22.7125C66.6189 22.79 65.9732 22.8675 65.3534 22.9449C64.1137 23.0741 62.8741 23.2032 61.6344 23.3065C59.1551 23.5131 56.7016 23.6422 54.2223 23.7197C52.9568 23.7456 51.6913 23.7714 50.4258 23.7714C45.3897 23.7714 40.3794 23.4873 35.395 22.8933C34.8526 22.8416 34.3103 22.7642 33.7679 22.6867C34.1811 22.7383 33.458 22.635 33.3289 22.635C32.9931 22.5834 32.6316 22.5317 32.2958 22.4801C31.1336 22.2993 29.9973 22.0927 28.8351 21.9119C27.4405 21.6795 26.1234 21.8086 24.8579 22.4801C23.8248 23.0482 22.9984 23.9005 22.456 24.9594C21.9137 26.0699 21.7587 27.3096 21.5005 28.4976C21.268 29.7114 20.8806 31.0027 21.0356 32.2424C21.3455 34.9025 23.205 37.0719 25.8909 37.5626C28.4219 38.0275 30.9529 38.389 33.5097 38.6989C43.5044 39.9128 53.6283 40.0677 63.6489 39.138C64.4753 39.0605 65.2759 38.983 66.1024 38.8797C66.3606 38.8539 66.6189 38.8797 66.8513 38.9572C67.0838 39.0347 67.3162 39.1896 67.497 39.3704C67.6778 39.5512 67.8069 39.7578 67.9102 40.0161C67.9877 40.2485 68.0393 40.5068 68.0135 40.765L67.7552 43.2444C67.2387 48.2288 66.7222 53.2133 66.2315 58.2236C65.6892 63.4663 65.1726 68.709 64.6303 73.9518C64.4753 75.4239 64.3204 76.896 64.1654 78.368C64.0104 79.8143 64.0104 81.3122 63.7264 82.7585C63.2873 85.0054 61.7636 86.4 59.5425 86.9165C57.5022 87.3814 55.4103 87.6138 53.3184 87.6397C50.994 87.6397 48.6697 87.5622 46.3453 87.5622C43.866 87.588 40.8185 87.3556 38.9073 85.4961C37.2286 83.869 36.9962 81.3381 36.7638 79.1428C36.4538 76.2503 36.1439 73.3319 35.8598 70.4394L34.1811 54.298L33.0964 43.8384C33.0706 43.6576 33.0706 43.5026 33.0448 43.3218C32.9157 42.0822 32.0376 40.8683 30.6429 40.92C29.4549 40.9717 28.112 41.9789 28.2411 43.3218L29.0417 51.0697L30.7204 67.082C31.1853 71.6274 31.676 76.1728 32.1409 80.7441C32.2442 81.6221 32.3217 82.5002 32.425 83.3525C32.9415 88.1304 36.583 90.6872 41.1026 91.4103C43.7368 91.8235 46.4228 91.9268 49.1087 91.9527C52.5436 92.0043 56.0043 92.1334 59.3617 91.5136C64.3462 90.6097 68.091 87.2781 68.6333 82.087C68.7883 80.5891 68.9433 79.0912 69.0982 77.6191C69.6147 72.6863 70.1054 67.7535 70.622 62.7948L72.2748 46.6534L73.0238 39.2671C73.0496 38.9056 73.2046 38.544 73.4628 38.2857C73.7211 38.0275 74.031 37.8209 74.3926 37.7692C75.813 37.4851 77.1818 37.0202 78.189 35.9355C79.687 34.231 79.9969 31.9841 79.4287 29.7114ZM25.7618 31.3126C25.7876 31.3126 25.736 31.4934 25.736 31.5709C25.7101 31.4418 25.7101 31.3126 25.7618 31.3126ZM25.8909 32.3715C25.8909 32.3715 25.9426 32.3973 25.9684 32.4748C25.9167 32.4232 25.8909 32.3715 25.8909 32.3715ZM26.02 32.5523C26.0717 32.6556 26.0975 32.7073 26.02 32.5523V32.5523ZM74.186 32.449C73.6695 32.9397 72.8947 33.1721 72.1457 33.2754C63.5972 34.5409 54.8938 35.1866 46.242 34.9025C40.0437 34.6959 33.9229 33.9986 27.7762 33.1463C27.1822 33.0688 26.5366 32.9397 26.1234 32.5006C25.3486 31.6742 25.736 29.9955 25.9426 28.9625C26.1234 28.0327 26.4849 26.793 27.5955 26.6639C29.3 26.4573 31.3144 27.1804 32.9931 27.4387C35.0334 27.7486 37.0995 28.0069 39.1398 28.1877C47.9207 28.9883 56.8824 28.8591 65.6117 27.697C67.2129 27.4904 68.7883 27.2321 70.3895 26.948C71.81 26.6897 73.3595 26.2249 74.2118 27.6711C74.8058 28.6784 74.8833 29.9955 74.78 31.1319C74.78 31.6484 74.5475 32.1133 74.186 32.449Z" fill="#010202"/>
</svg>
