<svg width="100" height="100" viewBox="0 0 100 100" fill="none" xmlns="http://www.w3.org/2000/svg">
<rect width="100" height="100" rx="24" fill="#D33C44"/>
<path fill-rule="evenodd" clip-rule="evenodd" d="M25 42.4146C25 46.7224 36.1902 50.219 49.996 50.219V58.0201C36.1902 58.0201 25 54.5268 25 50.219V42.4146ZM75 42.4146V50.2174C75 52.0566 72.9552 53.744 69.5504 55.0787L49.9945 50.2174V42.4146L69.5504 47.2743C72.9552 45.9412 75.0016 44.2538 75 42.4146ZM49.996 19C63.8035 19 75 22.4997 75 26.8043V34.6134C75 36.4463 72.9552 38.14 69.552 39.4684L49.996 34.6134V42.4146C36.1902 42.4146 25 38.9197 25 34.6134V26.8043C25 22.4997 36.1902 19 49.996 19Z" fill="white"/>
<path fill-rule="evenodd" clip-rule="evenodd" d="M14.8588 66.8347C17.3393 66.8347 18.8259 67.6632 20.0466 68.8649L18.205 70.9883C17.1899 70.0675 16.1558 69.5038 14.8408 69.5038C12.622 69.5038 11.0262 71.3454 11.0262 73.6002V73.6394C11.0262 75.8942 12.5849 77.7739 14.8408 77.7739C16.3443 77.7739 17.2641 77.1731 18.2973 76.2322L20.1388 78.0919C18.7877 79.5403 17.2842 80.443 14.7475 80.443C10.8747 80.443 8 77.4539 8 73.6755V73.6394C8 69.9 10.8186 66.8347 14.8588 66.8347ZM48.4207 69.9542C51.7849 69.9542 53.3266 72.5671 53.3266 75.4248V75.4619C53.3266 75.7437 53.3085 75.9133 53.2895 76.1771H46.2792C46.56 77.473 47.4628 78.149 48.7417 78.149C49.7006 78.149 50.3947 77.8471 51.1841 77.1149L52.821 78.5633C51.8792 79.7288 50.5261 80.443 48.7035 80.443C45.6774 80.443 43.4386 78.3196 43.4386 75.2372V75.1981C43.4386 72.3224 45.4888 69.9542 48.4207 69.9542ZM26.3226 70.0294C29.4431 70.0294 30.8163 71.6453 30.8163 74.3726V80.2163H28.0509V79.127C27.3568 79.8974 26.3988 80.4049 25.0066 80.4049C23.1099 80.4049 21.5491 79.3146 21.5491 77.3225V77.2834C21.5491 75.0837 23.2212 74.0687 25.6074 74.0687C26.6235 74.0687 27.3568 74.2382 28.0719 74.4819V74.3144C28.0719 73.1318 27.3387 72.4728 25.9094 72.4728C24.8201 72.4728 24.0497 72.6804 23.1289 73.0175L22.4137 70.8379C23.5231 70.3474 24.6134 70.0294 26.3226 70.0294ZM36.1324 66.4947V73.8089L39.4795 70.1427H42.8989L39.0653 74.1068L43.0303 80.2163H39.7614L37.1294 76.1008L36.1324 77.153V80.2163H33.2777V66.4947H36.1324ZM61.1273 67.0594C64.2648 67.0594 66.1635 68.92 66.1635 71.6102V71.6463C66.1625 74.6905 63.7943 76.2693 60.8434 76.2693H58.6467V80.2163H55.7519V67.0594H61.1273ZM71.1988 67.0594V72.2662H76.537V67.0594H79.4308V80.2163H76.537V74.9323H71.1988V80.2163H68.305V67.0594H71.1988ZM87.9627 67.0594C91.1002 67.0594 93 68.92 93 71.6102V71.6463C93.001 74.6905 90.6328 76.2693 87.6829 76.2693H85.4822V80.2163H82.5874V67.0594H87.9627ZM26.2865 75.7809C25.0648 75.7809 24.3115 76.2693 24.3115 77.1721V77.2092C24.3115 77.9785 24.9515 78.4299 25.8712 78.4299C27.2053 78.4299 28.109 77.6997 28.109 76.6635V76.157C27.6216 75.9293 26.9806 75.7809 26.2865 75.7809ZM48.4217 72.2481C47.2381 72.2481 46.4657 73.0937 46.2411 74.3896H50.5461C50.3756 73.1108 49.6243 72.2481 48.4217 72.2481ZM60.8815 69.6733H58.6457V73.6975H60.9387C62.3851 73.6975 63.2306 72.8299 63.2306 71.7045V71.6644C63.2306 70.3684 62.3299 69.6733 60.8815 69.6733ZM87.719 69.6733H85.4822V73.6975H87.7741C89.2225 73.6975 90.0681 72.8299 90.0681 71.7045V71.6644C90.0681 70.3684 89.1664 69.6733 87.719 69.6733Z" fill="white"/>
</svg>
