<svg width="100" height="100" viewBox="0 0 100 100" fill="none" xmlns="http://www.w3.org/2000/svg">
<rect width="100" height="100" rx="24" fill="white"/>
<path d="M65.2596 63.0987C62.508 65.4912 59.0848 68.4679 52.8486 68.4679H49.1259C44.6199 68.4679 40.5214 66.8642 37.5893 63.9508C34.7261 61.1043 33.1447 57.2123 33.1447 52.9854V47.9864C33.1447 43.7594 34.7224 39.8637 37.5893 37.0209C40.5232 34.1075 44.6199 32.5038 49.1259 32.5038H52.8486C59.083 32.5038 62.508 35.4805 65.2596 37.873C68.1135 40.3548 70.5786 42.4981 77.146 42.4981C78.1655 42.4981 79.1664 42.4181 80.1394 42.2636C80.132 42.2432 80.1245 42.2264 80.1171 42.2078C79.7264 41.259 79.2669 40.3251 78.7366 39.4246L74.346 31.9643C70.3182 25.1179 62.8708 20.9021 54.8151 20.9021H46.032C37.9763 20.9021 30.529 25.1197 26.5011 31.9643L22.1105 39.4246C18.0826 46.271 18.0826 54.7025 22.1105 61.5471L26.5011 69.0075C30.529 75.8539 37.9763 80.0678 46.032 80.0678H54.8151C62.8708 80.0678 70.3182 75.8501 74.346 69.0075L78.7366 61.5471C79.2669 60.6448 79.7264 59.7146 80.1171 58.7657C80.1245 58.7453 80.132 58.7285 80.1394 58.7099C79.1664 58.5555 78.1692 58.4755 77.146 58.4755C70.5805 58.4736 68.1135 60.6169 65.2596 63.0987Z" fill="#3664AE"/>
<path d="M52.8506 37.0303H49.1279C42.2703 37.0303 37.7625 41.8358 37.7625 47.9864V52.9854C37.7625 59.136 42.2684 63.9415 49.1279 63.9415H52.8506C62.843 63.9415 62.0579 53.9472 77.1461 53.9472C78.5916 53.9472 80.0204 54.0775 81.4102 54.3305C81.8679 51.7891 81.8679 49.1882 81.4102 46.645C80.0186 46.898 78.5916 47.0283 77.1461 47.0283C62.0579 47.0264 62.843 37.0303 52.8506 37.0303Z" fill="#3664AE"/>
<path d="M90.076 57.9788C87.4993 56.1147 84.5431 54.8979 81.4082 54.3249C81.4026 54.3491 81.4008 54.3733 81.3952 54.3975C81.1273 55.8616 80.7087 57.3035 80.1357 58.7025C82.7812 59.123 85.2184 60.0979 87.3021 61.5955C87.2946 61.6178 87.2891 61.6402 87.2816 61.6643C86.0798 65.4913 84.2677 69.0987 81.8994 72.3805C79.5589 75.6213 76.7292 78.4753 73.4865 80.8585C66.7554 85.811 58.7388 88.4267 50.2998 88.4267C45.0757 88.4267 40.0098 87.424 35.2415 85.4463C30.6369 83.5357 26.4993 80.799 22.9421 77.3106C19.3868 73.8223 16.598 69.7647 14.6501 65.2457C12.6353 60.5685 11.612 55.5993 11.612 50.4738C11.612 45.3483 12.6353 40.3791 14.6501 35.7019C16.598 31.1848 19.3868 27.1253 22.9421 23.637C26.4974 20.1487 30.635 17.4138 35.2415 15.5013C40.0079 13.5236 45.0739 12.5209 50.2998 12.5209C58.7388 12.5209 66.7554 15.1366 73.4865 20.0891C76.7292 22.4742 79.5571 25.3263 81.8994 28.5671C84.2677 31.8508 86.0798 35.4582 87.2816 39.2833C87.2891 39.3075 87.2965 39.3298 87.3021 39.3521C85.2203 40.8479 82.7812 41.8265 80.1357 42.2451C80.7087 43.646 81.1292 45.0916 81.3952 46.5557C81.4008 46.5799 81.4026 46.6022 81.4082 46.6264C84.5431 46.0534 87.4974 44.8367 90.076 42.9725C92.5467 41.1791 92.0685 39.153 91.6927 37.9512C86.2472 20.61 69.7768 8 50.3017 8C26.3858 8 7 27.0174 7 50.4775C7 73.9377 26.3876 92.955 50.3017 92.955C69.7768 92.955 86.2472 80.3431 91.6927 62.9927C92.0704 61.7983 92.5504 59.7741 90.076 57.9788Z" fill="#3664AE"/>
<path d="M80.1394 42.2581C79.1664 42.4126 78.1692 42.4926 77.146 42.4926C70.5805 42.4926 68.1136 40.3493 65.2597 37.8675C62.5081 35.475 59.0849 32.4983 52.8487 32.4983H49.1259C44.62 32.4983 40.5214 34.102 37.5894 37.0154C34.7262 39.8619 33.1448 43.7539 33.1448 47.9809V52.9799C33.1448 57.2068 34.7224 61.1025 37.5894 63.9453C40.5233 66.8587 44.62 68.4624 49.1259 68.4624H52.8487C59.083 68.4624 62.5081 65.4839 65.2597 63.0932C68.1136 60.6114 70.5786 58.4681 77.146 58.4681C78.1655 58.4681 79.1664 58.5481 80.1394 58.7026C80.7125 57.3035 81.1292 55.8598 81.399 54.3975C81.4045 54.3733 81.4064 54.3491 81.412 54.3249C80.0204 54.0719 78.5934 53.9417 77.1479 53.9417C62.0597 53.9417 62.8448 63.936 52.8524 63.936H49.1297C42.2721 63.936 37.7642 59.1305 37.7642 52.9799V47.9809C37.7642 41.8302 42.2702 37.0247 49.1297 37.0247H52.8524C62.8448 37.0247 62.0616 47.019 77.1479 47.019C78.5934 47.019 80.0222 46.8888 81.412 46.6358C81.4064 46.6116 81.4045 46.5892 81.399 46.5651C81.1329 45.1046 80.7125 43.6609 80.1394 42.2581Z" fill="#5FC2D6"/>
<path d="M80.1394 42.2581C79.1664 42.4126 78.1692 42.4926 77.146 42.4926C70.5805 42.4926 68.1136 40.3493 65.2597 37.8675C62.5081 35.475 59.0849 32.4983 52.8487 32.4983H49.1259C44.62 32.4983 40.5214 34.102 37.5894 37.0154C34.7262 39.8619 33.1448 43.7539 33.1448 47.9809V52.9799C33.1448 57.2068 34.7224 61.1025 37.5894 63.9453C40.5233 66.8587 44.62 68.4624 49.1259 68.4624H52.8487C59.083 68.4624 62.5081 65.4839 65.2597 63.0932C68.1136 60.6114 70.5786 58.4681 77.146 58.4681C78.1655 58.4681 79.1664 58.5481 80.1394 58.7026C80.7125 57.3035 81.1292 55.8598 81.399 54.3975C81.4045 54.3733 81.4064 54.3491 81.412 54.3249C80.0204 54.0719 78.5934 53.9417 77.1479 53.9417C62.0597 53.9417 62.8448 63.936 52.8524 63.936H49.1297C42.2721 63.936 37.7642 59.1305 37.7642 52.9799V47.9809C37.7642 41.8302 42.2702 37.0247 49.1297 37.0247H52.8524C62.8448 37.0247 62.0616 47.019 77.1479 47.019C78.5934 47.019 80.0222 46.8888 81.412 46.6358C81.4064 46.6116 81.4045 46.5892 81.399 46.5651C81.1329 45.1046 80.7125 43.6609 80.1394 42.2581Z" fill="#5FC2D6"/>
</svg>
