<svg width="100" height="100" viewBox="0 0 100 100" fill="none" xmlns="http://www.w3.org/2000/svg">
<rect width="100" height="100" rx="24" fill="#343434"/>
<path d="M49.2857 59.5785C54.852 59.5785 59.3643 55.0662 59.3643 49.5C59.3643 43.9337 54.852 39.4214 49.2857 39.4214C43.7195 39.4214 39.2072 43.9337 39.2072 49.5C39.2072 55.0662 43.7195 59.5785 49.2857 59.5785Z" fill="white"/>
<path d="M8.12143 38.8143C8.12143 38.9357 8 39.1786 8 39.3C8 40.3929 8.85 41.3643 10.0643 41.3643H27.1857C28.0357 41.3643 28.6429 40.8786 29.0071 40.15C32.5286 32.3786 40.3 27.1571 49.1643 27.1571C61.4286 27.1571 71.3857 37.1143 71.3857 49.3786C71.3857 61.6429 61.4286 71.6 49.1643 71.6C40.1786 71.6 32.5286 66.2571 29.0071 58.7286C28.6429 57.8786 28.0357 57.3929 27.1857 57.3929H10.0643C8.97143 57.3929 8 58.2429 8 59.4571C8 59.5786 8 59.8214 8.12143 59.9429C12.8571 78.4 29.4929 92 49.2857 92C72.7214 92 91.7857 72.9357 91.7857 49.5C91.7857 26.0643 72.7214 7 49.2857 7C29.4929 7 12.8571 20.6 8.12143 38.8143Z" fill="white"/>
</svg>
