<svg width="100" height="100" viewBox="0 0 100 100" fill="none" xmlns="http://www.w3.org/2000/svg">
<rect width="100" height="100" rx="24" fill="#049FD9"/>
<g clip-path="url(#clip0_409_295)">
<path d="M48.9018 58.001C48.7908 57.9707 47.0833 57.5304 45.2688 57.5304C41.8334 57.5304 39.765 59.3854 39.765 62.1479C39.765 64.5933 41.4953 65.8128 43.5719 66.4688C43.8021 66.5447 44.1414 66.651 44.3672 66.7257C45.2916 67.0166 46.0295 67.4486 46.0295 68.1971C46.0295 69.0341 45.1767 69.576 43.3228 69.576C41.6937 69.576 40.1318 69.1101 39.8028 69.027V72.4259C39.9862 72.4648 41.8424 72.8292 43.8254 72.8292C46.6776 72.8292 49.9402 71.5829 49.9402 67.8728C49.9402 66.0733 48.8384 64.4166 46.4194 63.6476L45.3912 63.3202C44.7777 63.1266 43.6825 62.813 43.6825 61.9138C43.6825 61.2035 44.4939 60.7033 45.9881 60.7033C47.2773 60.7033 48.8463 61.1366 48.9018 61.1539V58.001ZM80.3994 65.18C80.3994 67.329 78.7533 69.0676 76.5445 69.0676C74.3333 69.0676 72.6915 67.329 72.6915 65.18C72.6915 63.0353 74.3333 61.296 76.5445 61.296C78.7533 61.296 80.3994 63.0353 80.3994 65.18ZM76.5445 57.5351C72.0017 57.5351 68.7437 60.9615 68.7437 65.18C68.7437 69.4052 72.0017 72.8292 76.5445 72.8292C81.0868 72.8292 84.3495 69.4052 84.3495 65.18C84.3495 60.9615 81.0868 57.5351 76.5445 57.5351ZM34.767 72.5663H31.0396V57.7968H34.767" fill="white"/>
<path d="M25.9165 58.0644C25.5663 57.9606 24.2716 57.5352 22.5181 57.5352C17.9824 57.5352 14.6528 60.7691 14.6528 65.18C14.6528 69.9389 18.3283 72.8293 22.5181 72.8293C24.1827 72.8293 25.4533 72.4349 25.9165 72.3035V68.3388C25.7564 68.4277 24.538 69.1227 22.7853 69.1227C20.3022 69.1227 18.7006 67.3751 18.7006 65.18C18.7006 62.9181 20.3714 61.2405 22.7853 61.2405C24.5679 61.2405 25.7666 61.9508 25.9165 62.0291" fill="white"/>
<path d="M64.8196 58.0644C64.4694 57.9606 63.1747 57.5352 61.4212 57.5352C56.8855 57.5352 53.5559 60.7691 53.5559 65.18C53.5559 69.9389 57.2314 72.8293 61.4212 72.8293C63.0857 72.8293 64.3564 72.4349 64.8196 72.3035V68.3388C64.6594 68.4277 63.4411 69.1227 61.6884 69.1227C59.2053 69.1227 57.6036 67.3751 57.6036 65.18C57.6036 62.9181 59.2745 61.2405 61.6884 61.2405C63.471 61.2405 64.6697 61.9508 64.8196 62.0291" fill="white"/>
<path d="M31.0286 29.8728C31.0286 28.8548 30.1971 28.0292 29.1779 28.0292C28.1591 28.0292 27.3276 28.8548 27.3276 29.8728V49.4858C27.3276 50.5097 28.1591 51.3349 29.1779 51.3349C30.1971 51.3349 31.0286 50.5097 31.0286 49.4858V29.8728ZM20.8644 36.8349C20.8644 35.8173 20.0333 34.9905 19.0141 34.9905C17.9949 34.9905 17.1638 35.8173 17.1638 36.8349V45.8013C17.1638 46.8248 17.9949 47.6504 19.0141 47.6504C20.0333 47.6504 20.8644 46.8248 20.8644 45.8013V36.8349ZM10.7006 41.9239C10.7006 40.9059 9.86954 40.0807 8.85032 40.0807C7.83229 40.0807 7 40.9059 7 41.9239V45.8013C7 46.8248 7.83229 47.6504 8.85032 47.6504C9.86954 47.6504 10.7006 46.8248 10.7006 45.8013" fill="white"/>
<path d="M27.3276 29.8728C27.3276 28.8548 28.1591 28.0292 29.1783 28.0292C30.1971 28.0292 31.0286 28.8548 31.0286 29.8728V49.4858C31.0286 50.5097 30.1971 51.3349 29.1783 51.3349C28.1591 51.3349 27.3276 50.5097 27.3276 49.4858V29.8728ZM37.4918 36.8349C37.4918 35.8173 38.3229 34.9905 39.3421 34.9905C40.3613 34.9905 41.1924 35.8173 41.1924 36.8349V45.8013C41.1924 46.8248 40.3613 47.6504 39.3421 47.6504C38.3229 47.6504 37.4918 46.8248 37.4918 45.8013V36.8349ZM47.6556 41.9239C47.6556 40.9059 48.4867 40.0807 49.5059 40.0807C50.5239 40.0807 51.3562 40.9059 51.3562 41.9239V45.8013C51.3562 46.8248 50.5239 47.6504 49.5059 47.6504C48.4867 47.6504 47.6556 46.8248 47.6556 45.8013" fill="white"/>
<path d="M67.9714 29.8728C67.9714 28.8548 68.8029 28.0292 69.8221 28.0292C70.8409 28.0292 71.6724 28.8548 71.6724 29.8728V49.4858C71.6724 50.5097 70.8409 51.3349 69.8221 51.3349C68.8029 51.3349 67.9714 50.5097 67.9714 49.4858V29.8728ZM78.1356 36.8349C78.1356 35.8173 78.9667 34.9905 79.9859 34.9905C81.0051 34.9905 81.8362 35.8173 81.8362 36.8349V45.8013C81.8362 46.8248 81.0051 47.6504 79.9859 47.6504C78.9667 47.6504 78.1356 46.8248 78.1356 45.8013V36.8349ZM88.2994 41.9239C88.2994 40.9059 89.1305 40.0807 90.1497 40.0807C91.1677 40.0807 92 40.9059 92 41.9239V45.8013C92 46.8248 91.1677 47.6504 90.1497 47.6504C89.1305 47.6504 88.2994 46.8248 88.2994 45.8013" fill="white"/>
<path d="M71.6724 29.8728C71.6724 28.8548 70.8409 28.0292 69.8217 28.0292C68.8029 28.0292 67.9714 28.8548 67.9714 29.8728V49.4858C67.9714 50.5097 68.8029 51.3349 69.8217 51.3349C70.8409 51.3349 71.6724 50.5097 71.6724 49.4858V29.8728ZM61.5082 36.8349C61.5082 35.8173 60.6771 34.9905 59.6579 34.9905C58.6387 34.9905 57.8076 35.8173 57.8076 36.8349V45.8013C57.8076 46.8248 58.6387 47.6504 59.6579 47.6504C60.6771 47.6504 61.5082 46.8248 61.5082 45.8013V36.8349ZM51.3444 41.9239C51.3444 40.9059 50.5133 40.0807 49.4941 40.0807C48.4761 40.0807 47.6438 40.9059 47.6438 41.9239V45.8013C47.6438 46.8248 48.4761 47.6504 49.4941 47.6504C50.5133 47.6504 51.3444 46.8248 51.3444 45.8013" fill="white"/>
</g>
<defs>
<clipPath id="clip0_409_295">
<rect width="85" height="44.8611" fill="white" transform="translate(7 28)"/>
</clipPath>
</defs>
</svg>
