<svg width="100" height="100" viewBox="0 0 100 100" fill="none" xmlns="http://www.w3.org/2000/svg">
<rect width="100" height="100" rx="24" fill="white"/>
<g clip-path="url(#clip0_296_471)">
<path d="M49.4997 7C26.0662 7 7 26.0662 7 49.5003C7 72.9364 26.0662 92.0017 49.4997 92.0017C72.9338 92.0017 92 72.9364 92 49.5003C92 26.0662 72.9338 7 49.4997 7Z" fill="white"/>
<path d="M47.9453 50.2647C47.5635 51.0921 47.1422 52.0218 46.7059 53.0112C45.1636 56.5055 43.4556 60.7575 42.8317 63.4815C42.6076 64.4517 42.4688 65.654 42.4715 66.9871C42.4715 67.5144 42.4997 68.0685 42.5445 68.633C44.725 69.4342 47.0801 69.8748 49.5394 69.8791C51.7783 69.8748 53.9292 69.5049 55.9423 68.8355C55.4692 68.4029 55.0176 67.9417 54.6066 67.4221C51.8773 63.9417 50.3546 58.841 47.9453 50.2647Z" fill="#91DC47"/>
<path d="M37.8689 32.9731C32.6563 36.6467 29.2454 42.7056 29.2324 49.572C29.2454 56.3359 32.5537 62.3164 37.6351 66.0053C38.8816 60.8133 42.006 56.0593 46.6913 46.53C46.413 45.7656 46.096 44.9289 45.741 44.05C44.4431 40.7941 42.5698 37.013 40.898 35.3007C40.0457 34.4062 39.0114 33.6332 37.8689 32.9731Z" fill="#91DC47"/>
<path d="M67.2284 72.864C64.5389 72.527 62.3193 72.1203 60.3776 71.4353C57.1117 73.0569 53.4338 73.973 49.5394 73.973C36.0642 73.973 25.1407 63.0512 25.1391 49.572C25.1391 42.2584 28.3611 35.7021 33.4585 31.2306C32.0951 30.9013 30.6734 30.709 29.2211 30.7117C22.0618 30.7791 14.5045 34.7412 11.3581 45.4416C11.0639 46.9991 11.134 48.1769 11.134 49.5727C11.134 70.7845 28.3302 87.9808 49.5404 87.9808C62.5301 87.9808 74.0051 81.5264 80.9542 71.6551C77.1956 72.5918 73.5811 73.0397 70.4859 73.0493C69.3258 73.0493 68.2367 72.9872 67.2284 72.864Z" fill="#63B132"/>
<path d="M60.0115 65.4219C60.2486 65.5394 60.7861 65.7313 61.5342 65.9435C66.5668 62.249 69.8373 56.298 69.8503 49.5721H69.8483C69.8293 38.359 60.7553 29.2863 49.5396 29.264C47.3103 29.2683 45.1687 29.6362 43.1636 30.3006C47.2871 35.0009 49.27 41.7179 51.1881 49.0654C51.1891 49.0687 51.1908 49.0714 51.1914 49.074C51.1951 49.08 51.805 51.1143 52.8522 53.8134C53.8922 56.5088 55.3737 59.8458 56.9894 62.2776C58.0502 63.9072 59.217 65.0782 60.0115 65.4219Z" fill="#90B4FE"/>
<path d="M49.5405 11.164C36.6763 11.164 25.2969 17.4968 18.3269 27.2071C21.9543 24.9353 25.6582 24.1159 28.8905 24.1451C33.355 24.158 36.8649 25.5423 38.5489 26.4892C38.9557 26.7236 39.3418 26.976 39.72 27.2353C42.7249 25.9118 46.0452 25.1717 49.5395 25.1717C63.0163 25.1734 73.9415 36.0952 73.9435 49.572H73.9415C73.9415 56.3667 71.1624 62.5103 66.6823 66.9343C67.782 67.0575 68.9547 67.1342 70.1523 67.1282C74.406 67.1302 79.0036 66.1915 82.4504 63.2926C84.698 61.3993 86.5809 58.6272 87.6251 54.4708C87.8293 52.8655 87.9469 51.2335 87.9469 49.5727C87.9469 28.3619 70.7523 11.164 49.5405 11.164Z" fill="#5881D8"/>
</g>
<defs>
<clipPath id="clip0_296_471">
<rect width="85" height="85" fill="white" transform="translate(7 7)"/>
</clipPath>
</defs>
</svg>
