<svg width="100" height="100" viewBox="0 0 100 100" fill="none" xmlns="http://www.w3.org/2000/svg">
<rect width="100" height="100" rx="24" fill="#F48120"/>
<path d="M84.0649 49.6912L74.1902 47.3988L72.4269 46.6935L27.1091 47.0462V68.9115L84.0649 69.0879V49.6912Z" fill="#F48120"/>
<path d="M65.5499 66.9721C65.8336 66.2211 65.9336 65.4131 65.8416 64.6156C65.7496 63.8181 65.4682 63.0541 65.0209 62.3874C64.5615 61.8366 63.9979 61.3817 63.3625 61.0489C62.7271 60.7161 62.0324 60.5118 61.3179 60.4478L30.6358 60.0951C30.4595 60.0951 30.2832 59.9188 30.1068 59.9188C30.0658 59.888 30.0324 59.848 30.0095 59.8021C29.9865 59.7562 29.9746 59.7056 29.9746 59.6543C29.9746 59.6029 29.9865 59.5523 30.0095 59.5064C30.0324 59.4605 30.0658 59.4206 30.1068 59.3898C30.2832 59.0371 30.4595 58.8608 30.8122 58.8608L61.6706 58.5081C63.6296 58.2907 65.4954 57.5553 67.076 56.3776C68.6566 55.1999 69.8949 53.6224 70.6636 51.8074L72.4269 47.2227C72.4269 47.0464 72.6033 46.8701 72.4269 46.6937C71.4683 42.4237 69.1419 38.5833 65.8013 35.7561C62.4607 32.9289 58.2885 31.2696 53.9187 31.0301C49.5489 30.7907 45.2204 31.9843 41.5909 34.4295C37.9614 36.8747 35.2293 40.438 33.8098 44.5777C31.9671 43.2616 29.7194 42.6373 27.4618 42.8144C25.39 43.0454 23.4584 43.9742 21.9844 45.4483C20.5103 46.9223 19.5815 48.8539 19.3505 50.9257C19.2331 51.9862 19.2927 53.0588 19.5268 54.0997C16.1746 54.1924 12.9908 55.5893 10.6527 57.9933C8.31459 60.3973 7.00666 63.6186 7.00712 66.9721C6.97819 67.6237 7.0375 68.2761 7.18345 68.9118C7.19155 69.0494 7.24989 69.1793 7.3474 69.2768C7.4449 69.3744 7.5748 69.4327 7.71246 69.4408H64.3156C64.6683 69.4408 65.0209 69.2644 65.0209 68.9118L65.5499 66.9721Z" fill="white"/>
<path d="M75.2483 47.2227H74.3666C74.1903 47.2227 74.0139 47.399 73.8376 47.5753L72.6033 51.8073C72.3196 52.5584 72.2196 53.3663 72.3116 54.1638C72.4036 54.9614 72.685 55.7253 73.1323 56.392C73.5917 56.9429 74.1552 57.3977 74.7906 57.7305C75.4261 58.0634 76.1208 58.2676 76.8353 58.3317L83.3596 58.6843C83.536 58.6843 83.7123 58.8607 83.8886 58.8607C83.9297 58.8915 83.963 58.9314 83.986 58.9773C84.0089 59.0232 84.0209 59.0739 84.0209 59.1252C84.0209 59.1765 84.0089 59.2271 83.986 59.273C83.963 59.319 83.9297 59.3589 83.8886 59.3897C83.7123 59.7424 83.536 59.9187 83.1833 59.9187L76.4826 60.2714C74.5236 60.4888 72.6578 61.2241 71.0772 62.4018C69.4966 63.5795 68.2583 65.157 67.4896 66.972L67.1369 68.559C66.9606 68.7354 67.1369 69.088 67.4896 69.088H90.7656C90.8375 69.0983 90.9108 69.0917 90.9796 69.0687C91.0485 69.0458 91.1111 69.0071 91.1624 68.9558C91.2137 68.9045 91.2524 68.8419 91.2753 68.773C91.2983 68.7042 91.3049 68.6309 91.2947 68.559C91.7145 67.065 91.9513 65.5255 92 63.9744C91.972 59.5402 90.1982 55.2955 87.0626 52.16C83.9271 49.0245 79.6825 47.2506 75.2483 47.2227Z" fill="white"/>
</svg>
