<svg width="100" height="100" viewBox="0 0 100 100" fill="none" xmlns="http://www.w3.org/2000/svg">
<rect width="100" height="100" rx="24" fill="white"/>
<g clip-path="url(#clip0_415_551)">
<path d="M28.6051 43.1307C29.7295 46.8588 31.0906 50.3557 32.57 53.7288C35.1146 59.7702 36.8307 62.9658 39.2032 66.9307C42.1029 71.6649 45.3038 77.0554 50.5706 80.5468C54.4171 83.0914 59.0975 84.3933 63.595 84.3933C69.9323 84.3933 75.3766 81.612 78.8735 78.3519C82.3058 75.1563 86.7494 68.9965 86.7494 56.9781C86.7494 52.8357 88.5839 49.2797 89.945 46.4392C89.945 46.3801 90.0042 46.2617 90.1225 46.025C90.6551 44.8414 91.3061 43.3028 91.3061 41.7642C91.3061 40.6399 91.0102 39.338 90.2409 38.2136C89.0573 36.2016 86.9269 35.4914 84.9687 35.4914C80.4121 35.4914 77.2703 38.687 75.6725 41.9471L75.1399 43.0123C74.489 42.0655 73.838 41.0595 73.3054 40.1718C71.6485 37.2721 70.7016 35.3193 69.8732 32.8285C69.2222 30.8756 68.6896 28.6269 68.3345 26.787C67.3285 20.9823 65.6716 19.0886 62.944 18.3785C60.932 17.8459 58.5649 18.2601 56.8434 19.3845C55.6652 16.7215 53.6532 15.538 50.9849 15.538C47.1975 15.538 43.7599 18.0234 43.7599 22.2304C43.7599 22.763 43.819 23.2956 43.8782 23.9465C43.4048 23.8282 42.8722 23.769 42.3396 23.769C38.2564 23.769 35.233 26.6095 35.233 30.4614C35.233 31.349 35.3513 32.3551 35.6472 33.5386C35.2921 33.4794 34.9371 33.4794 34.582 33.4794C32.57 33.5978 30.7355 34.3671 29.4282 35.9649C28.1317 37.5035 27.5991 39.8706 28.6051 43.1307Z" fill="#1F1F1A"/>
<path d="M31.9782 42.0655C31.4456 40.3494 31.5047 39.0475 32.1557 38.219C32.8066 37.4497 33.6943 37.0946 34.7595 37.0355C36.594 36.9763 37.3041 38.2782 38.3693 41.6513C39.0202 43.7817 40.3221 46.8643 41.0914 48.5804C42.0975 50.6516 43.5177 53.4329 44.1687 54.3851C44.7013 55.2136 45.1747 55.4503 45.7073 55.4503C46.6541 55.4503 47.3642 54.9177 47.3642 53.9709C47.3642 53.4383 46.8316 52.5507 46.5357 52.0181C46.0032 51.012 44.8788 49 44.1095 47.2839C43.281 45.3902 42.3342 43.0231 41.5649 40.8874C41.0914 39.6446 40.5588 37.8693 40.0263 36.094C39.1978 33.3719 38.7835 31.7149 38.7835 30.4668C38.7835 28.5731 40.2038 27.3304 42.3342 27.3304C43.8728 27.3304 44.8788 28.0997 45.5297 30.881C46.0623 33.4257 47.0092 37.5734 48.3702 40.8282C49.2579 42.9586 50.5598 45.8045 51.3291 47.2247C51.8025 48.0532 52.3351 48.7633 52.3351 49.0592C52.3351 49.4734 51.5658 50.1244 50.9149 51.012C50.5006 51.5446 50.3231 51.8997 50.3231 52.3139C50.3231 52.669 50.5598 53.0241 50.9149 53.4975C51.2699 53.9709 51.625 54.4443 52.0392 54.4443C52.3351 54.4443 52.5126 54.326 52.6902 54.0893C54.5247 51.7814 56.5367 50.1836 58.85 48.8763C61.5721 47.3377 64.3588 46.5684 66.5484 46.095C67.6136 45.8582 67.9095 45.6215 67.9095 45.0298C67.9095 44.3196 67.3769 43.9054 66.6668 43.8462C66.1342 43.787 65.6607 43.8462 64.8323 43.9054C64.2405 43.9646 63.9446 43.6687 63.5895 42.8994C62.5244 40.6507 60.4532 36.8579 59.2104 32.0054C58.6778 29.9342 58.2044 27.7446 57.9085 24.8988C57.731 23.5969 57.9677 23.1234 58.6187 22.5317C59.4471 21.8215 60.9266 21.5257 62.0509 21.8215C63.412 22.1766 64.1221 23.2418 64.8323 27.3896C65.1873 29.3424 65.7791 31.8279 66.4892 33.9636C67.3769 36.6858 68.5013 38.9399 70.2174 41.9579C71.1642 43.6149 72.3478 45.331 73.5905 46.9934C73.3538 47.7035 72.9395 48.1769 71.5785 49.3013C70.2174 50.4257 68.8563 51.6092 67.6136 53.7988C66.7259 55.3965 66.3117 57.1719 66.3117 58.3554C66.3117 59.4798 66.5484 59.7165 67.2585 59.7165C68.5013 59.7165 69.5073 59.4798 69.5664 58.9472C69.8623 56.8168 70.2174 55.4557 71.4009 53.8526C72.1111 52.9649 73.3538 51.8405 74.3598 50.9529C76.2535 49.4143 76.9044 48.5266 77.5554 46.337C77.8512 45.331 78.2063 44.3842 78.6797 43.4965C79.8041 41.4253 81.8161 39.0583 84.9579 39.0583C85.9639 39.0583 86.7924 39.3541 87.325 40.1826C87.6209 40.656 87.7392 41.307 87.7392 41.7804C87.7392 42.8456 86.9699 44.325 86.6149 45.0351C85.313 47.8165 83.1826 52.0826 83.1826 56.9943C83.1826 67.7108 79.3952 73.0421 76.431 75.7643C73.5313 78.4864 68.9693 80.8589 63.5842 80.8589C59.7376 80.8589 55.7674 79.7345 52.5126 77.6041C47.956 74.5861 45.1101 69.8465 42.2104 65.1124C39.9025 61.2658 38.3047 58.2424 35.8139 52.3839C34.4098 48.9893 33.1025 45.6753 31.9782 42.0655Z" fill="#FFE450"/>
<path d="M47.1975 22.2304C47.1975 19.9817 49.2687 19.094 50.9849 19.094C52.8193 19.094 53.4703 19.9817 53.9437 21.8753C54.358 23.4139 54.5355 24.8342 54.713 26.4911C54.9497 28.1481 55.7782 31.9408 56.0149 32.8877C56.9026 36.1424 58.6779 39.9943 60.8083 44.6101C59.5655 45.0244 57.9086 45.7345 56.7842 46.3263C55.364 47.0956 55.0681 47.0956 54.4763 45.9712C53.2336 43.6633 52.3459 41.9472 51.5766 39.9298C50.9257 38.2728 50.2747 36.3791 49.7421 34.1842C48.8545 30.456 48.7361 29.3908 48.026 27.6693C47.6118 25.8994 47.1975 23.7098 47.1975 22.2304Z" fill="#FFE450"/>
<path d="M26.0013 61.8683C24.7478 62.643 18.1038 66.1237 16.6029 66.6778C15.5323 67.0759 14.3703 66.9791 13.6871 64.9563C12.8478 62.4547 14.026 61.8629 15.7045 61.212C17.1893 60.6363 23.3491 58.4091 24.7801 58.0218C25.7861 57.7528 26.4855 58.0917 26.9697 59.3022C27.5023 60.631 27.1364 61.1636 26.0013 61.8683Z" fill="#1F1F1A"/>
<path d="M20.5247 47.768C18.7387 47.8165 11.32 47.4991 9.62536 47.3323C8.15131 47.187 7.55416 46.5361 7.71555 44.4003C7.88771 42.1086 8.78074 41.9687 10.2279 42.1086C11.9064 42.2699 19.6801 43.5342 20.9175 43.9161C22.1978 44.3142 22.3754 44.8953 22.2194 46.0142C22.0203 47.4668 21.364 47.7411 20.5247 47.768Z" fill="#1F1F1A"/>
<path d="M21.4446 32.7478C19.4003 32.1022 13.3319 28.4278 11.7503 27.481C10.3193 26.6202 10.1364 25.8456 11.1316 23.9573C12.0139 22.2895 12.993 21.999 14.4455 22.7522C16.1294 23.6291 22.074 28.2557 23.2091 29.1702C24.3066 30.0525 24.156 30.5098 23.5803 31.6449C23.0047 32.78 22.4667 33.0706 21.4446 32.7478Z" fill="#1F1F1A"/>
</g>
<defs>
<clipPath id="clip0_415_551">
<rect width="85" height="69.9367" fill="white" transform="translate(7 15)"/>
</clipPath>
</defs>
</svg>
