<svg width="100" height="100" viewBox="0 0 100 100" fill="none" xmlns="http://www.w3.org/2000/svg">
<rect width="100" height="100" rx="24" fill="white"/>
<path d="M70.1549 31.5487C74.4528 31.5487 78.6321 33.1197 81.8333 35.9948C83.8192 37.6843 86.9018 36.2912 86.9018 33.5346V16.3134C86.9018 12.9344 84.1452 10 80.5884 10H18.3134C14.7862 10 12 12.7566 12 16.3134V83.8348C12 87.2138 14.7566 90 18.3134 90H80.7366C84.1156 90 87.05 87.2434 87.05 83.6866V66.4654C87.05 63.857 83.9674 62.3157 81.9815 64.0052C78.7506 66.7618 74.7492 68.4513 70.3031 68.4513C60.166 68.4513 52.0148 60.1519 52.0148 49.9852C52.0148 39.8185 60.166 31.5487 70.1549 31.5487Z" fill="#EE5A29"/>
</svg>
