<svg width="100" height="100" viewBox="0 0 100 100" fill="none" xmlns="http://www.w3.org/2000/svg">
<rect width="100" height="100" rx="24" fill="#F05656"/>
<path d="M9.50289 50.1749L9.21685 50.0319C8.57325 49.6743 8.07267 49.138 7.71511 48.4586C7.21453 47.529 7 46.6708 7 45.7769L7.07151 45.3121C7.07151 44.597 7.25029 43.9534 7.57209 43.3456L7.85813 42.8092C8.00116 42.5232 8.21569 42.2729 8.39447 42.0226C8.609 41.7723 8.64476 41.4505 8.57325 41.1645L8.39447 40.5924C8.17993 39.8773 8.03691 39.1622 8.03691 38.4471L7.92965 38.018C7.92965 37.2314 8.14418 36.4447 8.64476 35.8726L9.00231 35.4078C9.2526 35.0503 9.64591 34.8357 10.075 34.6927C10.4325 34.5854 10.6828 34.2279 10.7186 33.7988L10.7901 32.5831C10.7901 31.6177 11.2549 30.7238 11.97 30.0802L12.8282 29.4366C13.0069 29.2579 13.1857 29.0791 13.3287 28.793C13.5075 28.5785 13.5433 28.2925 13.5075 28.0779C13.436 27.7204 13.5075 27.6131 13.6863 27.5773C14.2584 27.7919 14.6159 27.7204 14.8662 27.4343L15.3311 26.8265L16.6183 25.3963C16.9758 25.0387 17.1188 24.3951 16.9043 23.8945L16.4752 22.9649C16.4037 22.7503 16.4752 22.5001 16.654 22.4285C17.1188 22.4285 17.4406 22.6073 17.5837 22.8934L17.7267 23.1437C17.9412 23.5727 18.4418 23.7873 18.7993 23.6085C19.586 23.3224 20.2296 23.2509 20.8374 23.2509H21.9816C22.7682 23.2509 23.4118 22.7146 23.5548 21.8922C23.6979 20.8911 24.0554 20.1044 24.556 19.5681C25.0923 18.9602 25.7002 18.4954 26.4153 18.1379C27.3449 17.6373 27.917 16.9222 28.0958 15.9925C28.3461 14.8484 28.9539 14.026 29.7763 13.4896L32.4937 11.9522L33.2804 11.4873C33.7452 11.2013 34.1743 10.8437 34.5318 10.4147L35.2469 9.55653C35.6045 9.19897 35.962 8.94868 36.3911 8.84141C36.7487 8.73415 37.2492 8.66264 37.6783 8.69839L39.1085 8.80566C39.8236 8.80566 40.3957 8.98444 40.9678 9.23472L41.3254 9.4135C41.6829 9.55653 42.0405 9.48501 42.2193 9.23472L42.5411 9.05595L44.0786 7.44694C44.4361 7.08939 44.8652 6.94637 45.33 7.01788C45.7948 7.08939 46.2596 7.26817 46.6887 7.4827C47.3323 7.84026 47.8686 7.98328 48.4765 7.98328H48.834C49.6207 7.98328 50.4073 8.09055 51.1939 8.26932L51.7303 8.41235C52.2666 8.55537 52.8029 8.34083 53.1605 7.91177C53.2677 7.73299 53.518 7.69723 53.6611 7.84026C53.7683 7.91177 53.8041 7.98328 53.8398 8.09055C53.9113 8.80566 54.3404 9.34199 54.9125 9.52077L55.4846 9.69955C56.0924 9.87833 56.6288 10.2716 56.9863 10.7722C57.3439 11.3085 57.7729 11.8449 58.2735 12.2024L58.6311 12.56C58.9886 12.9176 59.4892 13.0606 59.9898 13.0248H62.0994C62.9575 13.0248 63.7799 13.1678 64.6023 13.5254C65.3889 13.883 66.2113 13.9545 66.9621 13.6684C67.7488 13.4181 68.5711 13.3109 69.3935 13.4181L70.931 13.6684C71.6461 13.7399 72.3612 14.0975 72.7903 14.6338L72.9691 14.8126C73.3266 15.1702 73.6842 15.635 74.0417 16.1356C74.2563 16.6004 74.7569 16.8507 75.2574 16.8507H77.4743C78.0106 16.8507 78.547 16.9579 78.976 17.2082C79.4408 17.5658 79.8342 17.9233 80.1917 18.2809L80.5493 18.7457C80.9783 19.2463 81.1929 19.9256 81.1571 20.6408C81.1571 21.2129 81.5862 21.7134 82.1583 21.7134L82.8734 21.7849C83.374 21.7849 83.803 22.1425 84.0533 22.6073L84.4109 23.3224L85.3405 25.3963C85.4835 25.7538 85.5193 26.1114 85.4835 26.3974C85.4835 26.755 85.5908 27.041 85.8411 27.184L86.1986 27.4343C86.6635 27.7919 86.9138 28.3282 86.8423 28.9361L86.592 30.6166L86.5204 31.3317C86.4489 31.6892 86.6277 32.1541 86.9495 32.4044C87.4859 32.7619 87.7361 33.2267 87.7719 33.7631V34.4782C87.7719 34.8357 87.7004 35.2648 87.4143 35.5508C87.1998 35.8369 87.0568 36.1944 87.0568 36.6235L87.1641 37.4459C87.1641 38.018 87.5216 38.5186 87.8792 38.8761C88.3797 39.2337 88.6658 39.8058 88.7373 40.3778C88.8803 41.2717 88.9161 41.9869 88.9161 42.702V43.5243C88.9161 43.8104 88.9161 44.0964 89.0233 44.3825C89.0949 44.6328 89.2736 44.8831 89.4882 45.0261L90.2033 45.5624C90.9184 46.0272 91.419 46.6351 91.705 47.4575C92.0626 48.2441 92.1698 49.0665 92.1698 49.8888V50.1749C92.1698 50.8185 92.0983 51.4978 91.8838 52.1057C91.705 52.7493 91.7408 53.3571 91.9911 53.8935C92.2771 54.394 92.4559 54.9661 92.5274 55.574C92.6704 56.2891 92.5989 57.0042 92.3486 57.5763L92.2771 57.8266C92.0983 58.2556 91.8123 58.649 91.4547 58.9708C91.0972 59.3283 90.7396 59.5429 90.5251 59.7931C90.3105 60.0077 90.1675 60.3652 90.2748 60.687L90.3821 61.1876C90.5608 61.9027 90.5608 62.6178 90.3821 63.2614V63.5475C90.239 64.0838 90.0245 64.5486 89.81 64.9777C89.5597 65.4425 89.2021 65.8001 88.7373 66.0504L88.201 66.4079C87.9507 66.5509 87.7719 66.8727 87.7719 67.1945C87.7719 67.5521 87.6289 67.9097 87.4143 68.1242L86.878 68.8393C86.5205 69.3041 86.0556 69.6974 85.5551 69.912C85.0545 70.2695 84.6254 70.6271 84.3036 70.9846C83.9461 71.4137 83.66 71.9143 83.517 72.4149C83.374 73.0585 82.8734 73.416 82.337 73.416H80.4062C79.9057 73.416 79.4408 73.7736 79.2263 74.2026C78.976 74.7747 78.7257 75.1681 78.4039 75.5256C78.0464 75.8832 77.8318 76.3122 77.6888 76.8128C77.6173 77.2419 77.2598 77.5279 76.9022 77.3849C76.4374 77.1704 75.9726 77.3849 75.758 77.7425C75.329 78.4576 74.8999 78.9939 74.4351 79.4587L74.1848 79.6733C73.7199 80.0308 73.1121 80.3168 72.5758 80.3168C71.9322 80.3168 71.6104 80.6029 71.5031 81.032C71.3958 81.3895 71.3243 81.8543 71.2886 82.2477C71.2171 82.6767 71.074 83.07 70.931 83.4276L70.7522 83.6421C70.3947 84.1785 70.1086 84.7148 69.7511 85.1796L69.6081 85.3941C69.1432 86.002 68.5354 86.4668 67.8203 86.6456C66.9621 86.9316 66.2113 87.0032 65.4604 87.0032H64.9598C64.6023 87.0032 64.2447 87.2177 63.9944 87.5752L63.7799 87.9328L63.5654 88.3619L63.1005 89.1485C62.743 89.7921 62.2066 90.2212 61.4915 90.4357C60.7764 90.6145 59.954 90.686 59.2032 90.6502L58.6311 90.5787C58.1305 90.5787 57.6657 90.4357 57.2009 90.2212C56.8433 90.0781 56.3427 90.2212 56.1282 90.5787C55.7706 91.0793 55.3416 91.3653 54.8767 91.5084L53.8041 91.8659C53.089 92.0447 52.3023 92.0447 51.5515 91.8659L50.9794 91.6871C50.6218 91.6871 50.2643 91.5084 49.9782 91.3296C49.6207 91.1508 49.2631 91.0793 48.9056 91.115L48.4407 91.1866C47.7256 91.2581 47.082 91.1866 46.4384 91.0078L45.473 90.7932C45.044 90.6502 44.6506 90.3642 44.4004 89.9709C44.2216 89.6133 43.8283 89.3273 43.3277 89.2558H42.1835C41.4684 89.1485 40.8248 88.8982 40.3957 88.3619L38.9655 87.0032L38.4649 86.5741L37.6783 86.002L37.2135 85.6444C36.6771 85.2869 36.0335 85.0008 35.3542 84.9293L33.2089 84.5718C32.9943 84.5718 32.8513 84.5003 32.6368 84.4645L31.8144 84.2857C31.4568 84.2142 31.0993 83.9282 30.849 83.5706C30.6345 83.2131 30.2411 83.07 29.8836 83.2131C29.1685 83.4991 28.5964 83.5706 28.0243 83.6779H27.5237C26.5941 83.7494 25.7359 83.6064 24.8778 83.2131C24.0197 82.8555 23.4476 82.3192 22.9112 81.6398C22.4822 81.032 21.8386 80.5671 21.052 80.4241L20.0508 80.2096C19.3357 80.0666 18.6206 79.7805 17.977 79.3515C17.2619 78.8509 16.9043 78.3861 16.6183 77.814C16.3322 77.2776 16.1534 76.6698 16.1177 76.0262V75.7401C16.0462 75.025 15.5456 74.3814 14.8662 74.2026C14.0439 73.9524 13.436 73.5948 12.8997 73.13C12.3991 72.6652 12.1131 71.9858 12.1131 71.2707L12.1846 69.6974C12.1846 69.0896 12.0058 68.5533 11.5767 68.16C11.1476 67.7309 10.8616 67.1945 10.8616 66.6225L10.7543 65.3353C10.6828 64.4056 10.504 63.476 10.2895 62.5463C10.075 61.7239 10.3968 60.9016 11.0761 60.5083L11.3264 60.3295C11.684 60.0792 11.827 59.6144 11.6125 59.1853L11.3264 58.8277C10.9689 58.4702 10.6113 58.2199 10.2538 58.1126C9.96771 58.0411 9.8962 57.7551 9.8962 57.5763L10.2538 57.1472C10.4683 56.8969 10.4325 56.5036 10.2538 56.2891C9.96771 56.003 9.82469 55.6455 9.78894 55.2879L9.71743 52.785C9.71743 52.2845 9.78894 51.7839 9.93196 51.2833C10.075 50.8542 9.93196 50.3537 9.50289 50.1391V50.1749ZM44.9009 45.4551C45.1512 45.2049 45.1155 44.74 44.9009 44.5613C44.5434 44.2752 44.2931 43.9534 44.0786 43.5959L43.721 43.0238C43.4707 42.5589 43.1489 42.1656 42.7914 41.8081L42.7198 41.7366C42.3623 41.4505 42.112 41.093 41.8975 40.6639C41.7187 40.3063 41.7187 39.9488 41.8975 39.5912L42.112 39.2337C42.3265 38.8761 42.4696 38.3755 42.4696 37.9465V37.8034C42.4696 37.4459 42.3265 37.0883 42.112 36.7308C41.969 36.4447 41.826 36.0872 41.7544 35.7296V35.5151C41.6472 35.086 41.7544 34.6212 42.0405 34.2636C42.3265 33.7988 42.5411 33.3698 42.6483 32.8334V32.7619C42.7914 32.4044 42.7198 31.9395 42.5053 31.582C42.2908 31.2244 42.2193 30.8669 42.3623 30.4378L42.6126 29.7227C42.8271 29.0791 43.1489 28.507 43.578 28.0064L44.0786 27.4701L44.4361 27.041L44.6506 26.8265C44.8652 26.6119 44.9009 26.2544 44.7222 25.9683C44.5434 25.6108 44.4361 25.2532 44.5076 24.8957L44.5791 24.3951C44.6864 23.68 44.9367 22.9649 45.4015 22.3928L45.5445 22.2498C46.0809 21.5346 46.7602 21.0698 47.5468 20.8195L48.5122 20.462C48.9413 20.319 49.2274 19.8541 49.2274 19.3893C49.2274 18.8172 49.4061 18.3166 49.7279 17.8518L49.9067 17.673C50.2643 17.0652 50.6933 16.4574 50.9794 15.8138L51.2297 15.3489C51.3012 15.2417 51.3369 15.0986 51.3369 14.9914C51.3369 14.3835 50.9794 13.8472 50.4073 13.8114L48.834 13.7042C47.9402 13.6327 47.0463 13.7042 46.1881 13.7042L43.1489 14.0617C42.6841 14.0617 42.3265 14.4193 42.2908 14.9199C42.2908 15.4204 41.9332 15.8495 41.5042 15.9925L40.2169 16.3501L39.8594 16.4574L38.7867 16.8149C38.0001 17.0652 37.3565 17.6373 36.9989 18.4239L36.7129 18.8887C36.3553 19.6754 35.7475 20.319 34.9966 20.7838C34.2815 21.2486 33.924 21.9995 33.8525 22.8576V23.2152C33.7809 23.9303 33.5664 24.6454 33.1373 25.146L32.9586 25.432C32.6725 25.7896 32.601 26.2544 32.7798 26.6477C32.9586 27.0768 33.0658 27.5416 33.0301 28.0064V29.9015C33.0301 30.402 32.6725 30.8311 32.315 30.9741C31.8144 31.1529 31.4926 31.5462 31.3496 32.0468L31.1708 32.7619C31.0278 33.477 31.2781 34.1921 31.8859 34.6212C32.458 35.0503 32.8155 35.6939 32.9586 36.4805V37.1241C33.0658 37.8392 33.4591 38.5543 34.1027 38.9119C34.7463 39.3409 35.2469 39.9845 35.533 40.6997L35.7117 41.2717C35.9978 42.0584 36.6414 42.5232 37.3565 42.5947H37.571C38.2146 42.5947 38.7867 42.9523 39.1443 43.5243C39.5018 44.0964 40.0739 44.4897 40.7175 44.597L41.7187 44.8831C42.3265 45.0618 42.8986 45.3836 43.3634 45.8485L43.435 45.92C43.7925 46.206 44.3646 46.1703 44.6864 45.7769L44.9367 45.4909L44.9009 45.4551ZM48.9771 42.1656C49.3346 42.3802 49.6922 42.2729 49.8352 41.9511L49.9425 41.7723C50.1928 41.2717 50.5146 40.7712 50.8721 40.3421L51.5872 39.2694C51.6945 39.2694 51.7303 39.1979 51.766 39.1264L52.6241 37.9822C52.9817 37.6247 53.4108 37.3744 53.9113 37.3744C54.3762 37.3744 54.7695 37.1241 54.984 36.6593C55.127 36.1587 55.3416 35.6939 55.7706 35.3006L55.9494 35.086C56.307 34.7285 56.6645 34.5497 57.0221 34.3709C57.4869 34.2994 57.916 34.2279 58.345 34.2279H59.4177C59.8468 34.2279 60.2043 34.0491 60.4189 33.6916C60.6334 33.334 60.9552 33.0837 61.3128 32.9049L61.6703 32.7619C62.2424 32.5116 62.886 32.3328 63.5296 32.2613L64.2447 32.1898C64.6738 32.1898 65.1386 32.1898 65.5677 32.4401C65.9252 32.6904 66.3901 32.6546 66.7476 32.3686L66.9979 32.2256C67.5342 31.868 68.1421 31.582 68.7857 31.5105H68.8572C69.5723 31.3674 70.2159 31.3674 70.931 31.4032H71.2886C72.0037 31.5105 72.6115 31.7608 73.0764 32.2971L73.1836 32.4401C73.5412 32.7977 74.1133 33.0837 74.6138 33.0837H75.2217C75.4005 33.0837 75.5792 33.0122 75.6865 32.8334C75.7938 32.7262 75.9725 32.6189 76.1513 32.6189H76.5089C77.0095 32.6189 77.4743 32.7619 77.9391 32.9049L78.547 33.1552C79.119 33.334 79.7269 33.5128 80.3347 33.5843H80.7638C81.0499 33.5843 81.2286 33.4055 81.2286 33.1552C81.2286 32.7977 81.1571 32.4401 80.9783 32.1541L80.7281 31.582C80.442 31.1172 80.2275 30.6166 80.0129 30.1518L79.9414 29.973C79.7626 29.6154 79.7626 29.2579 79.9414 28.9003V28.7215C80.0129 28.4355 79.8699 28.1137 79.5839 28.0064H79.2978C78.7257 27.8276 78.2252 27.5058 77.8676 27.041L77.51 26.6835C77.1525 26.3259 76.938 25.7896 76.7949 25.2532C76.6161 24.7884 76.2228 24.4309 75.7223 24.4309H74.2205C73.6842 24.3593 73.2194 24.0733 72.8976 23.6442L72.7545 23.4655C72.5043 23.1079 72.2897 22.6788 72.1467 22.2498C71.9679 21.8922 71.5746 21.6777 71.2171 21.7849L70.788 21.928C70.0729 22.1783 69.3578 22.2855 68.6427 22.214L68.0706 22.1425C67.4627 22.1425 66.8906 21.8922 66.4258 21.5347L66.0682 21.2844C65.7822 21.0698 65.4962 20.9268 65.1744 20.7838C64.8168 20.6408 64.5308 20.7123 64.3162 20.9626L64.1374 21.1771C63.7799 21.5347 63.2793 21.8207 62.7787 21.8922L60.8479 21.9995C60.4904 21.9995 60.1328 22.1783 59.8825 22.4285C59.5965 22.6788 59.2747 22.8576 58.9171 22.9291H58.8456C58.4881 22.9291 58.1305 23.1794 57.7729 23.4297V23.5012C57.4154 23.8588 56.9506 24.0375 56.4857 24.0375L56.3427 24.1091C55.9137 24.1091 55.4846 24.1091 55.0555 24.2163H54.6265C54.0186 24.3236 53.5538 24.8242 53.4108 25.4678L53.2677 26.2901C53.1605 26.8622 52.9102 27.3628 52.5526 27.8276C52.1951 28.2567 51.766 28.5427 51.2297 28.5427H50.6933H50.6218C50.2643 28.6143 49.9067 29.0076 49.9782 29.4366C50.0497 30.0445 49.9782 30.5808 49.871 31.1172L49.7279 31.725C49.5849 32.2613 49.2274 32.6904 48.7625 32.8692L48.548 32.9764H48.4765C48.262 33.1195 48.1189 33.4413 48.2977 33.6916C48.5122 34.0491 48.5838 34.4067 48.548 34.7642L48.4407 35.9084C48.4407 36.3375 48.262 36.7308 48.0832 37.0883C47.8686 37.4459 47.8686 37.8034 48.0117 38.161L48.3692 38.9476C48.548 39.3052 48.5838 39.6627 48.4765 40.0918C48.3692 40.4494 48.2977 40.8069 48.3335 41.1645C48.3335 41.522 48.548 41.8796 48.834 42.0226L48.9056 42.0941L48.9771 42.1656ZM77.224 68.0169C77.5816 68.3745 78.1179 68.5175 78.547 68.2315L79.2621 67.7666C79.6196 67.5164 79.9057 67.1588 80.0487 66.694V66.6225L80.4062 65.5498L80.6208 65.1922L80.7638 64.8347L80.9068 64.5844C81.0498 64.2983 81.2644 64.0838 81.6219 63.9765L81.765 63.905C82.051 63.8335 82.2298 63.5475 82.2298 63.2614C82.2298 62.9039 82.4086 62.6178 82.5873 62.3675L82.8734 62.1173L83.5885 61.1876V61.1161C83.803 60.8301 83.9461 60.5083 84.0176 60.1507C84.0891 59.7931 84.0176 59.4356 83.8745 59.078L83.803 58.935C83.66 58.5774 83.5885 58.3272 83.5527 58.0054L83.4455 57.0042L83.3382 55.9315C83.3382 55.574 83.4812 55.2164 83.6958 54.8589C83.9461 54.5728 84.1248 54.2153 84.2679 53.8577V53.7147L84.3394 53.6432C84.4109 53.2856 84.2321 52.9281 83.9103 52.9281C83.5527 52.7493 83.1952 52.4632 83.0879 52.0342L82.9806 51.8196C82.8019 51.176 82.6946 50.5324 82.6946 49.8888L82.7661 48.1011V47.9938C82.7661 47.3859 82.2655 46.9211 81.6935 46.9211H81.6219C80.9068 46.9211 80.3347 46.7066 79.8342 46.206L79.5481 45.8485L78.833 45.0261L77.9034 43.9534C77.5458 43.4528 77.1882 43.0238 76.7234 42.5947C76.3659 42.2371 75.8295 41.8796 75.2932 41.8081L74.5781 41.7008C74.2205 41.6293 73.7557 41.4505 73.3624 41.2002C73.0763 40.9857 72.6473 41.0572 72.3612 41.3433L71.8964 41.8438L71.6819 41.9869C71.4316 42.0584 71.1813 41.9153 71.074 41.6293C70.931 41.2002 70.931 40.6997 71.1455 40.2706V40.056C71.1455 39.8058 70.931 39.627 70.7165 39.6985H70.1444C69.5008 39.6985 68.8572 39.627 68.2493 39.3409L67.8918 39.1979C67.5342 39.0191 67.1052 38.9119 66.7119 38.9119C66.3543 38.9119 65.9967 38.9834 65.6392 39.1979L65.4962 39.3052C65.0671 39.5912 64.5665 39.7342 64.0659 39.77H62.886C62.3497 39.77 61.8133 39.9488 61.4558 40.2348C60.991 40.5209 60.4904 40.6996 59.954 40.8069L58.9886 40.9499C58.5596 41.0572 58.0947 41.236 57.7014 41.5578C57.3439 41.9153 56.8433 42.1299 56.3785 42.2729L56.1997 42.3444C55.6276 42.5232 55.127 42.8807 54.7695 43.4171L54.3404 43.8461C54.0901 44.2037 54.0901 44.6328 54.3404 44.9903C54.5549 45.3479 54.984 45.4551 55.4131 45.3479L55.9494 45.1333C56.2355 45.0261 56.5573 45.1333 56.8075 45.2764C57.0221 45.4551 57.3439 45.5624 57.6657 45.5267L58.5596 45.4194C59.0602 45.4194 59.5607 45.4194 60.0613 45.5624C60.5976 45.7412 61.0625 45.92 61.4915 46.2775C61.9206 46.6351 62.3854 46.7781 62.9218 46.8496C63.4581 46.9211 63.9944 47.0284 64.495 47.2072L64.8526 47.2787C65.2101 47.3859 65.4962 47.6362 65.7107 47.9938C65.8895 48.2798 66.0682 48.7089 66.0682 49.0665V49.1737C66.0682 49.6028 66.4258 49.8888 66.7834 49.8888H66.9979C67.57 49.8888 68.1778 49.9604 68.7857 50.1391L69.036 50.2464C69.3935 50.3894 69.7511 50.604 70.0014 50.9615C70.2874 51.3191 70.4662 51.6766 70.5735 52.0342L70.6807 52.5348C70.788 53.0711 70.8237 53.6074 70.8237 54.1795V54.3583C70.8237 54.7158 71.074 55.0734 71.4673 55.2164C71.8249 55.2879 72.254 55.431 72.6473 55.6455L72.8261 55.717C73.2909 56.003 73.7557 56.3606 74.1133 56.7897L74.292 57.04C74.7569 57.5763 75.0071 58.2556 75.0071 58.935V59.1853C75.0071 59.7216 74.8999 60.258 74.7211 60.7585C74.5781 61.1876 74.7211 61.6882 75.1859 61.8312L75.4362 62.01C75.9726 62.2245 76.4374 62.6178 76.7949 63.0827C77.1525 63.619 77.2955 64.2268 77.2955 64.8704V65.9431C77.224 66.3007 77.1167 66.5867 76.938 66.837C76.7592 67.0873 76.7592 67.4448 76.938 67.6951L77.1525 68.0527L77.224 68.0169ZM54.3404 49.7101H54.2689C54.1259 49.7101 54.0544 49.8888 54.0901 50.0676L54.2331 50.7827C54.3762 51.3548 54.4477 51.9269 54.5192 52.499C54.5907 53.0711 54.8767 53.5717 55.3058 53.9292H55.4488C55.9852 54.3583 56.307 55.0019 56.3427 55.6455V57.4333C56.2712 57.7908 56.3427 58.1484 56.5573 58.4344L56.736 58.6132C57.0936 59.0423 57.2366 59.5429 57.2724 60.0434L57.3796 62.01C57.3796 62.4748 57.0936 62.8681 56.6645 62.9396L56.307 63.0111C56.0567 63.0111 55.9494 63.2972 55.9494 63.5475C55.9494 63.8335 56.0567 64.1553 56.1639 64.4414V64.5129C56.2712 64.8704 56.307 65.228 56.2712 65.5855L56.1282 66.551C55.9852 67.2661 55.7706 67.9097 55.4131 68.5533L55.1628 68.9823C54.984 69.3399 54.7337 69.5544 54.4477 69.6974C54.0901 69.8405 53.8398 70.1265 53.7326 70.4841L53.4465 71.7713C53.2677 72.4864 52.9459 73.2015 52.5169 73.9166H52.4454C52.0163 74.4887 51.48 74.9893 50.8364 75.3468L50.4073 75.6329L49.3346 76.1692C48.9771 76.3122 48.7625 76.634 48.691 77.0273L48.5122 78.2073C48.405 78.9224 48.1547 79.5302 47.6541 79.9951L47.1893 80.5314L46.653 81.0677L46.1166 81.6398C45.6876 82.1404 45.044 82.3549 44.3288 82.2477L43.0416 81.9974L41.8617 81.8543H41.5399C41.3969 81.9974 41.3611 82.2119 41.4684 82.4264C41.7187 82.8555 42.112 83.1415 42.5411 83.1415L43.3277 83.2846C43.6852 83.2846 44.1143 83.4633 44.4719 83.6421C44.8294 83.8924 45.187 84.0712 45.616 84.1785H45.6876C46.1524 84.3572 46.653 84.393 47.1178 84.3572L47.6541 84.2857C48.262 84.2142 48.834 84.2857 49.3346 84.5003L49.7637 84.6433C49.9425 84.7148 50.2285 84.6433 50.4073 84.4645C50.6218 84.25 50.8364 84.1069 51.1224 83.9997L51.4085 83.9282C51.8733 83.7851 52.3381 83.7136 52.8387 83.7136H53.1247C53.5538 83.7136 53.9471 83.7851 54.3047 83.9997L54.4477 84.0712C54.698 84.1785 54.984 84.0712 55.1628 83.8567C55.2701 83.6064 55.5203 83.3561 55.7706 83.1415L56.6645 82.5337L57.2366 82.1761L57.5227 81.9974C57.8802 81.7471 58.3808 81.6398 58.8099 81.6398L60.0971 81.5325C60.5976 81.461 61.0267 81.1035 61.1697 80.6029C61.3128 80.0666 61.5273 79.5302 61.8848 79.0654C62.2424 78.6006 62.6 78.2073 62.9575 77.8497C63.4223 77.4922 63.8872 77.3134 64.3877 77.2776H64.6738C65.2459 77.1704 65.6749 76.634 65.6392 76.0619V75.9904V73.6663C65.7107 73.3088 65.8537 72.8439 66.0682 72.4864L66.7834 71.4137L67.0694 71.0562C67.2839 70.8774 67.427 70.6271 67.6773 70.341L68.0348 69.8762C68.2493 69.5187 68.2493 69.0538 67.9633 68.732C67.6057 68.3745 67.427 67.8739 67.3555 67.3733V67.2303C67.2839 66.6582 67.2839 66.0504 67.4627 65.4425V65.2637C67.6415 64.7989 67.8918 64.3341 68.1778 63.905C68.4639 63.5475 68.4281 63.0469 68.0706 62.7609L67.4627 62.2245C66.9621 61.7955 66.6761 61.1519 66.6046 60.5083L66.5331 59.7931C66.5331 59.5786 66.5331 59.3283 66.4616 59.078L66.3901 58.5417C66.3185 57.9338 65.961 57.469 65.4604 57.1115L65.2101 57.04C64.8526 56.8254 64.495 56.5036 64.209 56.0746C63.9229 55.717 63.7799 55.2164 63.6726 54.7158L63.5654 54.108C63.5654 53.8935 63.4223 53.7504 63.2078 53.6432L62.6357 53.4644L61.4915 53.1068C61.134 53.0353 60.7764 52.7493 60.5261 52.499H60.4546C60.2401 52.213 59.8825 52.213 59.668 52.4275L59.3104 52.785C59.2389 52.8923 59.1674 52.9281 59.0602 52.8923C58.8456 52.8923 58.7026 52.7135 58.7741 52.5348C58.8456 51.9627 58.6311 51.3906 58.1663 51.033L57.7014 50.6755L56.6288 49.9604C56.3427 49.8531 55.9137 49.9604 55.7706 50.3179L55.6276 50.5324C55.6276 50.604 55.5203 50.6397 55.4846 50.6755C55.3416 50.6755 55.127 50.6755 55.127 50.4967L55.0198 50.3179C54.9125 50.1034 54.6622 49.9604 54.4477 49.8888L54.3404 49.7101ZM50.0497 53.2856L49.871 53.1068C49.6922 52.9638 49.5134 52.9996 49.3346 53.1784C49.0843 53.6074 48.8698 54.0722 48.7625 54.5371V54.6086C48.6553 55.0734 48.2262 55.3952 47.7971 55.3237H47.4396H47.3681C46.8675 55.3237 46.4742 55.7528 46.4742 56.2533C46.4742 56.8969 46.2596 57.5405 45.8663 58.0411L45.6518 58.2556C45.2942 58.7205 44.7579 59.0423 44.2216 59.2211L43.9355 59.2926C43.578 59.3998 43.2919 59.6501 43.2204 60.0792C43.2204 60.4367 43.0059 60.7943 42.7198 61.0803L42.3623 61.3664C41.9332 61.8312 41.2896 62.0815 40.646 62.153L38.8582 62.3318C38.2861 62.3318 37.7856 62.6893 37.428 63.2257C37.0705 63.762 36.5341 64.1196 35.9978 64.1911L35.2112 64.2626C34.6391 64.3341 34.0312 64.3341 33.4234 64.1911L33.0658 64.1196L32.1004 63.8693C31.7429 63.762 31.4568 63.8693 31.2423 64.1196L30.8847 64.5844C30.4199 65.1207 29.7406 65.371 29.097 65.2995L26.7728 65.0135C26.4153 65.0135 26.1292 64.8347 25.8074 64.6559C25.4499 64.4414 25.1996 64.1911 24.9493 63.9408L24.0554 62.8681C23.9482 62.7966 23.7694 62.7609 23.5906 62.7966L23.09 63.0111L21.0877 63.5117C20.7302 63.619 20.2653 63.5117 19.9078 63.2972C19.5502 63.0111 19.1211 62.9396 18.6921 62.9396H18.2273C17.7982 63.0469 17.5121 63.5117 17.6552 63.9408L17.7982 64.6559C17.9055 65.0135 17.8697 65.4425 17.6909 65.8001C17.5121 66.1576 17.5479 66.5152 17.7982 66.8728L18.0127 67.1588C18.2988 67.5879 18.7278 67.9454 19.0854 68.303C19.4429 68.6605 19.8005 69.0181 20.0865 69.4829L20.6229 70.4483C20.9089 70.9489 21.338 71.2349 21.9101 71.2349C22.4464 71.2349 22.9828 71.4137 23.4118 71.7713L24.4845 72.7724C24.7705 73.0227 25.1996 73.0585 25.4856 72.8439L25.6644 72.7724C25.879 72.7724 26.022 72.9155 26.022 73.13V73.3088C26.022 73.7736 26.3795 74.2026 26.8444 74.3814L28.4534 74.739C29.0254 74.9178 29.5975 75.0965 30.1339 75.4541H30.4199C30.706 75.4541 30.9563 75.2038 30.9205 74.882V73.6306C30.9205 73.273 31.0635 72.9155 31.3496 72.7724L31.5283 72.7009C31.7071 72.7724 31.8859 72.9155 31.8144 73.0585V73.6663C31.8144 74.1311 31.9574 74.5602 32.2792 74.882C32.6368 75.2396 33.1016 75.3111 33.4949 75.1681C33.924 74.9893 34.353 74.9535 34.8179 74.9893L36.1408 75.0608C36.7844 75.1323 37.3923 75.0608 37.9286 74.8105C38.5722 74.596 39.1085 74.3099 39.6091 73.9166L39.8236 73.7736L40.8963 72.8082C41.2539 72.4506 41.7187 72.2718 42.1478 72.2718H43.578C44.2931 72.2003 44.9367 71.5567 45.0082 70.8416L45.1512 70.1265C45.1512 69.6617 45.3658 69.2326 45.6876 68.8751C46.0451 68.5175 46.4027 68.303 46.7602 68.16L47.1893 67.9812C47.7971 67.7309 48.262 67.1946 48.4765 66.551L48.691 65.6928C48.8698 64.9777 49.2274 64.2626 49.7637 63.7978L49.8352 63.7263C50.2643 63.3687 50.3358 62.6536 50.0497 62.153L49.9425 61.9027C49.6922 61.5452 49.6564 61.0088 49.8352 60.544C50.014 60.0434 50.1928 59.6144 50.4788 59.1853L50.8364 58.6847C50.9794 58.3987 50.9794 57.9696 50.7649 57.7193C50.5503 57.4333 50.4073 57.0757 50.4073 56.7182L50.3358 56.2176V55.0019C50.4073 54.6443 50.3358 54.1795 50.2285 53.822L50.0855 53.3929L50.0497 53.2856ZM44.9367 50.5682V50.4609C44.9367 50.1034 44.7222 49.8888 44.4361 49.8888H43.5065C43.1489 49.9604 42.7914 49.9604 42.5053 49.8888H40.8963C40.0739 49.8888 39.2873 49.7458 38.5007 49.5313L37.6425 49.3167L36.9274 49.1022L35.3184 48.5659C34.4603 48.3156 33.8167 47.7435 33.4234 46.9569L33.2446 46.5993C32.9943 46.063 32.458 45.7769 31.9217 45.8842C31.3138 45.8842 30.706 45.8842 30.1339 45.5982L29.7048 45.4194C28.8824 45.0618 28.2746 44.3467 28.2746 43.3813L28.1316 42.4159C28.0243 41.9153 27.7025 41.4505 27.2734 41.2717C26.7728 41.0572 26.308 40.7712 25.8432 40.4494L25.6644 40.3421C25.1281 39.913 24.6633 39.3409 24.413 38.6616L24.3415 38.4471C24.1627 37.875 24.1269 37.2671 24.27 36.6593L24.3415 36.4447C24.4845 35.9799 24.5202 35.5151 24.5202 35.0145C24.5202 34.5854 24.3415 34.1564 24.0197 33.8346L23.5191 33.3698C22.947 32.9049 22.5894 32.2256 22.5537 31.4747C22.4822 30.6881 22.4822 29.9372 22.6252 29.1863V29.0791V28.9718C22.6252 28.5427 22.2676 28.2567 21.9101 28.2567H21.8028C21.338 28.2567 20.9447 28.5427 20.7302 28.9718C20.5514 29.4724 20.2653 29.8657 19.9435 30.259L19.8005 30.4378L19.0854 31.1529L18.7278 31.5105C18.3703 31.868 18.1557 32.4044 18.0842 32.9407C18.0127 33.477 17.8697 34.0134 17.6552 34.5139L17.5837 34.6927C17.4049 35.1218 17.1188 35.5151 16.7613 35.7654C16.4037 36.0514 16.1534 36.4805 16.1534 36.9096L16.0819 38.5543C16.0819 39.2694 15.9747 39.9845 15.7244 40.6997L15.6529 40.9857C15.4741 41.4505 15.6529 41.9511 16.0819 42.1656L17.5837 42.8092L17.7267 42.8807C17.8339 42.8807 17.8697 42.9523 17.9055 43.0595C18.0127 43.2025 17.9055 43.4171 17.7982 43.4171L17.4406 43.5959C17.2261 43.6674 17.0831 43.8819 17.0116 44.1322L16.9401 44.4897V44.5613L16.5825 46.5636C16.511 46.8496 16.511 47.1714 16.511 47.4932C16.511 47.7793 16.6898 48.0295 16.9401 48.1368L17.7267 48.4944C18.0842 48.7089 18.5133 48.9592 18.7993 49.2095L19.1569 49.4955C19.2642 49.6386 19.4429 49.7816 19.586 49.8531L19.729 49.9961C19.9793 50.2106 20.1581 50.4967 20.2296 50.8185L20.5871 52.4275C20.5871 52.8566 20.9447 53.2141 21.3022 53.3214L21.8743 53.5002C21.8743 53.5002 21.9816 53.5002 22.0531 53.5717L22.7682 53.7862C23.3403 53.965 23.8409 54.2868 24.27 54.7158C24.699 55.0734 25.1281 55.5382 25.4856 56.0388L25.6287 56.1818C25.9147 56.5394 26.3438 56.7182 26.7728 56.6109C27.2019 56.5036 27.6667 56.4679 28.1316 56.4679H28.6679C29.0254 56.4679 29.4903 56.5751 29.8836 56.8254C30.2411 57.04 30.706 57.183 31.135 57.3618H31.2423C31.6714 57.5405 32.1362 57.469 32.4937 57.2187C32.8513 56.9327 33.3161 56.7897 33.7809 56.7897L35.4615 56.8969C35.819 56.8969 36.1766 56.8254 36.3553 56.5394H36.4269L37.0347 55.9673L37.2135 55.7885C37.4995 55.431 37.9286 55.2879 38.3577 55.2522H39.9667C40.3957 55.2522 40.789 54.8946 40.9678 54.5371C41.1466 54.1795 41.5042 53.8935 41.9332 53.822L42.6483 53.6789C42.9344 53.6789 43.1847 53.4286 43.2919 53.1068C43.3992 52.7493 43.578 52.4632 43.8283 52.2487L44.4004 51.6766C44.7579 51.3191 44.9367 50.9615 45.0082 50.5324L44.9367 50.5682Z" fill="black"/>
</svg>
