<svg width="100" height="100" viewBox="0 0 100 100" fill="none" xmlns="http://www.w3.org/2000/svg">
<rect width="100" height="100" rx="24" fill="white"/>
<path d="M71.9146 67.3609C74.1929 68.1066 76.0674 69.1629 77.5276 70.5299C77.8487 70.7578 78.004 71.0167 78.004 71.317C78.004 71.8038 77.6416 72.2698 76.9063 72.7255C76.0467 73.264 74.7625 74.2168 73.0641 75.5838C71.4899 76.8369 70.2161 77.7482 69.253 78.3282C69.0666 78.4214 68.8802 78.4732 68.6938 78.4732C68.4142 78.4732 68.1656 78.3696 67.9688 78.1832C67.7617 77.9864 67.6581 77.7586 67.6581 77.4997C67.6581 77.2719 67.741 77.0751 67.9067 76.8783C68.1345 76.5055 68.6523 76.0912 69.4808 75.6459C70.0194 75.3663 70.6925 74.9106 71.5003 74.2685C72.4738 73.4815 73.1469 72.9637 73.5198 72.7255C74.3379 72.3112 74.7522 72.0212 74.7522 71.8555C74.7522 71.8141 74.7418 71.783 74.7211 71.7416C74.2758 70.9545 73.5301 70.3642 72.5049 69.9707C71.5935 69.7118 70.6615 69.4425 69.7294 69.1526C68.6316 68.8212 67.8135 68.3448 67.2853 67.7234C67.2439 67.6716 67.2335 67.5991 67.2335 67.5266C67.2335 67.2988 67.3682 67.0503 67.6271 66.781C67.886 66.5117 68.1449 66.3771 68.3831 66.3771C68.5281 66.3357 68.6834 66.3253 68.8284 66.3253C69.2634 66.3253 69.7915 66.4599 70.4233 66.7189C70.91 66.926 71.4071 67.1331 71.9146 67.3609ZM28.1595 66.4392C28.5841 66.4392 28.9362 66.5532 29.2158 66.781C29.4851 67.0088 29.6197 67.2677 29.6197 67.5681C29.6197 67.7959 29.5368 67.9927 29.3711 68.1584C28.7498 68.8315 27.4863 69.5565 25.5601 70.3228C23.7788 71.0374 22.5878 71.8555 21.9664 72.7876C23.0124 73.4193 24.3898 74.1132 26.0882 74.8589C28.8016 76.0705 30.1996 76.7023 30.2928 76.7437C30.645 76.9094 30.821 77.1786 30.821 77.5618C30.8624 78.0279 30.676 78.4214 30.2721 78.7528C29.8682 79.0842 29.4022 79.2395 28.8844 79.2395C28.6773 79.2395 28.4805 79.1981 28.2941 79.1256C28.0663 78.8978 27.7659 78.6389 27.3724 78.3385C24.9076 76.9922 22.2668 75.7081 19.4602 74.4964C19.1806 74.3825 18.901 74.2789 18.6214 74.1857C18.2693 74.02 18.0621 73.7714 18 73.4608C18 72.653 18.3521 71.9073 19.0667 71.2135C19.9263 70.5196 21.3451 69.7325 23.3335 68.8315C25.2597 67.972 26.6475 67.1745 27.5174 66.4496C27.5174 66.4392 27.7245 66.4392 28.1595 66.4392Z" fill="#5B4538"/>
<path d="M45.7547 66.3979C45.2886 65.7248 44.8537 65.2484 44.4601 64.9688C44.0666 64.6891 43.6109 64.5545 43.0827 64.5545C42.8963 64.5545 42.7306 64.5856 42.596 64.6374L39.4891 65.7144C39.3131 65.7766 39.1059 65.7973 38.8781 65.7973C38.4639 65.7973 38.1325 65.7041 37.8839 65.5073C37.625 65.3209 37.3143 64.9377 36.9519 64.3681L36.0923 64.9377C36.6308 65.7144 37.0968 66.2322 37.4697 66.4808C37.8528 66.7397 38.3292 66.864 38.9195 66.864C39.1784 66.864 39.4373 66.8225 39.6859 66.75L42.5339 65.7144C42.7203 65.6419 42.9274 65.6005 43.1449 65.6005C43.5073 65.6005 43.8077 65.673 44.0252 65.8283C44.2426 65.9733 44.5533 66.3151 44.9469 66.8536L45.7547 66.3979Z" fill="#5B4538"/>
<path fill-rule="evenodd" clip-rule="evenodd" d="M66.7467 83.5582C68.3105 92.8995 56.8876 93.8005 52.1962 89.6062C48.9547 86.7065 49.866 82.6779 54.516 82.9265C58.6067 83.1439 61.0197 88.4256 66.7467 83.5582Z" fill="#5B4538"/>
<path fill-rule="evenodd" clip-rule="evenodd" d="M32.0533 83.5582C30.4895 92.8995 41.9125 93.8005 46.6038 89.6062C49.8453 86.7065 48.934 82.6779 44.284 82.9265C40.1933 83.1439 37.7803 88.4256 32.0533 83.5582Z" fill="#5B4538"/>
<path d="M43.2691 70.0018C42.7513 69.6393 42.1092 69.4529 41.3429 69.4529C40.4212 69.4529 39.6755 69.7325 39.0956 70.2814C38.4224 70.8924 38.1635 71.7624 38.3188 72.9015C38.412 73.8232 38.7434 74.631 39.3027 75.3353C39.8723 76.0395 40.5558 76.3916 41.3429 76.3916C41.8296 76.3916 42.3371 76.257 42.8549 75.9773C43.7766 75.4285 44.2322 74.3721 44.2322 72.8083C44.2322 71.3999 43.9112 70.4678 43.2691 70.0018ZM41.3014 73.7197C40.7629 73.7197 40.3176 73.2847 40.3176 72.7358C40.3176 72.1973 40.7526 71.752 41.3014 71.752C41.84 71.752 42.2853 72.187 42.2853 72.7358C42.2853 73.2847 41.84 73.7197 41.3014 73.7197Z" fill="#5B4538"/>
<path d="M50.1044 82.1289C50.3944 82.1289 50.674 82.0771 50.9329 81.9736C51.1918 81.87 51.43 81.7457 51.6475 81.58C51.865 81.4143 52.0617 81.2279 52.2378 81.0312C52.4139 80.824 52.5692 80.6273 52.6935 80.4098C52.8281 80.2027 52.9317 80.0059 53.0145 79.8091C53.0974 79.6227 53.1595 79.4674 53.1906 79.3327C53.1802 79.312 53.1699 79.281 53.1491 79.2395C53.1284 79.2085 53.1077 79.1774 53.0974 79.1463C53.0767 79.1256 53.0559 79.1153 53.0456 79.1153C52.797 79.5709 52.5278 79.9438 52.2171 80.2337C51.9064 80.5237 51.5646 80.7308 51.2022 80.8655C50.8293 81.0001 50.4255 81.0622 50.0009 81.0622C49.628 81.0622 49.2966 81.0105 49.0066 80.9172C48.7063 80.824 48.4474 80.679 48.2092 80.503C47.971 80.3166 47.7639 80.0991 47.5671 79.8506C47.3807 79.602 47.2047 79.312 47.0493 79.0013C47.039 79.0013 47.0286 79.0117 47.0079 79.0324C46.9872 79.0531 46.9665 79.0842 46.9561 79.1153C46.9354 79.1463 46.9354 79.167 46.925 79.1878C47.07 79.5916 47.2461 79.9645 47.4636 80.3269C47.6707 80.6791 47.9089 80.9897 48.1782 81.259C48.4474 81.5283 48.7374 81.7457 49.0688 81.9011C49.3795 82.0357 49.7316 82.1186 50.1044 82.1289Z" fill="#5B4538"/>
<path d="M59.2076 69.9398C58.6898 69.5774 58.0477 69.391 57.2813 69.391C56.3596 69.391 55.614 69.6706 55.034 70.2195C54.3609 70.8305 54.102 71.7108 54.2573 72.8396C54.3505 73.7613 54.6819 74.5691 55.2412 75.2733C55.8107 75.9775 56.4943 76.3296 57.2813 76.3296C57.7681 76.3296 58.2755 76.195 58.7933 75.9154C59.7151 75.3665 60.1707 74.3102 60.1707 72.7464C60.1811 71.3276 59.86 70.3955 59.2076 69.9398ZM56.9499 73.8338C56.4114 73.8338 55.9661 73.3885 55.9661 72.8499C55.9661 72.3114 56.4011 71.8661 56.9499 71.8661C57.4885 71.8661 57.9338 72.3011 57.9338 72.8499C57.9338 73.3988 57.4885 73.8338 56.9499 73.8338Z" fill="#5B4538"/>
<path d="M65.9598 58.7965C67.5546 58.1026 68.3728 52.7174 69.4498 47.705C73.3334 38.8297 82.0016 32.2949 81.4838 24.041C74.369 10.1119 64.4063 9.61476 60.1396 8.50664C54.6093 7.48138 49.0895 6.72537 43.5696 7.5228C39.6446 8.10275 34.5597 11.8828 29.8579 12.2038C25.3737 13.6848 24.2552 15.6524 23.0021 17.3819C21.604 20.4267 21.283 23.461 21.9665 26.5058C23.6856 31.9739 26.3265 36.9449 27.1446 42.8997C28.9569 46.0998 29.0812 52.1478 33.2237 56.2075C45.8997 50.1698 56.256 54.8508 65.9598 58.7965Z" fill="url(#paint0_linear_302_6)"/>
<path d="M65.8044 58.8586L64.6134 58.3719C55.096 54.4883 45.2473 50.4597 33.1098 56.2488L33.0373 56.2799L32.9855 56.2281C30.2825 53.5769 29.2883 50.149 28.4184 47.1146C27.9524 45.5198 27.5174 44.0181 26.8857 42.8893L26.8753 42.8479C26.3264 38.8918 24.9594 35.2982 23.6338 31.8289C22.971 30.089 22.2771 28.287 21.7075 26.4643C21.0137 23.3782 21.3658 20.2817 22.7432 17.268C22.8467 17.123 22.9399 16.9884 23.0331 16.8537C24.1827 15.2382 25.4772 13.4051 29.6611 12.0277C32.2502 11.8413 34.9221 10.6296 37.5008 9.45939C39.6135 8.49626 41.6122 7.59527 43.3935 7.33636C48.6441 6.58035 53.8222 7.18102 59.9842 8.3202C60.4813 8.44448 61.0302 8.56875 61.6619 8.70338C66.3533 9.69758 75.0836 11.5306 81.4009 23.9167L81.4112 23.9581C81.7323 29.0948 78.5322 33.5687 75.1354 38.3015C73.033 41.2427 70.8479 44.2874 69.3669 47.6739C69.2012 48.461 69.0355 49.2791 68.8698 50.0869C67.9792 54.4469 67.2128 58.2165 65.8147 58.8275L65.8044 58.8586ZM45.4647 53.1316C52.362 53.1316 58.5964 55.6793 64.7066 58.1751L65.8044 58.6204C67.0678 57.9991 67.8549 54.1362 68.6938 50.0558C68.8595 49.248 69.0252 48.4299 69.2012 47.6221C70.7029 44.1942 72.8881 41.1391 75.0007 38.1876C78.3665 33.4858 81.5459 29.0534 81.2352 23.9995C74.9489 11.7378 66.6225 9.98756 61.6412 8.93122C60.9991 8.79659 60.4502 8.68267 59.9531 8.54804C53.8222 7.41921 48.6545 6.81855 43.4349 7.57455C41.6847 7.83346 39.7067 8.73445 37.6044 9.67687C35.005 10.8575 32.3227 12.0692 29.7129 12.2556C25.6222 13.6122 24.3484 15.4039 23.2196 16.9987C23.1264 17.1334 23.0331 17.2576 22.9399 17.3923C21.5833 20.3438 21.2415 23.3989 21.925 26.4229C22.4946 28.2352 23.1781 30.0269 23.8513 31.7667C25.1769 35.2361 26.5543 38.8297 27.1031 42.8065C27.7452 43.9456 28.1802 45.4577 28.6462 47.0525C29.5058 50.0351 30.4896 53.4112 33.1098 56.021C37.4904 53.9394 41.5812 53.1316 45.4647 53.1316Z" fill="#C8BCA8"/>
<path fill-rule="evenodd" clip-rule="evenodd" d="M33.5862 59.7285C38.1533 57.3051 49.5866 51.3088 64.8931 61.8204C65.328 59.3556 65.3695 56.8908 65.0277 54.4261C64.5928 48.5955 41.7469 41.4601 33.4619 54.3018L33.5862 59.7285Z" fill="url(#paint1_linear_302_6)"/>
<path d="M64.9345 61.9033L64.8724 61.8619C58.3169 57.3569 51.7096 55.3789 45.2163 55.9692C39.8518 56.4559 35.7921 58.61 33.6069 59.7699L33.5448 59.801V59.7285L33.4205 54.2915L33.4309 54.2811C35.6678 50.8221 39.0543 48.5645 43.5179 47.591C47.1736 46.7832 51.4404 46.9178 55.5311 47.9638C60.9785 49.3515 64.9035 52.0131 65.0795 54.4261C65.4213 56.8805 65.3799 59.3764 64.9449 61.8308L64.9345 61.9033ZM47.4636 55.7724C53.2217 55.7724 59.0626 57.7712 64.8621 61.7479C65.2763 59.3246 65.3177 56.8598 64.976 54.4364C64.7999 52.0959 60.8128 49.4033 55.4897 48.0467C51.4197 47.011 47.1633 46.8764 43.5179 47.6738C39.0854 48.6473 35.7093 50.8843 33.493 54.3122L33.6173 59.6456C35.8232 58.4754 39.8621 56.3523 45.1956 55.8656C45.9619 55.8035 46.7179 55.7724 47.4636 55.7724Z" fill="#C8BCA8"/>
<path fill-rule="evenodd" clip-rule="evenodd" d="M27.155 16.4605C26.4508 20.0127 29.599 31.2285 28.5427 37.1108C28.0042 34.0247 26.0365 27.9041 26.1194 24.4555C25.1666 22.3843 24.2138 19.8781 23.1678 18.9149C22.2254 18.0554 25.3323 12.929 27.155 16.4605Z" fill="url(#paint2_linear_302_6)"/>
<path d="M34.3318 52.5623C34.3214 52.5519 34.3214 52.5519 34.3214 52.5416C30.1789 47.6948 28.4702 39.3477 27.0306 32.3158C25.8915 26.7338 24.918 21.97 23.0331 20.4683L23.0228 20.458C22.7846 20.1473 22.65 19.7848 22.5982 19.4016C22.505 18.7388 22.6707 18.0139 23.0124 17.3407C23.3438 16.6676 23.8513 16.0669 24.4519 15.6527C24.8662 15.3627 25.3322 15.1763 25.8086 15.1141L25.819 15.2073C25.3529 15.2591 24.9076 15.4559 24.5037 15.7252C24.0584 16.3362 23.727 16.7297 23.3956 17.3822C22.4739 19.2256 24.3898 19.1324 25.1458 20.1369C27.0514 21.6696 27.2067 26.6924 28.3562 32.2951C29.7958 39.3167 30.2618 47.6534 34.3836 52.4794C34.3939 52.4898 34.3939 52.4898 34.3939 52.5001L34.3318 52.5623Z" fill="#A99675"/>
<path fill-rule="evenodd" clip-rule="evenodd" d="M34.1766 15.0106C33.4723 18.5628 35.2743 26.7132 34.2283 32.6059C33.6898 29.5197 31.7221 23.3992 31.805 19.9506C30.8522 17.8793 29.713 15.5181 29.0399 14.2961C28.4288 13.1983 31.5771 11.7174 34.1766 15.0106Z" fill="url(#paint3_linear_302_6)"/>
<path d="M32.7991 13.7678C31.8981 13.1568 31.5356 13.1878 30.7589 13.2914C30.4379 13.3328 30.1686 13.4364 29.9615 13.5814C29.7544 13.7264 29.6197 13.9335 29.5783 14.182C29.5369 14.5549 29.2883 14.617 29.6301 15.3005C31.9292 18.4177 33.6794 23.5855 34.1661 29.0847C34.7772 36.0544 33.9694 43.7802 38.5882 49.2482L38.5157 49.3104C33.8762 43.8112 33.1926 36.0751 32.5816 29.095C32.0949 23.6062 31.6496 18.5834 29.3712 15.4869C28.8948 14.8448 28.7498 14.3167 28.8223 13.9024C28.8741 13.6228 29.0191 13.4053 29.2469 13.2396C29.4644 13.0739 29.7544 12.9704 30.0961 12.9289C30.8936 12.8254 31.9395 13.0636 32.8612 13.6953L32.7991 13.7678Z" fill="#A99675"/>
<path d="M45.4751 8.77601C47.6084 12.3386 43.6834 28.37 42.9896 38.4466C42.9274 39.2958 35.4088 5.19275 45.4751 8.77601Z" fill="url(#paint4_linear_302_6)"/>
<path d="M44.574 47.3426C42.1403 41.0046 39.5305 30.0063 39.1266 21.3278C38.9713 17.9102 39.1473 14.8447 39.8205 12.5664C40.4936 10.2776 41.6639 8.78635 43.4762 8.51709C44.0665 8.42388 44.7293 8.47567 45.4646 8.66208L45.4336 8.75528C44.7086 8.56887 44.0355 8.72422 43.4555 8.81742C41.9435 9.15918 42.1196 10.112 41.1254 12.2557C40.4626 14.5237 40.0898 17.3302 40.3901 20.7478C41.6846 29.2088 43.2691 40.7457 44.6465 47.3115L44.574 47.3426Z" fill="#B5A584"/>
<path d="M51.6579 46.7937C51.5647 46.1102 51.4715 45.406 51.3679 44.6914C49.7834 33.2788 47.8468 19.3186 54.6405 9.28345L54.7233 9.33523C51.9375 16.7606 51.5647 30.8969 51.2333 35.464C51.0883 37.4317 51.3161 41.657 51.4715 44.6707C51.5647 45.3749 51.6682 46.0791 51.7615 46.773L51.6579 46.7937Z" fill="#CABB9C"/>
<path d="M59.0314 48.2643C59.2696 42.3509 59.9013 35.4329 60.4709 29.4367C61.9 21.8766 65.7422 18.3037 66.7468 10.6608L66.7675 10.5676C63.1014 16.5432 61.0612 23.0055 59.9945 29.4574C58.9382 35.9093 58.8553 42.3509 59.1349 48.2643H59.0314Z" fill="url(#paint5_linear_302_6)"/>
<path d="M76.8026 19.6396C73.7476 29.1259 70.0815 38.3947 66.3843 47.7775C66.4878 35.3604 73.1469 20.4059 76.8026 19.6396Z" fill="url(#paint6_linear_302_6)"/>
<path d="M64.634 51.9615C66.2496 50.2734 66.3635 47.6843 66.5085 44.681C66.6328 41.9056 66.7778 38.778 68.1344 35.6815C68.1655 35.5675 68.2276 35.3708 68.3001 35.1015C69.2011 31.9636 72.8051 19.3497 77.0097 19.5775L76.9994 19.6707C73.6957 19.5464 69.5015 32.0257 68.5073 35.1429C68.4348 35.4018 68.4141 35.5675 68.3726 35.6918V35.7022C67.192 38.778 67.1195 41.9159 66.726 44.681C66.5914 47.6947 66.3325 50.3045 64.6962 52.0132L64.634 51.9615Z" fill="#A99675"/>
<defs>
<linearGradient id="paint0_linear_302_6" x1="21.6201" y1="32.9915" x2="81.5033" y2="32.9915" gradientUnits="userSpaceOnUse">
<stop offset="0.0397" stop-color="#F9F9EC"/>
<stop offset="0.4183" stop-color="#F9F9EC"/>
<stop offset="0.4932" stop-color="#F3F1E2"/>
<stop offset="0.6217" stop-color="#E4DDC6"/>
<stop offset="0.7873" stop-color="#CCBC9A"/>
<stop offset="0.7969" stop-color="#CABA97"/>
<stop offset="1" stop-color="#BAA685"/>
</linearGradient>
<linearGradient id="paint1_linear_302_6" x1="33.4609" y1="54.4691" x2="65.2592" y2="54.4691" gradientUnits="userSpaceOnUse">
<stop stop-color="#F9F9EC"/>
<stop offset="0.0526" stop-color="#F9F9EC"/>
<stop offset="0.3844" stop-color="#F9F9EC"/>
<stop offset="0.5145" stop-color="#F5F4E5"/>
<stop offset="0.7094" stop-color="#EAE5D0"/>
<stop offset="0.9441" stop-color="#D9CCAF"/>
<stop offset="0.9987" stop-color="#D4C6A6"/>
</linearGradient>
<linearGradient id="paint2_linear_302_6" x1="22.9938" y1="26.1784" x2="28.7625" y2="26.1784" gradientUnits="userSpaceOnUse">
<stop stop-color="#E8DBCA"/>
<stop offset="1" stop-color="#F2ECDE"/>
</linearGradient>
<linearGradient id="paint3_linear_302_6" x1="31.5274" y1="19.9125" x2="34.6942" y2="24.5337" gradientUnits="userSpaceOnUse">
<stop stop-color="#ECE1D1"/>
<stop offset="0.4318" stop-color="#EEE6D9"/>
<stop offset="1" stop-color="#EFE9DE"/>
</linearGradient>
<linearGradient id="paint4_linear_302_6" x1="40.2331" y1="23.4892" x2="46.099" y2="23.4892" gradientUnits="userSpaceOnUse">
<stop stop-color="#ECE1D1"/>
<stop offset="1" stop-color="#EDE4D5"/>
</linearGradient>
<linearGradient id="paint5_linear_302_6" x1="62.9298" y1="23.096" x2="62.7778" y2="30.851" gradientUnits="userSpaceOnUse">
<stop stop-color="#BAA68A"/>
<stop offset="1" stop-color="#C7BAA0"/>
</linearGradient>
<linearGradient id="paint6_linear_302_6" x1="66.3866" y1="33.7086" x2="76.8014" y2="33.7086" gradientUnits="userSpaceOnUse">
<stop stop-color="#BDAE99"/>
<stop offset="0.2551" stop-color="#BFB19C"/>
<stop offset="1" stop-color="#C2B5A1"/>
</linearGradient>
</defs>
</svg>
