<svg width="100" height="100" viewBox="0 0 100 100" fill="none" xmlns="http://www.w3.org/2000/svg">
<rect width="100" height="100" rx="24" fill="white"/>
<path d="M37.0664 91.9681C31.6133 89.559 27.908 84.3688 27.4219 78.4243C27.7406 72.3098 30.9705 66.7213 36.0996 63.3878C35.2576 65.441 35.4621 67.7784 36.6308 69.6563C37.9616 71.5156 40.2512 72.4081 42.493 71.9433C45.6857 71.0455 47.5556 67.7306 46.6579 64.5352C46.3391 63.417 45.7016 62.4023 44.8304 61.6374C41.218 58.6996 39.4039 54.0832 40.0493 49.4695C40.6682 47.0258 42.0202 44.8158 43.93 43.1478C42.4956 46.9727 46.541 50.7471 49.2556 52.6037C54.0739 55.4936 58.7115 58.6704 63.1526 62.1155C68.0055 65.9403 70.651 71.9273 70.2366 78.0525C69.145 84.5707 64.5339 89.9521 58.2494 91.9708C70.821 89.1738 83.7831 79.1866 84.0301 65.0213C83.7831 53.6874 77.0178 43.517 66.6774 38.8846H66.2179C66.4463 39.4398 66.5578 40.0374 66.5366 40.6404C66.5711 40.2499 66.5711 39.8621 66.5366 39.4716C66.5924 39.9312 66.5924 40.3933 66.5366 40.8528C65.7504 44.0748 62.4992 46.0589 59.2693 45.2727C57.9784 44.954 56.8257 44.2288 55.9969 43.1823C51.8533 37.87 55.9969 31.8245 56.6902 25.981C57.1152 18.5092 53.702 11.3667 47.6459 7C50.6766 12.052 46.6393 18.6871 43.7042 22.4615C40.7638 26.236 36.514 29.0488 33.0503 32.3425C29.3184 35.8141 25.8973 39.631 22.8267 43.7109C16.189 51.8202 13.5833 62.5165 15.7427 72.7693C18.7044 82.6503 26.9172 90.0743 37.0452 92H37.101L37.0664 91.9681Z" fill="#DD4814"/>
</svg>
