<svg width="100" height="100" viewBox="0 0 100 100" fill="none" xmlns="http://www.w3.org/2000/svg">
<rect width="100" height="100" rx="24" fill="black"/>
<path d="M14.5564 43.5853C14.5714 43.6754 14.5263 43.7506 14.3761 43.8257C14.1808 43.7205 13.7601 43.6604 13.4145 43.6905C13.0389 43.7205 12.7234 43.8407 12.7684 44.0961C12.8285 44.3516 13.1891 44.5018 13.8352 44.4417C15.4128 44.3065 15.3977 43.2397 17.7115 43.0294C19.5145 42.8641 20.5211 43.42 20.6564 44.0961C20.7615 44.622 20.3258 45.1328 19.0187 45.238C17.8618 45.3432 17.1857 45.0277 17.1256 44.7121C17.0955 44.5469 17.1857 44.3065 17.7416 44.2464C17.8017 44.5018 18.1172 44.7722 18.8684 44.6971C19.4093 44.652 19.8601 44.4567 19.8 44.1562C19.7399 43.8407 19.1689 43.6604 18.2675 43.7355C16.4344 43.9008 15.9837 44.9075 14.4211 45.0427C13.3093 45.1479 12.4078 44.7422 12.2876 44.1412C12.2426 43.9158 12.2426 43.39 13.4145 43.2848C14.0155 43.2397 14.4963 43.3449 14.5564 43.5853ZM8.69676 49.8656C8.18592 50.5117 7.96055 51.2629 8.00563 51.9991C8.0507 52.7353 8.41129 53.3363 8.98223 53.802C9.58321 54.2678 10.2293 54.403 10.9655 54.2678C11.2509 54.2227 11.5665 54.0725 11.8519 53.9823C11.2509 53.9823 10.7401 53.787 10.2293 53.3814C9.67336 52.9757 9.29774 52.4048 9.2076 51.7136C9.07237 51.0676 9.2076 50.4666 9.56819 49.9407C9.97385 49.4299 10.4997 49.1444 11.1908 49.0543C11.882 49.0092 12.483 49.1895 13.084 49.6102C12.9487 49.4149 12.7534 49.2796 12.5731 49.0993C11.9721 48.6937 11.3261 48.4984 10.5298 48.6937C9.80858 48.8439 9.2076 49.2195 8.69676 49.8656ZM16.75 46.3949C14.8118 46.3949 13.084 46.1996 11.8369 45.9291C10.4997 45.5986 9.79356 45.238 9.79356 44.7722C9.79356 44.5769 9.88371 44.4116 10.1541 44.2163C9.31277 44.5469 8.86203 44.8173 8.86203 45.238C8.9071 45.7038 9.65834 46.1695 11.1908 46.5301C12.6332 46.8907 14.4812 47.086 16.7049 47.086C18.9736 47.086 20.7766 46.8907 22.2189 46.5301C23.7514 46.1695 24.4877 45.6887 24.4877 45.238C24.4877 44.9075 24.1571 44.5919 23.5561 44.3516C23.6913 44.4417 23.7965 44.5919 23.7965 44.7572C23.7965 45.223 23.1054 45.5986 21.7081 45.9141C20.416 46.1996 18.7633 46.3949 16.75 46.3949ZM22.279 47.687C20.8367 48.0176 18.9886 48.2429 16.765 48.2429C14.4963 48.2429 12.6482 48.0025 11.2059 47.687C9.91375 47.3565 9.22262 46.9959 8.98223 46.6203C9.22262 48.2429 9.77853 49.7754 10.5147 51.1277C11.0707 51.969 11.6266 52.7053 12.1825 53.5016C12.4229 53.9673 12.5881 54.4331 12.6933 54.8988C13.0539 55.4097 13.5798 55.7402 14.2258 55.9205C15.0221 56.206 15.8485 56.3262 16.6899 56.2811H16.78C17.6214 56.3262 18.5078 56.191 19.3192 55.9205C19.9202 55.7252 20.431 55.4097 20.8066 54.8988H20.8517C20.9418 54.4331 21.0921 53.9673 21.3175 53.5016C21.8734 52.7053 22.4293 51.969 22.9852 51.1277C23.7214 49.7905 24.2322 48.258 24.5177 46.6203C24.2172 47.041 23.5261 47.4016 22.279 47.687ZM38.2352 52.2094C37.514 54.0274 35.5909 54.7486 34.3438 54.7486C32.3305 54.7486 31.3539 53.8471 31.3539 51.3981C31.3539 48.919 32.5409 44.2915 36.1167 44.2915C37.3938 44.2915 38.4005 44.7873 38.4005 46.1094C38.4005 46.8306 38.13 47.3565 37.4389 47.3565C37.2135 47.3565 36.9281 47.2964 36.6576 46.9959C36.9882 46.8306 37.2886 46.2597 37.2886 45.7488C37.2886 45.3131 37.0633 44.9075 36.4473 44.9075C34.9448 44.9075 33.6076 48.4983 33.6076 51.2779C33.6076 52.525 33.9382 53.4114 35.2453 53.4114C36.312 53.4114 37.2736 52.9006 37.9047 52.0442L38.2352 52.2094ZM43.1783 49.7604C43.2384 49.7905 43.2835 49.7905 43.3285 49.7905C43.9596 49.7905 44.846 49.3848 45.432 48.9641L45.5522 49.3247C45.0414 49.8806 44.1249 50.3013 43.1332 50.4516C42.9079 52.9757 41.5406 54.5533 39.8729 54.5533C38.6108 54.5533 37.6943 53.9523 37.6943 52.3897C37.6943 50.8121 38.6258 47.5518 41.4354 47.5518C42.6074 47.5969 43.1783 48.3481 43.1783 49.7604ZM42.0214 50.5117C41.7359 50.4365 41.6608 50.2112 41.6608 49.9407C41.6608 49.5651 41.8411 49.3097 42.0815 49.2045C42.0515 48.6336 41.9162 48.4082 41.5707 48.4082C40.5941 48.4082 39.7677 50.9023 39.7677 52.2545C39.7677 53.156 39.948 53.3513 40.4588 53.3513C41.0899 53.3663 41.796 52.1493 42.0214 50.5117ZM41.0298 56.4764C41.0298 55.2294 42.0965 54.8237 43.4037 54.4331L45.0414 46.6353C45.447 44.6821 46.634 44.3065 47.5204 44.3065C48.1364 44.3065 48.7224 44.637 48.9778 45.1629C49.5187 44.4717 50.2399 44.3065 50.8409 44.3065C51.6823 44.3065 52.4635 44.8924 52.4635 45.7789C52.4635 46.0043 52.4485 46.1695 52.4185 46.3348H51.7724C51.7874 46.1996 51.8024 46.0794 51.8024 45.9742C51.8024 45.6587 51.547 45.5084 51.2916 45.5084C50.9911 45.5084 50.5704 45.6737 50.3601 46.5752L50.1047 47.687H51.4719L51.3517 48.2279H49.9995L48.452 55.605C48.0463 57.5582 46.8593 57.9338 45.9729 57.9338C45.1916 57.9338 44.7258 57.5883 44.5005 57.0774C43.9746 57.7686 43.2534 57.9338 42.6524 57.9338C41.8111 57.9488 41.0298 57.3629 41.0298 56.4764ZM42.397 56.7469C42.6825 56.7469 43.0281 56.4764 43.2084 55.6801L43.3736 54.8838C42.5172 55.1843 41.8561 55.5449 41.8561 56.2961C41.8561 56.4764 42.1116 56.7469 42.397 56.7469ZM45.6574 56.7469C45.9428 56.7469 46.2884 56.4764 46.4687 55.6801L46.7992 54.1176L45.3869 54.388L45.1165 55.6351C45.0414 55.9506 44.9512 56.236 44.846 56.4764C44.9813 56.6718 45.2968 56.7469 45.6574 56.7469ZM45.447 54.0424L46.8593 53.787L48.0162 48.258H46.664L45.447 54.0424ZM47.9411 45.5235C47.6406 45.5235 47.2199 45.6887 47.0096 46.5902L46.7542 47.702H48.1064L48.4219 46.2747C48.452 46.1695 48.452 46.0794 48.452 45.9742C48.467 45.6737 48.2266 45.5235 47.9411 45.5235ZM53.6354 53.4865C54.7022 53.4865 55.3783 52.8855 56.0544 52.1043H56.5202C55.7389 53.3513 54.582 54.6284 52.764 54.6284C51.4869 54.6284 50.6305 53.9974 50.6305 52.4498C50.6305 50.8722 51.517 47.5969 54.3266 47.5969C55.5436 47.5969 55.829 48.2279 55.829 48.904C55.829 50.4816 54.3266 51.6836 52.6889 51.7887C52.6739 51.9841 52.6588 52.1644 52.6588 52.3296C52.6588 53.2612 52.9894 53.4865 53.6354 53.4865ZM54.4318 48.3181C53.7406 48.3181 53.0645 49.7754 52.7941 51.1277C53.8458 51.0525 54.7773 50.0158 54.7773 48.874C54.7773 48.5434 54.7022 48.3181 54.4318 48.3181ZM58.7288 53.3363C59.2396 53.3363 59.9007 52.9907 60.3515 52.6151C60.051 54.1777 59.0894 54.6284 57.9776 54.6284C56.7155 54.6284 55.8591 53.9974 55.8591 52.4498C55.8591 50.8722 56.7456 47.5969 59.5552 47.5969C60.7722 47.5969 61.0576 48.2279 61.0576 48.904C61.0576 50.4966 59.5552 51.6836 57.9175 51.7887C57.9024 51.924 57.8874 52.0892 57.8874 52.1944C57.8874 53.0508 58.263 53.3363 58.7288 53.3363ZM59.6603 48.3181C58.9842 48.3181 58.2931 49.8355 58.0076 51.1277C59.0744 51.0676 60.0059 50.0309 60.0059 48.874C60.0059 48.5434 59.9157 48.3181 59.6603 48.3181ZM67.368 47.3114C67.1126 47.3114 66.9172 47.2213 66.7369 47.0259C67.0975 46.8006 67.3529 46.3048 67.3529 45.854C67.3529 45.3883 67.0825 44.9375 66.3313 44.9375C65.58 44.9375 65.0842 45.3582 65.0842 46.1695C65.0842 48.1678 68.1643 48.4533 68.1643 51.3981C68.1643 53.6969 66.3162 54.8087 64.318 54.8087C62.7554 54.8087 61.4182 54.1326 61.4182 52.4498C61.4182 50.9774 62.4699 50.2112 63.4165 50.2112C63.8823 50.2112 64.5734 50.4065 64.6185 51.1126C63.8823 51.1126 63.0108 51.4582 63.0108 52.3897C63.0108 53.0658 63.4465 53.6969 64.318 53.6969C65.2345 53.6969 65.9106 53.0358 65.9106 51.8939C65.9106 49.5501 63.116 48.7237 63.116 46.7104C63.116 45.2831 64.5133 44.2614 66.2712 44.2614C66.9172 44.2614 68.4648 44.3966 68.4648 45.8991C68.4798 46.7254 68.0441 47.3114 67.368 47.3114ZM72.8069 48.8589C72.8069 48.5134 72.6867 48.303 72.4313 48.303C71.5749 48.303 70.6734 50.7971 70.6734 52.3146C70.6734 53.2461 71.0039 53.4565 71.665 53.4565C72.7318 53.4565 73.4079 52.8555 74.084 52.0742H74.5498C73.7685 53.3213 72.6116 54.5984 70.7936 54.5984C69.5165 54.5984 68.6601 53.9673 68.6601 52.4198C68.6601 50.8272 69.5616 47.5668 72.3411 47.5668C73.5581 47.5668 73.8586 48.1979 73.8586 48.8139C73.8586 49.475 73.5281 49.8205 73.1374 49.8205C72.9872 49.8205 72.8219 49.7604 72.6717 49.6552C72.7468 49.3698 72.8069 49.1144 72.8069 48.8589ZM76.9687 47.7171L76.7884 48.5735C77.2542 48.1678 77.7951 47.7171 78.4411 47.7171C79.0571 47.7171 79.3877 48.2129 79.3877 48.7538C79.3877 49.2195 79.0722 49.7604 78.3961 49.7604C77.6298 49.7604 78.0204 48.8589 77.5997 48.8589C77.1941 48.8589 76.9387 49.0693 76.5931 49.3698L75.5113 54.5683H73.5431L74.9855 47.7471L76.9687 47.7171ZM82.1071 47.7171L81.1155 52.3597C81.0704 52.54 81.0554 52.6752 81.0554 52.7954C81.0554 53.171 81.2357 53.2912 81.6113 53.2912C82.1372 53.2912 82.648 52.7804 82.8283 52.0892H83.3993C82.618 54.3129 81.2658 54.6134 80.5295 54.6134C79.7032 54.6134 79.0722 54.1326 79.0722 52.9757C79.0722 52.7053 79.1172 52.4198 79.1773 52.0892L80.1089 47.702L82.1071 47.7171ZM81.4911 44.8023C82.0921 44.8023 82.5729 45.2831 82.5729 45.8841C82.5729 46.485 82.0921 46.9508 81.4911 46.9508C80.8901 46.9508 80.4244 46.485 80.4244 45.8841C80.4094 45.2831 80.9052 44.8023 81.4911 44.8023ZM85.8633 47.2062L85.6379 48.2429C86.0286 47.8974 86.5544 47.657 87.2456 47.657C88.1771 47.657 88.9133 48.1828 88.9133 49.8205C88.9133 51.6535 88.2071 54.6434 85.5628 54.6434C84.8867 54.6434 84.5411 54.403 84.4059 54.1626L83.6998 57.4831L81.6414 57.9639L83.9251 47.2213L85.8633 47.2062ZM87.0352 49.7604C87.0352 48.7087 86.5995 48.6336 86.3591 48.6336C86.0586 48.6336 85.683 48.874 85.4126 49.2947L84.6012 53.1259C84.6613 53.2762 84.8116 53.4415 85.1121 53.4415C86.5695 53.4415 87.0352 51.0525 87.0352 49.7604ZM91.2121 52.3597C91.167 52.525 91.137 52.6902 91.137 52.8254C91.137 53.1109 91.2421 53.3062 91.6027 53.3062C91.7079 53.3062 91.8581 53.3062 91.9633 53.2612C91.5877 54.4331 90.9717 54.5984 90.5209 54.5984C89.5594 54.5984 89.1537 53.9373 89.1537 53.0508C89.1537 52.8104 89.1837 52.5851 89.2438 52.3296L90.1153 48.2429H89.6645L89.7697 47.702H90.2204L90.6261 45.824L92.6394 45.5385C92.6394 45.5385 92.4291 46.47 92.1736 47.702H93L92.8948 48.2429H92.0685L91.2121 52.3597Z" fill="white"/>
</svg>
