<svg width="100" height="100" viewBox="0 0 100 100" fill="none" xmlns="http://www.w3.org/2000/svg">
<rect width="100" height="100" rx="24" fill="#17181B"/>
<path d="M80.8196 57.7899C80.1568 58.2466 79.3831 58.5161 78.5799 58.57C77.7768 58.6239 76.974 58.4603 76.2561 58.0963C74.5707 57.1442 73.6624 54.9117 73.6624 51.8693V42.5453C73.6624 38.0693 71.8895 34.8846 68.9238 34.0201C63.9115 32.5536 60.1688 38.6931 58.7242 41.0022L49.8598 55.3494V37.8395C49.7613 33.8012 48.448 31.3826 45.9638 30.6604C44.3223 30.1788 41.8599 30.3758 39.4632 34.031L19.6441 65.8445C17.0071 60.7993 15.6398 55.1873 15.6606 49.4945C15.6606 30.3211 30.9818 14.7263 49.8598 14.7263C68.7377 14.7263 84.1137 30.3211 84.1137 49.4945V49.593C84.1137 49.593 84.1137 49.6587 84.1137 49.6915C84.2997 53.4014 83.0959 56.3563 80.8306 57.7899H80.8196ZM91.7634 49.5055V49.3194C91.6101 25.9545 72.8745 7 49.8598 7C26.8451 7 8 26.064 8 49.4945C8 72.9251 26.7795 92 49.8598 92C60.4454 91.9995 70.6283 87.942 78.3135 80.6623C79.0595 79.9595 79.4985 78.991 79.5353 77.9668C79.5722 76.9426 79.204 75.9451 78.5105 75.1904C78.1786 74.8233 77.7774 74.5255 77.33 74.3141C76.8826 74.1026 76.3978 73.9817 75.9035 73.9583C75.4092 73.9349 74.9152 74.0095 74.4498 74.1778C73.9844 74.346 73.5569 74.6046 73.1918 74.9387C69.8831 78.0773 65.9743 80.5149 61.7001 82.1052C57.4258 83.6955 52.8743 84.4056 48.3187 84.193C43.7632 83.9804 39.2976 82.8495 35.19 80.868C31.0824 78.8866 27.4176 76.0955 24.4156 72.6624L42.2539 43.9898V57.2208C42.2539 63.5791 44.7162 65.6365 46.7846 66.2384C48.853 66.8404 52.0157 66.4245 55.3317 61.0402L65.181 45.0951C65.4874 44.5808 65.7829 44.143 66.0456 43.76V51.8693C66.0456 57.8118 68.4313 62.5614 72.6118 64.9033C74.5127 65.9295 76.6548 66.4253 78.8133 66.3386C80.9718 66.252 83.0672 65.5861 84.8797 64.4108C89.4761 61.4232 91.9822 56.017 91.7196 49.5055H91.7634Z" fill="white"/>
</svg>
