<svg width="100" height="100" viewBox="0 0 100 100" fill="none" xmlns="http://www.w3.org/2000/svg">
<rect width="100" height="100" rx="24" fill="#0056D2"/>
<path d="M18.7545 49.9996C18.7545 46.726 21.4498 44.0786 24.8197 44.0786C28.2133 44.0786 30.9093 46.7275 30.9093 49.9996C30.9093 53.2489 28.2133 55.9449 24.8197 55.9449C21.4498 55.9449 18.7545 53.246 18.7545 49.9996ZM27.9969 49.9996C27.9969 48.3632 26.5768 46.9188 24.8197 46.9188C23.0869 46.9188 21.6668 48.3632 21.6668 49.9996C21.6668 51.6603 23.0869 53.1047 24.8197 53.1047C26.5798 53.1047 27.9969 51.6603 27.9969 49.9996Z" fill="white"/>
<path d="M79.9174 50.096C79.9174 46.5097 82.8297 44.0786 85.4778 44.0786C87.2827 44.0786 88.318 44.6319 89.0156 45.6915L89.293 44.2935H92V55.7279H89.293L88.9435 54.5506C88.1495 55.4173 87.1621 55.9486 85.4778 55.9486C82.8782 55.9449 79.9174 53.658 79.9174 50.096ZM89.1598 50.0717C89.1566 49.2326 88.8201 48.4291 88.2245 47.838C87.6289 47.247 86.8228 46.9167 85.9837 46.9199C85.1446 46.9231 84.3411 47.2596 83.75 47.8552C83.1589 48.4508 82.8287 49.2569 82.8319 50.096C82.8319 51.6846 84.252 53.1047 85.9855 53.1047C87.7404 53.1047 89.1598 51.6846 89.1598 50.0717Z" fill="white"/>
<path d="M76.5908 45.6187V44.2943H73.6306V55.7279H76.5908V49.5671C76.5908 47.7136 77.5061 46.7511 79.0925 46.7511C79.1977 46.7511 79.2978 46.7585 79.3956 46.7681L79.9445 44.0081C78.4016 44.0162 77.2832 44.5452 76.5908 45.6187Z" fill="white"/>
<path d="M46.8445 45.6195V44.2951L43.8844 44.3017L43.9094 55.7339L46.8696 55.7272L46.8534 49.5671C46.849 47.7143 47.7621 46.7497 49.3499 46.746C49.4512 46.7463 49.5524 46.752 49.6531 46.7629L50.1991 44C48.6539 44.0125 47.534 44.5438 46.8445 45.6195Z" fill="white"/>
<path d="M31.9349 51.2993V44.2952H34.8943V50.9387C34.8943 52.4067 35.7126 53.2734 37.1327 53.2734C38.7213 53.2734 39.6344 52.3103 39.6344 50.4568V44.2952H42.5953V55.7281H39.6366V54.4036C38.9391 55.4867 37.8074 56.0165 36.2431 56.0165C33.5956 56.0172 31.9349 54.0917 31.9349 51.2993Z" fill="white"/>
<path d="M60.7593 50.0129C60.7659 46.8114 63.0572 44.072 66.6913 44.0786C70.0613 44.0852 72.4387 46.7849 72.4306 49.9651C72.4312 50.2795 72.4066 50.5934 72.357 50.9039L63.6444 50.8877C63.9784 52.26 65.1079 53.2489 66.8172 53.2526C67.8517 53.2526 68.9598 52.8715 69.6353 52.0062L71.6543 53.6249C70.6161 55.0914 68.7847 55.9545 66.8363 55.9508C63.3964 55.939 60.7534 53.3586 60.7593 50.0129ZM69.4506 48.8253C69.2843 47.6701 68.0827 46.7768 66.6626 46.7746C65.2904 46.7746 64.1822 47.5884 63.7466 48.815L69.4506 48.8253Z" fill="white"/>
<path d="M50.2167 53.2358L52.8479 51.8584C53.2828 52.8009 54.1525 53.3564 55.385 53.3564C56.5203 53.3564 56.9552 52.9944 56.9552 52.4867C56.9552 50.6472 50.7222 51.762 50.7222 47.5568C50.7222 45.2376 52.7515 44.0059 55.2636 44.0059C57.1722 44.0059 58.8631 44.8513 59.7814 46.4215L57.1737 47.8011C56.7874 47.0278 56.0626 46.5929 55.1444 46.5929C54.2511 46.5929 53.8155 46.9071 53.8155 47.4384C53.8155 49.2264 60.0485 48.091 60.0485 52.3683C60.0485 54.5911 58.2369 55.9435 55.3136 55.9435C52.8251 55.9413 51.0857 55.1202 50.2167 53.2358Z" fill="white"/>
<path d="M7 49.9996C7 46.7025 9.69525 44.0543 13.0652 44.0543C14.0785 44.0472 15.0776 44.2924 15.9725 44.7676C16.8674 45.2429 17.63 45.9334 18.1916 46.7768L15.6648 48.2425C15.3725 47.8248 14.9833 47.4839 14.5306 47.2492C14.0779 47.0145 13.5752 46.8928 13.0652 46.8945C11.3324 46.8945 9.91231 48.3389 9.91231 49.9996C9.91231 51.6603 11.3324 53.1047 13.0652 53.1047C13.5992 53.1082 14.1251 52.9748 14.5929 52.7171C15.0606 52.4595 15.4545 52.0863 15.7369 51.6331L18.2387 53.1253C17.6839 53.9934 16.9185 54.707 16.0136 55.1995C15.1088 55.692 14.094 55.9475 13.0638 55.942C9.69525 55.9449 7 53.246 7 49.9996Z" fill="white"/>
</svg>
