<svg width="100" height="100" viewBox="0 0 100 100" fill="none" xmlns="http://www.w3.org/2000/svg">
<rect width="100" height="100" rx="24" fill="black"/>
<path d="M85.9445 25.9728C78.8371 15.2834 67.3304 8.41818 54.4897 7.20348C41.3135 5.95691 28.9267 10.474 20.0526 19.7631C14.6418 25.4272 11.1084 31.7437 9.03668 39.4604C8.11988 42.8703 7.99164 44.1352 8.0004 49.6209C8.00837 55.0938 8.14537 56.3961 9.08049 59.9271C13.1635 75.3272 25.1799 87.1476 40.6699 91.0028C42.0033 91.335 43.641 91.6823 44.3077 91.7747C47.2588 92.1833 54.398 92.012 57.5778 91.456C70.6687 89.174 82.2996 80.7276 88.2687 69.1692C95.2351 55.684 94.3128 38.5571 85.9445 25.9728ZM84.2057 58.5627C80.7854 71.2378 70.3788 80.91 57.244 83.6206C36.7661 87.8478 16.8124 72.3537 15.5403 51.237C14.7175 37.5981 22.9751 23.9138 35.6534 17.9064C40.4541 15.6315 44.3196 14.7991 50.1693 14.7792C55.796 14.7617 58.9183 15.3376 63.8273 17.3026C73.6819 21.2494 81.4059 30.1849 84.2471 40.9252C85.4355 45.4184 85.4148 54.0806 84.2057 58.5627Z" fill="white"/>
<path d="M33.753 61.9019C29.8787 60.5279 26.9069 56.4958 26.3843 51.8999C25.6069 45.088 28.1701 39.7991 33.3954 37.4254C36.227 36.1406 41.3702 36.1701 44.4256 37.4907C46.2808 38.2928 49.7664 41.4407 49.7664 42.3153C49.7664 42.4587 48.562 43.1692 47.0924 43.894L44.4177 45.2123L42.9903 43.7849C42.1938 42.9884 40.9759 42.2468 40.2351 42.109C38.3983 41.7625 36.1991 42.5813 35.2043 43.9784C33.5594 46.29 33.4455 52.3332 35.0035 54.7116C35.812 55.9454 37.1701 56.8105 38.4509 56.9084C41.144 57.1155 41.8234 56.883 43.4165 55.2071L45.0238 53.5184L47.094 54.6575C48.2323 55.2843 49.3283 55.9454 49.5298 56.1278C50.2283 56.7571 47.0255 60.0261 44.4487 61.3132C42.2591 62.4077 41.5693 62.5542 38.6907 62.5248C36.8873 62.5056 34.6674 62.2261 33.753 61.9019Z" fill="white"/>
<path d="M58.4094 61.9018C54.5893 60.5469 51.6676 56.6415 51.04 52.0496C50.1295 45.397 52.8114 39.8062 58.0518 37.4269C61.0921 36.0466 66.248 36.1517 69.3298 37.6603C71.2375 38.5931 74.4228 41.5211 74.4228 42.3407C74.4228 42.4801 73.1746 43.1986 71.6469 43.937L68.8718 45.2807L67.4349 43.7123C66.1429 42.3017 65.7988 42.144 64.0289 42.144C61.5923 42.144 60.0248 43.1014 59.1789 45.1063C58.4222 46.9 58.3266 51.2977 59.0004 53.3017C60.3729 57.3751 65.3798 58.3405 68.2218 55.0796L69.4995 53.6139L71.9615 54.8581C73.3156 55.5407 74.4236 56.2162 74.4236 56.3572C74.4236 57.2812 71.2423 60.245 69.102 61.314C66.9115 62.4084 66.2225 62.555 63.3439 62.5255C61.5445 62.5056 59.3246 62.226 58.4094 61.9018Z" fill="white"/>
</svg>
