<svg width="100" height="100" viewBox="0 0 100 100" fill="none" xmlns="http://www.w3.org/2000/svg">
<rect width="100" height="100" rx="24" fill="#FC0000"/>
<path fill-rule="evenodd" clip-rule="evenodd" d="M18.5842 49.2859V49.1343L17.3008 48.0296H17.1512C16.7983 48.4196 16.2533 48.7118 15.6437 48.7118C14.6921 48.7118 13.9432 47.9862 13.9432 46.9901C13.9432 45.994 14.6921 45.2684 15.6437 45.2684C16.2533 45.2684 16.7983 45.5606 17.1512 45.9505H17.3008L18.5842 44.8458V44.6943C17.9104 43.8715 16.8521 43.3408 15.6541 43.3408C13.4516 43.3408 11.7837 44.9001 11.7837 46.9901C11.7837 47.071 11.802 47.1456 11.8074 47.2251C12.7087 47.8381 13.5044 48.3288 14.1896 48.778C15.1773 49.4029 15.9745 49.9779 16.631 50.5125C17.4494 50.3057 18.1128 49.857 18.5842 49.2859ZM12.5868 49.2469C13.1011 49.8787 13.8272 50.3318 14.6837 50.5253C14.1051 50.2001 13.5449 49.8807 13.0232 49.5273C12.8701 49.4325 12.7339 49.3407 12.5868 49.2469Z" fill="white"/>
<path fill-rule="evenodd" clip-rule="evenodd" d="M26.0131 50.1743L25.6923 48.7883L25.5748 48.7122C25.5106 48.7448 25.4573 48.7883 25.2969 48.7883C25.0506 48.7883 24.901 48.5281 24.7727 48.3228C24.5589 47.9975 24.3876 47.8242 24.2381 47.7487C25.0185 47.4022 25.5427 46.7526 25.5427 45.8212C25.5427 44.3808 24.5589 43.4711 22.7306 43.4711H19.5438V50.51H21.6609V48.0409H21.8534C22.3238 48.0409 22.9231 49.0588 23.201 49.5139C23.7785 50.4345 24.2381 50.6398 25.0614 50.6398C25.4464 50.6398 25.7673 50.4991 25.9598 50.3259L26.0131 50.1743ZM23.3826 45.9401C23.3826 46.4061 23.0406 46.6331 22.6447 46.6331H21.6609V45.2036H22.6447C23.0406 45.2036 23.3826 45.4638 23.3826 45.9401Z" fill="white"/>
<path fill-rule="evenodd" clip-rule="evenodd" d="M34.1922 46.9925C34.1922 44.9026 32.5243 43.3433 30.311 43.3433C28.0971 43.3433 26.4292 44.9026 26.4292 46.9925C26.4292 49.0825 28.0971 50.6418 30.311 50.6418C32.5243 50.6418 34.1922 49.0716 34.1922 46.9925ZM32.0322 46.9925C32.0322 47.9995 31.2622 48.7143 30.311 48.7143C29.3593 48.7143 28.5892 47.9995 28.5892 46.9925C28.5892 45.9856 29.3593 45.2708 30.311 45.2708C31.2622 45.2708 32.0322 45.9856 32.0322 46.9925Z" fill="white"/>
<path fill-rule="evenodd" clip-rule="evenodd" d="M38.9112 43.4731L37.5932 47.3475L36.3444 43.4731H34.3206L34.2268 43.6355L36.8133 50.5116H38.0967L39.5529 46.6762L41.014 50.5116H42.2974L44.8888 43.6355L44.7901 43.4731H42.7712L41.5175 47.3722L40.1946 43.4731H38.9112Z" fill="white"/>
<path fill-rule="evenodd" clip-rule="evenodd" d="M52.6386 46.9822C52.6386 44.8814 51.2377 43.4736 48.9602 43.4736H45.7201V50.5125H48.9602C51.2377 50.5125 52.6386 49.1048 52.6386 46.9822ZM50.4785 46.9931C50.4785 48.1407 49.8047 48.78 48.8748 48.78H47.8372V45.2062H48.8748C49.8047 45.2062 50.4785 45.8454 50.4785 46.9931Z" fill="white"/>
<path fill-rule="evenodd" clip-rule="evenodd" d="M59.6428 45.2057H61.716V50.5116H63.8385V45.2057H65.9611V43.4731H59.6428V45.2057Z" fill="white"/>
<path fill-rule="evenodd" clip-rule="evenodd" d="M72.7236 45.8227C72.7236 44.3824 71.7398 43.4727 69.9115 43.4727H66.7247V50.5116H68.8423V48.0425H69.3448L70.6598 50.5116H72.7665L72.8628 50.3492L71.4511 47.7394C72.2102 47.3821 72.7236 46.7433 72.7236 45.8227ZM70.5636 45.9417C70.5636 46.4077 70.2215 46.6347 69.8256 46.6347H68.8423V45.2052H69.8256C70.2215 45.2052 70.5636 45.4654 70.5636 45.9417Z" fill="white"/>
<path fill-rule="evenodd" clip-rule="evenodd" d="M74.007 50.5116H76.1295V43.4731H74.007V50.5116Z" fill="white"/>
<path fill-rule="evenodd" clip-rule="evenodd" d="M79.5848 45.9748V43.4731H77.4623V50.5116H79.5848V48.3446L79.9797 47.8905L81.7567 50.5116H83.978L84.0767 50.3487L81.5099 46.6219L83.8792 43.6355L83.8299 43.4731H81.5593L79.5848 45.9748Z" fill="white"/>
<path fill-rule="evenodd" clip-rule="evenodd" d="M86.7915 48.779V47.8066H89.2102V46.1801H86.7915V45.2057H89.9506V43.4727H84.6689V50.5116H90V48.779H86.7915Z" fill="white"/>
<path fill-rule="evenodd" clip-rule="evenodd" d="M56.237 50.5938C57.7879 50.5938 59.134 49.8361 59.134 48.375C59.134 46.7826 57.7771 46.371 56.5796 46.0245C56.1086 45.8838 55.6269 45.7209 55.6269 45.3744C55.6269 45.1251 55.8944 44.9736 56.3012 44.9736C56.9967 44.9736 57.5845 45.4069 57.8837 45.6888H58.0332L59.0274 44.4977V44.3462C58.5037 43.7509 57.435 43.2963 56.2582 43.2963C54.6115 43.2963 53.4683 44.1838 53.4683 45.4721C53.4683 46.8587 54.729 47.4653 55.7982 47.7684C56.4937 47.9634 56.9651 47.9959 56.9651 48.375C56.9651 48.646 56.6329 48.8084 56.119 48.8084C55.4665 48.8084 54.6757 48.3859 54.2912 48.0068H54.1416L53.1583 49.2413V49.3929C53.7887 50.0963 54.9215 50.5938 56.237 50.5938Z" fill="white"/>
<path fill-rule="evenodd" clip-rule="evenodd" d="M19.7195 57.065C19.2066 55.8912 18.1765 54.3852 14.1417 52.2346C12.2808 51.1999 9.10191 49.6071 6.2439 46.5778C6.50304 47.6706 7.83086 50.072 13.5395 53.0688C15.121 53.9341 17.7954 54.7456 19.7195 57.0611" fill="white"/>
<path fill-rule="evenodd" clip-rule="evenodd" d="M19.4628 55.056C18.9761 53.669 18.0975 51.893 13.9294 49.2561C11.9002 47.9263 8.91928 46.2564 5 42C5.28037 43.1476 6.51934 46.132 12.7645 50.0064C14.816 51.3964 17.4637 52.2538 19.4628 55.056Z" fill="white"/>
</svg>
