<svg width="100" height="100" viewBox="0 0 100 100" fill="none" xmlns="http://www.w3.org/2000/svg">
<rect width="100" height="100" rx="24" fill="black"/>
<path d="M60.1121 58.3746C61.1604 58.3746 62.1663 58.7358 62.9702 59.3946L63.0198 59.4371L62.4921 60.28C61.8404 59.685 61.001 59.3592 60.1156 59.3592C58.1713 59.3592 56.5917 60.9388 56.5917 62.8831C56.5917 64.8275 58.1713 66.4071 60.1156 66.4071C61.8758 66.4071 63.3385 65.1108 63.5971 63.425L63.6042 63.3754H60.5867L61.1994 62.3944H64.6206V62.8867C64.6206 65.3729 62.5983 67.3952 60.1156 67.3952C57.6294 67.3952 55.6106 65.3729 55.6106 62.8867C55.6035 60.3969 57.6258 58.3746 60.1121 58.3746ZM12.505 58.3746C13.734 58.3746 14.9133 58.8846 15.7563 59.7629L15.7987 59.809L15.2427 60.666C14.5698 59.8337 13.5781 59.3556 12.5015 59.3556C10.5571 59.3556 8.9775 60.9352 8.9775 62.8796C8.9775 64.824 10.5571 66.4035 12.5015 66.4035C13.5179 66.4035 14.4813 65.9679 15.1506 65.2029L15.186 65.1604L15.9333 65.7979C15.0833 66.8073 13.8296 67.3846 12.505 67.3846C10.0223 67.3846 8 65.3658 8 62.8796C8 60.3969 10.0223 58.3746 12.505 58.3746ZM21.1467 58.4277C23.4098 58.4277 24.3129 59.4902 24.3129 61.0237C24.3129 62.3094 23.6613 63.216 22.1135 63.5242L22.064 63.5348L24.5502 67.3421H23.3602L21.0121 63.595H19.3192V67.3421H18.3523V58.4277H21.1467ZM41.9717 66.4779V67.3421H35.8729V66.4779H41.9717ZM27.7412 58.4277L30.1885 62.4971C30.2735 62.6458 30.3231 62.8052 30.3479 62.9044C30.3833 62.8017 30.4152 62.6671 30.5002 62.5183L30.5215 62.4829L32.9581 58.4277H34.01L28.4708 67.3456H27.511L29.8025 63.6269L26.6788 58.4277H27.7412ZM89.7983 66.4779V67.3421H83.6996V66.4779H89.7983ZM73.6448 58.4277L78.9998 65.8121C78.9538 65.6031 78.929 65.5252 78.9254 65.3623V65.3304V58.4277H79.8888V67.3456H78.975L73.6094 59.9365C73.6448 60.0533 73.6908 60.2127 73.6944 60.4394V60.4819V67.3456H72.731V58.4277H73.6448ZM68.8246 58.4277V67.3456H67.8613V58.4277H68.8246ZM46.1756 58.4277L51.5306 65.8121C51.4846 65.6031 51.4598 65.5252 51.4563 65.3623V65.3304V58.4277H52.4196V67.3456H51.5058L46.1402 59.9365C46.1756 60.0533 46.2217 60.2127 46.2252 60.4394V60.4819V67.3456H45.2619V58.4277H46.1756ZM89.7983 62.1996V63.0779H83.6996V62.1996H89.7983ZM41.9717 62.1996V63.0779H35.8729V62.1996H41.9717ZM21.1608 59.2919H19.3192V62.7167H21.1502C22.5102 62.7167 23.3283 62.32 23.3283 61.0237C23.3248 59.724 22.5067 59.2919 21.1608 59.2919ZM91.9623 57.2837C92.536 57.2837 93 57.7442 93 58.3179C93 58.8917 92.536 59.3521 91.9623 59.3521C91.3885 59.3521 90.9246 58.8917 90.9246 58.3179C90.9281 57.7442 91.3921 57.2837 91.9623 57.2837ZM89.7983 58.4277V59.2919H83.6996V58.4277H89.7983ZM41.9717 58.4277V59.2919H36.7654L37.3002 58.4277H41.9717ZM91.9623 57.4573C91.4877 57.4573 91.1052 57.8398 91.1052 58.3144C91.1052 58.789 91.4877 59.1715 91.9623 59.1715C92.4369 59.1715 92.8229 58.789 92.8229 58.3144C92.8229 57.8433 92.4369 57.4573 91.9623 57.4573ZM91.9694 57.7796C92.235 57.7796 92.3519 57.9142 92.3519 58.1019C92.3519 58.2435 92.2881 58.3498 92.1429 58.3994L92.1217 58.4065L92.405 58.8421H92.1996L91.9623 58.4737C91.9552 58.4667 91.9517 58.449 91.9481 58.4348V58.4242H91.7427V58.8421H91.5727V57.776L91.9694 57.7796ZM91.9729 57.9425H91.7427V58.2648H91.9694C92.1146 58.2648 92.1819 58.2258 92.1819 58.1054C92.1819 57.9885 92.1146 57.9425 91.9729 57.9425ZM46.636 29.0673L46.9477 29.0425C38.5894 30.9869 33.6275 37.3017 33.6275 38.1233V38.1269C33.6275 38.1304 33.631 38.095 33.6346 38.2544V38.2756C33.8046 39.1717 36.2767 43.4996 45.825 46.0708C34.8813 45.2031 29.9088 39.88 29.6644 38.3217L29.6608 38.2721H29.6573C29.6573 38.1092 29.6537 38.141 29.6537 38.1517L29.6573 38.1056C29.7883 36.5048 36.4856 29.9173 46.636 29.0673ZM50.1104 29C61.4756 29.5915 68.0879 36.349 68.1481 38.2402C68.1481 38.2331 68.1446 38.2367 68.1446 38.3535V38.3748H68.1375C68.049 39.324 64.4365 43.1844 59.0319 44.9623C52.4267 47.1333 41.7981 46.3435 41.7981 38.0631C41.7981 34.1779 44.9644 31.0152 48.8531 31.0152C52.7773 31.0152 55.9258 34.1921 55.9258 38.0808C55.9258 39.9756 55.1077 41.8102 53.8681 43.1065C55.0263 43.0852 59.2408 42.7771 63.211 39.5046C63.6502 39.076 63.93 38.7183 64.0469 38.4987C64.0788 38.4421 64.1248 38.3394 64.1177 38.2437C64.1213 37.3937 59.556 30.8629 50.1104 29ZM48.846 34.054C46.6325 34.054 44.8404 35.846 44.8404 38.0596C44.8404 40.2731 46.6325 42.0652 48.846 42.0652C51.056 42.0652 52.8517 40.2731 52.8517 38.0596C52.8517 35.8496 51.0596 34.054 48.846 34.054Z" fill="white"/>
</svg>
