<svg width="100" height="100" viewBox="0 0 100 100" fill="none" xmlns="http://www.w3.org/2000/svg">
<rect width="100" height="100" rx="24" fill="#33B5E5"/>
<path d="M50 90C72.0914 90 90 72.0914 90 50C90 27.9086 72.0914 10 50 10C27.9086 10 10 27.9086 10 50C10 72.0914 27.9086 90 50 90Z" stroke="white" stroke-width="8"/>
<path fill-rule="evenodd" clip-rule="evenodd" d="M52.7646 63.0945H47.1293C47.13 64.7581 48.3147 65.2854 49.8826 65.2914C51.4099 65.2854 52.7646 65.3959 52.7646 63.0945ZM35.6475 35.5596L32.1411 27.0541C31.1474 24.9632 28.1017 26.2475 29.0408 28.5091L32.3862 36.5643C28.2618 37.7525 25.4239 41.3332 25.3958 44.7319L25.4098 61.8884C25.4239 64.6484 29.0919 69.3732 35.626 70.3399C43.3134 72.0622 56.4515 71.9899 64.3717 70.3399C70.0115 69.6176 74.3429 65.285 74.3289 61.8884V43.7458C74.3429 41.1801 71.3326 37.5536 67.6273 36.5361L70.9867 27.9717C71.6019 26.1168 68.8796 25.3251 68.1065 26.8981L64.3717 35.5784C57.615 33.7149 42.7229 33.688 35.6463 35.5585L35.6475 35.5596ZM37.4449 45.3855C41.4938 45.3855 44.7481 48.6379 44.7481 52.6846C44.7481 56.7315 41.4941 59.9838 37.4449 59.9838C33.396 59.9838 30.1417 56.7313 30.1417 52.6846C30.1417 48.6377 33.3958 45.3855 37.4449 45.3855ZM62.5038 45.3855C66.5527 45.3855 69.807 48.6379 69.807 52.6846C69.807 56.7315 66.553 59.9838 62.5038 59.9838C58.4549 59.9838 55.2006 56.7313 55.2006 52.6846C55.2006 48.6377 58.4547 45.3855 62.5038 45.3855Z" fill="white"/>
</svg>
