<svg width="100" height="100" viewBox="0 0 100 100" fill="none" xmlns="http://www.w3.org/2000/svg">
<rect width="100" height="100" rx="24" fill="white"/>
<path d="M46.9387 7.67723C48.5185 6.77528 51.0763 6.77324 52.6597 7.67723L86.7111 29.9058C88.2909 30.8078 89.5716 33.0097 89.5716 34.8319V63.8461C89.5716 65.6647 88.2945 67.8682 86.7111 68.7722L52.6597 91.3228C51.0799 92.2247 48.522 92.2268 46.9387 91.3228L12.8605 68.7722C11.2807 67.8702 10 65.6683 10 63.8461V34.8319C10 33.0133 11.2771 30.8098 12.8605 29.9058L46.9387 7.67723Z" fill="#2B64CF"/>
<path d="M54.4814 25.6357C54.8098 25.6357 55.076 25.902 55.076 26.2304L55.0758 36.3047L68.5122 36.3047C69.9901 36.3047 71.1882 37.5028 71.1882 38.9806L71.1879 49.5175L72.7416 49.5175C73.2342 49.5175 73.6336 49.9169 73.6336 50.4095V59.2231C73.6336 59.7157 73.2342 60.1151 72.7416 60.1151L71.1879 60.115L71.1882 65.3944C71.1882 66.8722 69.9901 68.0703 68.5122 68.0703H31.1979C29.7201 68.0703 28.522 66.8722 28.522 65.3944L28.5217 60.115L26.83 60.1151C26.3373 60.1151 25.938 59.7157 25.938 59.2231V50.4095C25.938 49.9169 26.3373 49.5175 26.83 49.5175L28.5217 49.5175L28.522 38.9806C28.522 37.5028 29.7201 36.3047 31.1979 36.3047L52.6205 36.3047V33.4723L47.8338 33.4726C47.5053 33.4726 47.2391 33.2064 47.2391 32.878V26.2304C47.2391 25.902 47.5053 25.6357 47.8338 25.6357H54.4814ZM61.8355 48.8767L61.8243 48.888L58.5033 52.2849C58.1432 52.6532 57.5529 52.6598 57.1846 52.2998L57.1734 52.2886L56.0367 51.1388C55.6746 50.7725 55.0842 50.7692 54.718 51.1312C54.7154 51.1337 54.7129 51.1363 54.7104 51.1388L53.555 52.3076C53.1959 52.6708 53.1959 53.2554 53.555 53.6187L57.1746 57.2802C57.5367 57.6464 58.1271 57.6498 58.4933 57.2877C58.4967 57.2844 58.5 57.2811 58.5033 57.2777L64.3107 51.3604C64.6676 50.9968 64.6665 50.414 64.3083 50.0517L63.1542 48.8843C62.7922 48.5181 62.2018 48.5147 61.8355 48.8767ZM44.225 48.8767L44.2138 48.888L40.8927 52.2849C40.5327 52.6532 39.9423 52.6598 39.5741 52.2998L39.5628 52.2886L38.4261 51.1388C38.0641 50.7725 37.4737 50.7692 37.1074 51.1312C37.1049 51.1337 37.1024 51.1363 37.0998 51.1388L35.9444 52.3076C35.5853 52.6708 35.5853 53.2554 35.9444 53.6187L39.5641 57.2802C39.9261 57.6464 40.5165 57.6498 40.8828 57.2877L40.8927 57.2777L46.7001 51.3604C47.057 50.9968 47.056 50.414 46.6978 50.0517L45.5437 48.8843C45.1816 48.5181 44.5912 48.5147 44.225 48.8767Z" fill="white"/>
</svg>
