<svg width="100" height="100" viewBox="0 0 100 100" fill="none" xmlns="http://www.w3.org/2000/svg">
<rect width="100" height="100" rx="24" fill="white"/>
<path d="M49.5 92C72.9721 92 92 72.9721 92 49.5C92 26.0279 72.9721 7 49.5 7C26.0279 7 7 26.0279 7 49.5C7 72.9721 26.0279 92 49.5 92Z" fill="#988430"/>
<path d="M49.5 90.6387C72.2202 90.6387 90.6386 72.2203 90.6386 49.5C90.6386 26.7798 72.2202 8.36139 49.5 8.36139C26.7797 8.36139 8.36133 26.7798 8.36133 49.5C8.36133 72.2203 26.7797 90.6387 49.5 90.6387Z" fill="#7A6A2A"/>
<path d="M49.5 89.7719C71.7416 89.7719 89.7719 71.7416 89.7719 49.5C89.7719 27.2585 71.7416 9.22815 49.5 9.22815C27.2585 9.22815 9.22815 27.2585 9.22815 49.5C9.22815 71.7416 27.2585 89.7719 49.5 89.7719Z" fill="#BA9F33"/>
<path fill-rule="evenodd" clip-rule="evenodd" d="M25.5817 44.9612C25.341 44.7414 25.0867 44.521 24.8527 44.3012C24.6188 44.0813 24.3786 43.861 24.1378 43.6411L23.4225 42.9611C23.3055 42.8442 23.1818 42.7413 23.0648 42.6238C22.9478 42.5209 22.8105 42.404 22.6935 42.3006C21.7442 41.3998 20.7895 40.4991 19.8534 39.5978C20.8231 40.485 21.7723 41.3658 22.742 42.2662L23.0789 42.6034C23.1958 42.7199 23.3196 42.8233 23.4365 42.9403L24.1514 43.6003C24.3922 43.8202 24.6261 44.0405 24.8668 44.2803C25.1075 44.5201 25.3414 44.7409 25.5822 44.9603L25.5817 44.9612ZM12.9831 44.8252C12.9831 44.8252 16.4353 45.1825 18.1203 45.4232C19.6811 45.6435 24.564 46.3929 24.564 46.3929L12.9831 44.8252ZM12.9831 44.8252C13.9528 44.9077 14.9225 45.0106 15.8922 45.114C16.3872 45.1621 16.8618 45.2169 17.3365 45.265L18.065 45.3479C18.3057 45.3819 18.5396 45.4164 18.7803 45.4508L21.669 45.9114L23.1129 46.1521C23.5875 46.2346 24.0621 46.3244 24.5572 46.4069C24.0825 46.3589 23.5875 46.2899 23.1129 46.221L21.669 46.0148L18.7803 45.5886C18.5396 45.5542 18.3057 45.5057 18.065 45.4717L17.336 45.3878C16.8614 45.3398 16.3663 45.2709 15.8917 45.2155C14.922 45.099 13.9523 44.9748 12.9827 44.8239L12.9831 44.8252ZM24.2203 47.2923C24.2203 47.2923 20.5343 48.2279 19.2894 48.5856C18.0654 48.9225 14.3585 50.0503 14.3585 50.0503L24.2199 47.2927L24.2203 47.2923Z" fill="#CFB66C"/>
<path fill-rule="evenodd" clip-rule="evenodd" d="M24.2198 47.2922C23.4015 47.533 22.5878 47.7669 21.7578 47.9872L19.2957 48.6473C18.4774 48.888 17.6637 49.1219 16.8477 49.3626L15.6237 49.6994C15.218 49.8164 14.8054 49.9193 14.3861 50.0367C14.7914 49.9007 15.2044 49.7615 15.6101 49.6446L16.8341 49.2529C17.6524 48.9981 18.4661 48.7574 19.2821 48.5031C20.114 48.2968 20.9327 48.0765 21.7646 47.877C22.5552 47.6776 23.3875 47.4786 24.2198 47.2927V47.2922ZM14.8743 52.3197C15.2796 52.1683 19.9562 49.9887 21.0429 49.4796C21.5869 49.2248 23.1681 48.6636 23.1681 48.6636L14.8743 52.3197Z" fill="#CFB66C"/>
<path fill-rule="evenodd" clip-rule="evenodd" d="M14.8744 52.3197C15.2316 52.1837 15.5689 52.0173 15.9125 51.8591L16.9302 51.3845L18.9729 50.4012C19.6529 50.078 20.3139 49.7212 21.0152 49.4175C21.3729 49.2665 21.7306 49.1428 22.0878 49.0258L22.6318 48.854C22.8172 48.8059 22.9895 48.7506 23.1758 48.7026C22.4958 49.0258 21.78 49.301 21.0991 49.617C20.4191 49.9542 19.7237 50.2294 19.0219 50.5318L16.9452 51.4461C16.248 51.7286 15.568 52.031 14.8739 52.3197H14.8744ZM15.3277 54.2237C15.3277 54.2237 19.5636 51.7413 21.0216 50.9434C21.785 50.5173 24.2538 49.2928 24.2538 49.2928L15.3277 54.2237Z" fill="#CFB66C"/>
<path fill-rule="evenodd" clip-rule="evenodd" d="M15.3282 54.2247C16.0432 53.7845 16.7721 53.3375 17.5011 52.8837L18.5891 52.2232C18.9604 52.0033 19.318 51.7971 19.6966 51.5772C20.0678 51.3569 20.4255 51.137 20.8036 50.9307C20.9836 50.8196 21.1722 50.723 21.3676 50.642L21.9451 50.3532C22.7085 49.9819 23.4719 49.6034 24.2766 49.2802C23.5476 49.7412 22.7978 50.1333 22.0485 50.5386C21.6772 50.7449 21.2986 50.9307 20.9274 51.137C20.5561 51.3433 20.1984 51.5636 19.8199 51.7631C19.4486 51.9829 19.0909 52.1892 18.7128 52.3887L17.5917 53.0007L15.3292 54.2247H15.3282ZM24.2199 49.8368C24.2199 49.8368 21.5861 51.8587 20.7333 52.5052C19.8806 53.1516 17.3705 54.9672 17.3705 54.9672L24.2199 49.8368Z" fill="#CFB66C"/>
<path fill-rule="evenodd" clip-rule="evenodd" d="M39.3358 66.1423L37.988 63.5909L38.7718 60.3999L44.3628 58.2407L41.9833 53.3583L43.1592 48.4274L45.3669 44.0119L52.1892 42.9393L57.2021 38.1599L68.0268 38.9781L70.1516 50.5522L66.0598 65.1246L63.7288 72.6689L54.2795 73.0266L49.8921 69.987L44.7549 67.8409L39.3358 66.1423Z" fill="#E2CC85"/>
<path fill-rule="evenodd" clip-rule="evenodd" d="M55.9097 66.0598C55.9097 66.0598 54.6027 66.6582 52.3737 66.5204C51.7286 65.6541 47.2106 65.2483 47.2106 65.2483C47.2106 65.2483 46.6467 65.0765 45.6494 65.489C44.6457 65.897 43.6964 65.8467 42.8092 66.0666C41.9221 66.2865 41.0412 65.1314 40.3612 64.8906C39.6812 64.6363 38.7795 64.0243 38.7795 64.0243L36.8755 63.8385L33.0521 62.2223L26.9779 56.1708L25.3273 58.7548L24.8182 61.9526L26.6547 65.742L31.5992 70.2463L41.2407 72.6943L46.9554 71.0106L54.1145 67.9846L55.9097 66.0593V66.0598Z" fill="#F1D789"/>
<path fill-rule="evenodd" clip-rule="evenodd" d="M21.6549 44.6724L22.8789 40.966L24.3373 38.5724L29.0338 38.1802L27.6239 42.2929L23.6976 49.2801L25.3273 55.5175L22.4392 56.9614L21.5515 55.6L20.8366 52.4779L20.7886 48.9705L21.6549 44.6724Z" fill="#F4ECB4"/>
<path fill-rule="evenodd" clip-rule="evenodd" d="M26.9226 65.8055L26.0218 64.5471C26.0218 64.5471 25.7811 63.9487 25.9189 63.426C26.0549 62.8965 26.0354 62.862 25.967 62.6626C25.8985 62.4631 25.3205 61.7754 25.355 61.1838C25.389 60.5854 25.3069 60.3859 25.7467 59.9117C26.2073 59.4511 26.0699 58.6533 26.0699 58.6533L26.6683 59.0246L26.8043 58.8183C26.8043 58.8183 27.0242 58.9901 27.0242 59.2585C27.0722 58.8872 26.8727 57.1677 27.3265 56.776C27.7803 56.3843 28.585 58.612 28.585 58.612L28.0899 55.3798L26.8174 52.0654L24.5549 49.0394L24.4189 45.7038V45.415C24.4189 45.415 23.3803 47.0108 23.0915 48.271C22.8852 49.1374 23.3803 50.1895 23.2774 51.4344C23.1944 52.6725 23.0915 52.5759 23.3939 53.0664C23.6962 53.5569 24.4325 54.5656 24.1437 55.2945C23.8894 55.9206 23.0226 55.4804 23.0226 55.4804C23.0226 55.4804 22.8508 55.989 22.6169 56.1749C22.5343 55.8725 22.445 55.6799 22.28 55.4949C22.266 55.6119 22.232 55.7701 22.232 55.7701C22.232 55.7701 22.0806 55.2954 21.9291 54.697C21.7233 53.8996 21.503 52.8474 21.3035 52.2835C21.221 52.6067 21.0148 53.59 21.0148 53.59L21.1317 55.1032L21.6957 57.1799L22.2397 58.5399L22.7692 60.2041L23.2293 61.3221L23.6006 62.1748L23.9238 64.0937L25.4846 65.7439L26.317 66.1156L26.9217 65.806L26.9226 65.8055Z" fill="#F3E19D"/>
<path fill-rule="evenodd" clip-rule="evenodd" d="M22.4732 41.6464C22.4732 41.6464 21.3521 43.5504 21.0293 45.4699C20.7065 47.3893 20.4173 49.4175 20.6213 52.0305C20.8276 54.6648 21.2197 56.2805 21.5361 57.436C22.0801 59.355 23.4891 62.0233 23.4891 62.0233L23.5371 61.92C23.3003 61.4711 23.1113 60.9985 22.9732 60.5101C22.7873 59.7811 22.7184 58.9148 22.5466 58.5227C22.3952 58.131 22.1409 57.7937 22.0171 57.3123C21.9002 56.8517 21.8811 56.1227 21.5221 55.5796C21.3707 55.3593 21.1848 54.7818 21.1299 54.2042C21.061 53.3375 21.1644 52.3678 21.0819 51.5704C20.9305 50.243 20.8276 49.3422 20.9649 48.6473C21.1023 47.9523 21.8181 45.9794 22.2583 44.4113C22.5471 43.4072 22.3748 42.5613 22.9043 41.6877C23.4338 40.8214 23.7575 40.058 23.874 39.5285C24.01 39.047 22.4714 41.6464 22.4714 41.6464H22.4732Z" fill="#F2E8B0"/>
<path fill-rule="evenodd" clip-rule="evenodd" d="M27.7895 40.8831C27.7895 40.8831 27.2119 41.0553 26.9368 41.3577C26.6616 41.6465 26.5446 41.8872 26.1733 42.3754C25.8021 42.8637 25.7812 43.2626 25.4784 43.8746C25.176 44.473 24.5087 45.3738 24.4262 45.697C24.3437 46.0202 24.2063 47.533 24.0345 48.2484C23.8831 48.9637 24.2063 49.8441 24.2063 49.8441L24.598 49.7611C24.598 49.7611 24.598 50.2702 24.9901 50.6143C25.3818 50.9511 25.4507 49.4724 25.4507 49.4724L26.9154 44.5279L29.1227 43.0287L29.3634 41.8183L27.7886 40.8831H27.7895Z" fill="#F5EEC0"/>
<path fill-rule="evenodd" clip-rule="evenodd" d="M28.8621 43.1252C28.8621 43.1252 27.8235 43.1937 27.3148 43.5654C27.1086 43.7164 27.0261 43.8401 26.8062 44.026C26.4005 44.3628 25.9875 44.6724 25.7885 45.114C25.5681 45.5537 25.3274 46.221 25.1624 47.4795C25.0935 48.009 25.0935 48.4972 25.0454 48.9238C24.9765 49.5014 24.8736 49.9619 24.9285 50.2838C24.9974 50.9439 25.6783 51.2879 25.7445 52.0373L27.1543 51.3224L28.4817 46.0887L31.3014 44.3207L29.7057 42.5327L28.8602 43.122L28.8621 43.1252Z" fill="#E6DB9D"/>
<path fill-rule="evenodd" clip-rule="evenodd" d="M21.4242 78.3678C21.4301 78.3161 21.4359 78.2644 21.4418 78.2114C21.6477 76.4434 21.6826 75.1034 21.8335 74.2642C22.0534 73.0747 22.2048 72.6322 22.1703 72.1871C22.1223 71.4721 22.0674 70.9495 22.1363 70.3991C22.2393 69.6701 22.9546 68.8038 22.9342 68.2054C22.9202 67.7308 22.6794 67.4216 22.4732 67.1328C22.2669 66.8441 22.1019 66.6034 22.1019 66.6034C22.1019 66.6034 23.5118 65.6337 23.4982 61.7273C23.5269 61.7354 23.5547 61.747 23.5807 61.7617L24.2752 63.7351L24.7498 64.3127L26.5722 67.7099L28.9173 69.9866L32.383 72.3176L34.5563 74.6827L34.7762 80.989L31.9361 84.675L31.4709 85.5173C27.7757 83.6622 24.3871 81.2508 21.4237 78.3674L21.4242 78.3678Z" fill="#E5CB7A"/>
<path fill-rule="evenodd" clip-rule="evenodd" d="M30.1001 84.4008C30.1001 84.4008 30.1482 83.617 30.7946 83.1079C30.898 83.2797 30.9664 83.4452 30.946 83.5685C31.063 83.3627 31.8812 82.0421 33.7313 81.698C35.5813 81.3612 36.0283 80.0134 36.0283 80.0134L39.9547 76.4443L44.4454 72.3113L49.9058 70.3923L52.4576 69.7663C52.4576 69.7663 52.5056 69.9522 52.4095 70.3647C52.8837 70.3307 53.9359 70.09 55.0294 69.7046C55.4695 69.5328 55.8825 69.4639 56.1024 69.691C56.4256 69.9934 56.4737 70.7088 56.4941 71.1349C57.0236 71.0179 57.6356 70.5093 58.1261 70.5574C58.9103 70.6399 59.6048 71.5615 60.4027 71.5615C61.4549 71.5615 61.9291 70.915 62.6653 70.4059C63.1055 70.1036 63.7379 69.7259 64.0956 69.4707C64.9483 68.8447 73.971 66.087 73.971 66.087L77.1343 66.2933L77.6434 69.6906L77.3714 78.5714C77.3379 78.6036 77.3043 78.6371 77.2703 78.6693L62.887 86.1815L42.9494 89.2379C38.4833 88.5082 34.1734 87.0257 30.2035 84.8537L30.1015 84.4003L30.1001 84.4008Z" fill="#D8C173"/>
<path fill-rule="evenodd" clip-rule="evenodd" d="M22.6332 79.4975C22.9165 78.905 23.1713 78.4096 23.2162 78.2323C23.2515 78.5895 23.3164 79.3733 23.4469 80.2066C23.1728 79.9735 22.9016 79.7371 22.6332 79.4971V79.4975Z" fill="#F1D789"/>
<path fill-rule="evenodd" clip-rule="evenodd" d="M37.1974 87.8552L39.7759 87.138L39.9958 87.2069C39.9958 87.2069 40.1128 87.2758 40.1128 87.5093C40.436 87.3239 40.7112 87.3579 40.9106 87.2346C41.0135 87.4545 41.1165 88.1834 41.5707 88.2727C42.0449 88.3761 42.554 88.0665 43.0699 87.6748C43.5785 87.269 44.1579 86.7599 44.5962 86.5537C44.7571 86.8494 44.8995 87.1548 45.0228 87.4681C45.6004 87.0075 46.6045 85.137 48.0348 85.171C48.4482 84.1941 49.1388 83.3597 50.0213 82.7711C51.3486 81.8703 52.1805 81.8014 53.2191 81.8839C53.6316 81.3481 54.1399 80.8934 54.7183 80.5429C54.8901 80.6118 55.3647 80.9006 55.9563 80.6254C56.5547 80.3507 57.2284 79.2845 58.1155 79.1471C58.5936 79.0813 59.0797 79.1834 59.491 79.4359C59.491 79.4359 62.075 76.8705 63.8579 76.0178C63.789 75.8115 63.6517 75.0345 65.742 73.315C65.8589 73.4183 65.7764 73.7071 65.8589 73.723C65.8929 73.723 66.4029 73.5031 67.0485 73.0076C67.8463 72.4097 68.802 71.7836 69.3795 71.6118C70.4675 71.2886 71.6217 71.9486 71.6217 71.9486C71.7199 71.8798 71.8292 71.8286 71.9449 71.7972C72.2197 71.7492 72.4191 71.7147 72.5705 71.6612C72.5569 72.0189 72.7564 72.6309 72.5705 73.1604C72.7858 73.2815 73.0139 73.3783 73.2505 73.4492C73.134 73.7035 72.8793 74.3499 72.4531 74.6596C72.8103 74.8314 72.8584 75.0309 73.3675 75.2036C73.1612 75.4923 72.8235 75.9878 72.673 76.2916C72.5216 76.6148 71.978 77.9558 71.7373 78.4644C71.483 78.9735 71.1394 79.9087 70.9739 80.0964C70.8084 80.2841 70.2105 81.0797 69.7499 81.4714C70.1579 81.3199 71.8271 80.8113 72.5352 80.6186C72.3244 80.9278 71.2559 82.5131 70.2286 84.0377C65.3102 86.9857 59.8199 88.8516 54.1237 89.511C48.4275 90.1704 42.6561 89.6083 37.1942 87.862L37.1974 87.8552Z" fill="#E0CD81"/>
<path fill-rule="evenodd" clip-rule="evenodd" d="M29.0321 42.9393C29.0321 42.9393 28.4341 42.9393 28.3172 43.0218C28.2002 43.1044 28.9156 43.2766 29.1354 43.3591C29.3553 43.4416 29.8299 43.8197 29.9537 44.1225C30.0706 44.4113 34.2517 46.0959 34.2517 46.0959L37.2088 45.9445L38.2284 44.536L36.289 42.8373L37.649 38.8281L35.8475 39.1168L31.515 41.7008L29.3417 42.5332L29.0321 42.9393Z" fill="#DFC57C"/>
<path fill-rule="evenodd" clip-rule="evenodd" d="M35.526 44.2667C35.5688 44.3359 35.629 44.3927 35.7006 44.4313C35.7722 44.4699 35.8527 44.4889 35.934 44.4866C36.546 44.4866 37.1095 44.638 37.3434 44.9472C37.7356 45.4427 38.8222 47.0243 38.8222 47.0243L41.4216 47.9596L41.5894 44.8987L38.7492 42.9253L35.517 44.1148V44.2663H35.5242L35.526 44.2667Z" fill="#E5CC7C"/>
<path fill-rule="evenodd" clip-rule="evenodd" d="M35.016 45.4014C35.016 45.4014 35.4901 45.4358 36.0885 45.2155C36.6869 44.9952 37.6702 44.521 38.0968 44.7069C38.6948 44.9612 38.571 45.7591 39.2179 46.4749C39.6096 46.9151 40.3249 46.9015 40.7307 47.3761C41.1364 47.8508 42.5322 47.6304 42.5322 47.6304L43.0617 50.4864L40.9369 53.2101L40.242 56.5933H37.3688L34.744 55.552L33.451 52.424L34.0975 49.2606L35.016 45.4014Z" fill="#D2C281"/>
<path fill-rule="evenodd" clip-rule="evenodd" d="M40.5739 45.5388C40.6452 45.5608 40.7192 45.5724 40.7938 45.5732C40.7113 45.6422 40.539 45.7931 40.6079 46.1852C40.6768 46.5774 40.8967 47.0724 40.7113 47.3748C40.8593 47.5366 40.9697 47.7292 41.0345 47.9387C41.1515 48.276 41.1859 48.5852 41.9489 48.6337C41.8388 48.7015 41.7372 48.7823 41.6465 48.8744C41.6465 48.8744 42.176 49.335 42.4444 49.7611C42.7191 49.7494 43.448 49.5227 43.448 49.5227L43.5995 49.626L43.9227 49.49C43.9227 49.49 43.6203 49.3731 43.8402 48.6373C44.0464 47.9909 44.2323 48.0253 44.2482 47.9773C44.264 47.9292 44.3996 47.2483 44.3996 46.9731C44.5025 46.6159 44.585 45.5293 44.585 45.5293L44.3651 43.1293L43.1275 42.3795L42.1211 41.408L41.1719 43.196L40.5467 43.8193L40.4987 45.3665L40.5739 45.5388Z" fill="#E2C270"/>
<path fill-rule="evenodd" clip-rule="evenodd" d="M43.5514 43.531C43.5514 43.531 43.7713 44.1566 43.8542 44.638C43.8835 44.5444 43.8996 44.4473 43.9023 44.3492C43.9023 44.3492 44.0741 45.2985 44.1081 45.6907C44.177 45.6766 44.2441 45.6562 44.2595 45.7247C44.2749 45.7931 44.4318 46.557 44.3955 46.9831C44.6819 46.5107 45.0781 46.1144 45.5506 45.828C45.8258 45.6558 46.149 45.4703 46.4863 45.4563C47.0158 45.4427 47.4006 45.7936 48.0335 45.7936C49.5599 45.7936 50.9425 44.6725 51.9603 44.3288C52.7096 44.0741 53.3561 43.8887 53.8099 43.4757C54.0302 43.2903 54.4223 42.8777 54.7795 42.2653C55.2542 41.4493 55.7492 40.7389 56.2447 40.6496C56.0205 40.6908 55.7925 40.7069 55.5647 40.6976C55.5647 40.6976 55.7161 40.5462 55.9727 40.34C56.2293 40.1337 56.5367 39.8794 56.9764 39.8794C57.7607 39.8794 58.1523 39.9959 58.5925 39.9959C59.0327 39.9823 59.287 39.8794 59.287 39.8794C59.287 39.8794 59.7481 40.2026 60.7862 40.2026C61.8248 40.2162 62.5193 40.3055 63.0629 40.354C63.6064 40.4025 65.4284 40.2026 65.951 40.218C66.2918 40.2312 66.6264 40.313 66.9348 40.4587L65.2497 35.5627L59.1968 30.2723L55.5933 32.8237L50.0499 38.3666L44.6861 40.354L43.565 41.6125V43.531H43.5514Z" fill="#CCB360"/>
<path fill-rule="evenodd" clip-rule="evenodd" d="M55.5864 40.7248C55.5864 40.7248 55.7379 40.5739 55.9917 40.3676C56.2456 40.1614 56.5561 39.9066 56.9959 39.9066C57.7797 39.9066 58.1718 40.0235 58.612 40.0235C59.0522 40.0099 59.3065 39.9066 59.3065 39.9066C59.3065 39.9066 59.768 40.2294 60.8057 40.2294C61.8443 40.243 62.5388 40.3323 63.0823 40.3803C63.6259 40.4284 65.4478 40.2294 65.9705 40.2443C66.3112 40.2571 66.6457 40.339 66.9538 40.485L66.1904 38.2773L65.3036 36.5927L62.7727 33.821C62.7727 33.821 59.7354 32.0331 59.7122 32.0195C59.6986 32.0059 58.66 31.7307 58.66 31.7307L55.9092 33.3949L53.4132 39.8526L53.3651 41.2126L54.9808 41.976C55.3865 41.296 55.834 40.752 56.2533 40.6831C55.8748 40.7244 55.586 40.7244 55.586 40.7244L55.5864 40.7248Z" fill="#D5B457"/>
<path fill-rule="evenodd" clip-rule="evenodd" d="M55.552 41.1859C55.3113 41.1995 55.1123 41.1514 55.057 40.9796C54.8507 40.4021 54.6857 40.3196 54.513 40.3196C54.3403 40.3196 54.1072 40.6908 53.969 40.7248C53.8307 40.7588 53.6666 40.2987 53.6666 40.2987L53.5152 40.2298C53.5152 40.2298 52.628 40.8073 52.0024 41.4883C51.3768 42.1692 50.3518 43.3247 49.8912 43.5305C49.4307 43.7363 47.8485 43.8057 47.3072 43.9226C46.766 44.0396 46.1658 44.4317 46.0832 44.521C46.0007 44.6104 46.3244 44.7065 46.3725 44.7958C46.4205 44.8783 45.8425 44.8438 45.7945 44.9318C45.7605 45.0007 45.9305 45.3924 46.0148 45.5918C46.1623 45.5185 46.3242 45.4785 46.489 45.4749C47.0185 45.4613 47.4038 45.8121 48.0362 45.8121C49.563 45.8121 50.9452 44.6911 51.963 44.347C52.7128 44.0927 53.3592 43.9068 53.813 43.4943C54.0329 43.3088 54.425 42.8959 54.7827 42.2839C55.0438 41.8645 55.2986 41.4724 55.5534 41.1836L55.552 41.1859Z" fill="#D2B257"/>
<path fill-rule="evenodd" clip-rule="evenodd" d="M33.656 75.2203C33.656 75.2203 33.52 74.7112 32.2597 73.3979C31.9021 73.0266 31.6822 72.7179 31.4415 72.4971C30.8431 71.9327 30.4922 71.7818 30.066 71.4585C29.1308 70.764 28.1131 70.764 27.3293 69.9113C26.5455 69.0586 25.632 67.4293 24.9973 65.7642C24.3717 64.1 24.1995 63.5705 24.1995 63.5225C24.1995 63.4744 24.3717 63.1512 24.5916 63.1993C24.8115 63.2473 24.8115 63.6734 24.8668 63.7768C24.9763 63.9455 25.1006 64.1042 25.238 64.251C25.5613 64.6227 26.0219 65.067 26.2558 65.7298C26.2077 65.1658 26.0151 64.5402 26.0151 64.5402C26.0151 64.5402 27.2255 65.3036 28.2568 66.101C29.2954 66.8989 29.7215 67.1741 30.0248 67.6827C30.3281 68.1914 31.0425 69.5328 31.3848 69.9249C31.7271 70.317 36.4168 71.7954 36.4168 71.7954L38.6476 73.4586L39.7551 75.8862L38.8884 77.2462L37.2242 77.6039L34.5214 76.3935L33.656 75.2198V75.2203Z" fill="#D2B159"/>
<path fill-rule="evenodd" clip-rule="evenodd" d="M27.6516 66.8577C27.6516 66.8577 28.2156 67.7584 29.591 68.6112C30.829 69.361 32.7888 70.0419 34.5359 70.4476C35.5396 70.6883 36.5437 70.8737 37.4445 70.8878C39.8721 70.9218 41.5431 70.2277 43.6135 70.0006C44.7346 69.8837 46.11 69.7944 47.5403 69.4566C49.3763 69.0164 50.4629 68.5209 51.9417 67.8246C53.0143 67.3296 53.998 66.9583 54.7954 66.4837C55.9165 65.8236 56.7348 65.0878 57.684 64.868C57.5671 65.1912 57.4433 65.7688 56.5081 66.3672C57.0031 66.3531 57.684 66.3191 57.684 66.3191C57.684 66.3191 57.024 66.7108 55.8616 67.5912C55.1463 68.1352 54.1975 69.0559 53.2278 69.6679C52.6017 70.06 51.9208 70.3479 51.4738 70.5827C50.3858 71.1811 49.947 71.4835 49.2321 72.2147C49.4864 72.2011 49.5073 72.2147 49.5073 72.2147C49.5073 72.2147 48.606 72.3317 47.96 72.6753C47.824 72.6753 47.5883 72.6272 47.1758 72.7442C46.8525 72.8471 46.426 73.0815 45.9862 73.2048C45.3602 73.3906 45.1544 73.3081 45.1544 73.3081L45.2573 73.5144C45.2573 73.5144 44.4413 73.5004 44.1693 73.528C44.2173 73.5416 44.2037 73.5625 44.2037 73.5625C44.1559 73.5705 44.1099 73.5867 44.0677 73.6105C43.9368 73.6953 43.7929 73.758 43.6416 73.7959C43.5591 73.8095 43.4902 73.8095 43.3868 73.8304C43.4213 73.9129 43.6896 74.3744 43.8134 74.6464C43.7105 74.7153 42.1628 75.8844 42.1628 75.8844C42.2108 75.96 42.25 76.0407 42.2798 76.1252C42.3278 76.2761 42.3487 76.4964 42.3967 76.5993C42.5132 76.8056 42.5821 76.8401 42.5821 76.8401C42.5821 76.8401 42.3967 76.8745 42.0731 76.957C41.7983 77.0259 41.4611 77.1424 40.9851 77.2113C40.839 77.2303 40.6921 77.2418 40.5449 77.2458C40.6138 77.3972 40.9161 77.9748 40.359 78.6416C39.8019 79.3085 39.63 79.4055 39.4582 79.8316C39.3717 79.7662 39.2797 79.7086 39.1831 79.6593C38.9976 79.5768 38.7429 79.4535 38.6536 79.2881C38.6015 79.5085 38.5325 79.7246 38.4473 79.9345C38.2755 80.3951 38.0212 80.8493 37.9731 81.193C37.7872 80.9867 37.4436 80.581 36.969 80.6635C36.4943 80.746 36.1163 81.3924 36.0337 81.5783C36.0337 81.4613 35.9512 81.372 35.9308 81.5094C35.9168 81.6608 35.6557 83.242 34.1977 84.5213C34.1841 84.1981 34.1841 83.4828 34.1497 83.2493C34.0137 83.3853 33.8473 83.5861 32.8568 84.0127C31.8871 84.4388 32.0408 84.8654 32.0408 84.8654C32.0408 84.8654 31.9583 84.1854 32.481 83.4692C33.0105 82.7542 33.3337 82.417 33.3337 82.3621C33.3251 82.3062 33.3013 82.2538 33.2648 82.2107C33.1959 82.1418 33.0585 82.0593 33.0585 82.0044C33.141 81.9704 33.9593 81.5783 33.9112 80.7664C33.8632 80.0379 33.554 79.6593 33.3337 79.3914C33.2997 79.357 33.6574 79.1026 33.6089 79.0201C33.5744 78.9721 33.1347 78.6484 33.0794 78.4761C33.0924 78.3733 33.1155 78.2721 33.1483 78.1738C33.1963 78.0224 33.2308 77.919 33.2172 77.8161C33.1827 77.6443 32.9969 77.1696 32.942 77.1216C32.9901 77.1352 33.3337 77.1216 33.3337 77.1216C33.3337 77.1216 33.059 76.6814 33.0105 76.4751C32.962 76.2689 32.8591 75.7253 32.8042 75.6224C32.9212 75.636 33.2099 75.6564 33.2099 75.6224C33.224 75.519 32.9556 75.3472 33.0739 75.2144C33.1564 75.228 33.3147 75.2969 33.4656 75.4896C33.3831 75.2693 33.2457 74.8431 32.9565 74.6713C33.0925 74.6233 33.5549 74.499 33.9607 74.7398C34.3664 74.9805 34.5047 75.3173 34.5047 75.3173C34.5047 75.3173 34.7454 75.5032 35.1171 75.7784C35.5432 76.1152 36.0863 76.5944 36.9531 76.9334C37.139 77.0368 37.6132 77.0368 37.9572 76.9679C38.1071 76.9322 38.2507 76.8743 38.3834 76.7961C38.4313 76.7679 38.482 76.7448 38.5348 76.7272C38.4609 76.5788 38.3758 76.4362 38.2805 76.3006C38.3974 76.3006 38.5348 76.3146 38.5348 76.3146C38.5348 76.3146 38.6173 76.1288 38.246 75.7706C38.3285 75.6881 38.4319 75.6347 38.4319 75.4955C38.3149 75.4819 38.1087 75.3101 38.0606 75.2412C38.1291 75.1931 38.2324 75.0349 38.3494 74.9868C38.246 74.9043 37.9917 74.5603 37.8747 74.5262C37.9865 74.4848 38.0946 74.4341 38.198 74.3748C38.198 74.3748 37.6204 74.2234 37.4345 74.0997C37.2487 73.9637 36.974 73.7284 36.8089 73.6595C36.6367 73.5906 36.3343 73.5566 36.2105 73.4188C36.3271 73.4532 36.5129 73.4188 36.6507 73.4188C36.7536 73.4188 36.8021 73.4324 36.8361 73.4324C36.8225 73.3843 36.8225 73.2809 37.0909 73.2469C37.22 73.2275 37.3453 73.188 37.4622 73.13C37.4622 73.13 37.2074 73.1164 36.9182 72.8412C36.629 72.566 36.3887 72.3462 36.2237 72.3117C36.0519 72.2773 35.7287 72.4287 35.5292 72.4146C35.254 72.3806 35.1371 72.2428 35.1371 72.2428C35.1371 72.2428 34.2227 72.3253 32.194 71.0877C30.4401 70.0147 29.6767 69.0658 29.6767 69.0658C29.5125 69.0063 29.3539 68.9326 29.2025 68.8455C28.5424 68.5019 27.6276 67.7865 27.6552 66.8509L27.6516 66.8577Z" fill="#C2A44D"/>
<path fill-rule="evenodd" clip-rule="evenodd" d="M52.9522 25.5817C53.1113 25.6333 53.2527 25.7287 53.3602 25.8568C53.6834 26.2281 53.8897 26.9294 53.1539 27.6792C53.4427 27.7821 53.5619 27.8152 53.814 27.7821C53.5597 28.085 52.9821 28.7314 52.9476 29.2954C52.9132 29.756 53.202 29.8938 53.202 29.8938C53.202 29.8938 52.7618 30.4024 52.7414 31.2538C52.9493 31.0193 53.1768 30.8031 53.4214 30.6073C53.9305 30.2016 54.6318 29.741 55.1064 29.4522C55.1 29.5732 55.1163 29.6944 55.1545 29.8094C55.1545 29.8094 56.0412 29.0805 56.7865 29.4042C57.1233 29.5556 56.9719 30.0298 56.9719 30.0298C56.9719 30.0298 57.4329 29.858 57.7562 30.1812C58.0794 30.5044 58.5363 31.3381 58.7707 31.6613C58.8736 31.8127 59.142 32.1015 59.4167 32.5485C59.792 33.1743 60.1054 33.8352 60.3524 34.5218C60.366 34.1642 60.4553 33.6075 61.4735 33.9579C62.4912 34.3156 63.6463 35.0654 64.616 36.5419C65.5857 38.0184 65.8259 39.6853 66.3142 40.32C66.8092 40.932 67.3183 41.9497 67.3528 42.3763C67.3872 42.8029 67.2014 44.1778 68.2191 47.8983C68.5079 46.7433 68.948 44.1778 68.948 44.1778L69.1888 41.9153L69.4639 34.9144L62.1535 28.8411L56.4388 24.694L52.7183 25.0517L52.9517 25.5812L52.9522 25.5817Z" fill="#CAA13E"/>
<path fill-rule="evenodd" clip-rule="evenodd" d="M66.5345 36.0002C66.5345 36.0002 66.4311 35.3202 64.7121 34.1642C62.9926 33.0227 61.6516 33.0227 60.414 32.053C59.4648 31.2896 58.4747 29.5357 57.83 28.9581C57.204 28.3874 57.1011 26.7368 57.1011 26.7368L59.2122 24.9688L62.352 20.4305L65.0063 17.5078L66.2784 19.2758L68.0464 21.3525L69.0296 25.52L69.3873 31.6201L66.5313 36.0006L66.5345 36.0002Z" fill="#B59544"/>
<path fill-rule="evenodd" clip-rule="evenodd" d="M68.6597 43.312C68.7117 42.3869 68.5974 41.46 68.3224 40.5752C67.869 39.1653 66.8785 36.662 66.4184 35.7246C66.2325 34.686 66.3703 34.6035 66.5698 34.4865C66.7693 34.3695 67.5191 33.9425 67.9298 32.4442C68.3405 30.946 69.6148 30.897 69.6148 30.897L70.3986 30.3195L71.5886 33.297L72.6268 35.9861L72.95 38.0424L73.1907 39.7959L72.6268 43.5028L69.8419 46.0197L68.6592 43.312H68.6597Z" fill="#C89D3A"/>
<path fill-rule="evenodd" clip-rule="evenodd" d="M29.7977 84.6284V84.5522C29.8556 84.516 29.9067 84.47 29.9487 84.4162C29.9967 84.3473 30.0316 84.2648 30.0656 84.2444C30.1346 84.2099 30.4578 84.1084 30.6296 84.141C30.8014 84.1737 31.2556 84.3609 31.4964 84.3473C31.9914 84.3337 32.569 83.9552 33.4838 84.1274C34.8592 84.3818 35.1824 85.317 35.9803 85.8465C36.5243 86.2182 37.0873 86.0527 37.1698 86.0527H37.3552C37.3897 86.0527 37.644 85.764 37.7818 85.778C38.057 85.7916 38.0842 86.0187 38.256 86.0323C38.6618 86.0804 39.446 85.8261 39.8382 85.9294C39.9544 85.9659 40.0602 86.0299 40.1464 86.116C40.2326 86.2021 40.2967 86.3078 40.3332 86.424C40.4157 86.6783 40.3468 87.0016 40.1473 87.1874C39.7212 87.5791 39.3155 87.9508 39.233 88.2754C39.3379 88.3554 39.4387 88.4408 39.5349 88.5311C36.1322 87.6642 32.8584 86.3534 29.7977 84.6324V84.6284Z" fill="#CEB052"/>
<path fill-rule="evenodd" clip-rule="evenodd" d="M66.4175 70.8878C66.4175 70.8878 67.4901 69.4575 67.8618 68.749C68.2331 68.0186 66.6859 58.7706 66.6859 58.7706L69.7944 48.5861L69.7114 45.2713C69.7114 45.2713 69.8628 42.2108 70.2205 40.8835C70.6471 41.6469 71.9744 42.5685 72.2632 43.0567C72.3992 42.1211 72.8612 40.1477 72.7927 38.0433C73.047 38.435 73.659 42.3758 73.659 42.3758L74.271 45.0301L75.0689 47.8498L75.9561 50.8278L76.4856 52.8841L76.7879 53.3791L77.0427 54.2455L77.2834 55.1811L77.9779 57.3748L78.3859 59.1764L78.7092 62.4431C78.7795 62.6932 78.8301 62.9485 78.8606 63.2065C78.8742 63.5642 78.8125 63.7705 78.8125 63.8326C78.8125 63.8947 78.9295 64.6164 78.8814 65.1599C78.8125 65.7039 78.8125 66.1296 78.3859 66.5199C77.9593 66.9102 77.6914 69.2431 77.6914 69.2431L76.928 68.7345C76.928 68.7345 77.0794 68.0395 76.7217 67.4071C76.3641 66.7747 75.6696 66.6437 75.2774 66.747C74.8857 66.8295 74.1019 66.9529 73.8472 67.1732C73.6064 67.393 73.0153 68.0739 72.4717 68.3836C71.7917 68.7916 70.6838 68.8238 70.0927 68.9611C69.4943 69.0971 68.8342 69.5051 68.1392 69.9789C67.5943 70.3316 67.0191 70.6351 66.4202 70.8855L66.4175 70.8878Z" fill="#CCA847"/>
<path fill-rule="evenodd" clip-rule="evenodd" d="M66.4175 85.914C66.4175 85.914 66.4628 85.9435 66.5503 85.9915C71.4361 83.7024 75.8138 80.4577 79.425 76.4488C79.3855 75.0571 79.3343 73.6305 79.2781 73.1019C79.1616 71.9808 79.2441 70.8393 79.2096 70.1792C79.1752 69.5192 78.8039 66.83 78.6321 66.1355C78.4462 65.441 78.0881 65.0969 78.0337 65.0969C77.9856 65.111 77.6964 66.4039 77.6964 66.7289C77.6964 67.054 77.6275 67.8364 77.6275 68.0359C77.5794 68.0218 77.559 67.8999 77.559 67.85C77.4901 68.0218 77.4076 68.3247 77.3732 68.3591C77.3387 68.3936 77.4212 68.0703 77.3732 68.0014C77.3251 67.9325 77.2372 67.967 77.2562 67.7952C77.2644 67.6933 77.2804 67.5922 77.3043 67.4928C77.3043 67.4928 77.098 67.7952 76.947 68.5654C76.7956 69.3288 76.7956 69.3496 76.7408 69.4181C76.6927 69.5011 76.4176 69.7758 76.4035 69.8791C76.3899 70.0645 76.6583 70.2504 76.6787 70.3533C76.6923 70.5256 76.438 71.323 76.3555 71.7133C76.2729 72.1036 76.3074 72.8684 76.2195 73.2605C76.1505 73.6182 76.0834 73.8245 75.8482 73.9755C76.02 74.0099 76.185 74.058 76.185 74.058C76.185 74.058 76.4257 75.0757 75.8137 75.9425C75.5938 76.2448 75.539 76.3827 75.3051 76.6578C74.844 77.1665 74.4864 77.7458 74.4519 78.1225C74.4281 78.0114 74.4121 77.8987 74.4039 77.7853C74.4039 77.7853 73.6889 78.6176 73.3861 79.0922C72.9944 79.7042 72.4509 79.6698 72.2981 79.8212C72.1453 79.9726 72.1123 80.2473 72.1621 80.4676C72.0261 80.5016 71.7704 80.5501 71.5982 81.0796C71.5157 81.3544 71.3094 81.6236 70.9862 81.8086C70.6629 81.9936 70.2708 82.0493 70.0713 82.0974C70.2432 82.1454 70.3121 82.1454 70.3946 82.2003C70.2917 82.3721 69.817 82.6405 69.2875 82.9845C68.758 83.3078 68.5033 83.782 68.3727 84.0916C68.2367 84.3804 68.0359 84.5662 67.7127 84.6007C67.8487 84.6832 68.0499 84.8754 68.1528 84.9375C68.0014 84.972 67.7448 84.972 67.2865 85.3641C66.8051 85.763 66.6401 85.88 66.4197 85.9144L66.4175 85.914Z" fill="#C39D3C"/>
<path fill-rule="evenodd" clip-rule="evenodd" d="M56.8486 89.1009C57.1119 88.9164 57.3971 88.7651 57.6977 88.6508C58.7703 88.2246 59.905 88.1421 60.3519 88.0048C60.7785 87.8688 61.1154 87.6811 61.6448 87.5782C61.6308 87.6988 61.619 87.8121 61.6063 87.9191C60.0453 88.4098 58.4556 88.8045 56.8463 89.1009H56.8486Z" fill="#D2BA6B"/>
<path fill-rule="evenodd" clip-rule="evenodd" d="M76.632 60.8886C76.632 60.8886 76.4122 62.0782 76.02 62.828C75.6279 63.5778 75.204 64.6159 75.204 64.6159C75.2066 64.382 75.2343 64.149 75.2865 63.921C74.7915 64.2097 73.5879 64.9047 73.2465 65.2139C72.9233 65.5026 72.3798 66.0117 72.2424 66.2525C72.5656 65.3036 72.9025 64.4509 72.9578 64.0588C72.4627 64.4165 70.1516 66.3214 68.9485 67.5798L65.2003 70.6126C64.7678 70.8459 64.3224 71.0545 63.8662 71.2373C63.2202 71.512 62.4568 71.7459 61.8928 71.9663C62.0442 71.5605 62.2845 71.2024 62.6218 70.8588C62.9795 70.5219 64.052 69.3596 64.2171 68.8188C64.3685 68.2548 64.4029 67.918 64.2035 67.4434C64.0176 67.4914 63.5915 67.5123 63.3027 67.5948C63.0139 67.6773 62.7043 67.9865 62.7043 67.9865C62.7043 67.9865 62.9241 66.728 63.3988 65.5385C63.0411 65.5521 62.4291 65.655 62.4291 65.655C62.4291 65.655 63.2818 64.2247 64.7411 63.2278C64.2942 63.3229 63.8569 63.4586 63.4346 63.6331C62.5819 63.9908 61.6467 64.5203 60.9521 64.809C61.3438 64.265 64.0947 60.3392 65.7316 56.6803C67.3636 53.0287 67.9734 52.0935 68.3311 50.1337C68.5165 49.164 68.4671 47.7311 68.5165 46.4477C68.5645 45.1752 68.7227 44.0337 68.6198 43.2703C69.046 43.7998 70.6417 45.2921 70.6965 48.6278C70.7446 51.9629 69.1702 56.4677 67.4987 58.8948C67.9067 59.0118 68.9639 59.1496 70.0501 57.2628C71.1363 55.3761 71.1231 54.8493 71.5153 54.065C71.5633 54.4572 71.5493 54.5945 71.5493 54.5945C71.5493 54.5945 73.1314 52.676 73.8808 50.262C74.0322 51.3006 74.4792 52.2154 73.7774 54.1203C73.1518 55.8394 72.3335 56.2592 72.3335 56.2592C72.3335 56.2592 72.7393 56.1903 73.3372 55.8326C73.4406 56.0869 73.4202 56.3766 73.592 56.479C73.7638 56.5815 73.9977 56.7542 74.0322 56.9192C74.2176 56.6441 74.5064 56.2932 74.5961 56.032C74.5272 56.576 74.4792 58.9547 74.7321 60.1651C75.2621 60.117 75.8052 60.0826 76.1764 59.1265C75.9221 60.0622 75.9221 60.6257 76.0939 61.4235C76.3759 61.2313 76.6302 60.8872 76.6302 60.8872L76.632 60.8886Z" fill="#C0993A"/>
<path fill-rule="evenodd" clip-rule="evenodd" d="M58.7635 22.9823C58.7635 22.9823 58.234 23.2022 57.3332 23.2022C56.5494 23.2022 56.7693 22.8998 55.5453 22.8998C53.6612 22.8998 47.0797 23.9878 45.9242 23.9724C45.1743 23.9588 48.4547 24.2956 48.4547 24.2956L56.8382 24.4126L58.5227 24.2766L59.1488 23.0027L58.7635 22.9823Z" fill="#A88F33"/>
<path fill-rule="evenodd" clip-rule="evenodd" d="M37.0252 39.3703C37.0252 39.3703 35.9522 40.1885 35.4984 40.8146C35.0446 41.4406 34.8039 41.8527 34.288 42.3618C34.4091 42.3664 34.5301 42.3502 34.6456 42.3138C34.6456 42.3138 34.6456 42.4498 34.5631 42.4856C34.6344 42.4776 34.7066 42.4857 34.7744 42.5092C34.8422 42.5327 34.9038 42.5711 34.9548 42.6216C34.8034 42.7041 34.3909 43.1171 34.7141 43.6053C34.9548 43.9766 35.4639 44.0106 35.4639 44.0106C35.4639 44.0106 35.347 44.3479 35.8352 44.3134C36.8874 44.2654 38.0633 43.8043 38.6064 43.9213C39.1504 44.0573 39.4596 44.1072 39.8445 44.7745C40.2525 45.4345 40.6079 45.5379 40.6079 45.5379C40.6079 45.5379 40.8486 44.9254 40.7938 44.011C40.9911 43.5182 41.1005 42.9945 41.117 42.4638L40.7593 39.83L39.1985 37.8561L37.1766 38.9772L37.0252 39.3689V39.3703Z" fill="#E3C571"/>
<path fill-rule="evenodd" clip-rule="evenodd" d="M38.9437 38.9781C38.9437 38.9781 39.0951 39.3358 39.728 39.3698C39.6591 39.5212 39.6591 39.5421 39.6799 39.6586C39.6935 39.7755 39.7139 39.9473 39.7139 39.9473C39.7836 39.9136 39.8466 39.8676 39.8998 39.8113C39.9343 39.9628 39.8654 40.203 39.8998 40.3753C39.9211 40.4801 39.9556 40.5817 40.0027 40.6777C40.0127 40.6541 40.0243 40.6313 40.0372 40.6092C40.0508 40.5748 40.1732 40.9805 40.5118 41.2892C40.5115 41.2417 40.5232 41.195 40.5458 41.1532C40.551 41.2394 40.5795 41.3226 40.6283 41.3939C40.603 41.3819 40.5798 41.3656 40.5599 41.3459C40.5599 41.3459 40.5939 42.4339 40.7797 42.9965C40.8108 42.9601 40.8384 42.921 40.8622 42.8795C40.8622 42.8455 40.8486 43.1823 40.8142 43.4235C40.7661 43.6642 40.8006 44.0011 40.8006 44.0011C40.9246 43.9034 41.0608 43.8225 41.2059 43.7603C41.4121 43.6774 41.7499 43.4231 41.9557 42.8591C42.0751 42.5397 42.1671 42.2108 42.2308 41.8758C42.2973 42.0038 42.3432 42.1415 42.3668 42.2838C42.3809 42.4556 42.7041 42.3663 42.7041 42.3663L42.773 41.6165L43.181 39.9179L43.5523 38.8657L45.3403 36.0809L48.5707 33.593L51.3904 34.2394L53.7695 31.0072L49.671 28.5451L45.7922 28.9508L42.2721 33.8264L39.4528 38.2487L38.9437 38.9777V38.9781Z" fill="#D8B65B"/>
<path fill-rule="evenodd" clip-rule="evenodd" d="M59.2585 31.9225C59.2585 31.9225 59.0177 31.9705 58.3232 32.3305C57.6287 32.6904 57.1473 32.8047 56.8789 33.3342C56.6105 33.8636 56.5901 34.2834 56.5901 34.2834C56.5901 34.2834 57.0648 34.0772 57.34 34.0083C57.6287 33.9398 57.952 33.9602 57.9175 34.0772C57.8844 34.1574 57.8385 34.2316 57.7815 34.297C57.7815 34.297 58.3255 34.2834 58.311 34.5518C58.2965 34.8202 58.2081 35.1158 58.1052 35.2463C58.0018 35.3823 57.5757 35.5836 57.5276 35.7418C57.4107 36.065 57.5757 36.0786 57.5136 36.3398C57.4655 36.5945 57.2389 37.0896 56.4958 37.9559C55.7324 38.8227 55.4078 39.4347 55.4078 39.4347C55.4078 39.4347 55.0366 38.7402 54.8439 38.1418C54.7079 38.2102 53.9776 38.6159 53.9776 38.6159L52.2857 32.7226L52.3197 32.3305C52.3197 32.3305 52.4712 32.1451 52.5056 31.801C52.2513 31.7185 52.2168 31.6496 51.8796 31.3268C51.5423 31.004 51.2676 30.6114 50.7041 30.3431C50.6216 30.1916 50.5182 29.9858 50.1057 29.9029C49.6931 29.8199 49.4456 29.7519 49.4456 29.7519C49.4456 29.7519 49.6655 29.669 49.7688 29.4971C49.5141 29.5316 49.3083 29.6141 48.7511 29.6005C48.1872 29.5864 48.1251 29.566 47.8159 29.6141C47.5067 29.6622 47.1359 29.8 46.9976 29.3253C46.8462 29.2084 46.523 29.3117 46.2478 29.717C45.9726 30.1223 45.8765 30.446 45.347 30.6042C45.3098 30.8376 45.2281 31.0617 45.1063 31.2642C44.9549 31.519 44.7142 31.7733 44.3909 32.1514C43.8819 32.7498 43.9644 33.7331 43.1529 34.4829C42.3346 35.2323 43.2889 32.4057 43.2889 32.4057L44.5954 29.2777L48.3159 25.6397L54.0927 25.248L54.6567 28.24L57.4764 29.2097L59.2576 31.9261L59.2585 31.9225Z" fill="#D3AE4D"/>
<path fill-rule="evenodd" clip-rule="evenodd" d="M60.1733 32.5825L57.7457 29.0823L56.0471 27.7754C56.0471 27.7754 54.8367 25.5477 54.7542 25.4788C54.6852 25.4307 53.5438 25.307 52.8148 25.2589L52.9508 25.5957C53.1099 25.6474 53.2513 25.7428 53.3588 25.8709C53.682 26.2422 53.8883 26.9435 53.1525 27.6933C53.4413 27.7962 53.5605 27.8293 53.8126 27.7962C53.5583 28.099 52.9807 28.7455 52.9463 29.3094C52.9118 29.77 53.2006 29.9074 53.2006 29.9074C53.2006 29.9074 52.7604 30.4165 52.74 31.2674C52.9479 31.033 53.1754 30.8167 53.42 30.6209C53.9291 30.2129 54.6304 29.7542 55.105 29.4654C55.0986 29.5866 55.1149 29.7079 55.1531 29.8231C55.1531 29.8231 56.0398 29.0941 56.7851 29.4173C57.1219 29.5688 56.9705 30.0434 56.9705 30.0434C56.9705 30.0434 57.4315 29.8716 57.7548 30.1948C58.078 30.518 58.5386 31.3499 58.7725 31.6736C58.8754 31.825 59.1438 32.1138 59.4185 32.5603C59.7939 33.1862 60.1073 33.8473 60.3542 34.5341C60.3678 34.2589 60.4231 33.8741 60.8982 33.8741L60.176 32.5812L60.1733 32.5825Z" fill="#CAA13E"/>
<path fill-rule="evenodd" clip-rule="evenodd" d="M23.7801 42.5268C23.7801 42.5268 23.6083 42.1002 23.7801 41.2684C23.9519 40.4365 24.2203 40.0444 24.3096 38.8204C24.3989 37.5964 25.1968 36.0695 25.1968 36.0695L27.404 35.0659L28.9653 35.492L29.4259 37.5828L27.4521 38.6708C27.4521 38.6708 27.3492 39.1314 26.792 39.5026C26.2349 39.8739 25.4647 40.1627 25.2793 40.5412C25.1684 40.773 25.0875 41.018 25.0386 41.2702C25.0386 41.2702 24.4746 41.1532 24.1378 41.5245C23.7801 41.903 23.7937 42.2399 23.7801 42.5286V42.5268Z" fill="#F4EFC8"/>
<path fill-rule="evenodd" clip-rule="evenodd" d="M28.2364 41.9697C28.2364 41.9697 28.0505 42.0867 27.9132 42.3777C27.7772 42.1578 27.4521 40.8509 27.4385 39.6749C27.4249 38.499 27.3547 38.2075 27.6267 37.8022C27.8987 37.3969 28.9654 36.9699 28.814 36.24C28.6625 35.5455 28.0297 35.2568 27.2527 35.4562C26.7087 35.5922 26.3039 36.7491 25.7399 37.3267C25.3133 37.7669 24.8047 37.6979 24.6673 37.9387C24.4815 38.2619 24.6533 38.5851 24.5984 38.7914C24.5844 38.8603 24.4125 39.2316 24.1029 39.6786C23.4773 40.5793 22.4183 41.8518 22.2805 42.9933C22.3286 42.3469 22.2946 42.3333 22.4664 41.6179L22.363 41.4461L23.043 39.218L23.4832 37.382L24.4669 34.3075L26.1996 31.165L27.8846 29.2805L29.6381 29.3974L29.8444 32.0313L30.8485 36.9762L32.9597 39.5757L29.576 41.8527L28.2351 41.9697H28.2364Z" fill="#EBCC73"/>
<path fill-rule="evenodd" clip-rule="evenodd" d="M29.2886 42.904C29.2886 42.904 28.9998 42.9729 28.8965 42.9181C28.7931 42.8632 28.6907 42.8011 28.7247 42.7322C28.7587 42.6633 28.9445 42.5468 28.9445 42.4915C28.9484 42.4415 28.9325 42.392 28.9005 42.3535C28.8684 42.315 28.8226 42.2905 28.7727 42.2852C28.6145 42.2648 28.5665 42.3677 28.5665 42.3677C28.5665 42.3677 28.415 42.2512 28.2917 42.2317C28.3647 42.2228 28.4381 42.2181 28.5116 42.2177C28.3216 42.1316 28.12 42.0737 27.9132 42.0459C28.085 41.9429 28.4223 41.6401 28.6422 41.6401C28.862 41.6401 28.9998 41.6061 28.9654 41.4892C28.9309 41.3722 28.7591 41.2004 28.5737 41.1315C28.6422 41.049 28.6907 40.9252 28.5257 40.5875C28.3534 40.2507 28.4223 40.0235 28.4776 39.9415C28.5257 39.8381 28.6975 39.6527 28.78 39.5357C28.8625 39.4188 28.9314 39.2606 29.0688 39.1781C29.1377 39.13 29.3575 39.0421 29.5778 38.9582C29.8186 38.8757 30.018 38.7723 30.1554 38.8757C30.3068 38.9786 30.2379 39.1164 30.2379 39.1164C30.2379 39.1164 30.7125 38.9441 31.1387 39.1645C31.5653 39.3703 32.6038 39.5013 32.6038 39.5013L32.976 40.2511L30.514 42.3623L29.4962 42.8714L29.29 42.9054L29.2886 42.904Z" fill="#E5C66B"/>
<path fill-rule="evenodd" clip-rule="evenodd" d="M32.7062 39.4527C32.7062 39.4527 31.9428 39.9618 31.771 40.1472C31.8739 40.1613 32.0457 40.2302 31.9768 40.3331C31.8943 40.436 31.3993 40.7937 31.1241 41.131C30.8353 41.4678 30.5602 41.8944 30.4641 42.1007C30.3611 42.2861 29.5769 42.8296 29.309 42.8981C29.8729 42.8981 31.0076 42.2036 31.4337 42.2036C31.4201 42.4098 31.5507 42.6438 31.7914 42.6642C32.0321 42.6846 32.7266 42.8156 33.6619 42.238C34.5971 41.6741 34.2879 41.2543 34.6796 40.9796C35.4294 40.4841 35.7318 40.0439 36.1443 39.7692C36.5569 39.4944 36.7704 39.4319 36.7704 39.4319C36.7704 39.4319 36.784 39.2256 36.9064 39.2465C36.9399 39.2503 36.9717 39.2632 36.9984 39.2839C37.0251 39.3045 37.0456 39.332 37.0578 39.3634C37.0578 39.3634 37.7731 38.8543 38.6898 38.717C38.6684 38.7074 38.6513 38.6903 38.6417 38.6689C38.6417 38.6689 38.7102 38.6345 38.7242 38.6C38.7242 38.6 38.7723 38.5311 38.8067 38.5656C38.8412 38.6 38.8893 38.8543 38.9582 38.9577C39.1096 38.8888 39.3983 38.2423 39.3983 38.2423L40.0933 36.2549V34.4393L39.5493 34.5427L35.4693 36.2753L32.9932 38.8407L32.7044 39.4527H32.7062Z" fill="#E6BD62"/>
<path fill-rule="evenodd" clip-rule="evenodd" d="M44.4521 30.547C44.6728 30.4935 44.8844 30.4076 45.08 30.2923C44.9974 30.5126 44.9974 30.7533 44.6398 31.276C44.2821 31.7987 44.2685 31.8744 43.9797 32.4175C43.6909 32.9814 43.6565 33.7929 43.3813 34.1501C43.5047 34.0902 43.637 34.0509 43.773 34.0336C43.773 34.0336 43.4983 34.2744 43.3813 34.5287C43.2644 34.783 43.0581 35.3125 42.5494 35.6362C42.0408 35.9598 41.3939 36.1657 40.6994 36.9291C40.0044 37.6784 39.2895 38.6277 38.9314 38.9691C39.1173 38.6458 39.3716 37.9994 39.4405 37.5733C39.5094 37.1471 39.4264 36.6376 39.5434 36.0741C39.6604 35.5106 39.6604 35.1044 40.2234 34.1207C40.7864 33.1369 41.7502 29.7193 41.7502 29.7193L43.8269 29.0592L44.453 30.5448L44.4521 30.547Z" fill="#B6933F"/>
<path fill-rule="evenodd" clip-rule="evenodd" d="M42.953 29.2886C42.953 29.2886 42.3274 30.1893 42.1556 30.9872C41.9837 31.7851 42.1415 31.7162 42.0386 32.1083C41.977 32.3474 41.977 32.5982 42.0386 32.8373C42.2553 32.4882 42.5519 32.1957 42.904 31.9841C43.4956 31.6268 43.977 31.3721 44.264 31.0697C44.5528 30.7465 44.7935 30.217 45.4191 29.8113C45.1648 29.7768 44.8071 29.6598 44.7391 29.6753C44.9939 29.3865 45.7568 28.9463 46.527 28.4168C47.2905 27.8728 47.2424 27.6534 48.4805 27.1103C48.0747 27.1792 47.8821 27.0758 47.5448 27.1103C47.6808 26.8215 48.1568 26.6837 48.6328 26.2095C49.1088 25.7353 48.3304 25.0336 48.3304 25.0336L44.7037 27.2273L42.9502 29.2904L42.953 29.2886Z" fill="#C49937"/>
<path fill-rule="evenodd" clip-rule="evenodd" d="M33.1121 27.6516L33.1946 26.9916L34.2332 25.3274L35.3198 22.4047V18.4091L35.2373 16.0984L35.4091 14.5852L35.5397 14.1042L35.6775 13.9183L36.5642 14.3789L37.7886 16.0431L37.9056 19.255L36.7156 24.3232L33.3183 28.0301L33.1121 27.6516Z" fill="#DFC068"/>
<path fill-rule="evenodd" clip-rule="evenodd" d="M35.8148 13.7324C35.8148 13.7324 35.2708 13.7465 35.1547 16.0091C35.0387 18.2717 34.9825 19.4612 34.9 20.5823C34.8175 21.7034 34.6252 22.3839 34.5287 23.0444C34.4321 23.7049 34.3773 24.6052 34.0681 25.1555C33.9321 25.4099 33.6415 26.2077 32.9606 26.8061C32.1972 27.4662 31.0566 27.9272 30.8839 27.9617C30.5811 28.0301 29.0474 28.1815 28.4218 28.5256C28.202 28.6426 27.8234 28.7799 27.4041 29.1721C26.5718 29.9214 25.4647 31.2624 24.6669 32.8785C23.4429 35.2925 22.2189 42.1075 22.2189 42.1075L22.494 41.6469C22.494 41.6469 22.5285 41.0349 23.1405 39.9618C23.7389 38.8893 23.5671 37.6857 24.399 35.6293C24.7222 34.8455 25.1279 33.8278 25.623 32.961C26.4072 31.5512 27.356 30.3408 28.3121 29.6807C29.873 28.6081 31.5924 28.3742 31.5924 28.3742L33.4425 27.1502C33.4425 27.1502 33.7657 26.5246 34.1923 25.8092C34.7903 24.8056 35.5523 23.6845 35.7187 22.0547C35.9735 19.6407 35.361 18.0591 35.3955 16.6288C35.4299 15.1985 35.4435 14.1463 35.7327 13.8916C36.022 13.6368 35.8152 13.7333 35.8152 13.7333L35.8148 13.7324Z" fill="#A88F33"/>
<path fill-rule="evenodd" clip-rule="evenodd" d="M35.8147 24.5295C35.8147 24.5295 36.6307 22.5212 37.0043 20.7401C37.0732 20.3824 37.2106 20.0252 37.245 19.7364C37.4168 18.0514 37.4649 17.3568 37.245 16.4352C37.0732 15.7552 36.4131 15.1423 36.0691 14.6672C35.7322 14.1717 35.574 13.9872 35.6429 13.883C35.7118 13.7787 35.9798 13.6082 36.2409 13.6286C36.5184 13.6367 36.7915 13.7012 37.0433 13.8181C37.2952 13.935 37.5207 14.1019 37.706 14.3086C38.2355 14.9206 38.6549 16.9978 38.6549 16.9978L39.096 19.7387L40.2171 23.1908L35.8156 24.5322L35.8147 24.5295Z" fill="#C99E3D"/>
<path fill-rule="evenodd" clip-rule="evenodd" d="M43.4825 22.4392C43.4825 22.4392 43.331 22.5076 43.0563 22.4392C43.068 22.5514 43.0486 22.6648 43 22.7667C42.9514 22.8686 42.8757 22.9551 42.7811 23.0167C42.4924 22.8998 39.7891 23.1337 39.7891 23.1337C39.7891 23.1337 38.5307 22.9134 38.1386 21.2492C37.8638 20.1417 38.3448 18.6153 38.1866 17.6112C37.9459 16.1324 37.6091 15.8432 37.5746 15.383C37.5402 14.9229 37.5057 14.8055 37.5057 14.5167C37.3543 14.4823 37.265 14.4342 37.114 14.4342C37.0796 14.2982 37.148 14.1794 36.9971 13.9387C37.0796 13.9732 37.6435 14.0421 38.3036 14.6677C38.8476 15.1768 38.8476 15.3622 38.9296 15.4655C39.0325 15.5685 39.8649 16.2815 40.2225 16.9924C40.5802 17.7032 41.2747 19.9699 41.4329 20.3411C41.481 20.4926 41.5843 20.644 41.8409 20.9876C42.2399 21.4831 42.8242 22.3023 43.4843 22.4383L43.4825 22.4392Z" fill="#B58634"/>
<path fill-rule="evenodd" clip-rule="evenodd" d="M39.0266 15.5C39.4432 16.173 39.8175 16.8713 40.1473 17.5908C40.553 18.5051 40.7937 19.255 41.3028 19.867C41.0276 19.0695 40.5394 17.5015 40.2506 16.9443C39.9274 16.355 39.2673 15.7203 39.0266 15.5005V15.5Z" fill="#A88F33"/>
<path fill-rule="evenodd" clip-rule="evenodd" d="M34.3501 26.8061C34.3501 26.8061 33.6556 26.9779 32.3627 27.6588C31.9361 27.8787 31.5308 28.0641 31.1387 28.2364C30.12 28.697 29.0275 29.1226 28.1607 29.3575C28.2296 29.44 28.2636 29.474 28.2636 29.474C28.2636 29.474 28.2636 29.8113 28.4495 30.0035C28.3466 30.1068 26.9707 31.0421 27.3769 34.171C27.6516 34.0681 27.9749 33.9302 28.0229 33.9302C28.1059 33.9443 28.1263 34.171 28.2292 34.171C28.3321 34.171 28.6694 34.035 29.027 33.5726C29.0134 33.7584 28.8072 35.6289 29.9142 36.8873C30.1205 36.6466 30.6432 35.8488 30.6432 35.8488L30.6568 35.5944C30.6568 35.5944 30.7048 34.7073 30.9941 33.8958C31.2833 33.0843 31.8468 32.4859 31.8468 32.4859L34.7894 28.284L34.3492 26.8057L34.3501 26.8061Z" fill="#E6C367"/>
<path fill-rule="evenodd" clip-rule="evenodd" d="M31.5993 32.976C31.4646 33.0712 31.3161 33.1453 31.1591 33.1959C31.111 33.0241 31.0421 32.4325 31.4479 31.8549C31.9225 31.16 32.9606 30.2592 33.2494 29.5429C33.4353 29.0819 33.3528 27.9268 35.0034 26.448C36.6539 24.9692 37.2999 24.4606 37.2999 24.4606L39.9683 23.1196L43.2486 24.4125L41.6188 30.8L40.3536 33.792L35.3216 32.8432L31.5988 32.976H31.5993Z" fill="#DCBA5A"/>
<path fill-rule="evenodd" clip-rule="evenodd" d="M33.52 31.2416L34.1461 30.4578V29.9006C34.1461 29.9006 34.8406 29.7147 35.5899 28.9513C36.3393 28.1879 37.3779 26.7232 38.2927 26.8125C39.2075 26.9159 39.2968 28.7999 39.3313 29.3299C39.3658 29.8598 39.4827 31.0625 39.6681 31.7094C39.8744 32.3559 37.44 34.8039 37.44 34.8039L35.7867 36.0623L33.52 31.2416Z" fill="#E9CE77"/>
<path fill-rule="evenodd" clip-rule="evenodd" d="M35.457 37.7677C35.457 37.7677 35.9661 36.9699 35.593 36.798C35.8129 36.303 36.2186 35.7803 36.2186 35.7803C36.2186 35.7803 36.5074 35.0654 37.4426 34.185C38.3779 33.3047 38.9559 32.7199 39.1073 32.1287C39.2006 31.7434 39.2514 31.3491 39.2587 30.9528C39.3598 31.0354 39.4679 31.1089 39.5819 31.1726C39.7333 31.2415 40.4482 31.8327 40.3453 33.0227C40.2424 34.2127 39.8013 34.7077 39.8013 34.7077C39.8013 34.7077 39.3752 35.1339 39.0728 35.3542C38.7491 35.574 38.6326 35.8284 38.0891 35.8492C38.145 35.8048 38.2077 35.7699 38.275 35.7459C38.275 35.7459 37.711 35.6774 37.4082 35.9521C37.1054 36.2268 36.4616 37.0732 36.1384 37.328C35.8152 37.5343 35.4584 37.7682 35.4584 37.7682L35.457 37.7677Z" fill="#CDAE50"/>
<path fill-rule="evenodd" clip-rule="evenodd" d="M58.3232 24.3917C57.5107 24.0956 56.6569 23.9285 55.7927 23.8967C54.3484 23.8486 52.2372 23.9311 50.1673 23.9447C47.9391 23.9583 45.9173 23.1813 43.1116 23.0439C42.651 22.7688 41.4796 21.5652 37.823 24.1165C38.0429 24.1029 40.4777 23.5526 41.3232 24.612C42.1759 25.6642 41.9352 27.4521 41.8187 27.8783C41.5984 28.8276 40.883 30.2098 40.5947 31.1795C40.3064 32.1491 40.3744 32.6587 40.1681 33.3387C39.9618 34.0187 39.508 34.3564 39.776 35.1402C40.1336 34.9204 40.32 34.9204 40.9175 33.5794C41.5149 32.2384 41.3921 31.2824 42.3826 30.1477C43.3523 29.0062 44.9666 27.4449 45.5804 27.0528C46.1943 26.6606 51.068 24.1301 56.1712 26.5441C57.402 26.4136 58.3236 24.3912 58.3236 24.3912L58.3232 24.3917Z" fill="#D2A83E"/>
<path fill-rule="evenodd" clip-rule="evenodd" d="M39.8789 23.456C39.8738 23.4043 39.8624 23.3535 39.8449 23.3046C39.7971 23.204 39.7345 23.1113 39.659 23.0294C39.659 23.0294 38.4486 22.8096 37.8366 22.878C36.7636 22.995 35.7939 24.3223 35.3401 25.0032C34.8863 25.6842 34.3224 26.7359 33.7104 27.2794C33.7171 27.2265 33.7049 27.1729 33.6759 27.128C33.6759 27.128 33.7104 27.1761 33.6419 27.245C33.5735 27.3139 33.573 27.3479 33.6075 27.381L33.7108 27.4839C33.7448 27.4839 34.6941 27.0573 35.987 25.8519C37.3624 24.5934 38.4146 23.9479 38.9649 23.7267C39.2584 23.6019 39.5652 23.5111 39.8793 23.456H39.8789Z" fill="#C29637"/>
<path fill-rule="evenodd" clip-rule="evenodd" d="M63.3576 18.2853C63.3576 18.2853 63.1372 18.56 62.8621 18.8628C62.2501 19.5093 61.4522 20.2378 60.7713 20.9876C60.1253 21.703 59.3963 22.2601 58.5776 23.1953C57.7589 24.1306 56.8096 25.1687 56.5693 25.4715C56.3495 25.7743 56.1777 26.2694 56.1777 26.5237C56.0607 26.4412 55.9233 26.3519 55.9233 26.3519C55.9812 26.4599 56.0503 26.5614 56.1296 26.6547C56.3014 26.8954 56.5693 27.1987 56.7072 27.3837C56.8762 27.6191 56.9976 27.8854 57.0644 28.1675C57.1469 28.1811 57.6764 28.2845 58.3369 27.1978C58.9974 26.1112 59.8633 24.9216 59.8633 24.9216L61.2387 22.8789L62.1055 21.1463L63.1935 19.2069L63.3589 18.2853H63.3576Z" fill="#AC8132"/>
<path fill-rule="evenodd" clip-rule="evenodd" d="M64.7673 16.8962C64.7673 16.8962 63.935 17.5762 63.6118 17.9842C63.2886 18.3922 62.5238 19.463 62.5238 19.463L62.799 19.4286L64.1952 18.191L64.7392 17.2213L64.7669 16.8981L64.7673 16.8962Z" fill="#A88F33"/>
<path fill-rule="evenodd" clip-rule="evenodd" d="M64.5125 71.5479C64.5125 71.5479 64.4989 70.9839 64.8154 70.6471C65.1386 70.3098 65.9569 69.8148 66.7547 67.9579C67.5526 66.1011 67.6414 65.6817 67.6414 65.6817C67.6414 65.6817 66.2112 66.9057 65.3294 67.1945C65.5357 66.7679 65.6527 66.4655 65.756 66.2452C65.6391 66.1423 65.144 66.0254 65.096 65.9705C65.3707 65.6953 65.5221 65.0212 66.0793 64.5742C66.7946 64.0302 68.1011 63.0955 69.1166 62.2622C70.1321 61.429 72.1285 59.491 72.3833 58.9271C72.5347 59.1469 72.5687 59.2843 72.5687 59.2843C72.5687 59.2843 71.565 60.5913 71.0424 61.4231C70.5813 62.1385 70.6158 62.5442 70.6158 62.5442L71.565 62.1362C71.565 62.1362 71.8398 63.1539 70.5954 64.7016C71.1394 64.4954 71.3588 64.6191 71.668 64.4469C71.1589 64.7705 70.4576 65.2107 69.7975 66.4207C69.151 67.6311 68.2707 69.0409 66.7856 69.9208C65.3412 70.8493 64.5089 71.5438 64.5089 71.5438L64.5125 71.5479Z" fill="#A67A2E"/>
<path fill-rule="evenodd" clip-rule="evenodd" d="M60.7852 25.1075C60.7852 25.1075 60.2213 26.283 60.1388 27.1978C60.1252 27.4182 60.0699 27.59 60.0699 27.8443C60.0563 28.6626 60.1179 29.5774 59.9339 30.0035C59.865 29.8317 59.8305 29.7147 59.7616 29.6463C59.6587 29.9351 59.4728 30.8358 59.3214 31.1727C59.253 30.9528 59.1015 30.1894 59.1156 29.2886C59.1296 28.3878 59.1496 28.2156 59.1496 28.0302C59.1156 28.3049 58.9297 28.6766 58.8608 28.8965C58.7579 28.7111 58.641 28.4703 58.5031 28.2709C58.4206 28.4069 58.3177 28.6077 58.2284 28.7111C58.2144 28.6286 58.1804 28.4082 58.1595 28.0991C58.1459 27.7414 58.1251 27.2808 58.1459 27.1842C58.1799 26.9988 58.4691 26.2699 59.0811 25.6026C59.8101 24.8047 60.5599 23.2715 60.7798 22.7969C60.9996 22.3222 61.9349 20.3489 61.9349 20.3489H62.6502L61.6117 22.7144C61.6117 22.7144 60.986 24.0073 60.6628 24.4824C60.3396 24.9575 59.6587 26.3188 59.3559 26.8483C59.5757 26.5595 59.7616 26.4081 59.9819 26.133C60.195 25.9403 60.7861 25.1084 60.7861 25.1084L60.7852 25.1075Z" fill="#8C6228"/>
<path fill-rule="evenodd" clip-rule="evenodd" d="M64.7809 16.8065C64.6641 17.1662 64.4794 17.5001 64.2369 17.7903C63.8103 18.2993 62.8955 18.9798 62.449 19.5229C62.041 20.0524 61.225 21.4967 61.5958 23.2089C61.7318 22.8377 61.9879 22.1019 62.6688 21.2696C63.3497 20.4373 64.0787 19.4816 64.4368 18.7391C64.7941 17.9893 64.8421 17.3981 64.8421 17.3981L64.9781 17.2263L64.8956 16.8342L64.7787 16.8065H64.7809Z" fill="#CBA94C"/>
<path fill-rule="evenodd" clip-rule="evenodd" d="M78.7069 62.4218C78.7069 62.4218 78.4317 61.6724 78.3492 60.9915C78.2667 60.3106 78.4852 60.1755 78.2322 59.3963C78.0808 58.9216 77.8061 58.9883 77.7372 58.9216C77.6683 58.855 77.6202 58.1378 77.6338 57.7457C77.6474 57.3535 77.6202 56.8449 77.5513 56.6246C77.4484 56.5421 77.3795 56.4732 77.2281 55.9645C77.0563 55.4554 76.9738 55.2011 76.8913 55.0502C76.8088 54.8992 76.5676 54.7614 76.5676 54.61C76.5676 54.3071 76.8428 54.1494 76.8428 54.066C76.8292 53.8942 76.6229 54.032 76.5676 53.9835C76.4991 53.901 76.7399 53.4059 76.6505 53.337C76.6161 53.303 76.3754 53.5918 76.3133 53.5093C76.2444 53.4263 76.1619 52.608 76.0381 52.065C75.9216 51.5355 75.7974 51.1506 75.7838 50.9924C75.7702 50.841 74.8345 48.1726 74.6078 47.5262C74.4252 46.9799 74.2714 46.4244 74.1472 45.862C74.0783 45.5388 74.0303 44.8783 73.9958 44.9472C73.9614 45.0161 73.9822 45.3529 73.9269 45.3393C73.8789 45.3252 73.7071 44.1498 73.6522 43.9639C73.6041 43.778 73.3149 43.1479 73.2442 42.6918C73.1753 42.2308 73.0243 41.0272 72.921 40.2089C72.8176 39.3907 72.7696 39.0538 72.7696 38.8489C72.7865 38.3477 72.7589 37.846 72.6871 37.3498C72.5511 36.483 72.2791 35.4308 72.0406 34.8192C71.58 33.6637 70.3556 30.7066 70.1366 29.9708C70.1366 29.785 70.3773 29.8883 70.3773 29.8883C70.3773 29.8883 70.9753 31.3875 71.4155 32.5426C71.842 33.6982 72.2478 34.7159 72.3511 34.8192C72.4336 34.9222 73.0801 36.0568 73.3689 37.9137C73.6576 39.7706 73.7605 41.4828 73.9328 42.6243C74.0153 43.1683 74.0842 43.7454 74.256 44.3229C74.4414 44.949 74.7302 45.5954 75.1088 46.5855C75.432 47.4178 75.6727 48.1123 75.8033 48.7107C75.9547 49.4742 75.9547 50.0517 76.044 50.4302C76.1269 50.7535 76.2502 51.3995 76.5395 52.3342C76.8287 53.269 77.2544 54.4731 77.5432 55.2224C78.1076 56.7216 78.3592 57.9732 78.4444 58.6406C78.5196 59.3283 78.7744 61.7078 78.7055 62.4227L78.7069 62.4218Z" fill="#A88F33"/>
<path fill-rule="evenodd" clip-rule="evenodd" d="M64.8154 16.724L64.781 16.8065C64.781 16.8065 64.8839 16.841 64.8635 16.9788C64.865 17.1673 64.8534 17.3558 64.829 17.5427C64.795 17.7834 64.7261 17.9689 64.7125 18.1203C64.7125 18.4435 64.7606 18.8148 64.3045 19.7364C64.1685 19.9907 64.0847 20.2106 64.0158 20.362C63.8439 20.7333 63.8095 20.7886 63.6581 20.9604C63.8988 20.8244 64.7656 20.2804 65.2053 20.362C64.9029 20.5338 64.4419 20.8711 64.1531 21.3113C64.222 21.3249 64.5108 21.3802 64.9691 21.3113C65.7325 21.1943 66.5853 20.9192 67.3346 20.974C68.1533 21.0221 67.8301 19.9907 67.8301 19.9907L66.8854 17.914L65.0974 16.656L64.8154 16.7245V16.724Z" fill="#BE9C44"/>
<path fill-rule="evenodd" clip-rule="evenodd" d="M69.478 32.2801C69.478 32.2801 68.6801 31.4822 68.3569 28.7441C68.0337 25.9933 68.1026 21.9441 68.1026 21.9441L67.4561 20.3624C67.4561 20.3624 67.3201 19.3102 66.9815 18.9186C66.6429 18.5269 65.9778 17.8664 65.675 17.5432C65.3722 17.2199 65.0285 16.7797 64.8223 16.7108C64.9252 16.539 65.3862 15.5693 67.1533 15.5557C68.9204 15.5421 69.4653 16.5254 69.6498 16.8831C69.8343 17.2408 70.6675 18.7871 70.9767 21.7338C71.2655 24.6768 71.2795 24.8971 71.2315 25.9149C71.197 26.4788 71.0112 27.7853 70.6875 29.1811C70.3919 30.3643 70.0687 31.6849 69.4771 32.2828L69.478 32.2801Z" fill="#A17C34"/>
<path fill-rule="evenodd" clip-rule="evenodd" d="M66.9759 34.6252C67.2418 34.6444 67.5075 34.5844 67.7394 34.4529C67.9937 34.4393 68.9153 34.5563 69.6234 33.6555C69.6715 33.8613 69.7957 34.4189 69.472 34.914C69.6443 34.7417 69.8986 34.6733 69.933 34.6252C69.9466 34.8795 70.1874 35.6633 69.1696 37.5682C69.4443 37.2659 69.7676 37.2795 70.0563 37.245C70.0704 37.6027 70.2626 38.8058 69.754 39.4527C69.4171 39.8929 68.8668 39.7551 68.8668 39.7551C68.8748 39.659 68.8748 39.5624 68.8668 39.4663C68.8532 39.2805 68.7843 39.0951 68.8328 38.9713C68.5669 38.8498 68.3247 38.6821 68.1174 38.4758C67.519 37.9119 66.742 36.9494 66.6872 36.2341C66.6183 35.4362 67.3336 35.2644 67.3336 35.2644C67.2737 35.2108 67.2226 35.1481 67.1822 35.0785C67.1478 34.962 67.1133 34.7762 66.9759 34.6252Z" fill="#8C6228"/>
<path fill-rule="evenodd" clip-rule="evenodd" d="M61.672 25.9738C61.672 25.9738 61.6376 25.9257 61.4521 26.1456C61.4866 25.9257 61.5211 25.719 61.5347 25.5196C61.6224 25.3349 61.736 25.1636 61.8719 25.0109C61.7686 25.2167 61.6997 25.4026 61.6997 25.4026C61.6997 25.4026 61.9544 24.928 62.3257 24.6392C62.58 24.4329 62.9033 24.3368 63.0406 24.1441C63.192 23.9379 63.1576 23.9034 63.192 23.869C63.192 23.869 63.5293 23.6491 64.0452 23.0022C64.1137 22.9197 64.217 22.8304 64.2859 22.7479C64.4024 22.6998 64.6776 22.5761 65.0008 22.4106C65.3381 22.2252 65.7162 21.9709 65.9501 21.8666C66.4107 21.6603 66.8994 21.6812 67.1261 21.3575C67.2979 21.3094 67.4833 20.7936 67.4493 20.3538C67.7036 20.4567 69.0101 21.2682 69.4576 23.0425C69.7808 24.301 69.2028 26.2404 68.9621 27.176C68.7214 28.1117 68.6873 28.8058 68.3501 29.2319C67.9235 29.7963 66.5485 30.5919 66.2112 30.9858C65.9225 31.3091 65.0561 32.1273 65.0901 32.7185C65.1246 33.1587 65.6677 33.3985 65.7851 33.4819C65.9025 33.5653 65.9016 33.6678 66.1219 33.6179C66.3423 33.568 66.4243 33.4665 66.5141 33.4665C66.617 33.4801 66.617 33.5009 66.665 33.5009C66.6999 33.4999 66.7345 33.4952 66.7684 33.4869C66.7684 33.4869 66.7339 34.1129 65.2692 34.3029C65.1659 34.3169 65.0629 34.3509 64.9319 34.3718C65.1042 34.2893 65.2071 34.2893 65.393 34.035C65.1867 34.0005 64.5951 33.9661 64.4437 33.918C64.4917 33.8355 64.65 33.6152 64.7805 33.5123C64.8975 33.4094 64.7669 33.3763 64.664 33.4298C64.4868 33.5503 64.3169 33.6811 64.1549 33.8214C63.9831 33.9729 63.8317 34.1791 63.5565 34.3654C63.474 34.0903 63.4876 33.5676 63.8113 33.1895C63.7283 33.2031 63.5701 33.4438 63.4192 33.3958C63.3919 33.1449 63.4081 32.8913 63.4672 32.646C63.5497 32.3363 63.9967 31.7932 63.9967 31.7932L66.1559 27.9349L66.6165 25.0123L61.672 25.9729V25.9738Z" fill="#92723A"/>
<path fill-rule="evenodd" clip-rule="evenodd" d="M61.5555 26.1388C61.5555 26.1388 61.4385 26.2213 61.6724 26.3795C61.638 26.4276 61.5555 26.5994 61.4521 26.7164C61.3356 26.8524 61.2114 26.9367 61.1633 27.0536C61.0604 27.2944 60.9779 27.4594 60.9779 27.5627C60.9779 27.6661 60.9435 28.3262 60.6547 28.7523C60.5513 28.9037 60.4344 29.158 60.3519 29.3298C60.1801 29.6322 60.0286 29.8738 59.9942 30.0098C59.9257 30.2506 59.8777 30.9106 59.8777 30.9106C59.8777 30.9106 60.0291 30.7247 60.084 30.6563C60.001 30.8281 59.9117 31.0135 59.7811 31.1513C59.8636 31.0824 60.1044 30.9106 60.5101 30.5529C61.074 30.0787 61.9544 29.2809 63.0274 28.6489C62.7038 28.7659 62.429 28.7659 62.2092 28.8003C62.381 28.6285 63.9282 26.8129 64.7397 26.6411C64.789 26.5786 64.8135 26.5002 64.8086 26.4208L64.1136 26.3523L62.7038 26.6547L62.498 25.5667L61.5555 26.1375V26.1388Z" fill="#B18E3E"/>
<path fill-rule="evenodd" clip-rule="evenodd" d="M63.7977 32.3282C63.7977 32.3282 63.6118 32.5136 63.44 32.9746C63.3077 32.8365 63.1943 32.6815 63.1027 32.5136C62.8484 32.0874 62.4567 31.5439 61.5419 31.8535C61.5283 31.5648 61.5074 31.4133 61.5419 31.2071C61.6933 31.1731 62.1539 30.8018 62.6145 30.2582C62.9382 29.887 63.2405 29.4604 63.4468 28.9173C63.5828 28.8139 63.8181 28.6421 64.1268 28.4426C64.567 28.1403 65.0965 27.7273 65.179 27.2667C64.9727 27.3492 64.5325 27.5555 63.872 27.5215C64.1268 27.4045 64.5185 27.2808 64.4704 26.7717C64.5738 26.7028 64.6563 26.6547 64.6563 26.6547C64.5788 26.6288 64.4972 26.6172 64.4156 26.6202C64.4015 26.5722 64.3811 26.5037 64.2642 26.5377C64.1472 26.5717 64.1281 26.5722 64.1127 26.6202C64.0647 26.6343 63.9065 26.6202 63.7895 26.7032C63.6725 26.7862 63.3493 27.0604 63.2256 27.1085C63.2736 27.026 63.3421 26.9027 63.3421 26.9027C63.3421 26.9027 63.0052 26.9367 62.7645 27.0387C62.3243 27.1901 61.8157 27.4653 61.2998 27.7332C61.3479 27.6507 61.3687 27.5972 61.4027 27.5818C61.4367 27.5664 61.5197 27.5478 61.5197 27.5337C61.5197 27.5197 61.4857 27.3977 61.5061 27.3483C61.6603 27.0216 61.8423 26.7087 62.0501 26.4131C62.2908 26.0894 62.3388 25.6288 62.3388 25.6288L63.391 25.0993L66.3481 24.4193L68.2671 24.5363L68.0264 25.8636L66.893 28.1811L65.9234 30.2922L64.8159 31.5856L63.7981 32.3282H63.7977Z" fill="#543E26"/>
<path fill-rule="evenodd" clip-rule="evenodd" d="M68.5907 26.584C68.5907 26.584 67.4352 28.0143 67.112 28.2346C67.3182 27.7944 68.5907 25.1742 69.0513 24.4452C68.9484 24.3627 68.8106 24.3627 69.1338 23.0852C68.8591 23.7312 68.7625 24.0685 68.5359 24.2403C68.3092 24.4121 68.2811 24.3573 68.1279 24.3573C68.1568 24.3049 68.1687 24.2449 68.1619 24.1854C68.1619 24.1854 67.1922 24.0685 66.5299 24.0685C65.8676 24.0685 64.5565 24.4262 63.8271 24.7149C63.2496 24.9557 62.9263 24.9557 62.7201 25.1066C62.5138 25.2784 62.3968 25.4643 62.2935 25.5124C62.211 25.5604 61.8193 25.6842 61.7295 25.8147C61.647 25.9507 61.5097 26.1035 61.5097 26.138C61.5097 26.1724 61.4752 26.2209 61.5786 26.186C61.6126 26.1724 61.8673 26.0346 62.1561 25.8628C62.5478 25.6429 63.0224 25.3886 63.3665 25.2372C64.3498 24.845 64.6594 24.914 65.0992 24.8314C65.5597 24.7489 66.2203 24.5563 66.66 24.5563C67.1002 24.5427 67.9325 24.5563 68.1252 24.5907C68.0426 24.6596 67.9737 24.7421 68.0082 25.0309C68.0082 25.1134 67.9393 25.2027 67.8722 25.4022C67.6664 25.9661 67.2743 26.9014 67.0562 27.376C66.7538 28.022 66.4102 28.5656 66.2402 28.9024C66.0702 29.2392 65.6962 30.1264 65.3258 30.601C64.9554 31.0757 64.7619 31.3644 64.6458 31.4678C64.5298 31.5712 63.6965 32.1827 63.7587 32.403C63.9101 32.355 64.8661 31.995 65.5602 31.2135C66.2543 30.4319 66.3925 29.955 66.9356 29.5284C67.4787 29.1018 67.9053 28.3869 68.1596 27.7958C68.3727 27.2454 68.3246 27.0736 68.5925 26.5854L68.5907 26.584Z" fill="#806031"/>
<path fill-rule="evenodd" clip-rule="evenodd" d="M43.6892 37.2591C43.6892 37.2591 43.5378 37.8847 43.1937 38.1943C42.8569 38.4972 42.2585 38.7583 42.19 39.2674C42.1075 39.776 42.7884 40.0308 42.7884 40.0308C42.7884 40.0308 42.4167 40.6428 42.4167 41.1034C42.4167 41.578 42.4031 41.6673 42.4512 42.1211C42.3966 42.1562 42.3502 42.2026 42.3152 42.2571C42.3152 42.2571 42.3492 42.6973 42.6864 42.972C43.0237 43.2467 43.312 43.4122 43.4839 43.3433C43.5101 43.3993 43.5331 43.4569 43.5528 43.5156C43.5528 43.5156 43.8075 42.8691 43.9793 42.3052C44.1512 41.7276 44.3026 41.8097 44.371 41.0326C44.4395 40.2556 45.187 38.9215 45.187 38.9215L45.697 37.7813L44.8652 37.1349L43.6892 37.2586V37.2591Z" fill="#B6903C"/>
<path fill-rule="evenodd" clip-rule="evenodd" d="M45.2364 38.3798C45.0648 38.5559 44.9065 38.7443 44.7626 38.9437C44.5428 39.2465 44.3709 39.5213 44.0477 39.6387C43.7245 39.7561 43.5182 39.7552 43.5386 40.0789C43.559 40.4025 43.8618 40.5394 44.0337 40.7045C44.2195 40.8763 44.3709 41.165 44.2884 41.4887C44.3913 41.4407 44.5772 41.3854 44.749 41.0141C44.9208 40.6428 46.1226 38.3802 46.1226 38.3802H45.2364V38.3798Z" fill="#685026"/>
<path fill-rule="evenodd" clip-rule="evenodd" d="M49.976 33.16C49.976 33.16 50.079 32.8853 49.976 32.6859C49.8727 32.4796 49.2471 32.4107 48.9375 32.1768C48.6142 31.936 48.2221 31.7688 47.8989 31.8744C47.9469 31.7574 48.1396 31.5027 47.9814 31.4478C47.83 31.3997 47.2665 31.6541 47.1151 31.771C46.9636 31.888 46.6196 32.0254 46.5511 32.1083C46.4827 32.1913 46.3652 32.349 46.2963 32.2801C46.2274 32.2321 46.1934 32.1083 46.0765 32.1768C45.9595 32.2452 45.3965 32.7063 45.2927 32.9746C45.1888 33.243 44.9554 33.8414 44.2541 34.5219C43.5528 35.2023 43.2499 35.643 43.4562 35.8973C43.6625 36.1516 43.759 35.9662 43.7935 36.186C43.82 36.4019 43.8083 36.6207 43.759 36.8325C43.6765 37.1902 43.5392 37.527 43.7246 37.5959C44.1992 37.7473 44.6603 37.4599 44.7632 37.5479C44.9694 37.7333 44.6462 38.4006 45.1344 38.5311C45.6299 38.6671 46.1182 38.4142 46.1182 38.4142L47.9197 37.4445L49.6528 36.5301L50.5395 34.7762L50.064 33.3115L49.9733 33.16H49.976Z" fill="#D4B968"/>
<path fill-rule="evenodd" clip-rule="evenodd" d="M48.2759 37.3484C48.2759 37.3484 47.9731 36.8878 48.3449 36.4816C48.7166 36.0754 49.2456 35.9041 49.4519 35.6497C49.4126 35.6013 49.36 35.5655 49.3005 35.5468C49.4374 35.3018 49.6463 35.1048 49.8989 34.9824C49.796 34.8795 49.6582 34.797 49.5072 34.797C49.1699 34.797 48.9632 35.0033 48.654 35.0033C48.3517 35.0033 48.3172 34.8519 48.3172 34.8519C48.3172 34.8519 48.8263 34.8038 48.7778 34.5767C48.7297 34.336 48.6418 34.336 48.6418 34.336C48.6418 34.336 49.6251 33.928 49.7969 33.7104C49.9687 33.4928 49.9483 33.2358 49.9827 33.1328C50.0993 33.1328 50.7802 32.7752 51.0553 32.9266C51.3305 33.078 51.1378 33.4905 51.1378 33.4905C51.1378 33.4905 51.9706 32.8645 52.3949 32.2507C52.7662 32.2851 52.9389 31.9963 53.2109 31.9963C53.5482 31.9963 54.0777 32.4569 54.1806 33.4402C54.2495 34.0042 54.3524 34.3274 54.2495 35.3247C54.2015 35.8887 54.2151 37.0927 54.3855 37.6902C54.502 38.1648 54.7772 38.1168 54.7772 38.1168C54.735 38.2614 54.6513 38.3905 54.5365 38.4881C54.3506 38.6599 54.3302 39.1141 54.3506 39.2859C54.378 39.4116 54.4125 39.5355 54.454 39.6572C54.454 39.6572 54.2341 39.9115 54.1788 40.0838C54.1307 40.2556 53.9041 40.3726 53.7386 40.3726C53.5731 40.3726 53.6561 40.3585 53.4362 40.3726C53.2164 40.3866 53.1475 40.4206 53.0097 40.3726C52.8718 40.3245 52.7689 40.2692 52.8242 39.8286C52.8723 39.3884 51.1256 38.3639 51.1256 38.3639L48.2696 37.3461L48.2759 37.3484Z" fill="#CCA849"/>
<path fill-rule="evenodd" clip-rule="evenodd" d="M44.9957 41.6945C44.9957 41.6945 45.6213 42.5268 48.1935 42.5268C49.4175 42.5268 49.8441 42.4098 50.0975 42.3409C50.3727 42.272 51.404 41.8667 52.4426 40.6423C53.3778 39.5353 53.1715 39.0815 53.1715 39.0815L52.6275 38.999L50.8595 39.2397L45.6281 41.4678L44.9934 41.6945H44.9957Z" fill="#585136"/>
<path fill-rule="evenodd" clip-rule="evenodd" d="M46.9142 41.9008C46.9142 41.9008 44.686 42.3963 44.686 40.9864C44.686 39.611 46.0614 38.1667 46.4055 37.9123C46.7632 37.6576 47.6159 37.3683 47.6159 37.3683H49.6722L50.0639 38.4069L49.8921 40.6487L46.9142 41.9003V41.9008Z" fill="#252211"/>
<path fill-rule="evenodd" clip-rule="evenodd" d="M48.9706 37.7886C48.9706 37.7886 48.5444 37.3965 47.5747 37.9246C46.6051 38.4527 45.8208 39.5566 45.7727 40.5589C45.7247 41.4456 46.5017 42.1061 47.7121 42.1406C48.6129 42.1746 49.1564 42.0717 49.4316 42.0046C49.3627 41.9221 49.005 41.4751 49.005 41.4751L48.971 37.789L48.9706 37.7886Z" fill="#C3B378"/>
<path fill-rule="evenodd" clip-rule="evenodd" d="M48.5512 38.008C48.5512 38.008 48.4483 37.9255 48.1432 38.0905C47.8889 38.2265 47.5176 38.586 47.2288 38.8403C47.0429 38.9917 46.926 39.0602 46.8208 39.1771C46.3942 39.6862 46.0365 40.5186 46.2433 40.9311C46.45 41.3436 47.1304 41.8183 48.8635 41.495L48.5462 38.0084L48.5512 38.008Z" fill="#E6D89C"/>
<path fill-rule="evenodd" clip-rule="evenodd" d="M47.9872 38.8611C47.9872 38.8611 47.712 39.2877 47.712 39.9686C47.712 40.6631 48.1041 41.7702 49.5485 41.8527C50.6555 41.9216 51.3981 40.2574 52.2027 39.611C52.8147 39.1159 53.186 39.1019 53.186 39.1019C53.186 39.1019 52.5604 38.4219 50.8894 37.541C49.2388 36.6539 47.3888 36.5369 46.3846 37.8987C46.8593 37.8643 48.3929 37.4721 48.3929 37.4721L49.1427 37.7129L47.9872 38.8616V38.8611Z" fill="#252211"/>
<path fill-rule="evenodd" clip-rule="evenodd" d="M50.1465 39.762C50.0984 39.6591 50.064 39.5213 50.2635 39.4873C50.4629 39.4533 50.5522 39.4732 50.6211 39.6233C50.69 39.7733 50.7571 39.8984 50.6551 39.9605C50.5522 40.0154 50.2839 39.9605 50.146 39.7611L50.1465 39.762ZM49.8233 38.7923C49.8233 38.7923 49.7544 38.8404 49.7888 38.7442C49.8024 38.6277 49.8922 38.421 50.112 38.4695C50.3319 38.518 50.2843 38.7583 50.248 38.8272C50.2118 38.8961 50.0282 39.0126 49.8904 38.9632C49.8729 38.9587 49.8567 38.9502 49.8432 38.9383C49.8296 38.9264 49.819 38.9115 49.8123 38.8948C49.8056 38.878 49.8029 38.86 49.8045 38.842C49.8061 38.824 49.8119 38.8067 49.8215 38.7914L49.8233 38.7923Z" fill="#6F674D"/>
<path fill-rule="evenodd" clip-rule="evenodd" d="M31.208 39.232C31.208 39.232 31.752 39.64 32.384 39.6241C33.0096 39.6101 33.8142 38.9641 34.1855 38.5511C34.4054 38.3104 34.5935 38.0561 34.7975 37.8566C34.9698 37.6848 35.0863 37.6023 35.1688 37.4853C35.2857 37.3493 35.4095 37.0936 35.4716 37.0107C35.3202 37.1276 35.1003 37.3344 34.8732 37.4717C34.6533 37.6077 34.1787 37.8634 33.986 37.9323C33.8006 38.0012 31.8749 39.0203 31.8749 39.0203L31.208 39.232Z" fill="#AC924C"/>
<path fill-rule="evenodd" clip-rule="evenodd" d="M32.0394 34.1506C32.0394 34.1506 32.3418 33.9443 32.9266 33.8133C33.4905 33.6773 34.6252 33.5726 34.6252 33.5726L35.5605 33.9806L35.9317 35.3904L35.2517 36.8556L34.3854 37.3996L33.4017 35.8179L32.0417 34.1533L32.0394 34.1506Z" fill="#9F8E57"/>
<path fill-rule="evenodd" clip-rule="evenodd" d="M30.8154 35.409L30.4917 35.6507C30.4917 35.6507 30.5747 35.4993 30.6431 35.0387C30.7116 34.5781 31.0697 33.457 31.5924 32.8105C32.1151 32.1641 32.1015 32.1985 32.1015 32.1985C32.0534 32.1897 32.004 32.1913 31.9565 32.2031C31.9091 32.2149 31.8647 32.2367 31.8263 32.267C31.8952 32.1147 32.3354 31.5707 32.7756 31.2987C33.2158 31.0267 33.3876 30.941 33.8482 31.1627C34.3088 31.3844 34.4257 31.4995 34.763 31.4859C35.1003 31.4723 35.3886 31.1146 35.3886 31.1146C35.3886 31.1146 35.4575 31.3345 35.2032 31.8436C34.9489 32.3527 33.9447 33.3908 33.9447 33.3908L31.854 34.8211L30.8154 35.4104V35.409Z" fill="#EAC970"/>
<path fill-rule="evenodd" clip-rule="evenodd" d="M32.3622 33.9788C32.3622 33.9788 33.8754 34.1851 34.336 33.7589C34.3496 33.807 34.4049 33.807 34.4049 33.8414C34.4012 33.8674 34.3891 33.8914 34.3704 33.9099C34.4205 33.9019 34.4711 33.8973 34.5218 33.8963C34.5824 33.9143 34.6447 33.9259 34.7077 33.9307C34.7585 33.9296 34.809 33.9249 34.8591 33.9167C34.8543 33.9509 34.8427 33.9837 34.825 34.0133C34.8072 34.0429 34.7837 34.0687 34.7558 34.089C34.8247 34.089 34.8918 34.1026 34.8918 34.1574C34.8918 34.2123 34.9054 34.3777 34.8229 34.4122C34.7545 34.4311 34.6818 34.4261 34.6166 34.3981C34.622 34.5283 34.6574 34.6555 34.72 34.7699C34.856 35.0242 35.1461 35.3139 35.536 35.2304C35.536 35.2304 35.7418 35.7255 34.8754 36.8257C34.7589 36.9771 34.6347 37.1834 34.4838 37.3552C34.4241 37.4852 34.3785 37.6213 34.3478 37.761C34.3478 37.761 35.8129 37.197 36.2323 35.9109C36.6589 34.618 36.7414 33.3459 36.6589 32.1564C36.6448 31.8191 36.59 31.5788 36.5074 31.4066C36.3012 30.98 35.7232 31.0489 35.4897 31.2896C35.1524 31.6269 34.5885 32.4656 33.8047 33.0431C33.0068 33.6207 32.9728 33.7231 32.3604 33.9788H32.3622Z" fill="#D7BC6B"/>
<path fill-rule="evenodd" clip-rule="evenodd" d="M30.5471 35.8356C30.5471 35.8356 30.2583 36.0074 30.1069 36.6516C29.9555 37.3117 30.2429 38.1163 30.4093 38.3707C30.5756 38.625 30.9533 39.3199 31.7366 39.3544C31.9305 39.3534 32.1223 39.3136 32.3006 39.2374C32.574 39.112 32.8305 38.9526 33.064 38.7628C33.4013 38.5085 33.676 38.2886 33.6415 38.2677C33.559 38.2333 31.5648 36.5827 31.5648 36.5827L30.815 35.7458L30.5466 35.8365L30.5471 35.8356Z" fill="#585136"/>
<path fill-rule="evenodd" clip-rule="evenodd" d="M32.432 38.5724C32.432 38.5724 32.8377 38.5384 33.0784 38.387C33.3192 38.2356 31.6686 36.5991 31.6686 36.5991L31.7855 38.3671L32.432 38.5724Z" fill="#453A25"/>
<path fill-rule="evenodd" clip-rule="evenodd" d="M30.6776 35.7114C30.6776 35.7114 30.4713 36.1035 30.4713 36.2069C30.4368 36.5437 30.5402 37.6027 30.6227 37.9395C30.7052 38.2972 31.1522 38.8403 31.7302 38.8403C32.0874 38.8403 32.5829 38.6204 32.5829 38.5656C32.5829 38.4967 32.0738 38.4296 31.9365 38.1734C31.854 38.0374 31.8195 37.6993 31.8005 37.3574C31.7869 37.1376 31.7869 36.8969 31.8694 36.8134C32.0552 36.6072 32.0892 36.0156 32.0892 36.0156L32.7493 34.7893H31.8812L30.8426 35.4358L30.6776 35.7114Z" fill="#84754B"/>
<path fill-rule="evenodd" clip-rule="evenodd" d="M30.4233 36.09C30.4233 36.09 31.1033 35.1892 31.7162 34.9825C32.3292 34.7757 32.6034 34.9 32.6034 34.9L32.2457 35.8148L31.7366 36.3787L31.7711 36.6675C31.7711 36.6675 31.6881 37.4309 32.1972 37.9604C32.7063 38.4899 33.0844 38.4695 33.3047 38.4695C33.525 38.4695 34.1574 38.2836 34.4807 37.5202C34.7694 36.8053 35.0102 35.8882 34.4326 34.9689C33.8682 34.054 32.8713 34.0187 32.6787 34.0187C32.486 34.0187 30.9732 34.0944 30.4233 36.0886V36.09Z" fill="#252211"/>
<path fill-rule="evenodd" clip-rule="evenodd" d="M47.8839 39.15C47.6295 39.033 47.8703 38.3181 48.1246 38.0978C48.3789 37.8775 48.7021 37.6236 49.2665 37.5887C49.4723 37.5751 49.6718 37.7056 49.6378 37.8435C49.5898 38.0978 49.2321 38.4555 48.9089 38.7098C48.4619 39.0607 48.1726 39.2805 47.8839 39.15Z" fill="#F7F7E7"/>
<path fill-rule="evenodd" clip-rule="evenodd" d="M34.1298 35.2509C34.3156 35.2373 34.5563 35.3869 34.6044 35.5881C34.6525 35.808 34.4874 36.2482 34.1298 36.2482C33.841 36.2482 33.6896 35.8905 33.6896 35.7876C33.6928 35.703 33.7165 35.6204 33.7585 35.5469C33.7721 35.526 33.8065 35.2853 34.1298 35.2509Z" fill="#F8F6DE"/>
<path fill-rule="evenodd" clip-rule="evenodd" d="M31.4478 35.4091C31.4478 35.4091 30.9731 35.6289 30.7533 36.0891C30.5962 36.4288 30.5486 36.8091 30.6173 37.1771C30.6517 37.3489 30.8235 37.775 30.9405 37.9264C31.0574 38.0778 31.2157 38.1812 31.3326 38.1671C31.4496 38.1531 31.6898 37.8439 31.6898 37.6585C31.6898 37.4731 31.7039 36.6888 31.9306 36.2622C32.13 35.8361 31.4491 35.4095 31.4491 35.4095L31.4478 35.4091Z" fill="#D4C38B"/>
<path fill-rule="evenodd" clip-rule="evenodd" d="M31.5167 35.3746C31.4342 35.4226 31.2969 35.4915 31.3309 35.5808C31.3653 35.6633 31.6541 35.7168 31.7575 35.9181C31.8744 36.1244 31.8744 36.3442 31.84 36.4476C31.9298 36.4049 32.0113 36.3466 32.0807 36.2753C32.2321 36.1035 32.4175 35.8701 32.5757 35.8701C32.6791 35.8701 32.782 35.9181 32.8785 35.9181C33.03 35.9181 33.1809 35.8701 33.2018 35.7118C33.2358 35.5056 32.913 35.3197 32.7271 35.3542C32.7616 35.2182 32.8096 35.0173 32.6582 34.8795C32.5068 34.7417 32.0326 34.9829 31.9293 35.0518C31.8259 35.1207 31.5167 35.375 31.5167 35.375V35.3746Z" fill="#E2D59D"/>
<path fill-rule="evenodd" clip-rule="evenodd" d="M42.4443 49.8232L43.462 49.5226L43.7508 49.7289C43.7508 49.7289 43.9566 50.1691 44.2803 50.2239C44.1769 50.4438 43.9086 50.6319 43.9226 50.7879C43.9367 50.9438 44.074 51.0631 44.074 51.0631C44.074 51.0631 43.1592 52.5758 44.9612 54.1004C44.5346 54.2722 43.9915 54.5084 43.7027 54.6444C43.9086 54.6925 44.3487 54.7804 44.5346 54.9472C44.7205 55.1141 44.7205 55.1671 44.8923 55.2705C45.0641 55.3738 45.167 55.5112 45.133 55.5728C45.0161 55.5039 44.6239 55.2981 44.5555 55.4903C44.487 55.6825 42.8568 55.6073 42.8568 55.6073L40.106 56.1368C40.106 56.1368 40.2089 55.8616 39.9201 55.6073C39.5833 55.3049 39.1708 55.6209 38.7306 55.2841C38.153 54.8439 38.1322 54.3348 37.9468 54.1426C38.1322 54.0256 38.5107 53.8538 39.4115 53.7346C39.377 53.6657 39.2601 53.4594 39.329 53.274C39.4115 53.0333 39.7551 52.8818 39.6522 52.594C39.8036 52.5595 39.8721 52.5595 40.2506 52.0849C40.6083 51.6102 40.8282 51.5073 41.1033 51.4729C41.3785 51.4384 41.5435 51.4729 42.0526 50.9982C42.4098 50.6614 42.2933 50.3726 42.2933 50.3726C42.2933 50.3726 42.5268 50.2969 42.4447 49.8223L42.4443 49.8232Z" fill="#CBAC5A"/>
<path fill-rule="evenodd" clip-rule="evenodd" d="M39.4392 49.976C39.4528 49.9071 39.5081 49.8727 39.8794 49.9071C40.2507 49.9416 42.6026 49.6872 43.2422 49.6528C43.8887 49.6047 46.1649 49.6387 47.2724 49.8727C48.3799 50.1066 49.5005 50.3817 50.0436 50.5191C50.5876 50.6705 50.7589 50.7249 50.7381 50.7938C50.7245 50.8627 50.6021 50.9298 50.5318 50.9108C50.4634 50.8972 48.6614 50.3468 48.1047 50.2308C47.548 50.1147 45.6218 49.8042 44.5687 49.8228C43.5854 49.8368 43.1933 49.8092 42.3614 49.9053C41.5291 50.0087 40.1537 50.146 39.7411 50.0912C39.3331 50.0431 39.4175 50.0431 39.4383 49.9742L39.4392 49.976Z" fill="#D6BC6F"/>
<path fill-rule="evenodd" clip-rule="evenodd" d="M44.9748 55.3661C44.9748 55.3661 46.3847 56.1296 46.8937 57.0648C47.265 57.7593 46.6739 58.1034 46.6739 58.1034C46.6739 58.1034 47.4717 58.1034 47.3684 58.5436C47.3203 58.8183 45.993 59.5608 45.1058 59.953C44.205 60.3451 44.2395 60.3247 43.7993 60.3932C43.3727 60.4621 42.2036 60.2572 41.9628 60.5994C41.7221 60.9417 41.8268 61.2944 41.8939 61.3492C41.9628 61.3973 42.52 61.4662 42.52 61.4662C42.52 61.4662 42.403 61.7894 41.2479 61.8239C40.0928 61.8583 39.8036 61.9404 39.7347 62.0646C39.6658 62.1811 39.9546 62.1127 40.4845 62.2006C41.014 62.2831 41.7566 62.3366 41.7566 62.3366C41.7566 62.3366 41.5159 62.5429 40.8903 62.7079C40.1749 62.8933 39.0538 63.0656 38.717 63.2718C38.8888 63.3888 39.1436 63.5606 39.261 63.5742C38.9722 63.6431 38.566 63.7945 38.4976 63.8494C38.6005 63.9183 38.7383 64.0008 38.7383 64.0008C38.7383 64.0008 38.1603 64.6953 37.8235 64.8676C37.4866 65.0398 35.5473 65.9401 34.88 65.7683C33.2158 65.3281 33.0095 63.5057 32.6038 63.3684C31.9918 63.1621 31.703 63.5742 31.1595 63.2854C31.4002 63.1136 31.5312 63.0107 31.7855 62.8937C31.5103 62.7577 30.0869 61.8552 30.0869 61.8552C29.938 61.5307 29.7728 61.214 29.5918 60.9063C29.3167 60.4317 28.9118 59.7988 28.6081 59.2417C27.948 58.0177 27.9136 57.4537 27.3152 56.7592C27.4185 56.6232 27.7758 56.6423 27.7758 56.6423L32.7896 58.2929L41.68 58.5504L43.992 55.2496L44.9752 55.3666L44.9748 55.3661Z" fill="#DFC677"/>
<path fill-rule="evenodd" clip-rule="evenodd" d="M31.8055 60.4C31.8592 60.4597 31.9217 60.5107 31.991 60.5514C32.1632 60.6683 32.4175 60.8061 32.5894 61.012C32.6583 60.9091 32.8301 60.7232 33.1334 61.012C33.4366 61.3007 33.8134 61.0949 34.0477 61.1634C34.2884 61.2463 34.302 61.2803 34.302 61.2803C34.302 61.2803 34.4381 61.1634 34.7422 61.0396C34.9281 60.9707 35.148 60.9227 35.3887 60.8542C35.6086 60.8061 35.8493 60.7372 36.0147 60.7372C36.1662 60.8402 36.7092 61.4172 38.8893 60.5654C40.9456 59.7676 41.4198 59.6783 41.7639 59.8016C41.7984 59.7191 41.8328 59.5608 42.3623 59.5817C42.3623 59.3618 41.9221 58.612 41.9221 58.612L39.4945 57.7802H38.1667L34.1851 58.5091L31.9787 59.768L31.8069 60.4027L31.8055 60.4Z" fill="#C4A859"/>
<path fill-rule="evenodd" clip-rule="evenodd" d="M30.4781 59.0041C30.4781 59.0041 30.5262 59.3754 31.0765 59.7675C31.6205 60.1592 31.7915 60.3931 31.7915 60.3931C31.7915 60.3931 31.8948 60.2571 31.9773 60.1184C32.0598 59.967 32.1287 59.7952 32.2661 59.7471C32.5413 59.6302 33.1669 59.8501 33.3047 59.8156C33.4216 59.7816 33.3872 59.5409 33.5109 59.5409C33.7997 59.5268 33.9851 59.7263 34.0885 59.7263C34.1919 59.7263 34.4457 59.7127 34.4802 59.6578C34.5146 59.603 34.5282 59.0318 34.9204 58.7566C35.3469 58.4542 35.8696 58.5848 36.0084 58.6537C36.0084 58.7566 36.022 59.0114 36.2971 59.025C36.5723 59.0386 36.5995 58.9905 36.8411 59.073C37.0828 59.1556 37.3706 59.0594 37.5012 59.4647C37.6181 59.4307 37.8933 59.3963 37.8244 59.0041C37.9604 58.9012 38.0792 58.8323 38.3684 58.4266C38.4373 58.3237 38.5538 58.2067 38.6436 58.0553C38.8843 58.0553 39.1731 58.0073 39.558 58.3441C39.441 58.4266 39.3721 58.4801 39.3381 58.5639C39.4388 58.6636 39.5307 58.7718 39.6128 58.8872C39.7162 59.0232 39.7851 59.19 39.9156 59.2245C40.2044 59.307 40.6791 59.19 41.2085 59.2245C41.7176 59.2589 42.1438 59.4443 42.3296 59.5613C42.3985 59.5273 42.3985 59.5132 42.5704 59.5477C42.7422 59.5821 42.8727 59.5957 42.6873 59.3759C42.7902 59.4239 42.9072 59.5273 43.0105 59.4239C43.1139 59.3206 43.196 59.1696 43.4847 59.1351C43.7735 59.1007 43.8769 59.1488 43.9938 58.8464C44.1452 58.4751 43.6225 58.4751 43.6225 58.4751C43.6225 58.4751 43.8633 58.2548 44.1316 57.966C44.4549 57.6636 44.8261 57.2715 44.9155 56.7901C45.0669 55.9029 44.2005 55.7864 44.2005 55.7864L39.9986 57.0793L34.8614 56.8245L30.4809 59.0046L30.4781 59.0041Z" fill="#927D49"/>
<path fill-rule="evenodd" clip-rule="evenodd" d="M26.7027 46.8661C26.7027 46.8661 26.5667 47.0379 26.4829 47.4437C26.399 47.8494 26.4348 47.8014 26.3659 48.0901C26.297 48.3789 25.4506 51.2535 25.7679 52.2232C26.0853 53.1929 26.6347 53.5505 26.9783 54.3343C27.0473 54.5062 27.1143 54.6095 27.1502 54.7609C27.2671 55.2696 27.1642 55.6617 27.3016 56.1708C27.3496 56.3426 27.4738 56.5421 27.6593 56.7483C28.0673 57.1745 28.7323 57.5802 29.0193 57.869C29.4245 58.2956 30.0025 59.1623 30.7383 59.2444C31.1304 59.2925 31.6876 59.1274 32.1482 58.8527C32.5562 58.598 32.8082 58.2407 33.2362 58.0367C33.5385 57.8853 33.8618 57.8305 34.1505 57.7615C34.7489 57.6446 35.2925 57.6255 35.6157 57.6926C36.1107 57.796 37.2799 58.1537 37.9277 58.1537C38.4339 58.1455 38.9373 58.0763 39.4269 57.9474C40.4102 57.6586 41.5997 57.1631 42.384 56.9433C42.8446 56.8073 43.2158 56.7715 43.5944 56.689C44.2408 56.5375 44.7839 56.3313 45.0935 55.9391C44.8873 55.6984 44.633 55.3271 43.2571 55.3407C41.6963 55.3752 39.8943 56.2415 39.0071 56.3793C38.1199 56.5171 37.735 56.6337 36.7445 56.276C35.7735 55.9147 35.7413 55.6758 35.7413 55.6758C35.7413 55.6758 34.7217 54.9627 34.2951 53.1448C33.8686 51.3269 34.2951 50.0023 35.4026 48.7434C35.6914 48.4202 35.6225 48.1314 35.6225 48.1314C35.6225 48.1314 36.3515 47.1481 36.152 46.2274C35.9321 45.3126 34.5223 45.4984 34.5223 45.4984L26.7032 46.8661H26.7027Z" fill="#6E6342"/>
<path fill-rule="evenodd" clip-rule="evenodd" d="M27.8787 49.9266C27.8181 50.0406 27.7896 50.1689 27.7962 50.2979C27.8098 50.4833 27.8651 50.724 28.4218 51.2675C28.8965 51.7417 28.7931 52.2712 28.7931 52.2712C28.7931 52.2712 29.032 52.3193 29.6803 52.016C30.1894 51.7753 30.3603 52.2019 30.3603 52.2019C30.5085 52.1241 30.6691 52.0729 30.8349 52.0504C30.9852 52.0366 31.1306 51.9902 31.2611 51.9144C31.2611 51.9144 31.8595 52.5264 32.3822 52.8152C32.8568 53.07 33.132 53.2418 33.3659 53.07C33.5858 52.9186 33.5858 52.6089 33.5717 52.4716C33.5171 52.3448 33.4481 52.2248 33.3659 52.1139C33.2145 51.894 32.9738 51.6393 32.9579 51.4339C32.9234 50.9597 33.3156 50.3953 33.2326 50.258C33.1496 50.1206 32.8409 50.0861 32.0775 50.3613C31.2869 50.6224 27.8756 49.9279 27.8756 49.9279L27.8787 49.9266Z" fill="#39331F"/>
<path fill-rule="evenodd" clip-rule="evenodd" d="M29.6803 53.0007C29.6803 53.0007 29.2886 52.6294 29.4259 50.8274C29.5922 50.825 29.7583 50.8411 29.921 50.8754C29.921 50.8754 30.1345 52.2717 29.6803 53.0007Z" fill="#292311"/>
<path fill-rule="evenodd" clip-rule="evenodd" d="M26.8887 45.4907C26.9434 45.4503 26.994 45.4047 27.0401 45.3547C26.9041 45.609 26.2762 46.6268 26.7853 48.2293C27.2944 49.8246 28.5733 51.0141 30.1482 51.0694C31.723 51.1247 32.5508 50.3541 33.4974 49.199C33.8687 48.7384 34.2953 48.1604 34.6733 47.7687C35.2373 47.1563 35.6775 46.9844 35.6775 46.3933C35.6775 45.1829 34.4394 44.6394 32.617 44.0963C30.7946 43.5532 29.1508 43.6203 28.2981 43.992C27.4662 44.3973 27.1086 44.8239 26.8882 45.4912L26.8887 45.4907Z" fill="#252211"/>
<path fill-rule="evenodd" clip-rule="evenodd" d="M32.7407 53.5438L32.8767 53.4748C32.8767 53.4748 32.9107 52.9308 33.1311 52.9454C33.3509 52.9798 33.4543 53.269 33.4334 53.3719C33.4198 53.4748 33.365 53.6471 33.1447 53.6263C32.8559 53.6331 32.7394 53.5438 32.7394 53.5438H32.7407Z" fill="#3F3824"/>
<path fill-rule="evenodd" clip-rule="evenodd" d="M32.1287 51.2331C32.1287 51.2331 32.2647 51.185 32.431 51.35C32.567 51.35 33.16 51.2811 33.3459 51.3981C33.5317 51.515 33.5866 51.618 33.5866 51.618C33.5866 51.618 32.8921 51.7694 32.5135 51.618C32.1287 51.4874 32.1287 51.2331 32.1287 51.2331Z" fill="#2D2815"/>
<path fill-rule="evenodd" clip-rule="evenodd" d="M35.1892 51.336C35.1892 51.3016 34.8179 51.0472 34.4257 50.9643C34.3568 50.9507 34.3428 50.9987 34.2897 50.9987C34.2553 50.9851 34.2417 50.8818 34.2417 50.8818L34.0187 50.9992C34.0187 50.9992 33.9842 51.0472 34.1012 51.1352C34.2041 51.2177 34.3763 51.2866 34.4244 51.424C34.4724 51.5613 34.4724 51.6094 34.4933 51.6302C34.5069 51.6438 34.7476 51.6302 34.8646 51.5613C34.9815 51.4924 35.2019 51.38 35.1878 51.3347L35.1892 51.336Z" fill="#82764F"/>
<path fill-rule="evenodd" clip-rule="evenodd" d="M31.7162 52.7323C31.7162 52.7323 31.7846 52.2581 32.2457 52.2373C32.7199 52.2028 32.8096 52.6634 32.8096 52.6634L32.5345 52.9386C32.5345 52.9318 32.3282 52.643 31.7185 52.7323H31.7162Z" fill="#2D2816"/>
<path fill-rule="evenodd" clip-rule="evenodd" d="M34.7077 50.6895C34.7077 50.6895 34.453 50.9647 33.8895 51.0472C33.8414 50.9783 33.7381 50.8409 33.8895 50.6211C34.0409 50.4012 34.2127 50.3323 34.3845 50.4007C34.4603 50.413 34.531 50.4467 34.5883 50.4979C34.6456 50.5491 34.687 50.6156 34.7077 50.6895Z" fill="#574F35"/>
<path fill-rule="evenodd" clip-rule="evenodd" d="M35.7459 51.0268C35.76 50.9579 35.7119 50.9443 35.7459 50.9099C35.7799 50.8754 35.9662 50.807 36.0007 50.841C36.0143 50.855 36.0007 50.9099 36.0007 50.977C36.0007 51.0441 36.0007 51.113 35.9662 51.1624C35.9182 51.2313 35.7808 51.2657 35.7119 51.2453C35.643 51.2249 35.6294 51.1284 35.6294 51.1093C35.6634 51.0957 35.7459 51.0613 35.7459 51.0268ZM36.92 50.2843C36.92 50.2498 37.037 50.1809 37.1059 50.1809C37.2088 50.1809 37.2088 50.2634 37.2229 50.2843C37.2569 50.2979 37.2569 50.2702 37.2913 50.3323C37.3258 50.3944 37.3743 50.5041 37.3394 50.573C37.3045 50.6419 37.1676 50.6895 37.1336 50.6759C37.0855 50.6415 36.9341 50.3323 36.92 50.2843Z" fill="#82764F"/>
<path fill-rule="evenodd" clip-rule="evenodd" d="M34.5563 51.185C34.5563 51.185 34.7077 51.219 34.914 51.3913C34.845 51.4393 34.7417 51.4942 34.7417 51.4942C34.7417 51.4942 34.7281 51.336 34.5563 51.1846V51.185Z" fill="#6E6342"/>
<path fill-rule="evenodd" clip-rule="evenodd" d="M34.2195 49.6718C34.1851 49.6378 34.3225 49.5553 34.405 49.5689C34.4875 49.5825 34.5219 49.6378 34.6112 49.6514C34.7005 49.665 34.7146 49.617 34.7472 49.5825C34.7799 49.5481 34.8986 49.5689 34.919 49.5825C34.9317 49.5976 34.9433 49.6137 34.9535 49.6306C34.9549 49.6044 34.9618 49.5788 34.9735 49.5554C34.9853 49.532 35.0018 49.5113 35.0219 49.4946C35.0483 49.4752 35.0787 49.462 35.1109 49.4561C35.1431 49.4501 35.1762 49.4515 35.2078 49.4601C35.2214 49.5082 35.2903 49.68 35.2767 49.7144C35.2631 49.7489 35.0569 49.7974 35.0219 49.7625C35.0564 49.8455 35.2078 50.0173 35.2282 50.0513C35.2486 50.0853 35.0768 50.1682 35.0083 50.1546C34.9122 50.1478 34.3206 49.8037 34.2177 49.6732L34.2195 49.6718ZM35.1203 48.5303C35.1076 48.4957 35.0832 48.4665 35.0514 48.4478C35.0034 48.4342 34.8451 48.4478 34.8451 48.5303C34.8451 48.6128 34.9811 49.0743 35.1339 49.3146C35.3062 49.5553 35.4227 49.7543 35.5397 49.8096C35.5764 49.8264 35.6181 49.8286 35.6563 49.8158C35.6946 49.803 35.7266 49.7762 35.7459 49.7407C35.7595 49.7063 35.794 49.452 35.7804 48.8536C35.7668 48.2552 35.7459 47.6776 35.7115 47.6432C35.677 47.6087 35.5397 47.6092 35.4916 47.6776C35.4435 47.7461 35.1339 48.4274 35.1199 48.5303H35.1203Z" fill="#585136"/>
<path fill-rule="evenodd" clip-rule="evenodd" d="M34.5082 52.0514C34.5082 52.0514 34.2675 51.9 34.0336 52.0033C33.8137 52.1067 33.8273 52.5124 33.8273 52.5124C33.8768 52.5318 33.9302 52.5388 33.983 52.5328C34.0358 52.5268 34.0863 52.508 34.1301 52.478C34.2816 52.3751 34.4738 52.2032 34.5082 52.0518V52.0514Z" fill="#574F35"/>
<path fill-rule="evenodd" clip-rule="evenodd" d="M34.962 52.5949C34.9484 52.4589 34.826 52.4589 34.826 52.3887C34.8345 52.3551 34.8539 52.3253 34.8813 52.3041C34.9087 52.2829 34.9424 52.2715 34.977 52.2717C35.0459 52.2717 35.113 52.3542 35.1973 52.4077C35.2798 52.4557 35.4036 52.5437 35.4172 52.6484C35.4308 52.7531 35.2812 53.0401 35.1148 53.0401C34.9484 53.0401 34.9979 52.7305 34.9634 52.5931L34.962 52.5949ZM36.2894 52.4091C36.2894 52.4091 36.0142 52.4916 36.0346 52.4091C36.055 52.3265 36.1176 52.3061 36.2069 52.3061C36.2523 52.2587 36.3133 52.2292 36.3787 52.2232C36.4161 52.2213 36.4529 52.2336 36.4816 52.2576C36.4816 52.2576 36.6675 52.1751 36.7223 52.2232C36.7772 52.2712 36.7364 52.2712 36.7704 52.3265C36.8137 52.3879 36.8421 52.4585 36.8534 52.5328C36.8534 52.5877 36.6471 52.7046 36.4816 52.6842C36.2894 52.643 36.3234 52.4435 36.2894 52.4091ZM37.8915 52.0994C37.8915 52.0994 37.974 52.1475 37.9055 52.2028C37.8575 52.2508 37.6168 52.3388 37.41 52.3542C37.2038 52.3542 37.0184 52.3882 37.0184 52.3197C37.0184 52.2513 37.1902 52.1135 37.2931 52.079C37.3137 52.0532 37.3399 52.0323 37.3698 52.018C37.3996 52.0038 37.4323 51.9964 37.4654 51.9965C37.5479 51.9965 37.8706 51.9621 37.9604 51.9485C38.0429 51.9344 38.1118 51.9825 38.0633 52.0514C38.0429 52.0994 37.8915 52.0994 37.8915 52.0994ZM38.3661 49.976C38.3661 49.976 38.2628 50.1959 38.1463 50.1959C38.0293 50.1823 38.0293 50.1478 38.0293 50.1134C38.0293 50.0653 38.1463 49.9416 38.1322 49.9071C38.0982 49.9071 38.0152 49.9071 38.0293 49.8246C38.0293 49.7557 38.1463 49.6732 38.2492 49.6886C38.3269 49.6247 38.4237 49.5885 38.5243 49.5857C38.6413 49.5857 38.7442 49.6197 38.7442 49.6886C38.7442 49.7575 38.6082 49.9085 38.5583 49.9434C38.5035 49.9982 38.4346 50.034 38.3661 49.9774V49.976ZM36.798 54.0401C36.798 54.0401 36.662 54.0542 36.662 54.1227C36.662 54.1571 36.6961 54.1571 36.7446 54.1367C36.7725 54.1351 36.8002 54.1304 36.8271 54.1227C36.8407 54.1367 36.8407 54.2052 36.944 54.2052C37.0289 54.1937 37.1107 54.1657 37.1847 54.1227C37.2673 54.0887 37.3362 54.0537 37.3362 53.9867C37.3017 53.8697 37.2328 53.8144 37.1299 53.8144C37.0772 53.811 37.0246 53.823 36.9785 53.8488C36.9785 53.8488 36.944 53.7799 36.8271 53.8488C36.7101 53.9177 36.7237 53.9177 36.7582 53.9522C36.8198 54.0071 36.7994 54.0429 36.7994 54.0429L36.798 54.0401ZM36.021 54.7555C36.021 54.7211 36.1929 54.6521 36.2409 54.673C36.289 54.6866 36.4263 54.9477 36.4263 54.9754C36.4263 55.0098 36.2545 55.0923 36.1856 55.0923C36.1167 55.0923 36.0002 54.9754 36.0002 54.9563C36.0002 54.9427 36.0827 54.9223 36.0827 54.9083C36.1031 54.8743 36.021 54.7913 36.021 54.7569V54.7555ZM35.477 53.7514C35.5115 53.7378 35.5115 53.7033 35.5595 53.6689C35.5746 53.6589 35.5917 53.6524 35.6096 53.6501C35.6276 53.6477 35.6458 53.6495 35.6629 53.6553C35.675 53.6336 35.6918 53.615 35.712 53.6006C35.7323 53.5863 35.7554 53.5766 35.7799 53.5723C35.8624 53.5587 35.9313 53.5723 35.9159 53.6068C35.9159 53.7101 35.9848 53.7786 35.9848 53.8611C35.9848 53.9436 35.9367 54.0469 35.7649 54.1159C35.5931 54.1639 35.3592 54.1639 35.3247 54.1503C35.2903 54.1367 35.2558 53.9989 35.2903 53.93C35.3247 53.8611 35.4208 53.7858 35.4761 53.7514H35.477Z" fill="#82764F"/>
<path fill-rule="evenodd" clip-rule="evenodd" d="M35.696 53.798C35.696 53.798 35.579 53.8669 35.579 53.9014C35.5687 53.9347 35.5641 53.9695 35.5654 54.0043C35.5654 54.0247 35.7168 53.9907 35.7372 53.9698C35.744 53.9562 35.696 53.8338 35.696 53.798Z" fill="#6E6342"/>
<path fill-rule="evenodd" clip-rule="evenodd" d="M34.6733 53.4748C34.7418 53.4889 34.8587 53.4748 34.948 53.5092C35.0169 53.5437 35.065 53.6126 34.9961 53.6951C34.9272 53.7776 34.8601 53.9014 34.7073 53.8805C34.5355 53.8669 34.3705 53.7776 34.3705 53.7087C34.3676 53.6651 34.3734 53.6214 34.3876 53.5801C34.4017 53.5388 34.424 53.5007 34.453 53.468C34.5219 53.4131 34.5559 53.4476 34.6728 53.4748H34.6733Z" fill="#585136"/>
<path fill-rule="evenodd" clip-rule="evenodd" d="M34.5908 53.5437C34.5908 53.5437 34.371 53.7155 34.3157 53.7985C34.2467 53.881 33.9099 54.3071 33.807 54.3964C33.8412 54.3361 33.8801 54.2787 33.9235 54.2246C33.7875 54.3116 33.6856 54.4427 33.6347 54.5959C33.5522 54.8507 34.0958 54.988 34.453 55.0914C34.8102 55.1947 34.9485 55.2274 34.9485 55.2274C34.817 55.0297 34.7041 54.8203 34.6112 54.6018C34.4752 54.2786 34.405 54.2441 34.4943 54.0927C34.5632 53.9413 34.6665 53.8384 34.6665 53.7214C34.6253 53.6126 34.5908 53.5437 34.5908 53.5437Z" fill="#574F35"/>
<path fill-rule="evenodd" clip-rule="evenodd" d="M26.7508 54.0873C26.8008 54.0965 26.8521 54.0965 26.9022 54.0873C27.0051 54.0732 28.0781 53.6793 29.1992 53.75C30.0385 53.8007 30.8703 53.9374 31.6817 54.158C33.0916 54.5293 34.8451 55.265 35.9797 55.6848C36.2821 55.8013 36.5781 56.0081 36.7957 56.0901C37.6625 56.4274 37.6965 56.4274 38.2056 56.5167C38.804 56.5992 39.416 56.3997 40.0557 56.2624C40.8395 56.0901 42.1804 56.0076 43.3564 55.8358C43.7366 55.7831 44.1117 55.698 44.4775 55.5815C44.4775 55.5815 43.5423 56.5167 41.3001 56.8535C40.3938 56.9911 39.4728 57.0027 38.5633 56.888C37.8479 56.8191 37.3737 56.7157 37.0161 56.6128C36.6103 56.4958 35.778 56.1862 34.7535 55.9328C34.0381 55.7469 33.2403 55.6096 32.3259 55.4378C30.0701 55.0248 27.6221 54.5506 26.7499 54.09L26.7508 54.0873Z" fill="#252211"/>
<path fill-rule="evenodd" clip-rule="evenodd" d="M24.2198 49.8373C23.6758 50.2979 23.0987 50.7381 22.5353 51.1642L20.8366 52.4693C20.2591 52.8955 19.6951 53.3357 19.1171 53.7622C18.5391 54.1888 17.962 54.5941 17.3491 54.9862C17.8931 54.5257 18.4702 54.0991 19.0478 53.6797C19.6253 53.2604 20.2242 52.8492 20.7813 52.424L22.4799 51.117C23.0643 50.6909 23.6282 50.2507 24.2198 49.8382V49.8373ZM21.2147 54.6512C21.2147 54.6512 21.8267 54.1421 22.5901 53.4272C23.5389 52.5405 24.7013 51.4054 25.0726 51.1995L21.2142 54.6517L21.2147 54.6512Z" fill="#CFB66C"/>
<path fill-rule="evenodd" clip-rule="evenodd" d="M21.2147 54.6508C21.5175 54.3484 21.8408 54.0528 22.164 53.7636L22.659 53.3375C22.8105 53.2015 22.9827 53.0487 23.1337 52.8973C23.4361 52.5949 23.7321 52.2712 24.0345 51.962C24.1843 51.8066 24.3428 51.6596 24.5091 51.5219C24.5922 51.4483 24.6846 51.3858 24.7838 51.336C24.8668 51.2879 24.9561 51.2 25.0726 51.1846C25.0041 51.2879 24.9216 51.336 24.8527 51.4253C24.7702 51.4942 24.7013 51.5767 24.6329 51.6452C24.4814 51.7966 24.3096 51.9339 24.1582 52.0717C23.835 52.3469 23.4982 52.6157 23.1749 52.9036C22.8517 53.1915 22.5493 53.502 22.2257 53.7908C21.8752 54.0868 21.552 54.3756 21.2147 54.6521V54.6508ZM25.3274 51.8999C25.3274 51.8999 23.0856 54.0941 22.6246 54.4513L25.3274 51.8999Z" fill="#CFB66C"/>
<path fill-rule="evenodd" clip-rule="evenodd" d="M25.3274 51.9C25.1257 52.1334 24.9095 52.3539 24.68 52.56L24 53.2065C23.7802 53.4263 23.5735 53.6467 23.34 53.8665C23.0993 54.0728 22.8794 54.2745 22.6246 54.4649L23.2847 53.8185C23.505 53.5986 23.7457 53.4132 23.9796 53.1929L24.6397 52.5464C24.8664 52.3198 25.0867 52.0994 25.3274 51.9ZM25.4303 53.0895C25.2237 53.6662 24.9802 54.2291 24.7014 54.7745C24.1238 55.9301 23.2575 57.374 22.879 58.1102L25.4303 53.0895Z" fill="#CFB66C"/>
<path fill-rule="evenodd" clip-rule="evenodd" d="M25.4303 53.09C25.4303 53.3443 25.3614 53.5646 25.2789 53.7845C25.1985 54.0045 25.1068 54.2203 25.0042 54.4309C24.9008 54.6372 24.7838 54.8575 24.6669 55.057C24.5499 55.2564 24.4126 55.4623 24.3092 55.669L23.6147 56.893C23.374 57.301 23.1401 57.7112 22.8857 58.1034C23.0576 57.6632 23.2915 57.2507 23.5118 56.8449C23.7525 56.4369 23.9724 56.0289 24.1918 55.6069C24.2989 55.3966 24.3953 55.181 24.4806 54.9609C24.5835 54.7406 24.6864 54.5343 24.7693 54.3348C24.8722 54.115 24.9548 53.9082 25.0581 53.7092C25.1746 53.4957 25.2712 53.2894 25.4294 53.09H25.4303Z" fill="#CFB66C"/>
<path fill-rule="evenodd" clip-rule="evenodd" d="M27.8787 58.7289C27.8787 58.7289 27.1987 59.6297 27.2667 60.7712C27.4522 60.1733 27.6861 59.2584 27.8787 58.7289ZM28.5252 59.632C28.5252 59.632 28.2845 62.08 28.085 63.2836C28.367 61.8923 28.4218 62.0093 28.5252 59.632ZM33.0295 63.4282C33.0295 63.4282 32.0118 66.4202 31.9909 67.2516C32.2113 66.3966 32.6374 64.6499 33.0295 63.4259V63.4282Z" fill="#DEC270"/>
<path fill-rule="evenodd" clip-rule="evenodd" d="M35.4091 58.544C35.4091 58.544 37.0596 61.2672 38.2977 63.5914C37.9627 62.4218 37.192 60.2766 35.4091 58.544Z" fill="#CBAF59"/>
<path fill-rule="evenodd" clip-rule="evenodd" d="M39.8448 62.5529C40.7511 64.1548 41.5683 65.8055 42.2928 67.4974C42.1555 66.3282 41.7838 64.3272 39.8448 62.5529Z" fill="#E3C677"/>
<path fill-rule="evenodd" clip-rule="evenodd" d="M52.8837 66.568C53.1584 66.3962 53.702 65.4605 54.1766 65.227C54.6508 64.9863 55.0085 64.9383 55.4351 64.4636C55.8612 63.9681 55.9791 63.6658 56.9134 63.2741C58.2203 62.7097 57.3214 61.9807 57.3214 61.9807C57.4654 61.8393 57.6193 61.7084 57.782 61.589C58.1192 61.3347 58.5109 61.0251 58.4769 60.4815C58.4289 59.5672 58.2571 58.2398 57.5073 57.4696C58.2362 57.3182 59.632 57.2153 60.4993 56.9954C61.5029 56.7406 61.964 56.383 61.964 56.383C61.964 56.383 61.3864 55.3997 62.3216 54.4096C63.2569 53.4195 64.0203 52.8279 64.5842 51.7204C63.9378 51.6379 62.9522 51.2943 60.4371 52.2499C60.5729 52.3138 60.704 52.3873 60.8293 52.4698C60.8293 52.4698 59.2821 52.8964 58.7181 53.371C57.7344 54.2029 57.6106 54.8838 56.5448 55.3929C55.479 55.902 54.406 55.7642 53.5193 56.1767C52.6326 56.5892 52.5015 56.9401 52.1779 57.0915C52.2468 57.174 52.1643 57.3114 52.2948 57.4283C52.2123 57.5453 51.7309 58.3291 51.2426 58.3291C51.2907 58.515 51.7032 58.6523 51.7032 58.6523C51.7032 58.6523 51.4009 58.8727 50.6306 58.9275C51.0223 59.3355 51.3941 59.7802 52.4186 60.4267C52.3361 60.5985 51.992 60.8533 52.1298 61.1765C52.2812 61.4997 52.6738 61.9399 54.241 62.2976C53.4431 62.3316 52.5083 62.5175 51.249 62.3456C49.9905 62.1942 49.7843 62.1049 49.0073 62.2976C49.0898 62.3801 49.3096 62.3801 49.5023 62.6C49.296 62.6136 48.0031 62.4486 47.5629 63.0266C47.1023 63.6245 46.9029 64.6082 46.9373 65.2683C46.6966 65.3852 46.4627 65.5915 46.5797 66.0181C46.6966 66.4447 47.3086 66.582 47.7007 66.85C48.0924 67.1387 48.1269 67.2416 48.4986 67.1732C48.8903 67.0907 49.4678 66.699 49.8051 66.699C50.1424 66.699 50.3827 66.9533 50.3827 66.9533C50.3827 66.9533 51.2975 66.5131 51.3868 66.5956C51.4693 66.6782 51.4004 67.2076 51.4897 67.2902C51.5804 67.3523 52.6108 66.7403 52.886 66.568H52.8837Z" fill="#ECD592"/>
<path fill-rule="evenodd" clip-rule="evenodd" d="M72.8753 39.047C68.5772 27.9476 57.952 25.8913 57.952 25.8913H27.638L27.755 37.197H33.792V62.4427H27.6376V73.7279H57.1129C64.2166 73.7279 69.9109 66.5893 69.9109 66.5893C79.0297 53.6471 72.8748 39.047 72.8748 39.047H72.8753ZM57.2711 58.9833C57.2711 58.9833 54.9591 62.3189 52.4435 62.3189H47.4115L47.2923 37.2246H53.75C53.75 37.2246 56.742 37.8502 58.8323 43.7712C58.8323 43.7712 61.6036 52.2485 57.2711 58.9833Z" fill="white" fill-opacity="0.8"/>
</svg>
