<svg width="100" height="100" viewBox="0 0 100 100" fill="none" xmlns="http://www.w3.org/2000/svg">
<rect width="100" height="100" rx="24" fill="#1C1C1C"/>
<path d="M83.7188 27.7L69.5188 11.2C68.8188 10.4 67.9188 10 66.9188 10H24.5187C22.7187 10 21.3187 11.3 21.1188 13L16.0188 71C15.9188 71.9 16.2188 72.9 16.9187 73.6C17.6187 74.3 18.4188 74.7 19.4188 74.7H27.7188L26.4187 89.8L42.8188 74.7H61.4188C62.3188 74.7 63.1188 74.4 63.7188 73.7L81.2188 56.7C81.8187 56.1 82.1188 55.4 82.2188 54.6L84.3187 30.1C84.5187 29.3 84.2188 28.4 83.7188 27.7ZM70.7188 50C70.6188 50.8 70.3187 51.6 69.7188 52.1L59.6188 61.8C59.0188 62.4 58.1188 62.7 57.3188 62.7H32.5187C31.0187 62.7 29.7187 61.7 29.3187 60.3C29.1187 59.9 29.1187 59.5 29.1187 59.1L32.1187 25.1C32.2188 23.4 33.7187 22 35.4187 22H60.6188C61.6188 22 62.5188 22.4 63.1188 23.1L71.1188 32.3C71.7188 33 72.0187 33.9 71.9188 34.8L70.7188 50ZM50.9188 56.5H46.0187C45.7188 56.5 45.4188 56.4 45.3188 56.2C45.2188 56 45.0187 55.7 45.0187 55.4L45.4187 50.5C45.4187 50 45.9187 49.6 46.4187 49.6H51.3188C51.6188 49.6 51.9188 49.7 52.0188 49.9C52.1188 50.1 52.3188 50.4 52.3188 50.7L51.9188 55.6C51.9188 56.1 51.4188 56.5 50.9188 56.5ZM51.8188 47.2H46.8188C46.2188 47.2 45.8188 46.8 45.8188 46.2L47.1187 30.7C47.2188 30.2 47.6188 29.8 48.1188 29.8H53.1188C53.7188 29.8 54.1188 30.2 54.1188 30.8L52.7188 46.3C52.7188 46.8 52.3188 47.2 51.8188 47.2Z" fill="url(#paint0_linear_346_143)"/>
<defs>
<linearGradient id="paint0_linear_346_143" x1="69.7512" y1="5.16186" x2="9.03547" y2="76.0029" gradientUnits="userSpaceOnUse">
<stop stop-color="#F59C07"/>
<stop offset="1" stop-color="#F57507"/>
</linearGradient>
</defs>
</svg>
