<svg width="100" height="100" viewBox="0 0 100 100" fill="none" xmlns="http://www.w3.org/2000/svg">
<rect width="100" height="100" rx="24" fill="#50C800"/>
<g clip-path="url(#clip0_251_95)">
<path fill-rule="evenodd" clip-rule="evenodd" d="M98 64.0096V36.2436C96.9172 33.6103 95.328 31.2152 93.3226 29.1941C93.5007 26.213 92.8349 23.1947 91.2883 20.5042C90.2758 18.7418 87.8292 18.4888 86.4608 20.0074L83.3579 23.4477C83.3391 23.4385 83.3203 23.4385 83.3015 23.4293C83.7047 20.2884 83.1702 17.0455 81.6328 14.1489C80.6767 12.3489 78.6053 12.0302 77.1804 13.4923L62.2753 28.5943C62.1067 28.7537 61.9286 28.9222 61.76 29.0912C61.7504 29.1004 61.7316 29.1096 61.7224 29.1192C55.2449 34.9873 45.149 35.2311 38.9806 29.8411C38.5941 29.4186 38.1906 29.0121 37.7712 28.6224L22.8388 13.5019C21.4136 12.0394 19.3421 12.3585 18.386 14.1585C16.8578 17.0455 16.3141 20.27 16.7081 23.3916C16.6797 23.4009 16.6516 23.4009 16.6236 23.4105L13.5581 20.0074C12.1896 18.4888 9.743 18.7418 8.72128 20.5042C7.2027 23.1382 6.53691 26.0913 6.67744 29.0159C4.70261 30.9652 3.11541 33.2713 2 35.8121V64.45C5.36544 72.1277 13.0332 77.499 21.948 77.499H22.9041C31.7441 77.499 39.3558 72.2214 42.7585 64.6469C46.0302 64.6281 48.4016 64.6189 49.8737 64.6189C53.0606 64.6097 55.5448 64.6097 57.326 64.6097C60.7195 72.2026 68.35 77.499 77.1988 77.499H77.8738C86.9576 77.499 94.7378 71.9211 98 64.0096Z" fill="#8EE000"/>
<path fill-rule="evenodd" clip-rule="evenodd" d="M23.2981 30.4973C31.6596 30.4973 38.4465 37.2743 38.4465 45.6458V54.6167C38.4465 62.9783 31.6688 69.7652 23.2981 69.7652C14.9361 69.7652 8.14917 62.9879 8.14917 54.6167V45.6458C8.14917 37.2746 14.9361 30.4973 23.2981 30.4973ZM76.515 30.4973C84.8765 30.4973 91.6635 37.2743 91.6635 45.6458V54.6167C91.6635 62.9783 84.8857 69.7652 76.515 69.7652C68.153 69.7652 61.3661 62.9879 61.3661 54.6167V45.6458C61.3661 37.2746 68.1438 30.4973 76.515 30.4973Z" fill="white"/>
<path fill-rule="evenodd" clip-rule="evenodd" d="M25.6321 39.1963C29.5973 39.1963 32.8218 42.4116 32.8218 46.3864V54.0637C32.8218 58.0289 29.6065 61.2534 25.6321 61.2534C21.6669 61.2534 18.442 58.0381 18.442 54.0637V46.3864C18.442 42.4116 21.6669 39.1963 25.6321 39.1963Z" fill="#4B4B4B"/>
<path fill-rule="evenodd" clip-rule="evenodd" d="M50.0053 56.6248C54.5514 56.6248 58.2355 60.3089 58.2355 64.855V67.7144C58.2355 72.2609 54.5514 75.9446 50.0053 75.9446C45.4588 75.9446 41.7747 72.2609 41.7747 67.7144V64.855C41.7747 60.3089 45.4588 56.6248 50.0053 56.6248Z" fill="#F48000"/>
<path d="M38.6438 65.6428C39.6279 60.3936 44.4931 56.6062 50.3144 56.6062C55.6107 56.6062 60.4011 60.4873 61.3664 65.6428V66.0647C61.3664 66.393 61.2538 66.524 60.954 66.4867L50.324 68.38H49.6958L39.0562 66.4771C38.7563 66.5148 38.6438 66.3834 38.6438 66.0555V65.6428Z" fill="#FFC200"/>
<path fill-rule="evenodd" clip-rule="evenodd" d="M48.2614 58.4245C48.8171 58.2903 49.3865 58.2211 49.9582 58.2183C50.5675 58.2183 51.1865 58.2935 51.7958 58.4529C52.3966 58.6076 52.9289 58.9577 53.309 59.4481C53.6891 59.9385 53.8953 60.5413 53.8953 61.1617C53.8955 61.4055 53.8476 61.647 53.7544 61.8723C53.6612 62.0975 53.5245 62.3022 53.3521 62.4746C53.1797 62.647 52.975 62.7837 52.7498 62.8769C52.5245 62.9701 52.283 63.018 52.0392 63.0178H47.9711C47.7273 63.018 47.4859 62.9701 47.2606 62.8769C47.0353 62.7837 46.8306 62.647 46.6582 62.4746C46.4859 62.3022 46.3491 62.0975 46.2559 61.8723C46.1627 61.647 46.1149 61.4055 46.1151 61.1617C46.1055 59.8682 46.9963 58.7339 48.2614 58.4245Z" fill="#FFE747"/>
<path fill-rule="evenodd" clip-rule="evenodd" d="M74.1804 39.1965C78.146 39.1965 81.3705 42.4118 81.3705 46.3866V54.064C81.3705 58.0292 78.1552 61.2537 74.1804 61.2537C70.2152 61.2537 66.9907 58.0384 66.9907 54.064V46.3866C66.9999 42.4118 70.2152 39.1965 74.1804 39.1965Z" fill="#4B4B4B"/>
<path d="M19.5574 47.9144C22.1204 47.9144 24.1976 45.8452 24.1976 43.293C24.1976 40.7408 22.1204 38.6716 19.5574 38.6716C16.9949 38.6716 14.9172 40.7408 14.9172 43.293C14.9172 45.8452 16.9949 47.9144 19.5574 47.9144ZM67.4031 47.9144C69.9656 47.9144 72.0433 45.8452 72.0433 43.293C72.0433 40.7408 69.9656 38.6716 67.4031 38.6716C64.8401 38.6716 62.7629 40.7408 62.7629 43.293C62.7629 45.8452 64.8401 47.9144 67.4031 47.9144Z" fill="white"/>
</g>
<defs>
<clipPath id="clip0_251_95">
<rect width="96" height="96" fill="white" transform="translate(2 2)"/>
</clipPath>
</defs>
</svg>
