<svg width="100" height="100" viewBox="0 0 100 100" fill="none" xmlns="http://www.w3.org/2000/svg">
<rect width="100" height="100" rx="24" fill="white"/>
<path d="M30.3937 60.7594H17.3604C19.086 66.679 22.2883 71.9853 26.9766 76.6736C34.4506 84.1492 43.4379 87.8808 53.9477 87.8808C56.0486 87.8808 58.0841 87.7243 60.0612 87.4262C67.9774 86.2314 74.9081 82.6524 80.8465 76.6736C85.5651 71.9869 88.7899 66.679 90.5289 60.7594H85.2397H77.5056H30.3937Z" fill="#2C2255"/>
<path d="M23.2069 43.0574H16.3983C16.1492 44.5534 15.9795 46.0806 15.9025 47.6467H23.9946H28.0539H86.6471H91.9954C91.9175 46.0806 91.7478 44.5534 91.4964 43.0574" fill="#2C2255"/>
<path d="M15.9025 51.9085C15.9795 53.4754 16.1484 55.0026 16.3983 56.4979H23.477H28.8424H86.1691H91.498C91.7486 55.0026 91.9199 53.4754 91.9977 51.9085" fill="#2C2255"/>
<path d="M90.5304 38.7948C88.7931 32.8588 85.5674 27.5285 80.8465 22.8068C74.9237 16.8848 68.0124 13.3306 60.1219 12.135C58.1261 11.8322 56.0704 11.6735 53.9477 11.6735C43.4379 11.6735 34.4499 15.3856 26.9766 22.8068C22.2868 27.5285 19.0829 32.8588 17.358 38.7948" fill="#2C2255"/>
<path d="M13.6397 49.7788C13.6397 29.6777 28.7365 12.9758 48.376 10.0381C47.8887 10.0202 47.3991 10 46.9072 10C24.8679 10 7 27.8103 7 49.7788C7 71.748 24.8671 89.5567 46.9072 89.5567C47.4007 89.5567 47.8903 89.5388 48.3791 89.5201C28.7365 86.5825 13.6397 69.8806 13.6397 49.7788Z" fill="#F7941E"/>
<path d="M79.8439 47.646C79.7162 46.0728 79.4516 44.5386 79.0562 43.0566H28.8423C28.4469 44.5371 28.1815 46.0721 28.0538 47.646H79.8439Z" fill="url(#paint0_linear_411_190)"/>
<path d="M79.8438 51.9084H28.0546C28.1822 53.4816 28.4461 55.015 28.8423 56.4978H79.0569C79.4523 55.0158 79.7162 53.4816 79.8438 51.9084Z" fill="url(#paint1_linear_411_190)"/>
<path d="M53.9493 75.7674C64.3774 75.7674 73.3662 69.6236 77.5057 60.7593H30.3929C34.5324 69.6236 43.5212 75.7674 53.9493 75.7674Z" fill="url(#paint2_linear_411_190)"/>
<path d="M24.2164 51.9084H28.018H79.9412H86.7622H91.9439C91.9797 51.2304 92 50.5478 92 49.8597C92 49.1163 91.9727 48.3799 91.9307 47.6451H86.7614H79.9404H28.0172H23.9471H15.9024C15.8604 48.3784 15.8331 49.1163 15.8331 49.8597C15.8331 50.5478 15.8534 51.2304 15.8892 51.9084H24.2164Z" fill="white"/>
<path d="M30.2411 38.7948H17.3572C16.9337 40.1827 16.6605 41.6064 16.3982 43.058H23.034H28.6843H79.0296H86.1597H91.2558C90.9927 41.6079 90.6541 40.1842 90.2314 38.7948" fill="white"/>
<path d="M86.3613 56.4968H79.2313H28.8867H23.5065H16.3975C16.6528 57.947 16.9431 59.3699 17.3595 60.7593H30.4419H77.6761H85.4304H90.4806C90.8962 59.3714 91.2317 57.9485 91.4878 56.4968H86.3613Z" fill="white"/>
<defs>
<linearGradient id="paint0_linear_411_190" x1="53.9483" y1="93.0534" x2="53.9483" y2="35.7369" gradientUnits="userSpaceOnUse">
<stop offset="0.3033" stop-color="#473788"/>
<stop offset="0.872" stop-color="#2C2255"/>
</linearGradient>
<linearGradient id="paint1_linear_411_190" x1="53.949" y1="93.0543" x2="53.949" y2="35.7378" gradientUnits="userSpaceOnUse">
<stop offset="0.3033" stop-color="#473788"/>
<stop offset="0.872" stop-color="#2C2255"/>
</linearGradient>
<linearGradient id="paint2_linear_411_190" x1="53.9491" y1="93.0519" x2="53.9491" y2="35.7395" gradientUnits="userSpaceOnUse">
<stop offset="0.3033" stop-color="#473788"/>
<stop offset="0.8631" stop-color="#2C2255"/>
</linearGradient>
</defs>
</svg>
