<svg width="100" height="100" viewBox="0 0 100 100" fill="none" xmlns="http://www.w3.org/2000/svg">
<rect width="100" height="100" rx="24" fill="#2B2E3A"/>
<path d="M38.6643 25.2693C27.5568 23.2464 18.7741 25.3637 15.2738 31.4264C12.6619 35.9505 13.4085 41.9487 17.0848 48.3604C17.1574 48.4936 17.2559 48.6109 17.3744 48.7055C17.4929 48.8001 17.6292 48.8701 17.7751 48.9114C17.9211 48.9526 18.0738 48.9643 18.2243 48.9458C18.3748 48.9272 18.5202 48.8788 18.6517 48.8033C18.7833 48.7279 18.8985 48.6269 18.9905 48.5064C19.0825 48.3858 19.1495 48.2481 19.1876 48.1013C19.2257 47.9545 19.2341 47.8016 19.2123 47.6515C19.1905 47.5014 19.139 47.3571 19.0607 47.2272C15.7496 41.4516 15.1051 36.2752 17.2467 32.5655C20.1546 27.5292 27.9882 25.6404 38.256 27.5104C38.5511 27.5595 38.8536 27.4906 39.0983 27.3186C39.343 27.1466 39.5102 26.8852 39.5638 26.5909C39.6174 26.2967 39.5531 25.9931 39.3848 25.7458C39.2166 25.4985 38.9578 25.3274 38.6643 25.2693ZM22.8609 56.1538C27.3522 61.0894 33.1872 65.719 39.8419 69.5606C55.9546 78.8636 73.1082 81.3499 81.562 75.5858C81.6884 75.5027 81.7971 75.3953 81.8816 75.2699C81.9661 75.1444 82.0247 75.0033 82.0541 74.855C82.0835 74.7066 82.0831 74.5538 82.0528 74.4056C82.0225 74.2574 81.963 74.1167 81.8778 73.9917C81.7926 73.8667 81.6833 73.76 81.5564 73.6777C81.4294 73.5954 81.2874 73.5392 81.1385 73.5124C80.9896 73.4856 80.8369 73.4888 80.6892 73.5216C80.5416 73.5545 80.4019 73.6164 80.2785 73.7038C72.7123 78.8627 56.4181 76.5007 40.9811 67.5882C34.5254 63.861 28.8749 59.3778 24.5459 54.6204C24.4454 54.5091 24.3239 54.4188 24.1884 54.3545C24.0529 54.2903 23.9061 54.2534 23.7563 54.2461C23.6065 54.2387 23.4567 54.261 23.3156 54.3117C23.1744 54.3624 23.0446 54.4404 22.9337 54.5413C22.8228 54.6423 22.7329 54.7641 22.6692 54.8999C22.6055 55.0357 22.5692 55.1827 22.5624 55.3325C22.5557 55.4823 22.5786 55.632 22.6298 55.7729C22.681 55.9139 22.7595 56.0433 22.8609 56.1538Z" fill="#9FEAF9"/>
<path d="M78.8653 54.7682C86.1385 46.1761 88.6778 37.5343 85.1847 31.4845C82.6147 27.0325 77.1811 24.682 69.9596 24.588C69.6603 24.5884 69.3733 24.7066 69.1604 24.917C68.9476 25.1274 68.8261 25.4132 68.8222 25.7124C68.8184 26.0117 68.9324 26.3004 69.1397 26.5163C69.347 26.7321 69.631 26.8577 69.9302 26.8659C76.4247 26.9505 81.106 28.9755 83.2122 32.6236C86.1133 37.6488 83.8487 45.3551 77.1265 53.2963C77.0278 53.4102 76.9528 53.5426 76.9056 53.6857C76.8585 53.8288 76.8402 53.9798 76.8519 54.1301C76.8635 54.2803 76.9048 54.4267 76.9734 54.5609C77.0421 54.695 77.1366 54.8142 77.2516 54.9115C77.3666 55.0089 77.4998 55.0825 77.6434 55.128C77.7871 55.1735 77.9383 55.1901 78.0884 55.1768C78.2385 55.1634 78.3844 55.1205 78.5178 55.0503C78.6511 54.9802 78.7693 54.8843 78.8653 54.7682ZM60.1736 25.6486C53.5975 27.0577 46.5977 29.8127 39.8755 33.6936C23.2421 43.2968 12.3917 57.4575 13.8986 67.7253C13.9187 67.8747 13.9683 68.0186 14.0444 68.1488C14.1205 68.2789 14.2218 68.3926 14.3422 68.4833C14.4626 68.574 14.5998 68.6399 14.7459 68.6772C14.892 68.7145 15.044 68.7224 15.1932 68.7005C15.3423 68.6786 15.4856 68.6273 15.6148 68.5496C15.744 68.4719 15.8565 68.3693 15.9457 68.2478C16.035 68.1263 16.0992 67.9883 16.1347 67.8418C16.1702 67.6952 16.1763 67.5431 16.1526 67.3942C14.8144 58.2776 25.0997 44.8549 41.0146 35.6665C47.5357 31.9013 54.3134 29.2339 60.6507 27.876C60.799 27.8468 60.94 27.7884 61.0655 27.7041C61.191 27.6198 61.2985 27.5114 61.3817 27.3851C61.4648 27.2589 61.5221 27.1174 61.55 26.9688C61.5779 26.8203 61.576 26.6676 61.5443 26.5198C61.5127 26.372 61.4519 26.232 61.3656 26.1079C61.2792 25.9838 61.1691 25.8781 61.0415 25.797C60.9139 25.7159 60.7715 25.661 60.6225 25.6355C60.4735 25.6101 60.3209 25.6145 60.1736 25.6486Z" fill="#9FEAF9"/>
<path d="M33.2262 74.8435C37.0294 85.462 43.2506 92 50.2461 92C55.3482 92 60.0684 88.5219 63.7494 82.399C63.8291 82.2707 63.8825 82.1279 63.9065 81.9788C63.9304 81.8298 63.9245 81.6774 63.8891 81.5306C63.8537 81.3839 63.7894 81.2456 63.7001 81.1239C63.6108 81.0022 63.4981 80.8994 63.3687 80.8216C63.2393 80.7438 63.0957 80.6925 62.9463 80.6707C62.7969 80.6489 62.6447 80.657 62.4984 80.6946C62.3522 80.7321 62.2149 80.7984 62.0944 80.8895C61.974 80.9806 61.8729 81.0947 61.797 81.2252C58.4889 86.728 54.4256 89.7217 50.2461 89.7217C44.435 89.7217 38.8861 83.8905 35.3713 74.0759C35.3231 73.9322 35.2468 73.7995 35.1467 73.6857C35.0467 73.5719 34.9249 73.4791 34.7886 73.4129C34.6522 73.3468 34.5041 73.3085 34.3527 73.3003C34.2014 73.2921 34.0499 73.3141 33.9072 73.3652C33.7645 73.4163 33.6335 73.4953 33.5217 73.5977C33.4099 73.7 33.3197 73.8237 33.2563 73.9613C33.193 74.099 33.1577 74.2479 33.1526 74.3994C33.1475 74.5509 33.1727 74.7018 33.2266 74.8435H33.2262ZM67.9614 72.7663C69.9305 66.4755 70.9876 59.2186 70.9876 51.6562C70.9876 32.786 64.3829 16.5191 54.9757 12.3422C54.7009 12.2271 54.392 12.2242 54.1151 12.3342C53.8382 12.4442 53.6154 12.6583 53.4945 12.9306C53.3736 13.2029 53.3642 13.5118 53.4683 13.7909C53.5724 14.0701 53.7817 14.2974 54.0514 14.424C62.4416 18.1499 68.7093 33.5877 68.7093 51.6562C68.7093 58.993 67.6855 66.0206 65.7877 72.0859C65.7406 72.2293 65.7224 72.3807 65.7343 72.5312C65.7461 72.6817 65.7878 72.8283 65.8568 72.9626C65.9259 73.0968 66.0209 73.216 66.1364 73.3132C66.2519 73.4104 66.3856 73.4837 66.5297 73.5288C66.6737 73.5739 66.8253 73.5899 66.9757 73.5759C67.126 73.5619 67.272 73.5181 67.4053 73.4472C67.5385 73.3762 67.6563 73.2795 67.7519 73.1626C67.8474 73.0457 67.9188 72.911 67.9618 72.7663H67.9614ZM89.4136 71.6507C89.4136 68.6398 86.973 66.1992 83.9622 66.1992C80.9513 66.1992 78.5107 68.6398 78.5107 71.6507C78.5107 74.6615 80.9513 77.1021 83.9622 77.1021C86.973 77.1021 89.4136 74.6615 89.4136 71.6507ZM87.1357 71.6507C87.1357 72.0674 87.0536 72.4801 86.8942 72.8651C86.7347 73.2502 86.5009 73.6 86.2062 73.8947C85.9115 74.1894 85.5617 74.4232 85.1766 74.5827C84.7916 74.7422 84.3789 74.8242 83.9622 74.8242C83.5454 74.8242 83.1327 74.7422 82.7477 74.5827C82.3626 74.4232 82.0128 74.1894 81.7181 73.8947C81.4234 73.6 81.1896 73.2502 81.0301 72.8651C80.8707 72.4801 80.7886 72.0674 80.7886 71.6507C80.7886 70.809 81.1229 70.0018 81.7181 69.4066C82.3132 68.8114 83.1205 68.4771 83.9622 68.4771C84.8038 68.4771 85.6111 68.8114 86.2062 69.4066C86.8014 70.0018 87.1357 70.809 87.1357 71.6507ZM16.4515 77.1021C19.4628 77.1021 21.9034 74.6615 21.9034 71.6507C21.9034 68.6398 19.4623 66.1992 16.4515 66.1992C13.4411 66.1992 11 68.6398 11 71.6507C11 74.6615 13.4411 77.1021 16.4515 77.1021ZM16.4515 74.8242C15.6098 74.8242 14.8026 74.4899 14.2074 73.8947C13.6123 73.2996 13.2779 72.4923 13.2779 71.6507C13.2779 70.809 13.6123 70.0018 14.2074 69.4066C14.8026 68.8114 15.6098 68.4771 16.4515 68.4771C17.2932 68.4771 18.1004 68.8114 18.6955 69.4066C19.2907 70.0018 19.6251 70.809 19.6251 71.6507C19.6251 72.4923 19.2907 73.2996 18.6955 73.8947C18.1004 74.4899 17.2932 74.8242 16.4515 74.8242Z" fill="#9FEAF9"/>
<path d="M50.2462 17.903C53.257 17.903 55.6976 15.4623 55.6976 12.4515C55.6976 9.44063 53.257 7 50.2462 7C47.2353 7 44.7947 9.44063 44.7947 12.4515C44.7947 15.4623 47.2353 17.903 50.2462 17.903ZM50.2462 15.6251C49.4045 15.6251 48.5973 15.2907 48.0021 14.6955C47.4069 14.1004 47.0726 13.2932 47.0726 12.4515C47.0726 11.6098 47.4069 10.8026 48.0021 10.2074C48.5973 9.61225 49.4045 9.27789 50.2462 9.27789C51.0878 9.27789 51.8951 9.61225 52.4902 10.2074C53.0854 10.8026 53.4197 11.6098 53.4197 12.4515C53.4197 13.2932 53.0854 14.1004 52.4902 14.6955C51.8951 15.2907 51.0878 15.6251 50.2462 15.6251ZM51.0786 55.5114C48.9494 55.9715 46.8517 54.6183 46.3909 52.4891C46.1702 51.4666 46.3646 50.3983 46.9314 49.5192C47.4981 48.64 48.3909 48.022 49.4133 47.8009C51.5425 47.3409 53.6401 48.694 54.1014 50.8233C54.5615 52.9525 53.2083 55.0506 51.0786 55.5114Z" fill="#9FEAF9"/>
</svg>
