<svg width="100" height="100" viewBox="0 0 100 100" fill="none" xmlns="http://www.w3.org/2000/svg">
<rect width="100" height="100" rx="24" fill="#A90533"/>
<g clip-path="url(#clip0_297_476)">
<path d="M20.2934 66.748C13.7161 59.7784 9.86774 50.1498 9.87749 38.6616C9.8684 28.5018 13.0606 19.7689 18.5485 13.1238L18.5396 13.1271H7.00488V66.7491H20.2851L20.2934 66.748Z" fill="white"/>
<path d="M81.0419 66.7525C83.8753 63.7178 86.4141 60.1439 88.7146 56.0567L75.9475 49.6731C71.4637 56.9625 64.9065 63.6722 55.8392 63.7169C42.6427 63.6722 37.4579 52.3879 37.4864 37.8635H86.7995C86.8654 36.2237 86.8654 35.4612 86.7995 34.6719C87.1214 26.0308 84.8313 18.7675 80.6653 13.1112L80.6438 13.1274H91.7468V66.7494H81.0177L81.0419 66.7525Z" fill="white"/>
<path d="M38.2847 25.4155C38.8306 18.8395 44.0153 14.4171 50.0943 14.4038C56.2147 14.4171 60.6369 18.8395 60.7868 25.4155H38.2847Z" fill="white"/>
<path d="M14.027 75.826V73.592H7.16467V86.8379H14.027V84.6034H9.7181V81.0926H13.8672V78.8584H9.7181V75.826H14.027Z" fill="white"/>
<path d="M25.6771 81.252C27.3878 80.998 28.3272 79.3028 28.3901 77.5815C28.3272 74.7654 26.5016 73.6002 23.9216 73.5917H20.4106V86.8376H22.9641V81.5712L26.1559 86.8376H29.3476L25.6771 81.252ZM22.9639 75.6666H23.283C24.6761 75.7189 25.7216 76.0368 25.6769 77.7413C25.7216 79.303 24.7116 79.7268 23.283 79.6563H22.9639V75.6666Z" fill="white"/>
<path d="M37.3269 73.5919H34.7737V86.8379H40.9974V84.6034H37.3269V73.5919Z" fill="white"/>
<path d="M54.0837 84.1246L55.2008 86.8376H57.9139L52.9666 73.2726H50.8919L45.6255 86.8376H48.3383L49.4556 84.1246H54.0837ZM53.4454 82.0502H50.2536L51.6899 77.1029L53.4454 82.0502Z" fill="white"/>
<path d="M62.7018 86.8379H65.4146V77.9009L72.4367 87.1568H74.3516V73.592H71.6388V82.529L64.6166 73.2726H62.7018V86.8379Z" fill="white"/>
<path d="M85.5231 79.8157V81.8904H88.3957C88.3358 83.5576 86.9713 84.9702 85.3635 84.9226C82.8242 84.9702 81.5659 82.5163 81.5333 80.2945C81.5659 78.1023 82.8065 75.5423 85.3635 75.5068C86.7054 75.542 87.8398 76.4601 88.3957 77.5815L90.6299 76.4643C89.6473 74.3946 87.6624 73.2468 85.3635 73.2726C81.4063 73.2471 78.8722 76.5133 78.8203 80.2945C78.8722 83.9814 81.3356 87.2654 85.2039 87.3164C89.3816 87.2654 91.3133 83.9285 91.2683 80.1349V79.8157H85.5231Z" fill="white"/>
</g>
<defs>
<clipPath id="clip0_297_476">
<rect width="85" height="74.5062" fill="white" transform="translate(7 13)"/>
</clipPath>
</defs>
</svg>
