<svg width="100" height="100" viewBox="0 0 100 100" fill="none" xmlns="http://www.w3.org/2000/svg">
<rect width="100" height="100" rx="24" fill="white"/>
<path d="M79.8741 30.8817C76.3194 30.8817 73.0995 32.295 70.735 34.5878L55.7352 23.8467C56.0192 22.6627 55.8835 21.4168 55.3511 20.3218C54.8188 19.2267 53.9229 18.3504 52.8164 17.8423C51.7098 17.3343 50.4613 17.2261 49.2838 17.5361C48.1064 17.8462 47.073 18.5553 46.3602 19.5424C45.6474 20.5295 45.2992 21.7334 45.3753 22.9486C45.4513 24.1639 45.9467 25.315 46.777 26.2056C47.6073 27.0962 48.7209 27.671 49.9278 27.8319C51.1347 27.9928 52.3601 27.7299 53.3947 27.0879L71.7525 40.4511C73.1871 37.465 76.3406 35.1404 79.8741 35.1404C81.9832 35.1388 84.0241 35.8878 85.6314 37.2535C87.2387 38.6192 88.3075 40.5122 88.6466 42.594C88.9856 44.6757 88.5728 46.8101 87.482 48.6152C86.3911 50.4203 84.6934 51.7783 82.6928 52.4461L83.899 56.5348C86.8771 55.5719 89.4138 53.5779 91.0531 50.9116C92.6923 48.2453 93.3263 45.0816 92.8412 41.9895C92.356 38.8974 90.7835 36.0799 88.4065 34.0437C86.0295 32.0075 83.004 30.8863 79.8741 30.8817Z" fill="#0A7BFF"/>
<path d="M37.744 18.1162C36.7094 21.3598 36.982 24.8791 38.5038 27.9247L23.767 38.9394C22.7278 38.3125 21.5032 38.0657 20.3023 38.241C19.1013 38.4164 17.9984 39.003 17.1818 39.9009C16.3652 40.7988 15.8855 41.9522 15.8245 43.1644C15.7635 44.3765 16.1251 45.5723 16.8474 46.5475C17.5698 47.5228 18.6083 48.2172 19.7855 48.5122C20.9628 48.8072 22.206 48.6845 23.3029 48.1651C24.3998 47.6456 25.2825 46.7616 25.8003 45.664C26.3181 44.5663 26.4389 43.3229 26.1421 42.1461L44.3884 28.727C41.9814 26.4635 40.7248 22.7601 41.7901 19.402C42.4255 17.3959 43.7542 15.6814 45.5382 14.5655C47.3223 13.4496 49.4453 13.0051 51.5272 13.3116C53.6091 13.6181 55.5139 14.6556 56.9007 16.2383C58.2875 17.821 59.0657 19.8457 59.0959 21.9498L63.3466 22.0375C63.3285 18.9167 62.1981 15.9048 60.1584 13.5428C58.1187 11.1808 55.3035 9.62365 52.2187 9.15118C49.1339 8.67871 45.9817 9.32188 43.3285 10.9651C40.6754 12.6083 38.6953 15.1439 37.744 18.1162Z" fill="#EB3D00"/>
<path d="M13.4005 53.6363C16.1389 55.6415 19.5488 56.5054 22.9116 56.0459L28.7271 73.4208C28.4242 73.6811 28.1426 73.9734 27.8982 74.3108C27.0884 75.4313 26.7566 76.8275 26.9758 78.1925C27.195 79.5574 27.9472 80.7796 29.0671 81.5902C31.4024 83.2958 34.6648 82.799 36.3571 80.4823C37.1669 79.3618 37.4987 77.9656 37.2795 76.6007C37.0603 75.2357 36.3081 74.0135 35.1882 73.2029C34.4019 72.628 33.4708 72.2839 32.4996 72.2093L25.5072 50.7697C22.6167 52.3106 18.7219 52.3106 15.8792 50.2384C11.934 47.3585 11.0494 41.8512 13.9053 37.9352C14.9971 36.4467 16.53 35.34 18.2863 34.772C20.0427 34.204 21.9334 34.2037 23.69 34.771L25.098 30.8019C19.8537 29.0512 13.8867 30.7621 10.4782 35.4352C6.254 41.2268 7.5611 49.375 13.4005 53.6363Z" fill="#00BCD4"/>
<path d="M80.6763 74.0583C79.6377 70.8353 77.3773 68.1476 74.38 66.5717L79.9909 49.1411C80.778 49.0819 81.5414 48.8452 82.2238 48.4486C82.9062 48.052 83.4899 47.5059 83.9309 46.8514C84.372 46.1968 84.659 45.4508 84.7703 44.6695C84.8816 43.8881 84.8144 43.0916 84.5737 42.3399C84.1445 41.0231 83.2098 39.9308 81.9752 39.303C80.7407 38.6753 79.3073 38.5636 77.9904 38.9925C77.3371 39.2016 76.7314 39.5373 76.2078 39.9806C75.6843 40.4238 75.2532 40.9658 74.9391 41.5757C74.6251 42.1855 74.4342 42.8513 74.3775 43.5349C74.3208 44.2185 74.3992 44.9066 74.6084 45.5599C74.9193 46.5163 75.4851 47.3212 76.2025 47.9243L69.133 69.3294C72.4007 69.7651 75.5622 72.0313 76.6408 75.3601C77.3548 77.5891 77.1542 80.0105 76.083 82.0916C75.0118 84.1727 73.1579 85.743 70.9289 86.4572C69.1674 87.0295 67.2707 87.0346 65.5062 86.4717C63.7417 85.9088 62.1984 84.8063 61.0938 83.3196L57.5869 85.708C59.2108 87.9466 61.502 89.6133 64.1319 90.4691C66.7617 91.3249 69.595 91.3257 72.2254 90.4715C79.1036 88.2505 82.8867 80.902 80.6763 74.0583Z" fill="#86C351"/>
<path d="M39.9703 88.1177C42.7108 86.1173 44.562 83.126 45.1296 79.7809L63.4635 79.595C63.9315 80.7109 64.7722 81.6298 65.8421 82.1949C66.9121 82.7601 68.145 82.9364 69.3305 82.6938C70.516 82.4511 71.5805 81.8046 72.3424 80.8646C73.1043 79.9246 73.5164 78.7492 73.5084 77.5392C73.5003 76.3292 73.0725 75.1595 72.2981 74.2297C71.5237 73.2999 70.4506 72.6677 69.262 72.441C68.0734 72.2142 66.8429 72.407 65.7806 72.9863C64.7183 73.5657 63.8899 74.4958 63.437 75.6179L40.8682 75.6763C41.4713 78.9122 40.305 82.6289 37.4703 84.7012C35.7793 85.9414 33.702 86.5391 31.6105 86.3874C29.5189 86.2357 27.5497 85.3443 26.0554 83.873C24.5611 82.4018 23.6393 80.4466 23.4551 78.3576C23.271 76.2687 23.8364 74.1824 25.0502 72.4723L21.6842 69.9006C19.863 72.4214 19.0005 75.5091 19.2515 78.6088C19.5026 81.7085 20.8509 84.617 23.054 86.8118C25.2572 89.0067 28.1708 90.3439 31.2714 90.5832C34.372 90.8226 37.4564 89.9484 39.9703 88.1177Z" fill="#9032E9"/>
</svg>
