<svg width="100" height="100" viewBox="0 0 100 100" fill="none" xmlns="http://www.w3.org/2000/svg">
<rect width="100" height="100" rx="24" fill="black"/>
<path d="M92.1671 31.1963L95 23.8592L94.877 23.4046L66.8514 30.7885C69.8397 26.4664 68.8132 23 68.8132 23C68.8132 23 59.8634 28.7154 53.0952 28.5659C46.3272 28.4162 44.1454 26.6098 33.7673 29.9205C23.3892 33.2287 20.4571 43.3836 17.4481 45.565C14.4391 47.7465 5 54.8526 5 54.8526L5.02039 54.9788L13.5307 52.2693C13.5307 52.2693 11.1963 54.4684 6.2375 61.1516L6.00582 60.9375L6.01461 60.9846C6.01461 60.9846 9.99992 67.075 13.9118 65.949C14.3048 65.8347 14.7474 65.647 15.2312 65.4005C16.8062 66.2777 18.8618 67.1397 21.1314 67.377C21.1314 67.377 19.5951 65.5911 18.3133 63.5591C18.6593 63.3362 19.0143 63.1045 19.375 62.87L19.2077 62.9874L22.448 64.1778L22.0905 61.1312C22.1021 61.1252 22.1109 61.1164 22.1225 61.1104L25.3073 62.2804L24.9114 59.5094C25.3091 59.301 25.7119 59.1026 26.1194 58.9142L29.4392 46.3575L43.166 36.9939L42.0751 39.7389C39.2921 46.5832 34.0665 48.1989 34.0665 48.1989L31.8847 49.0258C30.2633 50.9436 29.5798 51.4157 29.023 57.8525C30.3308 57.5241 31.5799 57.4447 32.7116 57.7498C38.5767 59.3305 40.6087 66.3979 39.0281 68.3537C38.6322 68.8434 37.6911 69.6791 36.5035 70.6617H34.1224L34.09 72.5911C34.0078 72.6557 33.9259 72.7173 33.8464 72.7816H31.4241L31.395 74.6642C31.1809 74.8287 30.9668 74.9869 30.7618 75.1423C28.4861 75.1891 25.6033 73.2038 25.6033 73.2038C25.6033 75.0105 27.108 77.7903 27.108 77.7903C27.108 77.7903 27.2075 77.7436 27.3745 77.6613C27.2279 77.7699 27.146 77.8286 27.146 77.8286C27.146 77.8286 33.2364 81.8899 37.0723 80.3855C40.4825 79.0482 49.3123 72.0866 56.9339 68.7907L79.9974 62.7146L83.0384 54.835L65.4614 59.4651V52.3896L86.0854 46.9555L89.1264 39.0759L65.4673 45.3105V38.2311L92.1671 31.1963Z" fill="white"/>
</svg>
