<svg width="100" height="100" viewBox="0 0 100 100" fill="none" xmlns="http://www.w3.org/2000/svg">
<rect width="100" height="100" rx="24" fill="#734F96"/>
<path d="M15 78.825L18.675 78.6C26.1375 78.1125 26.0625 78.15 26.4375 72.3C26.775 66.75 26.3499 23.2963 26.1 22.425C25.6884 20.9899 24.1442 20.1645 19.5375 20.1656L15 20.1375V12H84.75V43.1625L76.5375 43.0406C76.4625 42.9656 76.2375 40.7625 76.0875 38.7375C75.225 29.2125 73.0875 23.7322 68.9625 21.5947C66.7875 20.4697 63.3913 20.1381 52.5131 20.1348L42.375 20.1375V43.5H44.175C47.2125 43.4625 51.075 42.75 52.35 41.9625C54 40.95 55.3875 38.025 55.875 34.5C56.2425 31.9274 56.5261 30.0025 56.5261 30.0025L64.5 30V67.125H56.25V65.6625C56.25 63.2625 55.125 57.675 54.3375 55.9875C53.1 53.4 51 52.5 45.0375 51.9375L42.3 51.675L42.45 63.7125C42.5625 75.15 42.6375 75.7875 43.35 76.7625C44.25 77.9625 45.225 78.1875 51.1875 78.6375L55.1898 78.8279L55.1625 87H15V78.825Z" fill="white"/>
</svg>
