<svg width="100" height="100" viewBox="0 0 100 100" fill="none" xmlns="http://www.w3.org/2000/svg">
<rect width="100" height="100" rx="24" fill="white"/>
<path d="M89.0845 12.3443C93.3252 16.583 81.569 35.2151 79.5815 37.2035C77.5941 39.188 72.5461 37.3622 68.3073 33.1225C64.0666 28.8837 62.2398 23.8347 64.2273 21.8472C66.2137 19.8588 84.8448 8.10356 89.0845 12.3443Z" fill="#B5010F"/>
<path d="M29.6171 16.8291C23.143 13.1557 13.9306 9.06966 11 12.0003C8.03067 14.9686 12.2664 24.3882 15.9786 30.8743C19.2821 25.1311 23.981 20.2963 29.6171 16.8291Z" fill="#B5010F"/>
<path d="M82.6173 35.7418C83.2133 37.764 83.1062 39.4341 82.1393 40.3991C79.8811 42.6583 73.7808 40.2533 68.2815 35.0198C67.8977 34.6757 67.5169 34.3187 67.143 33.9438C65.1546 31.9543 63.6074 29.8369 62.6177 27.8872C60.6917 24.4319 60.2097 21.3803 61.6656 19.9244C62.459 19.132 63.7284 18.9158 65.2765 19.1945C66.2861 18.5558 67.4782 17.8447 68.7854 17.1158C63.4706 14.3438 57.4278 12.7778 51.0181 12.7778C29.758 12.7778 12.5223 30.0105 12.5223 51.2726C12.5223 72.5308 29.758 89.7655 51.0181 89.7655C72.2783 89.7655 89.5129 72.5308 89.5129 51.2726C89.5129 44.4068 87.7109 37.9683 84.5631 32.3867C83.8828 33.6284 83.2213 34.7659 82.6173 35.7418Z" fill="#B5010F"/>
</svg>
