<svg width="100" height="100" viewBox="0 0 100 100" fill="none" xmlns="http://www.w3.org/2000/svg">
<rect width="100" height="100" rx="24" fill="#2C2C2C"/>
<path d="M55.5823 10L53.4665 13.5903C53.2583 13.9438 51.9739 16.133 50.1228 19.4379C48.2729 16.133 46.9893 13.9438 46.7806 13.5903L44.6641 10L42.5491 13.5903C41.6281 15.1529 20 51.9969 20 64.9801C20 78.7771 31.065 90 44.6641 90C46.5413 90 48.3659 89.7825 50.1228 89.3772C51.8813 89.7825 53.707 90 55.5823 90C69.1837 90 80.2464 78.7771 80.2464 64.9801C80.2464 51.9969 58.6186 15.1529 57.6985 13.5903L55.5823 10ZM69.3289 64.9801C69.3289 56.2757 59.6056 36.8437 52.9202 24.5132C53.8664 22.7927 54.7643 21.1844 55.5823 19.7433C62.5801 32.0527 75.3351 56.2849 75.3351 64.9801C75.3351 74.531 68.7611 82.5277 59.9837 84.5701C65.6706 79.9831 69.3289 72.9093 69.3289 64.9801ZM32.8161 81.0439C32.8138 81.0439 32.8131 81.0432 32.8131 81.0432C32.3839 80.7154 31.9705 80.3693 31.5694 80.0108C31.5506 79.9935 31.5333 79.9762 31.5152 79.9582C29.9515 78.5313 28.6118 76.8654 27.5561 75.0028C27.5192 74.9382 27.4784 74.8767 27.4427 74.8118C27.2579 74.4783 27.0923 74.1329 26.9264 73.7845C26.8268 73.5793 26.7254 73.3753 26.6321 73.1659C26.496 72.8551 26.3735 72.5423 26.2517 72.2223C26.1518 71.9576 26.0565 71.696 25.9662 71.427C25.8671 71.1308 25.7749 70.8319 25.69 70.5268C25.602 70.2199 25.5256 69.9067 25.4522 69.594C25.388 69.3135 25.3219 69.0334 25.2693 68.7468C25.1998 68.3769 25.1483 67.9988 25.1003 67.6211C25.0684 67.3802 25.0292 67.1417 25.0065 66.8965C24.9493 66.2956 24.9185 65.6882 24.9151 65.075C24.9147 65.0466 24.9116 65.022 24.9116 64.9928V64.9867V64.9801C24.9116 56.2884 37.667 32.0535 44.6641 19.7433C45.4828 21.1844 46.3815 22.7904 47.3281 24.5132C47.3262 24.5151 47.3247 24.5174 47.3235 24.5185C48.221 26.1502 49.1608 27.886 50.1209 29.6952C50.122 29.6945 50.1228 29.6922 50.1236 29.6887C53.2805 35.6388 56.6342 42.3323 59.3056 48.4572C59.3236 48.5034 59.3451 48.5495 59.3643 48.5952C59.9891 50.0317 60.5738 51.4306 61.1082 52.7876C61.1912 52.9946 61.2727 53.2006 61.351 53.4057C61.5024 53.7953 61.6538 54.1845 61.7967 54.566C61.9807 55.057 62.1544 55.5407 62.3238 56.0125C62.4322 56.3203 62.5321 56.62 62.6343 56.9208C62.7395 57.2293 62.8398 57.5313 62.9351 57.8313C63.0189 58.0957 63.1064 58.3592 63.1844 58.6155C63.3347 59.1057 63.468 59.5768 63.5936 60.0393C63.6505 60.2464 63.6985 60.4462 63.7496 60.6471C63.8433 61.0198 63.9279 61.384 64.0039 61.7337C64.0304 61.8666 64.0654 62.0087 64.09 62.1374C64.1807 62.5897 64.2464 63.0169 64.3002 63.4295C64.3167 63.5509 64.3305 63.6742 64.3413 63.7926C64.3843 64.2025 64.4143 64.5956 64.4158 64.9559C64.4158 64.9636 64.417 64.974 64.417 64.9801V64.9867V64.9928C64.417 65.0155 64.4143 65.0343 64.4143 65.0558C64.412 65.6671 64.3789 66.2726 64.3236 66.8689C64.3025 67.099 64.2683 67.3261 64.2402 67.5527C64.1907 67.9377 64.1373 68.3188 64.0673 68.6973C64.0189 68.9608 63.9605 69.2248 63.9021 69.488C63.8284 69.8161 63.7458 70.1396 63.6562 70.46C63.579 70.7366 63.4995 71.0198 63.4104 71.2914C63.3185 71.5765 63.2117 71.8542 63.108 72.1324C62.9996 72.4244 62.8948 72.7168 62.773 73.003C62.705 73.1605 62.6262 73.31 62.5547 73.4621C62.2178 74.1975 61.8394 74.9067 61.4217 75.5902C61.358 75.6936 61.3003 75.8004 61.2339 75.9033C61.0037 76.2641 60.7578 76.6145 60.5031 76.9591C60.4259 77.0625 60.3521 77.1696 60.273 77.2734C60.0025 77.6268 59.7213 77.9719 59.43 78.3061C59.3728 78.3703 59.3171 78.4325 59.2598 78.4959C55.6445 82.5427 50.4486 85.1022 44.6641 85.1022C40.2162 85.1022 36.121 83.5812 32.8161 81.0439Z" fill="url(#paint0_linear_349_11)"/>
<defs>
<linearGradient id="paint0_linear_349_11" x1="50.1231" y1="10.0002" x2="50.1231" y2="90.0002" gradientUnits="userSpaceOnUse">
<stop stop-color="#FA6CFF"/>
<stop offset="1" stop-color="#8433F7"/>
</linearGradient>
</defs>
</svg>
