<svg width="100" height="100" viewBox="0 0 100 100" fill="none" xmlns="http://www.w3.org/2000/svg">
<rect width="100" height="100" rx="24" fill="white"/>
<path d="M59.7648 70.1249L42.6061 61.8769C40.9159 61.0656 40.1858 59.0103 41.0106 57.3066L49.2587 40.1479C50.0699 38.4577 52.1252 37.7276 53.8289 38.5524C56.1546 39.6747 57.4932 40.3102 57.4932 40.3102L57.4797 25.5448L59.7378 25.5312L59.7513 41.3648C59.7513 41.3648 67.5126 44.637 70.9876 46.7869C71.4879 47.0979 72.3668 47.7064 72.7319 48.734C73.0158 49.5588 73.0023 50.5053 72.5966 51.3437L64.3486 68.5024C63.5102 70.2196 61.455 70.9497 59.7648 70.1249Z" fill="white"/>
<path d="M90.4315 24.9093C89.8771 24.3549 89.1335 24.3685 89.1335 24.3685C89.1335 24.3685 73.2863 25.2609 65.0788 25.4502C63.2805 25.4907 61.4957 25.5313 59.7243 25.5448C59.7243 30.8317 59.7243 36.1186 59.7243 41.3919C58.9807 41.0404 58.2235 40.6753 57.4798 40.3237C57.4798 35.4019 57.4663 25.5583 57.4663 25.5583C53.545 25.6124 45.4051 25.2609 45.4051 25.2609C45.4051 25.2609 26.2858 24.3009 24.2035 24.1116C22.8784 24.0304 21.1612 23.8276 18.9302 24.3144C17.7538 24.5578 14.4005 25.315 11.6557 27.9516C5.57101 33.3737 7.12598 42.0004 7.31528 43.2985C7.54514 44.8805 8.24826 49.2749 11.6016 53.1015C17.7944 60.687 31.1265 60.5112 31.1265 60.5112C31.1265 60.5112 32.7626 64.4189 35.2641 68.0156C38.6444 72.4912 42.1194 75.9798 45.4998 76.3989C54.0183 76.3989 71.0418 76.3854 71.0418 76.3854C71.0418 76.3854 72.6644 76.3989 74.8683 74.9927C76.7613 73.8434 78.4515 71.8287 78.4515 71.8287C78.4515 71.8287 80.1958 69.9627 82.6296 65.7035C83.3733 64.3919 83.9953 63.1209 84.5362 61.9175C84.5362 61.9175 92 46.0839 92 30.6694C91.8513 26.0046 90.7019 25.1797 90.4315 24.9093ZM23.2165 52.5066C19.7144 51.3572 18.2271 49.9781 18.2271 49.9781C18.2271 49.9781 15.6445 48.1662 14.3464 44.5965C12.1154 38.62 14.1571 34.9693 14.1571 34.9693C14.1571 34.9693 15.2929 31.9269 19.3629 30.9128C21.2288 30.4125 23.5545 30.4937 23.5545 30.4937C23.5545 30.4937 24.5145 38.5254 25.6774 43.2309C26.6509 47.1791 29.0307 53.737 29.0307 53.737C29.0307 53.737 25.5016 53.3178 23.2165 52.5066ZM63.8213 67.0556C63.8213 67.0556 62.9965 69.0162 61.1711 69.1379C60.3869 69.192 59.7784 68.9757 59.7784 68.9757C59.7784 68.9757 59.7379 68.9621 59.0618 68.6917L43.7961 61.2549C43.7961 61.2549 42.3223 60.4842 42.0654 59.1456C41.7679 58.0503 42.4304 56.6982 42.4304 56.6982L49.7726 41.5677C49.7726 41.5677 50.4216 40.2561 51.4222 39.8099C51.5033 39.7694 51.7332 39.6747 52.0307 39.6071C53.1259 39.3232 54.4645 39.9857 54.4645 39.9857L69.4327 47.2467C69.4327 47.2467 71.1364 48.0174 71.5015 49.4372C71.7584 50.4378 71.4339 51.3302 71.2581 51.7629C70.4063 53.8452 63.8213 67.0556 63.8213 67.0556Z" fill="#609926"/>
<path d="M50.4215 56.0492C49.3128 56.0628 48.3392 56.8335 48.0823 57.9152C47.8254 58.9969 48.3528 60.1192 49.3128 60.6195C50.3539 61.1603 51.679 60.8629 52.3821 59.8893C53.0717 58.9293 52.9636 57.6042 52.1388 56.7659L55.3839 50.1269C55.5867 50.1404 55.8842 50.1539 56.2222 50.0592C56.7766 49.9376 57.1823 49.5725 57.1823 49.5725C57.7502 49.8159 58.3451 50.0863 58.9671 50.3973C59.6161 50.7218 60.2246 51.0598 60.779 51.3844C60.9007 51.452 61.0223 51.5331 61.1576 51.6413C61.3739 51.817 61.6173 52.0604 61.7931 52.3849C62.05 53.1286 61.5362 54.3996 61.5362 54.3996C61.2252 55.4273 59.0482 59.8893 59.0482 59.8893C57.953 59.8623 56.9794 60.5654 56.6549 61.5795C56.3034 62.6747 56.8037 63.9187 57.8583 64.4596C58.913 65.0004 60.2111 64.6894 60.9006 63.7429C61.5767 62.8235 61.5226 61.5389 60.7519 60.6871C61.0088 60.1868 61.2522 59.6865 61.5091 59.1592C62.1852 57.7529 63.3345 55.0487 63.3345 55.0487C63.4562 54.8188 64.1052 53.656 63.6996 52.1686C63.3616 50.6272 61.9959 49.9105 61.9959 49.9105C60.3463 48.8423 58.0476 47.8553 58.0476 47.8553C58.0476 47.8553 58.0476 47.3009 57.8989 46.8952C57.7502 46.4761 57.5203 46.2056 57.3716 46.0434C58.0071 44.7318 58.6426 43.4338 59.2781 42.1222C58.7237 41.8517 58.1828 41.5813 57.6285 41.2974C56.9794 42.6225 56.3169 43.9611 55.6679 45.2862C54.7619 45.2727 53.9236 45.7594 53.4909 46.5572C53.0312 47.409 53.1258 48.4637 53.7478 49.2344C52.6391 51.506 51.5303 53.7776 50.4215 56.0492Z" fill="#609926"/>
</svg>
