<svg width="100" height="101" viewBox="0 0 100 101" fill="none" xmlns="http://www.w3.org/2000/svg">
<rect y="0.148193" width="100" height="100" rx="24" fill="#00A264"/>
<path fill-rule="evenodd" clip-rule="evenodd" d="M88.741 47.9098H91.9561C91.9802 47.9098 92 47.8886 92 47.8624V44.6919C91.9993 43.917 91.7429 43.2866 91.2237 42.846C90.7463 42.4408 90.0294 42.1964 89.071 42.1483C89.047 42.1468 89.0271 42.1674 89.0271 42.1929V43.3886C89.0271 43.4119 89.0448 43.4311 89.0668 43.4332C89.9076 43.492 90.5472 43.7633 90.5472 44.7082L88.741 44.7089C88.7169 44.7089 88.697 44.7301 88.697 44.7563V47.8631C88.697 47.8886 88.7169 47.9098 88.741 47.9098ZM19.1968 50.4761H15.2981C15.2372 50.4761 15.1982 50.5307 15.1982 50.5845V52.6783C15.1982 52.7442 15.2478 52.7867 15.2981 52.7867H16.6829V54.4726C16.6829 55.7263 16.3769 56.3992 15.2981 56.3992C14.3971 56.3992 13.7575 55.8531 13.7575 54.1545V49.2592C13.7575 47.6329 14.242 46.8707 15.3151 46.8707C16.2827 46.8707 16.6772 47.465 16.6772 48.575V49.2054C16.6772 49.2713 16.7275 49.3131 16.7778 49.3131H19.1748C19.2358 49.3131 19.2747 49.2592 19.2747 49.2054V48.4659C19.2967 45.8323 17.8956 44.4397 15.3597 44.4397C12.8239 44.4397 11.1721 45.9463 11.1721 49.1147V54.3528C11.1721 57.4731 13.0959 58.8295 15.2315 58.8295C17.6229 58.8295 19.291 57.8874 19.291 54.401V50.5781C19.292 50.5516 19.2829 50.5256 19.2653 50.5055C19.2478 50.4856 19.2233 50.473 19.1968 50.4705V50.4761ZM26.6598 56.055H22.9113V44.8102C22.9113 44.7436 22.8617 44.7018 22.8114 44.7018H20.4527C20.3917 44.7018 20.3535 44.7556 20.3535 44.8102V58.4732C20.3535 58.5391 20.4031 58.5809 20.4527 58.5809H26.6541C26.715 58.5809 26.754 58.5271 26.754 58.4732V56.169C26.754 56.1031 26.7044 56.0606 26.6541 56.0606H26.6598V56.055ZM61.8852 49.1501C61.8852 46.0002 63.503 44.4638 65.978 44.4638C68.4196 44.4638 70.0601 46.0058 70.0487 49.1501V54.1425C70.0487 57.3349 68.5308 58.8047 65.978 58.8047C63.4251 58.8047 61.8852 57.3647 61.8852 54.1425V49.1501ZM65.978 56.4106C67.0121 56.4106 67.4407 55.6548 67.4407 54.0468V49.2642C67.4407 47.6563 67.0235 46.8764 65.978 46.8764C64.9325 46.8764 64.5152 47.686 64.5152 49.2642V54.0468C64.5152 55.6611 64.9438 56.4106 65.978 56.4106ZM75.1381 44.4638C72.6632 44.4638 71.0447 46.0002 71.0447 49.1501V54.1425C71.0447 57.3654 72.5853 58.8047 75.1381 58.8047C77.691 58.8047 79.2089 57.3349 79.2089 54.1425V49.1501C79.2202 46.0058 77.5798 44.4638 75.1381 44.4638ZM76.6008 54.0476C76.6008 55.6555 76.1723 56.4113 75.1381 56.4113C74.104 56.4113 73.6754 55.6611 73.6754 54.0476V49.2649C73.6754 47.6867 74.0926 46.8771 75.1381 46.8771C76.1836 46.8771 76.6008 47.6563 76.6008 49.2649V54.0476ZM53.2435 44.6976H56.7803V44.7096C59.1716 44.7096 60.9736 46.0236 60.9736 49.2642V54.0228C60.9736 57.2329 59.2162 58.5773 56.7519 58.5773H53.2435C53.1932 58.5773 53.143 58.5348 53.143 58.469V44.818C53.143 44.7578 53.1819 44.6976 53.2435 44.6976ZM56.6414 56.0507C57.7089 56.0507 58.3768 55.3183 58.3768 53.6084L58.3818 53.6141V49.4441C58.3818 47.7158 57.6812 47.0195 56.6187 47.0195H55.6455V56.0507H56.6414ZM40.3469 44.4397H40.308C37.872 44.4397 36.5878 45.94 36.5878 48.1903C36.5878 50.5328 38.1008 51.6229 39.3489 52.5218L39.5904 52.6968L39.8801 52.9071L39.8808 52.9078L39.8815 52.9086C40.7627 53.5461 41.4427 54.0376 41.4427 55.1207C41.4427 56.0273 40.8867 56.3872 40.2414 56.4049C39.5295 56.4226 39.0124 55.8347 39.0124 55.0966V53.9023C39.0127 53.8845 39.0094 53.8668 39.0029 53.8502C38.9963 53.8337 38.9865 53.8186 38.974 53.8058C38.9616 53.7931 38.9468 53.7829 38.9304 53.7758C38.914 53.7688 38.8964 53.7651 38.8785 53.7649H36.5984C36.5205 53.7649 36.4653 53.8244 36.4653 53.9031V55.1143C36.4653 57.5085 37.8111 58.8352 40.1805 58.8352C42.5491 58.8352 43.9842 57.4787 43.9842 55.0966C43.9842 52.616 42.5151 51.5443 41.2352 50.6093L41.1927 50.5781C41.0528 50.4759 40.9121 50.3748 40.7705 50.275C39.8936 49.6516 39.079 49.0729 39.079 48.1719C39.079 47.278 39.6457 46.858 40.3023 46.858C41.0092 46.858 41.5093 47.4041 41.5093 48.1245V49.1799C41.5093 49.2578 41.5709 49.318 41.6432 49.318H43.9233C44.0012 49.318 44.0565 49.2585 44.0565 49.1806V48.1542C44.0621 45.8026 42.644 44.4518 40.3469 44.4397ZM48.5374 44.4397H48.5763C50.8735 44.4518 52.2859 45.8018 52.2859 48.1542V49.1806C52.2859 49.2585 52.2306 49.318 52.1527 49.318H49.8719C49.8541 49.3177 49.8366 49.314 49.8202 49.3069C49.8039 49.2999 49.7892 49.2897 49.7768 49.2769C49.7645 49.2641 49.7547 49.249 49.7482 49.2325C49.7417 49.216 49.7384 49.1984 49.7387 49.1806V48.1245C49.7387 47.4041 49.2386 46.858 48.5317 46.858C47.8758 46.858 47.3084 47.278 47.3084 48.1719C47.3084 49.0722 48.123 49.6516 48.9999 50.275C49.1402 50.3741 49.2818 50.4754 49.4221 50.5781L49.4646 50.6093C50.7452 51.5443 52.2136 52.616 52.2136 55.0966C52.2136 57.4787 50.7785 58.8352 48.4099 58.8352C46.0405 58.8352 44.6947 57.5092 44.6947 55.115V53.9023C44.6947 53.8244 44.7506 53.7649 44.8278 53.7649H47.1087C47.1809 53.7649 47.2418 53.8244 47.2418 53.9031V55.0959C47.2418 55.834 47.7589 56.4219 48.4708 56.4042C49.1154 56.3865 49.6721 56.0259 49.6721 55.12C49.6721 54.0362 48.9921 53.5453 48.1117 52.9078C48.0168 52.8391 47.919 52.769 47.8205 52.6953L47.5811 52.5225L47.579 52.5211C46.3302 51.6222 44.8165 50.5321 44.8165 48.1896C44.8165 45.9393 46.1021 44.439 48.5374 44.439V44.4397ZM87.8286 48.9716V47.8256C87.8286 46.0795 86.4828 44.7053 84.9365 44.7053H80.343C80.2877 44.7053 80.2431 44.7535 80.2431 44.813V58.4647C80.2431 58.5242 80.2877 58.5724 80.343 58.5724H82.5898C82.6507 58.5724 82.6897 58.5186 82.6897 58.4647V52.7818H83.7911C84.8147 52.7818 85.137 53.1898 85.137 54.2282V58.4527C85.137 58.5186 85.1873 58.5603 85.2368 58.5603H87.5559C87.5843 58.5596 87.6105 58.548 87.6303 58.5279C87.6501 58.5078 87.6615 58.4808 87.6615 58.4527V54.3061C87.6615 52.8894 87.3002 51.9835 86.3772 51.6116C87.3059 51.2036 87.8286 50.3876 87.8286 48.9716ZM85.3147 49.4519C85.3147 50.0214 84.8919 50.4776 84.3691 50.4776H82.662V47.0096H84.3691C84.8919 47.0096 85.3147 47.4657 85.3147 48.0296V49.4519ZM30.7022 44.7053H33.0943C33.1389 44.7053 33.1828 44.7408 33.1942 44.7953L36.2974 58.4286C36.3257 58.5065 36.269 58.5788 36.1975 58.5788H33.906C33.8671 58.5788 33.8168 58.5426 33.8062 58.4881L33.3167 56.0465H30.4579L29.9691 58.4881C29.9657 58.5125 29.9536 58.5349 29.9353 58.5514C29.9168 58.5679 29.8932 58.5773 29.8685 58.5781H27.5771C27.5105 58.5781 27.4602 58.5065 27.4772 58.4286L30.6017 44.7953C30.604 44.7704 30.6156 44.7473 30.6343 44.7306C30.653 44.7139 30.6772 44.7049 30.7022 44.7053ZM31.8653 49.0375L30.9197 53.7543H32.8322L31.8873 49.0375L31.876 49.1034L31.8653 49.0375ZM10.2583 44.7025H7.04392C7.01983 44.7025 7 44.7238 7 44.7493V47.8553C7 47.8815 7.01983 47.9028 7.04392 47.9028H8.85017C8.85017 48.8484 8.21054 49.1197 7.36975 49.1785C7.35867 49.1794 7.34836 49.1845 7.34097 49.1929C7.33358 49.2011 7.32968 49.212 7.33008 49.2231V50.4195C7.33008 50.4443 7.35063 50.4648 7.374 50.4634C8.33237 50.4152 9.04921 50.1708 9.52662 49.7657C10.0458 49.3251 10.3023 48.6947 10.303 47.9198V44.7493C10.303 44.7231 10.2831 44.7018 10.259 44.7018L10.2583 44.7025Z" fill="white"/>
</svg>
