<svg width="100" height="100" viewBox="0 0 100 100" fill="none" xmlns="http://www.w3.org/2000/svg">
<rect width="100" height="100" rx="24" fill="#4986CF"/>
<path d="M71.9065 43.934C74.7736 60.9699 31.2774 67.1907 47.6557 79.6604C52.8005 83.5776 58.0539 80.5768 57.2582 74.5005C56.5941 69.4311 75.0755 66.3613 73.6279 74.0225C71.7325 84.0693 61.6017 92 52.8185 92C34.9646 92 17.8539 71.238 21.1983 56.2728C26.139 34.1467 69.5267 29.7932 71.9065 43.934ZM23.2281 41.8259C19.4611 43.4833 10.905 32.7961 17.3077 28.3722C23.7132 23.949 26.9951 40.1677 23.2281 41.8259ZM33.8419 33.3366C29.3612 34.2523 22.5769 20.6283 30.5752 17.3278C38.572 14.028 38.3262 32.4224 33.8419 33.3366ZM76.8637 7C94.5473 7 75.7576 32.1859 65.8114 32.1859C55.8639 32.1859 59.1809 7 76.8637 7ZM47.5019 29.0651C42.2032 28.7416 38.7036 11.4354 48.6547 10.1438C58.6095 8.85223 52.7984 29.3885 47.5019 29.0651Z" fill="white"/>
</svg>
