<svg width="100" height="100" viewBox="0 0 100 100" fill="none" xmlns="http://www.w3.org/2000/svg">
<rect width="100" height="100" rx="24" fill="white"/>
<g clip-path="url(#clip0_409_297)">
<path d="M21.5374 57.0934C21.5374 57.0929 17.0389 58.0937 17.0389 58.0937L19.6917 53.9732L22.729 47.0823L13.6402 43.1202L8.05833 34.3218L7.36658 23.1876L11.5872 14.425L20.3843 9.01279L31.3323 8.43701L38.0071 11.7989L41.7894 12.0475L38.9186 14.7135L30.1804 13.8308L22.4189 15.9218L18.0564 20.9225L16.643 27.9314L19.5246 33.216L23.4743 33.6869L37.5146 19.7241L44.8878 18.7033L52.19 22.8406L55.4759 20.3191L60.3543 18.6577L66.3305 20.6834L76.3187 32.7399L79.9412 33.4129L82.944 29.3659L82.6629 21.9812L78.6255 16.2189L72.9664 14.3074L68.3882 15.102L62.6711 14.6492L61.8608 12.8457L66.5954 10.9869L70.3926 9.06442L76.2075 8.66971L84.7711 12.0037L90.7926 20.3448L91.5711 32.1812L86.3757 41.8093L79.0673 45.4794L79.258 48.2915L81.2916 48.5457L80.4496 50.4364L75.6991 50.6112L66.5477 46.5597L67.8664 52.0569H72.3627L73.6972 56.7121L69.201 61.971L71.6318 64.8626L68.5337 67.7541L68.0571 72.1551L61.7972 73.9981L63.3225 78.9233L53.615 87.6298L46.95 79.3364L42.1484 78.9241L43.5168 73.9995L38.0352 71.4814L38.1312 67.7646L34.3367 63.9941L31.3393 53.614L21.5374 57.0929V57.0934Z" fill="white"/>
<path d="M24.9521 56.3582C24.3748 56.3975 23.6231 56.6561 23.1188 57.56C22.7072 58.2981 21.7428 58.4158 21.2925 58.2671C20.5425 58.0193 19.5838 57.8474 18.6551 58.5091C17.7265 59.1707 16.7237 58.6704 16.8995 57.4643C17.0754 56.2584 17.5111 55.1843 18.6674 54.519C21.1927 53.0662 19.4376 52.0551 20.8237 50.5971C22.2124 49.1362 21.9056 48.6891 21.8596 46.7051C17.1658 46 14.5056 44.6471 11.535 40.9357C8.56445 37.2242 7.4129 34.1691 7.10499 29.5158C6.79709 24.8626 7.064 21.8469 9.07445 17.9844C11.0849 14.1219 13.2016 12.2626 16.8698 10.334C20.538 8.40566 24.1322 7.9438 27.4543 8.00004C30.7765 8.05613 32.9901 8.29953 34.8673 9.37053C36.7443 10.4415 38.4614 11.7893 39.5561 11.799C40.6509 11.8087 41.3962 11.5219 41.9283 11.1142C42.0703 14.7212 38.824 15.0345 35.9197 15.1108C33.0152 15.1869 31.2305 13.9855 28.5555 14.4324C25.8805 14.8793 21.5007 16.0967 19.3671 19.8104C17.2335 23.5242 17.1607 24.837 17.338 27.9514C17.5153 31.0659 20.1959 33.3895 21.7091 33.4147C23.2221 33.44 23.5599 33.0018 24.8843 32.138C26.2089 31.274 32.9706 22.9036 35.2778 21.0235C37.5852 19.1433 39.8621 18.5628 42.3206 18.5326C44.7791 18.5024 45.4073 18.5858 47.3901 19.3985C49.3729 20.211 50.5913 21.7074 52.1899 22.6223C53.0071 22.1413 53.5147 21.4232 54.2644 20.8752C56.9458 18.9155 58.339 18.3874 61.526 18.6975C63.3577 18.8758 65.6673 19.9221 67.0454 21.1204C69.4993 23.254 71.5266 26.2244 73.1648 28.4809C74.4404 30.2383 75.9415 32.3409 78.0844 32.9981C80.4242 33.7155 82.1849 30.685 82.4434 29.0041C82.5899 28.0516 82.781 27.2169 82.7826 26.1686C82.7842 25.1202 82.6771 23.8479 82.375 22.7552C82.0728 21.6626 81.5551 20.5754 80.9946 19.674C80.0823 18.2067 78.5897 16.6713 77.0366 15.8814C76.165 15.4381 74.1144 14.6321 72.8218 14.6038C71.2379 14.5695 70.0312 15.1016 68.5668 15.2014C66.7944 15.3223 63.6282 15.7207 62.2387 14.3514C61.3544 13.4799 61.2432 12.8986 61.0921 11.7623C61.4827 12.0842 62.0291 12.2958 62.5155 12.3369C63.6254 12.4307 64.6646 11.5244 65.5605 10.9994C66.2985 10.5667 67.3436 9.79362 68.3129 9.40294C70.8035 8.39883 73.8629 8.42774 76.492 8.69673C78.5994 8.91216 81.3316 9.84971 83.1798 10.8956C85.0368 11.9461 86.8263 13.7174 88.137 15.3873C89.786 17.4883 90.6875 19.2909 91.2847 21.9113C92.0481 25.2576 92.2597 30.2845 91.3368 33.5839C90.6095 36.184 88.1944 40.178 86.1385 42.1359C84.1109 44.0671 81.7696 44.9992 79.1071 45.509C79.2114 46.0464 79.2285 46.5475 79.3663 46.988C79.562 47.6134 79.9363 48.3105 80.7053 48.09C81.0119 48.0022 81.1761 47.9261 81.5804 48.2797C81.9844 48.6334 81.7741 49.9996 80.637 50.6127C80.0604 50.9236 79.4519 50.9911 78.5285 51.0096C77.6051 51.028 76.1639 51.032 75.1614 50.8564C74.159 50.681 73.5602 49.8855 72.45 49.7609C70.7342 49.569 69.4205 48.3294 68.0448 47.4429C67.4707 47.0729 67.277 47.0691 66.9463 46.8821C67.125 47.4292 67.3633 47.9975 67.4822 48.5236C67.6013 49.0496 67.5505 49.5369 67.6137 49.958C67.6766 50.3787 67.7934 50.7058 67.8614 51.0471C68.1363 51.2928 68.2241 51.6667 68.6858 51.7843C69.1478 51.9017 69.8712 51.7188 70.3439 51.6552C70.8165 51.5917 71.1333 51.3342 71.5042 51.4047C71.8753 51.4751 72.2269 51.7407 72.5378 51.9897C72.8488 52.2387 73.116 52.275 73.3677 52.8962C73.6193 53.5175 73.8502 54.7896 73.8847 55.6399C73.9191 56.4902 73.8238 57.2578 73.5718 57.9325C73.3198 58.6073 73.0984 58.9065 72.416 59.5747C71.7336 60.2431 70.6224 61.2239 69.5136 61.907C69.7177 62.2094 69.8083 62.4862 70.1267 62.8142C70.4451 63.1425 71.1089 63.5103 71.4042 63.8565C71.6993 64.2027 71.8489 64.451 71.8532 64.8393C71.8578 65.2274 71.8389 65.732 71.5237 66.1553C70.7387 67.2091 69.8102 67.3979 68.6812 67.8936C68.8711 69.0791 69.026 69.9261 68.7516 71.1099C68.6396 71.5923 68.3908 72.686 67.7958 72.9666C67.2006 73.2472 66.053 73.1113 65.3267 73.2267C64.6003 73.3422 64.1937 73.4518 63.6275 73.5643C63.2833 74.0617 62.7709 74.6106 62.5954 75.0565C62.4195 75.5024 62.4726 75.6623 62.6202 76.1176C62.7678 76.573 63.2703 77.236 63.4126 77.7692C63.555 78.3024 63.5826 78.8764 63.4498 79.411C63.3167 79.9456 63.089 80.3336 62.6333 80.8083C62.1778 81.2832 61.2816 81.6561 60.8352 82.0409C60.3884 82.4259 59.9437 82.4721 60.0656 83.1091C60.2332 83.9838 61.5113 85.4026 62.436 85.7404C62.9902 85.943 63.7341 85.8791 64.4071 85.595C64.3615 86.3422 63.7148 86.8459 63.2924 87.3421C64.4365 87.0149 65.5459 86.3886 66.3133 85.5585C66.0753 86.2795 65.2564 87.4369 64.0316 88.4533C62.8068 89.4696 62.8143 89.2616 62.2055 89.666C63.3164 89.8892 64.3494 89.8288 65.2099 89.6742C64.7382 89.9343 63.9649 90.3001 62.9406 90.4076C61.9163 90.515 61.2848 90.4391 60.3617 90.2149C59.4385 89.9906 58.5958 89.1514 57.4771 88.5729C57.5861 88.9879 57.6636 89.4869 58.1341 89.9137C58.6045 90.3404 59.3163 90.5574 60.0729 90.9265C59.1097 90.8172 58.0977 90.7842 57.1512 90.5756C56.4506 90.421 55.9798 90.257 55.4671 90.0031C54.9548 89.7492 54.5591 89.3789 54.1052 89.0668C54.3227 89.4823 54.3872 89.971 54.7574 90.3136C55.1276 90.6561 55.7293 90.7837 56.2159 91.019C55.7083 91.0079 55.2201 91.118 54.6939 90.9856C54.1674 90.8533 53.6736 90.6453 53.1262 90.2421C52.5789 89.8388 52.0144 89.3423 51.5473 88.8347C51.0805 88.3271 50.5041 87.669 50.3296 87.201C50.1549 86.7328 50.4345 86.4053 50.4869 86.008C50.1646 86.2197 49.768 86.3364 49.5203 86.6438C49.2726 86.9512 49.0531 87.232 49.1627 87.7679C49.2725 88.3037 49.767 88.9588 50.1167 89.5549C49.0732 88.7016 48.4905 88.373 48.2421 87.3437C48.0097 86.3799 48.611 85.5051 49.0681 84.7763C49.2952 84.4144 49.6349 84.0776 49.8471 83.7282C49.3757 83.267 48.837 82.8706 48.4329 82.3445C48.0291 81.8186 47.8594 81.1069 47.4471 80.6037C47.0347 80.1004 46.4799 79.7818 45.9967 79.3714C46.4214 80.2837 47.1193 81.4027 47.2709 82.1088C47.4223 82.8148 47.1011 83.247 46.8505 83.6281C46.5998 84.0093 46.1953 84.0943 45.8116 84.3285C45.4279 84.5628 44.8312 84.378 44.6025 84.7258C44.3741 85.0734 44.3127 85.5965 44.5312 85.9409L45.4273 87.3552C45.0971 87.1886 44.5283 86.7038 44.2719 86.36C44.0155 86.0162 43.6221 85.6986 43.5682 85.2337C43.5144 84.769 43.4882 84.3656 43.7892 83.9516C44.0905 83.5377 44.9151 83.3992 45.2841 83.0809C45.6532 82.7627 45.8602 82.5555 45.8391 82.1442C45.8181 81.7329 45.4163 81.4386 45.0709 81.1793C44.0164 80.3884 42.6637 79.6597 41.7683 78.7064C41.2624 78.1678 41.0197 77.7329 40.918 77.3613C40.8165 76.9899 40.9239 76.7001 41.1752 76.2431C41.4266 75.786 42.2885 75.1758 42.3933 74.6793C42.498 74.183 42.0627 74.0763 41.6698 73.9013C41.2769 73.7262 40.5306 73.991 40.1662 73.6865C39.8019 73.3819 40.2733 72.7419 39.8626 72.391C39.452 72.04 38.5123 72.2359 38.0272 71.8584C37.5421 71.4807 37.3416 71.0121 37.1745 70.4642C37.0074 69.9164 36.9885 69.3163 37.1017 68.9196C37.215 68.5229 37.5553 68.4535 37.7606 68.2479C37.9659 68.0423 38.144 67.8718 37.8704 67.5652C37.5968 67.2587 36.7002 67.5823 36.1848 67.1888C35.6694 66.7953 35.985 65.8526 35.6205 65.4553C35.2562 65.0579 34.6023 65.2135 34.2572 65.0865C33.9122 64.9596 33.7769 65.4075 33.5653 64.6992C33.3536 63.9907 33.3479 61.8791 33.0632 61.091C32.7785 60.303 32.2194 61.0378 31.9598 60.2545C31.7002 59.4714 31.9463 58.219 31.8293 57.0361L31.2995 53.8177C29.4511 55.0594 28.2309 55.4493 26.2451 55.8001C26.0794 60.6589 25.6229 63.5201 27.2721 68.9107C28.9212 74.3012 32.2588 77.4781 36.7613 82.0419C30.82 77.5907 27.9835 73.9721 26.2082 69.3364C24.4326 64.7 24.7736 60.8227 24.9521 56.3582ZM56.5226 54.4053C56.9797 54.4258 57.5351 54.5418 57.856 54.7502C58.1771 54.9587 58.5179 55.129 58.8093 55.4256C59.5363 56.166 60.0816 57.0589 60.3226 58.0849C60.4763 58.739 60.4991 59.5779 60.5551 60.3459C60.335 59.636 60.1871 58.8958 59.8736 58.2598C59.3794 57.257 58.5397 56.2781 57.497 55.8274C57.1528 55.6784 56.9233 55.706 56.7339 55.7324C56.8186 55.8746 56.9604 55.9937 56.9666 56.202C56.9728 56.4103 56.9263 56.8178 56.5731 56.9891C56.0037 57.2654 55.3707 57.0711 54.9309 56.6823C54.4875 56.2905 54.3364 55.6277 54.5685 55.0581C54.8451 54.3794 55.8991 54.3776 56.5226 54.4053ZM50.7915 53.4393C50.8489 52.2723 51.27 51.2882 52.3158 50.716C52.8566 50.4201 53.6898 50.0375 54.4554 49.9476C55.1908 49.8614 56.9798 49.9244 58.0559 50.4155C58.8822 50.7927 59.4451 51.3799 60.1707 51.809C60.8962 52.2383 61.4122 52.5261 62.103 53.0075C63.1634 53.7464 63.7849 54.56 64.52 55.0478C64.8735 55.2821 65.3708 55.2473 65.8401 55.3906C65.4752 55.499 64.9983 55.6185 64.6046 55.4926C64.1136 55.3357 63.4273 54.8868 63.0464 54.5651C62.3734 53.9966 62.0245 53.7192 61.29 53.2904C60.8515 53.0349 60.1294 52.7339 59.6475 52.4196C59.1653 52.1054 58.3284 51.4158 57.8651 51.1824C57.2761 50.886 56.2158 50.721 55.5601 50.7403C54.6567 50.7666 53.3491 50.9157 52.6501 51.5499C51.9556 52.1803 51.6919 52.735 51.8485 53.5537C52.11 53.2525 52.2842 52.874 52.5462 52.65C53.0889 52.1864 53.7117 52.164 54.3872 52.2518C55.1462 52.3507 55.5283 52.789 55.779 53.5095C55.6103 53.3856 55.3002 53.1134 55.0553 53.0291C54.4807 52.8308 54.0461 52.8918 53.5078 53.1805C52.8723 53.5214 53.0452 54.026 52.9537 54.5872C52.9117 54.846 52.814 55.0545 52.7443 55.2882C52.5053 55.2249 52.2843 55.1255 52.1035 54.9463C52.111 55.2084 52.0729 55.4377 52.1266 55.7325C52.1799 56.0273 52.3236 56.3774 52.4219 56.6998C51.9794 56.2572 51.5266 55.845 51.2408 55.2735C50.9547 54.7017 50.7608 54.0672 50.7915 53.4393ZM51.5573 44.9457C51.8835 44.4615 51.979 43.719 52.1801 43.1152C52.0997 43.8799 52.2543 44.7208 51.8809 45.2747C51.5076 45.8285 50.8519 45.7315 50.3087 45.8926C50.7313 45.5704 51.231 45.4298 51.5573 44.9457ZM43.7483 56.2845C44.1671 55.9454 45.2973 56.2165 46.1427 56.277C45.5352 56.4326 44.9276 56.5883 44.3201 56.7438C44.2635 56.9505 44.2891 57.1874 44.1504 57.3636C44.0115 57.54 43.7478 57.6053 43.5466 57.7258C43.5665 57.1828 43.3295 56.6234 43.7483 56.2845ZM49.7048 32.7355C50.2094 33.0072 50.8498 33.3664 51.2955 33.3776C51.7411 33.3887 51.8577 33.0862 52.1199 32.9116C52.5323 34.2565 53.0058 35.7342 53.708 36.9545C54.0023 37.4658 54.1899 37.2281 54.4136 37.7419C54.637 38.2556 54.7363 39.3009 54.9482 39.9572C55.1605 40.6135 55.4373 41.0965 55.6818 41.6661C55.0609 40.7864 54.2587 39.6647 53.9127 38.9326C53.5669 38.2006 53.7883 38.1369 53.5083 37.4398C53.2284 36.7426 52.6625 35.6559 52.2395 34.7639C51.9367 34.8041 51.5617 34.8593 51.3315 34.7882C51.1013 34.7172 51.1472 34.4724 50.9393 34.3141C50.731 34.1559 50.381 34.2172 50.0893 33.9646C49.7976 33.7121 49.7311 33.194 49.7048 32.7355ZM46.9878 39.3717C47.4627 39.3301 48.0524 39.4574 48.4971 39.4321C48.9418 39.4068 49.2593 39.2915 49.6404 39.2211C49.5697 38.5513 49.6368 37.3206 49.0184 36.8734C48.619 36.5845 46.9786 36.802 46.5404 36.8965C45.5544 37.1091 44.4062 37.6976 43.4526 38.0656C44.3665 37.4272 45.1559 36.8355 46.252 36.506C46.9109 36.3079 48.4485 36.0504 49.1285 36.234C49.439 36.3178 49.5017 36.4463 49.69 36.7094C50.3373 37.6131 50.3354 38.3941 50.5033 39.4469C50.6684 39.7041 50.8442 39.8757 50.978 40.141C51.1115 40.4063 51.1871 40.8239 51.2244 41.1651C51.0551 40.9195 51.1587 40.6114 50.6895 40.4286C50.22 40.2457 49.5012 40.4165 48.8688 40.4826C49.3298 40.8153 49.5589 41.1357 49.5766 41.8391C49.5972 42.665 48.898 43.2593 48.1679 43.3159C47.1544 43.3945 46.6319 43.1719 46.222 42.3057C46.0425 41.9263 46.1726 41.4699 46.1576 41.1C44.9398 41.1847 44.9597 41.145 44.0697 41.8871C44.5535 42.5958 44.8582 43.0034 45.6577 43.4274C46.106 43.6654 46.6136 43.8967 47.1692 43.9913C47.725 44.0858 48.6365 44.1772 49.2202 44.0876C49.8041 43.9979 50.1349 43.8313 50.5676 43.4311C51.0006 43.0307 51.0403 42.4575 51.2093 42.0043C51.1709 42.4405 51.1209 42.9959 50.959 43.3122C50.4664 44.2739 49.6147 44.5589 48.5977 44.5621C47.6216 44.5653 46.4141 44.3402 45.5059 43.9636C44.7799 43.6627 43.5762 42.8105 43.2905 42.0701C43.0953 41.5642 43.2499 40.9435 43.2294 40.3801C44.2347 39.7116 44.4835 39.876 45.6731 39.6803C46.1707 39.5983 46.5129 39.4135 46.9878 39.3717ZM41.1314 34.8435C41.1596 34.443 41.204 34.4516 41.2404 34.2555C40.3244 34.0105 39.9571 34.6047 39.4201 35.7083C39.2191 36.1212 39.418 36.367 39.2024 36.6388C38.9871 36.9107 38.6402 36.8726 38.2905 37.1336C37.9408 37.3945 37.5943 37.8941 37.2673 38.1644C36.5963 38.719 35.6895 39.0576 34.9113 39.4308C35.4427 39.0387 36.474 38.444 36.8076 37.8743C36.9846 37.5723 36.9584 37.0027 37.2339 36.7312C37.5093 36.4595 37.6057 36.2715 37.9613 36.2022C38.3168 36.133 38.1738 35.7208 38.2886 35.3932C38.4033 35.0656 38.6317 34.833 38.8748 34.5057C39.1179 34.1785 39.4245 33.687 39.9045 33.5086C40.3845 33.33 41.133 33.5231 41.4963 33.4203C41.8595 33.3175 41.6509 33.0534 41.9148 32.8949C42.179 32.7363 42.6927 32.8062 43.0455 32.6367C43.671 32.3359 43.9702 31.8339 44.3464 31.2964C44.4011 32.4534 44.3877 33.2864 43.972 34.3748C43.5037 35.5999 43.0292 36.3216 41.7003 37.075C41.2424 37.3344 40.7868 37.4245 40.4072 37.5607C40.6285 37.2588 40.9453 37.1277 41.0713 36.6551C41.197 36.1821 41.1031 35.2442 41.1314 34.8435ZM62.586 40.4848C61.9541 40.526 61.8043 40.4429 61.2988 40.7994C61.5728 41.2258 61.8467 41.6523 62.1205 42.0787C62.0963 41.2369 62.1783 41.0682 62.586 40.4848ZM60.9305 39.8731C61.8056 39.5004 62.568 39.1989 63.52 39.1393C63.9017 39.1153 64.4941 39.1744 64.8796 39.1919C65.2078 38.7086 65.6261 38.3274 65.7795 37.7758C65.881 37.4099 65.8309 35.7116 65.6512 35.2707C65.1277 33.9876 64.6189 33.9335 63.8983 33.1985C63.3755 32.6655 63.3547 31.8537 63.1983 30.9442C63.141 30.61 62.977 30.1873 62.9001 29.8425C61.9583 29.6838 60.9454 29.6315 59.8619 29.6857C60.3873 29.1817 60.8952 28.7213 61.046 27.9647C61.1964 27.2081 61.074 26.2779 60.6439 25.5995C60.2138 24.9211 59.5268 24.3301 58.8962 23.7773C58.2653 23.2246 57.3611 22.7683 56.7634 22.3161C57.5408 22.0378 58.3346 21.6288 59.0961 21.4812C61.0798 21.0964 62.7891 21.6849 64.7024 22.8417C65.8149 23.5145 66.735 24.1537 67.8979 25.3712C69.0606 26.5885 70.5028 28.8215 71.6284 30.1458C72.7541 31.4701 73.6629 32.5174 74.6449 33.3072C75.6271 34.0971 76.516 34.3221 77.4513 34.8294L78.9092 36.3775L80.089 34.9176L81.9874 35.1322L82.3797 33.0013L84.1221 32.5239L83.8379 29.6514L85.0907 28.7623L84.1492 26.9751L85.1058 25.0221L83.8586 22.7897L84.3395 20.6403L82.8956 19.4097L82.7072 17.1255L80.6929 16.3572L79.8848 14.37L77.6202 14.3445L76.5093 12.8694L74.9847 12.9761L73.2852 12.791L72.3241 12.0815L70.9293 13.0074L69.2416 12.1274L65.8865 13.4011L68.0737 11.499L70.3396 11.1371L72.0755 10.6946L74.4199 11.4645L76.4834 10.9418L78.4731 12.118L80.5785 12.0016L81.6128 13.8574L83.7092 14.0994L84.8435 16.1627L86.162 16.8826L86.512 19.5259L87.6863 20.6396L87.1699 22.9524L88.5533 24.7039L87.2562 26.5806L88.6432 27.7536L86.8701 29.325L88.6659 31.1952L86.4972 31.8946L87.9098 33.9004L86.1383 34.2061L87.3 36.4117L85.3036 36.3851L86.3093 38.0371L84.1194 37.7736L84.6433 40.1502L82.9884 38.6944L82.4215 41.5749L81.2795 39.5066L80.661 42.0863L79.2512 40.1841L79.2897 42.8891L77.7316 40.4569C78.0601 41.8369 77.9944 43.348 78.9008 44.649C81.7091 44.269 83.5446 43.5613 85.6962 41.491C87.6558 39.6054 89.9979 35.674 90.6322 33.1804C91.3559 30.3349 91.3781 25.1014 90.6654 22.2044C89.9793 19.4151 89.0877 18.0828 87.4947 15.8067C85.972 14.1895 84.4744 12.4811 82.5418 11.3278C79.7048 9.6349 76.0672 9.17845 72.834 9.22245C71.0437 9.24692 69.8445 9.59073 68.7742 9.97999C66.9024 10.6606 65.4055 12.1453 63.5026 12.879C62.882 13.1182 62.3845 13.1256 61.8958 12.8646C62.3744 13.822 62.895 14.2514 64.0885 14.5999C64.9519 14.8518 67.0119 14.6925 68.43 14.5616C69.9524 14.421 70.7465 13.9683 72.8184 13.9968C74.8419 14.0246 76.4453 14.7932 77.322 15.2945C79.1308 16.3288 80.4279 17.4762 81.555 19.2938C82.174 20.2918 82.6076 21.418 82.9129 22.5671C83.2183 23.7163 83.3521 25.0034 83.3716 26.1284C83.3911 27.2534 83.3052 28.2577 83.03 29.2701C82.3864 31.6402 80.9665 34.052 78.0498 33.6794C76.265 33.4513 73.5742 30.1012 72.673 28.8721C70.8547 26.3915 68.9837 23.6466 66.6989 21.5808C65.3058 20.3217 63.3985 19.4552 61.5255 19.2838C58.0116 18.9622 56.9695 19.6296 54.3245 21.8098C54.8626 21.9814 55.3879 22.076 55.9393 22.3245C57.1632 22.876 58.2825 23.5887 59.2588 24.5029C60.2818 25.4611 60.7408 26.0675 60.7772 27.4396C60.8013 28.3508 60.0517 29.0813 59.3646 29.7384C58.9442 30.1409 58.3878 30.5093 58.0473 30.8217C57.5961 31.2362 57.0373 31.6896 57.6042 32.3499C57.8174 32.5981 58.1876 32.7853 58.4998 33.0171C58.9953 33.3849 58.7685 34.7518 58.1156 35.1144C57.2803 35.5779 56.282 35.5261 55.5931 34.9056C56.4627 34.7755 57.0149 34.6602 56.9924 33.9489C56.9793 33.5366 56.4552 33.194 55.9408 32.9595C54.7001 32.3939 53.763 32.4773 52.5282 31.5889C51.281 30.6911 51.2535 30.1995 50.9164 28.7899C50.315 28.8528 49.7613 28.8667 48.9572 29.133C48.1532 29.3991 47.2646 30.0327 46.5345 30.1895C44.696 30.5851 44.3296 30.4678 43.3234 30.2074C41.5519 29.7489 39.2453 30.5339 36.954 31.2668C36.573 31.3887 35.032 31.271 33.9947 31.635C32.3926 32.1971 30.1446 33.5584 28.8462 34.6518C26.879 36.3087 24.2937 41.2675 22.833 46.9591C22.6795 48.6893 23.1716 49.855 22.0817 50.7001C20.9918 51.5451 21.022 53.7102 20.6524 54.3174C20.2829 54.9245 19.855 54.6561 19.0595 55.5088C18.264 56.3615 17.859 56.219 17.879 57.8313C18.5646 57.3806 19.5641 56.8566 20.4417 56.825C21.219 56.7969 21.2272 57.8202 23.2221 55.8481C24.289 54.7929 26.3387 54.7607 27.7608 54.2953C29.1831 53.83 31.7459 52.871 34.3128 50.0013C36.8796 47.1317 38.1079 44.1106 38.6057 39.743C38.685 40.5174 38.8225 41.3907 38.491 43.5269C38.1594 45.663 37.4447 48.0622 38.9503 50.936L39.8883 52.7264C39.3298 51.9643 38.239 50.721 37.9106 49.8351L37.153 47.7915C35.4583 50.4524 35.0687 50.9284 32.7145 52.8348C32.6207 54.0175 32.5977 55.251 32.9842 56.3827C33.3708 57.5142 32.7547 58.8186 33.0487 59.5639C33.3428 60.3092 34.023 59.885 34.2451 60.6395C34.4672 61.394 34.1291 62.8857 34.4736 63.6212C34.818 64.3566 35.6631 63.9103 36.0727 64.1479C36.4823 64.3855 36.6162 64.7112 36.8353 65.0238C37.0542 65.3361 36.7497 66.0746 37.1952 66.3143C37.6405 66.5542 38.3353 66.351 38.7987 66.5812C39.2622 66.8115 39.3325 67.3648 39.2215 67.8607C39.1103 68.3566 38.615 68.5841 38.3975 69.0882C38.1802 69.5925 38.2045 69.9434 38.4657 70.4064C38.7269 70.8695 39.3052 71.1245 39.8816 71.3582C40.458 71.592 41.268 71.4607 41.8628 71.7839C42.4577 72.107 42.9923 72.751 43.3064 73.219C43.6205 73.6869 43.7077 74.0171 43.6917 74.5091C43.6755 75.001 43.4759 75.5677 43.2133 76.0429C42.9507 76.5181 42.3713 77.0965 43.2759 78.004C44.1806 78.9113 44.1472 78.5202 44.6655 79.1088C44.6091 78.0906 44.1883 77.2611 44.4959 76.4945C44.8037 75.7279 45.7276 75.5946 46.2145 75.2498C46.7015 74.9049 46.9819 74.4311 47.3658 74.0219C47.3602 74.5485 47.4166 75.1148 47.3567 75.5113C47.2347 76.3176 46.9967 77.0334 48.1983 77.1627C48.7396 77.2209 49.2536 76.8699 49.8231 76.6592C49.5248 77.1935 49.0059 77.6231 48.9278 78.2626C48.8498 78.9018 48.9436 79.604 49.3862 80.2384C49.829 80.8725 50.5935 81.3434 51.1537 81.7162C51.7138 82.0891 52.0139 82.1189 52.4443 82.3205C52.4654 82.9491 52.3417 83.6143 52.4133 84.2063C52.485 84.7983 52.6715 85.3222 53.0137 85.8116C53.3563 86.3011 53.9055 86.5818 54.4228 86.9438C54.1392 86.2833 53.5639 85.6567 53.5717 84.9624C53.5795 84.2682 53.7876 83.7762 54.4648 83.1602C55.1419 82.5441 56.7272 82.0098 57.4747 81.4108C58.2222 80.8117 58.4634 80.4447 58.7318 79.863C59.0001 79.2814 58.9254 78.3443 58.975 77.8214C59.2211 78.5539 59.2562 78.7815 59.3361 79.5478C59.4165 80.3142 58.8895 81.3892 58.6665 81.9566C59.5911 81.5099 60.178 80.7961 60.4743 80.0985C60.6726 80.216 60.5727 80.5384 60.6456 81.1596C60.9751 80.8317 61.3498 80.5794 61.6815 80.2699C62.0136 79.9607 62.3772 79.6887 62.542 79.257C62.7064 78.8254 62.6391 78.3664 62.5166 77.8648C62.3941 77.3632 61.8336 76.7816 61.5317 76.233C61.2301 75.6845 61.5851 75.1461 61.5646 74.4851C60.9607 74.3814 60.4478 74.0738 59.7537 74.1737C59.0592 74.2735 58.2639 75.0528 57.5542 75.0619C56.8445 75.0709 56.446 74.406 55.8642 74.2233C55.2824 74.0406 54.6937 74.0606 54.1087 73.9793C54.8497 73.2694 57.7257 72.9313 59.693 72.6105C61.424 72.3282 63.1418 72.165 64.8956 72.1404C65.6789 72.1293 66.6855 72.3879 67.2294 72.2316C67.7737 72.0756 67.6576 71.7049 67.819 71.3009C68.2705 70.1716 68.0479 69.1659 67.8023 68.0286C66.2278 67.844 64.5872 67.6181 63.0008 67.74C61.4499 67.8591 59.6132 68.5965 58.0135 68.6464C56.6227 68.6896 54.5631 68.3799 53.3688 67.6519C51.9094 66.7624 50.7802 64.8519 50.3794 64.2384C49.7265 63.2392 48.9031 61.279 48.402 60.3828C47.9012 59.4865 47.7908 59.2358 47.374 58.8617C46.9573 58.4877 46.3864 58.4587 45.8928 58.2571C46.4619 58.3153 47.0833 58.1351 47.6003 58.4316C48.377 58.8772 49.2464 60.7243 49.7297 61.5281C50.2418 59.8116 50.1223 59.1367 51.604 58.1688C50.4099 59.5072 50.3802 60.521 50.0891 62.0967C51.0821 63.7265 52.4626 66.3226 54.269 67.0429C54.9215 67.3033 56.0421 67.4667 56.7475 67.5539C58.9429 67.8257 61.0605 67.13 63.2166 66.5976C64.7927 66.2084 66.3919 66.3652 68.3088 66.4778C68.9596 66.5159 70.494 66.1245 70.8118 65.4662C70.9834 65.1111 70.9707 64.6844 70.7242 64.3059C70.4775 63.9275 69.8204 63.7445 69.4681 63.4038C69.1159 63.0632 68.9133 62.6589 68.6359 62.2863C67.1719 62.5672 65.9676 62.6751 64.8808 62.7046C65.6603 62.3835 66.4081 62.2003 67.2194 61.883C68.0306 61.5658 68.9518 61.045 69.6065 60.6128C70.2613 60.1805 70.6793 59.9298 71.153 59.4268C71.6265 58.9235 72.2339 58.405 72.583 57.7899C72.9323 57.1747 72.9864 56.4866 73.0059 55.7252C73.0254 54.9641 72.9925 53.8959 72.6989 53.2826C72.4056 52.6695 71.84 52.4835 71.3857 52.3384C70.9311 52.1934 70.6199 52.5602 70.1472 52.6098C69.6742 52.6594 69.2324 52.9574 68.5486 52.6358C67.8647 52.3143 67.0541 51.6597 66.3627 50.6882C65.6716 49.7165 65.1773 48.1283 64.4727 46.9065C63.2581 44.8004 61.7444 42.833 60.2969 40.8815C60.1777 40.4003 59.9987 39.7352 59.9391 39.0824C59.8352 37.9448 59.8156 36.7631 60.1687 35.6541C60.4392 34.8046 60.8328 33.9072 61.7223 33.5588C62.0782 33.4193 62.5285 33.364 62.8466 33.4819C63.165 33.5997 63.4772 33.9589 63.3521 34.3739C63.2147 34.8302 62.8985 34.8426 62.6837 35.0729C62.3191 35.4638 62.1732 35.7506 62.0355 36.2378C62.4295 36.2315 62.9621 36.2015 63.2857 36.2866C63.708 36.3978 64.1012 36.6778 64.3156 37.2761C63.8116 36.8292 63.5612 36.6241 62.9322 36.6082C62.644 36.601 62.2938 36.7041 61.975 36.7521C61.8558 37.1398 61.7857 37.6152 61.6175 37.9151C61.4492 38.2151 61.1216 38.1431 60.9986 38.4936C60.8757 38.8434 60.8685 39.4132 60.9305 39.8731ZM65.3338 39.3477C65.5268 39.4238 65.6004 39.4405 65.8449 39.6266C66.0894 39.8126 66.4267 39.9983 66.6204 40.4429C66.8144 40.8876 66.8053 41.5752 66.764 41.8553C66.594 41.8054 66.3622 41.8391 66.1859 41.6883C66.01 41.5375 65.905 41.1961 65.6794 41.05C65.4534 40.9039 65.2652 40.9359 65.0156 40.9043C65.1438 41.269 65.2061 41.634 65.1465 41.9648C65.0172 42.6869 64.5926 43.0526 63.9053 43.139C63.6052 43.1767 63.1286 43.0779 62.8674 43.0304C62.9884 43.3008 63.1936 43.5377 63.3148 43.8081C63.896 43.724 64.3267 43.736 64.6392 43.5898C64.9517 43.4436 65.2868 43.1162 65.6878 42.9775C66.089 42.8388 66.4468 42.841 66.8856 42.7725C66.5399 43.0704 66.313 43.3685 65.9677 43.6664C66.221 44.4024 66.4742 45.1384 66.7273 45.8743C67.2642 46.2102 67.7678 46.3872 68.4443 46.8018C69.1212 47.2167 69.9325 47.9586 70.8138 48.3633C71.6951 48.768 72.2199 48.9882 73.1408 49.1618C74.0615 49.3355 74.7941 50.0812 75.7002 50.2025C76.6062 50.3237 78.2986 50.3482 78.9969 50.28C79.7897 50.2026 80.8197 49.7935 80.9122 48.9243C80.2474 49.0882 79.2322 48.9411 78.7195 47.6903C78.492 47.1348 78.6035 46.1134 78.2552 45.4566C77.9071 44.7996 77.4218 44.5888 76.8419 43.7795C76.2619 42.9702 75.3133 41.6936 74.7807 40.6092C74.2485 39.525 74.1231 38.2969 73.6729 37.3254C73.2226 36.354 72.5434 35.5693 72.017 34.8205C70.8677 33.184 69.9408 32.0657 68.0473 31.2402C67.1366 30.8431 66.0998 30.7373 65.126 30.4858C64.7297 30.6633 64.1864 30.8593 64.0899 31.3228C63.9935 31.7862 64.1788 32.4707 64.5151 32.8186C65.078 33.4003 65.9121 34.0289 66.2401 34.9535C66.4507 35.5467 66.5119 37.5356 66.3293 38.0753C66.14 38.6356 65.6997 38.9745 65.3338 39.3477ZM65.5172 44.0551C65.3413 44.2069 65.2072 44.3627 64.9242 44.4887C64.6416 44.6147 64.2555 44.6473 63.8804 44.741C64.4064 45.5599 64.959 46.3873 65.463 47.2483C65.9673 48.1091 66.4042 49.0517 66.8854 49.9532C66.8627 49.4365 66.8932 48.8857 66.8181 48.4028C66.7429 47.9202 66.5241 47.4977 66.3073 46.7731C66.0907 46.0484 65.8241 45.0626 65.5172 44.0551ZM51.3635 26.0504C51.2893 26.8559 51.4256 28.1152 51.5924 28.9038C51.7923 29.8479 51.9847 30.3374 52.7508 30.9062C54.1537 31.9476 55.0493 31.7721 56.1285 32.376C56.642 32.6634 57.2928 33.1451 57.4827 33.6543C57.6725 34.1635 57.3573 34.7164 56.9679 34.9338C57.649 35.0351 58.4127 34.2673 58.094 33.4789C57.9371 33.0909 57.1899 32.9181 56.9608 32.5266C56.7321 32.1353 56.7326 31.7324 56.8403 31.3348C57.0349 30.6183 58.4526 29.9672 58.9536 29.4008C59.7244 28.5292 60.0204 27.8001 59.5838 26.6776C58.9707 25.1008 56.602 23.8355 55.1843 23.2166C54.5352 22.9334 54.1712 22.9132 53.6648 22.7614C54.7015 23.369 55.7944 23.8529 56.3189 25.211C56.7568 26.3453 56.3775 26.7727 56.3921 27.7602C56.399 28.2181 57.0019 28.4471 57.2696 28.7364C57.5027 28.9879 57.4838 29.1746 57.2976 29.5217C57.2771 29.2086 57.1433 28.9749 56.9029 28.8047C56.506 28.5233 56.0785 28.5839 55.867 28.007C55.5461 27.13 56.1826 26.2994 55.467 25.3146C54.9317 24.5779 54.2198 23.7533 53.2594 23.7317C52.8048 23.7214 52.4631 23.79 51.9775 23.9337L51.3303 23.1547L51.3153 23.1445C49.9987 21.9429 49.0979 20.9526 47.2509 20.1268C45.4039 19.3011 44.4937 19.176 42.376 19.2231C40.2583 19.2699 38.1567 19.4471 35.7039 21.5622C33.2513 23.6774 26.93 31.7768 25.397 32.8019C23.8641 33.827 23.5246 34.1743 21.6092 34.1748C19.6937 34.1753 16.7043 31.4659 16.5872 28.0799C16.4699 24.6937 16.4229 23.4902 18.7767 19.411C21.1306 15.3317 25.3949 14.0791 28.5588 13.6561C31.7229 13.2332 33.6242 14.3476 35.9646 14.3528C38.3049 14.3582 40.6179 13.9542 41.2999 12.0929C40.9661 12.2917 40.5189 12.5157 39.2612 12.4498C38.0035 12.3838 36.2597 10.9277 34.298 9.95202C32.3363 8.97651 30.1533 8.86228 27.3534 8.80937C24.5535 8.75646 21.0598 8.97047 17.5984 10.839C14.1371 12.7076 11.7744 14.6903 9.76684 18.3473C7.75925 22.0045 7.45929 24.9905 7.78293 29.4186C8.10656 33.8467 9.47228 37.14 12.1019 40.3809C14.7315 43.6219 17.3595 45.2076 22.0982 45.7972L23.0958 41.3969L21.3149 43.9527L21.3589 41.1102L19.7481 43.109L19.0415 40.3982L17.7365 42.5715L17.0883 39.5449L15.1972 41.0744L15.7958 38.577L13.2935 38.8539L14.443 37.118L12.1613 37.1458L13.4889 34.8283L11.4645 34.5069L13.0787 32.399L10.6002 31.6642L12.6522 29.6992L10.6261 28.048L12.2109 26.8154L10.7289 24.8434L12.3097 23.0031L11.7196 20.5729L13.062 19.4028L13.4616 16.6254L14.968 15.8688L16.2642 13.7008L18.6599 13.4464L19.842 11.4963L22.2482 11.6188L24.522 10.3829L26.8803 10.9321L29.559 10.1231L31.5429 10.588L34.132 10.9685L36.6316 12.9672L32.7974 11.6288L30.8686 12.5537L29.2743 11.5805L28.1766 12.3261L26.2343 12.5206L24.4925 12.4081L23.2227 13.9581L20.6345 13.9848L19.7112 16.073L17.4097 16.8804L17.1944 19.2806L15.544 20.5735L16.0939 22.8321L14.6686 25.178L15.762 27.2299L14.6859 29.1078L16.1175 30.0421L15.7928 33.0604L17.7839 33.5622L18.2324 35.8012L20.402 35.5758L21.7499 37.1099L23.4159 35.4832C26.4531 33.9687 27.7038 33.1216 30.0707 30.5616C32.7651 27.6473 34.3094 24.9529 37.8985 22.9575C40.4727 21.5263 42.5722 21.0112 45.4638 21.5109C48.1787 21.9799 49.0878 23.6084 51.0873 25.324C51.2993 24.9403 51.3423 24.8386 51.6915 24.5561C51.5819 25.0544 51.4078 25.5712 51.3635 26.0504Z" fill="black"/>
</g>
<defs>
<clipPath id="clip0_409_297">
<rect width="85" height="83.0935" fill="white" transform="translate(7 8)"/>
</clipPath>
</defs>
</svg>
