<svg width="100" height="100" viewBox="0 0 100 100" fill="none" xmlns="http://www.w3.org/2000/svg">
<rect width="100" height="100" rx="24" fill="white"/>
<path d="M42.7888 15.7672C43.0801 15.4759 43.0801 14.9829 42.7888 14.6916L35.3157 7.21848C35.0244 6.92717 34.5314 6.92717 34.2401 7.21848L10.2185 31.2289C9.92717 31.5202 9.92717 32.0132 10.2185 32.3045L34.2401 56.3261C34.5314 56.6174 35.0244 56.6174 35.3157 56.3261L42.7888 48.853C43.0801 48.5617 43.0801 48.0687 42.7888 47.7774L27.3272 32.3157C27.0359 32.0244 27.0359 31.5314 27.3272 31.2401L42.7888 15.7672Z" fill="#F93535"/>
<path d="M66.5416 7.21848C66.2503 6.92717 65.7573 6.92717 65.466 7.21848L41.478 31.1953C41.1867 31.4866 41.1867 31.9796 41.478 32.2709L48.9511 39.7552C49.2425 40.0465 49.7354 40.0465 50.0267 39.7552L65.466 24.316C65.7573 24.0247 66.2503 24.0247 66.5416 24.316L73.4545 31.2289C73.7458 31.5202 73.7458 32.0132 73.4545 32.3045L57.9929 47.7662C57.7016 48.0575 57.7016 48.5505 57.9929 48.8418L65.466 56.3149C65.7573 56.6062 66.2503 56.6062 66.5416 56.3149L90.552 32.3045C90.8433 32.0132 90.8433 31.5202 90.552 31.2289L66.5416 7.21848Z" fill="#F93535"/>
<path d="M24.4477 77.8605V82.9471H30.2066V85.3112C29.0526 86.2972 27.5737 86.7902 25.8258 86.7902C23.9659 86.7902 22.431 86.1851 21.1425 84.9527C19.8876 83.6978 19.2826 82.1741 19.2826 80.303C19.2826 78.4207 19.8988 76.8969 21.1761 75.6533C22.4646 74.3984 23.9883 73.7822 25.837 73.7822C27.6969 73.7822 29.1983 74.2976 30.4195 75.3508C31.5175 74.1743 33.1533 72.7514 34.0608 71.6982C31.7864 69.6142 29.019 68.5723 25.837 68.5723C22.4086 68.5723 19.5739 69.6703 17.1874 71.9223C14.7898 74.1855 13.6357 76.9305 13.6357 80.303C13.6357 83.6754 14.801 86.4204 17.1986 88.6836C19.5627 90.8909 22.4758 92.0001 25.8482 92.0001C29.7136 92.0001 33.3214 90.2634 35.4838 87.3728L35.5622 87.2607V77.8493H24.4477V77.8605Z" fill="#424242"/>
<path d="M60.0431 68.9194L56.2225 81.356L52.5812 68.9194H48.1668L44.5366 81.356L40.716 68.9194H35.0916L41.9709 91.6638H46.6654L50.3628 79.5521L54.0601 91.6638H58.7546L65.634 68.9194H60.0431Z" fill="#424242"/>
<path d="M67.2138 68.9194L65.634 74.1406H72.3789V91.6638H78.7653V74.1406H85.4989V68.9194H67.2138Z" fill="#424242"/>
</svg>
