<svg width="100" height="100" viewBox="0 0 100 100" fill="none" xmlns="http://www.w3.org/2000/svg">
<rect width="100" height="100" rx="24" fill="white"/>
<path d="M35.9252 20.7791C36.7468 18.6225 37.8764 16.637 39.5538 15.0281C46.2633 8.48979 57.3544 10.1329 61.9073 18.3486C65.3305 24.5788 68.9591 30.6721 72.485 36.8339C78.3729 47.0693 84.3293 57.3047 90.1487 67.5743C95.0439 76.1665 89.7379 87.0181 80.016 88.49C74.0597 89.3801 68.4798 86.6415 65.399 81.3013C60.2299 72.2983 55.0267 63.2953 49.8576 54.3265C49.7549 54.1211 49.618 53.9499 49.4811 53.7788C48.9334 53.3337 48.6937 52.6833 48.3514 52.1014C46.0579 48.062 43.6959 44.0569 41.4023 40.0517C39.9303 37.4501 38.3899 34.8827 36.9179 32.281C35.5829 29.9533 34.9667 27.4201 35.0352 24.75C35.1379 23.3807 35.309 22.0114 35.9252 20.7791Z" fill="#3C8BD9"/>
<path d="M35.9252 20.7791C35.6171 22.0114 35.3433 23.2438 35.2748 24.5446C35.1721 27.4201 35.891 30.0902 37.3287 32.5891C41.0943 39.059 44.8598 45.563 48.5911 52.0671C48.9334 52.6491 49.2072 53.231 49.5496 53.7787C47.4956 57.3389 45.4417 60.8648 43.3536 64.4249C40.4781 69.3885 37.6026 74.3864 34.6929 79.35C34.5559 79.35 34.5217 79.2816 34.4875 79.1789C34.4532 78.905 34.5559 78.6654 34.6244 78.3915C36.0279 73.2567 34.864 68.7039 31.3381 64.8014C29.1815 62.4394 26.443 61.1044 23.2936 60.6594C19.1858 60.0774 15.5572 61.1386 12.3051 63.706C11.7232 64.151 11.3466 64.8014 10.662 65.1438C10.5251 65.1438 10.4566 65.0753 10.4224 64.9726C12.0655 62.1313 13.6744 59.2901 15.3175 56.4488C22.0955 44.673 28.8734 32.8972 35.6856 21.1556C35.7541 21.0187 35.8568 20.916 35.9252 20.7791Z" fill="#FABC04"/>
<path d="M10.5594 65.0753C11.2098 64.4934 11.826 63.8772 12.5106 63.3295C20.829 56.7569 33.3237 61.5152 35.138 71.9217C35.583 74.4207 35.3434 76.8169 34.5903 79.2132C34.556 79.4186 34.5218 79.5897 34.4533 79.7951C34.1452 80.3428 33.8714 80.9248 33.5291 81.4725C30.4824 86.5046 25.998 89.0035 20.1101 88.627C13.3664 88.1477 8.06043 83.0814 7.13617 76.3719C6.69115 73.1199 7.34156 70.0732 9.01893 67.2662C9.36125 66.65 9.77204 66.1023 10.1486 65.4861C10.3197 65.3492 10.2513 65.0753 10.5594 65.0753Z" fill="#34A852"/>
<path d="M10.5594 65.0754C10.4224 65.2123 10.4224 65.452 10.1828 65.4862C10.1486 65.2466 10.2855 65.1096 10.4224 64.9385L10.5594 65.0754Z" fill="#FABC04"/>
<path d="M34.4534 79.7951C34.3165 79.5555 34.4534 79.3843 34.5904 79.2131C34.6246 79.2474 34.6931 79.3158 34.7273 79.3501L34.4534 79.7951Z" fill="#E1C025"/>
</svg>
