<svg width="100" height="100" viewBox="0 0 100 100" fill="none" xmlns="http://www.w3.org/2000/svg">
<rect width="100" height="100" rx="24" fill="white"/>
<path d="M57.528 60.4821L83.334 86.2881V33.6221L57.528 59.4281V60.4821Z" fill="url(#paint0_linear_402_133)"/>
<path d="M57.528 59.462L25.806 27.74H22.168C19.312 27.74 17 29.916 17 32.772V50.996C17 52.832 18.496 54.328 20.332 54.328C21.148 54.328 21.896 54.022 22.44 53.546L22.984 53.104C24.548 51.744 26.588 50.928 28.832 50.928C33.728 50.928 37.706 54.94 37.706 59.836C37.706 64.732 33.728 68.676 28.832 68.676C26.588 68.676 24.548 67.86 22.984 66.5L22.44 66.058C21.828 65.548 21.08 65.276 20.332 65.276C18.496 65.276 17 66.772 17 68.608V86.628C17 89.484 19.312 91.966 22.168 91.966H26.044L57.562 60.448V59.462H57.528Z" fill="url(#paint1_linear_402_133)"/>
<path d="M83.334 34.166V32.772C83.334 29.916 81.022 27.74 78.166 27.74H58.99C57.154 27.74 55.658 26.312 55.658 24.476C55.658 23.66 55.964 22.878 56.44 22.3L56.882 21.756C58.242 20.192 59.058 18.152 59.058 15.908C59.058 10.978 55.08 7 50.184 7C45.288 7 41.276 10.978 41.276 15.874C41.276 18.118 42.092 20.158 43.452 21.722L43.894 22.266C44.37 22.844 44.676 23.626 44.676 24.408C44.676 26.244 43.18 27.672 41.344 27.672H25.296L57.528 59.904L83.334 34.166Z" fill="url(#paint2_linear_402_133)"/>
<path d="M25.5 91.9999H78.2C81.056 91.9999 83.368 89.5179 83.368 86.6619V85.7779L57.562 59.9719L25.5 91.9999Z" fill="url(#paint3_linear_402_133)"/>
<path opacity="0.25" d="M50.184 7.51C55.012 7.51 58.922 11.352 59.058 16.146C59.058 16.044 59.058 15.976 59.058 15.874C59.058 10.978 55.08 7 50.184 7C45.288 7 41.276 10.978 41.276 15.874C41.276 15.976 41.276 16.044 41.276 16.146C41.446 11.386 45.356 7.51 50.184 7.51ZM22.168 28.25H41.344C43.18 28.25 44.676 26.822 44.676 24.986C44.676 24.918 44.676 24.85 44.676 24.816C44.506 26.482 43.078 27.774 41.344 27.774H22.168C19.312 27.74 17 29.916 17 32.772V33.282C17 30.426 19.312 28.25 22.168 28.25ZM20.332 65.854C21.148 65.854 21.896 66.16 22.44 66.636L22.984 67.078C24.548 68.438 26.588 69.254 28.832 69.254C33.728 69.254 37.706 65.31 37.706 60.414C37.706 60.312 37.706 60.244 37.706 60.142C37.57 64.936 33.66 68.744 28.832 68.744C26.588 68.744 24.548 67.928 22.984 66.568L22.44 66.126C21.828 65.616 21.08 65.344 20.332 65.344C18.496 65.344 17 66.84 17 68.676V69.186C17 67.35 18.496 65.854 20.332 65.854ZM78.2 27.74H59.024C57.29 27.74 55.862 26.482 55.692 24.782C55.692 24.85 55.692 24.918 55.692 24.986C55.692 26.822 57.188 28.25 59.024 28.25H78.2C81.056 28.25 83.368 30.426 83.368 33.282V32.772C83.334 29.916 81.022 27.74 78.2 27.74Z" fill="white"/>
<path opacity="0.12" d="M43.894 22.3C44.336 22.844 44.608 23.524 44.642 24.272C44.744 23.388 44.472 22.47 43.894 21.79L43.452 21.246C42.126 19.75 41.344 17.812 41.276 15.67C41.276 15.738 41.276 15.84 41.276 15.908C41.276 18.152 42.092 20.192 43.452 21.756C43.486 21.756 43.894 22.3 43.894 22.3ZM56.44 21.756C55.964 22.334 55.658 23.116 55.658 23.932C55.658 24.034 55.658 24.17 55.658 24.272C55.692 23.524 55.964 22.81 56.406 22.266L56.848 21.722C58.208 20.158 59.024 18.118 59.024 15.874C59.024 15.806 59.024 15.704 59.024 15.636C58.956 17.778 58.174 19.716 56.848 21.212L56.44 21.756ZM20.332 54.328C21.148 54.328 21.896 54.022 22.44 53.546L22.984 53.104C24.548 51.744 26.588 50.928 28.832 50.928C33.66 50.928 37.57 54.804 37.706 59.598C37.706 59.496 37.706 59.428 37.706 59.326C37.706 54.43 33.728 50.418 28.832 50.418C26.588 50.418 24.548 51.234 22.984 52.594L22.44 53.036C21.828 53.546 21.08 53.818 20.332 53.818C18.496 53.818 17 52.322 17 50.486V50.996C17 52.832 18.496 54.328 20.332 54.328Z" fill="#231F20"/>
<path opacity="0.2" d="M78.2 91.4899H26.01L25.5 91.9999H78.2C81.056 91.9999 83.368 89.5179 83.368 86.6619V86.1519C83.334 89.0079 81.022 91.4899 78.2 91.4899Z" fill="#231F20"/>
<path opacity="0.12" d="M22.168 91.4899C19.312 91.4899 17 89.0079 17 86.1519V86.6619C17 89.5179 19.312 91.9999 22.168 91.9999H25.5L26.01 91.4899H22.168Z" fill="#231F20"/>
<defs>
<linearGradient id="paint0_linear_402_133" x1="85.2996" y1="59.9759" x2="23.8534" y2="59.9759" gradientUnits="userSpaceOnUse">
<stop stop-color="#FFE000"/>
<stop offset="0.409" stop-color="#FFBD00"/>
<stop offset="0.775" stop-color="#FFA500"/>
<stop offset="1" stop-color="#FF9C00"/>
</linearGradient>
<linearGradient id="paint1_linear_402_133" x1="55.3397" y1="27.5223" x2="-4.61769" y2="51.3677" gradientUnits="userSpaceOnUse">
<stop stop-color="#00A0FF"/>
<stop offset="0.007" stop-color="#00A1FF"/>
<stop offset="0.26" stop-color="#00BEFF"/>
<stop offset="0.512" stop-color="#00D2FF"/>
<stop offset="0.76" stop-color="#00DFFF"/>
<stop offset="1" stop-color="#00E3FF"/>
</linearGradient>
<linearGradient id="paint2_linear_402_133" x1="18.5593" y1="-6.54228" x2="45.8304" y2="26.2057" gradientUnits="userSpaceOnUse">
<stop stop-color="#32A071"/>
<stop offset="0.069" stop-color="#2DA771"/>
<stop offset="0.476" stop-color="#15CF74"/>
<stop offset="0.801" stop-color="#06E775"/>
<stop offset="1" stop-color="#00F076"/>
</linearGradient>
<linearGradient id="paint3_linear_402_133" x1="70.6671" y1="74.2059" x2="45.8469" y2="155.142" gradientUnits="userSpaceOnUse">
<stop stop-color="#FF3A44"/>
<stop offset="1" stop-color="#C31162"/>
</linearGradient>
</defs>
</svg>
