<svg width="100" height="100" viewBox="0 0 100 100" fill="none" xmlns="http://www.w3.org/2000/svg">
<rect width="100" height="100" rx="24" fill="white"/>
<path d="M48.5619 7.136C49.7859 7.034 50.9759 7 52.1999 7C74.3338 7.816 92.1157 25.5639 92.9997 47.6978V81.1197C92.9657 87.1717 88.0357 92.0337 82.0178 91.9998C76.5098 91.1497 72.2938 86.6617 71.7838 81.1197V47.6978C70.8658 36.0359 60.6658 27.2979 49.0039 28.2159C48.8679 28.2159 48.7319 28.2499 48.5959 28.2499" fill="#FBBC04"/>
<path d="M92.9996 81.3577C92.9996 87.2057 88.2396 91.9657 82.3916 91.9657C76.5437 91.9657 71.7837 87.2057 71.7837 81.3577C71.7837 75.5097 76.5437 70.7498 82.3916 70.7498C88.2396 70.7498 92.9996 75.5097 92.9996 81.3577Z" fill="#4285F4"/>
<path d="M49.1738 91.6256C55.1918 91.6936 60.1218 86.8997 60.1898 80.8817C60.1898 80.8477 60.1898 80.8477 60.1898 80.8137C60.0198 74.9657 55.1238 70.3417 49.2758 70.5117C49.2078 70.5117 49.1058 70.5117 49.0378 70.5117C37.4439 69.6277 28.7059 59.5638 29.5219 47.9358V47.7658C30.3719 37.2939 38.7019 29.0319 49.1738 28.2499C55.0218 28.4879 59.9518 23.9319 60.1898 18.0839C60.1898 18.0159 60.1898 17.9819 60.1898 17.9139C60.1218 11.896 55.1918 7.03398 49.1738 7.10128H48.4258C25.8839 8.15598 8.136 26.6519 8 49.2278V49.3978C8 75.8837 31.2219 91.6596 48.5278 91.6596H49.1738V91.6256Z" fill="#EA4335"/>
</svg>
