<svg width="100" height="100" viewBox="0 0 100 100" fill="none" xmlns="http://www.w3.org/2000/svg">
<rect width="100" height="100" rx="24" fill="white"/>
<path d="M65.5321 79.5659C61.3827 75.4165 61.3827 68.6851 65.5321 64.532C57.2297 72.8344 43.7704 72.8344 35.468 64.532C39.6173 68.6813 39.6173 75.4128 35.468 79.5659C31.3186 83.7152 24.5872 83.7152 20.4341 79.5659C37.0128 96.1446 63.9873 96.1446 80.566 79.5659C76.4129 83.7152 69.6814 83.7152 65.5321 79.5659Z" fill="#FBBC04"/>
<path d="M80.566 19.434C63.9872 2.85532 37.0128 2.85532 20.434 19.434C3.85532 36.0128 3.85532 62.9872 20.434 79.566C16.2847 75.4166 16.2847 68.6851 20.434 64.532C24.5834 60.3827 31.3149 60.3827 35.468 64.532C27.1655 56.2296 27.1655 42.7704 35.468 34.468C43.7704 26.1655 57.2296 26.1655 65.532 34.468C69.6814 38.6173 76.4129 38.6173 80.566 34.468C84.7153 30.3149 84.7153 23.5871 80.566 19.434Z" fill="#4184F3"/>
<path d="M27.9491 82.6779C33.8203 82.6779 38.5799 77.9183 38.5799 72.0471C38.5799 66.1758 33.8203 61.4163 27.9491 61.4163C22.0778 61.4163 17.3182 66.1758 17.3182 72.0471C17.3182 77.9183 22.0778 82.6779 27.9491 82.6779Z" fill="#34A853"/>
<path d="M80.5658 19.4341C84.7152 23.5834 84.7152 30.3149 80.5658 34.468C76.4165 38.6173 69.685 38.6173 65.5319 34.468C73.8344 42.7704 73.8344 56.2297 65.5319 64.5321C61.3826 68.6814 61.3826 75.4129 65.5319 79.566C69.6813 83.7153 76.4128 83.7153 80.5658 79.566C97.1408 62.9873 97.1408 36.0128 80.5658 19.4341Z" fill="#EA4335"/>
</svg>
