<svg width="100" height="100" viewBox="0 0 100 100" fill="none" xmlns="http://www.w3.org/2000/svg">
<rect width="100" height="100" rx="24" fill="#2F2F31"/>
<path d="M64.5279 55.7916C74.8813 56.5983 85.1507 52.0771 86.3775 40.6649C86.4016 40.464 86.3649 40.2604 86.272 40.0807C86.1791 39.9009 86.0343 39.7531 85.8565 39.6566C85.7239 39.5925 85.5786 39.5592 85.4313 39.5591C85.0197 39.5591 84.648 39.8212 84.512 40.2111C79.2176 51.8251 65.5869 47.7241 60.1075 46.5476C52.7969 44.7965 45.3199 43.8329 37.8041 43.6734C27.4507 43.9256 20.6774 46.7659 14.509 54.447C8.34066 62.128 7.36599 78.1454 18.8622 86.8516C29.0189 94.3831 43.2413 93.573 52.477 84.9356C59.6287 77.5134 62.9682 67.1905 61.5194 56.985C57.2504 56.363 53.1157 55.5226 49.0315 54.7663C34.2578 51.9596 25.3836 54.7663 21.1647 63.4725C20.1426 65.5124 19.6104 67.7626 19.6104 70.0442C19.6104 72.3258 20.1426 74.576 21.1647 76.6159C23.4892 81.0481 27.7971 84.1121 32.7451 84.8516C38.7285 86.1239 44.9758 84.5726 49.6702 80.6498C55.1159 75.9772 57.9562 68.1955 57.7042 58.8002L59.3009 59.069C59.5362 68.834 56.4435 76.9186 50.7122 81.8768C45.6548 86.1289 38.9051 87.8131 32.4426 86.4314C27.0592 85.5996 22.3749 82.2683 19.8202 77.4564C18.6895 75.1941 18.1008 72.6996 18.1008 70.1704C18.1008 67.6412 18.6895 65.1467 19.8202 62.8843C21.9011 58.343 25.8424 54.911 30.6274 53.4721C35.5016 51.926 41.6531 51.7915 49.4348 53.321C54.9814 54.3293 61.6371 55.6066 64.5279 55.7916ZM41.1825 69.725C38.174 75.4562 30.4929 76.4479 26.8624 72.5486C23.2321 68.6492 25.2657 63.1028 28.5432 60.3128C30.6036 58.686 32.9967 57.5324 35.5528 56.9341C38.109 56.3357 40.7654 56.3072 43.3338 56.8505C43.1825 62.3297 42.7791 66.6995 41.1825 69.7249V69.725ZM42.0733 42.2953C48.2279 42.707 54.3383 43.6233 60.3429 45.0349C57.805 34.1772 60.3429 25.1014 68.3262 22.0927C69.9102 21.447 71.6043 21.1148 73.3148 21.1145C79.8631 21.1145 85.4715 25.982 86.3943 32.4629C86.5457 33.2866 86.949 33.5386 87.4868 33.6059C88.0835 33.6832 88.6498 33.2982 88.7978 32.715C90.8533 25.118 88.3103 16.9817 82.2933 11.9075C77.0091 7.70061 70.1063 6.08377 63.5027 7.50394C47.6868 10.7981 41.2496 25.6057 42.0733 42.2953ZM88.0752 31.2024C89.4868 24.849 82.4278 8.68045 66.8642 10.3276C63.7159 10.641 60.6697 11.6178 57.9262 13.1938C55.1827 14.7697 52.8043 16.9091 50.9475 19.4708C47.2835 24.782 45.9053 31.8075 45.9053 40.4296L44.3253 40.2952C44.3253 34.7992 44.6111 25.908 49.3677 18.9835C51.2482 16.2449 53.6833 13.932 56.515 12.1947C59.3467 10.4575 62.5118 9.33462 65.8052 8.89895C83.8228 6.51227 90.26 24.8157 88.0752 31.2024Z" fill="white"/>
</svg>
