<svg width="100" height="100" viewBox="0 0 100 100" fill="none" xmlns="http://www.w3.org/2000/svg">
<rect width="100" height="100" rx="24" fill="white"/>
<path d="M43.7661 24H48.0541L36.0754 76.9388H31.7874L43.7661 24Z" fill="#202124"/>
<path d="M7 28.6812H28.7033V72.0878H7V28.6812Z" fill="#3D8BFF"/>
<path d="M92 50.4516C92 53.4033 91.4186 56.326 90.289 59.053C89.1595 61.7799 87.5039 64.2577 85.4168 66.3448C83.3297 68.4319 80.8519 70.0875 78.125 71.2171C75.398 72.3466 72.4753 72.928 69.5237 72.9279C66.572 72.928 63.6493 72.3466 60.9224 71.2171C58.1954 70.0875 55.7176 68.4319 53.6305 66.3448C51.5434 64.2577 49.8878 61.7799 48.7583 59.053C47.6287 56.326 47.0474 53.4033 47.0474 50.4516C47.0474 47.5 47.6287 44.5773 48.7583 41.8503C49.8878 39.1234 51.5434 36.6456 53.6305 34.5585C55.7176 32.4714 58.1954 30.8158 60.9224 29.6863C63.6493 28.5567 66.572 27.9753 69.5237 27.9753C72.4753 27.9753 75.398 28.5567 78.125 29.6863C80.8519 30.8158 83.3297 32.4714 85.4168 34.5585C87.5039 36.6456 89.1595 39.1234 90.289 41.8503C91.4186 44.5773 92 47.5 92 50.4516Z" fill="#3D8BFF"/>
</svg>
