<svg width="100" height="100" viewBox="0 0 100 100" fill="none" xmlns="http://www.w3.org/2000/svg">
<rect width="100" height="100" rx="24" fill="white"/>
<g clip-path="url(#clip0_402_132)">
<path d="M12 82.576V16.4194C12 9.18308 19.838 4.65014 26.1181 8.27659L83.4147 41.3507C89.6867 44.9771 89.6867 54.0264 83.4147 57.6446L26.1181 90.727C19.8461 94.3451 12 89.8205 12 82.576Z" fill="#1A8039"/>
<path fill-rule="evenodd" clip-rule="evenodd" d="M53.0275 44.565C51.7583 37.1722 45.3462 31.7986 37.8462 31.7986H12V67.1969H30.379L43.739 80.5569L57.8984 72.3811L53.0275 44.565ZM30.3461 36.5869C32.7857 36.5869 34.7719 38.5733 34.7719 41.0375C34.7719 43.4771 32.7855 45.4632 30.3461 45.4632C27.8819 45.4632 25.8956 43.4769 25.8956 41.0375C25.8956 38.5733 27.8819 36.5869 30.3461 36.5869ZM21.8736 53.944C19.434 53.944 17.4479 51.9577 17.4479 49.4935C17.4479 47.0539 19.4342 45.0677 21.8736 45.0677C24.3378 45.0677 26.3242 47.054 26.3242 49.4935C26.3242 51.9578 24.3378 53.944 21.8736 53.944ZM30.3461 62.3919C27.8819 62.3919 25.8956 60.4304 25.8956 57.9661C25.8956 55.5266 27.8819 53.5404 30.3461 53.5404C32.7857 53.5404 34.7719 55.5267 34.7719 57.9661C34.772 60.4304 32.7857 62.3919 30.3461 62.3919ZM38.9093 53.944C36.4451 53.944 34.4587 51.9577 34.4587 49.4935C34.4587 47.0539 36.4451 45.0677 38.9093 45.0677C41.3489 45.0677 43.335 47.054 43.335 49.4935C43.3269 51.9578 41.3406 53.944 38.9093 53.944Z" fill="#94FED6"/>
</g>
<defs>
<clipPath id="clip0_402_132">
<rect width="76.1188" height="85" fill="white" transform="translate(12 7)"/>
</clipPath>
</defs>
</svg>
