<svg width="100" height="100" viewBox="0 0 100 100" fill="none" xmlns="http://www.w3.org/2000/svg">
<rect width="100" height="100" rx="24" fill="white"/>
<path d="M81.3319 24.8196H18.8743L10.9434 38.2035H89.2632L81.3319 24.8196Z" fill="#073042"/>
<path d="M91.1702 39.0848C91.1793 38.8104 91.1133 38.5388 90.9793 38.2992L82.6493 23.5429C82.5175 23.3093 82.326 23.1149 82.0944 22.9797C81.8628 22.8444 81.5995 22.7732 81.3313 22.7732H18.9512C18.4085 22.7732 17.907 23.0639 17.6375 23.5356L9.22855 38.2408C9.08568 38.4911 9.00148 38.7745 9.00049 39.059V39.0649L9.02137 88.1413C9.02137 90.2722 10.7484 91.9996 12.8796 91.9996H87.3166C89.4474 91.9996 91.1745 90.2725 91.1745 88.1413V39.1276C91.1745 39.113 91.1712 39.0994 91.1702 39.0848ZM13.1657 37.4536L19.8144 25.8256C19.8188 25.8178 19.8253 25.8114 19.833 25.8069C19.8407 25.8024 19.8495 25.8 19.8584 25.8H80.418C80.4366 25.8 80.4535 25.81 80.4624 25.8259L87.0269 37.4539C87.0313 37.4616 87.0335 37.4704 87.0334 37.4792C87.0333 37.4881 87.0309 37.4968 87.0264 37.5044C87.0219 37.5121 87.0155 37.5184 87.0078 37.5228C87.0001 37.5272 86.9914 37.5295 86.9825 37.5295H13.2097C13.2008 37.5295 13.192 37.5272 13.1843 37.5227C13.1765 37.5183 13.1701 37.5119 13.1656 37.5041C13.1611 37.4964 13.1587 37.4876 13.1588 37.4787C13.1588 37.4697 13.1612 37.4609 13.1657 37.4532V37.4536Z" fill="#4285F4"/>
<path d="M90.9792 38.2992L82.6489 23.5429C82.5171 23.3094 82.3257 23.115 82.0942 22.9797C81.8626 22.8445 81.5993 22.7732 81.3312 22.7732H18.9511C18.4081 22.7732 17.9069 23.0639 17.6374 23.5356L9.19964 38.2919C9.06803 38.522 8.99919 38.7827 9.00001 39.0477C9.00083 39.3128 9.07127 39.5731 9.20432 39.8023C9.33736 40.0316 9.5283 40.2219 9.75804 40.3542C9.98778 40.4865 10.2483 40.556 10.5133 40.556H89.6615C89.9258 40.5558 90.1855 40.4865 90.4146 40.3548C90.6438 40.2232 90.8345 40.0338 90.9678 39.8056C91.101 39.5773 91.1722 39.3182 91.1742 39.0539C91.1762 38.7896 91.109 38.5294 90.9792 38.2992ZM13.1222 37.5295L19.8289 25.8H80.4478L87.0696 37.5295H13.1218H13.1222Z" fill="#3870B2"/>
<path d="M12.8794 91.9999H87.3164C89.4473 91.9999 91.1743 90.2728 91.1743 88.1417V43.6475" fill="#3E7FDD"/>
<path d="M61.8088 15.1205L65.0153 9.56707L65.782 8.23979C65.8672 8.09128 65.9013 7.92753 65.8904 7.76907C65.8822 7.64741 65.8471 7.52909 65.7876 7.42262C65.7281 7.31616 65.6458 7.2242 65.5466 7.15338C65.4473 7.08255 65.3336 7.03462 65.2135 7.01303C65.0935 6.99144 64.9702 6.99673 64.8525 7.02852C64.7476 7.05649 64.6493 7.10484 64.5631 7.17082C64.477 7.2368 64.4047 7.31911 64.3503 7.41305L63.6422 8.63957L62.5854 10.4697L60.3277 14.3813C57.2514 12.9771 53.7963 12.1951 50.1098 12.1951C46.4233 12.1951 42.9685 12.9774 39.8923 14.3813L35.8693 7.41338C35.8016 7.29622 35.7062 7.19747 35.5914 7.12581C35.4766 7.05414 35.346 7.01174 35.211 7.00234C35.1845 7.00002 35.158 7.00366 35.1314 7.00433C34.9979 7.00764 34.8639 7.03946 34.7403 7.1104C34.7001 7.13453 34.6621 7.16203 34.6266 7.19261C34.62 7.19825 34.6113 7.20256 34.6047 7.20852C34.5047 7.29769 34.4277 7.40976 34.3805 7.53515C34.3332 7.66053 34.317 7.7955 34.3332 7.92852C34.3465 8.03526 34.3806 8.14067 34.438 8.23979L38.4109 15.1205C31.5888 18.8309 26.9228 25.7375 26.2402 33.8971H73.9794C73.2965 25.7375 68.6305 18.8309 61.8088 15.1205ZM39.1239 27.0949C38.5968 27.0942 38.0916 26.8845 37.7189 26.5118C37.3462 26.1391 37.1366 25.6337 37.136 25.1067C37.1365 24.5796 37.3461 24.0742 37.7188 23.7015C38.0915 23.3289 38.5968 23.1192 39.1239 23.1187C39.6509 23.1193 40.1562 23.329 40.5288 23.7017C40.9014 24.0744 41.111 24.5796 41.1115 25.1067C41.1109 25.6337 40.9013 26.1389 40.5287 26.5117C40.1561 26.8844 39.6509 27.0941 39.1239 27.0949ZM61.0961 27.0949C60.569 27.0942 60.0637 26.8845 59.691 26.5118C59.3184 26.1391 59.1087 25.6337 59.1081 25.1067C59.1086 24.5796 59.3183 24.0742 59.691 23.7015C60.0637 23.3289 60.569 23.1192 61.0961 23.1187C61.6231 23.1193 62.1283 23.329 62.5009 23.7017C62.8736 24.0744 63.0831 24.5796 63.0837 25.1067C63.0831 25.6337 62.8735 26.1389 62.5009 26.5117C62.1283 26.8844 61.6231 27.0941 61.0961 27.0949Z" fill="#3DDC84"/>
<path d="M24.8825 70.3458C24.136 70.3458 23.4952 70.6199 22.9784 71.1612C22.4672 71.6956 22.208 72.3311 22.208 73.0491C22.208 73.7896 22.4685 74.4314 22.982 74.9558C23.4991 75.4845 24.1386 75.7527 24.8825 75.7527C25.626 75.7527 26.2651 75.4845 26.7826 74.9558C27.2964 74.4304 27.5569 73.7889 27.5569 73.0491C27.5569 72.3314 27.2977 71.6966 26.7869 71.1612C26.2691 70.6199 25.6283 70.3458 24.8825 70.3458ZM42.2664 62.6426C41.9217 61.9319 41.4503 61.3405 40.8649 60.8854C40.2888 60.4375 39.6195 60.1077 38.8746 59.9048C38.1361 59.7068 37.3745 59.6076 36.6099 59.6098C35.5773 59.6098 34.6356 59.7739 33.8105 60.0978C32.9871 60.421 32.2763 60.8516 31.6976 61.3776C31.1155 61.9067 30.6583 62.515 30.3391 63.1856C30.0507 63.7912 29.888 64.4021 29.8406 65.0065H33.352C33.4797 64.4449 33.7816 63.9669 34.2722 63.5542C34.853 63.0662 35.6081 62.8289 36.5807 62.8289C37.3664 62.8289 38.0204 63.0006 38.5246 63.3394C38.9761 63.6434 39.1866 64.003 39.1866 64.4721C39.1866 64.7257 39.1176 64.9852 38.6184 65.1705C38.0476 65.3824 37.1957 65.5849 36.0809 65.7735C35.092 65.9515 34.1857 66.173 33.3872 66.4325C32.5674 66.6987 31.856 67.0345 31.2733 67.4296C30.6633 67.844 30.186 68.3608 29.8558 68.9661C29.5237 69.5754 29.3553 70.2914 29.3553 71.0946C29.3553 71.69 29.4829 72.2803 29.7348 72.8488C29.9861 73.418 30.3617 73.9328 30.8509 74.3783C31.3356 74.8202 31.9323 75.1733 32.6244 75.4292C33.3106 75.6824 34.1118 75.811 35.0055 75.811C36.1969 75.811 37.2477 75.5637 38.1288 75.0751C38.5298 74.8549 38.9043 74.5896 39.2449 74.2842C39.2449 74.6118 39.3751 74.9259 39.6067 75.1576C39.8383 75.3892 40.1525 75.5193 40.4801 75.5193H42.7849V65.2309C42.7849 64.2238 42.6105 63.353 42.2664 62.6426ZM39.2449 68.7901C39.2449 69.339 39.1455 69.8502 38.9506 70.3086C38.7612 70.7599 38.4866 71.1704 38.1417 71.5176C37.7945 71.8624 37.384 72.137 36.9328 72.3264C36.4747 72.522 35.9734 72.6211 35.4431 72.6211C34.7333 72.6211 34.1711 72.4587 33.7236 72.1249C33.3179 71.8232 33.1289 71.4307 33.1289 70.8904C33.1289 70.4373 33.292 70.0716 33.6272 69.7729C34.0127 69.4299 34.7174 69.1192 35.7401 68.8454C36.0453 68.7546 36.3538 68.6752 36.6649 68.6074C37.0677 68.5166 37.4764 68.4168 37.8779 68.3114C38.2846 68.2053 38.682 68.0896 39.0593 67.9677C39.1233 67.9468 39.1853 67.9259 39.2449 67.905V68.7901ZM58.1362 62.6426C57.7915 61.9319 57.3198 61.3405 56.7347 60.8854C56.1585 60.4375 55.4889 60.1077 54.7444 59.9048C54.0058 59.7068 53.2443 59.6076 52.4797 59.6098C51.4471 59.6098 50.5053 59.7739 49.6802 60.0978C48.8568 60.421 48.1461 60.8516 47.5673 61.3776C46.9852 61.9067 46.5281 62.515 46.2085 63.1856C45.9172 63.7975 45.7537 64.4154 45.7086 65.0254H49.2155C49.3408 64.4555 49.6454 63.9719 50.142 63.5542C50.7228 63.0662 51.4779 62.8289 52.4505 62.8289C53.2361 62.8289 53.8902 63.0006 54.3944 63.3394C54.8458 63.6434 55.0563 64.003 55.0563 64.4721C55.0563 64.7257 54.9874 64.9852 54.4882 65.1705C53.9173 65.382 53.0651 65.5849 51.9506 65.7735C50.9618 65.9515 50.0555 66.173 49.2569 66.4325C48.4371 66.6987 47.7258 67.0345 47.143 67.4296C46.5327 67.844 46.0557 68.3608 45.7256 68.9661C45.3934 69.5754 45.225 70.2914 45.225 71.0946C45.225 71.69 45.3526 72.2803 45.6042 72.8488C45.8555 73.418 46.2314 73.9328 46.7207 74.3783C47.2053 74.8202 47.802 75.1733 48.4938 75.4292C49.18 75.6824 49.9816 75.811 50.8752 75.811C52.0666 75.811 53.1174 75.5637 53.9985 75.0751C54.3996 74.8549 54.774 74.5896 55.1147 74.2842C55.1148 74.6117 55.2449 74.9259 55.4765 75.1575C55.7081 75.3891 56.0223 75.5192 56.3498 75.5193H58.6547V65.2309C58.6547 64.2238 58.4803 63.353 58.1362 62.6426ZM55.1147 68.7901C55.1147 69.339 55.0152 69.8502 54.8203 70.3086C54.6309 70.7599 54.3563 71.1704 54.0115 71.5176C53.6642 71.8624 53.2538 72.137 52.8025 72.3264C52.3444 72.522 51.8429 72.6211 51.3125 72.6211C50.6031 72.6211 50.0406 72.4587 49.5931 72.1249C49.1876 71.8232 48.9984 71.4307 48.9984 70.8904C48.9984 70.4373 49.1614 70.0716 49.4969 69.7729C49.8821 69.4299 50.5872 69.1192 51.6098 68.8454C51.915 68.7546 52.2235 68.6752 52.5347 68.6074C52.9407 68.5157 53.345 68.417 53.7476 68.3114C54.1543 68.2053 54.5518 68.0896 54.9287 67.9677C54.993 67.9468 55.0547 67.9259 55.1143 67.905L55.1147 68.7901ZM77.3911 64.5749C77.0089 63.6046 76.4692 62.7404 75.7867 62.0058C75.0976 61.2662 74.2684 60.6708 73.3473 60.2542C72.4078 59.8266 71.3839 59.6098 70.3042 59.6098C69.1138 59.6098 68.0103 59.881 67.0241 60.416C66.5202 60.6895 66.0727 60.9958 65.6852 61.3326V52.6084H62.1449V75.5193H64.2545C64.634 75.5193 64.9979 75.3686 65.2662 75.1003C65.5345 74.832 65.6852 74.4681 65.6852 74.0886C66.073 74.4254 66.5202 74.7317 67.0241 75.0045C68.01 75.5399 69.1135 75.811 70.3039 75.811C71.3845 75.811 72.4082 75.5942 73.3473 75.1666C74.2687 74.7504 75.0981 74.1548 75.787 73.4147C76.4689 72.6811 77.0089 71.8169 77.3915 70.8456C77.7733 69.875 77.9669 68.8202 77.9669 67.7104C77.9669 66.6009 77.773 65.5461 77.3911 64.5749ZM69.9247 62.9459C70.5863 62.9459 71.1923 63.0679 71.7247 63.3086C72.2524 63.5447 72.7266 63.8856 73.1186 64.3107C73.5091 64.736 73.818 65.2448 74.0368 65.8219C74.2569 66.4024 74.3683 67.0382 74.3683 67.7104C74.3683 68.3833 74.2569 69.0185 74.0371 69.5989C73.8183 70.1767 73.5091 70.6855 73.1186 71.1105C72.727 71.5356 72.2529 71.8766 71.7253 72.1126C71.1926 72.3529 70.5866 72.4753 69.9247 72.4753C69.2623 72.4753 68.6564 72.3529 68.124 72.1123C67.5963 71.8765 67.1223 71.5356 66.7307 71.1105C66.3396 70.6845 66.0306 70.1764 65.8122 69.5989C65.5924 69.0195 65.481 68.384 65.481 67.7104C65.481 67.0368 65.5924 66.4014 65.8125 65.8219C66.0306 65.2451 66.3396 64.7366 66.7307 64.3103C67.1225 63.8855 67.5965 63.5447 68.124 63.3086C68.657 63.0679 69.2627 62.9459 69.9247 62.9459Z" fill="white"/>
<path d="M39.1239 27.0949C38.5969 27.0942 38.0916 26.8845 37.7189 26.5117C37.3462 26.139 37.1366 25.6337 37.136 25.1066C37.1365 24.5795 37.3461 24.0742 37.7188 23.7015C38.0915 23.3288 38.5969 23.1192 39.1239 23.1187C39.651 23.1193 40.1562 23.3289 40.5288 23.7016C40.9015 24.0743 41.111 24.5796 41.1116 25.1066C41.1109 25.6336 40.9014 26.1389 40.5288 26.5116C40.1562 26.8843 39.651 27.0941 39.1239 27.0949ZM61.0961 27.0949C60.569 27.0942 60.0637 26.8845 59.6911 26.5117C59.3184 26.139 59.1088 25.6337 59.1081 25.1066C59.1087 24.5795 59.3183 24.0742 59.691 23.7015C60.0637 23.3288 60.569 23.1192 61.0961 23.1187C61.6231 23.1193 62.1283 23.3289 62.501 23.7016C62.8736 24.0743 63.0832 24.5796 63.0837 25.1066C63.0831 25.6336 62.8735 26.1389 62.5009 26.5116C62.1283 26.8843 61.6231 27.0941 61.0961 27.0949Z" fill="white"/>
</svg>
