<svg width="100" height="100" viewBox="0 0 100 100" fill="none" xmlns="http://www.w3.org/2000/svg">
<rect width="100" height="100" rx="24" fill="white"/>
<path d="M68.2515 42.1405C70.5882 42.1405 72.3939 42.7778 73.7747 44.0524C75.1556 45.327 75.7929 47.0264 75.7929 49.1508V59.3476H72.8188V57.0108H72.7126C71.438 58.9227 69.6323 59.8787 67.508 59.8787C65.7023 59.8787 64.109 59.3476 62.8344 58.2854C61.666 57.2233 60.9225 55.7362 60.9225 54.143C60.9225 52.4435 61.5598 51.0627 62.8344 50.0005C64.109 48.9383 65.9147 48.5135 68.039 48.5135C69.9509 48.5135 71.438 48.8321 72.6064 49.5756V48.8321C72.6064 47.8408 72.2363 46.8494 71.496 46.2035L71.3318 46.0705C70.482 45.327 69.4199 44.9021 68.2515 44.9021C66.4458 44.9021 65.065 45.6456 64.109 47.1327L61.3474 45.4332C63.0468 43.2026 65.2774 42.1405 68.2515 42.1405ZM53.2749 34.9177C55.1809 34.9177 56.9922 35.5809 58.4402 36.8178L58.692 37.0421C60.179 38.3167 60.9225 40.2286 60.9225 42.2467C60.9225 44.2648 60.179 46.0705 58.692 47.4513C57.2049 48.8321 55.3992 49.5756 53.2749 49.5756L48.1765 49.4694V59.3476H44.99V34.9177H53.2749ZM68.6763 51.0627C67.4017 51.0627 66.3396 51.3813 65.4898 52.0186C64.6401 52.5497 64.2152 53.2932 64.2152 54.2492C64.2152 55.0989 64.6401 55.8424 65.2774 56.2673C66.0209 56.7984 66.8707 57.117 67.7204 57.117C68.91 57.117 70.0996 56.6544 71.0302 55.8155L71.2255 55.63C72.2877 54.6741 72.8188 53.5057 72.8188 52.2311C71.8628 51.4875 70.482 51.0627 68.6763 51.0627ZM53.4873 37.8918H48.1765V46.3891H53.4873C54.6557 46.3891 55.8241 45.9643 56.5676 45.1145C58.2671 43.5213 58.2671 40.8659 56.6738 39.2726L56.5676 39.1664C55.7179 38.3167 54.6557 37.7856 53.4873 37.8918ZM93 42.6716L82.4845 66.7828H79.298L83.228 58.3916L76.3239 42.7778H79.7229L84.7151 54.7803H84.8213L89.7073 42.7778H93V42.6716Z" fill="#5F6368"/>
<path d="M35.5367 47.3449C35.5367 46.389 35.4304 45.433 35.3242 44.4771H22.0471V49.8941H29.5885C29.2699 51.5936 28.3139 53.1868 26.8269 54.1428V57.6479H31.3942C34.0496 55.2049 35.5367 51.5936 35.5367 47.3449Z" fill="#4285F4"/>
<path d="M22.0471 61.0468C25.8709 61.0468 29.0574 59.7722 31.3942 57.6479L26.8269 54.1427C25.5523 54.9925 23.959 55.5236 22.0471 55.5236C18.4358 55.5236 15.2493 53.0806 14.1871 49.6816H9.51355V53.293C11.9565 58.0728 16.7363 61.0468 22.0471 61.0468Z" fill="#34A853"/>
<path d="M14.1871 49.6818C13.5498 47.9823 13.5498 46.0704 14.1871 44.2647V40.6533H9.51359C7.49547 44.5833 7.49547 49.2569 9.51359 53.2931L14.1871 49.6818Z" fill="#FBBC04"/>
<path d="M22.0471 38.529C24.0652 38.529 25.9771 39.2725 27.4642 40.6533L31.5004 36.6171C28.9512 34.2803 25.5523 32.8995 22.1533 33.0057C16.8425 33.0057 11.9565 35.9798 9.61975 40.7595L14.2933 44.3709C15.2492 40.972 18.4357 38.529 22.0471 38.529Z" fill="#EA4335"/>
</svg>
