<svg width="100" height="100" viewBox="0 0 100 100" fill="none" xmlns="http://www.w3.org/2000/svg">
<rect width="100" height="100" rx="24" fill="white"/>
<path d="M31.8783 81.7191C13.5903 71.3027 14.1531 72.4146 13.5903 71.3027C12.9811 70.0988 14.7912 64.3147 13.4689 49.2255L13.7635 27.2425C14.7864 26.1622 22.904 21.5242 31.646 16.5837C44.4914 9.32411 46.8339 8.09282 49.0203 8.06291C51.2838 8.03185 53.8184 9.74154 67.1163 17.3109C75.8583 22.2869 84.9422 26.6899 85.6096 27.2636C86.3225 28.1507 85.5971 28.1333 75.8634 34.3488C70.1118 37.6081 65.8303 40.0665 64.9925 40.6912C64.4147 41.1219 60.337 42.6373 57.266 44.3113C54.0696 46.0536 50.7906 47.3549 49.5965 47.3549C48.3344 47.3549 45.2122 46.037 41.6913 44.0182C38.4907 42.183 33.3193 39.3774 32.8566 39.5549C30.1102 40.6088 29.5987 54.8068 32.818 60.2011C34.1388 63.3624 37.1551 64.8089 40.4309 66.5436C42.53 67.6552 44.0795 69.1023 47.9493 69.1142C52.2759 69.1277 55.0592 68.6657 57.7449 67.0869C59.4767 66.0689 62.4184 64.9028 63.6177 63.3886C65.1232 61.4877 66.112 60.2115 66.112 60.2115C68.4296 61.1002 82.6748 71.7871 83.4214 72.6866C84.3928 73.8571 85.0084 71.7034 83.4214 72.6866C82.7662 73.0925 75.7097 77.61 67.0759 82.5042C54.531 89.6155 50.8632 91.4014 48.8142 91.396C46.7611 91.3903 41.8171 87.3801 31.8783 81.7191Z" fill="#E4C1EA"/>
<path d="M31.3221 82.8268C22.6133 77.8323 14.9282 73.2393 14.244 72.6201C13.0854 71.5716 13 70.0019 13 49.7467C13 33.3542 13.2082 27.7431 13.8454 26.9592C14.3104 26.3872 18.6476 23.6969 23.4836 20.9806C28.3195 18.2644 35.6242 14.1487 39.7162 11.8347C43.8082 9.52071 47.9806 7.43266 48.9883 7.19458C50.3828 6.86512 52.1601 9.26301 56.4282 11.5182C69.084 18.2053 85.0178 26.5855 85.2159 27.56C85.4538 28.7306 84.6351 29.512 72.9859 36.1152L65.0617 40.6431L61.7211 37.6971C58.2862 34.6089 53.1426 32.4751 49.1329 32.4751C43.0523 32.4751 33.9163 38.5508 31.6214 44.1206C30.4338 47.0031 30.2565 53.1656 31.2834 55.8667C32.818 60.2013 36.9221 64.0521 40.5199 66.0653C45.0593 68.7256 51.5575 69.0383 56.3838 66.8288C58.3828 65.9136 61.3558 64.2366 62.8243 62.6869C64.2928 61.1372 65.6836 59.5295 66.081 59.5295C67.1862 59.5295 82.8581 69.5186 84.3702 71.0186C85.5378 72.1767 86.2199 71.8161 85.349 72.6538C84.8028 73.1792 77.0346 77.7458 68.0863 82.8019C55.5923 89.8614 51.2759 91.9847 49.4864 91.9512C47.78 91.9194 42.9171 89.4766 31.3221 82.8268Z" fill="#BB67CB"/>
<path d="M47.4303 68.2182C47.2739 68.0617 51.9695 69.553 58.9095 65.4351C61.2047 63.9204 63.4545 61.7716 65.9762 59.3511C71.6659 62.3177 71.7206 62.3247 86.7292 71.6547C86.8617 72.0736 78.831 76.8114 71.2824 81.1014C53.3192 91.3102 51.272 91.9919 49.5823 91.9767C46.0465 83.4914 47.4259 75.9899 47.4303 68.2182ZM23.3194 33.9215C18.3932 31.08 13.6558 27.5135 13.6531 27.0919C13.6504 26.6704 18.4578 23.8035 23.9447 20.7211C29.4317 17.6387 36.5123 13.6624 40.3056 11.4934C44.6062 9.03435 48.8005 6.45285 49.9248 7.10134C55.4775 10.3039 59.8876 12.2919 80.9247 24.5367L85.6098 27.2637L84.0926 28.4923C82.4729 29.8039 66.015 39.2387 65.3469 39.2387C65.1281 39.2387 63.9049 39.1265 62.2372 37.6587C54.6761 31.0031 47.782 30.456 36.9383 37.628C35.4507 38.9719 34.5747 40.1656 34.2478 40.1242C33.9209 40.0828 28.2457 36.763 23.3194 33.9215Z" fill="#7620A2"/>
<path d="M30.7402 82.523C21.5333 77.2418 13.5766 72.8444 13.7761 71.8934C13.7761 71.8934 18.6242 68.7755 23.6168 65.7667L33.4502 59.8406L35.973 62.6435C39.0659 66.0797 44.9322 67.8624 46.4799 68.0932C50.8673 68.4308 50.2441 70.6533 50.2441 70.6533L49.9132 80.0263C49.7406 84.916 49.5822 91.9766 49.5822 91.9766C48.5743 92.0585 48.5984 91.9405 47.2133 91.3695C46.2664 90.9455 39.9471 87.8043 30.7402 82.523ZM61.1 37.2684C58.6473 35.1924 57.313 34.502 51.2421 32.6229L49.4651 32.4816L49.4371 19.6242C49.4411 9.02154 48.8998 7.36496 50.1732 7.16626C66.7086 16.5226 67.1343 16.9562 85.93 27.3678C85.9981 28.0495 85.5674 28.6759 84.5487 29.2369C82.7411 30.7006 65.7828 40.6673 65.0616 40.643C64.7858 40.6334 63.2571 39.2142 61.7563 37.7969L61.1 37.2684Z" fill="#471584"/>
</svg>
