<svg width="100" height="100" viewBox="0 0 100 100" fill="none" xmlns="http://www.w3.org/2000/svg">
<rect width="100" height="100" rx="24" fill="white"/>
<path d="M57.8909 88.5179L43.1368 74.1309L74.823 41.7734L90.0987 56.7448L57.8909 88.5179Z" fill="#8AB4F8"/>
<path d="M57.9537 24.9089L43.2528 9.89893L11.1078 41.7397C6.96408 45.8834 6.96408 52.6012 11.1078 56.7497L42.7698 88.6194L57.7412 74.6139L33.618 49.2447L57.9537 24.9089Z" fill="#4285F4"/>
<path d="M89.8862 41.9859L58.0116 10.1114C53.8631 5.96287 47.1356 5.96287 42.9871 10.1114C38.8386 14.2599 38.8386 20.9874 42.9871 25.1359L74.8617 57.0104C79.0102 61.159 85.7377 61.159 89.8862 57.0104C94.0347 52.8619 94.0347 46.1345 89.8862 41.9859Z" fill="#8AB4F8"/>
<path d="M50.2556 91.9999C55.9901 91.9999 60.6389 87.3511 60.6389 81.6165C60.6389 75.882 55.9901 71.2332 50.2556 71.2332C44.521 71.2332 39.8722 75.882 39.8722 81.6165C39.8722 87.3511 44.521 91.9999 50.2556 91.9999Z" fill="#246FDB"/>
</svg>
