<svg width="100" height="100" viewBox="0 0 100 100" fill="none" xmlns="http://www.w3.org/2000/svg">
<rect width="100" height="100" rx="24" fill="#F06A35"/>
<path d="M66.0964 84.7729C71.1772 84.0798 75.1586 82.0434 78.8937 78.2275C81.5958 75.467 83.2872 72.479 84.3926 68.5135C84.8518 66.8661 84.8903 66.064 84.9744 56.3914C85.0379 49.091 84.985 45.6719 84.7948 44.8087C84.5193 43.5576 83.7383 42.3958 82.8471 41.9113C82.5729 41.7623 80.8158 41.5723 78.9425 41.4891C75.8034 41.3498 75.4522 41.2886 74.4614 40.7079C72.8898 39.7869 72.4569 38.7923 72.4526 36.0921C72.4444 30.9328 70.2974 26.143 66.0551 21.82C63.0328 18.7402 59.6613 16.6555 55.8135 15.4874C54.8924 15.2078 52.8298 15.1126 45.9211 15.031C35.0808 14.9029 32.6746 15.1251 28.9841 16.595C22.1803 19.3051 17.2917 25.0165 15.5084 32.3386C15.1735 33.7138 15.1085 35.9179 15.0293 48.579C14.9302 64.4407 15.0396 66.7699 16.0307 69.9133C16.8495 72.5103 17.6757 74.1018 19.3778 76.3606C22.6203 80.6637 27.4797 83.7714 32.3381 84.6491C34.6501 85.0668 63.1751 85.1714 66.0964 84.7729Z" fill="white"/>
<path d="M36.117 41.2295C33.5195 40.5136 32.549 36.7869 34.4581 34.8596C35.6782 33.6277 36.0155 33.5808 43.653 33.5808C50.5095 33.5808 50.7399 33.5958 51.7471 34.1045C53.2026 34.8398 53.835 35.8765 53.835 37.527C53.835 39.0177 53.241 40.0623 51.9162 40.9018C51.2049 41.3526 50.7798 41.3806 44.0619 41.4201C39.9137 41.4445 36.6092 41.3651 36.117 41.2295ZM35.7915 66.3088C34.6766 65.823 33.6383 64.4734 33.4589 63.2768C33.2879 62.137 33.8608 60.5699 34.7389 59.7753C35.8458 58.7735 36.3316 58.7401 49.9437 58.7294C63.9462 58.7184 63.8733 58.7125 65.2011 59.9523C67.0765 61.7033 66.6809 64.8209 64.4209 66.1008L62.0986 66.4785L49.9944 66.6202C39.3581 66.7447 36.3451 66.55 35.7915 66.3088Z" fill="#F06A35"/>
</svg>
