<svg width="100" height="100" viewBox="0 0 100 100" fill="none" xmlns="http://www.w3.org/2000/svg">
<rect width="100" height="100" rx="24" fill="white"/>
<g clip-path="url(#clip0_392_236)">
<path d="M37.3051 58.3566C22.8192 39.1917 7.94697 53.7549 11.8292 67.1496C21.5942 88.5068 46.8238 97.9041 68.181 88.1391C75.5425 84.7732 81.7904 79.376 86.1904 72.5818C74.9927 83.0696 54.6593 81.3168 37.3051 58.3566Z" fill="#255FDB"/>
<path d="M50.2555 45.1601C30.3325 14.9425 8.00004 31.046 8.00004 49.5059C7.99198 55.6196 9.30991 61.6623 11.8629 67.2174C9.21203 54.7064 23.5869 45.0587 36.9719 63.0165C56.4072 89.0912 75.4804 84.5039 86.1517 72.64C89.5789 67.379 91.7924 61.4213 92.6318 55.1989V55.281C88.0494 69.4965 67.827 71.8094 50.2555 45.1601Z" fill="#4285F4"/>
<path d="M63.911 31.6397C49.116 7.23092 30.3567 9.42794 17.6574 22.5087C11.3974 30.1112 7.98245 39.6576 8.00007 49.5057C9.32795 31.6397 30.9361 19.206 50.4922 49.5057C67.8753 76.4737 89.5318 69.4481 92.6125 55.3581V55.2229C92.8821 53.3037 92.9967 51.366 92.9553 49.4285V47.497C85.4274 52.8858 75.5287 50.8046 63.911 31.6397Z" fill="#91BFFF"/>
<path d="M64.0124 35.9856C77.5616 57.7676 89.2421 52.1954 92.9843 47.5357C92.833 44.2798 92.3064 41.0522 91.415 37.917C85.0991 38.0474 83.6263 36.9948 77.4119 27.5306C67.9139 12.9771 55.9485 3.15076 35.0405 9.91087C28.2663 12.5679 22.2829 16.9108 17.6573 22.5281C32.0226 9.30729 49.6471 12.895 64.0124 35.9856Z" fill="#C4E1FF"/>
<path d="M76.4848 29.4042C82.68 38.8828 86.4511 39.3657 91.415 37.9171C84.9789 15.3103 61.435 2.20139 38.8283 8.6375C37.5464 9.00242 36.2825 9.42738 35.0405 9.91093C53.7177 4.01996 66.9627 14.8458 76.4848 29.4042Z" fill="#F5F5F5"/>
<path d="M50.4922 91.9979C73.96 91.9979 92.9843 72.9735 92.9843 49.5058C92.9843 26.038 73.96 7.01367 50.4922 7.01367C27.0245 7.01367 8.00012 26.038 8.00012 49.5058C8.00012 72.9735 27.0245 91.9979 50.4922 91.9979Z" fill="url(#paint0_radial_392_236)" fill-opacity="0.1"/>
<path d="M50.4922 7.49654C73.8658 7.49654 92.8515 26.3737 92.9843 49.7472V49.5058C92.9843 26.0381 73.9599 7.01367 50.4922 7.01367C27.0245 7.01367 8.00012 26.0381 8.00012 49.5058V49.7472C8.13289 26.3737 27.1187 7.49654 50.4922 7.49654Z" fill="white" fill-opacity="0.2"/>
<path d="M50.4922 91.5151C27.1187 91.5151 8.13291 72.638 8.00012 49.2644V49.5058C8.00012 72.9736 27.0245 91.9979 50.4922 91.9979C73.96 91.9979 92.9843 72.9736 92.9843 49.5058V49.2644C92.8515 72.638 73.8658 91.5151 50.4922 91.5151Z" fill="#1A237E" fill-opacity="0.2"/>
</g>
<defs>
<radialGradient id="paint0_radial_392_236" cx="0" cy="0" r="1" gradientUnits="userSpaceOnUse" gradientTransform="translate(20.8344 19.8484) scale(84.4241 84.4241)">
<stop stop-color="white"/>
<stop offset="1" stop-color="white" stop-opacity="0"/>
</radialGradient>
<clipPath id="clip0_392_236">
<rect width="84.9843" height="85" fill="white" transform="translate(8 7)"/>
</clipPath>
</defs>
</svg>
