<svg width="100" height="100" viewBox="0 0 100 100" fill="none" xmlns="http://www.w3.org/2000/svg">
<rect width="100" height="100" rx="24" fill="white"/>
<path d="M89.0684 10C91.1711 10 92.5899 12.1474 91.759 14.0774L62.1241 84.9726C60.9993 87.5673 58.4365 89.2481 55.6053 89.2481H35.3523C33.2496 89.2481 31.7797 87.1711 32.6169 85.241L34.9369 79.6744L39.9985 50.1162L54.7041 32.2406L62.1944 14.2756C63.3128 11.6808 65.409 10 68.2402 10H89.0684Z" fill="#4285F4"/>
<path d="M54.8063 31.9915C49.6552 26.9873 42.5995 23.9388 34.8409 24.0219C19.298 24.1945 6.82921 36.8997 7.00177 52.3979C7.16794 67.6531 19.5217 79.9238 34.7386 80.1411C34.8089 79.9494 48.3514 58.693 48.3514 58.693C48.3514 58.693 54.8063 32.0043 54.8063 31.9915Z" fill="#FBBC04"/>
<path d="M54.8062 31.9912C54.8062 31.9912 34.7194 80.1472 34.7385 80.1472C34.9814 80.1536 35.2243 80.1536 35.4671 80.1472C51.0164 79.9747 63.4788 67.2758 63.3062 51.7713C63.2231 44.0126 59.9765 37.0209 54.8062 31.9912Z" fill="#EA4335"/>
</svg>
