<svg width="100" height="100" viewBox="0 0 100 100" fill="none" xmlns="http://www.w3.org/2000/svg">
<rect width="100" height="100" rx="24" fill="white"/>
<path d="M71.2031 73.6391V82.554C71.2031 87.7696 66.9871 92 61.786 92C56.5848 92 52.3689 87.7744 52.3689 82.554V59.2141L71.2031 73.6391Z" fill="#34A853"/>
<path d="M71.2031 16.446V73.6391L52.3689 59.2141V36.4682L67.7791 23.7286C70.0392 21.8645 71.2031 19.1649 71.2031 16.446Z" fill="url(#paint0_linear_392_251)"/>
<path d="M71.1982 16.1177C71.2031 16.2239 71.2031 16.3302 71.2031 16.4412C71.2031 19.1601 70.0392 21.8597 67.7791 23.7238L52.3689 36.4634V16.4461C52.3689 13.3553 53.8515 10.6026 56.155 8.87859C56.3192 8.75303 56.4834 8.63712 56.6621 8.52605C56.7442 8.47293 56.8215 8.41981 56.9036 8.37151C57.0533 8.27493 57.2127 8.188 57.3575 8.11073L57.7729 7.90307L58.1206 7.74371C58.2606 7.68576 58.4007 7.62781 58.5504 7.57468C58.6904 7.52156 58.8401 7.47327 58.985 7.42498C59.2554 7.34288 59.5307 7.26561 59.8156 7.20766C59.8977 7.18834 59.9847 7.17385 60.0764 7.15454C60.1392 7.14488 60.202 7.13522 60.2648 7.12556C60.3758 7.10624 60.4869 7.09176 60.598 7.07727C60.7284 7.05795 60.8588 7.04346 60.994 7.0338C61.1002 7.02415 61.2065 7.01449 61.3127 7.00966C61.4672 7.00483 61.6266 7 61.786 7H61.7908C62.1337 7 62.4669 7.01932 62.805 7.05312C62.9691 7.07244 63.1382 7.09659 63.312 7.12556C63.4762 7.14971 63.6404 7.18351 63.8143 7.22215C63.9785 7.25595 64.1427 7.29941 64.3069 7.34771C64.4421 7.38151 64.5821 7.42498 64.7173 7.47327C64.983 7.5602 65.2486 7.65678 65.4997 7.76785C65.6252 7.82098 65.7508 7.87893 65.8764 7.93688C66.0357 8.01415 66.1951 8.09624 66.3496 8.17834C66.5814 8.30873 66.8036 8.44395 67.0257 8.59366C67.0499 8.61298 67.074 8.62746 67.0982 8.64195C67.3348 8.80615 67.5618 8.98483 67.7888 9.16834C67.8998 9.26493 68.0109 9.35668 68.122 9.4581L68.1316 9.46776C68.2379 9.56917 68.3441 9.67059 68.4504 9.77683C68.5566 9.88307 68.6629 9.99415 68.7643 10.1004C68.9719 10.3225 69.1603 10.5592 69.339 10.8006C69.4645 10.9648 69.5804 11.1387 69.6915 11.3077C69.7446 11.3898 69.7977 11.4671 69.846 11.5492C69.9426 11.6989 70.0295 11.8582 70.1068 12.0031C70.1648 12.119 70.2565 12.3074 70.3145 12.4184C70.3676 12.5343 70.4207 12.6502 70.469 12.7661C70.527 12.9062 70.5849 13.0511 70.638 13.196C70.6912 13.336 70.7394 13.4857 70.7829 13.6306C70.8457 13.8382 70.8988 14.0459 70.9471 14.2487C70.9761 14.3453 70.9954 14.4371 71.0099 14.5337C71.0389 14.6689 71.063 14.7993 71.0871 14.9297C71.1065 15.0359 71.1161 15.1422 71.1306 15.2484C71.1499 15.3788 71.1644 15.5092 71.1741 15.6444C71.1837 15.7506 71.1934 15.8569 71.1982 15.9631C71.1934 16.0114 71.1982 16.0645 71.1982 16.1177Z" fill="#EA4335"/>
<path d="M55.7881 9.15369C55.904 9.0571 56.0247 8.96534 56.1455 8.87842C53.8516 10.6025 52.369 13.3503 52.369 16.4459V36.468L44.3717 43.089C42.6235 44.5426 40.5083 45.2428 38.3979 45.2428C35.6887 45.2428 32.9988 44.0741 31.1443 41.8092C27.8459 37.7816 28.4158 31.8319 32.4192 28.5191L55.7881 9.15369Z" fill="#FBBC04"/>
<defs>
<linearGradient id="paint0_linear_392_251" x1="61.786" y1="74.0834" x2="61.786" y2="16.4233" gradientUnits="userSpaceOnUse">
<stop stop-color="#1A73E8"/>
<stop offset="1" stop-color="#4285F4"/>
</linearGradient>
</defs>
</svg>
