<svg width="100" height="100" viewBox="0 0 100 100" fill="none" xmlns="http://www.w3.org/2000/svg">
<rect width="100" height="100" rx="24" fill="white"/>
<path d="M84.5641 27.2738C84.0781 25.7186 82.9117 24.455 81.4537 23.6774L51.8073 9.48601C51.0297 9.0972 50.1549 9 49.3773 9C48.5996 9 47.7248 9 46.9472 9.1944L17.3008 23.483C15.8428 24.1634 14.7736 25.427 14.3848 27.0794L7.09471 59.0586C6.80311 60.7111 7.19191 62.3635 8.16392 63.7243L28.6734 89.0938C29.8398 90.2602 31.4922 91.0378 33.1446 91.135H65.8043C67.5539 91.3295 69.2063 90.5518 70.2755 89.0938L90.785 63.7243C91.757 62.3635 92.1458 60.7111 91.9514 59.0586L84.5641 27.2738Z" fill="#326DE6"/>
<path d="M79.9958 57.7952C79.8986 57.7952 79.8014 57.7952 79.8014 57.698C79.8014 57.6008 79.607 57.6008 79.4126 57.6008C79.0237 57.5036 78.6349 57.5036 78.2461 57.5036C78.0517 57.5036 77.8573 57.5036 77.6629 57.4064H77.5657C76.4965 57.3092 75.3301 57.1148 74.2609 56.8232C73.9693 56.726 73.6777 56.4344 73.5805 56.1428L72.8029 55.9484C73.1917 53.1295 72.9973 50.2135 72.4141 47.3947C71.7337 44.5758 70.5672 41.8542 69.012 39.4242L69.5952 38.841V38.7438C69.5952 38.4521 69.6924 38.0633 69.8868 37.8689C70.7616 37.0913 71.6364 36.5081 72.6085 35.9249C72.8029 35.8277 72.9973 35.7305 73.1917 35.6333C73.5805 35.4389 73.8721 35.2445 74.2609 35.0501C74.3581 34.9529 74.4553 34.9529 74.5525 34.8557C74.6497 34.7585 74.5525 34.7585 74.5525 34.6613C75.4273 33.9809 75.6217 32.8145 74.9413 31.9397C74.6497 31.5509 74.0665 31.2593 73.5805 31.2593C73.0945 31.2593 72.6085 31.4537 72.2197 31.7453L72.1225 31.8425C72.0253 31.9397 71.9281 32.0369 71.8308 32.0369C71.5392 32.3285 71.2476 32.6201 71.0532 32.9117C70.956 33.1061 70.7616 33.2033 70.6644 33.3005C69.984 34.0781 69.1092 34.8557 68.2344 35.4389C68.04 35.5361 67.8456 35.6333 67.6512 35.6333C67.554 35.6333 67.3596 35.6333 67.2624 35.5361H67.1652L66.3876 36.0221C65.61 35.2445 64.7352 34.4669 63.9576 33.6893C60.3611 30.8705 55.8898 29.1208 51.3214 28.6348L51.2242 27.8572V27.9544C50.9326 27.76 50.8354 27.4684 50.7382 27.1768C50.7382 26.1076 50.7382 25.0384 50.9326 23.872V23.7748C50.9326 23.5804 51.0298 23.386 51.0298 23.1916C51.127 22.8027 51.127 22.4139 51.2242 22.0251V21.4419C51.3214 20.4699 50.5438 19.4979 49.5718 19.4007C48.9886 19.3035 48.4054 19.5951 47.9193 20.0811C47.5305 20.4699 47.3361 20.9559 47.3361 21.4419V21.9279C47.3361 22.3167 47.4333 22.7055 47.5305 23.0944C47.6277 23.2888 47.6277 23.4832 47.6277 23.6776V23.7748C47.8221 24.844 47.8221 25.9132 47.8221 27.0796C47.7249 27.3712 47.6277 27.6628 47.3361 27.8572V28.0516L47.2389 28.8292C46.1697 28.9264 45.1005 29.1208 43.9341 29.3152C39.3656 30.2872 35.186 32.7173 31.9783 36.1193L31.3951 35.7305H31.2979C31.2007 35.7305 31.1035 35.8277 30.9091 35.8277C30.7147 35.8277 30.5203 35.7305 30.3259 35.6333C29.4511 34.9529 28.5763 34.1753 27.8959 33.3977C27.7987 33.2033 27.6043 33.1061 27.5071 33.0089C27.2155 32.7173 27.0211 32.4257 26.7295 32.1341C26.6323 32.0369 26.5351 32.0369 26.4379 31.9397C26.3407 31.8425 26.3407 31.8425 26.3407 31.8425C25.9519 31.5509 25.4659 31.3565 24.9799 31.3565C24.3966 31.3565 23.9106 31.5509 23.619 32.0369C23.0358 32.9117 23.2302 34.0781 24.0078 34.7585C24.105 34.7585 24.105 34.8557 24.105 34.8557C24.105 34.8557 24.2994 35.0501 24.3966 35.0501C24.6883 35.2445 25.0771 35.4389 25.4659 35.6333C25.6603 35.7305 25.8547 35.8277 26.0491 35.9249C27.0211 36.5081 27.9931 37.0913 28.7707 37.8689C28.9651 38.0633 29.1595 38.4521 29.0623 38.7438V38.6466L29.6455 39.2298C29.5483 39.4242 29.4511 39.5214 29.3539 39.7158C26.3407 44.4786 25.0771 50.1163 25.9519 55.6568L25.1743 55.8512C25.1743 55.9484 25.0771 55.9484 25.0771 55.9484C24.9799 56.24 24.6883 56.4344 24.3966 56.6288C23.3274 56.9204 22.2582 57.1148 21.0918 57.212C20.8974 57.212 20.703 57.212 20.5086 57.3092C20.1198 57.3092 19.731 57.4064 19.3422 57.4064C19.245 57.4064 19.1478 57.5036 18.9534 57.5036C18.8562 57.5036 18.8562 57.5036 18.759 57.6008C17.6898 57.7952 17.0094 58.7672 17.2038 59.8364C17.3982 60.7112 18.273 61.2944 19.1478 61.1972C19.3422 61.1972 19.4394 61.1972 19.6338 61.1C19.731 61.1 19.731 61.1 19.731 61.0028C19.731 60.9056 20.0226 61.0028 20.1198 61.0028C20.5086 60.9056 20.8974 60.7112 21.189 60.614C21.3834 60.5168 21.5778 60.4196 21.7722 60.4196H21.8694C22.9386 60.0308 23.9106 59.7392 25.0771 59.5448H25.1743C25.4659 59.5448 25.7575 59.642 25.9519 59.8364C26.0491 59.8364 26.0491 59.9336 26.0491 59.9336L26.9239 59.8364C28.3819 64.3077 31.1035 68.2929 34.8944 71.209C35.7692 71.8894 36.5468 72.4726 37.5188 72.9586L37.0328 73.639C37.0328 73.7362 37.13 73.7362 37.13 73.7362C37.3244 74.0278 37.3244 74.4166 37.2272 74.7082C36.8384 75.6802 36.2552 76.6522 35.672 77.5271V77.6242C35.5748 77.8187 35.4776 77.9159 35.2832 78.1103C35.0888 78.3047 34.8944 78.6935 34.6028 79.0823C34.5056 79.1795 34.5056 79.2767 34.4084 79.3739C34.4084 79.3739 34.4084 79.4711 34.3112 79.4711C33.8252 80.4431 34.214 81.6095 35.0888 82.0955C35.2832 82.1927 35.5748 82.2899 35.7692 82.2899C36.5468 82.2899 37.2272 81.8039 37.616 81.1235C37.616 81.1235 37.616 81.0263 37.7132 81.0263C37.7132 80.9291 37.8104 80.8319 37.9076 80.7347C38.0048 80.3459 38.1992 80.0543 38.2964 79.6655L38.4908 79.0823C38.7824 78.0131 39.2684 77.041 39.7544 76.069C39.9488 75.7774 40.2404 75.583 40.5321 75.4858C40.6293 75.4858 40.6293 75.4858 40.6293 75.3886L41.0181 74.611C43.7397 75.6802 46.5585 76.1662 49.4746 76.1662C51.2242 76.1662 52.9738 75.9718 54.7234 75.4858C55.7926 75.2914 56.8619 74.9026 57.8339 74.611L58.2227 75.2914C58.3199 75.2914 58.3199 75.2914 58.3199 75.3886C58.6115 75.4858 58.9031 75.6802 59.0975 75.9718C59.5835 76.9438 60.0695 77.9159 60.3611 78.9851V79.0823L60.5555 79.6655C60.6527 80.0543 60.7499 80.4431 60.9443 80.7347C61.0415 80.8319 61.0415 80.9291 61.1387 81.0263C61.1387 81.0263 61.1387 81.1235 61.2359 81.1235C61.6247 81.8039 62.3051 82.2899 63.0827 82.2899C63.3743 82.2899 63.5687 82.1927 63.8604 82.0955C64.2492 81.9011 64.638 81.5123 64.7352 81.0263C64.8324 80.5403 64.8324 80.0543 64.638 79.5683C64.638 79.4711 64.5408 79.4711 64.5408 79.4711C64.5408 79.3739 64.4436 79.2767 64.3464 79.1795C64.152 78.7907 63.9576 78.4991 63.6659 78.2075C63.5687 78.0131 63.4715 77.9159 63.2771 77.7215V77.5271C62.5967 76.6522 62.1107 75.6802 61.7219 74.7082C61.6247 74.4166 61.6247 74.0278 61.8191 73.7362C61.8191 73.639 61.9163 73.639 61.9163 73.639L61.6247 72.8614C66.582 69.8481 70.3728 65.1825 72.1225 59.642L72.9001 59.7392C72.9973 59.7392 72.9973 59.642 72.9973 59.642C73.1917 59.4476 73.4833 59.3504 73.7749 59.3504H73.8721C74.9413 59.5448 76.0105 59.8364 76.9825 60.2252H77.0797C77.2741 60.3224 77.4685 60.4196 77.6629 60.4196C78.0517 60.614 78.3433 60.8084 78.7321 60.9056C78.8293 60.9056 78.9265 61.0028 79.1209 61.0028C79.2181 61.0028 79.2181 61.0028 79.3153 61.1C79.5098 61.1972 79.607 61.1972 79.8014 61.1972C80.6762 61.1972 81.4538 60.614 81.7454 59.8364C81.6482 58.7672 80.8706 57.9896 79.9958 57.7952ZM51.9046 54.782L49.2802 56.0456L46.6557 54.782L45.9753 51.9631L47.8221 49.6303H50.7382L52.585 51.9631L51.9046 54.782ZM67.7484 48.4639C68.2344 50.5051 68.3316 52.5463 68.1372 54.5876L58.9031 51.9631C58.0283 51.7687 57.5423 50.8939 57.7367 50.0191C57.8339 49.7275 57.9311 49.5331 58.1255 49.3387L65.4156 42.729C66.4848 44.4786 67.2624 46.4226 67.7484 48.4639ZM62.4995 39.1326L54.529 44.7702C53.8486 45.159 52.8766 45.0618 52.3906 44.3814C52.1962 44.187 52.099 43.9926 52.099 43.701L51.5158 33.8837C55.7926 34.3697 59.5835 36.2165 62.4995 39.1326ZM44.9061 34.1753L46.8501 33.7865L46.3641 43.5066C46.3641 44.3814 45.5865 45.0618 44.7117 45.0618C44.4201 45.0618 44.2257 44.9646 43.9341 44.8674L35.8664 39.1326C38.3936 36.7025 41.5041 34.9529 44.9061 34.1753ZM33.0476 42.729L40.2404 49.1443C40.9209 49.7275 41.0181 50.6995 40.4348 51.3799C40.2404 51.6715 40.046 51.7687 39.6572 51.8659L30.2287 54.5876C29.9371 50.5051 30.9091 46.3255 33.0476 42.729ZM31.3951 59.156L41.0181 57.5036C41.7957 57.5036 42.5733 57.9896 42.6705 58.7672C42.7677 59.0588 42.7677 59.4476 42.5733 59.7392L38.8796 68.6817C35.4776 66.4461 32.756 63.0441 31.3951 59.156ZM53.4598 71.209C52.099 71.5006 50.7382 71.695 49.2802 71.695C47.2389 71.695 45.1005 71.3062 43.1565 70.723L47.9193 62.072C48.4054 61.4888 49.183 61.2944 49.8634 61.6832C50.155 61.8777 50.3494 62.0721 50.641 62.3637L55.3066 70.8202C54.7234 70.9174 54.1402 71.0146 53.4598 71.209ZM65.3184 62.7525C63.8604 65.0853 61.8191 67.1265 59.4863 68.5845L55.6954 59.4476C55.501 58.67 55.8898 57.8924 56.5703 57.6008C56.8619 57.5036 57.1535 57.4064 57.4451 57.4064L67.1652 59.0588C66.6792 60.4196 66.096 61.6832 65.3184 62.7525Z" fill="white"/>
</svg>
