<svg width="100" height="100" viewBox="0 0 100 100" fill="none" xmlns="http://www.w3.org/2000/svg">
<rect width="100" height="100" rx="24" fill="white"/>
<path d="M50.5 91.9999C73.9721 91.9999 92.9999 72.9721 92.9999 49.5C92.9999 26.0279 73.9721 7 50.5 7C27.0279 7 8 26.0279 8 49.5C8 72.9721 27.0279 91.9999 50.5 91.9999Z" fill="#0535C1"/>
<path d="M78.5112 36.7808H75.9691C74.704 33.1666 71.014 30.9943 67.24 31.6418C63.4659 32.2892 60.7112 35.5674 60.7232 39.3963C60.7242 43.731 64.2377 47.2444 68.5721 47.2456H78.5114C81.3333 47.1516 83.5724 44.8367 83.5724 42.0131C83.5724 39.1895 81.3333 36.8747 78.5112 36.7808Z" fill="#EAEAEA"/>
<path d="M83.7446 42.0778V42.0141C83.7436 39.1242 81.4012 36.7819 78.5113 36.7808H75.8958V36.9121H78.5113C81.3748 36.9119 83.7066 39.2129 83.7446 42.0758V42.0778Z" fill="white" fill-opacity="0.2"/>
<path d="M68.5721 31.5516L72.8145 44.9507C74.2323 43.5268 76.4192 41.5639 76.4192 39.3984C76.4182 35.0641 72.9046 31.5506 68.5703 31.5496L68.5721 31.5516Z" fill="#E1E1E1"/>
<path d="M68.5722 47.2474C72.9071 47.2474 76.4212 43.7333 76.4212 39.3984C76.4212 35.0635 72.9071 31.5493 68.5722 31.5493C64.2373 31.5493 60.7231 35.0635 60.7231 39.3984C60.7231 43.7333 64.2373 47.2474 68.5722 47.2474Z" fill="#EEEEEE"/>
<path d="M68.572 31.6808C72.881 31.6828 76.3831 35.1572 76.4191 39.4661V39.4024C76.4207 35.0681 72.9084 31.5532 68.574 31.5515C64.2397 31.5499 60.7248 35.0622 60.7231 39.3966V39.4603C60.7623 35.1531 64.2646 31.6817 68.572 31.6808Z" fill="white" fill-opacity="0.2"/>
<path d="M78.5112 47.1144H68.5702C64.2613 47.1122 60.7592 43.6377 60.7231 39.3291V39.3929C60.7251 43.7265 64.2384 47.2387 68.572 47.2397H78.5114C81.4004 47.2387 83.7425 44.8976 83.7445 42.0086V41.9447C83.7087 44.8096 81.3763 47.1134 78.5112 47.1144Z" fill="#212121" fill-opacity="0.1"/>
<path d="M38.9092 24.8691H61.125V44.1874H38.9092V24.8691Z" fill="#FFF176"/>
<path d="M36.4941 54.3293H63.0566V80.8918H36.4941V54.3293Z" fill="white"/>
<path d="M65.9543 42.2557H69.8181V49.9829H31.1816V42.2557H35.0453V26.8011L50.4999 17.1418L65.9543 26.801V42.2557ZM58.2271 42.2557V31.0838L50.4999 26.2544L42.7727 31.0838V42.2557H58.2271Z" fill="#F4481E"/>
<path d="M29.4663 86.4382L36.0113 42.2556H64.9887L71.5336 86.4382C65.1271 90.094 57.8762 92.0113 50.5 91.9998C43.1238 92.0113 35.8728 90.094 29.4663 86.4382ZM59.1527 55.587L40.9742 61.4928L38.7643 76.406L61.158 69.1289L59.1527 55.587Z" fill="#F4481E"/>
<path d="M38.9092 46.6022H35.9747C34.5088 42.4394 30.2547 39.9402 25.9047 40.6867C21.5548 41.4335 18.3774 45.2082 18.3836 49.6217C18.3869 54.6217 22.44 58.674 27.44 58.6762H38.9092C42.1839 58.5932 44.7953 55.9148 44.7953 52.6392C44.7953 49.3635 42.1839 46.685 38.9092 46.6022Z" fill="#FAFAFA"/>
<path d="M44.946 52.7106V52.6392C44.946 49.3066 42.2416 46.6021 38.9091 46.6021H35.8896V46.7528H38.9091C42.212 46.7536 44.9016 49.4079 44.946 52.7106Z" fill="white" fill-opacity="0.2"/>
<path d="M27.44 40.5655L32.3333 56.0238C33.9695 54.3819 36.4925 52.1177 36.4925 49.618C36.4892 44.6186 32.4374 40.5668 27.438 40.5635L27.44 40.5655Z" fill="#E1E1E1"/>
<path d="M27.4399 58.6781C32.4415 58.6781 36.4962 54.6234 36.4962 49.6217C36.4962 44.6201 32.4415 40.5654 27.4399 40.5654C22.4382 40.5654 18.3835 44.6201 18.3835 49.6217C18.3835 54.6234 22.4382 58.6781 27.4399 58.6781Z" fill="white"/>
<path d="M27.44 40.7161C32.4115 40.7191 36.452 44.7275 36.4945 49.699V49.6275C36.4949 48.4383 36.261 47.2607 35.8063 46.1619C35.3516 45.0631 34.6849 44.0646 33.8443 43.2234C33.0037 42.3823 32.0056 41.7149 30.9071 41.2595C29.8086 40.8041 28.6311 40.5695 27.4419 40.5691C26.2527 40.5687 25.0751 40.8026 23.9763 41.2573C22.8775 41.712 21.879 42.3787 21.0379 43.2193C19.3391 44.917 18.3843 47.22 18.3835 49.6217V49.6931C18.4282 44.7229 22.4695 40.7171 27.44 40.7161Z" fill="white" fill-opacity="0.2"/>
<path d="M38.9092 58.5254H27.438C22.4665 58.5224 18.426 54.5138 18.3835 49.5425V49.6139C18.3857 54.6148 22.4393 58.6682 27.44 58.6703H38.9092C42.2416 58.6703 44.946 55.9658 44.946 52.6334V52.56C44.9059 55.8657 42.2151 58.5246 38.9092 58.5254Z" fill="#212121" fill-opacity="0.1"/>
<path d="M50.5 7.44426C73.8982 7.44426 92.8744 26.3509 92.9961 49.7221L92.9999 49.5C92.9999 26.0284 73.9716 7 50.5 7C27.0284 7 8 26.0284 8 49.5C8 49.5734 8.00581 49.6449 8.00581 49.7221C8.12551 26.3529 27.0979 7.44426 50.5 7.44426Z" fill="white" fill-opacity="0.2"/>
<path d="M92.9961 49.2778C92.8724 72.649 73.8982 91.5557 50.5 91.5557C27.0999 91.5557 8.12551 72.647 8.00581 49.2778C8.00581 49.355 8 49.4266 8 49.5C8 72.9716 27.0284 91.9999 50.5 91.9999C73.9716 91.9999 92.9999 72.9716 92.9999 49.5L92.9961 49.2778Z" fill="#263238" fill-opacity="0.2"/>
</svg>
