<svg width="100" height="100" viewBox="0 0 100 100" fill="none" xmlns="http://www.w3.org/2000/svg">
<rect width="100" height="100" rx="24" fill="white"/>
<path d="M63.2854 49.3156C63.1373 42.8778 57.8362 37.7559 51.395 37.8316H20.7355V60.7961H40.593V80.1095C40.2486 86.3234 45.0054 91.6417 51.2193 91.9861C51.3537 91.993 51.4914 91.9999 51.6258 91.9999C58.129 91.9345 63.3474 86.6127 63.282 80.1095L63.2854 49.3156Z" fill="#B366F6"/>
<path d="M20.6011 61.0547C27.0082 61.0547 32.2022 55.8607 32.2022 49.4536C32.2022 43.0465 27.0082 37.8525 20.6011 37.8525C14.194 37.8525 9 43.0465 9 49.4536C9 55.8607 14.194 61.0547 20.6011 61.0547Z" fill="#8430CE"/>
<path d="M91.5922 18.5425C91.5302 12.1495 86.329 7 79.936 7H48.5773C42.6183 7.59934 38.0853 12.6111 38.0853 18.6011C38.0853 24.5911 42.6183 29.5994 48.5773 30.1987H68.6656V49.4914C68.4073 55.8293 73.3364 61.1751 79.6708 61.4335C86.0087 61.6918 91.3546 56.7627 91.6129 50.4283C91.6267 50.1183 91.6267 49.8048 91.6129 49.4948L91.5922 18.5425Z" fill="#C58AF8"/>
</svg>
