<svg width="100" height="100" viewBox="0 0 100 100" fill="none" xmlns="http://www.w3.org/2000/svg">
<rect width="100" height="100" rx="24" fill="white"/>
<path fill-rule="evenodd" clip-rule="evenodd" d="M61.7235 32.6387C65.5686 26.0571 63.2855 17.6458 56.6248 13.8444C49.9613 10.0483 41.4435 12.2986 37.5984 18.8802C37.4289 19.175 37.2695 19.4757 37.1204 19.7814L24.1212 42.0194C23.8336 42.4615 23.5675 42.9172 23.3237 43.3849L9.82471 66.6798L33.9471 80.2006L47.3778 57.1023C47.6704 56.6634 47.9368 56.2074 48.1752 55.7369L61.1744 33.4961C61.363 33.2176 61.5514 32.9336 61.7235 32.6387Z" fill="#FBBC04"/>
<path fill-rule="evenodd" clip-rule="evenodd" d="M34.059 80.1297C30.2357 86.8177 21.6114 89.2783 14.9888 85.4195C8.36359 81.5579 6.01226 73.1848 9.83829 66.4995C13.6643 59.8142 22.2121 57.3427 28.8374 61.2015C35.4627 65.0631 37.8822 73.4443 34.0589 80.1269" fill="#34A853"/>
<path fill-rule="evenodd" clip-rule="evenodd" d="M86.1133 37.0409C79.5288 33.2462 71.1154 35.4933 67.2999 42.0658L53.5278 65.8631C49.7334 72.4222 51.9745 80.8152 58.5336 84.6096C58.5454 84.6165 58.5572 84.6233 58.5691 84.6301C65.1549 88.4262 73.5706 86.1775 77.3852 79.6025L91.1546 55.8078C94.9484 49.2468 92.7052 40.8524 86.1441 37.0586C86.1339 37.0527 86.1236 37.0467 86.1133 37.0409Z" fill="#4285F4"/>
</svg>
