<svg width="100" height="100" viewBox="0 0 100 100" fill="none" xmlns="http://www.w3.org/2000/svg">
<rect width="100" height="100" rx="24" fill="white"/>
<g clip-path="url(#clip0_292_405)">
<path d="M82.1505 37.1826C82.1505 34.9515 83.7694 33.1829 85.81 33.1829C87.8507 33.1829 89.3472 34.8971 89.3472 37.1826C89.3472 39.4681 87.8371 41.2367 85.81 41.2367C83.783 41.2367 82.1505 39.4409 82.1505 37.1826ZM75.1442 43.4134H78.0011V30.979H75.1442V43.4134ZM74.6953 26.8297C74.6953 27.9044 75.5659 28.7751 76.5863 28.7751C77.6066 28.7751 78.4501 27.9044 78.4501 26.8297C78.4501 25.8366 77.6066 24.9931 76.5863 24.9931C75.5659 24.9931 74.6953 25.8366 74.6953 26.8297ZM63.4853 37.1554C63.4853 34.9243 65.1314 33.1829 67.2401 33.1829C69.3488 33.1829 70.9949 34.9243 70.9949 37.1554C70.9949 39.3865 69.3351 41.2367 67.2401 41.2367C65.145 41.2231 63.4853 39.4137 63.4853 37.1554ZM60.5739 37.1554C60.5739 40.883 63.5125 43.8215 67.2401 43.8215C70.9677 43.8215 73.9062 40.883 73.9062 37.1554C73.9062 33.4278 71.0221 30.5981 67.2401 30.5981C63.4581 30.5845 60.5739 33.4414 60.5739 37.1554ZM52.8467 43.4134H55.7036V36.8969C55.7036 34.3121 57.0776 33.1693 59.3632 33.1693C59.7849 33.1693 60.1114 33.1965 60.4107 33.2646V30.7478C60.1114 30.6525 59.5944 30.5709 59.023 30.5709C55.1458 30.5709 52.8603 33.0061 52.8603 36.8833V43.4134H52.8467ZM41.3782 37.1826C41.3782 34.9515 42.9971 33.1829 45.0378 33.1829C47.0784 33.1829 48.5749 34.8971 48.5749 37.1826C48.5749 39.4681 47.0648 41.2367 45.0378 41.2367C43.0107 41.2367 41.3782 39.4409 41.3782 37.1826ZM38.4669 37.1826C38.4669 40.7878 41.351 43.8215 44.7521 43.8215C46.1669 43.8215 47.4593 43.2502 48.2348 42.3115H48.3572V43.427H51.2141V24H48.3572V31.9994H48.2348C47.4866 31.1015 46.1941 30.5845 44.7521 30.5845C41.3374 30.5845 38.4669 33.5911 38.4669 37.1826ZM25.9373 43.4134H28.7942V36.1351C28.7942 34.3937 29.9641 33.1829 31.5831 33.1829C33.202 33.1829 34.372 34.4073 34.372 36.1351V43.4134H37.2289V36.1351C37.2289 33.1013 34.8209 30.5845 31.5831 30.5845C28.3452 30.5845 25.9373 33.1013 25.9373 36.1351V43.4134ZM12.8091 35.9582L15.8972 27.129H16.0469L19.1351 35.9582H12.8091ZM7 43.4134H10.2378L11.8568 38.7879H20.1146L21.7335 43.4134H24.9441L17.761 24H14.1831L7 43.4134ZM85.5379 43.8215C86.9528 43.8215 88.2452 43.2502 89.0207 42.3115H89.1431V43.427H92V24H89.1431V31.9994H89.0207C88.2724 31.1015 86.98 30.5845 85.5379 30.5845C82.1096 30.5845 79.2527 33.5911 79.2527 37.169C79.2527 40.7606 82.1368 43.8215 85.5379 43.8215Z" fill="#202124"/>
<mask id="mask0_292_405" style="mask-type:luminance" maskUnits="userSpaceOnUse" x="27" y="49" width="45" height="28">
<path d="M71.988 49.9299H27.0256V76.1183H71.988V49.9299Z" fill="white"/>
</mask>
<g mask="url(#mask0_292_405)">
<path d="M71.8656 75.1251C71.852 75.0299 71.8384 74.9483 71.8248 74.8531C71.7296 74.2953 71.6207 73.7375 71.4847 73.1797C71.2534 72.2138 70.9541 71.2751 70.6004 70.3772C70.3011 69.6018 69.961 68.8535 69.5801 68.1325C69.0903 67.2074 68.5462 66.3095 67.934 65.4524C67.1857 64.4049 66.3559 63.439 65.458 62.5275C65.077 62.1466 64.6825 61.7793 64.2744 61.4392C63.3901 60.6773 62.4514 59.9835 61.4583 59.3713C61.4719 59.3577 61.4719 59.3441 61.4855 59.3305C61.9344 58.5414 62.397 57.766 62.8459 56.9769C63.2949 56.2151 63.7302 55.4532 64.1792 54.6778C64.4921 54.1336 64.8186 53.5758 65.1315 53.0317C65.2131 52.8956 65.2675 52.7732 65.3083 52.6235C65.4308 52.2426 65.4444 51.8345 65.3355 51.4536C65.3083 51.3583 65.2811 51.2631 65.2403 51.1815C65.1995 51.0862 65.1587 51.0046 65.1043 50.923C64.941 50.6373 64.6961 50.3924 64.3832 50.2156C64.1111 50.0523 63.8119 49.9571 63.499 49.9299C63.3629 49.9163 63.2405 49.9163 63.1044 49.9299C62.9956 49.9435 62.8868 49.9571 62.7915 49.9843C62.4106 50.0795 62.0705 50.2836 61.7984 50.5829C61.7032 50.6917 61.6079 50.8142 61.5399 50.9366C61.227 51.4808 60.9005 52.0386 60.5876 52.5827L59.2544 54.8819C58.8054 55.6709 58.3429 56.4464 57.894 57.2354C57.8395 57.317 57.7987 57.4123 57.7443 57.4939C57.6763 57.4667 57.6083 57.4395 57.5402 57.4123C55.037 56.46 52.3298 55.943 49.4865 55.943C49.4048 55.943 49.3368 55.943 49.2552 55.943C46.7384 55.9702 44.3168 56.4056 42.0449 57.1946C41.7864 57.2898 41.5279 57.3851 41.2694 57.4803C41.2286 57.3987 41.1742 57.317 41.1334 57.2354C40.6844 56.4464 40.2219 55.6709 39.773 54.8819C39.324 54.12 38.8887 53.3582 38.4397 52.5827C38.1268 52.0386 37.8003 51.4808 37.4874 50.9366C37.4058 50.8006 37.3242 50.6917 37.2289 50.5829C36.9569 50.2836 36.6031 50.0795 36.2358 49.9843C36.127 49.9571 36.0182 49.9435 35.9229 49.9299C35.7869 49.9163 35.6644 49.9163 35.5284 49.9299C35.2155 49.9571 34.9162 50.0523 34.6441 50.2156C34.3448 50.3924 34.0999 50.6373 33.9231 50.923C33.8687 51.0046 33.8279 51.0862 33.787 51.1815C33.7462 51.2767 33.719 51.3583 33.6918 51.4536C33.5966 51.8345 33.5966 52.229 33.719 52.6235C33.7598 52.7596 33.8279 52.8956 33.8959 53.0317C34.2088 53.5758 34.5353 54.1336 34.8482 54.6778C35.2971 55.4396 35.7325 56.2015 36.1814 56.9769C36.6304 57.766 37.0929 58.5414 37.5418 59.3305L37.5554 59.3441C36.644 59.9155 35.7733 60.5413 34.9434 61.2351C34.4537 61.6432 33.9775 62.0786 33.5286 62.5275C32.6171 63.4254 31.8008 64.4049 31.0526 65.4524C30.4404 66.3095 29.8962 67.1938 29.4064 68.1325C29.0255 68.8535 28.6854 69.6018 28.3861 70.3772C28.0324 71.2887 27.7331 72.2274 27.5018 73.1797C27.3658 73.7239 27.2569 74.2817 27.1617 74.8531C27.1481 74.9483 27.1345 75.0299 27.1209 75.1251C27.0665 75.4516 27.0257 75.7781 26.9849 76.1183H71.9473C71.9473 75.7781 71.9064 75.4516 71.8656 75.1251Z" fill="#34A853"/>
<path d="M61.1998 69.8875C62.0977 69.2889 62.2337 67.9013 61.4855 66.7994C60.7509 65.6838 59.4176 65.2757 58.5198 65.8743C57.6219 66.4728 57.4858 67.8605 58.2341 68.9624C58.9687 70.078 60.3019 70.4861 61.1998 69.8875Z" fill="#202124"/>
<path d="M40.8205 68.9759C41.5552 67.8603 41.4327 66.4863 40.5349 65.8877C39.637 65.2891 38.3037 65.6972 37.5691 66.8128C36.8345 67.9283 36.9569 69.3024 37.8548 69.901C38.7527 70.4996 40.0723 70.0778 40.8205 68.9759Z" fill="#202124"/>
</g>
</g>
<defs>
<clipPath id="clip0_292_405">
<rect width="85" height="52.1183" fill="white" transform="translate(7 24)"/>
</clipPath>
</defs>
</svg>
