<svg width="100" height="100" viewBox="0 0 100 100" fill="none" xmlns="http://www.w3.org/2000/svg">
<rect width="100" height="100" rx="24" fill="white"/>
<g clip-path="url(#clip0_392_249)">
<path d="M16.1329 52.0737L20.4153 56.3561L29.6638 47.1435L25.4174 42.8611L23.4742 40.9179C21.9268 39.3705 21.0991 37.3552 21.0991 35.16C21.0991 33.2528 21.7468 31.5254 22.8624 30.1579C24.3738 28.2506 26.677 27.0271 29.268 27.0271C31.4632 27.0271 33.4784 27.8908 35.0618 29.4382L36.9691 31.2735L41.2515 35.5919L50.536 26.3793L46.2176 22.097L44.2743 20.2257C40.4238 16.3751 35.1338 14 29.268 14C17.5004 14 8 23.5004 8 35.196C8 38.1109 8.57578 40.8819 9.65538 43.4369C10.735 45.992 12.2824 48.2591 14.2257 50.1664L16.1329 52.0737Z" fill="#EA4335"/>
<path d="M37.3289 57.9754L50.5359 44.8403L41.2514 35.5918L29.6638 47.1434L20.4153 56.356L25.3814 61.3581L29.6638 65.6045L34.1261 61.1422" fill="#FBBC04"/>
<path d="M59.7485 77.1922L80.6206 56.3561L71.3361 47.1436L50.5 67.9437L38.9123 56.3921L29.6638 65.6046L41.2515 77.1922L41.2155 77.2282L50.5 85.9729L59.7845 77.1922H59.7485Z" fill="#34A853"/>
<path d="M86.7743 50.1663C91.0927 45.8479 93.5758 39.2264 92.892 32.5329C91.8844 22.3848 83.4636 14.7556 73.2434 14.0719C66.8018 13.6401 60.9001 16.0512 56.7256 20.2256L41.2515 35.5918L50.5 44.8403L65.9742 29.4381C67.8455 27.6028 70.4365 26.7391 73.0995 27.171C76.5542 27.7108 79.3611 30.5537 79.8289 34.0084C80.1888 36.5994 79.3251 39.1185 77.4898 40.9538L71.3361 47.1434L80.6206 56.356L86.7743 50.1663Z" fill="#4285F4"/>
</g>
<defs>
<clipPath id="clip0_392_249">
<rect width="85" height="71.9729" fill="white" transform="translate(8 14)"/>
</clipPath>
</defs>
</svg>
