<svg width="100" height="100" viewBox="0 0 100 100" fill="none" xmlns="http://www.w3.org/2000/svg">
<rect width="100" height="100" rx="24" fill="white"/>
<path d="M49.5 92C72.9721 92 92 72.9721 92 49.5C92 26.0279 72.9721 7 49.5 7C26.0279 7 7 26.0279 7 49.5C7 72.9721 26.0279 92 49.5 92Z" fill="#FF0000"/>
<path d="M49.5 29.216C60.6562 29.216 69.7841 38.2955 69.7841 49.5001C69.7841 60.7046 60.7045 69.7842 49.5 69.7842C38.2954 69.7842 29.2159 60.7046 29.2159 49.5001C29.2159 38.2955 38.3437 29.216 49.5 29.216ZM49.5 27.2842C37.2329 27.2842 27.2841 37.233 27.2841 49.5001C27.2841 61.7671 37.2329 71.716 49.5 71.716C61.767 71.716 71.7159 61.7671 71.7159 49.5001C71.7159 37.233 61.767 27.2842 49.5 27.2842Z" fill="white"/>
<path d="M41.7727 60.608L60.6079 49.0171L41.7727 38.3921V60.608Z" fill="white"/>
</svg>
