<svg width="100" height="100" viewBox="0 0 100 100" fill="none" xmlns="http://www.w3.org/2000/svg">
<rect width="100" height="100" rx="24" fill="#333333"/>
<path d="M50.9498 54.4212C50.9498 56.3262 49.4056 57.8706 47.5007 57.8706C45.5954 57.8706 44.0513 56.3262 44.0513 54.4212C44.0513 52.5162 45.5954 50.9718 47.5007 50.9718C49.4056 50.9718 50.9498 52.5162 50.9498 54.4212Z" fill="#FF6600"/>
<path d="M57.7721 49.5919C57.7721 51.4966 56.2279 53.0413 54.3229 53.0413C52.4177 53.0413 50.8735 51.4966 50.8735 49.5919C50.8735 47.6869 52.4177 46.1422 54.3229 46.1422C56.2279 46.1422 57.7721 47.6869 57.7721 49.5919Z" fill="#FFCC00"/>
<path d="M49.3404 49.5157C49.3404 51.4204 47.7963 52.9651 45.891 52.9651C43.9863 52.9651 42.4419 51.4204 42.4419 49.5157C42.4419 47.6107 43.9863 46.0661 45.891 46.0661C47.7963 46.0661 49.3404 47.6107 49.3404 49.5157Z" fill="#0089CC"/>
<path d="M56.2389 54.4212C56.2389 56.3262 54.6947 57.8706 52.7892 57.8706C50.8845 57.8706 49.3401 56.3262 49.3401 54.4212C49.3401 52.5162 50.8845 50.9718 52.7892 50.9718C54.6947 50.9718 56.2389 52.5162 56.2389 54.4212Z" fill="#009939"/>
<path d="M53.5562 46.4493C53.5562 48.3543 52.0118 49.8987 50.1069 49.8987C48.2019 49.8987 46.6575 48.3543 46.6575 46.4493C46.6575 44.5443 48.2019 42.9999 50.1069 42.9999C52.0118 42.9999 53.5562 44.5443 53.5562 46.4493Z" fill="#BF0000"/>
<path d="M50.8735 49.592C50.8735 49.6645 50.8799 49.7356 50.8844 49.8071C52.4144 49.4541 53.5563 48.0862 53.5563 46.449C53.5563 46.3765 53.55 46.3052 53.5454 46.2336C52.0154 46.5868 50.8735 47.9547 50.8735 49.592Z" fill="#FC0007"/>
<path d="M51.3289 51.2999C51.9233 52.3391 53.0404 53.0413 54.3234 53.0413C54.8463 53.0413 55.3401 52.9214 55.7843 52.7131C55.1901 51.6738 54.073 50.9717 52.7898 50.9717C52.2669 50.9717 51.7731 51.0915 51.3289 51.2999Z" fill="#1CD306"/>
<path d="M49.3403 54.4211C49.3403 55.2638 49.6432 56.035 50.1454 56.634C50.6471 56.035 50.95 55.2638 50.95 54.4211C50.95 53.5783 50.6471 52.8071 50.1454 52.2081C49.6432 52.8071 49.3403 53.5783 49.3403 54.4211Z" fill="#0F7504"/>
<path d="M44.5251 52.6824C44.9441 52.8635 45.4053 52.9648 45.8908 52.9648C47.1611 52.9648 48.2678 52.2763 48.8666 51.2541C48.4476 51.073 47.9862 50.9719 47.5009 50.9719C46.2306 50.9719 45.1236 51.6604 44.5251 52.6824Z" fill="#0C5E87"/>
<path d="M46.6724 46.158C46.6643 46.2541 46.6575 46.3507 46.6575 46.4491C46.6575 48.085 47.7976 49.4517 49.3258 49.8062C49.3336 49.7101 49.3405 49.6135 49.3405 49.5154C49.3405 47.8794 48.2006 46.5123 46.6724 46.158Z" fill="#6B0001"/>
<path d="M46.9946 53.9939H46.455C45.9787 53.9939 45.5913 53.6078 45.5913 53.1327V48.2487C45.5913 47.7736 45.9787 47.3872 46.455 47.3872H53.2211C53.6974 47.3872 54.0846 47.7736 54.0846 48.2487V53.1327C54.0846 53.6078 53.6974 53.9939 53.2211 53.9939H50.9161L46.2915 56.261L46.9946 53.9939Z" fill="white"/>
<path d="M16.3215 54.7622L14.4219 47.7169L12.4983 54.7622C12.3487 55.2965 12.2284 55.6812 12.1376 55.9163C12.0521 56.1461 11.8998 56.3545 11.6807 56.5415C11.4617 56.7231 11.1705 56.814 10.8071 56.814C10.5132 56.814 10.2701 56.7579 10.0777 56.6457C9.89072 56.5388 9.73844 56.3865 9.62089 56.1888C9.50333 55.9858 9.40715 55.748 9.33234 55.4755C9.25753 55.1976 9.19074 54.9411 9.13196 54.706L7.17633 46.7951C7.05878 46.3356 7 45.9856 7 45.7451C7 45.4405 7.10687 45.1841 7.3206 44.9757C7.53433 44.7673 7.79883 44.6631 8.11408 44.6631C8.5469 44.6631 8.83811 44.802 8.98773 45.0799C9.13734 45.3577 9.26826 45.7612 9.38047 46.2902L10.9194 53.1511L12.6426 46.7311C12.7709 46.2395 12.8857 45.8655 12.9873 45.609C13.0888 45.3525 13.2544 45.1307 13.4842 44.9437C13.714 44.7567 14.0266 44.6632 14.422 44.6632C14.8227 44.6632 15.1326 44.7621 15.3517 44.9598C15.5761 45.1521 15.7311 45.3632 15.8166 45.5929C15.9021 45.8227 16.017 46.2021 16.1612 46.7311L17.9005 53.1511L19.4394 46.2902C19.5142 45.9322 19.5837 45.6516 19.6478 45.4486C19.7173 45.2455 19.8321 45.0639 19.9924 44.9036C20.1581 44.7433 20.3959 44.6631 20.7058 44.6631C21.0157 44.6631 21.2775 44.7673 21.4913 44.9757C21.7103 45.1787 21.8199 45.4352 21.8199 45.7451C21.8199 45.9642 21.7611 46.3142 21.6435 46.7951L19.6879 54.706C19.5543 55.2404 19.4421 55.6331 19.3513 55.8842C19.2658 56.13 19.1162 56.3464 18.9024 56.5335C18.694 56.7205 18.3975 56.814 18.0128 56.814C17.6494 56.814 17.3582 56.7231 17.1391 56.5415C16.92 56.3598 16.7678 56.1567 16.6823 55.9323C16.5968 55.7026 16.4766 55.3125 16.3216 54.7621L16.3215 54.7622Z" fill="white"/>
<path d="M28.9452 52.9023H24.6651C24.6705 53.3993 24.7693 53.8374 24.9617 54.2168C25.1594 54.5962 25.4186 54.882 25.7392 55.0744C26.0651 55.2668 26.4231 55.363 26.8132 55.363C27.075 55.363 27.3128 55.3336 27.5265 55.2748C27.7456 55.2107 27.9567 55.1145 28.1597 54.9862C28.3628 54.8527 28.5498 54.7111 28.7208 54.5614C28.8918 54.4118 29.1135 54.2088 29.386 53.9523C29.4982 53.8561 29.6585 53.808 29.8669 53.808C30.0914 53.808 30.273 53.8695 30.412 53.9924C30.5509 54.1153 30.6204 54.2889 30.6204 54.5133C30.6204 54.711 30.5429 54.9435 30.3879 55.2107C30.233 55.4725 29.9979 55.7263 29.6826 55.9721C29.3727 56.2125 28.9799 56.4129 28.5044 56.5732C28.0342 56.7335 27.4918 56.8137 26.8774 56.8137C25.472 56.8137 24.3793 56.4129 23.5992 55.6114C22.819 54.8099 22.429 53.7225 22.429 52.3493C22.429 51.7027 22.5251 51.1043 22.7175 50.5539C22.9099 49.9981 23.1904 49.5226 23.5591 49.1272C23.9278 48.7318 24.382 48.4299 24.9217 48.2215C25.4613 48.0077 26.0598 47.9009 26.7171 47.9009C27.5721 47.9009 28.3041 48.0826 28.9133 48.4459C29.5277 48.8039 29.9873 49.2688 30.2918 49.8406C30.5964 50.4123 30.7487 50.9948 30.7487 51.5879C30.7487 52.1383 30.591 52.4963 30.2758 52.6619C29.9605 52.8222 29.517 52.9024 28.9453 52.9024L28.9452 52.9023ZM24.6651 51.66H28.6326C28.5791 50.912 28.3761 50.3536 28.0234 49.9849C27.6761 49.6108 27.2166 49.4238 26.6449 49.4238C26.0998 49.4238 25.651 49.6135 25.2983 49.9929C24.951 50.3669 24.7399 50.9227 24.6651 51.66Z" fill="white"/>
<path d="M34.3795 45.9139V49.2562C34.7909 48.8287 35.2104 48.5028 35.6379 48.2783C36.0654 48.0486 36.5944 47.9337 37.2249 47.9337C37.9516 47.9337 38.5875 48.1073 39.1326 48.4547C39.6829 48.7966 40.1077 49.2962 40.407 49.9535C40.7115 50.6054 40.8638 51.3802 40.8638 52.2779C40.8638 52.9405 40.7783 53.5496 40.6073 54.1053C40.4417 54.6557 40.1986 55.1339 39.878 55.54C39.5574 55.9461 39.1673 56.2614 38.7077 56.4858C38.2535 56.7049 37.7513 56.8144 37.2009 56.8144C36.8643 56.8144 36.5464 56.7744 36.2471 56.6942C35.9533 56.6141 35.7021 56.5099 35.4937 56.3816C35.2853 56.248 35.1063 56.1118 34.9567 55.9728C34.8125 55.8339 34.6201 55.6255 34.3796 55.3477V55.5641C34.3796 55.9755 34.2808 56.2881 34.0831 56.5018C33.8854 56.7102 33.6343 56.8144 33.3297 56.8144C33.0198 56.8144 32.7713 56.7102 32.5843 56.5018C32.4026 56.2881 32.3118 55.9755 32.3118 55.5641V46.0101C32.3118 45.5666 32.3999 45.2326 32.5763 45.0082C32.7579 44.7785 33.0091 44.6636 33.3297 44.6636C33.6663 44.6636 33.9255 44.7731 34.1071 44.9922C34.2888 45.2059 34.3796 45.5132 34.3796 45.9139H34.3795ZM34.4837 52.4142C34.4837 53.2851 34.6814 53.9557 35.0768 54.426C35.4776 54.8909 36.0012 55.1233 36.6478 55.1233C37.1982 55.1233 37.6711 54.8855 38.0664 54.41C38.4672 53.929 38.6676 53.2424 38.6676 52.35C38.6676 51.773 38.5847 51.276 38.4191 50.8593C38.2535 50.4425 38.0183 50.1219 37.7138 49.8975C37.4092 49.6677 37.0539 49.5528 36.6478 49.5528C36.231 49.5528 35.8596 49.6677 35.5337 49.8975C35.2077 50.1219 34.9512 50.4505 34.7642 50.8833C34.5772 51.3108 34.4837 51.8211 34.4837 52.4142Z" fill="white"/>
<path d="M62.9003 51.329H62.0236V55.2993C62.0236 55.822 61.9084 56.2069 61.678 56.4542C61.4476 56.7014 61.1469 56.8251 60.776 56.8251C60.377 56.8251 60.0679 56.6958 59.8488 56.4373C59.6296 56.1788 59.52 55.7995 59.52 55.2993V45.7908C59.52 45.2513 59.6408 44.8607 59.8825 44.6191C60.1241 44.3774 60.5147 44.2566 61.0542 44.2566H65.1257C65.6877 44.2566 66.1681 44.2819 66.5671 44.3325C66.9661 44.3774 67.3258 44.4729 67.6461 44.6191C68.0339 44.782 68.3767 45.0152 68.6745 45.3187C68.9724 45.6222 69.1971 45.9762 69.3489 46.3808C69.5062 46.7798 69.5849 47.2041 69.5849 47.6537C69.5849 48.5754 69.3236 49.3116 68.801 49.8622C68.2839 50.413 67.4972 50.8035 66.4407 51.034C66.8846 51.27 67.3089 51.6184 67.7136 52.0792C68.1182 52.5401 68.4779 53.0318 68.7926 53.5544C69.1129 54.0714 69.3601 54.5406 69.5344 54.9621C69.7142 55.3779 69.8041 55.6645 69.8041 55.8219C69.8041 55.9848 69.7507 56.1478 69.6439 56.3108C69.5428 56.4681 69.4023 56.5918 69.2225 56.6817C69.0426 56.7772 68.8347 56.825 68.5987 56.825C68.3177 56.825 68.0817 56.7575 67.8906 56.6227C67.6995 56.4934 67.5337 56.3276 67.3933 56.1253C67.2584 55.923 67.0729 55.6252 66.8369 55.2318L65.8338 53.5627C65.4741 52.9502 65.151 52.4837 64.8644 52.1634C64.5834 51.8431 64.2968 51.624 64.0046 51.5059C63.7124 51.3879 63.3443 51.3289 62.9003 51.3289L62.9003 51.329ZM64.3333 46.1364H62.0236V49.5336H64.2658C64.8671 49.5336 65.3729 49.483 65.7832 49.3819C66.1934 49.2751 66.5053 49.0981 66.7189 48.8508C66.938 48.5979 67.0476 48.2523 67.0476 47.814C67.0476 47.4712 66.9605 47.1705 66.7863 46.912C66.6121 46.6479 66.3704 46.4512 66.0614 46.3219C65.7691 46.1983 65.1931 46.1364 64.3333 46.1364Z" fill="white"/>
<path d="M79.1442 46.3214H76.4131V55.2988C76.4131 55.8159 76.2979 56.2008 76.0675 56.4537C75.8371 56.7009 75.5392 56.8246 75.1739 56.8246C74.803 56.8246 74.4996 56.6981 74.2635 56.4452C74.0331 56.1924 73.9179 55.8102 73.9179 55.2988V46.3214H71.1868C70.7597 46.3214 70.4422 46.2286 70.2343 46.0432C70.0263 45.8521 69.9224 45.602 69.9224 45.2929C69.9224 44.9726 70.0291 44.7197 70.2427 44.5343C70.4619 44.3488 70.7766 44.2561 71.1868 44.2561H79.1443C79.577 44.2561 79.8974 44.3516 80.1053 44.5427C80.3188 44.7338 80.4256 44.9839 80.4256 45.2929C80.4256 45.602 80.3188 45.8521 80.1053 46.0432C79.8917 46.2286 79.5714 46.3214 79.1443 46.3214L79.1442 46.3214Z" fill="white"/>
<path d="M92.0001 52.7114C92.0001 53.1048 91.9017 53.5319 91.705 53.9927C91.514 54.4479 91.2105 54.8975 90.7947 55.3415C90.3788 55.7798 89.8477 56.1367 89.2014 56.412C88.5552 56.6874 87.8021 56.8251 86.9423 56.8251C86.2904 56.8251 85.6975 56.7633 85.1637 56.6397C84.6298 56.516 84.1437 56.3249 83.7054 56.0664C83.2726 55.8023 82.8737 55.4567 82.5084 55.0296C82.1825 54.6418 81.9043 54.2091 81.6739 53.7315C81.4435 53.2482 81.2693 52.734 81.1512 52.1889C81.0389 51.6438 80.9827 51.065 80.9827 50.4524C80.9827 49.4577 81.126 48.567 81.4126 47.7802C81.7048 46.9935 82.1207 46.3219 82.6602 45.7655C83.1997 45.2036 83.8319 44.7765 84.5569 44.4842C85.2818 44.192 86.0545 44.0459 86.875 44.0459C87.8753 44.0459 88.7661 44.2454 89.5472 44.6444C90.3284 45.0434 90.9269 45.5379 91.3428 46.128C91.7586 46.7125 91.9666 47.266 91.9666 47.7887C91.9666 48.0753 91.8654 48.3282 91.6631 48.5474C91.4608 48.7665 91.2163 48.8761 90.9297 48.8761C90.6094 48.8761 90.3678 48.8002 90.2048 48.6485C90.0474 48.4968 89.8704 48.2355 89.6737 47.8646C89.3478 47.252 88.9628 46.794 88.5189 46.4906C88.0806 46.1871 87.5382 46.0354 86.892 46.0354C85.8636 46.0354 85.0431 46.426 84.4305 47.2071C83.8236 47.9883 83.5201 49.0982 83.5201 50.5369C83.5201 51.4978 83.655 52.2986 83.9247 52.9393C84.1945 53.5743 84.5766 54.0492 85.0711 54.3639C85.5657 54.6786 86.1445 54.8359 86.8076 54.8359C87.527 54.8359 88.1339 54.6589 88.6284 54.3049C89.1285 53.9452 89.5051 53.4198 89.7579 52.7286C89.8647 52.4026 89.9968 52.1385 90.1541 51.9362C90.3115 51.7283 90.5644 51.6243 90.9128 51.6243C91.2106 51.6243 91.4663 51.7283 91.6799 51.9362C91.8934 52.1441 92.0002 52.4026 92.0002 52.7117L92.0001 52.7114Z" fill="white"/>
</svg>
