<svg width="100" height="100" viewBox="0 0 100 100" fill="none" xmlns="http://www.w3.org/2000/svg">
<rect width="100" height="100" rx="24" fill="white"/>
<path d="M49.4878 7C73.0451 7.18547 91.9187 25.4187 92 49.9329C92.0741 72.404 73.7183 92.484 48.4192 91.9911C25.3428 91.5413 6.49422 72.7444 7.01035 48.2012C7.4658 26.5241 25.1517 7.22404 49.4878 7ZM40.5365 55.9274C42.0475 55.9274 43.559 55.9308 45.07 55.9257C45.7926 55.9234 46.2452 56.0868 46.0767 56.9926C45.7064 58.9845 45.4029 60.9884 45.0774 62.9877C44.464 66.7564 43.8528 70.5255 43.2437 74.295C43.1852 74.6541 42.9975 75.038 43.4603 75.2859C44.2481 75.7073 46.4023 75.1708 46.8475 74.4272C52.4944 65.004 58.1384 55.5792 63.7796 46.1526C64.9514 44.1918 64.3366 43.1318 62.0378 43.1148C59.3928 43.0959 56.7479 43.0959 54.1029 43.1148C53.2816 43.1193 52.7235 43.011 52.9215 41.9362C53.5114 38.7389 54.0502 35.5327 54.5907 32.3264C55.0134 29.8164 55.4184 27.3034 55.8056 24.7874C55.8635 24.4119 56.092 23.9474 55.4806 23.7245C54.1749 23.3453 52.7721 23.8322 51.9822 24.9388C47.6384 32.1731 43.2979 39.4094 38.9609 46.6477C37.6518 48.8314 36.3036 50.9924 35.0564 53.2112C34.1217 54.873 34.7354 55.9025 36.5696 55.9223C37.8917 55.9365 39.2144 55.9251 40.5371 55.928L40.5365 55.9274Z" fill="#1D5FE6"/>
</svg>
