<svg width="100" height="100" viewBox="0 0 100 100" fill="none" xmlns="http://www.w3.org/2000/svg">
<rect width="100" height="100" rx="24" fill="white"/>
<path d="M91.9899 40.2228H7.01001V26.1114C7.01001 18.3521 13.1812 12 20.7194 12H78.2906C85.8288 12 92 18.3521 92 26.1114V40.2228H91.9899Z" fill="#34A853"/>
<path d="M91.9899 52.2125H7.01001V38.1011C7.01001 30.3418 13.1812 23.9998 20.7194 23.9998H78.2906C85.8288 23.9998 92 30.3418 92 38.1011V52.2125H91.9899Z" fill="#FFBB00"/>
<path d="M91.9899 64.202H7.01001V50.1006C7.01001 42.3414 13.1812 35.9893 20.7194 35.9893H78.2906C85.8288 35.9893 92 42.3414 92 50.1006V64.202H91.9899Z" fill="#FE2C25"/>
<path fill-rule="evenodd" clip-rule="evenodd" d="M7.01005 43.608L60.9429 56.8751C67.3151 58.433 74.0994 57.0158 79.3058 52.9251L91.9799 43.0552V74.0922C91.9799 81.8514 85.8087 88.2036 78.2705 88.2036H20.7094C13.1712 88.2036 7 81.8514 7 74.0922V43.608H7.01005Z" fill="#4285F4"/>
</svg>
