<svg width="100" height="100" viewBox="0 0 100 100" fill="none" xmlns="http://www.w3.org/2000/svg">
<rect width="100" height="100" rx="24" fill="#F1F1F1"/>
<path fill-rule="evenodd" clip-rule="evenodd" d="M13.6675 80.665C10.5377 80.665 8 78.1274 8 74.9976C8 73.9674 8.27491 73.0007 8.75828 72.1699L44.6452 9.83978C45.618 8.14497 47.4518 7 49.5514 7C51.651 7 53.4848 8.14497 54.4606 9.83978L90.3505 72.1699C90.8339 73.0007 91.1088 73.9674 91.1088 74.9976C91.1088 78.1274 88.5712 80.665 85.4414 80.665H13.6675Z" fill="#03A9F4"/>
<path d="M91.1087 75.0005L49.5513 33.4431V80.662H85.4412C88.571 80.665 91.1057 78.1273 91.1087 75.0005Z" fill="url(#paint0_linear_273_47)"/>
<path fill-rule="evenodd" clip-rule="evenodd" d="M44.6422 9.83978L8.75828 72.1669C8.27491 72.9977 8 73.9644 8 74.9946C8 78.1244 10.5377 80.662 13.6675 80.662H49.5574V7C47.4518 7 45.618 8.14497 44.6422 9.83978Z" fill="#039BE5"/>
<path fill-rule="evenodd" clip-rule="evenodd" d="M49.5514 33.4431L81.659 90.1088L79.7679 91.9999L49.5454 80.668L19.3289 91.9969L17.4377 90.1057L49.5514 33.4431Z" fill="#F1F1F1"/>
<path fill-rule="evenodd" clip-rule="evenodd" d="M49.5515 33.4431L81.6591 90.1088L79.7679 91.9999L49.5454 80.668" fill="#E1E1E1"/>
<path opacity="0.2" fill-rule="evenodd" clip-rule="evenodd" d="M49.5514 33.9265L81.4869 90.284L81.6591 90.1088L49.5514 33.4431L17.4408 90.1057L17.616 90.281L49.5514 33.9265Z" fill="white"/>
<path opacity="0.2" fill-rule="evenodd" clip-rule="evenodd" d="M22.791 80.2422H13.6675C10.6072 80.2422 8.1148 77.8163 8.00302 74.7832C8 74.8527 8 74.9252 8 74.9977C8 78.1275 10.5377 80.6652 13.6675 80.6652H22.5524L22.791 80.2422Z" fill="#1A237E"/>
<path opacity="0.07" fill-rule="evenodd" clip-rule="evenodd" d="M79.7709 91.577L49.5484 80.2451L19.332 91.574L17.5949 89.8339L17.4408 90.1058L19.332 91.997L49.5484 80.6681L79.7709 92L81.6591 90.1088L81.508 89.8399L79.7709 91.577Z" fill="black"/>
<path opacity="0.2" fill-rule="evenodd" clip-rule="evenodd" d="M91.1059 74.7832C91.1059 74.8104 91.1028 74.8406 91.1028 74.8678C91.1028 74.8708 91.1028 74.8708 91.1028 74.8738C91.0998 74.9191 91.0968 74.9675 91.0938 75.0128C91.0908 75.0611 91.0847 75.1065 91.0817 75.1548V75.1578C90.9699 76.2514 90.547 77.2544 89.9005 78.0731C89.9005 78.0731 89.9005 78.0731 89.9005 78.0761C89.8733 78.1124 89.8461 78.1456 89.8159 78.1789C89.8159 78.1789 89.8159 78.1789 89.8159 78.1819C89.7887 78.2151 89.7585 78.2514 89.7283 78.2846L89.7253 78.2876C89.695 78.3208 89.6679 78.3541 89.6376 78.3873L89.6346 78.3903C89.6044 78.4236 89.5742 78.4538 89.544 78.487C89.541 78.49 89.541 78.49 89.5379 78.493C89.5077 78.5233 89.4775 78.5565 89.4473 78.5867L89.4443 78.5897C89.4141 78.6199 89.3809 78.6501 89.3506 78.6803C89.3476 78.6834 89.3476 78.6834 89.3446 78.6864C89.3144 78.7166 89.2842 78.7438 89.2509 78.774C89.2479 78.777 89.2479 78.777 89.2449 78.78C89.2147 78.8072 89.1815 78.8374 89.1482 78.8646C89.1452 78.8677 89.1392 78.8737 89.1361 78.8767C89.1059 78.9039 89.0757 78.9281 89.0455 78.9522C89.0395 78.9553 89.0365 78.9613 89.0304 78.9643C89.0002 78.9885 88.97 79.0127 88.9398 79.0368C88.9337 79.0399 88.9277 79.0459 88.9247 79.0489C88.8945 79.0731 88.8643 79.0972 88.834 79.1184C88.828 79.1214 88.825 79.1244 88.8189 79.1275C88.7857 79.1516 88.7555 79.1758 88.7223 79.1969C88.7162 79.2 88.7102 79.206 88.7041 79.209C88.6739 79.2302 88.6407 79.2543 88.6105 79.2755C88.6014 79.2815 88.5924 79.2876 88.5833 79.2936C88.5531 79.3117 88.5259 79.3329 88.4957 79.351C88.4866 79.3571 88.4776 79.3631 88.4685 79.3691C88.4383 79.3873 88.4111 79.4054 88.3809 79.4235C88.3718 79.4296 88.3628 79.4326 88.3567 79.4386C88.3265 79.4568 88.2963 79.4749 88.2631 79.493C88.251 79.4991 88.2419 79.5051 88.2298 79.5111C88.1996 79.5262 88.1724 79.5444 88.1422 79.5595C88.1301 79.5655 88.1211 79.5716 88.109 79.5776C88.0788 79.5927 88.0486 79.6078 88.0214 79.6259C88.0093 79.632 87.9972 79.638 87.9821 79.6441C87.9549 79.6592 87.9247 79.6712 87.8975 79.6864C87.8824 79.6924 87.8703 79.6984 87.8552 79.7075C87.828 79.7196 87.8009 79.7347 87.7737 79.7468C87.7616 79.7528 87.7465 79.7589 87.7344 79.7649C87.7042 79.777 87.677 79.7891 87.6468 79.8042C87.6317 79.8102 87.6196 79.8163 87.6045 79.8223C87.5773 79.8344 87.5471 79.8465 87.5199 79.8586C87.5048 79.8646 87.4867 79.8706 87.4716 79.8767C87.4444 79.8857 87.4172 79.8978 87.39 79.9069C87.3719 79.9129 87.3568 79.919 87.3386 79.925C87.3114 79.9341 87.2843 79.9431 87.2601 79.9522C87.242 79.9582 87.2238 79.9643 87.2057 79.9703C87.1785 79.9794 87.1543 79.9885 87.1272 79.9945C87.106 80.0005 87.0849 80.0066 87.0637 80.0126C87.0395 80.0187 87.0154 80.0277 86.9942 80.0338C86.9761 80.0398 86.955 80.0428 86.9368 80.0489C86.9127 80.0549 86.8855 80.064 86.8613 80.07C86.8402 80.0761 86.819 80.0791 86.8009 80.0851C86.7767 80.0912 86.7525 80.0972 86.7254 80.1033C86.7012 80.1093 86.674 80.1153 86.6498 80.1184C86.6287 80.1214 86.6075 80.1274 86.5894 80.1304C86.5652 80.1365 86.5411 80.1395 86.5169 80.1455C86.4958 80.1486 86.4746 80.1546 86.4504 80.1576C86.4263 80.1607 86.4021 80.1667 86.3779 80.1697C86.3568 80.1727 86.3326 80.1788 86.3115 80.1818C86.2873 80.1848 86.2601 80.1878 86.2359 80.1939C86.2148 80.1969 86.1937 80.1999 86.1725 80.203C86.1423 80.206 86.1151 80.209 86.0849 80.212C86.0668 80.215 86.0486 80.215 86.0305 80.2181C86.0063 80.2211 85.9792 80.2241 85.952 80.2241C85.9308 80.2271 85.9067 80.2271 85.8855 80.2301C85.8613 80.2332 85.8372 80.2332 85.813 80.2362C85.7888 80.2392 85.7647 80.2392 85.7405 80.2422C85.6922 80.2452 85.6469 80.2452 85.5985 80.2483H85.5955C85.5472 80.2483 85.4988 80.2513 85.4505 80.2513H76.3179L76.5565 80.6742H85.4505C85.5985 80.6742 85.7435 80.6682 85.8855 80.6591C85.8946 80.6591 85.9006 80.6591 85.9097 80.6561C85.9489 80.6531 85.9912 80.6501 86.0305 80.644C86.0335 80.644 86.0335 80.644 86.0366 80.644C86.0819 80.638 86.1272 80.635 86.1725 80.6289C86.1816 80.6289 86.1937 80.6259 86.2027 80.6259C86.239 80.6199 86.2782 80.6168 86.3145 80.6108C86.3266 80.6078 86.3387 80.6078 86.3507 80.6047C86.387 80.5987 86.4202 80.5927 86.4565 80.5866C86.4716 80.5836 86.4837 80.5806 86.4988 80.5776C86.532 80.5715 86.5652 80.5655 86.5955 80.5594C86.6075 80.5564 86.6226 80.5534 86.6347 80.5504C86.668 80.5443 86.7012 80.5353 86.7344 80.5292C86.7525 80.5262 86.7677 80.5202 86.7858 80.5171C86.813 80.5111 86.8432 80.5051 86.8704 80.496C86.8915 80.49 86.9096 80.4839 86.9308 80.4809C86.955 80.4748 86.9821 80.4688 87.0063 80.4597C87.0244 80.4537 87.0426 80.4477 87.0607 80.4446C87.0879 80.4356 87.1121 80.4295 87.1392 80.4205C87.1604 80.4144 87.1815 80.4084 87.1997 80.3993C87.2238 80.3903 87.248 80.3842 87.2722 80.3752C87.2933 80.3661 87.3175 80.36 87.3386 80.351C87.3598 80.3449 87.3809 80.3359 87.4021 80.3298C87.4262 80.3208 87.4474 80.3117 87.4685 80.3026C87.4897 80.2936 87.5108 80.2875 87.529 80.2785C87.5531 80.2694 87.5773 80.2573 87.6015 80.2483C87.6196 80.2422 87.6377 80.2332 87.6558 80.2271C87.68 80.215 87.7072 80.206 87.7314 80.1939C87.7495 80.1878 87.7646 80.1788 87.7827 80.1727C87.8069 80.1607 87.8311 80.1516 87.8552 80.1395C87.8734 80.1304 87.8885 80.1244 87.9066 80.1153C87.9308 80.1033 87.9579 80.0912 87.9821 80.0791C87.9972 80.07 88.0123 80.064 88.0305 80.0549C88.0576 80.0398 88.0848 80.0277 88.112 80.0126C88.1241 80.0066 88.1392 79.9975 88.1543 79.9915C88.1815 79.9764 88.2087 79.9613 88.2329 79.9462C88.2449 79.9401 88.2601 79.9311 88.2721 79.925C88.2993 79.9099 88.3295 79.8918 88.3567 79.8737C88.3688 79.8676 88.3779 79.8616 88.39 79.8555C88.4202 79.8374 88.4473 79.8193 88.4776 79.8012C88.4866 79.7951 88.4987 79.7891 88.5078 79.783C88.538 79.7649 88.5652 79.7438 88.5954 79.7256C88.6044 79.7196 88.6135 79.7135 88.6226 79.7075C88.6528 79.6864 88.683 79.6652 88.7132 79.6441C88.7192 79.638 88.7283 79.635 88.7343 79.629C88.7646 79.6078 88.7948 79.5867 88.825 79.5625C88.831 79.5564 88.8371 79.5534 88.8461 79.5474C88.8763 79.5262 88.9035 79.5021 88.9337 79.4809C88.9398 79.4749 88.9488 79.4719 88.9549 79.4658C88.9851 79.4416 89.0123 79.4205 89.0425 79.3963C89.0485 79.3903 89.0546 79.3873 89.0606 79.3812C89.0908 79.3571 89.118 79.3329 89.1452 79.3087C89.1513 79.3027 89.1573 79.2997 89.1633 79.2936C89.1936 79.2664 89.2238 79.2392 89.254 79.2121C89.257 79.209 89.26 79.206 89.263 79.203C89.2932 79.1758 89.3265 79.1456 89.3567 79.1154C89.3597 79.1124 89.3597 79.1124 89.3627 79.1093C89.3929 79.0791 89.4231 79.0519 89.4534 79.0217C89.4564 79.0187 89.4594 79.0187 89.4594 79.0157C89.4896 78.9855 89.5198 78.9553 89.55 78.922C89.5531 78.919 89.5531 78.919 89.5561 78.916C89.5863 78.8858 89.6165 78.8525 89.6467 78.8193L89.6497 78.8163C89.6799 78.7831 89.7071 78.7529 89.7343 78.7196C89.7373 78.7166 89.7373 78.7166 89.7404 78.7136C89.7706 78.6803 89.7978 78.6471 89.828 78.6109C89.828 78.6109 89.828 78.6109 89.831 78.6078C89.8582 78.5746 89.8884 78.5384 89.9156 78.5051C89.9156 78.5051 89.9156 78.5051 89.9156 78.5021C89.9428 78.4659 89.97 78.4326 89.9971 78.3964C89.9971 78.3964 89.9971 78.3964 89.9971 78.3933C90.5953 77.5958 90.988 76.6321 91.0938 75.5868V75.5838C91.0998 75.5354 91.1028 75.4901 91.1059 75.4418C91.1089 75.3965 91.1119 75.3481 91.1149 75.3028C91.1149 75.2998 91.1149 75.2998 91.1149 75.2968C91.118 75.2515 91.1179 75.2061 91.121 75.1608C91.121 75.1578 91.121 75.1548 91.121 75.1518C91.121 75.1065 91.124 75.0611 91.124 75.0158C91.124 75.0128 91.124 75.0098 91.124 75.0068V75.0037C91.1089 74.9252 91.1059 74.8527 91.1059 74.7832Z" fill="#1A237E"/>
<path opacity="0.2" fill-rule="evenodd" clip-rule="evenodd" d="M8.75828 72.5898L44.6422 10.2627C45.1316 9.41381 45.8355 8.70387 46.6784 8.2054C47.5213 7.70692 48.5031 7.42295 49.5514 7.42295C49.5514 7.42295 49.5514 7.42295 49.5544 7.42295C49.5544 7.42295 49.5544 7.42295 49.5574 7.42295C51.6571 7.42295 53.4878 8.56792 54.4636 10.2627L90.3536 72.5928C90.8037 73.3662 91.0695 74.2574 91.1058 75.206C91.1058 75.1879 91.1058 75.1728 91.1088 75.1547C91.1088 75.1517 91.1088 75.1486 91.1088 75.1456C91.1088 75.1003 91.1118 75.055 91.1118 75.0097C91.1118 75.0066 91.1118 75.0036 91.1118 75.0006V74.9976C91.1118 73.9674 90.8369 73.0007 90.3536 72.1699L54.4636 9.83978C53.4878 8.14497 51.654 7.00302 49.5574 7C49.5574 7 49.5574 7 49.5544 7C49.5544 7 49.5544 7 49.5514 7C48.5031 7 47.5213 7.28398 46.6814 7.78245C45.8355 8.28092 45.1316 8.99087 44.6422 9.83978L8.75828 72.1669C8.27491 72.9977 8 73.9644 8 74.9946C8 75.064 8.00302 75.1335 8.00302 75.203C8.03927 74.2544 8.30815 73.3662 8.75828 72.5898Z" fill="white"/>
<path fill-rule="evenodd" clip-rule="evenodd" d="M89.6315 78.8132L89.6346 78.8101C89.6648 78.7769 89.692 78.7467 89.7191 78.7135C89.7222 78.7104 89.7222 78.7104 89.7252 78.7074C89.7554 78.6742 89.7826 78.641 89.8128 78.6047C89.8128 78.6047 89.8128 78.6047 89.8158 78.6017C89.843 78.5685 89.8732 78.5322 89.9004 78.499C89.9004 78.499 89.9004 78.499 89.9004 78.496C89.9276 78.4597 89.9548 78.4265 89.982 78.3902C89.982 78.3902 89.982 78.3902 89.982 78.3872C90.5801 77.5896 90.9729 76.6259 91.0786 75.5807V75.5776C91.0847 75.5293 91.0877 75.484 91.0907 75.4356C91.0937 75.3903 91.0967 75.342 91.0998 75.2967C91.0998 75.2936 91.0998 75.2936 91.0998 75.2906C91.1028 75.2453 91.1028 75.2 91.1058 75.1547C91.1058 75.1517 91.1058 75.1486 91.1058 75.1456C91.1058 75.1003 91.1088 75.055 91.1088 75.0097C91.1088 75.0066 91.1088 75.0036 91.1088 75.0006V74.9976C91.1088 73.9674 90.8339 73.0007 90.3505 72.1699L54.4636 9.83978C53.4878 8.14497 51.654 7.00302 49.5574 7C49.5574 7 49.5574 7 49.5544 7C49.5544 7 49.5544 7 49.5514 7C48.5031 7 47.5213 7.28398 46.6814 7.78245C45.8355 8.28092 45.1316 8.99087 44.6422 9.83978L8.75828 72.1669C8.27491 72.9977 8 73.9644 8 74.9946C8 78.1244 10.5377 80.662 13.6675 80.662H22.791L17.4408 90.1028L19.3319 91.994L49.5484 80.6651L79.7709 91.997L81.662 90.1058L76.3118 80.662H85.4444C85.5924 80.662 85.7374 80.656 85.8794 80.6469C85.8885 80.6469 85.8945 80.6469 85.9036 80.6439C85.9428 80.6409 85.9851 80.6379 86.0244 80.6318C86.0274 80.6318 86.0274 80.6318 86.0305 80.6318C86.0758 80.6258 86.1211 80.6228 86.1664 80.6167C86.1755 80.6167 86.1875 80.6137 86.1966 80.6137C86.2329 80.6077 86.2721 80.6046 86.3084 80.5986C86.3205 80.5956 86.3326 80.5956 86.3446 80.5926C86.3809 80.5865 86.4141 80.5805 86.4504 80.5744C86.4655 80.5714 86.4776 80.5684 86.4927 80.5654C86.5259 80.5593 86.5591 80.5533 86.5893 80.5472C86.6014 80.5442 86.6165 80.5412 86.6286 80.5382C86.6618 80.5321 86.6951 80.5231 86.7283 80.517C86.7464 80.514 86.7615 80.508 86.7797 80.5049C86.8069 80.4989 86.8371 80.4929 86.8643 80.4838C86.8854 80.4778 86.9035 80.4717 86.9247 80.4687C86.9489 80.4626 86.976 80.4566 87.0002 80.4475C87.0183 80.4415 87.0365 80.4355 87.0546 80.4324C87.0818 80.4234 87.1059 80.4173 87.1331 80.4083C87.1543 80.4022 87.1754 80.3962 87.1936 80.3871C87.2177 80.3781 87.2419 80.372 87.2661 80.363C87.2872 80.3539 87.3114 80.3479 87.3325 80.3388C87.3537 80.3327 87.3748 80.3237 87.396 80.3176C87.4201 80.3086 87.4413 80.2995 87.4624 80.2905C87.4836 80.2814 87.5047 80.2753 87.5229 80.2663C87.547 80.2572 87.5712 80.2451 87.5954 80.2361C87.6135 80.23 87.6316 80.221 87.6497 80.2149C87.6739 80.2028 87.7011 80.1938 87.7253 80.1817C87.7434 80.1756 87.7585 80.1666 87.7766 80.1605C87.8008 80.1485 87.825 80.1394 87.8491 80.1273C87.8672 80.1183 87.8824 80.1122 87.9005 80.1031C87.9247 80.0911 87.9518 80.079 87.976 80.0669C87.9911 80.0578 88.0062 80.0518 88.0243 80.0427C88.0515 80.0276 88.0787 80.0155 88.1059 80.0004C88.118 79.9944 88.1331 79.9853 88.1482 79.9793C88.1754 79.9642 88.2026 79.9491 88.2268 79.934C88.2388 79.9279 88.2539 79.9189 88.266 79.9128C88.2932 79.8977 88.3234 79.8796 88.3506 79.8615C88.3627 79.8554 88.3718 79.8494 88.3839 79.8433C88.4141 79.8252 88.4412 79.8071 88.4715 79.789C88.4805 79.7829 88.4926 79.7769 88.5017 79.7708C88.5319 79.7527 88.5591 79.7316 88.5893 79.7134C88.5983 79.7074 88.6074 79.7013 88.6165 79.6953C88.6467 79.6742 88.6769 79.653 88.7071 79.6319C88.7131 79.6258 88.7222 79.6228 88.7282 79.6168C88.7585 79.5956 88.7887 79.5745 88.8189 79.5503C88.8249 79.5443 88.831 79.5412 88.84 79.5352C88.8702 79.514 88.8974 79.4899 88.9276 79.4687C88.9337 79.4627 88.9427 79.4597 88.9488 79.4536C88.979 79.4295 89.0062 79.4083 89.0364 79.3841C89.0424 79.3781 89.0485 79.3751 89.0545 79.369C89.0847 79.3449 89.1119 79.3207 89.1391 79.2965C89.1451 79.2905 89.1512 79.2875 89.1572 79.2814C89.1874 79.2542 89.2177 79.227 89.2479 79.1999C89.2509 79.1968 89.2539 79.1938 89.2569 79.1908C89.2871 79.1636 89.3204 79.1334 89.3506 79.1032C89.3536 79.1002 89.3536 79.1002 89.3566 79.0971C89.3868 79.0669 89.417 79.0397 89.4473 79.0095C89.4503 79.0065 89.4533 79.0065 89.4533 79.0035C89.4835 78.9733 89.5137 78.9431 89.5439 78.9098C89.5469 78.9068 89.5469 78.9068 89.55 78.9038C89.5741 78.8766 89.6013 78.8434 89.6315 78.8132Z" fill="url(#paint1_radial_273_47)"/>
<defs>
<linearGradient id="paint0_linear_273_47" x1="39.4141" y1="51.2964" x2="89.3233" y2="79.6396" gradientUnits="userSpaceOnUse">
<stop stop-color="#1A237E" stop-opacity="0.2"/>
<stop offset="1" stop-color="#1A237E" stop-opacity="0.02"/>
</linearGradient>
<radialGradient id="paint1_radial_273_47" cx="0" cy="0" r="1" gradientUnits="userSpaceOnUse" gradientTransform="translate(38.4213 12.7007) scale(94.8719 94.8719)">
<stop stop-color="white" stop-opacity="0.1"/>
<stop offset="1" stop-color="white" stop-opacity="0"/>
</radialGradient>
</defs>
</svg>
