<svg width="100" height="100" viewBox="0 0 100 100" fill="none" xmlns="http://www.w3.org/2000/svg">
<rect width="100" height="100" rx="24" fill="#BD0000"/>
<g clip-path="url(#clip0_279_344)">
<path d="M87.4721 29.0413L87.4541 29.0426C85.9857 29.1485 84.0297 29.5875 82.1758 30.332H71.7401H21.5319H17.5498C17.5498 30.332 10.5479 60.881 10.5479 60.881H10.5543H42.9465H56.0924C57.0591 61.4451 58.2337 61.7745 59.5455 61.8888L59.5674 61.8907H61.8596L61.8792 61.8891C62.612 61.8319 63.3767 61.7257 64.167 61.5711C65.5296 61.3047 66.9671 60.8969 68.4564 60.3539C69.5838 59.9428 70.7413 59.4569 71.9153 58.8925L71.9158 58.8922C74.4707 57.6675 77.1045 56.0905 79.6878 54.1887C80.5391 53.5626 81.3557 52.9204 82.1393 52.2675L82.1396 52.2673C82.8583 51.6693 83.5481 51.0618 84.2072 50.4473L84.2102 50.4446L84.2132 50.4416C86.0646 48.6573 87.4711 46.8432 88.2865 45.204C88.7113 44.3504 88.9776 43.5427 89.0442 42.7931C89.1108 42.0436 88.9665 41.3341 88.5455 40.7776L88.5452 40.7774C88.2364 40.3688 87.8028 40.0985 87.3052 39.9203C88.9259 38.5895 90.2452 37.1682 91.1104 35.7776C92.1209 34.1534 92.5716 32.5438 92.0784 31.1888V31.1886C91.7628 30.3183 91.0485 29.6641 90.1092 29.3253H90.109L90.1087 29.3251C89.6916 29.175 89.2352 29.0843 88.7481 29.0431L88.7271 29.0413H87.4721ZM88.6766 30.048C89.0878 30.0532 89.4535 30.1591 89.7682 30.2723C90.4834 30.5304 90.9232 30.9555 91.1321 31.5317L91.1323 31.5322V31.5326C91.4644 32.4443 91.1772 33.765 90.2559 35.2459C89.3346 36.7267 87.8115 38.332 85.8772 39.7834L84.8094 40.5846L86.1405 40.6877C86.9279 40.7487 87.4464 40.9925 87.7426 41.3845L87.7428 41.3848C87.9856 41.7056 88.0926 42.1309 88.0416 42.7041C87.9907 43.2773 87.7709 43.9804 87.3852 44.7556C86.645 46.2436 85.3047 47.9909 83.518 49.7134C82.8738 50.314 82.1991 50.9083 81.4956 51.4937L81.4953 51.494C80.7264 52.1346 79.9257 52.7644 79.0916 53.378H79.0913C76.557 55.2437 73.9748 56.7889 71.4802 57.9847L71.4797 57.9849H71.4795C70.3348 58.5353 69.2076 59.0085 68.1117 59.4081C66.6659 59.9352 65.2773 60.3284 63.9737 60.5833C63.2227 60.7302 62.5005 60.8301 61.8137 60.8842H59.6214C59.6111 60.8833 59.6012 60.8819 59.5909 60.881H59.7936C57.7865 60.7059 56.2018 60.0012 55.2577 58.7168C55.0825 58.4793 54.9379 58.2234 54.8111 57.9557C54.7305 57.7584 54.6549 57.5593 54.5784 57.358C54.3771 56.7178 54.2968 56.0075 54.3331 55.2505C54.4337 53.1408 55.4236 50.6312 57.1387 48.0033C58.9606 45.2105 61.6012 42.2834 64.8704 39.5671C65.6032 38.9588 66.3609 38.358 67.1541 37.7742C68.1345 37.0529 69.1223 36.3887 70.1108 35.7674C73.7525 33.4747 77.3852 31.8705 80.6041 31.0556C77.5281 32.0591 74.0724 33.7627 70.6582 36.082C70.5354 36.1649 70.414 36.2498 70.2932 36.3335C68.3988 37.6461 66.6827 39.0402 65.185 40.4479C60.3656 44.9794 57.8182 49.6751 58.9757 52.426C59.0583 52.6152 59.1566 52.7958 59.2713 52.9669C60.5154 54.7968 63.5987 55.1133 67.5062 54.1309C67.7719 54.0644 68.0378 53.9892 68.3116 53.9107C69.5597 53.5503 70.8847 53.0637 72.2496 52.4638C72.5778 52.3188 72.9095 52.1697 73.2436 52.0107C73.2779 51.9946 73.3102 51.9785 73.3444 51.9604C77.6525 49.8199 80.9631 47.3569 81.6798 45.8771C81.8368 45.5552 81.8745 45.2807 81.7678 45.0655C81.2565 44.0287 77.6786 44.7293 73.3444 46.6069C72.9961 46.7579 72.6437 46.9132 72.2874 47.0786C72.5773 46.8095 72.8791 46.5392 73.1871 46.2732C73.6783 45.8501 74.1868 45.4363 74.7283 45.0277C75.5758 44.3859 76.4327 43.8058 77.2762 43.2914C81.2259 40.3116 83.2226 37.493 82.8059 36.447C82.7274 36.2499 82.5602 36.1142 82.3026 36.0317C81.4792 35.7698 79.9764 36.0824 78.1506 36.8306C76.6447 37.4483 74.9152 38.3642 73.1618 39.5042L72.9229 39.6614L72.8789 39.6868C72.8789 39.6868 72.0359 40.2466 72.0359 40.2466C72.0359 40.2466 72.5201 39.3596 72.5201 39.3596C73.2388 38.044 74.4094 36.6713 75.8669 35.3962C76.9359 34.4639 78.1572 33.5856 79.4717 32.817C79.969 32.5259 80.4654 32.2556 80.9627 32.0118C81.472 31.763 81.9815 31.5419 82.4787 31.345C84.9018 30.5093 86.3132 30.0176 88.6766 30.048ZM53.6725 30.3761C53.4752 33.3871 54.059 37.7973 55.3836 42.6937C55.6191 43.565 55.8756 44.4518 56.1574 45.3486C56.3326 45.9024 56.5131 46.4476 56.6983 46.9843C56.5896 47.1442 56.4803 47.3029 56.3776 47.4623C54.7249 49.9952 53.7588 52.3889 53.5152 54.4705C52.8167 52.1312 52.2907 49.5691 51.9927 46.8522C51.9082 46.0737 51.8419 45.304 51.7977 44.5434C51.4715 39.0189 52.1928 34.0107 53.6725 30.3761ZM20.6889 34.2954C20.7266 34.2945 20.7637 34.2954 20.8021 34.2954C20.8021 34.2954 28.2444 34.2954 28.2444 34.2954C28.8806 34.2954 29.3724 34.4146 29.7227 34.654C30.0709 34.8947 30.2016 35.2062 30.119 35.585C30.119 35.585 29.232 39.5922 29.232 39.5922C29.232 39.5922 26.6087 39.5922 26.6087 39.5922C26.6087 39.5922 27.4706 35.692 27.4706 35.692H20.9028C20.9028 35.692 18.5311 46.4118 18.5311 46.4118C18.5311 46.4118 17.6757 50.2933 17.6757 50.2933C17.6757 50.2933 24.237 50.2933 24.237 50.2933C24.237 50.2933 24.2435 50.2682 24.2435 50.2682C24.2435 50.2682 25.5582 44.3295 25.5582 44.3295C25.5582 44.3295 22.4756 44.3295 22.4756 44.3295C22.4756 44.3295 22.7712 42.9893 22.7712 42.9893C22.7712 42.9893 28.4771 42.9893 28.4771 42.9893C28.4771 42.9893 26.8416 50.4003 26.8416 50.4003C26.8195 50.5058 26.7807 50.6013 26.7284 50.6959C26.5935 50.9415 26.3581 51.1518 26.03 51.3249C25.575 51.5645 25.0304 51.6835 24.3942 51.6835C24.3942 51.6835 16.9584 51.6835 16.9584 51.6835C16.3222 51.6835 15.8304 51.5645 15.4801 51.3249C15.1319 51.0854 14.9992 50.7796 15.0838 50.4003C15.0838 50.4003 18.3612 35.585 18.3612 35.585C18.4457 35.2062 18.7096 34.8947 19.1666 34.654C19.1827 34.6453 19.2008 34.6433 19.2169 34.6351C19.634 34.4261 20.1234 34.3088 20.6889 34.2954ZM32.3524 34.2954C32.3524 34.2954 41.7196 34.2954 41.7196 34.2954C42.3477 34.2954 42.8415 34.4146 43.1918 34.654C43.5441 34.8947 43.679 35.2062 43.5944 35.585C43.5944 35.585 41.8455 43.4865 41.8455 43.4865C41.763 43.8629 41.4928 44.1701 41.0339 44.4113C40.5749 44.6533 40.0347 44.7761 39.4046 44.7761H32.5977L31.283 50.7084C31.283 50.7084 31.069 51.6835 31.069 51.6835C31.069 51.6835 28.5022 51.6835 28.5022 51.6835C28.5022 51.6835 28.6973 50.8029 28.6973 50.8029C28.6973 50.8029 32.3524 34.2954 32.3524 34.2954ZM45.2928 34.2954C45.2928 34.2954 47.8596 34.2954 47.8596 34.2954C47.8596 34.2954 44.9532 47.4245 44.9532 47.4245C44.9532 47.4245 44.3177 50.2933 44.3177 50.2933C44.3177 50.2933 50.4578 50.2933 50.4578 50.2933C50.5222 50.7642 50.5975 51.2265 50.678 51.6835C50.678 51.6835 41.4429 51.6835 41.4429 51.6835C41.4429 51.6835 42.1727 48.3872 42.1727 48.3872C42.1727 48.3872 45.2928 34.2954 45.2928 34.2954ZM34.6109 35.692C34.6109 35.692 32.906 43.3795 32.906 43.3795C32.906 43.3795 39.3038 43.3795 39.3038 43.3795C39.3038 43.3795 41.0025 35.692 41.0025 35.692H34.6109ZM29.232 52.8915C29.2571 52.8907 29.2823 52.8915 29.3076 52.8915C29.6056 52.8915 29.8656 52.9439 30.075 53.0425C30.2984 53.1472 30.4584 53.3027 30.547 53.508C30.6335 53.7073 30.656 53.9335 30.6097 54.1811C30.6097 54.1811 30.591 54.2754 30.591 54.2754C30.591 54.2754 29.8548 54.2754 29.8548 54.2754C29.8548 54.2754 29.8612 54.1873 29.8612 54.1873C29.8803 54.0143 29.8588 53.8783 29.7921 53.7847C29.7834 53.773 29.7706 53.7574 29.7605 53.7469C29.7439 53.73 29.7189 53.7106 29.6975 53.6967C29.5945 53.6318 29.4335 53.5961 29.2258 53.5961C28.95 53.5961 28.7439 53.6441 28.603 53.7407C28.4661 53.8353 28.3796 53.9411 28.3514 54.0679C28.3232 54.1967 28.3695 54.2643 28.4017 54.3005C28.4026 54.3015 28.4067 54.3059 28.4079 54.307C28.4487 54.3418 28.5903 54.4233 29.0307 54.5272C29.4293 54.6238 29.6934 54.7105 29.8423 54.785C30.0678 54.8997 30.2253 55.0484 30.3079 55.2316C30.3904 55.4128 30.4085 55.6249 30.3581 55.8544C30.3078 56.0779 30.1938 56.2839 30.0247 56.4772C29.8576 56.6704 29.6449 56.8236 29.3892 56.9303C29.1356 57.035 28.8575 57.0938 28.5716 57.0938C28.2093 57.0938 27.9183 57.039 27.6908 56.9303C27.4533 56.8175 27.2819 56.6395 27.1812 56.408C27.0846 56.1825 27.0639 55.9267 27.1183 55.6469C27.1183 55.6469 27.1372 55.5588 27.1372 55.5588H27.8607L27.8543 55.6469C27.8362 55.814 27.854 55.9488 27.8983 56.0495C27.9406 56.1461 28.0213 56.2262 28.1501 56.2886C28.287 56.355 28.458 56.3891 28.6532 56.3891C28.8284 56.3891 28.9885 56.3598 29.1315 56.3075C29.2724 56.2572 29.3843 56.1907 29.4649 56.1062C29.5434 56.0216 29.5893 55.9321 29.6094 55.8355C29.6296 55.7489 29.625 55.6759 29.5908 55.6155C29.5525 55.5511 29.4767 55.4939 29.3579 55.4456C29.3579 55.4456 28.7413 55.2632 28.7413 55.2632C28.3971 55.1766 28.1653 55.0939 28.0304 55.0114C27.8472 54.9027 27.7152 54.7635 27.6468 54.5964C27.5783 54.4313 27.5711 54.2483 27.6154 54.049C27.6617 53.8356 27.7644 53.6325 27.9235 53.4513C28.0845 53.2681 28.2924 53.1244 28.54 53.0298C28.7589 52.9477 28.9893 52.8996 29.232 52.8915ZM35.8376 52.9039C35.8774 52.9008 35.9147 52.9039 35.957 52.9039C35.957 52.9039 36.4101 52.9544 36.4101 52.9544L36.5611 52.9669C36.5611 52.9669 36.3409 53.5267 36.3409 53.5267L36.2969 53.6148C36.2969 53.6148 35.9508 53.5834 35.9508 53.5834C35.8486 53.5834 35.7736 53.5991 35.7244 53.6337C35.7211 53.6362 35.7147 53.6437 35.7117 53.6464C35.7051 53.6522 35.694 53.6622 35.6865 53.6715C35.6562 53.7112 35.6194 53.7823 35.5922 53.9106C35.5922 53.9106 35.5792 53.9649 35.5671 54.0112C35.7261 54.0112 36.108 54.0112 36.108 54.0112C36.108 54.0112 35.9697 54.634 35.9697 54.634C35.9697 54.6339 35.5741 54.634 35.4412 54.634C35.4009 54.8151 34.9065 57.0308 34.9065 57.0308C34.9065 57.0308 34.1767 57.0308 34.1767 57.0308C34.1767 57.0308 34.651 54.9017 34.7114 54.634C34.5886 54.6339 34.2899 54.634 34.2899 54.634C34.2899 54.6339 34.4285 54.0112 34.4285 54.0112C34.4285 54.0112 34.7288 54.0112 34.8435 54.0112C34.8637 53.9246 34.894 53.8161 34.894 53.8161C34.9383 53.6148 34.9844 53.4701 35.0448 53.3695C35.1274 53.2306 35.244 53.1144 35.3909 53.0298C35.512 52.9595 35.665 52.9174 35.8376 52.9039ZM37.5803 52.9355C37.5803 52.9355 37.3895 53.7937 37.3412 54.0112C37.4821 54.0112 37.8129 54.0112 37.8129 54.0112C37.8129 54.0112 37.6746 54.634 37.6746 54.634C37.6746 54.6339 37.3276 54.634 37.2028 54.634C37.1646 54.8071 36.8629 56.1502 36.8629 56.1502C36.8629 56.1502 36.8378 56.3114 36.8378 56.3577C36.8378 56.3593 36.8377 56.3628 36.8378 56.364C36.8379 56.3644 36.8377 56.37 36.8378 56.3704C36.838 56.3708 36.8438 56.3702 36.844 56.3704C36.844 56.3704 36.9197 56.3766 36.9197 56.3766L37.2655 56.3515L37.2279 56.9114C37.2279 56.9114 37.2342 57.0121 37.2342 57.0121C37.2342 57.0121 36.7373 57.0686 36.7373 57.0686C36.54 57.0686 36.3953 57.0365 36.2906 56.9681C36.1799 56.8956 36.1153 56.7995 36.0891 56.6787C36.0851 56.6566 36.0767 56.6242 36.0767 56.5779C36.0767 56.4874 36.0937 56.3341 36.1521 56.0684C36.1521 56.0684 36.4167 54.8836 36.473 54.6339C36.3784 54.6339 36.1269 54.6339 36.1269 54.6339C36.1269 54.6339 36.2653 54.0112 36.2653 54.0112C36.2653 54.0112 36.5107 54.0112 36.6114 54.0112C36.6436 53.8662 36.7562 53.3695 36.7562 53.3695C36.7562 53.3695 37.3412 53.0612 37.3412 53.0612C37.3411 53.0612 37.5803 52.9355 37.5803 52.9355ZM14.398 52.9607H17.2288L17.0716 53.6653C17.0716 53.6653 15.1831 53.6653 15.0019 53.6653C14.9697 53.8082 14.8407 54.387 14.7944 54.5964H16.5871L16.4299 55.3008H14.6371C14.5989 55.4759 14.2532 57.0308 14.2532 57.0308C14.2532 57.0308 13.4921 57.0308 13.4921 57.0308C13.4921 57.0308 14.398 52.9607 14.398 52.9607ZM18.1915 53.9547C18.2199 53.9512 18.2509 53.9547 18.2796 53.9547C18.4607 53.9547 18.6281 54.0096 18.7891 54.1244C18.7891 54.1244 18.8897 54.1935 18.8897 54.1935L18.4998 54.8352C18.4998 54.8352 18.3928 54.7598 18.3928 54.7598C18.3143 54.7095 18.2296 54.6844 18.141 54.6844C18.0645 54.6845 17.9935 54.7115 17.921 54.7598C17.8445 54.8102 17.7805 54.8768 17.7322 54.9674C17.6476 55.1224 17.5858 55.2962 17.5436 55.4834L17.2037 57.0308C17.2037 57.0308 16.4739 57.0308 16.4739 57.0308C16.4739 57.0308 17.1472 54.0112 17.1472 54.0112C17.1472 54.0112 17.8265 54.0112 17.8265 54.0112C17.8265 54.0112 17.8032 54.1028 17.7951 54.1371C17.8273 54.1129 17.8612 54.0798 17.8894 54.0617C17.9869 54.0035 18.09 53.9671 18.1915 53.9547ZM20.3555 53.9547C20.3994 53.9513 20.4427 53.9547 20.4876 53.9547C20.8983 53.9547 21.2091 54.0985 21.4124 54.3824C21.5392 54.5656 21.6075 54.7921 21.6075 55.0619C21.6075 55.2109 21.589 55.371 21.5508 55.5461L21.4943 55.7663C21.4943 55.7663 19.6486 55.7663 19.4433 55.7663C19.4393 55.8086 19.4371 55.854 19.4371 55.8922C19.4371 56.0492 19.4692 56.1728 19.5376 56.2634C19.5701 56.3077 19.608 56.3476 19.651 56.3767C19.7321 56.4295 19.8366 56.4585 19.9591 56.4585C20.1081 56.4585 20.2391 56.4173 20.3619 56.3388C20.4787 56.2644 20.5902 56.1454 20.6889 55.9803C20.6889 55.9803 21.4689 55.9803 21.4689 55.9803C21.4689 55.9803 21.3997 56.1313 21.3997 56.1313C21.2508 56.4333 21.0431 56.6689 20.7834 56.836C20.5237 57.0031 20.2132 57.0938 19.871 57.0938C19.4261 57.0937 19.095 56.9499 18.8897 56.666C18.6864 56.3882 18.6426 56.0041 18.7513 55.521C18.86 55.0298 19.077 54.6373 19.393 54.3635C19.6763 54.1179 19.9977 53.9817 20.3555 53.9547ZM23.6331 53.9547C23.677 53.9513 23.7203 53.9547 23.7652 53.9547C24.1759 53.9547 24.4868 54.0985 24.6901 54.3824C24.8169 54.5656 24.8849 54.7921 24.8849 55.0619C24.8849 55.2089 24.8667 55.3668 24.8284 55.5399C24.8284 55.5399 24.7717 55.7663 24.7717 55.7663C24.7717 55.7663 22.9263 55.7663 22.7209 55.7663C22.7189 55.7945 22.7167 55.82 22.7147 55.8482C22.7132 55.8587 22.7154 55.8749 22.7147 55.886C22.7147 55.8878 22.7147 55.8904 22.7147 55.8922C22.7147 55.9224 22.7189 55.9521 22.7209 55.9803C22.731 56.095 22.7609 56.191 22.8153 56.2634C22.8256 56.2775 22.8355 56.2949 22.8468 56.3075C22.939 56.4061 23.0694 56.4585 23.2367 56.4585C23.3857 56.4585 23.5185 56.4173 23.6393 56.3388C23.7561 56.2643 23.8679 56.1454 23.9665 55.9803C23.9665 55.9803 24.7528 55.9803 24.7528 55.9803C24.7528 55.9803 24.6774 56.1313 24.6774 56.1313C24.5284 56.4333 24.3205 56.6689 24.0608 56.836C23.8011 57.003 23.4909 57.0937 23.1487 57.0937C22.7038 57.0937 22.3727 56.9499 22.1673 56.666C22.0345 56.4848 21.9723 56.2541 21.9723 55.9803C21.9723 55.938 21.9745 55.8925 21.9785 55.8482C21.9865 55.7435 22.0028 55.6377 22.029 55.521C22.1377 55.0318 22.3482 54.6373 22.6642 54.3635C22.9475 54.1178 23.2753 53.9817 23.6331 53.9547ZM32.5599 53.9547C32.6049 53.9512 32.6462 53.9547 32.692 53.9547C33.1108 53.9547 33.4326 54.0963 33.642 54.3762C33.8494 54.656 33.8997 55.0334 33.793 55.5085C33.7105 55.8789 33.5913 56.1781 33.4283 56.3956C33.2652 56.613 33.0573 56.7906 32.8117 56.9114C32.5681 57.0322 32.31 57.0938 32.0503 57.0938C31.6236 57.0937 31.3059 56.9479 31.1006 56.666C30.9677 56.4869 30.8993 56.2561 30.8993 55.9803C30.8993 55.8313 30.9155 55.673 30.9558 55.4958C31.0766 54.9563 31.3232 54.5453 31.6856 54.2816C31.9515 54.0896 32.2452 53.9789 32.5599 53.9547ZM43.6133 53.9547C43.6664 53.9514 43.7155 53.9547 43.7706 53.9547C44.0242 53.9547 44.2235 53.9803 44.3745 54.0428C44.5355 54.1072 44.6497 54.1983 44.7141 54.307C44.7765 54.4097 44.8084 54.5357 44.8084 54.6907C44.8084 54.6907 44.733 55.15 44.733 55.15C44.733 55.15 44.5947 55.7728 44.5947 55.7728C44.4759 56.3042 44.4497 56.5035 44.4436 56.5779C44.4376 56.6786 44.4468 56.7767 44.475 56.8673C44.475 56.8673 44.5255 57.0308 44.5255 57.0308C44.5255 57.0308 43.783 57.0308 43.783 57.0308C43.783 57.0308 43.7517 56.9365 43.7517 56.9365C43.7396 56.8922 43.743 56.8358 43.739 56.7855C43.5981 56.872 43.457 56.9489 43.3302 56.9932C43.143 57.0576 42.9487 57.0938 42.7514 57.0938C42.4092 57.0937 42.1557 57.0047 42.0027 56.8295C41.886 56.7007 41.8328 56.5431 41.8328 56.364C41.8328 56.2955 41.8418 56.2247 41.8579 56.1502C41.8922 55.9972 41.9544 55.8556 42.053 55.7287C42.1496 55.6039 42.264 55.5012 42.3929 55.4267C42.5177 55.3522 42.6567 55.2994 42.8017 55.2632C42.8017 55.2632 43.2483 55.1876 43.2483 55.1876C43.5926 55.1473 43.8496 55.0973 44.0348 55.043C44.0388 55.0229 44.0473 54.999 44.0473 54.999C44.0765 54.8694 44.0729 54.7719 44.041 54.722C44.0387 54.7188 44.031 54.7124 44.0284 54.7096C44.0216 54.7023 44.0112 54.691 44.0032 54.6844C43.9275 54.6245 43.7984 54.5964 43.6258 54.5964C43.4305 54.5964 43.286 54.6283 43.1854 54.6907C43.0867 54.7531 42.9954 54.8673 42.9149 55.0303C42.9149 55.0303 42.1538 55.0303 42.1538 55.0303C42.1538 55.0303 42.2229 54.8793 42.2229 54.8793C42.3135 54.6699 42.4215 54.4963 42.5564 54.3635C42.6912 54.2306 42.8735 54.1277 43.0848 54.0552C43.2468 54.0017 43.4238 53.9664 43.6133 53.9547ZM46.8027 53.9547C46.8311 53.9512 46.8621 53.9547 46.8907 53.9547C47.0739 53.9547 47.2457 54.0096 47.4068 54.1244C47.4068 54.1244 47.5011 54.1935 47.5011 54.1935L47.1109 54.8352C47.1109 54.8352 47.004 54.7598 47.004 54.7598C46.9254 54.7095 46.8452 54.6844 46.7586 54.6844C46.6821 54.6845 46.6067 54.7115 46.5322 54.7598C46.4557 54.8102 46.4001 54.8768 46.3498 54.9674C46.2673 55.1224 46.2032 55.2962 46.161 55.4834C46.161 55.4834 45.8151 57.0308 45.8151 57.0308C45.8151 57.0308 45.0853 57.0308 45.0853 57.0308C45.0853 57.0308 45.7584 54.0112 45.7584 54.0112C45.7584 54.0112 46.4379 54.0112 46.4379 54.0112C46.4379 54.0112 46.4208 54.1028 46.4128 54.1371C46.445 54.1129 46.4769 54.0798 46.5071 54.0617C46.603 54.0035 46.7013 53.9671 46.8027 53.9547ZM48.9606 53.9547C49.0045 53.9513 49.0478 53.9547 49.0928 53.9547C49.5034 53.9547 49.8161 54.0985 50.0174 54.3824C50.1462 54.5656 50.2124 54.7921 50.2124 55.0619C50.2124 55.2109 50.1877 55.371 50.1495 55.5461L50.0992 55.7663C50.0992 55.7663 48.2516 55.7663 48.0482 55.7663C48.0442 55.8086 48.0358 55.854 48.0358 55.8922C48.0358 56.0492 48.0699 56.1728 48.1363 56.2634C48.1467 56.2775 48.1627 56.2949 48.1741 56.3075C48.1808 56.3145 48.1923 56.3261 48.1993 56.3326C48.2893 56.4144 48.4119 56.4585 48.5643 56.4585C48.7132 56.4585 48.8441 56.4173 48.9669 56.3388C49.0836 56.2644 49.1934 56.1454 49.2941 55.9803C49.2941 55.9803 50.0803 55.9803 50.0803 55.9803C50.0803 55.9803 50.0049 56.1313 50.0049 56.1313C49.856 56.4333 49.646 56.6689 49.3884 56.836C49.1267 57.0031 48.8204 57.0938 48.4762 57.0938C48.0313 57.0937 47.7064 56.9499 47.5011 56.666C47.2978 56.3882 47.2496 56.0041 47.3563 55.521C47.465 55.0298 47.6757 54.6373 47.9918 54.3635C48.2768 54.1179 48.6032 53.9817 48.9606 53.9547ZM37.945 54.0112C37.945 54.0112 38.6937 54.0112 38.6937 54.0112C38.6937 54.0112 38.786 55.8031 38.788 55.8293C38.8182 55.7651 38.8418 55.7113 38.8448 55.7036C38.8448 55.7036 39.6688 54.0112 39.6688 54.0112C39.6688 54.0112 40.3546 54.0112 40.3546 54.0112C40.3546 54.0112 40.4175 55.7816 40.4175 55.7917C40.4377 55.7554 41.3548 54.0112 41.3548 54.0112C41.3548 54.0112 42.097 54.0112 42.097 54.0112C42.097 54.0112 40.4616 57.0308 40.4616 57.0308C40.4616 57.0308 39.7883 57.0308 39.7883 57.0308C39.7883 57.0308 39.7231 55.3934 39.7191 55.3008C39.4413 55.8705 38.8761 57.0308 38.8761 57.0308C38.8761 57.0308 38.1841 57.0308 38.1841 57.0308C38.1841 57.0308 37.945 54.0112 37.945 54.0112ZM20.3681 54.5837C20.1947 54.591 20.0371 54.6536 19.8899 54.7725C19.7732 54.8651 19.6945 54.9922 19.6321 55.1311C19.6321 55.1311 20.8715 55.1311 20.8715 55.1311C20.8735 55.1089 20.8777 55.082 20.8777 55.0619C20.8777 54.9472 20.8572 54.8581 20.821 54.7977C20.7324 54.6527 20.6012 54.5837 20.4059 54.5837C20.3942 54.5837 20.3797 54.5832 20.3681 54.5837ZM23.6458 54.5837C23.4724 54.591 23.3148 54.6536 23.1676 54.7725C23.0508 54.8651 22.974 54.9922 22.9096 55.1311C22.9096 55.1311 24.1489 55.1311 24.1489 55.1311C24.1509 55.1089 24.1554 55.082 24.1554 55.0619C24.1554 54.9472 24.1369 54.8581 24.0986 54.7977C24.0811 54.7682 24.0572 54.7389 24.0357 54.7158C23.9516 54.629 23.8359 54.5837 23.6834 54.5837C23.6717 54.5837 23.6574 54.5832 23.6458 54.5837ZM48.9982 54.5837C48.8199 54.5892 48.6534 54.6497 48.5013 54.7725C48.3866 54.8651 48.3077 54.9922 48.2433 55.1311C48.2433 55.1311 49.4764 55.1311 49.4764 55.1311C49.4784 55.1089 49.4827 55.082 49.4827 55.0619C49.4827 54.9472 49.4644 54.8581 49.4262 54.7977C49.3396 54.6547 49.2062 54.5857 49.0109 54.5837C49.0051 54.5837 49.004 54.5836 48.9982 54.5837ZM32.5159 54.5964C32.3495 54.6161 32.1947 54.692 32.0503 54.8228C31.8772 54.9798 31.7518 55.2264 31.6793 55.5526C31.6491 55.6895 31.6353 55.8064 31.6353 55.9111C31.6353 56.0541 31.6626 56.1662 31.7169 56.2508C31.7314 56.2725 31.7508 56.2954 31.7674 56.3137C31.8569 56.4087 31.9817 56.4585 32.1384 56.4585C32.3417 56.4585 32.5209 56.3826 32.692 56.2256C32.8652 56.0666 32.9888 55.8176 33.0633 55.4834C33.1317 55.1774 33.1221 54.9488 33.0254 54.8039C32.9328 54.663 32.7976 54.5964 32.6104 54.5964C32.5786 54.5964 32.5467 54.5927 32.5159 54.5964ZM43.8838 55.6971C43.7127 55.7434 43.5209 55.7826 43.2672 55.8168C43.078 55.845 42.9431 55.8747 42.8646 55.9049C42.7962 55.9331 42.741 55.972 42.6947 56.0243C42.6504 56.0747 42.6207 56.1274 42.6066 56.1878C42.6026 56.212 42.6004 56.2369 42.6004 56.257C42.6004 56.2586 42.6004 56.2618 42.6004 56.2634C42.6006 56.2682 42.5999 56.2777 42.6004 56.2824C42.6017 56.2915 42.6041 56.3052 42.6066 56.3137C42.6076 56.3165 42.6118 56.3236 42.6128 56.3264C42.6151 56.3318 42.6166 56.3399 42.6193 56.3451C42.6222 56.3502 42.6284 56.3591 42.6317 56.364C42.637 56.3712 42.6442 56.3823 42.6507 56.3891C42.701 56.4455 42.8015 56.471 42.9465 56.471C43.1055 56.471 43.2584 56.4409 43.3993 56.3704C43.5382 56.302 43.6502 56.1998 43.7328 56.0811C43.7932 55.9965 43.8415 55.8662 43.8838 55.6971Z" fill="white"/>
<path d="M86.1356 71.2224L86.6791 68.9235C86.9066 67.8988 87.4743 67.1962 87.9836 67.1962C88.35 67.1962 88.4506 67.464 88.4325 67.8142C88.4225 67.9954 88.3822 68.1987 88.3399 68.4001L87.6676 71.2224H89.117L89.6605 68.9134C89.9102 67.8565 90.4456 67.1962 90.9449 67.1962C91.2891 67.1962 91.4321 67.4418 91.416 67.7921C91.4059 67.9954 91.3636 68.2189 91.3113 68.4222L90.659 71.2224H92.1185L92.8211 68.241C92.8755 67.9733 92.9379 67.5566 92.9479 67.3432C92.9922 66.4574 92.5594 65.9883 91.7783 65.9883C91.11 65.9883 90.4597 66.2903 89.9665 66.9265C89.9484 66.4675 89.6203 65.9883 88.807 65.9883C88.1487 65.9883 87.5206 66.2863 87.0173 66.9607H86.9972L87.1321 66.1897H85.8396C85.7551 66.6205 85.6524 67.1419 85.4954 67.7498L84.6861 71.2224H86.1356ZM81.0726 71.2224C82.824 71.2224 84.1748 69.8958 84.2694 68.09C84.3278 66.8942 83.5829 65.9883 82.208 65.9883C80.3922 65.9883 79.0897 67.4579 78.9991 69.2335C78.9367 70.5259 79.7701 71.2224 81.0726 71.2224ZM81.3081 70.0146C80.7968 70.0146 80.515 69.6884 80.5452 69.2013C80.5854 68.39 81.0867 67.1962 81.9503 67.1962C82.5462 67.1962 82.7294 67.6532 82.7052 68.1021C82.6609 68.9879 82.1214 70.0146 81.3081 70.0146ZM77.6483 63.7739L77.0826 66.0608C76.8773 65.9763 76.6095 65.9883 76.4002 65.9883C74.4716 65.9883 73.1067 67.6391 73.0161 69.4267C72.9557 70.6869 73.6281 71.2224 74.4938 71.2224C75.0997 71.2224 75.7379 70.9547 76.221 70.2622H76.2411L76.1264 71.2224H77.4913C77.5537 70.6185 77.6845 69.8998 77.8315 69.2435L79.138 63.7739H77.6483ZM76.4726 68.6899C76.2371 69.6824 75.6815 70.0146 75.2426 70.0146C74.8058 70.0146 74.5622 69.7106 74.5924 69.1691C74.6427 68.1665 75.3312 67.1962 76.2271 67.1962C76.4787 67.1962 76.6941 67.2345 76.8129 67.2908L76.4726 68.6899ZM71.6814 69.8636C71.2647 70.0669 70.7896 70.0146 70.2381 70.0146C69.7992 70.0146 69.463 69.9381 69.2778 69.7891C69.1812 69.626 69.1389 69.3724 69.1469 69.2093C71.1882 69.2637 72.4726 68.7926 72.539 67.5042C72.5873 66.5319 71.8767 65.9883 70.844 65.9883C68.998 65.9883 67.7901 67.6149 67.7116 69.1811C67.6452 70.548 68.3538 71.2224 69.8133 71.2224C70.377 71.2224 71.1218 71.158 71.7318 70.9748L71.6814 69.8636ZM71.1319 67.5042C71.1077 67.9833 70.5159 68.0115 69.3483 68.0015C69.4771 67.5807 69.9019 67.1962 70.6004 67.1962C70.9447 67.1962 71.1439 67.3271 71.1319 67.5042ZM66.3447 69.8636C65.928 70.0669 65.4529 70.0146 64.8993 70.0146C64.4624 70.0146 64.1242 69.9381 63.939 69.7891C63.8424 69.626 63.8021 69.3724 63.8102 69.2093C65.8495 69.2637 67.1358 68.7926 67.2003 67.5042C67.2486 66.5319 66.538 65.9883 65.5052 65.9883C63.6612 65.9883 62.4534 67.6149 62.3748 69.1811C62.3064 70.548 63.017 71.2224 64.4765 71.2224C65.0382 71.2224 65.785 71.158 66.393 70.9748L66.3447 69.8636ZM65.7931 67.5042C65.7689 67.9833 65.1771 68.0115 64.0115 68.0015C64.1383 67.5807 64.5651 67.1962 65.2637 67.1962C65.6079 67.1962 65.8052 67.3271 65.7931 67.5042ZM59.6652 71.2224L60.1161 69.3301C60.3537 68.3054 60.8549 67.3975 61.8031 67.3975C61.8877 67.3975 61.9702 67.4398 62.0326 67.4499L62.399 65.9984C62.3144 65.9984 62.2218 65.9883 62.1172 65.9883C61.4186 65.9883 60.8328 66.4795 60.4423 67.1841H60.402C60.4604 66.8399 60.5107 66.5138 60.549 66.1897H59.2545C59.182 66.6084 59.0653 67.4277 58.8901 68.1665L58.1534 71.2224L59.6652 71.2224ZM52.9293 71.2224H54.4311L55.1075 68.4041H57.5454L57.8594 67.1962H55.4095L55.8161 65.3844H58.4231L58.7372 63.9752H54.6203L52.9293 71.2224ZM46.4673 71.2224L46.9987 68.9557C47.2745 67.8022 47.8684 67.3975 48.3576 67.3975C48.7441 67.3975 48.8568 67.5626 48.8387 67.8022C48.8286 67.9954 48.7984 68.1987 48.7582 68.3799L48.0818 71.2224H49.5835L50.2962 68.241C50.3505 67.9833 50.4109 67.5988 50.423 67.3653C50.4673 66.4574 50.0144 66.1273 49.1809 66.1273C48.5126 66.1273 47.8623 66.4373 47.349 67.1096H47.3289L47.4658 66.1897H46.1411C46.0546 66.6205 45.9438 67.1419 45.7868 67.7498L44.9655 71.2224H46.4673ZM43.5885 71.2224L44.8064 66.1897H43.3147L42.0887 71.2224H43.5885ZM44.2871 65.5857C44.7984 65.5857 45.2533 65.163 45.2815 64.4383C45.3057 63.9471 44.9876 63.7739 44.5186 63.7739C44.0294 63.7739 43.5825 64.092 43.5563 64.5671C43.5321 65.0462 43.8502 65.5857 44.2871 65.5857ZM35.5562 70.9849C35.8461 71.2104 36.454 71.2124 37.0882 71.2224C38.443 71.2325 39.4657 70.6406 39.5261 69.5536C39.5603 68.8288 38.9986 68.4001 38.449 68.1122C38.0525 67.9209 37.8532 67.7377 37.8632 67.5243C37.8773 67.2365 38.1471 67.1962 38.5436 67.1962C38.9906 67.1962 39.3489 67.2506 39.5542 67.2908L39.9609 66.1997C39.7294 66.0608 39.2664 65.9883 38.6725 65.9883C37.3579 65.9883 36.3957 66.6829 36.3413 67.7377C36.3091 68.39 36.7782 68.8288 37.3459 69.1268C37.8048 69.3623 37.9619 69.5435 37.9498 69.7992C37.9357 70.0568 37.7062 70.0146 37.2895 70.0146C36.8003 70.0146 36.2588 69.9501 35.9729 69.9059L35.5562 70.9849ZM34.5718 71.2224C34.5839 70.5843 34.7369 69.5817 34.8959 68.9235L35.5421 66.1897C35.1314 66.0508 34.4913 65.9883 33.8753 65.9883C31.375 65.9883 30.1349 67.8404 30.0483 69.5757C29.994 70.6648 30.5838 71.2224 31.5018 71.2224C32.0957 71.2224 32.766 70.9346 33.2874 70.0689H33.3096C33.2693 70.4856 33.221 70.8903 33.1948 71.2224H34.5718ZM33.5391 68.3477C33.2451 69.628 32.6452 70.0146 32.1983 70.0146C31.7816 70.0146 31.6004 69.7186 31.6246 69.2878C31.6729 68.3155 32.4419 67.1962 33.4122 67.1962C33.5693 67.1962 33.6921 67.168 33.8068 67.1398L33.5391 68.3477ZM26.8012 69.8636C26.3845 70.0669 25.9094 70.0146 25.3578 70.0146C24.9189 70.0146 24.5827 69.9381 24.3975 69.7891C24.3009 69.626 24.2586 69.3724 24.2667 69.2093C26.308 69.2637 27.5923 68.7926 27.6588 67.5042C27.7071 66.5319 26.9965 65.9883 25.9637 65.9883C24.1177 65.9883 22.9098 67.6149 22.8313 69.1811C22.7649 70.548 23.4735 71.2224 24.933 71.2224C25.4967 71.2224 26.2415 71.158 26.8515 70.9748L26.8012 69.8636ZM26.2516 67.5042C26.2274 67.9833 25.6356 68.0115 24.468 68.0015C24.5968 67.5807 25.0216 67.1962 25.7201 67.1962C26.0644 67.1962 26.2637 67.3271 26.2516 67.5042ZM21.4644 69.8636C21.0477 70.0669 20.5726 70.0146 20.019 70.0146C19.5822 70.0146 19.244 69.9381 19.0588 69.7891C18.9621 69.626 18.9219 69.3724 18.9299 69.2093C20.9692 69.2637 22.2556 68.7926 22.32 67.5042C22.3683 66.5319 21.6577 65.9883 20.625 65.9883C18.781 65.9883 17.5731 67.6149 17.4946 69.1811C17.4261 70.548 18.1348 71.2224 19.5963 71.2224C20.1579 71.2224 20.9028 71.158 21.5127 70.9748L21.4644 69.8636ZM20.9128 67.5042C20.8887 67.9833 20.2968 68.0115 19.1312 68.0015C19.2581 67.5807 19.6848 67.1962 20.3834 67.1962C20.7276 67.1962 20.9249 67.3271 20.9128 67.5042ZM14.7849 71.2224L15.2359 69.3301C15.4734 68.3054 15.9747 67.3975 16.9229 67.3975C17.0074 67.3975 17.0899 67.4398 17.1524 67.4499L17.5187 65.9984C17.4342 65.9984 17.3416 65.9883 17.2369 65.9883C16.5384 65.9883 15.9525 66.4795 15.562 67.1841H15.5217C15.5801 66.8399 15.6304 66.5138 15.6687 66.1897H14.3743C14.2998 66.6084 14.185 67.4277 14.0099 68.1665L13.2731 71.2224L14.7849 71.2224ZM8.04907 71.2224H9.55085L10.2252 68.4041H12.6651L12.9792 67.1962H10.5292L10.9359 65.3844H13.5428L13.8569 63.9752H9.74008L8.04907 71.2224Z" fill="white"/>
</g>
<defs>
<clipPath id="clip0_279_344">
<rect width="85" height="42.2639" fill="white" transform="translate(8 29)"/>
</clipPath>
</defs>
</svg>
