<svg width="100" height="100" viewBox="0 0 100 100" fill="none" xmlns="http://www.w3.org/2000/svg">
<rect width="100" height="100" rx="24" fill="white"/>
<path d="M89.0923 44.5124C88.9518 43.084 88.7176 41.4449 88.2493 39.6185C87.781 37.8154 87.0785 35.8251 86.0482 33.7645C85.0179 31.7039 83.6832 29.573 81.9504 27.489C81.2713 26.6694 80.522 25.8733 79.7259 25.1006C80.9201 20.3471 78.2741 16.2259 78.2741 16.2259C73.708 15.9449 70.8044 17.6543 69.7273 18.427C69.5399 18.3568 69.376 18.2631 69.1887 18.1928C68.416 17.8884 67.6198 17.584 66.7769 17.3264C65.9573 17.0689 65.1143 16.8347 64.2479 16.624C63.3815 16.4132 62.5152 16.2493 61.6253 16.1088C61.4614 16.0854 61.3209 16.062 61.157 16.0386C59.1667 9.66942 53.4532 7 53.4532 7C47.0606 11.051 45.8664 16.7176 45.8664 16.7176C45.8664 16.7176 45.843 16.8347 45.7961 17.0455C45.4449 17.1391 45.0937 17.2562 44.7424 17.3499C44.2507 17.4904 43.759 17.6777 43.2906 17.865C42.7989 18.0523 42.3306 18.2397 41.8388 18.4504C40.8788 18.8719 39.9187 19.3402 38.9821 19.8554C38.0689 20.3705 37.1791 20.9325 36.3127 21.5179C36.1956 21.4711 36.0785 21.4242 36.0785 21.4242C27.2273 18.0523 19.3829 22.1033 19.3829 22.1033C18.657 31.5165 22.9187 37.4408 23.7617 38.5179C23.551 39.1033 23.3636 39.6887 23.1763 40.2741C22.5207 42.405 22.0289 44.5826 21.7245 46.854C21.6777 47.1818 21.6309 47.5096 21.6074 47.8375C13.4118 51.8884 11 60.1543 11 60.1543C17.814 67.9986 25.7755 68.4904 25.7755 68.4904L25.7989 68.4669C26.8058 70.27 27.9766 71.9793 29.2879 73.595C29.8499 74.2741 30.4118 74.9063 31.0207 75.5386C28.5386 82.657 31.3719 88.5579 31.3719 88.5579C38.9587 88.8388 43.9463 85.2328 45 84.4132C45.7493 84.6708 46.522 84.905 47.2948 85.0923C49.6364 85.7011 52.0248 86.0523 54.4132 86.146C54.9986 86.1694 55.6074 86.1928 56.1928 86.1694H56.4738H56.6612H57.0358L57.4105 86.146V86.1694C60.9931 91.2741 67.2686 92 67.2686 92C71.7411 87.2934 71.9986 82.6102 71.9986 81.6033C71.9986 81.6033 71.9986 81.5799 71.9986 81.5331C71.9986 81.4394 71.9986 81.3926 71.9986 81.3926C71.9986 81.3223 71.9986 81.2521 71.9986 81.1818C72.9353 80.5262 73.8251 79.8237 74.668 79.051C76.4477 77.4353 78.0165 75.5854 79.3278 73.595C79.4449 73.4077 79.562 73.2204 79.6791 73.0331C84.7369 73.3141 88.3196 69.8953 88.3196 69.8953C87.4766 64.6267 84.4793 62.051 83.8471 61.5592C83.8471 61.5592 83.8237 61.5358 83.7769 61.5124C83.73 61.489 83.73 61.4656 83.73 61.4656C83.7066 61.4422 83.6598 61.4187 83.613 61.3953C83.6364 61.0675 83.6598 60.7631 83.6832 60.4353C83.73 59.8733 83.73 59.2879 83.73 58.7259V58.3044V58.0937V57.9766C83.73 57.8361 83.73 57.8829 83.73 57.8361L83.7066 57.4849L83.6832 57.0165C83.6832 56.8526 83.6598 56.7121 83.6364 56.5716C83.6129 56.4311 83.613 56.2672 83.5895 56.1267L83.5427 55.6818L83.4725 55.2369C83.3788 54.6515 83.2851 54.0895 83.1446 53.5041C82.6061 51.2328 81.7163 49.0785 80.5689 47.135C79.3981 45.1915 77.9463 43.4821 76.2838 42.0303C74.6446 40.5785 72.7948 39.4077 70.8747 38.5413C68.9311 37.6749 66.9174 37.1129 64.9036 36.8554C63.8967 36.7149 62.8898 36.668 61.8829 36.6915H61.5083H61.4146C61.3912 36.6915 61.2741 36.6915 61.2975 36.6915H61.1336L60.759 36.7149C60.6185 36.7149 60.478 36.7383 60.3609 36.7383C59.8457 36.7851 59.3306 36.8554 58.8388 36.949C56.8251 37.3237 54.9284 38.0496 53.2658 39.0565C51.6033 40.0634 50.1515 41.3044 48.9807 42.7094C47.8099 44.1143 46.8967 45.6832 46.2645 47.2989C45.6322 48.9146 45.281 50.6006 45.1873 52.2163C45.1639 52.6143 45.1639 53.0358 45.1639 53.4339C45.1639 53.5275 45.1639 53.6446 45.1639 53.7383L45.1873 54.0661C45.2107 54.2534 45.2107 54.4642 45.2342 54.6515C45.3044 55.4711 45.4683 56.2672 45.6791 57.0165C46.124 58.5386 46.8264 59.9201 47.6928 61.0909C48.5592 62.2617 49.6129 63.2218 50.7135 63.9945C51.814 64.7438 53.0083 65.2824 54.1791 65.6336C55.3499 65.9849 56.5207 66.1253 57.6212 66.1253C57.7617 66.1253 57.9022 66.1253 58.0193 66.1253C58.0895 66.1253 58.1598 66.1253 58.23 66.1253C58.3003 66.1253 58.3705 66.1253 58.4408 66.1019C58.5579 66.1019 58.6749 66.0785 58.792 66.0785C58.8154 66.0785 58.8623 66.0785 58.8857 66.0551L59.0028 66.0317C59.073 66.0317 59.1433 66.0083 59.2135 66.0083C59.354 65.9848 59.4711 65.9614 59.6116 65.938C59.7521 65.9146 59.8691 65.8912 59.9862 65.8444C60.2438 65.7975 60.478 65.7039 60.7121 65.6336C61.1804 65.4697 61.6488 65.2824 62.0468 65.0716C62.4683 64.8609 62.843 64.6033 63.2176 64.3691C63.3113 64.2989 63.4284 64.2287 63.522 64.135C63.8967 63.8306 63.9669 63.2686 63.6625 62.8939C63.405 62.5661 62.9366 62.4725 62.562 62.6832C62.4683 62.73 62.3747 62.7769 62.281 62.8237C61.9532 62.9876 61.6253 63.1281 61.2741 63.2452C60.9229 63.3623 60.5482 63.4559 60.1736 63.5262C59.9862 63.5496 59.7989 63.573 59.5882 63.5964C59.4945 63.5964 59.4008 63.6198 59.2837 63.6198C59.1901 63.6198 59.073 63.6198 59.0028 63.6198C58.9091 63.6198 58.8154 63.6198 58.7218 63.6198C58.6047 63.6198 58.4876 63.6198 58.3705 63.5964C58.3705 63.5964 58.3003 63.5964 58.3471 63.5964H58.3003H58.23C58.1832 63.5964 58.1129 63.5964 58.0661 63.573C57.949 63.5496 57.8554 63.5496 57.7383 63.5262C56.8719 63.4091 56.0055 63.1515 55.186 62.7769C54.343 62.4022 53.5468 61.8871 52.8209 61.2314C52.095 60.5758 51.4628 59.803 50.9711 58.9132C50.4793 58.0234 50.1281 57.0399 49.9642 56.0096C49.8939 55.4945 49.8471 54.9559 49.8705 54.4408C49.8705 54.3003 49.8939 54.1598 49.8939 54.0193C49.8939 54.0661 49.8939 53.9959 49.8939 53.9959V53.949V53.832C49.8939 53.7617 49.9174 53.6915 49.9174 53.6212C49.9408 53.3402 49.9876 53.0592 50.0344 52.7782C50.4325 50.5303 51.5565 48.3292 53.2893 46.6667C53.7342 46.2452 54.2025 45.8705 54.6942 45.5193C55.186 45.168 55.7245 44.8636 56.2865 44.6061C56.8485 44.3485 57.4105 44.1377 58.0193 43.9738C58.6047 43.8099 59.2135 43.7163 59.8457 43.646C60.1501 43.6226 60.4545 43.5992 60.7824 43.5992C60.876 43.5992 60.9229 43.5992 60.9931 43.5992H61.2507H61.4146C61.4849 43.5992 61.4146 43.5992 61.438 43.5992H61.5083L61.7658 43.6226C62.4449 43.6694 63.1006 43.7631 63.7562 43.927C65.0675 44.208 66.3554 44.6997 67.5496 45.3554C69.938 46.6901 71.9752 48.7507 73.2163 51.2328C73.8485 52.4738 74.2934 53.8085 74.5041 55.1901C74.551 55.5413 74.5978 55.8926 74.6212 56.2438L74.6446 56.5014L74.668 56.759C74.668 56.8526 74.668 56.9463 74.668 57.0165C74.668 57.1102 74.668 57.2039 74.668 57.2741V57.5083V57.7658C74.668 57.9298 74.6446 58.2107 74.6446 58.3747C74.6212 58.7493 74.5744 59.1474 74.5275 59.522C74.4807 59.8967 74.4105 60.2714 74.3402 60.646C74.27 61.0207 74.1763 61.3953 74.0826 61.7466C73.8953 62.4725 73.6612 63.1983 73.3802 63.9242C72.8182 65.3292 72.0689 66.6873 71.1791 67.9284C69.376 70.4105 66.9174 72.4242 64.1074 73.7121C62.7025 74.3444 61.2273 74.8127 59.7052 75.0468C58.9559 75.1873 58.1832 75.2576 57.4105 75.281H57.27H57.1529H56.8953H56.5207H56.3333C56.427 75.281 56.3099 75.281 56.3099 75.281H56.2397C55.8182 75.281 55.4201 75.2576 54.9986 75.2107C53.3595 75.0937 51.7438 74.7893 50.1515 74.3444C48.5826 73.8995 47.0606 73.2672 45.6088 72.5179C42.7287 70.9725 40.1295 68.865 38.1157 66.3127C37.1088 65.0482 36.219 63.6667 35.4931 62.2383C34.7672 60.8099 34.1818 59.2879 33.7603 57.7658C33.3388 56.2204 33.0813 54.6515 32.9642 53.0592L32.9408 52.7548V52.6846V52.6143V52.4738V52.2163V52.146V52.0523V51.865V51.4904V51.4201C32.9408 51.4201 32.9408 51.4435 32.9408 51.3967V51.2562C32.9408 51.0689 32.9408 50.8581 32.9408 50.6708C32.9642 49.8981 33.0344 49.0785 33.1281 48.2824C33.2218 47.4862 33.3623 46.6667 33.5262 45.8705C33.6901 45.0744 33.8774 44.2782 34.1116 43.4821C34.5565 41.9132 35.1185 40.3912 35.7741 38.9628C37.1088 36.1061 38.8416 33.5537 40.9256 31.5165C41.4408 31.0014 41.9793 30.5331 42.5413 30.0647C43.1033 29.6198 43.6887 29.1983 44.2975 28.8003C44.8829 28.4022 45.5152 28.051 46.1474 27.7231C46.4518 27.5592 46.7796 27.3953 47.1074 27.2548C47.2714 27.1846 47.4353 27.1143 47.5992 27.0441C47.7631 26.9738 47.927 26.9036 48.0909 26.8333C48.7466 26.5523 49.4256 26.3182 50.1281 26.1074C50.292 26.0606 50.4793 26.0138 50.6433 25.9435C50.8072 25.8967 50.9945 25.8499 51.1584 25.803C51.5096 25.7094 51.8609 25.6157 52.2121 25.5455C52.376 25.4986 52.5634 25.4752 52.7507 25.4284C52.938 25.3815 53.1019 25.3581 53.2893 25.3113C53.4766 25.2879 53.6405 25.241 53.8278 25.2176L54.0854 25.1708L54.3664 25.124C54.5537 25.1006 54.7176 25.0771 54.905 25.0537C55.1157 25.0303 55.303 25.0069 55.5138 24.9835C55.6777 24.9601 55.9587 24.9366 56.1226 24.9132C56.2397 24.8898 56.3802 24.8898 56.4972 24.8664L56.7548 24.843L56.8719 24.8196H57.0124C57.2231 24.7961 57.4105 24.7961 57.6212 24.7727L57.9256 24.7493C57.9256 24.7493 58.0427 24.7493 57.949 24.7493H58.0193H58.1598C58.3237 24.7493 58.511 24.7259 58.6749 24.7259C59.354 24.7025 60.0565 24.7025 60.7355 24.7259C62.0937 24.7727 63.4284 24.9366 64.7163 25.1708C67.3154 25.6625 69.7507 26.4821 71.9752 27.5826C74.1997 28.6598 76.1667 29.9945 77.8995 31.4463C78.0165 31.5399 78.1102 31.6336 78.2273 31.7273C78.3209 31.8209 78.438 31.9146 78.5317 32.0083C78.7424 32.1956 78.9298 32.3829 79.1405 32.5702C79.3512 32.7576 79.5386 32.9449 79.7259 33.1322C79.9132 33.3196 80.1006 33.5069 80.2879 33.7176C81.0138 34.4904 81.6928 35.2631 82.3017 36.0592C83.5193 37.6281 84.5028 39.2204 85.2755 40.719C85.3223 40.8127 85.3691 40.9063 85.416 41C85.4628 41.0937 85.5096 41.1873 85.5565 41.281C85.6501 41.4683 85.7438 41.6556 85.8141 41.843C85.9077 42.0303 85.978 42.1942 86.0716 42.3815C86.1419 42.5689 86.2355 42.7328 86.3058 42.9201C86.5868 43.6226 86.8678 44.3017 87.0785 44.9339C87.4298 45.9642 87.6873 46.8774 87.8981 47.6736C87.9683 48.0014 88.2727 48.2121 88.6006 48.1653C88.9518 48.1419 89.2094 47.8609 89.2094 47.5096C89.2328 46.6667 89.2094 45.6598 89.0923 44.5124Z" fill="url(#paint0_linear_278_328)"/>
<defs>
<linearGradient id="paint0_linear_278_328" x1="3921.47" y1="10415.3" x2="3921.47" y2="2653.82" gradientUnits="userSpaceOnUse">
<stop stop-color="#FFF100"/>
<stop offset="1" stop-color="#F05A28"/>
</linearGradient>
</defs>
</svg>
