<svg width="100" height="100" viewBox="0 0 100 100" fill="none" xmlns="http://www.w3.org/2000/svg">
<rect width="100" height="100" rx="24" fill="#E535AB"/>
<path d="M15.7664 69.9815L18.8867 71.7831L53.6486 11.5755L50.5283 9.77393L15.7664 69.9815Z" fill="white"/>
<path d="M84.5755 65.1716H15.0518V68.7748H84.5755V65.1716Z" fill="white"/>
<path d="M16.4275 67.1959L51.2024 87.2738L53.004 84.1535L18.2291 64.0756L16.4275 67.1959Z" fill="white"/>
<path d="M46.6365 14.8677L81.4114 34.9456L83.213 31.8252L48.4381 11.7473L46.6365 14.8677Z" fill="white"/>
<path d="M16.4372 31.8113L18.2388 34.9316L53.0137 14.8538L51.2121 11.7334L16.4372 31.8113Z" fill="white"/>
<path d="M46.0084 11.5762L80.7703 71.7838L83.8906 69.9822L49.1287 9.77466L46.0084 11.5762Z" fill="white"/>
<path d="M21.4118 29.4221H17.8086V69.5779H21.4118V29.4221Z" fill="white"/>
<path d="M81.8407 29.4221H78.2375V69.5779H81.8407V29.4221Z" fill="white"/>
<path d="M49.0154 83.0231L50.5891 85.7487L80.8339 68.2863L79.2602 65.5607L49.0154 83.0231Z" fill="white"/>
<path d="M86.6159 70.7499C84.5322 74.3748 79.8871 75.6121 76.2623 73.5283C72.6374 71.4445 71.4002 66.7995 73.4839 63.1746C75.5677 59.5497 80.2127 58.3125 83.8376 60.3963C87.4842 62.5017 88.7214 67.1251 86.6159 70.7499Z" fill="white"/>
<path d="M26.1435 35.8254C24.0598 39.4503 19.4147 40.6875 15.7899 38.6037C12.165 36.52 10.9277 31.8749 13.0115 28.2501C15.0953 24.6252 19.7403 23.388 23.3652 25.4717C26.9901 27.5772 28.2273 32.2005 26.1435 35.8254Z" fill="white"/>
<path d="M13.0332 70.7499C10.9495 67.1251 12.1867 62.5017 15.8116 60.3963C19.4365 58.3125 24.0598 59.5497 26.1653 63.1746C28.249 66.7995 27.0118 71.4228 23.3869 73.5283C19.7403 75.6121 15.117 74.3748 13.0332 70.7499Z" fill="white"/>
<path d="M73.5056 35.8254C71.4219 32.2005 72.6591 27.5772 76.284 25.4717C79.9089 23.388 84.5322 24.6252 86.6377 28.2501C88.7214 31.8749 87.4842 36.4983 83.8593 38.6037C80.2344 40.6875 75.5894 39.4503 73.5056 35.8254Z" fill="white"/>
<path d="M49.8246 92C45.6354 92 42.2493 88.6139 42.2493 84.4247C42.2493 80.2355 45.6354 76.8494 49.8246 76.8494C54.0138 76.8494 57.3999 80.2355 57.3999 84.4247C57.3999 88.5922 54.0138 92 49.8246 92Z" fill="white"/>
<path d="M49.8246 22.1507C45.6354 22.1507 42.2493 18.7646 42.2493 14.5753C42.2493 10.3861 45.6354 7 49.8246 7C54.0138 7 57.3999 10.3861 57.3999 14.5753C57.3999 18.7646 54.0138 22.1507 49.8246 22.1507Z" fill="white"/>
</svg>
