<svg width="100" height="100" viewBox="0 0 100 100" fill="none" xmlns="http://www.w3.org/2000/svg">
<rect width="100" height="100" rx="24" fill="white"/>
<path d="M52.7013 39.151C53.1928 38.6595 53.1928 37.863 52.7013 37.3719C52.2097 36.8804 51.4138 36.8804 50.9223 37.3719C50.4306 37.863 50.4306 38.6595 50.9223 39.151C51.4138 39.642 52.2097 39.642 52.7013 39.151ZM48.2061 40.091C47.7144 40.582 47.7144 41.3786 48.2061 41.87C48.6969 42.3611 49.4935 42.3611 49.9852 41.87C50.476 41.3786 50.476 40.582 49.9852 40.091C49.4935 39.5995 48.6969 39.5995 48.2061 40.091ZM56.0043 40.7522C55.2354 39.983 53.9889 39.9837 53.2204 40.7522L51.5831 42.3895C50.8139 43.1587 50.8139 44.4051 51.5831 45.1734L53.3807 46.9717C54.1496 47.7409 55.3961 47.7402 56.1646 46.9717L57.802 45.3344C58.5709 44.5652 58.5709 43.3187 57.802 42.5498L56.0043 40.7522ZM71.7914 34.8452C73.8689 30.8887 70.93 28.5777 68.9099 26.6808C65.6741 23.6391 62.4467 22.3241 58.7605 26.5358C55.0768 30.7476 57.4172 35.6323 60.7868 38.0432C64.1579 40.4541 69.7109 38.8006 71.7914 34.8452ZM66.2098 33.2227C64.9116 31.6667 67.3385 28.8417 68.8611 30.5286C71.6656 33.6365 67.5103 34.7787 66.2098 33.2227ZM50.0008 8C26.8044 8 8 26.8043 8 49.9986C8 73.1945 26.8044 92 50.0008 92C73.1957 92 92 73.1945 92 49.9986C92 26.8043 73.1957 8 50.0008 8ZM72.7125 56.882C68.3327 53.9876 65.8301 51.5419 63.65 47.157C62.1591 50.1613 58.6782 54.6287 52.8063 58.1431C49.875 67.2624 35.9304 84.7148 31.4174 82.2409C30.0811 81.5091 29.8274 80.5451 30.1291 79.5507C30.4528 77.0578 35.6098 71.3282 35.6098 71.3282C35.6098 71.3282 35.7188 72.5304 37.3686 75.0632C35.1896 68.2984 40.969 59.9516 42.5 57.1102C44.9058 56.3435 45.0801 53.2545 45.0801 53.2545C45.2339 48.4797 43.1011 45.0229 41.0342 42.9555C42.5192 44.7679 42.9999 47.5069 43.0704 50.0154V50.0293C43.0779 50.3127 43.0779 50.5909 43.0768 50.8681C43.0063 52.9445 42.3782 55.8129 41.0342 55.8129L41.0382 55.831C39.6564 55.7717 37.9505 56.0667 36.4263 56.5433L33.0568 57.3485C33.0568 57.3485 34.8537 57.2663 35.8241 58.1047C34.7434 59.8645 32.3415 62.0483 29.6626 63.289C25.7649 65.0967 24.6447 61.5 26.6236 59.161C27.1095 58.5892 27.6004 58.1073 28.0644 57.7124C27.7657 57.4034 27.5774 56.9895 27.5278 56.4642C27.5274 56.4615 27.5254 56.4589 27.5248 56.4562C27.2531 55.2628 27.4029 53.7135 29.0916 51.251C29.425 50.7297 29.8247 50.1953 30.3036 49.6525C30.3189 49.634 30.3317 49.6167 30.3471 49.5986C30.3677 49.5737 30.3907 49.55 30.4119 49.5257C30.4241 49.5122 30.4356 49.4987 30.4484 49.4846C30.5689 49.3475 30.6971 49.2135 30.8342 49.0842C32.8465 47.023 36.0253 44.8794 41.0342 42.9555C46.8757 34.3692 49.015 32.7586 49.015 32.7586C49.6616 32.0973 50.792 31.2752 51.2075 31.0656C48.1569 25.7648 47.541 18.2924 48.3402 16.2787C48.2754 16.3878 48.2159 16.4991 48.1664 16.6146C48.4627 15.925 48.6612 15.7033 48.969 15.3405C49.802 14.3548 52.6257 13.8384 53.6396 15.9263C54.1797 17.0395 54.2817 18.4814 54.2637 19.5625C52.0277 19.446 49.9994 21.9991 49.9994 21.9991C49.9994 21.9991 51.8515 21.1251 54.1523 21.1097C54.1523 21.1097 54.7656 21.6429 55.5308 22.6444C54.4977 24.5844 52.7993 28.6942 54.0292 33.0086C54.233 33.8589 54.5412 34.5896 54.9239 35.2113C54.9385 35.2381 54.9507 35.2651 54.9655 35.2927C54.9962 35.3329 55.0238 35.3663 55.0526 35.4035C57.0861 38.465 60.8134 38.8232 60.8134 38.8232C59.0587 37.9477 57.6295 36.5533 56.699 34.8627C56.2153 33.9585 55.919 33.195 55.737 32.5928C54.7501 28.7809 56.2031 26.5556 57.0348 25.0638C58.9486 22.0952 62.4349 20.2983 66.182 20.7263C71.441 21.3263 75.2183 26.0763 74.6171 31.3339C74.2506 34.5461 72.3344 37.2031 69.7017 38.649C70.3349 40.3626 69.6582 42.4403 69.6582 42.4403C71.2526 44.446 71.3229 45.6023 71.2679 46.6763C69.2414 46.3354 67.2727 47.703 67.2727 47.703C67.2727 47.703 71.1821 46.7698 73.4533 48.7956C74.9304 50.3843 75.9156 51.8201 76.5026 52.8804C77.3434 54.3926 81.2475 54.5005 80.8029 57.2203C80.358 59.9361 77.3805 59.9617 72.7125 56.882Z" fill="#221E1F"/>
</svg>
