<svg width="100" height="100" viewBox="0 0 100 100" fill="none" xmlns="http://www.w3.org/2000/svg">
<rect width="100" height="100" rx="24" fill="white"/>
<path d="M17.4095 62.8609C18.0406 63.7005 18.8607 64.3795 19.8033 64.8428C20.8228 65.3478 21.9477 65.6031 23.0852 65.5878C24.005 65.6119 24.9206 65.4557 25.7804 65.1281C26.468 64.8579 27.0819 64.4287 27.5718 63.8757C28.0315 63.3369 28.3671 62.7035 28.5548 62.0206C28.7595 61.2825 28.8608 60.5196 28.8559 59.7537V57.0903H28.7927C28.1965 58.0352 27.3366 58.7848 26.3191 59.2464C25.349 59.6688 24.3016 59.8847 23.2436 59.8805C22.2068 59.8883 21.1784 59.6945 20.2156 59.3098C19.304 58.9479 18.4699 58.4151 17.7582 57.7402C17.0519 57.0622 16.4909 56.2476 16.1093 55.346C15.7032 54.3942 15.4981 53.3687 15.5069 52.3339C15.4981 51.3021 15.6921 50.2786 16.0778 49.3216C16.4424 48.4162 16.9748 47.5878 17.6472 46.8802C18.3194 46.1784 19.1289 45.6225 20.0253 45.2472C20.9845 44.8484 22.0148 44.6488 23.0535 44.6606C23.5265 44.6634 23.9984 44.7057 24.4643 44.7873C24.9766 44.8768 25.4768 45.0258 25.9546 45.2313C27.0889 45.723 28.0695 46.5118 28.7927 47.5146H28.8559V45.041H30.9488V59.7537C30.9417 60.6181 30.8406 61.4793 30.6475 62.3219C30.4455 63.233 30.0449 64.0883 29.4744 64.8268C28.8252 65.6415 27.9945 66.2931 27.0486 66.7296C26.0127 67.2366 24.6597 67.4902 22.9899 67.4902C21.6334 67.5133 20.2859 67.2654 19.0264 66.7611C17.8215 66.2449 16.7406 65.4774 15.856 64.51L17.4095 62.8609ZM17.7899 52.2707C17.7847 53.0264 17.9302 53.7755 18.2181 54.4742C18.4925 55.1447 18.8904 55.7577 19.391 56.2815C19.8887 56.8005 20.4805 57.2202 21.135 57.5182C21.8168 57.8281 22.5582 57.985 23.307 57.9779C24.7901 57.9833 26.2192 57.4219 27.3021 56.4085C27.834 55.9067 28.2506 55.2953 28.5231 54.6167C28.8167 53.8707 28.9518 53.0717 28.9195 52.2707C28.9249 51.5192 28.796 50.7729 28.5389 50.0667C28.2947 49.3956 27.9171 48.7809 27.429 48.2595C26.9273 47.731 26.3232 47.3102 25.6535 47.0229C24.9119 46.7078 24.1127 46.5511 23.307 46.563C22.5582 46.5562 21.8168 46.7131 21.135 47.0229C20.4808 47.3212 19.889 47.7408 19.391 48.2595C18.8905 48.7834 18.4926 49.3964 18.2179 50.0667C17.9301 50.7656 17.7847 51.5149 17.7899 52.2707ZM39.4778 59.8805H37.195V37.431H44.1073C46.3902 37.431 48.1923 37.9277 49.5134 38.9212C50.8344 39.9151 51.495 41.4159 51.4953 43.4239C51.5355 44.8813 51.0067 46.2971 50.0209 47.3714C49.0378 48.4391 47.6162 49.0574 45.7562 49.2262L52.2246 59.8805H49.4341L43.2831 49.4485H39.478L39.4778 59.8805ZM39.4778 47.3558H43.5366C44.4087 47.3741 45.2789 47.2673 46.1207 47.0386C46.7364 46.874 47.3131 46.5884 47.8172 46.1985C48.2238 45.8712 48.5403 45.4456 48.7365 44.9619C48.9295 44.4723 49.0264 43.9501 49.022 43.4239C49.0243 42.9082 48.9274 42.3969 48.7365 41.9179C48.538 41.431 48.2222 41.0007 47.8172 40.6653C47.3179 40.2677 46.7396 39.9812 46.1207 39.825C45.277 39.6078 44.4076 39.5065 43.5366 39.5239H39.4778V47.3558ZM56.1559 37.431H62.688C64.9708 37.431 66.7727 37.9278 68.0939 38.9215C69.4149 39.9153 70.0755 41.4162 70.0758 43.4241C70.0758 45.4326 69.4151 46.9387 68.0939 47.9423C66.7727 48.9466 64.9708 49.4486 62.688 49.4485H58.4391V59.8805H56.1559V37.431ZM58.4393 47.356H62.1175C62.9896 47.3743 63.8598 47.2675 64.7016 47.0388C65.3172 46.8741 65.8939 46.5885 66.3981 46.1987C66.8047 45.8714 67.1211 45.4458 67.3174 44.9622C67.5104 44.4725 67.6074 43.9503 67.6029 43.4241C67.6053 42.9084 67.5084 42.3971 67.3174 41.9181C67.1188 41.4312 66.803 41.0009 66.3981 40.6655C65.8988 40.2679 65.3204 39.9815 64.7016 39.8252C63.8579 39.608 62.9885 39.5067 62.1175 39.5241H58.4391L58.4393 47.356ZM93 56.3292C92.5983 56.9244 92.1245 57.4676 91.5895 57.9464C91.0102 58.4668 90.3652 58.9091 89.671 59.262C88.9299 59.6405 88.1481 59.9331 87.3406 60.1343C86.4745 60.3492 85.585 60.4557 84.6926 60.4512C83.1008 60.4661 81.5219 60.1644 80.0477 59.5636C77.2363 58.4275 75.0093 56.1947 73.8804 53.3804C73.2763 51.8793 72.9746 50.2737 72.9927 48.6557C72.9746 47.0378 73.2763 45.4322 73.8804 43.9311C75.0092 41.1169 77.2363 38.8842 80.0477 37.7484C81.5219 37.1474 83.1008 36.8456 84.6926 36.8605C86.1274 36.8682 87.5477 37.1478 88.8783 37.6847C90.2974 38.2526 91.5357 39.1952 92.4611 40.4118L90.4637 41.9021C90.1954 41.5023 89.8755 41.1398 89.5122 40.8239C89.0926 40.4524 88.6296 40.133 88.1333 39.8728C87.603 39.5935 87.045 39.3703 86.4684 39.2069C85.8912 39.0399 85.2935 38.9545 84.6926 38.9532C83.3607 38.9313 82.0403 39.2019 80.8244 39.7459C79.7212 40.2464 78.7335 40.9696 77.9233 41.8701C77.1214 42.7732 76.5021 43.8232 76.0997 44.9619C75.2544 47.3519 75.2544 49.9596 76.0997 52.3495C76.502 53.4883 77.1213 54.5382 77.9233 55.4412C78.7333 56.342 79.7211 57.0653 80.8244 57.5656C82.0402 58.1099 83.3607 58.3806 84.6926 58.3585C85.2828 58.3588 85.8719 58.3057 86.4525 58.1999C87.0433 58.0913 87.6184 57.9103 88.1648 57.661C88.7409 57.3967 89.2751 57.0494 89.7503 56.6301C90.2842 56.1532 90.7484 55.6036 91.1294 54.9975L93 56.3292Z" fill="#244B5A"/>
<path d="M13.9125 44.7811L8.00003 38.9124L13.8687 33L19.7811 38.8686L13.9125 44.7811Z" fill="url(#paint0_linear_280_3)"/>
<path d="M30.001 42.276L26.533 38.8338L29.9753 35.3658L33.4432 38.8081L30.001 42.276Z" fill="url(#paint1_linear_280_3)"/>
<path d="M14.1275 35.3288L10.5736 38.9093L14.154 42.4633L17.183 42.452L14.0066 39.3012L29.6913 39.243L28.3166 40.627L29.8312 40.6214L31.6082 38.8312L29.8179 37.0543L28.3034 37.0598L29.6884 38.4338L14.0038 38.492L17.1564 35.3175L14.1275 35.3288Z" fill="#244B5A"/>
<defs>
<linearGradient id="paint0_linear_280_3" x1="-577.332" y1="-542.084" x2="600.777" y2="-546.463" gradientUnits="userSpaceOnUse">
<stop stop-color="#72C9C9"/>
<stop offset="1" stop-color="#02B0AD"/>
</linearGradient>
<linearGradient id="paint1_linear_280_3" x1="-316.795" y1="-301.951" x2="374.228" y2="-304.52" gradientUnits="userSpaceOnUse">
<stop stop-color="#03B6B4"/>
<stop offset="1" stop-color="#74CBCA"/>
</linearGradient>
</defs>
</svg>
