<svg width="100" height="100" viewBox="0 0 100 100" fill="none" xmlns="http://www.w3.org/2000/svg">
<rect width="100" height="100" rx="24" fill="white"/>
<path d="M86.2875 28.2501C83.8818 24.1078 54.351 7 49.5416 7C44.7337 7 15.1913 24.0649 12.7993 28.2501C10.4069 32.4353 10.3936 66.5664 12.7993 70.7519C15.2048 74.9352 44.7371 92 49.5416 92C54.346 92 83.882 74.9138 86.286 70.7501C88.6895 66.5864 88.6911 32.3922 86.2875 28.2501ZM59.4974 75.767C58.8397 75.767 52.7055 69.8286 53.1887 69.3435C53.333 69.1994 54.2281 69.0981 56.1024 69.0397C56.1024 64.6855 56.2003 57.653 56.2583 54.7092C56.2653 54.374 56.1853 54.1399 56.1853 53.738H42.9157C42.9157 54.9167 42.8395 59.7477 43.1433 65.8374C43.1812 66.591 42.8809 66.8266 42.1902 66.8233C40.5083 66.8186 38.8251 66.805 37.1417 66.8101C36.4612 66.8118 36.1672 66.5562 36.1888 65.796C36.3414 60.2446 36.6803 51.8471 36.164 30.4895V29.963C34.5586 29.905 33.4446 29.8038 33.2984 29.6578C32.8135 29.1729 39.0326 23.2347 39.6884 23.2347C40.3459 23.2347 46.5234 29.1746 46.0418 29.6578C45.8973 29.8021 44.7302 29.905 43.2577 29.963V30.4878C42.856 34.7628 42.9208 43.7009 42.8212 47.9842H56.1454C56.1454 47.2286 56.2103 42.2168 55.9464 34.0987C55.9296 33.5356 56.104 33.2402 56.6451 33.2354C58.4827 33.2221 60.3223 33.2137 62.1618 33.2252C62.7361 33.2287 62.9203 33.5109 62.9089 34.1184C62.3028 65.8755 62.7991 63.6592 62.7991 69.0379C64.2718 69.0961 65.5915 69.1975 65.7362 69.3437C66.2144 69.8269 60.1548 75.767 59.4974 75.767Z" fill="#2EC866"/>
</svg>
