<svg width="100" height="100" viewBox="0 0 100 100" fill="none" xmlns="http://www.w3.org/2000/svg">
<rect width="100" height="100" rx="24" fill="white"/>
<path opacity="0.5" d="M71.7544 81.3728H61.1272V92.0001H71.7544V81.3728Z" fill="url(#paint0_linear_277_4)"/>
<path opacity="0.7" d="M61.1272 81.3728H50.5V92.0001H61.1272V81.3728Z" fill="url(#paint1_linear_277_4)"/>
<path opacity="0.7" d="M50.5044 81.3728H39.8772V92.0001H50.5044V81.3728Z" fill="url(#paint2_linear_277_4)"/>
<path opacity="0.5" d="M39.8772 81.3728H29.25V92.0001H39.8772V81.3728Z" fill="url(#paint3_linear_277_4)"/>
<path opacity="0.7" d="M82.3728 70.75H71.75V81.3772H82.3728V70.75Z" fill="url(#paint4_linear_277_4)"/>
<path opacity="0.8" d="M71.7544 70.75H61.1272V81.3772H71.7544V70.75Z" fill="url(#paint5_linear_277_4)"/>
<path d="M61.1272 70.75H50.5V81.3772H61.1272V70.75Z" fill="url(#paint6_linear_277_4)"/>
<path d="M50.5044 70.75H39.8772V81.3772H50.5044V70.75Z" fill="url(#paint7_linear_277_4)"/>
<path opacity="0.8" d="M39.8772 70.75H29.25V81.3772H39.8772V70.75Z" fill="url(#paint8_linear_277_4)"/>
<path opacity="0.7" d="M29.2544 70.75H18.6272V81.3772H29.2544V70.75Z" fill="url(#paint9_linear_277_4)"/>
<path opacity="0.5" d="M93.0001 60.1272H82.3728V70.7499H93.0001V60.1272Z" fill="url(#paint10_linear_277_4)"/>
<path opacity="0.8" d="M82.3728 60.1272H71.75V70.7499H82.3728V60.1272Z" fill="url(#paint11_linear_277_4)"/>
<path d="M71.7544 60.1272H61.1272V70.7499H71.7544V60.1272Z" fill="url(#paint12_linear_277_4)"/>
<path d="M61.1272 60.1272H50.5V70.7499H61.1272V60.1272Z" fill="url(#paint13_linear_277_4)"/>
<path d="M50.5044 60.1272H39.8772V70.7499H50.5044V60.1272Z" fill="url(#paint14_linear_277_4)"/>
<path d="M39.8772 60.1272H29.25V70.7499H39.8772V60.1272Z" fill="url(#paint15_linear_277_4)"/>
<path opacity="0.8" d="M29.2544 60.1272H18.6272V70.7499H29.2544V60.1272Z" fill="url(#paint16_linear_277_4)"/>
<path opacity="0.5" d="M18.6272 60.1272H8V70.7499H18.6272V60.1272Z" fill="url(#paint17_linear_277_4)"/>
<path opacity="0.7" d="M93.0001 49.5H82.3728V60.1272H93.0001V49.5Z" fill="url(#paint18_linear_277_4)"/>
<path d="M82.3728 49.5H71.75V60.1272H82.3728V49.5Z" fill="url(#paint19_linear_277_4)"/>
<path d="M71.7544 49.5H61.1272V60.1272H71.7544V49.5Z" fill="url(#paint20_linear_277_4)"/>
<path d="M61.1272 49.5H50.5V60.1272H61.1272V49.5Z" fill="url(#paint21_linear_277_4)"/>
<path d="M50.5044 49.5H39.8772V60.1272H50.5044V49.5Z" fill="url(#paint22_linear_277_4)"/>
<path d="M39.8772 49.5H29.25V60.1272H39.8772V49.5Z" fill="url(#paint23_linear_277_4)"/>
<path d="M29.2544 49.5H18.6272V60.1272H29.2544V49.5Z" fill="url(#paint24_linear_277_4)"/>
<path opacity="0.7" d="M18.6272 49.5H8V60.1272H18.6272V49.5Z" fill="url(#paint25_linear_277_4)"/>
<path opacity="0.7" d="M93.0001 38.8772H82.3728V49.5044H93.0001V38.8772Z" fill="url(#paint26_linear_277_4)"/>
<path d="M82.3728 38.8772H71.75V49.5044H82.3728V38.8772Z" fill="url(#paint27_linear_277_4)"/>
<path d="M71.7544 38.8772H61.1272V49.5044H71.7544V38.8772Z" fill="url(#paint28_linear_277_4)"/>
<path d="M61.1272 38.8772H50.5V49.5044H61.1272V38.8772Z" fill="url(#paint29_linear_277_4)"/>
<path d="M50.5044 38.8772H39.8772V49.5044H50.5044V38.8772Z" fill="url(#paint30_linear_277_4)"/>
<path d="M39.8772 38.8772H29.25V49.5044H39.8772V38.8772Z" fill="url(#paint31_linear_277_4)"/>
<path d="M29.2544 38.8772H18.6272V49.5044H29.2544V38.8772Z" fill="url(#paint32_linear_277_4)"/>
<path opacity="0.7" d="M18.6272 38.8772H8V49.5044H18.6272V38.8772Z" fill="url(#paint33_linear_277_4)"/>
<path opacity="0.5" d="M93.0001 28.25H82.3728V38.8772H93.0001V28.25Z" fill="url(#paint34_linear_277_4)"/>
<path opacity="0.8" d="M82.3728 28.25H71.75V38.8772H82.3728V28.25Z" fill="url(#paint35_linear_277_4)"/>
<path d="M71.7544 28.25H61.1272V38.8772H71.7544V28.25Z" fill="url(#paint36_linear_277_4)"/>
<path d="M61.1272 28.25H50.5V38.8772H61.1272V28.25Z" fill="url(#paint37_linear_277_4)"/>
<path d="M50.5044 28.25H39.8772V38.8772H50.5044V28.25Z" fill="url(#paint38_linear_277_4)"/>
<path d="M39.8772 28.25H29.25V38.8772H39.8772V28.25Z" fill="url(#paint39_linear_277_4)"/>
<path opacity="0.8" d="M29.2544 28.25H18.6272V38.8772H29.2544V28.25Z" fill="url(#paint40_linear_277_4)"/>
<path opacity="0.5" d="M18.6272 28.25H8V38.8772H18.6272V28.25Z" fill="url(#paint41_linear_277_4)"/>
<path opacity="0.7" d="M82.3728 17.6272H71.75V28.2544H82.3728V17.6272Z" fill="url(#paint42_linear_277_4)"/>
<path opacity="0.8" d="M71.7544 17.6272H61.1272V28.2544H71.7544V17.6272Z" fill="url(#paint43_linear_277_4)"/>
<path d="M61.1272 17.6272H50.5V28.2544H61.1272V17.6272Z" fill="url(#paint44_linear_277_4)"/>
<path d="M50.5044 17.6272H39.8772V28.2544H50.5044V17.6272Z" fill="url(#paint45_linear_277_4)"/>
<path opacity="0.8" d="M39.8772 17.6272H29.25V28.2544H39.8772V17.6272Z" fill="url(#paint46_linear_277_4)"/>
<path opacity="0.7" d="M29.2544 17.6272H18.6272V28.2544H29.2544V17.6272Z" fill="url(#paint47_linear_277_4)"/>
<path opacity="0.5" d="M71.7544 7H61.1272V17.6272H71.7544V7Z" fill="url(#paint48_linear_277_4)"/>
<path opacity="0.7" d="M61.1272 7H50.5V17.6272H61.1272V7Z" fill="url(#paint49_linear_277_4)"/>
<path opacity="0.7" d="M50.5044 7H39.8772V17.6272H50.5044V7Z" fill="url(#paint50_linear_277_4)"/>
<path opacity="0.5" d="M39.8772 7H29.25V17.6272H39.8772V7Z" fill="url(#paint51_linear_277_4)"/>
<path d="M35.9736 46.1269L38.9328 39.5023C40.0122 37.8023 39.8683 35.7245 38.6855 34.5552C38.5275 34.397 38.3526 34.2567 38.1638 34.1369C37.3435 33.6376 36.3453 33.5242 35.4339 33.8266C34.4108 34.1474 33.5375 34.826 32.9738 35.738C32.9738 35.738 28.9262 45.1824 27.4106 49.4459C25.895 53.7094 26.5111 61.4898 32.3172 67.3184C38.4786 73.4798 47.4149 74.9009 53.104 70.6195C53.3437 70.4954 53.5685 70.3445 53.7741 70.1697L71.3138 55.5129C72.1683 54.7978 73.432 53.3541 72.2942 51.6991C71.1564 50.0441 69.0966 51.1819 68.2466 51.7306L58.1455 59.0748C58.0505 59.1551 57.9265 59.1924 57.8029 59.1779C57.6793 59.1634 57.5673 59.0984 57.4934 58.9983C57.1935 58.5364 57.2338 57.9322 57.5924 57.5142L73.0768 44.3729C74.426 43.1676 74.6014 41.4181 73.5265 40.2174C72.4516 39.0166 70.7876 39.075 69.4429 40.2938L55.5011 51.1954C55.3685 51.3048 55.1965 51.3544 55.026 51.3322C54.8555 51.3101 54.7018 51.2182 54.6016 51.0785C54.2905 50.7715 54.2595 50.2798 54.5297 49.9361L70.3199 34.6136C71.5634 33.4522 71.6338 31.5039 70.4773 30.2557C69.9156 29.6747 69.1401 29.3496 68.3321 29.3562C67.5034 29.3526 66.7067 29.6758 66.1149 30.2557L50.0008 45.3893C49.6141 45.7761 48.8585 45.3893 48.7686 44.9396C48.7353 44.7757 48.7878 44.6062 48.908 44.4898L61.2577 30.4266C62.0846 29.6717 62.4304 28.5238 62.1581 27.4378C61.8859 26.3517 61.0396 25.5027 59.9544 25.2271C58.8692 24.9515 57.7203 25.2937 56.9627 26.1181L38.2268 46.806C37.5567 47.4761 36.5672 47.5076 36.095 47.1208C35.9456 47.0061 35.8486 46.8362 35.8258 46.6493C35.8029 46.4624 35.8562 46.2741 35.9736 46.1269Z" fill="white"/>
<defs>
<linearGradient id="paint0_linear_277_4" x1="592.265" y1="-7381.09" x2="592.265" y2="1122.51" gradientUnits="userSpaceOnUse">
<stop stop-color="#00D4BF"/>
<stop offset="1" stop-color="#0074BF"/>
</linearGradient>
<linearGradient id="paint1_linear_277_4" x1="581.638" y1="-7381.09" x2="581.638" y2="1122.51" gradientUnits="userSpaceOnUse">
<stop stop-color="#00D4BF"/>
<stop offset="1" stop-color="#0074BF"/>
</linearGradient>
<linearGradient id="paint2_linear_277_4" x1="571.015" y1="-7381.09" x2="571.015" y2="1122.51" gradientUnits="userSpaceOnUse">
<stop stop-color="#00D4BF"/>
<stop offset="1" stop-color="#0074BF"/>
</linearGradient>
<linearGradient id="paint3_linear_277_4" x1="560.388" y1="-7381.09" x2="560.388" y2="1122.51" gradientUnits="userSpaceOnUse">
<stop stop-color="#00D4BF"/>
<stop offset="1" stop-color="#0074BF"/>
</linearGradient>
<linearGradient id="paint4_linear_277_4" x1="602.887" y1="-6329.44" x2="602.887" y2="2174.16" gradientUnits="userSpaceOnUse">
<stop stop-color="#00D4BF"/>
<stop offset="1" stop-color="#0074BF"/>
</linearGradient>
<linearGradient id="paint5_linear_277_4" x1="592.265" y1="-6329.44" x2="592.265" y2="2174.16" gradientUnits="userSpaceOnUse">
<stop stop-color="#00D4BF"/>
<stop offset="1" stop-color="#0074BF"/>
</linearGradient>
<linearGradient id="paint6_linear_277_4" x1="581.638" y1="-6329.44" x2="581.638" y2="2174.16" gradientUnits="userSpaceOnUse">
<stop stop-color="#00D4BF"/>
<stop offset="1" stop-color="#0074BF"/>
</linearGradient>
<linearGradient id="paint7_linear_277_4" x1="571.015" y1="-6329.44" x2="571.015" y2="2174.16" gradientUnits="userSpaceOnUse">
<stop stop-color="#00D4BF"/>
<stop offset="1" stop-color="#0074BF"/>
</linearGradient>
<linearGradient id="paint8_linear_277_4" x1="560.388" y1="-6329.44" x2="560.388" y2="2174.16" gradientUnits="userSpaceOnUse">
<stop stop-color="#00D4BF"/>
<stop offset="1" stop-color="#0074BF"/>
</linearGradient>
<linearGradient id="paint9_linear_277_4" x1="549.765" y1="-6329.44" x2="549.765" y2="2174.16" gradientUnits="userSpaceOnUse">
<stop stop-color="#00D4BF"/>
<stop offset="1" stop-color="#0074BF"/>
</linearGradient>
<linearGradient id="paint10_linear_277_4" x1="613.96" y1="-5277.78" x2="613.96" y2="3225.81" gradientUnits="userSpaceOnUse">
<stop stop-color="#00D4BF"/>
<stop offset="1" stop-color="#0074BF"/>
</linearGradient>
<linearGradient id="paint11_linear_277_4" x1="602.888" y1="-5277.78" x2="602.888" y2="3225.81" gradientUnits="userSpaceOnUse">
<stop stop-color="#00D4BF"/>
<stop offset="1" stop-color="#0074BF"/>
</linearGradient>
<linearGradient id="paint12_linear_277_4" x1="592.265" y1="-5277.78" x2="592.265" y2="3225.81" gradientUnits="userSpaceOnUse">
<stop stop-color="#00D4BF"/>
<stop offset="1" stop-color="#0074BF"/>
</linearGradient>
<linearGradient id="paint13_linear_277_4" x1="581.638" y1="-5277.78" x2="581.638" y2="3225.81" gradientUnits="userSpaceOnUse">
<stop stop-color="#00D4BF"/>
<stop offset="1" stop-color="#0074BF"/>
</linearGradient>
<linearGradient id="paint14_linear_277_4" x1="571.015" y1="-5277.78" x2="571.015" y2="3225.81" gradientUnits="userSpaceOnUse">
<stop stop-color="#00D4BF"/>
<stop offset="1" stop-color="#0074BF"/>
</linearGradient>
<linearGradient id="paint15_linear_277_4" x1="560.388" y1="-5277.78" x2="560.388" y2="3225.81" gradientUnits="userSpaceOnUse">
<stop stop-color="#00D4BF"/>
<stop offset="1" stop-color="#0074BF"/>
</linearGradient>
<linearGradient id="paint16_linear_277_4" x1="549.765" y1="-5277.78" x2="549.765" y2="3225.81" gradientUnits="userSpaceOnUse">
<stop stop-color="#00D4BF"/>
<stop offset="1" stop-color="#0074BF"/>
</linearGradient>
<linearGradient id="paint17_linear_277_4" x1="539.137" y1="-5277.78" x2="539.137" y2="3225.81" gradientUnits="userSpaceOnUse">
<stop stop-color="#00D4BF"/>
<stop offset="1" stop-color="#0074BF"/>
</linearGradient>
<linearGradient id="paint18_linear_277_4" x1="613.96" y1="-4225.69" x2="613.96" y2="4277.91" gradientUnits="userSpaceOnUse">
<stop stop-color="#00D4BF"/>
<stop offset="1" stop-color="#0074BF"/>
</linearGradient>
<linearGradient id="paint19_linear_277_4" x1="602.887" y1="-4225.69" x2="602.887" y2="4277.91" gradientUnits="userSpaceOnUse">
<stop stop-color="#00D4BF"/>
<stop offset="1" stop-color="#0074BF"/>
</linearGradient>
<linearGradient id="paint20_linear_277_4" x1="592.265" y1="-4225.69" x2="592.265" y2="4277.91" gradientUnits="userSpaceOnUse">
<stop stop-color="#00D4BF"/>
<stop offset="1" stop-color="#0074BF"/>
</linearGradient>
<linearGradient id="paint21_linear_277_4" x1="581.638" y1="-4225.69" x2="581.638" y2="4277.91" gradientUnits="userSpaceOnUse">
<stop stop-color="#00D4BF"/>
<stop offset="1" stop-color="#0074BF"/>
</linearGradient>
<linearGradient id="paint22_linear_277_4" x1="571.015" y1="-4225.69" x2="571.015" y2="4277.91" gradientUnits="userSpaceOnUse">
<stop stop-color="#00D4BF"/>
<stop offset="1" stop-color="#0074BF"/>
</linearGradient>
<linearGradient id="paint23_linear_277_4" x1="560.388" y1="-4225.69" x2="560.388" y2="4277.91" gradientUnits="userSpaceOnUse">
<stop stop-color="#00D4BF"/>
<stop offset="1" stop-color="#0074BF"/>
</linearGradient>
<linearGradient id="paint24_linear_277_4" x1="549.765" y1="-4225.69" x2="549.765" y2="4277.91" gradientUnits="userSpaceOnUse">
<stop stop-color="#00D4BF"/>
<stop offset="1" stop-color="#0074BF"/>
</linearGradient>
<linearGradient id="paint25_linear_277_4" x1="539.138" y1="-4225.69" x2="539.138" y2="4277.91" gradientUnits="userSpaceOnUse">
<stop stop-color="#00D4BF"/>
<stop offset="1" stop-color="#0074BF"/>
</linearGradient>
<linearGradient id="paint26_linear_277_4" x1="613.96" y1="-3174.03" x2="613.96" y2="5329.57" gradientUnits="userSpaceOnUse">
<stop stop-color="#00D4BF"/>
<stop offset="1" stop-color="#0074BF"/>
</linearGradient>
<linearGradient id="paint27_linear_277_4" x1="602.887" y1="-3174.03" x2="602.887" y2="5329.57" gradientUnits="userSpaceOnUse">
<stop stop-color="#00D4BF"/>
<stop offset="1" stop-color="#0074BF"/>
</linearGradient>
<linearGradient id="paint28_linear_277_4" x1="592.265" y1="-3174.03" x2="592.265" y2="5329.57" gradientUnits="userSpaceOnUse">
<stop stop-color="#00D4BF"/>
<stop offset="1" stop-color="#0074BF"/>
</linearGradient>
<linearGradient id="paint29_linear_277_4" x1="581.638" y1="-3174.03" x2="581.638" y2="5329.57" gradientUnits="userSpaceOnUse">
<stop stop-color="#00D4BF"/>
<stop offset="1" stop-color="#0074BF"/>
</linearGradient>
<linearGradient id="paint30_linear_277_4" x1="571.015" y1="-3174.03" x2="571.015" y2="5329.57" gradientUnits="userSpaceOnUse">
<stop stop-color="#00D4BF"/>
<stop offset="1" stop-color="#0074BF"/>
</linearGradient>
<linearGradient id="paint31_linear_277_4" x1="560.388" y1="-3174.03" x2="560.388" y2="5329.57" gradientUnits="userSpaceOnUse">
<stop stop-color="#00D4BF"/>
<stop offset="1" stop-color="#0074BF"/>
</linearGradient>
<linearGradient id="paint32_linear_277_4" x1="549.765" y1="-3174.03" x2="549.765" y2="5329.57" gradientUnits="userSpaceOnUse">
<stop stop-color="#00D4BF"/>
<stop offset="1" stop-color="#0074BF"/>
</linearGradient>
<linearGradient id="paint33_linear_277_4" x1="539.138" y1="-3174.03" x2="539.138" y2="5329.57" gradientUnits="userSpaceOnUse">
<stop stop-color="#00D4BF"/>
<stop offset="1" stop-color="#0074BF"/>
</linearGradient>
<linearGradient id="paint34_linear_277_4" x1="613.96" y1="-2121.94" x2="613.96" y2="6381.66" gradientUnits="userSpaceOnUse">
<stop stop-color="#00D4BF"/>
<stop offset="1" stop-color="#0074BF"/>
</linearGradient>
<linearGradient id="paint35_linear_277_4" x1="602.887" y1="-2121.94" x2="602.887" y2="6381.66" gradientUnits="userSpaceOnUse">
<stop stop-color="#00D4BF"/>
<stop offset="1" stop-color="#0074BF"/>
</linearGradient>
<linearGradient id="paint36_linear_277_4" x1="592.265" y1="-2121.94" x2="592.265" y2="6381.66" gradientUnits="userSpaceOnUse">
<stop stop-color="#00D4BF"/>
<stop offset="1" stop-color="#0074BF"/>
</linearGradient>
<linearGradient id="paint37_linear_277_4" x1="581.638" y1="-2121.94" x2="581.638" y2="6381.66" gradientUnits="userSpaceOnUse">
<stop stop-color="#00D4BF"/>
<stop offset="1" stop-color="#0074BF"/>
</linearGradient>
<linearGradient id="paint38_linear_277_4" x1="571.015" y1="-2121.94" x2="571.015" y2="6381.66" gradientUnits="userSpaceOnUse">
<stop stop-color="#00D4BF"/>
<stop offset="1" stop-color="#0074BF"/>
</linearGradient>
<linearGradient id="paint39_linear_277_4" x1="560.388" y1="-2121.94" x2="560.388" y2="6381.66" gradientUnits="userSpaceOnUse">
<stop stop-color="#00D4BF"/>
<stop offset="1" stop-color="#0074BF"/>
</linearGradient>
<linearGradient id="paint40_linear_277_4" x1="549.765" y1="-2121.94" x2="549.765" y2="6381.66" gradientUnits="userSpaceOnUse">
<stop stop-color="#00D4BF"/>
<stop offset="1" stop-color="#0074BF"/>
</linearGradient>
<linearGradient id="paint41_linear_277_4" x1="539.138" y1="-2121.94" x2="539.138" y2="6381.66" gradientUnits="userSpaceOnUse">
<stop stop-color="#00D4BF"/>
<stop offset="1" stop-color="#0074BF"/>
</linearGradient>
<linearGradient id="paint42_linear_277_4" x1="602.887" y1="-1070.28" x2="602.887" y2="7433.31" gradientUnits="userSpaceOnUse">
<stop stop-color="#00D4BF"/>
<stop offset="1" stop-color="#0074BF"/>
</linearGradient>
<linearGradient id="paint43_linear_277_4" x1="592.265" y1="-1070.28" x2="592.265" y2="7433.31" gradientUnits="userSpaceOnUse">
<stop stop-color="#00D4BF"/>
<stop offset="1" stop-color="#0074BF"/>
</linearGradient>
<linearGradient id="paint44_linear_277_4" x1="581.638" y1="-1070.28" x2="581.638" y2="7433.31" gradientUnits="userSpaceOnUse">
<stop stop-color="#00D4BF"/>
<stop offset="1" stop-color="#0074BF"/>
</linearGradient>
<linearGradient id="paint45_linear_277_4" x1="571.015" y1="-1070.28" x2="571.015" y2="7433.31" gradientUnits="userSpaceOnUse">
<stop stop-color="#00D4BF"/>
<stop offset="1" stop-color="#0074BF"/>
</linearGradient>
<linearGradient id="paint46_linear_277_4" x1="560.388" y1="-1070.28" x2="560.388" y2="7433.31" gradientUnits="userSpaceOnUse">
<stop stop-color="#00D4BF"/>
<stop offset="1" stop-color="#0074BF"/>
</linearGradient>
<linearGradient id="paint47_linear_277_4" x1="549.765" y1="-1070.28" x2="549.765" y2="7433.31" gradientUnits="userSpaceOnUse">
<stop stop-color="#00D4BF"/>
<stop offset="1" stop-color="#0074BF"/>
</linearGradient>
<linearGradient id="paint48_linear_277_4" x1="592.265" y1="-18.1852" x2="592.265" y2="8485.41" gradientUnits="userSpaceOnUse">
<stop stop-color="#00D4BF"/>
<stop offset="1" stop-color="#0074BF"/>
</linearGradient>
<linearGradient id="paint49_linear_277_4" x1="581.638" y1="-18.1852" x2="581.638" y2="8485.41" gradientUnits="userSpaceOnUse">
<stop stop-color="#00D4BF"/>
<stop offset="1" stop-color="#0074BF"/>
</linearGradient>
<linearGradient id="paint50_linear_277_4" x1="571.015" y1="-18.1852" x2="571.015" y2="8485.41" gradientUnits="userSpaceOnUse">
<stop stop-color="#00D4BF"/>
<stop offset="1" stop-color="#0074BF"/>
</linearGradient>
<linearGradient id="paint51_linear_277_4" x1="560.388" y1="-18.1852" x2="560.388" y2="8485.41" gradientUnits="userSpaceOnUse">
<stop stop-color="#00D4BF"/>
<stop offset="1" stop-color="#0074BF"/>
</linearGradient>
</defs>
</svg>
