<svg width="100" height="100" viewBox="0 0 100 100" fill="none" xmlns="http://www.w3.org/2000/svg">
<rect width="100" height="100" rx="24" fill="#D6001C"/>
<path d="M24.4878 24V44.0618C27.5423 40.42 31.2038 38.5868 35.45 38.5868C37.6371 38.5868 39.5956 39.0046 41.3526 39.8327C43.1145 40.6559 44.4317 41.7126 45.3212 42.9953C46.2157 44.2903 46.8202 45.7082 47.147 47.2711C47.4714 48.8266 47.6336 51.2471 47.6336 54.5301V75.9803H38.1433V56.6606C38.1433 52.8271 37.9713 50.3993 37.6101 49.3672C37.2716 48.3562 36.6002 47.4899 35.7056 46.9099C34.7915 46.2931 33.6537 45.9883 32.2801 45.9883C30.7074 45.9883 29.2968 46.3815 28.0706 47.163C26.8174 47.9493 25.918 49.1239 25.3479 50.6942C24.768 52.2669 24.478 54.5891 24.4878 57.6632L24.478 75.9803H15V24H24.4903M61.8567 24V44.0618C64.9136 40.42 68.5726 38.5868 72.8165 38.5868C74.9961 38.5868 76.9694 39.0046 78.7288 39.8327C80.4834 40.6559 81.8005 41.7126 82.6852 42.9953C83.5779 44.2817 84.1992 45.7366 84.511 47.2711C84.8378 48.8266 85 51.2471 85 54.5301V75.9803H75.5196V56.6606C75.5196 52.8271 75.3402 50.3993 74.9789 49.3672C74.6404 48.3548 73.967 47.488 73.0696 46.9099C72.1653 46.2931 71.0177 45.9883 69.644 45.9883C68.0738 45.9883 66.6633 46.3815 65.4346 47.163C64.1986 47.9493 63.2943 49.1239 62.7168 50.6942C62.1467 52.2669 61.8567 54.5891 61.8567 57.6632V75.9803H52.3787V24H61.8567Z" fill="#FEFEFE"/>
</svg>
