<svg width="100" height="100" viewBox="0 0 100 100" fill="none" xmlns="http://www.w3.org/2000/svg">
<rect width="100" height="100" rx="24" fill="white"/>
<path d="M81.1444 27H17.8556L7 49.7437L17.8556 72.4874H81.1444L92 49.7437L81.1444 27ZM77.5168 68.7028H20.2414L11.1917 49.7437L20.2414 30.7845H77.5168L86.5665 49.7437L77.5168 68.7028Z" fill="#008EC7"/>
<path d="M86.5665 49.7458L77.5168 68.705H20.2414L11.1917 49.7458L20.2414 30.7844H77.5168L86.5665 49.7458Z" fill="#005B9B"/>
<path d="M36.1233 43.3503V56.8897H32.9892V51.3357H26.8484V56.8874H23.7075V43.3503H26.8393V48.6883H32.9801V43.3503H36.1233Z" fill="white"/>
<path d="M42.1389 45.9045H37.8063V43.3503H49.6034V45.9045H45.2821V56.8897H42.1389V45.9045Z" fill="white"/>
<path d="M54.2841 45.9045H49.9514V43.3503H61.7486V45.9045H57.4159V56.8897H54.2841V45.9045Z" fill="white"/>
<path d="M72.4154 43.9509C73.2489 44.3065 73.9603 44.8978 74.4623 45.6521C74.9512 46.4336 75.1996 47.3416 75.1765 48.2631C75.197 49.1814 74.9488 50.0858 74.4623 50.865C73.9643 51.6229 73.2516 52.2152 72.4154 52.5662C71.4267 52.9798 70.3619 53.1806 69.2904 53.1553H66.5612V56.8898H63.4316V43.3505H69.2904C70.363 43.3253 71.4285 43.53 72.4154 43.9509ZM71.2646 49.9939C71.5118 49.7812 71.7066 49.5145 71.834 49.2143C71.9614 48.9141 72.018 48.5886 71.9992 48.2631C71.9992 47.5035 71.7536 46.9189 71.2646 46.5141C70.7756 46.1093 70.0592 45.9046 69.1176 45.9046H66.5635V50.6034H69.1176C70.0592 50.6034 70.7748 50.4002 71.2646 49.9939Z" fill="white"/>
</svg>
