<svg width="100" height="100" viewBox="0 0 100 100" fill="none" xmlns="http://www.w3.org/2000/svg">
<rect width="100" height="100" rx="24" fill="black"/>
<path d="M20.5015 15H25.5522V25.3493H36.8134V15H41.8642V40.9093H36.8134V29.9811H25.5522V40.9093H20.5015V15Z" fill="white"/>
<path d="M55.4822 15H60.4581L68.6514 28.7146H68.9508L77.1442 15H82.1575V40.9093H77.1442V28.1356L77.4434 23.7933H77.1442L70.335 35.409H67.3046L60.4581 23.7933H60.1588L60.4581 28.1356V40.9093H55.4822V15Z" fill="white"/>
<path d="M69.1953 78.1385C68.0223 78.1385 66.9003 77.9817 65.8293 77.6681C64.7584 77.3545 63.7766 76.884 62.8841 76.2568C61.9917 75.6296 61.2139 74.8697 60.5509 73.9771C59.8879 73.0604 59.3652 71.9989 58.9827 70.7927L63.8404 68.9834C64.1974 70.2861 64.8221 71.3717 65.7146 72.2402C66.6071 73.0845 67.7801 73.5067 69.2336 73.5067C69.7691 73.5067 70.279 73.4464 70.7635 73.3257C71.2735 73.181 71.7198 72.988 72.1023 72.7467C72.5103 72.4814 72.829 72.1557 73.0585 71.7697C73.288 71.3837 73.4028 70.9374 73.4028 70.4308C73.4028 69.9483 73.3135 69.5141 73.135 69.1281C72.9565 68.7421 72.6505 68.3803 72.217 68.0425C71.809 67.7048 71.2608 67.3791 70.5723 67.0655C69.9093 66.7519 69.0805 66.4262 68.086 66.0885L66.4031 65.5095C65.6636 65.2683 64.9113 64.9426 64.1463 64.5325C63.4069 64.1224 62.7311 63.6278 62.1191 63.0488C61.5071 62.4699 60.9972 61.7944 60.5892 61.0224C60.2067 60.2263 60.0154 59.3337 60.0154 58.3446C60.0154 57.3314 60.2194 56.3906 60.6274 55.5221C61.0609 54.6295 61.6601 53.8575 62.4251 53.2062C63.2156 52.5307 64.1464 52.012 65.2173 51.6502C66.3138 51.2642 67.5251 51.0712 68.851 51.0712C70.228 51.0712 71.4138 51.2521 72.4083 51.614C73.4283 51.9517 74.2825 52.398 74.971 52.9529C75.685 53.4836 76.2587 54.0747 76.6922 54.726C77.1257 55.3774 77.4444 55.9925 77.6484 56.5715L73.0968 58.3808C72.8418 57.6571 72.37 57.0057 71.6815 56.4267C71.0185 55.8478 70.1005 55.5583 68.9275 55.5583C67.8055 55.5583 66.8748 55.8116 66.1353 56.3182C65.3958 56.8007 65.0261 57.44 65.0261 58.2361C65.0261 59.008 65.3831 59.6714 66.0971 60.2263C66.8111 60.757 67.9458 61.2757 69.5013 61.7823L71.2226 62.3251C72.319 62.687 73.3135 63.1091 74.206 63.5916C75.124 64.05 75.9017 64.6049 76.5392 65.2562C77.2022 65.9076 77.6995 66.6554 78.031 67.4997C78.388 68.32 78.5664 69.2729 78.5664 70.3585C78.5664 71.7094 78.2732 72.8794 77.6867 73.8685C77.1257 74.8335 76.3989 75.6296 75.5065 76.2568C74.614 76.884 73.6067 77.3545 72.4848 77.6681C71.3628 77.9817 70.2663 78.1385 69.1953 78.1385Z" fill="white"/>
<path d="M31.197 78.1385C29.3151 78.1385 27.5626 77.7887 25.9394 77.0891C24.3398 76.3895 22.9518 75.4366 21.7756 74.2304C20.5994 73.0001 19.6702 71.5647 18.988 69.9242C18.3293 68.2597 18 66.4865 18 64.6049C18 62.7232 18.3293 60.9621 18.988 59.3217C19.6702 57.6571 20.5994 56.2217 21.7756 55.0155C22.9518 53.7852 24.3398 52.8202 25.9394 52.1206C27.5626 51.421 29.3151 51.0712 31.197 51.0712C33.079 51.0712 34.8197 51.421 36.4193 52.1206C38.0425 52.8202 39.4422 53.7852 40.6184 55.0155C41.7946 56.2217 42.712 57.6571 43.3707 59.3217C44.0529 60.9621 44.394 62.7232 44.394 64.6049C44.394 66.4865 44.0529 68.2597 43.3707 69.9242C42.712 71.5647 41.7946 73.0001 40.6184 74.2304C39.4422 75.4366 38.0425 76.3895 36.4193 77.0891C34.8197 77.7887 33.079 78.1385 31.197 78.1385ZM31.197 73.5067C32.3732 73.5067 33.4671 73.2895 34.4787 72.8553C35.5137 72.4211 36.4076 71.818 37.1603 71.046C37.9366 70.274 38.5365 69.3452 38.96 68.2596C39.4069 67.1499 39.6304 65.9317 39.6304 64.6049C39.6304 63.278 39.4069 62.0718 38.96 60.9862C38.5365 59.8765 37.9366 58.9357 37.1603 58.1637C36.4076 57.3917 35.5137 56.7886 34.4787 56.3544C33.4671 55.9201 32.3732 55.703 31.197 55.703C30.0208 55.703 28.9151 55.9201 27.8801 56.3544C26.8685 56.7886 25.9746 57.3917 25.1983 58.1637C24.4456 58.9357 23.8457 59.8765 23.3988 60.9862C22.9753 62.0718 22.7636 63.278 22.7636 64.6049C22.7636 65.9317 22.9753 67.1499 23.3988 68.2596C23.8457 69.3452 24.4456 70.274 25.1983 71.046C25.9746 71.818 26.8685 72.4211 27.8801 72.8553C28.9151 73.2895 30.0208 73.5067 31.197 73.5067Z" fill="white"/>
<path d="M40.5361 80.5892H21.5824V84.9999H40.5361V80.5892Z" fill="#5B8AEE"/>
</svg>
