<svg width="100" height="100" viewBox="0 0 100 100" fill="none" xmlns="http://www.w3.org/2000/svg">
<rect width="100" height="100" rx="24" fill="white"/>
<path d="M16.2057 41.9902V48.7862H9.96217V41.9902H7V58.2132H9.96297V51.6377H16.2049V58.2132H19.1686V41.9902H16.2057ZM28.6525 52.9697C28.6525 53.6199 28.3942 54.2435 27.9344 54.7033C27.4746 55.1631 26.851 55.4214 26.2008 55.4214C25.5505 55.4214 24.9269 55.1631 24.4671 54.7033C24.0073 54.2435 23.749 53.6199 23.749 52.9697V46.0205H20.9384V52.9697C20.9384 54.364 21.4923 55.7011 22.4782 56.687C23.4641 57.673 24.8013 58.2268 26.1956 58.2268C27.5899 58.2268 28.927 57.673 29.9129 56.687C30.8989 55.7011 31.4527 54.364 31.4527 52.9697V46.0205H28.6525V52.9697ZM49.4783 46.7366C49.4783 45.3116 50.4206 44.8602 51.4526 44.8602C52.285 44.8602 53.3835 45.4937 54.1028 46.2619L55.9432 44.092C55.0242 42.8491 53.1606 41.9902 51.6346 41.9902C48.585 41.9902 46.3799 43.776 46.3799 46.7366C46.3799 52.2295 53.0933 50.4862 53.0933 53.5607C53.0933 54.5085 52.1727 55.3457 51.119 55.3457C49.4567 55.3457 48.9178 54.5333 48.1544 53.6737L46.1112 55.7979C47.4183 57.4017 49.0301 58.2164 50.9602 58.2164C53.8575 58.2164 56.1877 56.409 56.1877 53.5831C56.1877 47.4856 49.4735 49.3804 49.4735 46.7366M91.0113 55.6215C89.3506 55.6215 88.8783 54.903 88.8783 53.8028V48.9314H91.4603V46.4632H88.8783V43.2067L86.0284 44.4857V54.4083C86.0284 56.9462 87.7797 58.2252 90.1805 58.2252C90.5574 58.2316 90.9343 58.2012 91.3048 58.1354L92 55.5758C91.6865 55.5975 91.3264 55.6191 91.0113 55.6191M39.3513 46.1015C37.9592 46.1015 36.9874 46.5057 36.0475 47.427V42.0873H33.2329V51.985C33.2329 55.6897 35.9112 58.2284 38.9215 58.2284C42.2606 58.2284 45.1979 55.6448 45.1979 52.1662C45.1979 48.7309 42.4947 46.1039 39.3513 46.1039M39.3337 55.3954C38.9142 55.3954 38.4988 55.3128 38.1113 55.1522C37.7237 54.9917 37.3716 54.7564 37.075 54.4598C36.7783 54.1632 36.543 53.811 36.3825 53.4235C36.222 53.0359 36.1394 52.6205 36.1394 52.2011C36.1394 51.7816 36.222 51.3662 36.3825 50.9786C36.543 50.5911 36.7783 50.239 37.075 49.9423C37.3716 49.6457 37.7237 49.4104 38.1113 49.2499C38.4988 49.0894 38.9142 49.0067 39.3337 49.0067C40.1809 49.0067 40.9934 49.3433 41.5924 49.9423C42.1915 50.5414 42.528 51.3539 42.528 52.2011C42.528 53.0482 42.1915 53.8607 41.5924 54.4598C40.9934 55.0588 40.1809 55.3954 39.3337 55.3954ZM69.9192 52.0186C69.9192 48.5336 66.9883 45.9564 63.6429 45.9564C60.6334 45.9564 57.9543 48.4943 57.9543 52.1999V62.1032H60.7689V56.7562C61.7071 57.6759 62.6806 58.0817 64.0711 58.0817C67.2145 58.0817 69.9192 55.4547 69.9192 52.0186ZM67.2538 51.9833C67.2538 52.8305 66.9172 53.643 66.3182 54.2421C65.7191 54.8411 64.9066 55.1777 64.0595 55.1777C63.2123 55.1777 62.3998 54.8411 61.8007 54.2421C61.2017 53.643 60.8651 52.8305 60.8651 51.9833C60.8651 51.1362 61.2017 50.3237 61.8007 49.7246C62.3998 49.1256 63.2123 48.789 64.0595 48.789C64.9066 48.789 65.7191 49.1256 66.3182 49.7246C66.9172 50.3237 67.2538 51.1362 67.2538 51.9833Z" fill="#33475B"/>
<path d="M79.0143 45.82V42.9917C79.388 42.8171 79.7045 42.5398 79.9268 42.1923C80.1491 41.8448 80.2681 41.4413 80.27 41.0287V40.9638C80.27 39.7609 79.2949 38.7858 78.0921 38.7858H78.0272C77.4495 38.7858 76.8956 39.0153 76.4871 39.4237C76.0787 39.8322 75.8492 40.3862 75.8492 40.9638V41.0287C75.8511 41.4413 75.9702 41.8448 76.1925 42.1923C76.4148 42.5398 76.7313 42.8171 77.105 42.9917V45.82C76.0308 45.9845 75.0192 46.4299 74.1725 47.111L66.4158 41.0696C66.4712 40.87 66.5 40.6647 66.5033 40.4586C66.5042 39.9732 66.3612 39.4984 66.0923 39.0944C65.8234 38.6903 65.4407 38.375 64.9926 38.1885C64.5445 38.0019 64.0511 37.9525 63.5749 38.0463C63.0987 38.1402 62.661 38.3732 62.3172 38.7159C61.9735 39.0585 61.739 39.4954 61.6436 39.9713C61.5482 40.4472 61.596 40.9408 61.7811 41.3895C61.9662 41.8382 62.2802 42.2219 62.6834 42.4921C63.0866 42.7623 63.5609 42.9069 64.0463 42.9075C64.4709 42.9055 64.8876 42.7922 65.2547 42.5788L72.8927 48.5224C72.2065 49.5589 71.8486 50.7782 71.8654 52.0211C71.8823 53.2641 72.2733 54.4732 72.9873 55.4908L70.6642 57.8146C70.4765 57.7546 70.2808 57.7227 70.0837 57.72C69.6853 57.7203 69.2959 57.8387 68.9647 58.0603C68.6336 58.2818 68.3755 58.5966 68.2232 58.9647C68.0709 59.3329 68.0311 59.7379 68.1089 60.1287C68.1867 60.5194 68.3786 60.8783 68.6604 61.1601C68.9421 61.4418 69.301 61.6337 69.6917 61.7115C70.0825 61.7893 70.4875 61.7495 70.8557 61.5972C71.2239 61.4449 71.5386 61.1868 71.7601 60.8557C71.9817 60.5245 72.1001 60.1352 72.1004 59.7367C72.0978 59.5396 72.0659 59.3439 72.0058 59.1562L74.304 56.8572C75.0534 57.4341 75.925 57.8319 76.8519 58.02C77.7788 58.2081 78.7364 58.1815 79.6515 57.9424C80.5665 57.7032 81.4147 57.2577 82.131 56.6401C82.8473 56.0225 83.4127 55.2491 83.784 54.3792C84.1552 53.5093 84.3224 52.566 84.2728 51.6215C84.2231 50.677 83.9579 49.7564 83.4976 48.9302C83.0372 48.1041 82.3938 47.3942 81.6167 46.8551C80.8396 46.316 79.9494 45.9619 79.0143 45.82ZM78.0616 55.1219C77.6369 55.1336 77.2141 55.06 76.8183 54.9055C76.4225 54.7511 76.0616 54.5188 75.7571 54.2225C75.4525 53.9263 75.2105 53.5719 75.0452 53.1805C74.8799 52.7891 74.7947 52.3685 74.7947 51.9436C74.7947 51.5187 74.8799 51.0981 75.0452 50.7067C75.2105 50.3153 75.4525 49.961 75.7571 49.6647C76.0616 49.3684 76.4225 49.1361 76.8183 48.9817C77.2141 48.8272 77.6369 48.7536 78.0616 48.7653C78.8848 48.7942 79.6647 49.1413 80.237 49.7337C80.8094 50.3262 81.1294 51.1176 81.1299 51.9413C81.1303 52.765 80.811 53.5567 80.2393 54.1497C79.6676 54.7427 78.888 55.0906 78.0649 55.1203" fill="#FF7A59"/>
</svg>
