<svg width="100" height="100" viewBox="0 0 100 100" fill="none" xmlns="http://www.w3.org/2000/svg">
<rect width="100" height="100" rx="24" fill="#003A9B"/>
<path fill-rule="evenodd" clip-rule="evenodd" d="M92.5501 42.9188C92.2502 42.5785 91.8465 42.4113 91.3101 42.4113C90.7737 42.4113 90.3526 42.5901 90.0585 42.965C89.7701 43.3283 89.6201 43.8705 89.6201 44.5684V49.6901C88.9511 48.9691 88.259 48.4558 87.5496 48.1097C87.1112 47.8963 86.5921 47.7406 86.0096 47.6656C85.6693 47.6253 85.329 47.6022 84.9483 47.6022C83.1834 47.6022 81.7531 48.2078 80.6572 49.4305C79.5729 50.6417 79.0307 52.3317 79.0307 54.4945C79.0307 55.5154 79.1691 56.4729 79.446 57.3495C79.7228 58.2205 80.115 58.9876 80.6457 59.6451C81.1763 60.2911 81.8165 60.7928 82.5375 61.1562C83.2584 61.508 84.0486 61.6868 84.908 61.6868C85.3002 61.6868 85.6751 61.6522 86.0154 61.5888C86.2518 61.5542 86.4595 61.4907 86.6844 61.4273C87.2266 61.2485 87.7341 60.9889 88.1955 60.6602C88.6742 60.3199 89.1414 59.8873 89.6201 59.3509V59.6912C89.6201 60.3314 89.7816 60.8159 90.0989 61.1677C90.4276 61.508 90.8314 61.6868 91.3101 61.6868C91.8119 61.6868 92.2156 61.5196 92.5213 61.1966C92.827 60.8563 93 60.366 93 59.697V44.3838C92.9827 43.7494 92.8385 43.2476 92.5501 42.9188ZM88.9569 57.0554C88.6512 57.7014 88.2244 58.1916 87.7226 58.5088C87.2035 58.8261 86.6383 58.976 86.0096 58.976H85.998C85.3694 58.976 84.8099 58.8088 84.2851 58.4858C83.766 58.1455 83.3507 57.6552 83.0508 56.9977C82.7509 56.3402 82.6067 55.5327 82.6067 54.5984C82.6067 53.7044 82.7451 52.92 83.0335 52.2625C83.3103 51.5934 83.7141 51.0743 84.2216 50.711C84.7407 50.3418 85.3175 50.1688 85.975 50.1688H86.0096C86.6267 50.1688 87.1862 50.3476 87.7111 50.6994C88.2301 51.0513 88.6454 51.5588 88.9511 52.2163C89.2568 52.8738 89.4067 53.6813 89.4067 54.5984C89.4183 55.5789 89.2683 56.3979 88.9569 57.0554ZM77.7445 57.2054C77.5196 57.015 77.2254 56.917 76.8505 56.917C76.5102 56.917 76.268 57.0035 76.0777 57.1419C75.6336 57.5456 75.2702 57.8744 74.9933 58.1109C74.7165 58.3358 74.4108 58.555 74.0705 58.7684C73.7533 58.9703 73.4015 59.1318 73.0496 59.2125C72.6863 59.3105 72.3056 59.3625 71.8788 59.3625C71.7808 59.3625 71.7 59.3625 71.6135 59.3509C71.0829 59.3163 70.5811 59.1721 70.137 58.9068C69.6063 58.6011 69.1911 58.1512 68.8623 57.5687C68.5566 56.9631 68.3836 56.2595 68.3721 55.4751H75.3509C76.2853 55.4751 77.0063 55.3366 77.5196 55.0944C78.0387 54.8291 78.2924 54.2638 78.2924 53.3929C78.2924 52.447 78.0387 51.5242 77.5369 50.6187C77.0351 49.7132 76.3026 48.9749 75.2933 48.4097C74.2955 47.8387 73.1073 47.5618 71.7115 47.5618H71.6077C70.5753 47.5733 69.6294 47.7406 68.7931 48.0636C67.9106 48.4039 67.1782 48.8826 66.561 49.4997C65.9785 50.1284 65.5113 50.8782 65.1998 51.7607C64.8884 52.6431 64.7211 53.6006 64.7211 54.6157C64.7211 56.7958 65.3613 58.5031 66.6245 59.7777C67.8241 60.9774 69.4795 61.6176 71.5962 61.6811C71.7115 61.6926 71.8384 61.6926 71.9653 61.6926C72.9516 61.6926 73.8456 61.5657 74.6184 61.3119C75.3913 61.0582 76.0315 60.7409 76.5391 60.3545C77.0466 59.9623 77.4331 59.5586 77.6753 59.1433C77.9291 58.728 78.056 58.3589 78.056 58.0474C78.0906 57.6725 77.9752 57.3899 77.7445 57.2054ZM69.4333 50.8552C69.9985 50.2611 70.731 49.9612 71.6193 49.9612H71.6308C72.5536 49.9612 73.3092 50.2495 73.8744 50.8321C74.4397 51.4146 74.7799 52.3086 74.8492 53.4967H68.3894C68.5105 52.3317 68.8508 51.4492 69.4333 50.8552ZM62.5871 56.9112C62.2353 56.9112 61.993 56.9977 61.8027 57.1361C61.3643 57.5399 60.9952 57.8686 60.7184 58.1051C60.4415 58.33 60.1474 58.5492 59.8071 58.7626C59.4783 58.9645 59.138 59.126 58.7747 59.2067C58.4228 59.3048 58.0306 59.3567 57.6038 59.3567C57.5058 59.3567 57.425 59.3567 57.3385 59.3452C56.8079 59.3106 56.3061 59.1664 55.862 58.901C55.3429 58.5954 54.9161 58.1455 54.6104 57.5629C54.2816 56.9573 54.1202 56.2537 54.1086 55.4693H61.076C61.9988 55.4693 62.7197 55.3309 63.2446 55.0886C63.7522 54.8233 64.0117 54.2581 64.0117 53.3872C64.0117 52.4413 63.7695 51.5184 63.2677 50.6129C62.7659 49.7074 62.0276 48.9691 61.024 48.4039C60.0262 47.8329 58.8266 47.556 57.4423 47.556H57.327C56.2946 47.5676 55.3602 47.7348 54.5124 48.0578C53.6299 48.3981 52.8974 48.8768 52.2918 49.494C51.6977 50.1227 51.2306 50.8725 50.9191 51.7549C50.6019 52.6374 50.4404 53.5948 50.4404 54.6099C50.4404 56.7901 51.0864 58.4973 52.3552 59.772C53.5549 60.9716 55.2045 61.6118 57.3154 61.6753C57.4423 61.6868 57.5577 61.6868 57.6846 61.6868C58.6824 61.6868 59.5648 61.5599 60.3377 61.3062C61.1106 61.0524 61.7508 60.7352 62.2526 60.3487C62.7717 59.9565 63.1465 59.5528 63.4003 59.1375C63.6541 58.7222 63.781 58.3531 63.781 58.0417C63.781 57.6898 63.6656 57.413 63.4407 57.2227C63.2446 57.0035 62.9331 56.9112 62.5871 56.9112ZM55.1468 50.8552C55.712 50.2611 56.4445 49.9612 57.3327 49.9612H57.3443C58.2671 49.9612 59.0227 50.2495 59.5879 50.8321C60.1589 51.4146 60.4934 52.3086 60.5742 53.4967H54.1086C54.2355 52.3317 54.5873 51.4492 55.1468 50.8552ZM15.4191 59.3625V51.0859C15.6613 51.1089 15.8978 51.1205 16.1285 51.1205C17.2878 51.1205 18.3722 50.8148 19.295 50.2842V59.3682C19.295 60.1411 19.1162 60.7179 18.7528 61.0985C18.3895 61.4792 17.9223 61.6695 17.3397 61.6695C16.7745 61.6695 16.3189 61.4792 15.9613 61.087C15.6152 60.689 15.4191 60.1296 15.4191 59.3625ZM48.9696 42.9188C48.6697 42.5785 48.2602 42.4113 47.7353 42.4113C47.1932 42.4113 46.7779 42.5901 46.4838 42.965C46.1838 43.3283 46.0454 43.8705 46.0454 44.5684V49.6901C45.3764 48.9691 44.6842 48.4558 43.9748 48.1097C43.5307 47.8963 43.0174 47.7406 42.4464 47.6656C42.1176 47.6253 41.7658 47.6022 41.3851 47.6022C39.6202 47.6022 38.1783 48.2078 37.094 49.4305C36.0097 50.6417 35.4675 52.3317 35.4675 54.4945C35.4675 55.5154 35.6059 56.4729 35.8713 57.3495C36.1481 58.2205 36.5518 58.9876 37.0825 59.6451C37.6131 60.2911 38.2533 60.7928 38.9743 61.1562C39.7068 61.508 40.4854 61.6868 41.3448 61.6868C41.7254 61.6868 42.1003 61.6522 42.4522 61.5888C42.6886 61.5542 42.8963 61.4907 43.1212 61.4273C43.6634 61.2485 44.1709 60.9889 44.6323 60.6602C45.1111 60.3199 45.5667 59.8873 46.057 59.3509V59.6912C46.057 60.3314 46.2184 60.8159 46.5357 61.1677C46.8414 61.508 47.2682 61.6868 47.7469 61.6868C48.2256 61.6868 48.6409 61.5196 48.9466 61.1966C49.2522 60.8563 49.4022 60.366 49.4022 59.697V44.3838C49.3907 43.7494 49.2522 43.2476 48.9696 42.9188ZM45.3879 57.0554C45.0822 57.7014 44.6554 58.1916 44.1479 58.5088C43.6403 58.8261 43.0635 58.976 42.4464 58.976H42.4349C41.8062 58.976 41.2467 58.8088 40.7219 58.4858C40.1912 58.1455 39.7875 57.6552 39.4876 56.9977C39.1877 56.3402 39.0435 55.5327 39.0435 54.5984C39.0435 53.7044 39.1819 52.92 39.4587 52.2625C39.7471 51.5934 40.1393 51.0743 40.6584 50.711C41.166 50.3418 41.7543 50.1688 42.4003 50.1688H42.4406C43.0578 50.1688 43.6172 50.3476 44.1306 50.6994C44.6612 51.0513 45.0765 51.5588 45.3821 52.2163C45.6821 52.8738 45.8378 53.6813 45.8378 54.5984C45.8435 55.5789 45.6821 56.3979 45.3879 57.0554ZM24.9934 49.4824V49.9093C25.6336 49.1018 26.3085 48.5192 27.041 48.1328C27.7965 47.7637 28.6444 47.5676 29.6133 47.5676C30.5477 47.5676 31.3898 47.7694 32.128 48.1616C32.8721 48.5539 33.4142 49.1191 33.7718 49.8516C34.0141 50.2784 34.164 50.7456 34.2275 51.23C34.2909 51.7088 34.3313 52.3432 34.3313 53.1103V59.547C34.3313 60.2507 34.164 60.7698 33.8295 61.1216C33.5123 61.485 33.0739 61.6638 32.5548 61.6638C32.0242 61.6638 31.5974 61.485 31.2571 61.1101C30.9168 60.7467 30.7553 60.2276 30.7553 59.547V53.7794C30.7553 52.6316 30.5938 51.7607 30.2651 51.1551C29.9479 50.5495 29.2903 50.2438 28.3098 50.2438C27.6696 50.2438 27.0986 50.4341 26.5795 50.7975C26.0605 51.1666 25.6683 51.6684 25.4202 52.3259C25.253 52.845 25.1665 53.8024 25.1665 55.227V59.5528C25.1665 60.2622 24.9992 60.7755 24.6589 61.1331C24.3186 61.485 23.8918 61.6638 23.3612 61.6638C22.8421 61.6638 22.4268 61.485 22.0865 61.1101C21.7462 60.7467 21.5847 60.2276 21.5847 59.547V49.5401C21.5847 48.8826 21.7347 48.3808 22.0289 48.0636C22.3172 47.7348 22.721 47.5618 23.2401 47.5618C23.5458 47.5618 23.8226 47.6253 24.0764 47.7752C24.3302 47.9252 24.532 48.1386 24.6935 48.4212C24.93 48.7326 24.9934 49.0787 24.9934 49.4824ZM15.4422 39.5332C17.8415 38.6911 20.5869 38.7373 22.6345 40.4676C23.0151 40.8194 23.4535 41.252 23.6207 41.7768C23.8341 42.4228 22.8998 41.7134 22.7613 41.6153C22.0923 41.1885 21.4232 40.8309 20.6677 40.5829C16.6303 39.3717 12.8064 41.5577 10.4301 44.9721C9.45534 46.4717 8.80359 48.0521 8.27297 49.7939C8.22106 49.9842 8.16915 50.2322 8.05957 50.3995C7.95575 50.5898 8.01919 49.8919 8.01919 49.8573C8.10571 49.1364 8.25567 48.4443 8.43446 47.7464C9.53609 44.0435 11.9585 40.9521 15.4422 39.5332ZM20.0967 46.2006C20.0967 47.7752 18.822 49.0556 17.2475 49.0556C15.6729 49.0556 14.3982 47.781 14.3982 46.2006C14.3982 44.6203 15.6729 43.3456 17.2475 43.3456C18.822 43.3456 20.0967 44.6203 20.0967 46.2006Z" fill="white"/>
</svg>
