<svg width="100" height="100" viewBox="0 0 100 100" fill="none" xmlns="http://www.w3.org/2000/svg">
<rect width="100" height="100" rx="24" fill="white"/>
<path d="M79.5586 47.958C79.5586 64.7932 66.2107 78.4538 49.7363 78.4538C33.2618 78.4538 19.9139 64.7932 19.9139 47.958C19.9139 31.1228 33.2618 17.4623 49.7363 17.4623C66.2107 17.4623 79.5586 31.1228 79.5586 47.958Z" fill="#D33833"/>
<path d="M21.1404 55.5099C21.1404 55.5099 18.9759 23.7154 48.2932 22.8015L46.2489 19.3864L30.3517 24.7255L25.8062 29.9444L21.8379 37.5443L19.5771 46.3948L20.2506 52.3112" fill="#EF3D3A"/>
<path d="M29.3176 27.1545C24.0987 32.5177 20.8519 39.9011 20.8519 48.0782C20.8519 56.2553 24.0987 63.6388 29.3176 69.002C34.5605 74.3652 41.7516 77.6601 49.7362 77.6601C57.7209 77.6601 64.912 74.3652 70.1549 69.002C75.3738 63.6388 78.6206 56.2553 78.6206 48.0782C78.6206 39.9011 75.3738 32.5177 70.1549 27.1545C64.912 21.8153 57.7209 18.4964 49.7362 18.4964C41.7756 18.4964 34.5605 21.7913 29.3176 27.1545ZM27.9948 70.2766C22.4392 64.6008 19 56.7363 19 48.0782C19 39.4201 22.4392 31.5557 27.9948 25.8558C33.5504 20.1799 41.2465 16.6445 49.7362 16.6445C58.226 16.6445 65.9221 20.1799 71.4777 25.8558C77.0333 31.5316 80.4725 39.3961 80.4725 48.0782C80.4725 56.7363 77.0333 64.6008 71.4777 70.2766C65.9221 75.9766 58.226 79.4879 49.7362 79.4879C41.2465 79.4879 33.5504 75.9766 27.9948 70.2766Z" fill="#231F20"/>
<path d="M62.2905 48.1263L57.745 48.7997L51.6121 49.4972L47.6438 49.5934L43.7717 49.4732L40.8136 48.5592L38.1921 45.7213L36.1478 39.9252L35.6909 38.6746L32.9732 37.7607L31.3859 35.1392L30.2555 31.3873L31.5061 28.0925L34.4643 27.0583L36.8453 28.1887L37.9756 30.6899L39.3465 30.4734L39.8035 29.8962L39.3465 27.2747L39.2262 23.9799L39.8997 19.4344L39.8756 16.8369L41.9439 13.518L45.5755 10.8965L51.9248 8.17883L58.9715 9.21299L65.1043 13.6382L67.9423 18.1837L69.7701 21.4786L70.227 29.6557L68.8562 36.7025L66.3549 42.9555L63.998 46.2985" fill="#F0D6B7"/>
<path d="M58.4424 67.7755L42.2085 68.4489V71.1665L43.5794 80.7145L42.906 81.5082L31.5542 77.6361L30.7606 76.2652L29.6302 63.4224L26.9606 55.7263L26.3834 53.8984L35.4744 47.6454L38.3124 46.515L40.8136 49.5934L42.9781 51.5175L45.4793 52.3111L46.6097 52.6478L47.9806 58.5642L49.0147 59.8148L51.6362 58.9009L49.8084 62.4363L59.669 67.102L58.4424 67.7755Z" fill="#335061"/>
<path d="M31.5061 28.1406L34.4643 27.1064L36.8453 28.2368L37.9757 30.738L39.3465 30.5215L39.6832 29.1507L39.0098 26.5292L39.6832 20.2761L39.106 16.861L41.1503 14.48L45.5756 10.9687L44.3249 9.26111L38.0719 12.3395L35.4504 14.3838L33.9833 17.5585L31.7226 20.6369L31.0492 24.2685L31.5061 28.1406Z" fill="#6D6B6D"/>
<path d="M36.1719 17.4623C36.1719 17.4623 37.8795 13.2535 44.6857 11.2092C51.4919 9.16497 45.0224 9.74217 45.0224 9.74217L37.639 12.5801L34.801 15.418L33.5504 17.6788L36.1719 17.4623Z" fill="#DCD9D8"/>
<path d="M32.7568 27.3469C32.7568 27.3469 30.3758 19.3862 39.4668 18.2559L39.1301 16.885L32.877 18.3521L31.0492 24.2684L31.5061 28.1405L32.7568 27.3469Z" fill="#DCD9D8"/>
<path d="M36.3883 37.9049L37.8794 36.4619C37.8794 36.4619 38.5528 36.5341 38.6731 37.3277C38.7933 38.1214 39.13 45.2884 44.0122 49.1364C44.4692 49.4972 40.3806 48.5592 40.3806 48.5592L36.7491 42.8833" fill="#F7E4CD"/>
<path d="M57.2881 35.7404C57.2881 35.7404 57.5526 32.3012 58.4906 32.5658C59.4286 32.8303 59.4286 33.7683 59.4286 33.7683C59.4286 33.7683 57.1678 35.2113 57.2881 35.7404Z" fill="#F7E4CD"/>
<path d="M66.7158 23.1382C66.7158 23.1382 64.8398 23.523 64.6715 25.1825C64.5031 26.8419 66.7158 25.5192 67.0525 25.3989" fill="#F7E4CD"/>
<path d="M52.983 23.2584C52.983 23.2584 50.4818 23.5951 50.4818 25.1824C50.4818 26.7698 53.3197 26.6495 54.1134 25.9761" fill="#F7E4CD"/>
<path d="M37.5427 30.6418C37.5427 30.6418 33.2377 28.0203 32.7808 30.5216C32.3238 33.0228 31.3137 34.8266 33.4542 37.448L31.9871 36.9911L30.6163 33.4797L30.1593 30.0646L32.7808 27.3469L35.739 27.5634L37.4465 28.9342L37.5427 30.6418Z" fill="#F7E4CD"/>
<path d="M39.5871 23.4748C39.5871 23.4748 41.5111 13.4699 51.2755 11.5459C59.3083 9.95859 63.5412 11.8826 65.1285 13.7104C65.1285 13.7104 57.9615 5.19663 51.1553 7.79406C44.3491 10.4155 39.3466 15.1775 39.4668 18.2319C39.6592 23.4748 39.5871 23.4748 39.5871 23.4748Z" fill="#F7E4CD"/>
<path d="M65.9221 14.8408C65.9221 14.8408 62.6272 14.7205 62.507 17.6787C62.507 17.6787 62.507 18.1357 62.7234 18.5926C62.7234 18.5926 65.3449 15.6344 66.9322 17.2217" fill="#F7E4CD"/>
<path d="M51.516 18.9052C51.516 18.9052 50.9388 14.3838 47.0908 17.0053C44.5896 18.7128 44.8301 21.0938 45.263 21.5508C45.7199 22.0077 45.5997 22.9216 45.9364 22.2963C46.2731 21.671 46.1769 19.6268 47.4275 19.0495C48.654 18.4723 50.7224 17.847 51.516 18.9052Z" fill="#F7E4CD"/>
<path d="M40.8376 49.5935L30.1593 54.3554C30.1593 54.3554 34.5846 71.9602 32.3238 77.4196L30.7365 76.8424L30.6163 70.1324L27.6581 57.4338L26.4075 53.9225L37.5427 46.4188L40.8376 49.5935Z" fill="#49728B"/>
<path d="M41.9198 59.3337L43.435 61.1856V67.9918H41.6312C41.6312 67.9918 41.4148 63.2299 41.4148 62.6527C41.4148 62.0755 41.6312 60.0312 41.6312 60.0312" fill="#49728B"/>
<path d="M41.968 69.026L36.8453 69.2424L38.3124 70.2766L41.944 70.8538" fill="#49728B"/>
<path d="M59.4525 67.8956L63.6613 67.7754L64.6955 78.2132L60.3905 78.7904L59.4525 67.8956Z" fill="#335061"/>
<path d="M60.5829 67.8956L66.9322 67.5589C66.9322 67.5589 69.5536 60.9692 69.5536 60.6324C69.5536 60.2957 71.8144 51.0845 71.8144 51.0845L66.6917 45.7453L65.6575 44.8314L62.9398 47.5491V58.1072L60.5829 67.8956Z" fill="#335061"/>
<path d="M63.4208 67.1021L59.4525 67.8957L60.0297 71.0703C61.4968 71.7438 63.998 69.94 63.998 69.94" fill="#49728B"/>
<path d="M63.5411 47.2125L71.5018 53.1289L71.7182 50.4112L65.7057 44.8556L63.5411 47.2125Z" fill="#49728B"/>
<path d="M45.9122 90.2624L43.5553 80.7144L42.3769 73.6677L42.1844 68.4488L52.8387 67.8716H59.4525L58.8513 79.8005L59.8854 89.0118L59.7652 90.7193L51.1311 91.3927L45.9122 90.2624Z" fill="white"/>
<path d="M57.9855 67.7755C57.9855 67.7755 57.4083 79.5841 59.1158 88.0017C59.1158 88.0017 55.7007 90.1663 50.7223 90.7194L60.2703 90.3827L61.4006 89.7093L60.0297 71.0944L59.669 67.1021" fill="#DCD9D8"/>
<path d="M64.8639 77.3234L69.2891 76.0728L77.6827 75.6158L78.9333 71.7438L76.6726 65.0337L74.0511 64.697L70.4195 65.8274L66.9563 67.535L65.1044 67.1983L63.6614 67.7755" fill="white"/>
<path d="M64.7917 75.0387C64.7917 75.0387 67.7499 73.6678 68.2069 73.788L66.9563 67.535L68.4233 66.9578C68.4233 66.9578 69.4575 72.8741 69.4575 73.5475C69.4575 73.5475 75.8068 73.8842 76.384 73.8842C76.384 73.8842 77.7548 71.2628 77.4181 68.5451L78.6688 72.1767L78.789 74.2209L76.9612 76.9386L74.9169 77.3956L71.5018 77.2753L70.3714 75.8083L66.4031 76.3855L65.1525 76.8424" fill="#DCD9D8"/>
<path d="M60.3184 66.9818L57.8172 60.6325L55.1957 56.8807C55.1957 56.8807 55.7729 55.2933 56.5665 55.2933H59.188L61.6893 56.2072L61.4728 60.416L60.3184 66.9818Z" fill="white"/>
<path d="M60.8235 64.8173C60.8235 64.8173 57.6488 58.6845 57.6488 57.7705C57.6488 57.7705 58.226 56.3997 59.0197 56.7364C59.8133 57.0731 61.5209 57.987 61.5209 57.987V55.8225L57.6488 55.0288L55.0273 55.3655L59.4526 65.8514L60.3665 65.9717" fill="#DCD9D8"/>
<path d="M46.9224 49.8339L43.7718 49.4972L40.8136 48.5833V49.6174L42.2566 51.2047L46.8021 53.249" fill="white"/>
<path d="M41.8478 50.1707C41.8478 50.1707 45.3591 51.6377 46.5136 51.301L46.6338 52.6719L43.4592 51.9985L41.5352 50.6276L41.8478 50.1707Z" fill="#DCD9D8"/>
<path d="M64.8638 55.6782C62.9398 55.6301 61.1842 55.3896 59.669 54.9567C59.7652 54.3314 59.5728 53.7301 59.7411 53.2732C60.174 52.9605 60.8715 52.9605 61.5209 52.8884C60.9677 52.6238 60.174 52.5036 59.5487 52.6719C59.5247 52.239 59.3323 51.9745 59.212 51.6377C60.2943 51.2529 62.8436 48.7277 64.2866 49.5454C64.9841 49.9542 65.2727 52.215 65.3208 53.3453C65.3689 54.2592 65.2246 55.1731 64.8638 55.6782Z" fill="#D33833"/>
<path d="M64.8638 55.6782C62.9398 55.6301 61.1842 55.3896 59.669 54.9567C59.7652 54.3314 59.5728 53.7301 59.7411 53.2732C60.174 52.9605 60.8715 52.9605 61.5209 52.8884C60.9677 52.6238 60.174 52.5036 59.5487 52.6719C59.5247 52.239 59.3323 51.9745 59.212 51.6377C60.2943 51.2529 62.8436 48.7277 64.2866 49.5454C64.9841 49.9542 65.2727 52.215 65.3208 53.3453C65.3689 54.2592 65.2246 55.1731 64.8638 55.6782Z" fill="black" stroke="#D33833" stroke-width="2"/>
<path d="M55.6526 52.5275C55.6526 52.6718 55.6526 52.8161 55.6286 52.9604C55.0273 53.3452 54.0653 53.3452 53.3919 53.6819C54.3539 53.73 55.1235 53.9705 55.7969 54.2832C55.7729 54.6439 55.7729 55.0287 55.7488 55.3895C54.6425 56.1351 53.6324 57.2654 52.3337 57.9869C51.7084 58.3236 49.5679 59.1894 48.9185 59.0211C48.5578 58.9249 48.5097 58.4679 48.3654 58.035C48.0527 57.1211 47.3312 55.63 47.2591 54.2351C47.1869 52.4794 46.9945 49.5212 48.8945 49.882C50.4337 50.1706 52.2134 50.868 53.3919 51.5174C54.1374 51.9503 54.5463 52.4313 55.6526 52.5275Z" fill="#D33833"/>
<path d="M55.6526 52.5275C55.6526 52.6718 55.6526 52.8161 55.6286 52.9604C55.0273 53.3452 54.0653 53.3452 53.3919 53.6819C54.3539 53.73 55.1235 53.9705 55.7969 54.2832C55.7729 54.6439 55.7729 55.0287 55.7488 55.3895C54.6425 56.1351 53.6324 57.2654 52.3337 57.9869C51.7084 58.3236 49.5679 59.1894 48.9185 59.0211C48.5578 58.9249 48.5097 58.4679 48.3654 58.035C48.0527 57.1211 47.3312 55.63 47.2591 54.2351C47.1869 52.4794 46.9945 49.5212 48.8945 49.882C50.4337 50.1706 52.2134 50.868 53.3919 51.5174C54.1374 51.9503 54.5463 52.4313 55.6526 52.5275Z" fill="black" stroke="#D33833" stroke-width="2"/>
<path d="M56.7349 54.62C56.5665 53.658 56.3741 53.3934 56.4463 52.5517C59.0196 50.8441 59.4766 55.4858 56.7349 54.62Z" fill="#D33833"/>
<path d="M56.7349 54.62C56.5665 53.658 56.3741 53.3934 56.4463 52.5517C59.0196 50.8441 59.4766 55.4858 56.7349 54.62Z" fill="black" stroke="#D33833" stroke-width="2"/>
<path d="M60.4386 55.3896C60.4386 55.3896 59.645 54.2592 60.2222 53.9225C60.7994 53.5858 61.3525 53.9225 61.6893 53.3453C62.026 52.7681 61.6893 52.4314 61.8095 51.758C61.9298 51.0846 62.4829 50.9644 63.0601 50.8441C63.6373 50.7239 65.2246 50.5074 65.4411 51.0606L64.7677 49.0163L63.3968 48.5593L59.0918 51.0606L58.8754 52.3112V54.8124" fill="#EF3D3A"/>
<path d="M48.5097 59.1414C48.3654 57.3617 48.2211 55.606 48.0768 53.8263C47.8363 51.1808 48.7021 51.6377 51.0109 51.6377C51.3717 51.6377 53.1755 52.0466 53.2957 52.3111C53.921 53.5858 52.2615 53.2972 54.0172 54.2592C55.4843 55.0529 58.1058 53.7782 57.5045 51.9744C57.1678 51.5656 55.7729 51.8542 55.2678 51.5896C54.378 51.1327 53.4881 50.6757 52.5982 50.2188C51.4679 49.6416 48.8705 48.7757 47.6679 49.5935C44.6136 51.6618 47.8603 56.8566 48.9426 59.0212" fill="#EF3D3A"/>
<path d="M51.516 18.9054C48.4135 18.1839 46.8743 20.2041 45.9364 22.2965C45.0946 22.1041 45.4313 20.9496 45.6478 20.3724C46.2009 18.8573 48.4376 16.813 50.2654 17.1016C51.035 17.1978 52.0932 17.9193 51.516 18.9054Z" fill="#231F20"/>
<path d="M66.5955 22.4166H66.7398C67.4373 23.8596 68.0385 25.3989 68.9284 26.6976C68.3271 28.0925 64.455 29.295 64.5031 26.8419C65.3449 26.4811 66.7879 26.7697 67.5335 26.2887C67.1006 25.1103 66.4993 24.1001 66.5955 22.4166Z" fill="#231F20"/>
<path d="M53.0792 22.4647C53.7526 23.6913 53.969 24.9659 54.907 25.8799C55.3399 26.2887 56.1576 26.7938 55.7488 27.9482C55.6526 28.2127 54.9551 28.814 54.5463 28.9342C53.0792 29.3671 49.64 29.0304 50.7944 27.1786C52.021 27.2267 53.6564 27.9722 54.5703 27.0824C53.8728 25.9761 52.6222 23.7634 53.0792 22.4647Z" fill="#231F20"/>
<path d="M66.0424 34.8265C63.8297 36.2455 61.3526 37.8088 57.6969 37.448C56.9273 36.7746 56.6147 35.2594 57.3843 34.2734C57.7691 34.9468 57.5286 36.1974 58.6349 36.3898C60.7032 36.7505 63.1082 35.1151 64.5993 34.562C65.5133 32.9987 64.5272 32.4455 63.6854 31.4354C61.9779 29.3912 59.7171 26.8418 59.7893 23.7875C60.4867 23.2824 60.5349 24.5571 60.6311 24.7735C61.5209 26.8418 63.7576 29.5114 65.369 31.2911C65.7778 31.724 66.4272 32.1569 66.4993 32.4455C66.7158 33.2633 65.9462 34.2734 66.0424 34.8265Z" fill="#231F20"/>
<path d="M36.7491 33.3354C36.0516 32.9266 35.8833 31.195 35.0656 31.1469C33.8871 31.0747 34.1036 33.4076 34.1036 34.7784C33.3099 34.0569 33.1656 31.7962 33.7428 30.6418C33.0694 30.3051 32.7808 31.0025 32.396 31.2431C32.9011 27.7558 37.5187 29.6317 36.7491 33.3354Z" fill="#231F20"/>
<path d="M67.4372 36.2936C66.403 38.2657 64.936 40.4302 61.9056 40.5024C61.8335 39.8771 61.7854 38.891 61.9056 38.5062C64.2385 38.2657 65.6815 37.0872 67.4372 36.2936Z" fill="#231F20"/>
<path d="M52.9109 37.5684C54.8349 38.5785 58.3944 38.6987 61.0399 38.6266C61.1842 39.2038 61.1842 39.9253 61.1842 40.6227C57.7931 40.767 53.8007 39.9253 52.9109 37.5684Z" fill="#231F20"/>
<path d="M52.5501 39.4442C53.8969 42.8113 58.4905 42.4264 62.3626 42.3302C62.1942 42.7632 61.8335 43.2923 61.3525 43.4606C60.1019 43.9657 56.6867 44.3505 54.9551 43.4366C53.8729 42.8594 53.1513 41.5366 52.5501 40.767C52.2855 40.4062 50.8425 39.4683 52.5501 39.4442Z" fill="#231F20"/>
<path d="M65.874 57.987C64.3108 60.6806 62.7956 63.4464 60.9437 65.8034C61.7133 63.5186 62.05 59.6705 62.1703 56.7364C63.8057 55.9668 65.2006 56.9048 65.874 57.987Z" fill="#81B0C4"/>
<path d="M74.3157 67.6552C72.56 68.0159 71.3334 69.7235 69.6018 69.6032C70.5638 68.2805 72.1992 67.7033 74.3157 67.6552Z" fill="#231F20"/>
<path d="M75.0852 70.3969C73.6422 70.5412 71.9586 70.7817 70.5156 70.6615C71.2131 69.6033 73.8586 69.9881 75.0852 70.3969Z" fill="#231F20"/>
<path d="M75.5902 72.778C73.9789 72.802 71.9827 72.778 70.4435 72.6577C71.3574 71.6717 74.5561 72.297 75.5902 72.778Z" fill="#231F20"/>
<path d="M62.8436 79.2715C63.0841 81.2917 63.8778 83.336 63.7816 85.5486C62.8917 85.8372 62.3866 86.1017 61.1841 86.1017C61.112 84.2258 60.8474 81.3398 60.9196 79.536C61.4968 79.5841 62.3626 79.1272 62.8436 79.2715Z" fill="#DCD9D8"/>
<path d="M60.2462 49.4492C59.4285 49.9783 58.7551 50.6277 57.9615 51.2049C56.2298 51.3011 55.2919 51.0846 54.0413 50.0986C54.0653 50.0264 54.1856 50.0505 54.1856 49.9543C56.0374 50.772 58.3944 49.6176 60.2462 49.4492Z" fill="#F0D6B7"/>
<path d="M50.578 62.0274C51.0831 59.8389 53.0792 58.6844 54.883 57.4819C56.7349 59.8389 57.8652 62.8692 59.1158 65.8033C56.1577 64.9135 53.1514 63.4945 50.578 62.0274Z" fill="#81B0C4"/>
<path d="M60.9197 79.5601C60.8475 81.3638 61.088 84.2258 61.1842 86.1258C62.3867 86.1258 62.8918 85.8613 63.7816 85.5726C63.8778 83.36 63.0842 81.3158 62.8437 79.2955C62.3627 79.1272 61.4969 79.5841 60.9197 79.5601ZM42.3528 69.3628C43.1465 76.6019 44.2769 82.6626 46.3692 89.084C51.0109 90.503 56.5906 90.6232 60.7032 89.3485C59.9576 85.741 60.2703 81.3398 59.8374 77.4677C59.5007 74.5576 59.669 71.6475 59.2121 68.6894C54.2337 67.6552 47.211 68.4488 42.3528 69.3628ZM60.3906 68.7375C60.3425 71.8399 60.5349 74.9184 60.7754 78.0209C61.9779 77.8525 62.7715 77.7323 63.8778 77.4677C63.5171 74.4855 63.5652 71.0944 62.8196 68.4489C61.9779 68.4729 61.2323 68.4489 60.3906 68.7375ZM66.4272 68.2324C65.85 68.1121 65.2006 68.2324 64.6715 68.2324C64.9361 70.7577 65.5373 73.5475 65.7538 76.2171C66.5955 76.2411 67.0525 75.8323 67.7499 75.712C67.798 73.3792 67.5575 70.1564 66.4272 68.2324ZM75.5903 76.6019C77.37 76.169 78.4764 74.0045 77.9713 71.7678C77.6346 70.2767 77.0574 67.4387 76.408 66.4767C75.9511 65.7793 74.6764 64.8413 73.6423 65.4907C71.9828 66.5489 69.0727 66.8615 67.8702 68.1362C68.4714 70.1564 68.6638 72.8982 68.9044 75.4475C70.9727 75.5677 73.498 74.8703 75.2296 75.6158C74.0271 76.0006 72.4878 76.0006 71.4537 76.5778C72.3195 76.9867 74.2916 76.9145 75.5903 76.6019ZM59.0918 65.8033C57.8412 62.8692 56.7109 59.8389 54.859 57.4819C53.0552 58.6844 51.0831 59.8389 50.554 62.0274C53.1514 63.4945 56.1577 64.9135 59.0918 65.8033ZM62.1703 56.7364C62.05 59.6705 61.7133 63.5185 60.9437 65.8033C62.7956 63.4223 64.3107 60.6806 65.874 57.987C65.2006 56.9047 63.8057 55.9668 62.1703 56.7364ZM58.683 55.5098C57.9855 55.4377 57.3843 56.3275 56.4704 55.9427C56.2539 56.1832 56.0615 56.4237 55.8451 56.6642C57.8653 59.1173 58.8032 62.5806 60.3665 65.4426C61.2083 62.6768 61.1121 59.6705 61.3045 56.6642C60.1501 56.7123 59.5007 55.582 58.683 55.5098ZM56.4463 52.5516C56.3742 53.3934 56.5666 53.6579 56.7349 54.6199C59.4766 55.4858 59.0197 50.8441 56.4463 52.5516ZM53.3919 51.5415C52.2135 50.8922 50.4337 50.1947 48.8945 49.9061C46.9946 49.5453 47.187 52.5035 47.2591 54.2592C47.3313 55.6541 48.0528 57.1212 48.3654 58.0591C48.5097 58.492 48.5578 58.949 48.9186 59.0452C49.5679 59.1895 51.7325 58.3477 52.3337 58.011C53.6324 57.3136 54.6425 56.1832 55.7489 55.4136C55.7729 55.0529 55.7729 54.668 55.797 54.3073C55.1235 53.9706 54.378 53.7541 53.3919 53.706C54.0413 53.3693 55.0273 53.3693 55.6286 52.9845C55.6286 52.8402 55.6286 52.6959 55.6527 52.5516C54.5463 52.4314 54.1375 51.9504 53.3919 51.5415ZM42.0883 49.4972C41.1022 50.5074 44.8541 51.8542 46.0325 51.9263C46.0325 51.301 46.3933 50.6998 46.3211 50.2428C44.9022 50.0023 43.0503 50.1706 42.0883 49.4972ZM54.2096 49.9542C54.2096 50.0504 54.0894 50.0263 54.0653 50.0985C55.34 51.0846 56.278 51.301 57.9855 51.2048C58.7551 50.6517 59.4526 49.9782 60.2703 49.4491C58.3944 49.6175 56.0375 50.7719 54.2096 49.9542ZM65.3209 53.3212C65.2728 52.2149 64.9842 49.9301 64.2867 49.5213C62.8437 48.6795 60.2944 51.2289 59.2121 51.6137C59.3323 51.9504 59.5247 52.2149 59.5488 52.6478C60.1982 52.4795 60.9678 52.5997 61.5209 52.8643C60.8716 52.9364 60.1741 52.9364 59.7412 53.2491C59.5969 53.706 59.7893 54.3073 59.669 54.9326C61.1842 55.3655 62.9399 55.582 64.8639 55.6541C65.2247 55.1731 65.369 54.2592 65.3209 53.3212ZM40.4288 50.4592C40.1162 50.2428 38.0238 47.5251 37.7352 47.6454C33.9593 49.1365 30.4239 51.7099 27.2733 54.163C30.2796 60.6325 31.5062 68.5451 31.7226 76.169C35.1618 77.7804 38.1922 80.1132 42.882 80.3537C42.3288 76.5297 41.8478 73.0906 41.5351 69.483C40.3567 68.978 38.6732 69.5071 37.5668 69.3387C37.5668 68.0159 39.2504 68.7615 39.3947 67.8716C39.4909 67.1982 38.4567 67.1501 38.7934 66.0919C39.6592 66.4046 40.1162 67.102 41.0301 67.3666C41.8718 65.5388 41.0301 62.292 41.1503 60.7528C41.1744 60.4642 41.2946 59.1654 41.944 59.3819C42.5212 59.5743 41.9199 62.8692 41.968 64.3122C42.0161 65.659 41.7997 66.9337 42.3528 67.7754C46.8743 67.1501 51.4679 66.7653 56.3742 66.621C55.2919 66.1641 54.0172 65.7312 52.6223 64.9375C51.8527 64.5046 49.4717 63.6147 49.2553 62.8932C48.8945 61.7388 50.1692 61.1376 50.3856 60.1515C48.1009 61.4021 47.668 58.949 47.1148 57.2414C46.6338 55.6782 46.3452 54.4997 46.2249 53.6098C44.2288 52.5997 42.1123 51.6618 40.4288 50.4592ZM63.3247 47.958C66.4753 46.4429 67.0525 53.6579 65.8019 55.9908C65.9943 56.6883 66.6436 56.9528 66.9082 57.5781C65.1525 60.7287 63.2044 63.6628 61.4007 66.7653C62.7234 65.9236 64.6474 66.621 66.2107 65.9957C66.7879 65.7793 67.1968 64.4565 67.6297 63.3983C68.8322 60.5123 70.0828 56.8566 70.636 54.1149C70.7562 53.4896 71.117 52.1187 71.0208 51.5656C70.8765 50.5555 69.5297 49.8099 68.8322 49.2086C67.5575 48.0542 66.7639 47.0682 65.4171 45.9859C64.912 46.7796 63.7576 47.3087 63.3247 47.958ZM33.2378 20.0357C31.7467 21.6951 32.0593 24.7736 32.2277 26.9862C34.9454 25.2786 38.5289 27.1305 38.5048 30.0165C39.8035 29.9925 38.9858 28.4051 38.7453 27.371C37.9757 24.028 40.044 20.4205 38.8415 17.3661C36.5086 17.5585 34.6087 18.4964 33.2378 20.0357ZM43.9642 10.4396C40.5731 11.4016 36.22 13.8788 34.8251 16.9332C35.9074 16.7648 36.6529 16.2357 37.7111 16.1636C38.12 16.1395 38.6491 16.3319 39.1061 16.2117C40.02 15.9712 40.8136 13.9028 41.5111 13.1332C42.1845 12.3877 43.0022 12.051 43.5554 11.3776C43.9161 11.2092 44.4452 11.2092 44.4693 10.6801C44.325 10.5117 44.1566 10.3915 43.9642 10.4396ZM61.6412 11.3535C58.1058 9.35733 52.1413 7.86622 48.3895 9.74214C45.3591 11.2573 41.2706 13.7585 39.8757 16.9091C41.1744 19.9635 39.4909 22.7533 39.3706 25.8558C39.3225 27.5153 40.1402 28.9343 40.2124 30.738C39.7554 31.4836 38.4086 31.5557 37.4706 31.5076C37.158 29.9203 36.6048 28.1406 34.9694 27.9482C32.6606 27.6836 30.953 29.6077 30.8568 31.6038C30.7366 33.9608 32.6606 37.8569 35.4023 37.5924C36.4605 37.4962 36.7251 36.4379 37.8795 36.4379C38.5048 37.6886 36.9175 38.0734 36.7491 38.9632C36.701 39.2037 36.8694 40.0936 36.9896 40.5265C37.4947 42.5708 38.601 45.2403 39.6833 46.8036C41.0782 48.7998 43.7959 49.0884 46.73 49.2808C47.2591 48.1504 49.1831 48.2466 50.4337 48.5352C48.9186 47.934 47.5237 46.491 46.3692 45.2163C45.0465 43.7492 43.6997 42.186 43.6275 40.2619C46.1528 43.7492 48.2211 46.8036 52.7907 48.3428C56.2539 49.4972 60.2944 47.8137 62.9639 45.9378C64.0702 45.1682 64.7196 43.9176 65.5133 42.8113C68.4474 38.5784 69.8183 32.5658 69.5297 26.7216C69.4094 24.3166 69.4094 21.9116 68.5917 20.3002C67.7499 18.6167 64.888 17.0775 63.2044 18.6167C62.8918 16.9572 64.5993 15.9471 66.5955 16.5484C65.1766 14.6965 63.6854 12.5079 61.6412 11.3535ZM68.2309 65.7312C70.9967 64.3603 76.1435 62.0515 77.8511 65.7312C78.5004 67.102 79.246 69.3868 79.5586 70.8058C80.0156 72.7779 79.0536 76.9626 77.0093 77.612C75.2055 78.1892 73.1131 78.1652 70.9486 77.7323C70.6841 77.5158 70.4195 77.1551 70.2031 76.7702C68.6638 76.7221 67.1968 76.8424 65.9943 77.4918C66.1145 78.6462 65.3449 78.8145 64.5993 79.055C64.0702 81.1955 65.6816 83.9853 65.2968 85.9094C65.0323 87.3043 63.3247 87.5207 62.0741 87.7612C62.026 88.5308 62.1222 89.1802 62.2184 89.8295C61.9298 90.8878 60.6551 91.489 59.4285 91.6333C55.4121 92.1143 49.3274 92.3308 45.4794 90.9359C44.3971 88.2903 43.5554 85.0916 42.6655 82.0854C38.9137 82.4942 35.8593 80.474 32.9973 79.1272C32.0112 78.6702 30.6404 78.4057 30.2556 77.612C29.8948 76.8424 30.0391 75.3753 29.9429 74.0045C29.7265 70.4691 29.51 67.0539 28.5961 63.4464C28.1872 61.811 27.4417 60.392 26.9366 58.8287C26.4556 57.3857 25.6379 55.582 25.4215 54.1389C25.1088 51.9985 27.129 51.8782 28.4037 50.9403C30.3999 49.4972 31.9631 48.7036 34.1277 47.4049C34.777 47.0201 36.701 46.058 36.9175 45.6011C37.3504 44.7112 36.1719 43.4606 35.8593 42.7632C35.3542 41.6568 35.0897 40.7189 35.0175 39.6366C33.2137 39.348 31.8188 38.2658 31.0011 37.0632C29.6303 35.043 28.6682 31.3152 29.8708 28.5014C29.967 28.2849 30.4239 27.8279 30.4961 27.4912C30.6404 26.8178 30.2315 25.928 30.2075 25.2065C30.0872 21.5268 30.8328 18.3521 33.3099 17.2458C34.3201 13.2294 37.9276 11.9067 41.3187 9.91049C42.5934 9.16493 43.9883 8.68393 45.4313 8.15482C50.6021 6.25485 58.5627 6.6156 62.8677 9.86239C64.6956 11.2333 67.6056 14.1433 68.6398 16.2598C71.4056 21.8154 71.1891 31.1228 69.2651 37.905C69.0006 38.8189 68.6398 40.1417 68.1107 41.248C67.7499 42.0176 66.6196 43.5328 66.7398 44.2062C66.8841 44.9036 69.3373 46.7555 69.8664 47.2606C70.8043 48.1745 72.6081 49.377 72.7524 50.5314C72.9207 51.758 72.2233 53.4415 71.8625 54.6199C70.7081 58.5642 69.5537 62.1958 68.2309 65.7312Z" fill="#231F20"/>
<path d="M49.8325 38.4101C49.9768 38.2177 50.7945 37.9051 51.9489 38.4582C51.9489 38.4582 50.578 38.6747 50.6983 40.9594L50.1211 40.8392C50.1451 40.8632 49.5439 38.7949 49.8325 38.4101Z" fill="#F7E4CD"/>
<path d="M59.7893 57.9389C59.7893 58.2756 59.5007 58.5642 59.164 58.5642C58.8273 58.5642 58.5387 58.2756 58.5387 57.9389C58.5387 57.6022 58.8273 57.3136 59.164 57.3136C59.5248 57.3136 59.7893 57.6022 59.7893 57.9389Z" fill="#1D1919"/>
<path d="M60.4146 60.8489C60.4146 61.1856 60.126 61.4742 59.7892 61.4742C59.4525 61.4742 59.1639 61.1856 59.1639 60.8489C59.1639 60.5122 59.4525 60.2236 59.7892 60.2236C60.15 60.2236 60.4146 60.4882 60.4146 60.8489Z" fill="#1D1919"/>
</svg>
