<svg width="100" height="100" viewBox="0 0 100 100" fill="none" xmlns="http://www.w3.org/2000/svg">
<rect width="100" height="100" rx="24" fill="#41BF47"/>
<path d="M45.7414 62.9209L41.2499 64.1707C41.6405 65.3034 41.9529 67.3343 41.9529 70.0683V83.5038H46.9912V69.2872C47.9286 68.1545 48.9441 67.6077 50.0377 67.6077C50.5845 67.6077 51.0141 67.7249 51.4828 67.9983L52.8497 63.3505C52.0686 62.999 51.7171 62.9209 50.975 62.9209C50.4282 62.9209 49.7643 63.0381 49.3346 63.2334C48.3973 63.702 47.2256 64.7566 46.4835 65.772C46.4835 64.6394 46.2101 63.7411 45.7414 62.9209ZM28.4003 56.2813H27.8535V83.4647H33.0871V71.4353H39.6876V66.9437H33.0871V60.6947H41.328L41.6405 58.3122C36.6803 57.9607 32.1888 57.1796 28.4003 56.2813ZM16.1755 87.097L18.597 89.9091C20.9404 88.9717 23.8697 86.8626 24.6508 83.5038C24.9242 82.4102 25.0023 81.7072 25.0023 78.153V56.3203H19.7297V78.7389C19.7297 81.6681 19.6125 82.7617 19.222 83.7772C18.7142 84.9098 17.5035 86.2377 16.1755 87.097ZM63.7075 73.31C63.7075 78.0749 62.7701 80.1058 60.622 80.1058C59.6456 80.1058 58.552 79.5591 58.0833 78.4655C57.6928 77.45 57.4584 75.7315 57.4584 73.3881C57.4584 71.3962 57.6537 69.9902 57.9662 68.8966C58.3567 67.6468 59.3331 66.8656 60.5439 66.8656C61.4422 66.8656 62.2233 67.2562 62.692 67.9202C63.395 68.8575 63.7075 70.6151 63.7075 73.31ZM66.793 81.1213C68.4334 79.1685 69.1754 76.786 69.1754 73.349C69.1754 70.1073 68.5115 67.8811 66.9883 66.0064C65.3479 63.9754 63.2388 62.999 60.5048 62.999C55.3494 62.999 51.9124 67.1781 51.9124 73.5053C51.9124 79.8325 55.3103 83.8943 60.5048 83.8943C63.4341 83.9334 65.3479 82.8398 66.793 81.1213ZM81.0877 69.873C81.0877 71.7087 79.9941 72.7241 78.0413 72.7241C76.2837 72.7241 75.112 71.9039 75.112 69.873C75.112 67.9983 76.2056 66.9047 78.0804 66.9047C79.9551 66.9047 81.0877 67.9983 81.0877 69.873ZM89.9536 65.5768L87.8836 62.257C86.7119 63.3505 85.3058 63.9754 83.9389 63.9754C83.3139 63.9754 82.9624 63.8973 81.5955 63.5458C80.2285 63.1552 79.2521 63.0381 78.1585 63.0381C73.2764 63.0381 70.1128 65.6939 70.1128 69.8339C70.1128 72.8022 71.4407 74.677 74.2137 75.419C73.0811 75.6924 71.8703 76.2783 71.3235 76.9423C70.933 77.4109 70.7377 78.0358 70.7377 78.7779C70.7377 79.4028 70.8939 79.9496 71.1283 80.4183C71.4017 80.8479 71.7532 81.1994 72.2219 81.3947C73.1202 81.7462 74.5653 81.9806 76.7915 82.0196C77.9632 82.0196 78.6662 82.0587 78.9005 82.0587C80.2675 82.1368 80.9706 82.3711 81.5173 82.6445C82.0251 82.957 82.4156 83.66 82.4156 84.4411C82.4156 85.2223 81.947 86.0034 81.2049 86.4721C80.5409 86.9408 79.4473 87.136 78.0413 87.136C75.737 87.136 74.4481 86.2768 74.4481 84.6755C74.4481 83.9725 74.5262 83.8162 74.6824 83.3866H70.0737C69.8784 83.7772 69.6441 84.324 69.6441 85.4175C69.6441 86.7845 70.1518 87.9562 71.2064 88.9717C72.9249 90.6511 75.737 91.1198 78.4319 91.1198C81.4002 91.1198 84.2904 90.4168 85.9698 88.5421C87.0243 87.3704 87.493 86.0815 87.493 84.4021C87.493 82.6055 86.9853 81.2385 85.8526 80.1058C84.5247 78.817 83.0015 78.3483 80.0722 78.3092L77.3773 78.2702C76.8696 78.2702 76.5571 78.0749 76.5571 77.8015C76.5571 77.2547 77.2602 76.786 78.549 76.1611C78.9396 76.2002 79.0568 76.2002 79.2911 76.2002C83.353 76.2002 86.3213 73.7006 86.3213 70.2245C86.3213 68.8966 85.9307 67.8811 85.1887 66.9437C85.8136 67.0219 86.0089 67.0609 86.4775 67.0609C87.8055 67.0609 88.86 66.6313 89.9536 65.5768ZM27.0723 32.652C20.8233 34.1752 16.5661 37.1826 16.5661 40.6196C16.5661 42.7677 18.2065 44.7205 20.9014 46.2437C20.0812 44.9548 19.6516 43.5488 19.6516 42.1428C19.6906 38.5886 22.4637 35.2688 27.0723 32.652ZM93 46.1265C93 43.8613 91.594 41.7913 89.2506 40.0728C89.4458 40.7758 89.6021 41.4788 89.6021 42.1818C89.6021 48.6262 80.58 54.1722 67.7694 56.4766C69.2145 56.6328 70.6986 56.7109 72.2609 56.7109C83.7045 56.6718 93 51.946 93 46.1265ZM85.6183 42.6114C85.6183 40.229 83.5873 38.0418 80.1113 36.2452C80.9315 37.2216 81.3611 38.2762 81.3611 39.3697C81.3611 45.1111 69.1754 49.7588 54.0996 49.7588C39.0627 49.7588 26.838 45.1111 26.838 39.3697C26.838 38.6277 27.0333 37.9246 27.4239 37.2607C25.0023 38.862 23.6354 40.6977 23.6354 42.6505C23.6354 48.8605 37.5005 53.8988 54.6073 53.8988C71.7141 53.8988 85.6183 48.7824 85.6183 42.6114ZM72.1047 42.299C65.7775 46.3609 46.3273 47.9231 37.9692 42.6896C31.4076 38.5886 33.6729 32.0661 14.8867 17.7714C12.4261 15.8967 15.3553 13.9048 17.191 15.1937C19.0267 16.4825 17.3472 16.795 21.0576 20.5054C28.5565 28.0042 28.4784 21.2474 29.6501 23.8252C32.1497 29.1759 37.6176 34.5658 37.6176 34.5658C43.1246 38.159 47.499 38.9401 55.6228 33.4331C60.7782 29.9571 58.6692 38.9792 71.2845 32.4567C75.8932 30.0743 75.6979 31.6756 80.3847 25.1531C82.3375 22.4582 86.0479 27.2231 81.8298 27.8871C80.1504 28.1605 77.2992 29.9961 76.0885 32.8863C74.3309 37.2216 75.073 40.4243 72.1047 42.299ZM37.0318 31.285C35.4695 30.582 33.8291 27.9261 33.2042 26.8716C34.9618 25.1531 34.2588 22.302 33.2433 20.7397C32.2669 19.1774 31.0561 19.6071 29.7673 18.162C28.4393 16.7169 30.275 12.9674 31.9544 15.8576C38.2425 26.6763 42.3826 22.1848 47.499 21.5208C52.4201 20.8959 56.7945 23.5908 58.1224 15.9748C58.3567 14.725 59.5675 14.4516 59.6847 16.4825C59.8018 18.5525 60.583 23.5518 63.2779 24.1767C65.9728 24.8407 68.16 23.5518 68.7849 22.8488C69.4098 22.1457 69.7613 22.2239 70.0347 24.0205C70.3081 25.778 71.0111 28.2386 74.7996 25.5046C82.5719 19.9586 80.3456 17.8105 83.3921 16.3654C85.1105 15.5452 87.8445 18.201 83.8998 20.1929C78.2756 23.0441 77.6898 26.5592 74.1356 28.7854C68.16 32.5348 69.9956 28.9416 60.3877 27.5746C56.6773 27.0669 55.5056 31.1678 52.6154 29.9961C46.0148 27.2622 41.3671 27.809 37.0318 31.285ZM57.849 11.2489C58.0833 12.8893 58.3567 12.8503 58.9426 12.9674C59.5284 13.1237 60.2705 12.1863 60.2705 11.327C60.3096 10.4287 59.8799 9.88195 59.0207 9.92101C58.1224 9.96007 57.8099 10.3897 57.849 11.2489ZM86.7509 14.1782C87.4539 14.8421 89.3287 14.4125 89.7583 13.9048C90.8909 12.655 90.93 11.9129 90.3441 11.0537C89.7583 10.2335 88.5475 10.3506 87.3368 11.2489C86.126 12.1472 86.3604 13.8267 86.7509 14.1782ZM86.2432 22.4582C85.6573 23.2393 85.6183 23.8252 86.0479 24.2548C86.5166 24.7235 87.4539 25.1141 88.1179 24.6063C88.7819 24.0595 88.7819 23.2784 88.2351 22.6144C87.6492 21.9114 86.8681 21.9114 86.2432 22.4582ZM26.9552 12.694C27.8535 12.9674 28.2831 13.8267 29.0252 12.8503C29.4157 12.3816 29.4548 11.7176 28.9471 11.0146C28.6346 10.585 27.1505 10.2725 26.5255 10.8974C25.9006 11.5223 26.4865 12.5378 26.9552 12.694ZM8.63759 12.1472C10.278 13.1627 11.3325 14.6859 12.5823 13.3189C13.0119 12.8503 13.5197 12.0301 12.6214 10.3897C11.9574 9.17893 9.80929 8.71025 9.06722 9.17893C8.28608 9.60856 7.34872 11.3661 8.63759 12.1472ZM23.7525 19.9195C24.2603 20.4663 25.1586 20.4273 25.7054 20.1148C26.2131 19.8023 26.135 18.9822 25.6272 18.2791C25.3148 17.8495 24.3774 17.6152 23.7525 18.2791C23.1276 18.9431 23.401 19.5289 23.7525 19.9195Z" fill="white"/>
</svg>
