<svg width="100" height="100" viewBox="0 0 100 100" fill="none" xmlns="http://www.w3.org/2000/svg">
<rect width="100" height="100" rx="24" fill="#7B8B94"/>
<path d="M38.1922 78.0151C36.091 78.0151 34.5941 77.9285 34.5941 77.9285V67.3928H38.1714C42.1388 67.3928 44.6683 68.4925 44.6683 72.1448C44.6683 75.2467 43.572 78.0139 38.1922 78.0139M38.2868 64.7963H31.6953V89.9991H34.5941V80.6773H38.843C44.7837 80.6773 47.6201 77.0238 47.6201 72.401C47.6201 67.6928 44.7167 64.8056 38.2845 64.8056M54.2324 78.569H64.4427V75.8641H54.2324V67.3639H66.056V64.8044H51.3336V89.5456H66.5522V86.9837H54.2324V78.569ZM81.2815 76.4688V78.9798H85.5766V85.1974C84.2617 87.1525 80.7391 87.1525 80.7391 87.1525C78.0573 87.1525 75.8924 86.2297 74.3161 84.3622C72.7516 82.5029 71.962 80.5033 71.962 77.4983C71.962 74.3411 72.7446 71.9154 74.3323 69.9744C75.9379 68.0321 78.1681 66.958 80.9376 66.958C82.3574 66.958 83.8825 67.3953 85.3688 68.3076L87.1603 66.3016C85.5565 64.9805 83.5091 64.3241 81.0281 64.3241C77.3307 64.3241 74.3443 65.5296 72.1771 67.9222C69.9871 70.3086 68.8768 73.4844 68.8768 77.3617C68.8768 81.2414 69.8941 84.1724 71.8771 86.5104C73.846 88.8156 76.6107 90 80.008 90C81.5397 90 83.1121 89.8558 84.7485 89.3436C86.0093 88.9453 86.443 88.6233 88.3304 88.6233V76.4697L81.2815 76.4688ZM22.5212 64.8136H20.577V67.3732H22.5212V79.2752C22.5212 82.9448 22.6309 85.0935 21.3719 86.3537C20.5851 87.1501 19.4519 87.5776 18.487 87.5776C13.9496 87.5776 13.7834 83.9403 13.7834 83.9403H11C11.2661 90.4117 18.8724 89.9825 18.8724 89.9825C20.8951 89.8751 22.4959 89.2084 23.7445 87.9559C25.3956 86.2921 25.4348 83.2153 25.4348 80.6466V64.8141L22.5212 64.8136ZM67.5031 10H19.8902V57.5898H47.447V37.5545H67.5192L67.5031 10ZM69.7879 40.2341H87.1621V57.6175H69.7879V40.2341Z" fill="white"/>
</svg>
