<svg width="100" height="100" viewBox="0 0 100 100" fill="none" xmlns="http://www.w3.org/2000/svg">
<rect width="100" height="100" rx="24" fill="#009982"/>
<path d="M45.2926 50.1398C45.2926 53.3572 43.3264 54.8834 40.8653 54.8834H39.3665V52.9447H40.7553C42.2402 52.9447 43.2302 52.1472 43.2302 50.126C43.2302 48.1323 42.2952 47.1423 40.714 47.1423C39.1878 47.1423 38.1016 48.0773 38.1016 50.0848V58.1695H36.0391V45.4649H38.0878V46.5649H38.3766C39.0641 45.6436 40.0678 45.2312 41.1265 45.2312C43.3952 45.2312 45.2926 46.8811 45.2926 50.1398ZM31.818 49.301L30.4568 49.1635C29.3843 49.0673 28.8206 48.7786 28.8206 48.1461C28.8206 47.4036 29.5493 46.9774 30.5806 46.9774C31.653 46.9774 32.3405 47.4861 32.3955 48.2011H34.3617C34.2792 46.3586 32.863 45.2312 30.5943 45.2312C28.3119 45.2312 26.7719 46.4411 26.7719 48.2148C26.7719 49.6998 27.7069 50.6622 29.8381 50.8685L31.2268 51.006C32.0655 51.0885 32.6292 51.2535 32.6292 52.0647C32.6292 52.7934 32.1068 53.3159 30.7181 53.3159C29.4393 53.3159 28.8069 52.7384 28.5869 51.9547H26.4557C26.6619 53.7284 28.1606 55.1034 30.7181 55.1034C33.1242 55.1034 34.6779 53.8384 34.6779 51.9547C34.6642 50.3185 33.578 49.466 31.818 49.301ZM53.2261 51.9685C52.9099 52.7109 52.1399 53.2609 51.04 53.2609C49.5412 53.2609 48.4275 52.2847 48.4275 50.181C48.4275 48.1736 49.4587 47.0599 51.0675 47.0599C52.4974 47.0599 53.3086 47.9123 53.3911 49.2048H49.7062V50.6897H55.4123V49.7135C55.4123 47.0049 53.6111 45.2449 51.0537 45.2449C48.675 45.2449 46.3926 46.8674 46.3926 50.181C46.3926 53.4947 48.675 55.1171 51.0537 55.1171C53.2261 55.1171 54.7936 53.7697 55.2748 51.9685H53.2261ZM20.9008 45.2312C18.6597 45.2312 16.9822 46.3999 16.776 48.2011H18.9759C19.1271 47.5411 19.7321 47.0461 20.8871 47.0461C22.372 47.0461 22.8533 47.8298 22.8533 48.7786V51.996C22.0146 52.9584 21.0383 53.3984 20.0621 53.3984C19.0446 53.3984 18.3434 52.9034 18.3434 52.0372C18.3434 51.1985 18.8934 50.676 19.9384 50.676H21.5746V49.2048H19.8696C17.5322 49.2048 16.2122 50.3735 16.2122 52.1747C16.2122 53.8522 17.4772 55.1171 19.5671 55.1171C20.7358 55.1171 21.7671 54.6496 22.537 54.0859H22.8258V54.8834H24.8745V48.5998C24.9295 46.2761 23.3483 45.2312 20.9008 45.2312ZM7 54.8834H9.04869V42H7V54.8834ZM15.6072 45.4649H13.1048L10.1212 49.3973V50.621L13.1873 54.8834H15.731L12.1286 50.0023L15.6072 45.4649ZM89.7313 45.4649L88.0539 49.191C87.6414 50.0848 87.2564 50.9647 87.1326 51.556H86.8439C86.7202 50.9647 86.3214 50.1123 85.9089 49.2185L84.2315 45.4649H81.9628L85.9089 53.9209L83.9565 58.1833H86.1427L92 45.4649H89.7313ZM81.5091 45.4649H79.0066L76.023 49.3835V50.6072L79.0891 54.8696H81.6328L78.0442 49.9885L81.5091 45.4649ZM68.6669 49.301L67.3057 49.1635C66.2333 49.0673 65.6695 48.7786 65.6695 48.1461C65.6695 47.4036 66.3983 46.9774 67.4295 46.9774C68.5019 46.9774 69.1894 47.4861 69.2444 48.2011H71.2106C71.1281 46.3586 69.7119 45.2312 67.4432 45.2312C65.1608 45.2312 63.6208 46.4411 63.6208 48.2148C63.6208 49.6998 64.5558 50.6622 66.687 50.8685L68.0757 51.006C68.9144 51.0885 69.4782 51.2535 69.4782 52.0647C69.4782 52.7934 68.9557 53.3159 67.567 53.3159C66.2883 53.3159 65.6558 52.7384 65.4358 51.9547H63.3046C63.5108 53.7284 65.0095 55.1034 67.567 55.1034C69.9731 55.1034 71.5269 53.8384 71.5269 51.9547C71.5269 50.3185 70.4269 49.466 68.6669 49.301ZM72.9018 54.8834H74.9505V42H72.9018V54.8834ZM59.3722 46.5649H59.0835V45.4649H57.0348V54.8834H59.0835V49.961C59.0835 48.2836 59.8534 47.3073 61.3934 47.3073H62.6859V45.2312H61.9296C60.5134 45.2312 59.9084 45.7674 59.3722 46.5649Z" fill="white"/>
</svg>
