<svg width="100" height="100" viewBox="0 0 100 100" fill="none" xmlns="http://www.w3.org/2000/svg">
<rect width="100" height="100" rx="24" fill="white"/>
<path d="M16.008 24.6116C13.0676 26.4727 11.2034 29.6361 11 33.1101V65.8899C11.2034 69.3639 13.0676 72.5273 16.008 74.3884L45.4188 90.839C48.5781 92.387 52.2756 92.387 55.4349 90.839L84.8761 74.3884C87.8165 72.5273 89.6807 69.3639 89.8841 65.8899V33.1101C89.6807 29.6361 87.8165 26.4727 84.8761 24.6116L55.4653 8.16098C52.306 6.61301 48.6084 6.61301 45.4492 8.16098L16.008 24.6116Z" fill="#14BF96"/>
<path d="M80.6571 41.3657C64.3279 41.3657 52.1265 54.9026 52.1265 71.505V72.2031H48.8485V71.505C48.8485 54.9026 36.7078 41.4264 20.2568 41.3657C20.2568 42.3977 20.2568 43.46 20.2568 44.4009C20.1908 56.9611 27.9361 68.2401 39.6823 72.6887C43.1728 73.9686 46.8608 74.6261 50.5785 74.6312C54.3259 74.6261 58.0439 73.9688 61.5659 72.6887C73.2944 68.223 81.0229 56.9507 80.961 44.4009C80.8088 43.4296 80.7481 42.3977 80.6571 41.3657Z" fill="white"/>
<path d="M50.4573 42.6405C55.4862 42.6405 59.5628 38.5638 59.5628 33.535C59.5628 28.5061 55.4862 24.4294 50.4573 24.4294C45.4285 24.4294 41.3518 28.5061 41.3518 33.535C41.3518 38.5638 45.4285 42.6405 50.4573 42.6405Z" fill="white"/>
</svg>
