<svg width="100" height="100" viewBox="0 0 100 100" fill="none" xmlns="http://www.w3.org/2000/svg">
<rect width="100" height="100" rx="24" fill="white"/>
<path fill-rule="evenodd" clip-rule="evenodd" d="M91.5216 26.2292C91.5522 26.3425 91.5679 26.4594 91.5682 26.5768V44.8218C91.5682 45.056 91.5064 45.286 91.389 45.4886C91.2716 45.6913 91.1029 45.8593 90.8997 45.9758L75.5863 54.7924V72.2675C75.5863 72.743 75.3336 73.1821 74.9212 73.4215L42.9558 91.8228C42.8827 91.8644 42.8028 91.891 42.723 91.9193C42.6931 91.9293 42.6648 91.9475 42.6332 91.9559C42.4098 92.0147 42.1749 92.0147 41.9515 91.9559C41.9149 91.9459 41.8816 91.9259 41.8467 91.9126C41.7735 91.886 41.697 91.8627 41.6272 91.8228L9.66847 73.4215C9.46545 73.3049 9.29676 73.1368 9.1794 72.9342C9.06204 72.7316 9.00016 72.5016 9 72.2675V17.5324C9 17.4127 9.01663 17.2963 9.04656 17.1832C9.05654 17.145 9.07982 17.11 9.09312 17.0718C9.11806 17.002 9.14134 16.9305 9.17793 16.8656C9.20287 16.8224 9.23945 16.7874 9.26939 16.7475C9.30763 16.6943 9.34255 16.6394 9.38745 16.5929C9.42569 16.5546 9.47558 16.5264 9.51882 16.4931C9.56704 16.4532 9.61027 16.41 9.66515 16.3784L25.647 7.17771C25.8493 7.06128 26.0787 7 26.3121 7C26.5456 7 26.775 7.06128 26.9773 7.17771L42.9575 16.3784H42.9608C43.014 16.4116 43.0589 16.4532 43.1071 16.4915C43.1504 16.5247 43.1986 16.5546 43.2369 16.5912C43.2834 16.6394 43.3167 16.6943 43.3566 16.7475C43.3848 16.7874 43.4231 16.8224 43.4464 16.8656C43.4846 16.9321 43.5062 17.002 43.5328 17.0718C43.5461 17.11 43.5694 17.145 43.5794 17.1849C43.61 17.2982 43.6257 17.415 43.626 17.5324V51.7194L56.9422 44.0519V26.5751C56.9422 26.4587 56.9589 26.3406 56.9888 26.2292C57.0004 26.1893 57.022 26.1544 57.0354 26.1162C57.062 26.0463 57.0852 25.9748 57.1218 25.91C57.1468 25.8667 57.1833 25.8318 57.2116 25.7919C57.2515 25.7387 57.2848 25.6838 57.3313 25.6372C57.3696 25.599 57.4178 25.5707 57.461 25.5375C57.5109 25.4976 57.5542 25.4543 57.6074 25.4227L73.5909 16.2221C73.7932 16.1055 74.0226 16.0441 74.256 16.0441C74.4895 16.0441 74.7189 16.1055 74.9212 16.2221L90.9014 25.4227C90.9579 25.456 91.0012 25.4976 91.051 25.5358C91.0926 25.5691 91.1408 25.599 91.1791 25.6356C91.2256 25.6838 91.2589 25.7387 91.2988 25.7919C91.3287 25.8318 91.3653 25.8667 91.3886 25.91C91.4268 25.9748 91.4485 26.0463 91.4751 26.1162C91.49 26.1544 91.5117 26.1893 91.5216 26.2292ZM88.9043 44.0519V28.8798L83.312 32.0992L75.5863 36.5473V51.7194L88.9059 44.0519H88.9043ZM72.9241 71.4976V56.3155L65.3248 60.6556L43.6243 73.0407V88.3657L72.9241 71.4976ZM11.6639 19.8355V71.4976L40.9604 88.3641V73.0424L25.6553 64.3805L25.6503 64.3772L25.6437 64.3738C25.5921 64.3439 25.5489 64.3007 25.5007 64.2641C25.4591 64.2308 25.4109 64.2042 25.3743 64.1676L25.371 64.1626C25.3277 64.1211 25.2978 64.0695 25.2612 64.023C25.228 63.9781 25.188 63.9398 25.1614 63.8933L25.1598 63.8883C25.1298 63.8384 25.1116 63.7785 25.0899 63.722C25.0683 63.6721 25.0401 63.6255 25.0267 63.5723C25.0101 63.5091 25.0068 63.441 25.0001 63.3761C24.9935 63.3262 24.9802 63.2763 24.9802 63.2264V63.2231V27.503L17.2562 23.0531L11.6639 19.8355ZM26.3138 9.86824L12.9992 17.5324L26.3105 25.1966L39.6234 17.5307L26.3105 9.86824H26.3138ZM33.238 57.6991L40.962 53.2525V19.8355L35.3698 23.0548L27.6441 27.503V60.92L33.238 57.6991ZM74.256 18.9126L60.9431 26.5768L74.256 34.2409L87.5673 26.5751L74.256 18.9126ZM72.9241 36.5473L65.1984 32.0992L59.6062 28.8798V44.0519L67.3302 48.4984L72.9241 51.7194V36.5473ZM42.2907 70.7376L61.8178 59.5897L71.5788 54.0191L58.2759 46.3599L42.9592 55.1781L28.9993 63.2148L42.2907 70.7376Z" fill="#FF2D20"/>
</svg>
