<svg width="100" height="100" viewBox="0 0 100 100" fill="none" xmlns="http://www.w3.org/2000/svg">
<rect width="100" height="100" rx="24" fill="black"/>
<path d="M65.7317 70.6553C67.6427 68.7471 70.736 68.7521 72.6408 70.6664C74.5457 72.5807 74.5407 75.6795 72.6297 77.5876L64.1441 86.0607C56.3155 93.8781 43.5496 93.9914 35.5889 86.324C35.5429 86.28 31.9982 82.8043 20.3045 71.3378C12.525 63.7097 11.75 51.5038 19.0707 43.6655L32.7201 29.0505C39.9858 21.2703 53.3791 20.4199 61.6864 27.138L74.0834 37.1638C76.1828 38.8617 76.5107 41.9429 74.8158 44.046C73.1209 46.1491 70.045 46.4776 67.9456 44.7797L55.5487 34.754C51.2042 31.2406 43.6043 31.7231 39.8555 35.7374L26.2058 50.3527C22.6419 54.1685 23.0322 60.3158 27.1394 64.343C35.7263 72.7631 42.3441 79.252 42.3518 79.2594C46.4905 83.2456 53.1825 83.1861 57.2461 79.1284L65.7317 70.6553Z" fill="#FFA116"/>
<path fill-rule="evenodd" clip-rule="evenodd" d="M45.1179 62.1759C42.4197 62.1759 40.2324 59.9848 40.2324 57.2819C40.2324 54.579 42.4197 52.3879 45.1179 52.3879H81.1484C83.8466 52.3879 86.0339 54.579 86.0339 57.2819C86.0339 59.9848 83.8466 62.1759 81.1484 62.1759H45.1179Z" fill="#B3B3B3"/>
<path fill-rule="evenodd" clip-rule="evenodd" d="M51.8655 8.55053C53.7089 6.57675 56.8005 6.47362 58.7708 8.32019C60.7412 10.1668 60.8441 13.2638 59.0008 15.2376L26.206 50.3528C22.642 54.1684 23.0323 60.3156 27.1391 64.343L42.2843 79.1941C44.2124 81.0849 44.2454 84.1834 42.358 86.1149C40.4705 88.0465 37.3774 88.0795 35.4492 86.1888L20.3041 71.3375C12.525 63.7091 11.75 51.5033 19.071 43.6655L51.8655 8.55053Z" fill="white"/>
</svg>
