<svg width="100" height="100" viewBox="0 0 100 100" fill="none" xmlns="http://www.w3.org/2000/svg">
<rect width="100" height="100" rx="24" fill="#167C80"/>
<path d="M83.6594 50.4302C81.2248 50.4199 78.9004 51.448 77.2739 53.2636L76.7856 53.071C73.4915 51.7747 70.0941 50.7569 66.6315 50.0279C66.6315 40.6234 59.0081 33 49.6036 33C40.199 33 32.5757 40.6234 32.5757 50.0279H32.108C28.7692 50.7466 25.4956 51.7369 22.3184 52.9851L21.8301 53.1776C18.9554 50.0004 14.1655 49.4537 10.6478 51.9019C7.13011 54.3502 5.98506 59.0336 7.96913 62.8298C9.9532 66.6294 14.4509 68.359 18.4706 66.8735C22.4903 65.3846 24.777 61.1414 23.8073 56.967C26.7713 55.8047 29.8248 54.8866 32.9402 54.2195C34.7557 61.9013 41.6157 67.3274 49.5073 67.3274C57.4023 67.3274 64.2623 61.9013 66.0779 54.2195C69.1898 54.8797 72.2432 55.791 75.2107 56.9463C74.3614 60.4571 75.8228 64.1192 78.8522 66.0861C81.8816 68.053 85.8222 67.8914 88.6831 65.6872C91.544 63.4831 92.7029 59.711 91.5715 56.2827C90.4437 52.851 87.2699 50.5059 83.6594 50.4302ZM15.5512 63.2011C13.1992 63.2011 11.2942 61.2962 11.2942 58.9442C11.2942 56.5956 13.1992 54.6872 15.5512 54.6872C17.8998 54.6872 19.8082 56.5956 19.8082 58.9442C19.8082 61.2962 17.8998 63.2011 15.5512 63.2011ZM49.6036 63.2011C42.551 63.2011 36.8326 57.4862 36.8326 50.4302C36.8326 43.3777 42.551 37.6627 49.6036 37.6627C56.6561 37.6627 62.3745 43.3777 62.3745 50.4302C62.3745 57.4862 56.6561 63.2011 49.6036 63.2011ZM83.6594 63.2011C81.3074 63.2011 79.4024 61.2962 79.4024 58.9442C79.4024 56.5956 81.3074 54.6872 83.6594 54.6872C86.0114 54.6872 87.9163 56.5956 87.9163 58.9442C87.9163 61.2962 86.0114 63.2011 83.6594 63.2011ZM55.989 50.4302C55.989 53.9582 53.1316 56.8157 49.6036 56.8157C46.079 56.8157 43.2181 53.9582 43.2181 50.4302C43.2181 46.9057 46.079 44.0482 49.6036 44.0482C53.1316 44.0482 55.989 46.9057 55.989 50.4302Z" fill="white"/>
</svg>
