<svg width="100" height="100" viewBox="0 0 100 100" fill="none" xmlns="http://www.w3.org/2000/svg">
<rect width="100" height="100" rx="24" fill="#527D97"/>
<path fill-rule="evenodd" clip-rule="evenodd" d="M9.29446 29.0007C8.14222 29.0019 7 30.3036 7 31.2926V69.5788C7 70.7216 8.14222 71.8656 9.2957 71.8643H19.4826V69.261H10.3709C9.98982 69.259 9.60335 68.8757 9.60335 68.4969V32.3715C9.60335 31.9912 9.98982 31.6022 10.3724 31.6035H88.6291C89.0181 31.6022 89.3969 31.9912 89.3981 32.3713V68.4967C89.3968 68.8755 89.0181 69.2594 88.6291 69.2606H23.1548V71.864H89.703C90.6996 71.8653 91.9988 70.7212 92 69.5784V31.2909C92 30.303 90.7048 29.0013 89.7091 29L9.29446 29.0007Z" fill="white"/>
<path d="M19.5807 61.478V40.0844H22.8935V50.692L31.6925 40.0844H35.7518L27.7932 49.2686L35.8976 61.478H32.1247L25.2588 51.4535L22.8935 54.0635V61.478L19.5807 61.478Z" fill="white"/>
<path d="M48.253 43.0067L45.246 52.4324L51.4702 52.4322L48.253 43.0067ZM46.2431 40.0844H50.2778L58.3588 61.478H54.3447L52.3354 55.7843H43.9504L41.9411 61.478H38.1472L46.2431 40.0844Z" fill="white"/>
<path d="M60.8269 40.0844H63.955V58.6467H73.2232V61.2697H60.827L60.8269 40.0844Z" fill="white"/>
<path d="M76.0474 40.0844H79.1847V61.2697H76.0474V40.0844Z" fill="white"/>
</svg>
