<svg width="100" height="100" viewBox="0 0 100 100" fill="none" xmlns="http://www.w3.org/2000/svg">
<rect width="100" height="100" rx="24" fill="white"/>
<path d="M49.5226 8C26.0524 8 7.04943 26.6542 7.00791 49.6844H7V81.9524H7.00791C7.01882 87.1754 11.3383 91.4061 16.6651 91.4061H49.5268C73.0012 91.3912 92 72.7395 92 49.7217C92 26.6915 72.9763 8.03737 49.4853 8.03737L49.5226 8Z" fill="#51A2DA"/>
<path d="M58.163 25.1521C51.5325 25.1521 45.6755 30.0469 44.8646 36.4698C44.8102 37.0074 44.7945 37.395 44.7914 37.8824L44.7991 64.1426C44.7991 69.18 40.9545 72.6083 36.1508 72.6083C31.3405 72.6083 27.4652 68.8385 27.4652 64.1344C27.5441 58.9704 31.7584 55.6952 36.6741 55.5526H36.7004L41.6908 55.5075V48.574L36.7004 48.611C27.7532 48.5321 20.6514 55.4032 20.392 64.1387C20.392 72.6333 27.5083 79.5584 36.1482 79.5584C44.2983 79.5584 51.0808 73.3141 51.8215 65.5004C51.9283 62.8407 51.8763 59.3307 51.8763 59.3307C51.8912 57.8855 51.8534 58.4045 51.8685 55.5347L58.0589 55.4897C62.8488 55.5229 62.795 48.4465 58.0038 48.5438L51.8672 48.5886C51.8672 45.0263 51.9243 41.4861 51.8672 37.9184C51.8716 34.8327 54.8513 32.106 58.1574 32.106C61.4644 32.106 64.9622 33.725 64.9622 37.9184C64.9622 38.5175 64.95 38.8662 64.9162 39.0882C64.5471 41.0329 65.9016 42.8915 67.8974 43.1721C69.8932 43.4494 71.7259 42.0358 71.9236 40.0686C72.0382 39.291 72.0339 38.6049 72.0339 37.919C72.0339 30.5246 65.2954 25.1644 58.1584 25.1644L58.163 25.1521Z" fill="white"/>
</svg>
