<svg width="100" height="100" viewBox="0 0 100 100" fill="none" xmlns="http://www.w3.org/2000/svg">
<g clip-path="url(#clip0_292_406)">
<rect width="100" height="100" rx="24" fill="#345D9D"/>
<g clip-path="url(#clip1_292_406)">
<path d="M50 94.5884C74.6255 94.5884 94.5884 74.6255 94.5884 50C94.5884 25.3745 74.6255 5.41162 50 5.41162C25.3745 5.41162 5.41162 25.3745 5.41162 50C5.41162 74.6255 25.3745 94.5884 50 94.5884Z" fill="white"/>
<path d="M50 0C40.111 0 30.444 2.93245 22.2215 8.42652C13.9991 13.9206 7.59043 21.7295 3.80605 30.8658C0.0216641 40.0021 -0.968503 50.0555 0.960759 59.7545C2.89002 69.4536 7.65206 78.3627 14.6447 85.3553C21.6373 92.348 30.5465 97.11 40.2455 99.0393C49.9446 100.969 59.9979 99.9784 69.1342 96.194C78.2705 92.4096 86.0794 86.001 91.5735 77.7785C97.0676 69.5561 100 59.8891 100 50C100.019 43.453 98.7485 36.9663 96.2607 30.9103C93.7729 24.8544 90.1167 19.3477 85.5007 14.7048C80.8847 10.0618 75.3995 6.37355 69.3581 3.8505C63.3168 1.32745 56.8376 0.0190505 50.2906 0H50ZM50.8475 51.6949L45.6417 69.2494H73.4867C73.6712 69.2429 73.8551 69.2729 74.0279 69.3375C74.2008 69.4022 74.3592 69.5003 74.4942 69.6262C74.6291 69.7522 74.7379 69.9035 74.8143 70.0714C74.8907 70.2395 74.9332 70.4209 74.9395 70.6053V71.0654L72.5182 79.4189C72.4114 79.8139 72.1735 80.1609 71.8435 80.4029C71.5135 80.6449 71.1111 80.7675 70.7022 80.7506H28.0872L35.23 56.4165L27.2397 58.8378L29.0557 53.2688L37.046 50.8475L47.0945 16.707C47.2051 16.3142 47.4439 15.9697 47.773 15.7283C48.1021 15.487 48.5025 15.3627 48.9104 15.3753H59.6853C59.8697 15.3688 60.0536 15.3988 60.2265 15.4634C60.3994 15.5281 60.5578 15.6262 60.6927 15.7521C60.8276 15.8781 60.9364 16.0294 61.0128 16.1974C61.0892 16.3654 61.1318 16.5468 61.138 16.7312V17.1913L52.6635 46.0048L60.6538 43.5835L58.9589 49.3947L50.8475 51.6949Z" fill="#345D9D"/>
</g>
</g>
<defs>
<clipPath id="clip0_292_406">
<rect width="100" height="100" rx="24" fill="white"/>
</clipPath>
<clipPath id="clip1_292_406">
<rect width="100" height="100" fill="white"/>
</clipPath>
</defs>
</svg>
