<svg width="100" height="100" viewBox="0 0 100 100" fill="none" xmlns="http://www.w3.org/2000/svg">
<rect width="100" height="100" rx="24" fill="white"/>
<path d="M66.1694 10.3528C67.3028 10.825 68.4361 11.3917 69.5222 11.9583L69.05 12.8083C67.9639 12.2417 66.8778 11.7222 65.7917 11.25L66.1694 10.3528ZM59.0861 8.08611C60.3139 8.36944 61.4944 8.7 62.675 9.07778L62.3917 10.0222C61.2583 9.64445 60.0778 9.31389 58.8972 9.07778L59.0861 8.08611ZM51.7667 7.04722C52.9944 7.09444 54.2222 7.23611 55.45 7.425L55.3083 8.36945C54.1278 8.18056 52.9 8.08611 51.6722 8.03889L51.7667 7.04722ZM44.3528 7.28333C45.5806 7.14167 46.8083 7.04722 48.0361 7L48.0833 7.99167C46.8556 8.03889 45.675 8.13333 44.4472 8.275L44.3528 7.28333ZM37.0806 8.84167C38.2611 8.46389 39.4417 8.18056 40.6694 7.89722L40.8583 8.84167C39.6778 9.07778 38.4972 9.40833 37.3639 9.73889L37.0806 8.84167ZM30.2333 11.5806C31.3194 11.0139 32.4528 10.4944 33.6333 10.0694L34.0111 10.9667C32.8778 11.4389 31.7917 11.9111 30.7056 12.4778L30.2333 11.5806ZM23.9056 15.5C24.8972 14.7444 25.9361 14.0361 26.975 13.375L27.4944 14.225C26.4556 14.8389 25.4639 15.5472 24.5194 16.3028L23.9056 15.5ZM18.4278 20.5056C19.2778 19.6083 20.175 18.7111 21.0722 17.8611L21.7333 18.5694C20.8361 19.3722 19.9861 20.2222 19.1361 21.1194L18.4278 20.5056ZM13.8472 26.3139C14.5083 25.275 15.2167 24.2833 16.0194 23.2917L16.775 23.9056C16.0194 24.85 15.3111 25.8417 14.65 26.8333L13.8472 26.3139ZM10.3528 32.8778C10.825 31.7444 11.3917 30.6111 11.9583 29.525L12.8083 29.9972C12.2417 31.0833 11.7222 32.1694 11.25 33.2556L10.3528 32.8778ZM8.08611 39.9139C8.36945 38.7333 8.7 37.5056 9.07778 36.325L10.0222 36.6083C9.64445 37.7417 9.31389 38.9222 9.07778 40.1028L8.08611 39.9139ZM7.04722 47.2333C7.09444 46.0056 7.23611 44.7778 7.425 43.55L8.41667 43.6917C8.22778 44.8722 8.13333 46.1 8.08611 47.3278L7.04722 47.2333ZM7.28333 54.6472C7.14167 53.4194 7.04722 52.1917 7 50.9639L7.99167 50.9167C8.03889 52.1444 8.13333 53.325 8.275 54.5528L7.28333 54.6472ZM8.84167 61.9194C8.46389 60.7389 8.18056 59.5583 7.89722 58.3306L8.84167 58.1417C9.07778 59.3222 9.40833 60.5028 9.73889 61.6361L8.84167 61.9194ZM11.5806 68.8139C11.0139 67.7278 10.4944 66.5944 10.0694 65.4139L10.9667 65.0361C11.4389 66.1694 11.9111 67.2556 12.4778 68.3417L11.5806 68.8139ZM15.5472 75.0944C14.7917 74.1028 14.0833 73.0639 13.4694 72.025L14.3194 71.5056C14.9333 72.5444 15.6417 73.5361 16.35 74.4806L15.5472 75.0944ZM20.5056 80.5722C19.6083 79.7222 18.7111 78.825 17.9083 77.9278L18.6167 77.2667C19.4194 78.1639 20.2694 79.0139 21.1667 79.8639L20.5056 80.5722ZM26.3139 85.1528C25.275 84.4917 24.2833 83.7833 23.2917 82.9806L23.9056 82.225C24.85 82.9806 25.8417 83.6889 26.8333 84.35L26.3139 85.1528ZM32.8778 88.6472C31.7444 88.175 30.6111 87.6083 29.525 87.0417L29.9972 86.1917C31.0833 86.7583 32.1694 87.2778 33.2556 87.75L32.8778 88.6472ZM39.9139 90.9139C38.6861 90.6306 37.5056 90.3 36.325 89.9222L36.6083 88.9778C37.7417 89.3556 38.9222 89.6861 40.1028 89.9222L39.9139 90.9139ZM47.2806 91.9528C46.0528 91.9055 44.825 91.7639 43.5972 91.575L43.7389 90.5833C44.9194 90.7722 46.1472 90.8667 47.3278 90.9139L47.2806 91.9528ZM54.6944 91.7167C53.4667 91.8583 52.2389 91.9528 51.0111 92L50.9639 91.0083C52.1917 90.9611 53.3722 90.8667 54.5528 90.725L54.6944 91.7167ZM61.9194 90.1583C60.7389 90.5361 59.5583 90.8194 58.3306 91.1028L58.1417 90.1583C59.3222 89.9222 60.5028 89.5917 61.6361 89.2611L61.9194 90.1583ZM68.8139 87.4194C67.7278 87.9861 66.5944 88.5056 65.4611 88.9778L65.0833 88.0806C66.2167 87.6083 67.3028 87.1361 68.3889 86.5694L68.8139 87.4194ZM75.0944 83.4528C74.1028 84.2083 73.0639 84.9167 72.025 85.5306L71.5056 84.6805C72.5444 84.0667 73.5361 83.3583 74.4806 82.65L75.0944 83.4528ZM80.5722 78.4944C79.7222 79.3917 78.825 80.2889 77.9278 81.0917L77.2667 80.3833C78.1639 79.5806 79.0139 78.7306 79.8639 77.8333L80.5722 78.4944ZM85.1528 72.6861C84.4917 73.725 83.7361 74.7167 82.9806 75.7083L82.225 75.0944C82.9806 74.15 83.6889 73.1583 84.35 72.1667L85.1528 72.6861ZM88.6472 66.1222C88.175 67.2556 87.6556 68.3889 87.0417 69.475L86.1917 69.0028C86.7583 67.9167 87.2778 66.8306 87.75 65.7444L88.6472 66.1222ZM90.9611 59.0861C90.6778 60.3139 90.3472 61.4944 89.9694 62.675L89.025 62.3917C89.4028 61.2583 89.7333 60.0778 89.9694 58.8972L90.9611 59.0861ZM91.9528 51.7194C91.9055 52.9472 91.7639 54.175 91.575 55.4028L90.5833 55.2611C90.7722 54.0806 90.8667 52.8528 90.9139 51.6722L91.9528 51.7194ZM91.7167 44.3056C91.8583 45.5333 91.9528 46.7611 92 47.9889L91.0083 48.0361C90.9611 46.8083 90.8667 45.6278 90.725 44.4L91.7167 44.3056ZM90.1583 37.0333C90.5361 38.2139 90.8194 39.3944 91.1028 40.6222L90.1583 40.8111C89.9222 39.6306 89.5917 38.45 89.2611 37.3167L90.1583 37.0333ZM87.3722 30.1861C87.9389 31.2722 88.4583 32.4056 88.8833 33.5389L87.9861 33.9167C87.5139 32.7833 87.0417 31.6972 86.475 30.6111L87.3722 30.1861Z" fill="#808080"/>
<path d="M82.0362 49.5C82.0362 50.0194 82.0362 50.5389 81.989 51.1055C81.9417 51.625 81.9417 52.1444 81.8945 52.7111C81.8473 53.2777 81.8001 53.75 81.7056 54.3166C81.6112 54.8361 81.5167 55.3555 81.4223 55.875C81.3279 56.3944 81.1862 56.9139 81.0917 57.4333C80.9501 57.9527 80.8084 58.4722 80.6667 58.9916C80.5251 59.5111 80.3362 59.9833 80.1473 60.5027C79.9584 61.0222 79.7695 61.4944 79.5806 62.0139C79.3917 62.5333 79.1556 63.0055 78.9195 63.4777C78.6834 63.95 78.4473 64.4222 78.2112 64.8944C77.9751 65.3666 77.6917 65.8389 77.4084 66.2639C77.1251 66.6889 76.8417 67.1611 76.5584 67.6333C76.2751 68.1055 75.9917 68.5305 75.6612 68.9555C75.3306 69.3805 75.0001 69.8055 74.6695 70.2305C74.339 70.6555 74.0084 71.0333 73.6306 71.4583C73.2529 71.8833 72.9223 72.2139 72.5445 72.5916C72.1667 72.9694 71.789 73.3472 71.4112 73.6777C71.0334 74.0083 70.6084 74.3861 70.1834 74.7166C69.7584 75.0472 69.3334 75.3777 68.9084 75.7083C68.4834 76.0389 68.0584 76.3222 67.5862 76.6055C67.114 76.8889 66.689 77.1722 66.2167 77.4555C65.7445 77.7389 65.2723 77.975 64.8473 78.2583C64.4223 78.5416 63.9029 78.7305 63.4306 78.9666C62.9584 79.2027 62.4862 79.3916 61.9667 79.6277C61.4473 79.8639 60.9751 80.0055 60.5029 80.1944C59.9834 80.3833 59.5112 80.525 58.9917 80.7139C58.4723 80.9027 57.9529 80.9972 57.4334 81.1389C56.914 81.2805 56.3945 81.375 55.8751 81.4694C55.3556 81.5639 54.8362 81.6583 54.3167 81.7527C53.7973 81.8472 53.2779 81.8944 52.7112 81.9416C52.1445 81.9889 51.6723 82.0361 51.1056 82.0361C50.5862 82.0833 50.0667 82.0833 49.5001 82.0833C48.9334 82.0833 48.4612 82.0833 47.8945 82.0361C47.3751 81.9889 46.8556 81.9889 46.289 81.9416C45.7223 81.8944 45.2501 81.8472 44.6834 81.7527C44.164 81.6583 43.6445 81.5639 43.1251 81.4694C42.6056 81.375 42.0862 81.2333 41.5667 81.1389C41.0473 80.9972 40.5279 80.8555 40.0084 80.7139C39.489 80.5722 38.9695 80.3833 38.4973 80.1944C38.0251 80.0055 37.5056 79.8166 37.0334 79.6277C36.5612 79.4389 36.0417 79.2027 35.5695 78.9666C35.0973 78.7305 34.6251 78.4944 34.1529 78.2583C33.6806 78.0222 33.2084 77.7389 32.7834 77.4555C32.3584 77.1722 31.8862 76.8889 31.414 76.6055C30.989 76.3222 30.5167 76.0389 30.0917 75.7083C29.6667 75.3777 29.2417 75.0472 28.8167 74.7166C28.3917 74.3861 28.014 74.0555 27.589 73.6777C27.164 73.3 26.8334 72.9694 26.4556 72.5916C26.0779 72.2139 25.7001 71.8361 25.3695 71.4583C25.039 71.0805 24.6612 70.6555 24.3306 70.2305C24.0001 69.8055 23.6695 69.3805 23.339 68.9555C23.0084 68.5305 22.7251 68.1055 22.3945 67.6333C22.064 67.1611 21.8279 66.7361 21.5445 66.2639C21.2612 65.7916 21.0251 65.3194 20.7417 64.8944C20.4584 64.4694 20.2695 63.95 20.0334 63.4777C19.7973 63.0055 19.6084 62.5333 19.3723 62.0139C19.1362 61.4944 18.9945 61.0222 18.8056 60.5027C18.6167 59.9833 18.4751 59.5111 18.2862 58.9916C18.0973 58.4722 18.0029 57.9527 17.8612 57.4333C17.7195 56.9139 17.6251 56.3944 17.5306 55.875C17.4362 55.3555 17.3417 54.8361 17.2473 54.3166C17.1529 53.7972 17.1056 53.2777 17.0584 52.7583C17.0112 52.2389 16.964 51.7194 16.964 51.1527C16.9167 50.6333 16.9167 50.1139 16.9167 49.5472C16.9167 49.0277 16.9167 48.5083 16.964 47.9416C17.0112 47.375 17.0112 46.9027 17.0584 46.3361C17.1056 45.7694 17.1529 45.2972 17.2473 44.7777C17.3417 44.2583 17.4362 43.7389 17.5306 43.2194C17.6251 42.7 17.7667 42.1805 17.8612 41.6611C18.0029 41.1416 18.1445 40.6222 18.2862 40.1027C18.4279 39.5833 18.6167 39.0639 18.8056 38.5916C18.9945 38.1194 19.1834 37.6 19.3723 37.0805C19.5612 36.5611 19.7973 36.0889 20.0334 35.6166C20.2695 35.1444 20.5056 34.6722 20.7417 34.2C20.9779 33.7277 21.2612 33.2555 21.5445 32.8305C21.8279 32.4055 22.1112 31.9333 22.3945 31.5083C22.6779 31.0833 23.0084 30.6111 23.339 30.1861C23.6695 29.7611 24.0001 29.3361 24.3306 28.9111C24.6612 28.4861 24.9917 28.1083 25.3695 27.6833C25.7473 27.2583 26.0779 26.8805 26.4556 26.55C26.8334 26.1722 27.2112 25.7944 27.589 25.4639C27.9668 25.1333 28.3917 24.7555 28.8167 24.425C29.2417 24.0944 29.6667 23.7639 30.0917 23.4333C30.5167 23.1027 30.9417 22.8194 31.414 22.4889C31.8862 22.1583 32.3112 21.9222 32.7834 21.6389C33.2556 21.3555 33.7279 21.1194 34.1529 20.8361C34.5779 20.5527 35.0973 20.3639 35.5695 20.1277C36.0417 19.8916 36.514 19.7027 37.0334 19.4666C37.5529 19.2305 38.0251 19.0889 38.4973 18.9C38.9695 18.7111 39.489 18.5694 40.0084 18.3805C40.5279 18.2389 41.0473 18.0972 41.5667 17.9555C42.0862 17.8139 42.6056 17.7194 43.1251 17.625C43.6445 17.5305 44.164 17.4361 44.6834 17.3416C45.2029 17.2472 45.7223 17.2 46.289 17.1527C46.8556 17.1055 47.3279 17.0583 47.8945 17.0583C48.414 17.0111 48.9334 17.0111 49.5001 17.0111C50.0195 17.0111 50.539 17.0111 51.1056 17.0583C51.6251 17.1055 52.1445 17.1055 52.7112 17.1527C53.2306 17.2 53.7501 17.2472 54.2695 17.3416C54.789 17.4361 55.3084 17.5305 55.8279 17.625C56.3473 17.7194 56.8667 17.8611 57.3862 17.9555C57.9056 18.05 58.4251 18.2389 58.9445 18.3805C59.464 18.5222 59.9362 18.7111 60.4556 18.9C60.9751 19.0889 61.4473 19.2777 61.9667 19.4666C62.439 19.6555 62.9584 19.8916 63.4306 20.1277C63.9029 20.3639 64.3751 20.6 64.8473 20.8361C65.3195 21.0722 65.7917 21.3555 66.2167 21.6389C66.6417 21.9222 67.114 22.2055 67.5862 22.4889C68.0584 22.7722 68.4834 23.1027 68.9084 23.4333C69.3334 23.7639 69.7584 24.0944 70.1834 24.425C70.6084 24.7555 70.9862 25.1333 71.4112 25.4639C71.8362 25.7944 72.1667 26.1722 72.5445 26.55C72.9223 26.9277 73.3001 27.3055 73.6306 27.6833C73.9612 28.0611 74.339 28.4861 74.6695 28.9111C75.0001 29.3361 75.3306 29.7611 75.6612 30.1861C75.9917 30.6111 76.2751 31.0361 76.5584 31.5083C76.8417 31.9805 77.1251 32.4055 77.4084 32.8305C77.6917 33.2555 77.9279 33.775 78.2112 34.2C78.4945 34.625 78.6834 35.1444 78.9195 35.6166C79.1556 36.0889 79.3445 36.5611 79.5806 37.0805C79.8167 37.6 79.9584 38.0722 80.1473 38.5916C80.3362 39.1111 80.4779 39.5833 80.6667 40.1027C80.8556 40.6222 80.9501 41.1416 81.0917 41.6611C81.2334 42.1805 81.3279 42.7 81.4223 43.2194C81.5167 43.7389 81.6112 44.2583 81.7056 44.7777C81.8001 45.2972 81.8473 45.8166 81.8945 46.3361C81.9417 46.8555 81.989 47.375 81.989 47.9416C81.989 48.5083 82.0362 48.9805 82.0362 49.5Z" fill="#17067B"/>
<path d="M72.4973 36.0416C72.4973 36.3722 72.4973 36.6555 72.4501 36.9861C72.4029 37.3166 72.3556 37.6 72.3084 37.9305C72.2612 38.2611 72.1668 38.5444 72.0723 38.8278C71.9779 39.1111 71.8834 39.4417 71.7418 39.725C71.6473 40.0083 71.5056 40.2916 71.364 40.575C71.2223 40.8583 71.0334 41.0944 70.8918 41.3778C70.7501 41.6611 70.514 41.8972 70.3251 42.1333C70.1362 42.3694 69.9001 42.6055 69.7112 42.8417C69.5223 43.0778 69.239 43.2666 69.0029 43.4555C68.7668 43.6444 68.5306 43.8333 68.2473 44.0222C67.964 44.2111 67.7279 44.3528 67.4445 44.4944C67.1612 44.6361 66.8779 44.7778 66.5945 44.8722C66.3112 45.0139 66.0279 45.1083 65.6973 45.2028C65.414 45.2972 65.0834 45.3444 64.8001 45.4389C64.5168 45.4861 64.1862 45.5333 63.9029 45.5805C63.6195 45.6278 63.289 45.6278 62.9584 45.6278C62.6279 45.6278 62.3445 45.6278 62.014 45.5805C61.6834 45.5333 61.4001 45.4861 61.0695 45.4389C60.739 45.3916 60.4557 45.2972 60.1723 45.2028C59.889 45.1083 59.5584 45.0139 59.2751 44.8722C58.9918 44.7305 58.7084 44.6361 58.4251 44.4944C58.1418 44.3528 57.9056 44.1639 57.6223 44.0222C57.339 43.8805 57.1029 43.6444 56.8668 43.4555C56.6307 43.2666 56.3945 43.0305 56.1584 42.8417C55.9223 42.6528 55.7334 42.3694 55.5445 42.1333C55.3557 41.8972 55.1668 41.6611 54.9779 41.3778C54.789 41.0944 54.6473 40.8583 54.5057 40.575C54.364 40.2916 54.2223 40.0083 54.1279 39.725C53.9862 39.4417 53.8918 39.1583 53.7973 38.8278C53.7029 38.5444 53.6557 38.2139 53.5612 37.9305C53.514 37.6472 53.4668 37.3166 53.4195 36.9861C53.3723 36.6555 53.3723 36.3722 53.3723 36.0416C53.3723 35.7111 53.3723 35.4278 53.4195 35.0972C53.4668 34.7666 53.514 34.4833 53.5612 34.1528C53.6084 33.8222 53.7029 33.5389 53.7973 33.2555C53.8918 32.9722 53.9862 32.6416 54.1279 32.3583C54.2695 32.075 54.364 31.7916 54.5057 31.5083C54.6473 31.225 54.8362 30.9889 54.9779 30.7055C55.1668 30.4222 55.3557 30.1861 55.5445 29.95C55.7334 29.7139 55.9695 29.4778 56.1584 29.2416C56.3473 29.0055 56.6307 28.8166 56.8668 28.6278C57.1029 28.4389 57.339 28.25 57.6223 28.0611C57.9056 27.8722 58.1418 27.7305 58.4251 27.5889C58.7084 27.4472 58.9918 27.3055 59.2751 27.2111C59.5584 27.0694 59.8418 26.975 60.1723 26.8805C60.4557 26.7861 60.7862 26.7389 61.0695 26.6444C61.3529 26.5972 61.6834 26.55 62.014 26.5028C62.3445 26.4555 62.6279 26.4555 62.9584 26.4555C63.289 26.4555 63.5723 26.4555 63.9029 26.5028C64.2334 26.55 64.5168 26.5972 64.8001 26.6444C65.0834 26.6916 65.414 26.7861 65.6973 26.8805C65.9806 26.975 66.3112 27.0694 66.5945 27.2111C66.8779 27.3528 67.1612 27.4472 67.4445 27.5889C67.7279 27.7305 67.964 27.9194 68.2473 28.0611C68.4834 28.25 68.7668 28.4389 69.0029 28.6278C69.239 28.8166 69.4751 29.0528 69.7112 29.2416C69.9473 29.4305 70.1362 29.7139 70.3251 29.95C70.514 30.1861 70.7029 30.4222 70.8918 30.7055C71.0807 30.9889 71.2223 31.225 71.364 31.5083C71.5056 31.7916 71.6473 32.075 71.7418 32.3583C71.8834 32.6416 71.9779 32.925 72.0723 33.2555C72.1668 33.5389 72.214 33.8694 72.3084 34.1528C72.3556 34.4361 72.4029 34.7666 72.4501 35.0972C72.4973 35.4278 72.4973 35.7111 72.4973 36.0416Z" fill="white"/>
<path d="M91.5279 17.0111C91.5279 17.3416 91.5279 17.625 91.4807 17.9555C91.4335 18.2861 91.3862 18.5694 91.339 18.9C91.2918 19.1833 91.1973 19.5139 91.1029 19.7972C91.0085 20.0805 90.914 20.4111 90.7723 20.6944C90.6307 20.9778 90.5362 21.2611 90.3473 21.5444C90.064 22.1111 89.6862 22.6305 89.3084 23.1027C89.1196 23.3389 88.8835 23.575 88.6946 23.8111C88.4585 24.0472 88.2223 24.2361 87.9862 24.425C87.7501 24.6139 87.514 24.8027 87.2307 24.9916C86.9473 25.1805 86.7112 25.3222 86.4279 25.4639C86.1446 25.6055 85.8612 25.7472 85.5779 25.8416C85.2946 25.9361 85.0112 26.0777 84.6807 26.1722C84.3501 26.2666 84.0668 26.3139 83.7835 26.4083C83.5001 26.4555 83.1696 26.5028 82.839 26.55C82.5085 26.5972 82.2251 26.5972 81.8946 26.5972C81.564 26.5972 81.2807 26.5972 80.9501 26.55C80.6196 26.5028 80.3362 26.4555 80.0057 26.4083C79.6751 26.3611 79.3918 26.2666 79.1085 26.1722C78.8251 26.0777 78.5418 25.9833 78.2112 25.8416C77.9279 25.7 77.6446 25.6055 77.3612 25.4639C77.0779 25.3222 76.8418 25.1333 76.5585 24.9916C76.2751 24.85 76.039 24.6139 75.8029 24.425C75.5668 24.2361 75.3307 24 75.0946 23.8111C74.8585 23.6222 74.6696 23.3389 74.4807 23.1027C74.2918 22.8666 74.1029 22.6305 73.914 22.3472C73.7251 22.1111 73.5835 21.8278 73.4418 21.5444C73.3001 21.2611 73.1585 20.9778 73.0168 20.6944C72.9223 20.4111 72.7807 20.1277 72.6862 19.7972C72.5918 19.5139 72.4973 19.1833 72.4501 18.9C72.4029 18.5694 72.3557 18.2861 72.3085 17.9555C72.2612 17.625 72.2612 17.3416 72.2612 17.0111C72.2612 16.6805 72.2612 16.3972 72.3085 16.0666C72.3557 15.7361 72.4029 15.4528 72.4501 15.1222C72.4973 14.8389 72.5918 14.5083 72.6862 14.225C72.7807 13.9416 72.8751 13.6111 73.0168 13.3278C73.2529 12.7611 73.5362 12.1944 73.914 11.675C74.1029 11.4389 74.2918 11.1555 74.4807 10.9194C74.6696 10.6833 74.9057 10.4472 75.0946 10.2111C75.3307 9.97497 75.5668 9.78608 75.8029 9.5972C76.2751 9.21942 76.7946 8.84164 77.3612 8.55831C77.6446 8.41664 77.9279 8.27497 78.2112 8.13331C78.4946 7.99164 78.7779 7.8972 79.1085 7.80275C79.3918 7.70831 79.7223 7.61386 80.0057 7.56664C81.2335 7.33053 82.5085 7.33053 83.7362 7.56664C84.0196 7.61386 84.3501 7.70831 84.6335 7.80275C84.9168 7.8972 85.2001 7.99164 85.5307 8.13331C85.814 8.27497 86.0973 8.36942 86.3807 8.55831C86.664 8.69997 86.9473 8.84164 87.1834 9.03053C87.4668 9.21942 87.7029 9.40831 87.939 9.5972C88.1751 9.78608 88.4112 10.0222 88.6473 10.2111C88.8835 10.4472 89.0723 10.6833 89.2612 10.9194C89.4501 11.1555 89.639 11.3916 89.8279 11.675C90.0168 11.9111 90.1585 12.1944 90.3001 12.4778C90.4418 12.7611 90.5835 13.0444 90.6779 13.3278C90.7724 13.6111 90.914 13.8944 91.0085 14.225C91.1029 14.5083 91.1973 14.8389 91.2446 15.1222C91.2918 15.4055 91.339 15.7361 91.3862 16.0666C91.4335 16.35 91.5279 16.6805 91.5279 17.0111Z" fill="#17067B"/>
<path d="M68.9084 60.4555C68.9084 62.675 66.6889 64.0444 64.3278 64.0444C62.4389 64.0444 61.3056 63.3833 61.3056 61.6833C61.3056 59.9833 62.3917 59.3694 64.9889 58.9916C67.5862 58.6139 68.1056 58.5194 68.9084 58.1416V60.4555ZM73.1584 65.6972V63.8555C72.9695 63.9027 72.8278 63.9027 72.6389 63.9027C71.7889 63.9027 71.3167 63.4777 71.3167 62.7222V54.175C71.3167 51.4361 69.3334 49.9722 65.5556 49.9722C61.7778 49.9722 59.5584 51.3889 59.4167 54.9305H61.8723C62.0612 53.0416 63.1945 52.1916 65.4612 52.1916C67.6334 52.1916 68.8612 52.9944 68.8612 54.4583V55.1194C68.8612 56.1583 68.2473 56.5833 66.3112 56.8194C62.8639 57.2444 62.3445 57.3861 61.4 57.7639C59.7 58.3305 58.6139 59.9833 58.7084 61.7305C58.7084 64.5166 60.6445 66.1694 63.7612 66.1694C65.7445 66.1694 67.5862 65.3666 68.9556 63.9027C69.2389 65.0833 70.2778 65.9333 71.4584 65.9333C72.025 65.9805 72.5917 65.8861 73.1584 65.6972ZM55.3084 65.7916V50.4444H52.9V58.8972C52.9 62.0139 51.2473 64.0916 48.6973 64.0916C46.7612 64.0916 45.5334 62.9111 45.5334 61.0694V50.4444H43.125V62.0139C43.125 64.5639 45.0139 66.2166 47.9889 66.2166C50.2556 66.2166 51.6723 65.4139 53.0889 63.3833V65.7444L55.3084 65.7916ZM40.6695 65.7444V63.3361H30.1389V44.4H27.4473V65.7444H40.6695Z" fill="white"/>
</svg>
