<svg width="100" height="100" viewBox="0 0 100 100" fill="none" xmlns="http://www.w3.org/2000/svg">
<rect width="100" height="100" rx="24" fill="#EA0B8C"/>
<path fill-rule="evenodd" clip-rule="evenodd" d="M7 21.0499H19.9077V55.691C19.9077 61.1732 22.4154 64.4387 24.3983 65.8386C22.299 67.7047 15.8838 69.3377 11.1016 65.3718C8.28218 63.0342 7 59.1902 7 55.5743V21.0499ZM87.6678 49.8255V46.1851H91.6045V33.4135H87.2814C85.6217 25.7458 78.7952 20 70.6311 20C61.226 20 53.602 27.6244 53.602 37.029V66.8545C56.2815 67.2311 59.4736 66.8077 62.1895 64.5555C65.0085 62.2175 66.2907 58.3739 66.2907 54.758V53.6591H72.7373V40.8876H66.2907V37.029H66.3062C66.3062 34.6407 68.2423 32.7046 70.6311 32.7046C73.0194 32.7046 74.9632 34.6407 74.9632 37.029V49.8255C74.9632 59.2301 82.5953 66.8545 92 66.8545V54.1499C89.6117 54.1499 87.6678 52.2138 87.6678 49.8255ZM38.7818 33.4135V52.1571C38.7818 53.2212 37.899 54.0838 36.8096 54.0838C35.7202 54.0838 34.8374 53.2212 34.8374 52.1571V33.4135H22.0654V55.4579C22.0654 59.4234 23.4103 64.4387 29.5305 66.0717C35.6571 67.7064 39.2112 64.3224 39.2112 64.3224C38.8875 66.5518 36.7877 68.1848 33.4053 68.5347C30.8461 68.7992 27.5733 67.9516 25.9407 67.2517V78.9309C30.1007 80.1577 34.5007 80.554 38.8067 79.7184C46.6213 78.2022 51.5534 71.6706 51.5534 62.9809V33.4135H38.7818Z" fill="white"/>
</svg>
