<svg width="100" height="100" viewBox="0 0 100 100" fill="none" xmlns="http://www.w3.org/2000/svg">
<rect width="100" height="100" rx="24" fill="#007FFF"/>
<path d="M78.6428 63.1722C79.3737 62.7525 79.8255 61.975 79.8281 61.1322L79.8706 47.468C79.8733 46.6252 80.3251 45.8477 81.0559 45.428L88.463 41.1731C89.1936 40.7536 90.0924 40.7551 90.8216 41.1771C91.5508 41.5992 92 42.3778 92 43.2203V68.0622C92 68.9076 91.5478 69.6884 90.8147 70.1094L62.8607 86.1654C62.1342 86.5824 61.2411 86.5833 60.5137 86.1677L38.576 73.6204C37.8404 73.2002 37.3863 72.4181 37.386 71.5709V59.0449C37.386 59.0307 37.4025 59.0213 37.4167 59.0284C37.4285 59.0354 37.445 59.0284 37.445 59.0118V58.9977C37.445 58.9882 37.4497 58.9788 37.4592 58.9741L55.5269 48.5943C55.5434 48.5849 55.5364 48.5589 55.5175 48.5589C55.507 48.5589 55.4986 48.5504 55.4986 48.54L55.534 36.2595C55.5374 35.4143 55.0886 34.6317 54.3575 34.2076C53.6263 33.7836 52.7242 33.7827 51.9922 34.2053L38.5642 41.9429C37.8349 42.3629 36.9371 42.3629 36.2078 41.9429L22.7372 34.1864C22.0069 33.7659 21.1077 33.7665 20.3779 34.1881C19.6481 34.6097 19.1984 35.3884 19.1978 36.2312V58.4263C19.1984 59.2682 18.7507 60.0467 18.0227 60.4696C17.2947 60.8925 16.3966 60.8957 15.6655 60.4781L8.19004 56.2044C7.45294 55.7833 6.99858 54.999 7 54.1502L7.06612 15.356C7.06795 14.5144 7.51768 13.7373 8.24657 13.3164C8.97546 12.8955 9.87328 12.8945 10.6032 13.3136L36.2101 28.0214C36.9383 28.4395 37.8337 28.4395 38.5619 28.0214L64.1617 13.3136C64.8927 12.8938 65.792 12.8956 66.5214 13.3182C67.2507 13.7408 67.6995 14.5202 67.6988 15.3631V54.1667C67.6991 55.0116 67.248 55.7922 66.5158 56.2138L53.1091 63.9349C52.3761 64.3574 51.9252 65.1399 51.9271 65.9859C51.9291 66.832 52.3836 67.6124 53.1185 68.0315L60.5137 72.2415C61.2409 72.6555 62.1329 72.6537 62.8584 72.2368L78.6428 63.1722ZM80.1941 28.3638C80.1948 29.2139 80.6524 29.998 81.3922 30.4167C82.132 30.8355 83.0397 30.8242 83.7689 30.3873L90.8525 26.1372C91.5638 25.711 91.9993 24.9429 92 24.1136V15.4528C91.9985 14.6032 91.5406 13.8199 90.8009 13.4017C90.0613 12.9835 89.154 12.995 88.4252 13.4317L81.3416 17.6818C80.6304 18.108 80.1948 18.8761 80.1941 19.7053V28.3661V28.3638Z" fill="white"/>
</svg>
