<svg width="100" height="100" viewBox="0 0 100 100" fill="none" xmlns="http://www.w3.org/2000/svg">
<rect width="100" height="100" rx="24" fill="#12100E"/>
<path d="M19.4865 30.9562C19.5859 29.9741 19.2114 29.0035 18.4781 28.3425L11.0084 19.3442V18H34.2017L52.1289 57.3166L67.8898 18H90V19.3442L83.6135 25.4675C83.0629 25.8872 82.7897 26.577 82.9038 27.2598V72.2517C82.7897 72.9344 83.0629 73.6242 83.6135 74.0439L89.8506 80.1673V81.5115H58.4781V80.1673L64.9393 73.8946C65.5742 73.2598 65.5742 73.0731 65.5742 72.1023V35.7354L47.6097 81.3621H45.1821L24.267 35.7354V66.315C24.0927 67.6007 24.5196 68.895 25.4248 69.8247L33.8282 80.0179V81.3621H10V80.0179L18.4034 69.8247C19.302 68.8935 19.7041 67.5905 19.4865 66.315V30.9562Z" fill="white"/>
</svg>
