<svg width="100" height="100" viewBox="0 0 100 100" fill="none" xmlns="http://www.w3.org/2000/svg">
<rect width="100" height="100" rx="24" fill="white"/>
<path d="M86.5648 71.598C101.808 46.2532 83.3454 5.14758 49.5879 9.32427C19.0867 13.095 18.595 45.1978 45.4762 52.8245C68.7383 59.4302 50.2819 74.1853 50.8212 84.0107C51.3628 93.8348 71.0443 97.3991 86.5648 71.5977V71.598Z" fill="#1B1A1B"/>
<path d="M33.9588 87.5782C40.9835 85.7307 45.1876 78.5121 43.3486 71.4547C41.5095 64.3977 34.3242 60.1743 27.2991 62.0217C20.2741 63.869 16.0704 71.0877 17.9094 78.1451C19.7484 85.2021 26.9338 89.4255 33.9588 87.5782Z" fill="#1B1A1B"/>
<path d="M14.7747 38.2642C10.045 38.7241 6.58267 42.9449 7.04068 47.6966C7.49938 52.4516 11.7007 55.9323 16.4314 55.4723C21.1604 55.0063 24.6258 50.7866 24.1658 46.0346C23.7061 41.2862 19.5054 37.8042 14.7747 38.2642Z" fill="#1B1A1B"/>
<path d="M86.6282 70.4614C101.776 45.1606 83.4301 4.12765 49.8846 8.29434C19.5768 12.0584 19.0878 44.1079 45.7986 51.7213C68.9134 58.3156 50.574 73.0447 51.11 82.8541C51.6487 92.6602 71.2044 96.2175 86.6268 70.4607L86.6282 70.4614Z" fill="#BFBFBF"/>
<path d="M54.998 86.7249C54.0801 85.2292 55.4838 83.5676 56.9266 83.694C59.2233 83.896 64.224 83.6669 68.1697 81.4201C78.0274 75.806 93.1978 48.7932 85.5678 31.7564C82.1521 24.1297 80.4888 21.946 76.9711 18.2153C76.2535 17.4545 76.6654 17.4958 77.1514 17.7534C79.0536 18.7563 82.3964 22.6411 85.8251 28.9641C91.6185 39.6472 91.3178 52.3469 89.1631 60.3136C87.6623 65.8557 82.4927 78.3934 74.9223 83.8141C67.3346 89.2475 58.4563 92.3638 54.9979 86.7253L54.998 86.7249Z" fill="black"/>
<path d="M48.1312 51.6713C42.9665 50.1312 36.3088 47.9863 32.4578 42.926C29.6189 39.1949 28.1778 35.1226 27.8098 32.8136C27.6788 31.9897 27.5676 31.3023 27.8039 31.1126C27.9132 31.0245 29.9238 35.5899 32.9296 39.4163C35.9347 43.2437 40.1349 45.482 43.634 46.2953C46.7462 47.0181 53.193 48.6064 55.374 50.473C57.6164 52.3919 57.8036 56.5377 57.049 57.0057C56.288 57.476 54.745 53.6427 48.1312 51.6713Z" fill="black"/>
<path d="M58.778 87.4581C58.6783 88.6456 60.036 88.8784 61.8636 88.6033C64.2062 88.2503 66.1873 87.9853 68.8833 86.6278C72.5377 84.7881 76.2357 82.1565 78.9444 78.6058C87.0255 68.014 89.8871 55.482 89.4465 53.679C89.2992 55.1678 87.3484 62.9827 82.8868 70.0281C77.1567 79.0778 73.0014 83.8978 63.4183 86.2348C60.7514 86.8857 58.9086 85.8948 58.778 87.4581Z" fill="white"/>
<path d="M37.5245 46.2711C38.616 47.2012 40.8523 48.4405 45.2525 49.8902C50.5672 51.6406 53.1546 53.1587 54.2383 53.8862C55.3866 54.6587 56.1144 56.3824 56.1863 54.8514C56.2613 53.3187 55.3209 52.0008 53.2227 51.3017C51.8032 50.8282 49.415 49.7006 47.126 49.2467C45.6551 48.955 43.262 48.3761 41.2096 47.7448C40.0849 47.3975 38.939 46.7894 37.5245 46.2711Z" fill="white"/>
<path d="M33.9554 86.5515C40.9525 84.7041 45.1395 77.4855 43.3078 70.4281C41.4761 63.3711 34.3191 59.1477 27.3221 60.9951C20.325 62.8425 16.138 70.0611 17.9697 77.1185C19.8014 84.1755 26.9584 88.3989 33.9554 86.5515Z" fill="#BFBFBF"/>
<path d="M22.8424 83.3981C33.0288 92.9185 48.3616 79.8411 41.6099 68.2904C40.8517 66.9935 39.8674 66.0062 40.1911 66.9997C42.3488 73.6414 40.3549 78.8954 36.6347 81.6024C32.9871 84.2574 27.9734 84.7016 23.9597 82.6027C22.781 81.9865 22.2919 82.8844 22.8424 83.3981Z" fill="black"/>
<path d="M30.8351 85.3549C32.1321 85.0797 39.6752 83.1093 41.4472 76.8518C41.9991 74.9008 42.0982 75.2927 41.9422 76.3499C41.1462 81.7456 36.0895 85.726 31.7865 85.8733C30.9133 85.9639 29.7677 85.58 30.8351 85.3549Z" fill="white"/>
<path d="M14.8474 37.2374C10.1364 37.6974 6.688 41.9181 7.144 46.6698C7.60067 51.4239 11.7854 54.9055 16.4964 54.4455C21.2074 53.9794 24.6588 49.7588 24.2001 45.0068C23.7431 40.2581 19.5594 36.7774 14.8474 37.2374Z" fill="#BFBFBF"/>
<path d="M10.9594 52.4146C11.0116 53.0253 11.8409 53.8099 13.1438 54.1701C14.263 54.4796 17.1484 55.2706 20.8551 52.9109C24.5618 50.5512 24.9892 44.2395 23.3043 42.3832C22.7827 41.4429 22.1044 40.7583 22.6441 42.259C24.007 46.0483 21.3586 49.5927 19.0744 51.234C16.7909 52.8751 13.895 52.0985 12.7123 51.7348C11.5298 51.3712 10.9063 51.7837 10.9594 52.4146Z" fill="black"/>
<path d="M15.7428 53.2614C16.0825 52.9529 17.8023 53.079 19.3551 52.2367C20.9071 51.3946 22.7518 49.5487 23.0811 46.9257C23.2751 45.3854 23.3333 45.7722 23.4105 46.611C23.1696 50.9717 19.1938 53.3804 16.9198 53.6981C16.3062 53.7839 15.2263 53.7317 15.7428 53.2614Z" fill="white"/>
<path d="M83.7582 54.0246C90.1819 35.3502 76.7398 7.14769 49.5446 10.541C24.9735 13.6052 24.5772 39.6896 46.2318 45.8879C70.7603 49.6329 55.9902 68.2957 53.8949 77.7068C52.0165 86.1432 73.7173 87.5315 83.7564 54.0253L83.7582 54.0246Z" fill="#999999"/>
<path d="M66.9514 68.6113C60.3063 67.7819 50.744 82.9137 59.7603 81.1414C50.744 82.9135 68.7754 79.3705 59.7603 81.1414C64.094 80.4932 67.6841 78.9499 70.8981 75.25C75.0888 70.4266 81.3488 60.0079 83.1592 53.2759C84.6843 47.5998 83.9177 38.8061 82.3455 47.0685C80.733 55.5479 73.5964 69.4406 66.9514 68.6113Z" fill="#F3F3F3"/>
<path d="M22.3144 80.7149C23.8528 80.741 24.7834 80.9594 26.3411 82.0619C29.4206 83.3526 35.0812 82.5348 37.6952 79.064C40.3091 75.5933 40.3949 70.8113 39.399 67.9216C36.9627 60.8496 26.6126 60.9746 21.9886 66.8459C16.9865 73.4026 20.776 80.6889 22.3144 80.7149Z" fill="#999999"/>
<path d="M8.57537 47.9445C8.88201 48.9184 9.66555 50.3395 11.3201 50.5764C13.5295 50.8928 13.9812 51.8996 16.5901 51.3773C19.1991 50.855 21.1765 48.6985 21.9678 46.3133C22.8738 43.0127 21.5173 41.3086 19.4757 39.7872C17.4341 38.2659 12.943 38.4295 10.263 40.8937C8.35824 42.6439 7.82884 45.5735 8.57537 47.9445Z" fill="#999999"/>
<path d="M17.2521 50.1247C19.2567 49.5954 21.9081 46.8402 20.5918 44.7366C18.9679 42.1448 14.4437 44.3633 14.2907 47.2489C14.1371 50.1356 15.1274 50.6857 17.2521 50.1247Z" fill="#F3F3F3"/>
<path d="M32.3045 81.2216C34.0149 80.7699 39.2549 78.6193 38.2706 70.9362C37.7725 67.0445 35.6678 75.7662 31.7705 77.0709C25.8662 79.0471 26.5298 82.7466 32.3045 81.2216Z" fill="#F3F3F3"/>
</svg>
