<svg width="100" height="100" viewBox="0 0 100 100" fill="none" xmlns="http://www.w3.org/2000/svg">
<rect width="100" height="100" rx="24" fill="white"/>
<path d="M90.0297 10L53.5569 36.9873L60.3393 21.0828L90.0297 10Z" fill="#E17726"/>
<path d="M9.05542 10.0317L38.6663 21.0847L45.1065 37.1977L9.05542 10.0317Z" fill="#E27625"/>
<path d="M75.3521 67.3942L91.4724 67.701L85.8386 86.84L66.1682 81.4241L75.3521 67.3942Z" fill="#E27625"/>
<path d="M23.6477 67.3942L32.7976 81.4242L13.1601 86.8404L7.56055 67.701L23.6477 67.3942Z" fill="#E27625"/>
<path d="M44.2308 33.0934L44.8898 54.3711L25.1768 53.4742L30.784 45.0149L30.8549 44.9333L44.2308 33.0934Z" fill="#E27625"/>
<path d="M54.5649 32.856L68.1449 44.9341L68.2151 45.0151L73.8225 53.4744L54.114 54.3711L54.5649 32.856Z" fill="#E27625"/>
<path d="M33.3747 67.456L44.1386 75.8427L31.635 81.8796L33.3747 67.456Z" fill="#E27625"/>
<path d="M65.627 67.4547L67.3306 81.8797L54.8621 75.8422L65.627 67.4547Z" fill="#E27625"/>
<path d="M55.1372 75.0521L67.7899 81.1787L56.0204 86.7724L56.1426 83.0753L55.1372 75.0521Z" fill="#D5BFB2"/>
<path d="M43.8592 75.0549L42.8932 83.0149L42.9725 86.768L31.1753 81.1788L43.8592 75.0549Z" fill="#D5BFB2"/>
<path d="M40.2056 57.148L43.5119 64.0967L32.2549 60.7992L40.2056 57.148Z" fill="#233447"/>
<path d="M58.7941 57.1487L66.7821 60.799L55.4885 64.0957L58.7941 57.1487Z" fill="#233447"/>
<path d="M34.2352 67.3851L32.4155 82.3396L22.6628 67.712L34.2352 67.3851Z" fill="#CC6228"/>
<path d="M64.7654 67.3851L76.3381 67.712L66.5487 82.3402L64.7654 67.3851Z" fill="#CC6228"/>
<path d="M74.1075 52.6287L65.6853 61.212L59.192 58.2446L56.083 64.7803L54.0449 53.5414L74.1075 52.6287Z" fill="#CC6228"/>
<path d="M24.8882 52.6285L44.9542 53.5414L42.9162 64.7803L39.8066 58.2454L33.3474 61.2121L24.8882 52.6285Z" fill="#CC6228"/>
<path d="M24.3206 50.8672L33.8493 60.5363L34.1795 70.0818L24.3206 50.8672Z" fill="#E27525"/>
<path d="M74.6891 50.8497L64.8125 70.0987L65.1844 60.5361L74.6891 50.8497Z" fill="#E27525"/>
<path d="M44.4886 51.456L44.872 53.8699L45.8197 59.8832L45.2105 78.3526L42.33 63.516L42.3291 63.3625L44.4886 51.456Z" fill="#E27525"/>
<path d="M54.5062 51.4227L56.6714 63.3625L56.6705 63.5159L53.7829 78.3897L53.6686 74.6694L53.218 59.7738L54.5062 51.4227Z" fill="#E27525"/>
<path d="M66.0314 60.152L65.7089 68.4454L55.657 76.2771L53.625 74.8414L55.9028 63.1089L66.0314 60.152Z" fill="#F5841F"/>
<path d="M33.0037 60.1521L43.0973 63.1092L45.3751 74.8414L43.343 76.2771L33.2905 68.4447L33.0037 60.1521Z" fill="#F5841F"/>
<path d="M29.2522 79.3473L42.1124 85.4407L42.058 82.8387L43.134 81.8942H55.862L56.977 82.8355L56.8949 85.4357L69.6736 79.3627L63.4555 84.5011L55.9364 89.6654H43.031L35.5168 84.4799L29.2522 79.3473Z" fill="#C0AC9D"/>
<path d="M54.2159 74.2412L56.0342 75.5256L57.0998 84.0272L55.5577 82.7251H43.4468L41.9341 84.0534L42.9646 75.5263L44.7836 74.2412H54.2159Z" fill="#161616"/>
<path d="M87.6219 10.747L92 23.8813L89.2658 37.1614L91.2128 38.6634L88.5782 40.6735L90.5582 42.2026L87.9363 44.5904L89.546 45.7561L85.2742 50.7452L67.7529 45.6437L67.601 45.5623L54.9749 34.9112L87.6219 10.747Z" fill="#763E1A"/>
<path d="M11.3782 10.747L44.0253 34.9112L31.3991 45.5623L31.2473 45.6437L13.7259 50.7452L9.45411 45.7561L11.0625 44.5913L8.44185 42.2026L10.4181 40.6751L7.74419 38.6593L9.76459 37.1564L7 23.8818L11.3782 10.747Z" fill="#763E1A"/>
<path d="M66.8957 44.5281L85.4607 49.9332L91.4921 68.5221L75.5799 68.5221L64.616 68.6604L72.5894 53.1187L66.8957 44.5281Z" fill="#F5841F"/>
<path d="M32.1041 44.5281L26.4094 53.1187L34.3839 68.6604L23.4253 68.5221H7.54126L13.5389 49.9333L32.1041 44.5281Z" fill="#F5841F"/>
<path d="M61.2487 20.9941L56.056 35.0187L54.954 53.9647L54.5324 59.903L54.4989 75.0727H44.501L44.4686 59.9314L44.0455 53.9595L42.9431 35.0187L37.7512 20.9941H61.2487Z" fill="#F5841F"/>
</svg>
