<svg width="100" height="100" viewBox="0 0 100 100" fill="none" xmlns="http://www.w3.org/2000/svg">
<rect width="100" height="100" rx="24" fill="#1BC282"/>
<path d="M20.0008 15.0289C23.5171 14.9937 27.0334 15.0289 30.5497 15.0097C30.9141 14.9796 31.281 15.0197 31.6302 15.128C37.8956 17.794 44.1643 20.4675 50.4361 23.1484C56.6525 20.4952 62.8668 17.8387 69.079 15.1791C69.5297 14.9554 70.0379 15.0097 70.5302 15.0033C73.9762 15.0033 77.4222 15.0033 80.865 15.0033C80.865 20.5847 80.865 26.1692 80.865 31.7506C77.077 33.4256 73.2474 35.0048 69.4466 36.6478C69.4466 33.5119 69.4466 30.376 69.4466 27.2369C63.1065 30.0286 56.7687 32.8278 50.4329 35.6345C44.0876 32.8438 37.755 30.0276 31.4096 27.2369C31.4096 35.7847 31.4096 44.3294 31.4096 52.8772C27.7207 54.4457 24.0339 56.0185 20.3492 57.5955C20.11 56.0021 19.9957 54.3925 20.0072 52.7813C20.0008 40.1972 19.9987 27.613 20.0008 15.0289Z" fill="white"/>
<path d="M69.5904 47.1425C73.3475 45.5591 77.1057 43.9789 80.865 42.4019C80.865 46.7685 80.865 51.1351 80.865 55.5081C80.8054 62.9125 77.951 70.0211 72.8734 75.4105C69.2409 79.3426 64.6147 82.2217 59.4826 83.7441C53.9687 85.3775 48.1053 85.4185 42.5691 83.8624C38.2491 82.6396 34.2567 80.4676 30.8831 77.5049C27.5096 74.5423 24.8401 70.8638 23.0696 66.7379C26.5284 65.2643 29.9871 63.7874 33.4715 62.3713C34.7094 65.2713 36.6547 67.8146 39.1294 69.7687C41.6041 71.7227 44.5292 73.0252 47.6372 73.5568C50.7452 74.0885 53.9369 73.8325 56.9204 72.8121C59.9039 71.7918 62.584 70.0397 64.7155 67.7161C67.7344 64.4353 69.4638 60.1727 69.584 55.7159C69.616 52.8517 69.5744 49.9971 69.5904 47.1425Z" fill="white"/>
</svg>
