<svg width="100" height="100" viewBox="0 0 100 100" fill="none" xmlns="http://www.w3.org/2000/svg">
<rect width="100" height="100" rx="24" fill="white"/>
<g clip-path="url(#clip0_280_5)">
<path d="M37.0333 52.4502C36.9884 52.0741 37.1938 51.285 36.5631 50.6485C36.0416 50.1227 35.1968 49.9541 34.1582 50.1422C29.2405 50.9942 24.0277 56.7141 24.0175 56.7227C21.7681 58.9736 20.3425 61.6122 19.5772 64.4938C19.2322 65.7954 19.0356 67.1319 18.9914 68.4778C18.8525 73.0975 20.5609 77.715 24.0269 81.2845C28.4723 85.8767 33.1231 87.2278 35.1325 87.8882C47.7178 92.0001 61.7519 87.6495 71.8145 77.6701C85.9903 63.6107 86.1943 40.7957 72.3837 26.4824C79.6188 33.9613 78.186 47.2193 69.4522 55.8823C68.7419 56.586 64.6379 60.528 58.9354 62.2683C53.9143 63.8089 50.104 63.4349 46.8289 62.5489C43.4337 61.6347 40.5051 59.1241 39.4346 58.0449C38.3641 56.9658 37.3168 54.8031 37.0333 52.4502Z" fill="url(#paint0_linear_280_5)"/>
<path d="M64.7304 22.4614C65.1816 23.4606 65.5691 24.4873 65.8906 25.5354C66.917 28.8715 67.3374 32.3645 67.1318 35.8489C66.3419 49.3095 59.9444 61.2475 48.0657 60.5502C41.1025 60.1416 38.3134 55.2289 36.9573 52.4037C36.749 64.5971 49.3387 70.7436 56.7691 71.1805C77.7765 72.413 81.0393 53.1777 81.2845 49.0021C81.4162 46.7591 80.9677 43.3235 80.4397 41.2367C80.4095 41.1071 80.3733 40.979 80.3312 40.8527C78.0835 32.8594 73.1791 25.8707 66.4266 21.0387C65.4646 20.3581 64.2465 21.3924 64.7304 22.4614Z" fill="url(#paint1_linear_280_5)"/>
<path d="M46.2183 10.269C46.8973 9.11013 47.9991 8.2597 49.2922 7.89659C50.5853 7.53347 51.9688 7.68596 53.1518 8.32199C54.3347 8.95801 55.2249 10.028 55.6352 11.3069C56.0454 12.5858 55.9437 13.974 55.3514 15.1795L36.9073 52.6296L25.1501 46.308L46.2183 10.2697V10.269Z" fill="url(#paint2_linear_280_5)"/>
<path d="M11.7518 67.9164C9.99996 61.5405 13.6743 54.7075 19.9583 52.6526C26.2416 50.5977 32.7556 54.0992 34.5074 60.4751C36.2585 66.8502 32.5849 73.6832 26.3009 75.7388L16.4402 78.9633C16.2445 79.0295 16.0374 79.0548 15.8315 79.0376C15.6257 79.0203 15.4256 78.961 15.2437 78.8632C15.0618 78.7653 14.9019 78.6312 14.774 78.469C14.6461 78.3068 14.553 78.12 14.5003 77.9203L11.7518 67.9164Z" fill="url(#paint3_radial_280_5)"/>
<path d="M22.0074 52.1868L33.7646 58.5084L36.9254 52.6295L25.1683 46.3079L22.0074 52.1868Z" fill="url(#paint4_linear_280_5)"/>
<path d="M75.1625 18.0602C74.9743 17.9262 74.8208 17.7491 74.7149 17.5437C74.609 17.3383 74.5537 17.1105 74.5537 16.8794C74.5537 16.6483 74.609 16.4206 74.7149 16.2152C74.8208 16.0098 74.9743 15.8327 75.1625 15.6986L77.4698 14.0575C78.3611 13.4238 79.1398 12.6451 79.7735 11.7538L81.4147 9.44646C81.5487 9.25806 81.7258 9.10445 81.9313 8.99846C82.1368 8.89246 82.3646 8.83716 82.5958 8.83716C82.827 8.83716 83.0549 8.89246 83.2603 8.99846C83.4658 9.10445 83.643 9.25806 83.777 9.44646L85.4174 11.7538C86.0512 12.645 86.8299 13.4237 87.7211 14.0575L90.0284 15.6986C90.2168 15.8326 90.3704 16.0096 90.4764 16.2151C90.5824 16.4205 90.6377 16.6483 90.6377 16.8794C90.6377 17.1106 90.5824 17.3384 90.4764 17.5438C90.3704 17.7492 90.2168 17.9263 90.0284 18.0602L87.7211 19.7014C86.8298 20.3351 86.0511 21.1138 85.4174 22.0051L83.777 24.3124C83.643 24.5008 83.4658 24.6544 83.2603 24.7604C83.0549 24.8664 82.827 24.9217 82.5958 24.9217C82.3646 24.9217 82.1368 24.8664 81.9313 24.7604C81.7258 24.6544 81.5487 24.5008 81.4147 24.3124L79.7735 22.0051C79.14 21.1138 78.3616 20.3351 77.4705 19.7014L75.1625 18.0602Z" fill="url(#paint5_linear_280_5)"/>
<path d="M55.8752 32.0119C54.472 31.0145 54.472 28.9307 55.8752 27.9332L59.8598 25.1001C61.3983 24.0061 62.7424 22.6619 63.8365 21.1234L66.6696 17.138C67.6678 15.7356 69.7509 15.7356 70.749 17.138L73.5815 21.1234C74.6759 22.662 76.0206 24.0062 77.5596 25.1001L81.5435 27.9332C82.9467 28.9314 82.9467 31.0145 81.5435 32.0126L77.5589 34.8451C76.0201 35.9393 74.6756 37.2837 73.5815 38.8225L70.7483 42.8071C69.7509 44.2103 67.6671 44.2103 66.6696 42.8071L63.8365 38.8225C62.7425 37.2837 61.3983 35.9393 59.8598 34.8451L55.8752 32.0119Z" fill="url(#paint6_linear_280_5)"/>
</g>
<defs>
<linearGradient id="paint0_linear_280_5" x1="37.0239" y1="89.4302" x2="90.6853" y2="51.915" gradientUnits="userSpaceOnUse">
<stop stop-color="#C640F0"/>
<stop offset="1" stop-color="#F3CBFF"/>
</linearGradient>
<linearGradient id="paint1_linear_280_5" x1="48.4808" y1="71.2369" x2="70.6954" y2="34.4985" gradientUnits="userSpaceOnUse">
<stop offset="0.285" stop-color="#E9ACFA"/>
<stop offset="0.951" stop-color="#C640F0"/>
</linearGradient>
<linearGradient id="paint2_linear_280_5" x1="36.2629" y1="26.2032" x2="47.8544" y2="32.9472" gradientUnits="userSpaceOnUse">
<stop stop-color="#E9ACFA"/>
<stop offset="0.872" stop-color="#8260F6"/>
</linearGradient>
<radialGradient id="paint3_radial_280_5" cx="0" cy="0" r="1" gradientUnits="userSpaceOnUse" gradientTransform="translate(18.5848 58.0506) rotate(67.331) scale(31.5962 27.6796)">
<stop stop-color="#E9ACFA"/>
<stop offset="0.659" stop-color="#4B35F1"/>
</radialGradient>
<linearGradient id="paint4_linear_280_5" x1="22.7423" y1="45.0038" x2="36.9254" y2="52.6295" gradientUnits="userSpaceOnUse">
<stop stop-color="#AA6CF5"/>
<stop offset="1" stop-color="#4B35F1"/>
</linearGradient>
<linearGradient id="paint5_linear_280_5" x1="74.5535" y1="8.83744" x2="90.4863" y2="23.4068" gradientUnits="userSpaceOnUse">
<stop offset="0.191" stop-color="#C886F8"/>
<stop offset="0.774" stop-color="#4B35F1"/>
</linearGradient>
<linearGradient id="paint6_linear_280_5" x1="54.8228" y1="16.0864" x2="82.3334" y2="41.2426" gradientUnits="userSpaceOnUse">
<stop offset="0.217" stop-color="#C886F8"/>
<stop offset="0.769" stop-color="#4B35F1"/>
</linearGradient>
<clipPath id="clip0_280_5">
<rect width="80.6378" height="85" fill="white" transform="translate(10 7)"/>
</clipPath>
</defs>
</svg>
