<svg width="100" height="100" viewBox="0 0 100 100" fill="none" xmlns="http://www.w3.org/2000/svg">
<rect width="100" height="100" rx="24" fill="white"/>
<g clip-path="url(#clip0_277_317)">
<path d="M56.85 7.00127C49.1014 7.05774 40.2809 9.00353 32.8046 13.7831C22.8362 20.156 15.2581 31.5664 11.8563 40.7598C8.45456 49.9531 9.22948 56.9288 10.3168 62.096C11.404 67.2631 12.8034 70.6216 14.3859 72.6023C15.9684 74.5831 17.7339 75.1857 19.5101 75.1749C21.2863 75.1641 23.0731 74.5398 25.1938 72.925C27.3144 71.3103 29.7687 68.7054 31.8033 66.617C33.8379 64.5286 35.4527 62.957 36.7984 62.1711C38.144 61.3853 39.2204 61.3853 40.3508 61.7406C41.4811 62.0958 42.6652 62.8063 43.5048 63.6675C44.3444 64.5287 44.8397 65.5406 44.9904 66.6817C45.1411 67.8227 44.9473 69.0928 44.1507 70.2231C43.3541 71.3533 41.9548 72.3438 40.7706 74.1739C39.5865 76.0039 38.6174 78.6735 39.1234 81.171C39.6294 83.6685 41.6103 85.9937 43.7848 87.307C45.9593 88.6203 48.3274 88.9217 54.9585 86.252C61.5896 83.5823 72.4836 77.9416 79.4378 69.7388C86.3919 61.536 89.4059 50.7714 89.5997 41.6427C89.7935 32.514 87.1671 25.0218 83.0119 19.1441C78.8567 13.2664 73.1729 9.00363 64.1519 7.53951C61.8966 7.17348 59.4329 6.98245 56.85 7.00127ZM53.2414 47.3294C54.686 47.3294 56.0714 47.9032 57.0929 48.9247C58.1144 49.9462 58.6883 51.3316 58.6883 52.7762C58.6883 53.4915 58.5474 54.1999 58.2737 54.8607C58 55.5216 57.5988 56.1221 57.093 56.6279C56.5872 57.1337 55.9867 57.535 55.3259 57.8087C54.665 58.0825 53.9567 58.2234 53.2414 58.2234C52.5261 58.2234 51.8178 58.0825 51.1569 57.8087C50.4961 57.535 49.8956 57.1337 49.3898 56.6279C48.884 56.1221 48.4828 55.5216 48.2091 54.8607C47.9354 54.1999 47.7945 53.4915 47.7945 52.7762C47.7945 51.3316 48.3684 49.9462 49.3899 48.9247C50.4114 47.9032 51.7968 47.3294 53.2414 47.3294Z" fill="url(#paint0_linear_277_317)"/>
<path d="M65.5692 30.9714C64.4225 30.9714 63.4996 31.8946 63.4996 33.0412C63.4996 33.2099 63.5216 33.3729 63.5593 33.5298C65.2002 37.1578 67.3892 40.7427 69.0828 43.8035H77.9517L82.9392 34.4871C83.2105 34.0154 83.454 33.492 83.4615 33.0412C83.4615 31.8946 82.5383 30.9714 81.3917 30.9714H65.5692ZM69.0828 43.8035V48.1831C69.0814 48.2176 69.0809 48.2521 69.0824 48.2868L69.0828 48.2998V49.4669H69.1276L70.281 79.6158C72.5507 78.1567 74.816 76.5166 76.9394 74.7015L77.9015 49.4669H77.9517V43.8035H69.0828Z" fill="#808080"/>
<path d="M75.0677 44.7041C73.4696 44.7041 69.0067 46.3034 69.0826 48.287L70.6328 88.8048C70.7086 90.7883 71.9194 92.0004 73.5175 92.0004C75.1156 92.0004 76.3265 90.7884 76.4021 88.8048L77.9465 48.2927C78.0221 46.3091 76.6658 44.7041 75.0677 44.7041Z" fill="url(#paint1_linear_277_317)"/>
<path d="M77.9518 43.8037H69.083V49.4669H77.9518V43.8037Z" fill="url(#paint2_linear_277_317)"/>
<path d="M65.5692 30.9714C64.4225 30.9714 63.4996 31.8946 63.4996 33.0412C63.4996 33.21 63.5216 33.373 63.5593 33.5298C65.2002 37.1578 67.3892 40.7428 69.0829 43.8036H77.9518L82.9396 34.487C83.2109 34.0153 83.4541 33.492 83.4616 33.0412C83.4616 31.8946 82.5385 30.9714 81.3918 30.9714H65.5692Z" fill="url(#paint3_linear_277_317)"/>
<path d="M21.4927 56.9483C25.5225 56.9483 28.7893 53.6816 28.7893 49.6518C28.7893 45.622 25.5225 42.3552 21.4927 42.3552C17.4629 42.3552 14.1962 45.622 14.1962 49.6518C14.1962 53.6816 17.4629 56.9483 21.4927 56.9483Z" fill="#808080"/>
<path d="M21.4637 56.4398C25.4934 56.4398 28.7602 53.173 28.7602 49.1432C28.7602 45.1135 25.4934 41.8467 21.4637 41.8467C17.4339 41.8467 14.1671 45.1135 14.1671 49.1432C14.1671 53.173 17.4339 56.4398 21.4637 56.4398Z" fill="url(#paint4_linear_277_317)"/>
<path d="M30.8097 38.5426C34.8395 38.5426 38.1063 35.2758 38.1063 31.246C38.1063 27.2162 34.8395 23.9495 30.8097 23.9495C26.78 23.9495 23.5132 27.2162 23.5132 31.246C23.5132 35.2758 26.78 38.5426 30.8097 38.5426Z" fill="#808080"/>
<path d="M30.7807 38.0343C34.8105 38.0343 38.0772 34.7675 38.0772 30.7377C38.0772 26.7079 34.8105 23.4412 30.7807 23.4412C26.7509 23.4412 23.4841 26.7079 23.4841 30.7377C23.4841 34.7675 26.7509 38.0343 30.7807 38.0343Z" fill="url(#paint5_linear_277_317)"/>
<path d="M50.9051 30.9613C54.9348 30.9613 58.2016 27.6945 58.2016 23.6647C58.2016 19.6349 54.9348 16.3682 50.9051 16.3682C46.8753 16.3682 43.6085 19.6349 43.6085 23.6647C43.6085 27.6945 46.8753 30.9613 50.9051 30.9613Z" fill="#666666"/>
<path d="M50.876 30.4527C54.9058 30.4527 58.1726 27.1859 58.1726 23.1562C58.1726 19.1264 54.9058 15.8596 50.876 15.8596C46.8462 15.8596 43.5795 19.1264 43.5795 23.1562C43.5795 27.1859 46.8462 30.4527 50.876 30.4527Z" fill="url(#paint6_linear_277_317)"/>
</g>
<defs>
<linearGradient id="paint0_linear_277_317" x1="28.218" y1="14.1703" x2="82.0849" y2="83.5384" gradientUnits="userSpaceOnUse">
<stop stop-color="#3AC8F3"/>
<stop offset="1" stop-color="#1B9DE3"/>
</linearGradient>
<linearGradient id="paint1_linear_277_317" x1="84.4111" y1="50.0821" x2="72.9143" y2="88.7063" gradientUnits="userSpaceOnUse">
<stop stop-color="#78400A"/>
<stop offset="1" stop-color="#9A5605"/>
</linearGradient>
<linearGradient id="paint2_linear_277_317" x1="68.7806" y1="50.7279" x2="80.2773" y2="43.7523" gradientUnits="userSpaceOnUse">
<stop stop-color="#ECECEC"/>
<stop offset="1" stop-color="#9396A0"/>
</linearGradient>
<linearGradient id="paint3_linear_277_317" x1="68.2638" y1="30.7053" x2="81.1816" y2="43.6231" gradientUnits="userSpaceOnUse">
<stop stop-color="#F0D69F"/>
<stop offset="1" stop-color="#C39360"/>
</linearGradient>
<linearGradient id="paint4_linear_277_317" x1="15.1219" y1="42.2022" x2="28.6855" y2="55.7658" gradientUnits="userSpaceOnUse">
<stop stop-color="#DB5317"/>
<stop offset="1" stop-color="#C23807"/>
</linearGradient>
<linearGradient id="paint5_linear_277_317" x1="25.5854" y1="22.3089" x2="36.6946" y2="35.8724" gradientUnits="userSpaceOnUse">
<stop stop-color="#4FB412"/>
<stop offset="1" stop-color="#188313"/>
</linearGradient>
<linearGradient id="paint6_linear_277_317" x1="45.608" y1="18.821" x2="57.8798" y2="29.801" gradientUnits="userSpaceOnUse">
<stop stop-color="#FDDD01"/>
<stop offset="1" stop-color="#F7A810"/>
</linearGradient>
<clipPath id="clip0_277_317">
<rect width="85" height="85" fill="white" transform="translate(7 7)"/>
</clipPath>
</defs>
</svg>
