<svg width="100" height="100" viewBox="0 0 100 100" fill="none" xmlns="http://www.w3.org/2000/svg">
<rect width="100" height="100" rx="24" fill="#0090DA"/>
<path d="M49.8718 57.1219C45.8765 57.1219 42.2921 54.853 42.2921 51.6801C42.2921 48.5058 45.8765 46.2347 49.9003 46.2347C51.6499 46.2347 53.2834 46.6761 55.0599 47.667L53.8079 49.2763C52.6693 48.7254 51.3283 48.3955 49.9003 48.3955C48.2092 48.3955 46.2562 49.3425 46.2562 51.6801C46.2562 54.0166 48.1801 54.9633 49.9003 54.9633C51.3283 54.9633 52.6981 54.6767 53.8644 54.1689L55.1188 55.8662C53.7254 56.6113 52.0488 57.063 50.2361 57.1166L49.8718 57.1219ZM72.6934 57.0816C76.7159 57.0816 80.3022 54.8113 80.3022 51.6397C80.3022 48.4655 76.7159 46.1936 72.6934 46.1936C68.6698 46.1936 65.0838 48.4655 65.0838 51.6397C65.0838 54.7479 68.5278 56.9904 72.4525 57.0789L72.6934 57.0816ZM76.3378 51.6397C76.3378 53.9762 74.385 54.9222 72.6934 54.9222C71.0017 54.9222 69.0498 53.9762 69.0498 51.6397C69.0498 49.3016 71.0017 48.3546 72.6934 48.3546C74.385 48.3546 76.3378 49.3016 76.3378 51.6397ZM81.922 56.8187H85.6797V50.3377C85.6797 49.4631 86.3598 48.4334 87.5759 48.4259C88.4253 48.4334 89.2399 49.0142 89.2399 49.7516L89.2332 56.8187H93V49.5514C93 47.6374 90.9485 46.0402 88.5001 46.0402L88.429 46.0439L88.3577 46.0402C87.3461 46.0402 86.3867 46.3351 85.6025 46.8298L85.5965 46.8134C85.5472 46.7038 85.1314 46.1069 81.922 46.1069V56.8187ZM36.8044 46.4597H40.4857V56.8187H36.8044V46.4597ZM56.8743 56.8187H60.5561V50.5369C60.5561 49.5444 61.7216 48.7502 62.976 48.7502C63.5122 48.7502 64.0212 48.8439 64.4642 49.0114L64.6507 49.0877V46.3628C64.2166 46.2972 63.7473 46.2614 63.3329 46.2614C62.3465 46.2614 61.3564 46.548 60.5461 47.0278L60.5321 47.0035C60.4273 46.8434 59.859 46.327 56.8743 46.327V56.8187Z" fill="white"/>
<path d="M24.4085 42.2278C24.7132 42.1 24.7441 42.3077 24.5743 42.4374C24.4007 42.5704 24.1949 42.7235 23.9435 42.8758C22.839 43.5454 21.7179 44.3633 20.5647 45.2796C21.074 45.5959 21.4997 46.0346 21.799 46.5538L21.9052 46.7522L23.4825 50.0985C23.6456 50.4249 23.9478 50.6057 24.2985 50.6057C24.6106 50.6057 24.8828 50.4629 25.054 50.2018L25.1134 50.0985L26.6904 46.7522C27.2822 45.5598 28.5174 44.7344 29.9387 44.7344C31.3763 44.7344 32.6137 45.5708 33.1955 46.7834C33.255 46.9274 33.2644 47.0593 33.1557 47.2154C32.369 48.3525 31.3578 49.5248 30.1801 50.7012L29.7815 51.0934L29.782 49.0408L28.9529 50.8049C28.0438 52.7541 26.3949 53.9189 24.2979 53.9189C22.2758 53.9189 20.6702 52.8358 19.7432 51.0107L19.643 50.8049L18.8138 49.0408L18.8146 57.0861C17.4822 57.8267 16.317 58.3717 15.3147 58.7351L15.0453 58.8298V50.1579C11.3049 53.8936 9.23748 57.2019 10.4986 58.9126C11.9248 60.8487 15.7424 59.7865 21.3959 56.2199L21.706 56.0228C21.9534 55.8646 22.1827 55.7265 22.3761 55.6251C22.5651 55.5258 22.7408 55.6402 22.497 55.863C22.3492 55.9986 22.1452 56.1563 21.9141 56.3146C21.0938 56.8743 20.2622 57.4134 19.4346 57.9184L18.8149 58.2904L18.8152 62.1978H15.0453V60.2464C12.0005 61.5689 9.45789 61.9235 8.38545 60.3882C6.9489 58.3302 9.6262 53.7511 14.7767 49.0857L15.0453 48.8444V48.3465C15.0453 46.3485 16.6587 44.7344 18.6567 44.7344C19.1168 44.7344 19.5571 44.8218 19.963 44.979L20.3607 44.7045C21.4636 43.9518 22.6167 43.2518 23.7444 42.5685C23.9844 42.4232 24.2239 42.305 24.4085 42.2278ZM26.5712 40.9566L26.7184 40.8817C32.3449 37.9092 36.6857 37.0981 38.083 39.0993C39.3953 40.9788 37.7669 44.8444 33.7873 49.0323L33.5505 49.279V56.8186H29.7807L29.7812 52.6893C28.9685 53.3405 28.1049 53.9883 27.1907 54.6269L26.5019 55.1057C25.6479 55.6964 24.6505 56.3746 23.8528 56.8757L23.4419 57.1288L23.3611 57.1771C23.1219 57.3227 22.8969 57.4427 22.7131 57.5216C22.4093 57.6518 22.3772 57.4441 22.5449 57.3127C22.7177 57.1782 22.9375 57.0283 23.1835 56.8671L23.3695 56.7503C24.302 56.1905 25.7337 55.1835 26.6616 54.4953C33.6108 49.3401 37.6239 42.3712 35.6644 40.2447C34.408 38.8809 31.2408 39.1922 27.1635 41.0712L26.8707 41.2081C26.6064 41.3373 26.3718 41.4277 26.1664 41.5025C25.9662 41.5755 25.8069 41.4371 26.0792 41.249C26.2108 41.1582 26.38 41.057 26.5712 40.9566Z" fill="white"/>
</svg>
