<svg width="100" height="100" viewBox="0 0 100 100" fill="none" xmlns="http://www.w3.org/2000/svg">
<rect width="100" height="100" rx="24" fill="white"/>
<path d="M77.4809 72.4809C72.422 77.5398 65.8352 80.788 58.7421 81.7219C51.6489 82.6557 44.4459 81.2229 38.25 77.6458" stroke="#E91E63" stroke-width="20"/>
<path d="M38.25 77.646C32.0541 74.0688 27.2118 68.5471 24.4739 61.9374C21.7361 55.3276 21.2557 47.9991 23.1074 41.0886" stroke="#FF9800" stroke-width="20"/>
<path d="M23.1074 41.0881C24.212 36.9656 26.1179 33.101 28.716 29.715C31.3142 26.329 34.5538 23.4879 38.25 21.354" stroke="#CDDC39" stroke-width="20"/>
<path d="M38.25 21.3542C44.4459 17.777 51.6489 16.3443 58.7421 17.2781C65.8352 18.2119 72.422 21.4602 77.4809 26.5191" stroke="#009688" stroke-width="20"/>
</svg>
