<svg width="100" height="100" viewBox="0 0 100 100" fill="none" xmlns="http://www.w3.org/2000/svg">
<rect width="100" height="100" rx="24" fill="white"/>
<g clip-path="url(#clip0_274_104)">
<path fill-rule="evenodd" clip-rule="evenodd" d="M50.4256 33.8052C48.8589 33.9872 47.664 35.2596 47.553 36.8641C47.5051 37.5555 47.5201 37.6024 49.0872 41.635C52.6526 50.8099 53.5163 53.018 53.6616 53.3288C54.0136 54.0814 54.5085 54.7895 55.1268 55.425C55.6013 55.9127 55.9142 56.1749 56.4434 56.5284C57.3736 57.1497 57.8352 57.3214 61.4548 58.3931C64.9806 59.4371 66.9069 60.131 68.5668 60.9548C70.7172 62.0221 72.2176 63.2362 73.1666 64.6767C73.8475 65.7103 74.4506 67.5638 74.713 69.4296C74.8156 70.1589 74.8162 71.7711 74.7142 72.4304C74.4928 73.8614 74.0507 75.0605 73.3742 76.064C73.0145 76.5976 73.1396 76.5083 73.6627 75.858C75.1429 74.0176 76.6507 70.8722 77.4201 68.0199C78.3512 64.5678 78.4779 60.8609 77.7846 57.3524C76.4345 50.5202 72.1213 44.6239 66.0466 41.3062C65.665 41.0977 64.2112 40.3357 62.2402 39.3109C61.9411 39.1554 61.5333 38.9425 61.3339 38.8378C61.1346 38.733 60.7267 38.5201 60.4277 38.3647C60.1286 38.2092 59.2676 37.7606 58.5144 37.3679C57.7612 36.9751 56.9184 36.5357 56.6415 36.3913C55.7974 35.9512 55.231 35.6555 54.8088 35.4345C52.8558 34.4121 52.0291 33.9988 51.7934 33.9271C51.5462 33.8519 50.9183 33.7553 50.7607 33.7683C50.7275 33.771 50.5767 33.7876 50.4256 33.8052Z" fill="url(#paint0_radial_274_104)"/>
<path d="M54.6833 68.0558C54.5751 68.1199 54.4232 68.2127 54.3456 68.2619C54.268 68.3112 54.0959 68.4182 53.963 68.4998C53.4751 68.7993 52.1777 69.5987 51.0628 70.2869C50.3301 70.7392 50.2214 70.8066 49.2906 71.3843C48.9583 71.5905 48.6048 71.8078 48.5051 71.8672C48.4054 71.9267 47.9795 72.189 47.5586 72.4501C47.1376 72.7112 46.4036 73.1644 45.9273 73.4572C45.451 73.7498 44.5991 74.2754 44.0342 74.6249C43.4693 74.9744 42.7261 75.4327 42.3828 75.6432C42.0394 75.8538 41.7222 76.0571 41.6779 76.0951C41.6121 76.1516 38.558 78.0434 37.0256 78.977C35.8618 79.686 34.5154 80.1602 33.1371 80.3465C32.4955 80.4331 31.2812 80.4335 30.6414 80.347C28.9065 80.1127 27.3082 79.4657 25.9394 78.4437C25.4025 78.0428 24.3916 77.0327 24.0052 76.5109C23.0946 75.2815 22.5054 73.9628 22.2003 72.4706C22.1301 72.1272 22.0637 71.8373 22.0528 71.8261C22.0243 71.7973 22.0758 72.316 22.1687 72.9942C22.2653 73.6995 22.4712 74.7197 22.693 75.5922C24.4092 82.3445 29.2928 87.8364 35.9039 90.4494C37.8076 91.2014 39.7286 91.6754 41.8188 91.9078C42.6043 91.9958 44.8274 92.0306 45.6472 91.9684C49.4063 91.6837 52.6795 90.5772 56.0373 88.4551C56.3364 88.2661 56.8983 87.9118 57.2859 87.6677C57.6737 87.4236 58.163 87.1134 58.3735 86.9783C58.5839 86.8432 58.8377 86.6835 58.9374 86.6236C59.0371 86.5636 59.2364 86.4383 59.3805 86.3451C59.5245 86.252 60.1407 85.8622 60.7499 85.4789L63.186 83.9402L64.0225 83.4119L64.0526 83.3929L64.1448 83.3347L64.1886 83.3069L64.8044 82.918L66.9328 81.5737C69.6446 79.8696 70.4533 79.2713 71.7132 78.0372C72.2385 77.5228 73.0304 76.6446 73.0697 76.5331C73.0777 76.5104 73.2184 76.2933 73.3825 76.0506C74.0492 75.064 74.4938 73.8555 74.7142 72.4303C74.8163 71.771 74.8156 70.1588 74.713 69.4295C74.5147 68.0195 74.0641 66.4201 73.5784 65.4017C72.7817 63.7317 71.0847 62.2143 68.6469 60.9923C67.9738 60.6549 67.2787 60.3461 67.201 60.3501C67.1643 60.352 64.8957 61.7387 62.1597 63.4317C59.4238 65.1247 57.0493 66.5942 56.8832 66.6973C56.717 66.8005 56.4315 66.9749 56.2487 67.0848L54.6833 68.0558Z" fill="url(#paint1_radial_274_104)"/>
<path d="M22.0117 59.9338L22.0234 71.7255L22.1761 72.4102C22.6533 74.5511 23.4801 76.0946 24.9176 77.5283C25.5937 78.2026 26.1107 78.6092 26.8434 79.0427C28.3938 79.9602 30.0624 80.4129 31.89 80.412C33.8043 80.411 35.4602 79.9336 37.1666 78.8906C37.4546 78.7146 38.5829 78.0199 39.6739 77.3468L41.6577 76.123V62.1326V48.1422L41.6571 35.3436C41.6567 27.1783 41.6417 22.3291 41.6159 21.9486C41.4532 19.5579 40.4534 17.3601 38.7721 15.6977C38.2562 15.1875 37.8153 14.8468 36.502 13.943C35.8484 13.4932 34.6521 12.6693 33.8436 12.1121C33.035 11.5549 31.7028 10.6369 30.8831 10.0721C30.0634 9.50732 28.8943 8.70154 28.2851 8.28152C27.0159 7.40645 26.9166 7.34559 26.5329 7.20832C26.0339 7.0298 25.5051 6.96423 25.0024 7.01853C23.537 7.17678 22.364 8.23479 22.059 9.67319C22.0116 9.89698 22.0029 12.8752 22.0023 29.0399L22.0016 48.1422H22L22.0117 59.9338Z" fill="url(#paint2_linear_274_104)"/>
</g>
<defs>
<radialGradient id="paint0_radial_274_104" cx="0" cy="0" r="1" gradientUnits="userSpaceOnUse" gradientTransform="translate(76.2976 66.9525) rotate(-130.909) scale(43.9164 31.5998)">
<stop stop-color="#00CACC"/>
<stop offset="1" stop-color="#048FCE"/>
</radialGradient>
<radialGradient id="paint1_radial_274_104" cx="0" cy="0" r="1" gradientUnits="userSpaceOnUse" gradientTransform="translate(29.3727 82.9633) rotate(-23.1954) scale(47.5021 79.1637)">
<stop stop-color="#00BBEC"/>
<stop offset="1" stop-color="#2756A9"/>
</radialGradient>
<linearGradient id="paint2_linear_274_104" x1="31.8289" y1="7" x2="31.8289" y2="80.412" gradientUnits="userSpaceOnUse">
<stop stop-color="#00BBEC"/>
<stop offset="1" stop-color="#2756A9"/>
</linearGradient>
<clipPath id="clip0_274_104">
<rect width="56.2793" height="85" fill="white" transform="translate(22 7)"/>
</clipPath>
</defs>
</svg>
