<svg width="100" height="100" viewBox="0 0 100 100" fill="none" xmlns="http://www.w3.org/2000/svg">
<rect width="100" height="100" rx="24" fill="white"/>
<path d="M17.5736 74.9621C15.6947 74.9662 13.8482 74.4714 12.2231 73.5284C10.5979 72.5853 9.25214 71.2277 8.32337 69.5943C7.40881 67.9724 6.95269 66.1323 7.00388 64.2711C7.05507 62.4098 7.61163 60.5975 8.61395 59.0283L27.6634 29.1143C28.6384 27.5066 30.0226 26.1865 31.6747 25.2888C33.3268 24.3911 35.1876 23.9481 37.067 24.0048C38.945 24.0499 40.7772 24.593 42.3763 25.5787C43.9754 26.5644 45.284 27.9573 46.168 29.6147C47.9438 32.9726 47.7218 37.0125 45.5949 40.1646L26.5575 70.0786C25.5921 71.583 24.2626 72.8193 22.6921 73.673C21.1217 74.5266 19.3611 74.97 17.5736 74.9621Z" fill="#F62B54"/>
<path d="M50.2486 74.9612C46.4064 74.9612 42.871 72.907 41.0145 69.6056C40.102 67.9882 39.6469 66.1528 39.6981 64.2964C39.7493 62.44 40.3048 60.6326 41.3051 59.0679L60.3182 29.2224C61.2788 27.5921 62.6581 26.2485 64.313 25.3309C65.968 24.4133 67.8382 23.9552 69.7299 24.004C73.6043 24.0888 77.1156 26.2561 78.8914 29.6462C80.655 33.0364 80.3967 37.1005 78.2053 40.2445L59.1962 70.0899C58.2338 71.5879 56.9096 72.8193 55.3458 73.6707C53.7821 74.522 52.0291 74.9659 50.2486 74.9612Z" fill="#FFCC00"/>
<path d="M82.1928 75.2116C87.6092 75.2116 92.0001 70.9129 92.0001 65.6102C92.0001 60.3075 87.6092 56.0088 82.1928 56.0088C76.7765 56.0088 72.3856 60.3075 72.3856 65.6102C72.3856 70.9129 76.7765 75.2116 82.1928 75.2116Z" fill="#00CA72"/>
</svg>
