<svg width="100" height="100" viewBox="0 0 100 100" fill="none" xmlns="http://www.w3.org/2000/svg">
<rect width="100" height="100" rx="24" fill="white"/>
<path d="M49.5002 7C26.0325 7 7 26.0302 7 49.499C7 54.1909 7.7601 58.7032 9.16514 62.924H21.875V27.1658L49.5002 54.7909L77.1253 27.1658V62.924H89.8363C91.2414 58.7032 92.0015 54.1909 92.0015 49.499C92.0015 26.0302 72.9689 7 49.5002 7Z" fill="#FF6600"/>
<path d="M31.0923 49.0853V71.5855H13.1838C20.6444 83.8255 34.1189 92 49.4995 92C64.8801 92 78.3558 83.8255 85.8152 71.5855H67.9078V49.0853L49.4995 67.4936L31.0923 49.0853Z" fill="#4C4C4C"/>
</svg>
