<svg width="100" height="100" viewBox="0 0 100 100" fill="none" xmlns="http://www.w3.org/2000/svg">
<rect width="100" height="100" rx="24" fill="black"/>
<path d="M85.2829 60.3097L91.0986 44.2588C91.0986 44.2588 86.7388 44.2588 82.375 45.1538L76.8934 60.3097H85.2829ZM84.2764 39.9547L83.1586 43.0296C87.5184 42.1346 91.8822 42.1346 91.8822 42.1346L93 39.0597C93 39.0597 88.6362 39.0597 84.2764 39.9547ZM53.9648 56.5068C56.5942 57.012 59.2753 57.2347 62.0161 57.2347C64.8682 57.2347 66.881 56.6182 67.1038 54.661C67.2152 53.766 66.3202 53.0937 64.7568 52.1987C62.9668 51.1923 61.4035 50.6871 59.8362 49.625C58.2689 48.5629 57.6006 46.9399 58.1018 45.1499C58.7184 43.0813 60.1703 41.9079 62.3502 40.7901C64.9239 39.5052 66.9367 39 71.9131 39C75.0437 39 78.0629 39.2785 81.0265 39.895L79.9644 42.8029C77.335 42.2977 74.6539 42.0749 71.9131 42.0749C69.0609 42.0749 67.0481 42.6915 66.8253 44.6486C66.714 45.5437 67.609 46.2159 69.1723 47.111C70.9624 48.1174 72.5257 48.6226 74.093 49.6847C75.6603 50.7468 76.3286 52.3698 75.8274 54.1598C75.2108 56.2283 73.7588 57.4018 71.5789 58.5196C69.0052 59.8045 66.9924 60.3097 62.0161 60.3097C58.8854 60.3097 55.8662 60.0312 52.9027 59.4146L53.9648 56.5068ZM41.3269 60.3097L46.1919 46.9439C47.8149 42.4687 41.8878 44.0917 40.5433 45.1538C39.4812 45.9375 37.5797 47.7832 36.9075 49.7404L33.0489 60.3654H24.6635L29.5285 46.9439C31.1514 42.4687 25.2244 44.0917 23.8798 45.1538C22.8177 45.9375 20.9163 47.7832 20.244 49.7404L16.3854 60.3654H8L15.7171 39.0597C18.4022 39.0597 19.8542 39.6762 21.0277 40.8497C21.4732 41.2953 21.7556 41.8561 21.9227 42.4727C23.49 41.522 24.8862 40.794 25.837 40.4599C27.5713 39.7876 29.7512 39.0597 32.4363 39.0597C35.1214 39.0597 36.5733 39.6762 37.7468 40.8497C38.1923 41.2953 38.4748 41.8561 38.6418 42.4727C40.2091 41.522 41.6054 40.794 42.5561 40.4599C44.2905 39.7876 46.4704 39.0636 49.1555 39.0636C51.8406 39.0636 53.2925 39.6802 54.466 40.8537C55.6951 42.0272 55.6395 44.2071 55.1939 45.4402L49.7124 60.3136H41.3269V60.3097Z" fill="white"/>
</svg>
