<svg width="100" height="100" viewBox="0 0 100 100" fill="none" xmlns="http://www.w3.org/2000/svg">
<rect width="100" height="100" rx="24" fill="#6787B7"/>
<path fill-rule="evenodd" clip-rule="evenodd" d="M86.0695 20.1166L82.7196 19.9305C82.1613 19.9305 81.4169 20.1166 80.8586 20.1166C77.1365 20.8611 73.9727 24.0249 73.4144 27.3747L66.1563 55.1043L39.7295 19H35.4491C34.8908 19 34.1464 19 33.5881 19.1863C29.866 19.9307 26.8883 23.0944 26.1439 26.4443L12 80.6006L13.1166 80.7868H16.2804C16.8387 80.7868 17.5831 80.7869 18.1414 80.6006C21.8635 79.8562 25.0273 76.6924 25.5856 73.3425L32.8437 45.427L59.2705 81.5311L63.5509 81.7174C64.2953 81.7174 64.8536 81.5311 65.598 81.3449C69.134 80.6005 72.2978 77.4368 73.0422 74.0869L87 20.1166H86.0695ZM35.263 35.9355L37.3102 28.4914L63.737 64.5955L61.6898 72.0397L35.263 35.9355Z" fill="white"/>
</svg>
