<svg width="100" height="100" viewBox="0 0 100 100" fill="none" xmlns="http://www.w3.org/2000/svg">
<rect width="100" height="100" rx="24" fill="#E60012"/>
<path d="M42.2443 91.5367H45.0664V78.9004H42.2443V91.5367ZM27.5862 70.9817L30.9138 75.4465H32.2195V68.7493H30.8717V73.172L27.5862 68.7914H26.2384V75.4886H27.5862V70.9817ZM42.6655 68.7493H36.9792V70.1814H39.1274V75.4465H40.5595V70.1814H42.6655V68.7493ZM33.9465 88.0406L31.2507 78.8583H29.0183L26.3647 87.9985L23.9217 78.8583H21.1838L24.7641 91.4946H27.7968L30.1556 83.1546L32.5144 91.4946H35.5471L39.1274 78.8583H36.3895L33.9465 88.0406ZM52.943 60.5778H61.1987C68.7805 60.5778 74.9301 54.4282 74.9301 46.8464V20.7314C74.9301 13.1497 68.7805 7 61.1987 7H52.9009C52.6903 7 52.5639 7.16848 52.5639 7.33697V60.1987C52.5639 60.4093 52.7324 60.5778 52.943 60.5778ZM63.1363 31.051C66.1269 31.051 68.5699 33.4941 68.5699 36.4846C68.5699 39.4752 66.1269 41.9182 63.1363 41.9182C60.1457 41.9182 57.7027 39.4752 57.7027 36.4846C57.7448 33.4941 60.1457 31.051 63.1363 31.051ZM21.1838 68.7493H19.7096V75.4465H21.1838V68.7493ZM9.97968 70.9817L13.3072 75.4465H14.613V68.7493H13.2651V73.172L9.97968 68.7914H8.63181V75.4886H9.97968V70.9817ZM13.939 83.8707H13.8548C12.2963 83.6179 10.9906 83.3652 10.8642 82.4807C10.8642 82.3543 10.8642 82.0595 11.0748 81.7646C11.496 81.2592 12.4648 81.0486 13.8969 81.0486C15.5396 81.0486 17.1824 81.6804 17.7721 81.9331L18.6566 79.7428C18.0248 79.4901 16.003 78.774 13.7706 78.774C11.0327 78.774 8.12636 80.1219 8.12636 82.5649C8.12636 84.5446 9.51635 85.5976 13.1388 86.2294C15.7081 86.6507 17.0981 86.9034 17.056 87.9985C17.0139 88.5882 16.5505 89.5991 13.6863 89.5991C11.3697 89.5991 9.72696 88.7567 9.17939 88.4197L8 90.5679C8.63181 90.9049 10.78 91.9158 13.5178 91.9158C17.5193 91.9158 19.6675 90.5258 19.6675 87.8722C19.7096 85.9767 18.783 84.7131 13.939 83.8707ZM29.6923 23.0902C29.6923 25.8702 31.9668 28.1447 34.7468 28.1447C37.5268 28.1447 39.8013 25.8702 39.8013 23.0902C39.8013 20.3102 37.5268 18.0357 34.7468 18.0357C31.9247 18.0357 29.6923 20.2681 29.6923 23.0902ZM52.7745 74.225H48.9415V72.6665H52.4797V71.445H48.9415V70.0129H52.7745V68.7914H47.5515V75.4886H52.7745V74.225ZM84.1125 68.5387C82.1328 68.5387 80.5322 70.1393 80.5322 72.1189C80.5322 74.0986 82.1328 75.6992 84.1125 75.6992C86.0922 75.6992 87.6928 74.0986 87.6928 72.1189C87.6507 70.1393 86.0501 68.5387 84.1125 68.5387ZM84.1125 74.1829C82.9752 74.1829 82.0486 73.2562 82.0486 72.1189C82.0486 70.9817 82.9752 70.055 84.1125 70.055C85.2498 70.055 86.1764 70.9817 86.1764 72.1189C86.1764 73.2562 85.2498 74.1829 84.1125 74.1829ZM84.5337 83.8707H78.6368V78.9004H76.0253V91.5367H78.6368V86.4822H84.5337V91.5367H87.1452V78.9004H84.5337V83.8707ZM88.1982 90.2309H88.7458V91.5367H89.0406V90.2309H89.5461V89.9361H88.1982V90.2309ZM91.1046 89.894L90.6833 91.0733L90.2621 89.894H89.7988V91.4946H90.0937V90.2731L90.5149 91.4946H90.8097L91.2309 90.2731V91.4946H91.5258V89.894H91.1046ZM67.6432 81.3013C69.0753 81.3013 70.3811 82.0595 71.0971 83.281L73.1611 81.5119C71.8974 79.6586 69.8335 78.5213 67.559 78.5213C63.8523 78.5213 60.8196 81.554 60.8196 85.2607C60.8196 88.9673 63.8523 92 67.559 92C69.8335 92 71.8974 90.9049 73.1611 89.0094L71.0971 87.2403C70.3811 88.4197 69.0753 89.22 67.6432 89.22C65.4529 89.22 63.6417 87.4509 63.6417 85.3028C63.6417 83.1546 65.4108 81.3013 67.6432 81.3013ZM48.1412 81.554H52.1848V91.4946H54.9227V81.554H58.8821V78.8583H48.1833V81.554H48.1412ZM64.3157 75.4465V68.7493H62.9678V73.172L59.6824 68.7914H58.3345V75.4886H59.6824V71.0238L63.0099 75.4886H64.3157V75.4465ZM46.7934 7H35.0837C27.502 7 21.3523 13.1497 21.3523 20.7314V46.8464C21.3523 54.4282 27.502 60.5778 35.0837 60.5778H46.7934C47.004 60.5778 47.1725 60.4093 47.1725 60.1987V7.37909C47.1725 7.16848 47.004 7 46.7934 7ZM42.8761 56.2815H35.0837C32.5565 56.2815 30.1977 55.3127 28.4286 53.5015C26.6596 51.7324 25.6487 49.3736 25.6487 46.8464V20.7314C25.6487 18.2042 26.6174 15.8454 28.4286 14.0763C30.1977 12.3072 32.5565 11.2963 35.0837 11.2963H42.8761V56.2815ZM72.7398 68.7493H69.9599V75.4465H72.7398C74.6353 75.4465 76.1938 73.9301 76.1938 72.1189C76.1938 70.2656 74.6353 68.7493 72.7398 68.7493ZM72.8241 74.0565H71.3498V70.1814H72.8241C73.8771 70.1814 74.7617 71.0659 74.7617 72.1189C74.7617 73.172 73.8771 74.0565 72.8241 74.0565Z" fill="white"/>
</svg>
