<svg width="100" height="100" viewBox="0 0 100 100" fill="none" xmlns="http://www.w3.org/2000/svg">
<rect width="100" height="100" rx="24" fill="white"/>
<g clip-path="url(#clip0_412_36)">
<path opacity="0.98" d="M49.788 7L86.5709 28.2855V70.7592L49.788 92L13.0051 70.7579V28.2723L49.788 7Z" fill="#8F0000"/>
<path fill-rule="evenodd" clip-rule="evenodd" d="M49.6002 87.678L45.9059 85.7393L17.0944 54.3175L17.6024 52.6783H31.7717L34.3616 44.0693L36.6391 47.3358L44.2516 38.7908L50.5384 37.1018L50.8199 41.5119L55.2301 41.981L59.6402 42.075L71.088 42.3565L73.0532 33.1177L82.8677 44.6393L82.5926 53.2094L67.4709 53.2133L67.2101 61.1499L83.0044 62.8121L83.1916 68.4207L49.6002 87.678Z" fill="black" fill-opacity="0.199"/>
<path opacity="0.98" d="M15.8623 54.488V68.6954C15.8623 68.8107 15.8927 68.924 15.9503 69.0238C16.008 69.1237 16.0909 69.2066 16.1907 69.2642L49.4595 88.4399C49.5594 88.4976 49.6727 88.5279 49.7879 88.5279C49.9032 88.5279 50.0165 88.4976 50.1164 88.4399L83.3339 69.2629C83.5372 69.1456 83.6811 68.9287 83.6811 68.6941V30.3491C83.6811 30.1145 83.5372 29.8976 83.3339 29.7803L50.1164 10.6072C50.021 10.5523 49.9133 10.5222 49.8033 10.5197C49.6829 10.5168 49.5639 10.5471 49.4595 10.6072L16.1907 29.7803C16.0909 29.8379 16.008 29.9209 15.9503 30.0207C15.8927 30.1206 15.8623 30.2338 15.8623 30.3491V51.5604V54.488ZM49.7879 11.9342L82.3671 30.7276V51.5336H69.3148C67.005 51.5336 65.0266 53.4624 65.0266 55.7724V56.3399C57.1822 56.282 54.843 54.2517 51.9254 51.7005C49.5004 49.5797 46.4626 47.2593 40.353 46.2898C41.4921 45.1474 42.1773 43.8496 42.7876 42.7426C43.4437 41.5532 44.0369 40.6109 44.9859 39.9597C45.725 39.4525 46.9868 39.1468 48.6204 39.0497V39.5831C48.6204 41.8929 50.4142 43.7829 52.724 43.7829H69.4471C71.7569 43.7829 73.8285 41.893 73.8285 39.5831V35.474C73.8285 33.1642 71.7652 31.3031 69.4554 31.3031L52.7323 31.3028C50.4225 31.3028 48.6204 33.1639 48.6204 35.4738V36.2229C46.46 36.3295 44.6213 36.7526 43.3724 37.6098C41.8272 38.6703 40.9821 40.1108 40.2903 41.3651C39.5986 42.6195 39.0315 43.6987 38.2075 44.4546C37.5047 45.0991 36.5206 45.5412 34.921 45.7431C34.7141 43.6199 32.8678 42.0876 30.6946 42.0752H17.2084V30.7277L49.7879 11.9342ZM52.7324 34.1931H69.4555C70.2354 34.1931 70.8071 34.6938 70.8071 35.4739V39.5828C70.8071 40.3627 70.2271 40.8928 69.4472 40.8928H52.7241C51.9442 40.8928 51.3098 40.3627 51.3098 39.5828V35.4739C51.3098 34.6941 51.9525 34.1932 52.7323 34.1932L52.7324 34.1931ZM17.2093 44.7025H30.6942C31.4741 44.7025 32.0536 45.3488 32.0536 46.1287V50.238C32.0536 51.0179 31.4741 51.5336 30.6942 51.5336H17.2093V44.7025ZM35.0018 48.6754C44.4224 48.8237 47.0211 51.197 50.0499 53.8459C52.9565 56.3877 56.533 59.0561 65.0271 59.1684V59.8817C65.0271 62.1915 67.0054 64.0135 69.3153 64.0135H82.3676V68.3154L49.7885 87.1127L17.2093 68.3154V54.4233H30.6955C33.0054 54.4233 35.0014 52.5477 35.0014 50.2379L35.0018 48.6754ZM69.3162 54.4236H82.3683V61.1234H69.3162C68.5363 61.1234 67.9178 60.5892 67.9178 59.8093V55.7724C67.9178 54.9925 68.5363 54.4236 69.3162 54.4236Z" fill="white"/>
</g>
<defs>
<clipPath id="clip0_412_36">
<rect width="73.576" height="85" fill="white" transform="translate(13 7)"/>
</clipPath>
</defs>
</svg>
