<svg width="100" height="100" viewBox="0 0 100 100" fill="none" xmlns="http://www.w3.org/2000/svg">
<rect width="100" height="100" rx="24" fill="#020421"/>
<path d="M54.6857 77.459H86.2838C87.2875 77.4591 88.2734 77.2029 89.1426 76.716C90.0117 76.2292 90.7334 75.5291 91.235 74.6859C91.7366 73.8427 92.0004 72.8862 92 71.9128C91.9995 70.9393 91.7348 69.9831 91.2324 69.1403L70.012 33.4882C69.5105 32.6452 68.789 31.9452 67.92 31.4584C67.051 30.9717 66.0654 30.7155 65.0619 30.7155C64.0585 30.7155 63.0727 30.9717 62.2038 31.4584C61.3349 31.9452 60.6133 32.6452 60.1117 33.4882L54.6857 42.6103L44.0771 24.7723C43.5751 23.9294 42.8533 23.2294 41.984 22.7428C41.1149 22.2562 40.1289 22 39.1254 22C38.1218 22 37.1358 22.2562 36.2667 22.7428C35.3975 23.2294 34.6757 23.9294 34.1736 24.7723L7.7675 69.1403C7.26515 69.9831 7.00044 70.9393 7 71.9128C6.99956 72.8862 7.26341 73.8427 7.76501 74.6859C8.26661 75.5291 8.98827 76.2292 9.85741 76.716C10.7266 77.2029 11.7125 77.4591 12.7161 77.459H32.5507C40.4095 77.459 46.205 74.1105 50.1929 67.5782L59.8746 51.3142L65.0604 42.6103L80.6238 68.755H59.8746L54.6857 77.459ZM32.2274 68.746L18.3854 68.743L39.1347 33.8854L49.4876 51.3142L42.5558 62.9633C39.9075 67.2018 36.8989 68.746 32.2274 68.746Z" fill="#00DC82"/>
</svg>
