<svg width="100" height="100" viewBox="0 0 100 100" fill="none" xmlns="http://www.w3.org/2000/svg">
<rect width="100" height="100" rx="24" fill="#212121"/>
<path d="M70.5751 86.0098C70.0515 89.8359 66.2858 92.8364 62.5201 91.7892C57.1837 90.3393 51.0015 88.0437 45.4436 87.6208L36.9054 86.9764C35.5337 86.8799 34.2446 86.2854 33.2806 85.305L18.5803 70.2422C16.9827 68.6003 16.5515 66.1485 17.4929 64.06C17.4929 64.06 26.5547 44.2045 26.9172 43.1775C27.2394 42.1505 28.4879 33.129 29.2129 28.296C29.4161 27.0127 30.0563 25.839 31.0252 24.9733L48.3837 9.42724C49.5396 8.39036 51.0719 7.87606 52.6193 8.00565C54.1667 8.13523 55.5921 8.89722 56.5595 10.1119L71.1792 28.5578C71.9973 29.6112 72.4371 30.9092 72.4277 32.2429C72.4277 35.7267 72.7298 42.9157 74.6831 47.5473C76.6213 51.7128 79.0264 55.6447 81.852 59.2673C82.552 60.176 82.6316 61.4181 82.0534 62.4087C80.7848 64.5634 78.2475 68.7118 74.6831 74.0079C72.4266 77.6494 71.0159 81.7507 70.555 86.0098H70.5751Z" fill="black" fill-opacity="0.3"/>
<path d="M70.716 85.3655C70.1925 89.2117 66.4268 92.2122 62.6611 91.1852C57.3448 89.7152 51.1828 87.4195 45.6047 86.9966L37.0866 86.3522C35.7117 86.2521 34.4217 85.6501 33.4618 84.6607L18.7615 69.5576C17.1482 67.8992 16.7166 65.4213 17.6741 63.315C17.6741 63.315 26.7561 43.379 27.0984 42.3319C27.4407 41.3049 28.6691 32.2632 29.3941 27.3899C29.5929 26.0994 30.2335 24.9179 31.2064 24.0471L48.5649 8.4406C49.7234 7.40601 51.2574 6.89514 52.8049 7.02854C54.3524 7.16195 55.7763 7.92781 56.7407 9.14541L71.3403 27.6718C72.1556 28.7267 72.595 30.0238 72.5888 31.357C72.5888 34.8609 72.8909 42.0701 74.8241 46.7218C76.7609 50.9069 79.1658 54.8589 81.993 58.5022C82.7083 59.4109 82.7961 60.6642 82.2145 61.6638C80.9257 63.8386 78.4085 67.9869 74.8241 73.3233C72.5758 76.9817 71.1724 81.0958 70.716 85.3655Z" fill="#6C31E3"/>
<path d="M35.0325 85.7883C41.8591 71.9539 41.6779 62.0262 38.7579 54.9781C36.0998 48.4536 31.1259 44.3455 27.2192 41.7881C27.1387 42.1707 27.0178 42.5332 26.8567 42.8755L17.6741 63.315C16.7218 65.4253 17.1615 67.9037 18.7816 69.5576L33.4618 84.6606C33.925 85.1238 34.4687 85.5064 35.0325 85.7883Z" fill="url(#paint0_radial_415_526)"/>
<path d="M53.5992 57.7167C55.4317 57.898 57.2239 58.3007 58.996 58.9451C64.5942 61.0394 69.689 65.7516 73.8977 74.8335C74.1998 74.31 74.5018 73.8065 74.824 73.3232C77.3961 69.5066 79.8605 65.6185 82.2145 61.6637C82.8018 60.6682 82.722 59.415 82.0131 58.5021C79.1789 54.8598 76.7672 50.9078 74.824 46.7217C72.8908 42.0901 72.6089 34.8608 72.5888 31.3569C72.5888 30.0278 72.1659 28.7189 71.3403 27.6717L56.7406 9.14532L56.499 8.84326C57.5663 12.3673 57.5059 15.1865 56.8413 17.744C56.2372 20.1202 55.1095 22.2749 53.9214 24.5504C53.5187 25.3157 53.1159 26.101 52.7333 26.9065C50.8395 30.5234 49.754 34.5085 49.5516 38.5862C49.3502 43.4595 50.337 49.5611 53.5791 57.7167H53.5992Z" fill="url(#paint1_radial_415_526)"/>
<path d="M53.5791 57.7167C50.337 49.5611 49.3502 43.4595 49.5516 38.5862C49.753 33.7532 51.1626 30.1285 52.7333 26.9065L53.9416 24.5504C55.1095 22.2749 56.2171 20.1202 56.8414 17.744C57.5828 14.8056 57.4639 11.716 56.499 8.84326C54.414 6.55235 50.8712 6.37251 48.5649 8.44052L31.2064 24.047C30.2335 24.9178 29.5929 26.0993 29.3941 27.3898L27.2797 41.4054C27.2797 41.5464 27.2394 41.6672 27.2192 41.8082C31.1259 44.3455 36.0797 48.4535 38.758 54.9579C39.2815 56.2467 39.7246 57.5959 40.0468 59.066C44.4473 57.8456 49.0233 57.3826 53.5791 57.6966V57.7167Z" fill="url(#paint2_radial_415_526)"/>
<path d="M62.6813 91.1851C66.4268 92.2121 70.1925 89.2116 70.7161 85.3452C71.1449 81.6778 72.2294 78.1173 73.9179 74.8335C69.6891 65.7515 64.5943 61.0394 59.0163 58.9451C53.0757 56.73 46.6116 57.4751 40.0468 59.0659C41.5168 65.7314 40.6509 74.4509 35.0527 85.7883C35.677 86.1105 36.3818 86.2917 37.0866 86.3521L45.9269 87.0166C50.7196 87.359 57.8684 89.8359 62.6813 91.1851Z" fill="url(#paint3_radial_415_526)"/>
<path d="M49.5919 38.2841C49.3704 43.1171 49.9745 48.6348 53.2166 56.7703L52.2098 56.6696C49.2898 48.1917 48.6454 43.842 48.867 38.9487C49.0683 34.0553 50.6592 30.2896 52.2299 27.0676C52.6327 26.2621 53.559 24.7518 53.9617 23.9866C55.1297 21.711 55.915 20.5229 56.5796 18.4488C57.5462 15.549 57.3448 14.1796 57.224 12.8103C57.9691 17.744 55.1297 22.0332 52.9951 26.4031C51.019 30.0736 49.8517 34.1248 49.5718 38.2841H49.5919Z" fill="url(#paint4_radial_415_526)"/>
<path d="M39.7246 55.3204C40.1273 56.2065 40.4697 56.9314 40.7113 58.039L39.8454 58.2404C39.5031 56.9516 39.2413 56.0252 38.7378 54.9177C35.7978 48.0106 31.0856 44.4462 27.2595 41.8284C31.8911 44.3254 36.6637 48.2522 39.7246 55.3204Z" fill="url(#paint5_radial_415_526)"/>
<path d="M40.7517 58.9249C42.3626 66.4765 40.5503 76.082 35.2139 85.4258C39.6844 76.1625 41.8592 67.2819 40.0468 59.0457L40.7517 58.9048V58.9249Z" fill="url(#paint6_radial_415_526)"/>
<path d="M59.1975 58.2201C67.9573 61.5025 71.3404 68.6916 73.8575 74.7127C70.7362 68.4298 66.4067 61.4824 58.8753 58.9048C53.1563 56.9313 48.3233 57.173 40.0468 59.0458L39.8656 58.2403C48.6455 56.2265 53.2368 55.9849 59.1975 58.2403V58.2201Z" fill="url(#paint7_radial_415_526)"/>
<defs>
<radialGradient id="paint0_radial_415_526" cx="0" cy="0" r="1" gradientUnits="userSpaceOnUse" gradientTransform="translate(1728.26 4306.89) scale(3848.77 7206.94)">
<stop stop-color="white" stop-opacity="0.4"/>
<stop offset="1" stop-opacity="0.1"/>
</radialGradient>
<radialGradient id="paint1_radial_415_526" cx="0" cy="0" r="1" gradientUnits="userSpaceOnUse" gradientTransform="translate(1799.95 5989.65) scale(6296.96 12562)">
<stop stop-color="white" stop-opacity="0.6"/>
<stop offset="1" stop-color="white" stop-opacity="0.1"/>
</radialGradient>
<radialGradient id="paint2_radial_415_526" cx="0" cy="0" r="1" gradientUnits="userSpaceOnUse" gradientTransform="translate(965.622 5064.58) scale(5379.74 9304.92)">
<stop stop-color="white" stop-opacity="0.8"/>
<stop offset="1" stop-color="white" stop-opacity="0.4"/>
</radialGradient>
<radialGradient id="paint3_radial_415_526" cx="0" cy="0" r="1" gradientUnits="userSpaceOnUse" gradientTransform="translate(2826.1 3440.19) scale(3578.94 3115.12)">
<stop stop-color="white" stop-opacity="0.3"/>
<stop offset="1" stop-opacity="0.3"/>
</radialGradient>
<radialGradient id="paint4_radial_415_526" cx="0" cy="0" r="1" gradientUnits="userSpaceOnUse" gradientTransform="translate(1045.59 1541.24) scale(2800.26 14450.9)">
<stop stop-color="white" stop-opacity="0"/>
<stop offset="1" stop-color="white" stop-opacity="0.2"/>
</radialGradient>
<radialGradient id="paint5_radial_415_526" cx="0" cy="0" r="1" gradientUnits="userSpaceOnUse" gradientTransform="translate(-99.6062 184.804) scale(2064.75 2519.12)">
<stop stop-color="white" stop-opacity="0.2"/>
<stop offset="1" stop-color="white" stop-opacity="0.4"/>
</radialGradient>
<radialGradient id="paint6_radial_415_526" cx="0" cy="0" r="1" gradientUnits="userSpaceOnUse" gradientTransform="translate(669.542 -529.107) scale(2410.1 10469.7)">
<stop stop-color="white" stop-opacity="0.1"/>
<stop offset="1" stop-color="white" stop-opacity="0.3"/>
</radialGradient>
<radialGradient id="paint7_radial_415_526" cx="0" cy="0" r="1" gradientUnits="userSpaceOnUse" gradientTransform="translate(3416.91 1668.77) scale(6928.39 3684.04)">
<stop stop-color="white" stop-opacity="0.2"/>
<stop offset="0.5" stop-color="white" stop-opacity="0.2"/>
<stop offset="1" stop-color="white" stop-opacity="0.3"/>
</radialGradient>
</defs>
</svg>
