<svg width="100" height="100" viewBox="0 0 100 100" fill="none" xmlns="http://www.w3.org/2000/svg">
<rect width="100" height="100" rx="24" fill="#5586A4"/>
<path d="M20.9391 42.1349C20.973 42.1183 21.007 42.102 21.0412 42.0859C21.9872 41.6399 23.0889 41.4166 24.3458 41.4166C25.6022 41.4166 26.7039 41.64 27.6499 42.0859C28.5958 42.5316 29.3871 43.1293 30.0225 43.8775C30.658 44.6257 31.1351 45.4858 31.4528 46.457C31.7706 47.4281 31.93 48.439 31.93 49.4895C31.93 50.5401 31.7706 51.5513 31.4528 52.5224C31.1351 53.4936 30.658 54.3537 30.0225 55.1021C29.3871 55.8502 28.5958 56.4441 27.6499 56.8829C26.7039 57.3212 25.6022 57.5411 24.3458 57.5411C23.0889 57.5411 21.9872 57.3212 21.0412 56.8829C20.843 56.791 20.6517 56.6922 20.4671 56.5867C25.3965 61.0559 34.8868 64.0816 45.785 64.0816C54.6499 64.0816 62.5951 62.2872 67.8998 59.1345C62.0945 64.4127 51.7393 68.1356 39.9158 68.1337C21.7353 68.1312 6.99843 59.8156 7 49.5617C7.00157 39.3076 21.7412 30.9971 39.9216 31C51.7923 31.0018 62.1744 34.7366 67.9648 40.0519C62.6599 36.8796 54.6824 35.0519 45.785 35.0519C35.225 35.0519 25.9869 37.8927 20.9391 42.1349ZM19.1722 51.7962C19.3796 52.5525 19.7052 53.233 20.1494 53.8378C20.5933 54.4428 21.1631 54.9289 21.8591 55.2965C22.5545 55.6638 23.3832 55.8471 24.3458 55.8471C25.308 55.8471 26.1366 55.6638 26.8326 55.2965C27.528 54.9289 28.0979 54.4428 28.5421 53.8378C28.9859 53.233 29.3115 52.5525 29.5188 51.7962C29.726 51.0398 29.8298 50.2728 29.8298 49.495C29.8298 48.7173 29.726 47.9509 29.5188 47.1945C29.3115 46.4381 28.9858 45.7577 28.5421 45.1524C28.0978 44.5477 27.528 44.0616 26.8326 43.6942C26.1366 43.3267 25.3079 43.143 24.3458 43.143C23.3832 43.143 22.5545 43.3267 21.8591 43.6942C21.1631 44.0617 20.5933 44.5478 20.1494 45.1524C19.7052 45.7577 19.3796 46.4381 19.1722 47.1945C18.965 47.9508 18.8618 48.7173 18.8618 49.495C18.8618 50.2728 18.965 51.0398 19.1722 51.7962ZM35.0541 47.3783V48.7097H35.0875C35.3595 48.1646 35.7871 47.7681 36.3705 47.5207C36.9539 47.2734 37.5951 47.1497 38.2952 47.1497C39.0724 47.1497 39.7496 47.2891 40.3266 47.568C40.9033 47.847 41.3825 48.2237 41.7649 48.6985C42.1472 49.1739 42.4352 49.7215 42.6301 50.3421C42.8244 50.9629 42.9218 51.6216 42.9218 52.3183C42.9218 53.0151 42.8275 53.6738 42.6399 54.2948C42.4518 54.9156 42.167 55.4572 41.7846 55.9194C41.4023 56.3816 40.9225 56.746 40.3459 57.0116C39.7686 57.2774 39.0983 57.4106 38.3336 57.4106C38.0872 57.4106 37.8117 57.3853 37.5074 57.3348C37.2028 57.2835 36.9017 57.2016 36.6037 57.0875C36.3058 56.9735 36.0234 56.8176 35.7578 56.6213C35.4922 56.4248 35.2687 56.1811 35.0874 55.8889H35.0541V60.9614H33.3872V47.3783H35.0541ZM40.9705 50.8719C40.8476 50.4352 40.6607 50.0458 40.4086 49.7037C40.1564 49.3618 39.833 49.0895 39.4386 48.8869C39.0438 48.6844 38.5818 48.583 38.0521 48.583C37.4957 48.583 37.0239 48.691 36.6363 48.9063C36.2482 49.1216 35.9316 49.403 35.6857 49.7512C35.4398 50.0993 35.2622 50.4953 35.1523 50.9387C35.0423 51.3819 34.9876 51.8314 34.9876 52.2869C34.9876 52.7684 35.0454 53.2337 35.1622 53.6831C35.2783 54.1331 35.4627 54.5285 35.7149 54.8706C35.9669 55.2126 36.293 55.488 36.6941 55.6968C37.0952 55.9058 37.5802 56.0102 38.1489 56.0102C38.7178 56.0102 39.1928 55.9028 39.5741 55.6875C39.9555 55.4722 40.2628 55.1873 40.4956 54.8325C40.728 54.4782 40.8962 54.0731 40.9998 53.617C41.103 53.161 41.155 52.6927 41.155 52.2112C41.1549 51.7554 41.0934 51.3091 40.9705 50.8719ZM51.4235 56.5754C50.6702 57.1323 49.7228 57.4106 48.5798 57.4106C47.7745 57.4106 47.076 57.284 46.4853 57.031C45.894 56.7776 45.3972 56.4228 44.9945 55.9667C44.5919 55.5107 44.2898 54.9661 44.0887 54.3325C43.8877 53.6991 43.7741 53.0085 43.748 52.2613C43.748 51.5141 43.8647 50.8301 44.0991 50.2091C44.3329 49.5882 44.6611 49.0497 45.0836 48.5936C45.506 48.1375 46.0066 47.7833 46.5848 47.5298C47.163 47.2764 47.7969 47.1497 48.4861 47.1497C49.3831 47.1497 50.1269 47.3308 50.7186 47.6922C51.3104 48.0541 51.7849 48.5142 52.1422 49.0726C52.4996 49.6314 52.747 50.2407 52.8835 50.9003C53.02 51.5604 53.0752 52.1885 53.0492 52.7851H45.5149C45.5019 53.2152 45.5535 53.6229 45.6702 54.0087C45.7868 54.3944 45.9744 54.736 46.2338 55.0333C46.4932 55.3305 46.8234 55.5671 47.2256 55.7442C47.6272 55.9214 48.1002 56.0099 48.6445 56.0099C49.344 56.0099 49.9176 55.8517 50.3645 55.5345C50.8114 55.2174 51.1062 54.7355 51.249 54.0881H52.8846C52.6637 55.1895 52.1767 56.0186 51.4235 56.5754ZM51.0196 50.2707C50.8709 49.9297 50.6702 49.6355 50.4182 49.3892C50.1655 49.1428 49.8676 48.9469 49.5247 48.8013C49.1814 48.6557 48.8028 48.583 48.3887 48.583C47.9616 48.583 47.5761 48.6557 47.2333 48.8013C46.89 48.9469 46.5958 49.1459 46.3499 49.3983C46.104 49.6512 45.9097 49.9455 45.7674 50.2804C45.6248 50.6153 45.5409 50.9725 45.5149 51.3517H51.2824C51.2562 50.9725 51.1687 50.6122 51.0196 50.2707ZM55.7208 47.3783V48.9383H55.7521C56.4427 47.7462 57.5382 47.1497 59.0379 47.1497C59.7026 47.1497 60.2566 47.2387 60.7005 47.4164C61.1437 47.594 61.5021 47.8413 61.7761 48.1586C62.0501 48.4756 62.2423 48.8528 62.3532 49.2905C62.4636 49.7282 62.5194 50.2134 62.5194 50.7462V57.2153H60.8526V50.5604C60.8526 49.9521 60.6702 49.4706 60.3061 49.1154C59.9415 48.7605 59.441 48.5829 58.8038 48.5829C58.2967 48.5829 57.8574 48.6593 57.4866 48.8114C57.1157 48.9637 56.8068 49.1789 56.5599 49.4578C56.3132 49.7367 56.1277 50.063 56.0042 50.4366C55.8803 50.8106 55.8187 51.2194 55.8187 51.6632V57.215H54.1519V47.3783H55.7208ZM74.0422 57.1083C73.2895 57.4184 72.5294 57.5737 71.7627 57.5737C70.5522 57.5737 69.464 57.3674 68.4973 56.9562C67.5304 56.5445 66.7154 55.9775 66.0512 55.2547C65.387 54.5325 64.878 53.6835 64.5237 52.7083C64.1697 51.7332 63.9926 50.6816 63.9926 49.5547C63.9926 48.3993 64.1692 47.3263 64.5223 46.3364C64.8756 45.347 65.3833 44.4838 66.0459 43.7467C66.7086 43.0097 67.5227 42.432 68.4889 42.0126C69.4551 41.5937 70.5433 41.3841 71.7538 41.3841C72.5653 41.3841 73.3509 41.5036 74.1107 41.7424C74.8708 41.9816 75.5569 42.3328 76.1695 42.796C76.782 43.2591 77.2872 43.8302 77.6856 44.5086C78.0842 45.1876 78.328 45.9663 78.4165 46.8458H75.0964C74.8896 45.9811 74.4911 45.3321 73.9009 44.8995C73.3102 44.4669 72.5946 44.2506 71.7537 44.2506C70.9715 44.2506 70.3073 44.3986 69.7614 44.6949C69.2155 44.9911 68.7727 45.3887 68.433 45.887C68.0934 46.3857 67.8465 46.9527 67.692 47.5884C67.5366 48.2242 67.4596 48.8813 67.4596 49.5602C67.4596 50.2107 67.5371 50.8428 67.6923 51.4567C67.8477 52.0705 68.0951 52.6232 68.4347 53.1144C68.7742 53.6055 69.2176 53.9989 69.7645 54.2952C70.311 54.5914 70.976 54.7395 71.7596 54.7395C72.9118 54.7395 73.8015 54.4557 74.4295 53.8875C75.0577 53.3196 75.4235 52.496 75.5271 51.417H72.0299V48.8761H78.6609V57.227H76.4545L76.1012 55.4751C75.4814 56.2538 74.7948 56.7984 74.0422 57.1083ZM84.2965 41.7749V54.3486H92V57.2151H80.8294V41.7749H84.2965Z" fill="white"/>
</svg>
