<svg width="100" height="100" viewBox="0 0 100 100" fill="none" xmlns="http://www.w3.org/2000/svg">
<rect width="100" height="100" rx="24" fill="white"/>
<path d="M72.337 47.7648L67.1637 37.3433L68.8131 44.3159L72.337 47.7648Z" fill="#73B08F"/>
<path d="M66.2659 33.6911L70.2593 50.5604L57.4177 36.99L38.7034 19.5208L33.927 7L66.2659 33.6911Z" fill="#C5E4D3"/>
<path d="M58.4462 37.4081L41.6297 29.3458L32.4494 19.4833L31.2482 12.9866L58.4462 37.4081Z" fill="#76C39B"/>
<path d="M71.3102 51.3L55.4351 47.2532L24.9063 29.6914L13 13.3513L58.7933 37.6324L71.3102 51.3Z" fill="black"/>
<path d="M54.7077 46.7869V47.2558L52.6573 51.0853L41.9494 47.5684L22.0525 32.6415L14.3064 21.5439L23.1916 26.8582L24.5586 28.9683L54.7077 46.7869Z" fill="#73B08F"/>
<path d="M25.8603 35.5675L24.3792 35.3953L19.1951 33.5019L29.8101 43.2273L32.6079 45.379L43.7167 49.0799L25.8603 35.5675Z" fill="black" stroke="black" stroke-width="3.0752"/>
<path d="M69.3812 50.575L69.1563 59.194L68.3316 57.7851L63.5332 57.4536L52.4369 51.0722L54.986 46.597L69.3812 50.575Z" fill="#76C39B"/>
<path d="M24.2213 41.0807L38.0334 51.636L52.3797 56.411L63.4446 57.4163L52.456 51.0496L24.2213 41.0807Z" fill="#C5E4D3"/>
<path d="M30.9191 49.4892L40.5159 54.8124L51.6871 55.9371L38.1916 51.7385L36.0174 50.3889L30.9191 49.4892Z" fill="#76C39B"/>
<path d="M52.2449 55.7209L36.5421 54.3512L44.6314 57.4558L49.945 58.1863L52.2449 55.7209Z" fill="#73B08F"/>
<path d="M48.6881 58.1417L47.3385 58.3406L41.0406 59.236L44.1146 57.1468L48.6881 58.1417Z" fill="#76C39B"/>
<path d="M58.7462 59.5022L58.4387 60.0474L35.4544 73.3653L30.9191 79.3623L32.5333 72.898L37.5299 66.0444L51.8279 56.3869L58.7462 59.5022Z" fill="#76C39B"/>
<path d="M33.6181 66.0587L29.5695 71.3819V69.0577L33.6181 66.0587Z" fill="black"/>
<path d="M66.982 60.4355L51.6121 70.857L50.3375 68.6828L45.0143 79.929L46.2139 81.5785L47.1136 92L40.6658 80.079L45.914 67.1833L58.7347 59.2359L66.982 60.4355Z" fill="#C5E4D3"/>
<path d="M45.914 66.9584L35.6424 72.5065L35.3425 80.1539L38.4915 90.4255V85.1773L45.914 66.9584Z" fill="black"/>
<path d="M33.1683 81.6535L33.3183 82.1783L34.6678 87.8764L32.8684 86.7517L33.1683 81.6535Z" fill="#73B08F"/>
<path d="M51.8784 70.1253L50.5006 68.4249L44.7462 79.3232L53.9046 91.3037L51.6353 85.9704L51.8784 70.1253Z" fill="#73B08F"/>
<path d="M52.9617 69.4745L51.7621 70.1036L51.6871 83.158L53.9364 87.8764L58.135 86.3036L57.985 83.158L53.4116 78.6754L52.9617 69.4745Z" fill="#76C39B"/>
<path d="M73.6649 60.2755L66.6922 62.2249L59.1197 68.6727L54.9961 68.5228L66.9171 60.5005L73.6649 60.2755Z" fill="black"/>
<path d="M70.799 61.1368L68.6139 57.1169L48.9482 55.5773L57.7666 59.2551L70.799 61.1368Z" fill="#73B08F"/>
<path d="M59.3345 68.4231L60.3092 70.7218L62.4085 72.2278H62.7834L62.6334 74.6849L56.1856 77.3799L54.0113 72.3863L53.4115 69.4535L55.3608 67.8683L59.3345 68.4231Z" fill="#73B08F"/>
<path d="M62.7833 81.3535L58.8846 79.6291L57.3851 82.7031L57.91 83.4528L57.835 86.7517L60.684 89.9757L60.2342 83.9027L60.909 83.6028L63.1582 85.7771L62.1086 83.3029L59.7094 82.0283L60.2342 81.1286L62.7833 82.2532V81.3535Z" fill="black"/>
<path d="M63.758 68.5329L62.2585 72.1317L62.5584 75.2056L65.6324 79.0294L65.2575 72.8814L65.7074 72.5815L68.1066 74.6808L67.1319 72.3566L64.4328 70.9321L64.8827 70.1823L67.6567 71.3819L67.5818 70.3323L63.758 68.5329Z" fill="black"/>
<path d="M77.6284 52.6382L69.3062 50.6888V58.4862L70.2808 60.2106L77.6284 60.2856L84.601 62.6848L84.3761 61.7101L80.1025 59.236L71.5554 55.8621L76.4288 55.7871L71.7053 53.6128L77.6284 52.6382Z" fill="#C5E4D3"/>
<path d="M87.3354 59.7658L84.1865 54.6675L76.9889 52.4932L71.2908 53.5429L75.7893 55.7921L71.5907 55.9421L79.463 59.3159L83.9615 61.4902L87.3354 59.7658Z" fill="#73B08F"/>
<path d="M83.2319 65.8337L84.4315 64.0343L83.5318 61.7101L87.2806 59.6108L87.3556 63.8844L85.1063 65.9087L83.2319 65.8337Z" fill="black"/>
<path d="M86.2378 59.1264L83.6646 57.9256L82.2922 59.1264" fill="black"/>
<path d="M86.2378 59.1264L83.6646 57.9256L82.2922 59.1264" stroke="black" stroke-width="0.821918"/>
</svg>
