<svg width="100" height="100" viewBox="0 0 100 100" fill="none" xmlns="http://www.w3.org/2000/svg">
<rect width="100" height="100" rx="24" fill="url(#paint0_linear_349_12)"/>
<path fill-rule="evenodd" clip-rule="evenodd" d="M87.2152 43.0216C86.3738 54.3926 77.334 64.6739 65.7193 65.1429V56.5399C65.7193 48.6634 60.105 41.8537 52.3711 40.3501L23.5687 34.7497V15.3182C23.5687 10.0902 28.3415 6.15426 33.473 7.15664L63.0984 12.9134C79.4905 16.4815 88.259 29.048 87.2244 43.0216H87.2198H87.2152ZM33.7811 70.187L16.736 66.8764C14.2806 66.4028 12 68.2788 12 70.7801V82.5788C12 85.5215 14.0875 88.0505 16.9751 88.6161L34.0202 91.9267C36.4755 92.4003 38.7562 90.5197 38.7562 88.0229V76.2243C38.7562 73.2815 36.6686 70.7526 33.7811 70.187ZM51.0054 46.7414L25.0079 41.6927C21.2605 40.9663 17.789 43.8354 17.789 47.6472V60.4575C17.8487 60.4713 17.9177 60.4759 17.9775 60.4897L35.0225 63.8003C40.9541 64.9544 45.267 70.1732 45.267 76.2243V78.9003L51.8653 80.1832C55.6081 80.9097 59.0842 78.0405 59.0842 74.2287V56.5445C59.0842 51.7671 55.6909 47.6565 51.0008 46.7414H51.0054Z" fill="white"/>
<defs>
<linearGradient id="paint0_linear_349_12" x1="50" y1="0" x2="50" y2="100" gradientUnits="userSpaceOnUse">
<stop stop-color="#6B53FF"/>
<stop offset="1" stop-color="#8D49F7"/>
</linearGradient>
</defs>
</svg>
