<svg width="100" height="100" viewBox="0 0 100 100" fill="none" xmlns="http://www.w3.org/2000/svg">
<rect width="100" height="100" rx="24" fill="#8247E5"/>
<path d="M71.3603 35.859C69.8068 34.9713 67.8094 34.9713 66.0339 35.859L53.6057 43.1828L45.1723 47.8433L32.9661 55.1671C31.4125 56.0548 29.4151 56.0548 27.6397 55.1671L18.0966 49.3969C16.5431 48.5091 15.4334 46.7337 15.4334 44.7363V33.6397C15.4334 31.8642 16.3211 30.0888 18.0966 28.9791L27.6397 23.4308C29.1932 22.5431 31.1906 22.5431 32.9661 23.4308L42.5091 29.201C44.0627 30.0888 45.1723 31.8642 45.1723 33.8616V41.1854L53.6057 36.3029V28.7572C53.6057 26.9817 52.718 25.2063 50.9426 24.0966L33.188 13.6658C31.6345 12.7781 29.6371 12.7781 27.8616 13.6658L9.66319 24.3185C7.88773 25.2063 7 26.9817 7 28.7572V49.6188C7 51.3943 7.88773 53.1697 9.66319 54.2794L27.6397 64.7102C29.1932 65.5979 31.1906 65.5979 32.9661 64.7102L45.1723 57.6084L53.6057 52.7258L65.812 45.624C67.3655 44.7363 69.3629 44.7363 71.1384 45.624L80.6815 51.1723C82.235 52.0601 83.3447 53.8355 83.3447 55.8329V66.9295C83.3447 68.705 82.4569 70.4804 80.6815 71.5901L71.3603 77.1384C69.8068 78.0261 67.8094 78.0261 66.0339 77.1384L56.4909 71.5901C54.9373 70.7023 53.8277 68.9269 53.8277 66.9295V59.8277L45.3943 64.7102V72.0339C45.3943 73.8094 46.282 75.5849 48.0574 76.6945L66.0339 87.1253C67.5875 88.013 69.5849 88.013 71.3603 87.1253L89.3368 76.6945C90.8903 75.8068 92 74.0313 92 72.0339V50.9504C92 49.1749 91.1123 47.3995 89.3368 46.2898L71.3603 35.859Z" fill="white"/>
</svg>
