<svg width="100" height="100" viewBox="0 0 100 100" fill="none" xmlns="http://www.w3.org/2000/svg">
<rect width="100" height="100" rx="24" fill="#EE4C2C"/>
<path d="M74.9071 31.859L68.595 38.1712C78.9594 48.5356 78.9594 65.2122 68.595 75.4208C58.2306 85.7852 41.554 85.7852 31.3454 75.4208C20.981 65.0564 20.981 48.3798 31.3454 38.1712L47.7882 21.7284L50.126 19.3906V7L25.3449 31.7811C11.5517 45.5744 11.5517 67.8618 25.3449 81.6551C39.1382 95.4483 61.4256 95.4483 74.9851 81.6551C88.7004 67.8618 88.7004 45.7302 74.9071 31.859Z" fill="white"/>
<path d="M62.5166 30.3785C65.0558 30.3785 67.1143 28.3201 67.1143 25.7808C67.1143 23.2415 65.0558 21.183 62.5166 21.183C59.9773 21.183 57.9188 23.2415 57.9188 25.7808C57.9188 28.3201 59.9773 30.3785 62.5166 30.3785Z" fill="white"/>
</svg>
