<svg width="100" height="100" viewBox="0 0 100 100" fill="none" xmlns="http://www.w3.org/2000/svg">
<rect width="100" height="100" rx="24" fill="#41CD52"/>
<path d="M83.8303 18H80.8753H18.7911L7 29.9812V70.046V73.3139V81.6151H15.1697H18.1247H80.2089L92 69.6342V29.5688V26.3015V18H83.8303Z" fill="white"/>
<path d="M38.694 29.1273C44.2274 29.1273 48.1094 30.7172 50.3112 33.9259C52.5419 37.1052 53.6428 42.0214 53.6428 48.6743C53.6428 53.0603 53.1793 56.5929 52.2812 59.272C51.3539 61.9803 49.8766 64.041 47.7907 65.454L52.2812 72.8426L46.7478 75.4629L41.9676 67.4849C41.2723 67.691 40.2004 67.809 38.694 67.809C33.1026 67.809 29.1916 66.2782 26.9898 63.2164C24.788 60.1552 23.6871 55.2979 23.6871 48.7035C23.6871 42.08 24.817 37.1641 27.0477 33.9554C29.2785 30.7463 33.1605 29.1273 38.694 29.1273ZM66.9114 31.2471V39.1953H74.3279V44.2878H66.9114V56.3282C66.9114 58.5652 67.0852 60.0371 67.4039 60.7439C67.7223 61.4799 68.5627 61.8331 69.8664 61.8331L74.27 61.6562L74.5304 66.4254C72.1551 66.8961 70.3297 67.1319 69.0552 67.1319C66.0133 67.1319 63.9274 66.4254 62.7973 65.0124C61.6677 63.5994 61.0883 60.9202 61.0883 56.9758V44.2587H56.9745V39.1953H61.0883V31.2471H66.9114ZM38.8001 34.0448C35.4468 34.0448 33.1343 35.1829 31.8623 37.4891C30.6193 39.7952 29.9834 43.4491 29.9834 48.5106C29.9834 53.5422 30.5904 57.1662 31.8045 59.3226C33.0186 61.479 35.3601 62.5871 38.8001 62.5871C42.24 62.5871 44.5526 61.5089 45.7667 59.3825C46.9519 57.256 47.5589 53.6321 47.5589 48.5705C47.5589 43.479 46.9519 39.7952 45.7089 37.4891C44.4659 35.1829 42.1533 34.0448 38.8001 34.0448Z" fill="#41CD52"/>
</svg>
