<svg width="100" height="100" viewBox="0 0 100 100" fill="none" xmlns="http://www.w3.org/2000/svg">
<rect width="100" height="100" rx="24" fill="white"/>
<path fill-rule="evenodd" clip-rule="evenodd" d="M76.1547 49.9987C76.1547 51.7 74.7754 53.0761 73.0772 53.0761H26.9215C26.1053 53.0761 25.3225 52.7519 24.7454 52.1748C24.1682 51.5976 23.844 50.8149 23.844 49.9987C23.844 49.1825 24.1682 48.3997 24.7454 47.8226C25.3225 47.2454 26.1053 46.9212 26.9215 46.9212H73.0741C74.7723 46.9212 76.1515 48.2973 76.1515 49.9987M63.8448 66.9185H36.1539C35.7417 66.9316 35.331 66.8618 34.9464 66.7131C34.5617 66.5645 34.2108 66.34 33.9146 66.0531C33.6184 65.7662 33.3829 65.4226 33.222 65.0429C33.0612 64.6632 32.9783 64.255 32.9783 63.8426C32.9783 63.4302 33.0612 63.022 33.222 62.6423C33.3829 62.2625 33.6184 61.919 33.9146 61.6321C34.2108 61.3451 34.5617 61.1207 34.9464 60.972C35.331 60.8234 35.7417 60.7535 36.1539 60.7667H63.8479C64.6641 60.7667 65.4469 61.0909 66.024 61.668C66.6012 62.2452 66.9254 63.0279 66.9254 63.8441C66.9254 64.6603 66.6012 65.4431 66.024 66.0202C65.4469 66.5974 64.6641 66.9216 63.8479 66.9216M36.1539 33.0757H63.8479C64.6641 33.0757 65.4469 33.4 66.024 33.9771C66.6012 34.5542 66.9254 35.337 66.9254 36.1532C66.9254 36.9694 66.6012 37.7522 66.024 38.3293C65.4469 38.9064 64.6641 39.2307 63.8479 39.2307H36.1539C35.3377 39.2307 34.5549 38.9064 33.9778 38.3293C33.4006 37.7522 33.0764 36.9694 33.0764 36.1532C33.0764 35.337 33.4006 34.5542 33.9778 33.9771C34.5549 33.4 35.3377 33.0757 36.1539 33.0757ZM73.1773 25.332C66.9241 19.414 58.6339 16.1284 50.0243 16.1559C49.2988 16.1559 48.5701 16.1778 47.8382 16.2216C30.8684 17.2756 17.2825 30.8646 16.2285 47.8344C15.6405 57.2983 18.8744 66.2961 25.3358 73.1735C28.4891 76.5571 32.3083 79.2519 36.5533 81.0883C40.7983 82.9247 45.3773 83.8631 50.0025 83.8445H83.8483V49.9987C83.8673 45.3735 82.9291 40.7943 81.0926 36.5493C79.2562 32.3043 76.5612 28.4851 73.1773 25.332Z" fill="#F27557"/>
<path fill-rule="evenodd" clip-rule="evenodd" d="M83.8451 83.8445H49.9992C40.5604 83.8445 31.8002 80.0539 25.3326 73.1734C18.8711 66.296 15.6373 57.2982 16.2253 47.8344C17.2761 30.8645 30.862 17.2755 47.835 16.2215C48.5668 16.1777 49.2986 16.1559 50.0242 16.1559C58.6327 16.1291 66.9216 19.4147 73.174 25.332C76.558 28.485 79.2529 32.3042 81.0894 36.5492C82.9258 40.7943 83.864 45.3734 83.8451 49.9986V83.8445ZM77.3868 20.8471C69.2615 13.2097 58.6342 9.37855 47.4534 10.0822C27.3936 11.327 11.3276 27.393 10.0797 47.4528C9.38853 58.6274 13.2103 69.2609 20.8508 77.3862C24.5967 81.3595 29.1137 84.527 34.1254 86.6952C39.1372 88.8634 44.5385 89.9866 49.9992 89.9963H86.9225C88.6208 89.9963 90 88.6202 90 86.9219V49.9986C89.99 44.5377 88.8662 39.1362 86.6975 34.1245C84.5288 29.1127 81.3606 24.5928 77.3868 20.8471Z" fill="#C34027"/>
<path fill-rule="evenodd" clip-rule="evenodd" d="M63.8478 60.7665H36.1537C35.3375 60.7665 34.5547 61.0907 33.9776 61.6679C33.4005 62.245 33.0762 63.0278 33.0762 63.844C33.0762 64.6602 33.4005 65.4429 33.9776 66.0201C34.5547 66.5972 35.3375 66.9214 36.1537 66.9214H63.8478C64.664 66.9214 65.4467 66.5972 66.0239 66.0201C66.601 65.4429 66.9252 64.6602 66.9252 63.844C66.9252 63.0278 66.601 62.245 66.0239 61.6679C65.4467 61.0907 64.664 60.7665 63.8478 60.7665ZM36.1537 39.2305H63.8478C64.664 39.2305 65.4467 38.9063 66.0239 38.3291C66.601 37.752 66.9252 36.9692 66.9252 36.153C66.9252 35.3368 66.601 34.5541 66.0239 33.9769C65.4467 33.3998 64.664 33.0756 63.8478 33.0756H36.1537C35.3375 33.0756 34.5547 33.3998 33.9776 33.9769C33.4005 34.5541 33.0762 35.3368 33.0762 36.153C33.0762 36.9692 33.4005 37.752 33.9776 38.3291C34.5547 38.9063 35.3375 39.2305 36.1537 39.2305ZM26.9244 46.9242C26.1256 46.9496 25.3681 47.2849 24.812 47.8589C24.256 48.433 23.9451 49.2008 23.9451 50.0001C23.9451 50.7993 24.256 51.5671 24.812 52.1412C25.3681 52.7153 26.1256 53.0505 26.9244 53.076H73.077C73.8932 53.076 74.676 52.7517 75.2531 52.1746C75.8303 51.5975 76.1545 50.8147 76.1545 49.9985C76.1545 49.1823 75.8303 48.3995 75.2531 47.8224C74.676 47.2453 73.8932 46.921 73.077 46.921H26.9244V46.9242Z" fill="#FEFEFE"/>
</svg>
