<svg width="100" height="100" viewBox="0 0 100 100" fill="none" xmlns="http://www.w3.org/2000/svg">
<rect width="100" height="100" rx="24" fill="white"/>
<path d="M78.1585 38.2112C78.1572 37.8049 78.1478 37.4007 78.1296 36.9985V14.0678L71.7902 20.4072C66.6018 14.0564 58.7088 10 49.8681 10C40.6677 10 32.4941 14.3915 27.3273 21.1925L37.7183 31.6928C38.7366 29.8095 40.1833 28.1919 41.9275 26.9702C43.7416 25.5545 46.312 24.397 49.8677 24.397C50.2973 24.397 50.6288 24.4472 50.8724 24.5418C55.2779 24.8895 59.0966 27.3208 61.3451 30.8496L53.9898 38.2049C63.3062 38.1683 73.8308 38.1469 78.1577 38.2096" fill="#1C3AA9"/>
<path d="M49.7028 10.001C49.2965 10.0023 48.8923 10.0117 48.4901 10.0299H25.5594L31.8988 16.3693C25.5479 21.5577 21.4916 29.4507 21.4916 38.2915C21.4916 47.4918 25.8832 55.6654 32.684 60.8322L43.1844 50.4412C41.3011 49.4229 39.6835 47.9762 38.4618 46.232C37.0462 44.4179 35.8886 41.8475 35.8886 38.2918C35.8886 37.8623 35.9388 37.5307 36.0333 37.2871C36.3811 32.8816 38.8123 29.0629 42.3412 26.8144L49.6964 34.1697C49.6599 24.8534 49.6384 14.3287 49.7012 10.0018" fill="#4285F4"/>
<path d="M21.4926 38.2908C21.4939 38.6971 21.5033 39.1012 21.5215 39.5035V62.4342L27.8609 56.0948C33.0493 62.4456 40.9423 66.502 49.783 66.502C58.9834 66.502 67.157 62.1105 72.3238 55.3095L61.9328 44.8092C60.9145 46.6925 59.4678 48.3101 57.7236 49.5318C55.9095 50.9475 53.3391 52.105 49.7834 52.105C49.3538 52.105 49.0223 52.0548 48.7787 51.9602C44.3732 51.6125 40.5545 49.1812 38.306 45.6524L45.6613 38.2971C36.3449 38.3337 25.8203 38.3551 21.4934 38.2924" fill="#ABABAB"/>
<path d="M26.2661 77.4582C25.577 77.4582 24.9592 77.5889 24.4126 77.8502C23.8661 78.1057 23.4027 78.471 23.0225 78.9463C22.6483 79.4215 22.3602 79.9978 22.1581 80.675C21.9621 81.3462 21.8641 82.0977 21.8641 82.9294V85.3264C21.8641 86.164 21.9621 86.9185 22.1581 87.5898C22.3601 88.2611 22.6453 88.8343 23.0136 89.3096C23.382 89.7848 23.8275 90.1502 24.3502 90.4056C24.873 90.6611 25.4611 90.7888 26.1146 90.7888C26.7859 90.7888 27.374 90.6908 27.879 90.4947C28.3899 90.2987 28.8176 90.0165 29.1622 89.6482C29.5067 89.274 29.7711 88.8225 29.9552 88.2937C30.1453 87.765 30.2582 87.1651 30.2939 86.4938H28.6453C28.6037 87.0106 28.5324 87.4532 28.4314 87.8215C28.3305 88.1838 28.1819 88.4838 27.9859 88.7214C27.7958 88.9531 27.5463 89.1254 27.2373 89.2383C26.9344 89.3452 26.5601 89.3987 26.1146 89.3987C25.6393 89.3987 25.2354 89.2947 24.9027 89.0868C24.57 88.8729 24.2997 88.5818 24.0918 88.2135C23.8899 87.8452 23.7413 87.4145 23.6463 86.9214C23.5572 86.4284 23.5126 85.8967 23.5126 85.3264V82.9115C23.5126 82.2997 23.5661 81.7442 23.673 81.2452C23.7859 80.7462 23.9552 80.3214 24.1809 79.9709C24.4067 79.6204 24.6918 79.3501 25.0364 79.16C25.381 78.964 25.7909 78.866 26.2661 78.866C26.6641 78.866 27.0057 78.9253 27.2908 79.0442C27.576 79.1571 27.8136 79.3353 28.0037 79.5788C28.1938 79.8165 28.3393 80.1194 28.4403 80.4877C28.5413 80.8561 28.6096 81.2957 28.6453 81.8065H30.2939C30.2641 81.1056 30.1542 80.4848 29.9641 79.9441C29.774 79.4035 29.5097 78.9491 29.171 78.5808C28.8324 78.2124 28.4195 77.9332 27.9325 77.7432C27.4513 77.5531 26.8959 77.4582 26.2661 77.4582ZM66.508 77.4582C65.8189 77.4582 65.2011 77.5889 64.6545 77.8502C64.108 78.1057 63.6446 78.471 63.2644 78.9463C62.8902 79.4215 62.602 79.9978 62.4001 80.675C62.204 81.3462 62.106 82.0977 62.106 82.9294V85.3264C62.106 86.164 62.204 86.9185 62.4001 87.5898C62.602 88.2611 62.8872 88.8343 63.2555 89.3096C63.6238 89.7848 64.0694 90.1502 64.5921 90.4056C65.1149 90.6611 65.703 90.7888 66.3565 90.7888C67.0278 90.7888 67.6159 90.6908 68.1209 90.4947C68.6318 90.2987 69.0595 90.0165 69.4041 89.6482C69.7486 89.274 70.013 88.8225 70.1971 88.2937C70.3872 87.765 70.5001 87.1651 70.5357 86.4938H68.8873C68.8457 87.0106 68.7744 87.4532 68.6734 87.8215C68.5724 88.1838 68.4239 88.4838 68.2279 88.7214C68.0378 88.9531 67.7883 89.1254 67.4793 89.2383C67.1763 89.3452 66.8021 89.3987 66.3566 89.3987C65.8813 89.3987 65.4773 89.2947 65.1447 89.0868C64.812 88.8729 64.5417 88.5818 64.3338 88.2135C64.1318 87.8452 63.9833 87.4145 63.8883 86.9214C63.7992 86.4284 63.7546 85.8967 63.7546 85.3264V82.9115C63.7546 82.2997 63.8081 81.7442 63.915 81.2452C64.0279 80.7462 64.1972 80.3214 64.4229 79.9709C64.6487 79.6204 64.9338 79.3501 65.2783 79.16C65.6229 78.964 66.0328 78.866 66.508 78.866C66.906 78.866 67.2476 78.9253 67.5327 79.0442C67.8179 79.1571 68.0555 79.3353 68.2456 79.5788C68.4357 79.8165 68.5812 80.1194 68.6822 80.4877C68.7832 80.8561 68.8515 81.2957 68.8872 81.8065H70.5357C70.5059 81.1056 70.3961 80.4848 70.206 79.9441C70.0159 79.4035 69.7515 78.9491 69.4129 78.5808C69.0743 78.2124 68.6614 77.9332 68.1743 77.7432C67.6931 77.5531 67.1378 77.4582 66.508 77.4582ZM35.6587 77.6364L31.4795 90.6105H33.1548L34.1617 87.2244H38.5459L39.5706 90.6105H41.2459L37.0577 77.6364H35.6587ZM43.01 77.6364V90.6105H44.6406V85.5313H47.1446C47.7684 85.5313 48.3208 85.4451 48.802 85.2729C49.2832 85.0947 49.6872 84.8392 50.0139 84.5065C50.3466 84.1738 50.5961 83.764 50.7624 83.2768C50.9347 82.7838 51.0208 82.2254 51.0208 81.6016C51.0208 81.0253 50.9347 80.4966 50.7624 80.0154C50.5961 79.5283 50.3495 79.1095 50.0228 78.759C49.6961 78.4025 49.2892 78.1263 48.802 77.9303C48.3209 77.7342 47.7684 77.6362 47.1446 77.6362L43.01 77.6364ZM52.2683 77.6364V79.0443H55.6723V90.6105H57.303V79.0443H60.7158V77.6364H52.2683ZM72.7367 77.6364V90.6105H74.3674V84.6135H79.5891V90.6105H81.2287V77.6364H79.5891V83.2146H74.3674V77.6364H72.7367ZM87.4129 77.6364L83.2337 90.6105H84.9089L85.9158 87.2244H90.3L91.3247 90.6105H93L88.8119 77.6364H87.4129ZM44.6405 79.0443H47.1445C47.5425 79.0443 47.8811 79.1155 48.1603 79.2582C48.4454 79.4007 48.6771 79.5908 48.8553 79.8284C49.0395 80.0661 49.1732 80.3423 49.2563 80.6571C49.3454 80.966 49.39 81.2868 49.39 81.6195C49.39 81.9879 49.3454 82.3265 49.2563 82.6354C49.1732 82.9383 49.0395 83.2027 48.8553 83.4284C48.6771 83.6482 48.4454 83.8205 48.1603 83.9453C47.8811 84.07 47.5425 84.1324 47.1445 84.1324H44.6405V79.0443ZM36.3536 79.9176L38.1269 85.8166H34.5893L36.3536 79.9176ZM88.1077 79.9176L89.881 85.8166H86.3434L88.1077 79.9176ZM11.3505 80.7909C10.9406 80.7909 10.5871 80.8948 10.2901 81.1027C9.99897 81.3107 9.7554 81.5928 9.55938 81.9492L9.53265 80.969H8V90.6106H9.57724V83.7134C9.72576 83.3034 9.93665 82.9797 10.2099 82.742C10.4891 82.5044 10.8426 82.3856 11.2703 82.3856C11.407 82.3856 11.5287 82.3917 11.6357 82.4034C11.7426 82.4095 11.8584 82.4242 11.9832 82.448L11.9743 80.9153C11.9505 80.9034 11.9119 80.8915 11.8584 80.8796C11.8109 80.8617 11.7575 80.8469 11.698 80.8351C11.6386 80.8232 11.5763 80.8142 11.5109 80.8083C11.4515 80.7964 11.398 80.7905 11.3505 80.7905L11.3505 80.7909ZM16.6524 80.7909C16.195 80.7909 15.7524 80.8711 15.3247 81.0315C14.897 81.1919 14.5168 81.4562 14.1842 81.8245C13.8575 82.1869 13.5931 82.6621 13.3911 83.2503C13.1891 83.8324 13.0881 84.5483 13.0881 85.3978V86.4849C13.0881 87.2216 13.1743 87.8602 13.3466 88.4008C13.5188 88.9413 13.7654 89.3899 14.0861 89.7464C14.4129 90.0968 14.8079 90.3582 15.2713 90.5305C15.7347 90.7028 16.2545 90.7889 16.8307 90.7889C17.2466 90.7889 17.6179 90.7473 17.9446 90.6642C18.2772 90.581 18.5713 90.4741 18.8268 90.3434C19.0822 90.2067 19.302 90.0523 19.4862 89.88C19.6703 89.7078 19.8277 89.5295 19.9584 89.3454L19.1387 88.3474C19.008 88.5077 18.8684 88.6563 18.7198 88.7929C18.5713 88.9236 18.408 89.0394 18.2297 89.1404C18.0515 89.2355 17.8555 89.3097 17.6416 89.3632C17.4278 89.4166 17.1872 89.4434 16.9199 89.4434C16.1892 89.4434 15.6278 89.2087 15.2357 88.7394C14.8495 88.2701 14.6565 87.5187 14.6565 86.485V86.2622H20.0387V85.3444C20.0387 84.6078 19.9763 83.9572 19.8515 83.3929C19.7268 82.8285 19.5278 82.3533 19.2545 81.9671C18.9812 81.581 18.6307 81.2899 18.203 81.0938C17.7753 80.8919 17.2584 80.7909 16.6524 80.7909ZM16.6524 82.1453C16.997 82.1453 17.2821 82.2077 17.5079 82.3325C17.7337 82.4572 17.9119 82.6325 18.0426 82.8582C18.1792 83.084 18.2772 83.3543 18.3366 83.6691C18.402 83.978 18.4436 84.3196 18.4614 84.6938V84.9077H14.6653C14.6891 84.3671 14.7545 83.9186 14.8614 83.5621C14.9683 83.2056 15.1079 82.9235 15.2802 82.7156C15.4584 82.5017 15.6634 82.3532 15.8951 82.2701C16.1267 82.1869 16.3791 82.1453 16.6524 82.1453Z" fill="#A6A6A6"/>
</svg>
