<svg width="100" height="100" viewBox="0 0 100 100" fill="none" xmlns="http://www.w3.org/2000/svg">
<rect width="100" height="100" rx="24" fill="white"/>
<path d="M88.6677 70.1731C84.1393 72.5418 60.6381 82.2081 55.5756 84.8613C50.5131 87.5144 47.8019 87.439 43.8425 85.5463C39.8831 83.6537 14.9596 73.5171 10.4428 71.3574C8.16698 70.2892 7.00586 69.3777 7.00586 68.5243V59.9262C7.00586 59.9262 39.5638 52.8607 44.8178 50.9565C50.0719 49.0522 51.8891 49.0058 56.3536 50.643C60.8181 52.2802 87.582 57.1104 92.0001 58.7128V67.189C92.0001 68.0714 90.9841 68.9307 88.6677 70.1673V70.1731Z" fill="#A32422"/>
<path d="M88.6676 61.6154C84.1392 63.9725 60.6381 73.6389 55.5756 76.2456C50.5131 78.8523 47.8019 78.8291 43.8424 76.9423C39.883 75.0554 14.9595 64.9188 10.4427 62.7765C5.92595 60.6343 5.83887 59.1364 10.2686 57.4064C14.6982 55.6763 39.5637 45.9403 44.8178 44.0244C50.0718 42.1086 51.889 42.0679 56.3535 43.7109C60.818 45.3539 84.2205 54.6487 88.6153 56.2685C93.0102 57.8882 93.2134 59.2177 88.6676 61.569V61.6154Z" fill="#DC382C"/>
<path d="M88.6677 56.1699C84.1393 58.5327 60.6381 68.1933 55.5756 70.8C50.5131 73.4067 47.8251 73.3835 43.8657 71.4851C39.9063 69.5866 14.9596 59.5081 10.4428 57.3542C8.16698 56.2744 7.00586 55.3687 7.00586 54.5094V45.9404C7.00586 45.9404 39.5638 38.8517 44.8178 36.9475C50.0719 35.0432 51.8891 34.991 56.3536 36.6514C60.8181 38.3118 87.582 43.0956 92.0001 44.7096V53.1858C92.0001 54.0682 90.9841 54.9507 88.6677 56.1699Z" fill="#A32422"/>
<path d="M88.6676 47.5717C84.1392 49.9404 60.6381 59.601 55.5756 62.2077C50.5131 64.8144 47.8018 64.797 43.8424 62.9044C39.883 61.0117 14.9595 50.9158 10.4427 48.7561C5.92594 46.5964 5.84466 45.1276 10.2685 43.3975C14.6924 41.6674 39.5637 31.9082 44.8178 30.0446C50.0718 28.181 51.889 28.0649 56.3535 29.6846C60.818 31.3044 84.2205 40.6805 88.6153 42.2538C93.0102 43.8271 93.2134 45.2089 88.6676 47.5543V47.5717Z" fill="#DC382C"/>
<path d="M88.6677 41.6385C84.1393 44.0072 60.6381 53.6735 55.5756 56.2745C50.5131 58.8754 47.8251 58.858 43.8657 56.9711C39.9063 55.0843 14.9596 44.9767 10.4428 42.8228C8.16698 41.7546 7.00586 40.8431 7.00586 39.9839V31.3858C7.00586 31.3858 39.5638 24.3203 44.8178 22.4219C50.0719 20.5235 51.8891 20.4654 56.3536 22.1026C60.8181 23.7398 87.5704 28.5701 91.9885 30.184V38.6602C92.0001 39.5543 90.9841 40.4251 88.6677 41.6385Z" fill="#A32422"/>
<path d="M88.6676 33.0519C84.1392 35.3741 60.6381 45.0986 55.5756 47.682C50.5131 50.2655 47.8019 50.2597 43.8424 48.3787C39.883 46.4977 14.9595 36.3785 10.4427 34.2304C5.92595 32.0824 5.83887 30.5903 10.2686 28.8602C14.6982 27.1302 39.5637 17.3767 44.8178 15.4841C50.0718 13.5915 51.889 13.5334 56.3535 15.1706C60.818 16.8078 84.2205 26.1142 88.6153 27.7281C93.0102 29.3421 93.2134 30.6832 88.6676 33.0345V33.0519Z" fill="#DC382C"/>
<path d="M50.8382 20.8428L56.4464 19.0024L54.9254 22.6367L60.6323 24.7732L53.2766 25.5395L51.622 29.5106L48.963 25.0809L40.4578 24.3145L46.8091 22.0271L44.8991 18.5089L50.8382 20.8428Z" fill="white"/>
<path d="M51.1923 44.0244L37.4446 38.3175L57.1372 35.2927L51.1923 44.0244Z" fill="white"/>
<path d="M32.1325 26.9794C37.9381 26.9794 42.658 28.8081 42.658 31.0433C42.658 33.2785 37.9265 35.1072 32.1325 35.1072C26.3385 35.1072 21.6011 33.2785 21.6011 31.0433C21.6011 28.8081 26.321 26.9794 32.1325 26.9794Z" fill="white"/>
<path d="M69.3464 25.8588L80.9975 30.4623L69.358 35.0658L69.3464 25.8588Z" fill="#741113"/>
<path d="M69.3455 25.8588L69.3571 35.0658L68.0916 35.5593L56.4463 30.9557L69.3455 25.8588Z" fill="#AC2724"/>
</svg>
