<svg width="100" height="100" viewBox="0 0 100 100" fill="none" xmlns="http://www.w3.org/2000/svg">
<rect width="100" height="100" rx="24" fill="white"/>
<path d="M80.4926 58.8725C77.4873 57.1373 74.1029 56.6343 70.7506 56.5173C67.938 56.419 63.7417 54.6167 63.7417 49.5002C63.7417 45.6882 66.832 42.6202 70.752 42.4833C74.104 42.3662 77.4881 41.8627 80.4926 40.128C83.1915 38.5698 85.4326 36.3287 86.9908 33.6298C88.549 30.9309 89.3693 27.8695 89.3693 24.7531C89.3692 21.6367 88.5489 18.5753 86.9907 15.8764C85.4325 13.1776 83.1913 10.9365 80.4924 9.37834C77.7935 7.8202 74.7321 6.99994 71.6157 7C68.4993 7.00006 65.4379 7.82045 62.7391 9.3787C60.0403 10.937 57.7992 13.1782 56.2411 15.8771C54.683 18.576 53.8627 21.6375 53.8629 24.7538C53.8629 28.1935 55.0862 31.3588 56.6472 34.2946C57.9601 36.7638 58.6244 41.3467 54.1215 43.9463C50.7719 45.8802 46.5916 44.6557 44.5035 41.314C42.7398 38.4914 40.6106 35.8468 37.6297 34.1255C34.9309 32.5673 31.8695 31.747 28.7532 31.747C25.6368 31.747 22.5754 32.5673 19.8766 34.1254C17.1778 35.6836 14.9366 37.9247 13.3785 40.6235C11.8203 43.3224 11 46.3838 11 49.5001C11 52.6165 11.8203 55.6779 13.3785 58.3767C14.9366 61.0755 17.1778 63.3166 19.8766 64.8748C22.5754 66.433 25.6368 67.2533 28.7532 67.2533C31.8695 67.2532 34.9309 66.4329 37.6297 64.8748C40.6098 63.1541 42.7391 60.5112 44.5018 57.6903C45.9492 55.374 49.5641 52.4214 54.1213 55.0545C57.4658 56.9869 58.4998 61.2207 56.6457 64.708C55.0849 67.6433 53.8631 70.808 53.8631 74.2471C53.8631 77.3634 54.6834 80.4247 56.2415 83.1235C57.7997 85.8223 60.0408 88.0634 62.7396 89.6216C65.4384 91.1797 68.4998 92 71.6161 92C74.7323 92 77.7937 91.1797 80.4925 89.6216C83.1913 88.0634 85.4324 85.8223 86.9906 83.1235C88.5487 80.4248 89.369 77.3634 89.369 74.2471C89.369 71.1308 88.5487 68.0694 86.9906 65.3706C85.4325 62.6718 83.1914 60.4307 80.4926 58.8725Z" fill="url(#paint0_linear_300_29)"/>
<defs>
<linearGradient id="paint0_linear_300_29" x1="33.1017" y1="20.044" x2="92.0138" y2="78.9561" gradientUnits="userSpaceOnUse">
<stop stop-color="#00AAE4"/>
<stop offset="1" stop-color="#006097"/>
</linearGradient>
</defs>
</svg>
