<svg width="100" height="100" viewBox="0 0 100 100" fill="none" xmlns="http://www.w3.org/2000/svg">
<rect width="100" height="100" rx="24" fill="#CC0000"/>
<path fill-rule="evenodd" clip-rule="evenodd" d="M81.9858 61.0002V64.8863H89.0065C90.445 64.8863 92.9141 63.8342 92.9999 60.8928V59.3899C92.9999 56.8779 90.9388 55.3965 89.0065 55.3965H85.5069V53.593H92.4417V49.6855H85.786C84.0684 49.6855 81.7711 51.1025 81.7711 53.7433V55.0959C81.7711 57.7367 84.0469 59.0894 85.786 59.0894C90.6168 59.1108 84.6266 59.0894 89.0924 59.0894V60.9787M44.3702 60.0555C44.3702 60.0555 48.1275 59.7335 48.1275 54.8812C48.1275 50.029 43.5758 49.5781 43.5758 49.5781H35.3743V64.8863H39.4965V61.1934L43.0606 64.8863H49.1581L44.3702 60.0555ZM42.7814 56.9209H39.4965V53.4213H42.8029C42.8029 53.4213 43.7261 53.7648 43.7261 55.1603C43.7261 56.5559 42.7814 56.9209 42.7814 56.9209ZM58.3043 49.6855H54.1176C51.1333 49.6855 50.1242 52.3907 50.1242 53.6789V64.8863H54.3109V62.2025H58.2399V64.8863H62.2977V53.6789C62.2977 50.4155 59.3349 49.6855 58.3043 49.6855ZM58.2399 57.8656H54.2894V54.1512C54.2894 54.1512 54.2894 53.3139 55.5991 53.3139H57.0376C58.1969 53.3139 58.2184 54.1512 58.2184 54.1512V57.8656H58.2399Z" fill="white"/>
<path d="M68.5672 49.6855H64.2087V64.8864H68.5672V49.6855Z" fill="white"/>
<path fill-rule="evenodd" clip-rule="evenodd" d="M74.6861 60.9573V49.6855H70.3491V60.9573V64.8864H74.6861H80.5474V60.9573H74.6861Z" fill="white"/>
<path fill-rule="evenodd" clip-rule="evenodd" d="M9.50293 64.8863H26.4643C26.4643 64.8863 23.2223 50.0934 33.9573 44.1033C36.2976 42.9654 43.7477 38.7143 55.9427 47.7317C56.3292 47.4097 56.6941 47.152 56.6941 47.152C56.6941 47.152 45.5297 36.0091 33.0985 37.2543C26.8507 37.8126 19.1645 43.5021 14.6557 51.0166C10.147 58.5312 9.50293 64.8863 9.50293 64.8863Z" fill="white"/>
<path fill-rule="evenodd" clip-rule="evenodd" d="M9.50293 64.8863H26.4643C26.4643 64.8863 23.2223 50.0934 33.9573 44.1033C36.2976 42.9654 43.7477 38.7143 55.9427 47.7317C56.3292 47.4097 56.6941 47.152 56.6941 47.152C56.6941 47.152 45.5297 36.0091 33.0985 37.2543C26.8507 37.8126 19.1645 43.5021 14.6557 51.0166C10.147 58.5312 9.50293 64.8863 9.50293 64.8863Z" fill="white"/>
<path fill-rule="evenodd" clip-rule="evenodd" d="M9.50293 64.8862H26.4643C26.4643 64.8862 23.2223 50.0933 33.9573 44.1032C36.2976 42.9653 43.7477 38.7142 55.9427 47.7316C56.3292 47.4096 56.6941 47.1519 56.6941 47.1519C56.6941 47.1519 45.5297 36.009 33.0985 37.2542C26.8293 37.8124 19.143 43.502 14.6343 51.0165C10.1256 58.5311 9.50293 64.8862 9.50293 64.8862ZM44.8427 38.4565L44.9285 37.0181C44.7353 36.9107 44.1986 36.6531 42.8459 36.2666L42.7601 37.6836C43.4686 37.9198 44.1556 38.1774 44.8427 38.4565Z" fill="white"/>
<path fill-rule="evenodd" clip-rule="evenodd" d="M42.803 43.0083L42.7171 44.3609C43.4256 44.3824 44.1341 44.4683 44.8426 44.6186L44.9285 43.2874C44.1985 43.1372 43.49 43.0513 42.803 43.0083ZM34.8591 36.3097H35.0738L34.6444 35C33.9788 35 33.2917 35.0429 32.5832 35.1288L32.9912 36.3956C33.6138 36.3311 34.2364 36.3097 34.8591 36.3097ZM35.8896 44.2107L36.3834 45.6921C37.0061 45.3915 37.6287 45.1339 38.2513 44.9406L37.779 43.5236C37.049 43.7383 36.4264 43.9745 35.8896 44.2107ZM26.1422 38.564L25.1761 37.0826C24.6393 37.3617 24.0811 37.6623 23.5014 38.0058L24.489 39.5087C25.0472 39.1652 25.584 38.8431 26.1422 38.564ZM30.5436 48.2256L31.5741 49.7714C31.9391 49.2347 32.3685 48.7408 32.8409 48.247L31.8747 46.7871C31.3809 47.2379 30.93 47.7318 30.5436 48.2256ZM27.4304 55.1389L29.1695 56.513C29.2554 55.6757 29.4057 54.8383 29.6204 54.001L28.0745 52.7772C27.7954 53.5716 27.6022 54.366 27.4304 55.1389ZM18.0265 44.9406L16.5021 43.6095C15.9439 44.1462 15.4072 44.683 14.9134 45.2198L16.5666 46.6368C17.0174 46.0571 17.5112 45.4774 18.0265 44.9406ZM11.5426 54.5378L9.0735 53.636C8.66557 54.5592 8.2147 55.6327 8 56.2124L10.4691 57.1142C10.7482 56.3842 11.199 55.3322 11.5426 54.5378ZM27.1084 60.5923C27.1513 61.7302 27.2586 62.6534 27.366 63.2976L29.9424 64.2208C29.7492 63.3834 29.556 62.4387 29.4271 61.4297L27.1084 60.5923Z" fill="white"/>
</svg>
