<svg width="100" height="100" viewBox="0 0 100 100" fill="none" xmlns="http://www.w3.org/2000/svg">
<rect width="100" height="100" rx="24" fill="#382D5A"/>
<path d="M90.4129 74.3741C92.3337 77.7094 92.5196 81.2166 90.9236 83.9891C89.3298 86.7638 86.2114 88.3529 82.3678 88.3529H75.1242C75.2102 87.0022 75.2673 85.6403 75.2673 84.2683C75.2673 82.7317 75.1959 81.2143 75.091 79.7015L79.8556 79.6969C81.027 79.6969 81.974 78.7449 81.974 77.5709C81.9739 77.2171 81.8863 76.8689 81.719 76.5572L51.3514 23.7742C51.168 23.4476 50.9009 23.1758 50.5776 22.9867C50.2543 22.7977 49.8865 22.6981 49.512 22.6984C49.1469 22.6985 48.7881 22.793 48.4704 22.9728C48.1526 23.1526 47.8868 23.4115 47.6987 23.7244L42.877 32.1058C57.5308 43.1525 67.3822 60.2664 68.7303 79.6969C68.8352 81.207 68.9066 82.7247 68.9066 84.2633C68.9066 85.6353 68.8495 86.9953 68.7658 88.348H45.1099C45.2387 87.0022 45.3128 85.6426 45.3128 84.2633C45.3128 82.7197 45.2221 81.1977 45.0551 79.6969C43.8863 69.0035 38.6515 59.5266 30.9428 52.8389L27.6215 58.6082C33.4453 64.0287 37.4204 71.4107 38.5011 79.6969C38.697 81.1927 38.8066 82.715 38.8066 84.2633C38.8066 85.6426 38.716 87.0072 38.5609 88.348H16.6322C12.7886 88.348 9.67018 86.7565 8.07643 83.9818C6.48035 81.2093 6.66629 77.7047 8.58709 74.3668L13.0894 66.651C15.6614 68.0345 17.9857 69.8356 19.9675 71.9808L17.2837 76.5522C17.1169 76.8643 17.0291 77.2124 17.028 77.5662C17.0275 77.8449 17.0819 78.1209 17.1881 78.3784C17.2944 78.636 17.4504 78.8701 17.6472 79.0673C17.844 79.2645 18.0778 79.421 18.3352 79.5278C18.5925 79.6346 18.8684 79.6895 19.147 79.6896L29.783 79.6946C28.8908 74.5959 26.5384 69.9959 23.1696 66.3525C21.1844 64.2126 18.8655 62.4014 16.2839 61.0155L28.1607 40.3797C30.6824 41.7895 33.0779 43.4141 35.3206 45.2353C45.5561 53.5404 52.468 65.8064 53.7204 79.6922H60.0862C58.7879 63.4586 50.6309 49.1434 38.525 39.6665C36.2518 37.886 33.8463 36.2813 31.3292 34.8663L41.4668 17.2537C43.385 13.9158 46.3191 12 49.512 12C52.7018 12 55.6339 13.9158 57.5547 17.2537L90.4129 74.3741Z" fill="white"/>
</svg>
