<svg width="100" height="100" viewBox="0 0 100 100" fill="none" xmlns="http://www.w3.org/2000/svg">
<rect width="100" height="100" rx="24" fill="#333132"/>
<path d="M40.2243 56.8629C40.13 55.9911 39.4349 55.8968 38.9518 55.614C37.3494 54.6832 35.7117 53.7995 34.0857 52.9041L31.4347 51.4549C30.4332 50.9011 29.4199 50.3709 28.4184 49.7935C27.1812 49.0866 25.9441 48.3914 24.7541 47.602C22.5272 46.1292 20.7716 44.1734 19.2988 41.9347C18.3209 40.4501 17.555 38.8595 17.0366 37.1746C16.2472 34.6179 15.7641 31.9786 16.1176 29.304C16.3297 27.6545 16.6596 26.005 17.2605 24.4026C18.1795 21.9518 19.5345 19.831 21.2901 17.9458C22.4447 16.6969 23.7879 15.6954 25.2254 14.7882C26.9574 13.6924 28.8425 12.9737 30.8102 12.5495C32.4362 12.196 34.121 12.0429 35.7823 12.0311C46.3747 11.984 56.9552 11.9957 67.5476 12.0311C69.0322 12.0311 70.5521 12.1489 71.9895 12.5142C74.8526 13.2447 77.3741 14.6585 79.4124 16.8736C80.732 18.3111 81.816 19.9135 82.4523 21.728C83.3124 24.1669 83.9015 26.6883 83.2417 29.3158C82.9942 30.3173 82.9236 31.3777 82.523 32.3085C81.9692 33.5928 81.2505 34.8064 80.4964 35.9846C79.4713 37.5752 78.081 38.8477 76.4433 39.7785C75.2532 40.4501 73.969 40.9803 72.6729 41.4634C70.5403 42.2528 68.2899 42.0525 66.063 42.0761C64.0364 42.0997 61.9981 42.0761 59.9715 42.0879C59.7712 42.0879 59.5709 42.2293 59.3706 42.3117C59.5238 42.5238 59.6181 42.8184 59.8301 42.9362C61.4208 43.8552 63.0349 44.7507 64.6373 45.6344C65.9334 46.3413 67.2648 47.0129 68.5491 47.7434C70.34 48.7449 72.1074 49.7935 73.8865 50.8186C76.1605 52.1264 77.9868 53.9291 79.5185 56.0382C80.6613 57.6052 81.545 59.3255 82.2284 61.1635C82.9471 63.1194 83.3124 65.1459 83.4538 67.2079C83.5245 68.2801 83.3713 69.3876 83.2299 70.4598C83.0885 71.532 82.9118 72.6277 82.5701 73.6528C82.1813 74.8546 81.6982 76.0328 81.1091 77.1404C80.1194 78.9902 78.7997 80.6044 77.2445 82.0183C75.7481 83.3732 74.0868 84.4454 72.2487 85.2702C69.5506 86.4838 66.7228 86.9669 63.8126 86.9787C53.2438 87.014 42.675 87.0022 32.1063 86.9669C30.6217 86.9669 29.1018 86.849 27.6643 86.5074C24.7776 85.8358 22.268 84.3865 20.2061 82.2186C18.8393 80.7693 17.826 79.0963 17.072 77.2818C16.7538 76.5277 16.5889 75.6912 16.4357 74.8782C16.259 73.9238 16.1058 72.9577 16.0705 71.9915C15.9998 70.1417 16.4004 68.3507 17.0366 66.6423C18.0028 64.0502 19.5934 61.8587 21.7731 60.1384C22.9514 59.2076 24.2828 58.5243 25.6731 57.9234C27.629 57.075 29.6791 56.969 31.7292 56.9219C34.3096 56.8629 36.9017 56.9101 39.4938 56.9101C39.7177 56.8983 39.9533 56.8747 40.2243 56.8629ZM51.5707 16.5202C51.5707 16.5319 51.5707 16.5319 51.5707 16.5202C45.8798 16.5319 40.189 16.4495 34.4981 16.5791C32.9075 16.6144 31.2697 17.0386 29.7733 17.6041C28.0178 18.264 26.4625 19.3244 25.0722 20.644C22.6922 22.8826 21.2783 25.6161 20.6892 28.762C20.265 31.0007 20.5242 33.2511 21.1722 35.4191C21.6553 37.0332 22.4094 38.5296 23.352 39.9435C25.0958 42.5592 27.5583 44.2676 30.2329 45.7404C31.5289 46.4591 32.8485 47.1425 34.1446 47.8612C35.7352 48.7449 37.3141 49.6404 38.9047 50.524C40.4482 51.3842 41.9917 52.2325 43.5234 53.0808C44.6662 53.7053 45.8091 54.3415 46.952 54.9778C47.2937 55.1663 47.4351 55.0013 47.4822 54.695C47.5176 54.4594 47.5176 54.2237 47.5176 53.9763V47.0482C47.5176 44.7036 47.5294 42.3471 47.5176 40.0024C47.5176 39.2248 47.7179 38.4943 48.413 38.1054C48.8254 37.8698 49.3792 37.7755 49.8741 37.7755C55.8006 37.752 61.7389 37.752 67.6654 37.7638C69.9983 37.7638 72.1781 37.2453 74.1575 35.9846C76.8792 34.2408 78.4345 31.7076 78.9411 28.5735C79.3417 26.1228 78.8233 23.7545 77.4801 21.6808C75.3829 18.4407 72.343 16.6144 68.4666 16.5437C62.8346 16.4495 57.2027 16.5202 51.5707 16.5202ZM47.9653 82.466C53.2792 82.466 58.593 82.4424 63.9068 82.4778C66.1337 82.4896 68.2192 82.0183 70.2575 81.1699C72.4255 80.2627 74.2164 78.837 75.7128 77.0579C76.785 75.7854 77.6215 74.3597 78.1635 72.7573C78.6583 71.2963 79.0354 69.8471 79.0236 68.2918C79.0118 67.0783 79.0472 65.8765 78.623 64.6982C78.3167 63.8499 78.2224 62.9073 77.8689 62.0943C77.4094 61.0457 76.8203 60.056 76.2194 59.0898C74.6995 56.6391 72.4608 55.0013 69.9983 53.6228C68.7494 52.9276 67.5005 52.2561 66.2515 51.5609C65.0379 50.8893 63.8479 50.1824 62.6343 49.5108C61.3147 48.792 59.9833 48.1087 58.6637 47.3899C56.7078 46.3177 54.7637 45.222 52.7961 44.1498C52.2187 43.8317 52.0773 43.9259 52.042 44.6093C52.0302 44.8449 52.0302 45.0924 52.0302 45.328V58.8188C52.0302 60.5626 51.3704 61.2224 49.6266 61.2224C44.0182 61.2342 38.398 61.2106 32.7896 61.246C31.5525 61.2578 30.3036 61.4109 29.0664 61.5759C27.1223 61.8351 25.4728 62.7423 24.0236 64.0502C22.0206 65.8765 20.8423 68.1387 20.5595 70.825C20.4299 72.1093 20.5124 73.3818 20.9012 74.6543C21.3372 76.1035 21.9852 77.4114 22.9631 78.5425C25.2254 81.1464 28.0767 82.466 31.5289 82.466C37.0195 82.4778 42.4865 82.466 47.9653 82.466Z" fill="#00F782"/>
</svg>
