<svg width="100" height="100" viewBox="0 0 100 100" fill="none" xmlns="http://www.w3.org/2000/svg">
<rect width="100" height="100" rx="24" fill="white"/>
<path d="M78.5302 23.5319C78.4804 23.0838 78.082 22.8846 77.7833 22.8846C77.4845 22.8846 70.9613 22.3866 70.9613 22.3866C70.9613 22.3866 66.43 17.8553 65.8823 17.4071C65.3843 16.9092 64.4382 17.0586 64.0398 17.1582C63.99 17.1582 63.0439 17.4569 61.5003 17.9549C59.9567 13.5231 57.3175 9.48975 52.587 9.48975H52.1388C50.8442 7.79672 49.1511 7 47.7569 7C36.802 7 31.5237 20.6936 29.8805 27.6649C25.5981 29.0094 22.5606 29.9057 22.2121 30.0551C19.8219 30.802 19.7721 30.8518 19.4733 33.0926C19.2244 34.7856 13 82.9373 13 82.9373L61.4505 92L87.7422 86.3234C87.792 86.2238 78.58 23.9801 78.5302 23.5319ZM58.8114 18.652C57.6163 19.0006 56.1722 19.4487 54.7282 19.9467V19.0504C54.7282 16.3614 54.3796 14.1705 53.7323 12.4276C56.222 12.7264 57.7657 15.4651 58.8114 18.652ZM50.6948 12.9754C51.3421 14.6684 51.7903 17.0586 51.7903 20.345V20.843C49.1014 21.6895 46.263 22.536 43.3251 23.4821C44.9684 17.208 48.1055 14.1207 50.6948 12.9754ZM47.5079 9.8881C48.0059 9.8881 48.5038 10.0873 48.9022 10.3861C45.3667 12.0293 41.6321 16.1623 40.0885 24.5278C37.7481 25.2747 35.5073 25.9221 33.3661 26.6192C35.1588 20.2455 39.6403 9.8881 47.5079 9.8881Z" fill="#95BF47"/>
<path d="M77.7832 22.785C77.4844 22.785 70.9613 22.2871 70.9613 22.2871C70.9613 22.2871 66.43 17.7557 65.8822 17.3076C65.683 17.1084 65.4341 17.0088 65.2349 17.0088L61.5999 92L87.8916 86.3234C87.8916 86.3234 78.6795 23.9801 78.6297 23.5319C78.4305 23.0838 78.082 22.8846 77.7832 22.785Z" fill="#5E8E3E"/>
<path d="M52.5871 37.3251L49.4002 46.9356C49.4002 46.9356 46.5121 45.3919 43.0762 45.3919C37.9473 45.3919 37.6984 48.6286 37.6984 49.4253C37.6984 53.8073 49.1512 55.5003 49.1512 65.8078C49.1512 73.9244 44.0223 79.1529 37.1008 79.1529C28.7353 79.1529 24.5525 73.9742 24.5525 73.9742L26.7933 66.6046C26.7933 66.6046 31.1752 70.389 34.86 70.389C37.3 70.389 38.2959 68.4968 38.2959 67.1025C38.2959 61.3761 28.9344 61.1271 28.9344 51.6661C28.9344 43.7487 34.6111 36.0803 46.1137 36.0803C50.3961 36.0305 52.5871 37.3251 52.5871 37.3251Z" fill="white"/>
</svg>
