<svg width="100" height="100" viewBox="0 0 100 100" fill="none" xmlns="http://www.w3.org/2000/svg">
<rect width="100" height="100" rx="24" fill="#009999"/>
<path fill-rule="evenodd" clip-rule="evenodd" d="M7.26231 55.9609V53.4044C8.71742 53.8624 10.005 54.0913 11.125 54.0913C12.6715 54.0913 13.4448 53.6826 13.4448 52.8656C13.4448 52.5611 13.3322 52.3052 13.1067 52.0979C12.876 51.8781 12.2851 51.5734 11.3357 51.183C9.63211 50.4825 8.52124 49.8851 8.00453 49.391C7.33481 48.7388 7 47.9164 7 46.9224C7 45.6425 7.4879 44.667 8.46302 43.9966C9.42734 43.332 10.683 43.0001 12.2321 43.0001C13.0856 43.0001 14.3209 43.1572 15.9366 43.4718V45.9311C14.7344 45.4508 13.6184 45.2112 12.5874 45.2112C11.1355 45.2112 10.4096 45.6099 10.4096 46.409C10.4096 46.7077 10.5558 46.9513 10.8486 47.1401C11.0922 47.293 11.7631 47.6158 12.8602 48.1096C14.4397 48.8111 15.4912 49.4209 16.0152 49.9396C16.6369 50.5548 16.9483 51.3509 16.9483 52.3267C16.9483 53.7293 16.3383 54.7992 15.119 55.5364C14.1312 56.1342 12.8504 56.4319 11.2772 56.4319C9.94865 56.4319 8.61007 56.2754 7.26231 55.9609Z" fill="white"/>
<path fill-rule="evenodd" clip-rule="evenodd" d="M18.9904 43.2251H22.6063V56.1703H18.9904V43.2251Z" fill="white"/>
<path fill-rule="evenodd" clip-rule="evenodd" d="M25.9224 56.1703V43.2251H35.1963V45.5665H29.4074V48.4896H34.4463V50.6253H29.4074V53.6973H35.3455V56.1703H25.9224Z" fill="white"/>
<path fill-rule="evenodd" clip-rule="evenodd" d="M37.7061 56.1703V43.2251H42.3942L45.6513 51.4965L48.9901 43.2251H53.4432V56.1703H50.0148V47.0048L46.2184 56.3018H43.977L40.2537 47.0048V56.1703H37.7061Z" fill="white"/>
<path fill-rule="evenodd" clip-rule="evenodd" d="M56.7599 56.1703V43.2251H66.0336V45.5665H60.2452V48.4896H65.284V50.6253H60.2452V53.6973H66.1838V56.1703H56.7599Z" fill="white"/>
<path fill-rule="evenodd" clip-rule="evenodd" d="M68.563 56.1703V43.2251H72.7538L77.2 51.8909V43.2251H79.7469V56.1703H75.6751L71.1109 47.3879V56.1703H68.563Z" fill="white"/>
<path fill-rule="evenodd" clip-rule="evenodd" d="M82.314 55.9609V53.4043C83.7568 53.8623 85.0442 54.0913 86.1774 54.0913C87.724 54.0913 88.4964 53.6825 88.4964 52.8656C88.4964 52.5611 88.3868 52.3051 88.1688 52.0979C87.9369 51.8781 87.3436 51.5734 86.3885 51.183C84.69 50.4882 83.578 49.8911 83.0566 49.391C82.3872 48.7446 82.053 47.919 82.053 46.9136C82.053 45.6392 82.5397 44.6669 83.5158 43.9965C84.4787 43.3319 85.7359 43 87.2851 43C88.1561 43 89.2847 43.1383 90.6689 43.4162L90.9886 43.4717V45.931C89.7862 45.4507 88.667 45.2111 87.6304 45.2111C86.1841 45.2111 85.4627 45.6098 85.4627 46.4088C85.4627 46.7075 85.6081 46.9511 85.9002 47.14C86.1322 47.287 86.8059 47.61 87.9213 48.1095C89.4889 48.811 90.5382 49.4208 91.0667 49.9395C91.6893 50.5547 92 51.3508 92 52.3266C92 53.7292 91.3935 54.7991 90.1805 55.5363C89.1869 56.1341 87.9029 56.4318 86.3299 56.4318C84.9999 56.4319 83.6608 56.2754 82.314 55.9609Z" fill="white"/>
</svg>
