<svg width="100" height="100" viewBox="0 0 100 100" fill="none" xmlns="http://www.w3.org/2000/svg">
<rect width="100" height="100" rx="24" fill="#29B5E8"/>
<path d="M80.8666 71.7812L62.924 61.4159C60.4033 59.9646 57.1799 60.8278 55.721 63.3485C55.1558 64.3414 54.9342 65.4337 55.0412 66.4955V86.7525C55.0412 89.6474 57.3938 92.0001 60.2964 92.0001C63.1913 92.0001 65.544 89.6474 65.544 86.7525V75.1039L75.5961 80.9091C78.1168 82.368 81.3478 81.4973 82.7991 78.9766C84.258 76.4559 83.3949 73.2325 80.8666 71.7812Z" fill="white"/>
<path d="M36.2431 49.5688C36.2736 47.6974 35.2883 45.9558 33.669 45.0163L15.7264 34.6586C14.9473 34.208 14.0536 33.9712 13.1599 33.9712C11.319 33.9712 9.60803 34.9565 8.69142 36.5453C7.27068 39.0049 8.11854 42.1595 10.5781 43.5803L20.9205 49.5459L10.5781 55.5191C9.38651 56.2065 8.53101 57.3141 8.17965 58.6432C7.82064 59.9723 8.00396 61.3625 8.69142 62.554C9.60803 64.1428 11.319 65.1282 13.1522 65.1282C14.0536 65.1282 14.9473 64.8914 15.7264 64.4407L33.669 54.0831C35.273 53.1512 36.2584 51.4249 36.2431 49.5688Z" fill="white"/>
<path d="M19.7976 27.3181L37.7402 37.6758C39.8331 38.8903 42.4149 38.4931 44.0648 36.8814C45.1113 35.9189 45.7605 34.544 45.7605 33.0164V12.2552C45.7605 9.35262 43.4079 7 40.513 7C37.6104 7 35.2577 9.35262 35.2577 12.2552V24.0718L25.0681 18.1902C22.5475 16.7313 19.3241 17.5944 17.8651 20.1151C16.4062 22.6358 17.277 25.8592 19.7976 27.3181Z" fill="white"/>
<path d="M60.1435 50.4089C60.1435 50.8061 59.9143 51.3561 59.6317 51.6464L52.5204 58.7577C52.2378 59.0403 51.6802 59.2695 51.283 59.2695H49.4727C49.0755 59.2695 48.5179 59.0403 48.2352 58.7577L41.1163 51.6464C40.8336 51.3561 40.6045 50.8061 40.6045 50.4089V48.5986C40.6045 48.1938 40.8336 47.6438 41.1163 47.3612L48.2352 40.2422C48.5179 39.9596 49.0755 39.7305 49.4727 39.7305H51.283C51.6802 39.7305 52.2378 39.9596 52.5204 40.2422L59.6317 47.3612C59.9143 47.6438 60.1435 48.1938 60.1435 48.5986V50.4089ZM53.796 49.5382V49.4618C53.796 49.1715 53.6279 48.7667 53.4217 48.5528L51.3212 46.4599C51.1149 46.246 50.7101 46.078 50.4122 46.078H50.3358C50.0455 46.078 49.6407 46.246 49.4268 46.4599L47.3339 48.5528C47.1277 48.759 46.9596 49.1639 46.9596 49.4618V49.5382C46.9596 49.8361 47.1277 50.2409 47.3339 50.4471L49.4268 52.5477C49.6407 52.7539 50.0455 52.922 50.3358 52.922H50.4122C50.7101 52.922 51.1149 52.7539 51.3212 52.5477L53.4217 50.4471C53.6279 50.2409 53.796 49.8361 53.796 49.5382Z" fill="white"/>
<path d="M62.9241 37.6758L80.8667 27.3181C83.3873 25.8668 84.2581 22.6358 82.7992 20.1151C81.3403 17.5944 78.1169 16.7313 75.5962 18.1902L65.5441 23.9954V12.2552C65.5441 9.35262 63.1914 7 60.2965 7C57.3939 7 55.0413 9.35262 55.0413 12.2552V32.6039C54.942 33.658 55.1482 34.7579 55.7211 35.7509C57.18 38.2716 60.4034 39.1347 62.9241 37.6758Z" fill="white"/>
<path d="M41.3379 60.8047C40.1463 60.5755 38.8707 60.7665 37.7402 61.4157L19.7976 71.781C17.277 73.2323 16.4062 76.4557 17.8651 78.9764C19.3241 81.5047 22.5475 82.3678 25.0681 80.9089L35.2577 75.0273V86.7523C35.2577 89.6472 37.6104 91.9998 40.513 91.9998C43.4079 91.9998 45.7605 89.6472 45.7605 86.7523V65.9911C45.7605 63.3712 43.8433 61.2018 41.3379 60.8047Z" fill="white"/>
<path d="M92.0796 36.4841C90.6283 33.9558 87.3973 33.0927 84.8766 34.5516L66.9341 44.9093C65.2154 45.9023 64.2683 47.7202 64.2988 49.5687C64.2835 51.4095 65.2307 53.2046 66.9341 54.1823L84.8766 64.5476C87.3973 65.9989 90.6207 65.1357 92.0796 62.6151C93.5386 60.0944 92.6678 56.871 90.1471 55.4121L79.9881 49.5458L90.1471 43.6795C92.6754 42.2282 93.5386 39.0048 92.0796 36.4841Z" fill="white"/>
</svg>
