<svg width="100" height="100" viewBox="0 0 100 100" fill="none" xmlns="http://www.w3.org/2000/svg">
<rect width="100" height="100" rx="24" fill="#232323"/>
<path d="M76.1845 33.7474C75.9723 33.9861 75.7071 34.1718 75.4153 34.2779C75.1236 34.4105 74.8053 34.4635 74.487 34.4635H14.41C12.2881 34.4635 11.2006 31.8111 12.686 30.2197L22.5529 19.7427C22.7651 19.504 23.0304 19.3183 23.3486 19.1857C23.6404 19.0531 23.9587 19 24.277 19H84.5927C86.7411 19 87.8021 21.6789 86.2902 23.2704L76.1845 33.7474ZM76.1845 80.5888C75.7336 81.0397 75.1236 81.305 74.487 81.305H14.41C12.2881 81.305 11.2006 78.7056 12.686 77.1672L22.5529 66.9289C22.7651 66.6902 23.0569 66.5046 23.3486 66.3985C23.6404 66.2658 23.9587 66.2128 24.277 66.2128H84.5927C86.7411 66.2128 87.8021 68.8387 86.2902 70.3771L76.1845 80.5888ZM76.1845 43.3225C75.7336 42.8716 75.1236 42.6064 74.487 42.6064H14.41C12.2881 42.6064 11.2006 45.2058 12.686 46.7442L22.5529 56.9824C22.7651 57.2211 23.0569 57.4068 23.3486 57.5129C23.6404 57.6455 23.9587 57.6986 24.277 57.6986H84.5927C86.7411 57.6986 87.8021 55.0727 86.2902 53.5343L76.1845 43.3225Z" fill="url(#paint0_linear_346_136)"/>
<defs>
<linearGradient id="paint0_linear_346_136" x1="16.5861" y1="82.0826" x2="82.2158" y2="18.1866" gradientUnits="userSpaceOnUse">
<stop stop-color="#CF41E8"/>
<stop offset="1" stop-color="#10F2B0"/>
</linearGradient>
</defs>
</svg>
