<svg width="100" height="100" viewBox="0 0 100 100" fill="none" xmlns="http://www.w3.org/2000/svg">
<rect width="100" height="100" rx="24" fill="white"/>
<path d="M92.0001 27.0588C92.0001 27.0588 63.8249 5.78338 41.9622 10.7522L40.0425 11.2829C37.053 12.1445 34.4375 13.9809 32.6119 16.5001C32.3175 16.9274 32.0497 17.3724 31.8101 17.8327L23.7358 31.5533L37.6823 34.2748C40.5363 36.2871 43.7824 37.6752 47.209 38.3484C50.6355 39.0217 54.1655 38.965 57.5687 38.1821L82.4126 43.0379L92.0001 27.0588Z" fill="#76B3E1"/>
<path opacity="0.3" d="M92.0001 27.0588C92.0001 27.0588 63.8249 5.78338 41.9622 10.7522L40.0425 11.2829C37.053 12.1445 34.4375 13.9809 32.6119 16.5001C32.3175 16.9274 32.0497 17.3724 31.8101 17.8327L23.7358 31.5533L37.6823 34.2748C40.5363 36.2871 43.7824 37.6752 47.209 38.3484C50.6355 39.0217 54.1655 38.965 57.5687 38.1821L82.4126 43.0379L92.0001 27.0588Z" fill="url(#paint0_linear_412_35)"/>
<path d="M32.3633 26.7878L30.4323 27.3298C21.5111 30.2095 18.462 38.5548 23.5889 45.8724C26.5489 49.5941 30.5539 52.3459 35.0894 53.7746C39.625 55.2033 44.484 55.2435 49.0426 53.8902L82.3786 43.038C82.3786 43.038 54.2598 21.819 32.3633 26.7878Z" fill="#518AC8"/>
<path opacity="0.3" d="M32.3633 26.7878L30.4323 27.3298C21.5111 30.2095 18.462 38.5548 23.5889 45.8724C26.5489 49.5941 30.5539 52.3459 35.0894 53.7746C39.625 55.2033 44.484 55.2435 49.0426 53.8902L82.3786 43.038C82.3786 43.038 54.2598 21.819 32.3633 26.7878Z" fill="url(#paint1_linear_412_35)"/>
<path d="M76.2806 50.8525C73.3252 47.111 69.3157 44.3417 64.7702 42.9023C60.2247 41.463 55.352 41.4198 50.7817 42.7782L17.4796 53.574L7 72.2295L66.6592 82.3929L77.3534 63.3648C79.4877 59.7172 79.2732 55.1211 76.2806 50.8525Z" fill="url(#paint2_linear_412_35)"/>
<path d="M65.801 69.5079C62.8468 65.7808 58.8468 63.0211 54.3137 61.5825C49.7807 60.1439 44.9213 60.0921 40.3586 61.4336L7 72.2294C7 72.2294 35.2317 93.5048 57.0379 88.536L58.9576 88.0053C67.8901 85.1708 70.9392 76.8255 65.801 69.5079Z" fill="url(#paint3_linear_412_35)"/>
<defs>
<linearGradient id="paint0_linear_412_35" x1="19.5688" y1="9.7697" x2="86.1279" y2="42.1119" gradientUnits="userSpaceOnUse">
<stop offset="0.1" stop-color="#76B3E1"/>
<stop offset="0.3" stop-color="#DCF2FD"/>
<stop offset="1" stop-color="#76B3E1"/>
</linearGradient>
<linearGradient id="paint1_linear_412_35" x1="56.078" y1="25.6133" x2="44.4239" y2="64.4263" gradientUnits="userSpaceOnUse">
<stop stop-color="#76B3E1"/>
<stop offset="0.5" stop-color="#4377BB"/>
<stop offset="1" stop-color="#1F3B77"/>
</linearGradient>
<linearGradient id="paint2_linear_412_35" x1="14.679" y1="42.5411" x2="81.9834" y2="88.299" gradientUnits="userSpaceOnUse">
<stop stop-color="#315AA9"/>
<stop offset="0.5" stop-color="#518AC8"/>
<stop offset="1" stop-color="#315AA9"/>
</linearGradient>
<linearGradient id="paint3_linear_412_35" x1="45.0676" y1="48.0179" x2="17.9087" y2="147.608" gradientUnits="userSpaceOnUse">
<stop stop-color="#4377BB"/>
<stop offset="0.5" stop-color="#1A336B"/>
<stop offset="1" stop-color="#1A336B"/>
</linearGradient>
</defs>
</svg>
