<svg width="100" height="100" viewBox="0 0 100 100" fill="none" xmlns="http://www.w3.org/2000/svg">
<rect width="100" height="100" rx="24" fill="white"/>
<path d="M13 70.75V28.25C18.2655 25.1801 23.5311 22.1125 28.7966 19.047C35.7279 15.0224 42.6592 11.0067 49.5905 7H50.1808C56.6045 10.7205 63.0272 14.4411 69.4487 18.1616C75.2285 21.5155 81.0049 24.8783 86.778 28.25V70.75C86.1072 71.1726 85.4734 71.6254 84.7959 72.0178C73.2586 78.6807 61.7203 85.3415 50.1808 92H49.5905C44.7476 89.1828 39.9046 86.3644 35.0616 83.5449C27.7145 79.2766 20.3606 75.0116 13 70.75ZM76.0524 49.5939C76.0524 45.0226 76.0222 40.4513 76.0725 35.88C76.0725 34.8034 75.6969 34.183 74.7712 33.6531C66.8785 29.141 59.0025 24.6021 51.1433 20.0364C50.7849 19.7874 50.359 19.654 49.9225 19.654C49.4861 19.654 49.0602 19.7874 48.7017 20.0364C40.8873 24.5842 33.0616 29.103 25.2248 33.5927C24.1482 34.2064 23.729 34.9342 23.7357 36.1651C23.7804 45.0148 23.7804 53.8634 23.7357 62.7108C23.7357 64.0524 24.1415 64.8506 25.3288 65.5247C33.1075 69.9384 40.8593 74.399 48.5844 78.9066C49.5536 79.47 50.3116 79.4935 51.2909 78.9233C59.0786 74.3733 66.9031 69.8568 74.7645 65.3738C75.7707 64.8036 76.1061 64.1161 76.0792 63.006C76.0289 58.5319 76.0524 54.0579 76.0524 49.5939Z" fill="url(#paint0_linear_346_140)"/>
<defs>
<linearGradient id="paint0_linear_346_140" x1="15.1532" y1="25.1745" x2="84.6315" y2="73.8255" gradientUnits="userSpaceOnUse">
<stop stop-color="#6D3DEC"/>
<stop offset="0.87" stop-color="#4BA8E9"/>
</linearGradient>
</defs>
</svg>
