<svg width="100" height="100" viewBox="0 0 100 100" fill="none" xmlns="http://www.w3.org/2000/svg">
<rect width="100" height="100" rx="24" fill="white"/>
<path d="M31.0451 85.54C47.4732 85.54 58.1582 76.839 58.1582 63.75C58.1582 53.5993 51.6594 47.1492 40.0395 44.478L32.5791 42.2403C26.0346 40.7711 22.2146 39.0069 23.1146 34.5C23.8634 30.7506 26.1034 28.634 31.3123 28.634C47.8714 28.634 54.0067 34.5 54.0067 34.5V20.3913C54.0067 20.3913 48.0335 15 31.3123 15C15.552 15 7 23.1095 7 35.6643C7 45.8149 12.9265 51.7181 24.9471 54.5229C25.7884 54.7332 26.2183 54.8413 26.237 54.8471C28.0655 55.4129 30.5327 56.1606 33.6388 57.09C39.7826 58.5592 41.3626 60.1185 41.3626 64.7932C41.3626 69.0671 36.9219 71.4966 31.0451 71.4966C14.1161 71.4966 7 62.9324 7 62.9324V78.5637C7 78.5637 11.45 85.54 31.0451 85.54Z" fill="url(#paint0_linear_280_16)"/>
<path d="M81.8539 84.483C87.6693 84.483 92 80.2761 92 74.5843C92 68.7688 87.7931 64.6856 81.8539 64.6856C76.0384 64.6856 71.8314 68.7688 71.8314 74.5843C71.8314 80.3998 76.0384 84.483 81.8539 84.483Z" fill="#E80000"/>
<defs>
<linearGradient id="paint0_linear_280_16" x1="2564.91" y1="15" x2="2564.91" y2="7069" gradientUnits="userSpaceOnUse">
<stop stop-color="#9D39FF"/>
<stop offset="1" stop-color="#A380FF"/>
</linearGradient>
</defs>
</svg>
