<svg width="100" height="100" viewBox="0 0 100 100" fill="none" xmlns="http://www.w3.org/2000/svg">
<rect width="100" height="100" rx="24" fill="#4DBAE8"/>
<path d="M19.6238 56.2669C19.6238 57.273 19.3699 58.1341 18.8618 58.8499C18.3541 59.5658 17.6333 60.1122 16.6999 60.4895C15.7665 60.8667 14.6997 61.0554 13.5004 61.0554C10.3177 61.0554 8.15093 60.17 7 58.4L9.78592 56.4413C10.2404 57.0601 10.7654 57.4737 11.3602 57.6815C11.955 57.8899 12.591 57.9935 13.2682 57.9935C15.048 57.9935 15.9383 57.4763 15.9383 56.4413C15.9383 55.9864 15.6867 55.6358 15.1838 55.389C14.6805 55.1423 13.8922 54.8884 12.8186 54.6274C10.7966 54.1826 9.37458 53.5537 8.55253 52.7411C7.73016 51.9285 7.31914 50.8743 7.31914 49.5776C7.31914 48.2332 7.83438 47.1254 8.86453 46.255C9.89468 45.3843 11.4112 44.9492 13.4134 44.9492C14.7773 44.9492 15.9792 45.1667 17.0194 45.6021C18.059 46.0375 18.8596 46.69 19.4206 47.5608L16.6204 49.5487C15.9525 48.5234 14.8643 48.0108 13.3553 48.0108C12.5813 48.0108 11.9962 48.1436 11.5998 48.4098C11.2031 48.676 11.0047 49.0169 11.0047 49.4328C11.0047 49.8295 11.1836 50.1461 11.5417 50.3831C11.8995 50.6201 12.6056 50.8691 13.6601 51.1304C15.3915 51.5561 16.6275 51.9791 17.3674 52.3999C18.1077 52.8206 18.6683 53.3433 19.0505 53.967C19.4326 54.591 19.6238 55.3579 19.6238 56.2669Z" fill="white"/>
<path d="M31.0142 60.6055C30.0081 60.9051 28.9488 61.0551 27.8365 61.0551C26.0758 61.0551 24.8087 60.6587 24.035 59.8656C23.261 59.0724 22.874 57.7858 22.874 56.006V48.3589H20.9442V45.3843H22.874V41.1472H26.6177V45.3843H30.1581V48.3589H26.6177V55.5268C26.6177 56.4751 26.7651 57.1183 27.0602 57.4569C27.3553 57.7955 27.7735 57.9647 28.3153 57.9647C29.002 57.9647 29.6841 57.8244 30.3614 57.5439L31.0142 60.6055Z" fill="white"/>
<path d="M42.5209 51.3916C42.5209 49.0797 41.5099 47.9236 39.4882 47.9236C38.8207 47.9236 38.274 48.0375 37.8483 48.2648C37.4227 48.4921 37.0818 48.8304 36.8257 49.2803C36.5692 49.73 36.3685 50.4339 36.2234 51.3916H42.5209ZM36.1218 53.9743C36.1893 55.3288 36.5185 56.3012 37.1084 56.8907C37.6983 57.481 38.6272 57.7761 39.8944 57.7761C40.6294 57.7761 41.2751 57.6842 41.8316 57.5001C42.3878 57.3167 42.8738 56.9635 43.29 56.4411L46.0759 58.429C45.4662 59.3095 44.6756 59.9672 43.7033 60.4023C42.7313 60.8377 41.4037 61.0552 39.7203 61.0552C37.2149 61.0552 35.3455 60.3977 34.1121 59.0819C32.8787 57.7664 32.2622 55.7788 32.2622 53.1182C32.2622 47.6723 34.6998 44.949 39.5752 44.949C41.742 44.949 43.3936 45.561 44.5305 46.7847C45.6668 48.0083 46.2353 49.7907 46.2353 52.1315V53.9743H36.1218Z" fill="white"/>
<path d="M49.6162 39H53.3599V60.6056H49.6162V39Z" fill="white"/>
<path d="M57.5823 39H61.3259V60.6056H57.5823V39Z" fill="white"/>
<path d="M74.2253 53.539L72.3245 53.7133C70.9797 53.8292 70.0103 54.0857 69.4152 54.4821C68.8204 54.8789 68.523 55.4737 68.523 56.2668C68.523 56.9635 68.7162 57.4401 69.1032 57.6963C69.4902 57.9524 70.0028 58.0807 70.6414 58.0807C71.0959 58.0807 71.6498 57.9382 72.3027 57.6525C72.9556 57.3674 73.5965 56.9635 74.2253 56.4411V53.539ZM74.5299 60.6056V59.0238C73.0501 60.3783 71.4635 61.0552 69.7707 61.0552C68.0876 61.0552 66.8153 60.6127 65.9546 59.7277C65.0936 58.8423 64.6631 57.7083 64.6631 56.3249C64.6631 55.2418 64.8832 54.3468 65.3234 53.6406C65.7634 52.9345 66.4163 52.3806 67.2821 51.9793C68.1477 51.5777 69.3934 51.2949 71.0187 51.1303L74.2253 50.8258V50.1437C74.2253 49.2924 73.9689 48.7096 73.4562 48.3951C72.9436 48.0808 72.1939 47.9236 71.2073 47.9236C70.3947 47.9236 69.6957 48.0594 69.1106 48.3298C68.5249 48.6009 68.0922 48.9879 67.812 49.4908L64.8952 47.6188C65.4079 46.7581 66.2107 46.0977 67.3039 45.6383C68.397 45.179 69.7174 44.9491 71.2651 44.9491C73.6351 44.9491 75.3448 45.3624 76.3947 46.1896C77.444 47.0169 77.969 48.3733 77.969 50.2596V60.6056H74.5299Z" fill="white"/>
<path d="M91.2602 49.041C90.8732 48.8475 90.3606 48.7507 89.7223 48.7507C89.0259 48.7507 88.3655 48.9176 87.7415 49.2513C87.1175 49.5851 86.4766 50.0711 85.8189 50.7097V60.6054H82.0752V45.3843H85.8189V47.5608C86.4575 46.8644 87.1441 46.2888 87.8795 45.8343C88.6145 45.3797 89.4366 45.1522 90.3463 45.1522C91.1199 45.1522 91.6712 45.2538 92.0001 45.4567L91.2602 49.041Z" fill="white"/>
</svg>
