<svg width="100" height="100" viewBox="0 0 100 100" fill="none" xmlns="http://www.w3.org/2000/svg">
<rect width="100" height="100" rx="24" fill="#5481A0"/>
<path d="M20.5363 54.7815C17.6358 57.6528 13.0069 57.6528 10.1411 54.7815C7.28629 51.9157 7.28629 47.2814 10.1411 44.4156L27.1257 27.4237L31.6868 31.9647L14.5633 49.0755L15.8618 50.3648L32.9524 33.2523L37.5081 37.8098L20.5363 54.7815Z" fill="white"/>
<path d="M33.7606 44.2364C36.6173 41.3688 41.2461 41.3688 44.1101 44.2364C46.9979 47.0986 46.9979 51.7311 44.1101 54.5969L27.1256 71.5979L22.5992 67.0513L39.7008 49.9461L38.4224 48.6659L21.2934 65.7602L16.7542 61.2246L33.7606 44.2364Z" fill="white"/>
<path d="M55.771 79.4818C58.635 82.3403 58.635 86.9838 55.771 89.8478C52.9052 92.7172 48.2544 92.7172 45.4087 89.8478L28.415 72.8522L32.9414 68.3094L50.0412 85.4219L51.347 84.1509L34.2399 67.0274L38.7737 62.479L55.771 79.4818Z" fill="white"/>
<path d="M45.2022 66.2484C42.3473 63.3863 42.3473 58.7245 45.2022 55.8789C48.0661 53.013 52.7315 53.013 55.5955 55.8789L72.5819 72.8671L68.0427 77.4026L50.921 60.3028L49.6353 61.5776L66.746 78.6974L62.2032 83.2275L45.2022 66.2484Z" fill="white"/>
<path d="M67.2452 54.7815C64.3758 57.6363 59.7451 57.6363 56.8702 54.7815C54.0062 51.9157 54.0062 47.2667 56.8702 44.4028L73.8547 27.4237L78.4232 31.9483L61.3051 49.07L62.5817 50.3502L79.6814 33.2523L84.2481 37.7823L67.2452 54.7815Z" fill="white"/>
<path d="M80.4678 44.2254C83.3464 41.3523 87.9862 41.3523 90.8411 44.2254C93.716 47.0802 93.716 51.731 90.8411 54.5968L73.8547 71.5923L69.3173 67.0275L86.4262 49.9278L85.1314 48.6531L68.0426 65.751L63.4851 61.2099L80.4678 44.2254Z" fill="white"/>
<path d="M55.771 32.7493C58.635 35.6188 58.635 40.2641 55.771 43.1354C52.9052 45.9957 48.2544 45.9957 45.4087 43.1354L28.415 26.1398L32.9414 21.5915L50.0412 38.7077L51.347 37.4001L34.2399 20.3186L38.7737 15.7629L55.771 32.7493Z" fill="white"/>
<path d="M45.2022 19.5212C42.3473 16.6664 42.3473 12.0028 45.2022 9.15896C48.0661 6.28035 52.7315 6.28035 55.5955 9.15896L72.5819 26.1399L68.0427 30.6937L50.921 13.5756L49.6353 14.854L66.746 31.9647L62.2032 36.5149L45.2022 19.5212Z" fill="white"/>
</svg>
