<svg width="100" height="100" viewBox="0 0 100 100" fill="none" xmlns="http://www.w3.org/2000/svg">
<rect width="100" height="100" rx="24" fill="black"/>
<g clip-path="url(#clip0_281_9)">
<path d="M9.40833 49.5H89.5917V77.8333C89.5917 84.4917 84.4917 89.5917 77.8333 89.5917H21.1667C14.5083 89.5917 9.40833 84.4917 9.40833 77.8333V49.5Z" fill="black"/>
<path d="M25.6579 45.0088C24.7696 44.1205 23.6379 43.5156 22.4058 43.2705C21.1737 43.0254 19.8967 43.1512 18.7361 43.632C17.5755 44.1127 16.5835 44.9268 15.8856 45.9713C15.1877 47.0158 14.8152 48.2438 14.8152 49.5C14.8152 50.7562 15.1877 51.9842 15.8856 53.0287C16.5835 54.0732 17.5755 54.8873 18.7361 55.368C19.8967 55.8487 21.1737 55.9745 22.4058 55.7295C23.6379 55.4844 24.7696 54.8795 25.6579 53.9912H73.3422C74.2304 54.8795 75.3622 55.4844 76.5942 55.7295C77.8263 55.9745 79.1034 55.8487 80.264 55.368C81.4246 54.8873 82.4165 54.0732 83.1144 53.0287C83.8123 51.9842 84.1849 50.7562 84.1849 49.5C84.1849 48.2438 83.8123 47.0158 83.1144 45.9713C82.4165 44.9268 81.4246 44.1127 80.264 43.632C79.1034 43.1512 77.8263 43.0254 76.5942 43.2705C75.3622 43.5156 74.2304 44.1205 73.3422 45.0088H25.6579Z" fill="#FFB13B" stroke="black" stroke-width="38.0086"/>
<path d="M35.8168 29.4653C35.8168 28.2091 35.4443 26.9811 34.7464 25.9366C34.0485 24.8921 33.0565 24.078 31.8959 23.5973C30.7354 23.1165 29.4583 22.9908 28.2262 23.2358C26.9941 23.4809 25.8624 24.0858 24.9741 24.9741C24.0859 25.8624 23.4809 26.9941 23.2359 28.2262C22.9908 29.4583 23.1166 30.7353 23.5973 31.8959C24.078 33.0565 24.8921 34.0485 25.9366 34.7464C26.9811 35.4443 28.2091 35.8168 29.4653 35.8168L63.1832 69.5347C63.1832 70.7909 63.5557 72.0189 64.2536 73.0634C64.9515 74.1079 65.9435 74.922 67.1041 75.4027C68.2647 75.8834 69.5418 76.0092 70.7738 75.7641C72.0059 75.5191 73.1376 74.9141 74.0259 74.0259C74.9142 73.1376 75.5191 72.0059 75.7642 70.7738C76.0092 69.5417 75.8835 68.2646 75.4027 67.1041C74.922 65.9435 74.1079 64.9515 73.0634 64.2536C72.0189 63.5557 70.7909 63.1832 69.5347 63.1832L35.8168 29.4653Z" fill="#FFB13B" stroke="black" stroke-width="38.0086"/>
<path d="M53.9912 25.6579C54.8795 24.7696 55.4844 23.6379 55.7295 22.4058C55.9746 21.1737 55.8488 19.8966 55.3681 18.736C54.8873 17.5755 54.0733 16.5835 53.0288 15.8856C51.9843 15.1877 50.7563 14.8152 49.5 14.8152C48.2438 14.8152 47.0158 15.1877 45.9713 15.8856C44.9268 16.5835 44.1127 17.5755 43.632 18.736C43.1513 19.8966 43.0255 21.1737 43.2706 22.4058C43.5157 23.6379 44.1206 24.7696 45.0088 25.6579V73.3421C44.1206 74.2304 43.5157 75.3621 43.2706 76.5942C43.0255 77.8263 43.1513 79.1033 43.632 80.2639C44.1127 81.4245 44.9268 82.4165 45.9713 83.1144C47.0158 83.8123 48.2438 84.1848 49.5 84.1848C50.7563 84.1848 51.9843 83.8123 53.0288 83.1144C54.0733 82.4165 54.8873 81.4245 55.3681 80.2639C55.8488 79.1033 55.9746 77.8263 55.7295 76.5942C55.4844 75.3621 54.8795 74.2304 53.9912 73.3421V25.6579Z" fill="#FFB13B" stroke="black" stroke-width="38.0086"/>
<path d="M69.5347 35.8168C70.7909 35.8168 72.0189 35.4443 73.0634 34.7464C74.1079 34.0485 74.922 33.0565 75.4027 31.8959C75.8835 30.7353 76.0092 29.4583 75.7642 28.2262C75.5191 26.9941 74.9142 25.8624 74.0259 24.9741C73.1376 24.0858 72.0059 23.4809 70.7738 23.2358C69.5417 22.9908 68.2647 23.1165 67.1041 23.5973C65.9435 24.078 64.9515 24.8921 64.2536 25.9366C63.5557 26.9811 63.1832 28.2091 63.1832 29.4653L29.4653 63.1832C28.2091 63.1832 26.9811 63.5557 25.9366 64.2536C24.8921 64.9515 24.078 65.9435 23.5973 67.1041C23.1166 68.2646 22.9908 69.5417 23.2359 70.7738C23.4809 72.0059 24.0859 73.1376 24.9741 74.0259C25.8624 74.9141 26.9941 75.5191 28.2262 75.7641C29.4583 76.0092 30.7354 75.8834 31.8959 75.4027C33.0565 74.922 34.0485 74.1079 34.7464 73.0634C35.4443 72.0189 35.8168 70.7909 35.8168 69.5347L69.5347 35.8168Z" fill="#FFB13B" stroke="black" stroke-width="38.0086"/>
<path d="M25.6579 45.0088C24.7696 44.1205 23.6379 43.5156 22.4058 43.2705C21.1737 43.0254 19.8967 43.1512 18.7361 43.632C17.5755 44.1127 16.5835 44.9268 15.8856 45.9713C15.1877 47.0158 14.8152 48.2438 14.8152 49.5C14.8152 50.7562 15.1877 51.9842 15.8856 53.0287C16.5835 54.0732 17.5755 54.8873 18.7361 55.368C19.8967 55.8487 21.1737 55.9745 22.4058 55.7295C23.6379 55.4844 24.7696 54.8795 25.6579 53.9912H73.3422C74.2304 54.8795 75.3622 55.4844 76.5942 55.7295C77.8263 55.9745 79.1034 55.8487 80.264 55.368C81.4246 54.8873 82.4165 54.0732 83.1144 53.0287C83.8123 51.9842 84.1849 50.7562 84.1849 49.5C84.1849 48.2438 83.8123 47.0158 83.1144 45.9713C82.4165 44.9268 81.4246 44.1127 80.264 43.632C79.1034 43.1512 77.8263 43.0254 76.5942 43.2705C75.3622 43.5156 74.2304 44.1205 73.3422 45.0088H25.6579Z" fill="#FFB13B"/>
<path d="M35.8168 29.4653C35.8168 28.2091 35.4443 26.9811 34.7464 25.9366C34.0485 24.8921 33.0565 24.078 31.8959 23.5973C30.7354 23.1165 29.4583 22.9908 28.2262 23.2358C26.9941 23.4809 25.8624 24.0858 24.9741 24.9741C24.0859 25.8624 23.4809 26.9941 23.2359 28.2262C22.9908 29.4583 23.1166 30.7353 23.5973 31.8959C24.078 33.0565 24.8921 34.0485 25.9366 34.7464C26.9811 35.4443 28.2091 35.8168 29.4653 35.8168L63.1832 69.5347C63.1832 70.7909 63.5557 72.0189 64.2536 73.0634C64.9515 74.1079 65.9435 74.922 67.1041 75.4027C68.2647 75.8834 69.5418 76.0092 70.7738 75.7641C72.0059 75.5191 73.1376 74.9141 74.0259 74.0259C74.9142 73.1376 75.5191 72.0059 75.7642 70.7738C76.0092 69.5417 75.8835 68.2646 75.4027 67.1041C74.922 65.9435 74.1079 64.9515 73.0634 64.2536C72.0189 63.5557 70.7909 63.1832 69.5347 63.1832L35.8168 29.4653Z" fill="#FFB13B"/>
<path d="M53.9912 25.6579C54.8795 24.7696 55.4844 23.6379 55.7295 22.4058C55.9746 21.1737 55.8488 19.8966 55.3681 18.736C54.8873 17.5755 54.0733 16.5835 53.0288 15.8856C51.9843 15.1877 50.7563 14.8152 49.5 14.8152C48.2438 14.8152 47.0158 15.1877 45.9713 15.8856C44.9268 16.5835 44.1127 17.5755 43.632 18.736C43.1513 19.8966 43.0255 21.1737 43.2706 22.4058C43.5157 23.6379 44.1206 24.7696 45.0088 25.6579V73.3421C44.1206 74.2304 43.5157 75.3621 43.2706 76.5942C43.0255 77.8263 43.1513 79.1033 43.632 80.2639C44.1127 81.4245 44.9268 82.4165 45.9713 83.1144C47.0158 83.8123 48.2438 84.1848 49.5 84.1848C50.7563 84.1848 51.9843 83.8123 53.0288 83.1144C54.0733 82.4165 54.8873 81.4245 55.3681 80.2639C55.8488 79.1033 55.9746 77.8263 55.7295 76.5942C55.4844 75.3621 54.8795 74.2304 53.9912 73.3421V25.6579Z" fill="#FFB13B"/>
<path d="M69.5347 35.8168C70.7909 35.8168 72.0189 35.4443 73.0634 34.7464C74.1079 34.0485 74.922 33.0565 75.4027 31.8959C75.8835 30.7353 76.0092 29.4583 75.7642 28.2262C75.5191 26.9941 74.9142 25.8624 74.0259 24.9741C73.1376 24.0858 72.0059 23.4809 70.7738 23.2358C69.5417 22.9908 68.2647 23.1165 67.1041 23.5973C65.9435 24.078 64.9515 24.8921 64.2536 25.9366C63.5557 26.9811 63.1832 28.2091 63.1832 29.4653L29.4653 63.1832C28.2091 63.1832 26.9811 63.5557 25.9366 64.2536C24.8921 64.9515 24.078 65.9435 23.5973 67.1041C23.1166 68.2646 22.9908 69.5417 23.2359 70.7738C23.4809 72.0059 24.0859 73.1376 24.9741 74.0259C25.8624 74.9141 26.9941 75.5191 28.2262 75.7641C29.4583 76.0092 30.7354 75.8834 31.8959 75.4027C33.0565 74.922 34.0485 74.1079 34.7464 73.0634C35.4443 72.0189 35.8168 70.7909 35.8168 69.5347L69.5347 35.8168Z" fill="#FFB13B"/>
<path d="M9.40833 49.5H89.5917V77.8333C89.5917 84.4917 84.4917 89.5917 77.8333 89.5917H21.1667C14.5083 89.5917 9.40833 84.4917 9.40833 77.8333V49.5Z" fill="black"/>
<path d="M21.4398 69.5141C19.5591 67.6339 18.3951 65.0374 18.3951 62.1695C18.3951 56.4315 23.0492 51.7803 28.7844 51.7803C34.5225 51.7803 39.1765 56.4315 39.1765 62.1695H33.0905C33.0905 59.7929 31.1616 57.8668 28.7844 57.8668C26.4078 57.8668 24.4817 59.7929 24.4817 62.1695C24.4817 63.3567 24.9639 64.4322 25.7397 65.2086H25.7425C26.5217 65.9906 27.1705 66.2167 28.7844 66.4728C31.6551 66.7714 34.2516 67.6367 36.1318 69.5169C38.0126 71.3977 39.1765 73.9942 39.1765 76.8621C39.1765 82.6001 34.5225 87.2542 28.7844 87.2542C23.0492 87.2542 18.3951 82.6001 18.3951 76.8621H24.4817C24.4817 79.2387 26.4078 81.1676 28.7844 81.1676C31.1616 81.1676 33.0905 79.2387 33.0905 76.8621C33.0905 75.6749 32.6083 74.6022 31.8319 73.823H31.8291C31.0499 73.0439 29.9319 72.7753 28.7844 72.5616V72.5588C26.0021 72.1321 23.32 71.3949 21.4398 69.5141Z" fill="white"/>
<path d="M59.9562 51.7803L52.6065 87.2542H46.5205L39.1765 51.7803H45.2625L49.5692 72.556L53.8702 51.7803H59.9562Z" fill="white"/>
<path d="M70.3489 66.4728H80.7382V76.8621H80.741C80.741 82.6007 76.087 87.2548 70.3489 87.2548C64.6103 87.2548 59.9596 82.6007 59.9596 76.8621V62.1701H59.9568C59.9568 56.4321 64.6103 51.7809 70.3489 51.7809C76.0841 51.7809 80.7382 56.4321 80.7382 62.1701H74.6516C74.6516 59.7958 72.7227 57.8669 70.3489 57.8669C67.9717 57.8669 66.0456 59.7958 66.0456 62.1701V76.8621C66.0456 79.2393 67.9717 81.1654 70.3489 81.1654C72.7227 81.1654 74.6488 79.2393 74.6516 76.8649V76.8621V72.5622H70.3489V66.4728Z" fill="white"/>
</g>
<defs>
<clipPath id="clip0_281_9">
<rect width="85" height="85" fill="white" transform="translate(7 7)"/>
</clipPath>
</defs>
</svg>
