<svg width="100" height="100" viewBox="0 0 100 100" fill="none" xmlns="http://www.w3.org/2000/svg">
<rect width="100" height="100" rx="24" fill="black"/>
<path d="M75.2874 12.0091C69.6572 12.2066 64.7379 15.311 61.0825 19.6043C57.0282 24.3123 54.3345 29.8991 52.3913 35.5984C48.9176 32.7507 46.2377 29.0657 40.6648 27.4582C36.3537 26.22 31.8314 26.7295 27.6704 29.83C25.6975 31.3032 24.3408 33.5288 23.6951 35.6202C22.0204 41.0588 25.4507 45.8991 27.0108 47.639L30.4174 51.2845C31.1204 52.0013 32.8089 53.8695 31.9854 56.5454C31.0908 59.4583 27.5835 61.3403 23.9834 60.2324C22.3759 59.7348 20.0653 58.54 20.5847 56.8574C20.798 56.1663 21.2917 55.6469 21.5583 55.0564C21.8012 54.5429 21.9158 54.1598 21.9888 53.9347C22.6464 51.7861 21.7479 48.9937 19.4492 48.2847C17.3026 47.6291 15.1105 48.1504 14.2593 50.9093C13.2917 54.0512 14.7945 59.7407 22.838 62.223C32.2619 65.1201 40.2342 59.9856 41.3638 53.2949C42.0768 49.1043 40.1809 45.988 36.7151 41.9811L33.8911 38.8589C32.1789 37.1467 31.5924 34.2338 33.3619 31.9963C34.8568 30.1064 36.9837 29.3007 40.4732 30.2466C45.5623 31.6251 47.8314 35.158 51.6152 38.0077C50.0531 43.1324 49.0301 48.2768 48.1079 52.894L47.5411 56.3302C44.8336 70.5213 42.7699 78.312 37.4023 82.785C36.3221 83.5571 34.7739 84.7065 32.4455 84.7874C31.2231 84.8269 30.8301 83.9857 30.8104 83.6183C30.7827 82.7613 31.5075 82.3683 31.9874 81.9832C32.7042 81.5902 33.7884 80.9424 33.7153 78.8669C33.6344 76.4063 31.6003 74.2774 28.6618 74.3781C26.4559 74.4512 23.1006 76.5228 23.227 80.3223C23.3574 84.2404 27.0108 87.1809 32.5206 86.9913C35.467 86.8946 42.0432 85.6958 48.5226 77.992C56.0645 69.1586 58.1756 59.0337 59.7633 51.6242L61.5328 41.8428C62.5182 41.9594 63.5688 42.0403 64.7142 42.066C74.1085 42.2674 78.8066 37.3995 78.8797 33.8606C78.9251 31.7179 77.4736 29.6108 75.4395 29.6581C73.986 29.6996 72.1573 30.6673 71.7189 32.6777C71.2904 34.6525 74.7088 36.4338 72.0369 38.1657C70.1391 39.396 66.7364 40.261 61.9455 39.558L62.8184 34.7414C64.5937 25.6098 66.7897 14.3769 75.1097 14.1064C75.716 14.0748 77.9357 14.134 77.987 15.5994C78.0008 16.0891 77.8804 16.2155 77.3077 17.3372C76.7212 18.2101 76.502 18.9546 76.5276 19.8117C76.6106 22.142 78.382 23.6744 80.9473 23.5836C84.3776 23.471 85.365 20.1316 85.3097 18.4135C85.1675 14.375 80.9137 11.8274 75.2874 12.0091Z" fill="white"/>
</svg>
