<svg width="100" height="100" viewBox="0 0 100 100" fill="none" xmlns="http://www.w3.org/2000/svg">
<rect width="100" height="100" rx="24" fill="#38BDF8"/>
<path d="M49.4988 25C38.1657 25 31.0827 30.6666 28.2498 42.0005C32.4999 36.3331 37.4587 34.2081 43.1252 35.6253C46.3582 36.4327 48.6689 38.7795 51.227 41.3754C55.3935 45.6046 60.2165 50.4999 70.7502 50.4999C82.0833 50.4999 89.1663 44.8334 92 33.4994C87.7499 39.1668 82.7911 41.2919 77.1246 39.8746C73.8916 39.0672 71.5809 36.7204 69.0228 34.1245C64.8555 29.8953 60.0333 25 49.4988 25ZM28.2498 50.4999C16.9167 50.4999 9.83368 56.1665 7 67.5004C11.2501 61.833 16.2081 59.708 21.8746 61.1252C25.1084 61.9343 27.4183 64.2795 29.9764 66.8753C34.1429 71.1046 38.9667 75.9998 49.4996 75.9998C60.8335 75.9998 67.9165 70.3333 70.7502 58.9994C66.5001 64.6667 61.5413 66.7918 55.8748 65.3745C52.6418 64.5671 50.3311 62.2203 47.773 59.6252C43.6065 55.3952 38.7835 50.4999 28.2498 50.4999Z" fill="white"/>
</svg>
