<svg width="100" height="100" viewBox="0 0 100 100" fill="none" xmlns="http://www.w3.org/2000/svg">
<rect width="100" height="100" rx="24" fill="black"/>
<path d="M52.5683 44.7116V74.1783H47.0717V42.6433L52.5683 44.7116Z" fill="white"/>
<path d="M30.61 41.9634C30.61 34.4267 34.7183 30.3184 39.535 30.3184C44.3517 30.3184 45.0317 30.9984 50.5 33.7467C55.9683 36.495 57.3566 37.175 60.105 37.175C62.8533 37.175 64.2133 35.1067 64.2133 30.9984H69.0017C69.6817 39.215 64.8933 42.6434 60.0767 42.6434C55.26 42.6434 53.9 41.9634 49.1117 39.215C44.3233 36.4667 42.935 35.7867 40.1867 35.7867C37.4383 35.7867 36.0783 37.855 35.3983 42.6434L30.61 41.9634Z" fill="white"/>
<path d="M50.5 92C27.0683 92 8 72.9317 8 49.5C8 26.0683 27.0683 7 50.5 7C73.9317 7 93 26.0683 93 49.5C93 72.9317 73.9317 92 50.5 92ZM50.5 9.74833C28.57 9.74833 10.7483 27.57 10.7483 49.5C10.7483 71.43 28.57 89.2517 50.5 89.2517C72.43 89.2517 90.2517 71.43 90.2517 49.5C90.2517 27.57 72.43 9.74833 50.5 9.74833Z" fill="white"/>
</svg>
