<svg width="100" height="100" viewBox="0 0 100 100" fill="none" xmlns="http://www.w3.org/2000/svg">
<rect width="100" height="100" rx="24" fill="white"/>
<path fill-rule="evenodd" clip-rule="evenodd" d="M35.5934 41.2804C51.8205 35.6872 54.5826 21.1172 52.511 7.7212C52.511 7.23784 52.9253 6.89258 53.3397 7.03069C68.8763 14.6264 86.3464 31.1988 86.3464 56.0574C86.3464 75.1157 71.5693 91.9643 50.0942 91.9643C42.4313 92.3128 34.8705 90.0994 28.6053 85.6735C22.34 81.2476 17.7271 74.8613 15.4946 67.5225C13.2621 60.1837 13.5371 52.3104 16.2763 45.1453C19.0155 37.9802 24.0628 31.9313 30.6216 27.9534C31.0359 27.6772 31.5884 27.9534 31.5884 28.4367C31.7955 30.9916 32.486 37.4135 35.3172 41.2804H35.5934Z" fill="url(#paint0_linear_277_321)"/>
<defs>
<linearGradient id="paint0_linear_277_321" x1="7248.64" y1="7" x2="-1142.12" y2="7148.67" gradientUnits="userSpaceOnUse">
<stop stop-color="#FF7854"/>
<stop offset="1" stop-color="#FD267D"/>
</linearGradient>
</defs>
</svg>
