<svg width="100" height="100" viewBox="0 0 100 100" fill="none" xmlns="http://www.w3.org/2000/svg">
<rect width="100" height="100" rx="24" fill="#E44332"/>
<path d="M21.1456 47.1884C22.8891 46.1704 60.3422 24.4052 61.1984 23.9009C62.0545 23.4027 62.1012 21.871 61.1361 21.3168C60.1772 20.7658 58.3559 19.7197 57.6803 19.3181C56.7157 18.7874 55.5434 18.8016 54.5919 19.3554C54.1125 19.6356 22.1107 38.2221 21.0429 38.8323C19.7571 39.5671 18.1786 39.5795 16.9022 38.8323L0 28.9133V37.3441C4.10957 39.7663 14.343 45.7812 16.8212 47.1978C18.3 48.0384 19.7166 48.0197 21.1487 47.1884" fill="white"/>
<path d="M21.1456 63.1286C22.8891 62.1106 60.3422 40.3454 61.1984 39.8411C62.0545 39.3429 62.1012 37.8112 61.1361 37.257C60.1772 36.7059 58.3559 35.6599 57.6803 35.2583C56.7157 34.7276 55.5434 34.7417 54.5919 35.2956C54.1125 35.5758 22.1107 54.1623 21.0429 54.7725C19.7571 55.5072 18.1786 55.5197 16.9022 54.7725L0 44.8535V53.2843C4.10957 55.7065 14.343 61.7214 16.8212 63.138C18.3 63.9786 19.7166 63.9599 21.1487 63.1286" fill="white"/>
<path d="M21.1456 80.065C22.8891 79.047 60.3422 57.2818 61.1984 56.7775C62.0545 56.2793 62.1012 54.7476 61.1361 54.1934C60.1772 53.6423 58.3559 52.5963 57.6803 52.1947C56.7157 51.664 55.5434 51.6781 54.5919 52.232C54.1125 52.5122 22.1107 71.0987 21.0429 71.7089C19.7571 72.4436 18.1786 72.4561 16.9022 71.7089L0 61.7899V70.2207C4.10957 72.6429 14.343 78.6578 16.8212 80.0744C18.3 80.915 19.7166 80.8963 21.1487 80.065" fill="white"/>
</svg>
