<svg width="100" height="100" viewBox="0 0 100 100" fill="none" xmlns="http://www.w3.org/2000/svg">
<rect width="100" height="100" rx="24" fill="white"/>
<path d="M55.9182 27.838L54.5636 33.2563C56.4826 29.4183 59.5869 26.5398 63.1426 24C60.5464 26.9914 58.1758 29.9827 56.7648 33.0305C59.1918 29.5876 62.4653 27.7251 66.134 26.427C61.2236 30.7729 57.3292 35.5139 54.3943 40.1985L52.0238 39.1826C52.4189 35.401 53.8299 31.5631 55.9182 27.838Z" fill="#68B044"/>
<path d="M49.6533 38.1667L54.1121 40.0293C54.1121 41.1581 53.9992 44.6574 54.7329 45.6734C62.1831 55.2683 60.9414 74.571 53.209 75.0225C41.4694 75.0225 36.9541 67.0644 36.9541 59.7271C36.9541 53.0107 44.9687 48.6083 49.7661 44.6574C51.0643 43.5851 50.8385 41.2145 49.6533 38.1667Z" fill="#F5F8DE"/>
<path d="M54.1121 39.9727L55.7488 40.8193C55.5795 41.8916 55.8053 44.2622 56.8777 44.8266C61.6187 47.7615 66.0211 50.9222 67.7707 54.1393C73.9792 65.371 63.4248 75.8125 54.2249 74.7966C59.1917 71.1279 60.6592 63.5649 58.7966 55.2681C58.0629 52.051 56.8777 49.1161 54.7894 45.7861C53.8863 44.2622 54.2249 42.2303 54.1121 39.9727Z" fill="#7E4798"/>
<path d="M49.3147 37.0942L56.7084 40.142C55.6925 43.4156 58.6274 45.7297 59.5869 46.2376C61.7316 47.4229 63.7635 48.6646 65.4003 50.132C68.5045 52.9541 70.2542 56.9049 70.2542 61.0251C70.2542 65.1453 68.3916 69.1526 65.1745 71.8053C62.1831 74.2887 58.0065 75.361 53.9992 75.361C51.5158 75.361 49.2582 75.2482 46.8313 74.458C41.2436 72.5955 37.1235 67.8544 36.7848 62.1539C36.4462 57.7515 37.4621 54.3651 40.905 50.8093C42.6546 48.9468 46.2669 46.802 48.7502 45.1088C49.9919 44.3187 51.2901 41.9481 48.8067 37.4893L49.3147 37.0942ZM49.8791 38.2795C50.1613 38.6746 50.8385 40.3678 51.0079 40.8758C51.3465 42.2868 51.1772 43.6414 50.895 44.2622C49.3711 47.0842 46.6619 47.8744 44.743 49.4548C44.3642 49.7652 43.9821 50.0681 43.6024 50.3717L43.3956 50.5374C40.4012 52.9426 37.6263 55.4832 37.9701 62.2104C38.1958 65.9919 41.1307 70.6765 45.5896 72.8212C46.4386 73.2363 47.3255 73.5631 48.2397 73.8205C47.1486 73.3401 46.2189 72.743 45.4767 71.9183C45.4767 71.8618 45.1945 71.6361 45.1945 71.6361C43.6141 69.83 41.6387 66.7822 40.9614 63.9037C40.6792 62.7749 40.4535 61.8718 40.7921 60.6866C41.9734 56.475 44.4167 54.5536 46.9735 52.7957L47.1422 52.68C47.1704 52.6608 47.1985 52.6416 47.2267 52.6223L47.4804 52.4496C47.565 52.392 47.6497 52.3345 47.7343 52.2769C48.3552 51.8818 49.1453 51.4868 49.7662 50.9788C50.791 50.3104 51.3937 48.5163 51.9076 46.7352L51.9587 46.5572C52.0773 46.1421 52.1916 45.7298 52.306 45.3347C51.9674 47.0844 51.5723 50.2451 50.0484 51.4303C49.4275 51.8818 48.7502 52.3334 48.073 52.7849L47.8242 52.9523C45.1461 54.7549 42.561 56.5309 41.3565 60.8559C41.0743 61.8154 41.3001 62.8313 41.5258 63.7908C42.2031 66.5564 44.1221 69.4913 45.646 71.241C45.646 71.2642 45.6939 71.3162 45.7501 71.3732L45.7995 71.4228C45.8657 71.489 45.9282 71.5531 45.9282 71.5796C47.0197 72.8696 47.457 73.3745 50.7673 74.2062C49.9564 73.8758 49.1796 73.4831 48.6374 73.1035C45.9282 71.241 44.5736 68.9269 44.3479 65.4841C44.1785 62.7749 45.8153 60.0093 49.0324 58.3161C51.2336 57.1308 51.9109 55.3812 52.5882 53.2364C52.0802 55.7198 51.5158 57.1873 49.2582 58.5418C46.5491 60.0657 44.6301 63.17 44.7994 65.2583C45.0252 67.7981 46.7748 70.733 48.8067 72.4827C49.6262 73.2111 50.9231 73.7192 52.1938 74.0366C51.8614 73.7744 51.4969 73.3992 51.1772 72.9342C50.7821 72.3698 50.4999 71.5796 50.2177 70.8459C49.9355 70.1686 49.6533 69.3785 49.6533 68.7012C49.6533 67.0644 49.8226 65.0325 51.0079 63.6779C52.0802 62.4362 52.4189 62.2669 52.8704 60.7995C52.5318 62.4363 52.306 62.5491 51.2901 64.0166C49.9919 65.8227 49.9355 67.6288 50.1048 68.7576C50.2177 69.4913 50.4999 70.1686 50.7257 70.733C51.0079 71.4668 51.3465 72.1441 51.798 72.7649C52.1931 73.2164 52.4189 73.4986 52.9833 73.7808C53.6041 72.5956 53.9992 70.2251 54.0557 68.9269C54.1121 67.7981 54.1686 66.5 53.9992 65.2018C53.7735 63.4522 53.2655 61.759 53.2091 60.4044C53.4913 61.6461 54.1121 63.3957 54.4508 65.089C54.733 66.4435 54.7894 67.7417 54.6765 68.7576C54.5636 69.9429 54.5072 70.9024 54.3379 71.9183C54.1826 72.6948 53.7899 73.4239 53.1597 74.1925C54.5881 73.2818 55.416 71.6655 55.8053 69.83C56.3133 67.5724 56.3697 65.4276 56.3697 64.2988C56.3697 63.4955 56.0875 62.304 55.774 61.1151L55.7184 60.9053C55.6533 60.6609 55.5874 60.4175 55.5231 60.1786C55.2409 59.0498 54.1686 57.921 53.8864 57.0744C53.3784 55.6634 53.6041 54.6474 53.5477 52.672C53.7735 54.4781 53.7735 56.0584 54.2814 56.9051C54.6765 57.6388 55.3538 58.6547 55.7489 59.6707C56.5391 61.5332 56.9342 63.5651 56.9906 64.5246C57.047 66.1613 56.8213 68.7012 56.2569 70.733C56.047 71.4152 55.7774 72.0486 55.4752 72.6029C56.1152 71.6163 56.6043 70.4575 56.8213 69.4349C56.858 69.2628 56.8942 69.09 56.93 68.917L56.9831 68.6572C57.6339 65.4503 58.0855 62.1625 57.6679 60.1786C57.555 59.6707 57.3857 57.9774 56.7084 56.1713C55.7489 53.5186 54.3379 51.3739 54.1686 50.8659C53.6298 49.4651 53.5025 46.0588 53.4429 44.0339L53.4417 43.987C53.4588 44.4855 53.4925 45.0302 53.5387 45.5855L53.5536 45.7612C53.5639 45.8785 53.5747 45.9961 53.586 46.1136L53.6033 46.2899C53.6062 46.3193 53.6092 46.3486 53.6122 46.378L53.6306 46.5538C53.8113 48.2501 54.0861 49.8543 54.3379 50.3579C54.5072 50.8659 56.0311 53.2929 57.1035 55.8327C57.8372 57.4695 58.063 59.0498 58.1194 59.5013C58.6838 64.2424 58.2323 66.2178 56.9906 70.4508C56.8406 70.9701 56.6363 71.4658 56.399 71.9263C57.113 71.0103 57.6387 70.0279 57.8372 69.2091C59.0225 63.9601 59.474 57.1873 57.7808 51.9947C56.8777 49.2856 54.733 46.9151 54.3379 45.2783C53.9992 43.7544 53.9992 42.174 54.1121 40.1422L54.6765 40.4244C54.3943 41.0452 54.5636 44.2059 55.0152 45.3912C55.5796 46.9715 57.2164 48.7776 58.2323 51.3174C58.4891 51.9101 58.7459 52.7931 58.9737 53.71L59.0124 53.8674C59.0316 53.9463 59.0507 54.0253 59.0694 54.1042L59.1066 54.2621C59.4629 55.787 59.7234 57.264 59.7562 57.5259C60.3206 62.2669 60.0384 66.7257 58.6274 70.5073C57.9604 72.2581 56.5545 73.8549 55.524 74.5929C58.2666 74.2227 62.0463 72.8212 64.3279 70.9587C67.2628 68.5317 68.8431 64.8066 68.8431 61.0251C68.8431 57.2436 67.3757 53.6314 64.4972 51.0915C62.8604 49.6241 60.2077 47.818 58.5145 46.8585C56.8213 45.899 54.733 43.2463 55.4102 40.7064L49.8791 38.2795Z" fill="#010101"/>
<path d="M10.1447 28.9666H40.6792C41.808 28.9666 42.8239 29.926 42.8239 31.1113V40.1418C42.8239 41.3271 41.808 42.2866 40.6792 42.2866H34.4143C33.0032 42.2866 32.3824 43.0767 32.3824 43.9798V73.4983C32.3824 74.5142 31.5922 75.248 30.6327 75.248H20.2476C19.2881 75.248 18.5544 74.5142 18.5544 73.4983V43.6976C18.5544 42.7945 17.7078 42.2301 17.087 42.2301H10.1447C8.95949 42.2301 8 41.2706 8 40.0854V31.0549C8 29.926 8.95949 28.9666 10.1447 28.9666Z" fill="#7E4798"/>
<path d="M88.4845 40.9321H91.1936C92.2096 40.9321 92.9997 41.7223 92.9997 42.6818V52.3332C92.9997 53.5749 93.0562 54.0828 91.5323 54.0828C88.5409 54.0828 87.1864 55.6632 87.1864 57.4128V73.7242C87.1864 74.4579 86.4526 75.1352 85.606 75.1352H75.8982C75.0516 75.1352 74.3179 74.5144 74.3179 73.7242V55.1552C74.3179 54.8165 74.3179 54.365 74.3743 54.0828C74.8823 47.1971 80.3006 41.7223 87.1299 40.9886C87.2992 40.9886 88.0894 40.9321 88.4845 40.9321Z" fill="#7E4798"/>
</svg>
