<svg width="100" height="100" viewBox="0 0 100 100" fill="none" xmlns="http://www.w3.org/2000/svg">
<rect width="100" height="100" rx="24" fill="white"/>
<path d="M92.7915 37.6132C92.7518 37.3035 92.704 36.9941 92.6401 36.6906C92.5806 36.3772 92.5188 36.0859 92.42 35.7464L92.1834 35.3709C91.2082 34.6051 90.1559 34.0261 89.0878 33.5146C88.206 33.0983 87.3102 32.7357 86.4042 32.4013C83.8781 25.3916 79.5367 19.1763 73.828 14.8455C67.9275 10.3695 60.9876 8 53.76 8C46.5321 8 39.5922 10.3695 33.6914 14.8458C27.9831 19.1763 23.6409 25.392 21.1156 32.4032C20.2117 32.7361 19.3144 33.1002 18.4337 33.5146C17.3638 34.0261 16.3122 34.6048 15.3367 35.3709L15.0994 35.7464C15.0049 36.0859 14.9432 36.3772 14.8793 36.6906C14.8179 36.9941 14.772 37.3035 14.7283 37.6132C14.6408 38.2246 14.5828 38.843 14.5504 39.4618C14.4883 40.7007 14.5232 41.9419 14.6592 43.1738C14.7904 44.404 15.0196 45.6231 15.3466 46.8319C15.5182 47.4319 15.713 48.0257 15.9441 48.6146C16.0587 48.9097 16.184 49.2025 16.3229 49.4954C16.3912 49.6409 16.4662 49.7831 16.5426 49.9319C16.712 50.2287 16.7428 50.2868 16.8141 50.3922L17.1345 50.6873C17.3432 50.7946 17.5163 50.8761 17.7051 50.9658L18.2566 51.2131C18.3588 51.2549 18.4547 51.2965 18.559 51.3384C16.0536 53.655 13.3324 56.6642 10.9758 60.3836L8 65.0785L12.178 61.4116C12.2489 61.3495 15.7519 58.3168 21.5943 54.8811L21.6762 55.5527C21.2941 55.7515 19.457 56.7156 18.911 57.1723C18.006 57.9241 17.9623 59.0903 18.2045 61.2665C18.3286 62.3816 18.7468 64.5469 19.3108 66.5321C20.2826 69.948 20.9947 70.552 21.62 70.6935C21.9022 70.7611 22.2663 70.7923 22.6756 70.7923C23.7948 70.7923 25.2281 70.5744 26.1636 70.2919C27.2607 73.7038 28.8149 76.7839 30.7094 79.487C30.6179 79.5117 30.5275 79.5411 30.436 79.5671C29.2966 79.0388 25.3123 77.1929 23.9726 76.591L21.1743 75.3311L22.8296 77.9156C22.9501 78.1022 25.8072 82.5572 28.14 85.5602C30.3217 88.3603 33.3092 91.227 38.9466 91.227C39.6253 91.227 40.3351 91.1832 41.0667 91.1024C42.7476 90.9095 44.0108 90.7578 44.9713 90.6347C50.889 92.8091 57.4141 92.9428 63.6066 90.5965C65.3012 89.9527 66.8455 89.172 68.2634 88.2964C70.6509 87.7232 73.2622 87.1008 74.5522 86.7385C74.759 86.6827 75.0181 86.6209 75.2874 86.5574C77.0848 86.144 80.0889 85.447 81.6908 82.2427C83.3049 79.0098 85.9372 74.0562 85.9647 74.0055L87.1956 71.6944L84.7974 72.7371C84.6692 72.7955 81.6302 74.1186 80.0518 74.9461C81.1485 72.4208 81.7948 70.3305 82.0201 69.5277C82.9041 69.7404 84.2147 69.7132 85.1784 69.7132C85.6524 69.7132 86.14 69.6309 86.4563 69.5501C87.0828 69.391 87.5667 68.9747 88.4764 65.45C89.0063 63.4012 89.3862 61.1702 89.4902 60.0235C89.6919 57.7918 89.6265 56.5958 88.7156 55.8408C88.2619 55.466 86.9299 54.7488 86.2528 54.3957C86.6316 54.2337 86.8175 54.2811 86.8318 54.2851L87.4469 51.9534C87.6633 51.8608 87.8922 51.7679 88.1527 51.6679C88.5238 51.5202 88.8953 51.3733 89.2668 51.2131L89.8153 50.9658C90.0064 50.8761 90.178 50.7949 90.3874 50.6873L90.7078 50.3922C90.7769 50.2868 90.814 50.2287 90.8566 50.1483C91.0594 49.7831 91.1311 49.6409 91.1987 49.4954C91.3376 49.2025 91.461 48.9093 91.5775 48.6146C91.8086 48.0257 92.003 47.4319 92.1742 46.8319C92.5001 45.6231 92.7327 44.4043 92.8624 43.1738C93.0005 41.9419 93.0314 40.7007 92.9697 39.4618C92.9403 38.843 92.8793 38.2246 92.7915 37.6132Z" fill="#0E0F0D"/>
<path d="M57.6355 85.633C57.1828 85.7009 56.7298 85.7564 56.2823 85.7921C55.9909 85.8064 55.6852 85.8354 55.4067 85.8354L55.3027 85.838C55.6522 85.0587 55.9182 84.4528 56.118 83.9943C56.5277 84.4528 57.0484 85.0201 57.6355 85.633Z" fill="#E1C5A2"/>
<path d="M57.0862 50.7949C56.3782 51.3695 55.6323 51.9045 54.8556 52.3741L52.2645 53.9371C50.6394 54.1355 49.2292 54.5371 49.1488 54.5617C49.1014 54.572 49.0565 54.5941 49.0147 54.6194C48.8886 54.6922 48.7927 54.8141 48.7468 54.9585L46.108 63.6522L32.004 66.7889L27.5604 63.6775L26.2682 53.2089C28.792 52.7452 32.1657 52.2102 36.2177 51.7553C35.7845 52.2741 35.363 52.8194 34.9622 53.393L32.55 56.8556L36.0633 54.514C36.1162 54.4772 38.352 53.0053 42.0116 51.2149C45.6586 50.9419 49.6848 50.7655 53.9918 50.7655C55.0441 50.7655 56.0743 50.778 57.0862 50.7949ZM35.1327 62.5888C36.1354 62.0472 37.267 62.1266 39.0398 62.1307C39.2287 62.1343 39.4253 62.1321 39.6288 62.1266C39.8041 62.1266 39.9786 62.1237 40.1642 62.1182C41.991 62.0998 43.5084 62.2725 43.4809 59.4069C43.4537 56.541 42.1798 54.2233 40.3545 54.2413C38.5295 54.2575 36.7629 56.6064 36.872 59.4709C36.9011 60.2167 37.0117 60.7558 37.1869 61.143C35.5963 61.5431 35.1562 62.5271 35.1327 62.5888Z" fill="#A89983"/>
<path d="M81.5317 53.1744L80.2615 62.0759L75.7819 65.213L61.6963 63.6121L59.0682 54.9578C59.0083 54.7649 58.8591 54.6172 58.6658 54.5614C58.5791 54.5353 56.8353 54.0367 54.9868 53.8769L55.3252 53.8545C55.6166 53.8328 60.4739 53.2379 66.2759 51.2388C72.6992 51.7315 77.9464 52.5196 81.5317 53.1744ZM72.532 61.4138C72.5137 61.3448 72.1271 60.1932 70.4315 60.3953C70.6262 59.9691 70.714 59.3941 70.6523 58.6049C70.4285 55.7445 68.763 53.4712 66.9395 53.5355C65.1141 53.5987 63.9468 55.9701 64.0478 58.8397C64.1482 61.703 65.6781 61.6832 67.5035 61.6181C69.9549 61.5715 71.3008 60.8186 72.532 61.4138Z" fill="#A89983"/>
<path d="M67.7129 56.2645C67.7217 56.7796 67.3131 57.2032 66.7976 57.2139C66.2832 57.2231 65.8567 56.8119 65.8497 56.2983C65.839 55.7835 66.2487 55.358 66.7635 55.3488C67.2801 55.3378 67.7055 55.7493 67.7129 56.2645Z" fill="white"/>
<path d="M41.5685 56.9504C41.5813 57.4633 41.1753 57.8925 40.662 57.9057C40.1451 57.9204 39.7159 57.5151 39.7016 56.9978C39.6887 56.4845 40.094 56.0531 40.6113 56.0421C41.1239 56.0278 41.5541 56.4334 41.5685 56.9504Z" fill="white"/>
<path d="M87.6798 57.0904C87.4598 56.9085 86.7242 56.4882 86.0073 56.1006L84.8268 64.375C84.8029 64.5326 84.7133 64.6803 84.5792 64.7747L82.8901 65.956C82.8501 66.1559 82.8188 66.3227 82.7887 66.4788C84.4483 66.8874 86.0602 65.6907 86.9652 64.8273C87.3837 63.197 87.7486 61.2618 87.8746 59.8766C88.0671 57.7294 87.8966 57.2686 87.6798 57.0904Z" fill="#E1C5A2"/>
<path d="M61.5935 88.5258C60.4974 88.1359 59.4929 87.5003 58.6184 86.6357C58.5457 86.5615 58.4763 86.4899 58.4031 86.4171C57.7263 86.5556 57.0352 86.6552 56.3309 86.7151C56.034 86.7283 55.7507 86.7537 55.441 86.7537L54.9828 86.7577L54.8064 86.7537C53.7589 88.3093 51.9978 89.1643 50.6182 89.6196C54.7171 90.3228 59.2273 89.2466 61.5935 88.5258Z" fill="#E1C5A2"/>
<path d="M25.5095 68.2612C25.4727 68.1363 25.4341 68.0128 25.3985 67.8875L23.2042 66.3517C23.0665 66.254 22.979 66.1066 22.957 65.9391L21.887 57.2502C21.0952 57.6728 20.18 58.1945 19.9364 58.3984C19.7247 58.5733 19.5631 59.0187 19.792 61.0891C19.9658 62.6455 20.5125 65.0367 21.071 66.8286C22.1821 67.6785 23.8186 68.5742 25.5095 68.2612Z" fill="#E1C5A2"/>
<path d="M58.3134 67.8648C58.0801 67.8387 57.8835 67.6748 57.8148 67.4474L55.1069 58.5241C54.6528 58.4646 54.2497 58.4315 53.9095 58.4315C53.5678 58.4315 53.1673 58.4646 52.7135 58.5241L50.0813 67.1909C50.0192 67.3926 49.852 67.5488 49.6441 67.5943L48.3856 67.8747C48.2791 68.3193 47.9164 68.9714 46.7495 69.3293C44.8661 69.9036 32.9439 73.4573 31.5845 73.264C30.7905 73.1527 29.2803 72.3194 28.163 71.6455C27.7159 70.5929 27.4686 69.8771 27.412 69.7074V69.7041L27.4087 69.7074C27.5667 70.1696 29.1224 74.6478 32.2833 79.0282C35.6721 78.0295 38.5989 77.0985 39.5348 76.8023C41.441 73.8629 44.1566 70.9463 46.0852 70.8468C46.4199 70.8302 46.7642 70.8199 47.1055 70.8199C48.0506 70.8199 48.9526 70.8872 49.7899 70.9864C49.0786 70.3408 48.9327 69.5858 48.8295 69.2507C48.8295 69.2507 51.2927 71.1771 54.4257 70.7718C57.5635 70.3702 59.5101 68.5632 59.5101 68.5632L59.5719 68.0077L58.3134 67.8648Z" fill="#E1C5A2"/>
<path d="M60.8601 68.9942C60.2101 68.8259 59.8008 68.5577 59.5418 68.2781L59.5094 68.5632C59.5094 68.5632 59.4988 69.88 58.1342 70.9004C60.762 70.1045 61.8484 69.8352 62.5925 69.8352C63.4115 69.8352 63.8167 70.1769 64.172 70.4771C64.2393 70.5333 64.3065 70.5921 64.387 70.6549C66.4082 72.2455 68.8376 74.1763 69.5471 74.744C70.3697 74.8388 72.9806 75.1375 74.6238 75.2874C75.5699 75.3756 76.4267 75.4469 77.2659 75.4469C77.5349 75.4469 77.7895 75.4377 78.0301 75.4212C78.8965 73.7619 79.6942 71.9262 80.4041 69.9025C79.4326 70.584 77.2185 72.0758 76.1813 72.2679C74.8317 72.5207 62.763 69.4876 60.8601 68.9942Z" fill="#E1C5A2"/>
<path d="M91.2291 37.7877C91.2063 37.5019 91.1751 37.2164 91.1402 36.9342C91.1167 36.7321 91.0847 36.5227 91.0498 36.3287C90.2878 35.6876 89.421 35.1166 88.5194 34.6C87.5427 34.0264 86.5202 33.5168 85.476 33.0421C84.441 32.5527 83.3754 32.1103 82.3062 31.679C81.7716 31.4611 81.2326 31.2513 80.691 31.0514C80.152 30.8405 79.6082 30.6439 79.0619 30.4455C80.2064 30.6355 81.3417 30.8971 82.4683 31.1866C83.2013 31.3736 83.9295 31.5864 84.653 31.8142C79.5032 18.3595 67.1974 9.59863 53.7596 9.59863C40.3204 9.59863 28.0153 18.3599 22.8696 31.8142C23.5919 31.5864 24.322 31.3736 25.0513 31.1866C26.1771 30.8971 27.3128 30.6355 28.4596 30.4455C27.9099 30.6439 27.3672 30.8405 26.8253 31.0514C26.2866 31.2516 25.748 31.4611 25.213 31.679C24.1431 32.1103 23.0797 32.5527 22.0414 33.0421C21.0009 33.5168 19.9783 34.0264 19.0006 34.6C18.0986 35.1166 17.2337 35.6876 16.4698 36.3287C16.4386 36.5231 16.4055 36.7325 16.3801 36.9342C16.3463 37.2164 16.3151 37.5019 16.2897 37.7877C16.2401 38.3613 16.2207 38.9359 16.2166 39.5132C16.2041 40.6665 16.2824 41.8199 16.4275 42.9596C16.5863 44.1041 16.7957 45.2409 17.1054 46.3406C17.2575 46.8896 17.4321 47.4319 17.633 47.9577C17.7345 48.2196 17.8439 48.4798 17.9586 48.7296C18.0148 48.8549 18.0732 48.9787 18.1338 49.097L18.2077 49.237C18.2918 49.2793 18.3811 49.3241 18.4642 49.3645L18.9756 49.6085C19.2611 49.7397 19.6568 49.9271 19.9835 50.0729C20.0018 50.0564 20.0202 50.0399 20.0349 50.0237L19.0851 46.406C19.2868 46.3517 21.0901 45.8854 24.1982 45.2924C23.9487 45.2453 23.6959 45.1928 23.4468 45.1325C22.7391 44.9554 22.0407 44.7409 21.3631 44.4679C21.028 44.3257 20.6974 44.1714 20.3825 43.9932C20.0676 43.8113 19.7582 43.6074 19.5176 43.3344C22.9317 44.4499 29.9884 43.9458 36.2618 43.2965C41.9973 42.705 47.75 42.3229 53.5303 42.31C59.3092 42.3229 65.0641 42.705 70.7967 43.2965C77.0726 43.9458 84.129 44.4499 87.5427 43.3344C87.3047 43.6074 86.9931 43.8113 86.6811 43.9932C86.3637 44.1714 86.0323 44.326 85.6972 44.4679C85.0204 44.7409 84.3245 44.9554 83.6157 45.1325C83.5106 45.1575 83.4045 45.1796 83.2994 45.2031C86.7091 45.8351 88.6931 46.3494 88.9033 46.4057L87.9958 49.8517C88.1802 49.772 88.3654 49.6923 88.5432 49.6081L89.0562 49.3642C89.1403 49.3237 89.2278 49.2789 89.3148 49.2367L89.3835 49.0967C89.4456 48.9784 89.5059 48.8545 89.5614 48.7293C89.6764 48.4794 89.7859 48.2193 89.8858 47.9573C90.0857 47.4315 90.2609 46.8892 90.4138 46.3403C90.7246 45.2406 90.9341 44.1034 91.0902 42.9592C91.2383 41.8195 91.3169 40.6661 91.3059 39.5128C91.3011 38.9359 91.2813 38.3609 91.2291 37.7877Z" fill="#E0D896"/>
<path d="M67.8984 31.0951C67.951 32.6342 67.9131 35.4274 67.1959 38.0405C67.1669 38.1404 67.1706 38.2444 67.1959 38.3411C66.2829 38.2444 65.3691 38.1625 64.4561 38.0883C65.4801 35.9403 65.7038 33.6535 65.7538 32.8473C66.5412 32.2889 67.3238 31.6172 67.8984 31.0951Z" fill="#D7C184"/>
<path d="M41.7683 32.8475C41.8161 33.6532 42.0398 35.9349 43.0639 38.0829C42.1504 38.1553 41.237 38.239 40.3258 38.336C40.3504 38.2434 40.3523 38.1409 40.3258 38.041C39.6101 35.4315 39.5719 32.6388 39.6211 31.0956C40.1983 31.6173 40.9791 32.289 41.7683 32.8475Z" fill="#D7C184"/>
<path d="M79.1152 40.4733C79.1111 40.4987 79.1042 40.5247 79.0964 40.5497C79.1967 40.5788 79.2948 40.6081 79.3952 40.6408C80.2395 40.9175 81.0849 41.2067 81.8922 41.5796C80.5445 40.704 79.6898 38.1776 79.2133 36.2465C79.3444 38.7743 79.1277 40.3778 79.1152 40.4733Z" fill="#D7C184"/>
<path d="M38.4972 30.6094L29.7786 33.0891C29.2565 36.4804 29.4156 39.0704 29.4998 39.9691L29.5439 39.9427C29.5439 39.9427 29.8279 36.2482 30.4069 34.8307C30.7053 34.1028 32.5303 33.6384 33.9217 33.3059C35.3161 32.9748 37.5394 32.3109 37.9711 34.2685C38.2375 35.4781 38.6042 36.4841 38.9558 37.2259C38.3958 34.5364 38.4315 31.9067 38.4972 30.6094Z" fill="#D7C184"/>
<path d="M69.0213 30.6094C69.0926 31.9575 69.1256 34.7433 68.4937 37.5405C68.8897 36.7806 69.3299 35.6596 69.6363 34.2685C70.0673 32.3109 72.2906 32.9748 73.6846 33.3059C75.079 33.6388 76.9018 34.1028 77.2001 34.8307C77.6914 36.0307 77.9691 38.8599 78.0426 39.7013C78.1253 38.6196 78.2172 36.188 77.7421 33.0887L69.0213 30.6094Z" fill="#D7C184"/>
<path d="M41.6993 31.3644C42.0091 31.6121 42.3332 31.8538 42.648 32.0669C42.8005 32.1727 42.8938 32.3451 42.8971 32.531C42.899 32.56 42.9644 35.4325 44.2342 37.8785C44.2526 37.9152 44.2654 37.9553 44.2779 37.9931C47.4352 37.7785 50.6017 37.6915 53.7604 37.6896C56.921 37.6915 60.0856 37.7844 63.2414 38.0005C63.2539 37.9589 63.2656 37.9185 63.2881 37.8785C64.556 35.4325 64.624 32.56 64.624 32.531C64.6273 32.3451 64.7225 32.1724 64.875 32.0669C65.1796 31.8612 65.4871 31.6279 65.788 31.3887L65.8277 31.2766C66.488 24.8511 65.2773 18.9301 64.5075 16.0043C64.4671 18.0049 63.9928 35.1459 59.7391 35.1459H54.3204H53.4183H47.9996C43.4828 35.1459 43.1194 15.8198 43.1194 15.8198L42.8869 16.5062C42.1164 19.5878 41.0582 25.252 41.6993 31.3644Z" fill="#D7C184"/>
<path d="M28.4239 40.5483C28.4199 40.5233 28.4129 40.499 28.407 40.4733C28.3931 40.3778 28.1755 38.7725 28.3067 36.2421C27.8298 38.1747 26.9726 40.7055 25.623 41.5807C26.4303 41.2063 27.2794 40.9161 28.1252 40.639C28.2237 40.6082 28.3251 40.5788 28.4239 40.5483Z" fill="#D7C184"/>
<path d="M82.789 66.4787C82.717 66.8491 82.6571 67.1467 82.5396 67.613C83.5077 67.8386 85.0906 68.0138 85.8475 67.8661C86.1715 67.5141 86.59 66.2932 86.9655 64.8268C86.0606 65.6906 84.4483 66.8873 82.789 66.4787Z" fill="#9F8F78"/>
<path d="M48.0918 90.1783C50.4044 90.8114 52.7665 91.0862 55.0938 90.9319C57.4284 90.7732 60.4596 90.2694 63.6772 88.9632C62.9548 88.9096 62.2574 88.7623 61.5935 88.526C59.2273 89.2473 54.7172 90.3234 50.6182 89.6202C49.5332 89.9773 48.6826 90.0883 48.5996 90.0986C48.4284 90.118 48.2869 90.1419 48.0918 90.1783Z" fill="#9F8F78"/>
<path d="M25.6624 68.7796C25.6091 68.6077 25.5602 68.4343 25.5095 68.2612C23.8183 68.5742 22.1818 67.6785 21.0718 66.829C21.4311 67.9794 21.7938 68.8832 22.0653 69.1581C22.9026 69.3043 24.7552 69.0475 25.6624 68.7796Z" fill="#9F8F78"/>
<path d="M28.1626 71.6455C29.2796 72.3194 30.7897 73.153 31.5841 73.264C32.9436 73.4573 44.8657 69.9035 46.7491 69.3293C47.9161 68.9714 48.2787 68.3192 48.3853 67.8746L31.1854 71.705C31.1417 71.7124 31.098 71.7179 31.0565 71.7179H31.0554H31.0546C30.936 71.7179 30.8173 71.6815 30.7159 71.611L30.0461 71.1436L28.037 69.7364V69.7334L27.2261 69.1672C27.24 69.2132 27.2566 69.2587 27.2716 69.3043C27.3176 69.4377 27.3628 69.5729 27.4113 69.704V69.7073C27.4682 69.8771 27.7155 70.5928 28.1626 71.6455Z" fill="#9F8F78"/>
<path d="M80.9243 68.3412C81.0346 67.9352 81.1422 67.5241 81.2403 67.1089L80.6433 67.5281L79.0361 68.6535L77.2975 69.8726C77.2082 69.934 77.1046 69.9711 76.998 69.9792C76.962 69.9814 76.9271 69.9807 76.8919 69.9766L59.5719 68.0076L59.5425 68.2777C59.8015 68.5576 60.2108 68.8255 60.8604 68.9938C62.7633 69.4872 74.8317 72.5203 76.1813 72.2671C77.2185 72.075 79.4333 70.5832 80.4041 69.9017C80.4121 69.8782 80.4206 69.8554 80.4283 69.8319C80.5036 69.6154 80.5779 69.3983 80.6513 69.1793C80.7439 68.9026 80.8343 68.6241 80.9243 68.3412Z" fill="#9F8F78"/>
<path d="M62.5984 45.0062C62.462 45.183 62.3125 45.3759 62.1523 45.5776C61.3296 46.617 60.1903 47.943 58.8407 49.2441C57.2685 49.1949 55.6544 49.1677 53.9929 49.1677C51.2468 49.1677 48.6138 49.24 46.1139 49.3602C49.6478 47.8956 53.8912 46.4638 58.4876 45.6048C59.8291 45.3501 61.2021 45.1466 62.5984 45.0062Z" fill="#6E6A67"/>
<path d="M41.9249 46.5876C40.6621 47.4742 39.2394 48.6037 37.8583 49.9757C34.3229 50.3306 31.2369 50.7579 28.6932 51.1691C32.6048 49.372 37.0701 47.7156 41.9249 46.5876Z" fill="#6E6A67"/>
<path d="M85.131 53.8882L83.691 63.9498L76.8004 68.7781L58.8297 66.7345L56.1258 57.8252C56.0615 57.6095 55.8785 57.4504 55.6548 57.4126C54.9894 57.3049 54.4011 57.2524 53.9095 57.2524C53.4168 57.2524 52.8286 57.3049 52.1591 57.4126C51.9383 57.4508 51.7564 57.6095 51.6892 57.8252L49.0514 66.5177L31.1822 70.4936L24.1004 65.533L22.7028 54.241C23.0085 54.0705 23.3182 53.8989 23.6287 53.7277C24.0677 53.6332 24.5608 53.5333 25.1064 53.4297L26.4218 64.0853C26.4398 64.2507 26.5332 64.398 26.6698 64.4936L31.543 67.9077C31.6411 67.9753 31.7612 68.0135 31.8788 68.0135C31.9225 68.0135 31.9644 68.0076 32.0103 67.9988L46.7018 64.7302C46.7528 64.7177 46.8013 64.6997 46.8487 64.6765C46.9836 64.6034 47.0923 64.4792 47.1364 64.3249L49.7841 55.6144C50.4936 55.4329 52.312 55.0067 53.9092 55.0067C55.5034 55.0067 57.3214 55.4329 58.0327 55.6144L60.6786 64.3249C60.7462 64.5501 60.9442 64.7144 61.1768 64.7416L75.8708 66.4108C76.0119 66.4273 76.157 66.3884 76.2739 66.3064L81.1488 62.8986C81.28 62.8038 81.3704 62.6564 81.3928 62.4962L82.6942 53.3911C83.6712 53.5781 84.488 53.7497 85.131 53.8882Z" fill="#6E6A67"/>
<path d="M86.9449 47.5775L85.6799 52.376C83.0929 51.8051 77.4118 50.6855 69.6782 49.9319C72.2039 48.8546 74.777 47.5051 77.1281 45.8142C81.7297 46.4642 85.1085 47.1623 86.9449 47.5775Z" fill="#6E6A67"/>
<path d="M21.0446 47.5774L21.3962 48.9056C22.3805 48.1215 23.2814 47.4723 24.0416 46.9539C22.8027 47.1916 21.7923 47.408 21.0446 47.5774Z" fill="#6E6A67"/>
<path d="M70.6611 44.9011C68.7244 44.7916 66.7888 44.6986 64.851 44.6185C64.7397 44.7842 64.5108 45.1171 64.1834 45.565C63.1451 46.9697 61.0985 49.5303 58.4751 51.7271C60.4489 51.1017 68.2791 48.475 72.2454 44.9988C71.717 44.9646 71.1894 44.9316 70.6611 44.9011Z" fill="#93232C"/>
<path d="M56.4701 44.3897C56.473 44.389 56.4764 44.3886 56.4782 44.3879C55.4961 44.375 54.5128 44.3648 53.5322 44.3607H53.5303C52.0856 44.3648 50.6442 44.3831 49.1995 44.4081L46.5357 45.671C46.5317 45.671 46.5155 45.6801 46.4964 45.693C46.0955 45.8877 42.5988 47.6525 39.3063 50.8006C39.5943 50.6488 39.8997 50.4915 40.2142 50.3321C42.0149 49.1222 46.8175 46.257 54.2854 44.3684C55.0136 44.3728 55.7422 44.3773 56.4701 44.3897Z" fill="#93232C"/>
<path d="M40.1006 44.7115C38.8672 44.7685 37.6334 44.8317 36.4011 44.9015C34.9721 44.9812 33.5476 45.0775 32.1242 45.1848C31.4144 45.2395 30.7034 45.3002 29.9994 45.374C29.7951 45.3939 29.5953 45.4159 29.395 45.4416C27.5351 46.5534 20.4167 51.0221 15.5259 56.8707C15.61 56.7693 15.6971 56.669 15.7834 56.5687C24.8379 48.844 34.7649 45.837 40.1006 44.7115Z" fill="#93232C"/>
<path d="M81.0647 76.4793C81.0107 76.5072 80.953 76.5366 80.9015 76.5634C79.9933 77.0407 78.8035 77.2744 77.2659 77.2744C76.3506 77.2744 75.453 77.1976 74.458 77.1076C72.4714 76.9261 69.1083 76.5304 69.0742 76.5241L68.817 76.4969L68.6134 76.333C68.5825 76.3125 65.638 73.9639 63.2571 72.0922C63.1601 72.0136 63.0727 71.9387 62.9929 71.8755C62.7416 71.6609 62.7416 71.6609 62.5921 71.6609C61.8278 71.6609 59.6079 72.3502 54.7461 73.8562L54.4478 73.9518L54.1523 73.8397C54.1193 73.8313 50.9297 72.6485 47.1066 72.6485C46.7932 72.6485 46.4813 72.6562 46.1774 72.6713C45.7949 72.6908 43.6462 73.7118 40.8964 78.0585L40.7204 78.3392L40.4037 78.4402C40.3582 78.4553 35.6276 79.9816 30.6104 81.4164L30.2867 81.5082L29.9773 81.3653C29.9446 81.3543 27.9855 80.443 26.1183 79.587C26.2557 79.6509 26.3942 79.7137 26.532 79.7776C28.3754 81.3686 31.9052 84.4285 32.2973 84.8525C32.3516 84.9135 32.4273 84.9881 32.5173 85.0726C32.4262 84.9697 32.338 84.8635 32.2513 84.7566C32.2502 84.7559 32.2491 84.7544 32.248 84.7533C33.0615 85.5245 33.969 86.1907 34.9607 86.6595C35.4556 86.8921 35.9744 87.0721 36.5017 87.1596C36.7677 87.2033 37.026 87.225 37.2953 87.225C37.5679 87.225 37.8468 87.2169 38.125 87.2033C39.228 87.1467 40.3409 87.0622 41.4516 86.9545C42.5601 86.8546 43.6701 86.7436 44.7779 86.6092C45.8846 86.4901 46.9909 86.3509 48.0877 86.1807C48.6373 86.1006 49.1833 86.0099 49.7168 85.8916C49.9788 85.8298 50.2518 85.7615 50.4594 85.6682C50.6486 85.5778 50.8782 85.3956 51.0799 85.2221C51.4926 84.8668 51.8912 84.4726 52.2858 84.0798C52.6812 83.687 53.0666 83.2832 53.4528 82.8732C54.1024 82.1931 54.659 81.4704 55.288 80.7701C55.3685 80.683 55.4508 80.5904 55.5342 80.5007C55.5342 80.5022 55.5342 80.5022 55.5357 80.5022L55.543 80.5103C55.6742 80.6047 55.805 80.7002 55.9332 80.8009C56.6901 81.3653 57.472 81.9759 58.2256 82.5036C59.1974 83.1866 60.1814 83.8707 61.1995 84.4403C61.4534 84.5817 61.7161 84.714 61.9671 84.797C61.9994 84.8088 62.0266 84.8147 62.052 84.8183C62.0703 84.8294 62.1376 84.84 62.1453 84.84C62.1945 84.8474 62.261 84.8507 62.325 84.8551C62.462 84.8569 62.6038 84.8507 62.746 84.8441C63.3203 84.8044 63.9027 84.7206 64.4854 84.6295C65.6494 84.448 66.8163 84.2385 67.9767 84.006C69.1392 83.7837 70.3006 83.5452 71.4547 83.2884C72.6147 83.0429 73.7695 82.7718 74.9151 82.4834C75.485 82.3298 76.0552 82.1883 76.5637 81.9443C77.0829 81.7026 77.565 81.3708 78.0088 80.9905C78.9042 80.2277 79.6574 79.282 80.2828 78.2521C80.2821 78.2536 80.2821 78.2543 80.2813 78.2558C80.6653 77.5422 80.917 76.9051 81.0647 76.4793Z" fill="#93232C"/>
<path d="M59.3592 21.7637H61.4065V17.6049H46.4362V21.7637H48.4834V19.6514H52.7169V32.4962H50.9742V34.88H56.8677V32.4962H55.1246V19.6514H59.3592V21.7637Z" fill="#93232C"/>
<path d="M74.8493 45.1829C74.846 45.181 74.8424 45.1792 74.8372 45.1792C73.9892 45.1149 73.1416 45.0568 72.2932 45.0017C72.2774 45.0006 72.2608 44.9999 72.2447 44.9988C68.2783 48.475 60.4485 51.1017 58.4744 51.727C58.4362 51.7597 58.3983 51.7924 58.3601 51.8244C60.9016 51.367 64.6974 50.4598 68.6373 48.7153C70.5747 47.8577 72.5471 46.7984 74.4231 45.4886C74.5679 45.3882 74.7083 45.2832 74.8493 45.1829Z" fill="#731B2A"/>
<path d="M54.2855 44.3679C46.8176 46.2561 42.015 49.1213 40.2142 50.3312C41.6578 49.5964 43.3686 48.7858 45.2913 47.9808C45.3005 47.9771 45.3108 47.9727 45.3203 47.9687C45.5158 47.8875 45.7149 47.8052 45.9148 47.7236C45.9802 47.6968 46.0445 47.67 46.1103 47.6439C46.283 47.5737 46.4579 47.505 46.6335 47.4348C46.7312 47.397 46.8279 47.3584 46.9263 47.3202C47.0843 47.2584 47.2438 47.1967 47.4043 47.1354C47.5245 47.0898 47.6446 47.0439 47.7663 46.9987C47.9132 46.9425 48.0617 46.887 48.2112 46.8322C48.3505 46.7808 48.4919 46.7297 48.6323 46.679C48.7708 46.6287 48.9082 46.5791 49.0478 46.5295C49.2066 46.4736 49.3668 46.4181 49.5281 46.3619C49.6552 46.3182 49.7816 46.2741 49.9094 46.2304C50.0979 46.1668 50.2879 46.104 50.4786 46.0412C50.5837 46.0066 50.6873 45.9721 50.7927 45.9376C51.0911 45.8409 51.3927 45.7454 51.6962 45.6524C52.3587 45.4489 53.0358 45.2549 53.724 45.0679C54.6213 44.8243 55.5358 44.5954 56.4702 44.3892C55.7423 44.3771 55.0137 44.3727 54.2855 44.3679Z" fill="#731B2A"/>
<path d="M40.1006 44.7116C34.7649 45.837 24.8379 48.844 15.7834 56.5687C15.6971 56.669 15.61 56.7689 15.5259 56.8707C20.1286 53.6712 28.0403 48.9145 37.8211 46.0211C38.1364 45.9281 38.4546 45.837 38.7739 45.747C40.3968 45.2914 42.0711 44.8938 43.7844 44.5609C42.5572 44.6046 41.3289 44.6553 40.1006 44.7116Z" fill="#731B2A"/>
<path d="M82.8273 75.6265C82.7964 75.6405 82.7655 75.6548 82.7347 75.6692C82.6715 75.6985 82.6087 75.7279 82.5469 75.7573C82.4962 75.7805 82.447 75.804 82.3959 75.8271C82.3559 75.8463 82.3158 75.8654 82.2747 75.8848C82.2129 75.9142 82.1508 75.9436 82.0895 75.973C82.0641 75.9859 82.0373 75.998 82.0109 76.0116C81.9407 76.045 81.8712 76.0774 81.8036 76.1108C81.7886 76.1185 81.7731 76.1259 81.7577 76.1336C81.6835 76.17 81.6096 76.2056 81.538 76.2412C81.5303 76.2453 81.5229 76.2486 81.5152 76.2523C81.3561 76.3309 81.2055 76.4069 81.0647 76.479C80.917 76.9037 80.6646 77.5419 80.2807 78.254C80.2799 78.2547 80.2792 78.2562 80.2792 78.2569C80.2807 78.2547 80.2821 78.2525 80.2821 78.2525C80.2807 78.2547 80.2792 78.2562 80.2781 78.2588C79.6535 79.2842 78.9014 80.2274 78.0078 80.9891C77.5639 81.3697 77.0815 81.7012 76.5631 81.9429C76.0534 82.1869 75.4836 82.3283 74.9141 82.4819C73.7684 82.7704 72.614 83.0415 71.4537 83.2869C70.3 83.5438 69.1385 83.7822 67.976 84.0045C66.8153 84.2378 65.6487 84.4469 64.484 84.628C63.9016 84.7192 63.3196 84.8029 62.745 84.8426C62.6024 84.85 62.4613 84.8551 62.3243 84.8536C62.26 84.85 62.1935 84.8459 62.1439 84.8386C62.1365 84.8386 62.0693 84.8283 62.0513 84.8169C62.0256 84.8136 61.998 84.8077 61.9661 84.7952C61.7147 84.7133 61.4528 84.5799 61.1985 84.4388C60.1807 83.8689 59.1964 83.1852 58.2242 82.5025C57.4717 81.9745 56.6888 81.3639 55.9322 80.7991L55.8661 80.8928L55.8709 80.8976C55.9179 80.9402 55.9653 80.9795 56.0123 81.021C56.0112 81.0203 56.0105 81.0196 56.009 81.0188C55.9745 80.9931 55.9414 80.9678 55.9094 80.9443L56.5436 81.7008C56.5455 81.7034 56.5693 81.7324 56.616 81.7868C56.9397 82.167 58.294 83.7385 59.9026 85.3339C61.1269 86.5478 62.6039 87.1607 64.2985 87.1607C64.8768 87.1607 65.4849 87.0846 66.0992 86.9388C66.6672 86.7992 67.2856 86.6518 67.9191 86.4986C69.7973 86.0518 71.878 85.5536 73.2592 85.195C73.351 85.1704 73.4407 85.1476 73.5267 85.1244C73.7221 85.073 73.8992 85.0256 74.0576 84.9819C74.3067 84.9106 74.5815 84.8459 74.8737 84.7802C76.5487 84.3918 78.8393 83.8601 80.0525 81.4285C80.3883 80.758 80.766 80.0158 81.1548 79.2589C81.6956 78.2069 82.2578 77.126 82.7575 76.1714C82.8368 76.02 82.9158 75.8694 82.9919 75.725C82.9919 75.7243 82.9926 75.7243 82.9926 75.7243C83.033 75.6467 83.0742 75.5685 83.1131 75.4939C83.0191 75.5373 82.9228 75.5821 82.8273 75.6265Z" fill="#731B2A"/>
<path d="M55.3968 80.8723L55.2881 80.769C54.659 81.4694 54.1016 82.1921 53.4528 82.8725C53.0666 83.2826 52.6812 83.6864 52.2858 84.0792C51.8912 84.4719 51.4926 84.8673 51.0799 85.2215C50.8779 85.3949 50.6482 85.5771 50.4594 85.6672C50.2521 85.7609 49.9788 85.8292 49.7168 85.8909C49.1837 86.0092 48.6373 86.1 48.0876 86.1801C46.9913 86.3502 45.8846 86.4902 44.7779 86.6085C43.6701 86.743 42.5601 86.8539 41.4516 86.9535C40.3413 87.0612 39.228 87.1457 38.125 87.203C37.8468 87.2159 37.5679 87.2243 37.2953 87.2243C37.026 87.2243 36.7673 87.203 36.5017 87.1589C35.9741 87.0715 35.4553 86.8911 34.9607 86.6588C33.9694 86.19 33.0619 85.5235 32.2484 84.753C32.2491 84.7534 32.2502 84.7549 32.2513 84.7556C32.3612 84.8908 32.4821 85.0176 32.5974 85.1465C32.5695 85.1208 32.5431 85.0955 32.517 85.0712C32.4273 84.9871 32.3516 84.9125 32.2969 84.8515C31.9048 84.4271 28.3746 81.3676 26.5316 79.7766C26.3939 79.7123 26.2553 79.6499 26.1179 79.5859C26.4446 80.0695 26.8021 80.5934 27.1735 81.128C27.7133 81.9055 28.2817 82.7046 28.838 83.456C29.0896 83.7955 29.3395 84.1262 29.5813 84.437C31.5848 87.0152 34.1068 89.3976 38.9465 89.3976C39.5524 89.3976 40.1976 89.3605 40.8593 89.2856C41.0136 89.2687 41.1636 89.2514 41.3109 89.2338C41.4527 89.218 41.5923 89.2022 41.7275 89.1864C45.936 88.7025 47.0905 88.496 47.7312 88.3854C47.897 88.3567 48.0384 88.3317 48.1916 88.3093C48.2512 88.3009 48.3121 88.2913 48.3768 88.2829C48.4003 88.2807 49.8234 88.0977 51.2144 87.4209C52.1734 86.9554 53.1162 86.2554 53.5777 85.2207C54.7424 82.6153 54.979 81.9926 54.9882 81.9694L55.3968 80.8723Z" fill="#731B2A"/>
<path d="M66.7976 57.2142C67.3124 57.2031 67.7217 56.7795 67.7129 56.2647C67.7052 55.7496 67.2797 55.3381 66.7627 55.3495C66.2483 55.3587 65.8383 55.7841 65.8489 56.2989C65.8567 56.8122 66.2829 57.2233 66.7976 57.2142ZM72.532 61.4138C71.3008 60.819 69.9549 61.5722 67.5034 61.6181C65.6781 61.6831 64.1481 61.703 64.0478 58.8396C63.9468 55.9701 65.1141 53.5987 66.9395 53.5355C68.763 53.4712 70.4281 55.7445 70.6523 58.6049C70.714 59.3941 70.6265 59.9691 70.4314 60.3953C72.1271 60.1929 72.5136 61.3444 72.532 61.4138Z" fill="#0E0F0D"/>
<path d="M40.6624 57.9058C41.1753 57.8929 41.5817 57.4634 41.5689 56.9505C41.5545 56.4335 41.1243 56.0279 40.6117 56.0422C40.0947 56.0532 39.6891 56.4846 39.702 56.9979C39.7159 57.5144 40.1451 57.9205 40.6624 57.9058ZM43.4806 59.4067C43.5077 62.2722 41.9903 62.0999 40.1638 62.1179C39.9783 62.1238 39.8037 62.1264 39.6285 62.1264C39.4249 62.1319 39.2284 62.1341 39.0395 62.1304C37.2667 62.1263 36.135 62.047 35.1323 62.5886C35.1558 62.5268 35.5964 61.5429 37.187 61.142C37.0113 60.7548 36.9011 60.2157 36.8721 59.4702C36.7626 56.6062 38.5295 54.2572 40.3545 54.2407C42.1795 54.2227 43.4534 56.5408 43.4806 59.4067Z" fill="#0E0F0D"/>
<path d="M78.043 39.7014C78.0235 39.9534 78.0048 40.1327 77.9934 40.2297C77.2732 40.0339 76.5461 39.8549 75.8138 39.6837C73.4028 39.1543 70.9627 38.7615 68.5102 38.4811C68.4257 38.4705 68.3393 38.4646 68.253 38.454C68.2695 38.4176 68.2846 38.3812 68.2956 38.3448C68.3687 38.0773 68.4326 37.8091 68.4936 37.5409C69.1256 34.7437 69.0925 31.9579 69.0213 30.6098L77.7421 33.0896C78.2171 36.1884 78.1253 38.6197 78.043 39.7014ZM67.1959 38.0406C67.1669 38.1405 67.1705 38.2445 67.1959 38.3412C66.2829 38.2445 65.3691 38.1626 64.456 38.0884C65.48 35.9404 65.7038 33.6536 65.7538 32.8474C66.5412 32.2889 67.3234 31.6173 67.8984 31.0952C67.951 32.6343 67.9131 35.4275 67.1959 38.0406ZM40.3258 38.3356C40.3505 38.243 40.3523 38.1405 40.3258 38.0406C39.6101 35.4312 39.5719 32.6384 39.6211 31.0952C40.198 31.6173 40.9788 32.2889 41.7683 32.8474C41.8161 33.6532 42.0399 35.9349 43.0639 38.0829C42.1505 38.1549 41.2374 38.239 40.3258 38.3356ZM39.0086 38.4793C37.7855 38.6285 36.5609 38.7828 35.3421 38.9849C34.1267 39.1928 32.9109 39.414 31.7061 39.6819C30.9749 39.8516 30.2507 40.0317 29.5258 40.2275C29.5192 40.1702 29.5104 40.082 29.5001 39.9685C29.4159 39.0697 29.2568 36.4802 29.7789 33.0885L38.4975 30.6087C38.4318 31.9065 38.3961 34.5361 38.9565 37.2253C39.0343 37.5986 39.1229 37.9723 39.225 38.3441C39.2361 38.3805 39.2508 38.4168 39.2669 38.4499C39.1791 38.4609 39.0953 38.4683 39.0086 38.4793ZM82.717 42.0003C82.6428 41.9647 82.5696 41.9283 82.4995 41.8938C82.3914 41.842 82.272 41.7824 82.135 41.7159C82.1265 41.7119 82.121 41.709 82.121 41.709C82.0435 41.6711 81.9671 41.6274 81.8921 41.5793C81.0852 41.2063 80.2394 40.9175 79.3951 40.6405C79.2952 40.6078 79.1967 40.5784 79.0967 40.5494C79.1041 40.5244 79.1114 40.4983 79.1155 40.4729C79.128 40.3774 79.3448 38.7736 79.214 36.2461C79.1585 35.1666 79.0391 33.9188 78.8131 32.5472C78.7767 32.3283 78.6169 32.1508 78.406 32.0902L77.163 31.7385C76.8955 22.1201 72.9354 17.6001 72.8116 17.4601C76.3492 23.1541 76.3183 29.9066 76.2566 31.4802L68.5502 29.2897C68.5447 29.2897 68.5396 29.2897 68.5322 29.2864C68.501 29.2786 68.4661 29.275 68.4334 29.2717C68.426 29.2717 68.4176 29.2702 68.4051 29.2702C68.365 29.268 68.3209 29.2717 68.2791 29.2808C68.2732 29.2808 68.2666 29.2867 68.2585 29.2867C68.2243 29.2937 68.1931 29.3047 68.1589 29.3209C68.1468 29.3264 68.1358 29.3341 68.1247 29.3374C68.0987 29.3551 68.0733 29.3698 68.048 29.3881C68.0424 29.3922 68.0351 29.3955 68.0296 29.4006C68.0219 29.4061 68.0193 29.4117 68.0149 29.4153C68.0075 29.423 67.9987 29.4282 67.9928 29.4337C67.9855 29.4414 67.7779 29.6446 67.4557 29.9488C67.4785 29.2279 67.484 28.1249 67.402 26.778C67.3939 26.6501 67.3859 26.5204 67.377 26.3892C67.1349 23.0053 66.335 18.2519 63.9446 14.0908C63.9651 14.1507 64.2014 14.8411 64.5071 16.004C65.2765 18.9298 66.4879 24.8508 65.8276 31.2763C65.8243 31.3057 65.8221 31.3347 65.8192 31.3645C65.8092 31.3726 65.7982 31.3803 65.7879 31.3884C65.4866 31.6276 65.1791 31.8609 64.8745 32.0667C64.722 32.1725 64.6269 32.3448 64.6232 32.5307C64.6232 32.5597 64.5556 35.4323 63.288 37.8782C63.2652 37.9182 63.2534 37.9587 63.2406 38.0002C60.0852 37.7841 56.9209 37.6915 53.76 37.6893C50.6012 37.6912 47.4348 37.7783 44.2775 37.9928C44.265 37.9546 44.2521 37.9146 44.2338 37.8782C42.9639 35.4323 42.8985 32.5597 42.8967 32.5307C42.8934 32.3448 42.8001 32.1721 42.6476 32.0667C42.3327 31.8535 42.0086 31.6122 41.6989 31.3641C41.0577 25.2517 42.1159 19.5875 42.8861 16.5055C43.2516 15.0424 43.5533 14.1581 43.5772 14.0905C40.1087 20.1261 39.9885 27.4085 40.0653 29.9485C39.7372 29.6442 39.534 29.4414 39.5285 29.4333C39.5227 29.4278 39.512 29.4227 39.5047 29.415C39.501 29.4113 39.4973 29.4058 39.4922 29.4003C39.4863 29.3951 39.4793 29.3918 39.4719 29.3878C39.4466 29.3694 39.4205 29.3547 39.3952 29.3407C39.3827 29.3338 39.3735 29.326 39.3588 29.3205C39.3257 29.3044 39.2974 29.2933 39.2644 29.2897C39.2552 29.2864 39.2482 29.2805 39.2423 29.2805C39.1986 29.2717 39.1549 29.2676 39.1144 29.2698C39.1038 29.2698 39.0924 29.2713 39.0817 29.2713C39.0505 29.2746 39.02 29.2783 38.9873 29.286C38.98 29.2893 38.9763 29.2893 38.9689 29.2893L31.2648 31.4799C31.2027 29.9058 31.1696 23.1533 34.7072 17.4597C34.5845 17.6008 30.6251 22.1209 30.3558 31.7393L29.1187 32.0905C28.9023 32.1512 28.7435 32.3286 28.7079 32.548C28.4819 33.9177 28.3633 35.164 28.3067 36.2424C28.1759 38.7729 28.393 40.3781 28.407 40.4737C28.4129 40.499 28.4198 40.5233 28.4239 40.5486C28.325 40.5791 28.2236 40.6085 28.1252 40.6394C27.2794 40.9164 26.4306 41.2067 25.623 41.5811C25.5488 41.6285 25.4727 41.6722 25.3952 41.7097C25.3952 41.7097 25.3901 41.7123 25.3827 41.7167C25.2453 41.7832 25.1255 41.8423 25.0179 41.8945C24.9565 41.9246 24.8918 41.9559 24.8283 41.9871C24.7882 42.0102 24.7471 42.0305 24.7078 42.054C25.2795 41.8295 25.8707 41.6656 26.4615 41.5205C27.0549 41.3728 27.6519 41.242 28.2483 41.1288C29.4479 40.9058 30.6505 40.7121 31.8604 40.5648C33.067 40.4064 34.2788 40.2756 35.4924 40.1739C36.7067 40.0702 37.9185 39.9681 39.1354 39.8979C44.0012 39.6099 48.8795 39.5191 53.76 39.5173C58.6415 39.5209 63.5195 39.597 68.3845 39.8961C69.6018 39.9666 70.8136 40.068 72.0294 40.1709C73.2452 40.2742 74.4525 40.4068 75.6591 40.5652C76.8694 40.7107 78.0742 40.9036 79.2716 41.1277C79.8698 41.2427 80.4658 41.3695 81.0562 41.5205C81.6514 41.666 82.2397 41.8298 82.8125 42.0543C82.7805 42.0349 82.7482 42.0183 82.717 42.0003Z" fill="#0E0F0D"/>
<path d="M55.1246 19.6514V32.4961H56.8676V34.88H50.9742V32.4961H52.7168V19.6514H48.4834V21.764H46.4365V17.6048H61.4064V21.7637H59.3595V19.651H55.1246V19.6514ZM62.9478 23.3017V16.0649H44.8988V23.3017H50.0244V21.189H51.1759V30.9552H49.4369V36.4158H58.4071V30.9552H56.6626V21.189H57.8185V23.3017H62.9478Z" fill="#0E0F0D"/>
</svg>
