<svg width="100" height="100" viewBox="0 0 100 100" fill="none" xmlns="http://www.w3.org/2000/svg">
<rect width="100" height="100" rx="24" fill="white"/>
<path d="M85.3199 25.7636C84.2588 25.2334 81.8719 24.1723 79.2199 22.5811C76.3025 20.9898 71.7941 23.6421 68.8767 28.1505L63.8378 36.6373C61.9811 40.3504 62.2466 44.3285 64.6335 47.7762L64.8986 48.0413C67.2855 51.4892 70.468 54.4063 71.2636 55.4674C71.7941 55.9976 72.3243 57.0587 72.5898 57.8543C73.3854 61.0368 71.7941 63.9539 68.6116 64.7495C65.6942 65.5452 62.5117 63.6888 61.4509 60.7714C61.1855 59.9758 61.1855 59.1801 61.1855 58.3845C61.4509 57.0586 60.9204 54.9369 59.064 53.3456C57.2074 51.2238 53.4946 55.202 52.4336 58.915V59.1801C51.3728 63.1583 50.5772 66.3408 50.8423 66.6062C50.8423 66.8713 51.1077 67.1364 51.1077 67.1364C52.699 70.319 51.6379 74.032 48.4554 75.6233C45.2729 77.2145 41.2947 76.1538 39.7035 72.9713C38.1122 69.7888 39.1733 66.0757 42.3558 64.4844C42.6209 64.4844 42.6209 64.2193 42.886 64.2193C43.1514 64.2193 43.6816 62.3627 44.4773 60.5063C45.0078 58.6499 45.5383 57.0587 45.5383 57.0587C45.5383 56.7932 45.5383 56.5281 45.8034 56.5281L48.9859 45.3893L45.8034 52.0194C45.2729 50.6936 44.7427 50.6936 43.1514 51.7543C42.3558 52.2849 40.7645 53.6107 40.234 54.1412C38.9078 55.202 37.8471 57.0587 37.3166 58.1194C37.0515 58.915 36.5209 59.4455 35.9907 59.9758C33.6038 62.0975 29.8908 61.567 28.0344 59.1801C26.1777 56.7932 26.7083 53.6107 29.0952 51.7543C29.8908 51.2238 30.6864 50.6936 31.482 50.6936C32.8082 50.4282 37.8471 47.2457 40.7645 45.3893C41.2947 45.1242 41.8253 44.5937 42.0904 44.3286L49.7816 38.7591L42.886 42.4719H41.2947C39.1733 42.7373 36.5209 43.0024 35.9907 43.798C35.7253 44.0631 35.4602 44.5937 34.9297 44.8588C32.8082 45.9198 29.6257 45.3893 27.769 43.2675C26.1777 40.8806 26.7083 37.9635 28.83 36.3722C30.1559 35.5766 31.2169 35.3112 32.2777 35.3112C34.134 35.3112 38.9078 36.3722 42.886 35.5766L43.947 35.3112C47.9252 34.5156 52.699 31.333 54.5554 27.6203C54.5554 27.6203 56.4117 24.1723 58.7986 20.4596C61.1855 16.4815 60.9204 12.2379 58.5335 10.6466L54.0248 7.99462C51.6379 6.66846 47.9252 6.66846 45.5383 7.99462L14.2433 25.2334C11.8564 26.5592 10 30.0072 10 32.6592V66.6062C10 69.2582 11.8564 72.1757 14.2433 73.5015L45.8034 91.0054C48.1903 92.3315 51.9034 92.3315 54.2902 91.0054L85.3199 73.2364C87.7068 71.9102 89.5631 68.9931 89.5631 66.3408V32.6592C89.5631 30.0072 87.7068 27.0898 85.3199 25.7636Z" fill="#5FCF80"/>
</svg>
