<svg width="100" height="100" viewBox="0 0 100 100" fill="none" xmlns="http://www.w3.org/2000/svg">
<rect width="100" height="100" rx="24" fill="#EB0029"/>
<path d="M14.9148 77.4675H12.7626V91.5418H14.9148V77.4675Z" fill="#262729"/>
<path d="M24.5712 71.5115H7V73.6637H24.5712V71.5115Z" fill="#262729"/>
<path d="M18.812 77.4675H16.6598V91.5418H18.812V77.4675Z" fill="#262729"/>
<path d="M78.3694 91.562H80.5449V83.0833L78.3694 80.6642V91.562Z" fill="#262729"/>
<path d="M89.8212 71.5115V87.2242L74.4321 70.1234V91.5619H76.6077V75.8359L92 92.9433V71.5115H89.8212Z" fill="#262729"/>
<path d="M60.3511 71.4981C54.8221 71.4981 50.3242 75.996 50.3242 81.525C50.3242 87.054 54.8221 91.5519 60.3511 91.5519C65.8801 91.5519 70.378 87.054 70.378 81.525C70.378 75.996 65.8801 71.4981 60.3511 71.4981ZM60.3511 89.3897C56.0134 89.3897 52.4831 85.8628 52.4831 81.5217C52.4831 77.1806 56.01 73.6536 60.3511 73.6536C64.6922 73.6536 68.2191 77.1806 68.2191 81.5217C68.2191 85.8628 64.6889 89.3897 60.3511 89.3897Z" fill="#262729"/>
<path d="M60.3511 80.0802C59.5569 80.0802 58.9062 80.7309 58.9062 81.525C58.9062 82.3192 59.5569 82.9698 60.3511 82.9698C61.1452 82.9698 61.7959 82.3192 61.7959 81.525C61.7959 80.7309 61.1519 80.0802 60.3511 80.0802Z" fill="#262729"/>
<path d="M46.5503 77.6577C46.5503 74.2676 43.8109 71.5115 40.4441 71.5115H28.9724V91.5619H31.1146V73.687H40.4441C42.603 73.687 44.3614 75.4688 44.3614 77.6544C44.3614 79.83 42.6263 81.6051 40.4875 81.6285L32.8764 81.6251V91.5586H35.0186V83.8007H40.037L44.1345 91.5586H46.6204L42.3427 83.497C44.8286 82.6795 46.5503 80.2971 46.5503 77.6577Z" fill="#262729"/>
<path d="M63.7445 15.0806L25.272 8L45.5159 58.9486L73.728 24.5769L63.7445 15.0806ZM63.1239 18.2037L69.0099 23.7961L52.9102 26.7124L63.1239 18.2037ZM49.4166 26.1251L32.4493 12.0541L60.1809 17.156L49.4166 26.1251ZM48.2087 28.6177L45.4425 51.4877L30.524 13.9494L48.2087 28.6177ZM50.768 29.8289L68.5928 26.6023L48.1486 51.5144L50.768 29.8289Z" fill="white"/>
</svg>
