<svg width="100" height="100" viewBox="0 0 100 100" fill="none" xmlns="http://www.w3.org/2000/svg">
<rect width="100" height="100" rx="24" fill="#010202"/>
<path d="M12.8903 56.0742C13.2495 57.0274 13.7468 57.8425 14.3823 58.5194C15.0178 59.1963 15.7707 59.7143 16.641 60.0735C17.5113 60.4327 18.4576 60.6123 19.4799 60.6123C20.4746 60.6123 21.4071 60.4258 22.2774 60.0527C23.1478 59.6797 23.9075 59.1548 24.5568 58.4779C25.2061 57.8009 25.7103 56.9929 26.0695 56.0535C26.4287 55.114 26.6083 54.0642 26.6083 52.9037V35H30.9599V64.0106H26.6497V61.3168C25.6827 62.339 24.543 63.1264 23.2306 63.6791C21.9181 64.2316 20.5022 64.5079 18.9826 64.5079C17.4353 64.5079 15.9917 64.2385 14.6517 63.6997C13.3117 63.161 12.1512 62.3944 11.1704 61.3997C10.1897 60.4049 9.41599 59.2101 8.84963 57.8148C8.28318 56.4195 8 54.8654 8 53.1523V35H12.3516V52.9037C12.3516 54.0642 12.5311 55.1209 12.8903 56.0742Z" fill="white"/>
<path d="M38.4608 35V45.5681C39.4278 44.6011 40.5469 43.8345 41.8178 43.268C43.0887 42.7016 44.4702 42.4184 45.9621 42.4184C47.5094 42.4184 48.9598 42.7085 50.3137 43.2887C51.6675 43.8689 52.8417 44.6563 53.8364 45.651C54.8311 46.6457 55.6185 47.8199 56.1987 49.1737C56.7789 50.5276 57.069 51.9643 57.069 53.4839C57.069 55.0035 56.7789 56.4333 56.1987 57.7733C55.6185 59.1133 54.8311 60.2807 53.8364 61.2752C52.8417 62.2699 51.6675 63.0574 50.3137 63.6376C48.9598 64.2178 47.5093 64.5078 45.9621 64.5078C44.4701 64.5078 43.0818 64.2247 41.7971 63.6582C40.5123 63.0918 39.3864 62.3251 38.4194 61.3581V64.0105H34.275V35H38.4608ZM38.9374 56.3435C39.3103 57.2277 39.8285 58.0013 40.4916 58.6644C41.1547 59.3275 41.9283 59.8525 42.8124 60.2393C43.6966 60.6261 44.6498 60.8195 45.6721 60.8195C46.6668 60.8195 47.6061 60.6261 48.4902 60.2393C49.3743 59.8525 50.1409 59.3276 50.7904 58.6644C51.4396 58.0014 51.9577 57.2277 52.3445 56.3435C52.7313 55.4594 52.9247 54.5062 52.9247 53.4839C52.9247 52.4616 52.7313 51.5015 52.3445 50.6035C51.9577 49.7056 51.4396 48.9251 50.7904 48.262C50.141 47.599 49.3744 47.0809 48.4902 46.7079C47.606 46.335 46.6667 46.1483 45.6721 46.1483C44.6774 46.1483 43.738 46.3349 42.8539 46.7079C41.9698 47.081 41.1962 47.599 40.533 48.262C39.87 48.9251 39.345 49.7056 38.9582 50.6035C38.5714 51.5015 38.378 52.4616 38.378 53.4839C38.3779 54.5062 38.5644 55.4594 38.9374 56.3435Z" fill="white"/>
<path d="M59.4309 49.2152C59.9834 47.889 60.7433 46.7217 61.7103 45.7132C62.6772 44.7048 63.8239 43.9104 65.1501 43.3302C66.4763 42.75 67.9131 42.46 69.4603 42.46C70.9799 42.46 72.389 42.7363 73.6876 43.2888C74.9861 43.8414 76.1051 44.6081 77.0445 45.589C77.9839 46.5697 78.7161 47.7302 79.241 49.0702C79.766 50.4102 80.0284 51.8677 80.0284 53.4426V54.8103H62.8293C62.9675 55.6668 63.2438 56.4611 63.6582 57.1932C64.0727 57.9253 64.5907 58.5608 65.2123 59.0996C65.834 59.6384 66.5385 60.0598 67.326 60.3636C68.1134 60.6675 68.9491 60.8196 69.8333 60.8196C72.3476 60.8196 74.3784 59.7834 75.9256 57.7112L78.951 59.9491C77.9011 61.3582 76.6026 62.4634 75.0554 63.2646C73.508 64.0658 71.7674 64.4665 69.8334 64.4665C68.2585 64.4665 66.7873 64.1901 65.4197 63.6376C64.052 63.0851 62.864 62.3114 61.8555 61.3167C60.8471 60.322 60.0527 59.1547 59.4725 57.8147C58.8923 56.4748 58.6022 55.0172 58.6022 53.4424C58.602 51.9505 58.8784 50.5414 59.4309 49.2152ZM65.2538 47.5781C64.0795 48.5589 63.299 49.8644 62.9122 51.4945H75.8013C75.4421 49.8644 74.6753 48.5589 73.5011 47.5781C72.3268 46.5973 70.9523 46.1069 69.3775 46.1069C67.8026 46.1069 66.428 46.5973 65.2538 47.5781Z" fill="white"/>
<path d="M87.8611 48.0548C86.977 49.0218 86.5349 50.3342 86.5349 51.992V64.0107H82.349V42.8744H86.4933V45.4854C87.0183 44.6288 87.7022 43.9519 88.5448 43.4546C89.3875 42.9572 90.3891 42.7085 91.5496 42.7085H93V46.6042H91.2594C89.878 46.6043 88.7452 47.0878 87.8611 48.0548Z" fill="white"/>
</svg>
