<svg width="100" height="100" viewBox="0 0 100 100" fill="none" xmlns="http://www.w3.org/2000/svg">
<rect width="100" height="100" rx="24" fill="white"/>
<path fill-rule="evenodd" clip-rule="evenodd" d="M14.7922 83.1484C14.7922 84.8136 13.4286 86.0304 11.5455 86.0304C9.66234 86.0304 8.2987 84.8136 8.2987 83.1484V77H7V83.2124C7 85.39 8.88312 87.2473 11.5455 87.2473C14.2078 87.2473 16.0909 85.3259 16.0909 83.2124V77H14.7922V83.1484ZM25.4416 77H21.9351V87.2473H25.4416C28.3636 87.2473 30.3766 85.2619 30.3766 82.1236C30.3766 79.0495 28.3636 77 25.4416 77ZM25.3117 85.9664H23.2338V78.2809H25.3117C27.5195 78.2809 29.0779 79.754 29.0779 82.1236C29.0779 84.6855 27.4545 85.9023 25.3117 85.9664ZM53.7532 86.1585C51.4156 86.1585 49.8571 84.4293 49.8571 82.1236C49.8571 79.818 51.4805 78.1528 53.7532 78.1528C55.5714 78.1528 56.6753 79.1776 56.6753 79.1776L57.1948 78.2809C57.1948 78.2809 56.026 77.064 53.6234 77.064C50.5065 77.064 48.5584 79.3697 48.5584 82.1236C48.5584 84.9416 50.5714 87.3113 53.7532 87.3113C56.2208 87.3113 57.4545 85.6461 57.4545 85.6461L56.7403 84.8776C56.6753 84.8136 55.7013 86.1585 53.7532 86.1585ZM63.4935 77H64.7922V87.2473H63.4935V77ZM70.6364 78.2809H73.8831V87.2473H75.1818V78.2809H78.4286V77H70.6364M90.6364 77L87.5195 81.6753L84.3377 77H82.974L86.8701 82.7001V87.2473H88.1688V82.7001L92 77M38.7533 77L34.7273 87.2473H36.026L37.1299 84.3012L41.3506 83.4046L42.7792 87.2473H44.0779L40.1169 77L38.7533 77ZM37.5195 83.0843L39.4675 78.345H39.5325L41.1558 82.3798L37.5195 83.0843Z" fill="#2E3D49"/>
<path fill-rule="evenodd" clip-rule="evenodd" d="M78 11L80 12V38C80 49.1038 74.2206 55.3914 68.0096 58.1998L68.0188 58.2L52.7769 66.9771C52.6593 67.0462 52.5414 67.1142 52.423 67.1809L52.2501 67.2805L52.2537 67.2754C48.9658 69.0918 45.3694 70 42 70C32 70 20 62 20 46V22L24 24V46C24 62 36 66 42 66C45.7174 66 51.738 64.4645 55.7809 59.491C48.3635 57.7453 40 51.3574 40 38V14.4L24 24L20 22L40 10L42 11L44 12V38C44 51.8799 53.0306 55.2242 58.0351 55.8667C59.2516 53.2432 60 49.9958 60 46V20L64 22V46C64 49.7053 63.3564 52.9815 62.2432 55.8288C67.2964 55.0984 76 51.6263 76 38V14.5L64 22L60 20L76 10L78 11Z" fill="#02B3E4"/>
</svg>
