<svg width="100" height="100" viewBox="0 0 100 100" fill="none" xmlns="http://www.w3.org/2000/svg">
<rect width="100" height="100" rx="24" fill="black"/>
<path d="M20.2047 41.624L13.6014 37.812L7 41.624V37.812L13.6024 34L20.2057 37.812V41.624H20.2047Z" fill="#A435F0"/>
<path d="M7 44.825H10.4586V53.2281C10.4586 55.3991 12.0798 56.4574 13.6024 56.4574C15.1381 56.4574 16.7471 55.3709 16.7471 53.199V44.825H20.2057V53.4283C20.2057 55.4283 19.5769 56.9715 18.3194 58.0297C17.061 59.0871 15.4896 59.6021 13.5732 59.6021C11.6588 59.6021 10.0864 59.088 8.85806 58.0297C7.62875 56.9724 7 55.4865 7 53.5138V44.825ZM50.1067 55.2685C49.0597 56.2008 47.867 56.6576 46.5071 56.6576C44.0259 56.6576 42.3624 55.2441 42.1744 53.0552H53.3491C53.3491 53.0552 53.4243 52.3484 53.4243 51.6849C53.4243 49.6266 52.7664 47.9114 51.4224 46.5111C50.1085 45.1107 48.3943 44.4246 46.3069 44.4246C44.1067 44.4246 42.3051 45.1107 40.8756 46.5111C39.4752 47.9114 38.7609 49.7404 38.7609 52.0279V52.1407C38.7609 54.3991 39.4752 56.1999 40.8756 57.5438C42.2759 58.8869 44.134 59.573 46.3924 59.573C49.0183 59.573 51.1076 58.5373 52.6752 56.7516L50.1067 55.2685ZM43.5334 48.2545C44.3041 47.6539 45.2486 47.34 46.306 47.34C47.3059 47.34 48.1349 47.6539 48.8501 48.2836C49.5324 48.8569 49.9008 49.5608 49.9328 50.3701H42.2628C42.3737 49.5336 42.7966 48.8287 43.5344 48.2554L43.5334 48.2545ZM84.9221 61.5147C83.5189 64.8276 82.0509 65.9545 79.7999 65.9545H78.2398V62.8887H79.5011C80.2755 62.8887 80.9954 62.5974 81.6815 61.0147L82.3676 59.4301L76.4504 44.825H79.9663L84.1683 55.3437L88.485 44.825H92L84.923 61.5147H84.9221ZM33.6698 39.3091V46.1295C32.5364 45.1145 30.7732 44.5102 29.0684 44.5102C27.0383 44.5102 25.324 45.2244 23.9237 46.6812C22.5515 48.1107 21.8654 49.8823 21.8654 52.026C21.8654 54.1708 22.5515 55.9424 23.9237 57.4C25.324 58.8295 27.0393 59.5448 29.0684 59.5448C31.4086 59.5448 32.8879 58.6247 33.6698 57.9038V59.2299H37.1002V39.31H33.6698V39.3091ZM32.6407 55.1717C31.8118 56.0006 30.7544 56.4301 29.5251 56.4301C28.2958 56.4301 27.2958 56.0006 26.4669 55.1717C25.668 54.3427 25.2667 53.2854 25.2667 52.0279C25.2667 50.7695 25.6671 49.7122 26.4669 48.8832C27.2958 48.0543 28.2958 47.6257 29.5251 47.6257C30.7544 47.6257 31.8118 48.0543 32.6407 48.8832C33.4978 49.7122 33.9283 50.7695 33.9283 52.0279C33.9283 53.2854 33.4978 54.3427 32.6407 55.1717ZM71.1177 44.5393C68.5125 44.5393 67.1582 45.6201 66.2305 46.6614C65.8593 45.9537 64.8142 44.5393 62.3725 44.5393C60.3086 44.5393 59.0925 45.5825 58.4853 46.325V44.8269H55.085V59.2318H58.4853V50.9424C58.4853 48.9988 59.6865 47.5985 61.2861 47.5985C62.9167 47.5985 63.8593 48.8278 63.8593 50.7996V59.2309H67.2606V50.9415C67.2606 48.9697 68.4317 47.5975 70.1177 47.5975C71.7474 47.5975 72.6901 48.8268 72.6901 50.7977V59.2299H76.1205V50.3127C76.1205 46.5571 74.1017 44.5402 71.1177 44.5402V44.5393Z" fill="white"/>
</svg>
