<svg width="100" height="100" viewBox="0 0 100 100" fill="none" xmlns="http://www.w3.org/2000/svg">
<rect width="100" height="100" rx="24" fill="#1D6434"/>
<path d="M24.2738 37H27.7682V52.2564C27.7682 54.9102 27.468 57.0177 26.8676 58.5787C26.2671 60.1398 25.1804 61.4127 23.6073 62.3973C22.0463 63.37 19.9929 63.8563 17.4471 63.8563C14.9734 63.8563 12.9501 63.43 11.377 62.5775C9.80391 61.7249 8.68115 60.494 8.00869 58.8849C7.33623 57.2638 7 55.0543 7 52.2564V37H10.4944V52.2384C10.4944 54.532 10.7045 56.2251 11.1248 57.3179C11.5571 58.3986 12.2896 59.2332 13.3223 59.8216C14.367 60.41 15.6399 60.7042 17.1409 60.7042C19.7107 60.7042 21.5419 60.1218 22.6347 58.957C23.7274 57.7922 24.2738 55.5527 24.2738 52.2384V37Z" fill="white"/>
<path d="M33.55 63.406V37H37.1345L51.004 57.7321V37H54.3542V63.406H50.7698L36.9003 42.6559V63.406H33.55Z" fill="white"/>
<path d="M60.8208 63.406V37H64.3152V63.406H60.8208Z" fill="white"/>
<path d="M67.7915 63.406L78.0045 49.6446L68.9983 37H73.1592L77.9504 43.7726C78.9471 45.1776 79.6556 46.2583 80.0759 47.0148C80.6643 46.0542 81.3608 45.0515 82.1653 44.0068L87.4789 37H91.2795L82.0032 49.4465L92 63.406H87.6771L81.0305 53.9856C80.6583 53.4452 80.274 52.8568 79.8778 52.2204C79.2894 53.181 78.8691 53.8415 78.6169 54.2017L71.9884 63.406H67.7915Z" fill="white"/>
</svg>
