<svg width="100" height="100" viewBox="0 0 100 100" fill="none" xmlns="http://www.w3.org/2000/svg">
<rect width="100" height="100" rx="24" fill="#3E73C4"/>
<path d="M65.0405 57.7776C65.0405 49.5707 60.0947 46.7578 50.2032 45.5832C43.14 44.6443 41.7297 42.7703 41.7297 39.486C41.7297 36.2017 44.0867 34.092 48.7929 34.092C53.0316 34.092 55.3885 35.4985 56.5631 39.0185C56.6855 39.3588 56.9093 39.6535 57.2043 39.8629C57.4993 40.0722 57.8513 40.1861 58.213 40.1892H61.9803C62.1979 40.195 62.4144 40.1566 62.6167 40.0762C62.819 39.9958 63.0028 39.8752 63.1571 39.7217C63.3114 39.5681 63.4329 39.3848 63.5142 39.1829C63.5955 38.981 63.635 38.7647 63.6302 38.5471V38.3152C63.1698 35.7686 61.8812 33.4452 59.9647 31.7061C58.0481 29.9671 55.6109 28.9096 53.0316 28.698V23.0722C53.0316 22.1333 52.3245 21.4301 51.1499 21.1944H47.6144C46.6755 21.1944 45.9684 21.8976 45.7327 23.0722V28.4662C38.6657 29.4013 34.1951 34.092 34.1951 39.9574C34.1951 47.6929 38.9014 50.7415 48.7929 51.9161C55.3885 53.0869 57.5059 54.4972 57.5059 58.249C57.5059 61.997 54.21 64.578 49.7357 64.578C43.6114 64.578 41.494 62.0008 40.7869 58.4808C40.5551 57.5458 39.8441 57.0744 39.137 57.0744H35.1341C34.9168 57.0691 34.7007 57.1079 34.4989 57.1885C34.297 57.2692 34.1137 57.3899 33.9598 57.5434C33.8059 57.6969 33.6848 57.88 33.6037 58.0816C33.5226 58.2833 33.4833 58.4992 33.4881 58.7165V58.9484C34.427 64.8137 38.1981 69.0331 45.9684 70.2077V75.8374C45.9684 76.7724 46.6755 77.4795 47.8501 77.7114H51.3855C52.3245 77.7114 53.0316 77.0081 53.2673 75.8374V70.2038C60.3343 69.0331 65.0405 64.1066 65.0405 57.7737V57.7776Z" fill="white"/>
<path d="M37.4911 82.4021C19.1222 75.8335 9.70205 55.4322 16.5334 37.3763C20.065 27.5234 27.8352 20.0236 37.4911 16.5037C38.4339 16.0361 38.9014 15.3329 38.9014 14.1583V10.874C38.9014 9.93892 38.4339 9.2357 37.4911 9C37.2554 9 36.784 9 36.5483 9.23183C31.2487 10.8868 26.3288 13.5738 22.072 17.138C17.8151 20.7022 14.3053 25.0733 11.7447 29.9995C9.18405 34.9257 7.62317 40.3098 7.15192 45.8418C6.68067 51.3738 7.30835 56.9443 8.99882 62.2327C13.2336 75.3699 23.3609 85.4546 36.5483 89.6739C37.4911 90.1415 38.4339 89.6739 38.6657 88.735C38.9014 88.5032 38.9014 88.2636 38.9014 87.7961V84.5118C38.9014 83.8086 38.1982 82.8735 37.4911 82.4021ZM62.4517 9.2357C61.5089 8.7643 60.5662 9.2357 60.3343 10.1708C60.0986 10.4065 60.0986 10.6421 60.0986 11.1097V14.394C60.0986 15.3329 60.8018 16.268 61.5089 16.7393C79.8778 23.3079 89.298 43.7092 82.4666 61.7651C78.935 71.618 71.1648 79.1178 61.5089 82.6378C60.5662 83.1053 60.0986 83.8086 60.0986 84.9832V88.2675C60.0986 89.2025 60.5662 89.9058 61.5089 90.1415C61.7446 90.1415 62.216 90.1415 62.4517 89.9096C67.7513 88.2546 72.6712 85.5677 76.928 82.0035C81.1849 78.4392 84.6947 74.0682 87.2553 69.1419C89.816 64.2157 91.3768 58.8316 91.8481 53.2997C92.3193 47.7677 91.6917 42.1972 90.0012 36.9088C85.7664 23.5398 75.4034 13.4551 62.4517 9.2357Z" fill="white"/>
</svg>
