<svg width="100" height="100" viewBox="0 0 100 100" fill="none" xmlns="http://www.w3.org/2000/svg">
<rect width="100" height="100" rx="24" fill="white"/>
<path d="M78.9046 58.6249H83.0906V50.977C83.0906 49.2318 84.1102 47.9973 85.6135 47.9973C87.0631 47.9973 87.814 49.0169 87.814 50.4664V58.6249H92V49.6618C92 46.6283 90.1757 44.4816 87.2229 44.4816C85.3448 44.4816 84.0296 45.2862 83.0369 46.7627H82.9562V44.8846H78.9046V58.6249ZM70.6924 44.5084C66.3183 44.5084 63.3923 47.6479 63.3923 51.7816C63.3923 55.8884 66.3169 59.0548 70.6924 59.0548C75.0679 59.0548 77.9924 55.8884 77.9924 51.7816C77.9924 47.6494 75.0679 44.5084 70.6924 44.5084ZM70.6655 55.9676C68.68 55.9676 67.6335 54.3045 67.6335 51.7816C67.6335 49.2318 68.68 47.5956 70.6655 47.5956C72.651 47.5956 73.7513 49.2333 73.7513 51.7816C73.7527 54.3045 72.6525 55.9676 70.6655 55.9676ZM51.4778 58.6249H63.2325V55.3242H56.5773V55.2436L62.937 48.1047V44.8846H51.4778V48.1853H57.918V48.2659L51.4778 55.4585V58.6249ZM46.1095 58.6249H50.3224V44.8846H46.1095V58.6249ZM36.3417 58.6249H40.5277V52.319C40.5277 49.4468 42.2459 48.1853 44.8749 48.5346H44.9555V44.9115C44.7405 44.8309 44.4987 44.804 44.0971 44.804C42.4595 44.804 41.3592 45.5549 40.4202 47.1657H40.3396V44.8846H36.3417V58.6249ZM28.6386 55.9959C26.7874 55.9959 25.6603 54.7882 25.4453 52.937H35.3475C35.3744 49.9842 34.5965 47.6225 32.9589 46.1475C31.8049 45.0741 30.2748 44.483 28.343 44.483C24.2107 44.483 21.3385 47.6225 21.3385 51.7293C21.3385 55.8616 24.0764 59.0294 28.6117 59.0294C30.3299 59.0294 31.6975 58.5726 32.8246 57.7948C34.0323 56.9632 34.8907 55.7555 35.1325 54.5478H31.1077C30.7061 55.4585 29.8731 55.9959 28.6386 55.9959ZM28.425 47.4881C29.9014 47.4881 30.9211 48.5884 31.0823 50.1991H25.4736C25.7946 48.5615 26.6799 47.4881 28.425 47.4881ZM46.1095 40H50.3224V43.7306H46.1095V40Z" fill="#F50A23"/>
<path d="M7 44.8846L12.2099 58.4552C12.2495 58.5585 12.3485 58.6263 12.4588 58.6263H16.6858C16.5755 58.6263 16.4765 58.5585 16.4369 58.4552L11.227 44.8846H7Z" fill="url(#paint0_radial_281_13)"/>
<path d="M22.1445 44.8846L16.9347 58.4552C16.8951 58.5585 16.7961 58.6263 16.6858 58.6263H12.4587C12.569 58.6263 12.668 58.5585 12.7076 58.4552L17.9175 44.8846H22.1445Z" fill="#F50A23"/>
<defs>
<radialGradient id="paint0_radial_281_13" cx="0" cy="0" r="1" gradientUnits="userSpaceOnUse" gradientTransform="translate(14.4966 53.8889) rotate(-90) scale(6.51939 5.91449)">
<stop stop-color="#F5FF1E"/>
<stop offset="1" stop-color="#F50A23"/>
</radialGradient>
</defs>
</svg>
