<svg width="100" height="100" viewBox="0 0 100 100" fill="none" xmlns="http://www.w3.org/2000/svg">
<rect width="100" height="100" rx="24" fill="#12B9EB"/>
<path d="M89.9627 30.9785C89.6056 38.764 84.1771 49.4245 73.6416 62.96C62.7668 77.1026 53.5706 84.1739 46.035 84.1739C41.3744 84.1739 37.428 79.8704 34.196 71.2634C27.9104 48.1924 25.2318 34.6748 20.0355 34.6748C19.4284 34.6748 17.3391 35.9426 13.7499 38.4426L10 33.5855C19.2141 25.4964 28.0175 16.4966 33.5353 15.9966C39.7673 15.3895 43.5886 19.6572 45.035 28.7642C50.1599 61.1743 52.4277 66.0671 61.749 51.3888C65.0882 46.1032 66.8918 42.0854 67.1418 39.3176C67.9989 31.1213 60.749 31.6749 55.8384 33.782C59.7669 20.9072 67.2846 14.6573 78.3737 15.0145C86.5521 15.2288 90.427 20.5679 89.9627 30.9785Z" fill="white"/>
</svg>
