<svg width="100" height="100" viewBox="0 0 100 100" fill="none" xmlns="http://www.w3.org/2000/svg">
<rect width="100" height="100" rx="24" fill="#1AB7EA"/>
<g clip-path="url(#clip0_281_8)">
<path d="M26.0886 49.4519C26.0048 51.2903 24.7201 53.8088 22.2369 57.0048C19.6699 60.3428 17.4975 62.0125 15.7198 62.0125C14.6197 62.0125 13.6883 60.9961 12.927 58.9622C12.4194 57.0983 11.9106 55.2356 11.403 53.3716C10.8384 51.3389 10.2325 50.3213 9.58403 50.3213C9.44317 50.3213 8.94775 50.6188 8.10139 51.2114L7.21375 50.0663C8.1451 49.2479 9.06432 48.4283 9.96896 47.6074C11.2124 46.534 12.145 45.9681 12.7679 45.9111C14.2372 45.7702 15.1418 46.7756 15.4818 48.9261C15.8485 51.2478 16.1023 52.6916 16.2444 53.2563C16.6682 55.1821 17.1345 56.1438 17.6432 56.1438C18.0391 56.1438 18.6329 55.5185 19.4246 54.2702C20.2151 53.0207 20.6389 52.0699 20.696 51.4178C20.8089 50.3396 20.3851 49.7992 19.4246 49.7992C18.9717 49.7992 18.5054 49.9024 18.027 50.1088C18.9547 47.0683 20.7275 45.5905 23.3455 45.6743C25.286 45.7313 26.2003 46.9906 26.0886 49.4519Z" fill="white"/>
<path d="M34.0555 40.3289C34.0275 41.0332 33.6742 41.7084 32.9942 42.3556C32.2316 43.0866 31.327 43.4521 30.2815 43.4521C28.6701 43.4521 27.8918 42.749 27.9488 41.3429C27.9755 40.6119 28.4078 39.9076 29.2408 39.2324C30.075 38.5585 31.0003 38.2197 32.0191 38.2197C32.6129 38.2197 33.1071 38.4529 33.5042 38.9167C33.8988 39.3806 34.0834 39.8517 34.0555 40.3289ZM37.7445 55.4092C36.9528 56.9052 35.8648 58.2615 34.4793 59.4758C32.585 61.1139 30.6919 61.9335 28.7976 61.9335C27.9197 61.9335 27.2494 61.6506 26.7831 61.0847C26.3168 60.5201 26.097 59.7867 26.1262 58.882C26.1529 57.9507 26.4431 56.5093 26.9944 54.5592C27.5457 52.6102 27.8225 51.5647 27.8225 51.4239C27.8225 50.6892 27.5675 50.3213 27.0588 50.3213C26.89 50.3213 26.4079 50.6188 25.6162 51.2114L24.6411 50.0663C25.5458 49.2479 26.4504 48.4282 27.355 47.6074C28.5705 46.5339 29.4752 45.9681 30.0702 45.911C31.0028 45.8272 31.6876 46.1017 32.126 46.7355C32.5631 47.3706 32.7258 48.1927 32.6141 49.2066C32.2462 50.9248 31.8503 53.1069 31.4265 55.754C31.3974 56.9659 31.8358 57.5706 32.7404 57.5706C33.1363 57.5706 33.843 57.1529 34.8605 56.3162C35.7093 55.6192 36.4015 54.9635 36.9394 54.3491L37.7445 55.4092Z" fill="white"/>
<path d="M64.2257 55.408C63.434 56.9052 62.346 58.2604 60.9605 59.4746C59.0662 61.1127 57.1719 61.9324 55.2788 61.9324C53.4404 61.9324 52.5503 60.916 52.6074 58.8809C52.6341 57.9762 52.8114 56.8907 53.1368 55.6193C53.461 54.3467 53.6383 53.3583 53.6663 52.6516C53.6954 51.5794 53.3688 51.0414 52.6875 51.0414C51.9505 51.0414 51.0713 51.9181 50.0501 53.6704C48.973 55.5088 48.3902 57.2889 48.3064 59.0132C48.2457 60.2299 48.3671 61.1625 48.6622 61.8122C46.6902 61.8692 45.3083 61.5438 44.5203 60.8371C43.8135 60.2154 43.4905 59.1844 43.5476 57.7419C43.5719 56.8372 43.7128 55.9326 43.9641 55.0279C44.213 54.1233 44.3515 53.3182 44.3794 52.6103C44.4401 51.5648 44.054 51.0414 43.2331 51.0414C42.5252 51.0414 41.7602 51.8477 40.9405 53.4591C40.1197 55.0692 39.6668 56.7522 39.5818 58.5044C39.521 60.0891 39.6303 61.1904 39.8853 61.8122C37.9449 61.8692 36.5667 61.46 35.7519 60.5857C35.0743 59.8535 34.7659 58.74 34.823 57.2452C34.8473 56.513 34.9796 55.4906 35.2128 54.1804C35.4459 52.8689 35.5758 51.8477 35.6025 51.1143C35.6633 50.6079 35.5297 50.3529 35.2213 50.3529C35.0513 50.3529 34.5704 50.6395 33.7787 51.2114L32.7611 50.0664C32.9032 49.9546 33.792 49.1338 35.4325 47.6074C36.6201 46.5061 37.4252 45.9402 37.849 45.9123C38.5848 45.8552 39.1774 46.1588 39.6303 46.823C40.082 47.4872 40.3091 48.2583 40.3091 49.1338C40.3091 49.4167 40.2848 49.6851 40.2241 49.9401C40.6479 49.2904 41.1421 48.7234 41.708 48.2425C43.0085 47.1132 44.4644 46.4757 46.0758 46.3349C47.4613 46.2219 48.4497 46.5461 49.0447 47.3099C49.5243 47.9316 49.7502 48.8229 49.7222 49.9814C49.9202 49.8126 50.1327 49.628 50.3598 49.4301C51.0082 48.6675 51.6445 48.0604 52.2662 47.6074C53.3117 46.8436 54.4021 46.4199 55.5314 46.3349C56.889 46.2219 57.864 46.5449 58.4578 47.3063C58.9654 47.9256 59.1925 48.8132 59.1366 49.9668C59.1075 50.7561 58.9168 51.9036 58.5635 53.4105C58.2089 54.9174 58.034 55.782 58.034 56.0079C58.0049 56.6004 58.062 57.0084 58.2028 57.2331C58.3449 57.4589 58.6825 57.5707 59.2204 57.5707C59.6163 57.5707 60.3218 57.1529 61.3405 56.3151C62.1881 55.6193 62.8815 54.9636 63.4194 54.3491L64.2257 55.408Z" fill="white"/>
<path d="M70.5011 50.937C70.5278 50.1781 70.2181 49.798 69.5697 49.798C68.7221 49.798 67.8612 50.3821 66.9869 51.549C66.1114 52.716 65.6597 53.8343 65.6318 54.9029C65.616 54.9029 65.616 55.0863 65.6318 55.4518C67.0149 54.9454 68.2146 54.1731 69.2309 53.1313C70.0494 52.2315 70.4719 51.4993 70.5011 50.937ZM80.1267 55.3643C79.3071 56.7207 77.6957 58.0746 75.2926 59.4298C72.297 61.1516 69.2564 62.0113 66.1758 62.0113C63.8869 62.0113 62.2451 61.2488 61.2567 59.7224C60.55 58.6769 60.2112 57.4335 60.2391 55.9921C60.2671 53.7032 61.2859 51.5272 63.2931 49.4629C65.497 47.2019 68.098 46.0702 71.0949 46.0702C73.8659 46.0702 75.3351 47.1995 75.5051 49.4544C75.6181 50.8921 74.8264 52.3735 73.13 53.8963C71.3207 55.561 69.0439 56.6175 66.3033 57.068C66.8109 57.7735 67.5734 58.1256 68.5922 58.1256C70.6274 58.1256 72.8471 57.6083 75.2501 56.5725C76.9744 55.8452 78.332 55.0899 79.3216 54.3067L80.1267 55.3643Z" fill="white"/>
<path d="M86.8454 52.3626C86.8733 51.5976 86.7677 50.8969 86.5273 50.2594C86.2868 49.6232 85.9395 49.3026 85.489 49.3026C84.0465 49.3026 82.8589 50.0822 81.9275 51.6401C81.1346 52.9151 80.7096 54.2751 80.655 55.7177C80.6258 56.4268 80.7533 57.0509 81.0363 57.5877C81.3459 58.2118 81.7843 58.5227 82.3513 58.5227C83.6227 58.5227 84.7119 57.7734 85.6165 56.2714C86.3791 55.0243 86.7883 53.7214 86.8454 52.3626ZM91.637 52.5229C91.524 55.1202 90.5636 57.3642 88.7543 59.2549C86.945 61.1455 84.6961 62.0914 82.0113 62.0914C79.7783 62.0914 78.0819 61.3714 76.9235 59.9312C76.0759 58.859 75.6084 57.5184 75.5246 55.9107C75.3813 53.4822 76.258 51.2527 78.1535 49.22C80.1887 46.9627 82.746 45.8334 85.8278 45.8334C87.8059 45.8334 89.3043 46.4976 90.3231 47.8236C91.2848 49.0379 91.722 50.6043 91.637 52.5229Z" fill="white"/>
</g>
<defs>
<clipPath id="clip0_281_8">
<rect width="85" height="24.2857" fill="white" transform="translate(7 38)"/>
</clipPath>
</defs>
</svg>
