<svg width="100" height="100" viewBox="0 0 100 100" fill="none" xmlns="http://www.w3.org/2000/svg">
<rect width="100" height="100" rx="24" fill="white"/>
<path d="M89.8525 20.3405L51.7066 88.552C50.919 89.9603 48.8956 89.9686 48.0962 88.5671L9.19388 20.347C8.32298 18.8198 9.62893 16.9699 11.3596 17.2792L49.5463 24.1049C49.7899 24.1484 50.0393 24.148 50.2829 24.1036L87.6711 17.289C89.396 16.9746 90.7081 18.8102 89.8525 20.3405Z" fill="url(#paint0_linear_301_4)"/>
<path d="M67.7366 8.32641L39.5074 13.8578C39.0435 13.9487 38.6999 14.3419 38.672 14.8138L36.9355 44.1416C36.8946 44.8324 37.529 45.3685 38.2032 45.213L46.0626 43.3992C46.798 43.2296 47.4624 43.8773 47.3113 44.6168L44.9763 56.0509C44.8191 56.8205 45.5416 57.4785 46.2931 57.2503L51.1475 55.7754C51.9 55.5469 52.6231 56.2068 52.4639 56.977L48.7532 74.9375C48.521 76.061 50.0153 76.6736 50.6385 75.7104L51.0548 75.0671L74.0575 29.1613C74.4426 28.3927 73.7784 27.5162 72.9342 27.6791L64.8443 29.2405C64.084 29.387 63.4372 28.6791 63.6518 27.9353L68.9319 9.63095C69.1467 8.88591 68.4976 8.17731 67.7366 8.32641Z" fill="url(#paint1_linear_301_4)"/>
<defs>
<linearGradient id="paint0_linear_301_4" x1="8.24405" y1="14.8414" x2="55.7196" y2="79.3171" gradientUnits="userSpaceOnUse">
<stop stop-color="#41D1FF"/>
<stop offset="1" stop-color="#BD34FE"/>
</linearGradient>
<linearGradient id="paint1_linear_301_4" x1="47.3544" y1="9.82817" x2="55.9425" y2="68.7416" gradientUnits="userSpaceOnUse">
<stop stop-color="#FFEA83"/>
<stop offset="0.0833333" stop-color="#FFDD35"/>
<stop offset="1" stop-color="#FFA800"/>
</linearGradient>
</defs>
</svg>
