<svg width="100" height="100" viewBox="0 0 100 100" fill="none" xmlns="http://www.w3.org/2000/svg">
<g clip-path="url(#clip0_280_20)">
<rect width="100" height="100" rx="24" fill="#EF3939"/>
<path d="M49.9996 99.9996C71.9104 99.9996 84.0862 99.9996 92.0429 92.0429C99.9996 84.0862 99.9996 71.9104 99.9996 49.9996C99.9996 28.0891 99.9996 15.9131 92.0429 7.95654C84.0862 0 71.9104 0 49.9996 0C28.0891 0 15.8981 0 7.95658 7.95654C0.0150688 15.9131 0 28.0891 0 49.9996C0 71.9104 0 84.0862 7.95658 92.0429C15.9131 99.9996 28.0891 99.9996 49.9996 99.9996Z" fill="#EF3939"/>
<path d="M82.5083 31.4975C80.0945 27.1452 75.9424 23.5815 72.0337 20.5002C68.1245 17.419 64.2874 15.5627 59.4912 14.2315C54.6949 12.9004 49.7933 12.925 44.8554 13.5509C39.917 14.1767 35.6681 15.3039 31.3557 17.7895C27.0434 20.275 23.6939 23.3184 20.6778 27.2773C17.6617 31.2362 15.6577 35.1675 14.4067 39.9842C13.1557 44.8008 12.7023 50.1375 13.411 55.0629C14.1195 59.9887 14.9802 64.6762 17.5382 68.9454L17.7492 69.3067L35.3628 99.8404C38.2859 99.9208 41.45 99.9558 44.8554 99.9458H49.8574C57.8449 100.117 65.8362 99.8812 73.7995 99.2379C81.7699 98.3642 87.4953 96.4058 91.8799 91.9925C98.3287 85.545 99.5495 76.3262 99.7753 61.4133L82.5083 31.4975Z" fill="url(#paint0_linear_280_20)"/>
<path d="M76.4875 23.4708C71.2429 18.23 64.5625 14.662 57.2913 13.218C50.0196 11.7739 42.4834 12.5186 35.6352 15.358C28.7867 18.1973 22.9337 23.0037 18.8157 29.1698C14.6978 35.3358 12.5 42.5847 12.5 49.9997C12.5 57.4151 14.6978 64.6638 18.8157 70.8301C22.9337 76.9959 28.7867 81.8026 35.6352 84.6417C42.4834 87.4809 50.0196 88.2259 57.2913 86.7817C64.5625 85.3376 71.2429 81.7696 76.4875 76.5288C79.9779 73.0492 82.7475 68.9146 84.6371 64.3622C86.5267 59.8097 87.4996 54.9292 87.4996 49.9997C87.4996 45.0705 86.5267 40.1898 84.6371 35.6374C82.7475 31.0849 79.9779 26.9504 76.4875 23.4708ZM74.2396 40.7343C68.0538 51.4988 61.8734 62.2584 55.6979 73.013C55.2109 73.9663 54.485 74.7776 53.5913 75.3671C52.6979 75.9567 51.6667 76.3051 50.5988 76.378C49.4196 76.5096 48.2284 76.2821 47.1809 75.7246C46.1338 75.1671 45.2792 74.3059 44.73 73.2542C40.8225 66.5238 36.9452 59.7484 33.068 52.9876C30.6943 48.883 28.3307 44.7684 25.9772 40.6437C25.4185 39.7176 25.1104 38.6619 25.0832 37.5806C25.056 36.4993 25.3106 35.4294 25.822 34.4764C26.3335 33.5233 27.0841 32.7198 28.0001 32.1448C28.9161 31.5698 29.9659 31.2432 31.0463 31.1971C32.2094 31.1258 33.3682 31.3927 34.3828 31.9658C35.3975 32.5389 36.2246 33.3935 36.7642 34.4265C38.5142 37.4446 40.2341 40.4627 41.9542 43.4809C43.2063 45.6538 44.413 47.8267 45.6954 49.9697C46.5109 51.4505 47.6946 52.6955 49.1325 53.5842C50.5709 54.4726 52.2138 54.9738 53.9025 55.0401C56.4675 55.1988 58.995 54.3647 60.9613 52.7097C62.9275 51.0547 64.1813 48.7067 64.4634 46.1517C64.4634 45.7442 64.4634 45.3367 64.5538 45.1255C64.5629 43.5109 64.2013 41.9159 63.4979 40.4627C63.0663 39.6622 62.8154 38.7771 62.7621 37.8693C62.7088 36.9616 62.855 36.0532 63.19 35.2079C63.525 34.3625 64.0413 33.6008 64.7017 32.9761C65.3625 32.3514 66.1517 31.8789 67.0142 31.5917C67.8767 31.3044 68.7917 31.2095 69.695 31.3135C70.5979 31.4175 71.4675 31.7179 72.2421 32.1937C73.0171 32.6694 73.6784 33.309 74.1796 34.0675C74.6809 34.826 75.0104 35.6851 75.1446 36.5844C75.3146 38.03 74.9959 39.4909 74.2396 40.7343Z" fill="white"/>
</g>
<defs>
<linearGradient id="paint0_linear_280_20" x1="1832.45" y1="458.901" x2="6602.45" y2="8723.5" gradientUnits="userSpaceOnUse">
<stop stop-opacity="0.2"/>
<stop offset="0.79" stop-opacity="0.05"/>
</linearGradient>
<clipPath id="clip0_280_20">
<rect width="100" height="100" rx="24" fill="white"/>
</clipPath>
</defs>
</svg>
