<svg width="100" height="100" viewBox="0 0 100 100" fill="none" xmlns="http://www.w3.org/2000/svg">
<rect width="100" height="100" rx="24" fill="white"/>
<path d="M79.9135 60.4526C79.9135 71.499 70.9652 80.4473 59.9188 80.4473H39.0812C28.0348 80.4473 19.0865 71.499 19.0865 60.4526V53.3154H7V61.5106C7 78.6002 20.8618 92.4621 37.9515 92.4621H61.0485C78.1382 92.4621 92 78.6002 92 61.5106V53.3154H79.9135V60.4526Z" fill="#FF0099"/>
<path d="M19.0865 40.0095C19.0865 28.9631 28.0348 20.0148 39.0812 20.0148H59.9188C70.9652 20.0148 79.9135 28.9631 79.9135 40.0095V47.3618H92V38.9515C92 21.8618 78.1382 8 61.0485 8H37.9515C20.8618 8 7 21.8618 7 38.9515V47.3618H19.0865V40.0095Z" fill="#FF0099"/>
<path d="M61.5147 26.2195V59.6815C61.5147 61.2775 60.2235 62.5686 58.6275 62.5686C57.0315 62.5686 55.7404 61.2775 55.7404 59.6815V47.3619H43.2594V59.6815C43.2594 61.2775 41.9682 62.5686 40.3723 62.5686C38.7763 62.5686 37.4851 61.2775 37.4851 59.6815V26.2195C30.4735 27.3851 25.1296 33.4642 25.1296 40.7986V59.6636C25.1296 67.8229 31.7467 74.4399 39.906 74.4399H40.9461C42.9545 74.4399 44.8554 74.0454 46.5948 73.3102C47.617 72.8798 48.5853 72.3418 49.482 71.7142C50.3786 72.3418 51.3469 72.8798 52.3691 73.3102C54.1085 74.0275 56.0273 74.4399 58.0178 74.4399H59.0579C67.2172 74.4399 73.8343 67.8229 73.8343 59.6636V40.7986C73.8701 33.4642 68.5263 27.3851 61.5147 26.2195Z" fill="#FF0099"/>
</svg>
