<svg width="100" height="100" viewBox="0 0 100 100" fill="none" xmlns="http://www.w3.org/2000/svg">
<rect width="100" height="100" rx="24" fill="white"/>
<path d="M86.2847 72.5114L51.8353 92V76.8247L73.2998 65.0141L86.2847 72.5114ZM88.6445 70.3774V29.6275L76.0436 36.9103V63.1059L88.6445 70.3774ZM14.3599 72.5114L48.8092 92V76.8247L27.3334 65.0141L14.3599 72.5114ZM12 70.3774V29.6275L24.601 36.9103V63.1059L12 70.3774ZM13.4791 26.9854L48.8092 7V21.6672L26.1704 34.1214L25.9898 34.223L13.4791 26.9854ZM87.1654 26.9854L51.8353 7V21.6672L74.4741 34.1101L74.6548 34.2117L87.1654 26.9854Z" fill="#8ED6FB"/>
<path d="M48.8092 73.3696L27.627 61.7171V38.6492L48.8092 50.8775V73.3696ZM51.8352 73.3696L73.0175 61.7284V38.6492L51.8352 50.8775V73.3696ZM29.0609 35.9845L50.3222 24.2981L71.5835 35.9845L50.3222 48.258L29.0609 35.9845Z" fill="#1C78C0"/>
</svg>
