<svg width="100" height="100" viewBox="0 0 100 100" fill="none" xmlns="http://www.w3.org/2000/svg">
<rect width="100" height="100" rx="24" fill="white"/>
<path d="M13.041 50.4975C13.041 64.9284 21.4275 77.3995 33.5884 83.3093L16.1975 35.6602C14.1746 40.1943 13.041 45.212 13.041 50.4975Z" fill="#464342"/>
<path d="M74.111 48.6579C74.111 44.1521 72.4925 41.0318 71.1044 38.603C69.2563 35.5999 67.5241 33.0567 67.5241 30.0536C67.5241 26.7022 70.0659 23.5825 73.6462 23.5825C73.8079 23.5825 73.9612 23.6026 74.1186 23.6116C67.6323 17.6692 58.9906 14.041 49.499 14.041C36.7623 14.041 25.5565 20.5759 19.0376 30.474C19.893 30.4996 20.6991 30.5177 21.3838 30.5177C25.1972 30.5177 31.1001 30.055 31.1001 30.055C33.0654 29.9391 33.2971 32.8257 31.3339 33.0581C31.3339 33.0581 29.3588 33.2905 27.1611 33.4056L40.4376 72.8959L48.4161 48.9673L42.7359 33.4043C40.7727 33.2891 38.9128 33.0567 38.9128 33.0567C36.9482 32.9415 37.1785 29.9377 39.1431 30.0536C39.1431 30.0536 45.164 30.5163 48.7464 30.5163C52.5591 30.5163 58.4627 30.0536 58.4627 30.0536C60.4294 29.9377 60.6604 32.8243 58.6964 33.0567C58.6964 33.0567 56.7173 33.2891 54.5237 33.4043L67.6989 72.5955L71.3354 60.4436C72.9116 55.4009 74.111 51.7789 74.111 48.6579Z" fill="#464342"/>
<path d="M50.1386 53.6865L39.2 85.4723C42.466 86.4324 45.9201 86.9576 49.499 86.9576C53.7446 86.9576 57.816 86.2236 61.6059 84.8909C61.5081 84.7349 61.4193 84.5691 61.3464 84.3887L50.1386 53.6865Z" fill="#464342"/>
<path d="M81.4893 33.0059C81.6461 34.1672 81.7349 35.4138 81.7349 36.7547C81.7349 40.4544 81.044 44.6133 78.9628 49.8134L67.8264 82.0113C78.6652 75.6907 85.9555 63.9481 85.9555 50.4981C85.9562 44.1596 84.3371 38.1991 81.4893 33.0059Z" fill="#464342"/>
<path d="M49.499 8C26.0656 8 7 27.0642 7 50.4976C7 73.9337 26.0656 92.9972 49.499 92.9972C72.9316 92.9972 92 73.9337 92 50.4976C91.9993 27.0642 72.9316 8 49.499 8ZM49.499 91.0492C27.1402 91.0492 8.94867 72.8577 8.94867 50.4976C8.94867 28.1388 27.1395 9.94867 49.499 9.94867C71.857 9.94867 90.0472 28.1388 90.0472 50.4976C90.0472 72.8577 71.857 91.0492 49.499 91.0492Z" fill="#464342"/>
</svg>
