<svg width="100" height="100" viewBox="0 0 100 100" fill="none" xmlns="http://www.w3.org/2000/svg">
<rect width="100" height="100" rx="24" fill="#FB7A24"/>
<path d="M50.0247 65.3266C49.7144 67.2265 49.4967 68.9434 48.8142 70.526C45.6189 77.941 40.1741 82.4595 32.011 83.3589C22.3619 84.4219 13.45 78.4668 10.7704 69.2175C9.79919 65.8655 9.89646 62.4487 10.2485 59.0372C10.6245 55.3919 11.6983 51.9349 13.3751 48.674C13.6152 48.2077 13.6105 47.8556 13.3102 47.404C10.7356 43.5317 9.73666 39.2541 10.0995 34.6368C10.2933 32.1687 10.8923 29.808 12.0117 27.597C15.2912 21.1199 22.4915 15.6233 32.1353 16.5358C40.6149 17.3379 48.4691 24.6526 49.6951 32.879C49.7568 33.292 49.8726 33.6973 50.0085 34.3064C50.2115 33.2032 50.3582 32.293 50.5481 31.3913C52.1276 23.9177 59.443 16.0974 69.8125 16.0009C80.3224 15.9036 88.1056 24.1462 89.574 31.802C90.1946 35.0375 90.0866 38.2698 89.5747 41.5006C89.0629 44.7283 88.1149 47.8309 86.7292 50.7885C86.4235 51.4408 86.4551 51.9102 86.8465 52.5162C89.11 56.0241 90.109 59.8748 89.9808 64.0567C89.7129 72.7826 83.5416 80.6075 75.0512 82.6541C63.1973 85.5104 54.1109 78.4212 51.053 69.8444C50.5543 68.4486 50.3181 66.9911 50.0247 65.3266ZM71.5603 49.9964C71.6869 49.5031 72.069 49.2074 72.3438 48.8423C75.316 44.8927 76.8793 40.4808 76.5304 35.513C76.2764 31.8869 73.2942 29.3332 69.6843 29.4683C66.0722 29.6034 63.3501 32.3895 63.2992 36.004C63.2953 36.2997 63.313 36.5961 63.2945 36.8902C63.0459 40.7425 60.9206 42.8524 57.6999 43.0878C57.1116 43.131 56.5218 43.1835 55.9328 43.1851C51.7524 43.1943 47.5729 43.1928 43.3925 43.1889C41.5667 43.1874 39.7564 43.3858 38.0179 43.9223C29.9019 46.4267 25.1696 51.9766 23.6024 60.2485C23.2921 61.8851 23.0126 63.5835 23.5492 65.2649C24.3189 67.6758 25.754 69.4692 28.2946 70.069C30.9279 70.6905 33.2215 70.0026 35.0434 67.9344C36.2215 66.5974 36.5928 65.0086 36.6808 63.2646C36.9085 58.7794 39.3511 56.5375 43.4242 56.5715C49.6727 56.6232 55.922 56.5823 62.1713 56.5869C63.2806 56.5877 63.2907 56.6023 63.2961 57.6993C63.3069 59.7258 63.2443 61.7546 63.3223 63.7788C63.4497 67.0829 66.357 69.8297 69.7275 69.9262C73.2031 70.0258 76.3011 67.455 76.5273 64.0992C76.7226 61.1949 76.7102 58.2722 76.5196 55.3656C76.3721 53.1152 75.1547 51.5118 73.0919 50.5808C72.597 50.3584 72.0767 50.1917 71.5603 49.9964ZM32.3901 43.1789C33.7341 43.1789 34.8311 43.1666 35.9273 43.1843C36.4708 43.1928 36.6723 42.9589 36.6677 42.4262C36.6499 40.3179 36.7588 38.2026 36.6244 36.102C36.4469 33.3306 34.9731 31.3273 32.3931 30.3167C29.7475 29.2807 27.3265 29.872 25.2792 31.826C23.2226 33.7891 22.9486 36.19 23.6681 38.8179C24.3289 41.2327 25.8906 42.6045 28.3463 43.0191C29.773 43.2592 31.2074 43.1442 32.3901 43.1789Z" fill="white"/>
<path d="M71.5602 49.9963C72.0774 50.1916 72.5977 50.3583 73.0926 50.5814C75.1553 51.5117 76.3728 53.1159 76.5202 55.3663C76.7101 58.2728 76.7233 61.1956 76.528 64.0998C76.3018 67.4557 73.203 70.0257 69.7282 69.9268C66.3585 69.8303 63.4511 67.0836 63.323 63.7794C63.245 61.7561 63.3076 59.7265 63.2967 57.7C63.2906 56.603 63.2813 56.5883 62.172 56.5876C55.9227 56.5829 49.6734 56.6238 43.4248 56.5721C39.3518 56.5381 36.9092 58.7808 36.6815 63.2653C36.5927 65.0092 36.2221 66.598 35.0441 67.9351C33.2222 70.0025 30.9286 70.6911 28.2953 70.0697C25.7547 69.4698 24.3195 67.6765 23.5499 65.2655C23.0133 63.5849 23.2928 61.8857 23.6031 60.2491C25.1703 51.9772 29.9018 46.4273 38.0186 43.923C39.7571 43.3865 41.5667 43.1881 43.3932 43.1896C47.5735 43.1935 51.7531 43.195 55.9335 43.1865C56.5225 43.185 57.1123 43.1325 57.7006 43.0892C60.9213 42.8538 63.0466 40.7439 63.2952 36.8917C63.3145 36.5975 63.296 36.3003 63.2998 36.0054C63.3508 32.3917 66.0728 29.6056 69.685 29.4697C73.2948 29.3346 76.2771 31.8884 76.531 35.5144C76.8792 40.4822 75.3167 44.8942 72.3445 48.8437C72.0689 49.2073 71.686 49.503 71.5602 49.9963Z" fill="#FB7A24"/>
<path d="M32.3899 43.179C31.2064 43.1443 29.7728 43.2601 28.3462 43.0192C25.8905 42.6046 24.3287 41.2328 23.6679 38.818C22.9492 36.1901 23.2225 33.7885 25.2791 31.8261C27.3264 29.8721 29.7474 29.2816 32.393 30.3168C34.973 31.3266 36.4467 33.3307 36.6243 36.1021C36.7586 38.202 36.6498 40.318 36.6675 42.4263C36.6721 42.959 36.4699 43.1937 35.9272 43.1844C34.8309 43.1659 33.7347 43.179 32.3899 43.179Z" fill="#FB7A24"/>
</svg>
