<svg width="100" height="100" viewBox="0 0 100 100" fill="none" xmlns="http://www.w3.org/2000/svg">
<rect width="100" height="100" rx="24" fill="#5F01D1"/>
<path d="M8 43.7453H13.0593L15.9962 51.2699L18.976 43.7453H23.9067L16.4893 61.5813H11.5372L13.5738 56.8651L8 43.7453ZM29.0303 43.4451C25.2358 43.4451 22.8348 46.8537 22.8348 50.2409C22.8348 54.0567 25.4716 57.0794 28.966 57.0794C31.5813 57.0794 32.5675 55.4931 32.5675 55.4931V56.7364H36.9836V43.7453H32.5675V44.9243C32.546 44.9243 31.4527 43.4451 29.0303 43.4451ZM29.9735 47.6255C31.7314 47.6255 32.6318 49.0189 32.6318 50.2623C32.6318 51.6129 31.6671 52.942 29.9735 52.942C28.5801 52.942 27.3153 51.8058 27.3153 50.3266C27.3153 48.826 28.3228 47.6255 29.9735 47.6255ZM38.4842 56.7364V38H43.0933V44.9672C43.0933 44.9672 44.1866 43.4451 46.4805 43.4451C49.2888 43.4451 50.9395 45.546 50.9395 48.5259V56.7364H46.3518V49.6406C46.3518 48.633 45.8802 47.6469 44.7869 47.6469C43.6721 47.6469 43.0933 48.633 43.0933 49.6406V56.7364H38.4842ZM58.8071 43.4451C54.4552 43.4451 51.8613 46.7465 51.8613 50.3052C51.8613 54.3354 54.9912 57.1009 58.8285 57.1009C62.5372 57.1009 65.7743 54.4641 65.7743 50.3695C65.7743 45.889 62.3657 43.4451 58.8071 43.4451ZM58.8499 47.6469C60.3934 47.6469 61.4439 48.9332 61.4439 50.2837C61.4439 51.4414 60.4578 52.8777 58.8499 52.8777C57.3707 52.8777 56.2774 51.6986 56.2774 50.2623C56.2774 48.9117 57.1778 47.6469 58.8499 47.6469ZM73.4489 43.4451C69.0971 43.4451 66.5032 46.7465 66.5032 50.3052C66.5032 54.3354 69.633 57.1009 73.4704 57.1009C77.1791 57.1009 80.4161 54.4641 80.4161 50.3695C80.4161 45.889 77.029 43.4451 73.4489 43.4451ZM73.4918 47.6469C75.0353 47.6469 76.0857 48.9332 76.0857 50.2837C76.0857 51.4414 75.0996 52.8777 73.4918 52.8777C72.0126 52.8777 70.9193 51.6986 70.9193 50.2623C70.9193 48.9117 71.8411 47.6469 73.4918 47.6469ZM84.0605 50.884C85.7541 50.884 87.1261 52.256 87.1261 53.9496C87.1261 55.6431 85.7541 57.0151 84.0605 57.0151C82.367 57.0151 80.995 55.6431 80.995 53.9496C80.995 52.256 82.367 50.884 84.0605 50.884ZM88.1337 49.7692H82.6242L87.512 38H93L88.1337 49.7692Z" fill="white"/>
</svg>
