<svg width="100" height="100" viewBox="0 0 100 100" fill="none" xmlns="http://www.w3.org/2000/svg">
<rect width="100" height="100" rx="24" fill="white"/>
<g clip-path="url(#clip0_391_113)">
<path d="M21.1024 62.844L16.6561 64.4686L16.4194 77.6946L31.8104 72.0722C26.527 70.3029 22.674 67.1844 21.1024 62.844Z" fill="#FDBD39"/>
<path d="M23.4298 48.855L8 54.4915L16.6561 64.472L21.1025 62.8474C19.5344 58.5211 20.5021 53.6368 23.4298 48.855Z" fill="#F69833"/>
<path d="M49.391 29.7664C29.7444 36.9428 17.0763 51.7545 21.1024 62.844L92.2477 36.8545C88.2216 25.7651 69.0376 22.5901 49.391 29.7664Z" fill="#FECF33"/>
<path d="M63.9556 69.9356C83.6022 62.7592 96.2915 48.0145 92.2442 36.858L21.0989 62.844C25.1462 74.004 44.3089 77.1119 63.9556 69.9356Z" fill="#EE6723"/>
<path d="M92.2443 36.8545L21.1025 62.844C22.494 66.6864 27.8092 68.5794 35.261 68.5794C42.5291 68.5794 51.8315 66.7818 61.5294 63.2395C81.1761 56.0632 94.9955 44.4405 92.2443 36.8545Z" fill="#F69833"/>
<path d="M78.0857 31.1226C70.8211 31.1226 61.5152 32.9202 51.8172 36.4624C32.1706 43.6388 18.3512 55.2579 21.1024 62.8439L92.2477 36.8544C90.8527 33.012 85.5411 31.1226 78.0857 31.1226Z" fill="#FDBD39"/>
<path d="M74.155 78.3973C72.0608 78.3973 68.9741 76.5079 64.9763 72.7784C60.2474 68.3674 54.8333 61.9045 49.723 54.5833C44.6162 47.2622 40.4206 39.9446 37.9061 33.9726C35.169 27.4672 34.777 23.4694 36.7442 22.085C37.1997 21.7742 37.7401 21.6153 38.291 21.6294C39.8909 21.6294 43.0129 22.8196 48.7801 28.4985L48.9072 28.6221L48.8895 28.7987C48.8507 29.2083 48.8154 29.618 48.7836 30.0242L48.72 30.8258L48.155 30.2573C41.9392 23.9956 39.2057 23.3211 38.3157 23.3211C38.0615 23.3211 37.8602 23.3705 37.7154 23.4729C36.8607 24.0733 36.8042 27.0117 39.46 33.3157C41.9286 39.1782 46.0642 46.3863 51.1039 53.6121C56.1471 60.8414 61.4799 67.2055 66.1276 71.5388C71.1355 76.2112 73.3922 76.7162 74.1303 76.7162C74.3846 76.7162 74.5894 76.6633 74.7448 76.5538C75.6454 75.9216 75.6454 72.7749 72.6859 65.9871L72.5481 65.6763L72.8448 65.5138C73.1414 65.3514 73.431 65.1924 73.6995 65.037L74.0562 64.8357L74.2221 65.2101C76.3199 70.0202 78.2835 76.1335 75.709 77.9417C75.2534 78.2525 74.7095 78.4114 74.155 78.3973Z" fill="#EE6723"/>
<path d="M64.4324 69.7307L64.4042 70.098C63.9062 76.243 62.5995 83.6313 59.1879 83.9315C59.1173 83.9385 59.0466 83.9385 58.9795 83.9385C56.6628 83.9385 54.4696 80.6188 52.4671 74.0746C50.5671 67.8801 49.0944 59.5665 48.321 50.6632C47.544 41.7599 47.5546 33.3157 48.3528 26.8846C49.2216 19.8778 50.8744 16.219 53.2688 16.0071C53.3395 16 53.4136 15.9965 53.4843 15.9965C55.1653 15.9965 57.6975 17.9 60.2898 26.7645L58.5981 27.0894C57.7329 24.1299 56.7899 21.7213 55.854 20.0614C54.9888 18.5322 54.1447 17.6881 53.4843 17.6881C53.4631 17.6881 53.4419 17.6881 53.4172 17.6917C52.3789 17.7835 50.8673 20.298 50.0268 27.0929C49.2427 33.4075 49.2321 41.7281 49.9985 50.5149C50.7649 59.3052 52.2129 67.4951 54.0776 73.5766C54.9111 76.2996 55.8258 78.5457 56.7263 80.0678C57.5527 81.4734 58.3544 82.2469 58.9795 82.2469C59.0007 82.2469 59.0219 82.2469 59.0431 82.2433C60.0355 82.1586 61.9073 79.5381 62.6948 70.324L64.4324 69.7307Z" fill="#EE6723"/>
</g>
<defs>
<clipPath id="clip0_391_113">
<rect width="85" height="67.9421" fill="white" transform="translate(8 16)"/>
</clipPath>
</defs>
</svg>
