<svg width="100" height="100" viewBox="0 0 100 100" fill="none" xmlns="http://www.w3.org/2000/svg">
<rect width="100" height="100" rx="24" fill="url(#paint0_linear_257_58)"/>
<path d="M17.0377 64.2126C17.8174 64.209 18.5959 64.1522 19.3678 64.0426V60.4985C19.0463 60.517 18.686 60.5742 18.2314 60.5742C16.5074 60.5742 15.6352 59.9497 15.6352 57.9799V47.3678H19.3678V43.7313H15.6352V38.6332H10.842V43.7313H8V47.3678H10.842V58.3772C10.842 62.5071 12.8321 64.2126 17.0377 64.2126ZM28.0267 63.8153H33.2191L40.2871 43.7295H35.3608L30.7172 59.4378H30.6045L25.9424 43.7313H20.9218L28.0267 63.8153ZM54.9902 64.2902C62.9858 64.2902 67.949 58.8502 67.949 50.1543V50.1174C67.949 41.4382 62.9673 36 54.9902 36C47.0316 36 42.0111 41.4382 42.0111 50.1174V50.1543C42.0111 58.8502 46.9947 64.2902 54.9902 64.2902ZM54.9902 60.0439C50.1009 60.0439 46.9928 56.2374 46.9928 50.1543V50.1174C46.9928 44.0343 50.1194 40.2445 54.9902 40.2445C59.8777 40.2445 62.9858 44.051 62.9858 50.1155V50.1525C62.9858 56.1783 59.935 60.0439 54.9902 60.0439ZM81.4585 64.2902C88.1291 64.2902 92.1463 61.0491 92.1463 55.951V55.9325C92.1463 51.6696 89.6628 49.3579 83.9789 48.1827L81.0224 47.5766C77.7259 46.8948 76.2291 45.7584 76.2291 43.8255V43.8071C76.2291 41.6266 78.2192 40.1299 81.4215 40.1114C84.4908 40.1114 86.5954 41.5342 86.917 43.9198L86.9539 44.1471H91.6345L91.616 43.8255C91.3296 39.145 87.4251 36 81.4585 36C75.5658 36 71.3416 39.2596 71.3232 44.0713V44.0898C71.3232 48.1642 73.9748 50.6662 79.3557 51.7823L82.2937 52.3902C85.8175 53.1293 87.2385 54.227 87.2385 56.2743V56.2928C87.2385 58.6414 85.0765 60.177 81.6303 60.177C78.2008 60.177 75.793 58.7172 75.4346 56.3686L75.3976 56.1413H70.7152L70.7337 56.4259C71.0571 61.3318 75.187 64.2884 81.4585 64.2884V64.2902Z" fill="white"/>
<defs>
<linearGradient id="paint0_linear_257_58" x1="50" y1="0" x2="50" y2="100" gradientUnits="userSpaceOnUse">
<stop stop-color="#3D3D3D"/>
<stop offset="1" stop-color="#030303"/>
</linearGradient>
</defs>
</svg>
