<svg width="100" height="100" viewBox="0 0 100 100" fill="none" xmlns="http://www.w3.org/2000/svg">
<rect width="100" height="100" rx="24" fill="#FA2A00"/>
<path d="M62.879 56.7793C60.987 67.16 52.0718 75.6522 38.3192 75.6522C21.8911 75.6522 12 63.5856 12 49.833C12 36.3566 21.4014 24 38.1757 24C52.5644 24 61.4801 33.0518 62.809 44.3488H50.9495C49.9002 38.5958 45.5456 34.2481 38.3197 34.2481C28.9114 34.2481 23.5809 41.687 23.5809 49.833C23.5809 58.4618 29.5445 65.4115 38.4597 65.4115C45.0559 65.4115 49.4066 61.6201 50.8094 56.7793H62.8795H62.879ZM76.6548 25.1474L69.4072 28.253L78.4901 49.4938L69.4037 70.7414L76.6543 73.8406L82.7505 59.483L82.782 59.549L87 49.4938L76.6548 25.1474Z" fill="white"/>
</svg>
