<svg width="100" height="100" viewBox="0 0 100 100" fill="none" xmlns="http://www.w3.org/2000/svg">
<g clip-path="url(#clip0_175_145)">
<rect width="100" height="100" rx="24" fill="white"/>
<path d="M27.8906 10.7812H72.0312C81.4844 10.7812 89.1406 18.4375 89.1406 27.8906V72.0312C89.1406 81.4844 81.4844 89.1406 72.0312 89.1406H27.8906C18.4375 89.1406 10.7812 81.4844 10.7812 72.0312V27.8906C10.7812 18.4375 18.4375 10.7812 27.8906 10.7812Z" fill="url(#paint0_linear_175_145)"/>
<path d="M70.7031 15H29.2188C21.3281 15 14.9219 21.4062 14.9219 29.2969V70.7812C14.9219 78.6719 21.3281 85.0781 29.2188 85.0781H70.7031C78.5937 85.0781 85 78.6719 85 70.7812V29.2188C85 21.3281 78.5937 15 70.7031 15ZM83.8281 70.9375C83.8281 78.125 78.0469 83.9062 70.8594 83.9062H29.0625C21.9531 83.9062 16.0937 78.125 16.0937 70.9375V29.0625C16.0937 21.875 21.875 16.0937 29.0625 16.0937H70.9375C78.0469 16.0937 83.9062 21.875 83.9062 29.0625V70.9375H83.8281Z" fill="white"/>
<path d="M50.0781 17.8125C32.4219 17.8125 18.0469 32.1875 18.0469 49.8438C18.0469 67.5 32.4219 81.875 50.0781 81.875C67.8125 81.875 82.1094 67.5 82.1094 49.8438C82.1094 32.1875 67.7344 17.8125 50.0781 17.8125ZM50.0781 81.4062C32.6563 81.4062 18.5156 67.2656 18.5156 49.8438C18.5156 32.4219 32.6563 18.2813 50.0781 18.2813C67.5 18.2813 81.6406 32.4219 81.6406 49.8438C81.6406 67.2656 67.5 81.4062 50.0781 81.4062Z" fill="#69C5F3"/>
<path d="M50.0781 24.375C35.9375 24.375 24.5312 35.7812 24.5312 49.9219C24.5312 64.0625 35.9375 75.3906 50.0781 75.3906C64.2187 75.3906 75.625 63.9844 75.625 49.8437C75.625 35.7031 64.1406 24.375 50.0781 24.375ZM50.0781 74.8438C36.25 74.8438 25.0781 63.6719 25.0781 49.8437C25.0781 36.0156 36.25 24.8437 50.0781 24.8437C63.9062 24.8437 75.0781 36.0156 75.0781 49.8437C75.0781 63.6719 63.8281 74.8438 50.0781 74.8438Z" fill="#68C5F4"/>
<path d="M25.625 55.7031H74.375C76.4062 55.7031 77.9687 57.3437 77.9687 59.2969C77.9687 61.3281 76.3281 62.8906 74.375 62.8906H25.625C23.5937 62.8906 22.0312 61.25 22.0312 59.2969C21.9531 57.3437 23.5937 55.7031 25.625 55.7031Z" fill="white"/>
<path d="M25.4687 56.4062H74.375C75.9375 56.4062 77.2656 57.6563 77.2656 59.2969V59.375C77.2656 60.9375 76.0156 62.2656 74.375 62.2656H25.4687C23.9062 62.2656 22.5781 61.0156 22.5781 59.375V59.2188C22.6562 57.6563 23.9062 56.4062 25.4687 56.4062Z" fill="#0A93E9"/>
<path d="M24.2969 61.9531H75.625L76.0156 61.7188H23.9062L24.2969 61.9531Z" fill="#1694EA"/>
<path d="M23.125 61.0156H76.7187L76.875 60.7812H22.9688L23.125 61.0156Z" fill="#319DEC"/>
<path d="M22.6562 59.5312H77.2656V59.2188H22.6562V59.5312Z" fill="#65B1EE"/>
<path d="M23.2031 57.5781H76.7969L76.875 57.7344L76.9531 57.8906H23.0469L23.125 57.7344L23.2031 57.5781Z" fill="#8EC6F3"/>
<path d="M24.375 56.6406H75.625L75.8594 56.7187L76.0938 56.875H23.9062L24.1406 56.7187L24.375 56.6406Z" fill="#95CAF3"/>
<path d="M72.9688 56.4062H72.5781C72.5781 56.4062 73.9062 57.3438 73.9062 59.4531C73.9062 61.4063 72.5781 62.2656 72.5781 62.2656H72.9688C72.9688 62.2656 74.2969 61.6406 74.2969 59.4531C74.2969 57.1094 72.9688 56.4062 72.9688 56.4062Z" fill="url(#paint1_linear_175_145)"/>
<path d="M69.2188 56.4062H68.8281C68.8281 56.4062 70 57.5 70 59.4531C70 61.1719 68.8281 62.2656 68.8281 62.2656H69.2188C69.2188 62.2656 70.3906 61.4063 70.3906 59.4531C70.3125 57.3438 69.2188 56.4062 69.2188 56.4062Z" fill="url(#paint2_linear_175_145)"/>
<path d="M49.7656 56.4062H50.1562V62.2656H49.7656V56.4062Z" fill="url(#paint3_linear_175_145)"/>
<path d="M45.9375 56.4062H46.3281C46.3281 56.4062 46.1719 57.8906 46.1719 59.4531C46.1719 60.8594 46.3281 62.2656 46.3281 62.2656H45.9375C45.9375 62.2656 45.7812 60.8594 45.7812 59.4531C45.7812 57.8906 45.9375 56.4062 45.9375 56.4062Z" fill="url(#paint4_linear_175_145)"/>
<path d="M42.1875 56.4062H42.5781C42.5781 56.4062 42.1875 57.8906 42.1875 59.4531C42.1875 60.8594 42.5781 62.2656 42.5781 62.2656H42.1875C42.1875 62.2656 41.7969 60.8594 41.7969 59.4531C41.7969 57.8906 42.1875 56.4062 42.1875 56.4062Z" fill="url(#paint5_linear_175_145)"/>
<path d="M38.3594 56.4062H38.75C38.75 56.4062 38.2031 57.8906 38.2031 59.4531C38.2031 60.8594 38.75 62.2656 38.75 62.2656H38.3594C38.3594 62.2656 37.8125 60.8594 37.8125 59.4531C37.8125 57.8906 38.3594 56.4062 38.3594 56.4062Z" fill="url(#paint6_linear_175_145)"/>
<path d="M34.5312 56.4062H34.9219C34.9219 56.4062 34.1406 57.6563 34.1406 59.4531C34.1406 61.0156 34.9219 62.2656 34.9219 62.2656H34.5312C34.5312 62.2656 33.75 61.0156 33.75 59.4531C33.75 57.6563 34.5312 56.4062 34.5312 56.4062Z" fill="url(#paint7_linear_175_145)"/>
<path d="M30.7031 56.4062H31.0938C31.0938 56.4062 29.9219 57.5 29.9219 59.4531C29.9219 61.1719 31.0938 62.2656 31.0938 62.2656H30.7031C30.7031 62.2656 29.5312 61.4063 29.5312 59.4531C29.6094 57.3438 30.7031 56.4062 30.7031 56.4062Z" fill="url(#paint8_linear_175_145)"/>
<path d="M26.9531 56.4062H27.3438C27.3438 56.4062 26.0156 57.3438 26.0156 59.4531C26.0156 61.4063 27.3438 62.2656 27.3438 62.2656H26.9531C26.9531 62.2656 25.625 61.6406 25.625 59.4531C25.625 57.1094 26.9531 56.4062 26.9531 56.4062Z" fill="url(#paint9_linear_175_145)"/>
<path d="M48.4375 26.6405L72.8125 68.828C73.8281 70.5468 73.2031 72.7343 71.4844 73.7499C69.7656 74.7655 67.5781 74.1405 66.5625 72.4218L42.1875 30.2343C41.1719 28.5155 41.7969 26.328 43.5156 25.3124C45.2344 24.2968 47.4219 24.9218 48.4375 26.6405Z" fill="white"/>
<path d="M47.8125 26.953L72.2656 69.2968C73.0469 70.6249 72.5781 72.4218 71.25 73.203L71.0938 73.2811C69.7656 74.0624 67.9688 73.5936 67.1875 72.2655L42.7344 29.8436C41.9531 28.5155 42.4219 26.7186 43.75 25.9374L43.8281 25.8593C45.2344 25.078 47.0313 25.5468 47.8125 26.953Z" fill="url(#paint10_linear_175_145)"/>
<path d="M42.3438 28.6719L67.9688 73.125L68.125 73.2031L68.2812 73.2813L68.4375 73.3594L42.3438 28.2031V28.6719Z" fill="url(#paint11_linear_175_145)"/>
<path d="M42.5781 27.1875L69.375 73.5937H69.6875L42.7344 26.9531L42.6562 27.1094L42.5781 27.1875Z" fill="url(#paint12_linear_175_145)"/>
<path d="M43.6719 26.0156L71.0156 73.2813L71.25 73.125L43.9062 25.8594L43.6719 26.0156Z" fill="url(#paint13_linear_175_145)"/>
<path d="M45.625 25.5469L72.3437 71.875L72.2656 72.0312L72.1875 72.1875L45.2344 25.4688H45.3906L45.625 25.5469Z" fill="url(#paint14_linear_175_145)"/>
<path d="M47.0313 26.0156L72.6563 70.3906V70.8594L46.5625 25.7812L46.7188 25.8594L46.875 25.9375L47.0313 26.0156Z" fill="url(#paint15_linear_175_145)"/>
<path d="M71.4844 67.8906L71.3281 67.5781C71.3281 67.5781 71.1719 69.1406 69.4531 70.2344C67.8125 71.25 66.3281 70.5469 66.3281 70.5469L66.4844 70.8594C66.4844 70.8594 67.7344 71.7188 69.6094 70.5469C71.4844 69.4531 71.4844 67.8906 71.4844 67.8906ZM69.5312 64.6094L69.375 64.2969C69.375 64.2969 68.9844 65.8594 67.3437 66.7969C65.8594 67.7344 64.375 67.2656 64.375 67.2656L64.5312 67.5781C64.5312 67.5781 65.8594 68.125 67.5781 67.1094C69.2969 66.0937 69.5312 64.6094 69.5312 64.6094Z" fill="#3C98EA"/>
<path d="M67.6562 61.3281L67.5 61.0156C67.5 61.0156 66.7969 62.3438 65.3125 63.2031C63.9844 63.9844 62.5 63.9844 62.5 63.9844L62.6562 64.2969C62.6562 64.2969 64.0625 64.2969 65.4688 63.5156C66.9531 62.6563 67.6562 61.3281 67.6562 61.3281Z" fill="#4CA4ED"/>
<path d="M65.7812 58.0469L65.625 57.7344C65.625 57.7344 64.6094 59.0625 63.2812 59.7656C62.0312 60.4687 60.5469 60.7031 60.5469 60.7031L60.7031 61.0156C60.7031 61.0156 62.1875 60.7812 63.4375 60.0781C64.6875 59.375 65.7812 58.0469 65.7812 58.0469Z" fill="#4DA7EE"/>
<path d="M58.0469 44.7656L58.2031 45.0781C58.2031 45.0781 56.875 45.7031 55.5469 46.4063C54.2969 47.1094 53.2031 48.0469 53.2031 48.0469L53.0469 47.7344C53.0469 47.7344 54.2188 46.7969 55.3906 46.0938C56.7188 45.3906 58.0469 44.7656 58.0469 44.7656Z" fill="url(#paint16_linear_175_145)"/>
<path d="M56.1719 41.4844L56.3281 41.7969C56.3281 41.7969 54.8437 42.2656 53.5937 43.0469C52.3437 43.75 51.3281 44.8438 51.3281 44.8438L51.1719 44.5313C51.1719 44.5313 52.1875 43.4375 53.4375 42.7344C54.6875 41.875 56.1719 41.4844 56.1719 41.4844Z" fill="url(#paint17_linear_175_145)"/>
<path d="M52.6562 38.9062C53.6719 38.5938 54.4531 38.4375 54.4531 38.4375L54.2969 38.125C54.2969 38.125 53.5937 38.2031 52.8125 38.5156C52.3437 38.6719 52.2656 39.0625 52.6562 38.9062Z" fill="#9DD4F7"/>
<path d="M50.4687 31.6406L50.625 31.9531C50.625 31.9531 49.1406 31.5625 47.4219 32.5C45.9375 33.4375 45.625 34.9219 45.625 34.9219L45.4688 34.6094C45.4688 34.6094 45.625 33.2812 47.2656 32.2656C48.9844 31.1719 50.4687 31.6406 50.4687 31.6406Z" fill="url(#paint18_linear_175_145)"/>
<path d="M48.5938 28.2812L48.8281 28.5937C48.8281 28.5937 47.2656 27.9687 45.4688 28.9843C43.75 30.0781 43.75 31.5625 43.75 31.5625L43.5156 31.25C43.5156 31.25 43.3594 29.9218 45.2344 28.75C47.1875 27.5781 48.5938 28.2812 48.5938 28.2812Z" fill="url(#paint19_linear_175_145)"/>
<path d="M43.3594 55.703C50.1562 43.9843 57.9687 30.3905 57.9687 30.3905C58.9844 28.6718 58.3594 26.4843 56.6406 25.4687C54.9219 24.453 52.7344 25.078 51.7187 26.7968C51.7187 26.7968 42.1875 43.3593 35 55.703H43.3594ZM39.1406 62.8905C35.8594 68.5155 33.5937 72.578 33.5937 72.578C32.5781 74.2968 30.3906 74.9218 28.6719 73.9062C26.9531 72.8905 26.3281 70.703 27.3437 68.9843C27.3437 68.9843 28.6719 66.5624 30.7812 62.9687C33.4375 62.8905 38.2812 62.8905 39.1406 62.8905Z" fill="white"/>
<path d="M42.5 55.7031C49.375 43.8281 57.3438 30 57.3438 30C58.125 28.6718 57.6563 26.875 56.3281 26.0937L56.25 26.0156C54.9219 25.2343 53.125 25.7031 52.3438 27.0312C52.3438 27.0312 42.9688 43.2812 35.7813 55.7031H42.5ZM38.3594 62.8906C35.2344 68.3593 32.9688 72.2656 32.9688 72.2656C32.1875 73.5937 30.4688 74.0625 29.0625 73.2812H28.9063C27.5781 72.5 27.1094 70.7812 27.8906 69.375C27.8906 69.375 29.375 66.7968 31.6406 62.8906H38.3594Z" fill="url(#paint20_linear_175_145)"/>
<path d="M42.2656 55.7031L57.8125 28.8281V28.3594C57.8125 28.3594 49.2188 43.2813 42.0312 55.7031H42.2656ZM38.0469 62.8906L32.1094 73.2031L31.875 73.3594L31.6406 73.4375C31.6406 73.4375 34.2969 68.8281 37.7344 62.8906H38.0469Z" fill="url(#paint21_linear_175_145)"/>
<path d="M41.0937 55.7031L57.5 27.3438L57.4219 27.1875L57.3438 27.0312C57.3438 27.0312 48.3594 42.5781 40.8594 55.625L41.0937 55.7031ZM36.9531 62.8906L30.7031 73.6719H30.3906C30.3906 73.6719 33.0469 69.0625 36.6406 62.8125C36.7969 62.8906 36.9531 62.8906 36.9531 62.8906Z" fill="url(#paint22_linear_175_145)"/>
<path d="M39.375 55.7031C47.1094 42.3438 56.4062 26.1719 56.4062 26.1719L56.1719 26.0156L38.9844 55.7031H39.375ZM35.1562 62.9688C31.7188 68.9844 29.1406 73.4375 29.1406 73.4375L28.9062 73.2813C28.9062 73.2813 31.4062 68.9062 34.8437 62.9688C35 62.8906 34.9219 62.8906 35.1562 62.9688Z" fill="url(#paint23_linear_175_145)"/>
<path d="M37.5 55.7031C45.2344 42.3438 54.8437 25.625 54.8437 25.625H54.5313C54.5313 25.625 44.9219 42.2656 37.1875 55.7031H37.5ZM32.9688 62.8906C29.8438 68.2812 27.7344 71.9531 27.7344 71.9531L27.8125 72.1094L27.8906 72.2656C27.8906 72.2656 30.1563 68.3594 33.3594 62.8906H32.9688Z" fill="url(#paint24_linear_175_145)"/>
<path d="M36.3281 55.7031L53.5156 25.9375L53.3594 26.0156L53.2031 26.0938L53.125 26.1719C53.125 26.1719 43.5938 42.6563 36.0938 55.7031H36.3281ZM32.1875 62.8906C29.4531 67.6562 27.5 71.0156 27.5 71.0156V70.3906C27.5 70.3906 29.2187 67.4219 31.875 62.8125C32.0312 62.8906 32.0312 62.8906 32.1875 62.8906Z" fill="url(#paint25_linear_175_145)"/>
<path d="M51.5625 28.2813L51.4062 28.5938C51.4062 28.5938 52.8125 27.8907 54.6875 28.9063C56.4062 29.8438 56.4844 31.4844 56.4844 31.4844L56.6406 31.1719C56.6406 31.1719 56.7969 29.6876 54.8437 28.5938C52.8906 27.5001 51.5625 28.2813 51.5625 28.2813Z" fill="url(#paint26_linear_175_145)"/>
<path d="M49.6875 31.6407L49.5312 31.9532C49.5312 31.9532 51.0937 31.4844 52.7344 32.4219C54.2969 33.2813 54.6094 34.7657 54.6094 34.7657L54.7656 34.4532C54.7656 34.4532 54.6094 33.0469 52.8906 32.1094C51.0937 31.0938 49.6875 31.6407 49.6875 31.6407Z" fill="url(#paint27_linear_175_145)"/>
<path d="M47.7344 34.9219L47.5781 35.2344C47.5781 35.2344 48.9844 35.1562 50.5469 36.0938C51.9531 36.875 52.6562 38.125 52.6562 38.125L52.8125 37.8125C52.8125 37.8125 52.1094 36.5625 50.7031 35.7812C49.2188 34.9219 47.7344 34.9219 47.7344 34.9219Z" fill="url(#paint28_linear_175_145)"/>
<path d="M45.8594 38.2812L45.7031 38.5938C45.7031 38.5938 47.2656 38.8281 48.5938 39.6094C49.8438 40.3125 50.7812 41.4844 50.7812 41.4844L50.9375 41.1719C50.9375 41.1719 50 40 48.75 39.2969C47.4219 38.5156 45.8594 38.2812 45.8594 38.2812Z" fill="url(#paint29_linear_175_145)"/>
<path d="M43.9063 41.5625L43.75 41.875C43.75 41.875 45.2344 42.2656 46.5625 43.0469C47.8125 43.75 48.8281 44.7656 48.8281 44.7656L48.9844 44.4531C48.9844 44.4531 47.9687 43.4375 46.7187 42.7344C45.4687 42.0313 43.9063 41.5625 43.9063 41.5625Z" fill="url(#paint30_linear_175_145)"/>
<path d="M42.0312 44.8438L41.7969 45.1562C41.7969 45.1562 43.2031 45.7031 44.5312 46.4844C45.7812 47.1875 46.875 48.0469 46.875 48.0469L47.0313 47.7344C47.0313 47.7344 45.9375 46.875 44.6875 46.1719C43.4375 45.4687 42.0312 44.8438 42.0312 44.8438Z" fill="url(#paint31_linear_175_145)"/>
<path d="M39.9219 48.5156L40.0781 48.2031L45.1563 51.0938L45 51.4063L39.9219 48.5156Z" fill="url(#paint32_linear_175_145)"/>
<path d="M38.0469 51.875L38.2031 51.5625C38.2031 51.5625 39.4531 52.5 40.7812 53.2031C42.0312 53.9062 43.2813 54.4531 43.2813 54.4531L43.125 54.6875C43.125 54.6875 41.7969 54.1406 40.5469 53.4375C39.2188 52.7344 38.0469 51.875 38.0469 51.875Z" fill="url(#paint33_linear_175_145)"/>
<path d="M36.7969 55.7031C36.4062 55.3906 36.1719 55.1563 36.1719 55.1563L36.3281 54.8438C36.3281 54.8438 36.7969 55.2344 37.4219 55.7031H36.7969Z" fill="#73B9F1"/>
<path d="M33.75 62.8906C34.0625 63.125 34.375 63.3594 34.7656 63.5938C36.1719 64.375 37.5781 64.2969 37.5781 64.2969L37.4219 64.6094C37.4219 64.6094 36.0156 64.6875 34.6094 63.9063C34.0625 63.5938 33.5938 63.2031 33.2812 62.8906H33.75Z" fill="url(#paint34_linear_175_145)"/>
<path d="M30.3906 65.0781L30.5469 64.7656C30.5469 64.7656 30.9375 66.3281 32.6562 67.2656C34.2187 68.125 35.625 67.6562 35.625 67.6562L35.4688 67.9687C35.4688 67.9687 34.2187 68.5156 32.5 67.5781C30.7031 66.5625 30.3906 65.0781 30.3906 65.0781Z" fill="url(#paint35_linear_175_145)"/>
<path d="M28.4375 68.4375L28.5937 68.125C28.5937 68.125 28.75 69.7656 30.625 70.7813C32.3437 71.7188 33.6719 71.0156 33.6719 71.0156L33.4375 71.3281C33.4375 71.3281 32.2656 72.1875 30.3906 71.0938C28.4375 70 28.4375 68.4375 28.4375 68.4375Z" fill="url(#paint36_linear_175_145)"/>
<path d="M53.75 89.2188L87.1875 18.9844L78.75 15L43.9062 88.0469C43.9062 88.0469 45 88.5938 46.4063 89.2188H53.75Z" fill="url(#paint37_linear_175_145)"/>
<path d="M73.5156 10.7812L89.1406 18.2031V40.625C83.75 38.0469 47.6562 20.8594 47.6562 20.8594C47.6562 20.8594 50.1562 15.625 52.5 10.7812H73.5156Z" fill="url(#paint38_radial_175_145)"/>
<path d="M34.7656 86.0937C34.5312 86.5624 34.1406 87.1093 34.2187 87.9687C34.2969 91.1718 39.5312 94.1406 42.5781 94.1406C44.6875 94.1406 45.3906 93.2812 46.1719 91.7187C46.9531 90.1562 35.625 84.2187 34.7656 86.0937Z" fill="url(#paint39_radial_175_145)"/>
<path d="M70.7812 19.6094C70.7812 19.6094 78.8281 21.5625 79.4531 22.1094C80.0781 22.6562 78.4375 25.7812 78.125 26.25C75.5469 29.375 67.5 46.6406 67.5 46.6406L60.0781 42.4219C60.0781 42.4219 66.7188 30.0781 69.0625 25.7031C70.5469 22.7344 70.7812 19.6094 70.7812 19.6094Z" fill="url(#paint40_linear_175_145)"/>
<path d="M89.375 15.547C90.7813 16.5626 92.6562 16.3282 94.1406 16.0939C95.1562 15.9376 93.5937 17.422 91.875 20.8595C90.1562 24.297 90.2344 24.5314 90 24.297C89.7656 24.0626 82.0313 19.6876 82.2656 19.297C82.5781 18.9064 83.8281 10.3907 84.4531 10.6251C86.7187 11.172 87.1094 13.9064 89.375 15.547Z" fill="url(#paint41_linear_175_145)"/>
<path d="M77.3437 25.1563C77.8906 24.2969 80.3906 18.9844 84.375 18.9844C86.1719 18.9844 89.6094 23.5156 89.9219 24.1406C90.1562 24.6875 89.375 26.875 88.9844 25.8594C88.5156 24.6875 86.5625 22.1875 84.4531 22.1875C82.3437 22.1875 79.4531 24.6094 78.75 25.4687C78.0469 26.25 76.7969 26.0156 77.3437 25.1563Z" fill="url(#paint42_linear_175_145)"/>
<path d="M77.1875 24.8438C77.5781 24.2188 79.375 21.4844 80.2344 20.625C81.0938 19.7657 83.2813 17.5 85.1563 17.1875C87.0313 16.875 88.9844 20.7032 88.3594 21.4844C87.8906 22.0313 87.1094 21.4063 86.1719 20.625C85.2344 19.9219 84.6094 18.5157 81.6406 20.7813C80.625 21.5625 79.6094 22.1875 77.2656 25.5469C76.6406 26.4063 76.7969 25.4688 77.1875 24.8438Z" fill="url(#paint43_linear_175_145)"/>
<path d="M67.5 47.6563C67.8125 47.0313 68.2031 46.0938 67.3438 45.3907C66.4062 44.6876 62.0313 42.3438 61.25 42.1876C60.4688 42.0313 59.8438 42.1876 59.5312 42.7344C59.2188 43.2813 35.2344 84.3751 34.7656 85.5469C34.2969 86.7188 34.2188 87.5782 34.9219 87.8126C35.625 88.0469 43.6719 91.8751 44.4531 92.7344C45.2344 93.5938 45.625 92.6563 45.9375 92.1876C47.4219 90.3126 67.1094 48.2813 67.5 47.6563Z" fill="url(#paint44_linear_175_145)"/>
<path d="M77.7344 24.6875C78.125 24.1406 79.0625 22.5781 80.2344 21.1719C81.0156 20.2344 85.2344 18.2031 86.1719 14.9219C86.7188 13.125 85.8594 11.3281 84.6875 10.5469C80.7031 8.125 73.8281 4.29688 63.75 4.29688C56.9531 4.29688 54.0625 6.5625 54.0625 6.5625H57.5L69.4531 11.25L70.9375 17.5C70.9375 17.5 71.0938 19.6094 70.3906 22.0312C69.9219 23.9844 69.7656 25.1562 69.0625 27.1094C69.6094 27.3438 70.8594 26.4844 72.2656 26.875C73.5156 27.1875 74.2969 28.9062 75.1562 27.8906C76.6406 25.9375 77.1094 25.5469 77.7344 24.6875Z" fill="url(#paint45_linear_175_145)"/>
<path d="M70.7031 19.8437C70.0781 14.0624 68.6719 8.5937 53.9844 8.67182C54.9219 7.73432 57.1875 6.79682 57.1875 6.79682L53.9844 6.56245C53.9844 6.56245 54.4531 6.17182 55.3906 6.0937C63.9844 5.39057 71.6406 7.18745 71.0938 18.3593C71.0156 20.1562 70.8594 20.9374 70.7031 19.8437Z" fill="url(#paint46_linear_175_145)"/>
<path d="M53.9844 8.67197C55 8.28134 56.4062 8.04697 59.0625 8.20322C62.3438 8.35947 66.4844 9.60947 68.2031 11.172C69.0625 11.9532 68.9844 11.3282 68.0469 10.3126C65.625 7.50009 61.9531 6.87509 57.1875 6.79696C56.6406 6.71884 54.8438 7.73447 53.9844 8.67197Z" fill="url(#paint47_linear_175_145)"/>
<path d="M94.2969 16.0938L98.5937 18.2812C98.5937 18.2812 96.9531 20.4687 95.625 22.9687C94.2188 25.625 93.2813 28.5156 93.2813 28.5156L89.1406 26.0156C89.1406 26.0156 90.1563 23.2031 91.6406 20.4688C92.8125 18.2031 94.2969 16.0938 94.2969 16.0938Z" fill="url(#paint48_linear_175_145)"/>
<path d="M98.5937 18.2813C98.9062 18.4376 97.8906 20.8594 96.4062 23.6719C94.9219 26.4844 93.5156 28.6719 93.2812 28.5157C92.9687 28.3594 93.9844 25.9376 95.4687 23.1251C96.875 20.3126 98.2812 18.1251 98.5937 18.2813Z" fill="#BFC0D0"/>
</g>
<defs>
<linearGradient id="paint0_linear_175_145" x1="49.9586" y1="89.1914" x2="49.9586" y2="10.7688" gradientUnits="userSpaceOnUse">
<stop stop-color="#1578E4"/>
<stop offset="1" stop-color="#00C3F2"/>
</linearGradient>
<linearGradient id="paint1_linear_175_145" x1="73.4664" y1="62.2391" x2="73.4664" y2="56.3937" gradientUnits="userSpaceOnUse">
<stop stop-color="#1492E7"/>
<stop offset="1" stop-color="#DBEDFB"/>
</linearGradient>
<linearGradient id="paint2_linear_175_145" x1="69.5641" y1="62.2391" x2="69.5641" y2="56.3937" gradientUnits="userSpaceOnUse">
<stop stop-color="#1492E7"/>
<stop offset="1" stop-color="#DBEDFB"/>
</linearGradient>
<linearGradient id="paint3_linear_175_145" x1="49.9586" y1="62.2391" x2="49.9586" y2="56.3937" gradientUnits="userSpaceOnUse">
<stop stop-color="#1492E7"/>
<stop offset="1" stop-color="#DBEDFB"/>
</linearGradient>
<linearGradient id="paint4_linear_175_145" x1="46.0563" y1="62.2391" x2="46.0563" y2="56.3937" gradientUnits="userSpaceOnUse">
<stop stop-color="#1492E7"/>
<stop offset="1" stop-color="#DBEDFB"/>
</linearGradient>
<linearGradient id="paint5_linear_175_145" x1="42.1547" y1="62.2391" x2="42.1547" y2="56.3937" gradientUnits="userSpaceOnUse">
<stop stop-color="#1492E7"/>
<stop offset="1" stop-color="#DBEDFB"/>
</linearGradient>
<linearGradient id="paint6_linear_175_145" x1="38.2523" y1="62.2391" x2="38.2523" y2="56.3937" gradientUnits="userSpaceOnUse">
<stop stop-color="#1492E7"/>
<stop offset="1" stop-color="#DBEDFB"/>
</linearGradient>
<linearGradient id="paint7_linear_175_145" x1="34.35" y1="62.2391" x2="34.35" y2="56.3937" gradientUnits="userSpaceOnUse">
<stop stop-color="#1492E7"/>
<stop offset="1" stop-color="#DBEDFB"/>
</linearGradient>
<linearGradient id="paint8_linear_175_145" x1="30.3531" y1="62.2391" x2="30.3531" y2="56.3937" gradientUnits="userSpaceOnUse">
<stop stop-color="#1492E7"/>
<stop offset="1" stop-color="#DBEDFB"/>
</linearGradient>
<linearGradient id="paint9_linear_175_145" x1="26.4508" y1="62.2391" x2="26.4508" y2="56.3937" gradientUnits="userSpaceOnUse">
<stop stop-color="#1492E7"/>
<stop offset="1" stop-color="#DBEDFB"/>
</linearGradient>
<linearGradient id="paint10_linear_175_145" x1="57.4844" y1="73.6327" x2="57.4844" y2="25.5015" gradientUnits="userSpaceOnUse">
<stop stop-color="#1285E7"/>
<stop offset="1" stop-color="#00B5EF"/>
</linearGradient>
<linearGradient id="paint11_linear_175_145" x1="68.3312" y1="73.4203" x2="42.2508" y2="28.2469" gradientUnits="userSpaceOnUse">
<stop stop-color="#2B90E7"/>
<stop offset="1" stop-color="#00B6EF"/>
</linearGradient>
<linearGradient id="paint12_linear_175_145" x1="69.5883" y1="73.693" x2="42.643" y2="27.0227" gradientUnits="userSpaceOnUse">
<stop stop-color="#3795EA"/>
<stop offset="1" stop-color="#49C4F2"/>
</linearGradient>
<linearGradient id="paint13_linear_175_145" x1="71.1141" y1="73.2305" x2="43.8062" y2="25.932" gradientUnits="userSpaceOnUse">
<stop stop-color="#3696EA"/>
<stop offset="1" stop-color="#90D9F6"/>
</linearGradient>
<linearGradient id="paint14_linear_175_145" x1="72.3297" y1="72.1344" x2="45.3633" y2="25.4274" gradientUnits="userSpaceOnUse">
<stop stop-color="#3097EA"/>
<stop offset="1" stop-color="#B5E5F9"/>
</linearGradient>
<linearGradient id="paint15_linear_175_145" x1="72.7211" y1="70.8484" x2="46.6727" y2="25.7312" gradientUnits="userSpaceOnUse">
<stop stop-color="#3A98EA"/>
<stop offset="1" stop-color="#BCE7FA"/>
</linearGradient>
<linearGradient id="paint16_linear_175_145" x1="53.1102" y1="47.8328" x2="58.1695" y2="44.9117" gradientUnits="userSpaceOnUse">
<stop stop-color="#00A4EC"/>
<stop offset="1" stop-color="#B9DFF6"/>
</linearGradient>
<linearGradient id="paint17_linear_175_145" x1="51.1617" y1="44.4578" x2="56.2203" y2="41.5367" gradientUnits="userSpaceOnUse">
<stop stop-color="#00A4EC"/>
<stop offset="1" stop-color="#B9DFF6"/>
</linearGradient>
<linearGradient id="paint18_linear_175_145" x1="45.2578" y1="34.2336" x2="50.2844" y2="31.332" gradientUnits="userSpaceOnUse">
<stop stop-color="#00B4EF"/>
<stop offset="1" stop-color="#C3E9FA"/>
</linearGradient>
<linearGradient id="paint19_linear_175_145" x1="43.3" y1="30.8414" x2="48.3594" y2="27.9203" gradientUnits="userSpaceOnUse">
<stop stop-color="#00B4EF"/>
<stop offset="1" stop-color="#C3E9FA"/>
</linearGradient>
<linearGradient id="paint20_linear_175_145" x1="42.6297" y1="73.7507" x2="42.6297" y2="25.6203" gradientUnits="userSpaceOnUse">
<stop stop-color="#1285E7"/>
<stop offset="1" stop-color="#00B5EF"/>
</linearGradient>
<linearGradient id="paint21_linear_175_145" x1="31.782" y1="73.5398" x2="57.8625" y2="28.368" gradientUnits="userSpaceOnUse">
<stop stop-color="#3194E9"/>
<stop offset="1" stop-color="#71CFF4"/>
</linearGradient>
<linearGradient id="paint22_linear_175_145" x1="30.518" y1="73.8141" x2="57.4664" y2="27.1375" gradientUnits="userSpaceOnUse">
<stop stop-color="#5AA6EC"/>
<stop offset="1" stop-color="#A2DEF8"/>
</linearGradient>
<linearGradient id="paint23_linear_175_145" x1="28.9984" y1="73.3477" x2="56.3062" y2="26.0492" gradientUnits="userSpaceOnUse">
<stop stop-color="#66ABEE"/>
<stop offset="1" stop-color="#BEE8FA"/>
</linearGradient>
<linearGradient id="paint24_linear_175_145" x1="27.7875" y1="72.2516" x2="54.7539" y2="25.5445" gradientUnits="userSpaceOnUse">
<stop stop-color="#7BB6F0"/>
<stop offset="1" stop-color="#B1E3F9"/>
</linearGradient>
<linearGradient id="paint25_linear_175_145" x1="27.3875" y1="70.9938" x2="53.4492" y2="25.8531" gradientUnits="userSpaceOnUse">
<stop stop-color="#5AA6EC"/>
<stop offset="1" stop-color="#AFE3F9"/>
</linearGradient>
<linearGradient id="paint26_linear_175_145" x1="51.8453" y1="27.8821" x2="56.9047" y2="30.8032" gradientUnits="userSpaceOnUse">
<stop stop-color="#C1E7FA"/>
<stop offset="1" stop-color="#89D4F5"/>
</linearGradient>
<linearGradient id="paint27_linear_175_145" x1="49.8875" y1="31.2735" x2="54.9469" y2="34.1938" gradientUnits="userSpaceOnUse">
<stop stop-color="#C1E7FA"/>
<stop offset="1" stop-color="#89D4F5"/>
</linearGradient>
<linearGradient id="paint28_linear_175_145" x1="47.8695" y1="34.7695" x2="52.9281" y2="37.6898" gradientUnits="userSpaceOnUse">
<stop stop-color="#C1E7FA"/>
<stop offset="1" stop-color="#89D4F5"/>
</linearGradient>
<linearGradient id="paint29_linear_175_145" x1="45.907" y1="38.168" x2="50.9656" y2="41.0891" gradientUnits="userSpaceOnUse">
<stop stop-color="#B0DFF8"/>
<stop offset="1" stop-color="#52BDF2"/>
</linearGradient>
<linearGradient id="paint30_linear_175_145" x1="43.9453" y1="41.5656" x2="49.0055" y2="44.4867" gradientUnits="userSpaceOnUse">
<stop stop-color="#B4DEF8"/>
<stop offset="1" stop-color="#4EB5F0"/>
</linearGradient>
<linearGradient id="paint31_linear_175_145" x1="41.9844" y1="44.9633" x2="47.043" y2="47.8836" gradientUnits="userSpaceOnUse">
<stop stop-color="#B4DEF8"/>
<stop offset="1" stop-color="#4EB5F0"/>
</linearGradient>
<linearGradient id="paint32_linear_175_145" x1="40.0305" y1="48.3484" x2="45.0883" y2="51.2687" gradientUnits="userSpaceOnUse">
<stop stop-color="#B5DDF8"/>
<stop offset="1" stop-color="#46AEEE"/>
</linearGradient>
<linearGradient id="paint33_linear_175_145" x1="38.0742" y1="51.7344" x2="43.1336" y2="54.6555" gradientUnits="userSpaceOnUse">
<stop stop-color="#96CEF4"/>
<stop offset="1" stop-color="#46AAEE"/>
</linearGradient>
<linearGradient id="paint34_linear_175_145" x1="33.3742" y1="62.6055" x2="37.2508" y2="64.8438" gradientUnits="userSpaceOnUse">
<stop stop-color="#8FC1F2"/>
<stop offset="1" stop-color="#3193EA"/>
</linearGradient>
<linearGradient id="paint35_linear_175_145" x1="30.1828" y1="65.4039" x2="35.2422" y2="68.325" gradientUnits="userSpaceOnUse">
<stop stop-color="#8FC1F2"/>
<stop offset="1" stop-color="#3193EA"/>
</linearGradient>
<linearGradient id="paint36_linear_175_145" x1="28.2219" y1="68.7992" x2="33.2805" y2="71.7203" gradientUnits="userSpaceOnUse">
<stop stop-color="#8FC1F2"/>
<stop offset="1" stop-color="#3193EA"/>
</linearGradient>
<linearGradient id="paint37_linear_175_145" x1="59.9391" y1="50.7289" x2="69.6711" y2="55.475" gradientUnits="userSpaceOnUse">
<stop offset="0.001"/>
<stop offset="1" stop-opacity="0"/>
</linearGradient>
<radialGradient id="paint38_radial_175_145" cx="0" cy="0" r="1" gradientUnits="userSpaceOnUse" gradientTransform="translate(74.4062 19.6329) rotate(116.706) scale(12.6411 21.8737)">
<stop/>
<stop offset="1" stop-opacity="0"/>
</radialGradient>
<radialGradient id="paint39_radial_175_145" cx="0" cy="0" r="1" gradientUnits="userSpaceOnUse" gradientTransform="translate(40.0056 89.8105) rotate(26.1166) scale(6.17266 3.51367)">
<stop offset="0.417" stop-color="#0C0C12"/>
<stop offset="1" stop-color="#3D4651"/>
</radialGradient>
<linearGradient id="paint40_linear_175_145" x1="66.2172" y1="30.6047" x2="73.8453" y2="34.4914" gradientUnits="userSpaceOnUse">
<stop stop-color="#344351"/>
<stop offset="0.1" stop-color="#9697A0"/>
<stop offset="0.181" stop-color="#8B8C95"/>
<stop offset="0.351" stop-color="#787A83"/>
<stop offset="0.47" stop-color="#71747D"/>
<stop offset="0.591" stop-color="#777982"/>
<stop offset="0.749" stop-color="#87898F"/>
<stop offset="0.8" stop-color="#8E8F94"/>
<stop offset="0.849" stop-color="#3D3B42"/>
<stop offset="0.9" stop-color="#606E84"/>
</linearGradient>
<linearGradient id="paint41_linear_175_145" x1="92.0969" y1="22.8571" x2="83.4867" y2="11.222" gradientUnits="userSpaceOnUse">
<stop offset="0.27" stop-color="#262B33"/>
<stop offset="0.45" stop-color="#74747E"/>
<stop offset="0.54" stop-color="#B0B0BC"/>
<stop offset="0.73" stop-color="#74747E"/>
</linearGradient>
<linearGradient id="paint42_linear_175_145" x1="76.9859" y1="23.7687" x2="89.6992" y2="22.1266" gradientUnits="userSpaceOnUse">
<stop offset="0.14" stop-color="#606E84"/>
<stop offset="0.4" stop-color="#9899A5"/>
<stop offset="0.73" stop-color="#475768"/>
<stop offset="0.92" stop-color="#262B33"/>
</linearGradient>
<linearGradient id="paint43_linear_175_145" x1="82.9125" y1="24.85" x2="81.6789" y2="17.8547" gradientUnits="userSpaceOnUse">
<stop stop-color="#101215" stop-opacity="0.1"/>
<stop offset="0.46" stop-color="#101215" stop-opacity="0.7"/>
<stop offset="0.7" stop-color="#474951"/>
<stop offset="0.91" stop-color="#7B7D88"/>
</linearGradient>
<linearGradient id="paint44_linear_175_145" x1="45.4148" y1="63.8446" x2="57.2164" y2="69.6516" gradientUnits="userSpaceOnUse">
<stop offset="0.115" stop-color="#2C3952"/>
<stop offset="0.374" stop-color="#3D414E"/>
<stop offset="0.55" stop-color="#474A54"/>
<stop offset="0.754" stop-color="#4E5057"/>
<stop offset="0.892" stop-color="#323945"/>
<stop offset="1" stop-color="#143052"/>
</linearGradient>
<linearGradient id="paint45_linear_175_145" x1="63.6781" y1="24.7492" x2="72.8047" y2="4.72422" gradientUnits="userSpaceOnUse">
<stop offset="0.118" stop-color="#6D7078" stop-opacity="0"/>
<stop offset="0.2" stop-color="#6D7078" stop-opacity="0.7"/>
<stop offset="0.34" stop-color="#35363A"/>
<stop offset="0.374" stop-color="#1D1F22"/>
<stop offset="0.4" stop-color="#101215"/>
<stop offset="0.5" stop-color="#16171A"/>
<stop offset="0.56" stop-color="#292A2E"/>
<stop offset="0.688" stop-color="#4B4D51"/>
<stop offset="0.807" stop-color="#63666B"/>
<stop offset="0.915" stop-color="#72757B"/>
<stop offset="1" stop-color="#777A80"/>
</linearGradient>
<linearGradient id="paint46_linear_175_145" x1="53.9562" y1="13.1539" x2="71.1141" y2="13.1539" gradientUnits="userSpaceOnUse">
<stop stop-color="#4A4D56"/>
<stop offset="1" stop-color="#29292D"/>
</linearGradient>
<linearGradient id="paint47_linear_175_145" x1="53.9562" y1="9.13837" x2="68.7922" y2="9.13837" gradientUnits="userSpaceOnUse">
<stop stop-color="#767880"/>
<stop offset="0.41" stop-color="#0C0A0B"/>
</linearGradient>
<linearGradient id="paint48_linear_175_145" x1="90.8844" y1="27.1531" x2="96.6461" y2="17.1734" gradientUnits="userSpaceOnUse">
<stop stop-color="#858997"/>
<stop offset="0.23" stop-color="#244668"/>
<stop offset="0.282" stop-color="#1A3249"/>
<stop offset="0.4" stop-color="#040506"/>
<stop offset="0.464" stop-color="#313236"/>
<stop offset="0.546" stop-color="#65656E"/>
<stop offset="0.607" stop-color="#868691"/>
<stop offset="0.64" stop-color="#92929E"/>
</linearGradient>
<clipPath id="clip0_175_145">
<rect width="100" height="100" rx="24" fill="white"/>
</clipPath>
</defs>
</svg>
