<svg width="100" height="100" viewBox="0 0 100 100" fill="none" xmlns="http://www.w3.org/2000/svg">
<rect width="100" height="100" rx="24" fill="url(#paint0_linear_255_138)"/>
<path d="M36.0578 39.5576C37.132 39.5576 41.0139 39.6553 43.5529 43.3174C43.3332 43.4883 39.4758 45.6611 39.4758 50.5195C39.4758 56.1348 44.383 58.1367 44.5295 58.1855C44.5051 58.3076 43.7483 60.8955 41.9416 63.5566C40.3303 65.876 38.6213 68.2197 36.0578 68.2197C33.4699 68.2197 32.8108 66.7061 29.8567 66.7061C26.9514 66.7061 25.926 68.2686 23.5822 68.2686C21.2141 68.2686 19.5783 66.0957 17.6985 63.459C15.5012 60.334 13.7434 55.5 13.7434 50.9102C13.7434 43.5615 18.5285 39.6553 23.2404 39.6553C25.7307 39.6553 27.8059 41.291 29.3928 41.291C30.882 41.291 33.2014 39.5576 36.0578 39.5576ZM34.7151 36.457C33.4455 37.9951 31.2971 39.1426 29.5881 39.1426C29.3928 39.1426 29.1975 39.1182 29.0754 39.0938C29.051 38.9961 29.0022 38.7031 29.0022 38.4102C29.0022 36.457 30.0031 34.5039 31.0774 33.2832C32.4445 31.6719 34.7395 30.4756 36.6438 30.4023C36.6926 30.6221 36.717 30.8906 36.717 31.1592C36.717 33.1123 35.8869 35.041 34.7151 36.457ZM56.458 36.4814H60.7061V42.6094H65.6377V46.1006H60.7061V61.1885C60.7061 63.5078 61.6826 64.5576 63.8555 64.5576C64.3438 64.5576 65.3203 64.4844 65.6133 64.4355V68C65.1006 68.1221 63.9287 68.1953 62.9277 68.1953C58.2646 68.1953 56.458 66.291 56.458 61.4082V46.1006H52.6738V42.6094H56.458V36.4814ZM90.9939 42.6094L81.6678 68H77.3221L67.9715 42.6094H72.4392L79.4461 63.4834H79.5437L86.575 42.6094H90.9939Z" fill="white"/>
<defs>
<linearGradient id="paint0_linear_255_138" x1="50" y1="0" x2="50" y2="100" gradientUnits="userSpaceOnUse">
<stop stop-color="#3D3D3D"/>
<stop offset="1" stop-color="#030303"/>
</linearGradient>
</defs>
</svg>
