<svg width="100" height="100" viewBox="0 0 100 100" fill="none" xmlns="http://www.w3.org/2000/svg">
<rect width="100" height="100" rx="24" fill="url(#paint0_linear_257_56)"/>
<path d="M12.0001 58.3263H14.9409V50.6611C14.9409 49.1493 15.933 48.0509 17.3503 48.0509C18.7203 48.0509 19.5707 48.9131 19.5707 50.3067V58.326H22.4289V50.59C22.4289 49.0901 23.3974 48.0507 24.8147 48.0507C26.2555 48.0507 27.0587 48.9247 27.0587 50.4601V58.3262H29.9995V49.7399C29.9995 47.2361 28.3815 45.5708 25.9129 45.5708C24.1059 45.5708 22.6179 46.5393 22.0153 48.0865H21.9445C21.4838 46.4802 20.2201 45.5708 18.4486 45.5708C16.7479 45.5708 15.4251 46.5275 14.8818 47.9802H14.8227V45.807H12L12.0001 58.3263ZM36.4368 56.3067C35.1613 56.3067 34.3109 55.6571 34.3109 54.6296C34.3109 53.6375 35.1259 52.9997 36.5431 52.9052L39.4367 52.728V53.6847C39.4367 55.1965 38.1021 56.3067 36.4368 56.3067ZM35.551 58.5271C37.1573 58.5271 38.7281 57.6886 39.4487 56.3303H39.5077V58.3263H42.3423V49.7044C42.3423 47.1888 40.3226 45.5471 37.2165 45.5471C34.0276 45.5471 32.0317 47.2242 31.9017 49.5626H34.63C34.8189 48.5233 35.7047 47.8501 37.0984 47.8501C38.5511 47.8501 39.4369 48.606 39.4369 49.9169V50.8146L36.1298 51.0035C33.0827 51.1925 31.3701 52.5271 31.3701 54.7476C31.3701 57.0034 33.1299 58.5271 35.551 58.5271ZM55.2517 50.2713C55.051 47.6376 53.0077 45.5471 49.7008 45.5471C46.0632 45.5471 43.7009 48.0628 43.7009 52.0664C43.7009 56.1294 46.0631 58.574 49.7244 58.574C52.8662 58.574 55.0274 56.7315 55.2635 53.9322H52.488C52.2164 55.3495 51.2479 56.1999 49.7598 56.1999C47.8937 56.1999 46.6891 54.6881 46.6891 52.0661C46.6891 49.4914 47.8819 47.9323 49.7362 47.9323C51.307 47.9323 52.24 48.9363 52.4763 50.2709H55.2518L55.2517 50.2713ZM64.3347 41C59.3625 41 56.2444 44.3897 56.2444 49.8109C56.2444 55.2321 59.3622 58.6099 64.3347 58.6099C69.2951 58.6099 72.4133 55.2321 72.4133 49.8109C72.4133 44.3897 69.2954 41 64.3347 41ZM64.3347 43.5984C67.37 43.5984 69.3069 46.0078 69.3069 49.8108C69.3069 53.602 67.37 56.0115 64.3347 56.0115C61.2876 56.0115 59.3625 53.6021 59.3625 49.8108C59.3625 46.0078 61.2877 43.5984 64.3347 43.5984ZM73.6538 53.5313C73.7838 56.673 76.3585 58.6099 80.2796 58.6099C84.4016 58.6099 87 56.5784 87 53.3423C87 50.803 85.5355 49.3739 82.075 48.5826L80.1144 48.1338C78.0239 47.6378 77.1617 46.9764 77.1617 45.8426C77.1617 44.4253 78.4609 43.4804 80.386 43.4804C82.3348 43.4804 83.6693 44.4371 83.8111 46.0315H86.7165C86.6457 43.0316 84.1654 41.0001 80.4097 41.0001C76.7011 41.0001 74.0673 43.0433 74.0673 46.0669C74.0673 48.4999 75.5554 50.0117 78.6969 50.7322L80.9055 51.2519C83.0551 51.7598 83.929 52.4684 83.929 53.6967C83.929 55.114 82.4999 56.1297 80.445 56.1297C78.3663 56.1297 76.7956 55.1022 76.6067 53.5313L73.6538 53.5313Z" fill="white"/>
<defs>
<linearGradient id="paint0_linear_257_56" x1="50" y1="0" x2="50" y2="100" gradientUnits="userSpaceOnUse">
<stop stop-color="#3D3D3D"/>
<stop offset="1" stop-color="#030303"/>
</linearGradient>
</defs>
</svg>
