<svg width="100" height="100" viewBox="0 0 100 100" fill="none" xmlns="http://www.w3.org/2000/svg">
<rect width="100" height="100" rx="24" fill="url(#paint0_linear_257_54)"/>
<path d="M12.3487 67.6147H18.5508V41.2124H12.3487V67.6147ZM15.4373 37.75C17.3801 37.75 18.8995 36.2555 18.8995 34.3875C18.8995 32.4944 17.3801 31 15.4373 31C13.5194 31 12 32.4945 12 34.3875C12 36.2556 13.5194 37.75 15.4373 37.75ZM39.2003 31.0745C28.7143 31.0745 22.1383 38.2232 22.1383 49.6561C22.1383 61.0891 28.7137 68.2128 39.2003 68.2128C49.6615 68.2128 56.2375 61.0891 56.2375 49.6561C56.2375 38.2232 49.6622 31.0745 39.2003 31.0745ZM39.2003 36.5543C45.6016 36.5543 49.6864 41.6356 49.6864 49.656C49.6864 57.6514 45.6015 62.7328 39.2003 62.7328C32.7742 62.7328 28.7143 57.6515 28.7143 49.656C28.7143 41.6357 32.7743 36.5543 39.2003 36.5543ZM58.8538 57.5022C59.1278 64.1279 64.5577 68.2127 72.8271 68.2127C81.5201 68.2127 87 63.9285 87 57.1037C87 51.7485 83.9114 48.7346 76.6134 47.0659L72.4787 46.1194C68.07 45.0732 66.2517 43.6784 66.2517 41.2872C66.2517 38.2983 68.9916 36.3056 73.0515 36.3056C77.1614 36.3056 79.9757 38.3232 80.2748 41.6858H86.4021C86.2527 35.3591 81.022 31.0747 73.1015 31.0747C65.2802 31.0747 59.7257 35.3838 59.7257 41.7604C59.7257 46.8914 62.8641 50.0797 69.4893 51.5992L74.1471 52.6952C78.6803 53.7662 80.5235 55.2607 80.5235 57.8511C80.5235 60.8401 77.5096 62.9822 73.176 62.9822C68.7922 62.9822 65.4796 60.8152 65.0811 57.5024L58.8538 57.5022Z" fill="white"/>
<defs>
<linearGradient id="paint0_linear_257_54" x1="50" y1="0" x2="50" y2="100" gradientUnits="userSpaceOnUse">
<stop stop-color="#3D3D3D"/>
<stop offset="1" stop-color="#030303"/>
</linearGradient>
</defs>
</svg>
