<svg width="100" height="100" viewBox="0 0 100 100" fill="none" xmlns="http://www.w3.org/2000/svg">
<rect width="100" height="100" rx="24" fill="url(#paint0_linear_257_59)"/>
<g clip-path="url(#clip0_257_59)">
<path d="M7 46.6011H9.87029L12.5342 55.5753H12.5989L15.2505 46.6011H18.0654L14.0279 58.0792H11.0621L7 46.6011Z" fill="white"/>
<path d="M19.014 43.4844C19.014 42.6621 19.673 42 20.52 42C21.3669 42 22.0136 42.6591 22.0136 43.4844C22.0136 44.3098 21.3638 44.9565 20.52 44.9565C19.6761 44.9565 19.014 44.2851 19.014 43.4844ZM19.1649 46.6011H21.8596V58.0792H19.1649V46.6011Z" fill="white"/>
<path d="M23.4364 54.7439L23.4241 54.6454H26.0757L26.0973 54.7439C26.3036 55.7294 27.0489 56.3146 28.4132 56.3146C29.7775 56.3146 30.5136 55.7848 30.5136 54.941V54.9287C30.5136 54.2358 30.1132 53.8446 28.9214 53.5767L27.015 53.1548C24.8161 52.6682 23.7136 51.5964 23.7136 49.8964V49.8841C23.7136 47.7838 25.5429 46.364 28.3147 46.364C31.0864 46.364 32.8418 47.9347 32.9373 49.9149L32.9496 50.035H30.4366L30.4243 49.9488C30.3041 49.028 29.5681 48.3566 28.3116 48.3566C27.1197 48.3566 26.3744 48.9079 26.3744 49.7548V49.7671C26.3744 50.4262 26.8179 50.8604 28.0098 51.1314L29.9253 51.5533C32.2967 52.083 33.2175 53.0162 33.2175 54.6823V54.6946C33.2175 56.8597 31.2157 58.3102 28.4009 58.3102C25.392 58.3102 23.6704 56.8812 23.4302 54.747L23.4364 54.7439Z" fill="white"/>
<path d="M34.6373 43.4844C34.6373 42.6621 35.2964 42 36.1433 42C36.9902 42 37.637 42.6591 37.637 43.4844C37.637 44.3098 36.9871 44.9565 36.1433 44.9565C35.2995 44.9565 34.6373 44.2851 34.6373 43.4844ZM34.7882 46.6011H37.483V58.0792H34.7882V46.6011Z" fill="white"/>
<path d="M39.0721 52.3386V52.317C39.0721 48.6367 41.2803 46.3608 44.6156 46.3608C47.9509 46.3608 50.1806 48.6121 50.1806 52.317V52.3386C50.1806 56.0619 47.994 58.304 44.6248 58.304C41.2556 58.304 39.069 56.0527 39.069 52.3386H39.0721ZM47.4304 52.3386V52.317C47.4304 49.9241 46.3248 48.5505 44.6156 48.5505C42.9064 48.5505 41.8223 49.9364 41.8223 52.317V52.3386C41.8223 54.7531 42.9156 56.1266 44.6371 56.1266C46.3587 56.1266 47.4304 54.7407 47.4304 52.3386Z" fill="white"/>
<path d="M51.6897 46.6012H54.3844V48.3997H54.4399C55.0343 47.1647 56.2045 46.364 57.9477 46.364C60.4699 46.364 61.9113 47.987 61.9113 50.651V58.0792H59.2165V51.193C59.2165 49.5577 58.4589 48.6368 56.9221 48.6368C55.3854 48.6368 54.3875 49.764 54.3875 51.4209V58.0792H51.6928V46.6012H51.6897Z" fill="white"/>
<path d="M63.5835 50.2721V50.2506C63.5835 45.2922 66.4538 42.1848 70.9994 42.1848C75.5451 42.1848 78.4061 45.2922 78.4061 50.2506V50.2721C78.4061 55.2428 75.5697 58.3502 70.9994 58.3502C66.4291 58.3502 63.5835 55.2428 63.5835 50.2721ZM75.5697 50.2721V50.2506C75.5697 46.7859 73.7927 44.6085 70.9994 44.6085C68.2061 44.6085 66.4291 46.7736 66.4291 50.2506V50.2721C66.4291 53.7491 68.2061 55.9234 70.9994 55.9234C73.7927 55.9234 75.5697 53.7153 75.5697 50.2721Z" fill="white"/>
<path d="M79.7643 53.8568L79.752 53.6936H82.4252L82.4468 53.8229C82.6531 55.1657 84.0267 56.0003 85.9884 56.0003C87.9502 56.0003 89.1944 55.1226 89.1944 53.7798V53.7675C89.1944 52.5972 88.3814 51.969 86.3672 51.547L84.6888 51.2021C81.6152 50.5646 80.0969 49.1356 80.0969 46.8074V46.795C80.1093 44.0449 82.5238 42.1816 85.8899 42.1816C89.256 42.1816 91.5319 43.9802 91.6921 46.6534L91.7044 46.8382H89.0312L89.0096 46.7088C88.8248 45.3445 87.6238 44.5315 85.8683 44.5315C84.039 44.5438 82.9026 45.3969 82.9026 46.6441V46.6565C82.9026 47.7621 83.7587 48.4119 85.6404 48.7999L87.3281 49.1449C90.5772 49.8162 91.9939 51.1374 91.9939 53.5735V53.5858C91.9939 56.4992 89.6995 58.3501 85.8868 58.3501C82.302 58.3501 79.943 56.6624 79.7582 53.8568H79.7643Z" fill="white"/>
</g>
<defs>
<linearGradient id="paint0_linear_257_59" x1="50" y1="0" x2="50" y2="100" gradientUnits="userSpaceOnUse">
<stop stop-color="#3D3D3D"/>
<stop offset="1" stop-color="#030303"/>
</linearGradient>
<clipPath id="clip0_257_59">
<rect width="85" height="16.3502" fill="white" transform="translate(7 42)"/>
</clipPath>
</defs>
</svg>
