<svg width="100" height="100" viewBox="0 0 100 100" fill="none" xmlns="http://www.w3.org/2000/svg">
<rect width="100" height="100" rx="24" fill="#1D1D1D"/>
<path d="M15.7451 14L11.3725 31.8947H26.4073C30.4202 31.8947 33.9181 29.1005 34.8912 25.1175C36.2713 19.4703 32.0965 14 26.4073 14H15.7451Z" fill="white"/>
<path d="M11.3725 40.842L7 58.7368H22.0347C26.0476 58.7368 29.5456 55.9425 30.5186 51.9596C31.8987 46.3125 27.7243 40.842 22.0347 40.842H11.3725Z" fill="white"/>
<path d="M37.608 58.7368L41.9806 40.842H52.6427C58.3319 40.842 62.5063 46.3125 61.1266 51.9596C60.1536 55.9425 56.6556 58.7368 52.6427 58.7368H37.608Z" fill="white"/>
<path d="M37.608 67.6842L33.2354 85.5789H48.2701C52.283 85.5789 55.781 82.7847 56.754 78.8017C58.1342 73.1546 53.9593 67.6842 48.2701 67.6842H37.608Z" fill="white"/>
<path d="M78.8782 76.6315H63.843L68.2156 58.7368H78.8782C84.5674 58.7368 88.7418 64.2072 87.3621 69.8544C86.3886 73.8373 82.8906 76.6315 78.8782 76.6315Z" fill="white"/>
<path d="M72.5882 31.8948L68.2156 49.7895H83.2503C87.2632 49.7895 90.7612 46.9952 91.7346 43.0123C93.1143 37.3652 88.9399 31.8948 83.2503 31.8948H72.5882Z" fill="white"/>
<path d="M41.9806 31.8947L46.3532 14H57.0153C62.7045 14 66.8789 19.4703 65.4992 25.1175C64.5261 29.1005 61.0282 31.8947 57.0153 31.8947H41.9806Z" fill="white"/>
</svg>
