<svg width="100" height="100" viewBox="0 0 100 100" fill="none" xmlns="http://www.w3.org/2000/svg">
<rect width="100" height="100" rx="24" fill="white"/>
<path d="M42.6078 75.9281L18.4982 57.8809L16.0839 59.6907C11.972 62.7662 11.972 67.7588 16.0839 70.8357L42.6078 90.6928C46.7211 93.769 53.3866 93.769 57.4991 90.6928L84.0231 70.8357C88.1372 67.7588 88.1372 62.7662 84.0231 59.6907L81.6065 57.8809L57.4991 75.9281C53.3866 79.005 46.7211 79.005 42.6078 75.9281Z" fill="#45DFF4"/>
<path d="M84.0231 44.9275L81.6065 43.1184L57.4991 61.1634C53.3858 64.2403 46.7204 64.2403 42.6078 61.1634L18.4982 43.1184L16.0839 44.9275C11.972 48.003 11.972 52.9941 16.0839 56.0733L18.4982 57.8809L42.6078 75.9281C46.7211 79.0051 53.3866 79.0051 57.4991 75.9281L81.6065 57.8809L84.0231 56.0733C88.1379 52.9941 88.1379 48.003 84.0231 44.9275Z" fill="#42A5F5"/>
<path d="M57.4991 61.1641L81.6065 43.1191L84.0231 41.3085C88.1372 38.233 88.1372 33.2405 84.0231 30.1628L81.8023 28.501L54.0045 49.2299C51.8217 50.8648 48.2831 50.8648 46.1017 49.2299L32.0227 38.6954C29.8406 37.0612 29.8406 34.4131 32.0227 32.7782L60.2463 12.365L57.4999 10.3094C53.3866 7.2302 46.7211 7.2302 42.6086 10.3094L16.0846 30.1635C11.9728 33.2405 11.9728 38.2338 16.0846 41.3093L18.499 43.1199L42.6086 61.1648C46.7211 64.2411 53.3866 64.2411 57.4991 61.1641Z" fill="#3B6BB4"/>
</svg>
