<svg width="100" height="100" viewBox="0 0 100 100" fill="none" xmlns="http://www.w3.org/2000/svg">
<rect width="100" height="100" rx="24" fill="white"/>
<g filter="url(#filter0_f_224_970)">
<path fill-rule="evenodd" clip-rule="evenodd" d="M12.258 11.3191C11.8393 11.3075 11.4261 11.4158 11.0669 11.6313C10.7078 11.8467 10.4177 12.1603 10.2308 12.5351C10.044 12.9099 9.96812 13.3304 10.0122 13.7469C10.0563 14.1633 10.2185 14.5586 10.4797 14.886L16.8136 23.084C16.5904 23.6695 16.4565 24.2994 16.4565 24.9653V31.9961V37.0323V37.2691C16.4565 40.1904 18.8083 42.5423 21.7296 42.5423H77.976C80.8973 42.5423 83.2491 40.1904 83.2491 37.2691V30.2384V25.2022V24.9653C83.2491 24.2968 83.1135 23.6646 82.8886 23.0772L89.219 14.886C89.4835 14.5542 89.6462 14.1531 89.6876 13.7309C89.729 13.3087 89.6473 12.8835 89.4524 12.5067C89.2575 12.1299 88.9576 11.8176 88.5891 11.6074C88.2206 11.3973 87.7991 11.2984 87.3755 11.3226C87.0558 11.3406 86.7439 11.4282 86.4616 11.5794C86.1794 11.7306 85.9336 11.9418 85.7414 12.1979L79.7096 20.0046C79.1644 19.8149 78.5875 19.6922 77.976 19.6922H21.7296C21.117 19.6922 20.5387 19.8135 19.9925 20.0046L13.9573 12.1979C13.7586 11.9328 13.5026 11.716 13.2083 11.5638C12.914 11.4116 12.5892 11.328 12.258 11.3191ZM21.7296 44.3C21.3645 44.3 21.0093 44.3368 20.6654 44.4071C18.2582 44.8924 16.4565 46.9907 16.4565 49.5223V49.5731V84.3392V84.3902V84.7267C16.4565 87.6479 18.8083 89.9997 21.7296 89.9997H77.976C80.8973 89.9997 83.2491 87.6479 83.2491 84.7267V49.5727V49.5216C83.2491 46.99 81.4474 44.892 79.0402 44.4067C78.6963 44.3381 78.3411 44.2994 77.976 44.2994L21.7296 44.3Z" fill="#263238" fill-opacity="0.4"/>
</g>
<path fill-rule="evenodd" clip-rule="evenodd" d="M87.4828 12.2219L80.0126 21.8893L87.4828 12.2219Z" fill="#8AB000"/>
<path d="M87.4828 12.2219L80.0126 21.8893" stroke="#769616" stroke-width="2.5" stroke-linecap="round"/>
<path fill-rule="evenodd" clip-rule="evenodd" d="M87.4435 10.0197C88.2405 10.0408 88.7823 10.3519 89.1673 10.8082C85.6046 15.0424 85.0044 15.7151 80.1407 21.7436C78.3487 24.0621 76.4819 22.8638 78.2739 20.5454L85.7441 10.8781C86.1466 10.3409 86.7725 10.0378 87.4435 10.0197Z" fill="white" fill-opacity="0.298039"/>
<path fill-rule="evenodd" clip-rule="evenodd" d="M89.1822 10.8303C89.4 11.0902 90.1686 12.2445 89.2218 13.5656L81.7516 23.233C79.9595 25.5514 79.7304 22.1567 79.7304 22.1567C79.7304 22.1567 86.2945 14.2295 89.1822 10.8303Z" fill="#263238" fill-opacity="0.2"/>
<path fill-rule="evenodd" clip-rule="evenodd" d="M87.9241 10.4325C88.6943 10.4325 89.6113 10.6814 89.3728 11.8362C89.1908 12.7179 81.1805 22.5132 81.1805 22.5132C79.3885 24.8316 76.7978 23.702 78.5898 21.3839L86.0325 11.7645C86.49 11.2548 87.1021 10.4575 87.9241 10.4325Z" fill="#8AB000"/>
<path fill-rule="evenodd" clip-rule="evenodd" d="M12.2149 12.222L19.6851 21.8893L12.2149 12.222Z" fill="#8AB000"/>
<path d="M12.2149 12.222L19.6851 21.8893" stroke="#769616" stroke-width="2.5" stroke-linecap="round"/>
<path fill-rule="evenodd" clip-rule="evenodd" d="M12.2543 10.0197C11.4572 10.0408 10.9154 10.352 10.5304 10.8083C14.0931 15.0424 14.6933 15.7151 19.557 21.7437C21.349 24.0621 23.2158 22.8638 21.4238 20.5454L13.9536 10.8781C13.5511 10.341 12.9252 10.0378 12.2543 10.0197Z" fill="white" fill-opacity="0.298039"/>
<path fill-rule="evenodd" clip-rule="evenodd" d="M10.5155 10.8303C10.2977 11.0903 9.5291 12.2446 10.4759 13.5656L17.9462 23.233C19.7382 25.5514 19.9673 22.1567 19.9673 22.1567C19.9673 22.1567 13.4033 14.2295 10.5155 10.8303Z" fill="#263238" fill-opacity="0.2"/>
<path fill-rule="evenodd" clip-rule="evenodd" d="M11.7736 10.4325C11.0034 10.4325 10.0865 10.6814 10.3249 11.8362C10.5069 12.7179 18.5172 22.5132 18.5172 22.5132C20.3092 24.8316 22.9 23.702 21.1079 21.3839L13.6652 11.7645C13.2078 11.2548 12.5956 10.4575 11.7736 10.4325Z" fill="#8AB000"/>
<path d="M77.9722 18.3739H21.7259C18.8137 18.3739 16.4528 20.7348 16.4528 23.647V35.9509C16.4528 38.8632 18.8137 41.224 21.7259 41.224H77.9722C80.8845 41.224 83.2453 38.8632 83.2453 35.9509V23.647C83.2453 20.7348 80.8845 18.3739 77.9722 18.3739Z" fill="#AEEA00"/>
<path d="M77.9722 23.6471H21.7259C18.8137 23.6471 16.4528 26.0079 16.4528 28.9202V35.951C16.4528 38.8632 18.8137 41.2241 21.7259 41.2241H77.9722C80.8845 41.2241 83.2453 38.8632 83.2453 35.951V28.9202C83.2453 26.0079 80.8845 23.6471 77.9722 23.6471Z" fill="#263238" fill-opacity="0.2"/>
<path d="M77.9722 18.3739H21.7259C18.8137 18.3739 16.4528 20.7348 16.4528 23.647V30.6778C16.4528 33.5901 18.8137 35.9509 21.7259 35.9509H77.9722C80.8845 35.9509 83.2453 33.5901 83.2453 30.6778V23.647C83.2453 20.7348 80.8845 18.3739 77.9722 18.3739Z" fill="white" fill-opacity="0.298039"/>
<path d="M77.9722 20.1317H21.7259C18.8137 20.1317 16.4528 22.1293 16.4528 24.5935V35.0045C16.4528 37.4688 18.8137 39.4664 21.7259 39.4664H77.9722C80.8845 39.4664 83.2453 37.4688 83.2453 35.0045V24.5935C83.2453 22.1293 80.8845 20.1317 77.9722 20.1317Z" fill="#AEEA00"/>
<path d="M77.9722 42.9817H21.7259C18.8137 42.9817 16.4528 45.3426 16.4528 48.2548V83.4088C16.4528 86.321 18.8137 88.6819 21.7259 88.6819H77.9722C80.8845 88.6819 83.2453 86.321 83.2453 83.4088V48.2548C83.2453 45.3426 80.8845 42.9817 77.9722 42.9817Z" fill="#1976D2"/>
<path d="M77.9722 65.8319H21.7259C18.8137 65.8319 16.4528 68.1928 16.4528 71.105V83.4089C16.4528 86.3212 18.8137 88.682 21.7259 88.682H77.9722C80.8845 88.682 83.2453 86.3212 83.2453 83.4089V71.105C83.2453 68.1928 80.8845 65.8319 77.9722 65.8319Z" fill="#263238" fill-opacity="0.2"/>
<path d="M77.9722 42.9817H21.7259C18.8137 42.9817 16.4528 45.3426 16.4528 48.2548V60.5587C16.4528 63.4709 18.8137 65.8318 21.7259 65.8318H77.9722C80.8845 65.8318 83.2453 63.4709 83.2453 60.5587V48.2548C83.2453 45.3426 80.8845 42.9817 77.9722 42.9817Z" fill="white" fill-opacity="0.2"/>
<path d="M77.9722 44.7396H21.7259C18.8137 44.7396 16.4528 46.9189 16.4528 49.6071V82.057C16.4528 84.7452 18.8137 86.9243 21.7259 86.9243H77.9722C80.8845 86.9243 83.2453 84.7452 83.2453 82.057V49.6071C83.2453 46.9189 80.8845 44.7396 77.9722 44.7396Z" fill="#1976D2"/>
<path d="M49.8491 54.8457C44.7857 54.8457 40.4985 58.3341 39.2445 63.0197H44.8918C45.8661 61.2877 47.6955 60.1188 49.8491 60.1188C53.0352 60.1188 55.5616 62.6451 55.5616 65.8313C55.5616 69.0174 53.0352 71.5438 49.8491 71.5438C47.5511 71.5438 45.6108 70.2208 44.6996 68.2927H39.1553C40.2841 73.1541 44.6602 76.8169 49.8491 76.8169C55.885 76.8169 60.8347 71.8672 60.8347 65.8313C60.8347 59.7953 55.885 54.8457 49.8491 54.8457Z" fill="#0D47A1"/>
<path d="M49.8491 82.6173C59.1197 82.6173 66.6351 75.1019 66.6351 65.8313C66.6351 56.5606 59.1197 49.0453 49.8491 49.0453C40.5784 49.0453 33.063 56.5606 33.063 65.8313C33.063 75.1019 40.5784 82.6173 49.8491 82.6173Z" stroke="#0D47A1" stroke-width="1.9" stroke-linecap="round"/>
<path d="M32.9312 36.8298C36.2075 36.8298 38.8635 33.7803 38.8635 30.0187C38.8635 26.257 36.2075 23.2076 32.9312 23.2076C29.6549 23.2076 26.999 26.257 26.999 30.0187C26.999 33.7803 29.6549 36.8298 32.9312 36.8298Z" fill="#263238" fill-opacity="0.2"/>
<path d="M32.9312 36.8296C36.2075 36.8296 38.8635 34.1737 38.8635 30.8974C38.8635 27.6211 36.2075 24.9651 32.9312 24.9651C29.6549 24.9651 26.999 27.6211 26.999 30.8974C26.999 34.1737 29.6549 36.8296 32.9312 36.8296Z" fill="white"/>
<path d="M67.2063 36.8298C70.4826 36.8298 73.1386 33.7803 73.1386 30.0187C73.1386 26.257 70.4826 23.2076 67.2063 23.2076C63.9301 23.2076 61.2741 26.257 61.2741 30.0187C61.2741 33.7803 63.9301 36.8298 67.2063 36.8298Z" fill="#263238" fill-opacity="0.2"/>
<path d="M67.2063 36.8296C70.4826 36.8296 73.1386 34.1737 73.1386 30.8974C73.1386 27.6211 70.4826 24.9651 67.2063 24.9651C63.9301 24.9651 61.2741 27.6211 61.2741 30.8974C61.2741 34.1737 63.9301 36.8296 67.2063 36.8296Z" fill="white"/>
<path fill-rule="evenodd" clip-rule="evenodd" d="M12.258 10.0008C11.8393 9.98928 11.4261 10.0976 11.0669 10.313C10.7078 10.5285 10.4177 10.8422 10.2308 11.217C10.044 11.5918 9.96812 12.0121 10.0122 12.4286C10.0563 12.8451 10.2185 13.2403 10.4797 13.5677L16.8136 21.7658C16.5904 22.3513 16.4565 22.9813 16.4565 23.6471V30.6779V35.714V35.951C16.4565 38.8723 18.8083 41.2241 21.7296 41.2241H77.976C80.8973 41.2241 83.2491 38.8723 83.2491 35.951V28.9202V23.884V23.6471C83.2491 22.9787 83.1135 22.3464 82.8886 21.759L89.219 13.5677C89.4835 13.236 89.6462 12.8348 89.6876 12.4126C89.729 11.9904 89.6473 11.5652 89.4524 11.1884C89.2575 10.8117 88.9576 10.4993 88.5891 10.2892C88.2206 10.0791 87.7991 9.9802 87.3755 10.0044C87.0558 10.0224 86.7439 10.1101 86.4616 10.2613C86.1794 10.4125 85.9336 10.6235 85.7414 10.8797L79.7096 18.6863C79.1644 18.4967 78.5875 18.374 77.976 18.374H21.7296C21.117 18.374 20.5387 18.4953 19.9925 18.6863L13.9573 10.8797C13.7586 10.6146 13.5026 10.3978 13.2083 10.2457C12.914 10.0935 12.5892 10.0097 12.258 10.0008ZM21.7296 42.9818C21.3645 42.9818 21.0093 43.0186 20.6654 43.0889C18.2582 43.5742 16.4565 45.6724 16.4565 48.204V48.2551V83.0211V83.072V83.4084C16.4565 86.3297 18.8083 88.6815 21.7296 88.6815H77.976C80.8973 88.6815 83.2491 86.3297 83.2491 83.4084V48.2545V48.2036C83.2491 45.672 81.4474 43.5737 79.0402 43.0884C78.6963 43.0199 78.3411 42.9812 77.976 42.9812L21.7296 42.9818Z" fill="url(#paint0_radial_224_970)"/>
<defs>
<filter id="filter0_f_224_970" x="9.09894" y="10.4172" width="81.5002" height="80.4836" filterUnits="userSpaceOnUse" color-interpolation-filters="sRGB">
<feFlood flood-opacity="0" result="BackgroundImageFix"/>
<feBlend mode="normal" in="SourceGraphic" in2="BackgroundImageFix" result="shape"/>
<feGaussianBlur stdDeviation="0.450532" result="effect1_foregroundBlur_224_970"/>
</filter>
<radialGradient id="paint0_radial_224_970" cx="0" cy="0" r="1" gradientUnits="userSpaceOnUse" gradientTransform="translate(10.0044 10.0024) rotate(90) scale(78.6925 84.3695)">
<stop stop-color="white" stop-opacity="0.0980392"/>
<stop offset="1" stop-color="white" stop-opacity="0"/>
</radialGradient>
</defs>
</svg>
