<svg width="100" height="100" viewBox="0 0 100 100" fill="none" xmlns="http://www.w3.org/2000/svg">
<rect width="100" height="100" rx="24" fill="white"/>
<g clip-path="url(#clip0_224_972)">
<path d="M59.5682 7L80.8182 28.25L70.1932 30.1818L59.5682 28.25L57.6364 17.625L59.5682 7Z" fill="#188038"/>
<path d="M59.5682 28.25V7H24.7955C21.5935 7 19 9.59347 19 12.7955V86.2045C19 89.4065 21.5935 92 24.7955 92H75.0227C78.2247 92 80.8182 89.4065 80.8182 86.2045V28.25H59.5682Z" fill="#34A853"/>
<path d="M30.5909 39.8408V67.8522H69.2273V39.8408H30.5909ZM47.4943 63.0226H35.4205V56.2613H47.4943V63.0226ZM47.4943 51.4317H35.4205V44.6704H47.4943V51.4317ZM64.3977 63.0226H52.3239V56.2613H64.3977V63.0226ZM64.3977 51.4317H52.3239V44.6704H64.3977V51.4317Z" fill="white"/>
</g>
<defs>
<clipPath id="clip0_224_972">
<rect width="61.8182" height="85" fill="white" transform="translate(19 7)"/>
</clipPath>
</defs>
</svg>
