<svg width="100" height="100" viewBox="0 0 100 100" fill="none" xmlns="http://www.w3.org/2000/svg">
<rect width="100" height="100" rx="24" fill="#888888"/>
<path d="M11.2194 52.9046V66.2049H7V33.3669H18.1906C21.0341 33.3669 23.4495 34.3148 25.4369 36.2105C27.4549 38.1061 28.4639 40.4146 28.4639 43.1358C28.4639 45.9181 27.4549 48.2419 25.4369 50.107C23.4801 51.9721 21.0647 52.9046 18.1906 52.9046H11.2194ZM11.2194 37.4029V48.8687H18.2823C19.964 48.8687 21.3551 48.303 22.4558 47.1717C23.5871 46.0404 24.1528 44.6951 24.1528 43.1358C24.1528 41.607 23.5871 40.277 22.4558 39.1457C21.3551 37.9838 19.964 37.4029 18.2823 37.4029H11.2194Z" fill="white"/>
<path d="M37.6114 35.9811C37.6114 36.8066 37.321 37.5099 36.74 38.0908C36.1591 38.6717 35.4559 38.9622 34.6303 38.9622C33.8048 38.9622 33.1016 38.6717 32.5206 38.0908C31.9397 37.5099 31.6492 36.8066 31.6492 35.9811C31.6492 35.1556 31.9397 34.4523 32.5206 33.8714C33.1016 33.2905 33.8048 33 34.6303 33C35.4559 33 36.1591 33.2905 36.74 33.8714C37.321 34.4523 37.6114 35.1556 37.6114 35.9811ZM36.74 43.732V66.2049H32.5206V43.732H36.74Z" fill="white"/>
<path d="M52.962 54.7849L60.988 66.2048H56.0348L50.4854 57.9036L45.0277 66.2048H40.0745L48.0088 54.7849L40.2579 43.7319H45.0277L50.5771 51.6662L55.8514 43.7319H60.8046L52.962 54.7849Z" fill="white"/>
<path d="M73.3266 66.9386C70.0244 66.9386 67.3032 65.8073 65.1629 63.5447C63.0227 61.2821 61.9525 58.4233 61.9525 54.9683C61.9525 51.5439 62.9921 48.7004 65.0712 46.4378C67.1503 44.1446 69.8104 42.998 73.0514 42.998C76.3841 42.998 79.0289 44.0835 80.9857 46.2543C82.9731 48.3946 83.9668 51.4063 83.9668 55.2893L83.9209 55.748H66.2636C66.3248 57.9494 67.0586 59.7228 68.4651 61.0681C69.8715 62.4134 71.5532 63.0861 73.51 63.0861C76.2006 63.0861 78.3103 61.7407 79.8391 59.0501L83.5999 60.8846C82.5909 62.7803 81.1844 64.2632 79.3805 65.3333C77.6071 66.4035 75.5891 66.9386 73.3266 66.9386ZM66.5847 52.2624H79.4722C79.3499 50.703 78.7078 49.4189 77.546 48.4099C76.4147 47.3703 74.8859 46.8505 72.9596 46.8505C71.3697 46.8505 69.9938 47.3397 68.832 48.3182C67.7007 49.2966 66.9516 50.6113 66.5847 52.2624Z" fill="white"/>
<path d="M92 33.3669V66.2049H87.7806V33.3669H92Z" fill="white"/>
</svg>
