<svg width="100" height="100" viewBox="0 0 100 100" fill="none" xmlns="http://www.w3.org/2000/svg">
<rect width="100" height="100" rx="24" fill="white"/>
<path d="M60.934 34.8356H63.5278L70.9173 27.4461L71.2807 24.3107C57.5313 12.1753 36.5421 13.4829 24.4068 27.2323C21.0327 31.0517 18.5849 35.5945 17.2524 40.5113C18.0754 40.1728 18.9876 40.1194 19.8462 40.3546L34.6217 37.9175C34.6217 37.9175 35.3735 36.674 35.7618 36.7524C42.3354 29.5339 53.3984 28.6931 60.9874 34.8356H60.934Z" fill="#EA4335"/>
<path d="M81.4422 40.5114C79.7427 34.2585 76.2581 28.6362 71.409 24.3357L61.0408 34.7038C65.4197 38.281 67.9137 43.6717 67.8069 49.3261V51.1681C72.9054 51.1681 77.0348 55.3011 77.0348 60.3961C77.0348 65.4947 72.9018 69.6241 67.8069 69.6241H49.3473L47.5053 71.4911V82.5611L49.3473 84.4032H67.8069C78.3888 84.4851 87.7771 77.6265 90.9196 67.522C94.055 57.414 90.207 46.4401 81.4422 40.5114Z" fill="#4285F4"/>
<path d="M30.8628 84.2997H49.3224V69.5243H30.8628C29.5481 69.5243 28.2476 69.2428 27.0505 68.6941L24.4567 69.4958L17.0173 76.8853L16.3688 79.4791C20.541 82.6287 25.6324 84.3211 30.8628 84.2997Z" fill="#34A853"/>
<path d="M30.8628 36.3641C20.6087 36.4247 11.5268 42.9912 8.25601 52.7073C4.98524 62.4234 8.24532 73.1479 16.3724 79.3972L27.079 68.6906C22.4329 66.5921 20.37 61.1265 22.4685 56.4805C24.5671 51.8344 30.0326 49.7715 34.6787 51.87C36.7238 52.7964 38.3628 54.4353 39.2891 56.4805L49.9958 45.7739C45.4388 39.8202 38.3592 36.3392 30.8628 36.3641Z" fill="#FBBC05"/>
</svg>
