<svg width="100" height="100" viewBox="0 0 100 100" fill="none" xmlns="http://www.w3.org/2000/svg">
<rect width="100" height="100" rx="24" fill="white"/>
<g clip-path="url(#clip0_175_243)">
<path d="M49.5 93C72.9721 93 92 73.9721 92 50.5C92 27.0279 72.9721 8 49.5 8C26.0279 8 7 27.0279 7 50.5C7 73.9721 26.0279 93 49.5 93Z" fill="#083042"/>
<path d="M76.1012 47.2829H74.3296C74.0864 47.2829 73.8892 47.0857 73.8892 46.8425V45.2075C73.8892 44.9643 74.0864 44.7671 74.3296 44.7671H78.2097C78.453 44.7671 78.6502 44.9643 78.6502 45.2075V56.3133C78.6502 56.5565 78.453 56.7538 78.2097 56.7538H76.5416C76.2984 56.7538 76.1012 56.5565 76.1012 56.3133V47.2829Z" fill="#F86734"/>
<path d="M82.6221 47.2829H80.8504C80.6072 47.2829 80.41 47.0857 80.41 46.8425V45.2075C80.41 44.9643 80.6072 44.7671 80.8504 44.7671H84.7305C84.9737 44.7671 85.171 44.9643 85.171 45.2075V56.3133C85.171 56.5565 84.9737 56.7538 84.7305 56.7538H83.0624C82.8192 56.7538 82.6219 56.5565 82.6219 56.3133V47.2829H82.6221Z" fill="#F86734"/>
<path d="M67.4494 75.8887C67.8473 75.8887 68.1698 75.5662 68.1698 75.1683C68.1698 74.7705 67.8473 74.448 67.4494 74.448C67.0516 74.448 66.7291 74.7705 66.7291 75.1683C66.7291 75.5662 67.0516 75.8887 67.4494 75.8887Z" fill="#D6F0FF"/>
<path d="M52.7312 81.5806C53.1751 81.5806 53.535 81.2207 53.535 80.7767C53.535 80.3328 53.1751 79.9729 52.7312 79.9729C52.2872 79.9729 51.9273 80.3328 51.9273 80.7767C51.9273 81.2207 52.2872 81.5806 52.7312 81.5806Z" fill="#D6F0FF"/>
<path d="M37.6325 79.3116C38.1242 79.3116 38.5227 78.9131 38.5227 78.4214C38.5227 77.9298 38.1242 77.5312 37.6325 77.5312C37.1409 77.5312 36.7424 77.9298 36.7424 78.4214C36.7424 78.9131 37.1409 79.3116 37.6325 79.3116Z" fill="#D6F0FF"/>
<path d="M25.3309 69.5876C25.8714 69.5876 26.3094 69.1495 26.3094 68.6091C26.3094 68.0687 25.8714 67.6306 25.3309 67.6306C24.7905 67.6306 24.3524 68.0687 24.3524 68.6091C24.3524 69.1495 24.7905 69.5876 25.3309 69.5876Z" fill="#D6F0FF"/>
<path d="M19.6072 54.9875C20.1972 54.9875 20.6755 54.5092 20.6755 53.9191C20.6755 53.3291 20.1972 52.8508 19.6072 52.8508C19.0172 52.8508 18.5389 53.3291 18.5389 53.9191C18.5389 54.5092 19.0172 54.9875 19.6072 54.9875Z" fill="#D6F0FF"/>
<path d="M21.8546 39.9632C22.4949 39.9632 23.014 39.4441 23.014 38.8037C23.014 38.1634 22.4949 37.6443 21.8546 37.6443C21.2142 37.6443 20.6951 38.1634 20.6951 38.8037C20.6951 39.4441 21.2142 39.9632 21.8546 39.9632Z" fill="#D6F0FF"/>
<path d="M31.5657 27.6925C32.2568 27.6925 32.8171 27.1323 32.8171 26.4411C32.8171 25.75 32.2568 25.1897 31.5657 25.1897C30.8745 25.1897 30.3142 25.75 30.3142 26.4411C30.3142 27.1323 30.8745 27.6925 31.5657 27.6925Z" fill="#D6F0FF"/>
<path d="M46.2839 21.7619C47.0262 21.7619 47.628 21.1601 47.628 20.4178C47.628 19.6755 47.0262 19.0737 46.2839 19.0737C45.5416 19.0737 44.9399 19.6755 44.9399 20.4178C44.9399 21.1601 45.5416 21.7619 46.2839 21.7619Z" fill="#D6F0FF"/>
<path d="M61.3022 23.8745C62.096 23.8745 62.7396 23.231 62.7396 22.4371C62.7396 21.6433 62.096 20.9998 61.3022 20.9998C60.5084 20.9998 59.8649 21.6433 59.8649 22.4371C59.8649 23.231 60.5084 23.8745 61.3022 23.8745Z" fill="#D6F0FF"/>
<path d="M73.5809 33.8004C74.4265 33.8004 75.1121 33.1148 75.1121 32.2692C75.1121 31.4236 74.4265 30.738 73.5809 30.738C72.7353 30.738 72.0497 31.4236 72.0497 32.2692C72.0497 33.1148 72.7353 33.8004 73.5809 33.8004Z" fill="#D6F0FF"/>
<path d="M49.4085 72.0284C61.1546 72.0284 70.6766 62.5063 70.6766 50.7603C70.6766 39.0142 61.1546 29.4922 49.4085 29.4922C37.6625 29.4922 28.1404 39.0142 28.1404 50.7603C28.1404 62.5063 37.6625 72.0284 49.4085 72.0284Z" fill="#3DDB85"/>
<path d="M63.3176 54.3255C65.2867 54.3255 66.883 52.7293 66.883 50.7602C66.883 48.7911 65.2867 47.1948 63.3176 47.1948C61.3485 47.1948 59.7523 48.7911 59.7523 50.7602C59.7523 52.7293 61.3485 54.3255 63.3176 54.3255Z" fill="white"/>
</g>
<defs>
<clipPath id="clip0_175_243">
<rect width="85" height="85" fill="white" transform="translate(7 8)"/>
</clipPath>
</defs>
</svg>
