<svg width="100" height="100" viewBox="0 0 100 100" fill="none" xmlns="http://www.w3.org/2000/svg">
<rect width="100" height="100" rx="24" fill="white"/>
<path d="M49.5 93C72.9721 93 92 73.9721 92 50.5C92 27.0279 72.9721 8 49.5 8C26.0279 8 7 27.0279 7 50.5C7 73.9721 26.0279 93 49.5 93Z" fill="#E91E63"/>
<path d="M49.5 50.5001L79.5501 20.45C87.5219 28.4097 92 39.2268 92 50.5001C92 73.8151 72.815 93.0001 49.5 93.0001C38.2267 93.0001 27.4096 88.522 19.4499 80.5502L49.5 50.5001Z" fill="#F06292"/>
<path d="M30.2069 69.697L53.3418 92.8318C73.8114 90.995 90.0911 74.6673 91.8439 54.1736L68.7931 31.1228L30.2069 69.697Z" fill="#EE4C83"/>
<path d="M30.2069 69.697H49.5V50.4159L30.2069 31.1228V69.697Z" fill="#EEEEEE"/>
<path d="M68.7931 69.697H49.5V50.4159L68.7931 31.1228V69.697Z" fill="white"/>
<path d="M68.7931 69.6968H49.5L68.7931 50.4158V69.6968Z" fill="#DDDDDD"/>
<path d="M30.2069 69.6968H49.5L30.2069 50.4158V69.6968Z" fill="#DDDDDD"/>
</svg>
