<svg width="100" height="100" viewBox="0 0 100 100" fill="none" xmlns="http://www.w3.org/2000/svg">
<rect width="100" height="100" rx="24" fill="black"/>
<path d="M59.1667 50.2286C59.1667 54.7727 62.8505 58.4565 67.3953 58.4565C71.9395 58.4565 75.6232 54.7727 75.6232 50.2286C75.6232 45.6838 71.9395 42.0001 67.3953 42.0001C62.8505 42.0001 59.1667 45.6838 59.1667 50.2286ZM62.0234 50.2286C62.0234 47.2618 64.4285 44.8573 67.3953 44.8573C70.362 44.8573 72.7672 47.2618 72.7672 50.2286C72.7672 53.1954 70.362 55.6004 67.3953 55.6004C64.4285 55.6004 62.0234 53.1954 62.0234 50.2286ZM22.9269 50.2286C22.9269 54.7727 26.6107 58.4565 31.1556 58.4565C35.6997 58.4565 39.3834 54.7727 39.3834 50.2286C39.3834 45.6838 35.6997 42.0001 31.1556 42.0001C26.6107 42.0001 22.9269 45.6838 22.9269 50.2286ZM25.7836 50.2286C25.7836 47.2618 28.1887 44.8573 31.1556 44.8573C34.1222 44.8573 36.5273 47.2618 36.5273 50.2286C36.5273 53.1954 34.1222 55.6004 31.1556 55.6004C28.1887 55.6004 25.7836 53.1954 25.7836 50.2286ZM52.4537 42.172V52.1808L45.5176 42.172H43.2398V58.2102H46.0971V48.1526L53.0665 58.2102H55.3104V42.172H52.4537ZM79.4797 42.2202V58.2585H82.3368V51.1211L88.2883 58.2585H92L87.1251 52.4117C89.2314 51.7399 90.7571 49.768 90.7571 47.4392C90.7571 44.5623 88.4281 42.2285 85.5529 42.2208V42.2202H79.4797ZM82.3368 45.0775H85.5178C86.8216 45.0775 87.8789 46.1349 87.8789 47.4392C87.8789 48.7434 86.821 49.8013 85.5167 49.8013H82.3368V45.0775ZM16.2139 42.2202V48.7214H9.85717V42.2202H7V58.2585H9.85717V51.5782H16.2139V58.2585H19.0705V42.2202H16.2139Z" fill="url(#paint0_linear_150_325)"/>
<defs>
<linearGradient id="paint0_linear_150_325" x1="43.3812" y1="33.7035" x2="55.5541" y2="66.5785" gradientUnits="userSpaceOnUse">
<stop stop-color="#FF00D0"/>
<stop offset="0.25" stop-color="#4E73FF"/>
<stop offset="0.6" stop-color="#00B1FF"/>
<stop offset="1" stop-color="#00FFFF"/>
</linearGradient>
</defs>
</svg>
