<svg width="100" height="100" viewBox="0 0 100 100" fill="none" xmlns="http://www.w3.org/2000/svg">
<rect width="100" height="100" rx="24" fill="white"/>
<g clip-path="url(#clip0_175_866)">
<path d="M33.6627 78.9146V86.8583C33.6627 89.1147 32.5431 90.3187 30.5086 90.3187C28.4627 90.3187 27.3363 89.08 27.3363 86.762V78.9233H24.5216V86.8583C24.5216 90.7626 26.6903 93 30.4715 93C34.2885 93 36.4774 90.7198 36.4774 86.7439V78.9146H33.6627ZM44.0186 78.9146L37.9053 92.7837H40.7784L41.9585 90.0977L42.0429 89.8964H48.3938L49.6393 92.7837H52.5906L46.5342 78.9967L46.4797 78.9146L44.0186 78.9146ZM60.7545 78.9146L57.6043 88.4575L54.5378 78.9217H51.5424L56.3777 92.7924H58.7086L61.8651 83.6805L65.0192 92.7924H67.3698L72.1933 78.9217H69.2744L66.2016 88.4575L63.0506 78.9146H60.7545ZM88.2994 78.9146V92.7719H91.077V78.9146H88.2994ZM8.63025 78.9154V92.7916H11.4458V87.1559H17.8029V92.7916H20.6192V78.9154H17.8029V84.5133H11.4458V78.9154H8.63025ZM74.4634 78.9248V92.7821H84.9424V90.2555H77.241V86.8196H82.3621V84.2922H77.241V81.4514H84.674V78.9248H74.4634ZM45.2112 82.4262L47.2185 87.0721H47.2114L47.348 87.3926H43.0896L43.2245 87.0721L45.2112 82.4262Z" fill="#232527"/>
<path d="M43.6904 7.99957C42.5737 8.09835 39.5558 8.78526 39.5558 8.78526C32.7537 10.5434 31.1447 16.7162 31.1447 16.7162C30.8125 17.7542 30.6617 18.8179 30.6173 19.8202V21.1842C30.7075 23.2917 31.1762 24.8653 31.1762 24.8653C33.4484 34.9404 44.6201 51.4951 47.0211 54.9727C47.1914 55.1417 47.3279 55.0807 47.3279 55.0807C47.587 55.0091 47.5667 54.7605 47.5667 54.7605L47.5716 54.7618C51.2698 17.7976 43.6904 7.99957 43.6904 7.99957ZM55.9099 7.99957C55.9099 7.99957 48.2974 17.8028 51.9984 54.7885H52.0033C52.032 55.0233 52.1986 55.0722 52.1986 55.0722C52.4462 55.1681 52.5732 54.9302 52.5732 54.9302L52.5745 54.9326C55.037 51.3661 66.1451 34.9015 68.4072 24.8652C68.4072 24.8652 69.6337 20.0075 68.4497 16.716C68.4497 16.716 66.7681 10.4476 59.9574 8.79115C59.9574 8.79115 57.9945 8.29307 55.9099 7.99957ZM20.7973 19.0963C20.7973 19.0963 14.3162 25.2478 13.994 31.7693H13.9966V32.7575C14.0015 32.8318 14.0053 32.9072 14.01 32.9829C14.2892 38.2417 18.2452 41.354 18.2452 41.354C24.6193 47.5663 40.0532 55.4095 43.6397 57.1891C43.6899 57.2079 43.8752 57.2684 43.984 57.131C43.984 57.131 44.0406 57.088 44.0665 57.0108V56.847C44.0639 56.8377 44.059 56.8283 44.0543 56.8179C34.2327 35.3621 20.7973 19.0963 20.7973 19.0963ZM78.7872 19.0963C78.7872 19.0963 65.3913 35.3112 55.574 56.7236L55.5778 56.7223C55.5778 56.7223 55.4619 56.9706 55.6493 57.131C55.6493 57.131 55.7053 57.1732 55.7827 57.1903H55.9185C55.9429 57.1833 55.9691 57.1739 55.9949 57.1563C59.6787 55.328 74.9932 47.5386 81.3372 41.355C81.3372 41.355 85.3547 38.1288 85.5652 32.9488C86.0291 25.7544 78.7872 19.0963 78.7872 19.0963ZM90.8442 40.3974C90.8442 40.3974 69.0049 52.1175 57.7129 59.7342L57.7167 59.7378C57.7167 59.7378 57.5118 59.872 57.5833 60.1125C57.5833 60.1125 57.6905 60.3065 57.8464 60.3065C61.8911 60.3136 77.196 60.3319 77.5798 60.2604C77.5798 60.2604 79.5588 60.1813 82.0041 59.2419C82.0041 59.2419 87.4481 57.5111 90.2758 51.3304C90.2758 51.3304 91.5678 48.7459 91.5865 45.1151V44.9612C91.5771 43.561 91.3796 42.0109 90.8442 40.3974ZM8.73425 40.452C6.74719 46.6035 9.42226 51.5602 9.42658 51.5682C12.2143 57.4585 17.5357 59.2432 17.5357 59.2432C19.9926 60.2526 22.45 60.3224 22.45 60.3224C22.8337 60.3925 37.7309 60.3294 41.7225 60.3106C41.8915 60.3094 41.9844 60.1396 41.9844 60.1396C41.9962 60.1208 42.0065 60.102 42.0111 60.0849V59.931C41.9781 59.828 41.8899 59.7553 41.8899 59.7553L41.8925 59.754C30.6061 52.1398 8.73425 40.452 8.73425 40.452ZM41.2666 62.2017L15.5751 63.1026C18.3613 68.0693 23.0534 71.9292 27.9413 70.7438C31.3145 69.9005 38.9561 64.5703 41.4788 62.7692L41.4704 62.7621C41.6665 62.5859 41.5965 62.4445 41.5965 62.4445C41.5319 62.2138 41.2667 62.214 41.2667 62.214L41.2666 62.2017ZM58.2827 62.2205L58.2802 62.2299C58.2802 62.2299 58.0546 62.2585 57.9916 62.4274C57.9916 62.4274 57.9368 62.6583 58.0886 62.773L58.086 62.7753C60.5457 64.5392 68.0022 69.7522 71.5944 70.7644C71.5944 70.7644 72.1386 70.9496 73.0506 70.9827H73.5986C76.0054 70.8982 80.1981 69.6618 84.0079 63.116L58.2827 62.2205Z" fill="#CF0A2C"/>
</g>
<defs>
<clipPath id="clip0_175_866">
<rect width="83.5875" height="85" fill="white" transform="translate(8 8)"/>
</clipPath>
</defs>
</svg>
