<svg width="100" height="100" viewBox="0 0 100 100" fill="none" xmlns="http://www.w3.org/2000/svg">
<g clip-path="url(#clip0_175_526)">
<rect width="100" height="100" rx="24" fill="white"/>
<g clip-path="url(#clip1_175_526)">
<path d="M50.0247 -0.227295C29.052 -0.227295 22.9183 -0.205659 21.726 -0.106753C17.422 0.251009 14.7438 0.92867 11.8261 2.38135C9.57754 3.49791 7.80419 4.79219 6.05401 6.6065C2.86661 9.91522 0.93485 13.9858 0.235553 18.8245C-0.104437 21.1735 -0.203343 21.6526 -0.223433 33.6511C-0.23116 37.6507 -0.223433 42.9143 -0.223433 49.9745C-0.223433 70.9302 -0.200252 77.0578 -0.0998008 78.2477C0.247916 82.4358 0.904714 85.0707 2.29558 87.9529C4.95368 93.47 10.0303 97.6117 16.0111 99.1571C18.0819 99.6903 20.3691 99.9839 23.3054 100.123C24.5495 100.177 37.2295 100.216 49.9173 100.216C62.6051 100.216 75.2929 100.2 76.5061 100.138C79.906 99.9785 81.8802 99.7134 84.0631 99.1494C90.0825 97.5962 95.0664 93.5164 97.7786 87.922C99.1424 85.1094 99.834 82.374 100.147 78.4046C100.215 77.5392 100.244 63.741 100.244 49.9614C100.244 36.1794 100.213 22.4067 100.145 21.5413C99.8278 17.5078 99.1362 14.7956 97.7284 11.9289C96.5732 9.58218 95.2905 7.82969 93.4283 6.03779C90.1049 2.86352 86.0405 0.931761 81.1971 0.233237C78.8504 -0.10598 78.3829 -0.206432 66.3751 -0.227295H50.0247Z" fill="url(#paint0_radial_175_526)"/>
<path d="M50.0247 -0.227295C29.052 -0.227295 22.9183 -0.205659 21.726 -0.106753C17.422 0.251009 14.7438 0.92867 11.8261 2.38135C9.57754 3.49791 7.80419 4.79219 6.05401 6.6065C2.86661 9.91522 0.93485 13.9858 0.235553 18.8245C-0.104437 21.1735 -0.203343 21.6526 -0.223433 33.6511C-0.23116 37.6507 -0.223433 42.9143 -0.223433 49.9745C-0.223433 70.9302 -0.200252 77.0578 -0.0998008 78.2477C0.247916 82.4358 0.904714 85.0707 2.29558 87.9529C4.95368 93.47 10.0303 97.6117 16.0111 99.1571C18.0819 99.6903 20.3691 99.9839 23.3054 100.123C24.5495 100.177 37.2295 100.216 49.9173 100.216C62.6051 100.216 75.2929 100.2 76.5061 100.138C79.906 99.9785 81.8802 99.7134 84.0631 99.1494C90.0825 97.5962 95.0664 93.5164 97.7786 87.922C99.1424 85.1094 99.834 82.374 100.147 78.4046C100.215 77.5392 100.244 63.741 100.244 49.9614C100.244 36.1794 100.213 22.4067 100.145 21.5413C99.8278 17.5078 99.1362 14.7956 97.7284 11.9289C96.5732 9.58218 95.2905 7.82969 93.4283 6.03779C90.1049 2.86352 86.0405 0.931761 81.1971 0.233237C78.8504 -0.10598 78.3829 -0.206432 66.3751 -0.227295H50.0247Z" fill="url(#paint1_radial_175_526)"/>
<path d="M50.0015 12.9087C39.9286 12.9087 38.6644 12.9527 34.7082 13.1328C30.7597 13.3136 28.0645 13.9387 25.7062 14.8559C23.2668 15.8032 21.1975 17.0705 19.1359 19.1328C17.0728 21.1944 15.8055 23.2637 14.8551 25.7023C13.9356 28.0614 13.3097 30.7574 13.132 34.7043C12.955 38.6606 12.9087 39.9255 12.9087 49.9985C12.9087 60.0714 12.9535 61.3317 13.1328 65.288C13.3143 69.2365 13.9395 71.9317 14.8559 74.29C15.804 76.7294 17.0712 78.7987 19.1336 80.8603C21.1944 82.9234 23.2637 84.1937 25.7016 85.141C28.0614 86.0583 30.7574 86.6834 34.7051 86.8642C38.6613 87.0442 39.9247 87.0883 49.9969 87.0883C60.0706 87.0883 61.3309 87.0442 65.2872 86.8642C69.2357 86.6834 71.934 86.0583 74.2938 85.141C76.7325 84.1937 78.7987 82.9234 80.8595 80.8603C82.9226 78.7987 84.1898 76.7294 85.1402 74.2907C86.052 71.9317 86.6779 69.2357 86.8634 65.2887C87.0411 61.3325 87.0875 60.0714 87.0875 49.9985C87.0875 39.9255 87.0411 38.6614 86.8634 34.7051C86.6779 30.7566 86.052 28.0614 85.1402 25.7031C84.1898 23.2637 82.9226 21.1944 80.8595 19.1328C78.7964 17.0697 76.7332 15.8025 74.2915 14.8559C71.927 13.9387 69.2303 13.3136 65.2818 13.1328C61.3255 12.9527 60.066 12.9087 49.99 12.9087H50.0015ZM46.6743 19.5926C47.6618 19.591 48.7637 19.5926 50.0015 19.5926C59.9045 19.5926 61.0783 19.6281 64.9889 19.8058C68.6052 19.9712 70.5678 20.5755 71.8752 21.0831C73.6061 21.7554 74.8401 22.559 76.1375 23.8571C77.4356 25.1553 78.2392 26.3916 78.913 28.1225C79.4207 29.4283 80.0257 31.391 80.1903 35.0072C80.368 38.9171 80.4067 40.0916 80.4067 49.99C80.4067 59.8883 80.368 61.0628 80.1903 64.9727C80.0249 68.589 79.4207 70.5516 78.913 71.8575C78.2408 73.5884 77.4356 74.8208 76.1375 76.1182C74.8393 77.4163 73.6069 78.2199 71.8752 78.8922C70.5694 79.4022 68.6052 80.0049 64.9889 80.1702C61.079 80.348 59.9045 80.3866 50.0015 80.3866C40.0978 80.3866 38.9241 80.348 35.0142 80.1702C31.3979 80.0033 29.4353 79.3991 28.1271 78.8914C26.3962 78.2192 25.1599 77.4156 23.8617 76.1174C22.5636 74.8193 21.76 73.586 21.0862 71.8544C20.5785 70.5485 19.9735 68.5859 19.8089 64.9696C19.6312 61.0597 19.5956 59.8852 19.5956 49.9807C19.5956 40.0762 19.6312 38.9079 19.8089 34.998C19.9743 31.3817 20.5785 29.4191 21.0862 28.1116C21.7584 26.3808 22.5636 25.1445 23.8617 23.8463C25.1599 22.5482 26.3962 21.7446 28.1271 21.0708C29.4345 20.5608 31.3979 19.9581 35.0142 19.7919C38.4357 19.6374 39.7617 19.591 46.6743 19.5833V19.5926ZM69.7998 25.751C67.3426 25.751 65.349 27.7423 65.349 30.2003C65.349 32.6575 67.3426 34.651 69.7998 34.651C72.257 34.651 74.2505 32.6575 74.2505 30.2003C74.2505 27.7431 72.257 25.7495 69.7998 25.7495V25.751ZM50.0015 30.9513C39.4827 30.9513 30.9544 39.4797 30.9544 49.9985C30.9544 60.5173 39.4827 69.0418 50.0015 69.0418C60.5204 69.0418 69.0456 60.5173 69.0456 49.9985C69.0456 39.4797 60.5204 30.9513 50.0015 30.9513ZM50.0015 37.6352C56.8292 37.6352 62.3648 43.1701 62.3648 49.9985C62.3648 56.8261 56.8292 62.3617 50.0015 62.3617C43.1732 62.3617 37.6383 56.8261 37.6383 49.9985C37.6383 43.1701 43.1732 37.6352 50.0015 37.6352Z" fill="white"/>
</g>
</g>
<defs>
<radialGradient id="paint0_radial_175_526" cx="0" cy="0" r="1" gradientUnits="userSpaceOnUse" gradientTransform="translate(26.4607 107.952) rotate(-90) scale(99.5464 92.6113)">
<stop stop-color="#FFDD55"/>
<stop offset="0.1" stop-color="#FFDD55"/>
<stop offset="0.5" stop-color="#FF543E"/>
<stop offset="1" stop-color="#C837AB"/>
</radialGradient>
<radialGradient id="paint1_radial_175_526" cx="0" cy="0" r="1" gradientUnits="userSpaceOnUse" gradientTransform="translate(-17.0562 7.00845) rotate(78.6776) scale(44.4981 183.469)">
<stop stop-color="#3771C8"/>
<stop offset="0.128" stop-color="#3771C8"/>
<stop offset="1" stop-color="#6600FF" stop-opacity="0"/>
</radialGradient>
<clipPath id="clip0_175_526">
<rect width="100" height="100" rx="24" fill="white"/>
</clipPath>
<clipPath id="clip1_175_526">
<rect width="102" height="101.997" fill="white" transform="translate(-1 -1)"/>
</clipPath>
</defs>
</svg>
