<svg width="100" height="100" viewBox="0 0 100 100" fill="none" xmlns="http://www.w3.org/2000/svg">
<rect width="100" height="100" rx="24" fill="white"/>
<g clip-path="url(#clip0_175_910)">
<path d="M50.5 8C26.5619 8 8 25.5419 8 49.225C8 61.6138 13.0787 72.3238 21.345 79.7188C22.0356 80.335 22.4606 81.2063 22.4819 82.1413L22.7156 89.7063C22.7326 90.2629 22.8861 90.8068 23.1626 91.2902C23.439 91.7736 23.83 92.1817 24.3011 92.4787C24.7722 92.7756 25.3091 92.9523 25.8644 92.9932C26.4198 93.034 26.9767 92.9379 27.4862 92.7131L35.9225 88.9944C36.6344 88.6756 37.4419 88.6225 38.1963 88.8244C42.0744 89.8869 46.1969 90.4606 50.5 90.4606C74.4381 90.4606 93 72.9188 93 49.2356C93 25.5525 74.4381 8 50.5 8Z" fill="url(#paint0_radial_175_910)"/>
<path d="M24.9787 61.2843L37.4631 41.4793C37.9328 40.7337 38.5519 40.0935 39.2814 39.5992C40.011 39.1049 40.8351 38.7672 41.7017 38.6074C42.5683 38.4477 43.4586 38.4694 44.3165 38.6711C45.1743 38.8728 45.981 39.2501 46.6856 39.7793L56.62 47.2274C57.0635 47.5595 57.6031 47.738 58.1571 47.7361C58.7111 47.7342 59.2494 47.5519 59.6906 47.2168L73.0994 37.038C74.8844 35.678 77.2219 37.8243 76.0319 39.7262L63.5369 59.5205C63.0672 60.2662 62.4481 60.9064 61.7186 61.4007C60.989 61.895 60.1649 62.2327 59.2983 62.3924C58.4317 62.5521 57.5414 62.5305 56.6835 62.3288C55.8257 62.1271 55.019 61.7497 54.3144 61.2205L44.38 53.7724C43.9365 53.4404 43.3969 53.2618 42.8429 53.2637C42.2889 53.2657 41.7506 53.448 41.3094 53.783L27.9006 63.9618C26.1156 65.3218 23.7781 63.1862 24.9787 61.2843Z" fill="white"/>
</g>
<defs>
<radialGradient id="paint0_radial_175_910" cx="0" cy="0" r="1" gradientUnits="userSpaceOnUse" gradientTransform="translate(22.2375 93) scale(93.5 93.5)">
<stop stop-color="#0099FF"/>
<stop offset="0.6" stop-color="#A033FF"/>
<stop offset="0.9" stop-color="#FF5280"/>
<stop offset="1" stop-color="#FF7061"/>
</radialGradient>
<clipPath id="clip0_175_910">
<rect width="85" height="85" fill="white" transform="translate(8 8)"/>
</clipPath>
</defs>
</svg>
