<svg width="100" height="100" viewBox="0 0 100 100" fill="none" xmlns="http://www.w3.org/2000/svg">
<rect width="100" height="100" rx="24" fill="#00D8FF"/>
<path d="M76.8871 36.5118C76.0053 36.2083 75.0916 35.9211 74.1508 35.6495C74.3055 35.0184 74.4474 34.3955 74.5735 33.7832C76.6448 23.729 75.2906 15.6292 70.6661 12.9624C66.2318 10.4053 58.9799 13.0715 51.6559 19.4454C50.9516 20.0583 50.2453 20.7072 49.5393 21.3873C49.069 20.9374 48.5993 20.5025 48.1309 20.0866C40.4551 13.2712 32.7612 10.3991 28.1413 13.0736C23.7113 15.6381 22.3993 23.2527 24.2638 32.7812C24.4439 33.7015 24.6543 34.6414 24.8923 35.597C23.8034 35.9061 22.7522 36.2356 21.7463 36.5862C12.7472 39.7237 7 44.6409 7 49.7413C7 55.0091 13.1697 60.2928 22.5429 63.4965C23.2826 63.7493 24.0502 63.9884 24.8412 64.2153C24.5844 65.2489 24.3611 66.2617 24.1736 67.2495C22.3959 76.6126 23.7842 84.0473 28.2024 86.5956C32.766 89.2273 40.4251 86.5222 47.8831 80.0031C48.4725 79.4877 49.0641 78.9413 49.6567 78.3684C50.4249 79.1081 51.1918 79.8082 51.9547 80.4648C59.1786 86.6812 66.3134 89.1914 70.7275 86.636C75.2866 83.9967 76.7683 76.0101 74.8447 66.2931C74.6978 65.551 74.5268 64.7928 74.3348 64.0212C74.8727 63.8622 75.4007 63.698 75.9156 63.5274C85.66 60.2988 92 55.0795 92 49.7413C92 44.6224 86.0674 39.6721 76.8871 36.5118ZM74.7736 60.0806C74.3088 60.2345 73.8319 60.3832 73.3459 60.5274C72.2702 57.1218 70.8183 53.5005 69.0416 49.759C70.7371 46.1067 72.1328 42.5316 73.1784 39.1481C74.0479 39.3997 74.8919 39.6651 75.7051 39.9452C83.5708 42.653 88.3688 46.6565 88.3688 49.7413C88.3688 53.0272 83.1871 57.2928 74.7736 60.0806ZM71.2825 66.9983C72.1331 71.2951 72.2546 75.1798 71.6912 78.2167C71.1849 80.9455 70.1668 82.7649 68.908 83.4935C66.2293 85.044 60.5008 83.0286 54.3228 77.7122C53.6146 77.1028 52.9012 76.4521 52.1856 75.7634C54.5806 73.1439 56.9743 70.0987 59.3105 66.7168C63.4196 66.3521 67.3018 65.756 70.8224 64.9422C70.9958 65.6416 71.1498 66.3276 71.2825 66.9983ZM35.9784 83.2256C33.3613 84.1499 31.2768 84.1763 30.0168 83.4498C27.3356 81.9034 26.221 75.934 27.7414 67.9267C27.9156 67.0097 28.1228 66.0677 28.3617 65.1048C31.8437 65.8748 35.6975 66.4288 39.8164 66.7628C42.1684 70.0721 44.6312 73.114 47.1131 75.7774C46.5709 76.3009 46.0307 76.7993 45.4936 77.2689C42.1957 80.1516 38.8909 82.1969 35.9784 83.2256ZM23.7173 60.0605C19.5726 58.6439 16.1498 56.8027 13.8036 54.7936C11.6954 52.9882 10.631 51.1958 10.631 49.7413C10.631 46.6462 15.2455 42.6984 22.9416 40.0151C23.8754 39.6895 24.853 39.3827 25.8674 39.0944C26.9311 42.5543 28.3263 46.1717 30.0101 49.8297C28.3045 53.542 26.8894 57.217 25.8154 60.7175C25.0922 60.5096 24.3915 60.2908 23.7173 60.0605ZM27.8273 32.0838C26.2299 23.9201 27.2908 17.7616 29.9605 16.2162C32.8042 14.5699 39.0923 16.9172 45.7198 22.802C46.1434 23.1781 46.5687 23.5718 46.9952 23.9791C44.5256 26.6309 42.0853 29.6499 39.7542 32.9397C35.7566 33.3103 31.93 33.9055 28.4117 34.7025C28.1905 33.8127 27.9945 32.9385 27.8273 32.0838ZM64.4925 41.1374C63.6514 39.6846 62.788 38.2662 61.9077 36.8865C64.6198 37.2294 67.2182 37.6845 69.6583 38.2414C68.9257 40.5893 68.0126 43.0441 66.9378 45.5606C66.1668 44.0968 65.3513 42.6209 64.4925 41.1374ZM49.5405 26.5741C51.2154 28.3887 52.8927 30.4146 54.5425 32.6126C52.88 32.5341 51.197 32.4933 49.5 32.4933C47.8191 32.4933 46.1484 32.5332 44.4962 32.6104C46.1477 30.4327 47.8395 28.4095 49.5405 26.5741ZM34.4928 41.1625C33.6527 42.6194 32.8523 44.0873 32.0934 45.5579C31.0359 43.0501 30.1313 40.5841 29.3924 38.203C31.8176 37.6603 34.4037 37.2165 37.0985 36.8802C36.2058 38.2726 35.3352 39.7017 34.4928 41.1625ZM37.1761 62.8615C34.3919 62.5509 31.7669 62.13 29.3423 61.6022C30.093 59.1786 31.0176 56.6599 32.0975 54.0981C32.8583 55.5677 33.6619 57.0362 34.5072 58.4962C35.3682 59.9837 36.2604 61.4407 37.1761 62.8615ZM49.641 73.1645C47.92 71.3076 46.2034 69.2536 44.5268 67.0442C46.1543 67.108 47.8136 67.1407 49.5 67.1407C51.2325 67.1407 52.9452 67.1017 54.631 67.0266C52.9758 69.2758 51.3045 71.333 49.641 73.1645ZM66.9724 53.9676C68.1085 56.557 69.0663 59.0625 69.8267 61.4449C67.3622 62.0071 64.7013 62.46 61.8977 62.7964C62.7801 61.3981 63.6511 59.9554 64.507 58.4713C65.3729 56.9698 66.1951 55.466 66.9724 53.9676ZM61.3617 56.6572C60.033 58.961 58.6689 61.1603 57.284 63.2363C54.7617 63.4166 52.1559 63.5095 49.5 63.5095C46.8548 63.5095 44.2819 63.4274 41.8042 63.2665C40.3635 61.1633 38.9698 58.9575 37.6495 56.677C36.3328 54.4027 35.1212 52.1092 34.023 49.8285C35.1209 47.5425 36.3296 45.2464 37.6388 42.9762L37.6385 42.9766C38.9511 40.7003 40.3327 38.5053 41.76 36.4152C44.2879 36.2241 46.8801 36.1244 49.4998 36.1244C52.1314 36.1244 54.7271 36.2249 57.2542 36.4176C58.6598 38.4924 60.0319 40.6803 61.3497 42.9569C62.6825 45.2591 63.9068 47.5399 65.014 49.7769C63.9102 52.0523 62.6886 54.3561 61.3617 56.6572ZM68.8523 16.1082C71.6987 17.7496 72.8056 24.3696 71.0173 33.0503C70.9032 33.6042 70.7747 34.1684 70.6352 34.7402C67.1088 33.9265 63.2794 33.321 59.2701 32.9449C56.9345 29.6189 54.5142 26.5952 52.0848 23.9774C52.7379 23.3491 53.3902 22.7499 54.0397 22.1845C60.315 16.7234 66.1801 14.5672 68.8523 16.1082ZM49.5 42.1511C53.6919 42.1511 57.0902 45.5493 57.0902 49.7413C57.0902 53.9332 53.6919 57.3315 49.5 57.3315C45.3081 57.3315 41.9098 53.9332 41.9098 49.7413C41.9098 45.5493 45.3081 42.1511 49.5 42.1511Z" fill="white"/>
</svg>
