<svg width="100" height="100" viewBox="0 0 100 100" fill="none" xmlns="http://www.w3.org/2000/svg">
<rect width="100" height="100" rx="24" fill="#1F2328"/>
<path fill-rule="evenodd" clip-rule="evenodd" d="M50.2524 9C26.908 9 8 27.908 8 51.2524C8 69.9491 20.0948 85.741 36.8901 91.3394C39.0027 91.7091 39.795 90.4416 39.795 89.3324C39.795 88.3289 39.7421 85.0016 39.7421 81.4629C29.1262 83.4171 26.3798 78.8749 25.5348 76.4983C25.0594 75.2835 22.9996 71.5336 21.2039 70.5301C19.725 69.7379 17.6124 67.7837 21.1511 67.7309C24.4784 67.6781 26.8551 70.7942 27.6474 72.0617C31.4501 78.4524 37.5239 76.6567 39.9534 75.5476C40.3231 72.8012 41.4322 70.9526 42.647 69.8963C33.2458 68.84 23.4221 65.1957 23.4221 49.0342C23.4221 44.4392 25.0594 40.6365 27.753 37.6788C27.3305 36.6225 25.8517 32.2916 28.1755 26.4819C28.1755 26.4819 31.7142 25.3728 39.795 30.8128C43.1751 29.8621 46.7666 29.3868 50.3581 29.3868C53.9495 29.3868 57.541 29.8621 60.9212 30.8128C69.0019 25.32 72.5406 26.4819 72.5406 26.4819C74.8645 32.2916 73.3856 36.6225 72.9631 37.6788C75.6567 40.6365 77.294 44.3864 77.294 49.0342C77.294 65.2485 67.4175 68.84 58.0163 69.8963C59.548 71.2167 60.8684 73.7518 60.8684 77.713C60.8684 83.3643 60.8155 87.9064 60.8155 89.3324C60.8155 90.4416 61.6078 91.7619 63.7204 91.3394C80.4101 85.741 92.5049 69.8963 92.5049 51.2524C92.5049 27.908 73.5969 9 50.2524 9Z" fill="white"/>
</svg>
