<svg width="100" height="100" viewBox="0 0 100 100" fill="none" xmlns="http://www.w3.org/2000/svg">
<rect width="100" height="100" rx="24" fill="#107C10"/>
<path d="M46.2618 91.8725C39.7139 91.2452 33.085 88.8939 27.3906 85.1784C22.6189 82.0664 21.5421 80.7851 21.5421 78.2313C21.5421 73.101 27.1831 64.1139 36.8351 53.8712C42.3151 48.0523 49.9497 41.2357 50.7747 41.4194C52.381 41.778 65.2141 54.296 70.0193 60.1899C77.6164 69.506 81.1078 77.1367 79.3335 80.5381C77.9849 83.1235 69.6153 88.1777 63.4675 90.1189C58.3994 91.7194 51.7438 92.3971 46.2618 91.8725ZM15.0969 72.8975C11.1314 66.8139 9.1279 60.8251 8.16171 52.1631C7.84163 49.303 7.95425 47.668 8.88586 41.7958C10.0447 34.4852 14.2107 26.0187 19.2195 20.8124C21.3514 18.5995 21.5411 18.5402 24.1413 19.4194C27.2928 20.4864 30.6616 22.8139 35.8877 27.5401L38.9404 30.3004L37.2708 32.3454C29.5373 41.8393 21.3751 55.3046 18.3027 63.6328C16.6331 68.1575 15.9613 72.7019 16.6825 74.5938C17.1666 75.8722 16.722 75.396 15.092 72.9005L15.0969 72.8975ZM84.6988 73.9319C85.091 72.0193 84.5951 68.5082 83.4343 64.9655C80.9201 57.2943 72.5138 43.0238 64.7952 33.3205L62.3649 30.2658L64.9948 27.8523C68.4268 24.7009 70.8097 22.8139 73.3822 21.2105C75.4104 19.946 78.31 18.8267 79.5567 18.8267C80.3243 18.8267 83.0303 21.6423 85.2136 24.7048C88.5962 29.4468 91.0838 35.2064 92.3444 41.1932C93.1594 45.0658 93.2276 53.3446 92.4758 57.2074C91.8534 60.3766 90.5493 64.4844 89.2848 67.2713C88.3265 69.3588 85.9654 73.4142 84.928 74.7341C84.3946 75.4128 84.3946 75.4118 84.6909 73.9477L84.6988 73.9319ZM46.9633 17.3784C43.4008 15.5705 37.906 13.6292 34.8711 13.1056C33.8081 12.9229 31.9933 12.8191 30.8404 12.8784C28.335 13.0049 28.4467 12.8745 32.4636 10.9767C35.8027 9.39897 38.5887 8.47131 42.3724 7.67702C46.6254 6.78296 54.6226 6.77308 58.8084 7.65529C63.3282 8.60863 68.6521 10.5894 71.6514 12.4368L72.5445 12.9841L70.4995 12.8814C66.4332 12.6759 60.5076 14.3188 54.1454 17.413C52.2269 18.3475 50.5593 19.0924 50.4368 19.0727C50.3153 19.049 48.7514 18.2873 46.9593 17.3784H46.9633Z" fill="white"/>
</svg>
