<svg width="100" height="100" viewBox="0 0 100 100" fill="none" xmlns="http://www.w3.org/2000/svg">
<rect width="100" height="100" rx="24" fill="#17161F"/>
<path d="M22.5829 79.8954L8.41713 69.2705C7.97546 68.9424 7.61704 68.5147 7.37088 68.0229C7.12472 67.5306 6.99769 66.9877 7.00003 66.4376V34.5624C6.99769 34.0122 7.12472 33.4691 7.37088 32.977C7.61704 32.4849 7.97546 32.0576 8.41713 31.7295L22.5829 21.1045C22.2024 21.4618 21.9148 21.9066 21.7452 22.4003C21.5755 22.894 21.5289 23.4216 21.6094 23.9374V77.0625C21.5289 77.5784 21.5755 78.1059 21.7452 78.5996C21.9148 79.0934 22.2024 79.538 22.5829 79.8954Z" fill="#5E438F"/>
<path d="M90.4231 22.7515C89.8398 22.3681 89.1562 22.1649 88.4578 22.1672C88.0055 22.1635 87.5565 22.2491 87.1369 22.4192C86.7179 22.5892 86.3363 22.8402 86.0141 23.1579L85.767 23.4063L70.7137 37.8391L57.5045 50.5001L41.8671 65.4988L27.3998 79.3642L27.1514 79.6127C26.8296 79.9307 26.448 80.1821 26.0286 80.3526C25.6092 80.5227 25.1603 80.6084 24.7077 80.6046C23.9415 80.6031 23.1962 80.3546 22.5827 79.8955L8.41687 69.2706C9.13654 69.811 10.0353 70.0572 10.93 69.9584C11.8247 69.8597 12.6481 69.4237 13.2327 68.7392L21.1669 59.5315L28.9577 50.4828L41.8671 35.5015L64.481 9.23914C64.8095 8.85022 65.2189 8.53779 65.6809 8.32374C66.1424 8.10969 66.6457 7.9992 67.1544 8.00002C67.8529 7.99776 68.5364 8.20099 69.1203 8.5844L90.4231 22.7515Z" fill="url(#paint0_linear_175_676)"/>
<path d="M90.4231 78.2487L69.1733 92.4161C68.4507 92.8881 67.5817 93.0832 66.7262 92.9662C65.8707 92.8491 65.0865 92.4276 64.5171 91.7783L41.8671 65.4989L28.9577 50.483L21.1669 41.4517L13.2327 32.2425C12.6429 31.5649 11.8187 31.1355 10.9254 31.0404C10.0322 30.9453 9.13605 31.1916 8.41687 31.7298L22.5827 21.1048C23.1962 20.6459 23.9415 20.3971 24.7077 20.3956C25.1603 20.3918 25.6092 20.4775 26.0286 20.6478C26.448 20.818 26.8296 21.0695 27.1514 21.3877L27.3998 21.6361L41.8671 35.5017L57.5045 50.5002L70.7325 63.18L85.767 77.594L86.0141 77.8426C86.3363 78.16 86.7179 78.411 87.1369 78.5811C87.5565 78.7511 88.0055 78.8368 88.4578 78.833C89.1562 78.8354 89.8398 78.6321 90.4231 78.2487Z" fill="url(#paint1_linear_175_676)"/>
<path d="M92.0002 25.7077V75.2919C92.0007 75.8767 91.8571 76.4518 91.5821 76.9677C91.307 77.4831 90.9091 77.9234 90.4236 78.2486L69.1732 92.4155C69.6593 92.0903 70.0572 91.6501 70.3317 91.1341C70.6068 90.6182 70.7503 90.0426 70.7498 89.4578V11.5419C70.7421 10.9531 70.5894 10.3751 70.3052 9.85926C70.021 9.3434 69.614 8.90549 69.1202 8.58423L90.4236 22.7513C90.9077 23.0778 91.3046 23.518 91.5797 24.0334C91.8542 24.5488 91.9988 25.1237 92.0002 25.7077Z" fill="url(#paint2_linear_175_676)"/>
<defs>
<linearGradient id="paint0_linear_175_676" x1="76.0621" y1="8" x2="12.9455" y2="71.5254" gradientUnits="userSpaceOnUse">
<stop stop-color="#7252AA"/>
<stop offset="1" stop-color="#7252AA"/>
</linearGradient>
<linearGradient id="paint1_linear_175_676" x1="14.9688" y1="23.4944" x2="74.2914" y2="89.9001" gradientUnits="userSpaceOnUse">
<stop stop-color="#AE7FE2"/>
<stop offset="1" stop-color="#9A70D4"/>
</linearGradient>
<linearGradient id="paint2_linear_175_676" x1="80.3083" y1="6.87491" x2="80.3083" y2="92.3442" gradientUnits="userSpaceOnUse">
<stop stop-color="#D59DFF"/>
<stop offset="1" stop-color="#C18EF1"/>
</linearGradient>
</defs>
</svg>
