<svg width="100" height="100" viewBox="0 0 100 100" fill="none" xmlns="http://www.w3.org/2000/svg">
<rect width="100" height="100" rx="24" fill="white"/>
<path d="M57.6343 32.735C57.6343 39.2951 55.0197 45.5866 50.3656 50.2253C45.7114 54.864 39.3991 57.47 32.8172 57.47C26.2352 57.47 19.9229 54.864 15.2688 50.2253C10.6147 45.5866 8 39.2951 8 32.735C8 26.1749 10.6147 19.8834 15.2688 15.2447C19.9229 10.606 26.2352 8 32.8172 8C39.3991 8 45.7114 10.606 50.3656 15.2447C55.0197 19.8834 57.6343 26.1749 57.6343 32.735Z" fill="url(#paint0_linear_175_1048)"/>
<path d="M92.2208 68.2564C92.2208 71.5058 91.5787 74.7233 90.3311 77.7254C89.0835 80.7274 87.2548 83.4551 84.9496 85.7527C82.6443 88.0504 79.9075 89.873 76.8955 91.1164C73.8835 92.3599 70.6553 92.9999 67.3952 92.9999C60.811 92.9999 54.4965 90.393 49.8408 85.7527C45.185 81.1124 42.5695 74.8188 42.5695 68.2564C42.5695 61.6941 45.185 55.4004 49.8408 50.7601C54.4965 46.1198 60.811 43.5129 67.3952 43.5129C70.6553 43.5129 73.8835 44.1529 76.8955 45.3964C79.9075 46.6399 82.6443 48.4625 84.9496 50.7601C87.2548 53.0578 89.0835 55.7855 90.3311 58.7875C91.5787 61.7895 92.2208 65.0071 92.2208 68.2564Z" fill="url(#paint1_linear_175_1048)"/>
<path opacity="0.05" fill-rule="evenodd" clip-rule="evenodd" d="M8.09067 34.8516C8.47614 39.5251 10.178 43.9937 12.999 47.7396C15.8201 51.4856 19.6448 54.3555 24.03 56.0168C28.4153 57.6781 33.1815 58.0628 37.7764 57.1263C42.3713 56.1899 46.6068 53.9706 49.9921 50.7256C53.3775 47.4806 55.774 43.3428 56.9041 38.7917C58.0341 34.2405 57.8514 29.4623 56.3772 25.0107C54.9029 20.5591 52.1975 16.6163 48.5743 13.6393C44.9511 10.6623 40.5585 8.77284 35.9055 8.18994C29.5876 10.3034 23.8165 13.7904 19.0071 18.4004C14.1977 23.0104 10.4695 28.6288 8.09067 34.8516Z" fill="black"/>
<path opacity="0.05" fill-rule="evenodd" clip-rule="evenodd" d="M92.1557 66.4799C91.8315 61.7495 90.1593 57.2108 87.3369 53.4008C84.5144 49.5908 80.6598 46.6689 76.229 44.9807C71.7981 43.2925 66.9765 42.9086 62.3344 43.8745C57.6922 44.8404 53.4238 47.1156 50.0341 50.431C46.6444 53.7464 44.2751 57.9633 43.2066 62.5829C42.1381 67.2025 42.415 72.0315 44.0045 76.4986C45.5941 80.9658 48.4299 84.8842 52.1764 87.7904C55.9229 90.6966 60.4234 92.469 65.1455 92.8979C71.2908 90.7098 76.8881 87.2144 81.5513 82.6529C86.2145 78.0915 89.8325 72.5754 92.1557 66.4799Z" fill="black"/>
<path opacity="0.1" fill-rule="evenodd" clip-rule="evenodd" d="M9.25235 40.5069C10.5559 44.4945 12.8494 48.0864 15.9185 50.9466C18.9876 53.8068 22.732 55.8419 26.8015 56.8615C30.8709 57.8811 35.1325 57.852 39.1876 56.7769C43.2428 55.7017 46.959 53.6156 49.9887 50.7138C53.0184 47.8119 55.2627 44.189 56.5116 40.184C57.7605 36.1789 57.9732 31.9226 57.1299 27.813C56.2865 23.7034 54.4147 19.8748 51.6894 16.6853C48.9641 13.4958 45.4744 11.0496 41.5467 9.57544C33.8065 11.188 26.6751 14.9427 20.9653 20.4116C15.2554 25.8804 11.1969 32.8434 9.25235 40.5069Z" fill="black"/>
<path opacity="0.1" fill-rule="evenodd" clip-rule="evenodd" d="M91.028 60.6659C89.7436 56.6311 87.4482 52.9921 84.3601 50.0952C81.2719 47.1982 77.4939 45.1396 73.3854 44.1154C69.2769 43.0911 64.9746 43.1352 60.8879 44.2435C56.8013 45.3517 53.0662 47.4873 50.0381 50.4469C47.01 53.4066 44.7896 57.0919 43.5882 61.1521C42.3868 65.2124 42.2444 69.5125 43.1744 73.6434C44.1045 77.7742 46.0762 81.5983 48.9018 84.7519C51.7274 87.9054 55.313 90.2835 59.3173 91.6598C66.9584 89.9449 73.9715 86.1376 79.5719 80.6638C85.1723 75.19 89.139 68.2658 91.028 60.6659Z" fill="black"/>
<path opacity="0.1" fill-rule="evenodd" clip-rule="evenodd" d="M10.1647 42.8527C11.7794 46.4911 14.2462 49.6874 17.3566 52.1714C20.4671 54.6554 24.1298 56.3542 28.0352 57.1243C31.9406 57.8943 35.974 57.713 39.7946 56.5956C43.6151 55.4781 47.1106 53.4575 49.9855 50.7044C52.8605 47.9512 55.0305 44.5465 56.3122 40.7778C57.5939 37.0092 57.9496 32.9875 57.3493 29.0524C56.7489 25.1173 55.2102 21.3845 52.8631 18.1695C50.516 14.9545 47.4295 12.3517 43.8643 10.5811C35.6194 11.8644 27.967 15.6471 21.9404 21.4183C15.9139 27.1894 11.8036 34.6711 10.1647 42.8527Z" fill="black"/>
<path opacity="0.1" fill-rule="evenodd" clip-rule="evenodd" d="M90.1128 58.2718C88.5064 54.5912 86.0304 51.3556 82.8977 48.843C79.765 46.3304 76.0691 44.6158 72.1275 43.8466C68.186 43.0773 64.1167 43.2765 60.2691 44.4268C56.4214 45.5772 52.9106 47.6444 50.0382 50.4509C47.1657 53.2574 45.0175 56.7193 43.7781 60.5391C42.5386 64.3589 42.245 68.4226 42.9225 72.3809C43.5999 76.3393 45.2282 80.074 47.6674 83.2642C50.1065 86.4545 53.2837 89.0049 56.926 90.6965C65.0987 89.3078 72.6537 85.4602 78.5831 79.6668C84.5126 73.8735 88.5347 66.41 90.1128 58.2718Z" fill="black"/>
<path d="M89.4215 50.6841C89.4215 55.8288 88.4048 60.9231 86.4294 65.6763C84.4541 70.4294 81.5588 74.7482 77.9088 78.386C74.2588 82.0239 69.9257 84.9096 65.1567 86.8784C60.3878 88.8472 55.2765 89.8606 50.1147 89.8606C44.9528 89.8606 39.8415 88.8472 35.0726 86.8784C30.3037 84.9096 25.9705 82.0239 22.3205 78.386C18.6706 74.7482 15.7752 70.4294 13.7999 65.6763C11.8245 60.9231 10.8078 55.8288 10.8078 50.6841C10.8078 45.5393 11.8245 40.445 13.7999 35.6919C15.7752 30.9388 18.6706 26.62 22.3205 22.9821C25.9705 19.3442 30.3037 16.4585 35.0726 14.4897C39.8415 12.5209 44.9528 11.5076 50.1147 11.5076C55.2765 11.5076 60.3878 12.5209 65.1567 14.4897C69.9257 16.4585 74.2588 19.3442 77.9088 22.9821C81.5588 26.62 84.4541 30.9388 86.4294 35.6919C88.4048 40.445 89.4215 45.5393 89.4215 50.6841Z" fill="url(#paint2_linear_175_1048)"/>
<path fill-rule="evenodd" clip-rule="evenodd" d="M39.0618 49.3241C37.4734 48.2786 36.1479 46.8804 35.1886 45.2385C34.2626 43.5037 33.8055 41.5572 33.8627 39.5916C33.7925 37.0971 34.6438 34.6641 36.254 32.7576C37.9274 30.8431 40.0781 29.406 42.4873 28.5926C45.1076 27.6669 47.8684 27.202 50.6473 27.2185C52.4655 27.2013 54.2817 27.3406 56.076 27.635C57.3603 27.8333 58.6216 28.1588 59.8415 28.6068C60.9616 28.9859 61.9728 29.6316 62.7882 30.4881C63.3889 31.1929 63.7122 32.0924 63.6977 33.0183C63.7191 33.4993 63.6455 33.9799 63.4812 34.4325C63.3169 34.8851 63.065 35.3009 62.74 35.6561C62.4324 35.9835 62.0591 36.2421 61.6445 36.415C61.23 36.5878 60.7835 36.671 60.3345 36.6591C59.7167 36.654 59.1071 36.5168 58.5467 36.2568C57.1653 35.6385 55.7423 35.1178 54.2882 34.6985C52.9496 34.3455 51.5697 34.174 50.1855 34.1885C48.3814 34.1221 46.5965 34.5786 45.0458 35.5031C44.3914 35.9007 43.8559 36.4668 43.495 37.1421C43.1342 37.8175 42.9613 38.5773 42.9945 39.3423C42.985 40.3466 43.3671 41.3152 44.0598 42.0425C44.883 42.8968 45.8558 43.593 46.93 44.0966C48.1332 44.6935 49.9277 45.485 52.3133 46.471C52.5775 46.5546 52.8351 46.6579 53.084 46.7798C55.4121 47.7007 57.6441 48.8481 59.748 50.2053C61.4096 51.2887 62.8107 52.7265 63.8507 54.4156C64.8747 56.1909 65.3876 58.2149 65.3325 60.2636C65.4184 62.7721 64.6996 65.2423 63.2812 67.313C61.8367 69.2735 59.8384 70.7567 57.5437 71.5715C54.7779 72.5596 51.8554 73.0358 48.919 72.9768C44.8839 73.118 40.8681 72.3582 37.1635 70.7526C36.2164 70.3308 35.386 69.6852 34.7438 68.8713C34.2106 68.1254 33.9342 67.2265 33.9562 66.31C33.9297 65.8265 34.0084 65.3431 34.187 64.8931C34.3655 64.443 34.6396 64.0371 34.9903 63.7033C35.7255 63.0595 36.68 62.7227 37.6565 62.7626C38.7445 62.7774 39.8131 63.0524 40.7732 63.5645C41.9669 64.1613 42.9085 64.609 43.598 64.9075C44.3854 65.2371 45.2009 65.495 46.0347 65.6781C47.0627 65.9036 48.113 66.012 49.1655 66.0011C51.0267 66.134 52.8789 65.6403 54.427 64.5986C55.0065 64.1451 55.4697 63.5601 55.7781 62.892C56.0866 62.2239 56.2314 61.4919 56.2006 60.7566C56.2024 59.7141 55.805 58.7104 55.09 57.9516C54.1451 56.9761 53.039 56.171 51.8203 55.5716C50.3791 54.8123 48.3523 53.8867 45.74 52.795C43.4036 51.8639 41.1664 50.7012 39.0618 49.3241Z" fill="white"/>
<defs>
<linearGradient id="paint0_linear_175_1048" x1="28.9468" y1="8.30033" x2="36.6875" y2="57.1697" gradientUnits="userSpaceOnUse">
<stop offset="0.012" stop-color="#00B7F0"/>
<stop offset="0.339" stop-color="#009DE5"/>
<stop offset="0.755" stop-color="#0082D9"/>
<stop offset="1" stop-color="#0078D4"/>
</linearGradient>
<linearGradient id="paint1_linear_175_1048" x1="45.9072" y1="80.6608" x2="88.8803" y2="55.8521" gradientUnits="userSpaceOnUse">
<stop stop-color="#0078D4"/>
<stop offset="0.37" stop-color="#007AD5"/>
<stop offset="0.573" stop-color="#0082D9"/>
<stop offset="0.735" stop-color="#0090DF"/>
<stop offset="0.875" stop-color="#00A3E7"/>
<stop offset="1" stop-color="#00BCF2"/>
</linearGradient>
<linearGradient id="paint2_linear_175_1048" x1="34.775" y1="24.1187" x2="73.9912" y2="92.0422" gradientUnits="userSpaceOnUse">
<stop stop-color="#00B7F0"/>
<stop offset="1" stop-color="#007CC1"/>
</linearGradient>
</defs>
</svg>
