<svg width="100" height="100" viewBox="0 0 100 100" fill="none" xmlns="http://www.w3.org/2000/svg">
<rect width="100" height="100" rx="24" fill="white"/>
<path d="M89.9922 16.9579L72.4784 8.52529C70.4511 7.54923 68.0285 7.96095 66.4375 9.55191L9.10382 61.8268C7.56169 63.2328 7.56346 65.6607 9.10765 67.0645L13.7908 71.322C15.0533 72.4697 16.9545 72.5541 18.3138 71.523L87.3568 19.1455C89.6731 17.3883 93 19.0404 93 21.9478V21.7445C93 19.7036 91.8309 17.8432 89.9922 16.9579Z" fill="#0065A9"/>
<path d="M89.9922 83.604L72.4784 92.0366C70.4511 93.0129 68.0285 92.601 66.4375 91.01L9.10382 38.7352C7.56169 37.3291 7.56346 34.9012 9.10765 33.4974L13.7908 29.2399C15.0533 28.0922 16.9545 28.0078 18.3138 29.0389L87.3568 81.4164C89.6731 83.1736 93 81.5215 93 78.6142V78.8175C93 80.8583 91.8309 82.7187 89.9922 83.604Z" fill="#007ACC"/>
<path d="M72.4792 92.0383C70.4513 93.0138 68.0286 92.6011 66.4375 91.01C68.398 92.9705 71.75 91.582 71.75 88.8095V11.7522C71.75 8.97974 68.398 7.59127 66.4375 9.55171C68.0286 7.9606 70.4513 7.5483 72.4792 8.5235L89.9899 16.9445C91.8299 17.8294 93 19.6904 93 21.7321V78.8299C93 80.8716 91.8299 82.7327 89.9898 83.6176L72.4792 92.0383Z" fill="#1F9CF0"/>
<g style="mix-blend-mode:overlay" opacity="0.25">
<path fill-rule="evenodd" clip-rule="evenodd" d="M68.2235 92.2004C69.5622 92.7219 71.0888 92.6885 72.44 92.0383L89.94 83.6176C91.7789 82.7328 92.9483 80.8717 92.9483 78.8299V21.7322C92.9483 19.6904 91.779 17.8293 89.9401 16.9445L72.44 8.5235C70.6667 7.6702 68.5913 7.8792 67.0348 9.01071C66.8125 9.17235 66.6007 9.35282 66.402 9.55171L32.9002 40.116L18.3075 29.039C16.9491 28.0078 15.049 28.0924 13.7873 29.24L9.10694 33.4974C7.5637 34.9013 7.56193 37.3292 9.10312 38.7352L21.7584 50.2809L9.10312 61.8266C7.56193 63.2326 7.5637 65.6605 9.10694 67.0643L13.7873 71.3218C15.049 72.4694 16.9491 72.5539 18.3075 71.5228L32.9002 60.4457L66.402 91.0101C66.932 91.5403 67.5543 91.9397 68.2235 92.2004ZM71.7113 30.9849L46.2911 50.2809L71.7113 69.5769V30.9849Z" fill="url(#paint0_linear_175_461)"/>
</g>
<defs>
<linearGradient id="paint0_linear_175_461" x1="50.4484" y1="8" x2="50.4484" y2="92.5618" gradientUnits="userSpaceOnUse">
<stop stop-color="white"/>
<stop offset="1" stop-color="white" stop-opacity="0"/>
</linearGradient>
</defs>
</svg>
