<svg width="100" height="100" viewBox="0 0 100 100" fill="none" xmlns="http://www.w3.org/2000/svg">
<rect width="100" height="100" rx="24" fill="#E32124"/>
<path d="M90.8133 46.1377C90.899 46.1377 90.9846 46.1377 91.0335 46.0521C91.0458 46.0154 91.058 45.9787 91.058 45.942C91.058 45.8686 91.0213 45.8074 90.9601 45.7707C90.899 45.7463 90.8378 45.7463 90.7032 45.7463H90.6421V46.1255H90.8133V46.1377ZM90.7032 45.5383C90.8867 45.5383 90.9724 45.5383 91.0458 45.575C91.2904 45.6484 91.3149 45.8686 91.3149 45.942C91.3149 45.9542 91.3149 46.0032 91.3027 46.0521C91.2905 46.101 91.266 46.1989 91.1314 46.2845C91.1069 46.2968 91.1069 46.2968 91.0702 46.309L91.3761 46.8718H91.0825L90.8133 46.3579H90.6421V46.8718H90.3729V45.5383H90.7032ZM90.8133 47.4223C91.4739 47.4223 92 46.884 92 46.2356C92 45.575 91.4739 45.0489 90.8133 45.0489C90.1649 45.0489 89.6389 45.575 89.6389 46.2356C89.6389 46.884 90.1649 47.4223 90.8133 47.4223ZM89.8836 46.2356C89.8836 45.7218 90.2995 45.2936 90.8133 45.2936C91.3394 45.2936 91.7553 45.7218 91.7553 46.2356C91.7553 46.7372 91.3271 47.1654 90.8133 47.1654C90.3117 47.1654 89.8836 46.7372 89.8836 46.2356ZM81.638 53.7838C80.0721 53.7838 78.7631 52.7317 78.3594 51.3004H87.0209L88.2198 49.4408H78.3472C78.7386 48.0095 80.0721 46.9452 81.6258 46.9452H87.5959L88.7825 45.0856H81.4912C78.5674 45.0856 76.2063 47.4467 76.2063 50.3584C76.2063 53.27 78.5674 55.6311 81.4912 55.6311H87.7549L88.9416 53.7716H81.6258L81.638 53.7838ZM56.8158 55.6434C53.9041 55.6434 51.543 53.2822 51.543 50.3706C51.543 47.459 53.9041 45.0979 56.8158 45.0979H64.1071L62.9082 46.9574H56.9381C55.0541 46.9574 53.5249 48.4866 53.5249 50.3706C53.5249 52.2546 55.0541 53.7838 56.9381 53.7838H64.2539L63.055 55.6434H56.7913H56.8158ZM18.2795 53.7838C20.1635 53.7838 21.705 52.2546 21.705 50.3706C21.705 48.4866 20.1757 46.9574 18.2795 46.9574H12.4195C10.5356 46.9574 9.00633 48.4866 9.00633 50.3706C9.00633 52.2546 10.5356 53.7838 12.4195 53.7838H18.2795ZM12.285 55.6434C9.36111 55.6434 7 53.2822 7 50.3706C7 47.459 9.36111 45.0979 12.285 45.0979H18.4141C21.3257 45.0979 23.6868 47.459 23.6868 50.3706C23.6868 53.2822 21.3257 55.6434 18.4141 55.6434H12.285ZM33.6451 52.2301C35.6269 52.2301 37.2173 50.6275 37.2173 48.6579C37.2173 46.6883 35.6269 45.0856 33.6451 45.0856H24.7634V55.6434H26.7942V46.9452H33.5105C34.4403 46.9452 35.211 47.7159 35.211 48.6579C35.211 49.5999 34.4403 50.3584 33.5105 50.3584H27.7851L33.8286 55.6434H36.7769L32.7031 52.2301H33.6206H33.6451ZM67.2145 53.7838V45.0979H65.1959V54.6402C65.1959 54.9093 65.2938 55.154 65.4895 55.3497C65.6852 55.5332 65.9544 55.6556 66.2358 55.6556H75.4967L76.6956 53.7961H67.2267L67.2145 53.7838ZM42.38 51.9243H47.7995L44.9368 47.3122L39.6763 55.6556H37.2907L43.6767 45.6484C43.9581 45.2447 44.423 45 44.9368 45C45.4262 45 45.891 45.2324 46.1724 45.6239L52.5829 55.6556H50.1851L49.0596 53.7961H43.5789L42.38 51.9365V51.9243Z" fill="#FEFEFE"/>
</svg>
