<svg width="100" height="100" viewBox="0 0 100 100" fill="none" xmlns="http://www.w3.org/2000/svg">
<rect width="100" height="100" rx="24" fill="#0F0F0F"/>
<path d="M71.6525 43.8366V45.4988H73.2761C73.9849 45.4988 74.4507 45.9461 74.716 46.235C74.9286 46.4729 79.6037 51.7737 79.7156 51.913C79.828 52.0525 79.828 52.054 79.828 52.1426V54.7692C79.8277 54.8896 79.8157 55.0097 79.7921 55.1278C79.7589 55.2041 79.7095 55.2722 79.6473 55.3274C79.5851 55.3826 79.5116 55.4236 79.432 55.4476C79.2786 55.4668 79.1241 55.4765 78.9694 55.4765L77.3443 55.4744V57.137H86.4595V55.4744H84.7443C84.5907 55.4752 84.4373 55.4655 84.285 55.4453C84.2055 55.4216 84.1322 55.3807 84.0703 55.3254C84.0083 55.2702 83.9593 55.2021 83.9266 55.1258C83.9027 55.0077 83.8903 54.8876 83.8895 54.7672V52.1421C83.8793 52.0559 83.901 51.9688 83.9504 51.8974L89.0078 46.1278C89.4721 45.6108 89.7135 45.4986 90.3222 45.4986H92V43.8361H84.4878V45.4951H85.6215C85.6823 45.4914 85.7429 45.5052 85.796 45.535C85.8492 45.5647 85.8927 45.6091 85.9213 45.6629C85.95 45.7166 85.9626 45.7775 85.9577 45.8382C85.9528 45.8989 85.9305 45.9569 85.8936 46.0053C85.8697 46.0392 82.7485 49.7096 82.7093 49.7452C82.6702 49.7809 82.6451 49.7723 82.616 49.7334C82.5871 49.6943 79.5033 46.0053 79.5033 46.0053C79.2857 45.7383 79.4556 45.4953 79.7108 45.4953H80.8157V43.8363L71.6525 43.8366Z" fill="white"/>
<path d="M49.2961 43.8365V45.4988H50.751C51.8017 45.4988 51.8732 46.0839 51.8732 46.5939V54.3749C51.8732 54.8404 51.9003 55.4797 51.2307 55.4797H49.4351V57.1405H57.1007V55.4797H55.2309C54.4844 55.4797 54.4503 55.1384 54.442 54.4123V47.7464L64.97 57.1407H67.6475L67.5062 46.5309C67.52 45.7556 67.5675 45.4973 68.3699 45.4973H70.0477V43.8365H62.2278V45.4973H63.945C64.7339 45.4973 64.8661 45.8015 64.8762 46.5309L64.97 52.0831L55.8307 43.8365H49.2961Z" fill="white"/>
<path d="M14.7775 43C13.1303 43 11.2587 43.3095 9.67751 44.02C8.20173 44.6796 7.00001 45.7387 7.00001 47.4946C6.99775 48.4143 7.34754 49.3001 7.9776 49.9701C8.40427 50.3644 9.09272 51.0342 10.8915 51.4285C11.6954 51.5987 13.4142 51.8723 15.1261 52.0525C16.8378 52.2327 18.4973 52.3926 19.177 52.5745C19.7179 52.7121 20.6272 52.8993 20.6272 53.9193C20.6272 54.9393 19.6702 55.245 19.5035 55.3115C19.3371 55.3778 18.1876 55.9048 16.1238 55.9048C14.7564 55.8668 13.4015 55.6338 12.1 55.2129C11.33 54.9373 10.5226 54.5754 9.76937 53.6555C9.46539 53.2225 9.29674 52.709 9.28472 52.18H7.41489V57.416H9.49228V56.7072C9.49199 56.6547 9.5057 56.603 9.53202 56.5575C9.55833 56.512 9.59629 56.4743 9.64199 56.4483C9.68769 56.4224 9.7395 56.409 9.79205 56.4097C9.84461 56.4104 9.89604 56.4251 9.94104 56.4522C10.9197 56.8781 11.9377 57.2072 12.9805 57.4348C14.072 57.6625 14.7775 57.8276 16.1341 57.8276C17.5655 57.8548 18.9922 57.6533 20.3601 57.2308C21.2685 56.9818 22.1208 56.5611 22.871 55.9914C23.2929 55.6673 23.6339 55.2498 23.8673 54.7717C24.1006 54.2936 24.2199 53.7679 24.2158 53.2359C24.223 52.2251 23.833 51.2518 23.1297 50.5258C22.7386 50.1463 22.2855 49.8365 21.79 49.6097C21.2573 49.369 20.7043 49.1762 20.1375 49.0334C19.0598 48.7699 16.6391 48.4401 15.4815 48.3244C14.2675 48.1989 12.161 48.0234 11.3197 47.7634C11.0647 47.6834 10.5444 47.4371 10.5444 46.8335C10.5444 46.4036 10.7823 46.0397 11.2517 45.7455C11.9979 45.2782 13.5043 44.9873 15.0749 44.9873C16.5954 44.9689 18.1034 45.2633 19.5053 45.8524C19.8819 46.0166 20.236 46.228 20.5592 46.4817C21.086 46.9316 21.4508 47.5419 21.5977 48.219H23.2758V43.6613H21.406V44.1899C21.406 44.3601 21.2358 44.5845 20.8957 44.3992C20.0524 43.9605 17.6829 43.012 14.7775 43Z" fill="white"/>
<path d="M37.2827 43.0012C34.3367 43.0012 31.2084 44.0212 29.4405 45.6275C28.7665 46.2412 28.2284 46.9892 27.8609 47.8234C27.4935 48.6576 27.3047 49.5595 27.3069 50.471C27.2963 51.3863 27.4812 52.2933 27.849 53.1314C28.2169 53.9695 28.7594 54.7195 29.4402 55.3313C31.3445 57.043 34.2007 57.9611 37.2827 57.9611C40.3698 57.9611 43.287 57.0533 45.1453 55.3313C45.806 54.7052 46.333 53.9517 46.6947 53.1164C47.0563 52.2811 47.2451 51.3812 47.2496 50.471C47.2587 49.5617 47.076 48.6607 46.7134 47.8268C46.3509 46.9929 45.8165 46.2448 45.1453 45.6313C43.151 43.8224 40.5415 43.0012 37.2827 43.0012ZM37.2827 44.9458C38.8943 44.9458 40.4464 45.5256 41.4917 46.5544C42.5032 47.5506 43.0318 48.9581 43.0318 50.4642C43.0318 52.0419 42.5509 53.3204 41.492 54.3743C40.4328 55.4284 38.9164 55.9926 37.2827 55.9926C35.6609 55.9926 34.1121 55.4164 33.0667 54.3743C32.5667 53.8555 32.1741 53.243 31.9115 52.572C31.649 51.9009 31.5216 51.1846 31.5367 50.4642C31.5367 48.9649 32.0585 47.5523 33.0667 46.5544C34.1121 45.5206 35.6712 44.9458 37.2827 44.9458Z" fill="white"/>
</svg>
