<svg width="100" height="100" viewBox="0 0 100 100" fill="none" xmlns="http://www.w3.org/2000/svg">
<g clip-path="url(#clip0_175_93)">
<rect width="100" height="100" rx="24" fill="#4B4B4B"/>
<path d="M50 93.75C74.1625 93.75 93.75 74.1625 93.75 50C93.75 25.8375 74.1625 6.25 50 6.25C25.8375 6.25 6.25 25.8375 6.25 50C6.25 74.1625 25.8375 93.75 50 93.75Z" fill="#4B4B4B"/>
<path fill-rule="evenodd" clip-rule="evenodd" d="M74.9931 50.1809C74.9931 49.4484 74.4306 49.0259 73.7403 49.2359L26.2528 63.7294C25.5611 63.9406 25 64.7066 25 65.4378V80.2509C25 80.9834 25.5611 81.4072 26.2528 81.1959L73.7403 66.7038C74.4306 66.4925 74.9931 65.7266 74.9931 64.9941V50.1809Z" fill="url(#paint0_linear_175_93)"/>
<path fill-rule="evenodd" clip-rule="evenodd" d="M25 49.7163C25 50.4488 25.5611 51.2147 26.2528 51.426L73.7472 65.9209C74.4388 66.1322 75 65.7084 75 64.9772V50.1628C75 49.4316 74.4388 48.6656 73.7472 48.4544L26.2528 33.9594C25.5611 33.7481 25 34.1706 25 34.9031V49.7163Z" fill="#FF9800"/>
<path fill-rule="evenodd" clip-rule="evenodd" d="M74.9931 19.7494C74.9931 19.0168 74.4306 18.5931 73.7403 18.8043L26.2528 33.2965C25.5611 33.5078 25 34.2737 25 35.0062V49.8194C25 50.5519 25.5611 50.9744 26.2528 50.7644L73.7403 36.2709C74.4306 36.0597 74.9931 35.2937 74.9931 34.5625V19.7494Z" fill="#FF9800"/>
</g>
<defs>
<linearGradient id="paint0_linear_175_93" x1="52.5547" y1="71.4828" x2="57.8222" y2="58.0934" gradientUnits="userSpaceOnUse">
<stop stop-color="#FF9700"/>
<stop offset="0.53" stop-color="#F48E00"/>
<stop offset="1" stop-color="#D06F00"/>
</linearGradient>
<clipPath id="clip0_175_93">
<rect width="100" height="100" rx="24" fill="white"/>
</clipPath>
</defs>
</svg>
