<svg width="100" height="100" viewBox="0 0 100 100" fill="none" xmlns="http://www.w3.org/2000/svg">
<g clip-path="url(#clip0_207_5084)">
<rect width="100" height="100" rx="24" fill="#0077FF"/>
<path d="M0 47.9956C0 25.3677 0 14.0587 7.03 7.02936C14.06 0 25.37 0 48 0H52C74.63 0 85.94 0 92.97 7.02936C100 14.0587 100 25.3677 100 47.9956V51.9952C100 74.6232 100 85.9321 92.97 92.9615C85.94 99.9908 74.63 99.9908 52 99.9908H48C25.37 99.9908 14.06 99.9908 7.03 92.9615C0 85.9321 0 74.6232 0 51.9952V47.9956Z" fill="#0077FF"/>
<path d="M87.2899 69.7927C93.0499 48.2947 95.9299 37.5557 90.9399 29.0565C86.4599 21.4272 77.1899 18.2974 59.5199 13.4879C41.8199 8.81831 32.2199 6.89849 24.5199 11.2681C15.9499 16.1176 13.0699 26.8767 7.30986 48.3747L6.24986 52.3443C3.59986 62.2334 1.55986 69.8527 0.609863 76.0221C1.37986 83.8114 3.10986 89.061 7.02986 92.9706C14.0599 100 25.3699 100 47.9999 100H51.9999C63.3799 100 71.8899 100 78.4399 99.11C81.0499 93.0806 83.2599 84.8513 86.2299 73.7724L87.2899 69.8027V69.7927Z" fill="#D357FF"/>
<path fill-rule="evenodd" clip-rule="evenodd" d="M36.7099 20.308C39.2999 20.1481 41.5299 22.1179 41.6899 24.7076L42.6399 40.2062C42.7999 42.796 40.8299 45.0258 38.2399 45.1858C35.6499 45.3457 33.4199 43.3759 33.2599 40.7862L32.3099 25.2876C32.1499 22.6978 34.1199 20.468 36.7099 20.308Z" fill="white"/>
<path fill-rule="evenodd" clip-rule="evenodd" d="M59.8298 21.4573C62.3398 22.1172 63.8298 24.697 63.1698 27.2068L58.8498 43.5053C58.1898 46.0151 55.6098 47.5049 53.0998 46.845C50.5898 46.185 49.0998 43.6053 49.7598 41.0955L54.0798 24.787C54.7398 22.2772 57.3198 20.7874 59.8298 21.4473V21.4573Z" fill="white"/>
<path fill-rule="evenodd" clip-rule="evenodd" d="M70.5298 51.5747C69.1898 49.3449 66.3098 48.625 64.0798 49.9649C61.8498 51.3047 61.1298 54.1845 62.4698 56.4143C63.4798 58.0941 64.2998 61.1938 64.2998 63.4936C64.2998 71.6629 57.6698 78.2923 49.4998 78.2923C41.3298 78.2923 34.6998 71.6629 34.6998 63.4936C34.6998 60.3639 36.4198 58.864 38.0798 58.6541C39.2598 58.5041 40.0398 58.7641 40.6198 59.134C41.2598 59.534 41.8498 60.2139 42.2998 61.0938C43.4598 63.4136 46.2798 64.3535 48.6098 63.1937C50.9298 62.0338 51.8698 59.214 50.7098 56.8842C48.5698 52.6146 43.9098 48.445 36.9198 49.3249C29.5798 50.2448 25.2998 56.6643 25.2998 63.4836C25.2998 76.8524 36.1298 87.6814 49.4998 87.6814C62.8698 87.6814 73.6998 76.8524 73.6998 63.4836C73.6998 59.694 72.5198 54.8844 70.5298 51.5647V51.5747Z" fill="white"/>
</g>
<defs>
<clipPath id="clip0_207_5084">
<rect width="100" height="100" rx="24" fill="white"/>
</clipPath>
</defs>
</svg>
