<svg width="100" height="100" viewBox="0 0 100 100" fill="none" xmlns="http://www.w3.org/2000/svg">
<g clip-path="url(#clip0_147_70)">
<rect width="100" height="100" rx="24" fill="#0077FF"/>
<path d="M0 46H100V76C100 89.2548 89.2548 100 76 100H24C10.7452 100 0 89.2548 0 76V46Z" fill="#F45FFF"/>
<path fill-rule="evenodd" clip-rule="evenodd" d="M0.000191005 46C19.0882 45.9999 31.0058 37.8051 41.4595 30.6168C49.6261 25.0013 56.8994 20 66.0001 20C79.5456 20 91.3727 29.5774 97.6439 34.6558C98.5283 35.3719 99.3022 35.9986 99.955 36.4963C100 39.9693 100 43.789 100 48.0006V52.0006C100 74.6281 100 85.9418 92.9707 92.9713C86.2524 99.6895 75.6208 99.9869 54.9391 100H45.0608C24.3793 99.9869 13.7477 99.6895 7.02944 92.9713C-2.86103e-06 85.9418 -1.99787e-06 74.6281 2.13279e-09 52.0006L1.01541e-06 48.0006C1.01541e-06 47.3237 1.00522e-06 46.6569 0.000191005 46Z" fill="#F45FFF"/>
<path d="M77.5007 50.9759C77.5007 48.5044 79.5292 46.5009 82.0007 46.5009C84.4722 46.5009 86.5007 48.5044 86.5007 50.9759V69.0259C86.5007 71.4973 84.4722 73.5009 82.0007 73.5009C79.5292 73.5009 77.5007 71.4973 77.5007 69.0259V50.9759Z" fill="white"/>
<path d="M61.501 39.4759C61.501 37.0044 63.5295 35.0009 66.001 35.0009C68.4725 35.0009 70.501 37.0044 70.501 39.4759V80.5259C70.501 82.9974 68.4725 85.0009 66.001 85.0009C63.5295 85.0009 61.501 82.9974 61.501 80.5259V39.4759Z" fill="white"/>
<path d="M45.5011 50.9759C45.5011 48.5044 47.5296 46.5009 50.0011 46.5009C52.4726 46.5009 54.5011 48.5044 54.5011 50.9759V69.0259C54.5011 71.4973 52.4726 73.5009 50.0011 73.5009C47.5296 73.5009 45.5011 71.4973 45.5011 69.0259V50.9759Z" fill="white"/>
<path d="M29.499 57.4756C29.499 55.0041 31.5276 53.0006 33.999 53.0006C36.4705 53.0006 38.499 55.0041 38.499 57.4756V62.5256C38.499 64.9971 36.4705 67.0006 33.999 67.0006C31.5276 67.0006 29.499 64.9971 29.499 62.5256V57.4756Z" fill="white"/>
<path d="M13.499 57.4756C13.499 55.0041 15.5276 53.0006 17.999 53.0006C20.4705 53.0006 22.499 55.0041 22.499 57.4756V62.5256C22.499 64.9971 20.4705 67.0006 17.999 67.0006C15.5276 67.0006 13.499 64.9971 13.499 62.5256V57.4756Z" fill="white"/>
</g>
<defs>
<clipPath id="clip0_147_70">
<rect width="100" height="100" rx="24" fill="white"/>
</clipPath>
</defs>
</svg>
