<svg width="100" height="100" viewBox="0 0 100 100" fill="none" xmlns="http://www.w3.org/2000/svg">
<rect width="100" height="100" rx="24" fill="#0077FF"/>
<path d="M58.7533 15.0003C55.8623 14.9718 53.3484 17.3005 53.3484 20.3423V26.8408L39.7732 23.4596C39.3509 23.3543 38.9298 23.3012 38.5163 23.2974C35.6253 23.269 33.1113 25.5977 33.1113 28.6395V35.1129L19.6619 31.7568C16.2807 30.9146 13 33.4662 13 36.9355V73.0102C13 76.0772 15.0866 78.7419 18.0655 79.4835L39.5596 84.8382C42.9408 85.6803 46.2214 83.1287 46.2214 79.6595V43.5848C46.2214 41.3851 45.1442 39.3991 43.4436 38.1798C43.4164 38.091 43.4226 37.9926 43.4779 37.9121C43.5721 37.7751 43.7418 37.7097 43.9002 37.7575C46.7284 38.6122 49.4183 41.5032 49.6948 45.1484L50.6275 72.6758C50.6515 73.5984 51.2673 74.3853 52.1358 74.6744L59.6776 76.5473C63.0588 77.3894 66.3395 74.8378 66.3395 71.3686C66.4284 59.4652 66.4028 47.3607 66.4058 35.4196C66.4058 33.7981 65.8578 32.5537 65.2419 31.6487C65.1421 31.4978 65.037 31.3495 64.9251 31.2062C64.7906 31.0353 64.6436 30.8731 64.4927 30.7148C64.2677 30.4785 64.0277 30.2535 63.7687 30.0523L63.7638 30.0474C63.6572 29.9404 63.6268 29.7734 63.7147 29.6477C63.8089 29.5107 63.9786 29.4454 64.137 29.4931C66.9652 30.3479 69.6676 33.2389 69.9316 36.884L70.8643 64.4115C70.8881 65.3265 71.4978 66.1084 72.36 66.3849L79.9144 68.2703C83.2956 69.1125 86.5762 66.5609 86.5762 63.0916V27.0169C86.5762 23.9499 84.4897 21.2852 81.5107 20.5436L60.0167 15.1889C59.5944 15.0836 59.1733 15.0305 58.7597 15.0268L58.7533 15.0003Z" fill="white"/>
</svg>
