<svg width="100" height="100" viewBox="0 0 100 100" fill="none" xmlns="http://www.w3.org/2000/svg">
<rect width="100" height="100" rx="24" fill="white"/>
<path fill-rule="evenodd" clip-rule="evenodd" d="M92 50.4582V50.538C91.9772 73.9646 73.0026 92.9544 49.5798 93H49.4164C26.0088 92.9544 7.04179 73.9874 7 50.5798V50.4164C7.04179 26.9822 26.0543 8 49.5 8C72.9571 8 91.9772 27.005 92 50.4582Z" fill="url(#paint0_linear_206_5072)"/>
<path fill-rule="evenodd" clip-rule="evenodd" d="M65.7402 23.0268C62.6822 22.9775 60.4448 22.2367 58.0592 21.4428C57.5844 21.2756 57.0373 21.0971 56.5435 20.9452C49.9489 18.8635 41.7855 18.9812 34.3058 22.4874C28.2811 25.3137 23.3238 30.0507 20.2278 35.9501C19.6884 36.9833 19.1718 38.0622 18.6551 39.141C17.261 42.047 15.8707 44.9454 14.0625 46.9549C11.3008 49.785 9.02161 52.6454 7.2894 55.4223C8.02635 61.8003 10.1764 67.7491 13.4167 72.9457C33.4397 70.7501 79.1952 48.8505 89.4404 35.9273C87.9437 31.8209 85.8278 28.0146 83.2105 24.6109C78.6672 23.194 72.5969 22.571 65.7402 23.0306V23.0268Z" fill="#012B5B"/>
<path fill-rule="evenodd" clip-rule="evenodd" d="M57.6146 70.3855C74.4429 62.5031 86.5266 50.446 90.9597 41.124C89.7631 35.821 87.5751 30.8941 84.6007 26.5445C74.9482 24.6186 57.9755 27.6538 40.6914 35.7488C25.5497 42.8486 13.7699 52.1327 8.07942 60.072C9.6293 66.8223 12.7936 72.9572 17.1356 78.0551C27.4377 79.453 42.6401 77.3979 57.6146 70.3855Z" fill="#1884FF"/>
<path fill-rule="evenodd" clip-rule="evenodd" d="M57.0211 66.746C68.4172 61.4089 76.159 53.971 74.309 50.1267C72.459 46.29 61.7239 47.5018 50.3239 52.8428C38.9278 58.18 31.1898 65.6178 33.036 69.4583C34.886 73.2988 45.6249 72.087 57.0211 66.746Z" fill="white"/>
<defs>
<linearGradient id="paint0_linear_206_5072" x1="41.5326" y1="37.2167" x2="78.7199" y2="90.3406" gradientUnits="userSpaceOnUse">
<stop stop-color="#0050AE"/>
<stop offset="1" stop-color="#036DE6"/>
</linearGradient>
</defs>
</svg>
