<svg width="100" height="100" viewBox="0 0 100 100" fill="none" xmlns="http://www.w3.org/2000/svg">
<rect width="100" height="100" rx="24" fill="white"/>
<path d="M8 50.5C8 27.0273 27.023 8 50.5 8C73.9685 8 93 27.0273 93 50.5C93 73.9727 73.9685 93 50.5 93C27.023 93 8 73.9727 8 50.5Z" fill="#FC3F1D"/>
<path d="M55.9408 32.0807H52.0138C44.8143 32.0807 41.0276 35.7272 41.0276 41.1035C41.0276 47.181 43.6456 50.0285 49.0218 53.6793L53.4631 56.6712L40.7003 75.741H31.1633L42.6171 58.6815C36.0296 53.9598 32.3321 49.374 32.3321 41.6177C32.3321 31.8937 39.1108 25.2552 51.9671 25.2552H64.7298V75.6942H55.9408V32.0807Z" fill="white"/>
</svg>
