<svg width="100" height="100" viewBox="0 0 100 100" fill="none" xmlns="http://www.w3.org/2000/svg">
<rect width="100" height="100" rx="24" fill="#00BFFE"/>
<path d="M9.44444 70.0354C8.55498 69.92 7.74287 69.3571 7.32862 68.5688C6.92974 67.8097 6.89147 66.8862 7.22756 66.1303C7.28731 65.996 10.1305 61.499 13.5457 56.1371C16.961 50.7752 21.0154 44.4095 22.5556 41.9911C24.0958 39.5727 25.4035 37.4769 25.4617 37.3337C25.677 36.8037 25.6291 36.1489 25.3378 35.6398C25.1818 35.3671 24.8047 34.9985 24.5476 34.8673C24.0863 34.632 24.3579 34.6406 17.3894 34.6398C10.1756 34.6398 10.6041 34.657 9.92755 34.3235C8.74311 33.7396 8.11475 32.3062 8.48739 31.0382C8.69583 30.329 9.28727 29.6146 9.92604 29.3005C10.5902 28.974 9.57512 28.9978 22.3042 29.0106L33.7543 29.0221L34.0431 29.1208C34.9038 29.4153 35.6077 30.1276 35.8766 30.9763C35.9556 31.2257 35.9751 31.3926 35.975 31.8202C35.9749 32.4023 35.8874 32.77 35.6526 33.1748C35.5889 33.2847 31.4999 39.7104 26.5659 47.454C21.632 55.1976 17.5563 61.6209 17.509 61.7278C17.3972 61.9804 17.3588 62.5359 17.4315 62.8485C17.57 63.4433 17.978 63.9472 18.5372 64.2143L18.8755 64.3759L26.2261 64.3988C34.4393 64.4245 33.7453 64.3954 34.4428 64.742C34.8838 64.9612 35.3781 65.4491 35.6108 65.8948C36.2983 67.2121 35.9089 68.7717 34.6887 69.5878C34.3126 69.8394 33.9422 69.9755 33.4657 70.0372C33.055 70.0905 9.85527 70.0886 9.44444 70.0351V70.0354ZM70.1608 70.0169C69.7976 69.9506 69.2748 69.7196 68.9815 69.4956C68.6801 69.2654 68.3415 68.8517 68.1737 68.5082C67.86 67.8663 67.8851 69.601 67.8976 49.4285L67.909 31.1985L68.0302 30.8664C68.1812 30.4526 68.4883 29.9979 68.8143 29.7055C69.1137 29.4369 69.7595 29.113 70.1268 29.0472C70.3075 29.0148 73.3996 29 79.9686 29C89.3617 29 89.5534 29.0021 89.8899 29.0878C90.4096 29.2207 90.7301 29.4106 91.1624 29.8421C91.4534 30.1325 91.5803 30.2994 91.7038 30.5545C92.0306 31.2292 92.0834 32.0127 91.849 32.7108C91.6998 33.1552 91.558 33.3925 91.2353 33.7375C90.8993 34.0966 90.5196 34.3446 90.0718 34.4973L89.7165 34.6184L83.1209 34.6411C76.8736 34.6625 76.5125 34.668 76.2811 34.7453C75.3005 35.0727 74.5268 35.8864 74.3062 36.822C74.2071 37.2427 74.2064 44.072 74.3054 44.4923C74.5434 45.5019 75.3647 46.3253 76.3969 46.5893C76.7283 46.6741 76.9113 46.677 82.0509 46.6777C87.9853 46.6777 87.6905 46.6637 88.3602 46.9939C89.0357 47.3269 89.584 47.9877 89.8107 48.7422C89.9392 49.1698 89.9202 49.9315 89.7696 50.3855C89.4956 51.2117 88.7957 51.9132 87.962 52.197L87.6733 52.2953L82.1215 52.3175L76.5697 52.3398L76.187 52.4768C75.4367 52.7454 74.8702 53.2349 74.5465 53.8943C74.2259 54.5475 74.238 54.3723 74.238 58.3601C74.238 61.7555 74.2424 61.9587 74.3239 62.2772C74.5825 63.2884 75.3337 64.0366 76.3921 64.3373C76.6383 64.4072 77.1312 64.4121 82.8766 64.4017C87.3161 64.3936 89.2077 64.4049 89.4901 64.4409C90.7294 64.5989 91.6896 65.4757 91.9339 66.6726C92.0219 67.1042 92.022 67.378 91.9343 67.8031C91.7245 68.8189 91.0271 69.6016 90.0308 69.9394L89.672 70.0611L80.0785 70.0685C72.2558 70.0747 70.4252 70.0652 70.1608 70.0169ZM51.3647 70.0082C51.1214 69.9675 50.661 69.7984 50.3875 69.6492C50.0066 69.4414 49.3876 68.8229 49.1772 68.4399C49.0899 68.2812 48.9718 68.0114 48.9147 67.8404L48.8108 67.5295L48.7878 52.2731C48.7667 38.3853 48.7583 36.9962 48.6929 36.7875C48.3763 35.7772 47.7617 35.1239 46.8118 34.7882L46.4569 34.6628L43.4367 34.6388C40.6738 34.6168 40.3957 34.6078 40.1722 34.5339C39.1703 34.2021 38.4359 33.4144 38.2167 32.4362C38.148 32.1298 38.1604 31.4191 38.2398 31.1097C38.468 30.2202 39.133 29.4957 40.039 29.1495L40.3721 29.0222L51.7644 29.0095C59.8013 29.0005 63.2417 29.0116 63.4454 29.045C63.8341 29.1099 64.4697 29.4244 64.7868 29.7088C65.1201 30.0077 65.4455 30.5014 65.5799 30.912C65.6734 31.1973 65.6882 31.3254 65.6875 31.8424C65.6868 32.3556 65.6718 32.4836 65.5836 32.7307C65.2865 33.5635 64.6024 34.2326 63.7563 34.5183C63.4735 34.6137 63.4051 34.6163 60.4474 34.6411C57.0861 34.6693 57.2723 34.6523 56.631 34.9876C55.9947 35.3202 55.4766 35.9523 55.2228 36.7058C55.1732 36.8529 55.159 39.5105 55.1402 52.1398C55.1186 66.621 55.1134 67.4097 55.0381 67.6626C54.693 68.8219 53.8449 69.6734 52.7588 69.9512C52.435 70.034 51.6992 70.0641 51.3647 70.0082Z" fill="white"/>
</svg>
