<svg width="100" height="100" viewBox="0 0 100 100" fill="none" xmlns="http://www.w3.org/2000/svg">
<g clip-path="url(#clip0_175_54)">
<rect width="100" height="100" rx="24" fill="#6547CE"/>
<path fill-rule="evenodd" clip-rule="evenodd" d="M49.9844 1.61643e-05C29.9862 0.00369263 17.4881 2.50737 9.98805 10.0074C2.49265 17.5074 -0.00367265 30.0074 4.05445e-06 50.0074C0.00368029 70.011 2.50736 82.511 10.0064 90.0073C17.5064 97.5073 30.0046 100.007 50.0064 100C70.0046 99.9963 82.5037 97.4926 90.0027 89.9926C97.4981 82.4926 99.9945 69.9926 99.9908 49.9926C99.9871 29.9927 97.4834 17.4927 89.9844 9.99266C82.4853 2.49266 69.9862 -0.00733677 49.988 1.61643e-05H49.9844Z" fill="#6547CE"/>
<path fill-rule="evenodd" clip-rule="evenodd" d="M76.636 23.364C65.9788 12.7132 57.9908 7.38971 49.9991 7.39339C42.011 7.39339 34.023 12.7243 23.3732 23.3787C12.7233 34.0331 7.39706 42.0221 7.40074 50.011C7.40074 58 12.7307 65.989 23.3842 76.6397C34.0377 87.2904 42.0294 92.6176 50.0175 92.6139C58.0055 92.6139 65.9935 87.2831 76.647 76.6287C87.2969 65.9742 92.6204 57.9816 92.6167 49.989C92.6167 42.0037 87.2858 34.0184 76.636 23.364Z" fill="#3AEEB8"/>
<path fill-rule="evenodd" clip-rule="evenodd" d="M49.9991 21.4927C38.5919 21.4927 31.4715 22.9228 27.193 27.1985C22.9173 31.4779 21.4945 38.6029 21.4945 50.0073C21.4982 61.4081 22.9283 68.5368 27.204 72.8125C31.4789 77.0882 38.6066 78.511 50.0101 78.511C61.4099 78.5073 68.5377 77.0772 72.8134 72.8015C77.0882 68.5257 78.511 61.397 78.5073 49.9963C78.5073 38.5919 77.0772 31.4669 72.8024 27.1875C68.5266 22.9154 61.3989 21.489 49.9954 21.4927H49.9991Z" fill="#6547CE"/>
<path fill-rule="evenodd" clip-rule="evenodd" d="M66.1369 33.8566C59.6783 27.4007 54.8373 24.1728 49.9954 24.1728C45.1544 24.1728 40.3125 27.4044 33.8575 33.8603C27.3989 40.3199 24.171 45.1654 24.1746 50.0074C24.1746 54.8493 27.4062 59.6912 33.8612 66.1471C40.3198 72.6029 45.1618 75.8309 50.0064 75.8272C54.8483 75.8272 59.6856 72.5993 66.1443 66.1397C72.6002 59.6801 75.8272 54.8382 75.8235 49.9963C75.8235 45.1544 72.5928 40.3125 66.1369 33.8566Z" fill="#3AEEB8"/>
<path fill-rule="evenodd" clip-rule="evenodd" d="M61.2739 38.7243C56.7629 34.2169 53.3814 31.9596 49.9954 31.9632C46.613 31.9632 43.2316 34.2206 38.7243 38.7316C34.2178 43.2427 31.9605 46.625 31.9641 50.0074C31.9641 53.3897 34.2215 56.7721 38.7316 61.2831C43.2426 65.7904 46.6241 68.0478 50.0064 68.0441C53.3888 68.0441 56.7702 65.7868 61.2812 61.2757C65.7877 56.7647 68.045 53.3824 68.0413 50C68.0413 46.6177 65.784 43.2353 61.2739 38.7243Z" fill="#7D5EE9"/>
<path fill-rule="evenodd" clip-rule="evenodd" d="M61.2776 38.7169C56.7665 34.2059 53.3777 31.9522 49.9917 31.9522C46.6094 31.9522 43.2279 34.2096 38.7132 38.7243C34.2031 43.2426 31.9494 46.625 31.9494 50.011C31.9494 53.3934 34.2068 56.7757 38.7206 61.2904C43.239 65.8015 46.6204 68.0551 50.0064 68.0551C53.3888 68.0551 56.7702 65.8015 61.2849 61.2831C65.795 56.7647 68.0524 53.3823 68.0487 49.9963C68.0487 46.614 65.7877 43.2316 61.2776 38.7169Z" fill="#6547CE"/>
<path fill-rule="evenodd" clip-rule="evenodd" d="M49.9954 40.7721C46.3042 40.7721 43.9963 41.2353 42.614 42.6177C41.2279 44.0037 40.7684 46.3125 40.7684 50.0074C40.7684 53.6985 41.2316 56 42.6176 57.386C44 58.7684 46.3079 59.2316 49.9991 59.2316C53.6939 59.2316 55.9981 58.7684 57.3805 57.3824C58.7665 55.9963 59.2261 53.6912 59.2261 49.9963C59.2261 46.3052 58.7628 44 57.3768 42.614C55.9945 41.2316 53.6866 40.7721 49.9954 40.7721Z" fill="#F0EDFF"/>
</g>
<defs>
<clipPath id="clip0_175_54">
<rect width="100" height="100" rx="24" fill="white"/>
</clipPath>
</defs>
</svg>
