<svg width="100" height="100" viewBox="0 0 100 100" fill="none" xmlns="http://www.w3.org/2000/svg">
<rect width="100" height="100" rx="24" fill="url(#paint0_linear_175_141)"/>
<path d="M49.575 22.9749L51.6 19.4749C52.85 17.2874 55.6375 16.5499 57.825 17.7999C60.0125 19.0499 60.75 21.8374 59.5 24.0249L39.9875 57.7999H54.1C58.675 57.7999 61.2375 63.1749 59.25 66.8999H17.875C15.35 66.8999 13.325 64.8749 13.325 62.3499C13.325 59.8249 15.35 57.7999 17.875 57.7999H29.475L44.325 32.0624L39.6875 24.0124C38.4375 21.8249 39.175 19.0624 41.3625 17.7874C43.55 16.5374 46.3125 17.2749 47.5875 19.4624L49.575 22.9749ZM32.025 71.5874L27.65 79.1749C26.4 81.3624 23.6125 82.0999 21.425 80.8499C19.2375 79.5999 18.5 76.8124 19.75 74.6249L23 68.9999C26.675 67.8624 29.6625 68.7374 32.025 71.5874ZM69.7 57.8249H81.5375C84.0625 57.8249 86.0875 59.8499 86.0875 62.3749C86.0875 64.8999 84.0625 66.9249 81.5375 66.9249H74.9625L79.4 74.6249C80.65 76.8124 79.9125 79.5749 77.725 80.8499C75.5375 82.0999 72.775 81.3624 71.5 79.1749C64.025 66.2124 58.4125 56.5124 54.6875 50.0499C50.875 43.4749 53.6 36.8749 56.2875 34.6374C59.275 39.7624 63.7375 47.4999 69.7 57.8249Z" fill="white"/>
<defs>
<linearGradient id="paint0_linear_175_141" x1="50" y1="0" x2="50" y2="100" gradientUnits="userSpaceOnUse">
<stop stop-color="#18BFFB"/>
<stop offset="1" stop-color="#2072F3"/>
</linearGradient>
</defs>
</svg>
