<svg width="100" height="100" viewBox="0 0 100 100" fill="none" xmlns="http://www.w3.org/2000/svg">
<rect width="100" height="100" rx="24" fill="url(#paint0_linear_257_57)"/>
<path d="M22.6362 46.1924L19.68 57.111H16.9812L14.8284 49.128H14.7769L12.6344 57.111H9.95625L7 46.1924H9.57513L11.4189 54.577H11.4704L13.6026 46.1924H16.0645L18.1967 54.577H18.2585L20.1023 46.1924H22.6362Z" fill="white"/>
<path d="M27.7556 55.3496C28.4903 55.3496 29.1084 55.1333 29.6097 54.7007C30.1178 54.2612 30.3719 53.7153 30.3719 53.0629V52.2286L27.8483 52.383C27.2302 52.4242 26.7496 52.5788 26.4062 52.8466C26.0697 53.1075 25.9015 53.4543 25.9015 53.8869C25.9015 54.3333 26.0697 54.6904 26.4062 54.9582C26.7496 55.2191 27.1993 55.3496 27.7556 55.3496ZM26.983 57.2861C25.9186 57.2861 25.0431 56.9805 24.3564 56.3694C23.6766 55.7582 23.3366 54.9651 23.3366 53.99C23.3366 53.0217 23.6937 52.256 24.4079 51.6929C25.1289 51.1298 26.1555 50.8071 27.4878 50.7247L30.3719 50.5598V49.777C30.3719 49.2071 30.1899 48.7641 29.826 48.4483C29.4689 48.1324 28.971 47.9744 28.3324 47.9744C27.735 47.9744 27.2474 48.1083 26.8697 48.3761C26.492 48.644 26.262 49.0079 26.1796 49.468H23.8002C23.8551 48.4311 24.298 47.5899 25.1289 46.9444C25.9667 46.292 27.0689 45.9658 28.4354 45.9658C29.7882 45.9658 30.8698 46.2954 31.6801 46.9547C32.4972 47.6139 32.9058 48.4929 32.9058 49.5916V57.111H30.4337V55.3702H30.3822C30.0732 55.9539 29.6062 56.4209 28.9813 56.7711C28.3564 57.1144 27.6903 57.2861 26.983 57.2861Z" fill="white"/>
<path d="M35.687 43.6377H38.2518V46.1922H40.3119V48.1699H38.2518V53.8455C38.2518 54.2919 38.3583 54.6215 38.5711 54.8344C38.784 55.0472 39.1171 55.1537 39.5703 55.1537C39.8724 55.1537 40.1162 55.1365 40.3016 55.1023V57.0594C39.9926 57.1281 39.5497 57.1624 38.9729 57.1624C37.7917 57.1624 36.9471 56.9358 36.4389 56.4826C35.9376 56.0294 35.687 55.2706 35.687 54.2062V48.1701H34.1213V46.1924H35.687V43.6377Z" fill="white"/>
<path d="M51.4777 50.086H49.0571C48.9472 49.4749 48.6863 48.9839 48.2742 48.6131C47.8622 48.2354 47.3266 48.0465 46.6674 48.0465C45.857 48.0465 45.2115 48.3693 44.7308 49.0148C44.2502 49.6534 44.0098 50.5324 44.0098 51.6517C44.0098 52.7848 44.2502 53.6706 44.7308 54.3093C45.2115 54.941 45.8639 55.2569 46.688 55.2569C47.3335 55.2569 47.8622 55.0853 48.2742 54.7419C48.6863 54.3917 48.9506 53.9041 49.0674 53.2792H51.488C51.385 54.5015 50.894 55.4835 50.015 56.2252C49.1429 56.9599 48.0236 57.3273 46.6571 57.3273C45.0502 57.3273 43.7729 56.8226 42.8253 55.8132C41.8776 54.7968 41.4038 53.4097 41.4038 51.6517C41.4038 49.9144 41.8776 48.5341 42.8253 47.5109C43.7729 46.4809 45.0433 45.9658 46.6365 45.9658C48.0373 45.9658 49.1704 46.3573 50.0356 47.1401C50.9077 47.9161 51.3884 48.8981 51.4777 50.086Z" fill="white"/>
<path d="M53.0949 57.111V42.2473H55.6288V48.0671H55.6803C55.9756 47.401 56.4185 46.8894 57.0091 46.5323C57.5997 46.1684 58.307 45.9864 59.131 45.9864C60.3259 45.9864 61.2598 46.3538 61.9328 47.0886C62.6126 47.8165 62.9525 48.8122 62.9525 50.0757V57.111H60.3877V50.601C60.3877 49.8251 60.1954 49.2242 59.8109 48.7985C59.4332 48.3727 58.8769 48.1598 58.1422 48.1598C57.3731 48.1598 56.7653 48.4036 56.319 48.8912C55.8795 49.3787 55.6597 50.0277 55.6597 50.838V57.111H53.0949Z" fill="white"/>
<path d="M71.8213 42C73.9844 42 75.6977 42.6901 76.9612 44.0704C78.2316 45.4507 78.8668 47.3219 78.8668 49.6842C78.8668 52.0464 78.2316 53.9177 76.9612 55.298C75.6977 56.6714 73.9844 57.3581 71.8213 57.3581C69.6513 57.3581 67.9311 56.6714 66.6607 55.298C65.3971 53.9177 64.7654 52.0464 64.7654 49.6842C64.7654 47.3219 65.3971 45.4507 66.6607 44.0704C67.9311 42.6901 69.6513 42 71.8213 42ZM74.9835 45.7391C74.2007 44.7571 73.1466 44.2661 71.8213 44.2661C70.4959 44.2661 69.4418 44.7537 68.659 45.7288C67.8761 46.7039 67.4847 48.0224 67.4847 49.6842C67.4847 51.3392 67.8761 52.6542 68.659 53.6293C69.4418 54.6044 70.4959 55.092 71.8213 55.092C73.1466 55.092 74.2007 54.6044 74.9835 53.6293C75.7664 52.6542 76.1578 51.3392 76.1578 49.6842C76.1578 48.0292 75.7664 46.7142 74.9835 45.7391Z" fill="white"/>
<path d="M80.3604 52.9289H82.9355C83.0179 53.6087 83.3682 54.1581 83.9862 54.577C84.6042 54.989 85.3699 55.195 86.2832 55.195C87.1759 55.195 87.9038 54.9958 88.4669 54.5975C89.0369 54.1993 89.3219 53.6911 89.3219 53.0731C89.3219 52.5375 89.1159 52.1048 88.7038 51.7752C88.2918 51.4387 87.6188 51.1606 86.6849 50.9409L84.7587 50.4876C83.3922 50.1718 82.3759 49.6808 81.7098 49.0147C81.0505 48.3486 80.7209 47.4833 80.7209 46.4189C80.7209 45.1073 81.2359 44.0429 82.266 43.2258C83.2961 42.4086 84.6248 42 86.2523 42C87.8867 42 89.2017 42.4051 90.1974 43.2154C91.2 44.0189 91.7185 45.0764 91.7528 46.388H89.2189C89.1571 45.6945 88.8583 45.152 88.3227 44.7606C87.7871 44.3623 87.0901 44.1631 86.2317 44.1631C85.3939 44.1631 84.7141 44.352 84.1922 44.7297C83.6772 45.1073 83.4197 45.6052 83.4197 46.2232C83.4197 46.7176 83.6188 47.1194 84.0171 47.4284C84.4223 47.7374 85.0815 48.0018 85.9948 48.2215L87.7047 48.6129C89.2086 48.9563 90.3004 49.4576 90.9803 50.1168C91.6601 50.7761 92 51.6585 92 52.7641C92 54.1718 91.4713 55.2911 90.4137 56.122C89.3631 56.9461 87.9382 57.3581 86.139 57.3581C84.4223 57.3581 83.042 56.9632 81.9982 56.1735C80.9613 55.3769 80.4153 54.2954 80.3604 52.9289Z" fill="white"/>
<defs>
<linearGradient id="paint0_linear_257_57" x1="50" y1="0" x2="50" y2="100" gradientUnits="userSpaceOnUse">
<stop stop-color="#3D3D3D"/>
<stop offset="1" stop-color="#030303"/>
</linearGradient>
</defs>
</svg>
