<svg width="100" height="100" viewBox="0 0 100 100" fill="none" xmlns="http://www.w3.org/2000/svg">
<rect width="100" height="100" rx="24" fill="url(#paint0_linear_257_20)"/>
<path d="M80.0543 37.2747C79.5903 37.6348 71.3974 42.2512 71.3974 52.5163C71.3974 64.3894 81.8225 68.5899 82.1345 68.6939C82.0865 68.9499 80.4783 74.4464 76.638 80.047C73.2136 84.9755 69.6373 89.896 64.1967 89.896C58.7562 89.896 57.356 86.7357 51.0754 86.7357C44.9548 86.7357 42.7786 90 37.8021 90C32.8256 90 29.3532 85.4395 25.3608 79.839C20.7364 73.2623 17 63.0453 17 53.3483C17 37.7948 27.113 29.546 37.066 29.546C42.3545 29.546 46.763 33.0183 50.0833 33.0183C53.2436 33.0183 58.1721 29.3379 64.1887 29.3379C66.4689 29.3379 74.6618 29.546 80.0543 37.2747ZM61.3324 22.7533C63.8207 19.801 65.5809 15.7046 65.5809 11.6082C65.5809 11.0401 65.5329 10.464 65.4288 10C61.3804 10.152 56.564 12.6963 53.6597 16.0646C51.3794 18.6569 49.2512 22.7533 49.2512 26.9057C49.2512 27.5298 49.3552 28.1538 49.4032 28.3538C49.6593 28.4018 50.0753 28.4578 50.4913 28.4578C54.1237 28.4578 58.6922 26.0256 61.3324 22.7533Z" fill="white"/>
<defs>
<linearGradient id="paint0_linear_257_20" x1="50" y1="0" x2="50" y2="100" gradientUnits="userSpaceOnUse">
<stop stop-color="#3D3D3D"/>
<stop offset="1" stop-color="#030303"/>
</linearGradient>
</defs>
</svg>
