<svg width="100" height="100" viewBox="0 0 100 100" fill="none" xmlns="http://www.w3.org/2000/svg">
<g clip-path="url(#clip0_175_46)">
<rect width="100" height="100" rx="24" fill="#FE6446"/>
<path d="M16.6658 16.6525H83.3325V83.265H16.6658V16.6525Z" fill="white"/>
<path d="M96.5787 20.3737C94.3429 11.1744 88.6058 5.41817 79.2676 3.26566C69.6669 1.11911 59.9847 0 50.2165 0C40.4485 0 30.847 1.1191 21.512 3.3522C12.3402 5.50216 6.08346 10.5731 3.76872 19.8617C1.289 29.6597 0 39.8024 0 49.9443C0 60.087 1.11591 69.8933 3.42808 79.5206C5.65393 88.7233 11.3976 94.4827 20.7361 96.6318C39.7625 101.012 59.4716 101.012 78.4923 96.6318C87.6658 94.4827 93.92 89.4052 96.2289 80.0352C98.7144 70.238 100 60.0893 100 49.9408C100 39.7932 98.8909 29.9984 96.5753 20.3711L96.5787 20.3737ZM25.2798 59.0653C25.0234 58.8054 24.767 58.5481 24.5105 58.29C23.3972 56.997 22.7087 55.2782 22.5388 53.4772L22.1116 28.7137C22.025 26.8253 23.3115 26.1299 24.851 27.2499L48.3338 44.2711L26.3964 60.0028L25.2832 59.0627L25.2798 59.0653ZM77.9786 53.6471C77.8112 55.7937 76.8652 57.7754 75.2399 59.2335L52.9586 76.946C51.3356 78.1525 49.1899 78.1525 47.5588 76.946L31.3667 63.8789L28.2782 61.4725L50.2973 45.6544L61.0978 37.9189L76.2658 27.0791C77.5555 26.568 78.4049 27.2565 78.4049 28.8876L77.9786 53.6471Z" fill="#FE6446"/>
</g>
<defs>
<clipPath id="clip0_175_46">
<rect width="100" height="100" rx="24" fill="white"/>
</clipPath>
</defs>
</svg>
