<svg width="100" height="100" viewBox="0 0 100 100" fill="none" xmlns="http://www.w3.org/2000/svg">
<rect width="100" height="100" rx="24" fill="#024F9A"/>
<path d="M32.9185 41C30.7501 41.1351 29.8093 42.1777 29.1033 42.9182C28.3468 43.7087 27.9263 45.3734 27.9263 45.3734V41.0339H19.4722C18.8335 41.0339 18.228 41.3027 17.7742 41.9422C17.3038 42.5649 15.3709 45.7607 15.3709 45.7607H48.8027V41H32.9185ZM75.0067 41C72.8555 41.1351 71.8974 42.1777 71.1915 42.9182C70.435 43.7087 70.0144 45.3734 70.0144 45.3734V45.7607H92V41H75.0067ZM49.6258 41.0173V45.7607H54.3831V41.0173H49.6258ZM65.2245 41.0173V45.7607H69.9639V41.0173H65.2245ZM15.1686 46.0468L7 58.8982H12.5804L20.447 46.6183L15.1686 46.0468ZM49.6763 46.114V53.0337C49.669 52.892 49.6597 52.6911 49.6597 52.6911C49.5419 51.9845 48.1972 48.8559 45.3062 48.5865C43.575 48.4181 28.1618 47.1905 28.1618 47.1905C28.4646 48.7382 29.1539 49.5286 29.6243 49.9658C30.7002 50.9917 32.3975 51.2951 32.3975 51.2951C32.8007 51.3284 44.2809 52.2872 44.2809 52.2872C44.6508 52.3038 45.3402 52.405 45.3235 53.3132C45.3235 53.431 45.2224 54.2221 44.3481 54.2221H27.7247V47.1566L23.1024 46.8206C23.0858 46.8206 23.0858 58.8982 23.0858 58.8982H45.3062C49.172 58.1244 49.5759 54.592 49.5759 54.592C49.6437 54.2061 49.667 53.8661 49.6763 53.5647V54.5414C50.4328 58.5782 54.0804 58.8982 54.0804 58.8982C54.0804 58.8982 54.4503 58.9149 54.5175 58.9315H65.3589C65.3589 58.9315 69.9978 58.5616 69.9978 54.087L69.9639 47.4766L65.2917 47.1905V52.6911C65.2917 52.6911 65.2744 54.272 63.7454 54.272H55.7444C55.7444 54.272 54.3831 54.1542 54.3831 52.7077V46.4506L49.6763 46.114ZM70.3005 47.4766C70.7543 49.0742 71.3764 49.5625 71.8468 49.9997C72.9227 51.0423 74.5189 51.2778 74.5189 51.2778C74.9228 51.3118 86.5207 52.2872 86.5207 52.2872C86.89 52.3038 87.6465 52.3378 87.6465 53.246C87.6465 53.5155 87.5121 53.8016 87.3438 53.9526C87.3438 53.9526 86.9406 54.1715 86.554 54.1715H70.0484L69.9978 58.9315H87.0078C91.2774 58.6793 91.8822 54.6253 91.8822 54.6253C92.0333 53.566 91.9162 52.6911 91.9162 52.6911C91.7984 51.7323 90.4371 48.8386 87.5288 48.5532C85.8148 48.3849 70.3005 47.4766 70.3005 47.4766Z" fill="white"/>
</svg>
