<svg width="100" height="100" viewBox="0 0 100 100" fill="none" xmlns="http://www.w3.org/2000/svg">
<rect width="100" height="100" rx="24" fill="#2D2F36"/>
<g clip-path="url(#clip0_175_214)">
<path d="M50.3333 50.5C50.3333 42.7557 56.6113 36.4775 64.3558 36.4775C72.1 36.4775 78.3782 42.7557 78.3782 50.5C78.3782 58.2444 72.1 64.5224 64.3558 64.5224C56.6113 64.5224 50.3333 58.2444 50.3333 50.5Z" fill="#1ABCFE"/>
<path d="M22.2885 78.5449C22.2885 70.8007 28.5665 64.5225 36.3109 64.5225H50.3333V78.5449C50.3333 86.2893 44.0553 92.5673 36.3109 92.5673C28.5665 92.5673 22.2885 86.2893 22.2885 78.5449Z" fill="#0ACF83"/>
<path d="M50.3333 8.43274V36.4775H64.3558C72.1002 36.4775 78.3782 30.1995 78.3782 22.4552C78.3782 14.7108 72.1002 8.43274 64.3558 8.43274H50.3333Z" fill="#FF7262"/>
<path d="M22.2885 22.4552C22.2885 30.1995 28.5665 36.4775 36.3109 36.4775H50.3333V8.43274H36.3109C28.5665 8.43274 22.2885 14.7108 22.2885 22.4552Z" fill="#F24E1E"/>
<path d="M22.2885 50.5C22.2885 58.2444 28.5665 64.5224 36.3109 64.5224H50.3333V36.4775H36.3109C28.5665 36.4775 22.2885 42.7557 22.2885 50.5Z" fill="#A259FF"/>
</g>
<defs>
<clipPath id="clip0_175_214">
<rect width="56.6667" height="85" fill="white" transform="translate(22 8)"/>
</clipPath>
</defs>
</svg>
