<svg width="100" height="100" viewBox="0 0 100 100" fill="none" xmlns="http://www.w3.org/2000/svg">
<rect width="100" height="100" rx="24" fill="white"/>
<path d="M40.8771 76.277V76.2969C40.8771 76.9543 40.7178 77.5719 40.4588 78.1098C39.7814 79.5043 38.367 80.4407 36.7151 80.4407C34.4241 80.4407 32.5531 78.5879 32.5531 76.2787V76.2587C32.5531 75.6212 32.7125 75.0037 32.9715 74.4658L33.0711 74.2865C33.7683 72.9916 35.143 72.115 36.7151 72.115C39.0244 72.115 40.8771 73.986 40.8771 76.277Z" fill="#0D47A1"/>
<path d="M66.4485 76.277V76.2969C66.4286 78.6079 64.5759 80.439 62.2865 80.439C59.9756 80.439 58.1046 78.5863 58.1046 76.277V76.2571C58.1245 73.9661 59.9772 72.115 62.2865 72.115C64.5759 72.115 66.4485 73.986 66.4485 76.277Z" fill="#0D47A1"/>
<path d="M15.324 76.277C15.324 76.8148 15.2244 77.3328 15.0451 77.8109L14.9057 78.0898C14.2283 79.4844 12.8139 80.4406 11.162 80.4406C8.85273 80.439 7 78.5879 7 76.277C7 75.6195 7.13945 75.0219 7.41836 74.4641L7.53789 74.225C8.25508 72.9699 9.60977 72.1133 11.162 72.1133C13.453 72.1149 15.324 73.9859 15.324 76.277Z" fill="#0D47A1"/>
<path d="M41.0564 23.162V23.1819C41.0564 23.8394 40.917 24.437 40.6381 24.9948L40.5584 25.1542C39.8412 26.469 38.4666 27.3456 36.8944 27.3456C34.5835 27.3456 32.7125 25.4729 32.7125 23.1637V23.1438C32.7125 22.566 32.832 22.048 33.0512 21.55L33.1309 21.3707C33.7883 19.9762 35.2227 19 36.8944 19C39.1838 19 41.0564 20.871 41.0564 23.162Z" fill="#0D47A1"/>
<path d="M66.6079 23.162V23.1819C66.6079 23.8394 66.4485 24.437 66.1896 24.9749L66.07 25.214C65.3528 26.489 63.9981 27.3456 62.4459 27.3456C60.1366 27.3456 58.2839 25.4729 58.2839 23.1637V23.1438C58.2839 22.5859 58.4034 22.068 58.6026 21.5699L58.7022 21.3508C59.3597 19.9563 60.794 19 62.4459 19C64.7353 19 66.6079 20.871 66.6079 23.162Z" fill="#0D47A1"/>
<path d="M92 76.277C92 78.5879 90.1273 80.439 87.838 80.439C85.5287 80.439 83.676 78.5863 83.676 76.277C83.676 73.986 85.5287 72.115 87.838 72.115C90.1273 72.115 92 73.986 92 76.277Z" fill="#0D47A1"/>
<path d="M15.0468 77.8111C15.2261 77.333 15.3257 76.815 15.3257 76.2771C15.3257 73.9861 13.453 72.1151 11.1637 72.1151C9.60977 72.1151 8.25674 72.9717 7.53955 74.2268L33.0512 21.55C32.832 22.0481 32.7125 22.586 32.7125 23.1637C32.7125 25.4747 34.5852 27.3457 36.8944 27.3457C38.4683 27.3457 39.8412 26.4691 40.5584 25.1542L15.0468 77.8111Z" fill="#4285F4"/>
<path d="M41.0564 23.182L40.8771 76.2771C40.8771 73.9861 39.0244 72.1151 36.7151 72.1151C34.4241 72.1151 32.573 73.9679 32.5531 76.2572L32.7125 23.1621C32.7125 25.473 34.5851 27.344 36.8944 27.344C38.4683 27.344 39.8412 26.4675 40.5584 25.1526L40.6381 24.9933C40.917 24.4371 41.0564 23.8395 41.0564 23.182Z" fill="#ABCCFC"/>
<path d="M40.8771 76.2971V76.2771C40.8771 73.9861 39.0244 72.1151 36.7151 72.1151C35.1413 72.1151 33.7684 72.9917 33.0711 74.2866L58.601 21.5684C58.4018 22.0664 58.2822 22.6043 58.2822 23.1621C58.2822 25.473 60.135 27.344 62.4442 27.344C63.9981 27.344 65.3512 26.4874 66.0684 25.2124L40.4588 78.11C40.7178 77.5721 40.8771 76.9545 40.8771 76.2971Z" fill="#4285F4"/>
<path d="M66.6079 23.182L66.4485 76.2771C66.4485 73.9861 64.5759 72.1151 62.2865 72.1151C59.9756 72.1151 58.1245 73.9679 58.1046 76.2572L58.2839 23.1621C58.2839 25.473 60.1366 27.344 62.4459 27.344C63.9998 27.344 65.3528 26.4874 66.07 25.2124L66.1895 24.9733C66.4485 24.4371 66.6079 23.8395 66.6079 23.182Z" fill="#ABCCFC"/>
<path d="M87.838 80.439H62.2865C64.5775 80.439 66.4286 78.6062 66.4485 76.2969V76.277C66.4485 73.986 64.5759 72.115 62.2865 72.115H87.838C85.5287 72.115 83.676 73.9876 83.676 76.277C83.676 78.5879 85.5271 80.439 87.838 80.439Z" fill="#4285F4"/>
</svg>
