<svg width="100" height="100" viewBox="0 0 100 100" fill="none" xmlns="http://www.w3.org/2000/svg">
<rect width="100" height="100" rx="24" fill="white"/>
<path d="M39.2391 92.268C37.8041 91.9298 36.6031 91.139 34.9223 89.4257C32.1149 86.5638 29.8365 85.3723 25.8766 84.6949C21.7686 83.9922 19.9431 82.4749 18.8456 78.8509C17.4909 74.3774 16.0749 72.2351 12.9639 69.9516C9.43469 67.3613 8.5292 65.077 9.3906 60.9376C10.1884 57.1035 9.88292 54.3776 8.26254 50.8728C6.32921 46.6912 6.56787 44.4567 9.31378 41.0308C11.8311 37.89 12.6212 35.8139 12.9982 31.3496C13.3787 26.8446 14.64 24.9963 18.3548 23.5005C21.4551 22.2522 24.1073 20.0851 25.5777 17.5988C27.2781 14.7238 27.5263 14.3942 28.5799 13.6131C30.2799 12.3527 31.6545 12.0034 34.2724 12.1665C38.8198 12.4499 41.2572 11.9073 44.311 9.9318C48.2926 7.35607 50.7069 7.35607 54.6886 9.9318C57.7424 11.9073 60.1797 12.4499 64.7272 12.1665C69.0274 11.8985 70.8168 13.0203 73.438 17.6275C74.737 19.9108 77.3922 22.1329 80.2981 23.3686C84.437 25.1288 85.64 26.7353 85.9452 30.9101C86.2757 35.4314 87.2087 37.9593 89.6802 41.0308C92.432 44.4506 92.6722 46.6872 90.737 50.8728C89.1166 54.3776 88.8111 57.1035 89.6089 60.9376C90.4704 65.077 89.5649 67.3613 86.0356 69.9516C82.9246 72.2351 81.5087 74.3774 80.1539 78.8509C79.0564 82.4749 77.2309 83.9922 73.123 84.6949C69.1546 85.3737 66.8737 86.5689 64.0772 89.4348C60.9771 92.6118 58.7548 93.136 54.4208 91.7123C50.876 90.5479 48.1468 90.543 44.6162 91.6945C42.143 92.5011 40.8247 92.6417 39.2391 92.268Z" fill="#3DDC84"/>
<path d="M50.2903 73.1455L51.1137 71.1543C72.1173 69.0676 72.6932 52.6054 59.4347 46.8089L55.689 46.016L59.2384 38.8236L62.6845 32.1181L57.0206 31.9314H50.6527V30.6315V29.3316H58.5991L67.6983 29.4254L63.7112 37.1203L60.4668 43.9786L60.74 44.274L61.7561 44.5694C81.6414 48.8233 73.0367 80.4122 50.2903 73.1455ZM38.9149 52.7297V31.9313H33.9938H29.0728V30.6314V29.3315H35.0152H40.9576V51.8012V73.8995H39.9362H38.9149V52.7297Z" fill="white"/>
<path d="M49.2318 75.7774L50.2903 73.1457C61.0493 76.5115 71.1016 69.7305 71.1016 58.9897C71.1016 51.7882 65.6547 45.8649 59.5634 44.2672L63.1376 36.9678L66.7688 29.6587H58.7378H50.6526V28.1711V26.7319H61.0986H71.5989L67.6071 34.7138L63.6153 42.6958C70.6607 46.2415 73.989 52.5422 73.989 59.0499C73.989 71.5678 61.5347 80.493 49.2318 75.7774ZM35.9437 54.3084V34.717H32.5082H29.0728V33.2314V31.7458H33.9938H38.9149V52.8228V73.8997H37.4293H35.9437V54.3084ZM40.9576 51.8014V29.7031H35.0152H29.0728V28.2176V26.732H36.5008H43.9288V50.3158V73.8997H42.4432H40.9576V51.8014ZM51.1137 71.1545L52.1454 68.3614C59.2728 70.8009 65.813 65.8703 65.8902 59.2366C65.8902 51.9714 60.2878 49.0405 55.1907 48.6857L51.9162 48.2816L55.2445 41.4262L58.5964 34.7244L54.6516 34.6743L50.6526 34.6242V33.185V31.7458H57.0133H63.4282L59.9006 38.7992L56.373 45.8525C63.8819 46.9504 68.9757 52.2248 68.9757 58.9509C68.9757 68.0457 60.2514 74.2913 51.1137 71.1545Z" fill="#073042"/>
</svg>
