<svg width="100" height="100" viewBox="0 0 100 100" fill="none" xmlns="http://www.w3.org/2000/svg">
<rect width="100" height="100" rx="24" fill="#3DDC84"/>
<path d="M69.8122 62.2001C69.1038 62.2002 68.4114 61.9903 67.8223 61.5969C67.2333 61.2035 66.7742 60.6442 66.503 59.9899C66.2318 59.3355 66.1607 58.6154 66.2988 57.9207C66.4368 57.2259 66.7778 56.5877 67.2786 56.0867C67.7794 55.5858 68.4174 55.2446 69.1121 55.1063C69.8068 54.9679 70.5269 55.0387 71.1814 55.3097C71.8359 55.5806 72.3953 56.0395 72.7889 56.6284C73.1826 57.2173 73.3927 57.9097 73.3929 58.618C73.3918 59.5675 73.0143 60.4778 72.343 61.1493C71.6718 61.8208 70.7616 62.1987 69.8122 62.2001ZM30.2299 62.2001C29.5216 62.2002 28.8291 61.9903 28.2401 61.5969C27.651 61.2035 27.1919 60.6442 26.9207 59.9899C26.6495 59.3355 26.5785 58.6154 26.7165 57.9207C26.8546 57.2259 27.1955 56.5877 27.6963 56.0867C28.1971 55.5858 28.8352 55.2446 29.5299 55.1063C30.2246 54.9679 30.9447 55.0387 31.5991 55.3097C32.2536 55.5806 32.813 56.0395 33.2067 56.6284C33.6003 57.2173 33.8105 57.9097 33.8106 58.618C33.8097 59.5675 33.4322 60.4779 32.7609 61.1495C32.0897 61.821 31.1794 62.1988 30.2299 62.2001ZM71.0964 40.6287L78.2531 28.2332C78.351 28.0639 78.4146 27.877 78.4402 27.6831C78.4658 27.4892 78.453 27.2922 78.4025 27.1032C78.352 26.9143 78.2648 26.7372 78.1458 26.5819C78.0269 26.4267 77.8785 26.2964 77.7092 26.1986C77.5399 26.1007 77.3529 26.0371 77.159 26.0115C76.9652 25.9858 76.7681 25.9986 76.5792 26.0491C76.3903 26.0996 76.2131 26.1869 76.0579 26.3058C75.9027 26.4248 75.7724 26.5732 75.6745 26.7425L68.4274 39.2946C62.8856 36.7652 56.6615 35.3568 50.0204 35.3568C43.3792 35.3568 37.1558 36.7673 31.614 39.2946L24.3675 26.7425C24.2698 26.5731 24.1396 26.4247 23.9845 26.3056C23.8294 26.1866 23.6524 26.0992 23.4635 26.0486C23.2746 25.998 23.0776 25.985 22.8837 26.0105C22.6899 26.036 22.5029 26.0995 22.3336 26.1972C22.1642 26.295 22.0158 26.4251 21.8967 26.5802C21.7776 26.7353 21.6903 26.9124 21.6397 27.1013C21.589 27.2901 21.5761 27.4871 21.6016 27.681C21.6271 27.8749 21.6905 28.0618 21.7883 28.2312L28.9457 40.6287C16.6561 47.313 8.25026 59.7545 7.02069 74.4539H93.0214C91.7904 59.7545 83.3853 47.313 71.0964 40.6287Z" fill="white"/>
</svg>
