<svg width="100" height="100" viewBox="0 0 100 100" fill="none" xmlns="http://www.w3.org/2000/svg">
<rect width="100" height="100" rx="24" fill="white"/>
<g clip-path="url(#clip0_225_1049)">
<path d="M59.5681 28.25L71.2218 30.4523L80.8181 28.25L59.5681 7L56.6366 17.0744L59.5681 28.25Z" fill="#56368A"/>
<path d="M59.5681 28.25V7H24.7955C21.5935 7 19 9.59346 19 12.7955V86.2045C19 89.4065 21.5935 91.9999 24.7955 91.9999H75.0227C78.2247 91.9999 80.8181 89.4065 80.8181 86.2045V28.25H59.5681Z" fill="#7248B9"/>
<path d="M35.4204 68.3352C33.8219 68.3352 32.5227 67.036 32.5227 65.4374C32.5227 63.8389 33.8219 62.5397 35.4204 62.5397C37.019 62.5397 38.3182 63.8389 38.3182 65.4374C38.3182 67.036 37.019 68.3352 35.4204 68.3352ZM35.4204 56.7443C33.8219 56.7443 32.5227 55.4451 32.5227 53.8465C32.5227 52.248 33.8219 50.9488 35.4204 50.9488C37.019 50.9488 38.3182 52.248 38.3182 53.8465C38.3182 55.4451 37.019 56.7443 35.4204 56.7443ZM35.4204 45.1534C33.8219 45.1534 32.5227 43.8542 32.5227 42.2556C32.5227 40.6571 33.8219 39.3579 35.4204 39.3579C37.019 39.3579 38.3182 40.6571 38.3182 42.2556C38.3182 43.8542 37.019 45.1534 35.4204 45.1534ZM67.2954 67.8522H43.1477V63.0227H67.2954V67.8522ZM67.2954 56.2613H43.1477V51.4318H67.2954V56.2613ZM67.2954 44.6704H43.1477V39.8409H67.2954V44.6704Z" fill="white"/>
</g>
<defs>
<clipPath id="clip0_225_1049">
<rect width="61.8182" height="85" fill="white" transform="translate(19 7)"/>
</clipPath>
</defs>
</svg>
