<svg width="100" height="100" viewBox="0 0 100 100" fill="none" xmlns="http://www.w3.org/2000/svg">
<rect width="100" height="100" rx="24" fill="white"/>
<g clip-path="url(#clip0_154_681)">
<path d="M55.0857 49.9715L63.372 59.4429L74.5143 66.5635L76.4571 50.0298L74.5143 33.8652L63.1583 40.1212L55.0857 49.9715Z" fill="#00832D"/>
<path d="M7 65.0285V79.1143C7 82.3345 9.60829 84.9428 12.8286 84.9428H26.9143L29.8286 74.296L26.9143 65.0285L17.2486 62.1143L7 65.0285Z" fill="#0066DA"/>
<path d="M26.9143 15L7 34.9143L17.2486 37.8286L26.9143 34.9143L29.78 25.7731L26.9143 15Z" fill="#E94235"/>
<path d="M26.9143 34.9143H7V65.0286H26.9143V34.9143Z" fill="#2684FC"/>
<path d="M87.24 23.432L74.5143 33.8652V66.5635L87.2983 77.0452C89.212 78.5412 92.0097 77.1763 92.0097 74.7429V25.6857C92.0097 23.2232 89.1488 21.8729 87.24 23.432ZM55.0857 49.9715V65.0286H26.9143V84.9429H68.6857C71.906 84.9429 74.5143 82.3346 74.5143 79.1143V66.5635L55.0857 49.9715Z" fill="#00AC47"/>
<path d="M68.6857 15H26.9143V34.9143H55.0857V49.9714L74.5143 33.8749V20.8286C74.5143 17.6083 71.906 15 68.6857 15Z" fill="#FFBA00"/>
</g>
<defs>
<clipPath id="clip0_154_681">
<rect width="85" height="69.9429" fill="white" transform="translate(7 15)"/>
</clipPath>
</defs>
</svg>
