<svg width="100" height="100" viewBox="0 0 100 100" fill="none" xmlns="http://www.w3.org/2000/svg">
<rect width="100" height="100" rx="24" fill="white"/>
<g clip-path="url(#clip0_175_1012)">
<path d="M14.4261 77.0889L18.1747 83.5637C18.9536 84.9268 20.0733 85.9978 21.3877 86.7767L34.7755 63.6038H8C8 65.1129 8.38946 66.6221 9.16838 67.9852L14.4261 77.0889Z" fill="#0066DA"/>
<path d="M50.5 36.3414L37.1123 13.1685C35.7978 13.9474 34.6781 15.0184 33.8992 16.3815L9.16838 59.2223C8.40379 60.556 8.00102 62.0664 8 63.6037H34.7755L50.5 36.3414Z" fill="#00AC47"/>
<path d="M79.6122 86.7767C80.9267 85.9978 82.0464 84.9268 82.8253 83.5637L84.3831 80.8861L91.8316 67.9852C92.6105 66.6221 93 65.1129 93 63.6038H66.2225L71.9204 74.8008L79.6122 86.7767Z" fill="#EA4335"/>
<path d="M50.5 36.3414L63.8877 13.1684C62.5733 12.3895 61.0641 12 59.5063 12H41.4937C39.9358 12 38.4267 12.4381 37.1122 13.1684L50.5 36.3414Z" fill="#00832D"/>
<path d="M66.2245 63.6038H34.7755L21.3878 86.7767C22.7022 87.5557 24.2114 87.9451 25.7692 87.9451H75.2308C76.7887 87.9451 78.2978 87.507 79.6123 86.7767L66.2245 63.6038Z" fill="#2684FC"/>
<path d="M79.4662 37.8019L67.1008 16.3815C66.3219 15.0184 65.2022 13.9474 63.8877 13.1685L50.5 36.3414L66.2245 63.6037H92.9513C92.9513 62.0946 92.5619 60.5854 91.7829 59.2223L79.4662 37.8019Z" fill="#FFBA00"/>
</g>
<defs>
<clipPath id="clip0_175_1012">
<rect width="85" height="75.945" fill="white" transform="translate(8 12)"/>
</clipPath>
</defs>
</svg>
