<svg width="100" height="100" viewBox="0 0 100 100" fill="none" xmlns="http://www.w3.org/2000/svg">
<rect width="100" height="100" rx="24" fill="#00ACD7"/>
<path d="M13.4147 43.6155C13.2492 43.6155 13.2078 43.5327 13.2905 43.4086L14.1596 42.2912C14.2424 42.167 14.4493 42.0842 14.6149 42.0842H29.3894C29.5549 42.0842 29.5963 42.2084 29.5135 42.3325L28.81 43.4086C28.7272 43.5327 28.5203 43.6569 28.3961 43.6569L13.4147 43.6155Z" fill="white"/>
<path d="M7.16554 47.4231C7 47.4231 6.95861 47.3403 7.04139 47.2162L7.91047 46.0988C7.99324 45.9746 8.20017 45.8918 8.36571 45.8918H27.2373C27.4029 45.8918 27.4856 46.016 27.4443 46.1402L27.1132 47.1334C27.0718 47.2989 26.9062 47.3817 26.7407 47.3817L7.16554 47.4231Z" fill="white"/>
<path d="M17.1807 51.2305C17.0152 51.2305 16.9738 51.1063 17.0566 50.9822L17.636 49.9475C17.7188 49.8234 17.8843 49.6992 18.0498 49.6992H26.3269C26.4924 49.6992 26.5752 49.8234 26.5752 49.9889L26.4924 50.9822C26.4924 51.1477 26.3269 51.2719 26.2027 51.2719L17.1807 51.2305Z" fill="white"/>
<path d="M60.1385 42.8706C57.5312 43.5328 55.7517 44.0294 53.1858 44.6916C52.565 44.8571 52.5236 44.8985 51.9856 44.2777C51.3649 43.5742 50.9096 43.1189 50.0405 42.7051C47.4333 41.4221 44.9088 41.7946 42.5498 43.3259C39.7356 45.1468 38.2872 47.8368 38.3285 51.189C38.3699 54.4998 40.6461 57.2313 43.9155 57.6865C46.7297 58.059 49.0887 57.0657 50.951 54.9551C51.3235 54.4998 51.6546 54.0032 52.0684 53.4238C50.5785 53.4238 48.7162 53.4238 44.0811 53.4238C43.212 53.4238 43.0051 52.8858 43.2948 52.1823C43.8328 50.8993 44.826 48.7473 45.4054 47.6713C45.5296 47.423 45.8193 47.0091 46.44 47.0091C48.5507 47.0091 56.3311 47.0091 61.5042 47.0091C61.4214 48.1265 61.4215 49.2439 61.2559 50.3613C60.8007 53.3411 59.6833 56.0725 57.8623 58.4728C54.8826 62.4044 50.9924 64.8461 46.0676 65.5083C42.0118 66.0463 38.2458 65.26 34.935 62.7769C31.8725 60.4593 30.1343 57.3968 29.6791 53.5894C29.141 49.0784 30.4654 45.0227 33.1968 41.4635C36.1351 37.6147 40.0253 35.173 44.7846 34.3039C48.6748 33.6004 52.3995 34.0556 55.7517 36.3318C57.9451 37.7803 59.5177 39.7667 60.5524 42.1671C60.8007 42.5395 60.6351 42.7465 60.1385 42.8706Z" fill="white"/>
<path d="M73.837 65.7567C70.0709 65.6739 66.636 64.5979 63.739 62.1148C61.2973 60.0042 59.766 57.3141 59.2694 54.1275C58.5245 49.4509 59.8074 45.3124 62.6216 41.6292C65.6427 37.6562 69.2846 35.5869 74.2095 34.7178C78.4307 33.9729 82.4037 34.3868 86.0042 36.8285C89.2736 39.0633 91.3015 42.0844 91.8395 46.0574C92.5431 51.6444 90.9291 56.1967 87.0802 60.0869C84.3488 62.8597 80.9966 64.5979 77.1478 65.3842C76.0304 65.5911 74.913 65.6325 73.837 65.7567ZM83.6867 49.0371C83.6453 48.4991 83.6453 48.0852 83.5625 47.6714C82.8176 43.5743 79.0515 41.2567 75.1199 42.1672C71.2711 43.0362 68.788 45.478 67.8775 49.3682C67.1326 52.5962 68.7052 55.8656 71.685 57.19C73.9612 58.1832 76.2373 58.0591 78.4307 56.9417C81.7002 55.2449 83.4797 52.5962 83.6867 49.0371Z" fill="white"/>
</svg>
