<svg width="100" height="100" viewBox="0 0 100 100" fill="none" xmlns="http://www.w3.org/2000/svg">
<rect width="100" height="100" rx="24" fill="white"/>
<path d="M19.8025 54.0145C19.9244 56.5261 22.4361 55.3557 23.5577 54.5753C24.6307 53.8193 24.9477 54.4534 25.0452 52.9902C25.1184 52.0149 25.2158 51.0638 25.1671 50.0886C23.5333 49.9422 21.7775 50.3324 20.4363 51.3077C19.7293 51.7953 18.4612 53.4049 19.8022 54.0145M69.8649 84.8858C71.7912 86.0807 75.3272 89.6898 72.4253 91.4455C69.6453 93.9817 68.0849 88.6411 65.6462 87.9096C66.6947 86.4709 68.0115 85.1541 69.8649 84.8858ZM35.3844 88.9581C33.1166 89.2996 31.8485 91.3479 29.9466 92.3966C28.1664 93.4451 27.4836 92.0551 27.3373 91.7626C27.0692 91.6406 27.0934 91.8845 26.6545 91.4455C24.9964 88.8362 28.3615 86.9343 30.1172 85.6418C32.5557 85.1541 34.0921 87.2756 35.3844 88.9581ZM80.5699 53.6974C80.448 56.2091 77.9363 55.0387 76.8146 54.2583C75.7416 53.5023 75.4246 54.1364 75.3272 52.6732C75.2537 51.6979 75.1563 50.7468 75.2053 49.7715C76.8388 49.6251 78.5946 50.0154 79.9358 50.9907C80.6188 51.4783 81.9111 53.0879 80.5699 53.6974Z" fill="#F6D2A2"/>
<path d="M73.9127 23.0698C82.6182 19.9972 75.8148 8.07314 68.2308 13.3401C63.2565 9.07267 56.4044 8.29224 49.2106 8.29224C42.1638 8.85357 35.4576 10.1459 30.7758 14.2424C23.216 9.36521 16.2421 21.07 25.1181 24.0208C22.6309 33.6771 25.4594 43.5287 25.0692 53.3558C24.7034 62.1834 22.3869 74.0098 27.2883 81.935C31.4583 88.7141 40.4318 91.1284 47.8207 91.3967C57.2576 91.7379 68.694 89.4214 73.2784 80.277C77.6677 71.5716 76.4486 60.7202 75.8878 51.332C75.3269 41.8461 76.3754 32.2141 73.9125 23.0695L73.9127 23.0698Z" fill="#69D7E2"/>
<path d="M81.2281 52.2099C80.9843 51.6978 80.5212 51.1125 80.0822 50.7955C78.9605 49.9908 77.5216 49.5519 76.0342 49.5031C75.9854 47.9912 75.9367 46.3329 75.9367 44.236V42.3338C75.9123 36.3352 75.8391 33.7016 75.4978 30.4095C75.2295 27.8249 74.8148 25.4351 74.2297 23.1917C76.205 22.4358 77.4973 21.1922 78.0095 19.5826C78.4971 18.0952 78.2533 16.4126 77.4244 14.9252C76.5708 13.462 75.2053 12.3646 73.6202 11.9259C71.9132 11.4625 70.06 11.804 68.2798 12.9986C66.6947 11.6576 64.866 10.6333 62.8175 9.85291C59.1841 8.51213 54.9657 8 49.2351 8V8.24382L49.2106 8C43.0901 8.48765 38.5544 9.43871 34.7991 11.2676C33.2872 11.9991 31.9462 12.877 30.7758 13.9012C28.9711 12.7795 27.0934 12.5112 25.3622 13.0478C23.7528 13.5355 22.3629 14.6816 21.5337 16.1691C20.7046 17.6565 20.5095 19.3635 21.0703 20.8267C21.6311 22.2896 22.9235 23.4358 24.8501 24.143C24.2405 26.6057 23.9235 29.2151 23.8748 32.0925C23.8258 34.8967 23.9477 37.1403 24.3866 42.2122C24.7037 45.9919 24.8256 47.7232 24.8745 49.8204C23.2162 49.7472 21.5582 50.1861 20.3143 51.0885C19.8754 51.4055 19.3878 51.9663 19.1684 52.5027C18.8514 53.1857 18.9733 53.7953 19.6074 54.161C19.7048 55.3314 20.3633 55.8678 21.3631 55.7703C22.0946 55.6971 22.9724 55.3069 23.7284 54.7706C23.8881 54.6549 24.0598 54.5569 24.2405 54.478C24.3137 54.4535 24.3624 54.4291 24.4356 54.4046C24.4356 54.4046 24.5818 54.3561 24.6307 54.3316C24.7037 54.3071 24.7769 54.2827 24.8256 54.2339C24.7769 55.3801 24.6794 56.575 24.4598 59.3063C24.216 62.3785 24.0941 64.0613 24.0454 65.939C23.8258 72.9129 24.6549 77.985 27.1421 82.0085C27.9226 83.2766 28.8736 84.3983 29.9953 85.4226C29.7757 85.5687 28.8492 86.2517 28.5566 86.471C27.5324 87.2515 26.8254 87.9098 26.4107 88.6412C25.8743 89.5923 25.8743 90.5434 26.4839 91.5431L26.5083 91.5676L26.5328 91.5921C26.8009 91.8601 26.9473 91.9333 27.1424 91.9333H27.2151C27.2396 91.9823 27.2641 92.0065 27.2885 92.0552C27.3615 92.1772 27.4347 92.2746 27.5079 92.3723C28.1174 93.0795 28.9708 93.2501 30.117 92.5674C30.7265 92.2504 31.1655 91.8844 32.0921 91.1042L32.141 91.0552C33.6284 89.7874 34.3599 89.3242 35.4574 89.1534L35.8476 89.0802C35.9937 89.1536 36.1401 89.2023 36.3107 89.2753C39.7735 90.6653 43.7968 91.4212 47.8694 91.5676C53.1365 91.7627 58.2086 91.1042 62.5002 89.5436C63.6464 89.1291 64.7194 88.6412 65.7436 88.1049C66.3777 88.3487 66.9138 88.8608 67.9383 90.0557C67.987 90.1047 67.987 90.1047 68.0112 90.1531C68.0602 90.2021 68.0602 90.2266 68.0847 90.2508C68.1332 90.324 68.2063 90.3727 68.2551 90.4459C69.06 91.3967 69.5966 91.8601 70.2061 92.1284C71.0106 92.4697 71.791 92.2991 72.5957 91.5676C74.0101 90.6897 74.1076 89.3242 73.1807 87.7634C72.5225 86.6662 71.3765 85.52 70.3036 84.7885C71.5717 83.5449 72.6689 82.0575 73.5222 80.3747C75.8633 75.6929 76.7656 70.2306 76.7169 63.2077C76.6924 60.7205 76.5948 58.5503 76.3267 54.4046V54.2829C76.4486 54.3316 76.5705 54.4048 76.6924 54.5023C77.4484 55.0144 78.3263 55.4288 79.0577 55.502C80.0575 55.5997 80.716 55.0631 80.8134 53.8927C81.423 53.5025 81.5449 52.8929 81.2279 52.2102L81.2281 52.2099ZM73.474 12.4378C74.9372 12.828 76.2053 13.8523 76.9855 15.2178C77.7659 16.5833 77.9852 18.1197 77.5463 19.4852C77.0831 20.9239 75.9125 22.07 74.0836 22.7528C73.7189 21.4472 73.2876 20.1612 72.7913 18.8998C73.4985 18.2903 73.8397 17.5343 73.2789 16.4616C72.7183 15.3884 71.7428 15.2665 70.7427 15.5835C70.1087 14.7544 69.4017 14.0229 68.6702 13.3401C70.2796 12.3159 71.9379 12.0233 73.474 12.4378ZM21.4852 20.6801C20.9731 19.363 21.1437 17.8026 21.9242 16.4371C22.7044 15.0714 23.9724 13.9986 25.4843 13.5597C27.045 13.0963 28.7275 13.3156 30.3858 14.2912C29.4269 15.1531 28.5753 16.1274 27.8496 17.1931C26.5815 16.5346 25.2892 16.4126 24.5578 17.7537C23.8018 19.1926 24.6797 20.0947 25.9233 20.7775C25.7526 21.1922 25.5818 21.6311 25.4356 22.07C25.2648 22.6064 25.0941 23.1672 24.948 23.7281C23.1678 23.0453 21.9974 21.9968 21.4852 20.6801ZM24.4358 53.9169C24.4114 53.9169 24.265 53.9656 24.265 53.9899C24.192 54.0144 24.1188 54.0388 24.0456 54.0876C23.8505 54.1608 23.6554 54.2827 23.4606 54.4288C22.7776 54.9167 21.9484 55.2824 21.3144 55.3312C20.5829 55.4044 20.1684 55.0873 20.0952 54.2095C20.6074 54.0388 20.8267 53.9169 21.0218 53.6244L20.6316 53.3316C20.4855 53.5267 20.3391 53.5999 19.9001 53.7461C19.8757 53.7461 19.8757 53.7461 19.8512 53.7705C19.4612 53.551 19.388 53.2097 19.6076 52.722C19.8027 52.2831 20.2416 51.771 20.6074 51.5029C21.7778 50.6493 23.3384 50.2349 24.899 50.3323C24.899 50.9418 24.9235 51.5514 24.899 52.1365C24.899 52.2099 24.899 52.2586 24.8745 52.3318C24.8503 52.6731 24.8503 52.8195 24.8258 52.9904C24.7529 53.6973 24.7039 53.7948 24.4358 53.9169ZM31.8 90.7137L31.751 90.7627C30.8489 91.5429 30.41 91.8599 29.8492 92.1769C28.9226 92.7378 28.2886 92.6158 27.8496 92.0795C27.7764 92.006 27.7277 91.9086 27.679 91.8354C27.6545 91.8109 27.63 91.7625 27.6058 91.738V91.7135C27.6548 91.2746 27.8254 90.9576 28.2643 90.2748C28.2888 90.2503 28.2888 90.2503 28.2888 90.2261C28.5569 89.8359 28.6788 89.6165 28.8007 89.3482L28.3618 89.1531C28.2643 89.3727 28.1424 89.5678 27.8983 89.9578C27.8739 89.9823 27.8739 89.9823 27.8739 90.0067C27.4352 90.6408 27.2398 91.0307 27.1424 91.4697H27.1179H27.0447C26.9958 91.4452 26.9228 91.3965 26.8254 91.299C25.8743 89.7871 26.6303 88.4948 28.776 86.8853C29.0443 86.6904 29.9466 86.0564 30.1904 85.8612C30.2394 85.8612 30.2879 85.8368 30.3368 85.8123C31.6534 86.9342 33.1898 87.9095 34.8968 88.7142C34.8968 88.7387 34.9212 88.7631 34.9455 88.7876C33.9457 89.0312 33.1655 89.5433 31.8 90.7137ZM72.7425 88.0559C73.4985 89.324 73.474 90.348 72.523 91.0552C72.45 90.9088 72.401 90.7382 72.3036 90.4944C72.3036 90.4699 72.3036 90.4699 72.2791 90.4454C71.9379 89.5188 71.7185 89.1289 71.3038 88.6899L70.9623 89.0312C71.3281 89.3727 71.4989 89.7384 71.8402 90.5918C71.8402 90.6163 71.8402 90.6163 71.8647 90.6408C71.9866 90.9576 72.0598 91.1527 72.133 91.3235C71.4989 91.8599 70.9381 91.9576 70.3528 91.6893C69.8406 91.4697 69.353 91.0063 68.5726 90.1286C68.5239 90.0797 68.4751 90.0067 68.4264 89.9335C68.4019 89.9091 68.3775 89.8846 68.353 89.8359C68.3045 89.7872 68.3045 89.7871 68.28 89.7384C67.3777 88.6899 66.8413 88.1291 66.256 87.8118C67.6218 87.0317 68.8411 86.1538 69.9383 85.1295C70.9623 85.8855 72.1085 87.0072 72.7425 88.0559ZM73.0838 80.1551C70.9868 84.3738 67.2803 87.3487 62.3056 89.1531C58.0627 90.6895 53.0393 91.3235 47.8454 91.1284C38.8961 90.8114 31.1417 87.6902 27.5084 81.789C25.0699 77.8628 24.265 72.8639 24.4846 65.9874C24.5578 64.1098 24.6552 62.4273 24.899 59.3547C25.1673 55.892 25.2405 54.8922 25.3137 53.3316C25.3624 52.2099 25.3624 51.0638 25.3382 49.8446C25.2892 47.6987 25.1673 45.9917 24.8503 42.1632C24.4114 37.0911 24.2895 34.872 24.3382 32.092C24.4116 28.4347 24.899 25.2155 25.9233 22.1677C27.5808 17.2171 30.6294 13.8762 35.0187 11.7063C38.7008 9.90212 43.1633 8.97529 49.2351 8.4874C54.917 8.4874 59.0622 8.99953 62.6469 10.3163C66.9385 11.9014 70.1329 14.6812 72.3276 18.9488C73.7421 22.4113 74.5712 26.1423 75.0102 30.434C75.3514 33.7016 75.4246 36.3352 75.4491 42.3094V44.2115C75.4736 47.1621 75.522 49.2348 75.6442 51.3076C75.6929 52.1122 75.7171 52.4537 75.8391 54.3801C76.1074 58.5256 76.205 60.6715 76.2293 63.1587C76.2782 70.1572 75.4004 75.5462 73.0838 80.1551ZM80.5456 53.4535C80.5212 53.4535 80.4969 53.429 80.4727 53.429C80.0338 53.2829 79.8874 53.1852 79.741 53.0146L79.3508 53.3071C79.5703 53.5999 79.7897 53.7218 80.2776 53.8922C80.1799 54.7703 79.7654 55.0873 79.0585 55.0141C78.4244 54.9652 77.595 54.5752 76.9123 54.1118C76.7172 53.9656 76.5223 53.868 76.3272 53.7705C76.3027 53.7705 76.2782 53.7461 76.2538 53.7461C76.1563 52.405 76.1563 52.0635 76.1076 51.3563L76.0344 50.0395C77.4002 50.064 78.7412 50.4784 79.7652 51.2344C80.1312 51.5027 80.5701 52.0148 80.7652 52.4535C81.009 52.8682 80.9603 53.2339 80.5456 53.4535Z" fill="black"/>
<path d="M52.9076 33.4405C52.9321 34.6841 53.1759 36.0496 52.9564 37.3664C52.6149 38.0005 51.9811 38.0739 51.4202 38.3175C50.6398 38.1956 49.9813 37.6835 49.6645 36.952C49.4694 35.4646 49.7132 34.0501 49.7864 32.5627C49.7864 32.5137 50.713 32.5871 51.5421 32.831C52.2491 33.0503 52.9076 33.416 52.9076 33.4405ZM46.0066 33.538C45.3236 36.1231 46.909 40.3415 49.5181 36.8788C49.323 35.4156 49.5426 34.0014 49.6155 32.5627C49.64 32.4408 46.0311 33.3673 46.0066 33.538Z" fill="white"/>
<path d="M53.2002 34.5867C53.1512 33.855 53.127 33.5625 53.127 33.1967V33.0261L52.9564 32.9772L49.8838 32.0263V31.8555L49.5668 31.9289H49.5423V31.9531L46.0798 32.831L45.9579 32.8555L45.909 32.9772C45.3726 34.2697 45.4945 36.2205 46.1773 37.4154C46.9577 38.7809 48.2255 38.8052 49.5181 37.2446C49.6982 37.5922 49.9576 37.8925 50.2753 38.1213C50.5929 38.3501 50.96 38.5009 51.3468 38.5616H51.4202L51.4932 38.5371C51.5908 38.4882 51.6883 38.4637 51.8591 38.3907C51.8836 38.3907 51.8836 38.3907 51.9079 38.3662C52.6149 38.1224 52.9076 37.9273 53.1515 37.4641L53.1759 37.4397V37.3909C53.2489 36.952 53.2734 36.4886 53.2734 35.9767C53.2734 35.6107 53.2489 35.2692 53.2002 34.5867ZM49.2985 33.6844C49.274 34.1233 49.2498 34.2939 49.2256 34.5378C49.1766 35.4401 49.1766 36.1229 49.25 36.8056C48.1036 38.2688 47.2015 38.2688 46.592 37.1714C46.0066 36.1474 45.8845 34.4159 46.3237 33.2699L49.3959 32.4895C49.3717 32.8065 49.3475 33.1235 49.2985 33.6844ZM52.7125 37.2935C52.5419 37.5861 52.3223 37.7325 51.737 37.9276C51.7125 37.9276 51.7125 37.9276 51.6883 37.9518C51.5421 38.0008 51.4445 38.0492 51.3713 38.0737C50.7127 37.9518 50.1521 37.5129 49.8838 36.9033C49.8106 36.2448 49.8106 35.562 49.8594 34.6599C49.8838 34.4159 49.8838 34.2452 49.9328 33.8063C49.9813 33.2457 50.0057 32.9042 50.0057 32.5872L52.6638 33.3919C52.6638 33.7089 52.6883 34.0014 52.737 34.6354C52.7857 35.294 52.81 35.6352 52.81 36.0254C52.81 36.4886 52.7855 36.9033 52.7125 37.2935Z" fill="black"/>
<path d="M31.3281 22.8167C33.5715 31.5464 47.5441 29.303 47.0078 20.5489C46.3735 10.0633 29.1824 12.0873 31.3281 22.8167Z" fill="white"/>
<path d="M47.2515 20.5244C47.1051 17.9883 45.9834 16.0132 44.1302 14.7696C42.4719 13.6479 40.2773 13.209 38.1071 13.477C35.9369 13.7701 33.9371 14.7454 32.6203 16.2817C31.1574 17.9885 30.5966 20.2319 31.1087 22.8167C33.4008 31.7902 47.7878 29.6201 47.2515 20.5244ZM31.5474 22.768C31.0597 20.3053 31.5963 18.2081 32.9618 16.623C34.2054 15.1843 36.0831 14.2335 38.1558 13.9652C40.2286 13.6969 42.3013 14.1116 43.8622 15.1843C45.5932 16.3549 46.6419 18.1839 46.7881 20.5979C47.3002 29.1082 33.7175 31.1567 31.5474 22.768Z" fill="black"/>
<path d="M35.1811 23.9384C36.4874 23.9384 37.5464 22.7921 37.5464 21.378C37.5464 19.964 36.4874 18.8176 35.1811 18.8176C33.8748 18.8176 32.8158 19.964 32.8158 21.378C32.8158 22.7921 33.8748 23.9384 35.1811 23.9384Z" fill="black"/>
<path d="M36.2538 22.6215C36.5636 22.6215 36.8147 22.3268 36.8147 21.9632C36.8147 21.5997 36.5636 21.3049 36.2538 21.3049C35.9441 21.3049 35.693 21.5997 35.693 21.9632C35.693 22.3268 35.9441 22.6215 36.2538 22.6215Z" fill="white"/>
<path d="M50.9233 21.1847C52.6548 31.2069 69.0414 28.5488 66.6762 18.4534C64.5547 9.38225 50.338 11.8939 50.9233 21.1847Z" fill="white"/>
<path d="M66.8957 18.4046C64.7255 9.06517 50.0949 11.6256 50.68 21.2089V21.2333C51.4844 25.9639 55.7033 28.3782 60.3607 27.5977C62.4819 27.232 64.384 26.208 65.6276 24.6961C66.9931 23.0133 67.4808 20.8431 66.8957 18.4046ZM65.2621 24.4033C64.0915 25.8178 62.3115 26.7931 60.2875 27.1346C55.8737 27.866 51.9233 25.5982 51.1431 21.1601C50.6065 12.1377 64.4085 9.72345 66.4568 18.5021C66.9934 20.8186 66.5544 22.8427 65.2621 24.4033Z" fill="black"/>
<path d="M54.9469 23.3061C56.2263 23.3061 57.2635 22.1598 57.2635 20.7457C57.2635 19.3316 56.2263 18.1853 54.9469 18.1853C53.6675 18.1853 52.6304 19.3316 52.6304 20.7457C52.6304 22.1598 53.6675 23.3061 54.9469 23.3061Z" fill="black"/>
<path d="M56.0199 21.9892C56.3161 21.9892 56.5563 21.6944 56.5563 21.3309C56.5563 20.9673 56.3161 20.6726 56.0199 20.6726C55.7237 20.6726 55.4835 20.9673 55.4835 21.3309C55.4835 21.6944 55.7237 21.9892 56.0199 21.9892Z" fill="white"/>
<path d="M46.5102 28.2703C44.5836 28.4409 43.023 30.7087 44.023 32.5132C45.3396 34.9029 48.2902 32.2938 50.1191 32.5377C52.2406 32.5866 53.972 34.781 55.6546 32.9279C57.5322 30.8794 54.8499 28.8798 52.7282 28.002L46.5102 28.2703Z" fill="#F6D2A2"/>
<path d="M55.8984 29.9039C55.2399 29.0748 54.094 28.3188 52.8501 27.8067L52.8014 27.7822H52.7527L46.5102 28.0263C44.3398 28.2214 42.7794 30.7331 43.8277 32.635C44.2424 33.3667 44.8032 33.7324 45.5592 33.7811C46.1198 33.8056 46.7053 33.6837 47.6074 33.3667C47.6806 33.3422 47.778 33.3177 47.9 33.269C49.1193 32.8545 49.607 32.7326 50.0946 32.8058H50.1191C50.7042 32.8058 51.1921 32.9765 52.1186 33.3422C53.1429 33.7566 53.4599 33.8788 53.9718 33.9273C54.6793 33.9762 55.2888 33.7324 55.8494 33.1228C56.8005 32.0741 56.7518 30.9524 55.8984 29.9039ZM55.4837 32.7813C55.0205 33.2935 54.5571 33.4643 53.9963 33.4399C53.5574 33.4154 53.2648 33.2935 52.2893 32.9033C51.314 32.4888 50.7776 32.3427 50.1436 32.3182C49.534 32.2447 49.0219 32.3669 47.7293 32.8058C47.6074 32.8545 47.51 32.879 47.4368 32.9033C45.6566 33.5128 44.8032 33.4641 44.2179 32.3911C43.34 30.8063 44.6813 28.6603 46.5102 28.4897L52.6795 28.2456C53.8501 28.7335 54.8986 29.4405 55.5082 30.1967C56.2397 31.0743 56.2641 31.9522 55.4837 32.7813Z" fill="#231F20"/>
<path d="M53.2161 27.2216C52.4601 24.4416 46.12 24.8563 46.2661 28.1726C46.5832 30.6353 53.9476 29.9768 53.2161 27.2216Z" fill="black"/>
</svg>
