<svg width="100" height="100" viewBox="0 0 100 100" fill="none" xmlns="http://www.w3.org/2000/svg">
<rect width="100" height="100" rx="24" fill="white"/>
<path d="M37.0877 89.075C40.5749 90.4785 44.358 91.3113 48.3305 91.4501C53.7065 91.6379 58.8188 90.5264 63.3891 88.415C57.9086 86.2617 52.9451 83.1128 48.7088 79.1978C45.9629 83.5943 41.9015 87.0671 37.0877 89.075Z" fill="#FF9100"/>
<path d="M48.7083 79.1991C39.0384 70.2558 33.1722 57.3115 33.668 43.1139C33.6842 42.6529 33.7085 42.1921 33.737 41.7315C32.0051 41.2836 30.197 41.0103 28.3364 40.9453C25.6732 40.8523 23.0939 41.1826 20.6589 41.8683C18.0776 46.39 16.5198 51.5782 16.3258 57.1354C15.8249 71.4771 24.504 84.0085 37.0871 89.0763C41.901 87.0682 45.9623 83.5998 48.7083 79.1991Z" fill="#FFC400"/>
<path d="M48.7085 79.1986C50.9567 75.6007 52.3197 71.3827 52.4784 66.8381C52.8959 54.8839 44.8596 44.6005 33.7371 41.731C33.7086 42.1916 33.6843 42.6524 33.6681 43.1134C33.1724 57.311 39.0386 70.2553 48.7085 79.1986Z" fill="#FF9100"/>
<path d="M51.2346 8.12866C44.9 13.2035 39.8978 19.8952 36.8712 27.6039C35.1386 32.0193 34.0497 36.7621 33.7319 41.7339C44.8544 44.6034 52.8908 54.8868 52.4734 66.8409C52.3147 71.3854 50.9476 75.5994 48.7033 79.2015C52.9393 83.1205 57.9029 86.2654 63.3834 88.4185C74.384 83.3335 82.1889 72.3916 82.6409 59.4495C82.9337 51.0643 79.712 43.5909 75.1596 37.2828C70.352 30.6112 51.2346 8.12866 51.2346 8.12866Z" fill="#DD2C00"/>
</svg>
