<svg width="100" height="100" viewBox="0 0 100 100" fill="none" xmlns="http://www.w3.org/2000/svg">
<rect width="100" height="100" rx="24" fill="white"/>
<path d="M87.3804 22.9494C82.2451 17.8118 73.962 17.6686 68.6521 22.6255C68.3972 22.8659 68.2489 23.198 68.2398 23.5482C68.2417 23.8969 68.3789 24.2312 68.6226 24.4807L70.3011 26.2181C70.7537 26.6687 71.4685 26.7189 71.9796 26.3358C73.311 25.331 74.9347 24.7898 76.6028 24.7948C79.7324 24.7811 82.5603 26.6595 83.7611 29.5496C84.962 32.4398 84.2978 35.7691 82.0799 37.9772C71.3808 48.6763 57.099 18.6992 24.6876 34.1197C23.5729 34.6408 22.7268 35.6041 22.3539 36.7768C21.981 37.9494 22.1154 39.2246 22.7245 40.2937L28.2801 49.9033C29.4864 51.9837 32.1376 52.7131 34.2383 51.5425L34.3757 51.464L34.2677 51.5425L36.7315 50.1585C39.4772 48.4536 42.0715 46.516 44.4858 44.3673C44.9969 43.9288 45.7514 43.9288 46.2625 44.3673C46.5642 44.6039 46.7413 44.9654 46.7434 45.3488C46.7505 45.7215 46.5967 46.0791 46.3214 46.3304C43.7785 48.5876 41.0425 50.6174 38.1449 52.3965H38.0664L35.6026 53.7707C34.5613 54.3609 33.3838 54.6688 32.1868 54.6639C29.6709 54.6641 27.3435 53.3304 26.0716 51.1597L20.8202 42.0802C10.7297 49.2064 4.60472 62.9385 7.89298 80.3614C8.01349 80.9614 8.53741 81.3953 9.14938 81.4018H15.1369C15.7809 81.4018 16.3239 80.9219 16.4032 80.2828C16.9552 75.9 20.6824 72.6128 25.0999 72.6128C29.5173 72.6128 33.2445 75.9 33.7966 80.2828C33.8804 80.9234 34.4265 81.4018 35.0726 81.4018H40.9031C41.5471 81.4018 42.0901 80.9219 42.1693 80.2828C42.7391 75.9119 46.463 72.6419 50.8709 72.6419C55.2789 72.6419 59.0028 75.9119 59.5725 80.2828C59.6518 80.9219 60.1948 81.4018 60.8388 81.4018H66.6006C67.2977 81.4018 67.8659 80.8425 67.8766 80.1454C68.014 72.0278 70.2029 62.7029 76.4457 58.0307C98.0697 41.8544 92.3864 27.9849 87.3804 22.9494ZM65.3245 47.4199L61.2019 45.3488C61.1974 44.1254 62.0492 43.0654 63.245 42.8066C64.4407 42.5477 65.6546 43.1604 66.1565 44.2762C66.6584 45.392 66.3115 46.7068 65.3245 47.4297V47.4199Z" fill="#02303A"/>
</svg>
