<svg width="100" height="100" viewBox="0 0 100 100" fill="none" xmlns="http://www.w3.org/2000/svg">
<rect width="100" height="100" rx="24" fill="black"/>
<path d="M8.63184 82.5798H47.6943V89.0902H8.63184V82.5798Z" fill="white"/>
<path d="M7 24.8021L9.89932 22.059C10.1752 22.4944 10.5503 22.8583 10.9939 23.1208C11.4375 23.3834 11.937 23.5371 12.4514 23.5695C13.5625 23.5695 14.2917 22.7882 14.2917 21.2778V11H18.7708V21.3125C18.8378 22.1429 18.7303 22.9781 18.4552 23.7644C18.1801 24.5508 17.7436 25.2709 17.1736 25.8785C16.5851 26.4533 15.8865 26.9033 15.1198 27.2017C14.3531 27.5 13.5341 27.6404 12.7118 27.6146C11.6007 27.6593 10.4961 27.4255 9.49847 26.9342C8.50086 26.443 7.64197 25.7101 7 24.8021Z" fill="white"/>
<path d="M20.7848 11H33.8577V14.8021H25.1771V17.2847H32.9723V20.7569H25.2466V23.3437H33.9271V27.1632H20.7327L20.7848 11Z" fill="white"/>
<path d="M40.2291 14.941H35.368V11H49.6215V14.941H44.743V27.25H40.2291V14.941Z" fill="white"/>
<path d="M8.80563 33.6736H16.4792C17.2759 33.6081 18.0775 33.7017 18.8376 33.9491C19.5977 34.1965 20.3009 34.5927 20.9063 35.1146C21.2514 35.4605 21.5231 35.8725 21.7051 36.3259C21.8871 36.7794 21.9756 37.2649 21.9653 37.7535C21.9783 38.5456 21.7424 39.3219 21.2908 39.9729C20.8391 40.6239 20.1946 41.1167 19.448 41.3819C20.3716 41.5512 21.2045 42.0448 21.7965 42.7737C22.3885 43.5025 22.7008 44.4189 22.6772 45.3576C22.6772 48.2916 20.4029 50.0278 16.514 50.0278H8.80563V33.6736ZM17.4862 38.691C17.4862 37.7882 16.757 37.3021 15.4376 37.3021H13.198V40.1493H15.3681C16.7223 40.1493 17.5209 39.6805 17.5209 38.743L17.4862 38.691ZM15.9237 43.309H13.198V46.3125H16.0105C17.3994 46.3125 18.1633 45.7743 18.1633 44.8194C18.1285 43.8993 17.4688 43.309 15.9584 43.309H15.9237Z" fill="white"/>
<path d="M24.118 33.6736H31.3228C32.2766 33.5959 33.2362 33.7095 34.1455 34.0076C35.0548 34.3058 35.8954 34.7824 36.618 35.4097C37.1054 35.9077 37.4849 36.5008 37.7328 37.1519C37.9808 37.8031 38.0918 38.4984 38.059 39.1945C38.0903 40.2751 37.7845 41.3387 37.1841 42.2377C36.5837 43.1367 35.7184 43.8267 34.7083 44.2118L38.5972 50.0278H33.3888L30.1076 45.0972H28.5972V50.0278H24.0833L24.118 33.6736ZM31.0624 41.4861C32.5728 41.4861 33.493 40.7396 33.493 39.5417C33.493 38.2396 32.5381 37.5799 31.0451 37.5799H28.6319V41.5208L31.0624 41.4861Z" fill="white"/>
<path d="M44.3264 33.552H48.6667L55.6111 49.9409H50.7674L49.6042 47.0069H43.3021L42.1389 50.0277H37.4341L44.3264 33.552ZM48.2848 43.4999L46.4618 38.8992L44.6216 43.4999H48.2848Z" fill="white"/>
<path d="M56.323 33.6216H60.8369V49.8889H56.323V33.6216Z" fill="white"/>
<path d="M62.5034 33.6216H66.7395L72.5902 42.3021V33.6216H77.052V49.8889H73.1111L66.9826 40.9653V49.8889H62.5034V33.6216Z" fill="white"/>
<path d="M77.7987 47.4754L80.2986 44.4719C81.7629 45.6961 83.599 46.3877 85.507 46.4337C86.7396 46.4337 87.382 45.9997 87.382 45.3053C87.382 44.5934 86.8612 44.2462 84.6216 43.7254C81.1493 42.9268 78.4931 41.9893 78.4931 38.6386C78.4931 35.6178 80.8889 33.4303 84.7952 33.4303C87.2098 33.3398 89.5782 34.1088 91.4792 35.6004L89.3091 38.6907C87.9958 37.6983 86.4058 37.14 84.7604 37.0935C83.6667 37.0935 83.1285 37.5275 83.1285 38.1351C83.1285 38.8816 83.6841 39.2115 85.9584 39.715C89.691 40.5309 92 41.7462 92 44.7844C92 48.1004 89.3785 49.9928 85.4375 49.9928C82.6698 50.1106 79.954 49.2156 77.7987 47.4754Z" fill="white"/>
</svg>
