<svg width="100" height="100" viewBox="0 0 100 100" fill="none" xmlns="http://www.w3.org/2000/svg">
<rect width="100" height="100" rx="24" fill="#FFE812"/>
<path d="M49.5 11C26.0277 11 7 26.0029 7 44.5096C7 56.4746 14.9549 66.9733 26.9211 72.9017C26.2701 75.1468 22.7377 87.3451 22.5971 88.3034C22.5971 88.3034 22.5125 89.0235 22.9788 89.2981C23.445 89.5727 23.9935 89.3594 23.9935 89.3594C25.3306 89.1726 39.499 79.2203 41.9513 77.4921C44.4012 77.839 46.9238 78.0192 49.5 78.0192C72.9723 78.0192 92 63.0167 92 44.5096C92 26.0029 72.9723 11 49.5 11Z" fill="black"/>
<path d="M26.0024 56.2074C24.6502 56.2074 23.5505 55.1571 23.5505 53.8658V39.2993H19.7247C18.3978 39.2993 17.3185 38.2221 17.3185 36.8985C17.3185 35.5748 18.3982 34.4976 19.7247 34.4976H32.2801C33.607 34.4976 34.6863 35.5748 34.6863 36.8985C34.6863 38.2221 33.6066 39.2993 32.2801 39.2993H28.4543V53.8658C28.4543 55.1571 27.3546 56.2074 26.0024 56.2074ZM47.5025 56.1755C46.48 56.1755 45.6979 55.7603 45.4621 55.0925L44.248 51.914L36.7712 51.9136L35.5563 55.0942C35.3213 55.7607 34.5396 56.1755 33.5171 56.1755C32.9793 56.176 32.4477 56.0606 31.9585 55.8371C31.2826 55.5253 30.6329 54.668 31.3774 52.3554L37.2424 36.9181C37.6556 35.744 38.9106 34.5344 40.5076 34.498C42.1091 34.534 43.3641 35.744 43.778 36.9205L49.6406 52.3509C50.3868 54.6688 49.737 55.5265 49.0611 55.8375C48.5718 56.0606 48.0403 56.1759 47.5025 56.1755ZM42.9587 47.5709L40.5096 40.6135L38.0606 47.5709H42.9587ZM53.5865 55.8498C52.2907 55.8498 51.2368 54.8412 51.2368 53.6022V36.9495C51.2368 35.5973 52.3598 34.4976 53.7398 34.4976C55.1198 34.4976 56.2428 35.5973 56.2428 36.9495V51.3546H61.4531C62.749 51.3546 63.8029 52.3631 63.8029 53.6022C63.8029 54.8412 62.749 55.8498 61.4531 55.8498H53.5865ZM67.2086 56.1755C65.8564 56.1755 64.7567 55.0758 64.7567 53.7236V36.9495C64.7567 35.5973 65.8564 34.4976 67.2086 34.4976C68.5608 34.4976 69.6605 35.5973 69.6605 36.9495V42.2195L76.5014 35.3787C76.8533 35.0268 77.3367 34.8331 77.8614 34.8331C78.4736 34.8331 79.0882 35.0971 79.5487 35.5573C79.9782 35.9863 80.2344 36.5384 80.2696 37.1118C80.3051 37.69 80.1127 38.22 79.7285 38.6046L74.141 44.1913L80.1764 52.187C80.3713 52.4435 80.5132 52.7362 80.5941 53.048C80.6749 53.3598 80.6929 53.6846 80.6472 54.0035C80.6035 54.3226 80.4969 54.6298 80.3336 54.9074C80.1703 55.1849 79.9535 55.4273 79.6958 55.6205C79.2718 55.9428 78.7536 56.1167 78.221 56.1154C77.8411 56.1172 77.4661 56.0299 77.1259 55.8607C76.7858 55.6914 76.49 55.4449 76.2623 55.1408L70.5122 47.5218L69.6613 48.3726V53.7223C69.6606 54.3726 69.4019 54.9961 68.9421 55.456C68.4823 55.9159 67.8589 56.1746 67.2086 56.1755Z" fill="#FFE812"/>
</svg>
