<svg width="100" height="100" viewBox="0 0 100 100" fill="none" xmlns="http://www.w3.org/2000/svg">
<rect width="100" height="100" rx="24" fill="#0A66C2"/>
<path fill-rule="evenodd" clip-rule="evenodd" d="M87 88H71.5898V61.7531C71.5898 54.5569 68.8555 50.5354 63.1597 50.5354C56.9634 50.5354 53.7261 54.7204 53.7261 61.7531V88H38.875V38H53.7261V44.735C53.7261 44.735 58.1914 36.4724 68.8018 36.4724C79.4072 36.4724 87 42.9488 87 56.3431V88ZM21.1577 31.4529C16.0991 31.4529 12 27.3216 12 22.2265C12 17.1313 16.0991 13 21.1577 13C26.2163 13 30.313 17.1313 30.313 22.2265C30.313 27.3216 26.2163 31.4529 21.1577 31.4529ZM13.4893 88H28.9751V38H13.4893V88Z" fill="white"/>
</svg>
