<svg width="100" height="100" viewBox="0 0 100 100" fill="none" xmlns="http://www.w3.org/2000/svg">
<rect width="100" height="100" rx="24" fill="black"/>
<path d="M31.973 26C45.2129 26 55.9451 36.8071 55.9451 50.1375C55.9451 63.4678 45.2121 74.2742 31.973 74.2742C18.7338 74.2742 8 63.4678 8 50.1375C8 36.8071 18.733 26 31.973 26ZM70.2561 27.4139C76.876 27.4139 82.2425 37.5866 82.2425 50.1375H82.2434C82.2434 62.6851 76.8769 72.861 70.2569 72.861C63.6369 72.861 58.2704 62.6851 58.2704 50.1375C58.2704 37.5898 63.6361 27.4139 70.2561 27.4139ZM88.7843 29.7807C91.1121 29.7807 93 38.8946 93 50.1375C93 61.3771 91.1129 70.4942 88.7843 70.4942C86.4558 70.4942 84.5695 61.3795 84.5695 50.1375C84.5695 38.8954 86.4566 29.7807 88.7843 29.7807Z" fill="white"/>
</svg>
