<svg width="100" height="100" viewBox="0 0 100 100" fill="none" xmlns="http://www.w3.org/2000/svg">
<rect width="100" height="100" rx="24" fill="black"/>
<path d="M42.149 40.847C40.9073 40.0209 36.7813 37.1501 36.7813 37.1501C40.2605 32.1626 44.85 30.2209 51.1938 30.2209C55.6802 30.2209 59.4896 31.7334 62.2094 34.5959C64.9303 37.4595 66.4823 41.5543 66.8355 46.7907C68.3438 47.423 69.7365 48.1678 71.0011 49.0199C76.1011 52.4574 78.9094 57.597 78.9094 63.4897C78.9094 76.0136 68.6657 86.8928 50.123 86.8928C34.2021 86.8928 17.6615 77.6105 17.6615 49.9709C17.6615 22.4886 33.6834 13.1042 50.0782 13.1042C57.649 13.1042 75.4073 14.2251 82.0855 36.3272L75.823 37.9553C70.6594 22.2084 59.8334 19.7022 49.9073 19.7022C33.499 19.7022 24.2177 29.7157 24.2177 51.0199C24.2177 70.122 34.5917 80.2699 50.125 80.2699C62.9042 80.2699 72.4323 73.6136 72.4323 63.8699C72.4323 57.2386 66.873 54.0636 66.5886 54.0636C65.5032 59.7532 62.5928 69.324 49.8167 69.324C42.373 69.324 35.9553 64.1709 35.9553 57.4188C35.9553 47.7772 45.0813 44.2876 52.2886 44.2876C54.9875 44.2876 58.2448 44.4699 59.9407 44.8157C59.9407 41.8772 57.4605 36.848 51.1948 36.848C45.45 36.847 43.9928 38.7147 42.149 40.847ZM53.1698 50.873C43.7813 50.873 42.5667 54.8845 42.5667 57.4043C42.5667 61.4522 47.3657 62.7938 49.9261 62.7938C54.6198 62.7938 59.4417 61.4897 60.2 51.6157C57.8198 51.0803 56.0459 50.873 53.1698 50.873Z" fill="white"/>
</svg>
