<svg width="100" height="100" viewBox="0 0 100 100" fill="none" xmlns="http://www.w3.org/2000/svg">
<rect width="100" height="100" rx="24" fill="white"/>
<path d="M40.4132 38.1218L40.414 38.1189L58.2578 48.8071L68.8906 44.3326C71.0512 43.3985 73.381 42.9196 75.7348 42.9219C76.127 42.9219 76.5146 42.9397 76.9003 42.9654C75.622 37.9807 72.9233 33.4747 69.1324 29.9948C65.3414 26.5149 60.6213 24.211 55.5456 23.3631C50.4699 22.5152 45.2573 23.1598 40.541 25.2185C35.8248 27.2772 31.8081 30.6615 28.9789 34.96C29.0698 34.9588 29.1593 34.9531 29.2504 34.9531C33.194 34.9478 37.0606 36.0453 40.4132 38.1218Z" fill="#0364B8"/>
<path d="M40.4136 38.1189L40.4128 38.1218C37.0601 36.0454 33.1936 34.9478 29.25 34.9531C29.1589 34.9531 29.0692 34.9589 28.9784 34.96C25.1187 35.0078 21.3448 36.1064 18.0626 38.1379C14.7803 40.1694 12.1136 43.0569 10.3491 46.4901C8.58462 49.9233 7.78901 53.7724 8.04779 57.6238C8.30658 61.4752 9.60996 65.1833 11.8179 68.3496L27.5535 61.7277L34.5485 58.7841L50.1235 52.2299L58.2573 48.8071L40.4136 38.1189Z" fill="#0078D4"/>
<path d="M76.8999 42.9654C76.5142 42.9397 76.1265 42.9219 75.7344 42.9219C73.3805 42.9196 71.0512 43.4003 68.8906 44.3344L58.2573 48.8071L61.3406 50.6539L71.4475 56.7078L75.8571 59.3491L90.9348 68.3806C92.3049 65.8372 93.0148 62.9908 92.9998 60.102C92.9847 57.2132 92.245 54.3743 90.8485 51.8455C89.452 49.3166 87.4432 47.1785 85.0063 45.6271C82.5694 44.0757 79.7821 43.1605 76.8999 42.9654Z" fill="#1490DF"/>
<path d="M75.8575 59.3489L71.4479 56.7076L61.3411 50.6537L58.2578 48.8069L50.124 52.2297L34.549 58.7839L27.554 61.7275L11.8184 68.3493C13.7738 71.1607 16.3806 73.4571 19.4162 75.0424C22.4517 76.6276 25.8259 77.4547 29.2505 77.4529H75.7348C78.8515 77.4538 81.9104 76.6109 84.5866 75.0135C87.2629 73.4162 89.4567 71.124 90.9353 68.3803L75.8575 59.3489Z" fill="#28A8EA"/>
</svg>
