<svg width="100" height="100" viewBox="0 0 100 100" fill="none" xmlns="http://www.w3.org/2000/svg">
<rect width="100" height="100" rx="24" fill="white"/>
<g clip-path="url(#clip0_175_699)">
<path d="M83.7324 71.252C82.5926 71.8443 81.4172 72.3655 80.2129 72.8125C76.3997 74.2318 72.3617 74.9517 68.293 74.9375C52.5879 74.9375 38.9082 64.1465 38.9082 50.2676C38.9286 48.4091 39.4439 46.5897 40.4009 44.9965C41.358 43.4033 42.7224 42.0939 44.3535 41.2031C30.1426 41.8008 26.4902 56.6094 26.4902 65.2754C26.4902 89.8457 49.1016 92.3027 53.9824 92.3027C56.6055 92.3027 60.5566 91.5391 62.9473 90.7754L63.3789 90.6426C72.5277 87.4809 80.3269 81.2977 85.4922 73.1113C85.6423 72.8626 85.7067 72.5715 85.6756 72.2826C85.6444 71.9938 85.5194 71.7231 85.3197 71.5121C85.12 71.3011 84.8566 71.1614 84.5699 71.1144C84.2832 71.0674 83.989 71.1157 83.7324 71.252Z" fill="url(#paint0_linear_175_699)"/>
<path opacity="0.35" d="M83.7324 71.252C82.5926 71.8443 81.4172 72.3655 80.2129 72.8125C76.3997 74.2318 72.3617 74.9517 68.293 74.9375C52.5879 74.9375 38.9082 64.1465 38.9082 50.2676C38.9286 48.4091 39.4439 46.5897 40.4009 44.9965C41.358 43.4033 42.7224 42.0939 44.3535 41.2031C30.1426 41.8008 26.4902 56.6094 26.4902 65.2754C26.4902 89.8457 49.1016 92.3027 53.9824 92.3027C56.6055 92.3027 60.5566 91.5391 62.9473 90.7754L63.3789 90.6426C72.5277 87.4809 80.3269 81.2977 85.4922 73.1113C85.6423 72.8626 85.7067 72.5715 85.6756 72.2826C85.6444 71.9938 85.5194 71.7231 85.3197 71.5121C85.12 71.3011 84.8566 71.1614 84.5699 71.1144C84.2832 71.0674 83.989 71.1157 83.7324 71.252Z" fill="url(#paint1_radial_175_699)"/>
<path d="M42.0957 88.1191C39.1402 86.2835 36.5784 83.8797 34.5586 81.0469C32.2521 77.8899 30.6644 74.2664 29.907 70.4307C29.1496 66.595 29.2408 62.6399 30.1741 58.8432C31.1075 55.0464 32.8604 51.5 35.3099 48.4526C37.7595 45.4053 40.8462 42.9309 44.3535 41.2031C45.416 40.7051 47.1758 39.8418 49.5332 39.875C51.1921 39.8878 52.8255 40.2841 54.3058 41.0329C55.7861 41.7817 57.0732 42.8627 58.0664 44.1914C59.4024 45.988 60.1347 48.1617 60.1582 50.4004C60.1582 50.334 68.293 23.9707 33.5957 23.9707C19.0195 23.9707 7.0332 37.7832 7.0332 49.9356C6.97522 56.3549 8.34763 62.7066 11.0508 68.5293C15.4777 77.9558 23.2115 85.4287 32.7843 89.5296C42.3571 93.6305 53.1024 94.0738 62.9805 90.7754C59.5197 91.8684 55.863 92.197 52.2628 91.7383C48.6627 91.2797 45.2051 90.0449 42.1289 88.1191H42.0957Z" fill="url(#paint2_linear_175_699)"/>
<path opacity="0.41" d="M42.0957 88.1191C39.1402 86.2835 36.5784 83.8797 34.5586 81.0469C32.2521 77.8899 30.6644 74.2664 29.907 70.4307C29.1496 66.595 29.2408 62.6399 30.1741 58.8432C31.1075 55.0464 32.8604 51.5 35.3099 48.4526C37.7595 45.4053 40.8462 42.9309 44.3535 41.2031C45.416 40.7051 47.1758 39.8418 49.5332 39.875C51.1921 39.8878 52.8255 40.2841 54.3058 41.0329C55.7861 41.7817 57.0732 42.8627 58.0664 44.1914C59.4024 45.988 60.1347 48.1617 60.1582 50.4004C60.1582 50.334 68.293 23.9707 33.5957 23.9707C19.0195 23.9707 7.0332 37.7832 7.0332 49.9356C6.97522 56.3549 8.34763 62.7066 11.0508 68.5293C15.4777 77.9558 23.2115 85.4287 32.7843 89.5296C42.3571 93.6305 53.1024 94.0738 62.9805 90.7754C59.5197 91.8684 55.863 92.197 52.2628 91.7383C48.6627 91.2797 45.2051 90.0449 42.1289 88.1191H42.0957Z" fill="url(#paint3_radial_175_699)"/>
<path d="M57.6016 57.4062C57.3027 57.7383 56.4727 58.2363 56.4727 59.2656C56.4727 60.1289 57.0371 60.9922 58.0664 61.6895C62.8144 65.0098 71.8125 64.5449 71.8457 64.5449C75.3853 64.5426 78.8596 63.5909 81.9062 61.7891C84.9736 59.995 87.5187 57.4303 89.2892 54.3493C91.0597 51.2683 91.9942 47.7781 92 44.2246C92.0996 36.7871 89.3438 31.8398 88.248 29.6484C81.1758 15.9023 66.002 8 49.5 8C38.3311 7.9989 27.6106 12.3944 19.6573 20.2359C11.704 28.0774 7.15706 38.7345 7 49.9023C7.16602 37.7832 19.2188 27.9883 33.5625 27.9883C34.7246 27.9883 41.3652 28.0879 47.5078 31.3086C51.8233 33.453 55.3969 36.8417 57.7676 41.0371C59.793 44.5566 60.1582 49.0391 60.1582 50.832C60.1582 52.625 59.2617 55.248 57.5684 57.4394L57.6016 57.4062Z" fill="url(#paint4_radial_175_699)"/>
<path d="M57.6016 57.4062C57.3027 57.7383 56.4727 58.2363 56.4727 59.2656C56.4727 60.1289 57.0371 60.9922 58.0664 61.6895C62.8144 65.0098 71.8125 64.5449 71.8457 64.5449C75.3853 64.5426 78.8596 63.5909 81.9062 61.7891C84.9736 59.995 87.5187 57.4303 89.2892 54.3493C91.0597 51.2683 91.9942 47.7781 92 44.2246C92.0996 36.7871 89.3438 31.8398 88.248 29.6484C81.1758 15.9023 66.002 8 49.5 8C38.3311 7.9989 27.6106 12.3944 19.6573 20.2359C11.704 28.0774 7.15706 38.7345 7 49.9023C7.16602 37.7832 19.2188 27.9883 33.5625 27.9883C34.7246 27.9883 41.3652 28.0879 47.5078 31.3086C51.8233 33.453 55.3969 36.8417 57.7676 41.0371C59.793 44.5566 60.1582 49.0391 60.1582 50.832C60.1582 52.625 59.2617 55.248 57.5684 57.4394L57.6016 57.4062Z" fill="url(#paint5_radial_175_699)"/>
</g>
<defs>
<linearGradient id="paint0_linear_175_699" x1="26.4902" y1="66.7695" x2="85.7246" y2="66.7695" gradientUnits="userSpaceOnUse">
<stop stop-color="#0C59A4"/>
<stop offset="1" stop-color="#114A8B"/>
</linearGradient>
<radialGradient id="paint1_radial_175_699" cx="0" cy="0" r="1" gradientUnits="userSpaceOnUse" gradientTransform="translate(59.1953 67.2161) scale(31.6758 30.092)">
<stop offset="0.7" stop-opacity="0"/>
<stop offset="0.9" stop-opacity="0.5"/>
<stop offset="1"/>
</radialGradient>
<linearGradient id="paint2_linear_175_699" x1="57.7012" y1="41.0703" x2="20.7461" y2="81.3457" gradientUnits="userSpaceOnUse">
<stop stop-color="#1B9DE2"/>
<stop offset="0.2" stop-color="#1595DF"/>
<stop offset="0.7" stop-color="#0680D7"/>
<stop offset="1" stop-color="#0078D4"/>
</linearGradient>
<radialGradient id="paint3_radial_175_699" cx="0" cy="0" r="1" gradientUnits="userSpaceOnUse" gradientTransform="translate(30.4265 74.0533) rotate(-81.3844) scale(47.6086 38.463)">
<stop offset="0.8" stop-opacity="0"/>
<stop offset="0.9" stop-opacity="0.5"/>
<stop offset="1"/>
</radialGradient>
<radialGradient id="paint4_radial_175_699" cx="0" cy="0" r="1" gradientUnits="userSpaceOnUse" gradientTransform="translate(15.5963 23.7104) rotate(92.2906) scale(67.2569 143.243)">
<stop stop-color="#35C1F1"/>
<stop offset="0.1" stop-color="#34C1ED"/>
<stop offset="0.2" stop-color="#2FC2DF"/>
<stop offset="0.3" stop-color="#2BC3D2"/>
<stop offset="0.7" stop-color="#36C752"/>
</radialGradient>
<radialGradient id="paint5_radial_175_699" cx="0" cy="0" r="1" gradientUnits="userSpaceOnUse" gradientTransform="translate(86.7074 33.666) rotate(73.7398) scale(32.3066 26.2718)">
<stop stop-color="#66EB6E"/>
<stop offset="1" stop-color="#66EB6E" stop-opacity="0"/>
</radialGradient>
<clipPath id="clip0_175_699">
<rect width="85" height="85" fill="white" transform="translate(7 8)"/>
</clipPath>
</defs>
</svg>
