<svg width="100" height="100" viewBox="0 0 100 100" fill="none" xmlns="http://www.w3.org/2000/svg">
<rect width="100" height="100" rx="24" fill="#006B33"/>
<path d="M28.6117 50.4574V40.7077H30.132H31.6523V41.3522C31.6523 41.7066 31.6577 41.9966 31.6643 41.9966C31.671 41.9966 31.8629 41.8798 32.0908 41.737C34.7799 40.0527 38.6891 39.5455 42.1952 40.426C45.3539 41.2193 47.6438 43.1025 48.4579 45.5763C48.9336 47.022 48.9073 48.6296 48.3852 50.0278C47.7358 51.7669 46.4007 53.1652 44.4749 54.1231C42.7897 54.9614 40.8656 55.3812 38.7084 55.3812C36.9201 55.3812 35.2522 55.083 33.784 54.5008C33.2014 54.2697 32.4547 53.8905 32.0017 53.5956L31.6523 53.3682V56.7877V60.2071H30.132H28.6117V50.4574ZM40.1792 52.7892C41.8894 52.5466 43.2163 52.004 44.2112 51.1404C44.9644 50.4866 45.4889 49.5787 45.6875 48.5848C45.7688 48.1783 45.769 47.2183 45.6884 46.813C45.4545 45.6433 44.7842 44.6216 43.7808 43.905C43.3763 43.6162 42.5548 43.2047 42.0304 43.0283C40.5495 42.5302 38.754 42.3827 37.1096 42.6241C34.2544 43.0431 32.3246 44.4591 31.8069 46.5151C31.5784 47.4222 31.6192 48.4014 31.9211 49.2573C32.6068 51.2014 34.6287 52.4951 37.486 52.818C38.0605 52.8829 39.6377 52.866 40.1796 52.7892H40.1792ZM50.2594 50.4574V40.7077H51.7796H53.3V41.3522C53.3 41.7066 53.3066 41.9966 53.3146 41.9966C53.3227 41.9966 53.49 41.8919 53.6864 41.7638C54.1409 41.4675 55.0382 41.0244 55.6134 40.812C58.0968 39.8954 61.1291 39.7475 63.7826 40.4137C68.1082 41.4997 70.6555 44.475 70.415 48.1604C70.2314 50.9736 68.3595 53.2845 65.2805 54.4988C64.2761 54.8949 63.2468 55.1447 61.9587 55.305C61.2788 55.3896 59.4464 55.3894 58.7367 55.3048C56.7278 55.0651 54.9642 54.4686 53.5891 53.5638L53.3 53.3735V56.7903V60.2072H51.7796H50.2594V50.4574ZM61.9003 52.7748C64.2691 52.4211 65.9383 51.4669 66.8154 49.9651C67.3248 49.0928 67.5155 47.9324 67.3266 46.855C66.9339 44.6155 64.9658 43.0659 61.9526 42.6236C59.9638 42.3317 57.7183 42.6225 56.1918 43.3696C54.6336 44.1321 53.6958 45.2708 53.3757 46.7889C53.2917 47.1874 53.2919 48.2119 53.3766 48.6025C53.6033 49.6539 54.1157 50.5239 54.8935 51.1778C55.9644 52.078 57.3581 52.6141 59.1667 52.8213C59.7649 52.8899 61.3059 52.8637 61.9008 52.7748H61.9003ZM16.0528 55.361C14.4399 55.2186 13.0632 54.9008 11.8926 54.4008C9.22996 53.2635 7.54823 51.3441 7.09183 48.9214C7.00466 48.4587 6.97141 47.4162 7.02793 46.9181C7.35751 44.0136 9.49715 41.7129 12.88 40.6258C14.6802 40.0472 16.8961 39.8583 18.885 40.1136C22.529 40.5815 25.2854 42.2712 26.4969 44.7799C27.4834 46.8225 27.3582 49.3036 26.1724 51.211C25.6382 52.0703 24.7588 52.9571 23.8525 53.5502C22.4426 54.4729 20.7586 55.0469 18.7133 55.302C18.3036 55.353 16.4328 55.3946 16.0528 55.361ZM18.2096 52.8211C19.7957 52.6527 21.13 52.2 22.1339 51.4894C22.9546 50.9085 23.6041 50.0523 23.8955 49.1671C24.0661 48.649 24.0999 48.4057 24.0999 47.6977C24.0999 46.9918 24.0666 46.7506 23.8973 46.2321C23.341 44.5279 21.7139 43.2603 19.4404 42.7599C17.447 42.3211 15.1224 42.4736 13.4001 43.1561C12.1575 43.6485 11.1767 44.4456 10.6015 45.4304C9.98992 46.4776 9.85116 47.904 10.2413 49.1332C10.6617 50.4576 11.7691 51.5661 13.2931 52.1878C14.1232 52.5264 15.1509 52.7623 16.1684 52.8478C16.5588 52.8806 17.8019 52.8643 18.2096 52.8211ZM80.9296 55.3621C80.866 55.3549 80.6429 55.3328 80.4339 55.313C78.7554 55.1539 76.9909 54.6239 75.6973 53.8902C73.9485 52.8983 72.7304 51.4886 72.1744 49.8129C71.7981 48.6789 71.7338 47.4045 71.9939 46.232C72.387 44.4592 73.4663 42.9537 75.1422 41.8403C77.3523 40.372 80.6019 39.7198 83.7389 40.1151C86.3451 40.4435 88.4923 41.3967 89.9864 42.8885C91.1242 44.0247 91.7784 45.356 91.9675 46.9202C92.0166 47.3267 92.009 48.1488 91.952 48.5801C91.542 51.6863 89.0797 54.0603 85.3087 54.9852C84.1654 55.2656 83.4477 55.3505 82.1029 55.3644C81.5212 55.3704 80.9932 55.3694 80.9296 55.3621ZM82.9291 52.8365C84.9368 52.6519 86.5731 51.9902 87.6236 50.9384C88.3348 50.2263 88.7476 49.4423 88.9103 48.4949C88.9774 48.1044 88.9764 47.2906 88.9085 46.8856C88.5425 44.7055 86.6203 43.1252 83.7719 42.6628C83.0881 42.5518 82.6332 42.5156 81.9211 42.5156C78.7277 42.5156 76.2499 43.7197 75.2969 45.7347C75.0128 46.3352 74.8818 46.955 74.8818 47.6977C74.8818 48.6777 75.1102 49.455 75.6258 50.2294C76.5723 51.6512 78.3672 52.5595 80.743 52.8189C81.233 52.8724 82.4342 52.8821 82.9291 52.8365Z" fill="white"/>
</svg>
