<svg width="100" height="100" viewBox="0 0 100 100" fill="none" xmlns="http://www.w3.org/2000/svg">
<g clip-path="url(#clip0_175_579)">
<rect width="100" height="100" rx="24" fill="#FF6C37"/>
<path d="M99.5911 56.3489C103.09 28.9538 83.7439 3.90831 56.3988 0.408938C29.0538 -3.09043 3.90831 16.2561 0.408938 43.6012C-3.09043 70.9462 16.2561 96.0417 43.6012 99.5911C70.9962 103.09 96.0417 83.7439 99.5911 56.3489Z" fill="#FF6C37"/>
<path d="M68.0467 32.1032L46.9505 53.1994L41.0016 47.2505C61.7479 26.5042 63.7975 28.3039 68.0467 32.1032Z" fill="white"/>
<path d="M46.9505 53.6994C46.8006 53.6994 46.7006 53.6494 46.6006 53.5494L40.6017 47.6005C40.4017 47.4005 40.4017 47.1005 40.6017 46.9006C61.6979 25.8044 63.8975 27.804 68.3467 31.8033C68.4467 31.9033 68.4967 32.0033 68.4967 32.1532C68.4967 32.3032 68.4467 32.4032 68.3467 32.5032L47.2505 53.5494C47.2005 53.6494 47.0505 53.6994 46.9505 53.6994ZM41.7015 47.2505L46.9505 52.4996L67.2969 32.1532C63.5975 28.8538 61.098 27.854 41.7015 47.2505Z" fill="#FF6C37"/>
<path d="M52.9995 59.2483L47.2505 53.4993L68.3467 32.4031C73.9957 38.1021 65.5472 47.3504 52.9995 59.2483Z" fill="white"/>
<path d="M52.9995 59.7482C52.8495 59.7482 52.7495 59.6982 52.6495 59.5983L46.9006 53.8493C46.8006 53.7493 46.8006 53.6493 46.8006 53.4994C46.8006 53.3494 46.8506 53.2494 46.9505 53.1494L68.0467 32.0532C68.2467 31.8533 68.5466 31.8533 68.7466 32.0532C70.0464 33.253 70.7463 34.9527 70.6963 36.7024C70.5963 42.2514 64.2974 49.3001 53.3994 59.5983C53.2494 59.6982 53.0994 59.7482 52.9995 59.7482ZM47.9504 53.4994C51.1498 56.7488 52.4995 58.0485 52.9995 58.5485C61.3979 50.5499 69.5465 42.3514 69.5965 36.7024C69.6465 35.4026 69.1465 34.1029 68.2967 33.103L47.9504 53.4994Z" fill="#FF6C37"/>
<path d="M41.1016 47.4004L45.3508 51.6497C45.4508 51.7497 45.4508 51.8496 45.3508 51.9496C45.3008 51.9996 45.3008 51.9996 45.2508 51.9996L36.4524 53.8993C36.0025 53.9493 35.6026 53.6493 35.5026 53.1994C35.4526 52.9494 35.5526 52.6995 35.7026 52.5495L40.8017 47.4504C40.9016 47.3505 41.0516 47.3005 41.1016 47.4004Z" fill="white"/>
<path d="M36.3025 54.3992C35.5526 54.3992 35.0027 53.7993 35.0027 53.0494C35.0027 52.6995 35.1527 52.3496 35.4026 52.0996L40.5017 47.0005C40.8016 46.7506 41.2016 46.7506 41.5015 47.0005L45.7508 51.2497C46.0507 51.4997 46.0507 51.9496 45.7508 52.2496C45.6508 52.3496 45.5508 52.3995 45.4008 52.4495L36.6024 54.3492C36.5024 54.3492 36.4024 54.3992 36.3025 54.3992ZM40.9516 47.9503L36.0525 52.8495C35.9525 52.9494 35.9025 53.0994 36.0025 53.2494C36.0525 53.3994 36.2025 53.4494 36.3525 53.3994L44.601 51.5997L40.9516 47.9503Z" fill="#FF6C37"/>
<path d="M79.1947 20.4054C75.9953 17.3059 70.8462 17.4059 67.7468 20.6553C64.6474 23.9047 64.7473 29.0038 67.9968 32.1032C70.6463 34.6528 74.6456 35.1027 77.795 33.203L72.096 27.5041L79.1947 20.4054Z" fill="white"/>
<path d="M73.5957 34.8527C68.8466 34.8527 64.9973 31.0034 64.9973 26.2543C64.9973 21.5051 68.8466 17.6558 73.5957 17.6558C75.7953 17.6558 77.945 18.5057 79.5447 20.0554C79.6447 20.1554 79.6946 20.2554 79.6946 20.4053C79.6946 20.5553 79.6447 20.6553 79.5447 20.7553L72.7959 27.504L78.0949 32.8031C78.2949 33.0031 78.2949 33.303 78.0949 33.503C78.0449 33.553 78.0449 33.553 77.9949 33.6029C76.6952 34.4028 75.1455 34.8527 73.5957 34.8527ZM73.5957 18.7056C69.3965 18.7056 65.9971 22.105 66.0471 26.3043C66.0471 30.5035 69.4465 33.9029 73.6457 33.8529C74.7955 33.8529 75.9453 33.6029 76.9951 33.053L71.7461 27.854C71.6461 27.754 71.5961 27.654 71.5961 27.504C71.5961 27.3541 71.6461 27.2541 71.7461 27.1541L78.4449 20.4553C77.0951 19.3055 75.3954 18.7056 73.5957 18.7056Z" fill="#FF6C37"/>
<path d="M79.3447 20.5553L79.2447 20.4553L72.096 27.5041L77.745 33.153C78.2949 32.8031 78.8448 32.4032 79.2947 31.9532C82.4941 28.8038 82.4941 23.7047 79.3447 20.5553Z" fill="white"/>
<path d="M77.795 33.7029C77.645 33.7029 77.545 33.6529 77.445 33.5529L71.7461 27.854C71.6461 27.754 71.5961 27.654 71.5961 27.504C71.5961 27.3541 71.6461 27.2541 71.7461 27.1541L78.8448 20.0554C79.0448 19.8554 79.3447 19.8554 79.5447 20.0554L79.6946 20.1554C83.044 23.5047 83.044 28.9038 79.7446 32.3032C79.2447 32.8031 78.6948 33.253 78.0949 33.6029C77.945 33.6529 77.845 33.7029 77.795 33.7029ZM72.7959 27.504L77.845 32.5531C78.2449 32.3032 78.6448 31.9532 78.9448 31.6533C81.7943 28.8038 81.9442 24.1546 79.1947 21.1552L72.7959 27.504Z" fill="#FF6C37"/>
<path d="M68.8966 33.003C67.6968 31.8033 65.7472 31.8033 64.5474 33.003L45.7008 51.8497L48.8502 54.9991L68.7966 37.5022C70.0964 36.4024 70.1964 34.4528 69.0965 33.153C68.9966 33.103 68.9466 33.053 68.8966 33.003Z" fill="white"/>
<path d="M48.8002 55.499C48.6502 55.499 48.5503 55.449 48.4503 55.3491L45.3008 52.1996C45.1009 51.9997 45.1009 51.6997 45.3008 51.4997L64.1474 32.6531C65.5472 31.2534 67.7968 31.2534 69.1965 32.6531C70.5963 34.0529 70.5963 36.3025 69.1965 37.7022C69.1465 37.7522 69.0965 37.8022 69.0466 37.8522L49.1002 55.3491C49.0502 55.449 48.9502 55.499 48.8002 55.499ZM46.4006 51.8497L48.8502 54.2992L68.4467 37.1023C69.5465 36.2025 69.6465 34.5528 68.7466 33.453C67.8468 32.3532 66.1971 32.2532 65.0973 33.1531C65.0473 33.203 64.9973 33.253 64.8973 33.303L46.4006 51.8497Z" fill="#FF6C37"/>
<path d="M31.2534 73.2958C31.0534 73.3958 30.9534 73.5957 31.0034 73.7957L31.8533 77.3951C32.0532 77.895 31.7533 78.4949 31.2034 78.6448C30.8035 78.7948 30.3535 78.6448 30.1036 78.3449L24.6046 72.8959L42.5513 54.9491L48.7502 55.0491L52.9495 59.2483C51.9496 60.0982 45.9007 65.9471 31.2534 73.2958Z" fill="white"/>
<path d="M30.8534 79.1448C30.4535 79.1448 30.0536 78.9948 29.8036 78.6949L24.3546 73.2458C24.2546 73.1458 24.2046 73.0459 24.2046 72.8959C24.2046 72.7459 24.2546 72.6459 24.3546 72.546L42.3014 54.5992C42.4014 54.4992 42.5513 54.4492 42.6513 54.4492L48.8502 54.5492C49.0002 54.5492 49.1002 54.5992 49.2001 54.6992L53.3994 58.8984C53.4994 58.9984 53.5494 59.1484 53.5494 59.2983C53.5494 59.4483 53.4994 59.5483 53.3494 59.6483L52.9995 59.9482C47.7004 64.5974 40.5017 69.2466 31.5533 73.6957L32.4032 77.2451C32.5531 77.895 32.2532 78.5949 31.6533 78.9448C31.3534 79.0948 31.1034 79.1448 30.8534 79.1448ZM25.3544 72.8959L30.5035 77.995C30.6535 78.2449 30.9534 78.3449 31.2034 78.1949C31.4533 78.045 31.5533 77.745 31.4033 77.4951L30.5535 73.8957C30.4535 73.4458 30.6535 73.0459 31.0534 72.8459C39.9018 68.3967 47.0505 63.7975 52.2996 59.2484L48.6002 55.549L42.8513 55.449L25.3544 72.8959Z" fill="#FF6C37"/>
<path d="M20.3553 77.1951L24.6546 72.8959L31.0534 79.2947L20.8552 78.5948C20.4053 78.5449 20.1054 78.1449 20.1554 77.695C20.1554 77.495 20.2054 77.2951 20.3553 77.1951Z" fill="white"/>
<path d="M31.0534 79.7446L20.8053 79.0447C20.0554 78.9947 19.5555 78.3449 19.6055 77.595C19.6555 77.2951 19.7554 76.9951 20.0054 76.7951L24.3046 72.4959C24.5046 72.296 24.8045 72.296 25.0045 72.4959L31.4033 78.8948C31.5533 79.0447 31.6033 79.2447 31.5033 79.4447C31.4033 79.6446 31.2534 79.7446 31.0534 79.7446ZM24.6546 73.5957L20.7053 77.545C20.5553 77.645 20.5553 77.8949 20.7053 77.9949C20.7553 78.0449 20.8053 78.0949 20.9052 78.0949L29.7536 78.6948L24.6546 73.5957Z" fill="#FF6C37"/>
<path d="M40.8016 57.2487C40.5017 57.2487 40.3017 56.9987 40.3017 56.7488C40.3017 56.5988 40.3517 56.4988 40.4517 56.3988L45.3008 51.5497C45.5008 51.3497 45.8007 51.3497 46.0007 51.5497L49.1501 54.6991C49.3001 54.8491 49.3501 54.9991 49.3001 55.199C49.2501 55.349 49.1002 55.499 48.9002 55.549L40.9016 57.2487C40.8516 57.2487 40.8016 57.2487 40.8016 57.2487ZM45.6508 52.5995L42.3514 55.8989L47.7504 54.7491L45.6508 52.5995Z" fill="#FF6C37"/>
<path d="M48.7502 55.0491L43.2512 56.2489C42.8513 56.3489 42.4514 56.0989 42.3514 55.699C42.3014 55.449 42.3514 55.1991 42.5513 54.9991L45.6008 51.9496L48.7502 55.0491Z" fill="white"/>
<path d="M43.1512 56.7488C42.4514 56.7488 41.9015 56.1989 41.9015 55.499C41.9015 55.149 42.0514 54.8491 42.2514 54.5991L45.3008 51.5497C45.5008 51.3497 45.8007 51.3497 46.0007 51.5497L49.1501 54.6991C49.3001 54.8491 49.3501 54.9991 49.3001 55.199C49.2501 55.349 49.1002 55.499 48.9002 55.549L43.4012 56.7488C43.3012 56.7488 43.2012 56.7488 43.1512 56.7488ZM45.6508 52.5995L42.9513 55.299C42.8513 55.399 42.8513 55.499 42.9013 55.599C42.9513 55.6989 43.0512 55.7489 43.2012 55.7489L47.8004 54.7491L45.6508 52.5995Z" fill="#FF6C37"/>
<path d="M79.3947 25.3544C79.2947 25.0545 78.9448 24.9045 78.6448 25.0045C78.3449 25.1045 78.1949 25.4544 78.2949 25.7543C78.2949 25.8043 78.3449 25.8543 78.3449 25.9043C78.6448 26.5042 78.5448 27.2541 78.1449 27.804C77.945 28.0539 77.995 28.4039 78.1949 28.6038C78.4449 28.8038 78.7948 28.7538 78.9948 28.5038C79.7446 27.554 79.8946 26.3542 79.3947 25.3544Z" fill="#FF6C37"/>
</g>
<defs>
<clipPath id="clip0_175_579">
<rect width="100" height="100" rx="24" fill="white"/>
</clipPath>
</defs>
</svg>
