<svg width="100" height="100" viewBox="0 0 100 100" fill="none" xmlns="http://www.w3.org/2000/svg">
<rect width="100" height="100" rx="24" fill="white"/>
<path d="M67.9571 11.812C62.3668 9.15484 56.1127 7.66797 49.5113 7.66797C37.9951 7.66797 27.5359 12.1929 19.8144 19.5618C11.6052 27.3961 82.4871 18.7183 67.9571 11.812Z" fill="#FCC397"/>
<path d="M83.1686 23.8468C83.2177 23.9082 79.6597 28.6635 68.9664 30.0136C47.3826 32.7385 10.3268 33.0266 10.3826 32.9039C12.6749 27.8669 15.9101 23.3496 19.8627 19.5776C24.5197 21.0316 29.5887 21.3939 34.3835 20.5103C42.3004 19.062 49.3441 14.4875 57.1751 12.6232C60.6511 11.7882 64.438 11.5443 68.0047 11.8276C73.9312 14.6444 79.1116 18.7766 83.1686 23.8468Z" fill="#FC9F95"/>
<path d="M91.9873 43.9733C92.0145 44.1466 43.3158 48.7242 19.5886 47.39C11.858 46.9552 7.29572 42.2813 7.34804 42.0261C8.00007 38.8459 9.00301 35.7937 10.3146 32.9116C17.1695 29.1596 25.2343 26.9942 33.0544 27.0797C42.8611 27.18 52.4817 30.4496 62.2884 30.2058C69.5713 30.0206 76.9121 27.6961 83.1005 23.8545C87.6611 29.554 90.802 36.439 91.9873 43.9733Z" fill="#F77C88"/>
<path d="M92.3757 50.4702C92.3757 50.7085 92.3699 51.1839 92.3699 51.1839C92.3699 51.1839 78.8438 54.5955 61.4239 54.392C37.0246 54.1069 6.33533 50.1713 6.33594 50.0992C6.36005 47.2448 6.66215 44.4566 7.21649 41.7606C13.0622 45.3675 20.1515 47.134 26.9749 46.3905C32.4008 45.8025 37.5547 43.7949 42.5798 41.6582C47.6048 39.5215 52.6012 37.2271 57.9126 35.9938C65.715 34.1869 74.0614 34.8179 81.5203 37.7576C85.1489 39.1886 88.7492 41.2458 91.8502 43.7266C92.1961 45.9236 92.3757 48.1759 92.3757 50.4702Z" fill="#F25192"/>
<path d="M43.5879 64.4509C30.6807 66.8345 8.53041 64.0853 8.47459 63.9153C7.08669 59.6888 6.33594 55.1733 6.33594 50.4825C6.33594 50.3586 6.33646 50.2349 6.33751 50.1112C8.29692 48.5575 10.5856 47.1721 12.8199 46.0956C18.346 43.414 24.6166 42.2954 30.7297 42.8977C36.7712 43.5 42.5407 45.7371 48.1241 48.1462C52.8281 50.176 57.5016 52.3685 62.3843 53.8835C62.8626 54.032 57.7958 61.8272 43.5879 64.4509Z" fill="#D34CA3"/>
<path d="M90.877 62.0721C89.9758 63.5941 81.4041 68.7217 69.7847 69.5998C54.4 70.7626 36.2254 66.1121 42.2543 63.7455C51.7461 60.0171 59.978 53.3202 69.7847 50.5238C77.1107 48.4252 85.2315 48.757 92.4233 51.2929C92.3627 55.0204 91.8281 58.6327 90.877 62.0721Z" fill="#9A50A5"/>
<path d="M86.8838 71.9402C79.4552 84.8373 25.578 88.0716 17.7074 79.396C13.7009 74.9798 10.5996 69.7274 8.69647 63.9317C15.3128 60.1501 23.058 58.544 30.5025 59.5621C40.1374 60.8814 48.7702 66.259 58.2762 68.3527C65.9498 70.0448 74.0815 69.5143 81.4687 66.847C84.8082 65.6319 88.1194 64.0036 91.0474 61.9905C90.0746 65.5085 88.6662 68.8457 86.8838 71.9402Z" fill="#59569E"/>
<path d="M86.7066 71.7597C79.2937 84.7161 65.3362 93.447 49.3395 93.447C36.7008 93.447 25.335 87.9969 17.4642 79.3187C18.7703 79.818 20.2312 80.2497 21.5701 80.6269C29.0576 82.6919 37.1177 82.6345 44.5622 80.4404C49.3295 79.0351 53.8105 76.798 58.492 75.1059C67.4252 71.8846 77.2576 70.7501 86.7066 71.7597Z" fill="#39477F"/>
</svg>
