<svg width="100" height="100" viewBox="0 0 100 100" fill="none" xmlns="http://www.w3.org/2000/svg">
<rect width="100" height="100" rx="24" fill="#034EA2"/>
<path d="M91.9473 42.7194C93.1052 49.355 75.0408 58.0449 51.5949 62.1285C28.1517 66.212 8.20849 64.1399 7.05244 57.5015C5.89732 50.8649 23.9664 42.1777 47.4096 38.0952C70.8536 34.0098 90.7931 36.0819 91.9473 42.7194Z" fill="white"/>
<path d="M69.8825 52.57L69.762 45.6702H71.9378V54.3667H68.8096L66.6385 47.2296H66.5918L66.7122 54.3667H64.5505V45.6702H67.8141L69.8339 52.57H69.8825Z" fill="#034EA2"/>
<path d="M30.3331 46.4844L29.1294 54.4582H26.7566L28.3861 45.6702H32.295L33.917 54.4582H31.5535L30.3826 46.4844H30.3331Z" fill="#034EA2"/>
<path d="M39.4433 54.4582L37.9735 46.5573H37.9259L37.8708 54.4582H35.6698L35.864 45.6702H39.4498L40.5349 52.3879H40.5816L41.6676 45.6702H45.2516L45.4421 54.4582H43.2457L43.1878 46.5573H43.1421L41.6732 54.4582H39.4433Z" fill="#034EA2"/>
<path d="M23.0559 51.979C23.1419 52.1919 23.1157 52.4655 23.0756 52.6308C23.0018 52.923 22.8038 53.2209 22.2193 53.2209C21.6683 53.2209 21.334 52.9053 21.334 52.4225V51.5718H18.9771L18.9752 52.2526C18.9752 54.2117 20.5179 54.8028 22.1707 54.8028C23.76 54.8028 25.0692 54.2593 25.2775 52.7951C25.3839 52.0359 25.3045 51.5392 25.2681 51.3515C24.8974 49.5119 21.5619 48.9628 21.3135 47.9337C21.2714 47.7572 21.2836 47.5705 21.3041 47.4706C21.3648 47.1904 21.5572 46.8813 22.1072 46.8813C22.6208 46.8813 22.9243 47.1988 22.9243 47.6788C22.9243 47.8404 22.9243 48.2213 22.9243 48.2213H25.1159V47.6041C25.1159 45.6898 23.3977 45.391 22.153 45.391C20.5898 45.391 19.3123 45.9074 19.0789 47.338C19.0154 47.733 19.006 48.085 19.0985 48.5258C19.4823 50.3215 22.604 50.8416 23.0559 51.979Z" fill="#034EA2"/>
<path d="M51.6322 51.9631C51.719 52.1742 51.691 52.4403 51.6518 52.6056C51.5799 52.8969 51.3838 53.1901 50.803 53.1901C50.2595 53.1901 49.928 52.8745 49.928 52.4029L49.9261 51.5597H47.5935L47.5907 52.2311C47.5907 54.1706 49.1193 54.7561 50.7554 54.7561C52.3279 54.7561 53.6249 54.2201 53.8294 52.769C53.9359 52.0154 53.8603 51.5252 53.822 51.3412C53.4531 49.5184 50.1512 48.975 49.9056 47.9562C49.8636 47.7806 49.8757 47.5957 49.8972 47.5014C49.9598 47.2194 50.1484 46.9178 50.6928 46.9178C51.2017 46.9178 51.4987 47.2278 51.4987 47.704C51.4987 47.8637 51.4987 48.241 51.4987 48.241H53.6735V47.6303C53.6735 45.7365 51.9693 45.4396 50.7367 45.4396C49.1912 45.4396 47.9241 45.9494 47.6953 47.3697C47.6318 47.7591 47.6252 48.1047 47.7158 48.5435C48.094 50.3206 51.1849 50.837 51.6322 51.9631Z" fill="#034EA2"/>
<path d="M59.0139 53.1433C59.6237 53.1433 59.8142 52.7213 59.8562 52.5056C59.874 52.4103 59.8786 52.2833 59.8768 52.1694V45.6664H62.0992V51.9705C62.1039 52.132 62.088 52.4645 62.0805 52.5476C61.9246 54.1883 60.6275 54.7205 59.013 54.7205C57.3966 54.7205 56.0986 54.1883 55.9445 52.5476C55.937 52.4645 55.9212 52.132 55.9258 51.9705V45.6664H58.1464V52.1694C58.1464 52.2833 58.1501 52.4112 58.167 52.5056C58.2146 52.7213 58.3995 53.1433 59.0139 53.1433Z" fill="#034EA2"/>
<path d="M77.3464 53.0509C77.9832 53.0509 78.2055 52.6484 78.2465 52.414C78.2624 52.3132 78.2671 52.1909 78.2661 52.0797V50.8042H77.3641V49.5211H80.4802V51.8799C80.4783 52.0443 80.4746 52.1657 80.4484 52.4589C80.3018 54.0575 78.9151 54.6281 77.3576 54.6281C75.7972 54.6281 74.4123 54.0575 74.2639 52.4589C74.2387 52.1657 74.2349 52.0443 74.2321 51.8799L74.234 48.1793C74.234 48.0233 74.2536 47.7469 74.2704 47.6003C74.4656 45.9577 75.7972 45.4292 77.3576 45.4292C78.9161 45.4292 80.2804 45.9549 80.4419 47.6003C80.4709 47.8804 80.4615 48.1793 80.4615 48.1793V48.4725H78.2456V47.9804C78.2475 47.9813 78.2428 47.7712 78.2167 47.646C78.1793 47.4518 78.0103 47.0055 77.3408 47.0055C76.7002 47.0055 76.5125 47.4275 76.4658 47.646C76.4387 47.7618 76.4284 47.9187 76.4284 48.0607V52.0797C76.4266 52.1909 76.4331 52.3132 76.4508 52.414C76.4891 52.6494 76.7104 53.0509 77.3464 53.0509Z" fill="#034EA2"/>
</svg>
