<svg width="100" height="100" viewBox="0 0 100 100" fill="none" xmlns="http://www.w3.org/2000/svg">
<rect width="100" height="100" rx="24" fill="white"/>
<path d="M25.5454 14.5325L49.5 12L73.4545 14.5325L91.9999 39.4281L49.5 88.9189L7 39.4281L25.5454 14.5325Z" fill="#FDB300"/>
<path d="M24.2146 39.4281L49.5 88.9189L7 39.4281H24.2146Z" fill="#EA6C00"/>
<path d="M74.7853 39.428L49.4999 88.9188L91.9999 39.428H74.7853Z" fill="#EA6C00"/>
<path d="M24.2146 39.428H74.7854L49.5 88.9188L24.2146 39.428Z" fill="#FDAD00"/>
<path d="M49.5 12L25.5454 14.5325L24.2146 39.4281L49.5 12Z" fill="#FDD231"/>
<path d="M49.4999 12L73.4545 14.5325L74.7853 39.4281L49.4999 12Z" fill="#FDD231"/>
<path d="M92 39.4281L73.4544 14.5325L74.7854 39.4281H92Z" fill="#FDAD00"/>
<path d="M7 39.4281L25.5454 14.5325L24.2146 39.4281H7Z" fill="#FDAD00"/>
<path d="M49.5 12L24.2146 39.4281H74.7854L49.5 12Z" fill="#FEEEB7"/>
</svg>
