<svg width="100" height="100" viewBox="0 0 100 100" fill="none" xmlns="http://www.w3.org/2000/svg">
<rect width="100" height="100" rx="24" fill="#4A154B"/>
<g clip-path="url(#clip0_175_771)">
<path d="M26.2047 61.5433C26.2047 66.4291 22.2559 70.378 17.3701 70.378C12.4842 70.378 8.53543 66.4291 8.53543 61.5433C8.53543 56.6575 12.4842 52.7087 17.3701 52.7087H26.2047V61.5433ZM30.622 61.5433C30.622 56.6575 34.5709 52.7087 39.4567 52.7087C44.3425 52.7087 48.2913 56.6575 48.2913 61.5433V83.6299C48.2913 88.5158 44.3425 92.4646 39.4567 92.4646C34.5709 92.4646 30.622 88.5158 30.622 83.6299V61.5433Z" fill="#E01E5A"/>
<path d="M39.4567 26.0709C34.5709 26.0709 30.622 22.1221 30.622 17.2362C30.622 12.3504 34.5709 8.40158 39.4567 8.40158C44.3425 8.40158 48.2913 12.3504 48.2913 17.2362V26.0709H39.4567ZM39.4567 30.5551C44.3425 30.5551 48.2913 34.5039 48.2913 39.3898C48.2913 44.2756 44.3425 48.2244 39.4567 48.2244H17.3032C12.4173 48.2244 8.46851 44.2756 8.46851 39.3898C8.46851 34.5039 12.4173 30.5551 17.3032 30.5551H39.4567Z" fill="#36C5F0"/>
<path d="M74.8622 39.3898C74.8622 34.5039 78.811 30.5551 83.6968 30.5551C88.5827 30.5551 92.5315 34.5039 92.5315 39.3898C92.5315 44.2756 88.5827 48.2244 83.6968 48.2244H74.8622V39.3898ZM70.4449 39.3898C70.4449 44.2756 66.4961 48.2244 61.6102 48.2244C56.7244 48.2244 52.7756 44.2756 52.7756 39.3898V17.2362C52.7756 12.3504 56.7244 8.40158 61.6102 8.40158C66.4961 8.40158 70.4449 12.3504 70.4449 17.2362V39.3898Z" fill="#2EB67D"/>
<path d="M61.6102 74.7953C66.4961 74.7953 70.4449 78.7441 70.4449 83.6299C70.4449 88.5158 66.4961 92.4646 61.6102 92.4646C56.7244 92.4646 52.7756 88.5158 52.7756 83.6299V74.7953H61.6102ZM61.6102 70.378C56.7244 70.378 52.7756 66.4291 52.7756 61.5433C52.7756 56.6575 56.7244 52.7087 61.6102 52.7087H83.7638C88.6496 52.7087 92.5984 56.6575 92.5984 61.5433C92.5984 66.4291 88.6496 70.378 83.7638 70.378H61.6102Z" fill="#ECB22E"/>
</g>
<defs>
<clipPath id="clip0_175_771">
<rect width="85" height="85" fill="white" transform="translate(8 8)"/>
</clipPath>
</defs>
</svg>
