<svg width="100" height="100" viewBox="0 0 100 100" fill="none" xmlns="http://www.w3.org/2000/svg">
<rect width="100" height="100" rx="24" fill="white"/>
<path d="M50.5 90.3398C73.0552 90.3398 91.3398 72.0552 91.3398 49.5C91.3398 26.9448 73.0552 8.66016 50.5 8.66016C27.9448 8.66016 9.66016 26.9448 9.66016 49.5C9.66016 72.0552 27.9448 90.3398 50.5 90.3398Z" fill="#F2E4FF"/>
<path d="M50.5872 84.2703V79.1183C66.9067 79.0712 80.1206 65.8301 80.1206 49.4988C80.1206 33.1687 66.9067 19.9277 50.5872 19.8805V14.7286C69.7519 14.7769 85.2714 30.3235 85.2714 49.4988C85.2714 68.6753 69.7519 84.2231 50.5872 84.2703ZM50.5872 66.2377C59.7919 66.1894 67.2425 58.7165 67.2425 49.4988C67.2425 40.2823 59.7919 32.8094 50.5872 32.7611V27.6103C62.6383 27.6574 72.3944 37.4371 72.3944 49.4988C72.3944 61.5617 62.6383 71.3414 50.5872 71.3885V66.2377ZM50.5872 40.4885C55.5247 40.5356 59.5151 44.5495 59.5151 49.4988C59.5151 54.4493 55.5247 58.4632 50.5872 58.5104V40.4885ZM8 49.4988C8 72.972 27.0269 92 50.5 92C73.972 92 93 72.972 93 49.4988C93 26.0269 73.972 7 50.5 7C27.0269 7 8 26.0269 8 49.4988Z" fill="url(#paint0_linear_275_245)"/>
<path d="M50.5 11.8145C29.3201 11.8145 12.1504 28.9098 12.1504 49.998C12.1504 71.0863 29.3201 88.1816 50.5 88.1816V11.8145Z" fill="url(#paint1_linear_275_245)"/>
<defs>
<linearGradient id="paint0_linear_275_245" x1="4258" y1="8507" x2="4258" y2="7" gradientUnits="userSpaceOnUse">
<stop stop-color="#420C5D"/>
<stop offset="1" stop-color="#951AD1"/>
</linearGradient>
<linearGradient id="paint1_linear_275_245" x1="-1866.98" y1="7648.53" x2="-1866.98" y2="11.8145" gradientUnits="userSpaceOnUse">
<stop stop-color="#420C5D"/>
<stop offset="1" stop-color="#951AD1"/>
</linearGradient>
</defs>
</svg>
