<svg width="100" height="100" viewBox="0 0 100 100" fill="none" xmlns="http://www.w3.org/2000/svg">
<rect width="100" height="100" rx="24" fill="#00BFFF"/>
<path d="M36.2145 38.0293C35.901 38.1547 34.1143 40.0981 34.1143 40.3071C34.1143 40.4429 34.5009 40.9236 35.1278 41.5609C36.4653 42.9297 36.4444 42.9297 37.8027 41.5609C38.4296 40.9236 38.8162 40.4429 38.8162 40.3175C38.8162 40.0459 36.9146 38.0815 36.5907 38.0188C36.4653 37.9875 36.2981 37.9979 36.2145 38.0293Z" fill="white"/>
<path d="M72.6699 44.2045C72.4087 44.2881 72.0535 44.4239 71.8654 44.5075C71.6878 44.5807 71.4788 44.6434 71.3952 44.6434C71.3221 44.6434 71.0504 44.7896 70.7892 44.9568C70.528 45.124 70.2772 45.2703 70.2249 45.2703C70.11 45.2703 69.5353 45.7405 68.8771 46.3883C68.3651 46.8794 67.2366 48.4153 67.2366 48.6139C67.2366 48.6557 67.1112 48.9691 66.965 49.3035C66.2231 50.9648 66.2335 54.2039 66.965 55.8548C67.1112 56.1892 67.2366 56.5026 67.2366 56.5549C67.2366 56.7325 68.2606 58.1535 68.7621 58.6655C69.2323 59.1461 70.413 60.1074 70.528 60.1074C70.5593 60.1074 70.8728 60.2432 71.2385 60.4104C72.7953 61.1209 72.5132 61.1 79.2004 61.1C84.7068 61.1 85.3024 61.0791 85.7308 60.9224C85.992 60.8179 86.2741 60.7343 86.3577 60.7343C86.5771 60.7343 87.7578 60.1283 88.4579 59.6686C88.7818 59.4491 89.2938 59.0207 89.6072 58.6968C90.1924 58.1013 91.1641 56.7116 91.1641 56.4713C91.1641 56.3981 91.2163 56.2309 91.2895 56.1056C91.6761 55.416 91.9895 53.88 92 52.6471C92 51.8007 91.791 50.1916 91.6343 49.8155C91.5611 49.6378 91.4253 49.3244 91.3313 49.105C91.2372 48.8855 91.1641 48.6661 91.1641 48.6243C91.1641 48.29 89.252 45.8972 88.9908 45.8972C88.9385 45.8972 88.834 45.8241 88.7609 45.7405C88.5728 45.5106 87.1831 44.6852 86.8801 44.6225C86.5771 44.5493 86.0338 44.3613 85.5427 44.1627C85.0098 43.9329 73.3387 43.9746 72.6699 44.2045ZM85.2815 47.1302C85.5741 47.2346 85.8771 47.3705 85.9607 47.4332C86.0338 47.4959 86.201 47.5794 86.3368 47.6212C86.6712 47.7153 88.0295 49.0109 88.2071 49.3975C88.2907 49.5647 88.4683 49.8991 88.6042 50.1289C88.7505 50.3588 88.8654 50.6827 88.8654 50.8603C88.8654 51.0275 88.9385 51.4873 89.0326 51.8739C89.1788 52.4694 89.1893 52.6784 89.0848 53.1277C89.0117 53.4307 88.9176 53.9218 88.8654 54.2248C88.7609 54.904 88.2489 55.8235 87.622 56.4817C87.0787 57.0564 86.0129 57.8087 85.7517 57.8087C85.6472 57.8087 85.48 57.8714 85.3651 57.9445C84.8949 58.258 83.7873 58.3311 79.1377 58.3311C75.5015 58.3311 74.3417 58.2998 73.7775 58.1849C73.3804 58.1013 73.0043 57.9759 72.952 57.9236C72.8894 57.8609 72.7326 57.8087 72.6177 57.8087C72.4923 57.8087 72.1893 57.6624 71.9594 57.4952C71.7191 57.3176 71.4788 57.1818 71.4265 57.1818C71.3743 57.1818 71.0713 56.8997 70.7578 56.5549C70.1623 55.8966 69.5353 54.8413 69.5353 54.5069C69.5353 54.392 69.4622 54.1203 69.3786 53.8904C69.295 53.6501 69.2323 53.0963 69.2323 52.5844C69.2323 52.0724 69.295 51.5186 69.3786 51.2783C69.4622 51.0484 69.5353 50.7663 69.5353 50.6618C69.5353 50.4215 70.0682 49.4498 70.4966 48.896C70.7892 48.5303 71.6982 47.7884 72.2415 47.4854C72.3774 47.4018 72.7535 47.2555 73.0774 47.151C73.6208 46.9734 74.1014 46.9525 79.2004 46.9525C84.2889 46.9421 84.7904 46.9525 85.2815 47.1302Z" fill="white"/>
<path d="M7.64782 44.5284C7.15673 44.8523 7 45.1553 7 45.845C7 46.4092 7.05224 46.5346 7.41795 47.0779C7.64782 47.4123 7.88814 47.7675 7.94038 47.8615C8.00307 47.9556 8.17025 48.2064 8.33743 48.4153C8.49416 48.6243 8.61955 48.8333 8.61955 48.8751C8.61955 48.9169 8.76583 49.1258 8.93301 49.3453C9.11063 49.5647 9.24647 49.7737 9.24647 49.8155C9.24647 49.8572 9.39275 50.0662 9.55993 50.2856C9.73755 50.5051 9.87339 50.714 9.87339 50.7558C9.87339 50.7976 9.99877 50.9857 10.1659 51.1738C10.4376 51.4977 10.657 51.832 11.0436 52.5112C11.1377 52.6888 11.2631 52.856 11.3153 52.8874C11.3884 52.9396 11.9527 53.7442 12.3811 54.4129C12.4647 54.5487 12.8199 55.0711 13.1647 55.5622C13.5095 56.0638 13.8648 56.5757 13.9484 56.7116C16.2053 60.1701 16.9994 60.8493 19.319 61.2463C19.925 61.3508 21.1789 61.1 21.8894 60.7239C22.4014 60.4522 24.0836 58.8118 24.0836 58.5819C24.0836 58.5088 24.2194 58.2789 24.397 58.0908C24.5642 57.8923 24.7105 57.6938 24.7105 57.652C24.7105 57.5997 24.8359 57.4012 24.9926 57.1922C25.1598 56.9832 25.9539 55.8025 26.7793 54.5696C27.6048 53.3367 28.3258 52.3022 28.378 52.2918C28.4302 52.2709 28.472 52.2082 28.472 52.1664C28.472 52.1142 28.6915 51.7589 28.9631 51.3619C29.7363 50.2438 30.4991 49.1258 30.6663 48.8646C30.7498 48.7288 31.1364 48.1646 31.523 47.6003C32.338 46.4092 32.4634 45.9494 32.1918 45.218C32.0664 44.9046 31.8992 44.6956 31.6484 44.5493C31.1782 44.2672 30.405 44.2568 30.008 44.5284C29.7154 44.7165 29.0676 45.5419 28.7228 46.1584C28.6288 46.3256 28.5138 46.4928 28.4825 46.5241C28.4511 46.5555 28.378 46.6495 28.3153 46.754C28.2631 46.848 27.9287 47.3287 27.5839 47.8302C27.2391 48.3213 26.9152 48.8124 26.8525 48.9064C26.8002 49.0005 26.6226 49.2512 26.4659 49.4602C26.2987 49.6692 26.1733 49.8781 26.1733 49.9199C26.1733 49.9617 26.0479 50.1707 25.8912 50.3797C25.724 50.5887 25.5569 50.829 25.4942 50.923C25.0553 51.6231 24.5956 52.25 24.4597 52.3649C24.3657 52.4381 24.2926 52.553 24.2926 52.6052C24.2926 52.6679 24.1463 52.8874 23.9791 53.1068C23.8015 53.3262 23.6656 53.5352 23.6656 53.577C23.6656 53.6188 23.5298 53.8277 23.3522 54.0472C23.185 54.2666 23.0387 54.4756 23.0387 54.5069C23.0387 54.5383 22.8402 54.8517 22.5999 55.1861C22.3491 55.5309 21.9834 56.0533 21.7849 56.3459C21.0117 57.5057 20.2698 58.1221 19.6638 58.1221C19.0996 58.1221 18.4935 57.6938 17.8562 56.8265C17.2711 56.0429 15.9127 54.0576 15.6724 53.6501C15.6202 53.5456 15.453 53.3053 15.3067 53.1068C15.1604 52.9083 15.0037 52.6679 14.941 52.5635C14.8888 52.4694 14.5544 51.9783 14.2096 51.4872C13.8648 50.9962 13.5095 50.4842 13.4259 50.3483C13.3423 50.2021 13.0393 49.7528 12.7468 49.3244C12.4647 48.9064 12.2034 48.5198 12.1825 48.4571C12.1616 48.4049 11.9004 48.0287 11.5974 47.6212C10.9705 46.754 9.86294 45.1344 9.72711 44.8732C9.46589 44.3717 8.2016 44.1523 7.64782 44.5284Z" fill="white"/>
<path d="M35.6398 44.5284C35.4831 44.6329 35.2532 44.8627 35.1487 45.0195C34.9606 45.312 34.9502 45.6464 34.9502 52.7619C34.9502 59.6476 34.9606 60.2223 35.1383 60.5149C35.3263 60.8701 36.0369 61.2567 36.4653 61.2567C36.8519 61.2567 37.3638 61.0164 37.6669 60.682L37.9281 60.3999L37.9594 52.9187C37.9908 44.5911 38.0221 44.9881 37.3011 44.5388C36.8623 44.2672 36.0473 44.2567 35.6398 44.5284Z" fill="white"/>
<path d="M41.2925 44.5284C40.5298 45.0299 40.3626 46.0643 40.9059 46.8166C41.0836 47.057 41.2194 47.2868 41.2194 47.3182C41.2194 47.3495 41.3657 47.5585 41.5329 47.7779C41.7105 47.9973 41.8463 48.2063 41.8463 48.2377C41.8463 48.2899 42.6195 49.3975 42.8807 49.7214C42.9225 49.7736 43.027 49.9408 43.1002 50.0871C43.1733 50.2229 43.2673 50.3587 43.3091 50.3901C43.3614 50.4319 44.0092 51.3618 44.3018 51.8216C44.3645 51.9156 44.6466 52.344 44.9496 52.7828C45.2421 53.2217 46.0467 54.3919 46.7259 55.3846C47.405 56.3876 48.0319 57.3071 48.1155 57.4429C49.7978 60.0238 50.6755 60.7656 52.504 61.1522C53.2249 61.309 53.3608 61.309 54.1235 61.1522C54.5833 61.0582 55.1788 60.8806 55.4505 60.7447C56.0043 60.4731 57.6238 58.958 57.6238 58.7072C57.6238 58.6759 57.7701 58.446 57.9373 58.2057C58.1149 57.9549 58.6687 57.1399 59.1702 56.3981C59.6822 55.6458 60.4763 54.4755 60.9465 53.7859C61.4167 53.0963 61.866 52.4485 61.9391 52.3335C62.0018 52.2291 62.263 51.8634 62.5138 51.529C62.7541 51.1842 62.9527 50.8916 62.9527 50.8603C62.9527 50.808 63.59 49.8572 63.6841 49.7632C63.7468 49.7005 64.9379 47.9555 65.0946 47.6943C65.1573 47.6003 65.3245 47.3495 65.4812 47.1405C66.1708 46.2315 66.0977 45.0613 65.3454 44.5806C64.8125 44.2463 64.0707 44.2358 63.6109 44.5597C63.4228 44.6956 62.8168 45.4792 62.263 46.3151C61.7093 47.151 61.0092 48.175 60.7166 48.6034C60.4241 49.0318 60.1106 49.4811 60.027 49.6169C59.2747 50.7558 57.7701 52.9187 57.6552 53.0127C57.582 53.0754 57.5193 53.1694 57.5193 53.2112C57.5193 53.2635 57.2686 53.6501 56.976 54.0889C56.673 54.5278 56.3804 54.9771 56.3177 55.0711C56.2655 55.1756 56.0983 55.4159 55.952 55.6144C55.8058 55.813 55.649 56.0533 55.5863 56.1473C54.8445 57.3594 53.9668 58.1221 53.2981 58.1221C52.9115 58.1221 52.1592 57.7042 51.8144 57.2862C51.6367 57.0877 51.2606 56.5653 50.9785 56.1369C50.6859 55.7085 50.2262 55.0293 49.9649 54.6427C49.6933 54.2457 49.4739 53.9008 49.4739 53.8695C49.4739 53.8382 49.338 53.6396 49.1708 53.4307C49.0141 53.2217 48.3872 52.3231 47.7812 51.435C46.7363 49.8781 45.89 48.6452 44.6988 46.9211C44.3958 46.4718 44.145 46.0852 44.145 46.0539C44.145 45.9181 43.1524 44.6747 42.9121 44.5179C42.5255 44.2672 41.6791 44.2672 41.2925 44.5284Z" fill="white"/>
</svg>
