<svg width="100" height="100" viewBox="0 0 100 100" fill="none" xmlns="http://www.w3.org/2000/svg">
<g clip-path="url(#clip0_175_653)">
<rect width="100" height="100" rx="24" fill="white"/>
<path d="M0 24C0 10.7452 10.7452 0 24 0H57V100H24C10.7452 100 0 89.2548 0 76V24Z" fill="#0077FF"/>
<path d="M57 0H76C89.2548 0 100 10.7452 100 24V76C100 89.2548 89.2548 100 76 100H57V0Z" fill="#FF2B42"/>
<path d="M1 48C1 25.37 1 14.06 7.82524 7.03C14.6505 0 25.6311 0 47.6019 0H51.4854C73.4563 0 84.4369 0 91.2621 7.03C98.0874 14.06 98.0874 25.37 98.0874 48V52C98.0874 74.63 98.0874 85.94 91.2621 92.97C84.4369 100 73.4563 100 51.4854 100H47.6019C25.6311 100 14.6505 100 7.82524 92.97C1 85.94 1 74.63 1 52V48Z" fill="#0077FF"/>
<path d="M57.2525 0.0290527C38.7481 0.0890647 28.8998 0.709189 22.548 7.05046C15.5049 14.0819 15.5049 25.3941 15.5049 48.0287V52.0295C15.5049 74.664 15.5049 85.9762 22.548 93.0076C28.8998 99.3489 38.7481 99.969 57.2525 100.029C75.7568 99.969 85.6051 99.3489 91.9569 93.0076C99 85.9762 99 74.664 99 52.0295V48.0287C99 25.3941 99 14.0819 91.9569 7.05046C85.6051 0.719191 75.7568 0.0990667 57.2525 0.0290527Z" fill="#FF2B42"/>
<path d="M68.5049 40.9126C73.4175 43.7475 75.8641 45.165 76.6894 47.0096C77.4078 48.6213 77.4078 50.466 76.6894 52.0776C75.8641 53.932 73.4078 55.3397 68.5049 58.1747L55.0583 65.9417C50.1457 68.7766 47.6991 70.1941 45.6797 69.9805C43.9224 69.7961 42.3301 68.8737 41.2913 67.4465C40.0971 65.8058 40.0971 62.9708 40.0971 57.3106V41.7766C40.0971 36.1067 40.0971 33.2718 41.2913 31.6407C42.3301 30.2135 43.9224 29.2912 45.6797 29.1067C47.6894 28.8931 50.1457 30.3106 55.0583 33.1456L68.5049 40.9126Z" fill="white"/>
</g>
<defs>
<clipPath id="clip0_175_653">
<rect width="100" height="100" rx="24" fill="white"/>
</clipPath>
</defs>
</svg>
