<svg width="100" height="100" viewBox="0 0 100 100" fill="none" xmlns="http://www.w3.org/2000/svg">
<rect width="100" height="100" rx="24" fill="white"/>
<g clip-path="url(#clip0_175_1064)">
<path d="M93 50.5C93 27.0279 73.9721 8 50.5 8C27.0279 8 8 27.0279 8 50.5C8 73.9721 27.0279 93 50.5 93C73.9721 93 93 73.9721 93 50.5Z" fill="white"/>
<path d="M92.3359 50.5C92.3359 27.3947 73.6053 8.66406 50.5 8.66406C27.3947 8.66406 8.66406 27.3947 8.66406 50.5C8.66406 73.6053 27.3947 92.3359 50.5 92.3359C73.6053 92.3359 92.3359 73.6053 92.3359 50.5Z" stroke="black" stroke-opacity="0.1"/>
<path fill-rule="evenodd" clip-rule="evenodd" d="M78.2494 33.798C78.1251 33.4737 77.9089 33.0792 77.6279 32.6521C77.0657 31.7928 76.2171 30.7388 75.2767 29.7442V29.7389C74.2713 28.728 73.2444 27.8524 72.4121 27.2741C71.9958 26.9877 71.6175 26.7607 71.304 26.6364C71.1473 26.5714 70.9904 26.5283 70.8392 26.5174C70.6932 26.5066 70.5094 26.5336 70.3689 26.6741L50.8784 45.6569C50.6622 45.8676 50.3109 45.8676 50.0947 45.6569L30.604 26.6741C30.4635 26.539 30.2797 26.5121 30.1339 26.5174C29.9879 26.5283 29.8257 26.5714 29.669 26.6364C29.3555 26.7607 28.9718 26.9877 28.561 27.2741C27.7286 27.8524 26.7016 28.7335 25.6963 29.7389V29.7442C24.7558 30.7388 23.9072 31.7928 23.3452 32.6521C23.064 33.0792 22.8425 33.4737 22.7235 33.798C22.6641 33.9602 22.6208 34.1224 22.61 34.2683C22.6046 34.4143 22.6317 34.6034 22.7775 34.7439L44.5545 55.9373C44.7491 56.1265 44.8572 56.3858 44.8572 56.6561L44.8355 82.579C44.8355 82.7736 44.949 82.9195 45.0463 83.0113C45.149 83.1086 45.2842 83.1897 45.4355 83.2599C45.7381 83.4059 46.1544 83.5411 46.6462 83.6545C47.6407 83.8816 48.9974 84.0438 50.5 84.0438C52.0026 84.0438 53.3593 83.8816 54.3538 83.6545C54.8456 83.5411 55.2619 83.4059 55.5645 83.2599C55.7158 83.1897 55.851 83.1032 55.9537 83.0113C56.051 82.9195 56.1645 82.7736 56.1645 82.579L56.1428 56.6561C56.1428 56.3858 56.2509 56.1265 56.4455 55.9373L78.2225 34.7439C78.3683 34.6034 78.3954 34.4143 78.39 34.2683C78.3845 34.1169 78.3359 33.9547 78.2765 33.798H78.2494Z" fill="url(#paint0_linear_175_1064)"/>
</g>
<defs>
<linearGradient id="paint0_linear_175_1064" x1="22.6094" y1="56.3666" x2="77.8657" y2="51.5904" gradientUnits="userSpaceOnUse">
<stop offset="0.3" stop-color="#FF6A16"/>
<stop offset="0.542948" stop-color="#FF3227"/>
<stop offset="0.89" stop-color="#FF66DD"/>
</linearGradient>
<clipPath id="clip0_175_1064">
<rect width="85" height="85" fill="white" transform="translate(8 8)"/>
</clipPath>
</defs>
</svg>
