<svg width="100" height="100" viewBox="0 0 100 100" fill="none" xmlns="http://www.w3.org/2000/svg">
<rect width="100" height="100" rx="24" fill="black"/>
<path d="M53.7501 8.5843C58.0266 7.44211 62.5954 8.02648 66.4204 10.2046L86.2626 21.4937C87.086 21.9718 86.9266 23.1937 86.0235 23.4327L41.5313 35.3593C37.0423 36.5546 34.386 41.1765 35.5813 45.6655L37.7595 53.7937C38.9548 58.2827 43.5766 60.939 48.0657 59.7437L73.486 53.103L85.7313 65.6937C88.0954 68.0577 89.4235 71.2718 89.4235 74.6187V81.3655C89.4235 85.7484 86.0501 89.414 81.6673 89.7593L40.2032 92.9468C35.2891 93.3187 30.4548 91.539 26.9751 88.0327L13.4016 74.3796C11.0641 72.0155 9.73602 68.828 9.73602 65.4812V58.7077C9.73602 54.3249 13.7204 50.5265 17.7048 50.5265H23.0173L12.7907 42.4515C11.197 41.3093 10.0282 39.6624 9.52352 37.7765L7.37196 29.728C6.17664 25.239 8.83289 20.6171 13.322 19.4218L53.7501 8.5843Z" fill="white"/>
<path d="M60.1782 45.0283C60.1782 48.6939 57.2032 51.6689 53.5376 51.6689C49.872 51.6689 46.897 48.6939 46.897 45.0283C46.897 41.3627 49.872 38.3877 53.5376 38.3877C57.2032 38.3877 60.1782 41.3627 60.1782 45.0283Z" fill="white"/>
<path d="M81.4282 39.7158C81.4282 43.3814 78.4532 46.3564 74.7876 46.3564C71.122 46.3564 68.147 43.3814 68.147 39.7158C68.147 36.0502 71.122 33.0752 74.7876 33.0752C78.4532 33.0752 81.4282 36.0502 81.4282 39.7158Z" fill="white"/>
</svg>
