<svg width="100" height="100" viewBox="0 0 100 100" fill="none" xmlns="http://www.w3.org/2000/svg">
<rect width="100" height="100" rx="24" fill="white"/>
<path d="M13.5695 41.9977V44.8409H13.6599C14.2363 43.7256 15.1318 42.8073 16.2322 42.2031C17.3481 41.6308 18.5882 41.3431 19.8422 41.3656C21.8277 41.3656 23.3545 41.9071 24.4225 42.9902C25.4905 44.0733 26.0243 45.8332 26.024 48.27V66.2761H19.7951V49.5338C19.7951 48.2701 19.5845 47.3909 19.1634 46.896C18.9012 46.6292 18.5829 46.4239 18.2317 46.2951C17.8804 46.1663 17.5049 46.1172 17.1323 46.1513C14.9358 46.1513 13.8376 47.4901 13.8379 50.1678V66.2771H7.61279V41.9977H13.5695Z" fill="#728E9B"/>
<path d="M36.437 33.694H30.209V39.019H36.437V33.694Z" fill="#728E9B"/>
<path d="M36.437 41.9977H30.209V66.2765H36.437V41.9977Z" fill="#728E9B"/>
<path d="M78.764 66.6284C77.163 66.6284 75.5776 66.3131 74.0985 65.7004C72.6194 65.0877 71.2754 64.1897 70.1433 63.0576C69.0113 61.9254 68.1133 60.5814 67.5006 59.1023C66.888 57.6231 66.5727 56.0378 66.5728 54.4367C66.5728 48.643 71.114 43.0849 74.2204 39.0307C75.8994 36.8513 77.3779 34.5245 78.6378 32.0788C78.6494 32.0551 78.6675 32.0352 78.6899 32.0213C78.7123 32.0074 78.7381 32 78.7645 32C78.7908 32 78.8167 32.0074 78.8391 32.0213C78.8615 32.0352 78.8795 32.0551 78.8912 32.0788C80.1511 34.5247 81.6297 36.8517 83.309 39.0312C86.4145 43.0853 90.9571 48.6402 90.9571 54.4372H83.5172C83.4412 54.4372 83.3684 54.4674 83.3147 54.5211C83.261 54.5748 83.2308 54.6476 83.2308 54.7236V58.9045H79.0509C78.9749 58.9045 78.9021 58.9346 78.8483 58.9884C78.7946 59.0421 78.7645 59.1149 78.7645 59.1909V66.6284H78.764Z" fill="#728E9B"/>
<path d="M83.529 63.6686V59.6879H79.8333C79.7957 59.6879 79.7584 59.6953 79.7237 59.7097C79.6889 59.7241 79.6573 59.7452 79.6308 59.7718C79.6042 59.7983 79.5831 59.8299 79.5687 59.8647C79.5543 59.8994 79.5469 59.9366 79.5469 59.9743V63.669L83.529 63.6686Z" fill="#728E9B"/>
<path d="M79.5473 67.6452C80.9086 67.62 82.2554 67.3611 83.529 66.8798V64.8746H79.8333C79.7957 64.8746 79.7584 64.882 79.7237 64.8964C79.6889 64.9108 79.6573 64.9319 79.6308 64.9585C79.6042 64.9851 79.5831 65.0167 79.5687 65.0514C79.5543 65.0862 79.5469 65.1234 79.5469 65.161L79.5473 67.6452Z" fill="#728E9B"/>
<path d="M87.9943 59.2013V55.2206H84.2996C84.2236 55.2206 84.1508 55.2508 84.0971 55.3045C84.0434 55.3582 84.0132 55.431 84.0132 55.507V59.2013H87.9939H87.9943Z" fill="#728E9B"/>
<path d="M88.4725 64.1489L88.4772 64.1442C88.6319 63.9866 88.7179 63.7743 88.7165 63.5535V60.4075H84.7349V64.3891H87.8804C88.1018 64.3906 88.3148 64.3042 88.4725 64.1489Z" fill="#728E9B"/>
<path d="M85.0054 67.6775C86.0693 67.2208 87.0609 66.6113 87.9488 65.8683H85.0054V67.6775Z" fill="#728E9B"/>
<path d="M91.2054 59.2013C91.6875 57.9282 91.9468 56.5816 91.9718 55.2206H89.2021V59.2013H91.2054Z" fill="#728E9B"/>
<path d="M90.1919 63.6219C90.9348 62.7339 91.544 61.7421 92.0002 60.678H90.1919V63.6219Z" fill="#728E9B"/>
<path d="M90.1919 63.6219C90.9348 62.7339 91.544 61.7421 92.0002 60.678H90.1919V63.6219Z" fill="#728E9B"/>
<path d="M9.17899 34.2737L10.301 38.513H9.41027L9.21432 37.618H8.08384L7.88789 38.513H7L8.122 34.2737H9.17899ZM9.06642 36.9157L8.65662 35.0099H8.64484L8.23504 36.9157H9.06642Z" fill="#B9C6CD"/>
<path d="M12.2899 34.2736C12.479 34.2675 12.6669 34.3051 12.8391 34.3833C12.9797 34.4502 13.1028 34.5489 13.1985 34.6716C13.2907 34.7924 13.3574 34.9307 13.3945 35.0781C13.4341 35.2304 13.454 35.3871 13.4538 35.5444C13.4578 35.7389 13.4246 35.9324 13.3559 36.1144C13.2975 36.2666 13.2039 36.4029 13.0827 36.5119C12.9595 36.6185 12.815 36.6975 12.6587 36.7437C12.4795 36.7968 12.2932 36.8227 12.1062 36.8204H11.6489V38.5129H10.7935V34.2736H12.2899ZM12.0285 36.1911C12.1041 36.1943 12.1796 36.1823 12.2505 36.1558C12.3214 36.1292 12.3862 36.0887 12.4411 36.0366C12.4982 35.9711 12.5416 35.8948 12.5686 35.8122C12.5956 35.7295 12.6058 35.6423 12.5985 35.5557C12.6105 35.3825 12.5624 35.2105 12.4623 35.0687C12.4036 35.0084 12.332 34.9622 12.2529 34.9334C12.1738 34.9046 12.0892 34.894 12.0054 34.9024H11.6493V36.1907L12.0285 36.1911Z" fill="#B9C6CD"/>
<path d="M15.5691 34.2737L16.6911 38.513H15.7994L15.6035 37.618H14.473L14.2771 38.513H13.3892L14.5112 34.2737H15.5691ZM15.4565 36.9157L15.0467 35.0099H15.0349L14.6251 36.9157H15.4565Z" fill="#B9C6CD"/>
<path d="M18.8012 35.0311C18.7625 34.9605 18.7038 34.9029 18.6325 34.8654C18.5613 34.8279 18.4805 34.8121 18.4004 34.8201C18.3048 34.8164 18.2111 34.847 18.1361 34.9063C18.0559 34.9816 17.9992 35.0784 17.9727 35.1852C17.9269 35.3498 17.8989 35.519 17.8893 35.6896C17.8733 35.8975 17.8655 36.1519 17.8658 36.4527C17.8629 36.7125 17.8737 36.9722 17.8983 37.2309C17.9106 37.3882 17.9445 37.543 17.9991 37.6911C18.03 37.7815 18.0906 37.8589 18.171 37.9106C18.2452 37.9494 18.328 37.9689 18.4117 37.9671C18.4838 37.9676 18.5554 37.9545 18.6227 37.9285C18.6945 37.8969 18.7539 37.8426 18.7918 37.774C18.848 37.6725 18.8862 37.562 18.9049 37.4475C18.9361 37.2643 18.9501 37.0785 18.9468 36.8927H19.8017C19.8026 37.1114 19.7846 37.3298 19.748 37.5455C19.7177 37.7369 19.6502 37.9204 19.5492 38.0858C19.4494 38.2426 19.3074 38.3682 19.1394 38.448C18.9237 38.543 18.6892 38.5877 18.4536 38.5785C18.1895 38.5905 17.9265 38.5375 17.6877 38.424C17.5 38.3236 17.3476 38.1681 17.2511 37.9784C17.1433 37.7609 17.0769 37.5253 17.0551 37.2836C17.0241 36.9877 17.0093 36.6904 17.0108 36.3929C17.0095 36.0965 17.0243 35.8003 17.0551 35.5055C17.0767 35.2628 17.1432 35.0263 17.2511 34.8079C17.349 34.617 17.5008 34.4591 17.6877 34.3538C17.9247 34.2343 18.1885 34.178 18.4536 34.1904C18.7028 34.1782 18.951 34.2293 19.1752 34.3387C19.3391 34.4257 19.4758 34.5561 19.5704 34.7156C19.6573 34.8672 19.7129 35.0347 19.7339 35.2083C19.7549 35.3726 19.7659 35.5381 19.7669 35.7038H18.9115C18.9253 35.4742 18.8876 35.2443 18.8012 35.0311Z" fill="#B9C6CD"/>
<path d="M21.3393 34.2737V35.8945H22.3369V34.2737H23.1919V38.513H22.3369V36.6288H21.3393V38.513H20.4844V34.2737H21.3393Z" fill="#B9C6CD"/>
<path d="M26.3502 34.9746H24.8359V35.9722H26.2607V36.6726H24.8359V37.8125H26.4091V38.513H23.981V34.2737H26.3498L26.3502 34.9746Z" fill="#B9C6CD"/>
<path d="M39.459 46.2395V41.9974H42.6177V39.2452C42.5929 38.3073 42.746 37.3733 43.069 36.4925C43.3343 35.7897 43.7774 35.1678 44.3549 34.6875C44.9578 34.2141 45.6596 33.8825 46.4081 33.7172C47.2959 33.5134 48.2047 33.415 49.1156 33.4242C50.2282 33.4242 51.3412 33.4692 52.4547 33.5594V37.9819C52.2461 37.9468 52.0346 37.931 51.8231 37.9348H51.2362C50.5864 37.8747 49.9351 38.0335 49.386 38.386C49.1903 38.578 49.0401 38.8114 48.9464 39.0691C48.8526 39.3267 48.8177 39.6021 48.8443 39.8749V41.9946H52.4547V46.2372H48.8443V66.2758H42.6173V46.2395H39.459Z" fill="#B9C6CD"/>
<path d="M62.3852 33.6942H56.1577V39.0192H62.3852V33.6942Z" fill="#B9C6CD"/>
<path d="M62.3852 41.9974H56.1577V66.2763H62.3852V41.9974Z" fill="#B9C6CD"/>
<path d="M76.0807 37.9037C75.8556 38.2179 75.6342 38.5344 75.4081 38.8458C74.694 39.8312 73.9418 40.7878 73.2056 41.7567C73.4938 41.7966 73.7832 41.8409 74.0737 41.8896C74.686 40.8613 75.3134 39.8396 75.9018 38.7963C76.0666 38.5043 76.2282 38.2094 76.3912 37.9155C76.5202 37.6851 76.2206 37.7082 76.0807 37.9037Z" fill="#B9C6CD"/>
<path d="M73.1742 43.4266C73.2826 43.2382 73.3947 43.0498 73.5039 42.858C73.1742 42.794 72.8445 42.7346 72.5148 42.6819H72.5115C71.4674 44.0796 70.5139 45.5428 69.657 47.0625C68.1243 49.8416 67.0612 52.948 67.5496 56.1534C67.9653 58.8183 69.3119 61.2497 71.3504 63.0158C71.7838 63.3905 72.2451 63.7314 72.7305 64.0356C72.7612 64.0547 72.7978 64.0617 72.8333 64.0554C72.8689 64.0491 72.9009 64.0298 72.9231 64.0014C72.9453 63.973 72.9563 63.9373 72.9539 63.9013C72.9515 63.8653 72.9358 63.8314 72.91 63.8062C71.3319 62.2821 70.193 60.3615 69.6127 58.2457C68.7004 54.8807 69.4587 51.4322 70.7578 48.2763C71.461 46.6108 72.2681 44.991 73.1742 43.4266Z" fill="#B9C6CD"/>
</svg>
