<svg width="100" height="100" viewBox="0 0 100 100" fill="none" xmlns="http://www.w3.org/2000/svg">
<rect width="100" height="100" rx="24" fill="black"/>
<path d="M78.4998 71.75L49.6458 83.0054L20.7919 71.75L16 80.0481L49.6458 93L83.2917 80.0481L78.4998 71.75ZM49.6458 8C40.7224 8 32.1645 11.5448 25.8546 17.8546C19.5448 24.1645 16 32.7224 16 41.6458C16 50.5693 19.5448 59.1272 25.8546 65.437C32.1645 71.7468 40.7224 75.2917 49.6458 75.2917C58.5693 75.2917 67.1272 71.7468 73.437 65.437C79.7468 59.1272 83.2917 50.5693 83.2917 41.6458C83.2917 32.7224 79.7468 24.1645 73.437 17.8546C67.1272 11.5448 58.5693 8 49.6458 8ZM49.6458 64.9429C43.4765 64.9429 37.5598 62.4921 33.1973 58.1297C28.8349 53.7673 26.3842 47.8506 26.3842 41.6813C26.3842 35.5119 28.8349 29.5952 33.1973 25.2328C37.5598 20.8704 43.4765 18.4196 49.6458 18.4196C55.8152 18.4196 61.7319 20.8704 66.0943 25.2328C70.4567 29.5952 72.9075 35.5119 72.9075 41.6813C72.9075 47.8506 70.4567 53.7673 66.0943 58.1297C61.7319 62.4921 55.8152 64.9429 49.6458 64.9429Z" fill="white"/>
</svg>
