<svg width="100" height="100" viewBox="0 0 100 100" fill="none" xmlns="http://www.w3.org/2000/svg">
<rect width="100" height="100" rx="24" fill="white"/>
<path fill-rule="evenodd" clip-rule="evenodd" d="M13.125 12C11.3991 12 10 13.3991 10 15.125V70.2812C10 72.0071 11.3991 73.4062 13.125 73.4062H46.4925C47.6117 73.4062 48.3882 72.2834 48.1014 71.2015C47.6071 69.3374 47.3438 67.3791 47.3438 65.3594C47.3438 52.8035 57.5222 42.625 70.0781 42.625C71.8911 42.625 73.6546 42.8372 75.345 43.2382C76.4146 43.4919 77.5 42.7183 77.5 41.619V15.125C77.5 13.3991 76.1009 12 74.375 12H13.125Z" fill="url(#paint0_linear_175_112)"/>
<path d="M89.1014 81.4963L88.2888 80.6836L86.1086 78.5035L84.9138 77.3085C84.3466 76.7413 84.2943 75.846 84.7284 75.1716C86.4453 72.5045 87.4438 69.3339 87.4438 65.9331C87.4438 59.0447 83.3533 53.0974 77.4757 50.3816C76.499 49.9304 75.4736 49.5679 74.4086 49.3057C73.4169 49.0618 72.3921 48.904 71.3416 48.8415C71.003 48.8215 70.6627 48.8083 70.3193 48.8083C65.0588 48.8083 60.3467 51.1946 57.203 54.9388C55.7126 56.7143 54.5767 58.7949 53.9014 61.073C53.4442 62.6148 53.1947 64.2448 53.1947 65.9328C53.1947 66.3621 53.216 66.7859 53.247 67.2071C53.325 68.2584 53.4941 69.284 53.7539 70.2741C54.0334 71.34 54.4124 72.3663 54.8821 73.3412C57.6493 79.0848 63.5291 83.0577 70.3194 83.0577C73.1918 83.0577 75.8998 82.3444 78.2795 81.0886C78.939 80.7405 79.757 80.8264 80.2843 81.3537L81.6019 82.6713L83.8042 84.874L84.7641 85.8338C85.363 86.4327 86.148 86.7322 86.9327 86.7322C87.7175 86.7322 88.5026 86.4327 89.1013 85.8338C90.2992 84.636 90.2992 82.694 89.1014 81.4963ZM70.3194 76.924C67.1113 76.924 64.2202 75.5418 62.2093 73.3421C61.3877 72.4435 60.7139 71.4082 60.2249 70.2751C59.8103 69.3156 59.5305 68.2851 59.4054 67.208C59.3567 66.7894 59.3291 66.3651 59.3291 65.9338C59.3291 59.8736 64.2594 54.9433 70.3196 54.9433C70.6642 54.9433 71.0049 54.9613 71.3419 54.9923C72.4166 55.0923 73.4457 55.3477 74.409 55.7357C75.5357 56.189 76.5694 56.8233 77.476 57.6032C79.8206 59.6204 81.3098 62.6057 81.3098 65.9338C81.3097 71.9935 76.3796 76.924 70.3194 76.924Z" fill="url(#paint1_linear_175_112)"/>
<path d="M24.2947 49.1664C23.3629 49.1664 22.6534 48.8726 22.1664 48.2849C21.6793 47.6737 21.4358 46.945 21.4358 46.0988V45.9576C21.4358 45.1114 21.6793 44.3944 22.1664 43.8068C22.6534 43.1956 23.3629 42.89 24.2947 42.89C25.2265 42.89 25.9359 43.1956 26.423 43.8068C26.9101 44.3944 27.1537 45.1114 27.1537 45.9576V46.0988C27.1537 46.945 26.9101 47.6737 26.423 48.2849C25.9359 48.8726 25.2265 49.1664 24.2947 49.1664ZM21.6898 27.5359V23.4358H26.8995V27.5359L25.2477 39.6656H23.3417L21.6898 27.5359Z" fill="white"/>
<path d="M38.5896 49.1664C37.6578 49.1664 36.9484 48.8726 36.4613 48.2849C35.9742 47.6737 35.7306 46.945 35.7306 46.0988V45.9576C35.7306 45.1114 35.9742 44.3944 36.4613 43.8068C36.9484 43.1956 37.6578 42.89 38.5896 42.89C39.5214 42.89 40.2309 43.1956 40.7179 43.8068C41.205 44.3944 41.4486 45.1114 41.4486 45.9576V46.0988C41.4486 46.945 41.205 47.6737 40.7179 48.2849C40.2309 48.8726 39.5214 49.1664 38.5896 49.1664ZM35.9848 27.5359V23.4358H41.1945V27.5359L39.5426 39.6656H37.6366L35.9848 27.5359Z" fill="white"/>
<defs>
<linearGradient id="paint0_linear_175_112" x1="10" y1="71.089" x2="84.3071" y2="59.5874" gradientUnits="userSpaceOnUse">
<stop stop-color="#7942EE"/>
<stop offset="1" stop-color="#FF4651"/>
</linearGradient>
<linearGradient id="paint1_linear_175_112" x1="85.7798" y1="85.6846" x2="97.1696" y2="55.2307" gradientUnits="userSpaceOnUse">
<stop stop-color="#7942EE"/>
<stop offset="1" stop-color="#FF4651"/>
</linearGradient>
</defs>
</svg>
