<svg width="100" height="100" viewBox="0 0 100 100" fill="none" xmlns="http://www.w3.org/2000/svg">
<rect width="100" height="100" rx="24" fill="white"/>
<path d="M47.9223 48.0715L12.3281 85.8544C12.3295 85.8628 12.3316 85.8691 12.333 85.8774C13.4245 89.9796 17.1715 93 21.6185 93C23.3962 93 25.0652 92.5201 26.4967 91.6758L26.6102 91.6096L66.6759 68.4878L47.9223 48.0715Z" fill="#EA4335"/>
<path d="M83.9331 41.6377L83.899 41.6147L66.6013 31.5859L47.1136 48.9289L66.6696 68.4835L83.8753 58.5543C86.8922 56.9257 88.9402 53.7451 88.9402 50.0776C88.9402 46.4365 86.9194 43.2719 83.9331 41.6377Z" fill="#FBBC04"/>
<path d="M12.3267 14.1443C12.1128 14.9335 12 15.7604 12 16.6186V83.3823C12 84.2391 12.1115 85.0687 12.3281 85.8552L49.1469 49.0384L12.3267 14.1443Z" fill="#4285F4"/>
<path d="M48.1849 50.0003L66.6083 31.5798L26.5879 8.37437C25.1328 7.50294 23.4352 7 21.6185 7C17.1715 7 13.4197 10.0267 12.3281 14.1344C12.3267 14.1379 12.3267 14.1407 12.3267 14.1449L48.1849 50.0003Z" fill="#34A853"/>
</svg>
