<svg width="100" height="100" viewBox="0 0 100 100" fill="none" xmlns="http://www.w3.org/2000/svg">
<rect width="100" height="100" rx="24" fill="white"/>
<g clip-path="url(#clip0_175_957)">
<path d="M13.7955 81.75H27.3182V48.909L8 34.4204V75.9545C8 79.1613 10.5983 81.75 13.7955 81.75Z" fill="#4285F4"/>
<path d="M73.6818 81.75H87.2046C90.4114 81.75 93 79.1517 93 75.9545V34.4204L73.6818 48.909" fill="#34A853"/>
<path d="M73.6818 23.7955V48.9092L93 34.4205V26.6933C93 19.5262 84.8188 15.4404 79.0909 19.7387" fill="#FBBC04"/>
<path d="M27.3182 48.909V23.7954L50.5 41.1818L73.6818 23.7954V48.909L50.5 66.2954" fill="#EA4335"/>
<path d="M8 26.6933V34.4205L27.3182 48.9092V23.7955L21.9091 19.7387C16.1716 15.4404 8 19.5262 8 26.6933Z" fill="#C5221F"/>
</g>
<defs>
<clipPath id="clip0_175_957">
<rect width="85" height="63.75" fill="white" transform="translate(8 18)"/>
</clipPath>
</defs>
</svg>
