<svg width="100" height="100" viewBox="0 0 100 100" fill="none" xmlns="http://www.w3.org/2000/svg">
<rect width="100" height="100" rx="24" fill="white"/>
<g clip-path="url(#clip0_175_22)">
<path d="M50.5 71.7407C62.2361 71.7407 71.75 62.2268 71.75 50.4907C71.75 38.7547 62.2361 29.2407 50.5 29.2407C38.7639 29.2407 29.25 38.7547 29.25 50.4907C29.25 62.2268 38.7639 71.7407 50.5 71.7407Z" fill="white"/>
<path d="M50.5 29.2501H87.3C83.571 22.789 78.2066 17.4236 71.7462 13.6933C65.2858 9.96306 57.9572 7.99948 50.4972 8C43.0372 8.00052 35.7088 9.96513 29.249 13.6963C22.7891 17.4274 17.4254 22.7936 13.6973 29.2552L32.0973 61.1251L32.1138 61.1208C30.242 57.8931 29.2542 54.2289 29.2501 50.4977C29.2459 46.7665 30.2254 43.1001 32.0899 39.8682C33.9544 36.6362 36.638 33.9529 39.8702 32.0888C43.1023 30.2246 46.7688 29.2455 50.5 29.2501Z" fill="url(#paint0_linear_175_22)"/>
<path d="M50.5 67.3228C59.791 67.3228 67.3229 59.791 67.3229 50.4999C67.3229 41.2089 59.791 33.677 50.5 33.677C41.209 33.677 33.6771 41.2089 33.6771 50.4999C33.6771 59.791 41.209 67.3228 50.5 67.3228Z" fill="#1A73E8"/>
<path d="M68.9013 61.13L50.5012 92.9999C57.9612 93.0009 65.2899 91.0378 71.7506 87.3081C78.2112 83.5783 83.576 78.2133 87.3055 71.7525C91.035 65.2917 92.9978 57.9629 92.9964 50.5029C92.9951 43.043 91.0297 35.7148 87.2979 29.2554H50.498L50.4936 29.2718C54.2248 29.2646 57.892 30.2412 61.1254 32.1032C64.3589 33.9651 67.0443 36.6466 68.911 39.8773C70.7777 43.108 71.7597 46.7738 71.758 50.505C71.7563 54.2362 70.7709 57.901 68.9013 61.13Z" fill="url(#paint1_linear_175_22)"/>
<path d="M32.0986 61.1306L13.6986 29.2607C9.96763 35.7207 8.00327 43.0492 8.00299 50.5092C8.00271 57.9691 9.96653 65.2977 13.697 71.758C17.4274 78.2183 22.793 83.5825 29.2542 87.3114C35.7154 91.0402 43.0445 93.0022 50.5044 93.0001L68.9045 61.1302L68.8926 61.1182C67.0332 64.3531 64.3538 67.0406 61.1246 68.9098C57.8953 70.7791 54.2304 71.764 50.4992 71.7652C46.768 71.7665 43.1024 70.7841 39.8719 68.917C36.6414 67.0499 33.9602 64.3642 32.0986 61.1306Z" fill="url(#paint2_linear_175_22)"/>
</g>
<defs>
<linearGradient id="paint0_linear_175_22" x1="13.6973" y1="34.5626" x2="87.3" y2="34.5626" gradientUnits="userSpaceOnUse">
<stop stop-color="#D93025"/>
<stop offset="1" stop-color="#EA4335"/>
</linearGradient>
<linearGradient id="paint1_linear_175_22" x1="44.695" y1="92.4316" x2="81.4965" y2="28.6898" gradientUnits="userSpaceOnUse">
<stop stop-color="#FCC934"/>
<stop offset="1" stop-color="#FBBC04"/>
</linearGradient>
<linearGradient id="paint2_linear_175_22" x1="55.1008" y1="90.3465" x2="18.2994" y2="26.6045" gradientUnits="userSpaceOnUse">
<stop stop-color="#1E8E3E"/>
<stop offset="1" stop-color="#34A853"/>
</linearGradient>
<clipPath id="clip0_175_22">
<rect width="85" height="85" fill="white" transform="translate(8 8)"/>
</clipPath>
</defs>
</svg>
