<svg width="100" height="100" viewBox="0 0 100 100" fill="none" xmlns="http://www.w3.org/2000/svg">
<g clip-path="url(#clip0_175_405)">
<rect width="100" height="100" rx="24" fill="white"/>
<path d="M50 89.0625C71.5736 89.0625 89.0625 71.5736 89.0625 50C89.0625 28.4264 71.5736 10.9375 50 10.9375C28.4264 10.9375 10.9375 28.4264 10.9375 50C10.9375 71.5736 28.4264 89.0625 50 89.0625Z" fill="url(#paint0_linear_175_405)"/>
<mask id="mask0_175_405" style="mask-type:luminance" maskUnits="userSpaceOnUse" x="10" y="10" width="80" height="80">
<path d="M50 89.0625C71.5736 89.0625 89.0625 71.5736 89.0625 50C89.0625 28.4264 71.5736 10.9375 50 10.9375C28.4264 10.9375 10.9375 28.4264 10.9375 50C10.9375 71.5736 28.4264 89.0625 50 89.0625Z" fill="white"/>
</mask>
<g mask="url(#mask0_175_405)">
<path d="M38.1387 36.6487L38.5787 35.3423C41.2961 50.6013 48.5092 90.8862 48.5092 45.1726C48.5092 44.9825 48.6504 44.819 48.8246 44.819H51.3041C51.4791 44.819 51.6211 44.9806 51.6211 45.1714C51.5818 125.231 38.1387 36.6487 38.1387 36.6487Z" fill="#3DDC84"/>
<path d="M31.0107 35.2886L24.533 46.5085C24.1609 47.1529 24.3818 47.9769 25.0262 48.349C25.6705 48.721 26.4945 48.5001 26.8666 47.8558L33.4264 36.4945C44.026 41.246 56.1498 41.246 66.7494 36.4945L73.3092 47.8558C73.6943 48.4923 74.5226 48.6962 75.1592 48.3111C75.7775 47.9371 75.9904 47.1416 75.642 46.5085L69.1646 35.2886C80.2881 29.2392 87.8967 17.9757 89.0098 4.67065H11.1656C12.2789 17.9757 19.8873 29.2392 31.0107 35.2886Z" fill="white"/>
<path d="M51.2061 36.6516H48.8799C48.6507 36.6516 48.4648 36.8374 48.4648 37.0667V42.5493C48.4648 42.7785 48.6507 42.9643 48.8799 42.9643H51.2061C51.4353 42.9643 51.6211 42.7785 51.6211 42.5493V37.0667C51.6211 36.8374 51.4353 36.6516 51.2061 36.6516Z" fill="#3DDC84"/>
<path d="M51.2352 33.259H48.8508C48.6376 33.259 48.4648 33.4318 48.4648 33.645V34.4512C48.4648 34.6644 48.6376 34.8372 48.8508 34.8372H51.2352C51.4483 34.8372 51.6211 34.6644 51.6211 34.4512V33.645C51.6211 33.4318 51.4483 33.259 51.2352 33.259Z" fill="#3DDC84"/>
<path d="M34.3666 42.3481H33.5775V43.1372H34.3666V42.3481Z" fill="white"/>
<path d="M37.6645 53.8528H36.8754V54.6418H37.6645V53.8528Z" fill="white"/>
<path d="M72.8672 65.9441H72.0781V66.7332H72.8672V65.9441Z" fill="white"/>
<path d="M56.634 49.262H55.8449V50.051H56.634V49.262Z" fill="white"/>
<path d="M63.0859 42.7427H62.2969V43.5317H63.0859V42.7427Z" fill="white"/>
<path d="M58.2217 56.3584H57.4326V57.1475H58.2217V56.3584Z" fill="white"/>
<path d="M66.1912 53.3809H64.6131V54.959H66.1912V53.3809Z" fill="white"/>
<path d="M37.6645 58.3884H36.8754V59.1775H37.6645V58.3884Z" fill="white"/>
<path d="M44.5744 46.6682H42.9963V48.2463H44.5744V46.6682Z" fill="white"/>
<path d="M54.7224 62.2854H53.1443V63.8635H54.7224V62.2854Z" fill="white"/>
<path d="M58.8707 68.2124H57.2926V69.7905H58.8707V68.2124Z" fill="white"/>
<path d="M33.0336 49.6565H31.4555V51.2346H33.0336V49.6565Z" fill="white"/>
<path d="M75.5851 37.5002H74.007V39.0784H75.5851V37.5002Z" fill="white"/>
<path d="M28.5059 63.2229H26.9277V64.801H28.5059V63.2229Z" fill="white"/>
</g>
<path d="M50 89.0625C71.5736 89.0625 89.0625 71.5736 89.0625 50C89.0625 28.4264 71.5736 10.9375 50 10.9375C28.4264 10.9375 10.9375 28.4264 10.9375 50C10.9375 71.5736 28.4264 89.0625 50 89.0625Z" stroke="#F86734" stroke-width="9.39001" stroke-miterlimit="10"/>
<path d="M50.043 24.7197C48.7355 24.7197 47.6758 25.749 47.6758 27.0187V29.8545C47.6758 30.0996 47.8744 30.2984 48.1197 30.2984C48.3648 30.2984 48.5637 30.0998 48.5637 29.8545V29.09C48.5637 28.5998 48.9611 28.2023 49.4514 28.2023H50.635C51.1252 28.2023 51.5227 28.5998 51.5227 29.09V29.8545C51.5227 30.0996 51.7213 30.2984 51.9666 30.2984C52.2119 30.2984 52.4105 30.0998 52.4105 29.8545V27.0187C52.4105 25.749 51.3508 24.7197 50.0434 24.7197H50.043Z" fill="#3DDC84"/>
<path d="M18.2299 22.7269L18.9812 21.8748L24.7701 23.7806L23.9037 24.763L22.6871 24.3531L21.1529 26.0931L21.7119 27.2488L20.8457 28.2312L18.2297 22.7267L18.2299 22.7269ZM21.5678 23.9761L19.8367 23.3861L20.6389 25.0296L21.5678 23.9759V23.9761Z" fill="white"/>
<path d="M30.0043 19.6979L25.7638 18.4861L27.7904 21.2951L26.773 22.0293L23.4955 17.4861L24.372 16.8539L28.6013 18.0637L26.5793 15.2611L27.6031 14.5225L30.8806 19.0654L30.0043 19.6979Z" fill="white"/>
<path d="M31.5359 12.3335L33.292 11.5828C34.7435 10.9621 36.4092 11.6062 37.0205 13.0357C37.6316 14.4652 36.9461 16.1146 35.4947 16.7349L33.7387 17.4857L31.5359 12.3335ZM35.0418 15.6755C35.9127 15.3033 36.2056 14.3624 35.8519 13.5353C35.4982 12.708 34.6158 12.2699 33.7449 12.6421L33.1426 12.8996L34.4394 15.933L35.0418 15.6755Z" fill="white"/>
<path d="M39.8879 9.29145L42.0551 8.86254C43.0924 8.65727 43.9049 9.2686 44.0855 10.1819C44.2266 10.894 43.9375 11.4256 43.29 11.8112L45.7121 13.8495L44.234 14.142L41.9586 12.2356L41.7574 12.2754L42.2062 14.5432L40.9756 14.7868L39.8881 9.29145H39.8879ZM42.34 11.0743C42.7037 11.0024 42.9256 10.7413 42.8629 10.4239C42.7969 10.0911 42.4955 9.94965 42.1318 10.0215L41.3424 10.178L41.5506 11.2305L42.34 11.0743Z" fill="white"/>
<path d="M47.7136 10.8594C47.7396 9.26587 49.0545 7.98521 50.6558 8.01138C52.2492 8.03716 53.5299 9.35982 53.5039 10.9534C53.4779 12.5469 52.1552 13.8274 50.5617 13.8014C48.9603 13.7754 47.6879 12.453 47.7136 10.8594ZM52.2338 10.9329C52.2484 10.0256 51.5431 9.24087 50.6359 9.22622C49.7209 9.21138 48.9906 9.97271 48.9757 10.8799C48.9609 11.7874 49.6662 12.5719 50.5812 12.5868C51.4884 12.6014 52.2189 11.8401 52.2336 10.9329H52.2338Z" fill="white"/>
<path d="M57.4971 8.75708L58.7287 8.99732L57.656 14.4967L56.4244 14.2565L57.4971 8.75708Z" fill="white"/>
<path d="M62.8781 10.0419L64.6623 10.722C66.1371 11.2841 66.8875 12.9042 66.3338 14.3568C65.7803 15.8093 64.1416 16.5189 62.6672 15.9568L60.8828 15.2767L62.8783 10.0417L62.8781 10.0419ZM63.0773 14.8804C63.9621 15.2177 64.8264 14.7449 65.1469 13.9042C65.4672 13.0638 65.1369 12.1357 64.2521 11.7986L63.6402 11.5654L62.4654 14.6472L63.0773 14.8804Z" fill="white"/>
<path d="M74.4935 17.4287L73.6717 16.8015L74.3847 15.8669L76.1541 17.2166L72.7558 21.6707L71.8084 20.948L74.4935 17.4287Z" fill="white"/>
<path d="M77.7258 24.6824L75.8592 22.6792L76.5633 22.023L81.016 21.7781L81.7474 22.5632L79.3346 24.8119L79.8242 25.3371L79.0275 26.0794L78.5381 25.5542L77.649 26.3826L76.8367 25.5109L77.7258 24.6824ZM79.6539 22.8857L77.6457 22.999L78.5224 23.94L79.6539 22.8857Z" fill="white"/>
</g>
<defs>
<linearGradient id="paint0_linear_175_405" x1="50" y1="4.25996" x2="50" y2="68.442" gradientUnits="userSpaceOnUse">
<stop stop-color="#073042"/>
<stop offset="1" stop-color="#073042"/>
</linearGradient>
<clipPath id="clip0_175_405">
<rect width="100" height="100" rx="24" fill="white"/>
</clipPath>
</defs>
</svg>
