<svg width="100" height="100" viewBox="0 0 100 100" fill="none" xmlns="http://www.w3.org/2000/svg">
<rect width="100" height="100" rx="24" fill="white"/>
<g clip-path="url(#clip0_175_238)">
<path d="M49.5 93C72.9721 93 92 73.9721 92 50.5C92 27.0279 72.9721 8 49.5 8C26.0279 8 7 27.0279 7 50.5C7 73.9721 26.0279 93 49.5 93Z" fill="#3DDC84"/>
<path d="M28.582 30.6777C30.3363 30.6883 32.0151 31.3926 33.2519 32.6368C34.4887 33.881 35.1828 35.564 35.1828 37.3184V70.3223" stroke="white" stroke-width="6.13" stroke-linecap="round"/>
<path d="M70.4178 70.3224H43.9949V63.715C43.9949 60.21 45.3872 56.849 47.8654 54.3706C50.3437 51.8922 53.7049 50.5001 57.2098 50.5001H63.8503C64.7206 50.5001 65.5823 50.328 66.3855 49.9938C67.1891 49.6596 67.9185 49.1699 68.5322 48.5527C69.1454 47.9355 69.6307 47.2032 69.9603 46.3977C70.2894 45.5922 70.4564 44.7296 70.4512 43.8594C70.4521 40.7369 69.3475 37.7149 67.3331 35.3291C65.3182 32.9434 62.5241 31.3481 59.4454 30.8261C56.3668 30.3041 53.2027 30.8892 50.5144 32.4775C47.826 34.0658 45.7869 36.5548 44.7586 39.5032C44.5088 40.2146 44.3178 40.9453 44.1875 41.688" stroke="white" stroke-width="6.13" stroke-linecap="round"/>
</g>
<defs>
<clipPath id="clip0_175_238">
<rect width="85" height="85" fill="white" transform="translate(7 8)"/>
</clipPath>
</defs>
</svg>
