<svg width="100" height="100" viewBox="0 0 100 100" fill="none" xmlns="http://www.w3.org/2000/svg">
<rect width="100" height="100" rx="24" fill="white"/>
<g clip-path="url(#clip0_225_1050)">
<path d="M59.5682 28.25H40.25V70.75H59.5682V28.25Z" fill="white"/>
<path d="M59.5682 7V28.25H80.8182L59.5682 7Z" fill="#EA4335"/>
<path d="M40.25 7H24.7955C21.5935 7 19 9.59347 19 12.7955V70.75H40.25V28.25H59.5682V7H40.25Z" fill="#FFBA00"/>
<path d="M40.25 70.75H19V86.2045C19 89.4065 21.5935 92 24.7955 92H40.25V70.75Z" fill="#00832D"/>
<path d="M59.5682 70.75H40.25V92H59.5682V70.75Z" fill="#00AC47"/>
<path d="M80.8182 70.75H59.5682V92H75.0227C78.2247 92 80.8182 89.4065 80.8182 86.2045V70.75Z" fill="#0066DA"/>
<path d="M59.5682 28.25V70.75H80.8182V28.25H59.5682Z" fill="#2684FC"/>
</g>
<defs>
<clipPath id="clip0_225_1050">
<rect width="61.8182" height="85" fill="white" transform="translate(19 7)"/>
</clipPath>
</defs>
</svg>
