<svg width="100" height="100" viewBox="0 0 100 100" fill="none" xmlns="http://www.w3.org/2000/svg">
<rect width="100" height="100" rx="24" fill="white"/>
<path d="M25.7556 75.0667L11.5291 60.8402C9.84403 59.1079 8.79333 56.6626 8.79333 54.274C8.79333 53.1682 9.41824 51.4383 9.88732 50.4435L23.0198 23.0845L25.7556 75.0667Z" fill="#01579B"/>
<path d="M74.4551 25.8201L60.2286 11.5937C58.9859 10.3462 56.3981 8.85791 54.2093 8.85791C52.3283 8.85791 50.4819 9.23411 49.2848 9.95189L23.0198 23.0844L74.4551 25.8201Z" fill="#40C4FF"/>
<path d="M42.7186 92.0288H77.1908V77.2554L51.4736 69.0474L27.9443 77.2554L42.7186 92.0288Z" fill="#40C4FF"/>
<path d="M23.0198 67.4057C23.0198 71.795 23.57 72.8717 25.7556 75.0659L27.9443 77.2547H77.1908L53.1146 49.8965L23.0198 23.0845V67.4057Z" fill="#29B6F6"/>
<path d="M66.7941 23.0845H23.0198L77.1908 77.2554H91.9643V43.3302L74.4551 25.8202C71.9956 23.3513 69.8116 23.0845 66.7941 23.0845Z" fill="#01579B"/>
<path opacity="0.2" d="M26.3033 75.6137C24.1146 73.4163 23.5676 71.2511 23.5676 67.4057V23.6315L23.0206 23.0845V67.4057C23.0198 71.2511 23.0198 72.3176 26.3033 75.6137Z" fill="white"/>
<path opacity="0.2" d="M91.4173 42.7832V76.7084H76.6438L77.1908 77.2554H91.965V43.3302L91.4173 42.7832Z" fill="#263238"/>
<path opacity="0.2" d="M74.4551 25.8202C71.7429 23.1081 69.518 23.0845 66.2471 23.0845H23.0198L23.5668 23.6315H66.2471C67.8825 23.6315 72.0019 23.3584 74.4551 25.8202Z" fill="white"/>
<path opacity="0.2" d="M91.4173 42.7831L74.455 25.8201L60.2286 11.5937C58.9858 10.3462 56.3981 8.85791 54.2093 8.85791C52.3283 8.85791 50.4819 9.23411 49.2848 9.95189L23.0198 23.0844L9.88732 50.4434C9.41824 51.4382 8.79333 53.1673 8.79333 54.2739C8.79333 56.6625 9.84403 59.1071 11.5291 60.8401L24.6395 73.8562C24.9536 74.2387 25.3211 74.6306 25.7556 75.0666L26.3025 75.6136L27.9443 77.2554L42.1708 91.4818L42.7178 92.0288H76.643H77.19V77.2554H91.9635V77.216V43.3301L91.4173 42.7831Z" fill="url(#paint0_radial_170_436)"/>
<defs>
<radialGradient id="paint0_radial_170_436" cx="0" cy="0" r="1" gradientUnits="userSpaceOnUse" gradientTransform="translate(50.379 50.4434) scale(41.5857 41.5857)">
<stop stop-color="white" stop-opacity="0.1"/>
<stop offset="1" stop-color="white" stop-opacity="0"/>
</radialGradient>
</defs>
</svg>
