<svg width="100" height="100" viewBox="0 0 100 100" fill="none" xmlns="http://www.w3.org/2000/svg">
<rect width="100" height="100" rx="24" fill="#83B81A"/>
<path fill-rule="evenodd" clip-rule="evenodd" d="M74.8245 39.749H81.8113L80.9854 43.8103C83.1197 40.4713 85.5638 39.509 88.5582 39.3022C89.5907 39.2688 90.8645 39.4055 92 39.5774L90.6568 44.9126C89.5561 44.6372 88.3862 44.4308 87.3536 44.4308C83.2236 44.3625 80.1597 47.1484 79.0924 51.1404L76.6831 60.297H69.4553C71.245 53.4478 73.6204 45.9798 74.8245 39.749Z" fill="white"/>
<path fill-rule="evenodd" clip-rule="evenodd" d="M54.9589 48.8754C56.1635 48.2905 60.3631 48.3542 63.082 48.0097C66.2141 47.6313 70.5837 45.9104 70.4804 43.2944C70.3088 40.5066 67.8319 39.8746 65.526 40.1846C60.0876 40.976 56.5424 44.5387 54.9589 48.8754ZM54.2861 50.6537C54.1484 51.8581 53.9954 53.1379 54.0983 54.1023C54.5462 57.5094 57.5331 59.1026 60.7344 59.2065C63.3996 59.2695 66.6495 57.6744 68.417 55.689C68.7508 55.3134 69.1348 55.4358 69.3611 55.7353C69.5341 55.9634 69.4659 56.4809 69.3063 56.6386C66.5303 59.3946 63.6769 60.9498 59.7087 60.9841C55.2 61.0185 49.5552 59.2992 48.8669 54.6188C48.7636 54.068 48.7636 53.4476 48.8324 52.7938C49.7272 44.1233 57.6441 39.4394 65.4226 39.0261C69.1398 38.8197 74.5092 39.7837 74.1995 43.8105C73.8898 48.0442 67.4878 49.5245 63.323 49.6273C59.8122 49.7308 55.4907 49.7153 54.2861 50.6537Z" fill="white"/>
<path fill-rule="evenodd" clip-rule="evenodd" d="M50.4029 55.549L49.234 60.0226C47.2719 60.4362 44.7238 60.8146 42.3832 60.7459C35.4307 60.6087 30.3365 57.4064 30.6463 50.7978C31.0244 43.1921 38.563 39.3024 45.8255 39.1992C48.235 39.1992 50.4373 39.4395 52.8813 40.0247L50.7127 44.3269C49.1295 43.8795 46.9956 43.4666 44.8614 43.6731C41.5227 43.9138 38.4595 45.7035 37.5646 49.2145C36.3945 53.6201 38.9412 56.7193 43.4504 56.7193C45.8251 56.7194 48.1316 56.2381 50.4029 55.549Z" fill="white"/>
<path fill-rule="evenodd" clip-rule="evenodd" d="M21.0087 39.2673C26.8255 39.2673 31.2065 40.6034 31.6243 45.4333C31.785 47.2912 31.1085 48.9481 30.5923 50.9104L28.1679 60.3322C23.5215 60.3322 19.7353 60.4351 15.5361 60.7792C11.6467 60.7793 7 59.954 7 54.9974C7.08119 46.8977 19.6318 47.6314 24.9668 47.6314C26.1029 44.396 23.4522 43.0881 19.7351 43.0881C16.3621 43.0881 13.5842 44.0518 10.865 44.9468L11.8186 40.5754C14.4691 39.7149 17.8764 39.2673 21.0087 39.2673ZM24.1752 50.8669C21.2445 50.8669 12.9621 50.1758 12.9621 54.6533C12.9621 56.8901 15.3027 57.2239 17.2647 57.2239C22.42 57.2239 23.224 55.4239 24.1752 50.8669Z" fill="white"/>
</svg>
