<svg width="100" height="100" viewBox="0 0 100 100" fill="none" xmlns="http://www.w3.org/2000/svg">
<rect width="100" height="100" rx="24" fill="#1A1C21"/>
<path d="M36.2581 26.0139H39.6498V38.9512H36.2581V26.0139Z" fill="white"/>
<path d="M85.8833 33.4353V38.9017L82.4709 38.8893V25.6145L88.6165 30.9038V26.0138H92V39.4285L85.8833 33.4353Z" fill="white"/>
<path d="M19.2004 32.4475C19.2004 28.7758 22.1806 25.7957 25.8523 25.7957C27.507 25.7957 29.0217 26.4049 30.1866 27.4051L27.9886 29.8995C27.4123 29.4138 26.6673 29.1216 25.8523 29.1216C24.0164 29.1216 22.5263 30.6116 22.5263 32.4475C22.5263 34.2833 24.0164 35.7734 25.8523 35.7734C26.6796 35.7734 27.437 35.4688 28.0215 34.9666L30.2155 37.4651C29.0506 38.4819 27.5234 39.0952 25.8523 39.0952C22.1806 39.0952 19.2004 36.1191 19.2004 32.4475Z" fill="white"/>
<path d="M46.1082 41.9106L39.691 24.8612H34.3276V39.0004H30.8165V24.8612H23.045L24.8479 21.4653H42.1978L46.1082 31.6818L50.0228 21.4653H66.8211L68.6734 24.8612H52.5295L46.1082 41.9106Z" fill="white"/>
<path d="M56.9503 38.9016V36.045H59.2801C59.6588 36.045 60.3791 36.0162 60.5602 35.4152C60.9348 34.1639 57.0985 32.1346 57.0985 29.0227C57.0985 26.6682 58.8026 25.9644 59.9593 25.9644H63.491V28.7716H61.3094C61.3094 28.7716 60.6837 28.7716 60.5109 29.0227C59.5641 30.3769 64.0179 32.3568 64.0179 35.9956C64.0179 37.8973 62.3879 38.9016 60.7619 38.9016H56.9503Z" fill="white"/>
<path d="M52.579 25.9644H55.9749V38.9016H52.579V25.9644Z" fill="white"/>
<path d="M64.5695 25.9644H67.9653V38.9016H64.5695V25.9644Z" fill="white"/>
<path d="M16.6237 38.9511L15.7223 36.5431H11.5114L10.6099 38.9511H7L13.6189 20L20.2378 38.9511H16.6237ZM12.5404 33.0855H14.545L13.5407 29.776L12.5404 33.0855Z" fill="white"/>
<path d="M68.5828 32.4433C68.5828 28.7675 71.567 25.7832 75.2469 25.7832C78.9227 25.7832 81.907 28.7675 81.907 32.4433C81.907 36.1232 78.9227 39.1074 75.2469 39.1074C71.567 39.1074 68.5828 36.1232 68.5828 32.4433ZM71.9375 32.4433C71.9375 34.2709 73.4193 35.7527 75.2469 35.7527C77.0704 35.7527 78.5523 34.2709 78.5523 32.4433C78.5523 30.6198 77.0704 29.1379 75.2469 29.1379C73.4193 29.1379 71.9375 30.6198 71.9375 32.4433Z" fill="white"/>
<path d="M78.2781 40.3174C79.0882 40.4265 79.8951 40.5643 80.6961 40.7328C81.554 41.2724 82.4804 41.6903 83.3528 42.2063C83.486 42.241 83.7523 42.3105 83.8855 42.3453C84.3017 42.4743 84.7232 42.5962 85.1426 42.7218C85.7824 42.922 86.4464 43.0255 87.114 43.0872C87.5965 43.1529 88.0802 43.2132 88.5657 43.272C89.4522 44.0967 90.3834 44.9307 90.8844 46.0612C91.9261 47.7251 91.0994 49.752 91.6553 51.5458C91.9166 53.2845 92.3548 55.2572 91.4851 56.8862C91.4741 58.2052 91.5757 59.6476 90.5524 60.6555C89.7048 63.8399 90.5385 67.1632 89.926 70.3767C89.8304 72.1674 89.6744 73.9816 89.0425 75.6764C88.6838 76.5467 88.0306 77.3891 87.0655 77.6004C86.0253 77.9032 84.97 78.3348 83.8656 78.1743C83.0233 78.1287 82.2216 78.4546 81.4299 78.6912C82.3101 77.4006 82.4155 75.8447 82.1537 74.3444C82.5852 74.1338 83.0159 73.9184 83.4442 73.6983C82.8283 72.6923 82.1337 71.6247 82.1595 70.3988C82.1587 68.6453 82.6543 66.922 82.4812 65.1601C81.779 63.8682 81.2685 62.4724 81.0871 61.0084C80.8258 59.8647 80.9129 58.686 80.8319 57.5249C80.5617 56.1919 80.7602 54.8107 80.5149 53.4659C80.57 50.6115 80.2558 47.6664 81.1569 44.9057C81.1931 44.3573 81.2194 43.8085 81.2458 43.2598C80.2022 42.3357 79.1532 41.4078 78.2781 40.3174Z" fill="#57A8F6"/>
<path d="M21.5367 40.8462C21.8306 41.0306 22.1229 41.2178 22.4137 41.408C23.128 41.4224 23.8426 41.4323 24.5575 41.4398C25.6703 41.9252 26.5615 42.7394 27.2792 43.7062C27.3256 44.8771 27.1964 46.0398 27.04 47.1968C27.1843 47.3829 27.473 47.755 27.6174 47.941C27.5623 48.4795 27.4837 49.0168 27.331 49.5378C27.1868 51.6912 27.2975 53.8512 27.2618 56.0076C27.4743 56.2181 27.6874 56.4288 27.901 56.6394C28.1688 58.9359 28.026 61.269 27.7263 63.554C27.364 64.9256 27.8903 66.2953 27.9162 67.6717C27.698 68.043 27.2464 68.3745 27.3847 68.8594C27.5091 69.7225 27.3137 70.5801 27.1564 71.4246C26.9694 72.7528 26.5411 74.1309 26.948 75.4581C28.2112 75.6755 29.6219 75.7975 30.5505 74.715C31.6883 75.1191 32.8916 75.2163 34.0912 75.1583C34.4269 74.9501 34.7635 74.7433 35.1011 74.538C38.4571 74.1688 41.8333 74.4924 45.1974 74.3688C45.4713 76.0117 44.8903 77.8152 45.7694 79.3221C43.9896 79.2826 42.1438 79.4933 40.4647 78.7601C40.3321 78.7009 40.0669 78.5824 39.9343 78.5231C38.7878 78.2778 37.6106 78.3514 36.4485 78.2804C33.8988 77.5817 31.2216 78.1076 28.6277 77.8393C27.725 77.5752 26.8101 77.3466 25.8625 77.3417C25.2116 77.8961 24.542 78.4278 23.8881 78.9788C22.8537 78.9821 21.8195 78.9837 20.7854 78.982C20.9346 78.7109 21.0847 78.4407 21.2357 78.1715C21.8609 77.788 22.4633 77.3697 23.0718 76.9611C23.5087 74.9366 22.7763 72.8614 23.5271 70.8809C23.6299 70.5058 23.7292 70.1301 23.8249 69.7537C23.5865 69.5234 23.3485 69.2934 23.1109 69.0636C23.1081 67.8756 23.0836 66.6858 23.1811 65.501C23.5718 64.4121 23.2907 63.2186 23.6865 62.1315C23.7541 60.9822 23.6894 59.817 23.9586 58.6885C24.1386 58.1023 23.8751 57.5234 23.8091 56.9428C23.57 55.3837 24.0352 53.7557 23.4986 52.2378C23.4454 51.5133 23.4282 50.7872 23.4139 50.0615C23.5811 49.9179 23.9155 49.6306 24.0827 49.4869C24.1467 48.562 24.1436 47.6284 23.9116 46.7248C24.5522 45.5791 24.264 44.3007 23.6035 43.2344C23.4451 43.2277 23.1282 43.2143 22.9697 43.2076C22.5109 42.7011 22.0355 42.2098 21.5333 41.7465C21.5341 41.5214 21.5358 41.0713 21.5367 40.8462Z" fill="#57A8F6"/>
<path d="M69.6426 41.1606C71.618 41.0618 73.4418 41.9068 75.3447 42.2784C77.2622 42.8142 77.9777 44.831 78.6655 46.4818C79.1237 47.5277 78.7707 48.679 78.4623 49.7122C78.4346 50.3595 78.3902 51.006 78.3413 51.6523C77.6404 53.1209 76.6742 54.7733 74.8337 54.8343C74.8327 55.2212 74.8327 55.6085 74.8337 55.9961C75.214 55.9941 75.5952 55.9924 75.9773 55.991C76.4146 56.4568 76.8553 56.9204 77.2987 57.382C78.259 58.7449 78.4043 60.4157 78.4104 62.0322C78.393 63.423 79.5269 64.4771 79.5979 65.8496C79.8256 66.9325 79.4422 68.1173 79.9639 69.1317C80.5253 70.1978 80.2652 71.4445 80.3017 72.5974C80.3501 74.5558 79.704 76.4352 79.5144 78.3715C77.7713 77.8327 76.7496 75.819 74.7496 76.0227C75.1009 74.8815 75.6019 73.7876 75.8806 72.6248C76.247 70.5672 76.1655 68.4462 75.7081 66.4097C75.4626 65.1895 75.0456 64.0188 74.5048 62.9002C74.3831 62.063 74.5193 61.2058 74.5163 60.3616C73.9701 59.4414 73.4069 58.5247 72.6766 57.7368C72.3819 58.8354 71.7523 59.8908 71.8783 61.0637C71.9716 63.6167 72.5963 66.1375 72.5077 68.6951C72.8247 70.4131 72.3857 72.1456 72.5939 73.8706C72.7712 75.4889 72.4897 77.1032 72.1732 78.6857C71.5792 76.5386 69.8504 75.0464 68.0346 73.9107C68.2942 71.9441 69.3571 70.2097 69.6778 68.2641C69.529 68.1111 69.2314 67.805 69.0826 67.6519C68.9655 64.5133 69.3204 61.3604 69.0348 58.2342C68.3217 55.8012 68.295 53.248 67.8753 50.7634C67.3342 49.615 67.1864 48.3691 67.2507 47.1101C68.328 46.1401 69.5049 45.2818 70.5015 44.2229C69.8042 43.9515 69.0598 43.767 68.3617 44.1545C67.8539 42.8093 66.6277 42.0196 65.463 41.2962C66.8571 41.3438 68.2564 41.3418 69.6426 41.1606Z" fill="#57A8F6"/>
<path d="M61.483 41.6612C61.4007 40.8886 62.3338 41.4093 62.6471 41.6276C62.6565 43.4207 64.3119 44.6876 64.0448 46.5269C65.1694 49.5843 65.9127 52.7513 66.7401 55.8966C66.9931 57.1688 66.7444 58.4885 67.0579 59.7568C67.6026 62.3075 67.5196 64.9221 67.4826 67.5131C67.4026 69.7925 65.6281 71.6631 65.7178 73.9695C65.5241 74.592 65.3355 75.2162 65.1565 75.8435C65.0875 75.9616 64.9495 76.1979 64.8805 76.316C64.8541 77.4269 64.6123 78.518 64.3099 79.5833C64.1529 79.4935 63.8391 79.314 63.6821 79.2243C63.8685 77.2842 62.8968 75.5343 62.7229 73.6361C62.3377 72.8506 61.7055 72.2201 61.2039 71.5099C62.278 69.9121 63.1776 68.1712 63.4288 66.2374C62.0439 65.1223 60.4648 64.284 58.8758 63.5022C58.9145 64.4099 58.9606 65.3181 58.9455 66.2275C59.3334 66.5857 59.7243 66.9419 60.114 67.3C59.8641 67.5265 59.6151 67.7536 59.367 67.9813C58.6924 67.9266 58.0175 67.8885 57.3436 67.8449C56.1783 68.265 55.0081 68.6716 53.8609 69.1391C53.7353 68.7648 53.6088 68.3914 53.4814 68.019C53.8875 67.5662 54.3009 67.1201 54.7194 66.6786C54.7154 66.3412 54.7119 66.0043 54.7091 65.6678C55.1059 65.3737 55.505 65.0819 55.9059 64.7924C55.7863 64.6098 55.6676 64.4275 55.5498 64.2457C55.6951 62.475 55.8445 60.6994 56.408 59.001C56.3262 58.8857 56.1624 58.6551 56.0806 58.5399C56.1182 57.9756 56.1385 57.4104 56.1549 56.8457C56.645 55.916 57.0161 54.9286 57.2009 53.8915C57.287 53.7828 57.4593 53.5654 57.5455 53.4567C57.5679 51.9009 57.8893 50.3246 58.8418 49.0578C58.8232 48.9011 58.7861 48.5877 58.7676 48.4309C59.2888 46.8204 60.5684 45.4609 60.5327 43.7003C61.1835 43.1877 61.5783 42.5096 61.483 41.6612Z" fill="#57A8F6"/>
<path d="M7.46318 41.9794C9.0689 41.9849 10.6439 41.5936 12.2499 41.6194C13.929 41.6334 15.6088 41.6072 17.2875 41.6602C17.7792 42.209 18.4399 42.5214 19.1152 42.7815C20.0636 43.1517 20.3864 44.2068 20.8597 45.0122C20.8721 45.7175 20.8912 46.423 20.9426 47.1269C21.4412 47.9941 21.09 48.9301 20.6246 49.7155C19.8594 51.1537 19.0876 52.6263 17.8694 53.742C18.2144 54.4236 18.9739 54.5859 19.6339 54.8198C19.5421 55.2632 19.4153 55.701 19.362 56.1519C19.7472 56.5878 20.2234 56.9536 20.5123 57.4682C20.445 58.9695 20.0561 60.6315 21.1712 61.8771C21.0172 63.9962 21.729 66.2196 20.8341 68.2359C20.8788 69.5228 21.0716 70.9085 20.3787 72.0723C19.7518 73.1388 19.1403 74.2634 19.2497 75.5498C17.927 76.3866 16.5239 77.136 15.4681 78.3225C15.1052 78.3371 14.7424 78.3522 14.3798 78.3678C14.0235 78.5492 13.6659 78.7293 13.3085 78.9092C13.1866 78.7381 12.9429 78.3959 12.821 78.2247C12.5027 78.4686 12.1873 78.7166 11.8728 78.9661C10.3602 78.885 8.75067 79.281 7.31338 78.6731C8.81043 78.0416 8.82324 76.2568 9.0375 74.878C9.07288 72.5338 9.19926 70.1688 8.83263 67.843C8.60821 65.6843 8.82725 63.5132 8.79624 61.3494C9.00633 61.1604 9.21676 60.9721 9.42752 60.7844C9.28635 59.2722 8.90551 57.7674 9.12315 56.2409C9.6911 55.132 9.0153 53.9593 9.06265 52.8066C9.07439 50.6508 9.01558 48.4922 9.12283 46.3382C9.26216 45.8429 9.37583 45.3413 9.48631 44.8392C9.25762 44.8343 8.80024 44.8244 8.57155 44.8195C8.1136 44.3538 7.65348 43.8906 7.19136 43.4294C7.14353 43.2339 7.04784 42.8429 7 42.6474C7.1158 42.4804 7.34739 42.1464 7.46318 41.9794Z" fill="#57A8F6"/>
<path d="M48.017 41.4875C51.0024 41.4582 53.9875 41.5389 56.973 41.5051C57.6506 41.4719 58.3102 41.6355 58.9482 41.8495C58.5555 42.7291 58.1526 43.6079 57.6239 44.416C57.6098 44.8172 57.5985 45.2186 57.5887 45.6203C57.271 45.9835 56.9552 46.3475 56.6383 46.7106C56.6368 47.0986 56.636 47.4868 56.6359 47.8752C56.4902 48.0183 56.1988 48.3046 56.0531 48.4477C55.9351 49.3002 55.7554 50.1421 55.5757 50.9833C54.7828 52.5964 55.3728 54.4642 54.8211 56.1415C54.5948 57.2885 53.7349 58.2781 53.854 59.4858C53.5181 60.0523 53.118 60.5866 52.8693 61.2004C52.6256 62.659 53.0689 64.1933 52.565 65.6143C51.8289 67.4345 52.2747 69.5636 50.9961 71.1963C50.7844 71.9449 50.5088 72.6732 50.2001 73.3871C51.0589 73.3444 51.9275 73.3241 52.7694 73.1326C53.1716 72.6263 53.3335 71.8478 54.0353 71.6592C55.3228 71.1245 56.6333 70.5684 57.6593 69.5936C58.4003 69.7314 59.2851 69.5672 59.8544 70.1649C59.7983 70.5421 59.7076 70.9115 59.5821 71.2733C59.8003 72.6148 59.9635 73.9873 59.7816 75.3433C59.6817 75.4427 59.4819 75.6415 59.382 75.7409C57.8698 75.8459 56.3243 75.9014 54.8296 75.6035C54.3377 75.4844 53.8458 75.3717 53.355 75.2542C53.0083 75.54 52.6601 75.8241 52.3138 76.11C50.8278 76.0183 49.3231 76.0748 47.9714 76.7627C47.4073 75.9557 47.7018 74.8445 47.9221 73.9561C47.9638 73.6539 48.0043 73.352 48.0435 73.0504C48.1815 72.9074 48.4576 72.6213 48.5957 72.4783C48.8565 70.5807 49.5027 68.7175 49.2673 66.7779C48.3934 65.7052 48.6584 64.2807 48.6501 63.006C48.6684 60.9905 49.7594 59.22 50.3665 57.3508C50.6824 56.5331 50.4555 55.6306 50.7298 54.8005C50.9796 53.5557 51.7936 52.4899 51.8729 51.2058C52.0476 48.9327 54.1131 47.4086 54.3611 45.157C54.2065 45.0954 53.8972 44.9721 53.7425 44.9105C53.0191 44.9773 52.3129 44.8502 51.7263 44.3996C51.1035 44.5036 50.3116 44.4931 50.0157 45.1731C49.4034 46.4382 49.3619 47.884 48.9457 49.2151C48.5011 49.357 48.0586 49.5042 47.6173 49.6528C47.6308 49.0381 47.6346 48.4237 47.6269 47.8093C48.4014 45.7972 47.8574 43.5868 48.017 41.4875Z" fill="#57A8F6"/>
<path d="M28.1202 41.9959C30.2557 41.899 32.3942 41.9673 34.5312 41.9476C34.6467 42.1937 34.7628 42.4398 34.8795 42.686C34.0854 43.0489 33.3531 43.5538 32.9828 44.3743C33.5371 45.6505 32.8235 47.0055 32.9972 48.3336C33.1525 51.1695 32.6762 54.0648 33.3782 56.8498C33.2363 57.0199 32.9527 57.3601 32.8108 57.5302C32.8577 58.8329 33.0038 60.1283 33.1096 61.4268C33.216 62.0697 32.6907 62.5488 32.4206 63.0763C32.6892 64.2313 32.923 65.399 33.3408 66.5128C33.2166 67.873 32.3602 69.2097 32.983 70.5648C33.6405 70.9399 34.282 71.3424 34.9287 71.7368C34.9287 71.9561 34.9286 72.3947 34.9285 72.614C33.3697 72.4967 31.8074 72.5139 30.2489 72.6215C29.8661 72.8789 29.4805 73.1322 29.0896 73.3772C28.9676 72.404 29.8508 71.8727 30.4328 71.272C30.3649 69.2754 31.024 67.2934 30.6572 65.3151C31.4677 62.9266 30.9393 60.3776 30.9509 57.9146C30.9859 55.5411 30.8595 53.163 31.0461 50.794C30.5778 48.435 30.839 46.0002 30.4412 43.6245C29.6248 43.1451 28.8283 42.6277 28.1202 41.9959Z" fill="#57A8F6"/>
<path fill-rule="evenodd" clip-rule="evenodd" d="M71.9892 44.9719C73.1878 45.4359 73.9441 46.5147 74.7053 47.4886C75.2477 48.1562 75.1557 49.0401 75.199 49.8426C74.7802 51.075 74.7311 52.4554 73.9942 53.5635C73.5411 54.2296 72.6953 54.3464 71.9728 54.5141C71.9615 51.3335 71.9323 48.1521 71.9892 44.9719Z" fill="#1A1C21"/>
<path d="M36.5199 45.489C36.518 44.2492 36.3702 42.9525 36.9169 41.7939C39.8566 41.7708 42.7917 41.9446 45.7317 41.9203C45.7732 43.3231 46.1446 44.6945 46.1131 46.1016C46.0777 47.7243 46.3649 49.4685 45.428 50.9098C45.5037 51.0706 45.6549 51.3923 45.7305 51.5531C44.6323 53.0945 43.8815 54.9279 43.8046 56.8331C43.2751 57.204 42.707 57.5461 42.2972 58.0568C42.0763 58.5121 42.2193 59.0402 42.1888 59.5266C40.8393 61.1591 39.9257 63.1452 39.5552 65.2301C39.3459 66.3089 38.9361 67.3353 38.5048 68.3418C38.4686 68.4725 38.3962 68.7338 38.36 68.8644C38.1053 69.5007 37.8785 70.1479 37.6787 70.8039C38.9569 70.4511 40.2319 70.0526 41.4586 69.5516C42.2977 68.5581 42.9147 67.3234 44.1444 66.7296C44.3032 66.4147 44.4611 66.0996 44.6184 65.7843C44.8038 65.8195 45.1744 65.8897 45.3598 65.9248C45.6915 65.2452 45.9925 64.5036 46.6649 64.0854C46.7409 64.6782 46.8069 65.2734 46.8793 65.8676C45.6022 67.6077 46.2361 69.8306 46.1054 71.8233C44.5761 72.5945 42.8287 72.3579 41.2086 72.0773C40.6129 71.9921 40.1245 72.6115 39.5214 72.4821C38.4493 72.2947 37.3598 72.2896 36.2795 72.1897C36.379 71.2814 36.5268 70.378 36.5623 69.4636C36.6789 69.3055 36.9122 68.9891 37.0288 68.831C36.846 68.3568 36.6621 67.8841 36.4789 67.4114C35.9269 65.3702 36.5068 63.3107 37.1383 61.3631C37.4046 60.62 37.8791 59.98 38.319 59.3335C38.5563 58.3726 39.0655 57.5192 39.6889 56.7603C39.715 56.4697 39.7415 56.1794 39.7685 55.8895C40.0798 54.9325 40.3846 53.9722 40.7734 53.0431C41.4825 52.3887 42.1337 51.6549 42.631 50.826C42.68 50.2285 42.6159 49.6291 42.6005 49.0318C43.447 48.08 44.2237 47.0693 44.9848 46.0488C44.958 45.3205 44.9424 44.592 44.929 43.8636C43.6742 43.8633 42.4198 43.8666 41.1655 43.8594C40.2668 44.4073 39.4625 45.1245 39.2495 46.2046C38.8655 46.4854 38.483 46.7677 38.1029 47.053C38.0882 48.3638 38.3818 49.7848 37.5983 50.9501C36.8393 49.4724 36.6663 47.7958 37.2133 46.2177C36.9818 45.9746 36.7506 45.7317 36.5199 45.489Z" fill="#57A8F6"/>
<path fill-rule="evenodd" clip-rule="evenodd" d="M14.1939 45.6348C14.7543 45.7144 15.3162 45.7824 15.8783 45.8513C16.3142 46.1047 16.7562 46.3474 17.2035 46.5812C17.0991 46.6939 16.8905 46.9192 16.7861 47.0319C17.0878 48.1741 16.7144 49.3353 16.7404 50.491C15.8301 50.8666 15.2124 51.624 14.7792 52.4826C14.5481 52.483 14.0858 52.4837 13.8547 52.4841C13.9516 50.3871 13.6273 48.2553 14.0551 46.185C14.0898 46.0474 14.1592 45.7723 14.1939 45.6348Z" fill="#1A1C21"/>
<path fill-rule="evenodd" clip-rule="evenodd" d="M83.9781 49.064C84.6736 49.1513 85.3697 49.2377 86.0675 49.3216C86.987 50.2331 88.1184 51.0847 88.4256 52.4157C88.9513 53.6753 88.9445 55.0567 88.845 56.3949C88.5309 57.0309 88.3027 57.7035 88.1264 58.3893C86.6312 61.1767 87.6612 64.4518 87.1545 67.427C86.3252 69.3006 86.3091 71.4992 84.8889 73.0951C84.8071 68.5594 84.8711 64.0217 84.8606 59.4855C84.8645 57.8571 84.0387 56.352 84.0928 54.715C84.1447 52.8286 83.5889 50.9371 83.9781 49.064Z" fill="#1A1C21"/>
<path fill-rule="evenodd" clip-rule="evenodd" d="M61.1326 53.7388C61.5644 54.4795 62.2539 54.9791 63.0533 55.2684C63.7305 57.6246 63.8401 60.1082 63.5103 62.5313C62.4191 61.7802 61.2159 61.1415 59.8456 61.2449C59.6463 59.639 59.7715 58.0309 60.1158 56.455C60.6322 55.6258 61.1136 54.7428 61.1326 53.7388Z" fill="#1A1C21"/>
<path fill-rule="evenodd" clip-rule="evenodd" d="M13.8543 56.2063C14.6471 56.9655 15.4917 57.6682 16.3802 58.3132C16.8314 59.7429 16.9572 61.286 16.5435 62.7413C16.8173 63.4337 17.3139 64.1992 16.7371 64.9031C16.9022 66.2351 17.2872 67.6024 16.8754 68.9312C16.8721 68.9434 16.8654 68.9678 16.8621 68.98C16.7945 69.1954 16.6594 69.6263 16.5918 69.8418C16.3155 70.9737 16.624 72.3061 15.8023 73.2516C15.0312 74.2946 13.8577 74.9269 12.7012 75.451C12.8252 75.1599 13.0731 74.5775 13.1971 74.2863C13.0496 70.6631 13.9857 67.0492 13.3698 63.4373C13.5899 62.7925 13.8513 62.1413 13.8352 61.4477C13.8001 59.7004 13.8643 57.9536 13.8543 56.2063Z" fill="#1A1C21"/>
</svg>
