<svg width="100" height="100" viewBox="0 0 100 100" fill="none" xmlns="http://www.w3.org/2000/svg">
<rect width="100" height="100" rx="24" fill="#FA0F00"/>
<path d="M79.8234 57.8566C75.1801 53.0352 62.5016 54.9996 59.466 55.3566C55.0019 51.0707 51.9664 45.8922 50.8949 44.1066C52.5019 39.2852 53.573 34.4637 53.7519 29.2855C53.7519 24.8211 51.9664 20 46.966 20C45.1805 20 43.573 21.0711 42.6801 22.4996C40.5375 26.25 41.4301 33.75 44.823 41.4285C42.859 46.9641 41.073 52.3211 36.073 61.7855C30.8945 63.9277 20.0015 68.9281 19.1086 74.2855C18.7515 75.8922 19.2871 77.5 20.5371 78.7496C21.7871 79.8211 23.3941 80.3566 25.0015 80.3566C31.6086 80.3566 38.0371 71.25 42.5015 63.5707C46.2515 62.3211 52.1445 60.5352 58.0375 59.4637C65.0015 65.5352 71.073 66.4277 74.2875 66.4277C78.573 66.4277 80.1805 64.6422 80.716 63.0348C81.6086 61.2496 81.073 59.2852 79.8234 57.8566ZM75.3586 60.8926C75.1801 62.1426 73.5734 63.3922 70.716 62.6781C67.323 61.7855 64.2875 60.1781 61.609 58.0352C63.9305 57.6777 69.1086 57.1422 72.859 57.8566C74.2875 58.2137 75.716 59.1066 75.3586 60.8926ZM45.5375 24.1066C45.8945 23.5711 46.4305 23.2141 46.966 23.2141C48.573 23.2141 48.9301 25.1781 48.9301 26.7855C48.7515 30.5359 48.0371 34.2855 46.7875 37.857C44.1086 30.7141 44.6445 25.7137 45.5375 24.1066ZM45.1805 58.7496C46.609 55.8926 48.5734 50.8922 49.2875 48.7492C50.8945 51.4273 53.573 54.6422 55.0019 56.0707C55.0019 56.2496 49.466 57.3207 45.1805 58.7496ZM34.6445 65.8926C30.5375 72.6781 26.2515 76.9637 23.9301 76.9637C23.573 76.9637 23.2156 76.7852 22.8586 76.6066C22.3226 76.2492 22.1441 75.7137 22.3226 74.9996C22.8586 72.4996 27.5015 69.1066 34.6445 65.8926Z" fill="white"/>
</svg>
