<svg width="100" height="100" viewBox="0 0 100 100" fill="none" xmlns="http://www.w3.org/2000/svg">
<rect width="100" height="100" rx="24" fill="#000B1D"/>
<path d="M21.0417 71.4583L21 28.875C21 28.4583 21.125 28.25 21.4167 28.2083C22.1667 28.1667 23.3333 28.125 24.9167 28.125C26.5 28.0833 28 28.0833 29.8333 28.0417C31.6667 28 33.3333 28 34.875 28C38.5417 28 41.5417 28.25 43.7083 29.0833C45.875 29.875 47.5417 30.9167 48.7083 32.125C49.8333 33.2083 50.6667 34.5417 51.1667 36C51.5417 37.2083 51.75 38.4167 51.75 39.7083C51.75 41.0417 51.4583 42.375 50.9583 43.625C50.5833 44.6667 50.0417 45.625 49.3333 46.4583C48.8333 47.125 48.2083 47.6667 47.5417 48.125C48.5 48.625 49.375 49.25 50.2083 49.9583C51.25 50.875 52.125 52.0417 52.7083 53.2917C53.5 54.875 53.9167 56.625 53.875 58.375C53.875 60.9583 53.0833 63.5 51.5417 65.5833C50.0417 67.625 47.9167 69.25 45.0833 70.375C41.875 71.625 38.5 72.25 35.0417 72.1667H30.625C29.2083 72.1667 28.0417 72.1667 26.8333 72.125C25.6667 72.0833 24.625 72.0833 23.75 72.0417C22.875 72 22.125 72 21.5 72C21.1667 72 21.0417 71.7917 21.0417 71.4583ZM30.0833 35.9167L30.125 45.2083H34.5C35.7083 45.2083 36.875 45.25 38.0417 45.2917C38.875 45.2917 39.7083 45.375 40.5417 45.5417C41.125 45.0417 41.625 44.4167 42 43.75C42.4583 42.9583 42.6667 42.0833 42.6667 41.1667C42.6667 40.0833 42.3333 39 41.6667 38.0833C41 37.2917 40.125 36.6667 39.1667 36.375C37.7917 35.9583 36.375 35.7917 34.9167 35.8333H32.9583C32.375 35.8333 32 35.8333 31.5417 35.875C31.125 35.875 30.625 35.9167 30.0833 35.9167ZM30.125 53V64.1667C30.875 64.2083 31.4583 64.25 32.25 64.25C33 64.2917 33.9167 64.2917 35 64.2917C36.625 64.3333 38.2917 64.125 39.875 63.7083C41.0833 63.4167 42.2083 62.75 43.0417 61.8333C43.8333 60.9583 44.2917 59.8333 44.3333 58.6667C44.2917 57.5417 43.9167 56.4167 43.2083 55.5C42.625 54.625 41.5417 53.875 40 53.4583C39.375 53.2917 38.7917 53.2083 38.1667 53.125C37.3333 53.0417 36.5417 53 35.7083 53H30.125Z" fill="white"/>
<path d="M59.8333 38.4582H67.125C67.5416 38.4582 67.875 38.7499 68 39.1249C68.1666 39.4166 68.2916 39.7499 68.3333 40.0832C68.4166 40.4999 68.5 40.9582 68.5416 41.3749C68.5833 41.8332 68.625 42.4999 68.625 43.0416C69.875 41.5416 71.375 40.2499 73.0833 39.2916C74.875 38.2916 76.7916 38.0416 79.125 38.0416C79.4166 37.9999 79.6666 38.2082 79.7083 38.4999C79.7083 38.5416 79.7083 38.5832 79.7083 38.6666V46.6666C79.7083 46.9999 79.5 47.1249 79.0416 47.1249C77.625 47.0416 76.2083 47.1249 74.7916 47.4166C73.5833 47.6666 72.4166 48.0416 71.2916 48.5416C70.375 48.9166 69.5416 49.4166 68.8333 50.0832V71.2082C68.8333 71.6249 68.6666 71.7916 68.2916 71.7916H60.375C60.0416 71.8332 59.75 71.6249 59.7083 71.2916C59.7083 71.2499 59.7083 71.1666 59.7083 71.1249V48.2082C59.7083 47.2082 59.7083 46.1666 59.6666 45.0832C59.625 43.9999 59.625 42.9166 59.5833 41.8332C59.5416 40.8749 59.4583 39.8749 59.3333 38.9166C59.2916 38.7082 59.4166 38.4999 59.625 38.4582C59.7083 38.4582 59.75 38.4582 59.8333 38.4582Z" fill="white"/>
</svg>
