<svg width="100" height="100" viewBox="0 0 100 100" fill="none" xmlns="http://www.w3.org/2000/svg">
<rect width="100" height="100" rx="24" fill="#001E36"/>
<path d="M50.072 71.9217H23.668C23.2 71.9217 23.0049 71.6877 23.0049 71.1807V28.591C22.9659 28.318 23.161 28.045 23.473 28.006C23.512 28.006 23.551 28.006 23.629 28.006H31.7803C31.9753 27.967 32.2483 28.123 32.2483 28.357C32.2483 28.396 32.2483 28.435 32.2483 28.474V63.4584H51.5151C51.9441 63.4584 52.0611 63.6534 51.9831 64.0434L50.7741 71.2977C50.7741 71.4927 50.6571 71.6877 50.54 71.8047C50.384 71.8827 50.228 71.9217 50.072 71.9217Z" fill="#31A8FF"/>
<path d="M56.7412 38.5754H64.0345C64.4635 38.5754 64.7756 38.8484 64.8926 39.2384C65.0486 39.5114 65.1656 39.8624 65.2436 40.2134C65.3216 40.6425 65.3996 41.0715 65.4386 41.5005C65.4776 41.9685 65.5166 42.4755 65.5166 42.9826C66.7646 41.5395 68.2857 40.3305 69.9628 39.3944C71.8738 38.3414 74.0189 37.8343 76.164 37.9124C76.437 37.8734 76.71 38.0684 76.749 38.3804C76.749 38.4194 76.749 38.4584 76.749 38.5364V46.6877C76.749 47.0387 76.554 47.1557 76.086 47.1557C73.3949 46.9997 70.6648 47.5067 68.2077 48.5598C67.3887 48.9498 66.5696 49.4178 65.9456 50.1198V71.3757C65.9456 71.8047 65.7896 71.9607 65.3996 71.9607H57.2873C56.9362 71.9997 56.6632 71.8047 56.6242 71.4537C56.6242 71.4147 56.6242 71.3367 56.6242 71.2977V48.2088C56.6242 47.1947 56.6242 46.1807 56.5852 45.0886C56.5462 43.9966 56.5462 42.9046 56.5072 41.8515C56.4682 40.9155 56.3902 40.0184 56.2732 39.0824C56.2342 38.8874 56.3512 38.6534 56.5462 38.6144C56.6242 38.5364 56.6632 38.5364 56.7412 38.5754Z" fill="#31A8FF"/>
</svg>
