<svg width="100" height="100" viewBox="0 0 100 100" fill="none" xmlns="http://www.w3.org/2000/svg">
<rect width="100" height="100" rx="24" fill="#001E36"/>
<path d="M56.1327 38.1446H63.1656C63.3613 38.1462 63.5511 38.2116 63.7062 38.3308C63.8613 38.45 63.9734 38.6165 64.0254 38.8051C64.1819 39.0948 64.293 39.4068 64.355 39.7302C64.443 40.1265 64.5093 41.3163 64.5538 41.7788C64.5974 42.2414 64.6194 42.7369 64.62 43.2655C65.8453 41.763 67.3339 40.496 69.0129 39.5266C70.8597 38.5473 72.9314 38.0707 75.0205 38.1446C75.1013 38.1331 75.1836 38.1406 75.261 38.1664C75.3383 38.1923 75.4086 38.2357 75.4663 38.2934C75.524 38.3511 75.5675 38.4214 75.5933 38.4988C75.6191 38.5762 75.6266 38.6585 75.6151 38.7393V46.938C75.6151 47.2467 75.3937 47.4005 74.9542 47.4005C73.5444 47.2731 72.1238 47.3379 70.7314 47.5932C69.5492 47.8282 68.3967 48.1937 67.2952 48.6831C66.3914 49.0442 65.5567 49.5583 64.8276 50.2029V71.032C64.8276 71.4283 64.6515 71.6266 64.2992 71.6267H56.7274C56.6376 71.6395 56.5461 71.6313 56.46 71.6026C56.374 71.5739 56.2958 71.5256 56.2316 71.4615C56.1675 71.3974 56.1192 71.3192 56.0905 71.2331C56.0618 71.1471 56.0536 71.0555 56.0665 70.9657V48.3532C56.0665 47.3845 56.0554 46.3602 56.0333 45.2805C56.0107 44.2019 55.9778 43.1338 55.9348 42.0762C55.8895 41.019 55.8023 39.3565 55.6697 38.6072C55.6532 38.5432 55.6537 38.476 55.6712 38.4122C55.6886 38.3485 55.7224 38.2904 55.7691 38.2437C55.8159 38.197 55.874 38.1633 55.9378 38.1459C56.0015 38.1285 56.0687 38.1281 56.1327 38.1446Z" fill="#31A8FF"/>
<path d="M32.5783 55.0261L32.7384 71.0538C32.7487 71.1256 32.7421 71.1988 32.7192 71.2676C32.6963 71.3364 32.6577 71.3989 32.6064 71.4502C32.5551 71.5015 32.4926 71.5401 32.4238 71.563C32.355 71.5859 32.2818 71.5925 32.21 71.5822H24.6231C24.5562 71.5904 24.4883 71.5827 24.425 71.5598C24.3617 71.5368 24.3047 71.4992 24.2586 71.4501C24.1801 71.3093 24.1457 71.1481 24.1601 70.9876L24 28.9279C24 28.3119 24.1543 28.0036 24.463 28.0032H50.0867C50.2475 27.9888 50.4089 28.0233 50.5497 28.1022C50.6378 28.168 50.7038 28.4653 50.7476 28.9941L51.4748 36.1959C51.4965 36.2595 51.4986 36.3282 51.4809 36.393C51.4632 36.4578 51.4264 36.5158 51.3754 36.5595C51.3189 36.6148 51.2517 36.6579 51.1779 36.6862C51.1042 36.7146 51.0254 36.7275 50.9464 36.7243H32.5783V46.7672H48.2731C48.6689 46.7672 48.8677 46.9224 48.8677 47.2297V54.4977C48.8781 54.5694 48.8715 54.6427 48.8486 54.7115C48.8257 54.7803 48.7871 54.8428 48.7358 54.8941C48.6845 54.9454 48.622 54.984 48.5532 55.0069C48.4843 55.0298 48.4111 55.0364 48.3393 55.026L32.5783 55.0261Z" fill="#31A8FF"/>
</svg>
