<svg width="100" height="100" viewBox="0 0 100 100" fill="none" xmlns="http://www.w3.org/2000/svg">
<rect width="100" height="100" rx="24" fill="#EB1000"/>
<path d="M55.0909 67.8932C55.0909 68.3078 54.7549 68.6438 54.3404 68.6438C53.9259 68.6438 53.5899 68.3078 53.5899 67.8932C53.5899 67.4787 53.9259 67.1427 54.3404 67.1427C54.7549 67.1427 55.0909 67.4787 55.0909 67.8932ZM53.5899 69.6927C53.3685 69.6927 53.1743 69.7785 53.0068 69.8978C53.0398 69.8015 53.068 69.7021 53.068 69.5943C53.068 69.0698 52.6425 68.6438 52.1176 68.6438C51.5926 68.6438 51.1671 69.0698 51.1671 69.5943C51.1671 70.1197 51.5926 70.5447 52.1176 70.5447C52.3138 70.5447 52.486 70.4715 52.6378 70.3689C52.598 70.4778 52.5677 70.5929 52.5677 70.7154C52.5677 71.2796 53.0257 71.7381 53.5899 71.7381C54.1546 71.7381 54.6126 71.2796 54.6126 70.7154C54.6126 70.1512 54.1546 69.6927 53.5899 69.6927ZM51.8135 71.9621C51.7763 71.3487 51.2791 70.8588 50.6563 70.8588C50.5469 70.8588 50.4485 70.8933 50.3485 70.9205C50.5286 70.7237 50.6453 70.4673 50.6453 70.1794C50.6453 69.5691 50.1501 69.074 49.5399 69.074C48.9296 69.074 48.4345 69.5691 48.4345 70.1794C48.4345 70.7897 48.9296 71.2848 49.5399 71.2848C49.6351 71.2848 49.7204 71.2534 49.8089 71.2304C49.611 71.4397 49.4849 71.7192 49.4849 72.0301C49.4849 72.5629 49.8481 72.9942 50.3354 73.1366C50.3349 73.1523 50.3265 73.1648 50.3265 73.1805C50.3265 73.8777 50.8923 74.444 51.5905 74.444C52.2882 74.444 52.854 73.8777 52.854 73.1805C52.854 72.5619 52.4007 72.0709 51.8135 71.9621ZM48.8909 73.101C48.9458 72.9576 48.9835 72.8058 48.9835 72.6425C48.9835 71.9725 48.468 71.4397 47.8153 71.3748C47.976 71.1697 48.0875 70.9226 48.0875 70.641C48.0875 70.0632 47.6745 69.6037 47.1333 69.4833C47.3809 69.2771 47.5478 68.9788 47.5478 68.6312C47.5478 68.2 47.2966 67.8367 46.9397 67.6494C47.4913 67.6253 47.9336 67.1773 47.9336 66.6204C47.9336 66.0478 47.4693 65.5841 46.8967 65.5841C46.3242 65.5841 45.8599 66.0478 45.8599 66.6204C45.8599 67.0087 46.0829 67.3353 46.3995 67.5133C45.7913 67.5269 45.3004 68.0189 45.3004 68.6312C45.3004 69.1557 45.6673 69.5754 46.1525 69.7C45.8667 69.9209 45.6704 70.2517 45.6704 70.6411C45.6704 71.2513 46.13 71.7349 46.7177 71.8176C46.5272 72.0427 46.399 72.3243 46.399 72.6425C46.399 73.2622 46.8444 73.7552 47.4259 73.8808C47.3301 74.0745 47.2642 74.2849 47.2642 74.5162C47.2642 75.317 47.9137 75.966 48.7145 75.966C49.5153 75.966 50.1648 75.317 50.1648 74.5162C50.1648 73.7783 49.6048 73.192 48.8909 73.101ZM34.0512 64.195C34.0512 64.709 33.756 65.1413 33.3368 65.3768C33.4132 65.3632 33.4828 65.3307 33.5629 65.3307C34.3233 65.3307 34.9399 65.9473 34.9399 66.7072C34.9399 66.9271 34.8776 67.127 34.7865 67.3112C35.0268 67.104 35.3298 66.9658 35.6721 66.9658C36.4185 66.9658 37.0204 67.5646 37.0376 68.3067C37.1858 67.7383 37.6694 67.3165 38.2765 67.2893C38.1498 67.0987 38.0577 66.8821 38.0577 66.635C38.0577 65.9672 38.5989 65.426 39.2668 65.426C39.9341 65.426 40.4753 65.9672 40.4753 66.635C40.4753 67.2568 39.9995 67.7509 39.3955 67.8179C39.5761 68.0492 39.7012 68.3277 39.7012 68.6438C39.7012 69.0007 39.5567 69.32 39.3327 69.5629C39.5808 69.8026 39.7273 70.1302 39.7671 70.4914C39.8074 70.1438 39.9587 69.835 40.2047 69.611C39.9268 69.3734 39.7415 69.0332 39.7415 68.6396C39.7415 67.9644 40.2643 67.4274 40.9243 67.3678C40.7563 67.1657 40.6422 66.9145 40.6422 66.6308C40.6422 66.2048 40.8809 65.8489 41.22 65.6437C40.7197 65.5631 40.3308 65.1486 40.3308 64.6242C40.3308 64.0432 40.8019 63.5721 41.3833 63.5721C41.9648 63.5721 42.4359 64.0432 42.4359 64.6242C42.4359 64.9926 42.2359 65.3004 41.9502 65.4888C42.5275 65.56 42.9813 66.0331 42.9813 66.6308C42.9813 67.2181 42.5416 67.6828 41.9784 67.7666C42.192 67.9969 42.3291 68.3004 42.3291 68.6396C42.3291 68.984 42.1894 69.2928 41.9695 69.5252C42.3223 69.7827 42.5662 70.1784 42.5662 70.6484C42.5662 70.9048 42.4793 71.133 42.36 71.3403C42.8258 71.6041 43.154 72.0845 43.154 72.6571C43.154 72.8215 43.1084 72.9722 43.0603 73.1209C43.2194 73.1962 43.3644 73.2936 43.4916 73.4119C43.3466 73.19 43.2409 72.9398 43.2409 72.654C43.2409 72.3525 43.3565 72.0877 43.5183 71.8574C43.0373 71.6627 42.6965 71.1958 42.6965 70.6442C42.6965 70.2538 42.8755 69.9125 43.1466 69.6728C42.7808 69.4645 42.5228 69.0866 42.5228 68.6354C42.5228 68.0032 43.0132 67.5007 43.6313 67.4463C43.4005 67.2443 43.2471 66.9564 43.2471 66.6256C43.2471 66.1734 43.5204 65.7871 43.9098 65.6165C43.8522 65.627 43.7998 65.6511 43.7397 65.6511C43.1697 65.6511 42.7081 65.1884 42.7081 64.6189C42.7081 64.0495 43.1697 63.5868 43.7397 63.5868C44.3096 63.5868 44.7713 64.0495 44.7713 64.6189C44.7713 65.0408 44.5158 65.403 44.1526 65.5621C44.2191 65.5495 44.2803 65.5223 44.3505 65.5223C44.9597 65.5223 45.4538 66.0164 45.4538 66.6256C45.4538 67.1909 45.022 67.641 44.4735 67.7038C44.7509 67.9257 44.9403 68.2523 44.9403 68.6354C44.9403 68.9662 44.8063 69.2656 44.5907 69.4833C45.0188 69.7 45.3203 70.1323 45.3203 70.6442C45.3203 70.9017 45.2271 71.1278 45.0989 71.3309C45.6584 71.5193 46.0672 72.0322 46.0672 72.654C46.0672 72.8278 46.0258 72.99 45.9683 73.1439C46.6382 73.3397 47.1375 73.9332 47.1375 74.6659C47.1375 75.5557 46.4163 76.2769 45.5265 76.2769C44.7582 76.2769 44.1458 75.7274 43.9846 75.0072C43.8234 75.7912 43.1618 76.3921 42.3296 76.3921C41.6529 76.3921 41.0808 75.9922 40.7987 75.4249C40.5098 76.0613 39.8765 76.5083 39.1322 76.5083C38.4513 76.5083 37.8808 76.1199 37.5636 75.5693C37.2423 76.1503 36.6461 76.5596 35.9354 76.5596C35.2471 76.5596 34.6703 76.1723 34.3411 75.6206C34.0114 76.1764 33.431 76.5669 32.738 76.5669C31.9283 76.5669 31.2495 76.0529 30.9794 75.338C30.6361 75.6792 30.164 75.8907 29.6416 75.8907C28.5933 75.8907 27.7428 75.0407 27.7428 73.9918C27.7428 73.9102 27.7794 73.84 27.7893 73.7615C27.5952 73.8296 27.3937 73.885 27.1759 73.885C26.1354 73.885 25.2917 73.0413 25.2917 72.0008C25.2917 71.5926 25.4493 71.2356 25.6696 70.9268C24.738 70.841 24 70.0821 24 69.1274C24 68.401 24.4318 67.7844 25.0463 67.4882C24.504 67.1836 24.1219 66.6246 24.1219 65.9588C24.1219 64.9989 24.8861 64.2274 25.8381 64.1919C25.5325 63.881 25.3414 63.4549 25.3414 62.9839C25.3414 62.0292 26.115 61.2556 27.0697 61.2556C27.0985 61.2556 27.1225 61.2703 27.1513 61.2724C26.8185 60.9615 26.6039 60.5271 26.6039 60.0351C26.6039 59.094 27.3664 58.332 28.3075 58.332C28.3771 58.332 28.4357 58.3634 28.5027 58.3718C28.1238 58.064 27.8663 57.6128 27.8663 57.0863C27.8663 56.1589 28.6179 55.4073 29.5448 55.4073C29.6547 55.4073 29.7505 55.4492 29.8541 55.4701C29.4265 55.1707 29.1287 54.6997 29.1287 54.1375C29.1287 53.2237 29.8693 52.4836 30.7826 52.4836C30.9334 52.4836 31.0689 52.5318 31.2081 52.5695C30.7287 52.2858 30.3911 51.7865 30.3911 51.1888C30.3911 50.2885 31.1207 49.5589 32.0204 49.5589C32.2115 49.5589 32.3884 49.6071 32.5585 49.6678C32.0272 49.4061 31.6535 48.8712 31.6535 48.24C31.6535 47.3534 32.3722 46.6353 33.2582 46.6353C33.7309 46.6353 34.1454 46.8478 34.439 47.1733C34.6227 47.0927 34.8237 47.0435 35.0378 47.0435C35.5162 47.0435 35.9223 47.2832 36.195 47.6339C36.3824 47.5376 36.5865 47.4696 36.8121 47.4696C37.3009 47.4696 37.7097 47.7396 37.952 48.1248C38.1362 48.0181 38.3383 47.9406 38.567 47.9406C39.148 47.9406 39.6143 48.3447 39.7546 48.8817C39.8797 48.8346 40.0121 48.8011 40.1539 48.8011C40.7809 48.8011 41.2891 49.3087 41.2891 49.9358C41.2891 50.2686 41.1405 50.5607 40.9123 50.769C41.0316 50.7188 41.1625 50.6905 41.3001 50.6905C41.8539 50.6905 42.3024 51.1396 42.3024 51.6933C42.3024 51.9655 42.192 52.2115 42.0156 52.3915C42.1737 52.2492 42.3778 52.157 42.607 52.157C43.1006 52.157 43.501 52.5569 43.501 53.051C43.501 53.544 43.1006 53.9439 42.607 53.9439C42.114 53.9439 41.7136 53.544 41.7136 53.051C41.7136 52.8081 41.812 52.5894 41.969 52.4282C41.7911 52.5904 41.5597 52.6951 41.3001 52.6951C40.7469 52.6951 40.2984 52.246 40.2984 51.6933C40.2984 51.4159 40.4119 51.1647 40.5941 50.9826C40.459 51.0401 40.3104 51.0715 40.1539 51.0715C39.6619 51.0715 39.2532 50.7544 39.0956 50.3158C38.9339 50.3922 38.758 50.4424 38.567 50.4424C38.1603 50.4424 37.8164 50.2362 37.5877 49.9358C37.3648 50.0938 37.1067 50.2069 36.8121 50.2069C36.418 50.2069 36.0689 50.0352 35.8187 49.7683C35.5884 49.9148 35.3309 50.0216 35.0378 50.0216C34.6473 50.0216 34.2982 49.8635 34.0329 49.6175C33.7994 49.7494 33.5451 49.8447 33.2582 49.8447C33.0709 49.8447 32.8971 49.7965 32.7301 49.7379C32.8835 49.8133 33.028 49.9033 33.1494 50.0206C33.364 49.9044 33.5974 49.8206 33.8586 49.8206C34.3029 49.8206 34.6934 50.0206 34.9697 50.3273C35.1833 50.1922 35.4219 50.0938 35.6931 50.0938C36.1479 50.0938 36.5321 50.3273 36.7848 50.6643C36.9921 50.5146 37.2339 50.4079 37.5097 50.4079C38.0509 50.4079 38.5042 50.7512 38.6848 51.2296C38.8282 51.1647 38.9847 51.1239 39.1527 51.1239C39.7849 51.1239 40.2968 51.6368 40.2968 52.268C40.2968 52.5014 40.2099 52.7066 40.0901 52.8877C40.1796 52.8615 40.2685 52.8312 40.3669 52.8312C40.928 52.8312 41.3828 53.2865 41.3828 53.8476C41.3828 54.0098 41.3363 54.1585 41.2687 54.2946C41.4053 54.2119 41.5566 54.1512 41.7277 54.1512C42.2276 54.1512 42.6332 54.5563 42.6332 55.0566C42.6332 55.5559 42.2276 55.961 41.7277 55.961C41.2279 55.961 40.8223 55.5559 40.8223 55.0566C40.8223 54.9247 40.8532 54.8012 40.9039 54.6882C40.7459 54.7907 40.569 54.864 40.3669 54.864C39.8053 54.864 39.3505 54.4087 39.3505 53.8476C39.3505 53.6592 39.4154 53.4927 39.5054 53.341C39.3924 53.3776 39.2778 53.4121 39.1527 53.4121C38.6963 53.4121 38.309 53.14 38.1252 52.7537C37.9405 52.8584 37.7379 52.9358 37.5097 52.9358C37.1407 52.9358 36.8162 52.7715 36.5849 52.5192C36.3431 52.7275 36.0374 52.8657 35.6931 52.8657C35.3372 52.8657 35.0195 52.7213 34.774 52.5004C34.5175 52.7014 34.2092 52.8406 33.8586 52.8406C33.655 52.8406 33.4624 52.7977 33.2849 52.7244C33.4529 52.7977 33.6026 52.9024 33.7335 53.0269C33.9701 52.8448 34.2527 52.7181 34.5746 52.7181C34.9943 52.7181 35.3602 52.9118 35.6166 53.2038C35.8417 53.006 36.1296 52.8751 36.453 52.8751C36.9617 52.8751 37.393 53.1777 37.5982 53.6089C37.7646 53.5158 37.9468 53.4477 38.1514 53.4477C38.7884 53.4477 39.305 53.9638 39.305 54.6002C39.305 54.7468 39.2715 54.885 39.2217 55.0137C39.2919 54.998 39.3578 54.9708 39.4332 54.9708C40.0021 54.9708 40.4638 55.4324 40.4638 56.0019C40.4638 56.1003 40.4334 56.1903 40.4077 56.2803C40.5402 56.205 40.6851 56.1505 40.8484 56.1505C41.3514 56.1505 41.7591 56.5588 41.7591 57.0623C41.7591 57.5647 41.3514 57.973 40.8484 57.973C40.3449 57.973 39.9372 57.5647 39.9372 57.0623C39.9372 56.9879 39.9629 56.922 39.9796 56.8529C39.8184 56.9565 39.6384 57.0319 39.4332 57.0319C38.8643 57.0319 38.4026 56.5703 38.4026 56.0019C38.4026 55.892 38.4335 55.7904 38.4655 55.691C38.3634 55.7203 38.2629 55.7538 38.1514 55.7538C37.7296 55.7538 37.3763 55.5151 37.1753 55.177C36.967 55.3246 36.7273 55.4293 36.453 55.4293C36.117 55.4293 35.8161 55.2932 35.5879 55.0807C35.4649 55.2116 35.3183 55.3162 35.1529 55.3916C35.234 55.3748 35.3094 55.3424 35.3958 55.3424C35.8721 55.3424 36.2719 55.6135 36.4949 55.9977C36.6844 55.8647 36.9021 55.7695 37.1507 55.7695C37.7929 55.7695 38.3132 56.2908 38.3132 56.9325C38.3132 57.0151 38.2828 57.0884 38.266 57.1659C38.3435 57.1481 38.4168 57.1188 38.5 57.1188C39.0721 57.1188 39.5363 57.5836 39.5363 58.1561C39.5363 58.2074 39.5143 58.2514 39.5075 58.2995C39.6447 58.2169 39.7964 58.1561 39.9686 58.1561C40.4716 58.1561 40.8793 58.5644 40.8793 59.0668C40.8793 59.5703 40.4716 59.9775 39.9686 59.9775C39.4657 59.9775 39.0579 59.5703 39.0579 59.0668C39.0579 59.0417 39.07 59.0218 39.0721 58.9967C38.9056 59.1108 38.7162 59.1925 38.5 59.1925C37.9274 59.1925 37.4632 58.7277 37.4632 58.1561C37.4632 58.1101 37.4836 58.0713 37.4893 58.0274C37.3805 58.0609 37.2706 58.0954 37.1507 58.0954C36.7624 58.0954 36.4358 57.8934 36.2248 57.6013C35.9987 57.794 35.7156 57.9227 35.3958 57.9227C35.077 57.9227 34.7949 57.795 34.5699 57.6034C34.5144 57.6767 34.4631 57.7489 34.394 57.8107C34.8138 57.8285 35.1665 58.0494 35.3937 58.3718C35.6004 58.197 35.8579 58.0797 36.1495 58.0797C36.8037 58.0797 37.3339 58.6105 37.3339 59.2647C37.3339 59.2835 37.3239 59.2992 37.3229 59.3181C37.4035 59.2982 37.4804 59.2689 37.5668 59.2689C38.1415 59.2689 38.6078 59.7357 38.6078 60.3104C38.6078 60.8851 38.1415 61.3509 37.5668 61.3509C37.0136 61.3509 36.5713 60.9155 36.5389 60.3711C36.4153 60.4141 36.2876 60.4496 36.1495 60.4496C35.7946 60.4496 35.4863 60.2864 35.2691 60.0393C35.0315 60.278 34.7023 60.4266 34.3385 60.4266C34.036 60.4266 33.7707 60.3073 33.5487 60.1356C33.5173 60.1869 33.4859 60.2361 33.4488 60.2832C33.8 60.3293 34.0999 60.4999 34.3118 60.7626C34.5306 60.5397 34.8337 60.3994 35.1712 60.3994C35.8375 60.3994 36.3777 60.9395 36.3777 61.6053C36.3777 62.2721 35.8375 62.8122 35.1712 62.8122C34.8284 62.8122 34.5228 62.6667 34.3029 62.4364C34.0569 62.7347 33.6989 62.9368 33.2818 62.9368M33.4671 71.0389C33.7466 71.2294 33.98 71.4764 34.1077 71.7936C34.1491 71.7255 34.1899 71.6586 34.2401 71.5978C34.036 71.3466 33.9015 71.041 33.8884 70.6955C33.7701 70.8368 33.6283 70.9478 33.4671 71.0389ZM36.7027 71.4251C36.8655 71.5779 36.9979 71.758 37.091 71.9642C37.1287 71.8836 37.1879 71.8187 37.2376 71.7465C37.056 71.5738 36.9335 71.3529 36.855 71.109C36.8173 71.2231 36.7644 71.3246 36.7027 71.4251ZM39.7682 70.8086C39.7457 71.0158 39.6855 71.2063 39.5881 71.3801C39.876 71.6062 40.0728 71.9171 40.1607 72.2845C40.2063 72.1076 40.278 71.9495 40.379 71.804C40.044 71.579 39.8174 71.2283 39.7682 70.8086ZM36.3871 69.4791C36.6079 69.6644 36.7676 69.9031 36.8571 70.1836C36.9445 69.9177 37.0963 69.6906 37.3046 69.5126C37.1104 69.2824 36.9832 68.9966 36.9759 68.6742C36.8864 69.0165 36.6786 69.296 36.3871 69.4791ZM33.5629 68.0848C33.0557 68.0848 32.6312 67.798 32.3926 67.3898C32.3988 67.4473 32.4261 67.4965 32.4261 67.5562C32.4261 67.82 32.3434 68.0555 32.2272 68.2733C32.3852 68.2188 32.5485 68.1728 32.7254 68.1728C33.5582 68.1728 34.227 68.8354 34.2564 69.6613C34.3809 69.5137 34.529 69.3954 34.6997 69.3043C34.4532 69.0563 34.3003 68.715 34.3003 68.3371C34.3003 68.1194 34.3616 67.9215 34.4521 67.7384C34.2108 67.9467 33.9062 68.0848 33.5629 68.0848ZM32.6778 65.5684C32.3324 65.5684 32.0262 65.4291 31.7844 65.2188C31.6703 65.5788 31.4301 65.8678 31.1092 66.0562C31.5845 66.1295 31.978 66.4058 32.2062 66.8088C32.2036 66.7732 32.1858 66.7429 32.1858 66.7073C32.1858 66.1912 32.4821 65.7589 32.9023 65.5234C32.8265 65.5359 32.7574 65.5684 32.6778 65.5684ZM34.5746 55.5235C34.2579 55.5235 33.9805 55.3999 33.7461 55.223C33.6874 55.2796 33.6105 55.312 33.5435 55.3591C33.8984 55.3822 34.2223 55.5203 34.4589 55.7569C34.573 55.6344 34.708 55.536 34.8614 55.4659C34.7656 55.4858 34.6766 55.5235 34.5746 55.5235ZM33.2603 52.715C33.14 52.6626 33.0405 52.5789 32.939 52.4983C32.8814 52.5381 32.8275 52.582 32.7652 52.6155C32.9385 52.6249 33.1075 52.6521 33.2603 52.715ZM34.4961 46.8708C34.729 46.8708 34.9467 46.8143 35.1456 46.7232C35.4141 47.0142 35.7904 47.2026 36.2175 47.2026C36.463 47.2026 36.6838 47.1272 36.8869 47.0215C37.1345 47.3345 37.5009 47.548 37.9311 47.548C38.176 47.548 38.3932 47.4654 38.5911 47.3513C38.8093 47.7019 39.1804 47.9479 39.6237 47.9479C39.7855 47.9479 39.9383 47.9123 40.0796 47.8558C40.1968 48.353 40.6229 48.7299 41.1552 48.7299C41.7377 48.7299 42.2009 48.2818 42.2595 47.7145C42.3956 48.0882 42.7463 48.3583 43.1671 48.3583C43.7051 48.3583 44.1416 47.9228 44.1416 47.3837C44.1416 46.8457 43.7051 46.4102 43.1671 46.4102C42.6683 46.4102 42.2721 46.7902 42.2145 47.2738C42.0716 46.8164 41.6597 46.4782 41.1552 46.4782C41.039 46.4782 40.9332 46.5117 40.828 46.5442C40.7433 45.9433 40.2481 45.4733 39.6237 45.4733C39.4432 45.4733 39.2741 45.5162 39.1192 45.5864C38.8946 45.152 38.4539 44.8453 37.9311 44.8453C37.7516 44.8453 37.582 44.884 37.4255 44.9478C37.1633 44.5469 36.732 44.2664 36.2175 44.2664C36.0479 44.2664 35.8919 44.3104 35.7402 44.3627C35.4523 43.9775 35.0142 43.7116 34.4961 43.7116C33.6236 43.7116 32.9159 44.4182 32.9159 45.2912C32.9159 46.1632 33.6236 46.8708 34.4961 46.8708ZM35.7334 43.8969C35.9202 43.8969 36.094 43.8508 36.2599 43.7912C36.5242 44.1408 36.9241 44.3826 37.3967 44.3826C37.5935 44.3826 37.7809 44.3418 37.952 44.2706C38.1902 44.6349 38.5817 44.8903 39.0496 44.8903C39.2448 44.8903 39.4275 44.8432 39.5944 44.7678C39.7949 45.1708 40.2005 45.4545 40.681 45.4545C40.8155 45.4545 40.9395 45.4178 41.0604 45.3781C41.1164 45.9433 41.577 46.3893 42.1564 46.3893C42.6505 46.3893 43.0556 46.0637 43.2032 45.6188C43.3539 45.9653 43.6983 46.2092 44.1008 46.2092C44.6415 46.2092 45.0801 45.7706 45.0801 45.2294C45.0801 44.6882 44.6415 44.2496 44.1008 44.2496C43.6863 44.2496 43.3356 44.5092 43.1927 44.8735C43.032 44.4548 42.6322 44.1544 42.1564 44.1544C42.0659 44.1544 41.9847 44.1858 41.9005 44.2057C41.8869 43.542 41.3488 43.0061 40.681 43.0061C40.5417 43.0061 40.4135 43.0427 40.2889 43.0856C40.0979 42.5821 39.6195 42.221 39.0496 42.221C38.9182 42.221 38.7989 42.2608 38.6785 42.2963C38.4409 41.8222 37.963 41.4882 37.3967 41.4882C37.2727 41.4882 37.1617 41.5291 37.0465 41.5594C36.7749 41.1051 36.3002 40.7869 35.7334 40.7869C34.875 40.7869 34.1784 41.483 34.1784 42.3424C34.1784 43.2008 34.875 43.8969 35.7334 43.8969ZM36.9712 40.924C37.1109 40.924 37.236 40.879 37.3648 40.8445C37.6123 41.2663 38.0515 41.5636 38.5764 41.5636C38.7235 41.5636 38.857 41.5217 38.9904 41.4799C39.2029 41.9216 39.6457 42.2315 40.1686 42.2315C40.324 42.2315 40.4679 42.1927 40.6066 42.1435C40.771 42.6167 41.2085 42.9611 41.7382 42.9611C41.8518 42.9611 41.9539 42.9255 42.0585 42.8962C42.0575 42.9119 42.0496 42.9244 42.0496 42.9391C42.0496 43.5514 42.5453 44.0476 43.1577 44.0476C43.5821 44.0476 43.9391 43.8006 44.1249 43.4499C44.2725 43.8079 44.6231 44.0602 45.034 44.0602C45.5778 44.0602 46.019 43.6195 46.019 43.0752C46.019 42.5319 45.5778 42.0901 45.034 42.0901C44.6703 42.0901 44.3656 42.2974 44.195 42.5905C44.0474 42.1519 43.646 41.8316 43.1577 41.8316C43.0744 41.8316 43.0012 41.8609 42.9232 41.8787C42.9284 41.8347 42.9493 41.796 42.9493 41.7499C42.9493 41.081 42.4071 40.5388 41.7382 40.5388C41.6262 40.5388 41.5257 40.5744 41.4231 40.6027C41.2797 40.0301 40.7857 39.5967 40.1686 39.5967C40.0749 39.5967 39.9922 39.6312 39.9037 39.6501C39.7033 39.1047 39.1909 38.7111 38.5764 38.7111C38.4974 38.7111 38.4288 38.7436 38.3535 38.7561C38.1106 38.2317 37.5872 37.8632 36.9712 37.8632C36.1264 37.8632 35.4413 38.5478 35.4413 39.3936C35.4413 40.2384 36.1264 40.924 36.9712 40.924ZM38.209 37.9501C38.3011 37.9501 38.3812 37.9135 38.4691 37.8978C38.6848 38.395 39.1783 38.7446 39.7556 38.7446C39.8671 38.7446 39.966 38.7059 40.0697 38.6808C40.2429 39.1958 40.7145 39.5726 41.2876 39.5726C41.4137 39.5726 41.5283 39.5339 41.644 39.5004C41.755 40.0479 42.2155 40.4676 42.7949 40.4676C42.9033 40.4676 43.0006 40.4331 43.1006 40.4059C43.0875 40.4739 43.0598 40.5367 43.0598 40.6079C43.0598 41.214 43.5518 41.707 44.1589 41.707C44.5295 41.707 44.8414 41.5113 45.0403 41.2297C45.1717 41.6233 45.5307 41.9111 45.9677 41.9111C46.5141 41.9111 46.9575 41.4673 46.9575 40.9209C46.9575 40.3745 46.5141 39.9306 45.9677 39.9306C45.6506 39.9306 45.381 40.0897 45.1999 40.3211C45.0717 39.8563 44.6645 39.5077 44.1589 39.5077C44.0799 39.5077 44.0103 39.537 43.9354 39.5527C43.959 39.4596 43.993 39.3696 43.993 39.2691C43.993 38.6075 43.457 38.0715 42.7949 38.0715C42.7107 38.0715 42.6363 38.103 42.5568 38.1197C42.4772 37.477 41.9512 36.9735 41.2876 36.9735C41.219 36.9735 41.1604 37.0017 41.0944 37.0122C40.9442 36.3988 40.4161 35.934 39.7556 35.934C39.7064 35.934 39.6651 35.9571 39.6174 35.9623C39.4144 35.3709 38.8695 34.9396 38.209 34.9396C37.3779 34.9396 36.7037 35.6127 36.7037 36.4448C36.7037 37.276 37.3779 37.9501 38.209 37.9501ZM39.4468 34.9762C39.5122 34.9762 39.5682 34.9469 39.631 34.9385C39.8048 35.5048 40.312 35.9246 40.9353 35.9246C41.0196 35.9246 41.0924 35.8911 41.173 35.8764C41.2907 36.4637 41.7848 36.9149 42.4061 36.9149C42.5039 36.9149 42.5903 36.8803 42.6814 36.8594C42.7201 37.4791 43.2231 37.9732 43.8522 37.9732C43.9553 37.9732 44.0474 37.9397 44.1427 37.9145C44.1029 38.0276 44.0704 38.1459 44.0704 38.2725C44.0704 38.8744 44.5588 39.3633 45.1607 39.3633C45.5883 39.3633 45.9499 39.111 46.1284 38.752C46.1227 38.7938 46.1033 38.8315 46.1033 38.8755C46.1033 39.425 46.5487 39.8699 47.0983 39.8699C47.6478 39.8699 48.0932 39.425 48.0932 38.8755C48.0932 38.3259 47.6478 37.88 47.0983 37.88C46.7099 37.88 46.3823 38.1092 46.2184 38.4337C46.2268 38.3783 46.2509 38.3291 46.2509 38.2725C46.2509 37.6706 45.7631 37.1828 45.1607 37.1828C45.0858 37.1828 45.0199 37.2111 44.9487 37.2257C45.0031 37.0897 45.0372 36.9431 45.0372 36.7882C45.0372 36.134 44.5064 35.6032 43.8522 35.6032C43.7941 35.6032 43.7439 35.6284 43.6879 35.6367C43.6879 35.6346 43.6889 35.6336 43.6889 35.6315C43.6889 34.9228 43.1147 34.3492 42.4061 34.3492C42.3632 34.3492 42.327 34.3691 42.2857 34.3733C42.1993 33.6918 41.6403 33.1569 40.9353 33.1569C40.9092 33.1569 40.8877 33.1705 40.8621 33.1716C40.7103 32.5152 40.1492 32.0149 39.4468 32.0149C38.6288 32.0149 37.9662 32.6785 37.9662 33.4961C37.9662 34.3136 38.6288 34.9762 39.4468 34.9762ZM40.7066 32.0128C40.7647 32.0128 40.8144 31.9866 40.8704 31.9793C40.9704 32.6377 41.5132 33.1506 42.1993 33.1506C42.2867 33.1506 42.3631 33.1161 42.4464 33.1004C42.4547 33.7986 43.02 34.3628 43.7198 34.3628C43.8616 34.3628 43.9919 34.3251 44.1196 34.2822C44.105 34.3565 44.0746 34.4256 44.0746 34.5052C44.0746 35.1615 44.6074 35.6943 45.2638 35.6943C45.46 35.6943 45.6375 35.6346 45.8008 35.5509C45.6479 35.7404 45.5433 35.9717 45.5433 36.2334C45.5433 36.8437 46.0373 37.3378 46.6466 37.3378C47.2563 37.3378 47.7504 36.8437 47.7504 36.2334C47.7504 35.6242 47.2563 35.1301 46.6466 35.1301C46.4739 35.1301 46.3158 35.1772 46.1703 35.2484C46.3388 35.0432 46.4529 34.7909 46.4529 34.5052C46.4529 33.8488 45.9206 33.316 45.2638 33.316C45.1476 33.316 45.0429 33.3506 44.9372 33.382C44.9613 33.2846 44.9968 33.1904 44.9968 33.0857C44.9968 32.3802 44.4248 31.8087 43.7198 31.8087C43.6617 31.8087 43.612 31.8338 43.556 31.8422C43.5565 31.8202 43.568 31.8034 43.568 31.7814C43.568 31.0257 42.9551 30.4133 42.1993 30.4133C42.1768 30.4133 42.1585 30.4248 42.136 30.4259C42.0669 29.6868 41.464 29.1006 40.7066 29.1006C39.9027 29.1006 39.2505 29.7528 39.2505 30.5567C39.2505 31.3606 39.9027 32.0128 40.7066 32.0128ZM42.5243 29.3686C42.6217 29.3686 42.7075 29.332 42.7997 29.3131C42.7944 29.3602 42.7719 29.4011 42.7719 29.4492C42.7719 30.1998 43.3806 30.809 44.1322 30.809C44.2803 30.809 44.4159 30.7682 44.5499 30.7252C44.5138 30.8435 44.4755 30.9618 44.4755 31.0916C44.4755 31.8024 45.0513 32.3781 45.7615 32.3781C46.0499 32.3781 46.3032 32.2651 46.5178 32.1049C46.3263 32.3195 46.2012 32.5958 46.2012 32.9067C46.2012 33.5798 46.7465 34.1252 47.4196 34.1252C48.0927 34.1252 48.6381 33.5798 48.6381 32.9067C48.6381 32.2337 48.0927 31.6883 47.4196 31.6883C47.1496 31.6883 46.913 31.793 46.711 31.9416C46.9146 31.7145 47.0475 31.4214 47.0475 31.0916C47.0475 30.3819 46.4718 29.8062 45.7615 29.8062C45.6354 29.8062 45.5213 29.8439 45.4061 29.8773C45.4522 29.7413 45.4925 29.601 45.4925 29.4492C45.4925 28.6976 44.8833 28.0884 44.1322 28.0884C44.0558 28.0884 43.9893 28.1198 43.916 28.1324C43.9255 28.0654 43.9553 28.0068 43.9553 27.9377C43.9553 27.1473 43.3147 26.5067 42.5244 26.5067C41.734 26.5067 41.0929 27.1473 41.0929 27.9377C41.0929 28.728 41.734 29.3686 42.5243 29.3686ZM45.0052 27.3431C45.1659 27.3431 45.3145 27.3012 45.4585 27.252C45.3789 27.4237 45.3276 27.6121 45.3276 27.8141C45.3276 28.5615 45.9332 29.1666 46.6801 29.1666C47.4269 29.1666 48.032 28.5615 48.032 27.8141C48.032 27.0678 47.4269 26.4617 46.6801 26.4617C46.5304 26.4617 46.3927 26.5025 46.2582 26.5465C46.3498 26.3602 46.4116 26.1581 46.4116 25.9362C46.4116 25.1595 45.7819 24.5304 45.0052 24.5304C44.2285 24.5304 43.5989 25.1595 43.5989 25.9362C43.5989 26.7129 44.2285 27.3431 45.0052 27.3431ZM47.9451 26.0911C48.7082 26.0911 49.3269 25.4725 49.3269 24.7094C49.3269 23.9463 48.7082 23.3276 47.9451 23.3276C47.182 23.3276 46.5634 23.9463 46.5634 24.7094C46.5634 25.4725 47.182 26.0911 47.9451 26.0911ZM51.1137 25.7133C51.8632 25.7133 52.4709 25.1061 52.4709 24.3566C52.4709 23.6071 51.8632 23 51.1137 23C50.3642 23 49.7571 23.6071 49.7571 24.3566C49.7571 25.1061 50.3642 25.7133 51.1137 25.7133ZM54.253 26.2419C54.9884 26.2419 55.585 25.6452 55.585 24.9093C55.585 24.1734 54.9884 23.5768 54.253 23.5768C53.5171 23.5768 52.9205 24.1734 52.9205 24.9093C52.9205 25.6452 53.5171 26.2419 54.253 26.2419ZM58.2391 28.8484C58.1141 28.8096 57.9874 28.7699 57.8487 28.7699C57.1201 28.7699 56.5292 29.3613 56.5292 30.0898C56.5292 30.272 56.5664 30.4458 56.6334 30.6038C56.5397 30.5829 56.4518 30.5473 56.3518 30.5473C55.6217 30.5473 55.0297 31.1387 55.0297 31.8694C55.0297 32.1457 55.1339 32.3875 55.2789 32.599C55.1941 32.5822 55.115 32.5477 55.025 32.5477C54.3038 32.5477 53.7192 33.1328 53.7192 33.8541C53.7192 34.1807 53.851 34.4706 54.0494 34.6999C53.9374 34.6664 53.8254 34.6297 53.7024 34.6297C53.0115 34.6297 52.4515 35.1898 52.4515 35.8806C52.4515 36.5715 53.0115 37.1315 53.7024 37.1315C54.3933 37.1315 54.9528 36.5715 54.9528 35.8806C54.9528 35.5729 54.8293 35.3007 54.645 35.083C54.7675 35.1207 54.89 35.1594 55.025 35.1594C55.7457 35.1594 56.3303 34.5743 56.3303 33.8541C56.3303 33.583 56.2283 33.3453 56.0875 33.137C56.1754 33.1559 56.2581 33.1904 56.3518 33.1904C57.0814 33.1904 57.6734 32.599 57.6734 31.8694C57.6734 31.6862 57.6357 31.5114 57.5676 31.3523C57.6613 31.3732 57.7492 31.4088 57.8487 31.4088C58.5773 31.4088 59.1682 30.8184 59.1682 30.0899C59.1682 29.9496 59.1289 29.8219 59.0886 29.6952C59.2048 29.7298 59.3205 29.7675 59.4482 29.7675C60.1569 29.7675 60.731 29.1938 60.731 28.4851C60.731 27.7765 60.1569 27.2028 59.4482 27.2028C58.74 27.2028 58.1659 27.7765 58.1659 28.4851C58.1659 28.6139 58.2041 28.7311 58.2391 28.8484ZM71.2627 57.7175C71.2627 58.2807 71.7191 58.7371 72.2817 58.7371C72.8443 58.7371 73.3007 58.2807 73.3007 57.7175C73.3007 57.1554 72.8443 56.699 72.2817 56.699C71.7191 56.699 71.2627 57.1554 71.2627 57.7175ZM72.545 60.6632C72.545 61.2043 72.9841 61.644 73.5258 61.644C74.0675 61.644 74.5066 61.2043 74.5066 60.6632C74.5066 60.1209 74.0675 59.6823 73.5258 59.6823C72.9841 59.6823 72.545 60.1209 72.545 60.6632ZM73.8273 63.6077C73.8273 64.129 74.2491 64.5509 74.7699 64.5509C75.2901 64.5509 75.712 64.129 75.712 63.6077C75.712 63.0875 75.2901 62.6656 74.7699 62.6656C74.2491 62.6656 73.8273 63.0875 73.8273 63.6077ZM75.0473 66.5785C75.0473 67.0778 75.4524 67.4829 75.9512 67.4829C76.4505 67.4829 76.8556 67.0778 76.8556 66.5785C76.8556 66.0792 76.4505 65.6751 75.9512 65.6751C75.4524 65.6751 75.0473 66.0792 75.0473 66.5785ZM76.0506 68.8825C75.5728 68.8825 75.1849 69.2698 75.1849 69.7482C75.1849 70.2265 75.5728 70.6138 76.0506 70.6138C76.5285 70.6138 76.9163 70.2265 76.9163 69.7482C76.9163 69.2698 76.5285 68.8825 76.0506 68.8825ZM74.7322 71.8051C74.2753 71.8051 73.9047 72.1756 73.9047 72.632C73.9047 73.0895 74.2753 73.46 74.7322 73.46C75.1891 73.46 75.5592 73.0895 75.5592 72.632C75.5592 72.1756 75.1891 71.8051 74.7322 71.8051ZM72.4989 74.0588C72.0634 74.0588 71.7101 74.4126 71.7101 74.8481C71.7101 75.2835 72.0634 75.6363 72.4989 75.6363C72.9349 75.6363 73.2877 75.2835 73.2877 74.8481C73.2877 74.4126 72.9349 74.0588 72.4989 74.0588ZM69.9798 74.7162C69.4712 74.7162 69.0597 75.1289 69.0597 75.6375C69.0597 76.1437 69.4712 76.5564 69.9798 76.5564C70.4884 76.5564 70.8999 76.1437 70.8999 75.6375C70.8999 75.1289 70.4884 74.7162 69.9798 74.7162ZM48.2628 27.028C48.2628 27.7702 48.8647 28.371 49.6069 28.371C50.349 28.371 50.9509 27.7702 50.9509 27.028C50.9509 26.2848 50.349 25.6839 49.6069 25.6839C48.8647 25.6839 48.2628 26.2848 48.2628 27.028ZM51.2958 27.1672C51.2958 27.9052 51.8941 28.5029 52.6315 28.5029C53.3695 28.5029 53.9672 27.9052 53.9672 27.1672C53.9672 26.4293 53.3695 25.8315 52.6315 25.8315C51.8941 25.8315 51.2958 26.4293 51.2958 27.1672ZM55.4683 26.894C54.735 26.894 54.1405 27.4886 54.1405 28.2213C54.1405 28.5574 54.276 28.8567 54.4823 29.0902C54.3237 29.0232 54.1499 28.9844 53.9667 28.9844C53.2418 28.9844 52.6541 29.5717 52.6541 30.2971C52.6541 31.0215 53.2418 31.6098 53.9667 31.6098C54.6916 31.6098 55.2794 31.0215 55.2794 30.2971C55.2794 29.9653 55.1454 29.6701 54.9423 29.4398C55.1041 29.5089 55.281 29.5497 55.4683 29.5497C56.2016 29.5497 56.7962 28.9551 56.7962 28.2213C56.7962 27.9481 56.6936 27.7084 56.5523 27.498C56.7218 27.5786 56.9071 27.632 57.1076 27.632C57.8299 27.632 58.415 27.0458 58.415 26.3246C58.415 25.6023 57.8299 25.0172 57.1076 25.0172C56.3853 25.0172 55.8002 25.6023 55.8002 26.3246C55.8002 26.5926 55.9001 26.827 56.0383 27.0343C55.864 26.9506 55.675 26.894 55.4683 26.894ZM71.3218 59.5473C70.7618 59.5473 70.3075 60.0016 70.3075 60.5616C70.3075 61.1216 70.7618 61.5759 71.3218 61.5759C71.8823 61.5759 72.3367 61.1216 72.3367 60.5616C72.3367 60.0016 71.8823 59.5473 71.3218 59.5473ZM73.4698 63.3597C73.4698 62.8237 73.0354 62.3893 72.4989 62.3893C71.9624 62.3893 71.528 62.8237 71.528 63.3597C71.528 63.8967 71.9624 64.3311 72.4989 64.3311C73.0354 64.3311 73.4698 63.8967 73.4698 63.3597ZM74.6035 66.1587C74.6035 65.6458 74.1879 65.2303 73.6755 65.2303C73.1636 65.2303 72.748 65.6458 72.748 66.1587C72.748 66.6706 73.1636 67.0862 73.6755 67.0862C74.1879 67.0862 74.6035 66.6706 74.6035 66.1587ZM74.4103 69.9743C74.8986 69.9743 75.2943 69.5786 75.2943 69.0908C75.2943 68.6019 74.8986 68.2063 74.4103 68.2063C73.922 68.2063 73.5263 68.6019 73.5263 69.0908C73.5263 69.5786 73.922 69.9743 74.4103 69.9743ZM49.6472 29.8868C49.6472 29.1718 49.0673 28.5919 48.3523 28.5919C47.6368 28.5919 47.0574 29.1718 47.0574 29.8868C47.0574 30.6017 47.6368 31.1816 48.3523 31.1816C49.0673 31.1816 49.6472 30.6017 49.6472 29.8868ZM51.1948 28.3072C50.4746 28.3072 49.8911 28.8913 49.8911 29.6115C49.8911 30.3306 50.4746 30.9147 51.1948 30.9147C51.915 30.9147 52.4986 30.3306 52.4986 29.6115C52.4986 28.8913 51.915 28.3072 51.1948 28.3072ZM69.2863 63.2309C69.2863 63.7815 69.7323 64.2274 70.2823 64.2274C70.8324 64.2274 71.2784 63.7815 71.2784 63.2309C71.2784 62.6813 70.8324 62.2354 70.2823 62.2354C69.7323 62.2354 69.2863 62.6813 69.2863 63.2309ZM70.4415 65.8772C70.4415 66.4005 70.8659 66.8245 71.3898 66.8245C71.9132 66.8245 72.3377 66.4006 72.3377 65.8772C72.3377 65.3527 71.9132 64.9288 71.3898 64.9288C70.8659 64.9288 70.4415 65.3527 70.4415 65.8772ZM73.3101 68.5559C73.3101 68.0587 72.9071 67.6556 72.4099 67.6556C71.9127 67.6556 71.5097 68.0587 71.5097 68.5559C71.5097 69.0531 71.9127 69.4561 72.4099 69.4561C72.9071 69.4561 73.3101 69.0531 73.3101 68.5559ZM73.262 70.618C72.7915 70.618 72.4099 70.9991 72.4099 71.4701C72.4099 71.9401 72.7915 72.3222 73.262 72.3222C73.7331 72.3222 74.1146 71.9401 74.1146 71.4701C74.1146 70.9991 73.7331 70.618 73.262 70.618ZM51.5287 68.761C52.0343 68.761 52.4457 68.3507 52.4457 67.8441C52.4457 67.3374 52.0343 66.9271 51.5287 66.9271C51.0221 66.9271 50.6118 67.3374 50.6118 67.8441C50.6118 68.3507 51.0221 68.761 51.5287 68.761ZM49.2196 69.0091C49.7932 69.0091 50.258 68.5444 50.258 67.9707C50.258 67.3971 49.7932 66.9323 49.2196 66.9323C48.6464 66.9323 48.1811 67.3971 48.1811 67.9707C48.1811 68.5444 48.6464 69.0091 49.2196 69.0091ZM50.0093 33.472C50.6987 33.472 51.2571 32.913 51.2571 32.2232C51.2571 31.5344 50.6987 30.9754 50.0093 30.9754C49.32 30.9754 48.7611 31.5344 48.7611 32.2232C48.7611 32.913 49.32 33.472 50.0093 33.472ZM53.9557 32.554C53.9557 31.8484 53.3836 31.2758 52.6781 31.2758C51.9726 31.2758 51.4005 31.8484 51.4005 32.554C51.4005 33.2595 51.9726 33.831 52.6781 33.831C53.3836 33.831 53.9557 33.2595 53.9557 32.554ZM68.1501 62.2741C67.5864 62.2741 67.1289 62.7305 67.1289 63.2948C67.1289 63.859 67.5864 64.3154 68.1501 64.3154C68.7137 64.3154 69.1712 63.859 69.1712 63.2948C69.1712 62.7305 68.7137 62.2741 68.1501 62.2741ZM68.2181 65.783C68.2181 66.3179 68.6515 66.7512 69.1864 66.7512C69.7213 66.7512 70.1546 66.3179 70.1546 65.783C70.1546 65.2481 69.7213 64.8147 69.1864 64.8147C68.6515 64.8147 68.2181 65.2481 68.2181 65.783ZM71.1386 68.2733C71.1386 67.7677 70.7288 67.3573 70.2232 67.3573C69.7176 67.3573 69.3078 67.7677 69.3078 68.2733C69.3078 68.7788 69.7176 69.1892 70.2232 69.1892C70.7288 69.1892 71.1386 68.7788 71.1386 68.2733ZM71.5097 71.6711C71.9865 71.6711 72.3728 71.2848 72.3728 70.8086C72.3728 70.3312 71.9865 69.945 71.5097 69.945C71.0334 69.945 70.6466 70.3312 70.6466 70.8086C70.6466 71.2848 71.0334 71.6711 71.5097 71.6711ZM72.5204 73.2481C72.5204 72.8001 72.1576 72.4368 71.7101 72.4368C71.2626 72.4368 70.8999 72.8001 70.8999 73.2481C70.8999 73.6951 71.2626 74.0583 71.7101 74.0583C72.1576 74.0583 72.5204 73.695 72.5204 73.2481ZM51.0373 65.8824C51.0373 65.3465 50.6023 64.912 50.0664 64.912C49.5304 64.912 49.0955 65.3465 49.0955 65.8824C49.0955 66.4184 49.5304 66.8528 50.0664 66.8528C50.6023 66.8528 51.0373 66.4184 51.0373 65.8824ZM36.8325 67.2537C37.5029 67.2537 38.0467 66.7104 38.0467 66.0394C38.0467 65.3695 37.5029 64.8251 36.8325 64.8251C36.162 64.8251 35.6182 65.3695 35.6182 66.0394C35.6182 66.7104 36.162 67.2537 36.8325 67.2537ZM36.4734 64.0997C36.4734 63.4267 35.9275 62.8802 35.2539 62.8802C34.5803 62.8802 34.0339 63.4267 34.0339 64.0997C34.0339 64.7739 34.5803 65.3192 35.2539 65.3192C35.9275 65.3192 36.4734 64.7739 36.4734 64.0997ZM47.6986 35.039C47.6986 35.6755 48.2146 36.1926 48.8516 36.1926C49.488 36.1926 50.0041 35.6755 50.0041 35.039C50.0041 34.4026 49.488 33.8865 48.8516 33.8865C48.2146 33.8865 47.6986 34.4026 47.6986 35.039ZM50.1742 34.9092C50.1742 35.5729 50.7123 36.1109 51.3759 36.1109C52.0396 36.1109 52.5776 35.5729 52.5776 34.9092C52.5776 34.2456 52.0396 33.7075 51.3759 33.7075C50.7123 33.7075 50.1742 34.2456 50.1742 34.9092ZM66.079 65.8824C66.079 66.4278 66.5213 66.8706 67.0672 66.8706C67.6125 66.8706 68.0553 66.4278 68.0553 65.8824C68.0553 65.336 67.6125 64.8942 67.0672 64.8942C66.5213 64.8942 66.079 65.336 66.079 65.8824ZM68.9686 68.2262C68.9686 67.7122 68.552 67.2956 68.038 67.2956C67.5241 67.2956 67.1075 67.7122 67.1075 68.2262C67.1075 68.7401 67.5241 69.1567 68.038 69.1567C68.552 69.1567 68.9686 68.7401 68.9686 68.2262ZM69.5826 69.61C69.101 69.61 68.7095 70.0004 68.7095 70.483C68.7095 70.9645 69.101 71.356 69.5826 71.356C70.0651 71.356 70.4556 70.9645 70.4556 70.483C70.4556 70.0004 70.0651 69.61 69.5826 69.61ZM69.8534 71.8176C69.4033 71.8176 69.038 72.1819 69.038 72.632C69.038 73.0822 69.4033 73.4485 69.8534 73.4485C70.3035 73.4485 70.6683 73.0821 70.6683 72.632C70.6683 72.1819 70.3035 71.8176 69.8534 71.8176ZM53.3795 66.3828C53.3795 65.9347 53.0162 65.5715 52.5682 65.5715C52.1191 65.5715 51.7559 65.9347 51.7559 66.3828C51.7559 66.8308 52.1191 67.194 52.5682 67.194C53.0162 67.194 53.3795 66.8308 53.3795 66.3828ZM50.662 64.463C50.662 64.9424 51.0504 65.3297 51.5287 65.3297C52.0071 65.3297 52.3955 64.9424 52.3955 64.463C52.3955 63.9835 52.0071 63.5962 51.5287 63.5962C51.0504 63.5962 50.662 63.9835 50.662 64.463ZM48.435 65.5715C48.9437 65.5715 49.3561 65.158 49.3561 64.6493C49.3561 64.1406 48.9437 63.7281 48.435 63.7281C47.9257 63.7281 47.5133 64.1406 47.5133 64.6493C47.5133 65.158 47.9257 65.5715 48.435 65.5715ZM46.086 65.5893C46.6256 65.5893 47.0627 65.1518 47.0627 64.6127C47.0627 64.0736 46.6256 63.636 46.086 63.636C45.5469 63.636 45.1094 64.0736 45.1094 64.6127C45.1094 65.1518 45.5469 65.5893 46.086 65.5893ZM39.0804 65.3527C39.6593 65.3527 40.1288 64.8827 40.1288 64.3039C40.1288 63.725 39.6593 63.255 39.0804 63.255C38.501 63.255 38.0316 63.725 38.0316 64.3039C38.0316 64.8827 38.501 65.3527 39.0804 65.3527ZM38.5843 62.6029C38.5843 62.0261 38.1163 61.5582 37.5396 61.5582C36.9628 61.5582 36.4949 62.0261 36.4949 62.6029C36.4949 63.1796 36.9628 63.6475 37.5396 63.6475C38.1163 63.6475 38.5843 63.1796 38.5843 62.6029ZM43.2215 49.539C43.2215 48.9926 42.7792 48.5509 42.2339 48.5509C41.688 48.5509 41.2457 48.9926 41.2457 49.539C41.2457 50.0844 41.688 50.5261 42.2339 50.5261C42.7792 50.5261 43.2215 50.0844 43.2215 49.539ZM49.0536 38.685C49.6362 38.685 50.1088 38.2129 50.1088 37.6298C50.1088 37.0478 49.6362 36.5747 49.0536 36.5747C48.4711 36.5747 47.9985 37.0478 47.9985 37.6298C47.9985 38.2129 48.4711 38.685 49.0536 38.685ZM51.3749 36.4543C50.7546 36.4543 50.2522 36.9567 50.2522 37.5764C50.2522 38.1972 50.7546 38.6996 51.3749 38.6996C51.9951 38.6996 52.4975 38.1972 52.4975 37.5764C52.4975 36.9567 51.9951 36.4543 51.3749 36.4543ZM65.2876 65.7966C64.7344 65.7966 64.2859 66.2446 64.2859 66.7984C64.2859 67.3511 64.7344 67.8001 65.2876 67.8001C65.8408 67.8001 66.2894 67.3511 66.2894 66.7984C66.2894 66.2446 65.8408 65.7966 65.2876 65.7966ZM66.1816 69.9094C66.7013 69.9094 67.1221 69.4886 67.1221 68.9694C67.1221 68.4491 66.7013 68.0283 66.1816 68.0283C65.6624 68.0283 65.2416 68.4491 65.2416 68.9694C65.2416 69.4886 65.6624 69.9094 66.1816 69.9094ZM68.5018 70.9834C68.5018 70.4977 68.1082 70.1041 67.6225 70.1041C67.1373 70.1041 66.7437 70.4977 66.7437 70.9834C66.7437 71.4691 67.1373 71.8627 67.6225 71.8627C68.1082 71.8627 68.5018 71.4691 68.5018 70.9834ZM68.0375 72.6321C67.5863 72.6321 67.22 72.9984 67.22 73.4507C67.22 73.9029 67.5863 74.2692 68.0375 74.2692C68.4897 74.2692 68.8561 73.9029 68.8561 73.4507C68.8561 72.9984 68.4897 72.6321 68.0375 72.6321ZM50.1946 62.2082C49.7293 62.2082 49.352 62.5861 49.352 63.0509C49.352 63.5167 49.7293 63.8935 50.1946 63.8935C50.6599 63.8935 51.0373 63.5167 51.0373 63.0509C51.0373 62.5861 50.6599 62.2082 50.1946 62.2082ZM48.0487 63.502C48.5302 63.502 48.9207 63.1116 48.9207 62.6301C48.9207 62.1475 48.5302 61.7571 48.0487 61.7571C47.5667 61.7571 47.1762 62.1475 47.1762 62.6301C47.1762 63.1116 47.5667 63.502 48.0487 63.502ZM45.851 63.5062C46.3487 63.5062 46.7528 63.1032 46.7528 62.605C46.7528 62.1067 46.3487 61.7026 45.851 61.7026C45.3527 61.7026 44.9492 62.1067 44.9492 62.605C44.9492 63.1032 45.3527 63.5062 45.851 63.5062ZM43.659 63.5219C44.1615 63.5219 44.5692 63.1147 44.5692 62.6123C44.5692 62.1098 44.1615 61.7016 43.659 61.7016C43.1561 61.7016 42.7483 62.1098 42.7483 62.6123C42.7483 63.1147 43.1561 63.5219 43.659 63.5219ZM41.4718 63.4623C41.9748 63.4623 42.3825 63.0551 42.3825 62.5516C42.3825 62.0491 41.9748 61.6419 41.4718 61.6419C40.9688 61.6419 40.5616 62.0491 40.5616 62.5516C40.5616 63.0551 40.9688 63.4623 41.4718 63.4623ZM40.7684 61.1845C40.7684 60.681 40.3606 60.2738 39.8577 60.2738C39.3547 60.2738 38.947 60.681 38.947 61.1845C38.947 61.6869 39.3547 62.0952 39.8577 62.0952C40.3606 62.0952 40.7684 61.6869 40.7684 61.1845ZM43.4868 51.9267C43.9736 51.9267 44.3688 51.5321 44.3688 51.0454C44.3688 50.5576 43.9736 50.1629 43.4868 50.1629C42.9996 50.1629 42.6049 50.5576 42.6049 51.0454C42.6049 51.5321 42.9996 51.9267 43.4868 51.9267ZM43.4963 49.0397C43.4963 49.5202 43.8857 49.9096 44.3661 49.9096C44.8466 49.9096 45.2365 49.5202 45.2365 49.0397C45.2365 48.5593 44.8466 48.1698 44.3661 48.1698C43.8857 48.1698 43.4963 48.5593 43.4963 49.0397ZM44.3777 47.0341C44.3777 47.5135 44.766 47.9019 45.246 47.9019C45.7254 47.9019 46.1143 47.5135 46.1143 47.0341C46.1143 46.5547 45.7254 46.1653 45.246 46.1653C44.766 46.1653 44.3777 46.5547 44.3777 47.0341ZM45.2454 45.0285C45.2454 45.5142 45.6395 45.9078 46.1253 45.9078C46.611 45.9078 47.0051 45.5142 47.0051 45.0285C47.0051 44.5417 46.611 44.1481 46.1253 44.1481C45.6395 44.1481 45.2454 44.5417 45.2454 45.0285ZM46.1137 43.0228C46.1137 43.5148 46.5126 43.9136 47.0051 43.9136C47.4971 43.9136 47.8959 43.5148 47.8959 43.0228C47.8959 42.5298 47.4971 42.131 47.0051 42.131C46.5126 42.131 46.1137 42.5298 46.1137 43.0228ZM47.0993 41.0769C47.0993 41.5751 47.5033 41.9792 48.0021 41.9792C48.5004 41.9792 48.9045 41.5751 48.9045 41.0769C48.9045 40.5786 48.5004 40.1745 48.0021 40.1745C47.5033 40.1745 47.0993 40.5786 47.0993 41.0769ZM50.8394 40.0793C50.8394 39.559 50.4181 39.1382 49.8978 39.1382C49.3776 39.1382 48.9563 39.559 48.9563 40.0793C48.9563 40.5995 49.3776 41.0214 49.8978 41.0214C50.4181 41.0214 50.8394 40.5995 50.8394 40.0793ZM52.9974 40.6383C52.9974 40.0709 52.5373 39.6103 51.9694 39.6103C51.4015 39.6103 50.9415 40.0709 50.9415 40.6383C50.9415 41.2067 51.4015 41.6662 51.9694 41.6662C52.5373 41.6662 52.9974 41.2067 52.9974 40.6383ZM65.3211 72.3641C65.3211 72.8519 65.7168 73.2476 66.2046 73.2476C66.6924 73.2476 67.0881 72.8519 67.0881 72.3641C67.0881 71.8763 66.6924 71.4806 66.2046 71.4806C65.7168 71.4806 65.3211 71.8763 65.3211 72.3641ZM54.0096 66.3304C54.411 66.3304 54.7366 66.0049 54.7366 65.6029C54.7366 65.202 54.411 64.8765 54.0096 64.8765C53.6082 64.8765 53.2826 65.202 53.2826 65.6029C53.2826 66.0049 53.6082 66.3304 54.0096 66.3304ZM53.1481 63.0551C52.7598 63.0551 52.4441 63.3702 52.4441 63.7585C52.4441 64.1479 52.7598 64.463 53.1481 64.463C53.537 64.463 53.8521 64.1479 53.8521 63.7585C53.8521 63.3702 53.537 63.0551 53.1481 63.0551ZM51.7957 61.5582C51.4199 61.5582 51.1153 61.8628 51.1153 62.2386C51.1153 62.6144 51.4199 62.919 51.7957 62.919C52.1715 62.919 52.4766 62.6144 52.4766 62.2386C52.4766 61.8628 52.1715 61.5582 51.7957 61.5582ZM50.0664 61.8241C50.4291 61.8241 50.7238 61.5299 50.7238 61.1667C50.7238 60.8034 50.4291 60.5093 50.0664 60.5093C49.7031 60.5093 49.409 60.8034 49.409 61.1667C49.409 61.5299 49.7031 61.8241 50.0664 61.8241ZM48.1016 61.2902C48.4622 61.2902 48.7542 60.9981 48.7542 60.637C48.7542 60.2769 48.4622 59.9849 48.1016 59.9849C47.7415 59.9849 47.4494 60.2769 47.4494 60.637C47.4494 60.9981 47.7415 61.2902 48.1016 61.2902ZM45.4061 60.5951C45.4061 60.9563 45.6992 61.2494 46.0604 61.2494C46.4215 61.2494 46.7146 60.9563 46.7146 60.5951C46.7146 60.234 46.4215 59.9409 46.0604 59.9409C45.6992 59.9409 45.4061 60.234 45.4061 60.5951ZM44.0181 59.9503C43.6559 59.9503 43.3623 60.2445 43.3623 60.6066C43.3623 60.9688 43.6559 61.263 44.0181 61.263C44.3803 61.263 44.6739 60.9688 44.6739 60.6066C44.6739 60.2445 44.3803 59.9503 44.0181 59.9503ZM42.8965 59.8592C42.8965 59.496 42.6023 59.2008 42.2391 59.2008C41.8758 59.2008 41.5812 59.496 41.5812 59.8592C41.5812 60.2225 41.8758 60.5166 42.2391 60.5166C42.6023 60.5166 42.8965 60.2225 42.8965 59.8592ZM41.6728 57.9217C41.6728 58.2859 41.968 58.5811 42.3322 58.5811C42.6965 58.5811 42.9917 58.2859 42.9917 57.9217C42.9917 57.5574 42.6965 57.2622 42.3322 57.2622C41.968 57.2622 41.6728 57.5574 41.6728 57.9217ZM43.8302 56.0573C43.8302 55.6889 43.5313 55.3905 43.1634 55.3905C42.7949 55.3905 42.4961 55.6889 42.4961 56.0573C42.4961 56.4258 42.7949 56.7241 43.1634 56.7241C43.5313 56.7241 43.8302 56.4258 43.8302 56.0573ZM43.994 53.5042C43.614 53.5042 43.3057 53.812 43.3057 54.193C43.3057 54.573 43.614 54.8808 43.994 54.8808C44.374 54.8808 44.6823 54.573 44.6823 54.193C44.6823 53.812 44.374 53.5042 43.994 53.5042ZM45.5343 52.3277C45.5343 51.9362 45.2167 51.619 44.8252 51.619C44.4331 51.619 44.116 51.9362 44.116 52.3277C44.116 52.7202 44.4331 53.0374 44.8252 53.0374C45.2167 53.0374 45.5343 52.7202 45.5343 52.3277ZM45.6563 49.7327C45.2528 49.7327 44.9256 50.0603 44.9256 50.4633C44.9256 50.8674 45.2528 51.194 45.6563 51.194C46.0593 51.194 46.3864 50.8674 46.3864 50.4633C46.3864 50.0603 46.0593 49.7327 45.6563 49.7327ZM46.4869 47.8474C46.0719 47.8474 45.7353 48.1835 45.7353 48.599C45.7353 49.0146 46.0719 49.3506 46.4869 49.3506C46.902 49.3506 47.2385 49.0146 47.2385 48.599C47.2385 48.1835 46.902 47.8474 46.4869 47.8474ZM48.0911 46.7347C48.0911 46.3076 47.7446 45.9622 47.3181 45.9622C46.891 45.9622 46.545 46.3076 46.545 46.7347C46.545 47.1618 46.891 47.5072 47.3181 47.5072C47.7446 47.5072 48.0911 47.1618 48.0911 46.7347ZM48.1492 44.0759C47.7106 44.0759 47.3552 44.4318 47.3552 44.8704C47.3552 45.309 47.7106 45.6639 48.1492 45.6639C48.5873 45.6639 48.9432 45.309 48.9432 44.8704C48.9432 44.4318 48.5873 44.0759 48.1492 44.0759ZM49.9115 43.0762C49.9115 42.6261 49.5467 42.2608 49.0965 42.2608C48.6464 42.2608 48.2811 42.6261 48.2811 43.0762C48.2811 43.5263 48.6464 43.8917 49.0965 43.8917C49.5467 43.8917 49.9115 43.5263 49.9115 43.0762ZM51.8396 42.9349C51.8396 42.4659 51.4591 42.086 50.9902 42.086C50.5207 42.086 50.1402 42.4659 50.1402 42.9349C50.1402 43.4049 50.5207 43.7849 50.9902 43.7849C51.4591 43.7849 51.8396 43.4049 51.8396 42.9349ZM66.3428 74.2556C66.3428 74.8198 65.8853 75.2773 65.3211 75.2773C64.7564 75.2773 64.2989 74.8198 64.2989 74.2556C64.2989 74.1143 64.3277 73.9803 64.379 73.8589C64.2094 73.9583 64.0231 74.0316 63.8117 74.0316C63.182 74.0316 62.6717 73.5208 62.6717 72.8906C62.6717 72.6907 62.7371 72.5127 62.8272 72.3494C62.8015 72.3505 62.7801 72.3641 62.7539 72.3641C62.0824 72.3641 61.5386 71.8198 61.5386 71.1488C61.5386 70.9038 61.6286 70.6892 61.7526 70.4987C61.1565 70.3867 60.6964 69.8874 60.6964 69.2583C60.6964 69.0364 60.7671 68.8385 60.8655 68.6564C60.2882 68.4994 59.8553 67.9938 59.8553 67.3667C59.8553 67.1626 59.9077 66.9732 59.9883 66.7994C59.434 66.6068 59.0305 66.096 59.0305 65.4763C59.0305 65.2784 59.0718 65.0911 59.1451 64.9194C58.6133 64.7079 58.2349 64.1929 58.2349 63.5847C58.2349 63.3942 58.2763 63.2152 58.3433 63.0488C57.8131 62.8269 57.4399 62.3045 57.4399 61.6942C57.4399 61.509 57.4828 61.3352 57.5451 61.1729C57.016 60.9416 56.6449 60.4172 56.6449 59.8027C56.6449 59.6216 56.6888 59.4531 56.748 59.2929C56.2204 59.0543 55.8493 58.5288 55.8493 57.9122C55.8493 57.7322 55.8943 57.5657 55.9514 57.4066C55.4291 57.1596 55.0616 56.6372 55.0616 56.0207C55.0616 55.8281 55.1066 55.647 55.1715 55.4774C54.6712 55.2304 54.3189 54.7258 54.3189 54.1302C54.3189 53.9135 54.3676 53.7094 54.4498 53.5231C53.9683 53.2917 53.6296 52.8092 53.6296 52.2397C53.6296 51.9885 53.7113 51.7645 53.8243 51.5593C53.3376 51.3699 52.9895 50.9019 52.9895 50.3482C52.9895 50.054 53.1047 49.7965 53.2685 49.5778C52.7493 49.4584 52.3536 49.0146 52.3536 48.4577C52.3536 48.1144 52.507 47.8118 52.7425 47.5973C52.1793 47.5889 51.7245 47.1314 51.7245 46.5662C51.7245 45.9957 52.1872 45.533 52.7582 45.533C53.135 45.533 53.4506 45.7455 53.6312 46.047C53.6877 45.8952 53.772 45.7612 53.8783 45.6429C53.4077 45.5969 53.023 45.2912 52.8707 44.861C52.7828 45.2765 52.4311 45.5948 51.9893 45.5948C51.4811 45.5948 51.0697 45.1834 51.0697 44.6757C51.0697 44.168 51.4811 43.7556 51.9893 43.7556C52.3625 43.7556 52.6807 43.9806 52.8247 44.2999C52.8697 43.9848 53.0288 43.7168 53.2701 43.5305C53.2329 43.5347 53.2005 43.5525 53.1623 43.5525C52.5467 43.5525 52.048 43.0542 52.048 42.4387C52.048 41.8232 52.5467 41.3239 53.1623 41.3239C53.2832 41.3239 53.3936 41.3574 53.5025 41.393C53.3863 41.2025 53.3015 40.991 53.3015 40.7513C53.3015 40.408 53.4407 40.0981 53.6642 39.871C53.5731 39.893 53.4862 39.9265 53.3884 39.9265C52.731 39.9265 52.1982 39.3936 52.1982 38.7363C52.1982 38.0789 52.731 37.5461 53.3884 37.5461C53.6563 37.5461 53.8913 37.6508 54.0902 37.8004C54.0902 37.7889 54.0839 37.7795 54.0839 37.768C54.0839 37.052 54.6649 36.471 55.3809 36.471C55.4312 36.471 55.4741 36.4941 55.5227 36.4993C55.4416 36.3276 55.3888 36.1413 55.3888 35.9382C55.3888 35.2044 55.9844 34.6088 56.7187 34.6088C56.7632 34.6088 56.8003 34.6297 56.8438 34.6339C56.7846 34.4832 56.7459 34.3209 56.7459 34.1493C56.7459 33.4144 57.342 32.8188 58.0769 32.8188C58.1517 32.8188 58.2166 32.8492 58.2889 32.8617C58.269 32.7707 58.2334 32.6848 58.2334 32.5875C58.2334 31.8631 58.8206 31.2758 59.5445 31.2758C59.6533 31.2758 59.7507 31.3125 59.8517 31.3376C59.8475 31.2968 59.8276 31.2612 59.8276 31.2183C59.8276 30.5232 60.3913 29.96 61.0858 29.96C61.7804 29.96 62.3436 30.5232 62.3436 31.2183C62.3436 31.9133 61.7804 32.4765 61.0858 32.4765C60.9927 32.4765 60.91 32.443 60.8226 32.4231C60.8299 32.4796 60.8556 32.5288 60.8556 32.5875C60.8556 33.3118 60.2688 33.898 59.5445 33.898C59.4749 33.898 59.4152 33.8687 59.3487 33.8583C59.3707 33.9546 59.4073 34.0456 59.4073 34.1493C59.4073 34.8841 58.8117 35.4808 58.0769 35.4808C58.0324 35.4808 57.9947 35.4598 57.9508 35.4556C58.0099 35.6053 58.0486 35.7665 58.0486 35.9382C58.0486 36.0471 58.0115 36.1434 57.9869 36.2449C58.1947 35.7739 58.6626 35.4431 59.21 35.4431C59.2948 35.4431 59.3691 35.4766 59.4497 35.4912C59.4461 35.4535 59.4272 35.4201 59.4272 35.3813C59.4272 34.6611 60.0108 34.0781 60.7305 34.0781C60.8608 34.0781 60.9796 34.1168 61.0984 34.1524C61.1047 33.4762 61.6522 32.9287 62.33 32.9287C63.0109 32.9287 63.5631 33.4814 63.5631 34.1629C63.5631 34.8443 63.0109 35.396 62.33 35.396C62.2216 35.396 62.1243 35.3604 62.0238 35.3342C62.0243 35.351 62.0332 35.3646 62.0332 35.3813C62.0332 36.1005 61.4501 36.6835 60.7305 36.6835C60.6562 36.6835 60.5918 36.6532 60.5206 36.6416C60.5258 36.6898 60.5494 36.7327 60.5494 36.783C60.5494 37.523 59.9496 38.1228 59.21 38.1228C59.1624 38.1228 59.1221 38.1009 59.076 38.0956C59.1017 38.2003 59.1399 38.3008 59.1399 38.4128C59.1399 38.9425 58.8285 39.3884 58.3862 39.6114C58.5249 39.5643 58.6678 39.5234 58.8222 39.5234C58.8834 39.5234 58.9358 39.5506 58.9944 39.558C58.9902 39.513 58.9682 39.4732 58.9682 39.4271C58.9682 38.6829 59.5722 38.0789 60.317 38.0789C60.4274 38.0789 60.5258 38.1166 60.6289 38.1417C60.6494 37.4498 61.2104 36.8929 61.9071 36.8929C62.0777 36.8929 62.2389 36.9295 62.388 36.9902C62.4493 36.38 62.9475 35.8974 63.5735 35.8974C64.2414 35.8974 64.7831 36.4386 64.7831 37.1064C64.7831 37.7743 64.2414 38.3165 63.5735 38.3165C63.4343 38.3165 63.3055 38.2809 63.181 38.2369C63.1485 38.9194 62.5964 39.4648 61.9071 39.4648C61.8207 39.4648 61.7453 39.4324 61.6637 39.4156C61.6637 39.4198 61.6658 39.4229 61.6658 39.4271C61.6658 40.1724 61.0618 40.7764 60.317 40.7764C60.2647 40.7764 60.2202 40.7524 60.1689 40.7471C60.1752 40.7995 60.2003 40.8466 60.2003 40.901C60.2003 41.4045 59.9166 41.8263 59.5136 42.0661C59.6266 42.0368 59.736 41.997 59.8585 41.997C59.947 41.997 60.0239 42.0315 60.1076 42.0472C60.1218 41.3291 60.7032 40.7503 61.4245 40.7503C61.5778 40.7503 61.7202 40.789 61.8573 40.8371C61.929 40.2133 62.4404 39.7213 63.0842 39.7213C63.2987 39.7213 63.4903 39.7893 63.6672 39.8835C63.7515 39.312 64.223 38.8661 64.8176 38.8661C65.4719 38.8661 66.0026 39.3968 66.0026 40.051C66.0026 40.7052 65.4719 41.236 64.8176 41.236C64.6344 41.236 64.4659 41.1868 64.311 41.1124C64.2403 41.7384 63.729 42.2314 63.0842 42.2314C62.958 42.2314 62.8434 42.1938 62.7288 42.1603C62.6817 42.8459 62.1237 43.3944 61.4245 43.3944C61.3606 43.3944 61.3062 43.3672 61.245 43.3578C61.245 43.3693 61.2512 43.3787 61.2512 43.3892C61.2512 43.9262 60.9372 44.3784 60.4918 44.6108C60.6211 44.5689 60.7519 44.5291 60.8948 44.5291C61.0278 44.5291 61.1487 44.5689 61.2696 44.6045C61.3292 43.9513 61.862 43.4321 62.5314 43.4321C62.7293 43.4321 62.9114 43.4855 63.0794 43.565C63.1815 42.9925 63.6594 42.5497 64.2607 42.5497C64.5193 42.5497 64.7464 42.6481 64.9438 42.7852C65.0458 42.2482 65.4959 41.8347 66.0617 41.8347C66.7023 41.8347 67.2221 42.355 67.2221 42.9956C67.2221 43.6362 66.7023 44.1554 66.0617 44.1554C65.8314 44.1554 65.6289 44.0706 65.4483 43.9555C65.3578 44.5406 64.8726 44.9981 64.2607 44.9981C64.0896 44.9981 63.9273 44.9615 63.7797 44.8986C63.6876 45.5183 63.1763 46.0009 62.5315 46.0009C62.4247 46.0009 62.33 45.9643 62.231 45.9402C62.1965 46.6541 61.6176 47.2256 60.8948 47.2256C60.8294 47.2256 60.7734 47.1974 60.7106 47.189C60.6954 47.5386 60.5578 47.8537 60.3343 48.0945C60.4515 48.0997 60.5604 48.129 60.6682 48.1615C60.7697 47.5418 61.2832 47.0613 61.9317 47.0613C62.1091 47.0613 62.2776 47.0979 62.432 47.1618C62.5309 46.5724 63.0208 46.114 63.639 46.114C63.8849 46.114 64.1011 46.204 64.2942 46.3265C64.4104 45.7895 64.8658 45.3791 65.4379 45.3791C65.7409 45.3791 66.0099 45.5016 66.2203 45.6869C66.3381 45.1855 66.7678 44.8034 67.3058 44.8034C67.9334 44.8034 68.4416 45.3121 68.4416 45.9391C68.4416 46.5672 67.9334 47.076 67.3058 47.076C67.0279 47.076 66.7824 46.965 66.5846 46.7986C66.4757 47.3439 66.0162 47.7647 65.4378 47.7647C65.2159 47.7647 65.0196 47.6873 64.8417 47.5815C64.7344 48.1615 64.2497 48.6084 63.6389 48.6084C63.4851 48.6084 63.3406 48.5718 63.2045 48.5205C63.125 49.1643 62.5969 49.6699 61.9316 49.6699C61.8259 49.6699 61.7317 49.6332 61.6328 49.6092C61.5993 49.9379 61.4711 50.2393 61.2486 50.4602C61.4318 50.4612 61.6071 50.4968 61.7663 50.5638C61.8997 50.0122 62.3744 49.5935 62.968 49.5935C63.1962 49.5935 63.3982 49.6699 63.583 49.7766C63.6934 49.2219 64.1597 48.7969 64.7459 48.7969C65.0401 48.7969 65.2997 48.9141 65.5095 49.0889C65.6372 48.5865 66.0722 48.2075 66.6144 48.2075C66.9698 48.2075 67.2765 48.3761 67.4901 48.6283C67.6083 48.1416 68.0271 47.7721 68.5499 47.7721C69.1639 47.7721 69.6611 48.2703 69.6611 48.8837C69.6611 49.4982 69.1639 49.9954 68.5499 49.9954C68.2191 49.9954 67.9302 49.8447 67.7266 49.6154C67.611 50.1346 67.1687 50.5314 66.6144 50.5314C66.3417 50.5314 66.1015 50.4236 65.9037 50.2655C65.7817 50.8056 65.3222 51.216 64.7459 51.216C64.5402 51.216 64.356 51.1521 64.1864 51.061C64.0838 51.6535 63.5903 52.1131 62.968 52.1131C62.8219 52.1131 62.6864 52.0754 62.5561 52.0293C62.4969 52.3894 62.3064 52.6919 62.0232 52.8971C62.0871 52.8877 62.1447 52.8594 62.2111 52.8594C62.4467 52.8594 62.656 52.939 62.8471 53.0489C62.9805 52.5223 63.4364 52.1246 64.0043 52.1246C64.2832 52.1246 64.5282 52.2345 64.7334 52.3925C64.8543 51.8733 65.2976 51.4787 65.8534 51.4787C66.2009 51.4787 66.5045 51.6368 66.7191 51.8765C66.8499 51.3971 67.2702 51.0359 67.7915 51.0359C68.2071 51.0359 68.5546 51.2714 68.7514 51.6054C68.8571 51.1155 69.2722 50.7407 69.7935 50.7407C70.3944 50.7407 70.8811 51.2275 70.8811 51.8283C70.8811 52.4281 70.3943 52.9149 69.7935 52.9149C69.3994 52.9149 69.0696 52.694 68.8791 52.38C68.776 52.8992 68.34 53.298 67.7915 53.298C67.4644 53.298 67.1755 53.1546 66.9688 52.9327C66.84 53.4404 66.4009 53.8235 65.8534 53.8235C65.5938 53.8235 65.3667 53.723 65.1725 53.5796C65.0584 54.1333 64.591 54.5573 64.0043 54.5573C63.8059 54.5573 63.6264 54.4987 63.461 54.4149C63.3396 55.0074 62.8397 55.4617 62.2111 55.4617C62.1583 55.4617 62.1133 55.4376 62.062 55.4313C62.118 55.5674 62.1421 55.7182 62.151 55.872C62.3676 55.5203 62.7387 55.2733 63.1826 55.2733C63.4673 55.2733 63.7169 55.3853 63.9258 55.5475C64.0545 55.0398 64.4931 54.6567 65.0406 54.6567C65.3719 54.6567 65.6687 54.797 65.8817 55.0179C66.0078 54.529 66.4323 54.1605 66.9609 54.1605C67.3739 54.1605 67.7188 54.3919 67.9177 54.7216C68.0312 54.2349 68.4468 53.8643 68.9681 53.8643C69.4643 53.8643 69.8678 54.1993 70.005 54.6515C70.0683 54.1271 70.4964 53.7146 71.0376 53.7146C71.6217 53.7146 72.0954 54.1888 72.0954 54.7729C72.0954 55.357 71.6217 55.8302 71.0376 55.8302C70.5645 55.8302 70.1792 55.5151 70.0437 55.0859C69.9804 55.6334 69.5323 56.0646 68.9681 56.0646C68.5724 56.0646 68.2416 55.8438 68.048 55.5308C67.937 56.0406 67.5037 56.431 66.9609 56.431C66.6474 56.431 66.3637 56.3044 66.1586 56.0981C66.034 56.6121 65.5923 57.0015 65.0406 57.0015C64.7826 57.0015 64.5565 56.901 64.3628 56.7597C64.2419 57.3134 63.7724 57.7364 63.1826 57.7364C63.08 57.7364 62.9884 57.7018 62.8926 57.6777C62.9439 57.8149 62.9811 57.9604 62.9811 58.1153C62.9811 58.5403 62.7581 58.8983 62.4373 59.1286C62.4948 59.1202 62.5461 59.0951 62.6058 59.0951C62.7665 59.0951 62.9188 59.1286 63.0585 59.1861C63.025 59.0783 62.9905 58.9684 62.9905 58.8491C62.9905 58.2064 63.5112 57.6861 64.1534 57.6861C64.4916 57.6861 64.7894 57.8348 65.0019 58.0651C65.1191 57.5689 65.5446 57.191 66.0774 57.191C66.481 57.191 66.8191 57.415 67.0174 57.7343C67.1169 57.2339 67.5377 56.8487 68.0679 56.8487C68.5756 56.8487 68.9838 57.2025 69.1058 57.6725C69.1534 57.1334 69.593 56.7053 70.1452 56.7053C70.7293 56.7053 71.203 57.1784 71.203 57.7625C71.203 58.3466 70.7293 58.8208 70.1452 58.8208C69.6559 58.8208 69.2623 58.4817 69.1414 58.0305C69.0937 58.5895 68.6389 59.0323 68.0679 59.0323C67.6811 59.0323 67.3571 58.8187 67.1635 58.5152C67.0661 59.0396 66.6286 59.4437 66.0774 59.4437C65.7576 59.4437 65.4719 59.3076 65.2672 59.093C65.1516 59.6143 64.7088 60.0121 64.1535 60.0121C64.0011 60.0121 63.8572 59.9786 63.7237 59.9252C63.7609 60.0414 63.7965 60.1586 63.7965 60.2863C63.7965 60.9437 63.2632 61.4765 62.6058 61.4765C62.308 61.4765 62.0437 61.3561 61.8354 61.1761C61.7825 61.3038 61.6998 61.4116 61.6113 61.5152C61.9699 61.5624 62.2682 61.7581 62.4582 62.046C62.6225 61.6293 63.024 61.3321 63.4997 61.3321C63.7201 61.3321 63.9137 61.4116 64.0875 61.5215C64.054 61.4158 64.021 61.3101 64.021 61.1928C64.021 60.5836 64.5151 60.0895 65.1249 60.0895C65.5357 60.0895 65.8796 60.324 66.0696 60.6569C66.1449 60.1377 66.5736 59.7326 67.1137 59.7326C67.6188 59.7326 68.0223 60.0874 68.137 60.5575C68.1532 59.9943 68.6091 59.5421 69.1754 59.5421C69.7516 59.5421 70.219 60.0089 70.219 60.5857C70.219 61.1625 69.7516 61.6304 69.1754 61.6304C68.6865 61.6304 68.2956 61.2871 68.1814 60.8349C68.1652 61.4137 67.6963 61.8796 67.1137 61.8796C66.7175 61.8796 66.3857 61.6545 66.1994 61.3352C66.1266 61.8754 65.6833 62.2972 65.1248 62.2972C64.9118 62.2972 64.7239 62.2208 64.5554 62.1161C64.5905 62.225 64.624 62.3359 64.624 62.4563C64.624 63.0771 64.1205 63.5806 63.4997 63.5806C63.1208 63.5806 62.8026 63.3806 62.5984 63.0938C62.5335 63.2843 62.4325 63.4529 62.2896 63.5879C62.8141 63.5879 63.2365 63.949 63.3699 64.4316C63.4652 63.9417 63.876 63.5649 64.3937 63.5649C64.6737 63.5649 64.9244 63.6779 65.1139 63.8548C65.0814 63.7533 65.05 63.6507 65.05 63.5377C65.05 62.9598 65.5184 62.4919 66.0957 62.4919C66.6736 62.4919 67.1415 62.9598 67.1415 63.5377C67.1415 64.1155 66.6736 64.5834 66.0957 64.5834C65.822 64.5834 65.5771 64.4724 65.3907 64.2997C65.4253 64.4044 65.4567 64.5112 65.4567 64.6274C65.4567 65.2146 64.9809 65.6898 64.3937 65.6898C63.9127 65.6898 63.5222 65.3653 63.3909 64.9267C63.3265 65.2858 63.1082 65.5852 62.7916 65.7443C62.8957 65.7108 63.0015 65.6783 63.1166 65.6783C63.7122 65.6783 64.1953 66.1619 64.1953 66.7576C64.1953 67.3532 63.7122 67.8357 63.1166 67.8357C62.8915 67.8357 62.6937 67.751 62.521 67.6327C62.4901 67.7824 62.4414 67.9195 62.3655 68.0472C62.6215 68.1288 62.8324 68.2827 62.9915 68.4921C63.1187 68.0776 63.4898 67.7698 63.9462 67.7698C64.5062 67.7698 64.96 68.2241 64.96 68.7841C64.96 69.3442 64.5062 69.7974 63.9462 69.7974C63.6625 69.7974 63.4076 69.6802 63.2239 69.4928C63.1888 69.6749 63.1208 69.8393 63.0171 69.9858C63.4008 70.0727 63.7232 70.3198 63.8739 70.6746C63.9415 70.2161 64.3193 69.8592 64.7956 69.8592C65.3195 69.8592 65.7445 70.2842 65.7445 70.8086C65.7445 71.332 65.3195 71.757 64.7956 71.757C64.424 71.757 64.11 71.5372 63.954 71.2263C63.9415 71.422 63.8781 71.5968 63.7834 71.757C63.7933 71.7559 63.8017 71.7507 63.8117 71.7507C64.4413 71.7507 64.9516 72.2615 64.9516 72.8906C64.9516 73.0644 64.9061 73.2256 64.8365 73.3732C64.9825 73.2926 65.1421 73.234 65.3211 73.234C65.8853 73.234 66.3428 73.6914 66.3428 74.2556ZM56.1037 38.8158C56.1969 38.7959 56.2848 38.7593 56.3842 38.7593C56.4277 38.7593 56.4643 38.7802 56.5067 38.7844C56.4769 38.6818 56.4481 38.5792 56.4434 38.4693C56.3518 38.6075 56.2398 38.7216 56.1037 38.8158ZM61.0058 54.6327C61.0052 54.6327 61.0052 54.6337 61.0047 54.6337H61.0063C61.0058 54.6337 61.0058 54.6327 61.0058 54.6327ZM62.6372 65.8029C62.5252 65.8395 62.4111 65.874 62.287 65.874C62.1127 65.874 61.9526 65.829 61.805 65.7589C61.7793 65.8803 61.7526 65.9976 61.6982 66.1054C61.8552 66.1661 61.9939 66.2551 62.1169 66.366C62.2143 66.1179 62.4016 65.9222 62.6372 65.8029ZM61.4831 63.9187C61.4742 63.9187 61.4663 63.9239 61.4574 63.9239C61.3187 63.9239 61.191 63.8872 61.067 63.8454C61.0461 63.9563 61.0351 64.0694 60.9901 64.1699C61.0785 64.2065 61.1471 64.2725 61.2251 64.3248C61.2837 64.172 61.3685 64.0317 61.4831 63.9187ZM61.9102 59.3453C61.8427 59.3557 61.782 59.3851 61.7113 59.3851C61.4784 59.3851 61.2722 59.3055 61.0843 59.1956C61.0471 59.2835 60.9801 59.3516 60.9267 59.4301C61.1649 59.4866 61.3863 59.586 61.5538 59.7546C61.6385 59.5881 61.7621 59.4552 61.9102 59.3453ZM59.8585 44.7814C59.8177 44.7814 59.7831 44.7615 59.7428 44.7584C59.7433 44.7678 59.7486 44.7762 59.7486 44.7856C59.7486 45.1478 59.6026 45.4692 59.3796 45.7204C59.4466 45.7246 59.5068 45.7455 59.5706 45.7591C59.613 45.2923 59.8841 44.9039 60.2788 44.6966C60.1437 44.7395 60.0077 44.7814 59.8585 44.7814ZM58.8222 42.2796C58.7782 42.2796 58.7411 42.2587 58.6981 42.2545C58.7076 42.3184 58.7358 42.3749 58.7358 42.4408C58.7358 42.5267 58.7023 42.601 58.6871 42.6816C58.806 42.4869 58.9651 42.3278 59.1613 42.2116C59.0499 42.2398 58.9426 42.2796 58.8222 42.2796ZM58.2124 39.6815C58.0763 39.7276 57.9371 39.7673 57.7859 39.7673C57.7377 39.7673 57.6974 39.7443 57.6503 39.7401C57.6833 39.8563 57.7225 39.9704 57.7225 40.0971C57.7225 40.1044 57.7184 40.1117 57.7184 40.1191C57.8482 39.9359 58.0099 39.783 58.2124 39.6815ZM56.7187 37.2687C56.6611 37.2687 56.6124 37.2425 56.5569 37.2362C56.6218 37.3786 56.6548 37.5356 56.6637 37.7C56.904 37.3231 57.3059 37.0593 57.7859 37.0593C57.8377 37.0593 57.8816 37.0834 57.9319 37.0886C57.9078 36.9881 57.8701 36.8918 57.8701 36.783C57.8701 36.6731 57.9078 36.5747 57.9329 36.4731C57.7267 36.94 57.262 37.2687 56.7187 37.2687ZM67.3168 74.376C66.8196 74.376 66.416 74.7801 66.416 75.2773C66.416 75.7755 66.8196 76.1786 67.3168 76.1786C67.8145 76.1786 68.2181 75.7755 68.2181 75.2773C68.2181 74.7801 67.8145 74.376 67.3168 74.376Z" fill="white"/>
</svg>
