<svg width="100" height="100" viewBox="0 0 100 100" fill="none" xmlns="http://www.w3.org/2000/svg">
<rect width="100" height="100" rx="24" fill="#013301"/>
<path d="M14.0024 71.4029V28.7379C13.9958 28.6714 14.0029 28.6043 14.0233 28.5406C14.0437 28.477 14.0769 28.4182 14.1209 28.3679C14.1649 28.3176 14.2188 28.2769 14.2792 28.2482C14.3396 28.2196 14.4052 28.2036 14.472 28.2013C15.1427 28.1573 16.1266 28.1237 17.4236 28.1007C18.7202 28.0786 20.2407 28.0563 21.9852 28.0336C23.7294 28.0116 25.5854 28.0004 27.5532 28C32.9198 28 37.3697 28.9168 40.9028 30.7505C44.2513 32.4094 47.0216 35.0395 48.8521 38.2973C50.6182 41.4953 51.5015 45.1737 51.502 49.3325C51.5528 52.2424 51.0871 55.1383 50.1267 57.8857C49.2864 60.2374 48.0121 62.4105 46.37 64.2921C44.8157 66.0539 42.9932 67.5594 40.9698 68.7532C38.963 69.9363 36.7931 70.8179 34.5298 71.3694C32.3133 71.9209 30.0384 72.2024 27.7544 72.208H22.7566C20.9895 72.208 19.3459 72.1968 17.826 72.1744C16.3052 72.1513 15.1648 72.1178 14.4048 72.0738C14.1365 72.0738 14.0023 71.8502 14.0024 71.4029ZM23.2598 36.2512V64.0238C23.7513 64.0238 24.1986 64.035 24.6015 64.0573C25.004 64.0804 25.4177 64.1028 25.8426 64.1244C26.267 64.1475 26.7477 64.1587 27.2849 64.1579C29.3138 64.1842 31.3325 63.8667 33.2553 63.2188C34.9778 62.6336 36.5477 61.671 37.8504 60.4013C39.1612 59.0929 40.1688 57.5128 40.8021 55.7725C41.5235 53.773 41.8759 51.6592 41.8419 49.5338C41.883 47.531 41.5415 45.5387 40.8357 43.664C40.2063 42.0467 39.2069 40.5993 37.9176 39.4378C36.6006 38.2739 35.0429 37.4149 33.3558 36.9221C31.4719 36.3689 29.5165 36.0977 27.5532 36.1172C26.658 36.1172 25.9089 36.1283 25.3059 36.1506C24.7021 36.1737 24.02 36.2073 23.2598 36.2512Z" fill="#33FF66"/>
<path d="M55.6019 71.47V46.515C55.6019 45.7551 55.5907 44.9054 55.5684 43.9659C55.5454 43.0267 55.5118 42.1323 55.4677 41.2826C55.4227 40.4335 55.378 39.7626 55.3336 39.27C55.3074 39.2031 55.2999 39.1304 55.3117 39.0595C55.3235 38.9887 55.3543 38.9223 55.4007 38.8675C55.4555 38.8195 55.5193 38.7828 55.5884 38.7598C55.6575 38.7368 55.7305 38.7278 55.8031 38.7333H62.7799C63.0108 38.7257 63.2404 38.7717 63.4507 38.8675C63.5398 38.9135 63.6168 38.9801 63.6751 39.0618C63.7335 39.1434 63.7715 39.2378 63.7861 39.3371C63.8752 39.6054 63.9759 39.9073 64.0881 40.2427C64.2125 40.6463 64.2912 41.0626 64.3228 41.4838C65.6198 40.3475 67.1228 39.4707 68.7503 38.9011C70.3684 38.3409 72.0692 38.0574 73.7815 38.0626C75.1149 38.0687 76.439 38.2837 77.7058 38.6999C79.1682 39.1675 80.5021 39.9683 81.6022 41.0393C82.7023 42.1103 83.5387 43.4222 84.0453 44.8715C84.7161 46.5937 85.0515 48.8186 85.0516 51.5462V71.4701C85.0516 71.8726 84.8727 72.0738 84.5149 72.0738H76.3978C76.3067 72.0869 76.2137 72.0785 76.1264 72.0495C76.039 72.0204 75.9596 71.9713 75.8945 71.9062C75.8294 71.8411 75.7803 71.7617 75.7512 71.6744C75.7221 71.587 75.7138 71.4941 75.7268 71.4029V52.3513C75.7668 51.1812 75.5612 50.0158 75.1232 48.9301C74.7633 48.0877 74.1697 47.366 73.4126 46.8505C72.5567 46.3266 71.564 46.0697 70.5614 46.1126C69.4835 46.0972 68.4128 46.2909 67.4086 46.6827C66.4905 47.0495 65.6487 47.5841 64.9265 48.2592V71.47C64.9265 71.8726 64.7476 72.0738 64.3898 72.0738H56.2056C56.1236 72.0855 56.04 72.0779 55.9614 72.0517C55.8828 72.0255 55.8114 71.9814 55.7528 71.9228C55.6942 71.8642 55.6501 71.7928 55.6239 71.7142C55.5977 71.6357 55.5902 71.552 55.6019 71.47Z" fill="#33FF66"/>
</svg>
