<svg width="100" height="100" viewBox="0 0 100 100" fill="none" xmlns="http://www.w3.org/2000/svg">
<rect width="100" height="100" rx="24" fill="#330000"/>
<path d="M49.7957 62.7083H34.2956L31.129 72.5C31.0456 72.875 30.7123 73.125 30.3373 73.0833H22.504C22.0456 73.0833 21.9206 72.8333 22.0456 72.3333L35.4623 33.7083C35.5873 33.2917 35.7123 32.8333 35.879 32.3333C36.0456 31.4583 36.129 30.5417 36.129 29.625C36.0873 29.4167 36.254 29.2083 36.4623 29.1667H47.254C47.5873 29.1667 47.754 29.2917 47.7956 29.5L63.004 72.4167C63.129 72.875 63.004 73.0833 62.5873 73.0833H53.879C53.5873 73.125 53.2956 72.9167 53.2123 72.625L49.7957 62.7083ZM36.7123 54.25H47.2956C47.0456 53.375 46.7123 52.3333 46.3373 51.25C45.9623 50.125 45.5873 48.9167 45.2123 47.6667C44.7956 46.375 44.4206 45.125 44.004 43.8333C43.5873 42.5417 43.2123 41.3333 42.879 40.125C42.5456 38.9583 42.254 37.875 41.9623 36.875H41.879C41.504 38.6667 41.0456 40.4583 40.4623 42.25C39.8373 44.25 39.2123 46.3333 38.5456 48.4167C37.9623 50.5417 37.3373 52.5 36.7123 54.25ZM72.2957 36.4583C70.9207 36.5 69.5873 35.9583 68.5873 35C67.629 33.9583 67.129 32.5833 67.1707 31.1667C67.129 29.75 67.6707 28.4167 68.6707 27.4583C69.6707 26.5 71.004 26 72.379 26C74.004 26 75.254 26.5 76.1707 27.4583C77.0873 28.4583 77.5873 29.7917 77.5457 31.1667C77.5873 32.5833 77.0873 33.9583 76.0873 35C75.129 36 73.7123 36.5417 72.2957 36.4583ZM67.629 72.625V40.5417C67.629 40.125 67.7957 39.9583 68.1707 39.9583H76.4206C76.7956 39.9583 76.9623 40.1667 76.9623 40.5417V72.625C76.9623 73.0833 76.7956 73.2917 76.4206 73.2917H68.254C67.8373 73.2917 67.629 73.0417 67.629 72.625Z" fill="#FF9A00"/>
</svg>
