<svg width="100" height="100" viewBox="0 0 100 100" fill="none" xmlns="http://www.w3.org/2000/svg">
<rect width="100" height="100" rx="24" fill="#00005B"/>
<path d="M23.359 70.0854V26.0683C23.359 25.7691 23.4872 25.5982 23.7864 25.5982C24.5129 25.5982 25.1966 25.5982 26.1795 25.5555C27.2052 25.5127 28.2735 25.5127 29.4274 25.47C30.5812 25.4273 31.8205 25.4273 33.1453 25.3845C34.4701 25.3418 35.7522 25.3418 37.0342 25.3418C40.5385 25.3418 43.4445 25.7691 45.8376 26.6666C47.9744 27.3931 49.9402 28.5897 51.5641 30.1709C52.9317 31.5384 54 33.205 54.6838 35.0427C55.3248 36.8375 55.6667 38.6751 55.6667 40.5982C55.6667 44.2734 54.812 47.3076 53.1026 49.7008C51.3932 52.0939 49 53.8888 46.2223 54.9144C43.3163 55.9828 40.1111 56.3674 36.6069 56.3674C35.5812 56.3674 34.8975 56.3674 34.4701 56.3247C34.0428 56.282 33.4445 56.282 32.6325 56.282V69.9999C32.6752 70.2991 32.4616 70.5555 32.1624 70.5982H31.9915H23.8718C23.5299 70.5982 23.359 70.4273 23.359 70.0426V70.0854ZM32.6752 33.8888V48.2478C33.2735 48.2905 33.8291 48.3333 34.3419 48.3333H36.6069C38.2735 48.3333 39.9402 48.0768 41.5214 47.564C42.8889 47.1794 44.0855 46.3674 45.0257 45.2991C45.9231 44.2307 46.3505 42.7777 46.3505 40.8974C46.3932 39.5726 46.0513 38.2478 45.3676 37.0939C44.6411 35.9828 43.6154 35.1281 42.3761 34.658C40.7949 34.017 39.0855 33.7606 37.3334 33.8033C36.2223 33.8033 35.2394 33.8033 34.4274 33.8461C33.5727 33.8033 32.9744 33.8461 32.6752 33.8888Z" fill="#9999FF"/>
<path d="M61.8205 36.4102H69.2992C69.7265 36.4102 70.0684 36.7093 70.1966 37.0939C70.3248 37.4358 70.4103 37.7777 70.453 38.1623C70.5385 38.5897 70.624 39.0597 70.6667 39.4871C70.7094 39.9572 70.7522 40.47 70.7522 41.0255C72.0342 39.5298 73.5727 38.2905 75.3248 37.3503C77.2906 36.2392 79.5556 35.6837 81.8206 35.6837C82.1197 35.6409 82.3761 35.8546 82.4188 36.1538V36.3247V44.658C82.4188 44.9999 82.2052 45.1281 81.7351 45.1281C80.1966 45.0854 78.6154 45.2136 77.1197 45.5555C75.8804 45.8119 74.6838 46.1965 73.5299 46.7093C72.718 47.0939 71.9488 47.6067 71.3505 48.2905V70.0854C71.3505 70.5127 71.1795 70.6837 70.7949 70.6837H62.3761C62.0342 70.7264 61.7351 70.5127 61.6923 70.1708V69.9999V46.3247C61.6923 45.2991 61.6923 44.2307 61.6496 43.1196C61.6069 42.0085 61.6069 40.8973 61.5641 39.7862C61.5641 38.8033 61.4787 37.8632 61.3932 36.8803C61.3505 36.6666 61.4787 36.4529 61.6923 36.4102C61.6923 36.3674 61.7778 36.3674 61.8205 36.4102Z" fill="#9999FF"/>
</svg>
