<svg width="100" height="100" viewBox="0 0 100 100" fill="none" xmlns="http://www.w3.org/2000/svg">
<rect width="100" height="100" rx="24" fill="#00005B"/>
<path d="M13.2749 28.422C13.3166 28.172 13.5249 28.0053 13.7749 28.0053H25.4833C25.8166 27.9636 26.1083 28.172 26.1916 28.4636C26.4833 29.6303 26.8583 31.0053 27.2749 32.672C27.6916 34.297 28.1499 36.0886 28.6499 38.0886C29.1499 40.047 29.6499 42.0886 30.1499 44.1303C30.6499 46.172 31.1499 48.172 31.6499 50.1303C32.1499 52.0886 32.5666 53.8803 32.8999 55.5053C33.2333 57.1303 33.5249 58.5053 33.7333 59.547H33.8166C33.9833 58.5886 34.2749 57.3386 34.6916 55.797C35.1083 54.2136 35.6083 52.4636 36.1499 50.547C36.6916 48.5886 37.2749 46.5886 37.8583 44.547C38.4416 42.5053 38.9833 40.4636 39.5666 38.422C40.1083 36.422 40.6499 34.547 41.1083 32.8386C41.6083 31.1303 41.9833 29.672 42.2749 28.5053C42.3166 28.2136 42.5666 28.0053 42.8583 28.047H54.2749C54.5666 28.0053 54.8166 28.2136 54.8583 28.4636V28.5053L56.3999 71.3803C56.4416 71.547 56.3999 71.7136 56.3166 71.797C56.1916 71.922 56.0666 71.9636 55.8999 71.9636H47.6083C47.4833 71.9636 47.3999 71.922 47.2749 71.8803C47.1916 71.797 47.1499 71.6303 47.1499 71.5053C47.1499 69.2136 47.1499 66.8386 47.1083 64.3386C47.0666 61.8386 47.0666 59.3386 47.0249 56.797C46.9833 54.2553 46.9833 51.8386 47.0249 49.5053C47.0666 47.172 47.1083 45.047 47.1083 43.047C47.1083 41.0886 47.1083 39.3803 47.1499 37.922C47.1916 36.4636 47.1916 35.3803 47.1916 34.672H47.1083C46.8583 35.797 46.5249 37.2553 46.1083 39.047C45.6916 40.8386 45.1916 42.8803 44.6083 45.172C44.0249 47.422 43.3999 49.7553 42.7749 52.172C42.1083 54.5886 41.4833 56.9636 40.8583 59.3386C40.2333 61.7136 39.6499 63.922 39.0666 65.9636C38.4833 68.0053 38.0249 69.8386 37.6499 71.3803C37.5666 71.7136 37.2749 71.922 36.9416 71.922H29.6499C29.2749 71.9636 28.9416 71.7553 28.8999 71.3803C28.5249 69.797 28.0666 68.0053 27.6083 65.9636C27.1083 63.922 26.6083 61.7553 26.1083 59.5053C25.6083 57.2553 25.0666 54.9636 24.4833 52.6303C23.8999 50.297 23.3583 48.0053 22.8583 45.8386C22.3583 43.6303 21.8999 41.5886 21.4833 39.672C21.0666 37.7553 20.6916 36.047 20.3583 34.5886H20.2333V39.8803C20.2333 41.922 20.1916 44.2136 20.1499 46.672C20.0666 49.172 20.0249 51.7553 19.9416 54.4636C19.8583 57.172 19.8166 59.9636 19.7333 62.8386C19.6499 65.7136 19.5249 68.5886 19.3999 71.3803C19.3999 71.7553 19.2333 71.922 18.8999 71.922H11.5249C11.3999 71.922 11.2333 71.8803 11.1083 71.8386C10.9833 71.7553 10.9833 71.5886 11.0249 71.3386L13.2749 28.422ZM81.1499 57.3386H67.9416C68.1083 58.5886 68.5249 59.797 69.2333 60.8803C69.9833 62.0053 71.0249 62.8803 72.2749 63.3803C73.6499 64.0053 75.3999 64.3386 77.6083 64.3386C79.0666 64.3386 80.5249 64.2136 81.9416 63.9636C83.2749 63.7136 84.6083 63.3386 85.8583 62.797C86.0666 62.6303 86.1916 62.7136 86.1916 63.1303V69.5053C86.1916 69.672 86.1499 69.8386 86.1083 70.0053C86.0249 70.1303 85.9416 70.2136 85.8166 70.297C84.4416 70.9636 82.9833 71.422 81.4416 71.7553C79.4833 72.1303 77.5249 72.297 75.5249 72.2553C72.3583 72.2553 69.6916 71.7553 67.5249 70.797C65.4833 69.922 63.6916 68.547 62.2749 66.8386C60.9416 65.2136 59.9833 63.3803 59.3999 61.3803C58.8166 59.422 58.5249 57.3803 58.5249 55.297C58.5249 53.047 58.8583 50.8386 59.5666 48.672C60.2333 46.5886 61.2749 44.672 62.6916 42.9636C64.0666 41.297 65.7749 39.9636 67.7333 39.0053C69.8999 38.0053 72.3166 37.5053 74.6916 37.547C76.8999 37.5053 79.1083 37.922 81.1499 38.8386C82.8583 39.6303 84.3999 40.797 85.5249 42.297C86.6083 43.7136 87.4833 45.297 88.0249 47.047C88.5666 48.7136 88.8166 50.422 88.8166 52.1303C88.8166 53.1303 88.7749 54.0053 88.7333 54.797C88.6499 55.5886 88.6083 56.172 88.5666 56.547C88.5249 56.8386 88.2749 57.0886 87.9833 57.0886C87.7333 57.0886 87.2749 57.1303 86.6083 57.172C85.9416 57.2553 85.1499 57.297 84.1916 57.297C83.2333 57.297 82.1916 57.3386 81.1499 57.3386ZM67.9416 50.797H76.6916C77.7749 50.797 78.5666 50.797 79.0666 50.7553C79.3999 50.7553 79.7333 50.7136 80.0249 50.672V50.2553C80.0249 49.7136 79.9416 49.2136 79.7749 48.7136C79.0249 46.3803 76.8166 44.797 74.3583 44.8803C72.0666 44.7553 69.8999 45.9636 68.8166 48.047C68.3583 48.922 68.0666 49.8386 67.9416 50.797Z" fill="#9999FF"/>
</svg>
