<svg width="100" height="100" viewBox="0 0 100 100" fill="none" xmlns="http://www.w3.org/2000/svg">
<rect width="100" height="100" rx="24" fill="#001E36"/>
<path d="M22.0947 70.1261V26.1608C22.0947 25.8403 22.2324 25.6791 22.5077 25.6791C23.2407 25.6791 23.9101 25.6684 24.9196 25.6447C25.9281 25.6222 27.0175 25.5992 28.1877 25.5759C29.3575 25.5533 30.596 25.5304 31.9033 25.5071C33.2104 25.4845 34.5061 25.4731 35.7905 25.4727C39.2759 25.4727 42.2115 25.9084 44.5973 26.78C46.7495 27.5079 48.7122 28.7067 50.3426 30.2889C51.7246 31.6603 52.7926 33.3153 53.473 35.1396C54.1167 36.915 54.4428 38.7898 54.4364 40.6782C54.4364 44.3485 53.5878 47.3758 51.8907 49.7603C50.1823 52.1546 47.7809 53.9676 45.0103 54.955C42.1205 56.0332 38.9093 56.3989 35.3778 56.3989C34.3683 56.3989 33.6573 56.3874 33.2448 56.3645C32.8321 56.3419 32.2129 56.3304 31.3873 56.3301V70.0573C31.3993 70.1415 31.3915 70.2272 31.3646 70.3078C31.3378 70.3884 31.2925 70.4617 31.2324 70.5218C31.1723 70.5819 31.099 70.6271 31.0184 70.654C30.9378 70.6809 30.8521 70.6886 30.7679 70.6766H22.5763C22.255 70.6766 22.0947 70.4938 22.0947 70.1261ZM31.3872 33.9355V48.2752C31.9828 48.3214 32.5332 48.3444 33.0384 48.344H35.3089C36.9795 48.3384 38.6392 48.0735 40.2285 47.5586C41.5916 47.1538 42.8096 46.3656 43.7374 45.2881C44.6318 44.2335 45.079 42.7657 45.0791 40.8847C45.1154 39.5538 44.7691 38.2404 44.0813 37.1004C43.3582 35.9982 42.3132 35.1453 41.0884 34.658C39.4891 34.0363 37.7808 33.7438 36.0658 33.798C34.9648 33.798 33.9901 33.8094 33.1417 33.8323C32.2924 33.856 31.7076 33.8904 31.3872 33.9355Z" fill="#31A8FF"/>
<path d="M81.039 45.6679C79.7459 45.0035 78.3688 44.5174 76.9452 44.223C75.3765 43.8631 73.7727 43.6785 72.1633 43.6725C71.2928 43.6489 70.4234 43.7533 69.5832 43.9822C69.0484 44.1013 68.573 44.406 68.2414 44.8422C68.0172 45.1912 67.8979 45.5971 67.8976 46.0119C67.9101 46.4143 68.0552 46.8013 68.3103 47.1127C68.7122 47.5828 69.2033 47.9687 69.7551 48.248C70.7361 48.7763 71.7469 49.2472 72.7825 49.6585C75.0916 50.4314 77.2981 51.4827 79.3532 52.789C80.7532 53.6726 81.9117 54.8902 82.7246 56.3324C83.4082 57.698 83.7505 59.209 83.7223 60.7359C83.7634 62.752 83.1873 64.7326 82.0711 66.4121C80.876 68.117 79.2161 69.4424 77.2891 70.2306C75.2013 71.1477 72.6213 71.6064 69.5488 71.6068C67.5969 71.6265 65.6483 71.442 63.7349 71.0563C62.2273 70.7799 60.7597 70.3177 59.3658 69.6803C59.2154 69.6026 59.0902 69.4837 59.0049 69.3375C58.9196 69.1912 58.8777 69.0237 58.8842 68.8546V61.4238C58.8759 61.3511 58.8875 61.2774 58.9179 61.2108C58.9482 61.1441 58.996 61.087 59.0563 61.0454C59.1154 61.012 59.1833 60.9974 59.2509 61.0036C59.3185 61.0097 59.3826 61.0363 59.4346 61.0798C61.0808 62.0505 62.8682 62.7585 64.7325 63.1783C66.3757 63.5902 68.0612 63.8095 69.7551 63.832C71.3602 63.832 72.5413 63.6255 73.2985 63.2127C73.6404 63.0562 73.9297 62.8039 74.1312 62.4865C74.3327 62.169 74.4378 61.7999 74.4339 61.4238C74.4339 60.8283 74.0898 60.255 73.4018 59.7038C72.7138 59.1533 71.3148 58.4882 69.2047 57.7084C67.0443 56.9565 64.9959 55.915 63.1156 54.6123C61.7707 53.677 60.6632 52.4399 59.8818 51.0001C59.2052 49.6443 58.8631 48.1462 58.8842 46.6311C58.8804 44.8107 59.3804 43.0246 60.329 41.4709C61.4106 39.7598 62.9637 38.3979 64.8014 37.5491C66.8192 36.5407 69.342 36.0361 72.3698 36.0354C74.143 36.0211 75.9145 36.1477 77.6676 36.4138C78.9372 36.5748 80.1783 36.9105 81.3559 37.4114C81.4493 37.4382 81.5352 37.4864 81.6069 37.5521C81.6785 37.6177 81.7339 37.6991 81.7687 37.7899C81.8152 37.9579 81.8384 38.1315 81.8375 38.3059V45.255C81.8423 45.3359 81.8258 45.4166 81.7895 45.489C81.7533 45.5615 81.6987 45.6232 81.6312 45.6679C81.5392 45.7136 81.4378 45.7374 81.3351 45.7375C81.2323 45.7375 81.131 45.7137 81.039 45.6679Z" fill="#31A8FF"/>
</svg>
