<svg width="100" height="100" viewBox="0 0 100 100" fill="none" xmlns="http://www.w3.org/2000/svg">
<rect width="100" height="100" rx="24" fill="#00005B"/>
<path d="M40.7957 61.25H25.2956L22.129 71.0833C22.0456 71.4583 21.7123 71.7083 21.3373 71.6667H13.504C13.0456 71.6667 12.9206 71.4167 13.0456 70.9167L26.4623 32.4583C26.5873 32.0417 26.7123 31.6667 26.879 31.1667C27.0456 30.2917 27.129 29.375 27.129 28.4583C27.0873 28.25 27.254 28.0417 27.4623 28H27.5873H38.254C38.5457 28 38.754 28.125 38.7956 28.3333L54.004 70.8333C54.129 71.2917 54.004 71.5 53.5873 71.5H44.879C44.5873 71.5417 44.2956 71.3333 44.2123 71.0417L40.7957 61.0417V61.25ZM27.7123 52.9583H38.2957C38.0457 52.0833 37.7123 51.0417 37.3373 49.9583C36.9623 48.8333 36.5873 47.625 36.2123 46.375C35.7957 45.0833 35.4206 43.8333 35.004 42.5417C34.5873 41.25 34.2123 40.0417 33.879 38.8333C33.5457 37.6667 33.254 36.5833 32.9623 35.5833H32.879C32.504 37.375 32.0456 39.1667 31.4623 40.9583C30.8373 42.9583 30.2123 45.0417 29.5456 47.125C29.004 49.25 28.3373 51.2083 27.7123 52.9583Z" fill="#9999FF"/>
<path d="M78.5457 57.5H65.3373C65.504 58.7917 65.9207 60.0833 66.629 61.2083C67.379 62.3333 68.4207 63.2083 69.6707 63.7083C71.3373 64.4167 73.1707 64.7916 75.004 64.75C76.4623 64.7083 77.9207 64.5833 79.3373 64.2917C80.629 64.125 81.879 63.7917 83.0457 63.3333C83.254 63.1667 83.379 63.25 83.379 63.6667V70.0417C83.379 70.2083 83.3373 70.375 83.2957 70.5417C83.2123 70.6667 83.129 70.75 83.004 70.8333C81.6707 71.4167 80.2957 71.8333 78.8373 72.0833C76.879 72.4583 74.9207 72.625 72.9207 72.5833C69.754 72.5833 67.0873 72.0833 64.9207 71.125C62.879 70.25 61.0873 68.875 59.6707 67.1667C58.3373 65.5417 57.379 63.7083 56.7957 61.7083C56.2123 59.75 55.9207 57.7083 55.9207 55.625C55.9207 53.375 56.254 51.1667 56.9623 49C57.629 46.9167 58.6707 45 60.0873 43.2917C61.4623 41.625 63.1707 40.2917 65.129 39.3333C67.0873 38.375 69.4207 38.0417 72.0873 38.0417C74.2957 38 76.504 38.4167 78.5457 39.3333C80.254 40.0833 81.754 41.2083 82.9207 42.6667C84.004 44.0833 84.879 45.6667 85.4207 47.4167C85.9623 49.0833 86.2123 50.7917 86.2123 52.5C86.2123 53.5 86.1707 54.375 86.129 55.1667C86.0457 55.9583 86.004 56.5417 85.9623 56.9167C85.9207 57.2083 85.6707 57.4583 85.379 57.4583C85.129 57.4583 84.6707 57.5 84.004 57.5417C83.3373 57.625 82.5457 57.6667 81.5873 57.6667C80.629 57.6667 79.629 57.5 78.5457 57.5ZM65.3373 51.4167H74.129C75.2123 51.4167 76.004 51.4167 76.504 51.375C76.8373 51.3333 77.1707 51.25 77.4623 51.0417V50.625C77.4623 50.0833 77.379 49.5833 77.2123 49.0833C76.4623 46.75 74.254 45.1667 71.7957 45.25C69.504 45.125 67.3373 46.3333 66.254 48.4167C65.754 49.375 65.4623 50.375 65.3373 51.4167Z" fill="#9999FF"/>
</svg>
