<svg width="100" height="100" viewBox="0 0 100 100" fill="none" xmlns="http://www.w3.org/2000/svg">
<rect width="100" height="100" rx="24" fill="#00005B"/>
<path d="M40.7723 61.3463H25.2887L22.1296 71.1747C22.0516 71.5647 21.7005 71.7988 21.3495 71.7598H13.5102C13.0422 71.7598 12.9252 71.5257 13.0422 71.0187L26.4587 32.4852C26.5757 32.0562 26.6927 31.6271 26.8878 31.1201C27.0828 30.2621 27.2388 29.3651 27.2388 28.468C27.1998 28.273 27.3558 28.039 27.5898 28C27.6288 28 27.6678 28 27.7068 28H38.3932C38.6662 28 38.9002 28.117 38.9392 28.351L54.0718 71.0967C54.1889 71.5648 54.0718 71.7598 53.6428 71.7598H44.9455C44.6725 71.7988 44.3605 71.6038 44.2825 71.2917L40.7723 61.3463ZM27.7068 53.039H38.2762C38.0422 52.181 37.6912 51.1279 37.3012 50.0359C36.9112 48.9048 36.5601 47.6958 36.1701 46.4477C35.7411 45.1607 35.3901 43.9126 34.9611 42.6256C34.5321 41.3385 34.181 40.1295 33.83 38.9204C33.479 37.7504 33.206 36.6583 32.894 35.6833H32.816C32.426 37.4774 31.997 39.2715 31.4119 41.0655C30.7879 43.0546 30.1639 45.1607 29.5009 47.2278C28.9938 49.3339 28.3308 51.2839 27.7068 53.039Z" fill="#9999FF"/>
<path d="M86.0141 38.9204V64.4664C86.0141 65.5975 86.0141 66.5725 86.0531 67.4695C86.0921 68.3276 86.1311 69.1076 86.1702 69.7706C86.2482 70.4336 86.2872 70.8237 86.3262 71.2527C86.3652 71.6427 86.2092 71.7987 85.8581 71.7987H78.7209C78.3698 71.8377 78.0578 71.6427 77.9408 71.3307C77.8628 70.9797 77.7848 70.6287 77.7068 70.2776C77.6288 70.0046 77.6288 69.6926 77.6288 69.4196C76.3028 70.6287 74.6647 71.4867 72.9096 71.9937C71.4276 72.4227 69.8285 72.6177 68.2684 72.6177C66.7084 72.6177 65.1873 72.4227 63.7443 71.9157C62.4182 71.4477 61.1701 70.6677 60.1951 69.6146C59.1031 68.4446 58.323 67.0795 57.855 65.5584C57.27 63.6474 56.997 61.6583 57.036 59.6302V38.9594C56.997 38.7254 57.153 38.4524 57.465 38.4134C57.504 38.4134 57.543 38.4134 57.582 38.4134H65.5383C65.7723 38.3744 66.0453 38.5304 66.0843 38.8424C66.0843 38.8814 66.0843 38.9204 66.0843 38.9594V58.5382C66.0843 60.3712 66.5134 61.8143 67.2934 62.8673C68.0734 63.9204 69.7115 64.4664 71.5836 64.4664C72.5586 64.4664 73.4946 64.3104 74.4307 63.9594C75.4057 63.6084 76.2638 63.1794 77.0438 62.5943V38.9204C77.0438 38.6474 77.2388 38.4524 77.6288 38.4524H85.5851C85.7801 38.4134 86.0531 38.5694 86.0531 38.8034C86.0141 38.8424 86.0141 38.8814 86.0141 38.9204Z" fill="#9999FF"/>
</svg>
