<svg width="100" height="100" viewBox="0 0 100 100" fill="none" xmlns="http://www.w3.org/2000/svg">
<rect width="100" height="100" rx="24" fill="#1E3101"/>
<path d="M44.8191 61.3028H29.3228L26.17 71.1157C26.127 71.2943 26.0231 71.4523 25.8761 71.5625C25.7292 71.6727 25.5484 71.7282 25.3649 71.7194H17.5162C17.0686 71.7194 16.9121 71.4735 17.0466 70.9815L30.4632 32.5012C30.5975 32.0988 30.7315 31.7053 30.8658 31.1906C31.0413 30.2956 31.1311 29.3859 31.1341 28.4738C31.125 28.41 31.1309 28.345 31.1513 28.2839C31.1717 28.2227 31.206 28.1672 31.2516 28.1216C31.2971 28.0761 31.3527 28.0417 31.4138 28.0213C31.4749 28.0009 31.5399 27.9951 31.6037 28.0042H42.2698C42.5823 28.0042 42.7612 28.116 42.8065 28.3396L58.0346 71.0486C58.1687 71.4961 58.0345 71.7198 57.632 71.7194H48.9111C48.7613 71.736 48.6106 71.6975 48.4872 71.6111C48.3637 71.5247 48.276 71.3963 48.2403 71.2499L44.8191 61.3028ZM31.7378 53.0287H42.337C42.0686 52.1347 41.7556 51.1284 41.3979 50.0099C41.0394 48.8926 40.6593 47.6963 40.2575 46.421C39.8549 45.1465 39.4523 43.8719 39.0498 42.5972C38.6474 41.3227 38.2785 40.0928 37.9431 38.9076C37.6076 37.7233 37.3057 36.6388 37.0375 35.6542H36.9703C36.5927 37.4659 36.1225 39.2571 35.5616 41.0208C34.9348 43.0333 34.2975 45.0905 33.6496 47.1924C33.0008 49.2951 32.3636 51.2405 31.7378 53.0287Z" fill="#99E83F"/>
<path d="M62.4616 38.3861H69.7738C69.9724 38.3878 70.165 38.4543 70.3223 38.5754C70.4797 38.6964 70.5933 38.8655 70.6458 39.057C70.8028 39.4055 70.9155 39.7722 70.9813 40.1487C71.0749 40.5803 71.1421 41.0172 71.1825 41.4569C71.2265 41.9265 71.2489 42.4296 71.2497 42.9662C72.5036 41.5061 74.0158 40.2895 75.7105 39.3773C77.5283 38.3487 79.589 37.8274 81.6772 37.8679C81.7592 37.8562 81.8428 37.8637 81.9215 37.8899C82.0001 37.9161 82.0715 37.9602 82.1301 38.0188C82.1887 38.0774 82.2328 38.1488 82.259 38.2274C82.2852 38.306 82.2928 38.3897 82.281 38.4717V46.5888C82.281 46.9022 82.0566 47.0583 81.6103 47.0583C80.2178 46.9622 78.8187 47.0639 77.4547 47.3603C76.2546 47.5988 75.0846 47.97 73.9666 48.4671C73.0042 48.9147 71.9842 49.4294 71.4477 50.01V71.1157C71.4477 71.5182 71.2688 71.7195 70.911 71.7194H63.0655C62.9743 71.7325 62.8814 71.7242 62.794 71.6951C62.7067 71.666 62.6273 71.617 62.5621 71.5519C62.497 71.4868 62.448 71.4074 62.4189 71.32C62.3898 71.2327 62.3814 71.1397 62.3945 71.0486V48.1317C62.3945 47.1484 62.3834 46.1086 62.3611 45.0123C62.3379 43.9169 62.3044 42.8324 62.2604 41.7587C62.2299 40.7865 62.1403 39.8171 61.9921 38.8558C61.9753 38.7909 61.9758 38.7227 61.9935 38.658C62.0111 38.5933 62.0453 38.5343 62.0927 38.4869C62.1402 38.4395 62.1991 38.4052 62.2638 38.3875C62.3285 38.3699 62.3967 38.3694 62.4616 38.3861Z" fill="#99E83F"/>
</svg>
