<svg width="100" height="100" viewBox="0 0 100 100" fill="none" xmlns="http://www.w3.org/2000/svg">
<rect width="100" height="100" rx="24" fill="#00005B"/>
<path d="M48.8781 65.1732V72.0898C48.9198 72.5065 48.7115 72.8815 48.3365 73.0482C47.0448 73.5065 45.7531 73.7982 44.3781 73.9648C42.6281 74.1732 40.8781 74.2565 39.1281 74.2565C36.6281 74.2565 34.1281 73.9648 31.7115 73.3398C29.4615 72.7565 27.2948 71.8398 25.2948 70.5898C23.3781 69.3815 21.7115 67.8398 20.3365 66.0482C18.9198 64.1732 17.7948 62.0482 17.1281 59.7982C16.3365 57.1732 15.9615 54.4648 16.0031 51.7565C16.0031 47.2565 17.0031 43.2565 18.9615 39.8398C20.9198 36.4232 23.8365 33.6315 27.3365 31.8398C31.3365 29.7982 35.7948 28.7565 40.2948 28.8398C42.0448 28.8398 43.7531 28.9232 45.5031 29.0898C46.7115 29.2148 47.8781 29.5065 49.0448 29.8815C49.2948 30.0898 49.4198 30.3815 49.3781 30.6732V38.2148C49.3781 38.6315 49.2115 38.7565 48.9198 38.6315C47.6698 38.0482 46.2948 37.6315 44.9198 37.4232C43.2948 37.1732 41.6698 37.0482 40.0031 37.0482C37.2948 37.0065 34.6281 37.6315 32.2948 38.9232C30.2115 40.0898 28.4615 41.7982 27.3365 43.9232C26.1281 46.2565 25.5448 48.8398 25.5865 51.4648C25.5448 53.3398 25.8365 55.1732 26.4198 56.9648C26.9198 58.4648 27.7115 59.8398 28.7531 61.0482C29.6698 62.1732 30.8365 63.0898 32.0865 63.7982C33.3365 64.4648 34.6698 64.9648 36.0865 65.2982C37.4198 65.6732 38.8365 65.8815 40.2115 65.9232C41.7115 65.9232 43.2531 65.8815 44.7531 65.7148C46.0031 65.5482 47.2115 65.2565 48.3781 64.7982C48.5448 64.6732 48.6698 64.6315 48.7948 64.7148C48.8781 64.8398 48.9198 65.0065 48.8781 65.1732Z" fill="#9999FF"/>
<path d="M64.2948 49.3398V72.8398C64.2948 73.2148 64.1282 73.3814 63.8365 73.3814H55.4615C55.1698 73.4231 54.9198 73.2148 54.8782 72.9231C54.8782 72.8814 54.8782 72.8398 54.8782 72.7564V26.4648C54.8782 26.1731 55.0448 26.0064 55.4198 26.0064H63.8782C64.0865 25.9648 64.3365 26.1314 64.3365 26.3398C64.3365 26.3814 64.3365 26.4231 64.3365 26.4648L64.3782 42.2981C65.5865 41.5064 66.8782 40.8398 68.2532 40.3398C69.6698 39.8398 71.2948 39.7148 73.1698 39.7148C74.5032 39.7148 75.8365 39.9231 77.0865 40.2981C78.4198 40.6731 79.6698 41.3398 80.7532 42.2564C81.8782 43.2564 82.6698 44.6314 83.3365 46.3398C84.0032 48.0481 84.3365 50.2981 84.3365 53.0064V72.7564C84.3365 73.1731 84.1698 73.3398 83.7948 73.3398H75.9198C75.5865 73.3814 75.2948 73.1731 75.2532 72.8398C75.2532 72.7981 75.2532 72.7148 75.2532 72.6731V53.9231C75.2948 52.7148 75.0865 51.5064 74.6282 50.3814C74.2532 49.5481 73.6698 48.7981 72.8782 48.2564C71.9615 47.7148 70.8782 47.4648 69.7948 47.5064C68.7948 47.5064 67.7948 47.6314 66.8365 47.9231C65.9198 48.2981 65.0448 48.7564 64.2948 49.3398Z" fill="#9999FF"/>
</svg>
