<svg width="100" height="100" viewBox="0 0 100 100" fill="none" xmlns="http://www.w3.org/2000/svg">
<rect width="100" height="100" rx="24" fill="#470137"/>
<path d="M9.00534 71.25V28.75C8.96367 28.5 9.172 28.25 9.422 28.2083H9.46367C10.0887 28.1667 11.047 28.125 12.2553 28.125C13.5053 28.0833 14.922 28.0833 16.5887 28.0417C18.2553 28 20.0053 28 21.8803 28C26.9637 28 31.2137 28.9167 34.547 30.75C37.7553 32.4583 40.3803 35.0833 42.0887 38.2917C43.7553 41.5 44.5887 45.1667 44.5887 49.3333C44.6303 52.25 44.2137 55.125 43.297 57.875C42.5053 60.2083 41.297 62.375 39.7137 64.2917C38.2553 66.0417 36.5053 67.5417 34.5887 68.75C32.7137 69.9167 30.6303 70.7917 28.4637 71.375C26.3803 71.9167 24.2137 72.2083 22.047 72.2083H17.3387C15.672 72.2083 14.0887 72.2083 12.672 72.1667C11.2137 72.125 10.1303 72.125 9.422 72.0833C9.13034 72.0833 9.00534 71.8333 9.00534 71.4167V71.25ZM17.797 36.0833V63.875C18.2553 63.875 18.672 63.875 19.0887 63.9167C19.4637 63.9583 19.8803 63.9583 20.2553 64C20.672 64.0417 21.1303 64.0417 21.6303 64.0417C23.547 64.0833 25.4637 63.75 27.297 63.0833C28.9637 62.5 30.422 61.5417 31.672 60.25C32.922 58.9167 33.8803 57.3333 34.4637 55.625C35.1303 53.625 35.4637 51.5 35.4637 49.375C35.5053 47.375 35.172 45.375 34.5053 43.5C33.3387 40.25 30.7137 37.75 27.3803 36.75C25.5887 36.2083 23.7553 35.9167 21.8803 35.9583C21.047 35.9583 20.3387 35.9583 19.7553 36C19.172 36 18.5053 36.0417 17.797 36.0833Z" fill="#FF61F6"/>
<path d="M82.0054 71.6667H74.2137C74.0471 71.7083 73.8387 71.625 73.7137 71.5C73.5887 71.3333 73.5054 71.1667 73.4637 71C72.6721 67.6667 72.0054 64.6667 71.4637 62.125C70.9221 59.5417 70.4637 57.375 70.1304 55.5833C69.7971 53.7917 69.5054 52.2917 69.2554 51.0417C69.0471 49.7917 68.8387 48.75 68.7137 47.875H68.6721C68.2554 49.7083 67.8804 51.5 67.5054 53.2083C67.1721 54.9167 66.7554 56.6667 66.3387 58.4167C65.9221 60.1667 65.4637 62.0833 64.9221 64.1667C64.4221 66.25 63.8387 68.5417 63.2137 71C63.1304 71.4583 62.9221 71.6667 62.5471 71.6667H54.7554C54.5471 71.7083 54.3387 71.625 54.1721 71.5417C54.0471 71.4167 53.9637 71.25 53.8804 71.0833L45.7554 38.875C45.6304 38.5 45.7971 38.3333 46.2554 38.3333H54.1304C54.5054 38.3333 54.7137 38.4583 54.7554 38.75C55.5887 42.4167 56.2971 45.5833 56.8387 48.25C57.3804 50.9167 57.8387 53.1667 58.1304 55.0417C58.4221 56.9167 58.7137 58.4583 58.9221 59.625C59.1304 60.7917 59.2971 61.7917 59.4221 62.5417H59.5471C59.6304 61.875 59.7137 61.25 59.8387 60.5833C60.0054 59.7917 60.2137 58.75 60.4637 57.4583C60.7137 56.1667 61.0054 54.6667 61.3804 52.9167C61.7554 51.1667 62.1721 49.1667 62.6721 46.8333C63.1304 44.5417 63.7971 41.9167 64.5887 38.9583C64.5887 38.7917 64.6721 38.5833 64.7554 38.4167C64.7971 38.3333 64.9637 38.2917 65.2137 38.2917H73.3804C73.6304 38.2917 73.7554 38.4583 73.7971 38.75C74.5054 41.7917 75.0887 44.4583 75.5887 46.75C76.0471 49.0417 76.4637 51.0833 76.8387 52.875C77.1721 54.625 77.4637 56.1667 77.6304 57.4167C77.7971 58.7083 78.0054 59.75 78.1721 60.625C78.2971 61.3333 78.4221 62.0417 78.4637 62.75H78.5887C78.7971 61.9167 78.9637 60.9167 79.1304 59.7917C79.2971 58.6667 79.5054 57.4167 79.7971 56C80.0471 54.5833 80.3387 53.0417 80.6721 51.3333C80.9637 49.625 81.3804 47.75 81.8387 45.625C82.2971 43.5417 82.7971 41.25 83.3804 38.7917C83.4637 38.4167 83.6304 38.25 83.9221 38.25H91.2137C91.5887 38.25 91.7137 38.4583 91.6304 38.8333L82.6304 70.9583C82.5887 71.125 82.5054 71.2917 82.3804 71.4167C82.3804 71.625 82.2137 71.7083 82.0054 71.6667Z" fill="#FF61F6"/>
</svg>
