<svg width="100" height="100" viewBox="0 0 100 100" fill="none" xmlns="http://www.w3.org/2000/svg">
<rect width="100" height="100" rx="24" fill="#00005B"/>
<path d="M39.8938 61.3203H24.4251L21.261 71.125C21.1829 71.5156 20.8313 71.75 20.4798 71.7109H12.511C12.0423 71.7109 11.9251 71.4766 12.0423 70.9688L25.5188 32.4531C25.636 32.0234 25.7532 31.7109 25.9485 31.1641C26.1048 30.3047 26.1829 29.3672 26.1829 28.4688C26.1438 28.2734 26.3001 28.0391 26.5345 28H26.6516H37.3938C37.7454 28 37.9016 28.1172 37.9407 28.3516L53.136 70.9297C53.2532 71.3984 53.136 71.5938 52.7063 71.5938H43.9954C43.722 71.6328 43.4095 71.4375 43.3313 71.125L39.8938 61.2031V61.3203ZM26.847 53H37.4329C37.1985 52.1406 36.847 51.0859 36.4563 49.9922C36.0657 48.8594 35.7141 47.6484 35.3235 46.3984C34.8938 45.1094 34.5423 43.8594 34.1126 42.5703C33.6829 41.2813 33.3313 40.0703 32.9798 38.8594C32.6282 37.6875 32.3548 36.5938 32.0423 35.6172H31.9641C31.5735 37.4141 31.1438 39.2109 30.5579 41.0078C29.9329 43 29.3079 45.1094 28.6438 47.1797C28.097 49.2891 27.472 51.2422 26.847 53Z" fill="#9999FF"/>
<path d="M57.8626 71.0859V46.2813C57.8626 45.5391 57.8626 44.6406 57.8235 43.7422C57.7845 42.7656 57.7845 41.9062 57.7454 41.0859C57.7063 40.2656 57.6673 39.4453 57.6282 38.9766C57.5892 38.8594 57.5892 38.7031 57.7063 38.5469C57.8235 38.4687 57.9407 38.4297 58.136 38.4297H64.8548C65.0892 38.4297 65.3235 38.4687 65.5188 38.5469C65.6751 38.625 65.7923 38.7813 65.8704 39.0156C65.9485 39.25 66.0657 39.6016 66.1438 39.9531C66.261 40.4219 66.3392 40.8906 66.3782 41.3203C67.6673 40.1875 69.1907 39.3281 70.7923 38.7422C72.4329 38.1953 74.1126 37.9219 75.8313 37.9219C77.1595 37.9219 78.4876 38.1172 79.7376 38.5469C82.7063 39.5234 85.0501 41.7891 86.0657 44.7188C86.7298 46.4375 87.0032 48.6641 87.0032 51.3984V71.125C87.0032 71.5547 86.847 71.7109 86.4563 71.7109L78.6048 71.7891C78.2532 71.8281 77.9798 71.6328 77.9407 71.2812V71.125V52.4141C77.9017 51.1641 77.6673 49.9141 77.1595 48.7813C76.7688 47.9609 76.1829 47.1797 75.4407 46.7109C74.5813 46.1641 73.6048 45.9297 72.5892 45.9687C71.4954 45.9687 70.4017 46.125 69.4251 46.5547C68.4876 46.9453 67.6673 47.4922 66.9251 48.1563V71.2031C66.9251 71.6328 66.7688 71.7891 66.3782 71.7891H58.4485C58.1751 71.8281 57.9017 71.6328 57.8626 71.3203C57.8235 71.1641 57.8235 71.125 57.8626 71.0859Z" fill="#9999FF"/>
</svg>
