<svg width="100" height="100" viewBox="0 0 100 100" fill="none" xmlns="http://www.w3.org/2000/svg">
<rect width="100" height="100" rx="24" fill="#49021F"/>
<path d="M35.2917 30.1314V73.048C35.2917 73.5064 35.0833 73.7147 34.7083 73.7147H26.5417C26.1667 73.7147 26 73.5064 26 73.048V30.1314C26 29.7564 26.2083 29.5897 26.5833 29.5897H34.7083C34.9583 29.548 35.2083 29.7147 35.25 30.0064C35.2917 30.048 35.2917 30.0897 35.2917 30.1314Z" fill="#FF3366"/>
<path d="M59.8349 74.2148C56.7515 74.2565 53.6682 73.6315 50.8765 72.3398C48.2515 71.1315 46.0849 69.1315 44.5849 66.6731C43.0432 64.1315 42.2932 60.9648 42.2932 57.1731C42.2515 54.0898 43.0432 51.0481 44.5849 48.3815C46.1682 45.6731 48.4599 43.4231 51.2099 41.9231C54.1265 40.2981 57.6265 39.5065 61.7515 39.5065C61.9599 39.5065 62.2515 39.5065 62.6265 39.5481C63.0015 39.5898 63.4182 39.5898 63.9182 39.6315V26.4648C63.9182 26.1731 64.0432 26.0065 64.3349 26.0065H72.7932C73.0015 25.9648 73.1682 26.1315 73.2099 26.2981V26.3815V66.0481C73.2099 66.7981 73.2515 67.6315 73.2932 68.5481C73.3765 69.4231 73.4182 70.2565 73.4599 70.9648C73.4599 71.2565 73.3349 71.5065 73.0432 71.6315C70.8765 72.5481 68.5849 73.2148 66.2515 73.6315C64.1682 74.0065 62.0015 74.2148 59.8349 74.2148ZM63.9182 65.8815V47.5481C63.5432 47.4648 63.1682 47.3815 62.7932 47.3398C62.3349 47.2981 61.8765 47.2565 61.4182 47.2565C59.7932 47.2565 58.1682 47.5898 56.7099 48.3398C55.2932 49.0481 54.0849 50.0898 53.1682 51.4231C52.2515 52.7565 51.7932 54.5481 51.7932 56.7148C51.7515 58.1731 52.0015 59.6315 52.5015 61.0065C52.9182 62.1315 53.5432 63.1315 54.3765 63.9648C55.1682 64.7148 56.1265 65.2981 57.2099 65.6315C58.3349 66.0065 59.5015 66.1731 60.6682 66.1731C61.2932 66.1731 61.8765 66.1315 62.4182 66.0898C62.9599 66.1315 63.4599 66.0481 63.9182 65.8815Z" fill="#FF3366"/>
</svg>
