<svg width="100" height="100" viewBox="0 0 100 100" fill="none" xmlns="http://www.w3.org/2000/svg">
<rect width="100" height="100" rx="24" fill="#5FCAF4"/>
<path fill-rule="evenodd" clip-rule="evenodd" d="M49.4998 6.99995C26.028 6.99995 7 26.0377 7 49.5215C7 71.0829 23.0408 88.8933 43.8336 91.6656V83.0974C43.8336 80.6813 42.3105 78.5103 40.0214 77.7417C28.0245 73.7093 19.442 62.237 19.7581 48.8039C20.143 32.4506 33.4577 19.5928 49.8067 19.7576C66.0959 19.9225 79.2502 33.185 79.2502 49.5215C79.2502 49.8938 79.241 50.2643 79.2273 50.6328C79.224 50.7153 79.2214 50.7986 79.2181 50.8814C79.2024 51.2238 79.1815 51.5655 79.1547 51.9051C79.1468 52.0132 79.1357 52.121 79.1259 52.2289C79.1049 52.466 79.0807 52.7016 79.0539 52.9367C79.0238 53.2038 78.9892 53.4693 78.9519 53.7335C78.9355 53.8543 78.9192 53.9755 78.9008 54.0953C75.2584 78.1007 44.0083 91.5925 43.8368 91.6663C45.69 91.9129 47.5799 92.0425 49.4998 92.0425C72.9721 92.0425 92 73.0053 92 49.5215C92 26.0377 72.9721 6.99995 49.4998 6.99995Z" fill="white"/>
</svg>
