<svg width="100" height="100" viewBox="0 0 100 100" fill="none" xmlns="http://www.w3.org/2000/svg">
<rect width="100" height="100" rx="24" fill="white"/>
<path d="M30.9538 43.4604C30.9538 44.5064 31.0669 45.3545 31.2648 45.9764C31.4909 46.5984 31.7736 47.2768 32.1694 48.0119C32.3108 48.238 32.3673 48.4642 32.3673 48.6621C32.3673 48.9448 32.1977 49.2275 31.8302 49.5102L30.0492 50.6975C29.7947 50.8671 29.5403 50.952 29.3141 50.952C29.0314 50.952 28.7487 50.8106 28.466 50.5562C28.0703 50.1321 27.731 49.6798 27.4483 49.2275C27.1656 48.7469 26.8829 48.2098 26.5719 47.5595C24.3669 50.1604 21.5964 51.4608 18.2605 51.4608C15.8858 51.4608 13.9917 50.7823 12.6065 49.4254C11.2213 48.0684 10.5145 46.2591 10.5145 43.9975C10.5145 41.5946 11.3626 39.6439 13.0871 38.1739C14.8116 36.7038 17.1015 35.9688 20.0133 35.9688C20.9745 35.9688 21.9639 36.0536 23.0099 36.195C24.0559 36.3363 25.1302 36.5625 26.261 36.8169V34.7532C26.261 32.6047 25.8087 31.1063 24.9323 30.23C24.0276 29.3536 22.501 28.9295 20.3243 28.9295C19.3348 28.9295 18.3171 29.0426 17.2711 29.2971C16.2251 29.5515 15.2074 29.8625 14.2179 30.2582C13.7656 30.4561 13.4263 30.5692 13.2285 30.6258C13.0306 30.6823 12.8892 30.7106 12.7761 30.7106C12.3804 30.7106 12.1825 30.4279 12.1825 29.8342V28.449C12.1825 27.9966 12.239 27.6574 12.3804 27.4595C12.5217 27.2616 12.7761 27.0637 13.1719 26.8658C14.1614 26.357 15.3487 25.9329 16.7339 25.5937C18.1192 25.2262 19.5892 25.0565 21.1441 25.0565C24.5082 25.0565 26.9677 25.8198 28.5509 27.3464C30.1057 28.873 30.8973 31.1912 30.8973 34.3009V43.4604H30.9538ZM19.4761 47.7574C20.4091 47.7574 21.3702 47.5878 22.388 47.2486C23.4057 46.9093 24.3103 46.2874 25.0736 45.4393C25.526 44.9022 25.8652 44.3085 26.0348 43.63C26.2044 42.9515 26.3175 42.1317 26.3175 41.1705V39.9832C25.4977 39.7853 24.6213 39.6156 23.7167 39.5026C22.812 39.3895 21.9356 39.3329 21.0593 39.3329C19.1652 39.3329 17.7799 39.7005 16.847 40.4637C15.9141 41.227 15.4618 42.3013 15.4618 43.7148C15.4618 45.0435 15.801 46.033 16.5078 46.7114C17.1863 47.4182 18.1757 47.7574 19.4761 47.7574ZM42.177 50.8106C41.6682 50.8106 41.3289 50.7258 41.1028 50.5279C40.8766 50.3583 40.6787 49.9625 40.5091 49.4254L33.8656 27.5726C33.696 27.0072 33.6112 26.6397 33.6112 26.4418C33.6112 25.9895 33.8374 25.735 34.2897 25.735H37.0602C37.5973 25.735 37.9648 25.8198 38.1627 26.0177C38.3889 26.1873 38.5585 26.5831 38.7281 27.1203L43.4775 45.8351L47.8876 27.1203C48.029 26.5549 48.1986 26.1873 48.4247 26.0177C48.6509 25.8481 49.0467 25.735 49.5555 25.735H51.8171C52.3543 25.735 52.7218 25.8198 52.948 26.0177C53.1741 26.1873 53.372 26.5831 53.4851 27.1203L57.9518 46.0612L62.8425 27.1203C63.0121 26.5549 63.21 26.1873 63.4079 26.0177C63.634 25.8481 64.0016 25.735 64.5104 25.735H67.1395C67.5919 25.735 67.8463 25.9612 67.8463 26.4418C67.8463 26.5831 67.818 26.7245 67.7898 26.8941C67.7615 27.0637 67.7049 27.2899 67.5919 27.6008L60.7788 49.4536C60.6091 50.019 60.4113 50.3866 60.1851 50.5562C59.9589 50.7258 59.5914 50.8389 59.1108 50.8389H56.6796C56.1425 50.8389 55.775 50.7541 55.5488 50.5562C55.3226 50.3583 55.1247 49.9908 55.0117 49.4254L50.6298 31.1912L46.2762 49.3971C46.1349 49.9625 45.9652 50.33 45.7391 50.5279C45.5129 50.7258 45.1171 50.8106 44.6083 50.8106H42.177ZM78.5041 51.5739C77.0341 51.5739 75.564 51.4043 74.1505 51.065C72.737 50.7258 71.6345 50.3583 70.8995 49.9342C70.4471 49.6798 70.1362 49.3971 70.0231 49.1427C69.91 48.8882 69.8535 48.6055 69.8535 48.3511V46.9093C69.8535 46.3157 70.0796 46.033 70.5037 46.033C70.6733 46.033 70.8429 46.0612 71.0126 46.1178C71.1822 46.1743 71.4366 46.2874 71.7193 46.4005C72.6805 46.8245 73.7265 47.1638 74.829 47.3899C75.9598 47.6161 77.0623 47.7292 78.1932 47.7292C79.9742 47.7292 81.3594 47.4182 82.3206 46.7962C83.2818 46.1743 83.7906 45.2697 83.7906 44.1106C83.7906 43.319 83.5362 42.6688 83.0273 42.1317C82.5185 41.5946 81.5573 41.114 80.1721 40.6616L76.0729 39.3895C74.0092 38.7393 72.4826 37.7781 71.5497 36.5059C70.6168 35.262 70.1362 33.8768 70.1362 32.4068C70.1362 31.2194 70.3906 30.1734 70.8995 29.2688C71.4083 28.3641 72.0868 27.5726 72.9349 26.9506C73.783 26.3004 74.7442 25.8198 75.875 25.4806C77.0058 25.1414 78.1932 25 79.437 25C80.059 25 80.7092 25.0283 81.3311 25.1131C81.9814 25.1979 82.575 25.311 83.1687 25.4241C83.7341 25.5654 84.2712 25.7068 84.7801 25.8764C85.2889 26.046 85.6847 26.2156 85.9674 26.3852C86.3632 26.6114 86.6459 26.8376 86.8155 27.092C86.9852 27.3181 87.07 27.6291 87.07 28.0249V29.3536C87.07 29.9473 86.8438 30.2582 86.4198 30.2582C86.1936 30.2582 85.8261 30.1452 85.3455 29.919C83.7341 29.184 81.9248 28.8165 79.9176 28.8165C78.3062 28.8165 77.0341 29.0709 76.1577 29.608C75.2813 30.1452 74.829 30.965 74.829 32.1241C74.829 32.9156 75.1117 33.5941 75.6771 34.1312C76.2425 34.6684 77.2885 35.2055 78.7868 35.6861L82.8012 36.9583C84.8366 37.6085 86.3067 38.5131 87.183 39.6722C88.0594 40.8313 88.4835 42.16 88.4835 43.63C88.4835 44.8456 88.229 45.9481 87.7484 46.9093C87.2396 47.8705 86.5611 48.7186 85.6847 49.3971C84.8084 50.1039 83.7624 50.6127 82.5468 50.9802C81.2746 51.376 79.9459 51.5739 78.5041 51.5739Z" fill="#252F3E"/>
<path fill-rule="evenodd" clip-rule="evenodd" d="M83.8472 65.3132C74.5463 72.1828 61.0332 75.8296 49.4142 75.8296C33.1306 75.8296 18.4584 69.8081 7.37656 59.8005C6.50019 59.0089 7.29175 57.9347 8.33775 58.5566C20.3243 65.511 35.1095 69.7233 50.4037 69.7233C60.7222 69.7233 72.0586 67.5748 82.4902 63.1646C84.0451 62.4579 85.3738 64.1823 83.8472 65.3132Z" fill="#FF9900"/>
<path fill-rule="evenodd" clip-rule="evenodd" d="M87.7202 60.9032C86.5328 59.3766 79.8611 60.1681 76.8362 60.5356C75.9315 60.6487 75.7902 59.8572 76.61 59.2635C81.9248 55.5318 90.6602 56.6061 91.678 57.85C92.6957 59.1221 91.3953 67.8576 86.4197 72.0416C85.6564 72.6918 84.9214 72.3526 85.2607 71.5044C86.3915 68.7057 88.9075 62.4015 87.7202 60.9032Z" fill="#FF9900"/>
</svg>
