<svg width="100" height="100" viewBox="0 0 100 100" fill="none" xmlns="http://www.w3.org/2000/svg">
<rect width="100" height="100" rx="24" fill="white"/>
<path fill-rule="evenodd" clip-rule="evenodd" d="M56.076 31.6298C53.6273 31.8135 50.8113 31.9971 47.9953 32.3644C43.6795 32.946 39.3637 33.6806 35.8131 35.3641C28.8649 38.18 24.1818 44.1793 24.1818 52.9946C24.1818 64.0749 31.3136 69.7069 40.3125 69.7069C43.3122 69.7069 45.7609 69.3396 47.9953 68.758C51.5765 67.6255 54.5761 65.5747 58.1267 61.8099C60.1775 64.6259 60.7591 65.942 64.3097 68.9417C65.2585 69.309 66.1768 69.309 66.942 68.758C69.207 66.8909 73.1555 63.4933 75.2063 61.6262C76.1552 60.861 75.9715 59.7591 75.39 58.8102C73.3392 56.1779 71.2578 53.9129 71.2578 48.8624V32.0277C71.2578 24.8959 71.8394 18.3151 66.5747 13.4483C62.2589 9.49982 55.4944 8 50.2297 8H47.9647C38.4148 8.55095 28.2834 12.6831 26.0183 24.5286C25.651 26.0284 26.7836 26.61 27.5182 26.7937L38.0169 28.1098C39.1494 27.9262 39.7004 26.9773 39.884 26.0591C40.8329 21.9269 44.1998 19.8761 47.9341 19.4782H48.6993C50.9643 19.4782 53.3824 20.4271 54.6986 22.2942C56.1984 24.5592 56.0147 27.5589 56.0147 30.1912L56.076 31.6298ZM53.9946 53.9741C52.6784 56.6064 50.4134 58.2899 47.9953 58.8714C47.628 58.8714 47.0464 59.0551 46.4955 59.0551C42.3633 59.0551 39.9452 55.8718 39.9452 51.1581C39.9452 45.1588 43.4958 42.3428 47.9953 41.0266C50.444 40.4757 53.26 40.2614 56.076 40.2614V42.5265C56.076 46.8423 56.2596 50.2092 53.9946 53.9741Z" fill="black"/>
<path fill-rule="evenodd" clip-rule="evenodd" d="M81.726 76.8385C81.2974 76.8385 80.8689 76.9304 80.471 77.114C80.0119 77.2977 79.5527 77.5119 79.1242 77.6956L78.4815 77.9711L77.655 78.3078C68.5337 82.0114 58.9532 84.1846 50.0767 84.3683C49.74 84.3683 49.4339 84.3683 49.0972 84.3683C35.1397 84.3683 23.7533 77.9099 12.2751 71.5127C11.8772 71.2984 11.4487 71.2066 11.0508 71.2066C10.5304 71.2066 10.0101 71.3902 9.61217 71.7575C9.21426 72.1248 9 72.6452 9 73.1961C9 73.9001 9.36731 74.5429 9.88765 74.9408C20.6619 84.307 32.4768 92.9999 48.3626 92.9999C48.6687 92.9999 48.9748 92.9999 49.3115 92.9999C59.4123 92.7856 70.8293 89.3575 79.7058 83.7867L79.767 83.7561C80.9301 83.0521 82.0933 82.2563 83.1952 81.3992C83.8686 80.9095 84.3583 80.1137 84.3583 79.2872C84.2971 77.818 83.0727 76.8385 81.726 76.8385ZM94.0306 71.6657C94 70.7781 93.8163 70.1047 93.449 69.5537L93.4184 69.4925L93.3878 69.4313C93.0205 69.0334 92.6532 68.8803 92.2553 68.6967C91.0922 68.2375 89.4087 67.9927 87.3579 67.9927C85.8887 67.9927 84.2665 68.1457 82.6442 68.4824V68.36L81.022 68.9109H80.9913L80.0731 69.217V69.2476C79.0018 69.7068 77.9917 70.2577 77.0735 70.9311C76.4919 71.3596 76.0328 71.9106 76.0022 72.7982C76.0022 73.2574 76.2164 73.8083 76.6143 74.1144C77.0122 74.4205 77.4714 74.5429 77.8693 74.5429C77.9611 74.5429 78.0529 74.5429 78.1448 74.5123H78.2366H78.2978C79.0936 74.3286 80.2567 74.2368 81.6341 74.0226C82.7973 73.9001 84.0522 73.8083 85.1235 73.8083C85.8887 73.8083 86.5621 73.8695 87.0518 73.9613C87.2967 74.0226 87.4498 74.0838 87.5416 74.1144C87.5722 74.1144 87.6028 74.145 87.6028 74.145C87.6334 74.2062 87.664 74.3899 87.6334 74.6041C87.6334 75.4918 87.2661 77.1752 86.7458 78.7975C86.2254 80.4198 85.6133 82.0726 85.2153 83.1439C85.1235 83.3888 85.0623 83.6643 85.0623 83.9704C85.0623 84.3989 85.2459 84.9498 85.6132 85.2865C85.9805 85.6232 86.4703 85.7763 86.8682 85.7763H86.8988C87.511 85.7763 88.0007 85.5314 88.4598 85.1947C92.6226 81.4604 94.0612 75.4918 94.1224 72.1554L94.0306 71.6657Z" fill="#FF9900"/>
</svg>
