<svg width="100" height="100" viewBox="0 0 100 100" fill="none" xmlns="http://www.w3.org/2000/svg">
<rect width="100" height="100" rx="24" fill="black"/>
<path d="M26.9631 58.9255H22.249L20.8069 55.4471H12.9503L11.6364 58.9255H7L14.0834 41.3575H19.158L26.9631 58.9255ZM16.6852 45.5554L14.1094 52.3813H19.5189L16.6852 45.5554ZM44.0872 41.3575H47.8995V58.9255H43.5199V47.952L38.7803 53.4639H38.1109L33.3716 47.952V58.9252H28.9921V41.3575H32.8043L38.4453 47.8744L44.0872 41.3575ZM58.9961 41.3575C65.4098 41.3575 68.7064 45.3496 68.7064 50.1665C68.7064 55.2152 65.5127 58.9255 58.5064 58.9255H51.2422V41.3575H58.9961ZM55.6214 55.7056H58.4801C62.885 55.7056 64.1988 52.7169 64.1988 50.1405C64.1988 47.1264 62.5758 44.5769 58.4286 44.5769H55.6213V55.7056H55.6214ZM77.4192 45.523L71.8972 40H92V60.1036L86.478 54.5812V45.523H77.4192ZM77.4127 46.6297L71.7275 52.3147V60.2727H79.6845L85.3694 54.5877H77.4127V46.6297Z" fill="white"/>
</svg>
