<svg width="100" height="100" viewBox="0 0 100 100" fill="none" xmlns="http://www.w3.org/2000/svg">
<g clip-path="url(#clip0_222_654)">
<rect width="100" height="100" rx="24" fill="#016FD0"/>
<path d="M19.364 69.5098V53.8489H35.946L37.7251 56.1681L39.563 53.8489H99.7517V68.4298C99.7517 68.4298 98.1776 69.4942 96.3572 69.5098H63.0295L61.0237 67.0411V69.5098H54.4507V65.2956C54.4507 65.2956 53.5528 65.8839 51.6117 65.8839H49.3744V69.5098H39.4224L37.6458 67.1408L35.842 69.5098H19.364Z" fill="white"/>
<path d="M0 42.0453L3.73931 33.3276H10.2061L12.3282 38.2109V33.3276H20.3669L21.6302 36.8571L22.8549 33.3276H58.9407V35.102C58.9407 35.102 60.8377 33.3276 63.9553 33.3276L75.6637 33.3686L77.7492 38.1879V33.3276H84.4765L86.328 36.096V33.3276H93.117V48.9886H86.328L84.5536 46.2113V48.9886H74.6698L73.6758 46.5198H71.0187L70.0409 48.9886H63.3381C60.6555 48.9886 58.9407 47.2504 58.9407 47.2504V48.9886H48.8344L46.8285 46.5198V48.9886H9.24805L8.25478 46.5198H5.60614L4.61989 48.9886H0V42.0453Z" fill="white"/>
<path d="M5.0628 35.2583L0.0192871 46.9847H3.30288L4.23347 44.6365H9.64343L10.5692 46.9847H13.9251L8.88642 35.2583H5.0628ZM6.92881 37.9874L8.57784 42.0907H5.27496L6.92881 37.9874Z" fill="#016FD0"/>
<path d="M14.2723 46.9828V35.2563L18.9385 35.2737L21.6525 42.8341L24.3015 35.2563H28.9304V46.9828H25.9988V38.3422L22.8912 46.9828H20.3202L17.2039 38.3422V46.9828H14.2723Z" fill="#016FD0"/>
<path d="M30.9362 46.9828V35.2563H40.5024V37.8794H33.8986V39.8852H40.3482V42.3539H33.8986V44.4369H40.5024V46.9828H30.9362Z" fill="#016FD0"/>
<path d="M42.1997 35.2583V46.9847H45.1313V42.8187H46.3657L49.8807 46.9847H53.4632L49.6059 42.6645C51.189 42.5309 52.822 41.1721 52.822 39.0626C52.822 36.595 50.8851 35.2583 48.7235 35.2583H42.1997ZM45.1313 37.8813H48.4824C49.2863 37.8813 49.8711 38.5101 49.8711 39.1157C49.8711 39.8947 49.1134 40.35 48.5258 40.35H45.1313V37.8813Z" fill="#016FD0"/>
<path d="M57.012 46.9828H54.0187V35.2563H57.012V46.9828Z" fill="#016FD0"/>
<path d="M64.1096 46.9828H63.4634C60.3373 46.9828 58.4392 44.5198 58.4392 41.1678C58.4392 37.7329 60.316 35.2563 64.2638 35.2563H67.504V38.0337H64.1454C62.5428 38.0337 61.4094 39.2843 61.4094 41.1967C61.4094 43.4677 62.7054 44.4215 64.5724 44.4215H65.3439L64.1096 46.9828Z" fill="#016FD0"/>
<path d="M70.4887 35.2583L65.4452 46.9847H68.7288L69.6594 44.6365H75.0693L75.9951 46.9847H79.351L74.3123 35.2583H70.4887ZM72.3547 37.9874L74.0037 42.0907H70.7009L72.3547 37.9874Z" fill="#016FD0"/>
<path d="M79.6934 46.9828V35.2563H83.4206L88.1796 42.6239V35.2563H91.1112V46.9828H87.5045L82.625 39.4223V46.9828H79.6934Z" fill="#016FD0"/>
<path d="M21.3699 67.504V55.7776H30.9362V58.4006H24.3323V60.4064H30.7819V62.8752H24.3323V64.9581H30.9362V67.504H21.3699Z" fill="#016FD0"/>
<path d="M68.2446 67.504V55.7776H77.8109V58.4006H71.2071V60.4064H77.6258V62.8752H71.2071V64.9581H77.8109V67.504H68.2446Z" fill="#016FD0"/>
<path d="M31.3074 67.504L35.9652 61.7131L31.1965 55.7776H34.89L37.73 59.4469L40.5796 55.7776H44.1284L39.4224 61.6408L44.0887 67.504H40.3959L37.6383 63.8925L34.9478 67.504H31.3074Z" fill="#016FD0"/>
<path d="M44.4369 55.7795V67.506H47.4456V63.8029H50.5315C53.1426 63.8029 55.1218 62.4176 55.1218 59.7237C55.1218 57.4921 53.5695 55.7795 50.9125 55.7795H44.4369ZM47.4456 58.4315H50.6955C51.539 58.4315 52.142 58.9485 52.142 59.7816C52.142 60.5642 51.5421 61.1316 50.6858 61.1316H47.4456V58.4315Z" fill="#016FD0"/>
<path d="M56.3948 55.7776V67.504H59.3264V63.338H60.5607L64.0758 67.504H67.6583L63.8009 63.1838C65.384 63.0501 67.017 61.6914 67.017 59.5819C67.017 57.1143 65.0802 55.7776 62.9186 55.7776H56.3948ZM59.3264 58.4006H62.6775C63.4814 58.4006 64.0661 59.0294 64.0661 59.635C64.0661 60.414 63.3085 60.8693 62.7209 60.8693H59.3264V58.4006Z" fill="#016FD0"/>
<path d="M79.1688 67.504V64.9581H85.0358C85.9039 64.9581 86.2798 64.489 86.2798 63.9745C86.2798 63.4816 85.9051 62.9832 85.0358 62.9832H82.3846C80.08 62.9832 78.7965 61.5791 78.7965 59.471C78.7965 57.5908 79.9719 55.7776 83.3964 55.7776H89.1053L87.871 58.416H82.9335C81.9897 58.416 81.6992 58.9113 81.6992 59.3842C81.6992 59.8704 82.0582 60.4064 82.7792 60.4064H85.5566C88.1256 60.4064 89.2404 61.8637 89.2404 63.772C89.2404 65.8236 87.9981 67.504 85.4167 67.504H79.1688Z" fill="#016FD0"/>
<path d="M89.9284 67.504V64.9581H95.7955C96.6636 64.9581 97.0395 64.489 97.0395 63.9745C97.0395 63.4816 96.6648 62.9832 95.7955 62.9832H93.1442C90.8396 62.9832 89.5562 61.5791 89.5562 59.471C89.5562 57.5908 90.7315 55.7776 94.1561 55.7776H99.865L98.6306 58.416H93.6932C92.7494 58.416 92.4588 58.9113 92.4588 59.3842C92.4588 59.8704 92.8179 60.4064 93.5389 60.4064H96.3162C98.8852 60.4064 100 61.8637 100 63.772C100 65.8236 98.7578 67.504 96.1763 67.504H89.9284Z" fill="#016FD0"/>
</g>
<defs>
<clipPath id="clip0_222_654">
<rect width="100" height="100" rx="24" fill="white"/>
</clipPath>
</defs>
</svg>
