<svg width="100" height="100" viewBox="0 0 100 100" fill="none" xmlns="http://www.w3.org/2000/svg">
<rect width="100" height="100" rx="24" fill="#231F20"/>
<path d="M65.2716 54.0794C61.9615 54.0794 58.994 55.5459 56.9619 57.8547L51.7547 54.1683C52.3074 52.6465 52.6248 51.0123 52.6248 49.3018C52.6248 47.621 52.3185 46.0143 51.7839 44.5149L56.9795 40.8676C59.0114 43.1648 61.9711 44.6233 65.2716 44.6233C71.381 44.6233 76.3522 39.6529 76.3522 33.5426C76.3522 27.4323 71.381 22.4619 65.2716 22.4619C59.1621 22.4619 54.1909 27.4323 54.1909 33.5426C54.1909 34.6363 54.3561 35.6909 54.6526 36.6897L49.4536 40.3388C47.2818 37.6445 44.1548 35.7633 40.592 35.189V28.9231C45.6113 27.8689 49.3931 23.4094 49.3931 18.0807C49.3931 11.9704 44.4219 7 38.3124 7C32.2029 7 27.2317 11.9704 27.2317 18.0807C27.2317 23.338 30.9156 27.7425 35.8345 28.872V35.2193C29.1215 36.3976 24 42.2562 24 49.3018C24 56.3819 29.1722 62.2619 35.9337 63.4001V70.1024C30.9645 71.1947 27.2317 75.6262 27.2317 80.9193C27.2317 87.0296 32.2029 92 38.3124 92C44.4219 92 49.3931 87.0296 49.3931 80.9193C49.3931 75.6262 45.6603 71.1947 40.6912 70.1024V63.3999C44.1135 62.8235 47.2096 61.0228 49.4029 58.3332L54.6449 62.0435C54.3539 63.0333 54.1909 64.0774 54.1909 65.1601C54.1909 71.2703 59.1621 76.2408 65.2716 76.2408C71.381 76.2408 76.3522 71.2703 76.3522 65.1601C76.3522 59.0498 71.381 54.0794 65.2716 54.0794ZM65.2716 28.1701C68.2342 28.1701 70.6438 30.5808 70.6438 33.5426C70.6438 36.5044 68.2342 38.9148 65.2716 38.9148C62.309 38.9148 59.8993 36.5044 59.8993 33.5426C59.8993 30.5808 62.309 28.1701 65.2716 28.1701ZM32.94 18.0807C32.94 15.1189 35.3498 12.7084 38.3124 12.7084C41.275 12.7084 43.6847 15.1189 43.6847 18.0807C43.6847 21.0425 41.275 23.4529 38.3124 23.4529C35.3498 23.4529 32.94 21.0425 32.94 18.0807ZM43.6847 80.9193C43.6847 83.8811 41.275 86.2916 38.3124 86.2916C35.3498 86.2916 32.94 83.8811 32.94 80.9193C32.94 77.9575 35.3498 75.5471 38.3124 75.5471C41.275 75.5471 43.6847 77.9575 43.6847 80.9193ZM38.312 56.7943C34.1801 56.7943 30.8187 53.4336 30.8187 49.3018C30.8187 45.1699 34.1801 41.8085 38.312 41.8085C42.4437 41.8085 45.8051 45.1699 45.8051 49.3018C45.8051 53.4336 42.4437 56.7943 38.312 56.7943ZM65.2716 70.5325C62.309 70.5325 59.8993 68.1219 59.8993 65.1601C59.8993 62.1983 62.309 59.7878 65.2716 59.7878C68.2342 59.7878 70.6438 62.1983 70.6438 65.1601C70.6438 68.1219 68.2342 70.5325 65.2716 70.5325Z" fill="white"/>
</svg>
