<svg width="100" height="100" viewBox="0 0 100 100" fill="none" xmlns="http://www.w3.org/2000/svg">
<rect width="100" height="100" rx="24" fill="white"/>
<g clip-path="url(#clip0_175_1107)">
<path d="M62.1772 8.40422C60.8439 9.19055 58.6297 11.4188 55.9851 14.6466L58.4145 19.2318C60.1199 16.7924 61.8514 14.5983 63.599 12.724C63.7338 12.5752 63.8042 12.5048 63.8042 12.5048C63.7358 12.5772 63.6674 12.6516 63.599 12.724C63.0339 13.3474 61.3185 15.3485 58.7302 19.3223C61.2219 19.1976 65.051 18.6888 68.1742 18.1539C69.1033 12.9492 67.2632 10.5661 67.2632 10.5661C67.2632 10.5661 64.9243 6.78129 62.1772 8.40422Z" fill="url(#paint0_linear_175_1107)"/>
<path d="M54.0182 46.9102C53.7085 46.9666 53.3888 47.0209 53.061 47.0772C53.059 47.0772 53.0569 47.0792 53.0549 47.0792C53.2198 47.055 53.3827 47.0309 53.5436 47.0028C53.7045 46.9746 53.8614 46.9444 54.0182 46.9102Z" fill="#BE202E"/>
<path opacity="0.35" d="M54.0182 46.9102C53.7085 46.9666 53.3888 47.0209 53.061 47.0772C53.059 47.0772 53.0569 47.0792 53.0549 47.0792C53.2198 47.055 53.3827 47.0309 53.5436 47.0028C53.7045 46.9746 53.8614 46.9444 54.0182 46.9102Z" fill="#BE202E"/>
<path d="M54.8307 42.9022C54.8307 42.9022 54.8287 42.9021 54.8287 42.9042C54.8267 42.9042 54.8267 42.9062 54.8247 42.9062C54.877 42.9001 54.9273 42.8901 54.9775 42.8841C55.1847 42.8539 55.3878 42.8177 55.5849 42.7755C55.3375 42.8157 55.0861 42.8599 54.8307 42.9022Z" fill="#BE202E"/>
<path opacity="0.35" d="M54.8307 42.9022C54.8307 42.9022 54.8287 42.9021 54.8287 42.9042C54.8267 42.9042 54.8267 42.9062 54.8247 42.9062C54.877 42.9001 54.9273 42.8901 54.9775 42.8841C55.1847 42.8539 55.3878 42.8177 55.5849 42.7755C55.3375 42.8157 55.0861 42.8599 54.8307 42.9022Z" fill="#BE202E"/>
<path d="M51.253 31.0791C51.991 29.6995 52.7392 28.3501 53.4953 27.0368C54.2796 25.6733 55.074 24.35 55.8764 23.075C55.9227 23.0006 55.971 22.9242 56.0172 22.8478C56.8096 21.5929 57.61 20.3862 58.4164 19.2319L55.987 14.6466C55.804 14.8698 55.621 15.0971 55.434 15.3284C54.7341 16.2012 54.0061 17.1403 53.26 18.1358C52.4194 19.258 51.5546 20.4566 50.6758 21.7135C49.8653 22.8759 49.0428 24.0926 48.2203 25.3515C47.5204 26.4234 46.8166 27.5275 46.1187 28.6598L46.0403 28.7865L49.2017 35.0308C49.8774 33.6935 50.5612 32.3742 51.253 31.0791Z" fill="url(#paint1_linear_175_1107)"/>
<path d="M36.8537 66.2628C36.4354 67.4131 36.0151 68.5836 35.5928 69.7802C35.5868 69.7983 35.5807 69.8143 35.5747 69.8324C35.5144 70.0014 35.456 70.1703 35.3957 70.3392C35.1122 71.1457 34.8648 71.8717 34.2997 73.5228C35.2308 73.9471 35.9789 75.0653 36.6868 76.3342C36.6124 75.021 36.0674 73.7862 35.0357 72.831C39.627 73.0381 43.5828 71.8777 45.6281 68.5212C45.8111 68.2216 45.978 67.9078 46.1288 67.572C45.1997 68.7505 44.0474 69.2512 41.8774 69.1286C45.071 67.6987 46.6738 66.3271 48.0896 64.0526C48.4255 63.5137 48.7513 62.9244 49.0851 62.2708C46.2917 65.1386 43.0559 65.9551 39.6471 65.3357L37.0911 65.6152C37.0106 65.8304 36.9322 66.0456 36.8537 66.2628Z" fill="url(#paint2_linear_175_1107)"/>
<path d="M38.0463 60.5372C38.5993 59.1094 39.1685 57.6654 39.7517 56.2074C40.3107 54.8117 40.8859 53.408 41.4731 51.9962C42.0604 50.5844 42.6617 49.1707 43.2751 47.7549C43.8985 46.3149 44.536 44.877 45.1836 43.4472C45.8251 42.0334 46.4787 40.6256 47.1424 39.2319C47.3817 38.7292 47.623 38.2284 47.8643 37.7297C48.2826 36.8669 48.705 36.0122 49.1313 35.1656C49.1534 35.1193 49.1776 35.0751 49.2017 35.0288L46.0403 28.7844C45.988 28.8689 45.9377 28.9534 45.8854 29.0378C45.1494 30.2404 44.4153 31.4712 43.6954 32.7281C42.9674 33.9971 42.2534 35.2902 41.5556 36.6015C40.9664 37.7076 40.3912 38.8237 39.8321 39.9499C39.7195 40.1792 39.6089 40.4044 39.4983 40.6317C38.8085 42.0495 38.1871 43.419 37.624 44.7363C36.9864 46.2285 36.4254 47.6543 35.9346 49.0058C35.6109 49.8947 35.3173 50.7534 35.0478 51.5779C34.8265 52.2818 34.6154 52.9877 34.4163 53.6895C33.9437 55.3447 33.5375 56.9958 33.2036 58.6408L36.3811 64.9133C36.8014 63.7912 37.2318 62.6549 37.6742 61.5026C37.7969 61.1828 37.9216 60.859 38.0463 60.5372Z" fill="url(#paint3_linear_175_1107)"/>
<path d="M33.1614 58.864C32.7632 60.8711 32.4797 62.8701 32.3369 64.857C32.3329 64.9274 32.3248 64.9958 32.3208 65.0662C31.3293 63.4775 28.6747 61.9269 28.6808 61.941C30.5812 64.6962 32.0232 67.4312 32.2383 70.116C31.2207 70.3252 29.8271 70.0235 28.2162 69.4302C29.8954 70.9727 31.1564 71.3991 31.6471 71.5137C30.1046 71.6102 28.4978 72.6701 26.8788 73.8908C29.2459 72.9255 31.1584 72.5434 32.5279 72.8531C30.356 79.0029 28.178 85.7923 26 93C26.6677 92.8029 27.0659 92.3544 27.2891 91.7471C27.6772 90.4419 30.2534 81.8788 34.2896 70.6228C34.4043 70.303 34.5209 69.9813 34.6376 69.6575C34.6697 69.567 34.7039 69.4765 34.7361 69.388C35.1624 68.2075 35.6049 67.0029 36.0614 65.7741C36.166 65.4946 36.2705 65.215 36.3751 64.9335C36.3771 64.9274 36.3791 64.9214 36.3812 64.9174L33.2077 58.6469C33.1936 58.7172 33.1755 58.7896 33.1614 58.864Z" fill="url(#paint4_linear_175_1107)"/>
<path d="M49.6924 35.5577C49.6019 35.7427 49.5114 35.9298 49.4189 36.1188C49.1454 36.6839 48.8679 37.2591 48.5864 37.8483C48.2827 38.4858 47.977 39.1374 47.6673 39.8051C47.5104 40.141 47.3556 40.4788 47.1967 40.8227C46.7241 41.8504 46.2455 42.9122 45.7588 44.0083C45.1615 45.3557 44.5521 46.7554 43.9347 48.2094C43.3455 49.595 42.7482 51.0289 42.1429 52.5131C41.5677 53.9208 40.9865 55.3748 40.3973 56.8731C39.8724 58.2104 39.3435 59.582 38.8085 60.9938C38.7824 61.0622 38.7562 61.1305 38.7321 61.1989C38.2012 62.6006 37.6662 64.0405 37.1273 65.5167C37.1152 65.5509 37.1031 65.5851 37.0911 65.6172L39.6471 65.3377C39.5969 65.3276 39.5446 65.3216 39.4943 65.3115C42.5511 64.9315 46.6135 62.6469 49.24 59.8274C50.4506 58.5282 51.5487 56.9958 52.5643 55.2019C53.3204 53.8665 54.0303 52.3864 54.7061 50.7474C55.2973 49.3155 55.8644 47.7649 56.4114 46.0837C55.7096 46.4537 54.9051 46.7252 54.0183 46.9143C53.8634 46.9464 53.7045 46.9786 53.5436 47.0068C53.3828 47.0349 53.2199 47.0611 53.055 47.0832C53.057 47.0832 53.059 47.0812 53.061 47.0812C55.9107 45.9851 57.7086 43.8675 59.0158 41.2752C58.2656 41.786 57.0469 42.4557 55.5869 42.7775C55.3878 42.8217 55.1847 42.8559 54.9796 42.8861C54.9273 42.8941 54.877 42.9022 54.8267 42.9082C54.8287 42.9082 54.8287 42.9062 54.8307 42.9062C54.8307 42.9062 54.8327 42.9062 54.8327 42.9042C55.8222 42.4899 56.6568 42.0273 57.3808 41.4803C57.5356 41.3637 57.6865 41.243 57.8313 41.1163C58.0525 40.9253 58.2616 40.7242 58.4627 40.513C58.5914 40.3783 58.7161 40.2395 58.8368 40.0947C59.1204 39.7568 59.3858 39.3928 59.6352 38.9967C59.7116 38.876 59.786 38.7533 59.8604 38.6266C59.9549 38.4436 60.0454 38.2646 60.1339 38.0877C60.5321 37.2872 60.8499 36.5733 61.1033 35.9459C61.23 35.6321 61.3406 35.3425 61.4351 35.0731C61.4733 34.9665 61.5095 34.8619 61.5437 34.7613C61.6443 34.4597 61.7267 34.1922 61.7911 33.9569C61.8876 33.605 61.9459 33.3254 61.9781 33.1223C61.8816 33.1987 61.7709 33.2752 61.6463 33.3496C60.7855 33.8644 59.3094 34.331 58.1188 34.5502C58.1007 34.5542 58.0826 34.5562 58.0645 34.5602C57.9459 34.5803 57.8252 34.5984 57.7046 34.6186C57.7267 34.6085 57.7448 34.5984 57.7669 34.5904L49.7367 35.4712C49.7226 35.4994 49.7085 35.5276 49.6924 35.5577Z" fill="url(#paint5_linear_175_1107)"/>
<path d="M58.7322 19.3244C58.0182 20.4204 57.2379 21.6652 56.3993 23.075C56.3551 23.1474 56.3108 23.2238 56.2666 23.2982C55.5426 24.519 54.7724 25.8583 53.9639 27.3264C53.2641 28.5934 52.536 29.9529 51.7799 31.4149C51.1203 32.6879 50.4385 34.0394 49.7386 35.4692L57.7689 34.5884C60.1077 33.5125 61.1535 32.5391 62.1691 31.1314C62.4386 30.7432 62.7101 30.337 62.9796 29.9167C63.8041 28.6296 64.6125 27.2118 65.3365 25.802C66.0344 24.4405 66.6498 23.0911 67.1224 21.8744C67.422 21.1001 67.6633 20.3802 67.8303 19.7487C67.9771 19.1916 68.0917 18.6627 68.1802 18.1579C65.053 18.6909 61.2239 19.2017 58.7322 19.3244Z" fill="url(#paint6_linear_175_1107)"/>
<path d="M53.5436 47.0027C53.3827 47.0309 53.2198 47.057 53.0549 47.0792C53.2198 47.057 53.3827 47.0309 53.5436 47.0027Z" fill="#BE202E"/>
<path opacity="0.35" d="M53.5436 47.0027C53.3827 47.0309 53.2198 47.057 53.0549 47.0792C53.2198 47.057 53.3827 47.0309 53.5436 47.0027Z" fill="#BE202E"/>
<path d="M54.8228 42.9062C54.875 42.9002 54.9253 42.8901 54.9756 42.8841C54.9253 42.8901 54.875 42.8981 54.8228 42.9062Z" fill="#BE202E"/>
<path opacity="0.35" d="M54.8228 42.9062C54.875 42.9002 54.9253 42.8901 54.9756 42.8841C54.9253 42.8901 54.875 42.8981 54.8228 42.9062Z" fill="#BE202E"/>
<path d="M54.8228 42.9062C54.875 42.9002 54.9253 42.8901 54.9756 42.8841C54.9253 42.8901 54.875 42.8981 54.8228 42.9062Z" fill="url(#paint7_linear_175_1107)"/>
<path d="M54.8287 42.9042C54.8287 42.9042 54.8307 42.9042 54.8307 42.9022C54.8307 42.9022 54.8287 42.9022 54.8287 42.9042Z" fill="#BE202E"/>
<path opacity="0.35" d="M54.8287 42.9042C54.8287 42.9042 54.8307 42.9042 54.8307 42.9022C54.8307 42.9022 54.8287 42.9022 54.8287 42.9042Z" fill="#BE202E"/>
<path d="M54.8287 42.9042C54.8287 42.9042 54.8307 42.9042 54.8307 42.9022C54.8307 42.9022 54.8287 42.9022 54.8287 42.9042Z" fill="url(#paint8_linear_175_1107)"/>
</g>
<defs>
<linearGradient id="paint0_linear_175_1107" x1="58.0458" y1="15.2095" x2="75.8428" y2="10.2612" gradientUnits="userSpaceOnUse">
<stop stop-color="#F69923"/>
<stop offset="0.3123" stop-color="#F79A23"/>
<stop offset="0.8383" stop-color="#E97826"/>
</linearGradient>
<linearGradient id="paint1_linear_175_1107" x1="19.0914" y1="95.0845" x2="55.289" y2="17.4547" gradientUnits="userSpaceOnUse">
<stop offset="0.3233" stop-color="#9E2064"/>
<stop offset="0.6302" stop-color="#C92037"/>
<stop offset="0.7514" stop-color="#CD2335"/>
<stop offset="1" stop-color="#E97826"/>
</linearGradient>
<linearGradient id="paint2_linear_175_1107" x1="31.2471" y1="89.3441" x2="52.8174" y2="43.0843" gradientUnits="userSpaceOnUse">
<stop stop-color="#282662"/>
<stop offset="0.0954839" stop-color="#662E8D"/>
<stop offset="0.7882" stop-color="#9F2064"/>
<stop offset="0.9487" stop-color="#CD2032"/>
</linearGradient>
<linearGradient id="paint3_linear_175_1107" x1="20.401" y1="90.387" x2="56.5987" y2="12.7573" gradientUnits="userSpaceOnUse">
<stop offset="0.3233" stop-color="#9E2064"/>
<stop offset="0.6302" stop-color="#C92037"/>
<stop offset="0.7514" stop-color="#CD2335"/>
<stop offset="1" stop-color="#E97826"/>
</linearGradient>
<linearGradient id="paint4_linear_175_1107" x1="24.0913" y1="85.2152" x2="43.1143" y2="44.4184" gradientUnits="userSpaceOnUse">
<stop stop-color="#282662"/>
<stop offset="0.0954839" stop-color="#662E8D"/>
<stop offset="0.7882" stop-color="#9F2064"/>
<stop offset="0.9487" stop-color="#CD2032"/>
</linearGradient>
<linearGradient id="paint5_linear_175_1107" x1="28.4355" y1="94.1334" x2="64.6332" y2="16.5037" gradientUnits="userSpaceOnUse">
<stop offset="0.3233" stop-color="#9E2064"/>
<stop offset="0.6302" stop-color="#C92037"/>
<stop offset="0.7514" stop-color="#CD2335"/>
<stop offset="1" stop-color="#E97826"/>
</linearGradient>
<linearGradient id="paint6_linear_175_1107" x1="25.791" y1="98.763" x2="61.9887" y2="21.1333" gradientUnits="userSpaceOnUse">
<stop offset="0.3233" stop-color="#9E2064"/>
<stop offset="0.6302" stop-color="#C92037"/>
<stop offset="0.7514" stop-color="#CD2335"/>
<stop offset="1" stop-color="#E97826"/>
</linearGradient>
<linearGradient id="paint7_linear_175_1107" x1="30.5514" y1="95.119" x2="66.7475" y2="17.49" gradientUnits="userSpaceOnUse">
<stop offset="0.3233" stop-color="#9E2064"/>
<stop offset="0.6302" stop-color="#C92037"/>
<stop offset="0.7514" stop-color="#CD2335"/>
<stop offset="1" stop-color="#E97826"/>
</linearGradient>
<linearGradient id="paint8_linear_175_1107" x1="50.8331" y1="51.4812" x2="58.8321" y2="34.3267" gradientUnits="userSpaceOnUse">
<stop offset="0.3233" stop-color="#9E2064"/>
<stop offset="0.6302" stop-color="#C92037"/>
<stop offset="0.7514" stop-color="#CD2335"/>
<stop offset="1" stop-color="#E97826"/>
</linearGradient>
<clipPath id="clip0_175_1107">
<rect width="48.1149" height="85" fill="white" transform="translate(26 8)"/>
</clipPath>
</defs>
</svg>
