<svg width="100" height="100" viewBox="0 0 100 100" fill="none" xmlns="http://www.w3.org/2000/svg">
<rect width="100" height="100" rx="24" fill="#0091BD"/>
<path d="M26.1843 37.6826H31.8965V62.1479H26.1843V59.5972C23.6695 62.5072 20.6158 62.9024 18.8555 62.9024C11.3111 62.9024 7 56.6154 7 49.8973C7 41.9218 12.4607 37.0359 18.9273 37.0359C20.7236 37.0359 23.885 37.503 26.1843 40.5207V37.6826ZM12.8559 50.041C12.8559 54.2443 15.5144 57.8369 19.6458 57.8369C23.2384 57.8369 26.5795 55.2143 26.5795 50.1128C26.5795 44.7599 23.2743 42.2092 19.6458 42.2092C15.5144 42.1733 12.8559 45.694 12.8559 50.041ZM38.6864 37.6826H44.3986V39.874C45.0452 39.1196 45.9793 38.2933 46.7697 37.8263C47.8833 37.1796 48.9611 37 50.2544 37C51.6555 37 53.1644 37.2156 54.7451 38.1496L52.41 43.3229C51.1167 42.4966 50.0748 42.4607 49.5 42.4607C48.2785 42.4607 47.0571 42.6403 45.9434 43.7899C44.3626 45.4784 44.3626 47.8136 44.3626 49.4303V62.1479H38.6505L38.6864 37.6826ZM58.4096 37.6826H64.1217V39.9459C66.0258 37.6107 68.2891 37.0359 70.1572 37.0359C72.7079 37.0359 75.115 38.2574 76.4801 40.6285C78.5279 37.7185 81.5816 37.0359 83.7371 37.0359C86.7189 37.0359 89.3056 38.437 90.7067 40.88C91.1737 41.7063 92 43.5025 92 47.0592V62.1839H86.2878V48.7477C86.2878 46.0173 86.0004 44.9036 85.7489 44.4007C85.3897 43.4666 84.5275 42.2451 82.4797 42.2451C81.0786 42.2451 79.8571 42.9996 79.1027 44.0414C78.0968 45.4425 77.989 47.5262 77.989 49.6099V62.2198H72.2768V48.7477C72.2768 46.0173 71.9894 44.9036 71.738 44.4007C71.3787 43.4666 70.5165 42.2451 68.4687 42.2451C67.0676 42.2451 65.8461 42.9996 65.0917 44.0414C64.0858 45.4425 63.978 47.5262 63.978 49.6099V62.2198H58.4096V37.6826Z" fill="white"/>
</svg>
