<svg width="100" height="100" viewBox="0 0 100 100" fill="none" xmlns="http://www.w3.org/2000/svg">
<rect width="100" height="100" rx="24" fill="white"/>
<g clip-path="url(#clip0_266_10)">
<path d="M91.9982 49.5001C91.9982 72.9722 72.9711 92.0001 49.5 92.0001C26.0289 92.0001 7.00183 72.9722 7.00183 49.5001C7.00183 26.0279 26.0289 7 49.5 7C72.9711 7 91.9982 26.0279 91.9982 49.5001Z" fill="white"/>
<path d="M62.4547 49.4998C62.4547 42.345 56.6555 36.5452 49.501 36.5452C42.3461 36.5452 36.5464 42.345 36.5464 49.4998C36.5464 56.6544 42.3461 62.4544 49.501 62.4544C56.6555 62.4544 62.4547 56.6544 62.4547 49.4998Z" fill="#ED1C24"/>
<path d="M49.5018 7C45.4528 7 41.5415 7.57819 37.8317 8.63586V31.6085C41.1869 29.4158 45.1932 28.1363 49.501 28.1363C61.2988 28.1363 70.864 37.701 70.864 49.4998C70.864 61.2986 61.2988 70.8633 49.501 70.8633C37.7022 70.8633 28.1371 61.2986 28.1371 49.4998C28.1371 49.1203 28.148 48.7433 28.1671 48.3685L28.1371 48.3921V12.7664C15.5007 20.1316 7.00171 33.819 7.00171 49.4998C7.00171 72.9716 26.03 91.9999 49.5018 91.9999C72.9734 91.9999 91.9981 72.9716 91.9981 49.4998C91.9981 26.0282 72.9734 7 49.5018 7Z" fill="#ED1C24"/>
</g>
<defs>
<clipPath id="clip0_266_10">
<rect width="85" height="85" fill="white" transform="translate(7 7)"/>
</clipPath>
</defs>
</svg>
