<svg width="100" height="100" viewBox="0 0 100 100" fill="none" xmlns="http://www.w3.org/2000/svg">
<rect width="100" height="100" rx="24" fill="#0156FF"/>
<path d="M35.324 27C37.48 27 39.448 27.192 41.228 27.572C43.008 27.952 44.528 28.576 45.796 29.444C47.064 30.312 48.048 31.464 48.748 32.904C49.448 34.344 49.796 36.12 49.796 38.236C49.796 40.52 49.276 42.424 48.24 43.948C47.204 45.472 45.668 46.72 43.64 47.692C46.432 48.496 48.516 49.904 49.892 51.912C51.268 53.92 51.956 56.344 51.956 59.18C51.956 61.464 51.512 63.444 50.624 65.116C49.736 66.788 48.54 68.152 47.036 69.208C45.532 70.268 43.82 71.048 41.896 71.556C39.96 72.064 37.964 72.32 35.964 72.316H14V27H35.324ZM34.056 45.34C35.832 45.34 37.292 44.916 38.436 44.072C39.58 43.224 40.152 41.852 40.148 39.948C40.148 38.892 39.956 38.024 39.576 37.348C39.196 36.672 38.688 36.14 38.052 35.76C37.416 35.38 36.688 35.116 35.864 34.968C35.016 34.82 34.156 34.744 33.292 34.748H23.968V45.348L34.056 45.34ZM34.628 64.568C35.568 64.572 36.504 64.476 37.42 64.284C38.308 64.092 39.092 63.776 39.768 63.332C40.444 62.888 40.984 62.284 41.388 61.524C41.788 60.764 41.992 59.788 41.992 58.604C41.992 56.28 41.336 54.616 40.024 53.624C38.712 52.628 36.976 52.132 34.82 52.132H23.968V64.572L34.628 64.568ZM64.492 63.616C65.844 64.928 67.792 65.584 70.332 65.584C72.152 65.584 73.716 65.128 75.028 64.22C76.34 63.312 77.144 62.348 77.44 61.332H85.372C84.104 65.268 82.156 68.08 79.532 69.772C76.908 71.464 73.736 72.312 70.012 72.312C67.432 72.312 65.104 71.9 63.032 71.076C60.96 70.252 59.204 69.076 57.764 67.552C56.324 66.028 55.212 64.212 54.432 62.096C53.652 59.98 53.26 57.652 53.26 55.116C53.26 52.664 53.66 50.38 54.464 48.264C55.268 46.148 56.412 44.32 57.892 42.776C59.372 41.232 61.14 40.016 63.192 39.128C65.244 38.24 67.52 37.796 70.016 37.796C72.808 37.796 75.24 38.336 77.316 39.416C79.388 40.496 81.092 41.944 82.424 43.764C83.756 45.584 84.72 47.656 85.312 49.984C85.904 52.312 86.116 54.744 85.948 57.284H62.276C62.4 60.192 63.14 62.308 64.492 63.616ZM74.68 46.356C73.6 45.172 71.96 44.58 69.76 44.58C68.32 44.58 67.124 44.824 66.176 45.308C65.224 45.796 64.464 46.396 63.892 47.116C63.32 47.836 62.92 48.596 62.688 49.4C62.456 50.204 62.316 50.924 62.276 51.556H76.936C76.508 49.276 75.756 47.54 74.68 46.356ZM60.732 29.3H79.048V34.38H60.732V29.3Z" fill="white"/>
</svg>
