<svg width="100" height="100" viewBox="0 0 100 100" fill="none" xmlns="http://www.w3.org/2000/svg">
<rect width="100" height="100" rx="24" fill="black"/>
<path d="M7 50V55.2988H12.1942V50H7ZM10.3637 53.4325H8.829V51.8671H10.3637V53.4325ZM17.9792 56.9967H20.3251C21.2089 56.9967 21.6338 57.3867 21.6338 58.1022C21.6338 59.0367 20.9553 59.258 20.1727 59.258H17.9792V56.9967ZM14.2424 62.1468H21.124C23.2662 62.1468 25.3727 60.8881 25.3727 58.4586C25.3727 56.6743 24.3531 55.8081 23.2662 55.4331C24.1676 54.9417 24.7599 54.2776 24.7599 53.0549C24.7602 51.8132 24.0822 50.0131 20.8867 50.0131H14.2424V62.1468ZM17.9792 52.9012H19.9515C20.7162 52.9012 21.2254 53.1219 21.2254 53.7342C21.2254 54.516 20.7327 54.7373 19.9515 54.7373H17.9792V52.9012ZM28.9551 56.7421C29.1091 55.7908 29.6856 55.2639 30.69 55.2639C31.5553 55.2639 32.1668 55.9261 32.1668 56.7434H28.9553L28.9551 56.7421ZM35.3965 58.4922C35.3965 55.0602 33.8834 53.1051 30.383 53.1051C27.5941 53.1051 25.7257 55.1961 25.7257 57.7625C25.7257 60.7015 27.8506 62.3673 30.6724 62.3673C32.6761 62.3673 34.5301 61.4835 35.2086 59.5791H32.0657C31.7934 60.0043 31.1979 60.208 30.6529 60.208C29.6018 60.208 29.0236 59.4932 28.9382 58.4914L35.396 58.4909L35.3965 58.4922ZM39.6142 50.6407H36.2482V53.3269H34.7529V55.3995H36.2482V59.6154C36.2482 62.0278 37.8291 62.2485 39.2571 62.2485C39.9703 62.2485 40.7361 62.1471 41.4156 62.1471V59.5962C41.1599 59.6322 40.9058 59.6482 40.6499 59.6482C39.8011 59.6482 39.6132 59.2914 39.6132 58.4762V55.399H41.4151V53.3269H39.6124V50.6407H39.6142ZM41.974 62.1468H45.3385V57.4902C45.3385 56.079 46.1032 55.7892 46.6821 55.7892C47.6665 55.7892 47.7858 56.504 47.7858 57.5231V62.1468H51.1521V56.0953C51.1521 54.0732 49.7055 53.1048 48.1243 53.1048C46.6984 53.1048 45.9492 53.5989 45.3711 54.2774H45.3377V50.0131H41.974V62.1468ZM54.8164 56.7421C54.9689 55.7908 55.548 55.2639 56.5514 55.2639C57.4186 55.2639 58.0282 55.9261 58.0282 56.7434H54.8167L54.8164 56.7421ZM61.2579 58.4922C61.2579 55.0602 59.7468 53.1051 56.2444 53.1051C53.4563 53.1051 51.5868 55.1961 51.5868 57.7625C51.5868 60.7015 53.7119 62.3673 56.5351 62.3673C58.5375 62.3673 60.3928 61.3214 61.07 59.4178H57.9281C57.6574 59.8427 57.0609 60.2074 56.5159 60.2074C55.4637 60.2074 54.8848 59.4927 54.8009 58.4914H61.2587L61.2579 58.4922ZM69.7238 55.8922C69.6408 53.6328 67.3456 53.1056 65.442 53.1056C63.6742 53.1056 61.2773 53.6837 61.2773 55.9101C61.2773 57.4222 62.3135 58.2384 64.8801 58.6799C66.4437 58.9516 66.7328 59.1045 66.7328 59.6154C66.7328 60.1252 66.0364 60.2952 65.5954 60.2952C65.1868 60.2952 64.8649 60.1914 64.6941 60.0395C64.4384 59.8198 64.3041 59.7268 64.2875 59.4193H61.0763C61.1257 61.6977 63.4046 62.3691 65.4759 62.3691C67.6176 62.3691 69.9648 61.7051 69.9648 59.2577C69.9648 57.8124 68.9783 57.1502 67.8565 56.7928C66.7344 56.4196 65.4617 56.3513 64.9001 56.1122C64.7143 56.0281 64.5101 55.9098 64.5101 55.6536C64.5101 55.0768 65.053 54.9751 65.5297 54.9751C65.8015 54.9751 66.0745 55.06 66.2761 55.23C66.4989 55.3824 66.6505 55.6031 66.6689 55.8922L69.7251 55.8912L69.7238 55.8922ZM79.6474 50.0131H76.2838V54.295H76.2491C75.7398 53.5466 74.8379 53.1056 73.8356 53.1056C70.8782 53.1056 70.0796 55.6215 70.0796 57.6939C70.0796 59.9039 71.2858 62.3689 73.7849 62.3689C75.4339 62.3689 75.9424 61.7392 76.3681 61.1771H76.4031V62.1468H79.6485V50.0139L79.6474 50.0131ZM76.4028 57.7286C76.4028 58.7808 76.1308 59.9202 74.9259 59.9202C73.7184 59.9202 73.4454 58.7808 73.4454 57.7286C73.4454 56.6919 73.7174 55.5527 74.9249 55.5527C76.129 55.5527 76.4018 56.6919 76.4018 57.7286M85.9987 59.0026C85.9472 59.9202 85.3539 60.378 84.5876 60.378C83.9779 60.378 83.5338 59.9714 83.5338 59.5649C83.5338 58.9684 83.9246 58.7808 84.6722 58.6123C85.1331 58.5083 85.5906 58.3905 85.9985 58.1866V59.0026H85.9987ZM89.2289 56.5552C89.2289 54.8563 89.2605 53.1048 85.0459 53.1048C82.9559 53.1048 80.6113 53.5127 80.5094 55.9936H83.6347C83.6531 55.621 83.8589 55.0931 84.8935 55.0931C85.4393 55.0931 85.9987 55.3151 85.9987 55.9103C85.9987 56.4717 85.5389 56.6067 85.0816 56.6924C83.364 57.0151 80.1031 56.9121 80.1031 59.7013C80.1031 61.5529 81.5111 62.3686 83.2124 62.3686C84.3017 62.3686 85.3363 62.1295 86.0505 61.3143H86.0847C86.0673 61.5526 86.1175 61.9103 86.2037 62.1473H89.6368C89.262 61.5865 89.2302 60.8386 89.2302 60.1751V56.5565L89.2289 56.5552ZM90.2112 54.6978H89.9555V53.6572H89.5648V53.4365H90.5904V53.6572H90.212V54.6978H90.2112ZM90.9812 54.6978H90.7413V53.4365H91.1415L91.3696 54.3071L91.599 53.4367H92V54.6981H91.7567V53.6922L91.4823 54.6978H91.2529L90.9822 53.6924L90.9827 54.6989L90.9812 54.6978Z" fill="white"/>
</svg>
