<svg width="100" height="100" viewBox="0 0 100 100" fill="none" xmlns="http://www.w3.org/2000/svg">
<rect width="100" height="100" rx="24" fill="#181A1F"/>
<g clip-path="url(#clip0_175_964)">
<path d="M33.626 43.7177L50.1331 27.2113L66.649 43.7264L76.2539 34.1215L50.1331 8L24.0211 34.1127L33.626 43.7177Z" fill="#F3BA2F"/>
<path d="M26.843 50.4986L17.2382 40.8938L7.63294 50.4991L17.2377 60.1039L26.843 50.4986Z" fill="#F3BA2F"/>
<path d="M33.626 57.2822L50.1331 73.7887L66.6483 57.2742L76.2586 66.8738L76.2539 66.8791L50.1331 92.9999L24.0204 66.8879L24.007 66.8744L33.626 57.2822Z" fill="#F3BA2F"/>
<path d="M83.0289 60.1082L92.6342 50.5029L83.0294 40.8981L73.4241 50.5034L83.0289 60.1082Z" fill="#F3BA2F"/>
<path d="M59.8757 50.4949H59.8797L50.1331 40.7483L42.9302 47.9512H42.9295L42.1024 48.779L40.3952 50.4862L40.3818 50.4996L40.3952 50.5137L50.1331 60.2516L59.8797 50.505L59.8844 50.4996L59.8757 50.4949Z" fill="#F3BA2F"/>
</g>
<defs>
<clipPath id="clip0_175_964">
<rect width="85" height="85" fill="white" transform="translate(8 8)"/>
</clipPath>
</defs>
</svg>
