<svg width="100" height="100" viewBox="0 0 100 100" fill="none" xmlns="http://www.w3.org/2000/svg">
<rect width="100" height="100" rx="24" fill="#F7931A"/>
<path d="M72.2099 44.1211C73.153 37.8165 68.3528 34.4274 61.7891 32.1664L63.9183 23.6261L58.7198 22.3305L56.6469 30.6458C55.2802 30.3053 53.8766 29.984 52.4818 29.6656L54.5695 21.2956L49.374 20L47.2433 28.5374C46.1121 28.2797 45.0016 28.0251 43.9237 27.7571L43.9296 27.7304L36.7604 25.9403L35.3775 31.4927C35.3775 31.4927 39.2345 32.3767 39.1531 32.4315C41.2586 32.9571 41.6391 34.3504 41.5754 35.4549L39.1501 45.1842C39.2952 45.2212 39.4833 45.2745 39.6906 45.3575C39.5173 45.3145 39.3323 45.2671 39.1413 45.2212L35.7417 58.8505C35.4841 59.4902 34.8311 60.4496 33.3594 60.0854C33.4112 60.1609 29.5808 59.1422 29.5808 59.1422L27 65.0929L33.765 66.7794C35.0236 67.0947 36.257 67.4249 37.4711 67.7359L35.3197 76.3739L40.5123 77.6695L42.643 69.1232C44.0614 69.5082 45.4384 69.8635 46.7858 70.1982L44.6626 78.7044L49.8611 80L52.0125 71.3782C60.8771 73.0558 67.5429 72.3791 70.3487 64.3615C72.6097 57.9059 70.2362 54.1821 65.5722 51.7538C68.9688 50.9706 71.5273 48.7363 72.2099 44.1211ZM60.3322 60.7768C58.7257 67.2324 47.8563 63.7426 44.3324 62.8675L47.1871 51.4236C50.711 52.3031 62.0112 54.0444 60.3322 60.7768ZM61.9402 44.0278C60.4743 49.9001 51.4276 46.9166 48.493 46.1851L51.0811 35.8058C54.0158 36.5373 63.4667 37.9024 61.9402 44.0278Z" fill="white"/>
</svg>
