<svg width="100" height="100" viewBox="0 0 100 100" fill="none" xmlns="http://www.w3.org/2000/svg">
<rect width="100" height="100" rx="24" fill="#F7931A"/>
<path d="M80.2798 42.1615C81.5374 33.7554 75.1371 29.2365 66.3855 26.2219L69.2244 14.8348L62.293 13.1074L59.5292 24.1944C57.707 23.7403 55.8355 23.3119 53.9758 22.8875L56.7594 11.7274L49.8319 10L46.9911 21.3832C45.4828 21.0397 44.0022 20.7001 42.565 20.3428L42.5729 20.3072L33.0138 17.9204L31.17 25.3236C31.17 25.3236 36.3127 26.5022 36.2041 26.5753C39.0114 27.2761 39.5188 29.1338 39.4339 30.6066L36.2002 43.579C36.3937 43.6283 36.6444 43.6994 36.9208 43.8099C36.6898 43.7527 36.443 43.6895 36.1883 43.6283L31.6556 61.8007C31.3121 62.6536 30.4415 63.9328 28.4791 63.4472C28.5482 63.5479 23.441 62.1896 23.441 62.1896L20 70.1239L29.0201 72.3725C30.6981 72.793 32.3426 73.2332 33.9615 73.6478L31.093 85.1652L38.0164 86.8926L40.8573 75.4976C42.7486 76.0109 44.5846 76.4847 46.3811 76.9309L43.5501 88.2726L50.4815 90L53.35 78.5043C65.1694 80.7411 74.0572 79.8389 77.7983 69.1486C80.8129 60.5412 77.6483 55.5761 71.4296 52.3384C75.9583 51.2941 79.3697 48.315 80.2798 42.1615ZM64.4429 64.3691C62.3009 72.9766 47.8084 68.3234 43.1098 67.1567L46.9161 51.8982C51.6146 53.0709 66.6816 55.3925 64.4429 64.3691ZM66.5869 42.0371C64.6324 49.8667 52.5701 45.8888 48.6573 44.9135L52.1082 31.0745C56.021 32.0497 68.6223 33.8699 66.5869 42.0371Z" fill="white"/>
</svg>
