<svg width="100" height="100" viewBox="0 0 100 100" fill="none" xmlns="http://www.w3.org/2000/svg">
<rect width="100" height="100" rx="24" fill="white"/>
<path d="M38.8275 54.2236C39.1367 48.7106 41.8319 43.8393 45.9156 40.3973C49.9119 37.0136 55.2791 34.9426 61.1713 34.9426C67.0344 34.9426 72.4016 37.0107 76.3978 40.3973C80.4816 43.8393 83.1651 48.7106 83.486 54.2236C83.7952 59.8825 81.517 65.1622 77.5354 69.0709C73.4517 73.038 67.6761 75.5465 61.1713 75.5465C54.6665 75.5465 48.8618 73.0555 44.8072 69.0709C40.811 65.1622 38.5357 59.9117 38.8566 54.2528L38.8275 54.2236Z" fill="white"/>
<path d="M51.0489 53.5484C51.2078 50.7153 52.5928 48.212 54.6914 46.4432C56.745 44.7044 59.5032 43.6401 62.5311 43.6401C65.5441 43.6401 68.3023 44.7029 70.3559 46.4432C72.4545 48.212 73.8335 50.7153 73.9984 53.5484C74.1573 56.4564 72.9866 59.1696 70.9405 61.1783C68.8419 63.2169 65.8739 64.506 62.5311 64.506C59.1884 64.506 56.2054 63.2259 54.1218 61.1783C52.0682 59.1696 50.899 56.4715 51.0639 53.5634L51.0489 53.5484Z" fill="#265787"/>
<path d="M33.061 59.5444C33.0805 60.6536 33.4343 62.8122 33.9649 64.491C35.0801 68.0586 36.9779 71.3564 39.6011 74.2495C42.2993 77.2325 45.627 79.6309 49.4644 81.3397C53.4967 83.1235 57.8738 84.0379 62.4157 84.0379C66.9577 84.0319 71.3347 83.1025 75.367 81.2947C79.2044 79.5709 82.5322 77.1725 85.2304 74.1745C87.8686 71.2515 89.7573 67.9537 90.8665 64.3861C91.4287 62.5873 91.7839 60.7586 91.9263 58.9298C92.0657 57.131 92.0073 55.3172 91.751 53.5034C91.2503 49.9808 90.0271 46.6681 88.1534 43.6701C86.4445 40.8969 84.226 38.4836 81.5878 36.4449L81.5938 36.4405L55.0617 16.0542C55.0377 16.0362 55.0182 16.0167 54.9927 16.0002C53.2539 14.6631 50.3159 14.6676 48.4122 16.0077C46.4785 17.3628 46.2536 19.6053 47.9775 21.0143L47.97 21.0218L59.0475 30.0308L25.3202 30.0667H25.2753C22.4871 30.0697 19.8039 31.8955 19.2793 34.219C18.7337 36.5724 20.6284 38.536 23.5364 38.536L23.5319 38.5465L40.6204 38.5135L10.041 61.8978C10.0021 61.9263 9.96008 61.9562 9.9241 61.9847C7.04604 64.1882 6.11667 67.8608 7.93045 70.1692C9.7742 72.5226 13.6866 72.5376 16.5946 70.1827L33.2334 56.5419C33.2334 56.5419 32.9906 58.3857 33.01 59.4799L33.061 59.5444ZM75.9321 65.7052C72.4994 69.1978 67.6877 71.1915 62.5012 71.1915C57.2997 71.2005 52.4879 69.2429 49.0552 65.7502C47.3764 64.0414 46.1472 62.0927 45.3827 60.0091C44.6377 57.9554 44.3484 55.7819 44.5403 53.5934C44.7217 51.4498 45.3602 49.3962 46.384 47.5525C47.3854 45.7387 48.7674 44.0898 50.4613 42.6957C53.804 39.9826 58.0462 38.4985 62.4832 38.4985C66.9352 38.4925 71.1773 39.9511 74.5201 42.6657C76.2139 44.0508 77.593 45.6937 78.5973 47.5075C79.6211 49.3512 80.2612 51.3899 80.4411 53.5484C80.63 55.7369 80.3407 57.9105 79.5957 59.9641C78.8342 62.0627 77.602 64.0114 75.9231 65.7202L75.9321 65.7052Z" fill="#EA7600"/>
</svg>
