<svg width="100" height="100" viewBox="0 0 100 100" fill="none" xmlns="http://www.w3.org/2000/svg">
<rect width="100" height="100" rx="24" fill="white"/>
<path d="M49.5026 92C72.9761 92 92.0051 72.9721 92.0051 49.5C92.0051 26.0279 72.9761 7 49.5026 7C26.029 7 7 26.0279 7 49.5C7 72.9721 26.029 92 49.5026 92Z" fill="#CC092F"/>
<path d="M86.9514 60.9819C82.0902 59.0448 77.64 59.694 73.1794 62.3981C73.1794 62.3981 71.5538 63.3903 71.0669 63.6965C68.9884 65.0002 67.0277 66.2357 65.1429 66.2357C63.3445 66.2357 61.575 65.7541 60.8263 62.2751C59.6588 56.8485 56.8107 43.5137 55.5672 36.9091C54.8369 33.027 54.4364 30.9355 54.0201 29.514C53.2872 27.0167 51.9469 25.6581 50.0438 25.4408C50.0438 25.4408 49.7454 25.3989 49.5019 25.3989C49.2611 25.3989 48.9312 25.446 48.9312 25.446C47.0465 25.6712 45.714 27.0298 44.9863 29.514C44.5701 30.9355 44.1696 33.027 43.4392 36.9091C42.1958 43.5137 39.3477 56.8485 38.1802 62.2751C37.4315 65.7541 35.6619 66.2357 33.8635 66.2357C31.9787 66.2357 30.018 65.0002 27.9396 63.6965C27.4527 63.3903 25.8244 62.3981 25.8244 62.3981C21.3664 59.694 16.9136 59.0448 12.0551 60.9819C11.0054 61.4008 9.97145 61.8698 8.98718 62.3436C9.65994 64.4535 10.4974 66.5301 11.4739 68.4803C12.5498 67.9515 13.6781 67.4268 14.8299 67.0865C16.4895 66.597 18.1911 66.5708 19.8403 67.1232C21.4423 67.6598 22.869 68.61 24.2904 69.5027C26.9684 71.1859 30.0023 73.0942 33.8635 73.0942C39.5859 73.0942 43.6015 69.6781 44.8842 63.7201C45.879 59.1024 48.0831 48.7937 49.4993 41.6839C49.4993 41.6839 53.1275 59.1024 54.1196 63.7201C55.4023 69.6781 59.4205 73.0942 65.1429 73.0942C69.0041 73.0942 72.0381 71.1859 74.716 69.5027C76.1375 68.61 77.5641 67.6598 79.1662 67.1232C80.8128 66.5708 82.5169 66.597 84.1766 67.0865C85.3284 67.4268 86.455 67.9521 87.5309 68.4808C88.5099 66.5306 89.3452 64.4531 90.018 62.3432C89.0337 61.8694 88.0011 61.4008 86.9514 60.9819Z" fill="white"/>
</svg>
