<svg width="100" height="100" viewBox="0 0 100 100" fill="none" xmlns="http://www.w3.org/2000/svg">
<rect width="100" height="100" rx="24" fill="#BF1920"/>
<path d="M20.8784 57.0469C16.9264 57.0469 13.7236 53.8424 13.7236 49.8897C13.7236 45.9368 16.9264 42.7354 20.8784 42.7354C22.2713 42.7354 23.5718 43.1326 24.6704 43.8213L20.8784 49.8897L28.0173 45.7677C27.2417 44.5319 26.1292 43.467 24.7841 42.659C23.0724 41.6342 20.6914 41 18.0585 41C14.3028 41 11.0079 42.3648 9.17037 44.4086C7.80994 45.9195 7 47.821 7 49.8896C7 51.9597 7.80994 53.8626 9.17037 55.3746C11.0126 57.4209 14.2585 58.7778 17.9522 58.7778C21.6455 58.7778 24.8904 57.4199 26.7338 55.3746C26.8347 55.2619 26.9325 55.1482 27.0249 55.0303L26.7466 53.9869C25.4514 55.8357 23.3062 57.0469 20.8784 57.0469ZM44.5466 58.3474L41.5504 47.1699C41.0691 45.3637 39.4243 44.0361 37.4661 44.0361C36.9582 44.0361 36.4716 44.1268 36.0201 44.2911L29.5696 46.6367H36.2039L37.3376 50.8705C36.2379 49.924 34.8056 49.3482 33.2374 49.3482C30.1232 49.3482 27.6019 51.435 27.6019 54.0092C27.6019 56.5837 30.1232 58.6736 33.2374 58.6736C35.4792 58.6736 37.4619 57.5761 38.6848 55.8899L39.3425 58.3474H44.5466ZM35.407 56.6113C33.9705 56.6113 32.806 55.4479 32.806 54.0092C32.806 52.5728 33.9705 51.4082 35.407 51.4082C36.8435 51.4082 38.0091 52.5728 38.0091 54.0092C38.0091 55.4479 36.8435 56.6113 35.407 56.6113ZM56.7632 44.038C56.3701 44.038 55.9982 44.1249 55.6667 44.2806L51.5251 46.2107C51.3201 44.9778 50.2491 44.038 48.9571 44.038C48.5661 44.038 48.1931 44.1249 47.8574 44.2806L42.8009 46.6367H46.3561V58.3475H51.5602V47.9395C51.5602 47.2214 52.1414 46.6368 52.8617 46.6368C53.5779 46.6368 54.1633 47.2214 54.1633 47.9395V58.3475H59.3653V46.6367C59.3653 45.2005 58.1997 44.038 56.7632 44.038ZM76.2761 51.4081C76.2761 55.4787 72.977 58.7778 68.9076 58.7778C64.8351 58.7778 61.5339 55.4787 61.5339 51.4081C61.5339 47.3387 64.8351 44.038 68.9076 44.038C72.977 44.038 76.2761 47.3388 76.2761 51.4081ZM69.2126 46.2748C68.9809 45.4076 68.0895 44.8928 67.2225 45.1259C66.3566 45.3581 65.8391 46.25 66.0718 47.1171L68.5995 56.5412C68.8332 57.4093 69.7226 57.9235 70.5896 57.694C71.4566 57.4592 71.9719 56.5677 71.7392 55.7007L69.2126 46.2748Z" fill="white"/>
<path d="M89.399 44.0381C89.0048 44.0381 88.6308 44.125 88.294 44.2807L84.1566 46.2108C83.9526 44.9779 82.8816 44.0381 81.5896 44.0381C81.1986 44.0381 80.8257 44.125 80.4889 44.2807L75.4346 46.6367H78.9886V58.3476H84.1917V47.9396C84.1917 47.2214 84.7739 46.6369 85.4943 46.6369C86.2126 46.6369 86.7938 47.2214 86.7938 47.9396V58.3476H92V46.6367C92 45.2006 90.8334 44.0381 89.399 44.0381Z" fill="white"/>
</svg>
