<svg width="100" height="100" viewBox="0 0 100 100" fill="none" xmlns="http://www.w3.org/2000/svg">
<rect width="100" height="100" rx="24" fill="url(#paint0_linear_255_133)"/>
<path d="M91.4206 54.6759C91.2868 54.6759 91.1531 54.7651 91.064 54.9434C90.2171 57.4394 89.0136 58.9103 88.033 58.9103C87.4982 58.9103 87.2753 58.2863 87.2753 57.3057C87.2753 54.8542 88.7462 49.7284 89.4594 47.366C89.5485 47.0986 89.5931 46.8312 89.5931 46.6083C89.5931 45.9397 89.2365 45.5831 88.3005 45.5831C87.2753 45.5831 86.2501 45.9843 85.1804 47.8117C84.8238 46.2071 83.7095 45.494 82.194 45.494C80.4111 45.494 78.7174 46.6083 77.3356 48.4803C75.9539 50.3078 74.3047 50.9318 73.0566 50.6198C73.9481 48.4358 74.2601 46.8312 74.2601 45.5831C74.2601 43.6665 73.3241 42.5522 71.8086 42.5522C69.4908 42.5522 68.1537 44.7362 68.1537 47.054C68.1537 48.8369 68.956 50.6644 70.7389 51.5558C69.2234 54.9434 67.0393 58.0189 66.237 58.0189C65.1673 58.0189 64.8553 52.7593 64.8998 49.0598C64.9444 46.9203 65.1227 46.7866 65.1227 46.1626C65.1227 45.806 64.8998 45.5385 63.9193 45.5385C61.646 45.5385 60.9329 47.4552 60.8437 49.6392C60.7992 50.4861 60.6654 51.333 60.4426 52.1353C59.5066 55.5228 57.5454 58.0635 56.2528 58.0635C55.6733 58.0635 55.495 57.484 55.495 56.6817C55.495 54.2302 56.8768 51.1993 56.8768 48.6141C56.8768 46.6974 56.0299 45.494 54.4699 45.494C52.5978 45.494 50.1463 47.7226 47.8285 51.8233C48.5863 48.6586 48.8983 45.5831 46.6251 45.5831C46.1348 45.5831 45.6445 45.7168 45.2433 45.9397C44.9313 46.0734 44.753 46.3854 44.7976 46.6974C45.0205 50.085 42.0787 58.6875 39.3152 58.6875C38.8249 58.6875 38.5574 58.1526 38.5574 57.2612C38.5574 54.8097 40.0283 49.6838 40.7415 47.3214C40.8306 47.0094 40.8752 46.742 40.8752 46.5191C40.8752 45.8506 40.474 45.5385 39.5826 45.5385C38.602 45.5385 37.5323 45.9397 36.4625 47.7672C36.1059 46.1626 34.9916 45.4494 33.4761 45.4494C30.9801 45.4494 28.172 48.0792 26.924 51.5558C25.2748 56.1468 21.9764 60.6041 17.5191 60.6041C13.463 60.6041 11.3235 57.2166 11.3235 51.9124C11.3235 44.2014 16.9397 37.9612 21.1741 37.9612C23.1799 37.9612 24.1159 39.2538 24.1159 41.1704C24.1159 43.5328 22.7787 44.6471 22.7787 45.5385C22.7787 45.806 23.0016 46.0734 23.4473 46.0734C25.2748 46.0734 27.4143 43.9339 27.4143 41.0367C27.4143 38.1395 25.0519 36 20.8621 36C13.9533 36 7 42.9533 7 51.8679C7 58.9549 10.4767 63.2339 16.5831 63.2339C20.7284 63.2339 24.3388 60.0246 26.2554 56.2805C26.4782 59.4006 27.9046 61.0053 30.0441 61.0053C31.9607 61.0053 33.5207 59.8909 34.6796 57.8406C35.1253 59.9355 36.3288 60.9607 37.8888 60.9607C39.6717 60.9607 41.1872 59.8464 42.6135 57.7069C42.569 59.3561 42.9701 60.9161 44.3964 60.9161C45.065 60.9161 45.8673 60.7824 46.0456 60.1584C47.5611 53.8736 51.3052 48.7478 52.4641 48.7478C52.8207 48.7478 52.9098 49.0598 52.9098 49.4609C52.9098 51.1547 51.7063 54.6759 51.7063 56.9046C51.7063 59.3115 52.7315 60.9161 54.871 60.9161C57.2334 60.9161 59.5957 58.0189 61.2003 53.8291C61.6906 57.7514 62.7604 60.9161 64.4541 60.9161C66.5045 60.9161 70.204 56.548 72.4326 51.957C73.2795 52.0907 74.6167 52.0461 75.8647 51.1547C75.3298 52.5364 75.0178 54.0073 75.0178 55.4782C75.0178 59.7572 77.0682 60.9607 78.8065 60.9607C80.7231 60.9607 82.2832 59.8464 83.4421 57.796C83.8432 59.6235 84.8238 60.9161 86.6513 60.9161C89.5485 60.9161 92 57.9743 92 55.5674C92 55.0325 91.7326 54.6759 91.4206 54.6759ZM31.7824 58.6875C30.6235 58.6875 30.1778 57.5286 30.1778 55.7902C30.1778 52.7593 32.2281 47.7226 34.4567 47.7226C35.3928 47.7226 35.7939 48.8369 35.7939 50.2187C35.7493 53.2496 33.7882 58.6875 31.7824 58.6875ZM71.5412 49.6392C70.828 48.8369 70.6051 47.678 70.6051 46.6974C70.6051 45.4494 71.0509 44.4242 71.5857 44.4242C72.1206 44.4242 72.2989 44.9591 72.2989 45.7168C72.2989 46.9203 71.8532 48.7478 71.5412 49.6392ZM80.5448 58.6875C79.386 58.6875 78.9402 57.3503 78.9402 55.7902C78.9402 52.893 80.9906 47.7226 83.2192 47.7226C84.1998 47.7226 84.5118 48.8369 84.5118 50.2187C84.5118 53.2496 82.5506 58.6875 80.5448 58.6875Z" fill="white"/>
<defs>
<linearGradient id="paint0_linear_255_133" x1="50" y1="0" x2="50" y2="100" gradientUnits="userSpaceOnUse">
<stop stop-color="#01C3CC"/>
<stop offset="0.25" stop-color="#4569E0"/>
<stop offset="0.5" stop-color="#7428EF"/>
<stop offset="1" stop-color="#7428EF"/>
</linearGradient>
</defs>
</svg>
