<svg width="100" height="100" viewBox="0 0 100 100" fill="none" xmlns="http://www.w3.org/2000/svg">
<rect width="100" height="100" rx="24" fill="#00D632"/>
<path d="M69.3442 35.0556C70.2526 35.9641 71.7607 35.9641 72.6147 35.0556L77.157 30.3316C78.12 29.4231 78.0655 27.7879 77.048 26.8067C73.4786 23.6977 69.3288 21.3264 64.8381 19.8297L66.2735 12.9253C66.5824 11.4172 65.4559 10 63.9478 10H55.1538C54.6042 10.0059 54.0732 10.2004 53.6498 10.551C53.2265 10.9016 52.9364 11.387 52.8281 11.926L51.5563 18.0672C39.8552 18.6668 29.9347 24.6082 29.9347 36.7817C29.9347 47.32 38.1291 51.8442 46.7959 54.9512C54.9903 58.0763 59.3328 59.2391 59.3328 63.6361C59.3328 68.1603 55.0085 70.8131 48.6128 70.8131C42.7986 70.8131 36.6937 68.8689 31.9696 64.1267C31.7503 63.907 31.4897 63.7326 31.2029 63.6137C30.916 63.4947 30.6086 63.4335 30.2981 63.4335C29.9875 63.4335 29.6801 63.4947 29.3932 63.6137C29.1064 63.7326 28.8459 63.907 28.6265 64.1267L23.7207 69.0325C23.2592 69.4956 23 70.1228 23 70.7767C23 71.4306 23.2592 72.0578 23.7207 72.521C27.5363 76.2821 32.3694 79.0075 37.8783 80.5155L36.5338 87.002C36.2249 88.5101 37.3333 89.9091 38.8413 89.9273L47.6535 90C48.2094 90.0024 48.7489 89.8117 49.1798 89.4604C49.6106 89.1091 49.906 88.619 50.0155 88.074L51.2874 81.9146C65.3651 80.9698 73.941 73.2114 73.941 61.8919C73.941 51.4626 65.4014 47.0656 55.0448 43.4863C49.1216 41.2878 43.9978 39.7797 43.9978 35.2555C43.9978 30.8585 48.7764 29.1142 53.5731 29.1142C59.678 29.1142 65.5467 31.6398 69.3805 35.092L69.3442 35.0556Z" fill="white"/>
</svg>
