<svg width="100" height="100" viewBox="0 0 100 100" fill="none" xmlns="http://www.w3.org/2000/svg">
<rect width="100" height="100" rx="24" fill="white"/>
<path d="M49.7867 8.00056C48.7596 8.00056 47.7325 8.24139 46.9109 8.73013L15.8475 27.0969C14.2183 28.0602 13 30.1958 13 32.0835V68.9162C13 70.8039 14.2183 72.9359 15.8475 73.8992L46.9073 92.2695C48.5542 93.2435 51.0227 93.2435 52.666 92.2695L83.7259 73.8992C85.355 72.9359 86.5733 70.8039 86.5733 68.9162V32.0835C86.5733 30.1958 85.355 28.0602 83.7259 27.0969L52.666 8.73013C51.787 8.2381 50.7939 7.98645 49.7867 8.00056ZM46.7763 37.4101C48.1717 37.4101 49.305 38.4832 49.305 39.8042V47.6807C49.305 48.4138 49.9815 49.0088 50.8173 49.0088C51.6531 49.0088 52.3331 48.4138 52.3331 47.6807V41.8937C52.3331 40.5727 53.4664 39.5032 54.8582 39.5032C56.2536 39.5032 57.3799 40.5727 57.3799 41.8937V58.5853C57.3799 59.9099 56.2536 60.9795 54.8582 60.9795C53.4629 60.9795 52.3331 59.9099 52.3331 58.5853V53.9458C52.3331 53.2162 51.6531 52.6213 50.8173 52.6213C49.9815 52.6213 49.305 53.2162 49.305 53.9458V58.2878C49.305 59.6124 48.1717 60.682 46.7798 60.682C45.3844 60.682 44.2547 59.6124 44.2547 58.2878V52.384C44.2547 51.6509 43.5747 51.0559 42.7389 51.0559C41.9066 51.0559 41.2266 51.6509 41.2266 52.384V64.1067C41.2266 65.4277 40.0968 66.5008 38.705 66.5008C37.3096 66.5008 36.1798 65.4277 36.1798 64.1067V55.5112C36.1798 54.7816 35.5034 54.1867 34.664 54.1867C33.8317 54.1867 33.1517 54.7816 33.1517 55.5112V56.1416C33.1508 56.4718 33.0849 56.7986 32.9576 57.1034C32.8304 57.4081 32.6444 57.6848 32.4102 57.9176C32.1761 58.1504 31.8984 58.3349 31.5929 58.4604C31.2875 58.5859 30.9603 58.65 30.6301 58.6491C30.2996 58.6505 29.9721 58.5867 29.6662 58.4614C29.3604 58.3361 29.0822 58.1517 28.8477 57.9188C28.6132 57.686 28.4269 57.4091 28.2994 57.1042C28.172 56.7992 28.1059 56.4721 28.1049 56.1416V48.6228C28.1059 48.2923 28.172 47.9652 28.2994 47.6602C28.4269 47.3553 28.6132 47.0784 28.8477 46.8456C29.0822 46.6127 29.3604 46.4283 29.6662 46.303C29.9721 46.1777 30.2996 46.1139 30.6301 46.1153C30.9603 46.1144 31.2875 46.1785 31.5929 46.304C31.8984 46.4295 32.1761 46.614 32.4102 46.8468C32.6444 47.0797 32.8304 47.3563 32.9576 47.661C33.0849 47.9658 33.1508 48.2926 33.1517 48.6228V49.2532C33.1517 49.9828 33.8317 50.5742 34.664 50.5742C35.5034 50.5742 36.1798 49.9828 36.1798 49.2532V43.8345C36.1798 42.51 37.3131 41.4404 38.705 41.4404C40.0968 41.4404 41.2266 42.5135 41.2266 43.8345V46.1224C41.2266 46.852 41.9066 47.447 42.7389 47.447C43.5747 47.447 44.2547 46.852 44.2547 46.1224V39.8042C44.2547 38.4832 45.3844 37.4101 46.7798 37.4101H46.7763ZM62.9331 45.9666C64.325 45.9666 65.4583 47.0361 65.4583 48.3607V57.8912C65.4583 59.2157 64.325 60.2853 62.9331 60.2853C61.5377 60.2853 60.4115 59.2122 60.4115 57.8912V48.3607C60.4115 47.0361 61.5413 45.9666 62.9331 45.9666ZM71.008 50.8115C72.4069 50.8115 73.5331 51.8846 73.5331 53.2056V55.5785C73.5331 56.9031 72.4069 57.9726 71.0115 57.9726C69.6161 57.9726 68.4863 56.9031 68.4863 55.582V53.2092C68.4863 51.8846 69.6161 50.8115 71.008 50.8115Z" fill="#FF5825"/>
</svg>
