<svg width="100" height="100" viewBox="0 0 100 100" fill="none" xmlns="http://www.w3.org/2000/svg">
<rect width="100" height="100" rx="24" fill="#0052FF"/>
<path d="M24.1552 46.239C21.0674 46.239 18.6547 48.5831 18.6547 51.7211C18.6547 54.8591 21.0064 57.1831 24.1552 57.1831C27.304 57.1831 29.6967 54.819 29.6967 51.701C29.6967 48.6032 27.3449 46.239 24.1552 46.239ZM24.1761 54.9216C22.4177 54.9216 21.1291 53.5559 21.1291 51.7219C21.1291 49.867 22.3968 48.5021 24.1552 48.5021C25.9345 48.5021 27.2223 49.8878 27.2223 51.7219C27.2223 53.5559 25.9345 54.9216 24.1761 54.9216ZM30.3711 48.624H31.905V56.9802H34.3586V46.4427H30.3711V48.624ZM12.4797 48.5013C13.7683 48.5013 14.7906 49.296 15.1787 50.4781H17.7758C17.3052 47.9512 15.2196 46.239 12.5006 46.239C9.41272 46.239 7 48.5831 7 51.7219C7 54.8606 9.35177 57.1839 12.5006 57.1839C15.1587 57.1839 17.2851 55.4717 17.7558 52.924H15.1787C14.8107 54.106 13.7883 54.9216 12.4998 54.9216C10.7205 54.9216 9.47368 53.5559 9.47368 51.7219C9.47445 49.867 10.7013 48.5013 12.4797 48.5013ZM76.9913 50.7026L75.192 50.438C74.3332 50.3161 73.7198 50.0306 73.7198 49.3578C73.7198 48.624 74.5176 48.2575 75.6009 48.2575C76.7868 48.2575 77.5437 48.7667 77.7073 49.6023H80.0791C79.8129 47.4828 78.1772 46.2398 75.6626 46.2398C73.0655 46.2398 71.348 47.5646 71.348 49.4395C71.348 51.2327 72.4729 52.2728 74.7421 52.5984L76.5415 52.863C77.4211 52.9849 77.9118 53.3322 77.9118 53.9841C77.9118 54.8198 77.053 55.1662 75.8671 55.1662C74.415 55.1662 73.5971 54.5752 73.4744 53.6786H71.0617C71.287 55.7372 72.9019 57.1839 75.8463 57.1839C78.5252 57.1839 80.3037 55.9609 80.3037 53.8615C80.3037 51.9865 79.0159 51.0082 76.9913 50.7026ZM33.1318 42.1018C32.2321 42.1018 31.557 42.7538 31.557 43.6504C31.557 44.547 32.2313 45.199 33.1318 45.199C34.0314 45.199 34.7066 44.547 34.7066 43.6504C34.7066 42.7538 34.0314 42.1018 33.1318 42.1018ZM69.1397 50.0506C69.1397 47.7683 67.7493 46.2398 64.805 46.2398C62.0242 46.2398 60.4703 47.6464 60.1632 49.8068H62.5967C62.7194 48.9712 63.3737 48.2783 64.7641 48.2783C66.0117 48.2783 66.6251 48.8285 66.6251 49.5013C66.6251 50.3778 65.5002 50.6015 64.1098 50.7443C62.2287 50.948 59.8978 51.6 59.8978 54.0459C59.8978 55.9416 61.309 57.1638 63.5581 57.1638C65.3166 57.1638 66.4207 56.43 66.9731 55.268C67.0549 56.3074 67.8319 56.9802 68.916 56.9802H70.3472V54.7997H69.1405V50.0506H69.1397ZM66.727 52.7002C66.727 54.1068 65.5002 55.1461 64.0072 55.1461C63.0867 55.1461 62.3097 54.7588 62.3097 53.944C62.3097 52.9047 63.5574 52.6192 64.7024 52.4973C65.8065 52.3955 66.4199 52.1509 66.727 51.6817V52.7002ZM53.702 46.239C52.3317 46.239 51.1867 46.81 50.3688 47.7675V42H47.9152V56.9802H50.3279V55.5944C51.1458 56.5928 52.3116 57.1839 53.702 57.1839C56.6463 57.1839 58.8754 54.8606 58.8754 51.7219C58.8754 48.5831 56.6055 46.239 53.702 46.239ZM53.334 54.9216C51.5755 54.9216 50.287 53.5559 50.287 51.7219C50.287 49.8878 51.5956 48.5021 53.354 48.5021C55.1333 48.5021 56.3801 49.8678 56.3801 51.7219C56.3801 53.5559 55.0924 54.9216 53.334 54.9216ZM42.0466 46.239C40.4517 46.239 39.4085 46.891 38.7951 47.8084V46.4427H36.3616V56.9794H38.8152V51.2528C38.8152 49.6425 39.8375 48.5013 41.3506 48.5013C42.7618 48.5013 43.6406 49.4997 43.6406 50.9472V56.9802H46.0943V50.7643C46.095 48.114 44.7255 46.239 42.0466 46.239ZM92 51.3754C92 48.3593 89.7917 46.2398 86.8266 46.2398C83.6778 46.2398 81.3669 48.6039 81.3669 51.7219C81.3669 55.0034 83.8413 57.1839 86.8675 57.1839C89.4237 57.1839 91.4275 55.6754 91.9383 53.5358H89.382C89.014 54.4733 88.1143 55.0034 86.9076 55.0034C85.3328 55.0034 84.1469 54.025 83.8815 52.3129H91.9992V51.3754H92ZM84.025 50.5599C84.4139 49.0923 85.518 48.3794 86.7857 48.3794C88.1761 48.3794 89.2393 49.1741 89.4847 50.5599H84.025Z" fill="white"/>
</svg>
