<svg width="100" height="100" viewBox="0 0 100 100" fill="none" xmlns="http://www.w3.org/2000/svg">
<rect width="100" height="100" rx="24" fill="white"/>
<path d="M87.6246 32.99C87.624 31.5608 87.3183 30.2979 86.7002 29.214C86.093 28.1481 85.1837 27.2548 83.9639 26.5484C73.8957 20.743 63.8177 14.9554 53.7527 9.14409C51.0393 7.57756 48.4084 7.63467 45.715 9.22369C41.7076 11.5871 21.6436 23.0822 15.6648 26.5452C13.2026 27.9706 12.0044 30.152 12.0038 32.9874C12 44.6624 12.0038 56.3371 12 68.0124C12.0006 69.4102 12.2932 70.6486 12.8842 71.7162C13.4917 72.8143 14.4137 73.7323 15.6616 74.4546C21.6406 77.9176 41.7073 89.4118 45.7138 91.7758C48.4084 93.3657 51.0393 93.4225 53.7536 91.8554C63.8189 86.0438 73.8975 80.2564 83.9672 74.451C85.215 73.729 86.1371 72.8105 86.7446 71.7133C87.3346 70.6456 87.6278 69.4073 87.6284 68.0091C87.6284 68.0091 87.6284 44.6653 87.6246 32.99Z" fill="#5C8DBC"/>
<path d="M49.9299 50.3861L12.8842 71.7163C13.4917 72.8144 14.4137 73.7323 15.6615 74.4546C21.6406 77.9176 41.7072 89.4118 45.7138 91.7758C48.4084 93.3657 51.0393 93.4225 53.7536 91.8554C63.8189 86.0438 73.8975 80.2564 83.9672 74.451C85.215 73.729 86.1371 72.8105 86.7446 71.7133L49.9299 50.3861Z" fill="#1A4674"/>
<path d="M38.9574 56.7043C41.1131 60.4676 45.1655 63.0059 49.8142 63.0059C54.4916 63.0059 58.5671 60.4354 60.7119 56.6318L49.9299 50.3861L38.9574 56.7043Z" fill="#1A4674"/>
<path d="M87.6246 32.9901C87.624 31.5608 87.3183 30.2979 86.7002 29.214L49.9299 50.3861L86.7446 71.7133C87.3346 70.6457 87.6279 69.4073 87.6285 68.0091C87.6285 68.0091 87.6285 44.6654 87.6246 32.9901Z" fill="#1B598E"/>
<path d="M85.6003 51.9105H82.7235V54.7879H79.8461V51.9105H76.9696V49.034H79.8461V46.1572H82.7235V49.034H85.6003V51.9105Z" fill="white"/>
<path d="M75.103 51.9105H72.2265V54.7879H69.3497V51.9105H66.4729V49.034H69.3497V46.1572H72.2265V49.034H75.103V51.9105Z" fill="white"/>
<path d="M60.7119 56.6318C58.5672 60.4353 54.4916 63.0059 49.8142 63.0059C45.1655 63.0059 41.1131 60.4676 38.9574 56.7043C37.9102 54.8755 37.308 52.7583 37.308 50.4997C37.308 43.5929 42.9075 37.9938 49.8142 37.9938C54.4331 37.9938 58.4642 40.5004 60.6305 44.2253L71.5616 37.9307C67.2168 30.4307 59.1051 25.3849 49.8142 25.3849C35.9433 25.3849 24.6992 36.6293 24.6992 50.4997C24.6992 55.0501 25.9097 59.3174 28.0254 62.9982C32.3593 70.5379 40.4941 75.6148 49.8142 75.6148C59.1516 75.6148 67.2991 70.5175 71.6267 62.9556L60.7119 56.6318Z" fill="white"/>
</svg>
