<svg width="100" height="100" viewBox="0 0 100 100" fill="none" xmlns="http://www.w3.org/2000/svg">
<rect width="100" height="100" rx="24" fill="white"/>
<path d="M19.8464 84.5032L13.0256 8H87.9744L81.1463 84.491L50.4542 93L19.8464 84.5032Z" fill="#264DE4"/>
<path d="M75.3007 79.6205L81.1359 14.2551H50.5V86.4962L75.3007 79.6205Z" fill="#2965F1"/>
<path d="M28.6623 42.6292L29.5032 52.0119H50.5V42.6292H28.6623ZM27.8254 33.0211H50.5V23.6382H26.9724L27.8254 33.0211ZM50.5 66.9973L50.4588 67.0083L40.0091 64.1867L39.3412 56.7034H29.9222L31.2369 71.4357L50.4568 76.7715L50.5 76.7594V66.9973Z" fill="#EBEBEB"/>
<path d="M50.4677 42.6292V52.0119H62.0215L60.9324 64.1807L50.4677 67.0051V76.7668L69.7029 71.4357L69.844 69.8505L72.0487 45.1487L72.2778 42.6292L73.9716 23.6382H50.4677V33.0211H63.689L62.835 42.6292H50.4677Z" fill="white"/>
</svg>
