<svg width="100" height="100" viewBox="0 0 100 100" fill="none" xmlns="http://www.w3.org/2000/svg">
<g opacity="0.9">
<rect width="100" height="100" rx="24" fill="black"/>
<path fill-rule="evenodd" clip-rule="evenodd" d="M79.1282 20.1206C79.9239 15.5089 81.0913 12.6089 82.3846 12.6033H82.3874C84.799 12.6116 86.7539 22.6688 86.7539 35.086C86.7539 47.503 84.7962 57.5685 82.3819 57.5685C81.3922 57.5685 80.479 55.8595 79.7435 52.9955C78.5814 63.4792 76.1698 70.6864 73.3782 70.6864C71.2182 70.6864 69.2796 66.3572 67.9781 59.5295C67.0895 72.5144 64.8529 81.7268 62.2389 81.7268C60.5984 81.7268 59.1028 78.0763 57.9955 72.1323C56.6639 84.4025 53.588 93 50.0006 93C46.4133 93 43.332 84.4052 42.0058 72.1323C40.9066 78.0763 39.4111 81.7268 37.7622 81.7268C35.1484 81.7268 32.9172 72.5144 32.0231 59.5295C30.7217 66.3572 28.7887 70.6864 26.6231 70.6864C23.8342 70.6864 21.4199 63.4821 20.2579 52.9955C19.5278 55.8679 18.6091 57.5685 17.6193 57.5685C15.205 57.5685 13.2473 47.503 13.2473 35.086C13.2473 22.6688 15.205 12.6033 17.6193 12.6033C18.9154 12.6033 20.0747 15.5116 20.8785 20.1206C22.1663 12.1685 24.2581 7 26.6231 7C29.4311 7 31.8646 14.3096 33.0157 24.9235C34.1422 17.1985 35.851 12.2737 37.7651 12.2737C40.4472 12.2737 42.7276 21.9598 43.5726 35.471C45.1611 28.5435 47.4605 24.1978 50.0061 24.1978C52.5517 24.1978 54.8511 28.5464 56.4369 35.471C57.2846 21.9598 59.5621 12.2737 62.2444 12.2737C64.1556 12.2737 65.8618 17.1985 66.9938 24.9235C68.1421 14.3096 70.5755 7 73.3836 7C75.7405 7 77.8404 12.1713 79.1282 20.1206ZM7 32.8747C7 27.3239 8.1101 22.823 9.47993 22.823C10.8498 22.823 11.9599 27.3239 11.9599 32.8747C11.9599 38.4253 10.8498 42.9263 9.47993 42.9263C8.1101 42.9263 7 38.4253 7 32.8747ZM88.0396 32.8747C88.0396 27.3239 89.1495 22.823 90.5195 22.823C91.8894 22.823 92.9995 27.3239 92.9995 32.8747C92.9995 38.4253 91.8894 42.9263 90.5195 42.9263C89.1495 42.9263 88.0396 38.4253 88.0396 32.8747Z" fill="#A238FF"/>
</g>
</svg>
