<svg width="100" height="100" viewBox="0 0 100 100" fill="none" xmlns="http://www.w3.org/2000/svg">
<rect width="100" height="100" rx="24" fill="#007DB8"/>
<path d="M46.5238 39.9445L35.9673 48.0656C34.8847 44.0045 31.3643 41.0259 27.0328 41.0259H19.4538V59.7047H27.0328C31.3641 59.7047 35.1533 56.7257 35.9654 52.6651L46.5236 60.7861L57.0818 52.6651V59.7047H68.9912V55.914H61.1424V41.026H56.8099V48.0632L46.7936 56.1865L44.6273 54.2905L49.5018 50.4998L54.6437 46.4392L51.6669 44.0043L41.6506 51.8532L39.4855 49.9578L49.5018 42.3787L46.5228 39.9438L46.5238 39.9445ZM23.5148 44.8143H26.7637C27.4404 44.8143 28.1007 44.9687 28.7097 45.2478C29.3188 45.527 29.8754 45.9323 30.3491 46.4399C30.8229 46.9475 31.2129 47.5555 31.4836 48.2408C31.7543 48.926 31.9055 49.6884 31.9055 50.5005C31.9055 51.2449 31.77 51.9723 31.5205 52.6448C31.2709 53.3174 30.9074 53.9349 30.4506 54.4595C29.9938 54.9839 29.4445 55.4158 28.8227 55.7162C28.201 56.0165 27.5081 56.1842 26.7637 56.1842H23.5148L23.5148 44.8143ZM82.5272 55.9152V59.705H70.6166V41.0263H74.9478V55.9143L82.5272 55.9152ZM49.5 8C26.2194 8 7 27.2194 7 50.5C7 73.7806 25.9491 93 49.5 93C73.0509 93 92 74.0509 92 50.5C92 26.9491 72.7806 8 49.5 8ZM49.5 12.3325C52.1393 12.3325 54.7143 12.5974 57.2012 13.105C59.6883 13.6125 62.0881 14.3611 64.3722 15.3255C66.6562 16.2898 68.8258 17.4714 70.856 18.8417C72.8862 20.2121 74.7771 21.7714 76.5029 23.4972C78.2286 25.2229 79.7877 27.1138 81.1582 29.144C82.5286 31.1742 83.7101 33.3438 84.6745 35.6278C85.6389 37.9119 86.3874 40.3118 86.895 42.7988C87.4026 45.2858 87.6675 47.8608 87.6675 50.5C87.6675 53.1393 87.4026 55.7143 86.895 58.2012C86.3875 60.6883 85.6389 63.0881 84.6745 65.3722C83.7102 67.6562 82.5286 69.8258 81.1582 71.856C79.7879 73.8862 78.2286 75.7771 76.5029 77.5029C74.7771 79.2286 72.8862 80.7878 70.856 82.1583C68.8258 83.5286 66.6562 84.7101 64.3722 85.6745C62.0881 86.6389 59.6882 87.3874 57.2012 87.8951C54.7142 88.4026 52.1393 88.6675 49.5 88.6675C46.8608 88.6675 44.2857 88.4026 41.7988 87.8951C39.3113 87.391 36.9113 86.6425 34.6269 85.678C32.3437 84.7134 30.1738 83.5317 28.1433 82.1611C26.1127 80.7916 24.2227 79.2321 22.4967 77.5062C20.7707 75.7802 19.2112 73.8901 17.8413 71.8596C16.4709 69.829 15.2894 67.6591 14.325 65.3759C13.3606 63.0916 12.6121 60.6915 12.1045 58.2041C11.597 55.7178 11.332 53.143 11.332 50.5033C11.332 47.8636 11.597 45.2888 12.1045 42.8025C12.612 40.3151 13.3606 37.915 14.325 35.6307C15.2894 33.3475 16.4709 31.1776 17.8413 29.1471C19.2112 27.1165 20.7707 25.2264 22.4967 23.5005C24.2227 21.7745 26.1127 20.215 28.1433 18.8451C30.1738 17.4747 32.3437 16.2932 34.6269 15.3288C36.9113 14.3644 39.3113 13.6159 41.7988 13.1083C44.285 12.6007 46.8598 12.3358 49.4995 12.3358L49.5 12.3325Z" fill="white"/>
</svg>
