<svg width="100" height="100" viewBox="0 0 100 100" fill="none" xmlns="http://www.w3.org/2000/svg">
<rect width="100" height="100" rx="24" fill="#CF4037"/>
<path d="M45.3907 59.8223L44.7595 56.8454L72.2708 37.866L74.9763 53.905L45.3907 59.8223ZM69.0145 82.988C68.5893 87.2379 61.1528 90 61.1528 90L47.9786 61.339L52.0159 60.7016C58.3958 68.4896 65.3229 68.5938 69.0145 82.988ZM52.6389 83.2252C47.0399 82.0904 42.7783 81.7047 39.5687 81.7047C35.9664 81.7047 33.6905 82.1912 32.3449 82.651L36.3453 73.4683L36.3598 73.4316C36.375 73.3945 37.9978 69.878 51.4458 71.9346L54.8109 79.2556L52.6389 83.2252ZM28.6013 44.9778L20.887 29.761L29.1738 21.4741L32.9985 38.3665C31.3493 40.1235 29.8913 42.3459 28.6013 44.9778ZM63.8087 32.9482L84.632 15.5245L69.0145 10L54.2068 30.2302C57.3745 30.5662 60.9404 31.8346 63.8087 32.9482ZM52.8691 30.1295L64.4462 10H49.36L43.1978 31.5669C46.2269 30.5048 49.455 30.0384 52.8691 30.1295ZM42.1354 31.8856L44.3665 13.2934L32.3611 18.2869L34.0548 37.3383C36.1488 35.3583 38.7244 33.5088 42.1354 31.8856ZM26.8715 61.6355L16.6375 58.4462L18.9746 65.4582H28.0834C27.5817 64.2196 27.176 62.9417 26.8715 61.6355ZM28.6076 66.6629L20.887 67.7954L24.5523 73.2137L30.7397 70.3968C29.9242 69.212 29.2126 67.962 28.6076 66.6629ZM26.1992 53.3345L16.6375 47.1844L16 55.8964L26.4664 59.4876C26.2069 57.5086 26.1241 55.4549 26.1992 53.3345ZM27.5802 46.5469L20.0373 35.8827L16.6375 44.2097L26.1992 52.3783L27.5802 46.5469ZM34.9768 73.4176C36.2326 69.4034 44.6295 69.6937 50.8094 70.55L46.3845 60.9235L44.405 61.3194L43.3361 56.2783L68.9354 38.6185C52.6146 24.5312 38.8513 34.1279 33.9688 39.3229C27.4583 46.25 22.6146 60.8854 34.9768 73.4176Z" fill="white"/>
</svg>
