<svg width="100" height="100" viewBox="0 0 100 100" fill="none" xmlns="http://www.w3.org/2000/svg">
<rect width="100" height="100" rx="24" fill="#0080FF"/>
<path d="M49.4999 60.5422V52.2931C58.2315 52.2931 65.0093 43.6339 61.6566 34.444C60.4265 31.0672 57.7009 28.3416 54.2999 27.1114C45.1101 23.7828 36.4509 30.5365 36.4509 39.2681H28.2258C28.2258 25.3507 41.685 14.4965 56.2778 19.0553C62.6455 21.0572 67.7349 26.1225 69.7128 32.4903C74.2715 47.0831 63.4174 60.5422 49.4999 60.5422Z" fill="white"/>
<path fill-rule="evenodd" clip-rule="evenodd" d="M49.5241 52.3413H41.2991V44.1163H49.5241V52.3413ZM41.2991 58.6367H35.0037V52.3413H41.2991V58.6367ZM35.0037 52.3413H29.7213V47.0589H35.0037V52.3413Z" fill="white"/>
<path d="M14.3326 68.8878C13.2713 68.1401 11.9205 67.7783 10.3768 67.7783H7V78.5118H10.401C11.9447 78.5118 13.2954 78.1259 14.3567 77.3299C14.9356 76.9199 15.3939 76.341 15.7316 75.6174C16.0451 74.8938 16.214 74.0255 16.214 73.0848C16.214 72.1441 16.0451 71.2999 15.7316 70.5762C15.3939 69.8526 14.9356 69.2738 14.3326 68.8878ZM8.97787 69.5873H10.0392C11.2211 69.5873 12.1859 69.8285 12.9336 70.2868C13.7537 70.7933 14.1637 71.734 14.1637 73.0848C14.1637 74.4837 13.7537 75.4727 12.9336 76.0033C12.2341 76.4616 11.2693 76.7028 10.0633 76.7028H8.97787V69.5873ZM18.5536 67.6336C18.2159 67.6336 17.9506 67.7542 17.7094 67.9713C17.4923 68.1883 17.3717 68.4537 17.3717 68.7913C17.3717 69.129 17.4923 69.3944 17.7094 69.6356C17.9265 69.8526 18.2159 69.9732 18.5536 69.9732C18.8672 69.9732 19.1566 69.8526 19.3978 69.6356C19.6149 69.4185 19.7355 69.129 19.7355 68.7913C19.7355 68.4537 19.6149 68.1883 19.3978 67.9713C19.1566 67.7542 18.8672 67.6336 18.5536 67.6336ZM17.5888 70.9381H19.4943V78.5118H17.5888V70.9381ZM26.4169 71.5652C25.838 71.0587 25.2108 70.7451 24.5113 70.7451C23.4501 70.7451 22.5817 71.1069 21.9064 71.8305C21.231 72.53 20.8692 73.4466 20.8692 74.5561C20.8692 75.6174 21.2069 76.534 21.8822 77.2576C22.5576 77.9571 23.4501 78.3189 24.4872 78.3189C25.2108 78.3189 25.8621 78.1259 26.3686 77.7159V77.8847C26.3686 78.5118 26.1998 78.9942 25.8621 79.3319C25.5244 79.6696 25.0661 79.8384 24.4872 79.8384C23.6189 79.8384 23.0641 79.5008 22.3888 78.5842L21.0863 79.8384L21.1104 79.8867C21.3998 80.2726 21.8099 80.6585 22.3888 81.0203C22.9435 81.3821 23.6671 81.5751 24.5113 81.5751C25.645 81.5751 26.5616 81.2374 27.2369 80.5379C27.9123 79.8384 28.25 78.9219 28.25 77.7882V70.9139H26.3686V71.5652H26.4169ZM25.9103 76.0516C25.5726 76.4375 25.1385 76.6063 24.6078 76.6063C24.0531 76.6063 23.643 76.4134 23.3053 76.0516C22.9676 75.6656 22.8229 75.1832 22.8229 74.5802C22.8229 73.9531 22.9918 73.4707 23.3053 73.0848C23.6189 72.6988 24.0772 72.53 24.6078 72.53C25.1626 72.53 25.5726 72.723 25.9103 73.0848C26.248 73.4707 26.4169 73.9772 26.4169 74.5802C26.4169 75.1832 26.248 75.6656 25.9103 76.0516ZM29.9143 70.9381H31.8198V78.5118H29.9143V70.9381ZM30.8791 67.6336C30.5414 67.6336 30.2761 67.7542 30.0349 67.9713C29.8178 68.1883 29.6972 68.4537 29.6972 68.7913C29.6972 69.129 29.8178 69.3944 30.0349 69.6356C30.252 69.8526 30.5414 69.9732 30.8791 69.9732C31.1927 69.9732 31.4821 69.8526 31.7233 69.6356C31.9404 69.4185 32.061 69.129 32.061 68.7913C32.061 68.4537 31.9404 68.1883 31.7233 67.9713C31.4821 67.7542 31.2168 67.6336 30.8791 67.6336ZM35.9926 68.8878H34.1112V70.9381H33.0258V72.6747H34.1112V75.8104C34.1112 76.7993 34.3042 77.4988 34.6901 77.9088C35.076 78.3189 35.7755 78.5118 36.7403 78.5118C37.0539 78.5118 37.3675 78.5118 37.6569 78.4877H37.7534V76.751L37.1022 76.7752C36.6439 76.7752 36.3544 76.7028 36.2097 76.534C36.065 76.3651 35.9926 76.0274 35.9926 75.5209V72.6506H37.7775V70.9139H35.9926V68.8878ZM46.702 67.7542H48.6075V78.5118H46.702V67.7542ZM67.8556 75.8104C67.5179 76.1963 67.1561 76.534 66.8907 76.7028C66.6254 76.8716 66.2877 76.9681 65.9018 76.9681C65.347 76.9681 64.8888 76.7752 64.527 76.341C64.1651 75.931 63.9722 75.3762 63.9722 74.7491C63.9722 74.0978 64.1651 73.5672 64.527 73.1571C64.8888 72.7471 65.347 72.53 65.9018 72.53C66.5048 72.53 67.1561 72.9159 67.7108 73.5672L68.9651 72.3612C68.145 71.2999 67.1078 70.7933 65.8536 70.7933C64.8164 70.7933 63.8998 71.1793 63.1521 71.927C62.4044 72.6747 62.0426 73.6154 62.0426 74.7491C62.0426 75.8827 62.4285 76.8234 63.1521 77.5711C63.8998 78.3189 64.7923 78.7048 65.8536 78.7048C67.2284 78.7048 68.338 78.1018 69.1098 77.0164L67.8556 75.8104ZM75.6947 71.9993C75.4293 71.6134 75.0675 71.324 74.6093 71.1069C74.151 70.8898 73.6203 70.7692 73.0414 70.7692C71.9801 70.7692 71.1118 71.1551 70.4606 71.927C69.8334 72.6988 69.4957 73.6395 69.4957 74.7732C69.4957 75.931 69.8575 76.8717 70.5329 77.5953C71.2324 78.3189 72.149 78.6807 73.2826 78.6807C74.561 78.6807 75.6223 78.15 76.4183 77.137L76.4665 77.0887L75.2123 75.8827C75.0917 76.0274 74.9228 76.1722 74.7781 76.3169C74.5851 76.4857 74.4163 76.6304 74.2233 76.7269C73.9339 76.8717 73.6203 76.944 73.2585 76.944C72.7279 76.944 72.2937 76.7993 71.956 76.4857C71.6424 76.1963 71.4495 75.8104 71.4012 75.3279H76.4424L76.4665 74.6285C76.4665 74.1461 76.3941 73.6636 76.2736 73.2295C76.1529 72.7953 75.96 72.3853 75.6947 71.9993ZM71.5218 73.7842C71.6183 73.4224 71.7872 73.1089 72.0284 72.8918C72.2937 72.6265 72.6314 72.5059 73.0173 72.5059C73.4756 72.5059 73.8374 72.6265 74.0786 72.8918C74.2957 73.133 74.4404 73.4224 74.4645 73.7842H71.5218ZM83.0031 71.5169C82.4242 71.0345 81.6283 70.7692 80.6393 70.7692C80.0122 70.7692 79.4092 70.9139 78.8785 71.1793C78.372 71.4205 77.8896 71.8546 77.576 72.3853L77.6002 72.4094L78.8303 73.5672C79.3368 72.7712 79.8916 72.4818 80.6393 72.4818C81.0494 72.4818 81.3629 72.5782 81.6283 72.7953C81.8695 73.0124 82.0142 73.2777 82.0142 73.6154V73.9772C81.5318 73.8325 81.0735 73.7601 80.6152 73.7601C79.6745 73.7601 78.9027 73.9772 78.3238 74.4114C77.7449 74.8455 77.4554 75.4968 77.4554 76.3169C77.4554 77.0405 77.6966 77.5953 78.2032 78.0294C78.7097 78.4395 79.3127 78.6566 80.0363 78.6566C80.7599 78.6566 81.4353 78.3671 82.0624 77.8606V78.4877H83.9438V73.6154C83.8714 72.723 83.582 71.9993 83.0031 71.5169ZM79.6263 75.6174C79.8434 75.4727 80.1569 75.4003 80.5428 75.4003C81.0011 75.4003 81.4835 75.4968 81.9901 75.6656V76.4134C81.58 76.7993 81.0253 76.9923 80.3499 76.9923C80.0122 76.9923 79.771 76.9199 79.578 76.7752C79.4092 76.6304 79.3127 76.4616 79.3127 76.2204C79.3127 75.9551 79.4092 75.7621 79.6263 75.6174ZM91.204 71.6617C90.6734 71.0587 89.9257 70.7692 88.985 70.7692C88.2372 70.7692 87.6101 70.9863 87.1518 71.4205V70.9622H85.2945V78.5118H87.2001V74.339C87.2001 73.7601 87.3448 73.3018 87.6101 72.9883C87.8754 72.6747 88.2372 72.5059 88.7438 72.5059C89.1779 72.5059 89.4915 72.6506 89.7327 72.94C89.9739 73.2295 90.0945 73.6395 90.0945 74.1219V78.5118H92V74.1219C92 73.0848 91.7347 72.2406 91.204 71.6617ZM44.3141 71.5169C43.7352 71.0345 42.9393 70.7692 41.9503 70.7692C41.3232 70.7692 40.7202 70.9139 40.1896 71.1793C39.683 71.4205 39.2006 71.8546 38.8871 72.3853L38.9112 72.4094L40.1413 73.5672C40.6478 72.7712 41.2026 72.4818 41.9503 72.4818C42.3604 72.4818 42.6739 72.5782 42.9393 72.7953C43.1805 73.0124 43.3252 73.2777 43.3252 73.6154V73.9772C42.8428 73.8325 42.3845 73.7601 41.9262 73.7601C40.9855 73.7601 40.2137 73.9772 39.6348 74.4114C39.0559 74.8455 38.7665 75.4968 38.7665 76.3169C38.7665 77.0405 39.0077 77.5953 39.5142 78.0294C40.0207 78.4395 40.6237 78.6566 41.3473 78.6566C42.0709 78.6566 42.7463 78.3671 43.3734 77.8606V78.4877H45.2548V73.6154C45.1825 72.723 44.893 71.9993 44.3141 71.5169ZM40.9373 75.6174C41.1544 75.4727 41.4679 75.4003 41.8539 75.4003C42.3121 75.4003 42.7945 75.4968 43.3011 75.6656V76.4134C42.891 76.7993 42.3363 76.9923 41.6609 76.9923C41.3232 76.9923 41.082 76.9199 40.889 76.7752C40.7202 76.6304 40.6237 76.4616 40.6237 76.2204C40.6237 75.9551 40.7202 75.7621 40.9373 75.6174ZM55.5301 78.6807C52.4668 78.6807 49.9824 76.1963 49.9824 73.133C49.9824 70.0697 52.4668 67.5853 55.5301 67.5853C58.5934 67.5853 61.0777 70.0697 61.0777 73.133C61.0777 76.1963 58.5934 78.6807 55.5301 78.6807ZM55.5301 69.5391C53.5522 69.5391 51.9361 71.1551 51.9361 73.133C51.9361 75.1109 53.5522 76.7269 55.5301 76.7269C57.5079 76.7269 59.124 75.1109 59.124 73.133C59.124 71.1551 57.5079 69.5391 55.5301 69.5391Z" fill="white"/>
</svg>
