<svg width="100" height="100" viewBox="0 0 100 100" fill="none" xmlns="http://www.w3.org/2000/svg">
<rect width="100" height="100" rx="24" fill="black"/>
<path fill-rule="evenodd" clip-rule="evenodd" d="M11.6617 49.488C11.647 52.2973 13.7069 53.972 16.9941 53.2106V45.7654C13.6654 44.7517 11.6757 46.8026 11.6617 49.488ZM17.0947 35H21.6222V56.4301C17.2824 57.1396 13.126 57.5896 10.1526 55.927C6.32401 53.7864 6.01622 46.9841 9.04578 43.9544C10.5818 42.4185 13.6741 41.3371 16.9941 42.0428V35.3019C16.9855 35.159 16.9774 35.0168 17.0947 35Z" fill="white"/>
<path fill-rule="evenodd" clip-rule="evenodd" d="M28.9668 39.7287H24.4393V35H28.9668V39.7287Z" fill="white"/>
<path fill-rule="evenodd" clip-rule="evenodd" d="M83.2965 53.4117C88.2321 55.3297 88.7781 44.5774 83.7996 45.564C80.7078 46.1768 80.8071 52.4443 83.2965 53.4117ZM83.4977 41.8414C87.2668 41.4385 90.1104 43.1017 91.2448 45.6647C93.1804 50.0376 91.1384 55.0554 88.0253 56.5307C86.4118 57.2953 84.7223 57.3681 83.1959 57.2349C78.478 56.8235 75.5025 52.0154 77.1593 46.6707C77.4185 45.8342 77.7098 45.3225 77.8636 45.061C78.8891 43.3173 80.6205 42.1491 83.4977 41.8414Z" fill="white"/>
<path fill-rule="evenodd" clip-rule="evenodd" d="M35.2048 51.7014C33.9525 53.8059 37.0988 54.3101 39.1284 53.7137V50.5947C37.5689 50.8124 35.7939 50.7111 35.2048 51.7014ZM43.1529 56.6314C39.413 56.8465 33.7293 58.1205 31.6833 55.6253C30.4813 54.1592 30.6106 51.3629 31.6833 49.991C33.0696 48.2184 36.0959 47.8318 38.8266 47.5764C39.0746 46.966 38.9074 45.9728 38.6254 45.564C36.1276 44.9278 33.6458 45.9137 31.8846 46.6707V43.1495C34.5446 41.9273 40.7059 40.6405 42.5493 43.4513C43.5174 44.9276 43.1529 47.5022 43.1529 49.7897V56.6314Z" fill="white"/>
<path fill-rule="evenodd" clip-rule="evenodd" d="M59.0494 56.8327H54.522V50.9972C54.522 49.0758 54.8328 46.6396 53.8175 45.866C53.0225 45.2599 51.1362 45.564 49.9945 45.866V56.8327H45.4669V42.8477C50.0952 41.6455 58.4494 40.3565 59.0494 46.1678C59.3453 49.033 58.8302 53.3316 59.0494 56.8327Z" fill="white"/>
<path fill-rule="evenodd" clip-rule="evenodd" d="M65.7903 52.0032C66.5522 53.2358 68.6152 53.6981 70.3177 52.9087C70.2242 50.554 70.1915 48.1385 70.2171 45.6647C66.3044 44.6309 63.9725 49.0628 65.7903 52.0032ZM77.1593 42.4452C76.7563 43.6521 76.1666 44.6719 75.6502 45.7654C75.1836 45.87 74.7792 45.58 74.5434 45.7654C74.4401 50.6698 75.5878 57.3183 73.6379 60.8569C72.4638 62.9874 70.3022 64.3543 66.9976 64.5796C64.5902 64.7438 62.7218 64.3504 60.9609 63.6741V59.4484C63.0262 60.6543 68.245 61.6374 69.7141 59.1465C70.1463 58.4137 70.1189 57.6562 70.3177 56.5307C69.3718 56.5804 68.4536 57.0184 67.2995 57.0338C62.5545 57.0968 59.619 53.3186 60.7597 48.0793C61.2009 46.0527 62.3884 44.4209 63.9794 43.4513C67.2836 41.4374 72.3627 41.5903 77.1593 42.4452Z" fill="white"/>
<path fill-rule="evenodd" clip-rule="evenodd" d="M28.9668 42.1232C28.9617 45.4571 28.9624 47.8528 28.9621 51.903C28.7698 55.8834 28.8145 59.053 27.3571 60.9576C27.0697 61.3331 26.4592 61.881 25.9485 62.2656C25.5196 62.5885 24.7021 63.2432 24.2381 63.2717C23.7703 63.3004 22.5685 62.6223 22.0246 62.3662C21.3104 62.0298 20.6502 61.5831 19.9119 61.3601C21.634 60.2929 23.2688 59.4928 23.9362 57.3357C24.5167 55.4596 24.4393 52.741 24.4393 50.0917C24.4393 47.4756 24.451 44.4341 24.451 42.1244L28.9668 42.1232Z" fill="white"/>
</svg>
