<svg width="100" height="100" viewBox="0 0 100 100" fill="none" xmlns="http://www.w3.org/2000/svg">
<rect width="100" height="100" rx="24" fill="white"/>
<path d="M91.2455 42.4073C89.3314 41.0792 84.9451 40.5812 81.5157 41.2452C81.117 37.925 79.2827 35.0199 76.0926 32.4467L74.2583 31.1187L72.9823 33.0278C71.3873 35.5179 70.5898 39.0041 70.829 42.3243C70.9088 43.4863 71.3075 45.5614 72.5038 47.3875C71.3873 48.0516 69.0745 48.8816 66.0439 48.8816H8.38342L8.22392 49.5456C7.66565 52.8658 7.66565 63.2414 14.2053 71.2098C19.1499 77.2691 26.4871 80.3403 36.137 80.3403C57.032 80.3403 72.5038 70.2968 79.7612 52.1188C82.6323 52.2018 88.7732 52.1188 91.8835 45.8934C91.9632 45.7274 92.1227 45.3954 92.681 44.1504L93 43.4863L91.2455 42.4073ZM54.4799 19H45.7072V27.3004H54.4799V19ZM54.4799 28.9605H45.7072V37.261H54.4799V28.9605ZM44.1122 28.9605H35.3395V37.261H44.1122V28.9605ZM33.7445 28.9605H24.9718V37.261H33.7445V28.9605ZM23.3767 38.9211H14.6041V47.2215H23.3767V38.9211ZM33.7445 38.9211H24.9718V47.2215H33.7445V38.9211ZM44.1122 38.9211H35.3395V47.2215H44.1122V38.9211ZM54.4799 38.9211H45.7072V47.2215H54.4799V38.9211ZM64.8476 38.9211H56.075V47.2215H64.8476V38.9211Z" fill="#2396ED"/>
</svg>
