<svg width="100" height="100" viewBox="0 0 100 100" fill="none" xmlns="http://www.w3.org/2000/svg">
<rect width="100" height="100" rx="24" fill="#F08705"/>
<path d="M81.5589 58.9613H71.0478L59.9184 40.0412C62.3916 39.5466 64.2465 37.3207 64.2465 34.7238V20.4411C64.2465 17.4114 61.8351 15 58.8054 15H40.2564C37.2267 15 34.8153 17.4114 34.8153 20.4411V34.7238C34.8153 37.3825 36.6702 39.5466 39.0816 40.0412L27.9522 59.0231H17.4411C14.4114 59.0231 12 61.4345 12 64.4641V78.7469C12 81.7766 14.4114 84.188 17.4411 84.188H35.9901C39.0198 84.188 41.4312 81.7766 41.4312 78.7469V64.4641C41.4312 61.4345 39.0198 59.0231 35.9901 59.0231H34.197L45.2028 40.2267H53.7972L64.8648 59.0231H63.0099C59.9802 59.0231 57.5688 61.4345 57.5688 64.4641V78.7469C57.5688 81.7766 59.9802 84.188 63.0099 84.188H81.5589C84.5886 84.188 87 81.7766 87 78.7469V64.4641C87 61.4345 84.5886 58.9613 81.5589 58.9613Z" fill="white"/>
</svg>
