<svg width="100" height="100" viewBox="0 0 100 100" fill="none" xmlns="http://www.w3.org/2000/svg">
<rect width="100" height="100" rx="24" fill="#EA4C89"/>
<path d="M50.5 8C27.0267 8 8 27.0293 8 50.5C8 73.9707 27.0267 92.9997 50.5 92.9997C73.9733 92.9997 93 73.9704 93 50.4997C93 27.029 73.973 8 50.5 8ZM78.3876 28.5699C82.9562 34.3712 85.7535 41.6172 85.9738 49.5036C76.438 47.8329 68.2143 47.7824 61.1087 48.9087C60.2082 46.842 59.2813 44.834 58.3304 42.8896C65.9513 39.7554 72.7858 35.1838 78.3876 28.5699ZM73.4974 23.4912C68.4932 29.566 62.211 33.7468 55.103 36.5919C50.5528 28.1611 45.8727 21.1351 42.1328 16.006C44.8183 15.3498 47.6152 14.9994 50.4974 14.9994C59.2708 14.9965 67.2978 18.2025 73.4974 23.4912ZM35.2399 18.4523C38.855 23.2785 43.6655 30.2698 48.3697 38.8415C38.3983 41.5801 27.2446 42.3186 15.9555 42.3504C18.447 31.7893 25.6559 23.0343 35.2399 18.4523ZM15.0017 50.4968L15.0309 49.3492H15.222C27.8711 49.3492 40.4297 48.5206 51.6896 45.2028C52.529 46.9109 53.355 48.6639 54.1627 50.4676C39.3489 54.8107 30.1131 64.5589 23.7833 73.8344C18.3221 67.5954 15.0017 59.4274 15.0017 50.4968ZM28.9576 78.6852C34.9501 69.6594 43.3013 60.7291 56.8908 56.9783C60.065 65.1118 62.6548 73.9888 64.0255 83.3122C59.8552 85.0442 55.2892 86.0003 50.5026 86.0003C42.4035 86.0003 34.9344 83.2725 28.9576 78.6852ZM70.5546 79.7744C69.1016 71.2557 66.7215 63.1304 63.8554 55.5973C70.0659 54.8083 77.2056 54.9998 85.4824 56.5217C83.8277 66.1421 78.2974 74.4539 70.5546 79.7744Z" fill="#AD1F57"/>
</svg>
