<svg width="100" height="100" viewBox="0 0 100 100" fill="none" xmlns="http://www.w3.org/2000/svg">
<rect width="100" height="100" rx="24" fill="white"/>
<path d="M33.059 10L8 26.2382L25.441 40.2712L50.5 24.6344L33.059 10ZM8 53.9033L33.059 70.342L50.5 55.7075L25.441 40.2712L8 53.9033ZM50.5 55.7075L68.1415 70.342L93 54.1038L75.7594 40.2712L50.5 55.7075ZM93 26.2382L68.1415 10L50.5 24.6344L75.7594 40.2712L93 26.2382ZM50.7005 58.9151L33.059 73.5495L25.6415 68.5377V74.1509L50.7005 89.1863L75.7594 74.1509V68.5377L68.1415 73.5495L50.7005 58.9151Z" fill="#007EE5"/>
</svg>
