<svg width="100" height="100" viewBox="0 0 100 100" fill="none" xmlns="http://www.w3.org/2000/svg">
<rect width="100" height="100" rx="24" fill="#DC4C26"/>
<circle cx="49.5" cy="51.5" r="40.5" fill="white"/>
<path d="M49.5 9C26.0294 9 7 28.0294 7 51.5C7 74.9706 26.0294 94 49.5 94C72.9706 94 92 74.9706 92 51.5C92 28.0294 72.9706 9 49.5 9ZM49.5 90.4583C27.9844 90.4583 10.5417 73.0121 10.5417 51.5C10.5417 29.9879 27.9879 12.5417 49.5 12.5417C71.0121 12.5417 88.4583 29.9844 88.4583 51.5C88.4583 73.0156 71.0156 90.4583 49.5 90.4583ZM85.6923 51.5C85.6923 68.5177 73.9446 82.7835 58.1169 86.651C57.1606 84.8058 56.2398 83.0492 55.4642 81.5581C57.7485 82.44 62.2996 84.101 63.2842 83.7363C64.6158 83.2262 64.2829 72.5835 62.7883 72.2435C61.5913 71.9779 57.0083 75.2079 55.2056 76.5254L55.326 77.0779C55.6023 78.484 55.836 80.5948 55.4323 81.4944C55.4288 81.5085 55.4252 81.5298 55.4181 81.5404C55.3661 81.6634 55.2832 81.7708 55.1773 81.8521C54.1715 82.5179 51.3488 82.8579 49.8542 82.5179C49.7772 82.4992 49.7014 82.4756 49.6275 82.4471C47.1696 83.8496 42.5088 86.3748 41.6588 85.886C40.4935 85.2202 40.3235 76.4085 40.4935 74.241C40.6175 72.6119 46.3479 75.254 49.1423 76.6458C49.7585 76.0685 51.2744 75.6825 52.6131 75.5479C50.5944 70.6285 49.1069 65.0044 50.0171 61.0094C50.0171 61.0165 50.0242 61.0165 50.0242 61.0165C51.285 61.8948 59.6929 64.7352 63.8721 64.6538C68.0513 64.5687 74.9008 62.0223 74.1535 59.9681C73.4027 57.914 66.5921 61.7744 59.484 61.1156C54.221 60.6269 53.2931 58.2681 54.4548 56.5469C55.921 54.3829 58.5915 56.9577 62.9938 55.6402C67.4031 54.3262 73.5727 51.9746 75.8571 50.6925C81.1483 47.7423 73.6435 46.524 71.8727 47.3385C70.194 48.1177 64.3538 49.5946 61.6408 50.2427C63.1567 44.8735 59.5052 35.5483 55.4181 31.4719C54.0865 30.1402 52.05 29.3044 49.7408 28.8652C48.8554 27.6469 47.4246 26.4888 45.4023 25.405C41.4926 23.3595 37.0261 22.6339 32.67 23.3367L32.585 23.3508L32.4646 23.365L32.4788 23.3721C31.9546 23.4713 31.6394 23.6554 31.2144 23.7192C31.7385 23.7758 33.7113 24.6967 34.9579 25.1996C34.3417 25.4404 33.4988 25.5821 32.8471 25.8512C32.5988 25.8862 32.3559 25.9529 32.1246 26.0496C31.5119 26.3329 31.0515 27.3777 31.0621 27.8735C34.0371 27.569 38.4358 27.7815 41.6552 28.7448C39.3744 29.0635 37.2812 29.6585 35.7725 30.4519C35.7158 30.4802 35.6663 30.5156 35.6025 30.551C35.4113 30.6219 35.2271 30.6998 35.0642 30.7848C30.2227 33.3348 28.0835 39.3025 29.3585 46.4531C30.5025 52.9131 35.2554 75.0981 37.469 85.6381C23.3979 80.6798 13.3077 67.271 13.3077 51.5C13.3077 31.5108 29.5108 15.3077 49.5 15.3077C69.4892 15.3077 85.6923 31.5108 85.6923 51.5ZM39.2115 42.9327C38.4995 42.9327 37.8166 43.2155 37.3132 43.719C36.8097 44.2225 36.5269 44.9053 36.5269 45.6173C36.5269 46.3293 36.8097 47.0121 37.3132 47.5156C37.8166 48.019 38.4995 48.3019 39.2115 48.3019C39.9235 48.3019 40.6063 48.019 41.1097 47.5156C41.6132 47.0121 41.896 46.3293 41.896 45.6173C41.896 44.9053 41.6132 44.2225 41.1097 43.719C40.6063 43.2155 39.9235 42.9327 39.2115 42.9327ZM40.4085 45.419C40.3174 45.419 40.2271 45.401 40.1429 45.3661C40.0587 45.3312 39.9822 45.2801 39.9177 45.2156C39.8532 45.1512 39.8021 45.0747 39.7672 44.9904C39.7323 44.9062 39.7144 44.816 39.7144 44.7248C39.7144 44.6336 39.7323 44.5434 39.7672 44.4591C39.8021 44.3749 39.8532 44.2984 39.9177 44.2339C39.9822 44.1695 40.0587 44.1184 40.1429 44.0835C40.2271 44.0486 40.3174 44.0306 40.4085 44.0306C40.5926 44.0306 40.7692 44.1038 40.8994 44.2339C41.0296 44.3641 41.1027 44.5407 41.1027 44.7248C41.1027 44.9089 41.0296 45.0855 40.8994 45.2156C40.7692 45.3458 40.5926 45.419 40.4085 45.419ZM57.1394 41.725C56.8297 41.7128 56.5208 41.7633 56.2311 41.8735C55.9414 41.9836 55.6769 42.1511 55.4535 42.3659C55.2301 42.5807 55.0524 42.8384 54.931 43.1235C54.8096 43.4087 54.747 43.7154 54.747 44.0253C54.747 44.3352 54.8096 44.6419 54.931 44.9271C55.0524 45.2122 55.2301 45.4699 55.4535 45.6847C55.6769 45.8995 55.9414 46.067 56.2311 46.1772C56.5208 46.2873 56.8297 46.3378 57.1394 46.3256C57.7499 46.3256 58.3355 46.0831 58.7672 45.6514C59.1989 45.2196 59.4415 44.6341 59.4415 44.0235C59.4415 43.413 59.1989 42.8274 58.7672 42.3957C58.3355 41.964 57.7499 41.725 57.1394 41.725ZM58.1665 43.8535C58.0087 43.8535 57.8573 43.7909 57.7457 43.6793C57.6341 43.5677 57.5715 43.4163 57.5715 43.2585C57.5715 43.1007 57.6341 42.9494 57.7457 42.8378C57.8573 42.7262 58.0087 42.6635 58.1665 42.6635C58.3243 42.6635 58.4756 42.7262 58.5872 42.8378C58.6988 42.9494 58.7615 43.1007 58.7615 43.2585C58.7615 43.4163 58.6988 43.5677 58.5872 43.6793C58.4756 43.7909 58.3243 43.8535 58.1665 43.8535ZM39.9835 37.8504C39.9835 37.8504 37.9613 36.9296 35.9992 38.1692C34.0371 39.4017 34.1079 40.6625 34.1079 40.6625C34.1079 40.6625 33.0667 38.3392 35.8433 37.1987C38.6271 36.0654 39.9871 37.8504 39.9871 37.8504H39.9835ZM58.5277 37.6663C58.5277 37.6663 57.0756 36.8375 55.9423 36.8517C53.626 36.88 52.9992 37.9 52.9992 37.9C52.9992 37.9 53.3887 35.4633 56.346 35.9521C56.8216 36.039 57.2688 36.2406 57.6489 36.5393C58.0291 36.8379 58.3307 37.2248 58.5277 37.6663Z" fill="#DC4C26"/>
</svg>
