<svg width="100" height="100" viewBox="0 0 100 100" fill="none" xmlns="http://www.w3.org/2000/svg">
<rect width="100" height="100" rx="24" fill="#FF4747"/>
<path fill-rule="evenodd" clip-rule="evenodd" d="M49.5 92.0001C26.0653 92.0001 7 72.9347 7 49.5001C7 26.0653 26.0653 7 49.5 7C72.9343 7 92 26.0654 92 49.5001C92 72.9346 72.9344 92.0001 49.5 92.0001ZM56.6934 33.0614H32.6746L29.0303 38.918H53.0215L56.6934 33.0614ZM61.6019 33.1173L46.9187 56.4976H30.6315L34.3892 50.6361H44.1509L47.8799 44.7774H25.3123L21.5841 50.6361H26.9303L19.5127 62.3389H50.4688L61.9026 44.3074L66.0715 50.6361H62.3124L58.7525 56.4976H69.8842L73.7496 62.3389H80.8505L61.6019 33.1173Z" fill="white"/>
</svg>
