<svg width="100" height="100" viewBox="0 0 100 100" fill="none" xmlns="http://www.w3.org/2000/svg">
<rect width="100" height="100" rx="24" fill="white"/>
<path fill-rule="evenodd" clip-rule="evenodd" d="M79.5981 7H19.652C14.7932 7 13 8.79317 13 13.6543V72.3111C13 72.8612 13.0222 73.3722 13.0708 73.8456C13.1814 74.9067 13.2022 75.9348 14.1891 77.1055C14.2855 77.2202 15.293 77.9699 15.293 77.9699C15.8349 78.2357 16.205 78.4314 16.8162 78.6774L46.3344 91.0445C47.8668 91.7471 48.5076 92.0208 49.6206 91.9988V91.9989C49.6221 91.9989 49.6235 91.9989 49.625 91.9989C49.6265 91.9989 49.6278 91.9989 49.6293 91.9989V91.9988C50.7423 92.0208 51.3831 91.7471 52.9157 91.0445L82.4338 78.6774C83.0451 78.4314 83.415 78.2357 83.9571 77.9699C83.9571 77.9699 84.9646 77.2202 85.0609 77.1055C86.0477 75.9348 86.0685 74.9067 86.1792 73.8456C86.2278 73.3722 86.2501 72.8612 86.2501 72.3111V13.6543C86.2501 8.79317 84.4568 7 79.5981 7Z" fill="#2F2D2E"/>
<path d="M75.5829 65.9717L75.5693 66.107L75.5559 66.2557L75.5287 66.3911L75.4883 66.5263L75.462 66.6481L75.4213 66.7834L75.3672 66.9052L75.3131 67.0136L75.2598 67.1352L75.1922 67.2434L75.1246 67.3518L75.0441 67.46L74.9764 67.5682L74.8961 67.6628L74.8013 67.7576L74.7209 67.8388L74.6128 67.9336L74.5188 68.0148L74.4106 68.0959L74.3031 68.1626L74.1957 68.2438L74.0739 68.3114L73.9529 68.3656L73.832 68.4332L73.6966 68.4874L73.5621 68.5416L73.4277 68.582L73.2932 68.6228L73.1714 68.6632L73.037 68.6904L72.9159 68.7174L72.795 68.7444L72.6597 68.7716L72.5251 68.785L72.4042 68.7986L72.2688 68.8122L72.1209 68.8258L71.9863 68.8392H71.8518H71.7038H71.555H71.4205L71.2859 68.8258H71.138L71.0034 68.8122L70.8682 68.7986L70.7201 68.785L70.5857 68.758L70.4512 68.7444L70.3158 68.7174L70.1812 68.6904L70.0467 68.6632L69.9123 68.6362L69.7771 68.5958L69.656 68.5686L69.5216 68.528L69.3869 68.4874L69.2653 68.4332L69.1308 68.3926L69.0098 68.3522L68.8752 68.298L68.7536 68.2438L68.6325 68.1897L68.5115 68.123L68.3899 68.0688L68.2688 68.001L68.1614 67.9336L68.0396 67.8658L67.9321 67.7982L67.8239 67.7306L67.7165 67.6494L67.609 67.5682L67.5008 67.487L67.3932 67.4058L67.2986 67.3246L67.1911 67.23L67.2723 67.1218L67.3662 67.027L67.4474 66.9187L67.5414 66.8105L67.6226 66.7158L67.7029 66.6076L67.7977 66.4993L67.878 66.4046L67.9727 66.2964L68.0532 66.2017L68.1478 66.0935L68.2282 65.9851L68.3094 65.8905L68.4033 65.7823L68.4845 65.6739L68.5783 65.5793L68.6595 65.4711L68.767 65.5523L68.888 65.6335L68.9962 65.7147L69.1173 65.7959L69.2255 65.8635L69.3465 65.9445L69.4538 66.0123L69.5757 66.0663L69.683 66.1341L69.8041 66.1882L69.9259 66.2423L70.0467 66.2964L70.1679 66.337L70.2896 66.3911L70.424 66.4317L70.5586 66.4723L70.6795 66.5129L70.8149 66.54L70.9494 66.567L71.0838 66.594L71.2319 66.6076L71.3671 66.6346H71.5017L71.6496 66.6481H71.7842H71.9457L72.0937 66.6346L72.2291 66.6076L72.35 66.5805L72.471 66.5534L72.5792 66.5129L72.6733 66.4588L72.7815 66.3776L72.8617 66.2829L72.9159 66.1745L72.9567 66.0529L72.97 65.9175V65.8905L72.9567 65.7281L72.9025 65.5927L72.8347 65.4981L72.7409 65.4169L72.6325 65.3357L72.5251 65.2817L72.4042 65.2275L72.2688 65.1733L72.1073 65.1059L72.0133 65.0787L71.906 65.0517L71.7842 65.011L71.6632 64.9839L71.5287 64.9433L71.3934 64.9163L71.2455 64.8757L71.1108 64.8487L70.9628 64.8081L70.8283 64.7811L70.693 64.7405L70.5586 64.7133L70.424 64.6728L70.3022 64.6323L70.1679 64.6051L70.0467 64.5645L69.9259 64.524L69.8041 64.4834L69.656 64.4292L69.5216 64.375L69.3869 64.321L69.2517 64.2668L69.1308 64.1992L68.9962 64.1316L68.888 64.064L68.767 63.9964L68.6595 63.9152L68.5513 63.8476L68.4575 63.7662L68.3628 63.6716L68.2688 63.5768L68.1876 63.482L68.1073 63.3874L68.0396 63.2928L67.9727 63.1844L67.9051 63.0628L67.8509 62.9689L67.8103 62.8606L67.7707 62.7388L67.7301 62.6306L67.7029 62.4952L67.6759 62.3734L67.6623 62.2382L67.6489 62.1028L67.6353 61.9542V61.8052V61.7782V61.6428L67.6489 61.5076L67.6623 61.3858L67.6759 61.2505L67.7029 61.1288L67.7301 61.007L67.7707 60.8851L67.7977 60.7635L67.8509 60.6417L67.9051 60.5199L67.9591 60.3983L68.0261 60.2763L68.0936 60.1547L68.174 60.0463L68.2554 59.9381L68.3493 59.8299L68.4439 59.7353L68.5379 59.6269L68.6461 59.5322L68.74 59.4645L68.8482 59.3834L68.9558 59.3022L69.0631 59.2346L69.1849 59.1669L69.3059 59.1128L69.4268 59.0452L69.5486 58.9911L69.683 58.9504L69.8175 58.8963L69.9393 58.8558L70.0467 58.8286L70.1679 58.8016L70.2896 58.7746L70.424 58.7476L70.5451 58.7204L70.6795 58.707L70.8149 58.6934L70.9494 58.6798L71.0838 58.6664H71.2183H71.3671H71.5153H71.6632L71.8112 58.6798L71.9593 58.6934H72.0937L72.2425 58.707L72.377 58.734L72.5251 58.7476L72.6597 58.7746L72.7815 58.8016L72.9159 58.8286L73.0504 58.8558L73.1714 58.8828L73.3066 58.9234L73.4277 58.964L73.5487 58.9911L73.6839 59.0452L73.805 59.0857L73.9258 59.1398L74.0469 59.194L74.1821 59.2481L74.3031 59.3157L74.4106 59.3699L74.5324 59.4375L74.6534 59.5051L74.7609 59.5729L74.8825 59.6541L74.9901 59.7216L75.0983 59.8029L75.2058 59.8841L75.3131 59.9651L75.2328 60.0735L75.1652 60.1817L75.0847 60.2899L75.0035 60.3983L74.9232 60.5199L74.8555 60.6281L74.7743 60.7365L74.6939 60.8447L74.6264 60.9529L74.5458 61.0612L74.4648 61.1694L74.397 61.2776L74.3167 61.3994L74.2354 61.5076L74.1551 61.6158L74.0875 61.724L74.007 61.8322L73.8988 61.7512L73.778 61.6834L73.6703 61.6158L73.5621 61.5346L73.4413 61.4806L73.3329 61.4128L73.212 61.3587L73.1046 61.3046L72.9828 61.2505L72.8753 61.1964L72.7544 61.1558L72.6462 61.1017L72.498 61.0612L72.3636 61.0205L72.2291 60.98L72.0937 60.9529L71.9593 60.9258L71.8248 60.8987L71.6903 60.8851L71.555 60.8717L71.4341 60.8581H71.2995H71.138L70.99 60.8851L70.8546 60.9123L70.7337 60.9393L70.6263 60.9935L70.5315 61.0475L70.4104 61.1558L70.3293 61.2776L70.2761 61.3994L70.2624 61.5346V61.5618L70.2761 61.7376L70.3428 61.8864L70.397 61.9676L70.4909 62.0624L70.6127 62.13L70.7201 62.1976L70.8546 62.2518L71.0034 62.306L71.165 62.36L71.2725 62.387L71.3799 62.4276L71.5017 62.4546L71.6226 62.4952L71.7571 62.5224L71.906 62.563L72.0541 62.6034L72.2021 62.6442L72.35 62.6712L72.4845 62.7118L72.6325 62.7524L72.7679 62.7794L72.9025 62.82L73.037 62.8606L73.1578 62.9012L73.2932 62.9418L73.4142 62.9824L73.5351 63.023L73.6839 63.0762L73.8184 63.144L73.9529 63.198L74.0875 63.2656L74.2093 63.3334L74.3303 63.401L74.4376 63.4686L74.5458 63.5498L74.6534 63.6174L74.7609 63.7122L74.8691 63.8068L74.9629 63.9152L75.0576 64.0098L75.138 64.1181L75.2192 64.2398L75.286 64.348L75.3538 64.4699L75.4078 64.5781L75.4484 64.6998L75.4883 64.8216L75.5153 64.9433L75.5423 65.0787L75.5693 65.2141L75.5829 65.3493L75.5965 65.4981V65.6469V65.6739V65.8229L75.5829 65.9717ZM66.1366 68.677H66.0013H65.8669H65.7324H65.5979H65.4626H65.3279H65.1936H65.059H64.9102H64.7758H64.6413H64.5068H64.3713H64.237H64.1024H63.9679H63.8325H63.6981H63.5636H63.4291H63.2945H63.1593H63.0248H62.8904H62.7558H62.6204H62.4859H62.3515H62.2034H62.0682H61.9336H61.7991H61.6647H61.5294H61.3948H61.2604H61.1257H60.9905H60.8561H60.7216H60.587H60.4516H60.3173H60.1827H60.0482H59.913H59.7784H59.6303H59.4959H59.3614H59.226H59.0916H58.9569H58.8226H58.6874H58.5528H58.4183V68.5416V68.4062V68.271V68.1364V68.001V67.8658V67.7306V67.5954V67.46V67.3246V67.1894V67.054V66.9187V66.7834V66.6481V66.5129V66.3776V66.2423V66.1205V65.9851V65.8499V65.7147V65.5793V65.4439V65.3087V65.1733V65.038V64.9027V64.7675V64.6323V64.4969V64.3616V64.2263V64.091V63.9556V63.8204V63.685V63.5498V63.4146V63.2792V63.144V63.0094V62.8742V62.7388V62.6034V62.4682V62.333V62.1976V62.0624V61.927V61.7916V61.6564V61.5211V61.3858V61.264V61.1288V60.9935V60.8581V60.7229V60.5875V60.4523V60.3169V60.1817V60.0463V59.9111V59.7757V59.6404V59.5051V59.3699V59.2346V59.0993V58.964V58.8286H58.5528H58.6874H58.8226H58.9569H59.0916H59.226H59.3614H59.4959H59.6303H59.7649H59.9002H60.0348H60.1691H60.3037H60.4253H60.56H60.6944H60.829H60.9643H61.0987H61.2332H61.3678H61.503H61.6375H61.772H61.9066H62.0419H62.1764H62.3109H62.4453H62.5807H62.7153H62.8496H62.9841H63.1187H63.2541H63.3885H63.523H63.6575H63.7929H63.9273H64.0618H64.1962H64.3182H64.4526H64.5871H64.7217H64.8569H64.9914H65.1259H65.2603H65.3957H65.5302H65.6646H65.7993H65.9345H66.0691H66.2036V58.964V59.0857V59.221V59.3563V59.4916V59.6133V59.7487V59.8841V60.0057V60.1411V60.2763V60.3983V60.5335V60.6687V60.8041V60.9258V61.0612H66.0691H65.9345H65.7993H65.6646H65.5302H65.3957H65.2739H65.1395H65.005H64.8704H64.7352H64.6007H64.4661H64.3316H64.1962H64.0618H63.9273H63.7929H63.6575H63.5366H63.402H63.2675H63.1321H62.9978H62.8632H62.7288H62.5934H62.4589H62.3245H62.19H62.0546H61.92H61.7991H61.6647H61.5294H61.3948H61.2604H61.1257H60.9905V61.1964V61.3317V61.4669V61.6022V61.7376V61.8594V61.9946V62.13V62.2652V62.4006V62.5358V62.6712H61.1257H61.2604H61.3948H61.5294H61.6647H61.7991H61.9336H62.0682H62.19H62.3245H62.4589H62.5934H62.7288H62.8632H62.9978H63.1321H63.2675H63.402H63.5366H63.6711H63.8063H63.9407H64.0754H64.21H64.3452H64.4797H64.6007H64.7352H64.8704H65.005H65.1395H65.2739H65.4091H65.5438H65.6782V62.8064V62.9282V63.0628V63.198V63.3198V63.455V63.5904V63.7122V63.8476V63.9828V64.1181V64.2398V64.375V64.5104V64.6323V64.7675H65.5438H65.4091H65.2739H65.1395H65.005H64.8704H64.7352H64.6007H64.4797H64.3452H64.21H64.0754H63.9407H63.8063H63.6711H63.5366H63.402H63.2675H63.1321H62.9978H62.8632H62.7288H62.5934H62.4589H62.3245H62.19H62.0682H61.9336H61.7991H61.6647H61.5294H61.3948H61.2604H61.1257H60.9905V64.9027V65.0517V65.1869V65.3223V65.4711V65.6065V65.7417V65.8905V66.0257V66.1611V66.3099V66.4451H61.1257H61.2604H61.3948H61.5294H61.6647H61.7991H61.9336H62.0682H62.2034H62.3515H62.4859H62.6204H62.7558H62.8904H63.0248H63.1593H63.2945H63.4291H63.5636H63.6981H63.8325H63.9679H64.1024H64.237H64.3713H64.5068H64.6413H64.7758H64.9102H65.059H65.1936H65.3279H65.4626H65.5979H65.7324H65.8669H66.0013H66.1366H66.2712V66.5805V66.7022V66.8376V66.9728V67.1082V67.23V67.3652V67.5004V67.6224V67.7576V67.8928V68.0148V68.1492V68.2844V68.4197V68.5416V68.677H66.1366ZM56.2948 68.677H56.1604H56.0257H55.8771H55.7426H55.608H55.4735H55.3382H55.2037H55.0557H54.9212H54.7866H54.6514H54.5169H54.3824H54.2344H54.099H53.9645H53.8299V68.5416V68.4062V68.271V68.1356V67.9995V67.8643V67.7289V67.5935V67.4583V67.3231V67.1877V67.0518V66.9164V66.781V66.6458V66.5104V66.3743V66.2389V66.1037V65.9685V65.8331V65.6979V65.5618V65.4266V65.2912V65.1558V65.0206V64.8852V64.7491V64.6137V64.4785V64.3433V64.2081V64.0727V63.9366V63.8014V63.666V63.5308V63.3954V63.2593V63.1241V62.9887V62.8533L53.7625 62.9615L53.682 63.0842L53.6143 63.1924L53.534 63.3008L53.4664 63.4224L53.385 63.5308L53.3183 63.639L53.2506 63.7615L53.1703 63.8697L53.1025 63.9779L53.0215 64.0863L52.9546 64.2088L52.8734 64.317L52.8066 64.4253L52.7388 64.547L52.6576 64.656L52.5908 64.7644L52.5096 64.886L52.4429 64.9944L52.3617 65.1026L52.2948 65.2251L52.2271 65.3335L52.146 65.4417L52.0792 65.5634L51.998 65.6724L51.9311 65.7806L51.8499 65.889L51.7822 66.0106L51.7153 66.1196L51.6343 66.2279L51.5674 66.3497L51.4862 66.4579L51.4186 66.5661L51.3382 66.6888L51.2706 66.797H51.2171L51.1361 66.6752L51.0683 66.5661L50.9879 66.4443L50.9203 66.3361L50.8399 66.2145L50.7723 66.1054L50.692 65.9836L50.6242 65.8752L50.543 65.7536L50.4762 65.6454L50.395 65.5227L50.3283 65.4145L50.2471 65.2927L50.1793 65.1845L50.099 65.062L50.0313 64.9538L49.951 64.832L49.8698 64.7238L49.8022 64.6012L49.7217 64.493L49.6541 64.3712L49.5737 64.263L49.5061 64.1403L49.4256 64.0321L49.358 63.9103L49.2768 63.8021L49.21 63.6803L49.1288 63.5712L49.0619 63.4496L48.9807 63.3412L48.9131 63.2194L48.8329 63.1114L48.7649 62.9887L48.6847 62.8805V63.0157V63.1511V63.2865V63.4224V63.5578V63.693V63.8284V63.9638V64.0997V64.2351V64.3569V64.4921V64.6275V64.7627V64.8988V65.0342V65.1694V65.3046V65.44V65.5754V65.7113V65.8467V65.9821V66.1173V66.2527V66.3879V66.524V66.6592V66.7946V66.9298V67.0652V67.2012V67.3231V67.4583V67.5935V67.7289V67.8643V67.9995V68.1356V68.271V68.4062V68.5416V68.677H48.5502H48.415H48.2804H48.1459H48.0114H47.8762H47.7416H47.6071H47.4725H47.3373H47.2028H47.0682H46.9337H46.7985H46.6641H46.5294H46.3948H46.2596H46.1251V68.5416V68.4062V68.271V68.1364V68.001V67.8658V67.7306V67.5954V67.46V67.3246V67.1894V67.054V66.9187V66.7834V66.6481V66.5129V66.3776V66.2423V66.1205V65.9851V65.8499V65.7147V65.5793V65.4439V65.3087V65.1733V65.038V64.9027V64.7675V64.6323V64.4969V64.3616V64.2263V64.091V63.9556V63.8204V63.685V63.5498V63.4146V63.2792V63.144V63.0094V62.8742V62.7388V62.6034V62.4682V62.333V62.1976V62.0624V61.927V61.7916V61.6564V61.5211V61.3858V61.264V61.1288V60.9935V60.8581V60.7229V60.5875V60.4523V60.3169V60.1817V60.0463V59.9111V59.7757V59.6404V59.5051V59.3699V59.2346V59.0993V58.964V58.8286H46.2596H46.3948H46.516H46.6503H46.7849H46.9202H47.0412H47.1757H47.311H47.4455H47.5665H47.701H47.8364H47.9708H48.0917H48.2262H48.3615H48.4962H48.617H48.7515H48.8869L48.9537 58.9369L49.0213 59.0586L49.1016 59.166L49.1694 59.2878L49.237 59.396L49.3039 59.518L49.3715 59.6253L49.4521 59.7472L49.5195 59.8554L49.5873 59.9636L49.6541 60.0845L49.7217 60.1929L49.8022 60.3145L49.8698 60.4228L49.9374 60.5437L50.0042 60.6519L50.0854 60.7601L50.1532 60.8813L50.2199 60.9894L50.2875 61.1112L50.3545 61.2195L50.4357 61.3404L50.5033 61.4488L50.57 61.5704L50.6378 61.6779L50.7046 61.7861L50.7858 61.9078L50.8534 62.0162L50.9203 62.138L50.9879 62.2454L51.0548 62.3672L51.1361 62.4754L51.2037 62.5963L51.2706 62.7047L51.3382 62.5963L51.4058 62.4754L51.4862 62.3672L51.5537 62.2454L51.6207 62.138L51.6883 62.0162L51.7687 61.9078L51.8364 61.7861L51.9041 61.6779L51.9708 61.5704L52.052 61.4488L52.1189 61.3404L52.1866 61.2195L52.2541 61.1112L52.3345 60.9894L52.4021 60.8813L52.4699 60.7601L52.5366 60.6519L52.6045 60.5437L52.6848 60.4228L52.7524 60.3145L52.82 60.1929L52.887 60.0845L52.9681 59.9636L53.0351 59.8554L53.1025 59.7472L53.1703 59.6253L53.2506 59.518L53.3183 59.396L53.385 59.2878L53.4528 59.166L53.534 59.0586L53.6008 58.9369L53.6685 58.8286H53.8029H53.9375H54.0592H54.1938H54.3282H54.4627H54.5845H54.7191H54.8534H54.988H55.1098H55.2443H55.3788H55.5134H55.635H55.7696H55.9041H56.0386H56.1604H56.2948H56.4293V58.964V59.0993V59.2346V59.3699V59.5051V59.6404V59.7757V59.9111V60.0463V60.1817V60.3169V60.4523V60.5875V60.7229V60.8581V60.9935V61.1288V61.264V61.3858V61.5211V61.6564V61.7916V61.927V62.0624V62.1976V62.333V62.4682V62.6034V62.7388V62.8742V63.0094V63.144V63.2792V63.4146V63.5498V63.685V63.8204V63.9556V64.091V64.2263V64.3616V64.4969V64.6323V64.7675V64.9027V65.038V65.1733V65.3087V65.4439V65.5793V65.7147V65.8499V65.9851V66.1205V66.2423V66.3776V66.5129V66.6481V66.7834V66.9187V67.054V67.1894V67.3246V67.46V67.5954V67.7306V67.8658V68.001V68.1364V68.271V68.4062V68.5416V68.677H56.2948ZM40.6663 64.6187L40.6257 64.4962L40.5724 64.3608L40.5182 64.239L40.4776 64.1165L40.4244 63.9947L40.3703 63.8593L40.3296 63.7368L40.2754 63.615L40.2223 63.4934L40.1815 63.3708L40.1274 63.2354L40.0877 63.1137L40.0335 62.9911L39.9793 62.8693L39.9389 62.7475L39.8854 62.6116L39.8314 62.4896L39.7908 62.368L39.7366 62.2454L39.6834 62.1101L39.6428 61.9875L39.5886 61.8657L39.5353 61.9875L39.4949 62.1101L39.4407 62.2454L39.3865 62.368L39.3467 62.4896L39.2926 62.6116L39.2385 62.7475L39.1852 62.8693L39.1444 62.9911L39.0904 63.1137L39.0362 63.2354L38.9964 63.3708L38.9424 63.4934L38.8882 63.615L38.8477 63.7368L38.7943 63.8593L38.7401 63.9947L38.6861 64.1165L38.6464 64.239L38.5923 64.3608L38.5381 64.4962L38.4975 64.6187L38.4442 64.7405H38.5787H38.7131H38.8477H38.983H39.1174H39.2519H39.3865H39.5219H39.6428H39.7772H39.9126H40.0471H40.1815H40.3161H40.4506H40.5858H40.7203L40.6663 64.6187ZM44.8964 68.677H44.7612H44.64H44.5057H44.3703H44.2358H44.1012H43.9803H43.845H43.7105H43.576H43.4414H43.3062H43.1852H43.0507H42.9161H42.7809H42.6464H42.5254H42.3909H42.2557L42.2023 68.555L42.1617 68.4332L42.1077 68.3114L42.0535 68.1762L42.0136 68.0552L41.9596 67.9336L41.9054 67.8118L41.8656 67.69L41.8116 67.5682L41.7574 67.4464L41.7169 67.3246L41.6635 67.1894L41.6093 67.0676L41.5687 66.9458L41.5146 66.824H41.3801H41.2456H41.1112H40.9767H40.8549H40.7203H40.5858H40.4506H40.3161H40.1815H40.0471H39.9126H39.7772H39.6428H39.5219H39.3865H39.2519H39.1174H38.983H38.8477H38.7131H38.5787H38.4442H38.3097H38.1878H38.0535H37.9189H37.7835H37.649L37.5958 66.9458L37.5552 67.0676L37.501 67.1894L37.447 67.3246L37.4071 67.4464L37.3531 67.5682L37.2989 67.69L37.2583 67.8118L37.205 67.9336L37.1509 68.0552L37.1103 68.1762L37.0568 68.3114L37.0028 68.4332L36.9622 68.555L36.908 68.677H36.7736H36.6391H36.5047H36.3693H36.2348H36.0868H35.9523H35.8177H35.6825H35.548H35.4135H35.2789H35.1436H35.0092H34.8748H34.7267H34.5914H34.4569H34.3223H34.1878L34.2411 68.555L34.2953 68.4332L34.3493 68.3114L34.4027 68.1762L34.4433 68.0552L34.4975 67.9336L34.5515 67.8118L34.6048 67.69L34.659 67.5682L34.7131 67.4328L34.7664 67.311L34.8206 67.1894L34.861 67.0676L34.9152 66.9458L34.9685 66.824L35.0227 66.6888L35.0767 66.567L35.1301 66.4451L35.1843 66.3235L35.2383 66.2017L35.2789 66.0799L35.3322 65.9445L35.3864 65.8229L35.4406 65.7011L35.4938 65.5793L35.548 65.4575L35.6022 65.3357L35.6555 65.2003L35.6961 65.0787L35.7502 64.9569L35.8043 64.8351L35.8577 64.7133L35.9117 64.5916L35.9657 64.4563L36.0192 64.3346L36.0732 64.2128L36.1138 64.091L36.168 63.9693L36.2212 63.8476L36.2754 63.7122L36.3296 63.5904L36.3829 63.4686L36.4369 63.3468L36.4911 63.2252L36.5317 63.1032L36.5851 62.9824L36.6391 62.847L36.6931 62.7254L36.7466 62.6034L36.8006 62.4816L36.8548 62.36L36.908 62.2382L36.9486 62.1028L37.0028 61.9812L37.0568 61.8594L37.1103 61.7376L37.1644 61.6158L37.2185 61.494L37.2719 61.3587L37.3259 61.237L37.3665 61.1152L37.4206 60.9935L37.474 60.8717L37.528 60.7499L37.5822 60.6147L37.6355 60.4929L37.6896 60.3711L37.7438 60.2493L37.7835 60.1277L37.8377 60.0057L37.8919 59.8705L37.946 59.7487L37.9993 59.6269L38.0535 59.5051L38.1075 59.3834L38.1608 59.2617L38.2015 59.1263L38.2556 59.0046L38.3097 58.8828L38.363 58.761H38.4975H38.6193H38.7537H38.8882H39.0236H39.1444H39.2789H39.4135H39.5489H39.6699H39.8042H39.9389H40.0741H40.1951H40.3296H40.464H40.5994H40.7203H40.8549L40.9089 58.8828L40.9631 59.0046L41.0165 59.1263L41.0706 59.2617L41.1112 59.3834L41.1644 59.5051L41.2186 59.6269L41.2726 59.7487L41.3268 59.8705L41.3801 60.0057L41.4343 60.1277L41.4884 60.2493L41.5281 60.3711L41.5823 60.4929L41.6365 60.6147L41.6907 60.7499L41.7439 60.8717L41.798 60.9935L41.8522 61.1152L41.9054 61.237L41.946 61.3587L42 61.494L42.0535 61.6158L42.1077 61.7376L42.1617 61.8594L42.2159 61.9812L42.2691 62.1028L42.3232 62.2382L42.3639 62.36L42.4172 62.4816L42.4712 62.6034L42.5254 62.7254L42.5796 62.847L42.6328 62.9824L42.687 63.1032L42.741 63.2252L42.7809 63.3468L42.8349 63.4686L42.8891 63.5904L42.9425 63.7122L42.9965 63.8476L43.0507 63.9693L43.1049 64.091L43.1582 64.2128L43.1988 64.3346L43.2528 64.4563L43.3062 64.5916L43.3602 64.7133L43.4144 64.8351L43.4684 64.9569L43.5219 65.0787L43.576 65.2003L43.6165 65.3357L43.6699 65.4575L43.7239 65.5793L43.7781 65.7011L43.8314 65.8229L43.8856 65.9445L43.9398 66.0799L43.9939 66.2017L44.0336 66.3235L44.0878 66.4451L44.142 66.567L44.1953 66.6888L44.2493 66.824L44.3035 66.9458L44.3575 67.0676L44.4108 67.1894L44.4515 67.311L44.5057 67.4328L44.559 67.5682L44.613 67.69L44.667 67.8118L44.7204 67.9336L44.7745 68.0552L44.8286 68.1762L44.8694 68.3114L44.9225 68.4332L44.9767 68.555L45.0307 68.677H44.8964ZM33.0959 67.4192L32.9877 67.5004L32.8937 67.5682L32.7855 67.6494L32.6781 67.717L32.5706 67.7982L32.4624 67.8658L32.355 67.9336L32.2332 68.001L32.1121 68.0688L31.9911 68.1364L31.8695 68.1897L31.7484 68.2574L31.614 68.3114L31.4931 68.3656L31.3577 68.4197L31.2368 68.4738L31.1156 68.5144L30.994 68.555L30.873 68.5958L30.7385 68.6362L30.6176 68.677L30.4823 68.704L30.3612 68.731L30.2268 68.758L30.0915 68.785L29.9569 68.7986L29.8089 68.8122L29.6744 68.8258L29.5264 68.8392L29.391 68.8528L29.2431 68.8662H29.0951H28.9469H28.799H28.6636L28.5291 68.8528L28.3811 68.8392L28.2466 68.8258L28.1122 68.8122L27.9768 68.7986L27.8423 68.7716L27.7077 68.7444L27.5868 68.7174L27.4516 68.6904L27.3306 68.6498L27.1961 68.6228L27.0743 68.582L26.9533 68.528L26.8322 68.4874L26.6979 68.4332L26.5761 68.3792L26.4551 68.3252L26.3342 68.271L26.2123 68.2034L26.105 68.1364L25.984 68.0688L25.8758 68.001L25.7683 67.9336L25.6601 67.8522L25.5526 67.7712L25.445 67.69L25.3504 67.6088L25.2565 67.5276L25.1618 67.4328L25.0679 67.3518L24.9731 67.257L24.8793 67.1622L24.7981 67.0676L24.7176 66.9594L24.6364 66.8646L24.5688 66.7564L24.4884 66.6481L24.4209 66.54L24.3539 66.4317L24.2863 66.3099L24.2187 66.2017L24.1654 66.0799L24.1113 65.9581L24.0572 65.8363L24.0038 65.7147L23.9632 65.6065L23.909 65.4845L23.882 65.3627L23.8422 65.2411L23.8152 65.1059L23.7746 64.9839L23.7476 64.8487L23.734 64.7269L23.7068 64.5916L23.6935 64.4699L23.6798 64.3346L23.6671 64.1992L23.6537 64.064V63.9152V63.7798V63.7528V63.6174L23.6671 63.4686V63.3334L23.6798 63.198L23.6935 63.0492L23.7205 62.9147L23.734 62.7794L23.761 62.6576L23.8016 62.5224L23.8287 62.387L23.8684 62.2652L23.909 62.13L23.9496 62.0082L24.0038 61.8728L24.0572 61.7512L24.1113 61.6294L24.1654 61.5076L24.2187 61.3858L24.2863 61.264L24.3539 61.1558L24.4209 61.0475L24.4884 60.9393L24.5562 60.8311L24.6364 60.7229L24.7176 60.6147L24.7981 60.5065L24.8793 60.4115L24.9731 60.3169L25.0543 60.2221L25.1483 60.1277L25.243 60.0327L25.3368 59.9517L25.445 59.8569L25.5391 59.7757L25.6465 59.6945L25.7547 59.6269L25.8622 59.5457L25.9705 59.4781L26.0778 59.4105L26.1989 59.3428L26.3206 59.2751L26.4415 59.2075L26.5626 59.1534L26.6842 59.0993L26.8188 59.0316L26.9263 58.9911L27.0607 58.9504L27.1827 58.8963L27.3036 58.8692L27.4244 58.8286L27.5597 58.8016L27.6807 58.761L27.8151 58.734L27.9498 58.7204L28.085 58.6934L28.2196 58.6798L28.3539 58.6664L28.4885 58.6528L28.6239 58.6392H28.7719H28.9064H29.0543H29.2024L29.3513 58.6528L29.4994 58.6664H29.6338L29.7683 58.6798L29.9163 58.707L30.0381 58.7204L30.1726 58.7476L30.3072 58.7746L30.4288 58.8016L30.5497 58.8286L30.6709 58.8558L30.7927 58.8963L30.9136 58.9234L31.021 58.964L31.1428 59.0046L31.2638 59.0586L31.3847 59.1128L31.5065 59.1669L31.6275 59.2346L31.7484 59.2887L31.8568 59.3563L31.9777 59.4239L32.0851 59.4916L32.2069 59.5593L32.3144 59.6404L32.4218 59.7081L32.53 59.7893L32.6375 59.8705L32.7457 59.9651L32.8531 60.0463L32.7719 60.1547L32.6781 60.2493L32.5969 60.3575L32.503 60.4657L32.4218 60.5741L32.3414 60.6687L32.2466 60.7769L32.1663 60.8851L32.0851 60.98L31.9911 61.0882L31.9101 61.1964L31.816 61.3046L31.7348 61.3994L31.6546 61.5076L31.5599 61.6158L31.4794 61.724L31.3847 61.8188L31.3043 61.927L31.1961 61.8458L31.0886 61.7512L30.9804 61.6834L30.873 61.6022L30.7655 61.5346L30.6573 61.4669L30.5497 61.3994L30.4288 61.3317L30.3206 61.2776L30.2132 61.2235L30.105 61.1829L29.9839 61.1423L29.8631 61.1017L29.7413 61.0746L29.6068 61.0475L29.4723 61.0205L29.3377 61.007L29.1897 60.9935L29.0409 60.98H28.8928H28.7584L28.6239 60.9935L28.5021 61.007L28.3676 61.0341L28.2466 61.0612L28.1248 61.1017L28.0039 61.1423L27.8829 61.1964L27.7619 61.2505L27.6537 61.3181L27.5464 61.3858L27.438 61.4536L27.3441 61.5346L27.2494 61.6158L27.1555 61.697L27.0743 61.7916L26.9804 61.8864L26.8992 61.9946L26.8322 62.0894L26.7646 62.1976L26.6979 62.3194L26.6302 62.4276L26.5761 62.5494L26.5355 62.6712L26.4821 62.793L26.4415 62.9282L26.4145 63.0628L26.3875 63.1844L26.3603 63.3334L26.3469 63.4686L26.3342 63.6038V63.7528V63.7798V63.9152L26.3469 64.0504L26.3603 64.1722L26.3739 64.3075L26.4009 64.4292L26.4281 64.5511L26.4551 64.6728L26.4957 64.7945L26.5355 64.9027L26.5897 65.038L26.6438 65.1599L26.7106 65.2817L26.7782 65.3899L26.8458 65.4981L26.9263 65.6065L27.0075 65.7011L27.1013 65.7959L27.1827 65.8905L27.2764 65.9717L27.3847 66.0529L27.4922 66.1341L27.5995 66.2017L27.7077 66.2693L27.8289 66.3235L27.9498 66.3776L28.0714 66.4317L28.206 66.4723L28.3405 66.5129L28.4759 66.54L28.6103 66.567L28.7448 66.5805L28.8928 66.594H29.0409H29.2024L29.3513 66.5805L29.4994 66.567L29.6338 66.5534L29.7683 66.5263L29.9037 66.4993L30.0381 66.4588L30.159 66.4317L30.2802 66.3776L30.3884 66.3235L30.5093 66.2693L30.6039 66.2152L30.7115 66.1475V66.0123V65.877V65.7417V65.6065V65.4575V65.3223V65.1869V65.0517V64.9163H30.5769H30.4552H30.3206H30.1862H30.0517H29.9299H29.7953H29.6608H29.5264H29.4047H29.2701H29.1357H29.001H28.8794H28.7448V64.7811V64.6593V64.524V64.3887V64.2534V64.1316V63.9964V63.861V63.7258V63.6038V63.4686V63.3334V63.198V63.0762V62.9418H28.8794H29.0146H29.1492H29.2835H29.4182H29.5526H29.688H29.8225H29.9569H30.0915H30.2268H30.3612H30.4957H30.6302H30.7655H30.9001H31.0346H31.1691H31.3043H31.4389H31.5734H31.7078H31.8431H31.9777H32.1121H32.2466H32.382H32.5164H32.6511H32.7855H32.9207H33.0552H33.1898V63.0762V63.2114V63.3468V63.4686V63.6038V63.7392V63.8744V64.0098V64.1452V64.2668V64.4022V64.5375V64.6728V64.8081V64.9433V65.0787V65.2003V65.3357V65.4711V65.6065V65.7417V65.877V66.0123V66.1341V66.2693V66.4046V66.54V66.6752V66.8105V66.9324V67.0676V67.2028V67.3382L33.0959 67.4192Z" fill="white"/>
<path d="M28.7639 36.5457H34.6017V32.03H28.7639V22.8113H34.8341V18.2956H23.8065V50.8857H34.9265V46.3699H28.7639V36.5457Z" fill="white"/>
<path d="M70.5786 37.5241V44.8803C70.5786 46.1841 69.976 46.7889 68.7256 46.7889H67.7984C66.5013 46.7889 65.8987 46.1841 65.8987 44.8803V24.3013C65.8987 22.9977 66.5013 22.3928 67.7984 22.3928H68.6325C69.8836 22.3928 70.4862 22.9977 70.4862 24.3013V30.6803H75.3506V24.022C75.3506 19.9719 73.4046 18.0163 69.3744 18.0163H66.9645C62.9341 18.0163 60.9412 20.0181 60.9412 24.0689V45.1127C60.9412 49.1637 62.9341 51.1653 66.9645 51.1653H69.4204C73.4517 51.1653 75.4436 49.1637 75.4436 45.1127V37.5241H70.5786Z" fill="white"/>
<path d="M53.363 50.886H58.3212V18.2957H53.363V50.886Z" fill="white"/>
<path d="M46.169 32.7748C46.169 34.0786 45.5673 34.6842 44.3162 34.6842H42.2772V22.672H44.3162C45.5673 22.672 46.169 23.277 46.169 24.5805V32.7748ZM45.1034 18.2955H37.3197V50.8857H42.2772V39.0598H45.1034C49.1345 39.0598 51.1266 37.0582 51.1266 33.0081V24.348C51.1266 20.2972 49.1345 18.2955 45.1034 18.2955Z" fill="white"/>
<path fill-rule="evenodd" clip-rule="evenodd" d="M35.502 80.3538H63.882L49.3963 85.1309L35.502 80.3538Z" fill="white"/>
</svg>
