<svg width="100" height="100" viewBox="0 0 100 100" fill="none" xmlns="http://www.w3.org/2000/svg">
<rect width="100" height="100" rx="24" fill="#20C05C"/>
<path fill-rule="evenodd" clip-rule="evenodd" d="M67.7583 47.2054C66.6154 47.1656 65.5148 47.2372 64.4883 47.4019C64.7767 45.0618 65.7397 42.1878 69.15 42.3073C72.9255 42.4401 73.4546 46.0208 73.4678 48.4486C71.8751 47.7341 69.904 47.2825 67.7583 47.2054ZM83.9026 21.788C83.2703 18.396 81.2621 16.7252 79.4445 16.0691C77.4867 15.3572 73.5128 14.6215 68.5203 14.0291C64.5041 13.5563 59.7842 13.5937 56.9321 13.6813C56.5908 11.3279 54.9478 9.17893 53.1064 8.43519C48.2065 6.45364 40.6318 6.93168 38.6898 7.47887C37.1448 7.91182 35.433 8.80175 34.4806 10.1697C33.8429 11.0835 33.4302 12.2576 33.4275 13.8938C33.4275 14.8208 33.454 17.0016 33.4752 18.9406C33.499 20.885 33.5254 22.6247 33.5254 22.6379C33.5254 24.3671 32.1258 25.7777 30.3929 25.7803H22.4478C20.7519 25.7803 19.4555 26.0673 18.4686 26.5162C17.4765 26.9704 16.7753 27.5786 16.2409 28.2985C15.18 29.7302 14.9948 31.4938 15.0001 33.2947C15.0001 33.2947 15.016 34.7691 15.3705 37.6165C15.6642 39.8212 18.0453 55.2246 20.3074 59.9076C21.1831 61.7297 21.7679 62.4894 23.4902 63.2916C27.3292 64.9438 36.0997 66.7793 40.2085 67.3052C44.312 67.8311 46.8863 68.9388 48.4208 65.7088C48.4261 65.7008 48.7277 64.9039 49.1431 63.7378C50.4765 59.6844 50.6618 56.0879 50.6618 53.4874C50.6618 53.2218 51.0481 53.2112 51.0481 53.4874C51.0481 55.3229 50.6987 61.8254 55.5907 63.5705C57.5221 64.2584 61.5277 64.8694 65.5968 65.3502C69.277 65.7752 71.9492 67.2281 71.9492 76.7082C71.9492 82.4749 70.7427 83.2662 64.4353 83.2662C59.3212 83.2662 57.3712 83.3991 57.3712 79.3219C57.3712 76.0255 60.6202 76.3708 63.0252 76.3708C64.102 76.3708 63.3215 75.5687 63.3215 73.534C63.3215 71.51 64.5809 70.3411 63.3903 70.3118C55.0668 70.0808 50.1697 70.3013 50.1697 80.7509C50.1697 90.239 53.7863 92 65.5968 92C74.8595 92 78.1243 91.6945 81.9474 79.784C82.704 77.4306 84.5349 70.2561 85.6408 58.2048C86.3419 50.5868 84.982 27.5918 83.9026 21.788ZM22.0748 23.4641H22.0801H30.0252C30.4802 23.4641 30.848 23.0895 30.848 22.6379C30.848 22.6379 30.7527 15.7983 30.7527 13.8964V13.8724C30.7527 12.3106 31.0781 10.9507 31.6469 9.80849L31.9195 9.29855C31.8878 9.30121 31.8587 9.31711 31.8269 9.34633L16.3891 24.7179C16.36 24.7418 16.3389 24.7764 16.3309 24.8082C16.6511 24.6489 17.0876 24.4336 17.1485 24.407C18.4925 23.7961 20.1223 23.4641 22.0748 23.4641Z" fill="white"/>
</svg>
