<svg width="100" height="100" viewBox="0 0 100 100" fill="none" xmlns="http://www.w3.org/2000/svg">
<rect width="100" height="100" rx="24" fill="white"/>
<path d="M30.3419 50.2203C30.1932 49.9211 29.7974 49.6768 29.4625 49.6768H28.7818C28.4475 49.6768 28.0564 49.9239 27.9118 50.2253L22.5152 61.4995C22.3653 61.7978 22.5283 62.0114 22.8632 62.0114H24.1104C24.6026 62.0114 24.8283 61.7876 24.9615 61.5132C25.0952 61.2388 25.3926 60.6425 25.4494 60.5208C25.5264 60.3563 25.7635 60.2555 26.0978 60.2558L31.9044 60.2589C32.239 60.2595 32.4541 60.3231 32.5531 60.5208C32.6177 60.6497 32.9144 61.186 33.0603 61.4787C33.2075 61.7714 33.4545 62.0114 33.9341 62.0114H35.7437C36.0783 62.0114 36.2248 61.7575 36.1044 61.5216C35.9833 61.285 30.3419 50.2203 30.3419 50.2203ZM26.9325 58.5144C26.5982 58.5144 26.4408 58.2655 26.5814 57.9629L28.7079 53.4072C28.8495 53.1036 29.0783 53.1058 29.2164 53.409L31.2867 57.9647C31.4249 58.2686 31.2644 58.5175 30.9304 58.5175L26.9325 58.5144ZM72.0415 50.3075C72.0415 50.4165 72.0415 61.2732 72.0415 61.4924C72.0415 61.8003 72.315 62.0114 72.6499 62.0114H74.1246C74.4589 62.0114 74.7327 61.7978 74.7327 61.4632V50.2849C74.7327 49.95 74.5166 49.6771 74.1823 49.6771H72.6499C72.315 49.6768 72.0415 49.8826 72.0415 50.3075ZM47.329 57.3132C47.1368 57.0394 47.2424 56.7371 47.5624 56.6415C47.5624 56.6415 48.8366 56.26 49.4465 55.7131C50.0567 55.1646 50.3634 54.3728 50.3634 53.3407C50.3634 52.6659 50.2455 52.0985 50.0105 51.637C49.7755 51.1767 49.4387 50.7998 49.0005 50.5115C48.5622 50.2216 48.0376 50.0089 47.4267 49.8758C46.815 49.7432 45.9896 49.7044 45.9896 49.7044C45.655 49.6892 45.1084 49.6768 44.7744 49.6768H38.6503C38.3163 49.6768 38.0425 49.9497 38.0425 50.2846V61.4632C38.0425 61.7981 38.316 62.0114 38.6503 62.0114H40.0995C40.4341 62.0114 40.7076 61.7978 40.7076 61.4632C40.7076 61.4632 40.7085 57.0171 40.7113 57.0171C40.7138 57.0171 40.7153 57.0146 40.7153 57.0115C40.7153 57.0078 43.4627 57.0047 43.4627 57.0047C43.7967 57.0047 44.2281 57.2282 44.4215 57.5019L47.2734 61.5175C47.5385 61.8732 47.7905 62.0114 48.1248 62.0114H50.0192C50.3538 62.0114 50.4062 61.696 50.2905 61.5321C50.1759 61.3692 47.329 57.3132 47.329 57.3132ZM46.1758 55.043C45.8006 55.1293 45.3781 55.1466 45.3781 55.1466C45.0441 55.1612 44.4975 55.173 44.1629 55.173H41.324C40.9894 55.173 40.716 54.8992 40.716 54.5649V52.3C40.716 51.9654 40.9894 51.6919 41.324 51.6919H44.1629C44.4975 51.6919 45.0441 51.704 45.3781 51.718C45.3781 51.718 45.8006 51.7348 46.1758 51.8214C46.5511 51.908 46.8488 52.0287 47.0667 52.1848C47.2855 52.3419 47.4416 52.526 47.536 52.7376C47.6291 52.9493 47.6766 53.18 47.6766 53.4317C47.6766 53.6822 47.6291 53.914 47.536 54.1254C47.4416 54.3371 47.2855 54.5212 47.0667 54.6782C46.8488 54.8353 46.5511 54.9576 46.1758 55.043ZM90.1476 49.6768C89.8133 49.6768 89.5429 49.8972 89.5429 50.2194C89.5429 50.374 89.5467 57.3697 89.5467 57.3697C89.5467 57.7049 89.3573 57.781 89.1251 57.5401L81.9655 50.1139C81.733 49.873 81.3929 49.6768 80.9347 49.6768H79.5882C79.1648 49.6768 78.9795 49.9028 78.9795 50.1316C78.9795 50.3594 78.9795 61.3366 78.9795 61.5656C78.9795 61.7938 79.1968 62.0114 79.5317 62.0114H80.8804C81.2141 62.0114 81.4481 61.8295 81.4481 61.5216C81.4481 61.367 81.4549 53.9889 81.4549 53.9889C81.4549 53.6546 81.644 53.5782 81.8755 53.8197L89.3409 61.5805C89.578 61.818 89.8661 62.0114 90.3785 62.0114H91.3917C91.7266 62.0114 92 61.7379 92 61.4033V50.2849C92 49.95 91.7266 49.6771 91.3917 49.6771L90.1476 49.6768ZM60.9569 56.649C60.7946 56.941 60.5274 56.9401 60.3672 56.6474L56.8675 50.2203C56.7188 49.922 56.4137 49.6768 55.9884 49.6768H54.0903C53.7557 49.6768 53.4817 49.9497 53.4817 50.2846V61.4489C53.4817 61.7829 53.7014 62.0114 54.0903 62.0114H55.2702C55.6051 62.0114 55.8463 61.8003 55.8463 61.4778C55.8463 61.3232 55.8512 53.3578 55.8639 53.3578C55.877 53.3578 60.2322 61.4756 60.2322 61.4756C60.3898 61.7702 60.7769 61.7714 60.9377 61.4781C60.9377 61.4781 65.3286 53.3811 65.3416 53.3811C65.3553 53.3811 65.3503 61.2453 65.3503 61.4778C65.3503 61.8006 65.6082 62.0114 65.9432 62.0114H67.3021C67.637 62.0114 67.9098 61.8447 67.9098 61.4033V50.2849C67.9098 49.95 67.637 49.6771 67.3021 49.6771H65.4825C65.0182 49.6771 64.7388 49.914 64.5728 50.2048L60.9569 56.649Z" fill="black"/>
<path d="M7 55.8332C7 61.8565 13.1608 62.1619 14.3961 62.1619C18.4844 62.1619 20.212 61.0572 20.2837 61.0094C20.5395 60.8648 20.8508 60.573 20.8508 60.0264V55.8689C20.8508 55.4859 20.5389 55.1739 20.1555 55.1739H15.0194C14.6355 55.1739 14.3834 55.4859 14.3834 55.8689V56.2994C14.3834 56.6831 14.6355 56.996 15.0194 56.996H17.9902C18.277 56.996 18.5101 57.2288 18.5101 57.5156C18.5101 57.5156 18.5073 59.3379 18.5073 59.4534C17.9204 59.693 15.2472 60.474 13.0993 59.9618C9.98353 59.2166 9.7408 56.6462 9.7408 55.8761C9.7408 55.2298 9.93449 51.9924 13.7611 51.6649C16.8585 51.3998 18.8981 52.6504 18.9183 52.6625C19.2824 52.8512 19.6592 52.7168 19.8622 52.3313C19.8632 52.3282 20.2487 51.5482 20.2487 51.5482C20.4091 51.2272 20.3551 50.8945 19.9634 50.6288C19.9373 50.6139 17.7661 49.4366 14.3968 49.4366C7.20734 49.4369 7 55.1786 7 55.8332Z" fill="black"/>
<path d="M89.4669 46.5943L81.3991 46.594C81.1032 46.594 80.8493 46.4468 80.7016 46.1908C80.5538 45.9347 80.5538 45.6417 80.7019 45.3856L84.7361 38.4023C84.8839 38.1465 85.1375 38 85.4333 38C85.7288 38 85.9827 38.1465 86.1304 38.4023L90.164 45.3859C90.3124 45.642 90.3124 45.9353 90.1643 46.1914C90.0166 46.4471 89.7627 46.5943 89.4669 46.5943Z" fill="#007CC2"/>
</svg>
