<svg width="100" height="100" viewBox="0 0 100 100" fill="none" xmlns="http://www.w3.org/2000/svg">
<rect width="100" height="100" rx="24" fill="black"/>
<path fill-rule="evenodd" clip-rule="evenodd" d="M82.1982 24.3551L55.3637 8.42597C52.1608 6.52468 48.213 6.52468 45.0101 8.42597L18.1755 24.3551C14.9736 26.2563 13.0001 29.7694 13.0001 33.572V65.4301C13.0001 69.2318 14.9736 72.7467 18.1764 74.648L45.011 90.5743C46.6125 91.5254 48.3985 91.9995 50.1873 91.9995C51.9753 91.9995 53.7613 91.5254 55.3627 90.5743L82.1973 74.648C85.4002 72.7467 87.3746 69.2318 87.3746 65.4301V33.572C87.3746 29.7694 85.4002 26.2563 82.1982 24.3551Z" fill="#FEFEFE"/>
<path fill-rule="evenodd" clip-rule="evenodd" d="M45.9489 88.9433L19.1143 73.017C16.4896 71.4587 14.8591 68.552 14.8591 65.4297V33.5725C14.8591 30.4502 16.4896 27.5434 19.1134 25.986L45.9489 10.0569C47.2355 9.29323 48.701 8.88936 50.1872 8.88936C51.6725 8.88936 53.138 9.29323 54.4255 10.0569L81.2601 25.986C83.4716 27.2988 84.9634 29.5721 85.3832 32.1219C84.493 30.2225 82.4858 29.7061 80.1469 31.0724L54.7601 46.7531C51.5947 48.6038 49.2605 50.6804 49.2586 54.497V85.7789C49.2567 88.0644 50.1797 89.5449 51.5975 89.9741C51.1318 90.0547 50.6623 90.1109 50.1872 90.1109C48.701 90.1109 47.2355 89.707 45.9489 88.9433ZM82.1981 24.3546L55.3635 8.42645C53.7621 7.47533 51.9742 7.00024 50.1872 7.00024C48.3993 7.00024 46.6114 7.47533 45.01 8.42645L18.1754 24.3546C14.9734 26.2559 13 29.7699 13 33.5725V65.4297C13 69.2313 14.9734 72.7462 18.1763 74.6475L45.0109 90.5747C46.6133 91.5249 48.3993 92 50.1872 92C51.9751 92 53.7612 91.5249 55.3626 90.5747L82.1981 74.6475C85.401 72.7462 87.3744 69.2313 87.3744 65.4297V33.5725C87.3744 29.7699 85.401 26.2559 82.1981 24.3546Z" fill="#3E474A"/>
<path fill-rule="evenodd" clip-rule="evenodd" d="M75.1638 68.5098L68.4816 72.5092C68.3045 72.6122 68.1743 72.7284 68.1733 72.9411V74.6897C68.1733 74.9033 68.3167 74.9924 68.4938 74.8883L75.2791 70.7643C75.4562 70.6613 75.4833 70.4636 75.4843 70.2508V68.7084C75.4843 68.4957 75.3409 68.4067 75.1638 68.5098Z" fill="#47B353"/>
<path fill-rule="evenodd" clip-rule="evenodd" d="M60.9347 53.7915C61.1512 53.6819 61.3292 53.8168 61.332 54.0998L61.3545 56.4115C62.3225 56.0264 63.163 55.9233 63.9249 56.0995C64.0898 56.1435 64.1629 56.3684 64.0954 56.6355L63.5866 58.6839C63.5472 58.8385 63.4601 58.995 63.3551 59.0925C63.3111 59.1356 63.2661 59.1693 63.2211 59.1918C63.1527 59.2265 63.0853 59.2377 63.0206 59.2246C62.673 59.1459 61.8465 58.965 60.5458 59.6238C59.1815 60.3144 58.7045 61.4998 58.7139 62.3797C58.7251 63.4301 59.2639 63.7487 61.1249 63.7806C63.6044 63.8218 64.6755 64.905 64.7017 67.4023C64.727 69.8546 63.4179 72.4877 61.4154 74.1013L61.4595 76.3896C61.4623 76.6651 61.2833 76.9809 61.0668 77.0906L59.7119 77.8711C59.4945 77.9808 59.3164 77.8458 59.3136 77.5703L59.2902 75.3195C58.1292 75.8021 56.9531 75.9183 56.2016 75.6166C56.0601 75.5613 55.9992 75.3523 56.0554 75.1143L56.5465 73.0453C56.5858 72.8822 56.672 72.7192 56.7892 72.6152C56.8304 72.5749 56.8735 72.5439 56.9166 72.5224C56.9944 72.483 57.0703 72.4746 57.1349 72.499C57.9446 72.7717 58.98 72.6442 59.9761 72.1401C61.2411 71.5001 62.0873 70.2097 62.0742 68.9278C62.062 67.7649 61.4323 67.2814 59.9011 67.2702C57.9521 67.2758 56.1351 66.8916 56.1051 64.0223C56.0807 61.66 57.3092 59.2021 59.2536 57.6475L59.2293 55.3377C59.2265 55.0537 59.3998 54.7417 59.6228 54.6292L60.9347 53.7915Z" fill="#FEFEFE"/>
</svg>
