<svg width="100" height="100" viewBox="0 0 100 100" fill="none" xmlns="http://www.w3.org/2000/svg">
<rect width="100" height="100" rx="24" fill="white"/>
<g clip-path="url(#clip0_267_58)">
<path d="M49.3792 7.27776C50.6373 7.27052 51.8906 6.98557 53.139 7.2512C58.6665 7.7414 64.1163 9.26029 69.0331 11.8489C75.3936 15.1065 80.8654 20.0592 84.8351 25.9947C88.8847 32.0316 91.2823 39.1407 91.8232 46.385C91.7341 48.3023 91.6783 50.2317 91.8643 52.1442C91.4685 57.6523 90.0894 63.1146 87.6314 68.0745C84.8281 73.8386 80.6766 78.9386 75.6227 82.8795C69.325 87.8177 61.5977 90.9062 53.6242 91.6381C52.4098 91.725 51.1971 91.9496 49.9757 91.8554C49.1665 91.802 48.3382 92.0607 47.5609 91.7296C50.5386 83.353 53.5133 74.9735 56.5173 66.6039C59.7867 66.5435 63.0589 66.6256 66.3283 66.5653C68.4149 66.4928 70.4771 65.2224 71.1629 63.1942C73.9278 55.409 76.7627 47.6455 79.4407 39.8265C79.8802 38.6457 80.1241 37.3296 79.774 36.0932C79.3007 34.5261 77.8665 33.4177 76.3257 33.0023C74.9881 32.587 73.575 32.7391 72.1988 32.715C68.002 32.7029 63.8051 32.7367 59.6106 32.6957C59.543 32.8357 59.4051 33.1134 59.3378 33.2511C52.5423 52.3374 45.7595 71.4288 38.9378 90.5053C31.9301 88.687 25.4005 85.0455 20.1943 80.0131C13.9231 74.0122 9.56929 66.0316 7.95864 57.5002C7.45395 54.9381 7.27043 52.3302 7.13037 49.7295C7.24387 44.3131 8.1325 38.8726 10.173 33.8354C15.1498 21.112 26.6659 11.0931 40.0534 8.22918C33.2003 27.231 26.5065 46.2908 19.6558 65.2951C20.0929 65.4279 20.5517 65.3772 21.0008 65.3818C23.4977 65.3697 25.997 65.3869 28.4939 65.3769C28.8343 65.3745 28.7981 64.9012 28.9406 64.6839C31.9494 56.1887 34.9944 47.7056 38.0129 39.2153C38.194 38.6889 38.363 38.1576 38.6045 37.6578C40.1693 37.6843 41.7341 37.6505 43.2988 37.6747C40.0172 46.8774 36.7645 56.0946 33.4345 65.2801C33.7822 65.4202 34.1613 65.3767 34.526 65.3842C37.1484 65.3598 39.7709 65.4009 42.3933 65.3649C45.3562 57.0025 48.3554 48.6547 51.3258 40.2971C51.9606 38.5875 52.0162 36.5663 51.007 34.9895C50.1256 33.5937 48.4522 32.9272 46.856 32.862C44.6731 32.7968 42.4877 32.8669 40.3023 32.8282C43.3061 24.3043 46.3994 15.8116 49.3792 7.27776Z" fill="#015294"/>
<path d="M66.7779 37.7666C67.0385 37.472 67.5023 37.6507 67.8498 37.6C69.062 37.6217 70.274 37.5903 71.4867 37.6169C68.6636 45.675 65.7079 53.6872 62.9309 61.7622C61.3613 61.8733 59.7797 61.8057 58.2076 61.796C61.074 53.791 63.9113 45.774 66.7779 37.7666Z" fill="#015294"/>
</g>
<defs>
<clipPath id="clip0_267_58">
<rect width="85" height="85" fill="white" transform="translate(7 7)"/>
</clipPath>
</defs>
</svg>
