<svg width="100" height="100" viewBox="0 0 100 100" fill="none" xmlns="http://www.w3.org/2000/svg">
<rect width="100" height="100" rx="24" fill="white"/>
<path d="M19.7871 84.3672L12.9805 8H87.8535L81.0469 84.3672L50.334 93" fill="#E34F26"/>
<path d="M50.5 86.3594L75.2363 79.5527L81.0469 14.1426H50.5" fill="#EF652A"/>
<path d="M50.5 42.5312H38.0488L37.2188 32.9023H50.5V23.6055H50.334H26.9258L27.0918 26.0957L29.416 51.9941H50.5V42.5312ZM50.5 66.9355H50.334L39.875 64.1133L39.2109 56.6426H34.2305H29.9141L31.0762 71.418L50.334 76.7305H50.5V66.9355Z" fill="#EBEBEB"/>
<path d="M50.334 42.5312V51.9941H61.9551L60.793 64.1133L50.334 66.9355V76.7305L69.5918 71.418L69.7578 69.7578L71.916 45.0215L72.248 42.5312H69.5918H50.334ZM50.334 23.6055V29.416V32.9023H73.0781L73.2441 30.9102L73.7422 26.0957L73.9082 23.6055H50.334Z" fill="white"/>
</svg>
