<svg width="100" height="100" viewBox="0 0 100 100" fill="none" xmlns="http://www.w3.org/2000/svg">
<rect width="100" height="100" rx="24" fill="#1F70C1"/>
<path d="M8 33V35.3262H24.5451V33H8ZM26.8892 33V35.3262H50.4668C50.4668 35.3262 48.0585 33 44.8688 33H26.8892ZM55.092 33V35.3262H69.356L68.5094 33H55.092ZM79.5826 33L78.7359 35.3262H92.8705V33H79.5826ZM8 37.5239V39.8501H24.5451V37.5239H8ZM26.8892 37.5272V39.8501H53.2027C53.2027 39.8501 52.8954 38.0598 52.3593 37.5272H26.8892ZM55.092 37.5272V39.8501H70.9199L70.1363 37.5272H55.092ZM77.8892 37.5272L77.1056 39.8501H92.8705V37.5272H77.8892ZM12.7546 42.0477V44.3773H19.9199V42.0477H12.7546ZM31.6439 42.0477V44.3773H38.8092V42.0477H31.6439ZM45.7785 42.0477V44.3773H52.9438C52.9438 44.3773 53.3987 43.147 53.3987 42.0477H45.7785ZM59.8467 42.0477V44.3773H72.5502L71.7035 42.0477H59.8467ZM76.3287 42.0477L75.4787 44.3773H88.2453V42.0477H76.3287ZM12.7546 46.575V48.9012H19.9199V46.575H12.7546ZM31.6439 46.575V48.9012H49.9455C49.9455 48.9012 51.4765 47.7076 51.9642 46.575H31.6439ZM59.8467 46.575V48.9012H67.0119V47.6063L67.4669 48.9012H80.592L81.0801 47.6063V48.9012H88.2454V46.575H74.7947L74.0809 48.5453L73.3636 46.575H59.8467ZM12.7546 51.0989V53.4251H19.9199V51.0989H12.7546ZM31.6439 51.0989V53.4251H51.9642C51.4764 52.2962 49.9455 51.0989 49.9455 51.0989H31.6439ZM59.8467 51.0989V53.4251H67.0119V51.0989H59.8467ZM68.3134 51.0989L69.18 53.4251H79.0214L79.8449 51.0989H68.3134ZM81.08 51.0989V53.4251H88.2453V51.0989H81.08ZM12.7546 55.6227V57.9489H19.9199V55.6227H12.7546ZM31.6439 55.6227V57.9489H38.8092V55.6227H31.6439ZM45.7785 55.6227V57.9489H53.3986C53.3986 56.8511 52.9437 55.6227 52.9437 55.6227H45.7785ZM59.8467 55.6227V57.9489H67.0119V55.6227H59.8467ZM69.9404 55.6227L70.7805 57.9489H77.3779L78.2246 55.6227H69.9404ZM81.08 55.6227V57.9489H88.2453V55.6227H81.08ZM8.12946 60.1466V62.4761H24.6745V60.1466H8.12946ZM26.8892 60.1466V62.4761H52.3593C52.8954 61.9428 53.2027 60.1466 53.2027 60.1466H26.8892ZM55.2215 60.1466V62.4761H67.0119V60.1466H55.2215ZM71.5707 60.1466L72.4339 62.4761H75.7907L76.6009 60.1466H71.5707ZM81.08 60.1466V62.4761H93V60.1466H81.08ZM8.12946 64.6738V67H24.6745V64.6738H8.12946ZM26.8892 64.6738V66.9967H44.8688C48.0585 66.9967 50.4668 64.6738 50.4668 64.6738H26.8892ZM55.2215 64.6738V67H67.0119V64.6738H55.2215ZM73.2076 64.6738L74.0377 66.9935L74.1805 66.9967L75.0239 64.6738H73.2076ZM81.08 64.6738V67H93V64.6738H81.08Z" fill="white"/>
</svg>
