<svg width="100" height="100" viewBox="0 0 100 100" fill="none" xmlns="http://www.w3.org/2000/svg">
<rect width="100" height="100" rx="24" fill="white"/>
<path d="M13.6905 32.5H7V39.1905H13.6905V32.5Z" fill="#04C7FD"/>
<path d="M13.5238 67.3571V43.2619H7.19049V67.3571H13.5238ZM55.6191 67.5952V61.6905C54.6905 61.6905 53.9048 61.6429 53.3333 61.5476C52.6667 61.4524 52.1667 61.2143 51.8333 60.881C51.5 60.5476 51.2857 60.0714 51.1667 59.4524C51.0714 58.8571 51.0238 58.0714 51.0238 57.119V48.6905H55.6191V43.2619H51.0238V33.8571H44.6667V57.1667C44.6667 59.1429 44.8333 60.8095 45.1667 62.1429C45.5 63.4524 46.0714 64.5238 46.8572 65.3333C47.6429 66.1429 48.6905 66.7143 49.9524 67.0714C51.2381 67.4286 52.8572 67.5952 54.7857 67.5952H55.6191ZM92 67.3571V32H85.6429V67.3571H92ZM38.5476 45.619C36.7857 43.7143 34.3095 42.7619 31.1667 42.7619C29.6429 42.7619 28.2619 43.0714 27 43.6905C25.7619 44.3095 24.6905 45.1667 23.8572 46.2619L23.5 46.7143V46.3095V43.2619H17.2381V67.3571H23.5476V54.5238V55.4048C23.5476 55.2619 23.5476 55.119 23.5476 54.9762C23.6191 52.7143 24.1667 51.0476 25.2143 49.9762C26.3333 48.8333 27.6905 48.2619 29.2381 48.2619C31.0714 48.2619 32.4762 48.8333 33.4048 49.9286C34.3095 51.0238 34.7857 52.5714 34.7857 54.5476V54.5952V67.3333H41.1905V53.6667C41.2143 50.2381 40.3095 47.5238 38.5476 45.619ZM82.3572 55.2619C82.3572 53.5238 82.0476 51.9048 81.4524 50.381C80.8334 48.881 79.9762 47.5476 78.9048 46.4048C77.8095 45.2619 76.5 44.381 74.9762 43.7381C73.4524 43.0952 71.7619 42.7857 69.9286 42.7857C68.1905 42.7857 66.5476 43.119 65.0238 43.7619C63.5 44.4286 62.1667 45.3095 61.0476 46.4286C59.9286 47.5476 59.0238 48.881 58.381 50.4048C57.7143 51.9286 57.4048 53.5714 57.4048 55.3095C57.4048 57.0476 57.7143 58.6905 58.3333 60.2143C58.9524 61.7381 59.8333 63.0714 60.9286 64.1905C62.0238 65.3095 63.381 66.2143 64.9524 66.8571C66.5238 67.5238 68.2619 67.8571 70.1191 67.8571C75.5 67.8571 78.8334 65.4048 80.8334 63.119L76.2619 59.6429C75.3095 60.7857 73.0238 62.3333 70.1667 62.3333C68.381 62.3333 66.9048 61.9286 65.7857 61.0952C64.6667 60.2857 63.9048 59.1429 63.5 57.7381L63.4286 57.5238H82.3572V55.2619ZM63.4762 53.0476C63.4762 51.2857 65.5 48.2143 69.8572 48.1905C74.2143 48.1905 76.2619 51.2619 76.2619 53.0238L63.4762 53.0476Z" fill="#0068B5"/>
</svg>
