<svg width="100" height="100" viewBox="0 0 100 100" fill="none" xmlns="http://www.w3.org/2000/svg">
<rect width="100" height="100" rx="24" fill="#FF3300"/>
<path d="M84.2467 58.7942V67.1658C84.2467 69.3721 82.4576 71.1607 80.2508 71.1607C78.0439 71.1607 76.2548 69.3721 76.2548 67.1658V26H68.5015V74.0823H92V58.7703H84.2467V58.7942ZM26.0136 67.0942C26.0136 69.3362 24.248 71.2202 22.0294 71.2202C19.7989 71.1942 18.0082 69.3718 18.0216 67.1419V58.7703H10.2683V65.711C10.2683 69.1931 13.3218 74.7979 22.0055 74.7979C30.6893 74.7979 33.743 70.5048 33.743 65.711V26H26.0136V67.0942ZM55.1182 26H39.6114V74.0823H55.1182C60.9152 74.0823 62.8715 70.2425 62.8715 67.7857V53.4042C62.8715 51.353 60.8198 48.6816 57.7661 48.6816C60.8198 48.6816 62.8715 44.4365 62.8715 42.0515V33.8468C62.8715 28.5283 58.1002 26 55.1182 26ZM52.0645 70.171H47.3647V50.7805H52.0645C55.1182 50.7805 55.1182 52.9986 55.1182 60.5354C55.1182 68.0721 55.1182 70.171 52.0645 70.171ZM51.5873 46.7261L47.3647 46.7022V30.5554H51.5873C54.4262 30.5554 55.1182 31.1518 55.1182 38.6886C55.1182 46.2251 54.4262 46.7261 51.5873 46.7261ZM14.1569 53.5473C16.6793 53.5928 18.7613 51.5856 18.8074 49.0639C18.8532 46.542 16.8457 44.4603 14.3233 44.414C11.8008 44.3679 9.71829 46.3746 9.67194 48.8965V48.968C9.64542 51.4706 11.6535 53.521 14.1569 53.5473ZM21.3138 26H7L14.1569 42.6237L21.3138 26Z" fill="white"/>
</svg>
