<svg width="100" height="100" viewBox="0 0 100 100" fill="none" xmlns="http://www.w3.org/2000/svg">
<rect width="100" height="100" rx="24" fill="white"/>
<path d="M72.0275 56.732H78.1615C78.3367 56.732 78.7457 56.6736 78.9209 56.6736C80.0893 56.4399 81.0824 55.3884 81.0824 53.9279C81.0824 52.5258 80.0893 51.4743 78.9209 51.1822C78.7457 51.1238 78.3952 51.1238 78.1615 51.1238H72.0275V56.732Z" fill="url(#paint0_linear_222_596)"/>
<path d="M77.4605 18C71.6186 18 66.8282 22.732 66.8282 28.6323V39.6735H81.8419C82.1925 39.6735 82.6014 39.6735 82.8935 39.732C86.2818 39.9072 88.7938 41.6598 88.7938 44.6976C88.7938 47.0928 87.0997 49.1375 83.945 49.5464V49.6632C87.3918 49.8969 90.0206 51.8247 90.0206 54.8041C90.0206 58.0172 87.0997 60.1203 83.244 60.1203H66.7698V81.7354H82.3677C88.2096 81.7354 93 77.0034 93 71.1031V18H77.4605Z" fill="url(#paint1_linear_222_596)"/>
<path d="M80.323 45.3986C80.323 43.9965 79.3299 43.0618 78.1615 42.8865C78.0446 42.8865 77.7526 42.8281 77.5773 42.8281H72.0275V47.969H77.5773C77.7526 47.969 78.1031 47.969 78.1615 47.9106C79.3299 47.7353 80.323 46.8006 80.323 45.3986Z" fill="url(#paint2_linear_222_596)"/>
<path d="M18.6907 18C12.8488 18 8.05842 22.732 8.05842 28.6323V54.8625C11.0378 56.323 14.134 57.2577 17.2302 57.2577C20.9107 57.2577 22.8969 55.0378 22.8969 52V39.6151H32.0103V51.9416C32.0103 56.732 29.0309 60.646 18.9244 60.646C12.7904 60.646 8 59.3024 8 59.3024V81.677H23.5979C29.4399 81.677 34.2302 76.945 34.2302 71.0447V18H18.6907Z" fill="url(#paint3_linear_222_596)"/>
<path d="M48.0757 18C42.2337 18 37.4434 22.732 37.4434 28.6323V42.5361C40.1306 40.2577 44.8042 38.7972 52.3403 39.1478C56.3712 39.323 60.6942 40.433 60.6942 40.433V44.9313C58.5327 43.8213 55.9623 42.8282 52.6324 42.5945C46.9073 42.1856 43.4605 44.9897 43.4605 49.8969C43.4605 54.8625 46.9073 57.6667 52.6324 57.1993C55.9623 56.9656 58.5327 55.9141 60.6942 54.8625V59.3608C60.6942 59.3608 56.4296 60.4708 52.3403 60.646C44.8042 60.9966 40.1306 59.5361 37.4434 57.2577V81.7938H53.0413C58.8832 81.7938 63.6736 77.0619 63.6736 71.1615V18H48.0757Z" fill="url(#paint4_linear_222_596)"/>
<defs>
<linearGradient id="paint0_linear_222_596" x1="66.8184" y1="53.9349" x2="93.0704" y2="53.9349" gradientUnits="userSpaceOnUse">
<stop stop-color="#007940"/>
<stop offset="0.2285" stop-color="#00873F"/>
<stop offset="0.7433" stop-color="#40A737"/>
<stop offset="1" stop-color="#5CB531"/>
</linearGradient>
<linearGradient id="paint1_linear_222_596" x1="66.8176" y1="49.8422" x2="93.0717" y2="49.8422" gradientUnits="userSpaceOnUse">
<stop stop-color="#007940"/>
<stop offset="0.2285" stop-color="#00873F"/>
<stop offset="0.7433" stop-color="#40A737"/>
<stop offset="1" stop-color="#5CB531"/>
</linearGradient>
<linearGradient id="paint2_linear_222_596" x1="66.8177" y1="45.3913" x2="93.0708" y2="45.3913" gradientUnits="userSpaceOnUse">
<stop stop-color="#007940"/>
<stop offset="0.2285" stop-color="#00873F"/>
<stop offset="0.7433" stop-color="#40A737"/>
<stop offset="1" stop-color="#5CB531"/>
</linearGradient>
<linearGradient id="paint3_linear_222_596" x1="8.04605" y1="49.8422" x2="34.7045" y2="49.8422" gradientUnits="userSpaceOnUse">
<stop stop-color="#1F286F"/>
<stop offset="0.4751" stop-color="#004E94"/>
<stop offset="0.8261" stop-color="#0066B1"/>
<stop offset="1" stop-color="#006FBC"/>
</linearGradient>
<linearGradient id="paint4_linear_222_596" x1="37.2923" y1="49.8422" x2="63.1839" y2="49.8422" gradientUnits="userSpaceOnUse">
<stop stop-color="#6C2C2F"/>
<stop offset="0.1735" stop-color="#882730"/>
<stop offset="0.5731" stop-color="#BE1833"/>
<stop offset="0.8585" stop-color="#DC0436"/>
<stop offset="1" stop-color="#E60039"/>
</linearGradient>
</defs>
</svg>
