<svg width="100" height="100" viewBox="0 0 100 100" fill="none" xmlns="http://www.w3.org/2000/svg">
<rect width="100" height="100" rx="24" fill="white"/>
<g clip-path="url(#clip0_229_232)">
<path d="M87.5212 7H42.1961C39.994 7 38.0059 8.31898 37.1493 10.3477L16.1676 60.0473C15.8771 60.7354 15.7301 61.4758 15.7368 62.2229L15.936 86.5656C15.9609 89.5736 18.4063 91.9992 21.4144 91.9992H44.8764C45.9464 91.9992 46.9923 91.6863 47.8862 91.0986L90.5311 63.0637C92.0726 62.051 92.9997 60.3303 92.9997 58.486V12.4785C92.9997 9.45286 90.5468 7 87.5212 7Z" fill="url(#paint0_linear_229_232)"/>
<path d="M27.9051 14.9688H13.4785C10.4529 14.9688 8 17.4216 8 20.4473V37.1358C8 37.4014 8.01909 37.6671 8.05811 37.9302L15.2938 87.316C15.6881 90.0062 17.9957 92.0001 20.7142 92.0001H41.1638C44.1902 92.0001 46.6431 89.5464 46.6422 86.5199L46.6365 61.9441C46.6365 61.3788 46.5484 60.8168 46.3766 60.2789L33.1237 18.7813C32.3982 16.511 30.2882 14.9688 27.9051 14.9688Z" fill="url(#paint1_linear_229_232)"/>
<path d="M29.8474 14.9688H13.5665C10.5068 14.9688 8.03984 17.4747 8.08882 20.5344L8 34.8905C8.0249 36.4593 9.04423 38.2514 10.2354 39.2724L60.9145 82.7107C61.9073 83.5616 63.1723 84.0298 64.4796 84.0298H79.5529C82.5785 84.0298 85.0314 81.5769 85.0314 78.5513V63.9379C85.0314 62.3582 84.349 60.8551 83.1603 59.8149L33.455 16.3243C32.4564 15.4502 31.1747 14.9688 29.8474 14.9688Z" fill="#FDB60D"/>
<path d="M77.0628 22.9375H23.9375V76.062H77.062L77.0628 22.9375Z" fill="black"/>
<path fill-rule="evenodd" clip-rule="evenodd" d="M30.6022 29.5703H39.1577C40.553 29.5703 41.7815 29.8269 42.8448 30.339C43.9073 30.8512 44.7257 31.5725 45.3001 32.5029C45.8745 33.4336 46.1618 34.5101 46.1618 35.7344C46.1618 36.9588 45.8696 38.057 45.2861 39.0016C44.7025 39.9463 43.8716 40.6768 42.795 41.1938C42.4987 41.336 42.1895 41.4588 41.8671 41.5618L46.5892 49.5012H42.1335L37.8369 41.97H34.4885V49.5003H30.6022V29.5703ZM40.6169 38.3758C41.1058 38.1334 41.4827 37.7873 41.7483 37.3365C42.014 36.8858 42.1468 36.3611 42.1468 35.7635C42.1468 35.1658 42.014 34.6322 41.7483 34.1906C41.4827 33.749 41.105 33.4078 40.6169 33.1654C40.128 32.923 39.5561 32.8027 38.9012 32.8027H34.4877V38.7393H38.9012C39.5561 38.7393 40.128 38.6174 40.6169 38.3758Z" fill="white"/>
<path d="M51.8357 65.4375H30.5859V69.4219H51.8357V65.4375Z" fill="white"/>
<path fill-rule="evenodd" clip-rule="evenodd" d="M64.8674 44.4186V41.8844L61.9288 41.8896L62.9354 37.1922L66.291 37.1863V34.6238L63.4847 34.6287L64.5686 29.5703H61.7355L60.6506 34.6337L56.4074 34.6411L57.4939 29.5703H54.6609L53.5733 34.646L50.0905 34.6521V37.2145L53.024 37.2094L52.0174 41.9069L48.6669 41.9127V44.4469L51.4741 44.442L50.3902 49.5003H53.2232L54.3081 44.4371L58.5514 44.4296L57.4648 49.5003H60.2979L61.3855 44.4247L64.8674 44.4186ZM54.8515 41.902L59.0947 41.8945L60.1013 37.1971L55.8581 37.2044L54.8515 41.902Z" fill="white"/>
<path d="M56 38H59L58 41" stroke="black"/>
</g>
<defs>
<linearGradient id="paint0_linear_229_232" x1="13.743" y1="86.5979" x2="91.5653" y2="8.77552" gradientUnits="userSpaceOnUse">
<stop offset="0.29" stop-color="#FF45ED"/>
<stop offset="0.7" stop-color="#FF0A67"/>
</linearGradient>
<linearGradient id="paint1_linear_229_232" x1="7.48121" y1="17.1875" x2="40.3968" y2="88.1818" gradientUnits="userSpaceOnUse">
<stop offset="0.3" stop-color="#FDB60D"/>
<stop offset="0.54" stop-color="#FF45ED"/>
</linearGradient>
<clipPath id="clip0_229_232">
<rect width="85" height="85" fill="white" transform="translate(8 7)"/>
</clipPath>
</defs>
</svg>
