<svg width="100" height="100" viewBox="0 0 100 100" fill="none" xmlns="http://www.w3.org/2000/svg">
<rect width="100" height="100" rx="24" fill="white"/>
<g clip-path="url(#clip0_229_238)">
<path d="M85.0312 28.8478V12.5666C85.0312 9.50693 82.5252 7.03994 79.4656 7.08891L64.799 7.32299C63.2301 7.3479 61.7476 8.04433 60.7266 9.2355L17.2877 59.9142C16.4369 60.907 15.9688 62.172 15.9688 63.4794V78.5529C15.9688 81.5785 18.4216 84.0314 21.4473 84.0314H36.0608C37.6404 84.0314 39.1437 83.349 40.1838 82.1603L83.6758 32.4552C84.5498 31.4566 85.0312 30.175 85.0312 28.8478Z" fill="#6B57FF"/>
<path d="M85.0312 26.9053V12.4785C85.0312 9.45287 82.5783 7 79.5527 7H62.864C62.5984 7 62.3328 7.01909 62.0697 7.05811L12.6841 14.2939C9.99385 14.6882 8 16.9958 8 19.7143V40.1641C8 43.1906 10.4537 45.6434 13.4802 45.6426L38.0563 45.6367C38.6215 45.6367 39.1836 45.5488 39.7215 45.377L81.2195 32.124C83.4898 31.3985 85.0312 29.2885 85.0312 26.9053Z" fill="url(#paint0_linear_229_238)"/>
<path d="M93 86.5211V41.1955C93 38.9933 91.681 37.0052 89.6523 36.1486L39.9522 15.1676C39.2641 14.8771 38.5236 14.7301 37.7766 14.7368L13.4337 14.936C10.4255 14.9601 8 17.4055 8 20.4136V43.8759C8 44.9458 8.31294 45.9917 8.90063 46.8857L36.9357 89.531C37.9484 91.0724 39.6691 91.9996 41.5135 91.9996H87.5215C90.5471 91.9996 93 89.5468 93 86.5211Z" fill="url(#paint1_linear_229_238)"/>
<path d="M77.0625 22.9375H23.9375V76.0625H77.0625V22.9375Z" fill="black"/>
<path d="M51.3868 44.7953C52.2692 46.3658 53.4835 47.6001 55.0307 48.4966V48.4933C56.578 49.3906 58.3055 49.8388 60.2129 49.8388C61.8266 49.8388 63.3067 49.54 64.6547 48.9423C66.002 48.3447 67.125 47.5072 68.0215 46.4296C68.9188 45.3523 69.519 44.1162 69.8229 42.7209H65.7512C65.4856 43.4422 65.0897 44.0763 64.5625 44.6218C64.0354 45.1679 63.4022 45.588 62.6617 45.8818C61.9213 46.1765 61.1145 46.3234 60.2412 46.3234C59.0641 46.3234 58.0008 46.0296 57.052 45.441C56.1032 44.8525 55.3604 44.0441 54.8241 43.0138C54.2879 41.9845 54.0198 40.8242 54.0198 39.5334C54.0198 38.2426 54.2879 37.083 54.8241 36.0529C55.3604 35.0236 56.1032 34.2142 57.052 33.6257C58.0016 33.0372 59.0641 32.7433 60.2412 32.7433C61.1145 32.7433 61.9213 32.8911 62.6617 33.1849C63.4022 33.4796 64.0354 33.8996 64.5625 34.445C65.0897 34.9912 65.4856 35.6246 65.7512 36.3459H69.8229C69.519 34.9505 68.918 33.7146 68.0215 32.6371C67.1242 31.5597 66.002 30.722 64.6547 30.1244C63.3067 29.5267 61.8266 29.2279 60.2129 29.2279C58.3046 29.2279 56.5772 29.6771 55.0307 30.5736C53.4844 31.47 52.2692 32.7043 51.3868 34.2748C50.5043 35.8453 50.0627 37.5984 50.0627 39.5351C50.0627 41.4716 50.5043 43.2247 51.3868 44.7953Z" fill="white"/>
<path fill-rule="evenodd" clip-rule="evenodd" d="M30.5742 29.5699H38.1619C40.0504 29.5699 41.742 29.9966 43.237 30.8507C44.732 31.7048 45.9016 32.8886 46.7465 34.4027C47.5908 35.9167 48.0133 37.6267 48.0133 39.5351C48.0133 41.4433 47.5908 43.1533 46.7465 44.6673C45.9016 46.1814 44.732 47.3652 43.237 48.2193C41.742 49.0734 40.0504 49.5001 38.1619 49.5001H30.5742V29.5699ZM41.2365 45.3431C42.1289 44.8118 42.817 44.0498 43.301 43.0579C43.7848 42.0659 44.0272 40.8922 44.0272 39.5341C44.0272 38.1761 43.7848 37.0025 43.301 36.0105C42.817 35.0185 42.1289 34.2574 41.2365 33.7253C40.3442 33.1941 39.3049 32.9284 38.1188 32.9284H34.4598V46.1392H38.1188C39.3049 46.1392 40.3442 45.8743 41.2365 45.3431Z" fill="white"/>
<path d="M51.8281 65.4376H30.5781V69.422H51.8281V65.4376Z" fill="white"/>
</g>
<defs>
<linearGradient id="paint0_linear_229_238" x1="82.8125" y1="6.48037" x2="11.8175" y2="39.3963" gradientUnits="userSpaceOnUse">
<stop offset="0.18" stop-color="#6B57FF"/>
<stop offset="0.54" stop-color="#FF45ED"/>
</linearGradient>
<linearGradient id="paint1_linear_229_238" x1="13.4021" y1="12.7421" x2="91.2254" y2="90.5652" gradientUnits="userSpaceOnUse">
<stop offset="0.12" stop-color="#FF45ED"/>
<stop offset="0.92" stop-color="#FC801D"/>
</linearGradient>
<clipPath id="clip0_229_238">
<rect width="85" height="85" fill="white" transform="translate(8 7)"/>
</clipPath>
</defs>
</svg>
