<svg width="100" height="100" viewBox="0 0 100 100" fill="none" xmlns="http://www.w3.org/2000/svg">
<rect width="100" height="100" rx="24" fill="white"/>
<path d="M35.425 14.575L14.575 35.425C11.65 38.35 10 42.325 10 46.475V83.75C10 87.2 12.8 90 16.25 90H53.525C57.675 90 61.6375 88.35 64.575 85.425L85.425 64.575C88.35 61.65 90 57.675 90 53.525V16.25C90 12.8 87.2 10 83.75 10H46.475C42.325 10 38.3625 11.65 35.425 14.575Z" fill="url(#paint0_linear_229_230)"/>
<path d="M70 30H20V80H70V30Z" fill="black"/>
<path d="M47.5 68.75H26.25V73.75H47.5V68.75Z" fill="white"/>
<defs>
<linearGradient id="paint0_linear_229_230" x1="11.0625" y1="88.4" x2="88.275" y2="12.2625" gradientUnits="userSpaceOnUse">
<stop stop-color="#FF9419"/>
<stop offset="0.43" stop-color="#FF021D"/>
<stop offset="0.99" stop-color="#E600FF"/>
</linearGradient>
</defs>
</svg>
