<svg width="100" height="100" viewBox="0 0 100 100" fill="none" xmlns="http://www.w3.org/2000/svg">
<rect width="100" height="100" rx="24" fill="white"/>
<g clip-path="url(#clip0_229_245)">
<path d="M8 12.4091V57.5232C8 59.6869 9.28968 61.6427 11.2779 62.4949L61.0701 83.8354C61.7431 84.1236 62.4688 84.2727 63.2013 84.2727H87.5909C90.5783 84.2727 93 81.851 93 78.8636V55.0026C93 53.9339 92.6831 52.8891 92.0897 51.9998L63.6641 9.40859C62.6604 7.90486 60.9728 7.00232 59.1654 7.00232L13.4091 7C10.4217 7 8 9.42173 8 12.4091Z" fill="url(#paint0_linear_229_245)"/>
<path d="M15.7275 72.7189V86.5933C15.7275 89.5807 18.1493 92.0024 21.1366 92.0024H38.5253C38.7811 92.0024 39.0369 91.9838 39.2903 91.9483L88.3561 84.9397C91.0213 84.5588 93.0003 82.2768 93.0003 79.5847V58.769C93.0003 55.7808 90.5778 53.3591 87.5897 53.3599L62.9682 53.366C62.3871 53.366 61.8099 53.4595 61.2589 53.6435L19.4258 67.5881C17.2173 68.3244 15.7275 70.3907 15.7275 72.7189Z" fill="url(#paint1_linear_229_245)"/>
<path d="M15.7275 70.818L15.7298 86.5901C15.7298 89.5775 18.1516 91.9984 21.1389 91.9984H36.4211C37.9998 91.9984 39.5005 91.3083 40.5282 90.1098L83.9709 39.4267C84.8109 38.4461 85.273 37.1973 85.273 35.9061V20.134C85.273 17.1466 82.8513 14.7249 79.8639 14.7249H64.5793C63.0006 14.7249 61.5001 15.415 60.4723 16.6135L17.0304 67.2966C16.1896 68.2772 15.7275 69.526 15.7275 70.818Z" fill="#00D886"/>
<path d="M77.0625 22.9375H23.9375V76.0625H77.0625V22.9375Z" fill="black"/>
<path fill-rule="evenodd" clip-rule="evenodd" d="M34.6721 48.4533C35.752 49.0698 36.9219 49.4586 38.1704 49.6475L38.1718 49.8938C38.1718 50.7298 38.3426 51.4592 38.6841 52.0637C39.0347 52.6863 39.5332 53.1665 40.1778 53.4866C40.8326 53.8242 41.5909 54.0026 42.4545 54.0026H45.6555V51.1216H43.2227C42.9193 51.1216 42.6633 51.069 42.4545 50.9616C42.2456 50.8548 42.0849 50.6948 41.9705 50.4813C41.857 50.268 41.7997 50.0188 41.7997 49.717V49.6041C42.9613 49.4021 44.0528 49.0318 45.058 48.4541C46.6135 47.5471 47.8323 46.3199 48.7141 44.7553C49.596 43.1723 50.0372 41.4292 50.0372 39.491C50.0372 37.5528 49.596 35.8098 48.7141 34.2443C47.8323 32.662 46.6129 31.435 45.058 30.5455C43.5115 29.6385 41.7807 29.1942 39.8654 29.1942C37.95 29.1942 36.2284 29.6385 34.6727 30.5455C33.1271 31.435 31.9084 32.662 31.0167 34.2443C30.1349 35.8098 29.6936 37.552 29.6936 39.491C29.6936 41.4299 30.1349 43.1723 31.0167 44.7553C31.9084 46.3199 33.1264 47.5463 34.6721 48.4533ZM34.4731 35.9691C35.0135 34.902 35.7536 34.0842 36.6926 33.4966C37.6407 32.9097 38.7031 32.6072 39.8791 32.6072C41.0552 32.6072 42.113 32.9089 43.052 33.4966C43.991 34.0835 44.7257 34.9012 45.257 35.9691C45.7882 37.0002 46.0534 38.174 46.0534 39.4903C46.0534 40.8065 45.7874 41.9795 45.257 43.029C44.7257 44.0777 43.991 44.8963 43.052 45.5006C42.113 46.0875 41.0552 46.3719 39.8791 46.3719C38.7031 46.3719 37.6407 46.0875 36.6926 45.5006C35.7536 44.8955 35.0135 44.0777 34.4731 43.029C33.9419 41.9795 33.6767 40.8057 33.6767 39.4903C33.6767 38.1748 33.9419 37.0002 34.4731 35.9691Z" fill="white"/>
<path fill-rule="evenodd" clip-rule="evenodd" d="M61.8058 29.5311H57.5957L50.4108 49.4486H54.4083L55.9166 44.8254H63.6701L65.2775 49.4486H69.1897L61.8058 29.5311ZM56.8412 41.8203L59.3738 34.2268L59.6581 32.9639L59.9569 34.2268L62.6457 41.8203H56.8412Z" fill="white"/>
<path d="M30.5703 65.4388H51.8203V69.4232H30.5703V65.4388Z" fill="white"/>
</g>
<defs>
<linearGradient id="paint0_linear_229_245" x1="87.7122" y1="86.3923" x2="9.74404" y2="8.42491" gradientUnits="userSpaceOnUse">
<stop offset="0.25" stop-color="#7256FF"/>
<stop offset="0.73" stop-color="#007DFE"/>
</linearGradient>
<linearGradient id="paint1_linear_229_245" x1="18.123" y1="92.9552" x2="90.4255" y2="59.4328" gradientUnits="userSpaceOnUse">
<stop offset="0.3" stop-color="#00D886"/>
<stop offset="0.54" stop-color="#7256FF"/>
</linearGradient>
<clipPath id="clip0_229_245">
<rect width="85" height="85" fill="white" transform="translate(8 7)"/>
</clipPath>
</defs>
</svg>
