<svg width="100" height="100" viewBox="0 0 100 100" fill="none" xmlns="http://www.w3.org/2000/svg">
<rect width="100" height="100" rx="24" fill="white"/>
<g clip-path="url(#clip0_229_254)">
<path d="M8.73498 75.0592C8.60631 74.9645 8.56399 74.7911 8.63371 74.6475L18.7748 53.762L7.07731 39.7925C6.95944 39.6522 6.97854 39.4422 7.11965 39.3252L41.2375 10.8942C47.3079 5.83403 56.0968 5.69125 62.3331 10.548C68.567 15.4048 70.5591 23.9463 67.1103 31.0493L63.3923 38.7085C64.8425 38.222 66.2777 37.7796 67.697 37.3819L84.5294 32.5468C84.7128 32.4936 84.9038 32.6065 84.9453 32.7932L91.9918 64.1171C92.0349 64.3106 91.9038 64.4998 91.7062 64.5247C89.4726 64.8061 77.2861 66.5567 62.114 72.9309C44.9239 80.1509 33.58 90.4124 31.973 91.9131C31.8543 92.0243 31.68 92.0286 31.5497 91.9323L8.73498 75.0592Z" fill="url(#paint0_linear_229_254)"/>
<path d="M76.0625 22.9375H22.9375V76.0625H76.0625V22.9375Z" fill="black"/>
<path d="M35.5103 42.0238L28.2214 29.5677H32.4068L36.9199 37.5257L37.447 38.6646L37.974 37.5115L42.3726 29.5677H46.4865L39.3113 41.9957V49.4979H35.5103V42.0238Z" fill="white"/>
<path d="M50.8281 65.4354H29.5781V69.4198H50.8281V65.4354Z" fill="white"/>
<path d="M63.2126 29.5677H47.2261L47.2253 33.0699H53.2898V49.4979H57.1763V33.0699H63.2126V29.5677Z" fill="white"/>
</g>
<defs>
<linearGradient id="paint0_linear_229_254" x1="6.86398" y1="49.5003" x2="92.0707" y2="49.5003" gradientUnits="userSpaceOnUse">
<stop stop-color="#FB43FF"/>
<stop offset="0.97" stop-color="#FB406D"/>
</linearGradient>
<clipPath id="clip0_229_254">
<rect width="85" height="85" fill="white" transform="translate(7 7)"/>
</clipPath>
</defs>
</svg>
