<svg width="100" height="100" viewBox="0 0 100 100" fill="none" xmlns="http://www.w3.org/2000/svg">
<rect width="100" height="100" rx="24" fill="white"/>
<g clip-path="url(#clip0_229_251)">
<path d="M70.1523 84.0312H86.4336C89.4932 84.0312 91.9602 81.5252 91.9111 78.4656L91.6771 63.799C91.6522 62.2301 90.9558 60.7476 89.7646 59.7266L39.0859 16.2877C38.0931 15.4369 36.828 14.9688 35.5207 14.9688H20.4473C17.4216 14.9688 14.9688 17.4216 14.9688 20.4473V35.0608C14.9688 36.6404 15.6511 38.1437 16.8397 39.1838L66.5449 82.6758C67.5434 83.5498 68.825 84.0312 70.1523 84.0312Z" fill="#7256FF"/>
<path d="M72.0955 84.0312H86.5214C89.547 84.0312 91.9999 81.5783 91.9999 78.5527V61.864C91.9999 61.5984 91.9808 61.3328 91.9419 61.0697L84.706 11.6841C84.3118 8.99385 82.0042 7 79.2856 7H58.8358C55.8093 7 53.3565 9.45371 53.3573 12.4802L53.3631 37.0563C53.3631 37.6215 53.4511 38.1836 53.6229 38.7215L66.8759 80.2195C67.6014 82.4898 69.7124 84.0312 72.0955 84.0312Z" fill="url(#paint0_linear_229_251)"/>
<path d="M12.4785 92H57.8041C60.0063 92 61.9943 90.681 62.851 88.6523L83.832 38.9522C84.1225 38.2641 84.2695 37.5236 84.2629 36.7766L84.0637 12.4337C84.0387 9.42549 81.5933 7 78.5851 7H55.1229C54.0529 7 53.007 7.31294 52.1131 7.90063L9.46949 35.9357C7.92803 36.9492 7 38.6691 7 40.5135V86.5215C7 89.5471 9.45287 92 12.4785 92Z" fill="url(#paint1_linear_229_251)"/>
<path d="M76.0625 22.9375H22.9375V76.0625H76.0625V22.9375Z" fill="black"/>
<path fill-rule="evenodd" clip-rule="evenodd" d="M33.4868 48.494C31.9354 47.5975 30.7152 46.3631 29.8278 44.7926C28.9405 43.2221 28.4963 41.469 28.4963 39.5325C28.4963 37.5959 28.9397 35.8428 29.8278 34.2723C30.7152 32.7018 31.9346 31.4674 33.4868 30.5709C35.0383 29.6744 36.7731 29.2254 38.6897 29.2254C40.6064 29.2254 42.3272 29.6736 43.8786 30.5709C45.4299 31.4674 46.6477 32.7018 47.5301 34.2723C48.4125 35.8428 48.8541 37.5959 48.8541 39.5325C48.8541 41.469 48.4125 43.2221 47.5301 44.7926C46.6477 46.3631 45.4299 47.5975 43.8786 48.494C42.8657 49.0793 41.7769 49.4737 40.6122 49.6772V49.7672C40.6122 50.0612 40.6695 50.3152 40.7832 50.5285C40.8969 50.7418 41.0604 50.9037 41.2746 51.0124C41.4879 51.1211 41.742 51.176 42.0366 51.176H44.4713V54.0514H41.268C40.4039 54.0514 39.6477 53.8828 38.9977 53.5458L38.9969 53.5475C38.3469 53.2104 37.8481 52.7332 37.502 52.1164C37.1549 51.4997 36.9823 50.7734 36.9823 49.9383L36.9811 49.7129C35.7302 49.5222 34.5623 49.1159 33.4868 48.494ZM41.8648 45.5331C42.8045 44.9404 43.5399 44.1186 44.0711 43.0703C44.6024 42.0219 44.868 40.8424 44.868 39.5325C44.868 38.2227 44.6024 37.0439 44.0711 35.9946C43.5399 34.9463 42.8045 34.1253 41.8648 33.5318C40.9252 32.9391 39.8668 32.642 38.6906 32.642C37.5143 32.642 36.4535 32.9383 35.5088 33.5318C34.5643 34.1253 33.8238 34.9463 33.2885 35.9946C32.7522 37.043 32.484 38.2227 32.484 39.5325C32.484 40.8424 32.7522 42.0219 33.2885 43.0703C33.8246 44.1186 34.5651 44.9404 35.5088 45.5331C36.4535 46.1266 37.5135 46.4229 38.6906 46.4229C39.8676 46.4229 40.926 46.1266 41.8648 45.5331Z" fill="white"/>
<path d="M50.8197 65.435H29.5697V69.4194H50.8197V65.435Z" fill="white"/>
<path fill-rule="evenodd" clip-rule="evenodd" d="M59.8443 29.5674H52.2565V49.4975H59.8443C61.7326 49.4975 63.4244 49.0709 64.9193 48.2168C66.4135 47.3625 67.583 46.1789 68.4281 44.6648C69.2723 43.1508 69.6948 41.4408 69.6948 39.5324C69.6948 37.6241 69.2723 35.9141 68.4281 34.4C67.584 32.886 66.4143 31.7023 64.9193 30.8481C63.4244 29.994 61.7326 29.5674 59.8443 29.5674ZM64.9842 43.0553C64.5002 44.0473 63.8121 44.8092 62.9197 45.3405C62.0274 45.8717 60.9881 46.1365 59.8019 46.1365H56.143V32.9258H59.8019C60.9881 32.9258 62.0274 33.1914 62.9197 33.7227C63.8121 34.2547 64.5002 35.016 64.9842 36.0079C65.468 36.9998 65.7104 38.1736 65.7104 39.5316C65.7104 40.8896 65.468 42.0633 64.9842 43.0553Z" fill="white"/>
</g>
<defs>
<linearGradient id="paint0_linear_229_251" x1="92.5196" y1="81.8125" x2="59.6036" y2="10.8184" gradientUnits="userSpaceOnUse">
<stop offset="0.1" stop-color="#7256FF"/>
<stop offset="0.59" stop-color="#FF2D90"/>
</linearGradient>
<linearGradient id="paint1_linear_229_251" x1="86.2576" y1="12.4021" x2="8.43437" y2="90.2254" gradientUnits="userSpaceOnUse">
<stop offset="0.21" stop-color="#FF2D90"/>
<stop offset="0.7" stop-color="#FF8200"/>
</linearGradient>
<clipPath id="clip0_229_251">
<rect width="85" height="85" fill="white" transform="translate(7 7)"/>
</clipPath>
</defs>
</svg>
