<svg width="100" height="100" viewBox="0 0 100 100" fill="none" xmlns="http://www.w3.org/2000/svg">
<rect width="100" height="100" rx="24" fill="white"/>
<g clip-path="url(#clip0_229_236)">
<path d="M87.5912 7H42.4771C40.3134 7 38.3577 8.28968 37.5053 10.2779L16.1649 60.0701C15.8767 60.7432 15.7275 61.4688 15.7275 62.2013V86.5909C15.7275 89.5783 18.1493 92 21.1366 92H44.9977C46.0664 92 47.1111 91.6832 48.0005 91.0897L90.5916 62.6634C92.0955 61.6604 92.9979 59.972 92.9979 58.1646L93.0003 12.4091C93.0003 9.42173 90.5786 7 87.5912 7Z" fill="url(#paint0_linear_229_236)"/>
<path d="M27.2834 14.7249H13.4091C10.4217 14.7249 8 17.1466 8 20.134V37.5227C8 37.7785 8.01855 38.0343 8.05409 38.2877L15.0627 87.3535C15.4437 90.0187 17.7255 91.9976 20.4177 91.9976H41.2334C44.2216 91.9976 46.6433 89.5751 46.6426 86.587L46.6364 61.9656C46.6364 61.3845 46.5429 60.8073 46.3589 60.2563L32.4151 18.4232C31.6787 16.2147 29.6116 14.7249 27.2834 14.7249Z" fill="url(#paint1_linear_229_236)"/>
<path d="M29.1804 14.7249L13.4083 14.7272C10.4217 14.728 8 17.1497 8 20.1363V35.4185C8 36.9973 8.69005 38.4978 9.88854 39.5256L60.5709 82.9683C61.5516 83.8083 62.8003 84.2703 64.0915 84.2703H79.8636C82.851 84.2703 85.2727 81.8486 85.2727 78.8613V63.5768C85.2727 61.998 84.5827 60.4974 83.3842 59.4697L32.7018 16.0277C31.7212 15.187 30.4724 14.7249 29.1804 14.7249Z" fill="#FF8100"/>
<path d="M77.0625 22.9375H23.9375V76.0625H77.0625V22.9375Z" fill="black"/>
<path fill-rule="evenodd" clip-rule="evenodd" d="M63.6422 29.5781L59.6867 42.6554L59.3878 44.3629L59.0462 42.6554L54.9482 29.5781H49.5412V49.5H53.3686V35.2847L53.3115 34.3456L57.8937 49.5H60.7112L65.3497 34.2457L65.2933 35.2847V49.5H69.1353V29.5781H63.6422ZM42.8848 41.204C43.9666 40.6827 44.7959 39.9516 45.3752 39.0125C45.963 38.0642 46.2572 36.9726 46.2572 35.7392C46.2572 34.5057 45.9675 33.4393 45.389 32.5093C44.8195 31.5793 44.0039 30.859 42.9413 30.3467C41.8786 29.8345 40.6505 29.5783 39.2556 29.5783H30.7033V49.4993H34.588V41.9717H37.9352L42.2301 49.4993H46.6841L41.9365 41.5181C42.0314 41.488 42.1278 41.4603 42.2243 41.4326C42.4521 41.3674 42.6798 41.302 42.8848 41.204ZM34.5895 32.8081H39.0009C39.6558 32.8081 40.2245 32.9308 40.7084 33.1779C41.2017 33.4141 41.5813 33.7564 41.8466 34.2024C42.1119 34.6376 42.2452 35.1606 42.2452 35.7673C42.2452 36.3741 42.1126 36.8917 41.8466 37.3469C41.5813 37.7935 41.2017 38.1382 40.7084 38.3859C40.2245 38.6221 39.6558 38.7418 39.0009 38.7418H34.5895V32.8081ZM30.5703 65.4376H51.8203V69.422H30.5703V65.4376Z" fill="white"/>
</g>
<defs>
<linearGradient id="paint0_linear_229_236" x1="13.6079" y1="86.7122" x2="91.5754" y2="8.74404" gradientUnits="userSpaceOnUse">
<stop offset="0.29" stop-color="#FF2358"/>
<stop offset="0.75" stop-color="#7256FF"/>
</linearGradient>
<linearGradient id="paint1_linear_229_236" x1="7.04723" y1="17.1204" x2="40.0682" y2="88.3418" gradientUnits="userSpaceOnUse">
<stop offset="0.29" stop-color="#FF8100"/>
<stop offset="0.56" stop-color="#FF2358"/>
</linearGradient>
<clipPath id="clip0_229_236">
<rect width="85" height="85" fill="white" transform="translate(8 7)"/>
</clipPath>
</defs>
</svg>
