<svg width="100" height="100" viewBox="0 0 100 100" fill="none" xmlns="http://www.w3.org/2000/svg">
<rect width="100" height="100" rx="24" fill="white"/>
<g clip-path="url(#clip0_229_234)">
<path d="M71.8192 84.2703L87.5913 84.2681C90.5787 84.2681 92.9997 81.8463 92.9997 78.859V63.5768C92.9997 61.998 92.3096 60.4974 91.1111 59.4697L40.428 16.027C39.4473 15.187 38.1986 14.7249 36.9074 14.7249H21.1353C18.1479 14.7249 15.7262 17.1466 15.7262 20.134V35.4185C15.7262 36.9973 16.4163 38.4978 17.6148 39.5256L68.2971 82.9676C69.2777 83.8083 70.5272 84.2703 71.8192 84.2703Z" fill="#007DFE"/>
<path d="M73.7172 84.2727H87.5915C90.5789 84.2727 93.0006 81.851 93.0006 78.8636V61.4749C93.0006 61.2192 92.9821 60.9634 92.9465 60.7099L85.9371 11.6441C85.5561 8.97896 83.2743 7 80.5821 7H59.7664C56.7782 7 54.3565 9.4225 54.3573 12.4106L54.3635 37.0321C54.3635 37.6131 54.457 38.1904 54.6409 38.7413L68.5855 80.5744C69.3219 82.7829 71.389 84.2727 73.7172 84.2727Z" fill="url(#paint0_linear_229_234)"/>
<path d="M13.4091 92H58.5232C60.6869 92 62.6427 90.7103 63.4949 88.7221L84.8354 38.9299C85.1236 38.2568 85.2727 37.5312 85.2727 36.7987V12.4091C85.2727 9.42173 82.851 7 79.8636 7H56.0026C54.9339 7 53.8892 7.31682 52.9998 7.91027L10.4086 36.3358C8.90486 37.3396 8.00232 39.0272 8.00232 40.8346L8 86.5909C8 89.5783 10.4217 92 13.4091 92Z" fill="url(#paint1_linear_229_234)"/>
<path d="M77.0625 22.9375H23.9375V76.0625H77.0625V22.9375Z" fill="black"/>
<path fill-rule="evenodd" clip-rule="evenodd" d="M65.705 34.4165C64.8603 32.9048 63.6887 31.7126 62.19 30.8588C60.7005 30.005 59.0121 29.5781 57.1245 29.5781H49.5404V49.4992H57.1245C59.0121 49.4992 60.7005 49.0723 62.19 48.2186C63.6887 47.3648 64.8603 46.1908 65.705 44.6792C66.5488 43.1493 66.9711 41.4417 66.9711 39.5391C66.9711 37.6364 66.5488 35.928 65.705 34.4165ZM62.2617 43.0609C61.7776 44.0572 61.09 44.821 60.1981 45.3371C59.3062 45.8714 58.2672 46.1375 57.0819 46.1375H53.4252V32.9399H57.0819C58.2672 32.9399 59.3062 33.2067 60.1981 33.7395C61.09 34.2555 61.7776 35.0209 62.2617 36.0165C62.7457 37.0128 62.9874 38.186 62.9874 39.5383C62.9874 40.8906 62.7457 42.0645 62.2617 43.0609Z" fill="white"/>
<path fill-rule="evenodd" clip-rule="evenodd" d="M34.5887 41.9762H37.9413L42.23 49.5001H46.684L41.941 41.5203C42.0383 41.4893 42.1375 41.461 42.2366 41.4328C42.4598 41.3689 42.6831 41.305 42.8848 41.2116C43.9664 40.678 44.7966 39.9484 45.3752 39.0063C45.963 38.0633 46.2572 36.9786 46.2572 35.733C46.2572 34.4873 45.9675 33.4385 45.389 32.5137C44.8195 31.5891 44.0039 30.8596 42.9413 30.3442C41.8786 29.8283 40.6497 29.579 39.2554 29.579H30.7032V49.5001H34.588L34.5887 41.9762ZM34.5887 32.8156H39.0002C39.6549 32.8156 40.2236 32.9407 40.7076 33.1717C41.2009 33.421 41.5805 33.7586 41.8458 34.2038C42.111 34.6482 42.2445 35.1643 42.2445 35.7688C42.2445 36.3733 42.1118 36.8894 41.8458 37.3521C41.5798 37.7965 41.2009 38.135 40.7076 38.3835C40.2236 38.632 39.6549 38.7395 39.0002 38.7395H34.5887V32.8156Z" fill="white"/>
<path d="M30.5703 65.4375H51.8203V69.4219H30.5703V65.4375Z" fill="white"/>
</g>
<defs>
<linearGradient id="paint0_linear_229_234" x1="93.9533" y1="81.8773" x2="60.9324" y2="10.6558" gradientUnits="userSpaceOnUse">
<stop offset="0.21" stop-color="#007DFE"/>
<stop offset="0.55" stop-color="#FFB700"/>
</linearGradient>
<linearGradient id="paint1_linear_229_234" x1="87.3923" y1="12.2878" x2="9.42491" y2="90.2559" gradientUnits="userSpaceOnUse">
<stop offset="0.23" stop-color="#FFB700"/>
<stop offset="0.73" stop-color="#FF0A67"/>
</linearGradient>
<clipPath id="clip0_229_234">
<rect width="85" height="85" fill="white" transform="translate(8 7)"/>
</clipPath>
</defs>
</svg>
