<svg width="100" height="100" viewBox="0 0 100 100" fill="none" xmlns="http://www.w3.org/2000/svg">
<rect width="100" height="100" rx="24" fill="white"/>
<g clip-path="url(#clip0_229_248)">
<path d="M84.0305 28.8475V12.5665C84.0305 9.50692 81.5244 7.03994 78.4648 7.08891L63.7985 7.323C62.2295 7.3479 60.7471 8.04433 59.726 9.23547L16.2878 59.9145C15.437 60.9073 14.9688 62.1723 14.9688 63.4796V78.5527C14.9688 81.5783 17.4216 84.0312 20.4473 84.0312H35.0606C36.6403 84.0312 38.1435 83.349 39.1835 82.1603L82.675 32.4558C83.549 31.4573 84.0305 30.1749 84.0305 28.8475Z" fill="#3BEA62"/>
<path d="M84.0311 26.9042V12.4784C84.0311 9.45285 81.5783 7 78.5527 7H61.8642C61.5986 7 61.3329 7.01909 61.0698 7.0581L11.684 14.2938C8.99379 14.6881 7 16.9957 7 19.7142V40.1637C7 43.1901 9.45372 45.643 12.4801 45.6422L37.056 45.6364C37.6213 45.6364 38.1832 45.5483 38.7211 45.3766L80.2187 32.1237C82.4889 31.3982 84.0311 29.2874 84.0311 26.9042Z" fill="url(#paint0_linear_229_248)"/>
<path d="M92.0003 86.519V41.1939C92.0003 38.9917 90.6814 37.0038 88.6526 36.1472L38.9531 15.1663C38.265 14.8758 37.5246 14.7289 36.7775 14.7355L12.4349 14.9347C9.42676 14.9596 7.00134 17.405 7.00134 20.4131V43.875C7.00134 44.9451 7.31425 45.9908 7.90193 46.8849L35.9367 89.5297C36.9493 91.0711 38.6701 91.9983 40.5145 91.9983H86.5218C89.5474 91.9983 92.0003 89.5446 92.0003 86.519Z" fill="url(#paint1_linear_229_248)"/>
<path d="M76.0618 22.9375H22.9375V76.0618H76.0618V22.9375Z" fill="black"/>
<path fill-rule="evenodd" clip-rule="evenodd" d="M29.5742 29.5677H37.1618C39.0503 29.5677 40.7419 29.9943 42.2368 30.8485C43.7318 31.7027 44.9014 32.8863 45.7456 34.4004C46.5898 35.9145 47.0122 37.6244 47.0122 39.5327C47.0122 41.4411 46.5898 43.151 45.7456 44.6649C44.9006 46.179 43.731 47.3628 42.2368 48.2169C40.7419 49.071 39.0503 49.4977 37.1618 49.4977H29.5742V29.5677ZM40.2364 45.3407C41.1288 44.8094 41.8169 44.0475 42.3008 43.0555C42.7847 42.0635 43.0271 40.8899 43.0271 39.5319C43.0271 38.1739 42.7847 37.0002 42.3008 36.0082C41.8169 35.0162 41.1288 34.2551 40.2364 33.7231C39.344 33.1918 38.3048 32.9262 37.1186 32.9262H33.4598V46.1368H37.1186C38.3048 46.1368 39.344 45.8719 40.2364 45.3407Z" fill="white"/>
<path d="M50.8279 65.4348H29.5781V69.4192H50.8279V65.4348Z" fill="white"/>
<path d="M54.2871 45.9956V29.5677H50.4158V49.4977H63.7401V45.9956H54.2871Z" fill="white"/>
</g>
<defs>
<linearGradient id="paint0_linear_229_248" x1="81.8124" y1="6.47955" x2="10.8183" y2="39.3951" gradientUnits="userSpaceOnUse">
<stop offset="0.1" stop-color="#3BEA62"/>
<stop offset="0.59" stop-color="#F0EB18"/>
</linearGradient>
<linearGradient id="paint1_linear_229_248" x1="12.4034" y1="12.7408" x2="90.2257" y2="90.5631" gradientUnits="userSpaceOnUse">
<stop offset="0.26" stop-color="#F0EB18"/>
<stop offset="0.65" stop-color="#087CFA"/>
</linearGradient>
<clipPath id="clip0_229_248">
<rect width="85" height="85" fill="white" transform="translate(7 7)"/>
</clipPath>
</defs>
</svg>
