<svg width="100" height="100" viewBox="0 0 100 100" fill="none" xmlns="http://www.w3.org/2000/svg">
<rect width="100" height="100" rx="24" fill="white"/>
<g clip-path="url(#clip0_229_240)">
<path d="M8 12.4785V57.8041C8 60.0063 9.31899 61.9943 11.3477 62.851L61.0478 83.832C61.7359 84.1225 62.4764 84.2695 63.2234 84.2629L87.5662 84.0637C90.5744 84.0387 93 81.5933 93 78.5851V55.1229C93 54.0529 92.6871 53.007 92.0994 52.1131L64.0643 9.46949C63.0508 7.92803 61.3309 7 59.4865 7H13.4785C10.4529 7 8 9.45287 8 12.4785Z" fill="url(#paint0_linear_229_240)"/>
<path d="M15.9688 72.0955V86.5214C15.9688 89.547 18.4216 91.9999 21.4473 91.9999H38.136C38.4016 91.9999 38.6672 91.9808 38.9303 91.9419L88.3168 84.706C91.007 84.3118 93.0008 82.0042 93.0008 79.2856V58.8358C93.0008 55.8093 90.5471 53.3565 87.5207 53.3573L62.9445 53.3631C62.3793 53.3631 61.8172 53.4511 61.2793 53.6229L19.7813 66.8759C17.511 67.6014 15.9688 69.7124 15.9688 72.0955Z" fill="url(#paint1_linear_229_240)"/>
<path d="M15.9688 70.1523V86.4336C15.9688 89.4932 18.4748 91.9602 21.5344 91.9111L35.8898 92C37.4586 91.975 39.2524 90.9558 40.2734 89.7646L83.7123 39.0859C84.5631 38.0931 85.0312 36.828 85.0312 35.5207V20.4473C85.0312 17.4216 82.5783 14.9688 79.5527 14.9688H64.9392C63.3596 14.9688 61.8563 15.6511 60.8162 16.8397L17.3243 66.5449C16.4502 67.5434 15.9688 68.825 15.9688 70.1523Z" fill="#FF45ED"/>
<path d="M77.0625 22.9375H23.9375V76.0625H77.0625V22.9375Z" fill="black"/>
<path fill-rule="evenodd" clip-rule="evenodd" d="M30.595 29.5703H38.1827C40.0711 29.5703 41.7628 29.997 43.2578 30.8512C44.7528 31.7053 45.9223 32.889 46.7665 34.4031C47.6116 35.9172 48.0333 37.6271 48.0333 39.5355C48.0333 41.4437 47.6108 43.1537 46.7665 44.6678C45.9215 46.1818 44.752 47.3656 43.2578 48.2197C41.7628 49.0738 40.0711 49.5006 38.1827 49.5006H30.595V29.5703ZM41.2573 45.3435C42.1497 44.8123 42.8378 44.0502 43.3217 43.0583C43.8057 42.0664 44.0481 40.8926 44.0481 39.5346C44.0481 38.1766 43.8057 37.0029 43.3217 36.0109C42.8378 35.0189 42.1497 34.2578 41.2573 33.7257C40.3649 33.1945 39.3257 32.9289 38.1395 32.9289H34.4805V46.1396H38.1395C39.3257 46.1396 40.3649 45.8748 41.2573 45.3435Z" fill="white"/>
<path d="M51.8281 65.438H30.5781V69.4224H51.8281V65.438Z" fill="white"/>
<path fill-rule="evenodd" clip-rule="evenodd" d="M59.9913 29.5703H51.4358L51.4349 49.5014H55.3214V41.9709H59.8768C61.3104 41.9709 62.563 41.7119 63.6354 41.1947C64.7079 40.6768 65.5362 39.9488 66.1198 39.0092C66.7034 38.0695 66.9956 36.9589 66.9956 35.7345C66.9956 34.5101 66.7083 33.4336 66.1339 32.5031C65.5595 31.5725 64.7436 30.8512 63.6852 30.339C62.6269 29.8269 61.3958 29.5703 59.9913 29.5703ZM62.5821 37.3365C62.3165 37.7873 61.9395 38.1334 61.4507 38.3758C60.9618 38.6174 60.3898 38.7394 59.7349 38.7394H55.3214V32.8027H59.7349C60.3898 32.8027 60.9618 32.923 61.4507 33.1654C61.9388 33.4078 62.3165 33.749 62.5821 34.1906C62.8477 34.6322 62.9805 35.1418 62.9805 35.7494C62.9805 36.357 62.8477 36.8859 62.5821 37.3365Z" fill="white"/>
</g>
<defs>
<linearGradient id="paint0_linear_229_240" x1="87.5979" y1="86.2567" x2="9.77553" y2="8.43354" gradientUnits="userSpaceOnUse">
<stop offset="0.29" stop-color="#6B57FF"/>
<stop offset="0.89" stop-color="#07C3F2"/>
</linearGradient>
<linearGradient id="paint1_linear_229_240" x1="18.1876" y1="92.5187" x2="89.1824" y2="59.6036" gradientUnits="userSpaceOnUse">
<stop offset="0.3" stop-color="#FF45ED"/>
<stop offset="0.84" stop-color="#6B57FF"/>
</linearGradient>
<clipPath id="clip0_229_240">
<rect width="85" height="85" fill="white" transform="translate(8 7)"/>
</clipPath>
</defs>
</svg>
