<svg width="100" height="100" viewBox="0 0 100 100" fill="none" xmlns="http://www.w3.org/2000/svg">
<rect width="100" height="100" rx="24" fill="white"/>
<g clip-path="url(#clip0_229_244)">
<path d="M13.4785 92H58.8041C61.0063 92 62.9943 90.681 63.851 88.6523L84.832 38.9522C85.1225 38.2641 85.2695 37.5236 85.2629 36.7766L85.0637 12.4337C85.0396 9.42549 82.5941 7 79.5859 7H56.1238C55.0537 7 54.0078 7.31294 53.1139 7.90063L10.4695 35.9357C8.92803 36.9492 8 38.6691 8 40.5135V86.5215C8 89.5471 10.4529 92 13.4785 92Z" fill="url(#paint0_linear_229_244)"/>
<path d="M73.0955 84.0312H87.5214C90.547 84.0312 92.9999 81.5783 92.9999 78.5527V61.864C92.9999 61.5984 92.9808 61.3328 92.9419 61.0697L85.706 11.6841C85.3126 8.99385 83.005 7 80.2856 7H59.8358C56.8093 7 54.3565 9.45371 54.3573 12.4802L54.3631 37.0563C54.3631 37.6215 54.4511 38.1836 54.6229 38.7215L67.8759 80.2195C68.6014 82.4898 70.7124 84.0312 73.0955 84.0312Z" fill="url(#paint1_linear_229_244)"/>
<path d="M71.1523 84.0312H87.4336C90.4932 84.0312 92.9602 81.5252 92.9111 78.4656L93 64.1094C92.975 62.5406 91.9558 60.7476 90.7646 59.7266L40.0859 16.2877C39.0931 15.4369 37.828 14.9688 36.5207 14.9688H21.4473C18.4216 14.9688 15.9688 17.4216 15.9688 20.4473V35.0608C15.9688 36.6404 16.6511 38.1437 17.8397 39.1838L67.5449 82.6758C68.5434 83.5498 69.825 84.0312 71.1523 84.0312Z" fill="#F0EB18"/>
<path d="M77.0625 22.9375H23.9375V76.0625H77.0625V22.9375Z" fill="black"/>
<path fill-rule="evenodd" clip-rule="evenodd" d="M65.6239 32.1027C65.0835 31.3051 64.3264 30.6842 63.3536 30.2377C62.3799 29.7918 61.2727 29.5677 60.0291 29.5677H51.374V49.4979H60.2002C61.51 49.4979 62.6772 49.263 63.7022 48.7932C64.7274 48.3234 65.5243 47.6709 66.0938 46.8359C66.6631 46.0008 66.9479 45.047 66.9479 43.9746C66.9479 42.9877 66.7204 42.1052 66.2647 41.3266C65.809 40.548 65.1731 39.9429 64.3572 39.5113C64.0175 39.3316 63.6581 39.1892 63.2788 39.0843C63.5661 38.9988 63.8403 38.8899 64.1016 38.7576C64.842 38.3832 65.4155 37.8535 65.8239 37.1705C66.2315 36.4873 66.4358 35.6996 66.4358 34.8072C66.4358 33.8019 66.1651 32.8996 65.6239 32.1027ZM62.1367 36.6433C61.8893 37.0517 61.5407 37.3646 61.0901 37.583C60.6393 37.8021 60.1196 37.9109 59.5311 37.9109H55.1608V32.6008H59.5311C60.1196 32.6008 60.6393 32.7096 61.0901 32.9279C61.5407 33.1462 61.8902 33.4525 62.1367 33.8459C62.3832 34.2394 62.507 34.7017 62.507 35.2338C62.507 35.766 62.3832 36.2349 62.1367 36.6433ZM59.7022 46.4664H55.1608V40.856H59.7022C60.3471 40.856 60.9165 40.9746 61.4104 41.2121C61.9043 41.4494 62.2862 41.7865 62.5567 42.2231C62.8274 42.6597 62.9627 43.1437 62.9627 43.7039C62.9627 44.2642 62.8274 44.7507 62.5567 45.1633C62.2862 45.5766 61.9035 45.897 61.4104 46.1244C60.9165 46.3527 60.3471 46.4664 59.7022 46.4664Z" fill="white"/>
<path d="M30.5754 29.5685H34.4619V37.583H43.0176V29.5685H46.9039V49.4988H43.0176V41.0851H34.4619V49.4988H30.5754V29.5685Z" fill="white"/>
<path d="M51.8287 65.4363H30.5787V69.4207H51.8287V65.4363Z" fill="white"/>
</g>
<defs>
<linearGradient id="paint0_linear_229_244" x1="87.2576" y1="12.4021" x2="9.43437" y2="90.2254" gradientUnits="userSpaceOnUse">
<stop offset="0.25" stop-color="#7256FF"/>
<stop offset="0.73" stop-color="#00C4F4"/>
</linearGradient>
<linearGradient id="paint1_linear_229_244" x1="93.5196" y1="81.8125" x2="60.6036" y2="10.8175" gradientUnits="userSpaceOnUse">
<stop offset="0.3" stop-color="#F0EB18"/>
<stop offset="0.58" stop-color="#7256FF"/>
</linearGradient>
<clipPath id="clip0_229_244">
<rect width="85" height="85" fill="white" transform="translate(8 7)"/>
</clipPath>
</defs>
</svg>
