<svg width="100" height="100" viewBox="0 0 100 100" fill="none" xmlns="http://www.w3.org/2000/svg">
<rect width="100" height="100" rx="24" fill="white"/>
<g clip-path="url(#clip0_229_250)">
<path d="M14.7288 70.818L14.7311 86.5901C14.7311 89.5775 17.1528 91.9984 20.1402 91.9984H35.4224C37.0011 91.9984 38.5017 91.3083 39.5294 90.1098L82.9714 39.4267C83.8114 38.4461 84.2734 37.1973 84.2734 35.9061V20.134C84.2734 17.1466 81.8517 14.7249 78.8644 14.7249H63.5798C62.0011 14.7249 60.5005 15.415 59.4727 16.6135L16.0308 67.2966C15.1901 68.2773 14.7288 69.526 14.7288 70.818Z" fill="#00D886"/>
<path d="M14.7275 72.7189V86.5933C14.7275 89.5807 17.1493 92.0024 20.1366 92.0024H37.5253C37.7811 92.0024 38.0369 91.9839 38.2903 91.9483L87.3562 84.9397C90.0213 84.5588 92.0003 82.2769 92.0003 79.5847V58.769C92.0003 55.7808 89.5778 53.3591 86.5897 53.3599L61.9682 53.366C61.3871 53.366 60.8099 53.4595 60.2589 53.6435L18.4258 67.5881C16.2173 68.3244 14.7275 70.3907 14.7275 72.7189Z" fill="url(#paint0_linear_229_250)"/>
<path d="M7 12.4091V57.5232C7 59.6869 8.28968 61.6427 10.2779 62.4949L60.0701 83.8354C60.7432 84.1236 61.4688 84.2727 62.2013 84.2727H86.5909C89.5783 84.2727 92 81.851 92 78.8636V55.0026C92 53.9339 91.6832 52.8892 91.0897 51.9998L62.6642 9.40859C61.6604 7.90486 59.9728 7.00232 58.1654 7.00232L12.4091 7C9.42173 7 7 9.42173 7 12.4091Z" fill="url(#paint1_linear_229_250)"/>
<path d="M76.0625 22.9375H22.9375V76.0625H76.0625V22.9375Z" fill="black"/>
<path fill-rule="evenodd" clip-rule="evenodd" d="M38.2591 29.5351H29.7051V49.4643H33.5913V41.9335H38.1462C39.5693 41.9335 40.8178 41.6773 41.89 41.1648C42.9721 40.6433 43.8026 39.9119 44.3814 38.9724C44.9694 38.0328 45.2637 36.9225 45.2637 35.6985C45.2637 34.4745 44.9739 33.3977 44.3951 32.4673C43.8254 31.537 43.0094 30.8163 41.9464 30.3038C40.8832 29.7913 39.6539 29.5351 38.2591 29.5351ZM39.7104 38.3471C39.2261 38.5841 38.6573 38.7031 38.0021 38.7031H33.5889V32.7671H38.0021C38.6573 32.7671 39.2261 32.8898 39.7104 33.1368C40.2038 33.3732 40.5828 33.715 40.849 34.1619C41.1151 34.5972 41.2478 35.1296 41.2478 35.7275C41.2478 36.3254 41.1143 36.8523 40.849 37.3075C40.5836 37.7545 40.2038 38.0999 39.7104 38.3471Z" fill="white"/>
<path d="M51.3356 48.4683C52.883 49.3599 54.6102 49.8067 56.5175 49.8067V49.8052C58.1304 49.8052 59.6114 49.5062 60.9589 48.9083C62.3064 48.3105 63.4259 47.4762 64.3183 46.4032C65.2197 45.321 65.8228 44.0826 66.1264 42.6878H62.0547C61.7886 43.4084 61.3905 44.0452 60.859 44.5951C60.3367 45.1364 59.7051 45.5544 58.9655 45.848C58.2257 46.1416 57.4189 46.2895 56.5457 46.2895C55.369 46.2895 54.3059 45.996 53.3572 45.4072C52.4078 44.8185 51.6627 44.0124 51.122 42.9875C50.5905 41.9541 50.3251 40.7904 50.3251 39.5C50.3251 38.2097 50.5905 37.0513 51.122 36.0264C51.6635 34.9923 52.4078 34.1809 53.3572 33.5921C54.3059 33.0035 55.369 32.7098 56.5457 32.7098C57.4181 32.7098 58.225 32.8578 58.9655 33.1514C59.7059 33.445 60.3367 33.8682 60.859 34.4181C61.3905 34.9595 61.7886 35.5909 62.0547 36.3116H66.1264C65.8221 34.9168 65.2197 33.6836 64.3183 32.6106C63.4259 31.5286 62.3064 30.689 60.9589 30.091C59.6114 29.4931 58.1304 29.1942 56.5175 29.1942C54.6094 29.1942 52.8822 29.6441 51.3356 30.5463C49.7883 31.4378 48.5735 32.6725 47.6911 34.2473C46.8088 35.8129 46.3672 37.5639 46.3672 39.5C46.3672 41.4363 46.8088 43.1926 47.6911 44.7673C48.5741 46.3331 49.7883 47.5661 51.3356 48.4683Z" fill="white"/>
<path d="M29.5703 65.4388H50.8203V69.4232H29.5703V65.4388Z" fill="white"/>
</g>
<defs>
<linearGradient id="paint0_linear_229_250" x1="17.1222" y1="92.9552" x2="88.3445" y2="59.9335" gradientUnits="userSpaceOnUse">
<stop offset="0.1" stop-color="#00D886"/>
<stop offset="0.59" stop-color="#F0EB18"/>
</linearGradient>
<linearGradient id="paint1_linear_229_250" x1="86.7122" y1="86.3924" x2="8.74405" y2="8.42414" gradientUnits="userSpaceOnUse">
<stop offset="0.3" stop-color="#F0EB18"/>
<stop offset="0.7" stop-color="#00C4F4"/>
</linearGradient>
<clipPath id="clip0_229_250">
<rect width="85" height="85" fill="white" transform="translate(7 7)"/>
</clipPath>
</defs>
</svg>
