<svg width="100" height="100" viewBox="0 0 100 100" fill="none" xmlns="http://www.w3.org/2000/svg">
<rect width="100" height="100" rx="24" fill="white"/>
<g clip-path="url(#clip0_229_235)">
<path d="M93 86.5198V41.1943C93 38.992 91.681 37.0041 89.6523 36.1474L39.9522 15.1663C39.2641 14.8758 38.5236 14.7289 37.7766 14.7355L13.4337 14.9347C10.4255 14.9588 8 17.4042 8 20.4125V43.8746C8 44.9445 8.31294 45.9904 8.90063 46.8844L36.9357 89.5297C37.9484 91.0711 39.6691 91.9983 41.5135 91.9983H87.5215C90.5471 91.9983 93 89.5455 93 86.5198Z" fill="url(#paint0_linear_229_235)"/>
<path d="M85.0312 26.9053V12.4785C85.0312 9.45287 82.5783 7 79.5527 7H62.864C62.5984 7 62.3328 7.01909 62.0697 7.05811L12.6841 14.2939C9.99385 14.6882 8 16.9958 8 19.7143V40.1641C8 43.1906 10.4537 45.6434 13.4802 45.6426L38.0563 45.6367C38.6215 45.6367 39.1836 45.5488 39.7215 45.377L81.2195 32.124C83.4898 31.3985 85.0312 29.2885 85.0312 26.9053Z" fill="url(#paint1_linear_229_235)"/>
<path d="M85.0312 28.8477V12.5665C85.0312 9.50684 82.5252 7.03984 79.4656 7.08882L65.1094 7C63.5406 7.0249 61.7476 8.04424 60.7266 9.23539L17.2877 59.9141C16.4369 60.9069 15.9688 62.1719 15.9688 63.4793V78.5527C15.9688 81.5783 18.4216 84.0312 21.4473 84.0312H36.0608C37.6404 84.0312 39.1437 83.3489 40.1838 82.1602L83.6758 32.4551C84.5498 31.4566 85.0312 30.175 85.0312 28.8477Z" fill="#FFB700"/>
<path d="M77.0625 22.9375H23.9375V76.0625H77.0625V22.9375Z" fill="black"/>
<path fill-rule="evenodd" clip-rule="evenodd" d="M30.5742 29.5677H39.1297C40.5252 29.5677 41.7537 29.8242 42.817 30.3363C43.8795 30.8486 44.6979 31.5699 45.2723 32.5004C45.8467 33.4309 46.134 34.5076 46.134 35.7318C46.134 36.9562 45.8418 38.0545 45.2582 38.999C44.6747 39.9437 43.8438 40.6742 42.7672 41.1914C42.4709 41.3335 42.1616 41.4562 41.8392 41.5594L46.5615 49.4988H42.1057L37.809 41.9674H34.4606V49.4979H30.5742V29.5677ZM40.5891 38.3724C41.078 38.13 41.4549 37.7838 41.7205 37.3332C41.9861 36.8824 42.1189 36.3578 42.1189 35.7601C42.1189 35.1625 41.9861 34.6287 41.7205 34.1871C41.4549 33.7455 41.0772 33.4043 40.5891 33.1619C40.1002 32.9195 39.5282 32.7992 38.8733 32.7992H34.4598V38.7359H38.8733C39.5282 38.7359 40.1002 38.6139 40.5891 38.3724Z" fill="white"/>
<path d="M51.8281 65.4355H30.5781V69.4199H51.8281V65.4355Z" fill="white"/>
<path d="M63.4584 29.5677H49.9912V49.4979H53.8776V41.7109H62.8889V38.1947H53.8776V33.084H63.4584V29.5677Z" fill="white"/>
</g>
<defs>
<linearGradient id="paint0_linear_229_235" x1="13.4021" y1="12.7417" x2="91.2252" y2="90.5648" gradientUnits="userSpaceOnUse">
<stop offset="0.25" stop-color="#007EFF"/>
<stop offset="0.73" stop-color="#FF0A67"/>
</linearGradient>
<linearGradient id="paint1_linear_229_235" x1="82.8125" y1="6.48121" x2="11.8175" y2="39.3963" gradientUnits="userSpaceOnUse">
<stop offset="0.3" stop-color="#FFB700"/>
<stop offset="0.58" stop-color="#007EFF"/>
</linearGradient>
<clipPath id="clip0_229_235">
<rect width="85" height="85" fill="white" transform="translate(8 7)"/>
</clipPath>
</defs>
</svg>
