<svg width="100" height="100" viewBox="0 0 100 100" fill="none" xmlns="http://www.w3.org/2000/svg">
<rect width="100" height="100" rx="24" fill="white"/>
<g clip-path="url(#clip0_229_242)">
<path d="M71.8192 84.2703L87.5913 84.2681C90.5787 84.2681 92.9997 81.8463 92.9997 78.859V63.5768C92.9997 61.998 92.3096 60.4974 91.1111 59.4697L40.428 16.027C39.4473 15.187 38.1986 14.7249 36.9074 14.7249H21.1353C18.1479 14.7249 15.7262 17.1466 15.7262 20.134V35.4185C15.7262 36.9973 16.4163 38.4978 17.6148 39.5256L68.2971 82.9676C69.2777 83.8083 70.5272 84.2703 71.8192 84.2703Z" fill="#00D886"/>
<path d="M73.7164 84.2727H87.5907C90.5781 84.2727 92.9999 81.851 92.9999 78.8636V61.4749C92.9999 61.2192 92.9813 60.9634 92.9457 60.7099L85.9364 11.6441C85.5562 8.97973 83.2735 7 80.5821 7H59.7664C56.7782 7 54.3565 9.4225 54.3573 12.4106L54.3635 37.0321C54.3635 37.6131 54.457 38.1904 54.6409 38.7413L68.5855 80.5744C69.3219 82.7829 71.3882 84.2727 73.7164 84.2727Z" fill="url(#paint0_linear_229_242)"/>
<path d="M13.4091 92H58.5232C60.6869 92 62.6427 90.7103 63.4949 88.7221L84.8354 38.9299C85.1236 38.2568 85.2727 37.5312 85.2727 36.7987V12.4091C85.2727 9.42173 82.851 7 79.8636 7H56.0026C54.9339 7 53.8892 7.31682 52.9998 7.91027L10.4086 36.3358C8.90486 37.3396 8.00232 39.0272 8.00232 40.8346L8 86.5909C8 89.5783 10.4217 92 13.4091 92Z" fill="url(#paint1_linear_229_242)"/>
<path d="M77.0625 22.9375H23.9375V76.0625H77.0625V22.9375Z" fill="black"/>
<path d="M34.2491 49.0013C35.8083 49.8998 37.5491 50.35 39.471 50.35C41.317 50.35 42.9808 49.9389 44.4633 49.1158C45.9549 48.2927 47.1262 47.1699 47.9776 45.7445C48.8384 44.3104 49.2687 42.7088 49.2687 40.9389V39.3612H40.7621V42.4453H45.4318C45.3359 43.1897 45.0651 43.8687 44.6208 44.4825C44.0951 45.2087 43.3827 45.779 42.4836 46.1894C41.5936 46.6006 40.5992 46.8064 39.4994 46.8064C38.3137 46.8064 37.2432 46.5107 36.2863 45.9173C35.3295 45.324 34.5787 44.5117 34.0339 43.4788C33.4982 42.4376 33.2308 41.2648 33.2308 39.9645C33.2308 38.6642 33.4982 37.4968 34.0339 36.4639C34.5795 35.4219 35.3303 34.6041 36.2863 34.0109C37.2424 33.4176 38.3137 33.1217 39.4994 33.1217C40.3033 33.1217 41.0541 33.2508 41.7519 33.509C42.4505 33.758 43.0576 34.1169 43.5741 34.5849C44.0998 35.0438 44.5163 35.5894 44.8222 36.2203H49.0113C48.6478 34.91 48.0114 33.7534 47.1031 32.749C46.2039 31.7446 45.0942 30.9646 43.7747 30.4105C42.4643 29.8564 41.0296 29.5781 39.471 29.5781C37.5483 29.5781 35.8076 30.0315 34.2491 30.9406C32.6897 31.8391 31.4655 33.0833 30.5764 34.6703C29.6872 36.248 29.2422 38.0125 29.2422 39.9637C29.2422 41.9149 29.6872 43.6848 30.5764 45.2718C31.4663 46.8495 32.6905 48.0922 34.2491 49.0013Z" fill="white"/>
<path fill-rule="evenodd" clip-rule="evenodd" d="M56.0554 49.0013C57.6239 49.8998 59.3692 50.35 61.2911 50.35C63.2223 50.35 64.9684 49.8998 66.527 49.0013C68.0955 48.0922 69.3243 46.8495 70.2135 45.2718C71.1026 43.6848 71.5476 41.9149 71.5476 39.9637C71.5476 38.0125 71.1026 36.248 70.2135 34.6703C69.3243 33.0833 68.0955 31.8391 66.527 30.9406C64.9684 30.0315 63.2132 29.5781 61.2911 29.5781C59.3692 29.5781 57.6239 30.0315 56.0554 30.9406C54.4968 31.8391 53.2679 33.0833 52.3688 34.6703C51.4796 36.248 51.0347 38.0125 51.0347 39.9637C51.0347 41.9149 51.4796 43.6848 52.3688 45.2718C53.2672 46.8495 54.4968 48.0922 56.0554 49.0013ZM64.505 46.0179C63.5582 46.6113 62.4916 46.9071 61.3057 46.9071C60.12 46.9071 59.0487 46.6113 58.0926 46.0179C57.1459 45.4155 56.3996 44.5894 55.8547 43.5365C55.3191 42.4751 55.0517 41.284 55.0517 39.9645C55.0517 38.645 55.3191 37.4599 55.8547 36.4071C56.3996 35.3458 57.1459 34.5189 58.0926 33.9256C59.0487 33.323 60.12 33.0218 61.3057 33.0218C62.4916 33.0218 63.5582 33.323 64.505 33.9256C65.4519 34.5189 66.1927 35.3458 66.7283 36.4071C67.264 37.4591 67.5314 38.645 67.5314 39.9645C67.5314 41.284 67.264 42.4751 66.7283 43.5365C66.1927 44.5886 65.4519 45.4155 64.505 46.0179Z" fill="white"/>
<path d="M30.5703 65.4375H51.8203V69.4219H30.5703V65.4375Z" fill="white"/>
</g>
<defs>
<linearGradient id="paint0_linear_229_242" x1="92.5154" y1="78.7787" x2="60.2192" y2="9.11959" gradientUnits="userSpaceOnUse">
<stop offset="0.24" stop-color="#00D886"/>
<stop offset="0.51" stop-color="#007DFE"/>
</linearGradient>
<linearGradient id="paint1_linear_229_242" x1="86.863" y1="12.8179" x2="8.89559" y2="90.7853" gradientUnits="userSpaceOnUse">
<stop offset="0.27" stop-color="#007DFE"/>
<stop offset="0.7" stop-color="#D249FC"/>
</linearGradient>
<clipPath id="clip0_229_242">
<rect width="85" height="85" fill="white" transform="translate(8 7)"/>
</clipPath>
</defs>
</svg>
