<svg width="100" height="100" viewBox="0 0 100 100" fill="none" xmlns="http://www.w3.org/2000/svg">
<rect width="100" height="100" rx="24" fill="white"/>
<g clip-path="url(#clip0_229_243)">
<path d="M93 86.5885V41.4744C93 39.3108 91.7103 37.355 89.7221 36.5027L39.9299 15.1623C39.2568 14.874 38.5312 14.7249 37.7987 14.7249H13.4091C10.4217 14.7249 8 17.1466 8 20.134V43.9951C8 45.0638 8.31682 46.1085 8.91027 46.9978L37.3366 89.5891C38.3396 91.0928 40.028 91.9953 41.8354 91.9953L87.5909 91.9976C90.5783 91.9976 93 89.5759 93 86.5885Z" fill="url(#paint0_linear_229_243)"/>
<path d="M85.2727 26.2834V12.4091C85.2727 9.42173 82.851 7 79.8636 7H62.4749C62.2192 7 61.9634 7.01855 61.7099 7.05409L12.6441 14.0635C9.97973 14.4437 8 16.7263 8 19.4177V40.2334C8 43.2216 10.4225 45.6433 13.4106 45.6426L38.0321 45.6364C38.6131 45.6364 39.1904 45.5429 39.7413 45.3589L81.5744 31.4143C83.7829 30.6779 85.2727 28.6116 85.2727 26.2834Z" fill="url(#paint1_linear_229_243)"/>
<path d="M85.273 28.1804L85.2706 12.4083C85.2699 9.42173 82.8481 7 79.8615 7H64.5793C63.0007 7 61.5001 7.69005 60.4723 8.88854L17.0296 59.5717C16.1896 60.5523 15.7275 61.8011 15.7275 63.0923V78.8644C15.7275 81.8518 18.1493 84.2735 21.1366 84.2735H36.4211C37.9998 84.2735 39.5005 83.5834 40.5282 82.3849L83.9709 31.7018C84.8117 30.7212 85.273 29.4724 85.273 28.1804Z" fill="#F0EB18"/>
<path d="M77.0625 22.9375H23.9375V76.0625H77.0625V22.9375Z" fill="black"/>
<path fill-rule="evenodd" clip-rule="evenodd" d="M38.2927 29.533H30.7032V49.468H38.2927C40.1815 49.468 41.8712 49.0409 43.3617 48.1865C44.8615 47.3321 46.0339 46.1574 46.8791 44.6446C47.7236 43.1144 48.1462 41.4056 48.1462 39.5008C48.1462 37.596 47.7236 35.8872 46.8791 34.3746C46.0339 32.8611 44.8615 31.6689 43.3617 30.8145C41.8712 29.9601 40.1815 29.533 38.2927 29.533ZM41.3685 45.3036C40.476 45.8377 39.437 46.1046 38.2501 46.1046L34.5907 46.104V32.897H38.2501C39.4362 32.897 40.476 33.1639 41.3685 33.698C42.261 34.2145 42.9491 34.9795 43.4335 35.9765C43.9178 36.9735 44.1597 38.1484 44.1597 39.5008C44.1597 40.8534 43.9178 42.0281 43.4335 43.0251C42.9491 44.0221 42.261 44.7873 41.3685 45.3036Z" fill="white"/>
<path d="M53.634 49.0233C54.7547 49.5572 56.0362 49.8067 57.4788 49.8067C58.922 49.8067 60.2044 49.5389 61.3242 49.005C62.4448 48.4885 63.3128 47.741 63.93 46.8156C64.5562 45.8727 64.8698 44.8223 64.8698 43.6476C64.8698 42.6864 64.6562 41.7962 64.229 40.9952C63.8018 40.1767 63.2038 39.5001 62.4348 38.9486C61.6758 38.3795 60.8069 38.0057 59.829 37.8097L56.4398 37.0621C55.8226 36.9201 55.3336 36.6532 54.9729 36.297C54.6212 35.9406 54.4457 35.4776 54.4457 34.9261C54.4457 34.4456 54.5739 34.0183 54.8302 33.6621C55.0864 33.2884 55.4428 33.0037 55.8982 32.8077C56.3634 32.5942 56.8997 32.4874 57.5069 32.4874C58.1141 32.4874 58.6504 32.6117 59.1158 32.8252C59.5902 33.0389 59.9556 33.3242 60.2119 33.7155C60.4682 34.1069 60.5964 34.534 60.5964 35.0147H64.4838C64.4739 33.875 64.1703 32.8603 63.5722 31.9884C62.9841 31.1158 62.1579 30.4216 61.0946 29.9234C60.0312 29.4429 58.8022 29.1942 57.4635 29.1942C56.1247 29.1942 54.9285 29.4429 53.875 29.9593C52.8216 30.4583 52.0008 31.17 51.4119 32.0776C50.8238 32.9848 50.5294 34.0001 50.5294 35.139C50.5294 36.0826 50.7238 36.9195 51.1129 37.6846C51.5027 38.4321 52.0481 39.0546 52.7506 39.5711C53.4532 40.0691 54.2795 40.4254 55.2284 40.639L58.7458 41.4225C59.4201 41.5826 59.9464 41.8671 60.3264 42.2944C60.7154 42.704 60.91 43.238 60.91 43.8787C60.91 44.3769 60.7673 44.8399 60.4827 45.2313C60.2082 45.6409 59.8138 45.9437 59.3011 46.1749C58.7976 46.3885 58.237 46.5128 57.5352 46.5128C56.8333 46.5128 56.2109 46.3885 55.67 46.139C55.1292 45.8903 54.7066 45.5516 54.403 45.107C54.0994 44.6797 53.9476 44.164 53.9476 43.5942H50.0457C50.0648 44.8048 50.3874 45.8903 51.0137 46.8339C51.6499 47.7775 52.5234 48.5076 53.634 49.0233Z" fill="white"/>
<path d="M30.5703 65.4387H51.8203V69.4231H30.5703V65.4387Z" fill="white"/>
</g>
<defs>
<linearGradient id="paint0_linear_229_243" x1="13.2885" y1="12.6053" x2="91.2559" y2="90.5728" gradientUnits="userSpaceOnUse">
<stop offset="0.28" stop-color="#007DFE"/>
<stop offset="0.73" stop-color="#00D980"/>
</linearGradient>
<linearGradient id="paint1_linear_229_243" x1="82.8781" y1="6.04723" x2="10.5747" y2="39.5697" gradientUnits="userSpaceOnUse">
<stop offset="0.32" stop-color="#F0EB18"/>
<stop offset="0.55" stop-color="#007DFE"/>
</linearGradient>
<clipPath id="clip0_229_243">
<rect width="85" height="85" fill="white" transform="translate(8 7)"/>
</clipPath>
</defs>
</svg>
