<svg width="100" height="100" viewBox="0 0 100 100" fill="none" xmlns="http://www.w3.org/2000/svg">
<rect width="100" height="100" rx="24" fill="white"/>
<g clip-path="url(#clip0_229_249)">
<path d="M84.273 28.1804L84.2706 12.4083C84.2699 9.42173 81.8481 7 78.8615 7H63.5793C62.0007 7 60.5001 7.69005 59.4723 8.88854L16.0296 59.5717C15.1896 60.5523 14.7275 61.8011 14.7275 63.0923V78.8644C14.7275 81.8518 17.1493 84.2735 20.1366 84.2735H35.4211C36.9998 84.2735 38.5005 83.5834 39.5282 82.3849L82.9702 31.7018C83.8109 30.7212 84.273 29.4724 84.273 28.1804Z" fill="#D249FC"/>
<path d="M84.2727 26.2834V12.4091C84.2727 9.42173 81.851 7 78.8636 7H61.4749C61.2192 7 60.9634 7.01855 60.7099 7.05409L11.6441 14.0635C8.97973 14.4437 7 16.7263 7 19.4177V40.2334C7 43.2216 9.4225 45.6433 12.4106 45.6426L37.0321 45.6364C37.6131 45.6364 38.1904 45.5429 38.7413 45.3589L80.5744 31.4143C82.7829 30.6779 84.2727 28.6116 84.2727 26.2834Z" fill="url(#paint0_linear_229_249)"/>
<path d="M92 86.5885V41.4744C92 39.3108 90.7103 37.355 88.7221 36.5027L38.9299 15.1623C38.2568 14.874 37.5312 14.7249 36.7987 14.7249H12.4091C9.42173 14.7249 7 17.1466 7 20.134V43.9951C7 45.0638 7.31682 46.1085 7.91027 46.9978L36.3366 89.5891C37.3396 91.0928 39.028 91.9953 40.8354 91.9953L86.5909 91.9976C89.5783 91.9976 92 89.5759 92 86.5885Z" fill="url(#paint1_linear_229_249)"/>
<path d="M76.0625 22.9375H22.9375V76.0625H76.0625V22.9375Z" fill="black"/>
<path fill-rule="evenodd" clip-rule="evenodd" d="M37.935 30.0167H29.5719V49.5009H33.3713V42.1383H37.8247C39.2159 42.1383 40.4365 41.8877 41.4848 41.3867C42.5428 40.8767 43.3546 40.1618 43.9206 39.2431C44.4954 38.3246 44.7832 37.2391 44.7832 36.0424C44.7832 34.8457 44.4999 33.7931 43.934 32.8834C43.377 31.9738 42.5793 31.2692 41.5399 30.7682C40.5005 30.2671 39.2987 30.0167 37.935 30.0167ZM39.3538 38.6318C38.8805 38.8637 38.3242 38.98 37.6838 38.98H33.3691V33.1764H37.6838C38.3242 33.1764 38.8805 33.2965 39.3538 33.5381C39.8363 33.7691 40.2069 34.1032 40.467 34.5401C40.7272 34.9658 40.857 35.4863 40.857 36.0708C40.857 36.6553 40.7264 37.1705 40.467 37.6157C40.2075 38.0525 39.8363 38.3902 39.3538 38.6318Z" fill="white"/>
<path d="M49.6891 49.0699C50.8305 49.5799 52.1152 49.8356 53.5445 49.8356C54.9819 49.8356 56.271 49.5806 57.4125 49.0707C58.554 48.5607 59.4442 47.851 60.0847 46.9413C60.7251 46.0228 61.0449 44.9789 61.0449 43.8099C61.0449 42.8637 60.8407 41.9921 60.4328 41.1936C60.0251 40.3861 59.445 39.7129 58.6934 39.1754C57.9516 38.6378 57.0934 38.2798 56.1189 38.104L52.2501 37.38C51.6373 37.26 51.1593 37.0176 50.8164 36.6561C50.4727 36.2855 50.3012 35.8298 50.3012 35.2924C50.3012 34.8279 50.4405 34.4207 50.7186 34.0674C50.9967 33.705 51.3867 33.4217 51.8878 33.2181C52.3888 33.0146 52.9413 32.9117 53.572 32.9117C54.2028 32.9117 54.7686 33.0175 55.2697 33.2315C55.7707 33.4351 56.1606 33.7237 56.4387 34.0943C56.7265 34.4648 56.8705 34.8927 56.8705 35.3743H60.6699C60.661 34.2612 60.3456 33.2785 59.7239 32.4241C59.1117 31.5607 58.2625 30.8875 57.1769 30.4058C56.1003 29.9234 54.8761 29.6818 53.5303 29.6818C52.1845 29.6818 50.9736 29.9271 49.8979 30.4192C48.8302 30.9121 47.9907 31.5972 47.3785 32.4793C46.7753 33.3613 46.4741 34.367 46.4741 35.4997C46.4741 36.4182 46.6598 37.2532 47.0311 38.0048C47.4023 38.7473 47.9309 39.3685 48.6177 39.8695C49.3132 40.3615 50.1296 40.6956 51.0669 40.8715L55.0609 41.6372C55.7193 41.7678 56.2345 42.0459 56.6058 42.4723C56.9861 42.8898 57.1761 43.4103 57.1761 44.0313C57.1761 44.5324 57.0232 44.9774 56.7169 45.3674C56.4112 45.7573 55.984 46.063 55.4367 46.2859C54.8984 46.4999 54.2863 46.6057 53.5996 46.6057C52.8764 46.6057 52.2262 46.4858 51.6514 46.2442C51.0848 46.0026 50.6352 45.6686 50.3012 45.2421C49.9769 44.806 49.8143 44.3102 49.8143 43.7532H46.0006C46.0193 44.9417 46.3534 45.9989 47.0027 46.9263C47.6521 47.845 48.5476 48.5599 49.6891 49.0699Z" fill="white"/>
<path d="M29.5703 65.4395H50.8203V69.4239H29.5703V65.4395Z" fill="white"/>
</g>
<defs>
<linearGradient id="paint0_linear_229_249" x1="81.8781" y1="6.04723" x2="10.6558" y2="39.0689" gradientUnits="userSpaceOnUse">
<stop offset="0.16" stop-color="#D249FC"/>
<stop offset="0.55" stop-color="#FF2D90"/>
</linearGradient>
<linearGradient id="paint1_linear_229_249" x1="12.2885" y1="12.6053" x2="90.2559" y2="90.5735" gradientUnits="userSpaceOnUse">
<stop offset="0.3" stop-color="#FF2D90"/>
<stop offset="0.7" stop-color="#7256FF"/>
</linearGradient>
<clipPath id="clip0_229_249">
<rect width="85" height="85" fill="white" transform="translate(7 7)"/>
</clipPath>
</defs>
</svg>
