<svg width="100" height="100" viewBox="0 0 100 100" fill="none" xmlns="http://www.w3.org/2000/svg">
<rect width="100" height="100" rx="24" fill="white"/>
<g clip-path="url(#clip0_229_253)">
<path d="M14.9688 70.1525V86.4334C14.9688 89.4932 17.4748 91.96 20.5344 91.9111L35.2009 91.677C36.7697 91.6522 38.2522 90.9557 39.2732 89.7645L82.7115 39.0855C83.5623 38.0927 84.0305 36.8277 84.0305 35.5204V20.4473C84.0305 17.4216 81.5775 14.9688 78.5519 14.9688H63.9387C62.359 14.9688 60.8557 15.6511 59.8157 16.8397L16.3243 66.5442C15.4502 67.5427 14.9688 68.8251 14.9688 70.1525Z" fill="#3BEA62"/>
<path d="M14.9688 72.0978V86.5237C14.9688 89.5493 17.4216 92.0021 20.4473 92.0021H37.1358C37.4014 92.0021 37.6669 91.9829 37.9302 91.944L87.3158 84.7083C90.0061 84.3139 92 82.0064 92 79.2879V58.8384C92 55.812 89.5463 53.3591 86.5199 53.36L61.944 53.3657C61.3787 53.3657 60.8168 53.4538 60.2789 53.6255L18.7813 66.8784C16.5111 67.6039 14.9688 69.7148 14.9688 72.0978Z" fill="url(#paint0_linear_229_253)"/>
<path d="M7 12.4793V57.8044C7 60.0065 8.31898 61.9945 10.3477 62.8511L60.0472 83.8319C60.7353 84.1225 61.4757 84.2694 62.2228 84.2627L86.5654 84.0635C89.5735 84.0387 91.9991 81.5932 91.9991 78.5851V55.1231C91.9991 54.0532 91.6862 53.0073 91.0985 52.1134L63.0636 9.46863C62.051 7.92719 60.3303 7 58.4858 7H12.4784C9.45285 7 7 9.45368 7 12.4793Z" fill="url(#paint1_linear_229_253)"/>
<path d="M76.0618 22.9375H22.9375V76.0618H76.0618V22.9375Z" fill="black"/>
<path d="M46.902 44.7977C47.7844 46.3682 48.9988 47.6024 50.5461 48.4989V48.4956C52.0934 49.3929 53.8207 49.8411 55.7282 49.8411C57.3419 49.8411 58.8219 49.5423 60.17 48.9446C61.5171 48.3471 62.6402 47.5094 63.5366 46.4321C64.4331 45.3547 65.0333 44.1186 65.3372 42.7233H61.2655C60.9999 43.4446 60.604 44.0789 60.077 44.6242C59.5507 45.1703 58.9173 45.5904 58.1769 45.8842C57.4364 46.1789 56.6296 46.3258 55.7563 46.3258C54.5794 46.3258 53.5161 46.032 52.5673 45.4434C51.6186 44.8549 50.8756 44.0465 50.3393 43.0164C49.8032 41.9871 49.5351 40.8266 49.5351 39.5359C49.5351 38.2451 49.8032 37.0855 50.3393 36.0554C50.8756 35.0261 51.6186 34.2168 52.5673 33.6283C53.5169 33.0398 54.5794 32.7459 55.7563 32.7459C56.6296 32.7459 57.4364 32.8937 58.1769 33.1875C58.9165 33.4822 59.5507 33.9021 60.077 34.4476C60.604 34.9937 60.9999 35.6271 61.2655 36.3484H65.3372C65.0333 34.9531 64.4331 33.7171 63.5366 32.6396C62.6394 31.5622 61.5171 30.7247 60.17 30.1271C58.8219 29.5294 57.3419 29.2306 55.7282 29.2306C53.8198 29.2306 52.0924 29.6796 50.5461 30.5761C48.9996 31.4726 47.7844 32.7068 46.902 34.2773C46.0197 35.8478 45.5781 37.601 45.5781 39.5375C45.5781 41.474 46.0197 43.2272 46.902 44.7977Z" fill="white"/>
<path d="M28.2521 29.5717H44.2384V33.0738H38.2022V49.5016H34.3157V33.0738H28.2513L28.2521 29.5717Z" fill="white"/>
<path d="M50.8279 65.4388H29.5781V69.4231H50.8279V65.4388Z" fill="white"/>
</g>
<defs>
<linearGradient id="paint0_linear_229_253" x1="17.1875" y1="92.5208" x2="88.1816" y2="59.6062" gradientUnits="userSpaceOnUse">
<stop offset="0.1" stop-color="#3BEA62"/>
<stop offset="0.59" stop-color="#6B57FF"/>
</linearGradient>
<linearGradient id="paint1_linear_229_253" x1="86.5977" y1="86.2565" x2="8.77554" y2="8.43433" gradientUnits="userSpaceOnUse">
<stop offset="0.26" stop-color="#6B57FF"/>
<stop offset="0.65" stop-color="#07C3F2"/>
</linearGradient>
<clipPath id="clip0_229_253">
<rect width="85" height="85" fill="white" transform="translate(7 7)"/>
</clipPath>
</defs>
</svg>
