<svg width="100" height="100" viewBox="0 0 100 100" fill="none" xmlns="http://www.w3.org/2000/svg">
<rect width="100" height="100" rx="24" fill="white"/>
<g clip-path="url(#clip0_229_239)">
<path d="M13.4785 92H58.8041C61.0063 92 62.9943 90.681 63.851 88.6523L84.832 38.9522C85.1225 38.2641 85.2695 37.5236 85.2629 36.7766L85.0637 12.4337C85.0387 9.42549 82.5933 7 79.5851 7H56.1229C55.0529 7 54.007 7.31294 53.1131 7.90063L10.4695 35.9357C8.92803 36.9492 8 38.6691 8 40.5135V86.5215C8 89.5471 10.4529 92 13.4785 92Z" fill="url(#paint0_linear_229_239)"/>
<path d="M73.0955 84.0312H87.5214C90.547 84.0312 92.9999 81.5783 92.9999 78.5527V61.864C92.9999 61.5984 92.9808 61.3328 92.9419 61.0697L85.706 11.6841C85.3118 8.99385 83.0042 7 80.2856 7H59.8358C56.8093 7 54.3565 9.45371 54.3573 12.4802L54.3631 37.0563C54.3631 37.6215 54.4511 38.1836 54.6229 38.7215L67.8759 80.2195C68.6014 82.4898 70.7124 84.0312 73.0955 84.0312Z" fill="url(#paint1_linear_229_239)"/>
<path d="M71.1523 84.0312H87.4336C90.4932 84.0312 92.9602 81.5252 92.9111 78.4656L92.9992 64.1094C92.9742 62.5406 91.9566 60.7476 90.7654 59.7266L40.0859 16.2877C39.0931 15.4369 37.828 14.9688 36.5207 14.9688H21.4473C18.4216 14.9688 15.9688 17.4216 15.9688 20.4473V35.0608C15.9688 36.6404 16.6511 38.1437 17.8397 39.1838L67.5449 82.6758C68.5434 83.5498 69.825 84.0312 71.1523 84.0312Z" fill="#FDB60D"/>
<path d="M77.0625 22.9375H23.9375V76.0625H77.0625V22.9375Z" fill="black"/>
<path fill-rule="evenodd" clip-rule="evenodd" d="M30.595 29.5703H38.1827C40.0711 29.5703 41.7628 29.997 43.2578 30.8512C44.7528 31.7053 45.9223 32.889 46.7674 34.4031C47.6116 35.9172 48.034 37.6271 48.034 39.5355C48.034 41.4437 47.6116 43.1537 46.7674 44.6678C45.9223 46.1818 44.7528 47.3656 43.2578 48.2197C41.7628 49.0738 40.0711 49.5006 38.1827 49.5006H30.595V29.5703ZM41.2573 45.3435C42.1497 44.8123 42.8378 44.0502 43.3217 43.0583C43.8057 42.0664 44.0481 40.8926 44.0481 39.5346C44.0481 38.1766 43.8057 37.0029 43.3217 36.0109C42.8378 35.0189 42.1497 34.2578 41.2573 33.7257C40.3649 33.1945 39.3257 32.9289 38.1395 32.9289H34.4805V46.1396H38.1395C39.3257 46.1396 40.3649 45.8748 41.2573 45.3435Z" fill="white"/>
<path d="M51.8281 65.438H30.5781V69.4224H51.8281V65.438Z" fill="white"/>
<path d="M56.2187 29.5703H50.8107V49.5006H54.6399V35.2789L54.5825 34.3392L59.1663 49.5006H61.9853L66.6263 34.2396L66.5689 35.2789V49.5006H70.4122V29.5703H64.9171L60.9593 42.6533L60.6604 44.3615L60.3185 42.6533L56.2187 29.5703Z" fill="white"/>
</g>
<defs>
<linearGradient id="paint0_linear_229_239" x1="87.2576" y1="12.4021" x2="9.43437" y2="90.2254" gradientUnits="userSpaceOnUse">
<stop offset="0.31" stop-color="#FF45ED"/>
<stop offset="0.83" stop-color="#6B57FF"/>
</linearGradient>
<linearGradient id="paint1_linear_229_239" x1="93.5196" y1="81.8125" x2="60.6036" y2="10.8184" gradientUnits="userSpaceOnUse">
<stop offset="0.3" stop-color="#FDB60D"/>
<stop offset="0.7" stop-color="#FF45ED"/>
</linearGradient>
<clipPath id="clip0_229_239">
<rect width="85" height="85" fill="white" transform="translate(8 7)"/>
</clipPath>
</defs>
</svg>
