<svg width="100" height="100" viewBox="0 0 100 100" fill="none" xmlns="http://www.w3.org/2000/svg">
<rect width="100" height="100" rx="24" fill="white"/>
<g clip-path="url(#clip0_229_241)">
<path d="M29.8478 14.9688H13.5666C10.5069 14.9688 8.03994 17.4748 8.08891 20.5344L8.32299 35.201C8.3479 36.7699 9.04433 38.2524 10.2355 39.2734L60.915 82.7123C61.9078 83.5631 63.1728 84.0312 64.4802 84.0312H79.5537C82.5793 84.0312 85.0322 81.5783 85.0322 78.5527V63.9392C85.0322 62.3596 84.3498 60.8563 83.1611 59.8162L33.4552 16.3243C32.4566 15.4502 31.175 14.9688 29.8478 14.9688Z" fill="#6B57FF"/>
<path d="M27.9053 14.9688H13.4785C10.4529 14.9688 8 17.4216 8 20.4473V37.136C8 37.4016 8.01909 37.6672 8.05811 37.9303L15.2939 87.3168C15.6882 90.007 17.9958 92.0008 20.7143 92.0008H41.1641C44.1906 92.0008 46.6434 89.5471 46.6426 86.5207L46.6367 61.9445C46.6367 61.3793 46.5488 60.8172 46.377 60.2793L33.124 18.7813C32.3985 16.511 30.2885 14.9688 27.9053 14.9688Z" fill="url(#paint0_linear_229_241)"/>
<path d="M87.5224 7H42.1968C39.9946 7 38.0066 8.31899 37.1499 10.3477L16.1689 60.0478C15.8784 60.7359 15.7314 61.4764 15.7381 62.2234L15.9373 86.5662C15.9622 89.5744 18.4076 92 21.4158 92H44.878C45.948 92 46.9939 91.6871 47.8878 91.0994L90.5331 63.0643C92.0745 62.0516 93.0017 60.3309 93.0017 58.4865V12.4785C93.0009 9.45287 90.548 7 87.5224 7Z" fill="url(#paint1_linear_229_241)"/>
<path d="M77.0625 22.9375H23.9375V76.0625H77.0625V22.9375Z" fill="black"/>
<path fill-rule="evenodd" clip-rule="evenodd" d="M30.5742 29.5703H38.1619C40.0504 29.5703 41.742 29.997 43.237 30.8512C44.732 31.7053 45.9016 32.889 46.7465 34.4031C47.5908 35.9172 48.0133 37.6271 48.0133 39.5355C48.0133 41.4437 47.5908 43.1537 46.7465 44.6678C45.9016 46.1818 44.732 47.3656 43.237 48.2197C41.742 49.0738 40.0504 49.5006 38.1619 49.5006H30.5742V29.5703ZM41.2365 45.3435C42.1289 44.8123 42.817 44.0502 43.301 43.0583C43.7848 42.0664 44.0272 40.8926 44.0272 39.5346C44.0272 38.1766 43.7848 37.0029 43.301 36.0109C42.817 35.0189 42.1289 34.2578 41.2365 33.7257C40.3442 33.1945 39.3049 32.9289 38.1188 32.9289H34.4598V46.1396H38.1188C39.3049 46.1396 40.3442 45.8748 41.2365 45.3435Z" fill="white"/>
<path d="M51.8281 65.438H30.5781V69.4224H51.8281V65.438Z" fill="white"/>
<path d="M65.337 29.5703H49.3507L49.3497 33.0724H55.4143V49.5006H59.3007V33.0724H65.337V29.5703Z" fill="white"/>
</g>
<defs>
<linearGradient id="paint0_linear_229_241" x1="7.4812" y1="17.1876" x2="40.3963" y2="88.1824" gradientUnits="userSpaceOnUse">
<stop offset="0.18" stop-color="#6B57FF"/>
<stop offset="0.54" stop-color="#FF2358"/>
</linearGradient>
<linearGradient id="paint1_linear_229_241" x1="13.7442" y1="86.5979" x2="91.5665" y2="8.77471" gradientUnits="userSpaceOnUse">
<stop offset="0.12" stop-color="#FF2358"/>
<stop offset="0.92" stop-color="#FF45ED"/>
</linearGradient>
<clipPath id="clip0_229_241">
<rect width="85" height="85" fill="white" transform="translate(8 7)"/>
</clipPath>
</defs>
</svg>
