<svg width="100" height="100" viewBox="0 0 100 100" fill="none" xmlns="http://www.w3.org/2000/svg">
<rect width="100" height="100" rx="24" fill="white"/>
<g clip-path="url(#clip0_229_233)">
<path d="M29.8478 14.9688H13.5666C10.5069 14.9688 8.03994 17.4748 8.08891 20.5344L8.32299 35.201C8.3479 36.7699 9.04433 38.2524 10.2355 39.2734L60.915 82.7123C61.9078 83.5631 63.1728 84.0312 64.4802 84.0312H79.5537C82.5793 84.0312 85.0322 81.5783 85.0322 78.5527V63.9392C85.0322 62.3596 84.3498 60.8563 83.1611 59.8162L33.4552 16.3243C32.4566 15.4502 31.175 14.9688 29.8478 14.9688Z" fill="#FF45ED"/>
<path d="M27.9053 14.9688H13.4785C10.4529 14.9688 8 17.4216 8 20.4473V37.136C8 37.4016 8.01909 37.6672 8.05811 37.9303L15.2939 87.3168C15.6882 90.007 17.9958 92.0008 20.7143 92.0008H41.1641C44.1906 92.0008 46.6434 89.5471 46.6426 86.5207L46.6367 61.9445C46.6367 61.3793 46.5488 60.8172 46.377 60.2793L33.124 18.7813C32.3985 16.511 30.2885 14.9688 27.9053 14.9688Z" fill="url(#paint0_linear_229_233)"/>
<path d="M87.5224 7H42.1968C39.9946 7 38.0066 8.31899 37.1499 10.3477L16.1689 60.0478C15.8784 60.7359 15.7314 61.4764 15.7381 62.2234L15.9373 86.5662C15.9622 89.5744 18.4076 92 21.4158 92H44.878C45.948 92 46.9939 91.6871 47.8878 91.0994L90.5331 63.0643C92.0745 62.0516 93.0017 60.3309 93.0017 58.4865V12.4785C93.0017 9.45287 90.5481 7 87.5224 7Z" fill="url(#paint1_linear_229_233)"/>
<path d="M77.0625 22.9375H23.9375V76.0625H77.0625V22.9375Z" fill="black"/>
<path d="M66.9934 28.2344V33.0481H71.7506V35.9442H66.9934V40.7761H63.986V35.9624H59.2288V33.0663H63.986V28.2344H66.9934Z" fill="white"/>
<path d="M53.42 36.9578H56.4273V41.7714H61.1845V44.6675H56.4273V49.4994H53.42V44.6859H48.6628V41.7896H53.42V36.9578Z" fill="white"/>
<path fill-rule="evenodd" clip-rule="evenodd" d="M30.5833 29.5701H39.139C40.5343 29.5701 41.7628 29.8265 42.8261 30.3387C43.8886 30.8509 44.7079 31.5722 45.2815 32.5027C45.856 33.4332 46.1431 34.5099 46.1431 35.7342C46.1431 36.9586 45.8509 38.0568 45.2675 39.0013C44.6839 39.946 43.853 40.6765 42.7763 41.1937C42.4799 41.3359 42.1703 41.4586 41.8477 41.5618L46.5698 49.5011H42.114L37.8173 41.9697H34.4698V49.5002H30.5833V29.5701ZM40.5982 38.3755C41.0872 38.1332 41.464 37.787 41.7296 37.3363C41.9952 36.8855 42.128 36.3609 42.128 35.7632C42.128 35.1656 41.9952 34.6318 41.7296 34.1902C41.464 33.7486 41.0863 33.4076 40.5982 33.1652C40.1093 32.9228 39.5374 32.8023 38.8825 32.8023H34.4689V38.739H38.8825C39.5374 38.739 40.1093 38.6171 40.5982 38.3755Z" fill="white"/>
<path d="M51.8372 65.4377H30.5872V69.4221H51.8372V65.4377Z" fill="white"/>
</g>
<defs>
<linearGradient id="paint0_linear_229_233" x1="7.4812" y1="17.1876" x2="40.3963" y2="88.1824" gradientUnits="userSpaceOnUse">
<stop offset="0.19" stop-color="#FF45ED"/>
<stop offset="0.54" stop-color="#FF0A67"/>
</linearGradient>
<linearGradient id="paint1_linear_229_233" x1="13.7442" y1="86.5979" x2="91.5665" y2="8.77471" gradientUnits="userSpaceOnUse">
<stop offset="0.26" stop-color="#FF0A67"/>
<stop offset="0.65" stop-color="#FDB60D"/>
</linearGradient>
<clipPath id="clip0_229_233">
<rect width="85" height="85" fill="white" transform="translate(8 7)"/>
</clipPath>
</defs>
</svg>
