<svg width="100" height="100" viewBox="0 0 100 100" fill="none" xmlns="http://www.w3.org/2000/svg">
<rect width="100" height="100" rx="24" fill="white"/>
<g clip-path="url(#clip0_229_246)">
<path d="M93 86.5885V41.4744C93 39.3108 91.7103 37.355 89.7221 36.5027L39.9299 15.1623C39.2568 14.874 38.5312 14.7249 37.7987 14.7249H13.4091C10.4217 14.7249 8 17.1466 8 20.134V43.9951C8 45.0638 8.31682 46.1085 8.91027 46.9978L37.3366 89.5891C38.3396 91.0928 40.028 91.9953 41.8354 91.9953L87.5909 91.9976C90.5783 91.9976 93 89.5759 93 86.5885Z" fill="url(#paint0_linear_229_246)"/>
<path d="M85.2727 26.2834V12.4091C85.2727 9.42173 82.851 7 79.8636 7H62.4749C62.2192 7 61.9634 7.01855 61.7099 7.05409L12.6441 14.0635C9.97896 14.4437 8 16.7263 8 19.4177V40.2334C8 43.2216 10.4225 45.6433 13.4106 45.6426L38.0321 45.6364C38.6131 45.6364 39.1904 45.5429 39.7413 45.3589L81.5744 31.4143C83.7829 30.6779 85.2727 28.6116 85.2727 26.2834Z" fill="url(#paint1_linear_229_246)"/>
<path d="M85.2722 28.1804L85.2699 12.4083C85.2699 9.42173 82.8481 7 79.8608 7H64.5786C62.9999 7 61.4993 7.69005 60.4716 8.88854L17.0296 59.5717C16.1896 60.5523 15.7275 61.8011 15.7275 63.0923V78.8644C15.7275 81.8518 18.1493 84.2735 21.1366 84.2735H36.4211C37.9999 84.2735 39.5005 83.5834 40.5282 82.3849L83.9701 31.7018C84.8109 30.7212 85.2722 29.4724 85.2722 28.1804Z" fill="#FF318C"/>
<path d="M77.0625 22.9375H23.9375V76.0625H77.0625V22.9375Z" fill="black"/>
<path d="M34.625 48.3857C36.1648 49.2729 37.8838 49.7177 39.7819 49.7177V49.7162C41.387 49.7162 42.8609 49.4186 44.2019 48.8236C45.5429 48.2286 46.657 47.3984 47.545 46.3306C48.442 45.2537 49.0423 44.0212 49.3444 42.6331H45.2925C45.0276 43.3502 44.6315 43.984 44.1025 44.5312C43.5826 45.07 42.955 45.4859 42.218 45.7781C41.4819 46.0702 40.679 46.2175 39.81 46.2175C38.639 46.2175 37.581 45.9253 36.6369 45.3394C35.692 44.7535 34.9505 43.9514 34.4125 42.9314C33.8835 41.903 33.6194 40.7449 33.6194 39.4607C33.6194 38.1767 33.8835 37.0239 34.4125 36.0039C34.9513 34.9747 35.6928 34.1672 36.6369 33.5814C37.581 32.9954 38.639 32.7032 39.81 32.7032C40.6782 32.7032 41.4812 32.8505 42.218 33.1427C42.955 33.4349 43.5826 33.856 44.1025 34.4032C44.6315 34.942 45.0276 35.5705 45.2925 36.2877H49.3444C49.0415 34.8997 48.442 33.6725 47.545 32.6047C46.657 31.5277 45.5429 30.6922 44.2019 30.0972C42.8609 29.5022 41.387 29.2047 39.7819 29.2047C37.883 29.2047 36.1641 29.6524 34.625 30.5502C33.0851 31.4374 31.8762 32.666 30.998 34.2332C30.12 35.7914 29.6805 37.5339 29.6805 39.4607C29.6805 41.3877 30.12 43.1355 30.998 44.7027C31.8769 46.2607 33.0859 47.4879 34.625 48.3857Z" fill="white"/>
<path d="M55.9783 45.8919V29.5439H52.1251V49.3769H65.3851V45.8919H55.9783Z" fill="white"/>
<path d="M30.5703 65.4359H51.8203V69.4203H30.5703V65.4359Z" fill="white"/>
</g>
<defs>
<linearGradient id="paint0_linear_229_246" x1="13.2878" y1="12.6053" x2="91.2559" y2="90.5728" gradientUnits="userSpaceOnUse">
<stop offset="0.29" stop-color="#009AE5"/>
<stop offset="0.7" stop-color="#00D980"/>
</linearGradient>
<linearGradient id="paint1_linear_229_246" x1="82.8781" y1="6.04723" x2="11.6558" y2="39.0682" gradientUnits="userSpaceOnUse">
<stop offset="0.3" stop-color="#FF318C"/>
<stop offset="0.54" stop-color="#009AE5"/>
</linearGradient>
<clipPath id="clip0_229_246">
<rect width="85" height="85" fill="white" transform="translate(8 7)"/>
</clipPath>
</defs>
</svg>
