<svg width="100" height="100" viewBox="0 0 100 100" fill="none" xmlns="http://www.w3.org/2000/svg">
<rect width="100" height="100" rx="24" fill="white"/>
<g clip-path="url(#clip0_229_252)">
<path d="M14.7275 70.818L14.7298 86.5901C14.7298 89.5775 17.1516 91.9984 20.1389 91.9984H35.4211C36.9998 91.9984 38.5005 91.3083 39.5282 90.1098L82.9709 39.4267C83.8109 38.4461 84.273 37.1973 84.273 35.9061V20.134C84.273 17.1466 81.8513 14.7249 78.8639 14.7249H63.5793C62.0006 14.7249 60.5001 15.415 59.4723 16.6135L16.0296 67.2966C15.1889 68.2772 14.7275 69.526 14.7275 70.818Z" fill="#F0EB18"/>
<path d="M14.7275 72.719V86.5934C14.7275 89.5807 17.1493 92.0024 20.1366 92.0024H37.5253C37.7811 92.0024 38.0369 91.9839 38.2903 91.9484L87.3561 84.9397C90.0213 84.5588 92.0003 82.2769 92.0003 79.5847V58.769C92.0003 55.7809 89.5778 53.3592 86.5897 53.36L61.9682 53.3661C61.3871 53.3661 60.8099 53.4596 60.2589 53.6435L18.4258 67.5882C16.2173 68.3245 14.7275 70.3908 14.7275 72.719Z" fill="url(#paint0_linear_229_252)"/>
<path d="M7 12.4091V57.5232C7 59.6869 8.28968 61.6427 10.2779 62.4949L60.0701 83.8354C60.7431 84.1236 61.4688 84.2727 62.2013 84.2727H86.5909C89.5783 84.2727 92 81.851 92 78.8636V55.0026C92 53.9339 91.6831 52.8891 91.0897 51.9998L62.6634 9.40859C61.6604 7.90486 59.9728 7.00232 58.1646 7.00232L12.4091 7C9.42173 7 7 9.42173 7 12.4091Z" fill="url(#paint1_linear_229_252)"/>
<path d="M76.0625 22.9375H22.9375V76.0625H76.0625V22.9375Z" fill="black"/>
<path d="M35.2063 44.1357L31.989 29.5885H27.962L32.773 49.5162H37.1859L40.5876 35.0399L43.9467 49.5162H48.3733L53.2131 29.5885H49.2701L46.1527 44.1357L42.5657 29.5885H38.637L35.2063 44.1357Z" fill="white"/>
<path d="M57.7641 49.0755C58.8836 49.5971 60.1646 49.8586 61.6073 49.8586C63.0501 49.8586 64.332 49.5932 65.4514 49.0611C66.5708 48.5287 67.4394 47.7989 68.0563 46.8687C68.6824 45.9292 68.9957 44.87 68.9957 43.6941C68.9957 42.7349 68.7822 41.8527 68.3553 41.0466C67.9281 40.23 67.3303 39.5466 66.5616 38.9968C65.8022 38.4363 64.9344 38.0574 63.9568 37.8583L60.5687 37.1179C59.9519 36.9669 59.4631 36.7107 59.1023 36.3493C58.7509 35.9878 58.5755 35.5325 58.5755 34.9828C58.5755 34.4994 58.7036 34.0777 58.9598 33.7162C59.216 33.3463 59.5721 33.0611 60.0274 32.8622C60.4918 32.6539 61.0287 32.5487 61.6356 32.5487C62.2426 32.5487 62.7787 32.657 63.2438 32.8759C63.7181 33.084 64.0833 33.3829 64.3397 33.7726C64.5959 34.1517 64.7239 34.584 64.7239 35.0682H68.6099C68.6 33.9297 68.2964 32.9246 67.6986 32.0507C67.11 31.1678 66.2848 30.4791 65.2218 29.9865C64.1589 29.4931 62.9304 29.2461 61.5922 29.2461C60.2538 29.2461 59.0581 29.5023 58.005 30.0148C56.952 30.518 56.1315 31.2242 55.5428 32.1354C54.9549 33.0375 54.6606 34.0571 54.6606 35.1956C54.6606 36.1349 54.855 36.9807 55.2439 37.7295C55.6335 38.4791 56.1787 39.1105 56.8811 39.6229C57.5834 40.1262 58.4092 40.4823 59.3579 40.6904L62.874 41.4736C63.5481 41.636 64.0742 41.9242 64.454 42.3422C64.8429 42.76 65.0373 43.2869 65.0373 43.9221C65.0373 44.4347 64.8947 44.8898 64.6103 45.2886C64.335 45.6875 63.9415 46.0001 63.4291 46.2282C62.9259 46.447 62.3661 46.5553 61.6638 46.5553C60.9615 46.5553 60.34 46.4324 59.7993 46.1854C59.2587 45.9384 58.8363 45.5968 58.5327 45.1606C58.2292 44.7251 58.0776 44.2158 58.0776 43.6378H54.1771C54.1961 44.8617 54.5187 45.9437 55.1448 46.8832C55.7807 47.8226 56.6538 48.5538 57.7641 49.0755Z" fill="white"/>
<path d="M29.5691 65.4375H50.8191V69.4219H29.5691V65.4375Z" fill="white"/>
</g>
<defs>
<linearGradient id="paint0_linear_229_252" x1="17.1222" y1="92.9552" x2="88.3445" y2="59.9343" gradientUnits="userSpaceOnUse">
<stop offset="0.22" stop-color="#F0EB18"/>
<stop offset="0.59" stop-color="#00C4F4"/>
</linearGradient>
<linearGradient id="paint1_linear_229_252" x1="86.7122" y1="86.3923" x2="8.74404" y2="8.42491" gradientUnits="userSpaceOnUse">
<stop offset="0.19" stop-color="#00C4F4"/>
<stop offset="0.83" stop-color="#007DFE"/>
</linearGradient>
<clipPath id="clip0_229_252">
<rect width="85" height="85" fill="white" transform="translate(7 7)"/>
</clipPath>
</defs>
</svg>
