<svg width="100" height="100" viewBox="0 0 100 100" fill="none" xmlns="http://www.w3.org/2000/svg">
<rect width="100" height="100" rx="24" fill="white"/>
<g clip-path="url(#clip0_229_247)">
<path d="M12.4091 92H57.5232C59.6869 92 61.6427 90.7103 62.4949 88.7221L83.8354 38.9299C84.1236 38.2568 84.2727 37.5312 84.2727 36.7987V12.4091C84.2727 9.42173 81.851 7 78.8636 7H55.0026C53.9339 7 52.8892 7.31682 51.9998 7.91027L9.40859 36.3358C7.90486 37.3396 7.00232 39.0272 7.00232 40.8346L7 86.5909C7 89.5783 9.42173 92 12.4091 92Z" fill="url(#paint0_linear_229_247)"/>
<path d="M72.7172 84.2727H86.5915C89.5789 84.2727 92.0006 81.851 92.0006 78.8636V61.4749C92.0006 61.2192 91.9821 60.9634 91.9465 60.7099L84.9371 11.6441C84.5561 8.97896 82.2743 7 79.5821 7H58.7664C55.7782 7 53.3565 9.4225 53.3573 12.4106L53.3635 37.0321C53.3635 37.6131 53.457 38.1904 53.6409 38.7413L67.5855 80.5744C68.3219 82.7829 70.389 84.2727 72.7172 84.2727Z" fill="url(#paint1_linear_229_247)"/>
<path d="M70.8192 84.2703L86.5913 84.2681C89.5787 84.2681 91.9997 81.8463 91.9997 78.859V63.5768C91.9997 61.998 91.3096 60.4974 90.1111 59.4697L39.428 16.027C38.4473 15.187 37.1986 14.7249 35.9074 14.7249H20.1353C17.1479 14.7249 14.7262 17.1466 14.7262 20.134V35.4185C14.7262 36.9973 15.4163 38.4978 16.6148 39.5256L67.2971 82.9676C68.2777 83.8083 69.5272 84.2703 70.8192 84.2703Z" fill="#FF43F2"/>
<path d="M76.0625 22.9375H22.9375V76.0625H76.0625V22.9375Z" fill="black"/>
<path fill-rule="evenodd" clip-rule="evenodd" d="M37.2162 30.0617H29.5703V50.1459H37.2162C39.119 50.1459 40.8213 49.7154 42.323 48.8548C43.8338 47.9941 45.0151 46.8037 45.8665 45.2827C46.7172 43.7527 47.143 42.0259 47.143 40.1038C47.143 38.1817 46.7172 36.4603 45.8665 34.9394C45.0151 33.4094 43.8338 32.2135 42.323 31.3528C40.8213 30.4922 39.119 30.0617 37.2162 30.0617ZM40.3148 45.9567C39.4157 46.4923 38.369 46.7598 37.1732 46.7598L33.4867 46.7606V33.4478H37.1732C38.3682 33.4478 39.4157 33.7144 40.3148 34.2509C41.214 34.7865 41.9071 35.5558 42.3952 36.5602C42.8832 37.5554 43.1267 38.7358 43.1267 40.1038C43.1267 41.4718 42.8832 42.6567 42.3952 43.6612C41.9071 44.6565 41.214 45.4203 40.3148 45.9567Z" fill="white"/>
<path d="M53.9189 49.1414C55.4781 50.0398 57.2187 50.4901 59.1408 50.4901C60.9868 50.4901 62.6506 50.079 64.1331 49.2559C65.6247 48.4329 66.7967 47.3101 67.6474 45.8845C68.5082 44.4505 68.9385 42.8489 68.9385 41.079V39.5012H60.4319V42.5853H65.1017C65.0058 43.3297 64.7355 44.0089 64.2906 44.6226C63.7649 45.3488 63.0525 45.9191 62.1534 46.3295C61.2634 46.7406 60.269 46.9466 59.1692 46.9466C57.9835 46.9466 56.9129 46.6507 55.9561 46.0574C54.9993 45.4641 54.2485 44.6518 53.7036 43.6189C53.1688 42.5776 52.9006 41.4048 52.9006 40.1046C52.9006 38.8042 53.168 37.6369 53.7036 36.6041C54.2493 35.5619 55.0001 34.7443 55.9561 34.151C56.9122 33.5577 57.9835 33.2618 59.1692 33.2618C59.9731 33.2618 60.7239 33.3909 61.4217 33.6491C62.1203 33.8981 62.7274 34.257 63.2439 34.725C63.7703 35.1839 64.1861 35.7295 64.492 36.3603H68.681C68.3176 35.0502 67.6812 33.8935 66.7729 32.889C65.8737 31.8847 64.764 31.1046 63.4445 30.5505C62.1341 29.9964 60.7002 29.7183 59.1408 29.7183C57.2181 29.7183 55.4781 30.1717 53.9189 31.0808C52.3595 31.9791 51.1353 33.2233 50.2462 34.8103C49.357 36.3881 48.912 38.1525 48.912 40.1038C48.912 42.0551 49.357 43.8249 50.2462 45.4119C51.1361 46.9896 52.3603 48.2323 53.9189 49.1414Z" fill="white"/>
<path d="M29.5703 65.4373H50.8203V69.4216H29.5703V65.4373Z" fill="white"/>
</g>
<defs>
<linearGradient id="paint0_linear_229_247" x1="86.3923" y1="12.2885" x2="8.42491" y2="90.2559" gradientUnits="userSpaceOnUse">
<stop offset="0.28" stop-color="#7256FF"/>
<stop offset="0.66" stop-color="#00D980"/>
</linearGradient>
<linearGradient id="paint1_linear_229_247" x1="92.9533" y1="81.8781" x2="59.4309" y2="9.57473" gradientUnits="userSpaceOnUse">
<stop offset="0.3" stop-color="#FF43F2"/>
<stop offset="0.54" stop-color="#7256FF"/>
</linearGradient>
<clipPath id="clip0_229_247">
<rect width="85" height="85" fill="white" transform="translate(7 7)"/>
</clipPath>
</defs>
</svg>
