<svg width="100" height="100" viewBox="0 0 100 100" fill="none" xmlns="http://www.w3.org/2000/svg">
<rect width="100" height="100" rx="24" fill="white"/>
<g clip-path="url(#clip0_229_237)">
<path d="M15.7275 70.818L15.7298 86.5901C15.7298 89.5775 18.1516 91.9984 21.1389 91.9984H36.4211C37.9998 91.9984 39.5005 91.3083 40.5282 90.1098L83.9709 39.4267C84.8109 38.4461 85.273 37.1973 85.273 35.9061V20.134C85.273 17.1466 82.8513 14.7249 79.8639 14.7249H64.5793C63.0006 14.7249 61.5001 15.415 60.4723 16.6135L17.0296 67.2966C16.1889 68.2772 15.7275 69.526 15.7275 70.818Z" fill="#00D886"/>
<path d="M15.7275 72.719V86.5934C15.7275 89.5807 18.1493 92.0024 21.1366 92.0024H38.5253C38.7811 92.0024 39.0369 91.9839 39.2903 91.9484L88.3561 84.9397C91.0213 84.5588 93.0003 82.2769 93.0003 79.5847V58.769C93.0003 55.7809 90.5778 53.3592 87.5897 53.36L62.9682 53.3661C62.3871 53.3661 61.8099 53.4596 61.2589 53.6435L19.4258 67.5882C17.2173 68.3245 15.7275 70.3908 15.7275 72.719Z" fill="url(#paint0_linear_229_237)"/>
<path d="M8 12.4091V57.5232C8 59.6869 9.28968 61.6427 11.2779 62.4949L61.0701 83.8354C61.7431 84.1236 62.4688 84.2727 63.2013 84.2727H87.5909C90.5783 84.2727 93 81.851 93 78.8636V55.0026C93 53.9339 92.6831 52.8891 92.0897 51.9998L63.6634 9.40859C62.6604 7.90486 60.9728 7.00232 59.1646 7.00232L13.4091 7C10.4217 7 8 9.42173 8 12.4091Z" fill="url(#paint1_linear_229_237)"/>
<path d="M77.0625 22.9375H23.9375V76.0625H77.0625V22.9375Z" fill="black"/>
<path fill-rule="evenodd" clip-rule="evenodd" d="M34.5888 41.9758H37.9415L42.2304 49.5H46.6847L41.9416 41.52C42.0388 41.489 42.1379 41.4607 42.237 41.4324C42.4602 41.3686 42.6836 41.3047 42.8852 41.2112C43.967 40.6777 44.7964 39.948 45.3758 39.0058C45.9635 38.0629 46.2578 36.978 46.2578 35.7324C46.2578 34.4867 45.9682 33.4378 45.3895 32.5131C44.82 31.5884 44.0044 30.8588 42.9417 30.3427C41.879 29.8266 40.6509 29.5781 39.2558 29.5781H30.7032V49.5H34.5881L34.5888 41.9758ZM34.5888 32.8157H39.0004C39.6553 32.8157 40.224 32.94 40.708 33.1718C41.2013 33.4203 41.581 33.7587 41.847 34.204C42.1122 34.6484 42.2457 35.1645 42.2457 35.769C42.2457 36.3735 42.113 36.8896 41.847 37.3523C41.581 37.7968 41.2021 38.1352 40.708 38.3837C40.224 38.633 39.6553 38.7398 39.0004 38.7398H34.5888V32.8157Z" fill="white"/>
<path fill-rule="evenodd" clip-rule="evenodd" d="M65.8626 49.5L61.1193 41.52C61.2167 41.489 61.3157 41.4607 61.4148 41.4324C61.6381 41.3686 61.8615 41.3047 62.0631 41.2112C63.1448 40.6777 63.975 39.948 64.5537 39.0058C65.1414 38.0629 65.4357 36.978 65.4357 35.7324C65.4357 34.4867 65.1459 33.4378 64.5674 32.5131C63.9979 31.5884 63.1821 30.8588 62.1195 30.3427C61.0569 29.8266 59.8288 29.5781 58.4337 29.5781H49.8811V49.5H53.766V41.9758H57.1187L61.4075 49.5H65.8626ZM53.7675 32.8157H58.1791C58.8339 32.8157 59.4026 32.94 59.8867 33.1718C60.3799 33.4203 60.7595 33.7587 61.0249 34.204C61.2901 34.6484 61.4236 35.1645 61.4236 35.769C61.4236 36.3735 61.2909 36.8896 61.0249 37.3523C60.7587 37.7968 60.3799 38.1352 59.8867 38.3837C59.4026 38.633 58.8339 38.7398 58.1791 38.7398H53.7675V32.8157Z" fill="white"/>
<path d="M30.5703 65.4375H51.8203V69.4219H30.5703V65.4375Z" fill="white"/>
</g>
<defs>
<linearGradient id="paint0_linear_229_237" x1="18.1222" y1="92.9552" x2="89.3445" y2="59.9343" gradientUnits="userSpaceOnUse">
<stop offset="0.08" stop-color="#00D886"/>
<stop offset="0.46" stop-color="#FFAB00"/>
</linearGradient>
<linearGradient id="paint1_linear_229_237" x1="87.7122" y1="86.3923" x2="9.74404" y2="8.42491" gradientUnits="userSpaceOnUse">
<stop offset="0.19" stop-color="#FFAB00"/>
<stop offset="0.83" stop-color="#FF004C"/>
</linearGradient>
<clipPath id="clip0_229_237">
<rect width="85" height="85" fill="white" transform="translate(8 7)"/>
</clipPath>
</defs>
</svg>
