<svg width="100" height="100" viewBox="0 0 100 100" fill="none" xmlns="http://www.w3.org/2000/svg">
<rect width="100" height="100" rx="24" fill="#F7E018"/>
<path d="M74.5045 46.0745C71.0428 46.3492 68.1397 47.5947 65.9784 49.7377C63.753 51.9448 62.6907 54.6372 62.6907 58.0532C62.6907 63.1633 64.7878 66.735 69.4676 69.5648C70.6581 70.2791 72.2791 71.0576 75.0815 72.2664C78.9004 73.9057 80.3199 74.6841 81.2265 75.6549C82.3438 76.8546 82.6552 78.7686 81.95 80.2339C81.8126 80.5178 81.4555 80.994 81.1349 81.3146C80.0543 82.4044 78.3509 82.9813 76.2354 82.9813C72.6637 82.9813 69.9988 81.516 67.8558 78.3474C67.5627 77.9261 67.2971 77.5781 67.2605 77.5781C67.1781 77.5781 60.2088 81.5985 60.0623 81.7358C59.9707 81.8183 60.044 82.0106 60.4011 82.5967C63.1852 87.2856 67.5352 90.033 73.4147 90.8206C74.9533 91.0312 77.838 91.0221 79.3125 90.8206C83.0123 90.2986 85.7872 89.0714 87.9393 86.9834C90.2289 84.7763 91.3553 81.919 91.3553 78.3382C91.3553 76.0487 90.9798 74.2629 90.1281 72.4954C89.542 71.2865 88.9559 70.4715 87.9485 69.4458C86.0162 67.4859 83.516 66.0023 78.5249 63.8594C74.7518 62.2384 73.488 61.5424 72.6546 60.654C71.8578 59.8023 71.519 58.8041 71.5923 57.5586C71.6564 56.5696 71.9311 55.901 72.5355 55.2508C73.4055 54.3075 74.4129 53.9137 75.9698 53.9229C77.7373 53.9229 78.8821 54.3808 80.0451 55.553C80.4572 55.956 80.9884 56.6062 81.2357 57C81.5196 57.4487 81.7302 57.696 81.8035 57.6685C82.0416 57.5678 88.6995 53.2635 88.6995 53.1994C88.6995 53.1628 88.3606 52.6316 87.9485 52.0089C87.0693 50.6901 85.485 49.0417 84.3952 48.3182C82.3804 46.9811 80.2283 46.2943 77.3893 46.0836C75.9973 45.9737 75.8141 45.9737 74.5045 46.0745Z" fill="black"/>
<path d="M45.9955 62.7146L45.9681 78.906L45.7666 79.6661C45.501 80.6643 45.1896 81.2596 44.6401 81.8091C43.8709 82.5784 42.8818 82.8989 41.2334 82.9081C38.8797 82.9172 37.4694 81.919 35.8301 79.1166C35.5645 78.677 35.3264 78.3199 35.299 78.329C35.2623 78.3474 33.6047 79.3456 31.6174 80.5453L28 82.7432L28.2747 83.2927C29.914 86.5621 32.753 89.0348 36.169 90.1704C39.7772 91.3701 44.4112 91.2602 47.8088 89.8956C51.8841 88.2472 54.2744 84.8404 54.9063 79.776C54.9612 79.2632 54.9979 73.5394 54.9979 62.7695V46.5324H50.5104H46.0322L45.9955 62.7146Z" fill="black"/>
</svg>
