<svg width="100" height="100" viewBox="0 0 100 100" fill="none" xmlns="http://www.w3.org/2000/svg">
<rect width="100" height="100" rx="24" fill="white"/>
<path fill-rule="evenodd" clip-rule="evenodd" d="M49.4283 70.2719C68.2335 95.9074 86.637 63.1165 86.6099 43.3976C86.578 20.0831 62.9475 7.05261 49.4129 7.05261C27.689 7.05261 7 25.0067 7 49.5717C7 76.8759 30.715 92 49.4129 92C45.1817 91.3908 31.0816 88.3695 30.8919 55.8925C30.7645 33.927 38.0574 25.1512 49.3821 29.0118C49.6357 29.1059 61.8739 33.9336 61.8739 49.7046C61.8739 65.4083 49.4283 70.2719 49.4283 70.2719Z" fill="url(#paint0_linear_218_134)"/>
<path fill-rule="evenodd" clip-rule="evenodd" d="M49.406 28.9943C36.9801 24.7114 21.7582 34.9528 21.7582 55.4659C21.7582 88.9602 46.5787 92 49.5872 92C71.3111 92 92.0001 74.0459 92.0001 49.4809C92.0001 22.1768 68.2851 7.0526 49.5872 7.0526C54.7659 6.33541 77.4996 12.6573 77.4996 43.7285C77.4996 63.9909 60.5246 75.0218 49.4841 70.3085C49.2305 70.2145 36.9923 65.3868 36.9923 49.6158C36.9923 33.9121 49.406 28.9943 49.406 28.9943Z" fill="url(#paint1_linear_218_134)"/>
<defs>
<linearGradient id="paint0_linear_218_134" x1="19.5708" y1="19.571" x2="79.4444" y2="79.4636" gradientUnits="userSpaceOnUse">
<stop/>
<stop offset="1" stop-color="white"/>
</linearGradient>
<linearGradient id="paint1_linear_218_134" x1="79.4529" y1="79.4552" x2="19.5793" y2="19.5679" gradientUnits="userSpaceOnUse">
<stop/>
<stop offset="1" stop-color="white"/>
</linearGradient>
</defs>
</svg>
