<svg width="100" height="100" viewBox="0 0 100 100" fill="none" xmlns="http://www.w3.org/2000/svg">
<rect width="100" height="100" rx="24" fill="white"/>
<path d="M79.553 79.5524C96.1507 62.9548 96.1497 36.0427 79.5514 19.4487C62.9531 2.85171 36.0416 2.84971 19.4477 19.4471C2.85001 36.0444 2.85101 62.9568 19.4493 79.5508C36.0473 96.1491 62.959 96.1495 79.553 79.5524Z" fill="#A50034"/>
<path d="M36.6059 41.2102C37.575 41.2056 38.5209 40.9138 39.3245 40.3718C40.1278 39.8301 40.7528 39.0624 41.1203 38.1658C41.4881 37.2691 41.5817 36.2834 41.3898 35.3336C41.1976 34.3836 40.7286 33.512 40.0418 32.8284C39.3547 32.1449 38.4806 31.68 37.5298 31.4927C36.5792 31.3054 35.5941 31.4039 34.6993 31.7758C33.8043 32.1479 33.0396 32.7764 32.5017 33.5827C31.9639 34.3888 31.6769 35.3361 31.6769 36.3052C31.6783 36.9508 31.807 37.59 32.0556 38.1859C32.3044 38.782 32.6678 39.3232 33.1254 39.7786C33.5833 40.234 34.1263 40.595 34.7233 40.8405C35.3205 41.0863 35.9602 41.2118 36.6059 41.2102ZM81.5597 50.8465H59.9463V47.645H84.7275C84.7612 48.2651 84.7781 48.8849 84.7781 49.5124C84.7781 68.7903 69.0666 84.4173 49.6902 84.4173C30.3131 84.4173 14.5989 68.7999 14.5989 49.5124C14.5989 30.2265 30.3081 14.6074 49.6868 14.6074C50.1983 14.6074 50.7074 14.6178 51.214 14.6387V17.8163C50.7074 17.7937 50.2 17.7826 49.6915 17.7826C32.0789 17.7826 17.7959 31.9888 17.7959 49.5091C17.7959 67.0298 32.0769 81.2387 49.6915 81.2387C66.8218 81.2387 80.8164 67.7974 81.5571 50.9356L81.5597 50.8465ZM59.897 64.1846H51.2111V31.5513H47.9998V67.4079H51.2184V67.3864H59.9044L59.897 64.1846Z" fill="white"/>
</svg>
