<svg width="100" height="100" viewBox="0 0 100 100" fill="none" xmlns="http://www.w3.org/2000/svg">
<rect width="100" height="100" rx="24" fill="#D70751"/>
<path d="M56.8129 52.9111C55.4046 52.9299 57.0777 53.635 58.9168 53.9188C59.4268 53.521 59.8849 53.1213 60.2959 52.731C59.1525 53.011 57.9874 53.0176 56.8129 52.9111ZM64.3699 51.0268C65.2116 49.8683 65.8224 48.6014 66.0383 47.2912C65.8488 48.2244 65.3445 49.0303 64.8657 49.8824C62.2329 51.5405 64.6168 48.8983 64.8638 47.8926C62.034 51.4585 64.4735 50.0304 64.3699 51.0268ZM67.1628 43.7648C67.3344 41.2282 66.6642 42.0314 66.4389 42.9975C66.701 43.1352 66.9093 44.7866 67.1628 43.7648ZM51.4701 9.09619C52.2223 9.23004 53.0952 9.33373 52.9698 9.51377C53.7955 9.33185 53.9812 9.16783 51.4701 9.09619ZM52.9707 9.51377L52.4419 9.62406L52.9349 9.57881L52.9707 9.51377Z" fill="white"/>
<path d="M76.4123 44.7256C76.4971 47.003 75.7477 48.1096 75.07 50.0664L73.8512 50.6725C72.8549 52.6086 73.9502 51.9017 73.2366 53.4409C71.6795 54.8237 68.518 57.7665 67.5056 58.0361C66.7657 58.0201 68.0061 57.1632 68.1683 56.8286C66.0861 58.2576 66.497 58.974 63.312 59.844L63.2196 59.6357C55.3677 63.3307 44.46 56.0095 44.6032 46.0217C44.5203 46.6551 44.3648 46.4968 44.1913 46.7513C43.786 41.6132 46.5648 36.4524 51.2514 34.3419C55.8353 32.074 61.209 33.0034 64.4902 36.066C62.688 33.7038 59.0976 31.1993 54.8455 31.4312C50.6783 31.4991 46.7788 34.1468 45.478 37.0227C43.3439 38.3659 43.0951 42.2032 42.1657 42.9064C40.913 52.1062 44.5193 56.0793 50.6208 60.7555C51.5785 61.4021 50.8904 61.5011 51.0186 61.9931C48.992 61.0449 47.1369 59.6121 45.6099 57.8579C46.4206 59.0428 47.2944 60.1947 48.4245 61.0996C46.512 60.4539 43.9585 56.4686 43.2148 56.3064C46.5092 62.2052 56.579 66.6515 61.8547 64.4448C59.4134 64.5353 56.3132 64.4948 53.5721 63.4815C52.4174 62.8886 50.8536 61.6623 51.1336 61.4332C58.3313 64.1206 65.7646 63.4674 71.9915 58.4763C73.5769 57.2415 75.3075 55.1423 75.8081 55.114C75.0549 56.247 75.9372 55.6589 75.3584 56.659C76.9345 54.113 74.6713 55.6221 76.9891 52.2627L77.845 53.4409C77.5245 51.3257 80.4701 48.76 80.1704 45.4175C80.8463 44.3957 80.9235 46.5185 80.2072 48.8693C81.2016 46.2611 80.4701 45.8417 80.7247 43.6888C80.9989 44.4127 81.3637 45.1809 81.5494 45.9454C80.9009 43.4239 82.2121 41.7008 82.5382 40.2351C82.2159 40.0937 81.5381 41.3492 81.3817 38.3725C81.4052 37.0793 81.7427 37.6948 81.8718 37.3762C81.6192 37.2301 80.9528 36.2385 80.5484 34.3372C80.8397 33.8895 81.3326 35.4957 81.7323 35.5607C81.475 34.0497 81.0329 32.8969 81.014 31.7366C79.8452 29.2952 80.6002 32.0627 79.6539 30.6884C78.4096 26.8106 80.6851 29.7882 80.8397 28.0275C82.723 30.7563 83.7966 34.9886 84.2915 36.7409C83.9144 34.604 83.3064 32.5331 82.5627 30.5301C83.1368 30.7723 81.6399 26.1347 83.3083 29.2057C81.5278 22.6593 75.694 16.5419 70.3259 13.6726C70.981 14.273 71.8095 15.0271 71.5136 15.1459C68.8422 13.5576 69.3116 13.4322 68.9289 12.7611C66.7562 11.876 66.6111 12.8337 65.1736 12.763C61.0733 10.5874 60.2834 10.8184 56.5102 9.45727L56.6817 10.2604C53.9661 9.35547 53.5174 10.6016 50.5831 10.2622C50.4049 10.1237 51.5238 9.75702 52.4457 9.62411C49.8196 9.97099 49.9421 9.10568 47.3726 9.71931C48.0051 9.27535 48.6762 8.98031 49.3511 8.60327C47.2105 8.73335 44.2385 9.84939 45.1556 8.83327C41.6633 10.3923 35.46 12.5801 31.979 15.8443L31.8696 15.1129C30.2748 17.0273 24.9142 20.8307 24.4872 23.3126L24.0602 23.4115C23.2316 24.817 22.6934 26.409 22.0355 27.854C20.9505 29.7043 20.4444 28.5666 20.599 28.8569C18.464 33.1854 17.4017 36.8219 16.4864 39.8062C17.1387 40.7818 16.5024 45.6805 16.7484 49.6008C15.6776 68.9656 30.3389 87.7657 46.365 92.1055C48.7139 92.9472 52.2063 92.9171 55.1773 93C51.6727 91.9971 51.2203 92.4693 47.8043 91.2788C45.3413 90.1175 44.8021 88.7932 43.0564 87.2784L43.7474 88.4991C40.3257 87.2878 41.7575 87.0003 38.9731 86.119L39.7111 85.1566C38.6017 85.0718 36.7731 83.2884 36.2735 82.2977L35.0594 82.3458C33.6021 80.5492 32.8245 79.2512 32.882 78.2455L32.4899 78.9449C32.0459 78.1823 27.1255 72.1977 29.6781 73.5909C29.204 73.1592 28.5734 72.8868 27.89 71.6435L28.4094 71.0506C27.183 69.4699 26.149 67.4442 26.2282 66.7693C26.8833 67.6535 27.3376 67.8194 27.7882 67.9711C24.6861 60.2757 24.5117 67.5479 22.1637 60.1381L22.6595 60.0985C22.2796 59.5226 22.0468 58.9014 21.7414 58.2897L21.9582 56.1358C19.7261 53.5569 21.3342 45.1592 21.6575 40.5546C21.879 38.6826 23.521 36.689 24.7681 33.5624L24.0083 33.4323C25.4618 30.8986 32.3051 23.2532 35.476 23.6453C37.0115 21.7167 35.1706 23.6378 34.8699 23.1533C38.2435 19.6628 39.3039 20.6874 41.5803 20.0587C44.0339 18.6024 39.4736 20.628 40.6368 19.5035C44.8813 18.4205 43.6437 17.0396 49.1796 16.49C49.764 16.8218 47.825 17.0028 47.3387 17.4336C50.8734 15.7029 58.5264 16.0979 63.4996 18.3931C69.2655 21.0899 75.7477 29.0577 76.0041 36.5542L76.2954 36.6325C76.1483 39.613 76.7516 43.0601 75.7044 46.2253L76.4123 44.7256Z" fill="white"/>
<path d="M41.438 54.8426L41.2391 55.8295C42.1656 57.0878 42.9009 58.4508 44.082 59.4311C43.2317 57.7731 42.6011 57.0878 41.438 54.8426ZM43.6257 54.7577C43.1356 54.2148 42.8471 53.5625 42.521 52.914C42.8321 54.0555 43.4693 55.0367 44.0603 56.0359L43.6257 54.7577ZM82.3516 46.3403L82.1451 46.8606C81.7662 49.5546 80.9452 52.2202 79.6896 54.6927C81.0772 52.0845 81.9717 49.2313 82.3516 46.3403ZM51.75 8.4204C52.7011 8.07258 54.0895 8.22905 55.1019 8C53.7841 8.11028 52.473 8.17627 51.1788 8.34122L51.75 8.4204ZM18.315 26.1997C18.5346 28.2301 16.788 29.0191 18.7015 27.6787C19.7289 25.3655 18.3018 27.0405 18.315 26.1997ZM16.0641 35.6012C16.5062 34.2467 16.5853 33.4342 16.7541 32.649C15.5353 34.2081 16.1923 34.5408 16.0641 35.6012Z" fill="white"/>
</svg>
