<svg width="100" height="100" viewBox="0 0 100 100" fill="none" xmlns="http://www.w3.org/2000/svg">
<rect width="100" height="100" rx="24" fill="#E9500E"/>
<path d="M19.0761 59.632C25.7456 59.632 31.1523 54.2253 31.1523 47.5559C31.1523 40.8864 25.7456 35.4797 19.0761 35.4797C12.4067 35.4797 7 40.8864 7 47.5559C7 54.2253 12.4067 59.632 19.0761 59.632Z" fill="white"/>
<path d="M69.3688 33.1523C76.0383 33.1523 81.4449 27.7456 81.4449 21.0761C81.4449 14.4067 76.0383 9 69.3688 9C62.6993 9 57.2927 14.4067 57.2927 21.0761C57.2927 27.7456 62.6993 33.1523 69.3688 33.1523Z" fill="white"/>
<path d="M46.312 78.635C42.0438 77.7325 38.0298 75.8917 34.5609 73.2461C31.0921 70.6006 28.2552 67.2164 26.256 63.3389C23.0245 64.8059 19.4214 65.2488 15.9308 64.608C18.3451 70.5776 22.1888 75.8628 27.1241 79.9991C32.0593 84.1353 37.9351 86.9959 44.2348 88.3295C47.0528 88.9333 49.9281 89.2292 52.81 89.2119C50.593 86.3052 49.3551 82.7702 49.2742 79.1154C48.2796 79.0049 47.2862 78.8435 46.312 78.635Z" fill="white"/>
<path d="M66.648 90.7777C73.3175 90.7777 78.7242 85.3711 78.7242 78.7016C78.7242 72.0321 73.3175 66.6255 66.648 66.6255C59.9786 66.6255 54.5719 72.0321 54.5719 78.7016C54.5719 85.3711 59.9786 90.7777 66.648 90.7777Z" fill="white"/>
<path d="M83.4525 74.266C88.6293 67.7353 91.6084 59.735 91.964 51.4091C92.3196 43.0831 90.0334 34.8579 85.4324 27.9097C84.0375 31.1941 81.6669 33.9705 78.6415 35.8628C81.0573 40.4235 82.2389 45.5364 82.0691 50.6946C81.8994 55.8528 80.3842 60.877 77.6738 65.269C80.5009 67.5834 82.5236 70.7325 83.4525 74.266Z" fill="white"/>
<path d="M18.1443 30.2375C18.4508 30.2207 18.7575 30.2123 19.0643 30.2125C22.2999 30.2148 25.471 31.1179 28.2224 32.8204C30.8845 28.9753 34.4239 25.8194 38.5478 23.6139C42.6717 21.4083 47.2616 20.2165 51.9376 20.1371C52.1328 16.5756 53.411 13.1586 55.6012 10.3434C48.1155 9.77817 40.623 11.3472 33.9931 14.8685C27.3632 18.3898 21.8677 23.7189 18.1443 30.2375Z" fill="white"/>
</svg>
