<svg width="100" height="100" viewBox="0 0 100 100" fill="none" xmlns="http://www.w3.org/2000/svg">
<rect width="100" height="100" rx="24" fill="white"/>
<path d="M40.2556 32.0776L40.4897 37.462L36.744 44.4851L30.8914 55.9562L29.7209 65.5545L33.9348 79.1325L43.533 84.5169H58.0475L71.6256 74.2163L77.7123 58.0631L63.666 40.9735L59.6862 31.3752L40.2556 32.0776Z" fill="#ECEFF1"/>
<path d="M73.4982 45.4216C69.7526 40.0372 66.7092 36.7597 65.0705 29.9707C63.4317 23.1817 65.5387 25.0545 64.1341 19.2019C63.4317 16.1586 62.2612 14.0516 61.0907 12.4129C59.6861 10.7742 58.0473 9.83775 57.1109 9.60364C55.004 8.43312 50.0878 6.56029 44.0011 9.83775C37.6803 13.1152 38.3826 20.1383 39.5531 34.4187C39.5531 35.3551 39.319 36.5256 38.8508 37.4621C37.9144 39.569 36.2756 41.4418 34.871 43.0806C33.2323 45.4216 31.5936 47.7626 30.423 50.3378C27.6138 55.7222 25.0386 62.5112 25.7409 65.0864C26.9115 64.8523 41.66 87.3263 41.66 87.7945C42.5965 87.5604 46.5762 87.5604 50.0878 87.5604C55.004 87.3263 57.8132 87.0922 61.793 88.0286C61.793 87.3263 61.5589 86.624 61.5589 85.9216C61.5589 84.517 61.793 83.3465 62.0271 81.7078C62.2612 80.5372 62.4953 79.3667 62.7294 77.9621C60.3884 80.069 56.1745 82.4101 52.1947 83.1124C48.6832 83.8147 42.8306 82.6442 40.0213 79.1326C40.2554 79.1326 40.7236 79.1326 40.9577 78.8985C41.66 78.6644 42.3624 78.4303 42.5965 77.9621C43.2988 76.7916 42.8306 75.6211 42.3624 74.9187C41.8941 74.2164 38.3826 71.6413 36.7439 70.2367C35.1051 68.832 34.1687 68.1297 33.2323 67.1933C33.2323 67.1933 31.8277 65.7887 31.3595 65.3205C30.8912 64.8523 30.6571 64.384 30.423 64.1499C29.9548 62.9794 29.7207 61.5748 29.9548 59.702C30.1889 57.1268 31.1254 55.0199 32.2959 52.6788C32.7641 51.7424 33.9346 49.8696 33.9346 49.8696C33.9346 49.8696 29.9548 59.702 32.0618 62.7453C32.0618 62.7453 32.2959 59.702 33.2323 56.6586C33.9346 54.5517 35.1051 51.5083 36.5097 49.8696C37.9144 48.2309 41.4259 42.1441 41.66 38.3985C41.66 36.7597 41.8941 35.121 41.8941 33.9505C40.9577 33.0141 57.345 30.673 58.2814 33.2482C58.5155 34.1846 61.793 42.6124 63.6658 47.0603C64.6023 49.1673 65.7728 51.0401 66.4751 53.3811C67.1774 55.9563 67.6456 59.4679 67.6456 62.9794C67.6456 63.6817 67.6456 64.8523 67.4115 66.0228C67.8797 66.0228 77.0098 56.1904 66.241 47.9967C66.241 47.9967 72.7959 51.0401 73.03 57.1268C73.2641 62.043 71.1572 66.0228 70.689 66.7251C70.9231 66.7251 75.6052 68.832 75.8393 68.832C76.7757 68.832 78.6485 68.1297 78.6485 68.1297C78.8826 67.4274 79.5849 65.5546 79.5849 64.8523C81.2237 59.4679 77.2439 50.806 73.4982 45.4216Z" fill="#263238"/>
<path d="M43.7665 29.9709C45.4473 29.9709 46.8099 27.8746 46.8099 25.2888C46.8099 22.7029 45.4473 20.6067 43.7665 20.6067C42.0857 20.6067 40.7231 22.7029 40.7231 25.2888C40.7231 27.8746 42.0857 29.9709 43.7665 29.9709Z" fill="#ECEFF1"/>
<path d="M54.3014 30.439C56.4994 30.439 58.2812 28.0283 58.2812 25.0546C58.2812 22.0808 56.4994 19.6702 54.3014 19.6702C52.1035 19.6702 50.3217 22.0808 50.3217 25.0546C50.3217 28.0283 52.1035 30.439 54.3014 30.439Z" fill="#ECEFF1"/>
<path d="M45.466 25.6091C45.2714 24.0698 44.3858 22.914 43.4879 23.0275C42.59 23.141 42.0199 24.4808 42.2144 26.0201C42.409 27.5593 43.2946 28.7151 44.1925 28.6016C45.0904 28.4881 45.6606 27.1483 45.466 25.6091Z" fill="#212121"/>
<path d="M54.0674 29.0345C55.3603 29.0345 56.4084 27.6719 56.4084 25.9911C56.4084 24.3103 55.3603 22.9478 54.0674 22.9478C52.7744 22.9478 51.7263 24.3103 51.7263 25.9911C51.7263 27.6719 52.7744 29.0345 54.0674 29.0345Z" fill="#212121"/>
<path d="M85.2034 77.4939C84.267 77.0257 82.6282 76.3234 81.2236 74.2164C80.5213 73.0459 80.7554 69.7685 79.5849 68.3638C78.8826 67.4274 77.9461 67.8956 77.712 67.8956C75.6051 68.3638 70.6889 71.6413 67.4115 67.8956C66.9432 67.4274 66.2409 66.7251 65.0704 66.7251C63.8999 66.7251 63.4317 67.1933 62.9635 68.1297C62.4953 69.0661 62.4953 69.7685 62.4953 72.1095C62.4953 73.9823 62.4953 76.0893 62.2612 77.728C61.793 81.7078 61.0906 84.0488 61.0906 86.3899C61.0906 88.965 61.793 90.6037 62.7294 91.306C63.4317 92.0084 64.6022 92.4766 67.1773 92.4766C69.7525 92.4766 71.3912 91.5402 73.03 89.9014C74.2005 88.7309 75.1369 88.2627 78.4144 85.9216C80.9895 84.2829 84.9693 82.176 85.6716 81.4737C86.1398 81.0055 86.8421 80.7714 86.8421 79.3667C86.8421 78.1962 85.9057 77.728 85.2034 77.4939Z" fill="#FFC107"/>
<path d="M38.149 78.196C35.8079 74.4503 35.5738 73.748 33.9351 71.4069C32.5305 69.0659 29.4871 64.6179 27.6143 64.6179C26.2096 64.6179 25.5073 65.3202 24.5709 66.2567C23.6345 67.1931 22.6981 69.3 21.0593 70.4705C19.6547 71.641 15.6749 71.4069 14.7385 72.8116C13.8021 74.2162 15.6749 76.3231 15.6749 79.8347C15.6749 81.2393 14.5044 82.1757 14.2703 83.1122C14.0362 84.2827 13.8021 84.985 14.2703 85.9214C15.2067 87.326 16.3773 87.7943 24.3368 89.433C28.5507 90.3694 32.5305 92.7104 35.1056 92.9445C37.6807 93.1786 42.1287 92.9445 42.1287 86.6237C42.3628 82.8781 40.2559 81.9416 38.149 78.196Z" fill="#FFC107"/>
<path d="M42.5964 35.8232C41.1918 34.8868 40.0212 33.9504 40.0212 32.5457C40.0212 31.1411 40.9577 30.6729 42.3623 29.5024C42.5964 29.2683 45.1715 26.9272 47.7467 26.9272C50.3218 26.9272 53.3652 28.566 54.5357 29.0342C56.6426 29.5024 58.7496 29.9706 58.5155 31.6093C58.2814 33.9504 58.0473 34.4186 55.7062 35.5891C54.0675 36.0573 51.0241 38.6325 48.9172 38.6325C47.9808 38.6325 46.5762 38.6325 45.6397 38.3984C44.9374 38.1643 43.7669 36.9937 42.5964 35.8232Z" fill="#FFC107"/>
<path d="M42.1283 33.9505C42.5965 34.4188 43.2988 34.887 44.0011 35.1211C44.4693 35.3552 45.1716 35.5893 45.1716 35.5893C46.108 35.5893 46.8103 35.5893 47.2786 35.5893C48.4491 35.5893 50.0878 35.1211 51.7265 34.1847C53.3653 33.4823 53.5994 33.0141 54.7699 32.5459C55.9404 31.8436 57.1109 31.1413 56.6427 30.9072C56.1745 30.6731 55.7063 30.9072 54.0676 31.8436C52.663 32.78 51.4924 33.2482 50.0878 33.9505C49.3855 34.1846 48.4491 34.6529 47.7468 34.6529C47.0444 34.6529 46.3421 34.6529 45.6398 34.6529C44.9375 34.6529 44.4693 34.4188 43.767 34.1847C43.2988 33.9505 43.0647 33.7164 42.8306 33.7164C42.3624 33.4823 41.4259 32.5459 40.9577 32.3118C40.9577 32.3118 40.4895 32.3118 40.7236 32.5459C41.4259 33.2482 41.66 33.4823 42.1283 33.9505Z" fill="#634703"/>
<path d="M49.1512 28.7998C49.3853 29.268 49.8536 29.268 50.0877 29.5021C50.3218 29.7362 50.5559 29.7362 50.5559 29.7362C50.79 29.5021 50.5559 29.0339 50.3218 29.0339C50.3218 28.5657 49.1512 28.5657 49.1512 28.7998Z" fill="#634703"/>
<path d="M45.4053 29.2682C45.4053 29.5023 45.8735 29.7364 45.8735 29.5023C46.1076 29.2682 46.3418 29.0341 46.5759 29.0341C47.0441 28.8 46.81 28.5659 46.1077 28.5659C45.6394 28.8 45.6394 29.0341 45.4053 29.2682Z" fill="#634703"/>
<path d="M68.114 70.7046C68.114 70.9387 68.114 71.1728 68.114 71.4069C68.5822 72.3433 69.7527 72.5775 70.6891 72.5775C72.0937 72.5775 73.4984 71.641 74.2007 70.7046C74.2007 70.4705 74.4348 70.2364 74.6689 70.0023C75.1371 69.3 75.3712 68.8318 75.6053 68.5977C75.6053 68.5977 75.3712 68.3636 75.3712 68.1295C75.1371 67.6613 74.4348 67.1931 73.4984 66.9589C72.7961 66.7248 71.6255 66.4907 71.1573 66.4907C69.0504 66.2566 67.8799 66.959 67.1776 67.6613C67.1776 67.6613 67.4117 67.6613 67.4117 67.8954C67.8799 68.3636 68.114 68.8318 68.114 69.5341C68.3481 70.0023 68.114 70.2364 68.114 70.7046Z" fill="#455A64"/>
</svg>
