<svg width="100" height="100" viewBox="0 0 100 100" fill="none" xmlns="http://www.w3.org/2000/svg">
<rect width="100" height="100" rx="24" fill="white"/>
<path d="M60.975 70.9199H37.9825V29.6099H60.975V70.9199Z" fill="#7375CF"/>
<path d="M39.47 50.265C39.47 41.8925 43.38 34.4125 49.5 29.61C45.0375 26.0825 39.385 24 33.265 24C18.7725 24 7 35.7725 7 50.265C7 64.7575 18.7725 76.53 33.265 76.53C39.385 76.53 45.0375 74.4475 49.5 70.92C43.38 66.1175 39.47 58.6375 39.47 50.265Z" fill="#EB001B"/>
<path d="M92 50.265C92 64.7575 80.2275 76.53 65.735 76.53C59.615 76.53 53.9625 74.4475 49.5 70.92C55.62 66.1175 59.53 58.6375 59.53 50.265C59.53 41.8925 55.62 34.4125 49.5 29.61C53.9625 26.0825 59.615 24 65.735 24C80.2275 24 92 35.7725 92 50.265Z" fill="#00A2E5"/>
</svg>
