<svg width="100" height="100" viewBox="0 0 100 100" fill="none" xmlns="http://www.w3.org/2000/svg">
<rect width="100" height="100" rx="24" fill="white"/>
<g clip-path="url(#clip0_154_677)">
<path d="M33.18 24C26.2215 24.0225 19.5563 26.8055 14.6478 31.7378C9.73934 36.6702 6.98877 43.3488 7.00003 50.3074C7.01129 57.2659 9.78346 63.9356 14.7079 68.852C19.6323 73.7685 26.3065 76.5299 33.265 76.5299C40.2235 76.5299 46.8977 73.7685 51.8221 68.852C56.7465 63.9356 59.5187 57.2659 59.53 50.3074C59.5412 43.3488 56.7907 36.6702 51.8822 31.7378C46.9737 26.8055 40.3085 24.0225 33.35 24L33.18 24Z" fill="#EB001B"/>
<path d="M65.65 24C58.6915 24.0225 52.0263 26.8055 47.1178 31.7378C42.2093 36.6702 39.4587 43.3488 39.47 50.3074C39.4813 57.2659 42.2534 63.9356 47.1778 68.852C52.1023 73.7685 58.7764 76.5299 65.735 76.5299C72.6935 76.5299 79.3677 73.7685 84.2921 68.852C89.2165 63.9356 91.9887 57.2659 91.9999 50.3074C92.0112 43.3488 89.2606 36.6702 84.3522 31.7378C79.4437 26.8055 72.7785 24.0225 65.82 24L65.65 24Z" fill="#F79E1B"/>
<path d="M49.5 29.6101C46.3713 32.0677 43.8417 35.2039 42.1023 38.782C40.3629 42.3601 39.4591 46.2866 39.4591 50.2651C39.4591 54.2436 40.3629 58.1701 42.1023 61.7482C43.8417 65.3263 46.3713 68.4626 49.5 70.9201C52.6287 68.4626 55.1583 65.3263 56.8977 61.7482C58.6371 58.1701 59.5409 54.2436 59.5409 50.2651C59.5409 46.2866 58.6371 42.3601 56.8977 38.782C55.1583 35.2039 52.6287 32.0677 49.5 29.6101Z" fill="#FF5F00"/>
</g>
<defs>
<clipPath id="clip0_154_677">
<rect width="85" height="52.53" fill="white" transform="translate(7 24)"/>
</clipPath>
</defs>
</svg>
