<svg width="100" height="100" viewBox="0 0 100 100" fill="none" xmlns="http://www.w3.org/2000/svg">
<rect width="100" height="100" rx="24" fill="#231F20"/>
<path d="M33.2409 29.3453C36.8165 32.246 41.0669 34.1964 45.5977 35.0155V10.8409L50.5212 8L55.4408 10.8409V35.0155C59.9725 34.1956 64.2239 32.2453 67.8014 29.3453L76.7399 34.5151C62.2028 48.8974 38.7972 48.8974 24.2601 34.5151L33.2409 29.3453ZM44.1041 91.0791C49.2882 71.2927 37.5746 51.0214 17.8431 45.6324V55.9759C22.1442 57.6217 25.9601 60.3267 28.9372 63.8403L8 75.9276V81.6133L12.9235 84.4388L33.8568 72.3515C35.4128 76.6856 35.8484 81.3426 35.1233 85.89L44.1041 91.0791ZM83.1762 45.6324C63.4553 51.0333 51.7547 71.3 56.9382 91.0791L65.8959 85.9054C65.1725 81.3579 65.6081 76.7013 67.1624 72.3669L88.0804 84.4388L93 81.5979V75.9276L72.0628 63.8403C75.0406 60.3276 78.8564 57.6227 83.1569 55.9759L83.1762 45.6324Z" fill="white"/>
</svg>
