<svg width="100" height="100" viewBox="0 0 100 100" fill="none" xmlns="http://www.w3.org/2000/svg">
<rect width="100" height="100" rx="24" fill="#EC9430"/>
<path d="M80.7375 58.9768C80.21 59.8732 78.9289 60.6062 77.8893 60.6062H8.78903C7.74946 60.6062 7.32963 59.8732 7.85647 58.9768L18.2623 41.2694C18.7888 40.373 20.0703 39.6396 21.1102 39.6396H90.2108C91.2504 39.6396 91.6702 40.373 91.1437 41.2694L80.7375 58.9768Z" fill="#FFFFFE"/>
<path d="M25.0138 49.9887V46.546L22.7488 46.5529L18.8423 53.3129H20.7104L23.1093 49.1635V53.285L23.0928 53.3129H23.1093V53.3201H25.0138L27.3594 49.1635V53.3201H29.2642V46.546L26.9993 46.5529L25.0138 49.9887ZM45.8782 53.3201H47.7827V46.546H45.8782V53.3201ZM40.9072 51.9316H39.8732V47.9345H40.9072C42.4129 47.9345 42.8849 48.1997 42.8849 49.8817C42.8849 51.5636 42.4129 51.9316 40.9072 51.9316ZM41.3129 46.5332H38.0469V53.3332H41.4003C43.7554 53.3332 44.815 52.4246 44.815 49.8797C44.815 47.473 43.7659 46.5332 41.3129 46.5332ZM55.7175 47.9552H58.0871V53.3201H59.9512V47.9552H61.7044L62.5178 46.546H56.5319L55.7175 47.9552ZM64.5648 49.1149L64.5669 49.1152C64.5669 48.2591 64.8233 47.9375 65.6564 47.9375H68.3657L69.1772 46.5332H65.3718C63.7515 46.5332 62.6808 47.1014 62.6808 49.1543V53.3332H68.5351L69.3459 51.9293H64.5649L64.5648 49.1149ZM32.2022 49.1149L32.2042 49.1152C32.2042 48.2591 32.4602 47.9375 33.293 47.9375H36.003L36.8135 46.5332H33.0084C31.3882 46.5332 30.3174 47.1014 30.3174 49.1543V53.3332H36.1721L36.9825 51.9293H32.2022L32.2022 49.1149ZM53.6805 46.546H52.1509L48.2392 53.3201H50.1656L52.9512 48.4968V53.3201H54.877V46.546H53.6805ZM74.6927 49.9408H74.6885L74.6927 49.925L76.6478 46.5453H74.7433L72.7876 49.925L72.7984 49.9408H72.7876L74.7433 53.3201H76.6478L74.6927 49.9408ZM70.049 53.3201H71.9538V46.5453H70.049V53.3201ZM65.1116 50.4962H68.1108L68.7598 49.3854H65.7182L65.1116 50.4962ZM32.8152 50.4962H35.8135L36.4627 49.3854H33.4212L32.8152 50.4962Z" fill="#EC9430"/>
</svg>
