<svg width="100" height="100" viewBox="0 0 100 100" fill="none" xmlns="http://www.w3.org/2000/svg">
<rect width="100" height="100" rx="24" fill="white"/>
<g clip-path="url(#clip0_224_969)">
<path d="M72.2326 89.0698H30.3869C28.3879 89.0698 26.7675 87.4493 26.7675 85.4503V13.6194C26.7675 11.6205 28.3879 10 30.3869 10H88.3806C90.3796 10 92 11.6205 92 13.6194V29.7674L72.2326 89.0698Z" fill="#CA64EA"/>
<path d="M92 49.5349L82.1163 55.4651L72.2325 49.5349V29.7674H92L92 49.5349Z" fill="#AE4BD5"/>
<path d="M92 69.3023L82.1162 75.2326L72.2325 69.3023V49.5349H92V69.3023Z" fill="#9332BF"/>
<path d="M72.2325 69.3023H92V85.3634C92 87.4104 90.3406 89.0698 88.2936 89.0698H72.2325V69.3023Z" fill="#7719AA"/>
<path opacity="0.2" d="M50.8185 25.814H26.7675V75.2326H50.8185C52.8169 75.2261 54.4354 73.6076 54.4419 71.6092V29.4373C54.4354 27.4389 52.8169 25.8205 50.8185 25.814Z" fill="black"/>
<path opacity="0.2" d="M48.8418 27.7907H26.7675V77.2093H48.8418C50.8402 77.2028 52.4586 75.5844 52.4651 73.5859V31.4141C52.4587 29.4157 50.8402 27.7972 48.8418 27.7907Z" fill="black"/>
<path opacity="0.5" d="M48.8418 27.7907H26.7675V73.2558H48.8418C50.8402 73.2493 52.4586 71.6309 52.4651 69.6325V31.4141C52.4587 29.4157 50.8402 27.7972 48.8418 27.7907Z" fill="black"/>
<path opacity="0.5" d="M46.865 27.7907H26.7675V73.2558H46.865C48.8634 73.2493 50.4819 71.6309 50.4884 69.6325V31.4141C50.4819 29.4157 48.8634 27.7972 46.865 27.7907Z" fill="black"/>
<path d="M10.6234 27.7907H46.865C48.8661 27.7907 50.4884 29.413 50.4884 31.4141V67.6557C50.4884 69.6569 48.8661 71.2791 46.865 71.2791H10.6234C8.62225 71.2791 7 69.6569 7 67.6557V31.4141C7 29.413 8.62225 27.7907 10.6234 27.7907Z" fill="url(#paint0_linear_224_969)"/>
<path d="M18.9119 37.7574H23.8241L33.4765 53.3737C33.9154 54.0735 34.2448 54.6368 34.4649 55.0638H34.5282C34.4088 54.0008 34.3612 52.9309 34.3858 51.8615V37.7574H38.5765V61.3123H33.9786L23.9644 45.2631C23.6252 44.7336 23.3265 44.1792 23.0709 43.6047H22.9918C23.0928 44.7734 23.1343 45.9464 23.1164 47.1193V61.3123H18.9119V37.7574Z" fill="white"/>
</g>
<defs>
<linearGradient id="paint0_linear_224_969" x1="14.5548" y1="24.9595" x2="42.9336" y2="74.1103" gradientUnits="userSpaceOnUse">
<stop stop-color="#8324B3"/>
<stop offset="0.5" stop-color="#7A1BAC"/>
<stop offset="1" stop-color="#621197"/>
</linearGradient>
<clipPath id="clip0_224_969">
<rect width="85" height="79.0698" fill="white" transform="translate(7 10)"/>
</clipPath>
</defs>
</svg>
