<svg width="100" height="100" viewBox="0 0 100 100" fill="none" xmlns="http://www.w3.org/2000/svg">
<rect width="100" height="100" rx="24" fill="white"/>
<g clip-path="url(#clip0_264_7)">
<path d="M31.9491 73.8996C29.5373 73.8996 27.5708 75.7776 27.5708 78.1079C27.5708 79.6919 28.4836 81.0492 29.8418 81.7734L46.7688 90.8452C48.1115 91.6021 49.6269 91.9995 51.1683 91.9988C52.1989 91.9988 53.1825 91.8182 54.0954 91.5012L59.8779 89.8951V73.8775C59.9018 73.8996 31.9721 73.8996 31.9491 73.8996Z" fill="url(#paint0_linear_264_7)"/>
<path d="M31.9491 73.8996C29.5373 73.8996 27.5708 75.7776 27.5708 78.1079C27.5708 79.6919 28.4836 81.0492 29.8418 81.7734L46.7688 90.8452C48.1115 91.6021 49.6269 91.9995 51.1683 91.9988C52.1989 91.9988 53.1825 91.8182 54.0954 91.5012L59.8779 89.8951V73.8775C59.9018 73.8996 31.9721 73.8996 31.9491 73.8996Z" fill="url(#paint1_linear_264_7)"/>
<path d="M53.7235 7.34037C52.924 7.11208 52.0963 6.99791 51.2648 7.00126C49.8836 7.00126 48.5024 7.27308 47.2611 7.90613C47.0043 8.01946 19.7289 22.8374 19.7289 22.8374C19.3544 23.0189 19.0029 23.2447 18.6753 23.4713C18.6293 23.4935 18.6054 23.5165 18.5584 23.5395C18.3477 23.6971 18.16 23.8556 17.9502 24.0141C17.8563 24.0822 17.7625 24.1734 17.6925 24.2407C17.5756 24.3532 17.4579 24.4665 17.3649 24.5798C17.0373 24.9189 16.4751 25.6423 16.4751 25.6423C15.5105 27.0136 14.9951 28.6504 15 30.3269V69.6914C15 72.0227 16.9665 73.9006 19.3783 73.9006C19.9866 73.9006 20.5488 73.7873 21.0641 73.5606L28.86 69.3302C30.2642 68.652 31.3886 67.4974 31.9739 66.072C32.1138 65.778 32.2306 65.4168 32.3015 65.0538C32.3245 64.9635 32.3484 64.8501 32.3484 64.7598C32.3484 64.7155 32.3714 64.6474 32.3714 64.6022C32.3953 64.4428 32.4184 64.2622 32.4184 64.1046C32.4184 63.9683 32.4423 63.8549 32.4423 63.7195V42.7693V36.2307C32.4423 34.3979 33.2612 32.7467 34.5495 31.593C35.1578 31.0503 35.9537 30.5748 36.8905 30.2587C37.8263 29.9187 59.9744 22.1822 59.9744 22.1822V9.12797L53.7235 7.34037Z" fill="url(#paint2_linear_264_7)"/>
<path d="M53.7235 7.34037C52.924 7.11208 52.0963 6.99791 51.2648 7.00126C49.8836 7.00126 48.5024 7.27308 47.2611 7.90613C47.0043 8.01946 19.7289 22.8374 19.7289 22.8374C19.3544 23.0189 19.0029 23.2447 18.6753 23.4713C18.6293 23.4935 18.6054 23.5165 18.5584 23.5395C18.3477 23.6971 18.16 23.8556 17.9502 24.0141C17.8563 24.0822 17.7625 24.1734 17.6925 24.2407C17.5756 24.3532 17.4579 24.4665 17.3649 24.5798C17.0373 24.9189 16.4751 25.6423 16.4751 25.6423C15.5105 27.0136 14.9951 28.6504 15 30.3269V69.6914C15 72.0227 16.9665 73.9006 19.3783 73.9006C19.9866 73.9006 20.5488 73.7873 21.0641 73.5606L28.86 69.3302C30.2642 68.652 31.3886 67.4974 31.9739 66.072C32.1138 65.778 32.2306 65.4168 32.3015 65.0538C32.3245 64.9635 32.3484 64.8501 32.3484 64.7598C32.3484 64.7155 32.3714 64.6474 32.3714 64.6022C32.3953 64.4428 32.4184 64.2622 32.4184 64.1046C32.4184 63.9683 32.4423 63.8549 32.4423 63.7195V42.7693V36.2307C32.4423 34.3979 33.2612 32.7467 34.5495 31.593C35.1578 31.0503 35.9537 30.5748 36.8905 30.2587C37.8263 29.9187 59.9744 22.1822 59.9744 22.1822V9.12797L53.7235 7.34037Z" fill="url(#paint3_linear_264_7)"/>
<path d="M78.6579 14.3942L54.0989 7.45007C57.6573 8.78524 59.8805 11.7938 59.8805 15.4593C59.8805 15.4593 59.8584 82.0408 59.8805 83.6469C59.9044 87.2664 57.5165 90.3661 54.0989 91.5198C54.8479 91.3162 78.6579 84.6872 78.6579 84.6872C82.1924 83.6017 84.7449 80.4338 84.7449 76.6567V22.4247C84.768 18.6706 82.1924 15.4797 78.6579 14.3942Z" fill="url(#paint4_linear_264_7)"/>
</g>
<defs>
<linearGradient id="paint0_linear_264_7" x1="30.0003" y1="80.8075" x2="90.8524" y2="86.3173" gradientUnits="userSpaceOnUse">
<stop stop-color="#F32B44"/>
<stop offset="0.6" stop-color="#A4070A"/>
</linearGradient>
<linearGradient id="paint1_linear_264_7" x1="71.2357" y1="84.2941" x2="44.2206" y2="81.8478" gradientUnits="userSpaceOnUse">
<stop stop-opacity="0.4"/>
<stop offset="1" stop-opacity="0"/>
</linearGradient>
<linearGradient id="paint2_linear_264_7" x1="54.6107" y1="4.06884" x2="9.77533" y2="70.3307" gradientUnits="userSpaceOnUse">
<stop stop-color="#800600"/>
<stop offset="0.6" stop-color="#C72127"/>
<stop offset="0.728" stop-color="#C13959"/>
<stop offset="0.847" stop-color="#BC4B81"/>
<stop offset="0.942" stop-color="#B95799"/>
<stop offset="1" stop-color="#B85BA2"/>
</linearGradient>
<linearGradient id="paint3_linear_264_7" x1="55.5713" y1="2.74253" x2="46.0764" y2="16.7751" gradientUnits="userSpaceOnUse">
<stop stop-opacity="0.4"/>
<stop offset="1" stop-opacity="0"/>
</linearGradient>
<linearGradient id="paint4_linear_264_7" x1="69.4392" y1="2.67427" x2="69.4392" y2="85.6072" gradientUnits="userSpaceOnUse">
<stop stop-color="#FFB900"/>
<stop offset="0.166" stop-color="#EF8400"/>
<stop offset="0.313" stop-color="#E25C01"/>
<stop offset="0.429" stop-color="#DB4401"/>
<stop offset="0.5" stop-color="#D83B01"/>
</linearGradient>
<clipPath id="clip0_264_7">
<rect width="69.768" height="85" fill="white" transform="translate(15 7)"/>
</clipPath>
</defs>
</svg>
