<svg width="100" height="100" viewBox="0 0 100 100" fill="none" xmlns="http://www.w3.org/2000/svg">
<rect width="100" height="100" rx="24" fill="white"/>
<g clip-path="url(#clip0_269_17)">
<path d="M42.0717 8.98181L41.6377 9.24436C40.9472 9.66202 40.2968 10.129 39.6898 10.6393L40.9418 9.7586H51.5682L53.5 24.3864L43.8409 34.0455L34.1818 40.7593V48.5011C34.1818 53.9082 37.0079 58.9222 41.6336 61.7222L51.8021 67.8772L30.3182 80.4095H26.1746L18.4517 75.7349C13.826 72.9349 11 67.9208 11 62.5137V36.4807C11 31.0718 13.8278 26.0564 18.4559 23.257L41.6377 9.23486C41.7814 9.14797 41.9261 9.06362 42.0717 8.98181Z" fill="url(#paint0_radial_269_17)"/>
<path d="M42.0717 8.98181L41.6377 9.24436C40.9472 9.66202 40.2968 10.129 39.6898 10.6393L40.9418 9.7586H51.5682L53.5 24.3864L43.8409 34.0455L34.1818 40.7593V48.5011C34.1818 53.9082 37.0079 58.9222 41.6336 61.7222L51.8021 67.8772L30.3182 80.4095H26.1746L18.4517 75.7349C13.826 72.9349 11 67.9208 11 62.5137V36.4807C11 31.0718 13.8278 26.0564 18.4559 23.257L41.6377 9.23486C41.7814 9.14797 41.9261 9.06362 42.0717 8.98181Z" fill="url(#paint1_linear_269_17)"/>
<path d="M65.0909 39.8409V48.496C65.0909 53.9032 62.2648 58.9172 57.6391 61.7172L34.4573 75.7492C29.715 78.6196 23.8147 78.7232 18.989 76.06L41.6334 89.7668C46.553 92.7447 52.7193 92.7447 57.6391 89.7668L80.8209 75.7347C85.4467 72.9347 88.2725 67.9207 88.2725 62.5135V56.2614L86.3407 53.3636L65.0909 39.8409Z" fill="url(#paint2_radial_269_17)"/>
<path d="M65.0909 39.8409V48.496C65.0909 53.9032 62.2648 58.9172 57.6391 61.7172L34.4573 75.7492C29.715 78.6196 23.8147 78.7232 18.989 76.06L41.6334 89.7668C46.553 92.7447 52.7193 92.7447 57.6391 89.7668L80.8209 75.7347C85.4467 72.9347 88.2725 67.9207 88.2725 62.5135V56.2614L86.3407 53.3636L65.0909 39.8409Z" fill="url(#paint3_linear_269_17)"/>
<path d="M80.8169 23.2568L57.6351 9.2347C52.8698 6.35229 46.9359 6.263 42.0982 8.96681L41.6377 9.24538C37.0096 12.0448 34.1818 17.0601 34.1818 22.469V40.7902L41.6377 36.2802C46.5553 33.3058 52.7174 33.3058 57.6351 36.2802L80.8169 50.3023C85.3002 53.0144 88.0942 57.8057 88.2644 63.0198C88.27 62.8514 88.2727 62.6827 88.2727 62.5135V36.4805C88.2727 31.0716 85.4449 26.0562 80.8169 23.2568Z" fill="url(#paint4_radial_269_17)"/>
<path d="M80.8169 23.2568L57.6351 9.2347C52.8698 6.35229 46.9359 6.263 42.0982 8.96681L41.6377 9.24538C37.0096 12.0448 34.1818 17.0601 34.1818 22.469V40.7902L41.6377 36.2802C46.5553 33.3058 52.7174 33.3058 57.6351 36.2802L80.8169 50.3023C85.3002 53.0144 88.0942 57.8057 88.2644 63.0198C88.27 62.8514 88.2727 62.6827 88.2727 62.5135V36.4805C88.2727 31.0716 85.4449 26.0562 80.8169 23.2568Z" fill="url(#paint5_linear_269_17)"/>
</g>
<defs>
<radialGradient id="paint0_radial_269_17" cx="0" cy="0" r="1" gradientUnits="userSpaceOnUse" gradientTransform="translate(36.9223 23.6876) rotate(110.528) scale(64.4565 112.425)">
<stop offset="0.06441" stop-color="#AE7FE2"/>
<stop offset="1" stop-color="#0078D4"/>
</radialGradient>
<linearGradient id="paint1_linear_269_17" x1="37.1025" y1="76.2914" x2="27.9059" y2="60.3852" gradientUnits="userSpaceOnUse">
<stop stop-color="#114A8B"/>
<stop offset="1" stop-color="#0078D4" stop-opacity="0"/>
</linearGradient>
<radialGradient id="paint2_radial_269_17" cx="0" cy="0" r="1" gradientUnits="userSpaceOnUse" gradientTransform="translate(23.4214 73.3601) rotate(-8.36717) scale(59.9835 39.6231)">
<stop offset="0.133928" stop-color="#D59DFF"/>
<stop offset="1" stop-color="#5E438F"/>
</radialGradient>
<linearGradient id="paint3_linear_269_17" x1="81.2343" y1="52.1597" x2="71.3793" y2="66.2906" gradientUnits="userSpaceOnUse">
<stop stop-color="#493474"/>
<stop offset="1" stop-color="#8C66BA" stop-opacity="0"/>
</linearGradient>
<radialGradient id="paint4_radial_269_17" cx="0" cy="0" r="1" gradientUnits="userSpaceOnUse" gradientTransform="translate(82.5839 54.3373) rotate(-165.772) scale(48.1463 81.0498)">
<stop offset="0.0584996" stop-color="#50E6FF"/>
<stop offset="1" stop-color="#436DCD"/>
</radialGradient>
<linearGradient id="paint5_linear_269_17" x1="36.0669" y1="9.04107" x2="50.5768" y2="9.04107" gradientUnits="userSpaceOnUse">
<stop stop-color="#2D3F80"/>
<stop offset="1" stop-color="#436DCD" stop-opacity="0"/>
</linearGradient>
<clipPath id="clip0_269_17">
<rect width="77.2727" height="85" fill="white" transform="translate(11 7)"/>
</clipPath>
</defs>
</svg>
