<svg width="100" height="100" viewBox="0 0 100 100" fill="none" xmlns="http://www.w3.org/2000/svg">
<rect width="100" height="100" rx="24" fill="white"/>
<g clip-path="url(#clip0_224_968)">
<path d="M26.7675 61.3721V81.1395C26.7675 86.5973 41.3697 91.0232 59.3837 91.0232C77.3978 91.0232 92 86.5973 92 81.1395V61.3721H26.7675Z" fill="#881421"/>
<path d="M26.7675 39.6279V61.3721C26.7675 66.8299 41.3697 71.2558 59.3837 71.2558C77.3978 71.2558 92 66.8299 92 61.3721V39.6279H26.7675Z" fill="#AF2031"/>
<path d="M26.7675 17.8837V39.6279C26.7675 45.0857 41.3697 49.5116 59.3837 49.5116C77.3978 49.5116 92 45.0857 92 39.6279V17.8837H26.7675Z" fill="#C94F60"/>
<path d="M59.3837 27.7674C77.3972 27.7674 92 23.3423 92 17.8837C92 12.4251 77.3972 8 59.3837 8C41.3703 8 26.7675 12.4251 26.7675 17.8837C26.7675 23.3423 41.3703 27.7674 59.3837 27.7674Z" fill="#E08095"/>
<path opacity="0.1" d="M50.8185 25.7907H26.7675V75.2093H50.8185C52.8169 75.2027 54.4353 73.5843 54.4419 71.5859V29.4141C54.4354 27.4156 52.8169 25.7972 50.8185 25.7907Z" fill="black"/>
<path opacity="0.2" d="M48.8417 27.7674H26.7675V77.186H48.8417C50.8402 77.1795 52.4586 75.5611 52.4651 73.5626V31.3908C52.4586 29.3924 50.8402 27.7739 48.8417 27.7674Z" fill="black"/>
<path opacity="0.2" d="M48.8417 27.7674H26.7675V73.2325H48.8417C50.8402 73.226 52.4586 71.6076 52.4651 69.6091V31.3908C52.4586 29.3924 50.8402 27.7739 48.8417 27.7674Z" fill="black"/>
<path opacity="0.2" d="M46.865 27.7674H26.7675V73.2325H46.865C48.8634 73.226 50.4818 71.6076 50.4884 69.6091V31.3908C50.4819 29.3924 48.8634 27.7739 46.865 27.7674Z" fill="black"/>
<path d="M10.6234 27.7674H46.865C48.8661 27.7674 50.4884 29.3897 50.4884 31.3908V67.6324C50.4884 69.6335 48.8661 71.2558 46.865 71.2558H10.6234C8.62224 71.2558 7 69.6335 7 67.6324V31.3908C7 29.3897 8.62224 27.7674 10.6234 27.7674Z" fill="url(#paint0_linear_224_968)"/>
<path d="M26.1409 37.7322H31.4781L40.0532 61.289H35.0125L33.1227 55.6711H24.3005L22.4444 61.289H17.4353L26.1409 37.7322ZM31.9881 52.0418L29.2463 43.5161C29.0222 42.8912 28.8542 42.2475 28.7443 41.5928H28.6454C28.5435 42.2656 28.3787 42.9275 28.1532 43.5695L25.3858 52.0458L31.9881 52.0418Z" fill="white"/>
</g>
<defs>
<linearGradient id="paint0_linear_224_968" x1="14.5548" y1="24.9362" x2="42.9336" y2="74.087" gradientUnits="userSpaceOnUse">
<stop stop-color="#B72C3F"/>
<stop offset="0.5" stop-color="#B12334"/>
<stop offset="1" stop-color="#9D1623"/>
</linearGradient>
<clipPath id="clip0_224_968">
<rect width="85" height="83.0233" fill="white" transform="translate(7 8)"/>
</clipPath>
</defs>
</svg>
