<svg width="100" height="100" viewBox="0 0 100 100" fill="none" xmlns="http://www.w3.org/2000/svg">
<rect width="100" height="100" rx="24" fill="white"/>
<path d="M36.518 12.7942H59.5725L35.6397 83.7045C35.3937 84.4332 34.9254 85.0663 34.3007 85.5149C33.676 85.9634 32.9264 86.2048 32.1574 86.2049H14.2153C13.6326 86.205 13.0583 86.0663 12.5398 85.8004C12.0214 85.5344 11.5737 85.1489 11.2338 84.6756C10.8939 84.2023 10.6716 83.6549 10.5853 83.0786C10.499 82.5023 10.5511 81.9138 10.7374 81.3617L33.0348 15.2946C33.2807 14.5656 33.7491 13.9322 34.3739 13.4834C34.9988 13.0347 35.7487 12.7942 36.518 12.7942Z" fill="url(#paint0_linear_242_473)"/>
<path d="M70.0195 60.3561H33.4606C33.1207 60.3557 32.7886 60.4577 32.5075 60.6488C32.2264 60.8398 32.0094 61.1112 31.8847 61.4273C31.76 61.7435 31.7334 62.0899 31.8084 62.4214C31.8834 62.753 32.0565 63.0542 32.3052 63.2859L55.797 85.2124C56.481 85.8504 57.3816 86.2051 58.3169 86.2049H79.018L70.0195 60.3561Z" fill="#0078D4"/>
<path d="M36.518 12.7942C35.7403 12.7912 34.982 13.0369 34.3539 13.4955C33.7258 13.9542 33.2608 14.6016 33.0268 15.3433L10.7648 81.3015C10.566 81.8556 10.5036 82.4495 10.5828 83.0328C10.6621 83.6161 10.8806 84.1718 11.2201 84.6528C11.5595 85.1338 12.0098 85.526 12.5328 85.7961C13.0559 86.0663 13.6363 86.2065 14.225 86.2049H32.6301C33.3156 86.0825 33.9563 85.7802 34.4868 85.3291C35.0172 84.878 35.4184 84.2941 35.6494 83.6372L40.0889 70.5534L55.9467 85.3443C56.6112 85.894 57.4448 86.1979 58.3072 86.2049H78.9312L69.8858 60.3561L43.5172 60.3623L59.6557 12.7942H36.518Z" fill="url(#paint1_linear_242_473)"/>
<path d="M65.9643 15.291C65.7188 14.5633 65.2511 13.9308 64.6272 13.4829C64.0032 13.035 63.2545 12.7941 62.4864 12.7942H36.7925C37.5605 12.7942 38.3092 13.0351 38.9331 13.4831C39.557 13.931 40.0248 14.5633 40.2704 15.291L62.5687 81.3608C62.7551 81.913 62.8074 82.5017 62.7211 83.0781C62.6349 83.6545 62.4126 84.2021 62.0728 84.6756C61.7329 85.149 61.2852 85.5348 60.7666 85.8009C60.2481 86.067 59.6736 86.2058 59.0908 86.2058H84.7856C85.3684 86.2057 85.9427 86.0667 86.4611 85.8006C86.9795 85.5344 87.4271 85.1487 87.7669 84.6752C88.1067 84.2018 88.3289 83.6542 88.4151 83.0779C88.5013 82.5015 88.449 81.913 88.2626 81.3608L65.9643 15.291Z" fill="url(#paint2_linear_242_473)"/>
<defs>
<linearGradient id="paint0_linear_242_473" x1="44.9206" y1="18.2342" x2="20.9781" y2="88.9666" gradientUnits="userSpaceOnUse">
<stop stop-color="#114A8B"/>
<stop offset="1" stop-color="#0669BC"/>
</linearGradient>
<linearGradient id="paint1_linear_242_473" x1="52.3997" y1="51.1973" x2="46.8614" y2="53.07" gradientUnits="userSpaceOnUse">
<stop stop-opacity="0.3"/>
<stop offset="0.071" stop-opacity="0.2"/>
<stop offset="0.321" stop-opacity="0.1"/>
<stop offset="0.623" stop-opacity="0.05"/>
<stop offset="1" stop-opacity="0"/>
</linearGradient>
<linearGradient id="paint2_linear_242_473" x1="49.3539" y1="16.1711" x2="75.6357" y2="86.1908" gradientUnits="userSpaceOnUse">
<stop stop-color="#3CCBF4"/>
<stop offset="1" stop-color="#2892DF"/>
</linearGradient>
</defs>
</svg>
