<svg width="100" height="100" viewBox="0 0 100 100" fill="none" xmlns="http://www.w3.org/2000/svg">
<rect width="100" height="100" rx="24" fill="white"/>
<g clip-path="url(#clip0_223_963)">
<path d="M88.3766 10H30.3908C28.3897 10 26.7675 11.6222 26.7675 13.6234V29.7674L60.3721 39.6512L92 29.7674V13.6234C92 11.6222 90.3778 10 88.3766 10Z" fill="#41A5EE"/>
<path d="M92 29.7675H26.7675V49.5349L60.3721 55.4651L92 49.5349V29.7675Z" fill="#2B7CD3"/>
<path d="M26.7675 49.5349V69.3023L58.3954 73.2558L92 69.3023V49.5349H26.7675Z" fill="#185ABD"/>
<path d="M30.3908 89.0698H88.3767C90.3778 89.0698 92.0001 87.4475 92.0001 85.4464V69.3023H26.7675V85.4464C26.7675 87.4475 28.3897 89.0698 30.3908 89.0698Z" fill="#103F91"/>
<path opacity="0.1" d="M50.8185 25.814H26.7675V75.2326H50.8185C52.8169 75.2261 54.4354 73.6076 54.4419 71.6092V29.4373C54.4354 27.4389 52.8169 25.8205 50.8185 25.814Z" fill="black"/>
<path opacity="0.2" d="M48.8417 27.7907H26.7675V77.2093H48.8417C50.8402 77.2028 52.4586 75.5844 52.4651 73.5859V31.4141C52.4586 29.4157 50.8402 27.7972 48.8417 27.7907Z" fill="black"/>
<path opacity="0.2" d="M48.8417 27.7907H26.7675V73.2558H48.8417C50.8402 73.2493 52.4586 71.6309 52.4651 69.6324V31.4141C52.4586 29.4157 50.8402 27.7972 48.8417 27.7907Z" fill="black"/>
<path opacity="0.2" d="M46.865 27.7907H26.7675V73.2558H46.865C48.8634 73.2493 50.4819 71.6309 50.4884 69.6324V31.4141C50.4819 29.4157 48.8634 27.7972 46.865 27.7907Z" fill="black"/>
<path d="M10.6234 27.7907H46.865C48.8661 27.7907 50.4884 29.413 50.4884 31.4141V67.6557C50.4884 69.6569 48.8661 71.2791 46.865 71.2791H10.6234C8.62224 71.2791 7 69.6569 7 67.6557V31.4141C7 29.413 8.62224 27.7907 10.6234 27.7907Z" fill="url(#paint0_linear_223_963)"/>
<path d="M21.8691 55.5798C21.9402 56.1392 21.9877 56.6255 22.0094 57.0426H22.0924C22.124 56.6472 22.1899 56.1708 22.2901 55.6134C22.3903 55.056 22.4805 54.5848 22.5609 54.2001L26.3721 37.7575H31.3001L35.2536 53.953C35.4833 54.96 35.6477 55.9808 35.7458 57.009H35.8111C35.8848 56.0128 36.0221 55.0225 36.2222 54.0439L39.3751 37.7496H43.8604L38.3215 61.3124H33.0812L29.3254 45.7079C29.2166 45.2592 29.0921 44.6721 28.9557 43.9506C28.8193 43.2291 28.7343 42.7013 28.7007 42.3692H28.6355C28.592 42.7527 28.507 43.322 28.3805 44.0771C28.2539 44.8322 28.1525 45.391 28.076 45.7534L24.5455 61.3084H19.2162L13.6478 37.7574H18.214L21.6476 54.2336C21.7248 54.5716 21.7979 55.0223 21.8691 55.5798Z" fill="white"/>
</g>
<defs>
<linearGradient id="paint0_linear_223_963" x1="14.5548" y1="24.9595" x2="42.9336" y2="74.1103" gradientUnits="userSpaceOnUse">
<stop stop-color="#2368C4"/>
<stop offset="0.5" stop-color="#1A5DBE"/>
<stop offset="1" stop-color="#1146AC"/>
</linearGradient>
<clipPath id="clip0_223_963">
<rect width="85" height="79.0698" fill="white" transform="translate(7 10)"/>
</clipPath>
</defs>
</svg>
