<svg width="100" height="100" viewBox="0 0 100 100" fill="none" xmlns="http://www.w3.org/2000/svg">
<rect width="100" height="100" rx="24" fill="white"/>
<g clip-path="url(#clip0_223_964)">
<path d="M60.3721 47.5581L26.7675 41.6279V85.4464C26.7675 87.4475 28.3897 89.0698 30.3908 89.0698H88.3767C90.3778 89.0698 92 87.4475 92 85.4464V69.3023L60.3721 47.5581Z" fill="#185C37"/>
<path d="M60.3721 10H30.3908C28.3897 10 26.7675 11.6222 26.7675 13.6234V29.7674L60.3721 49.5349L78.1628 55.4651L92 49.5349V29.7674L60.3721 10Z" fill="#21A366"/>
<path d="M26.7675 29.7675H60.3721V49.5349H26.7675V29.7675Z" fill="#107C41"/>
<path opacity="0.1" d="M50.8185 25.814H26.7675V75.2326H50.8185C52.8169 75.2261 54.4354 73.6076 54.4419 71.6092V29.4373C54.4354 27.4389 52.8169 25.8205 50.8185 25.814Z" fill="black"/>
<path opacity="0.2" d="M48.8418 27.7907H26.7675V77.2093H48.8418C50.8402 77.2028 52.4586 75.5844 52.4651 73.586V31.4141C52.4586 29.4156 50.8402 27.7972 48.8418 27.7907Z" fill="black"/>
<path opacity="0.2" d="M48.8418 27.7907H26.7675V73.2558H48.8418C50.8402 73.2493 52.4586 71.6309 52.4651 69.6325V31.4141C52.4586 29.4156 50.8402 27.7972 48.8418 27.7907Z" fill="black"/>
<path opacity="0.2" d="M46.865 27.7907H26.7675V73.2558H46.865C48.8634 73.2493 50.4819 71.6309 50.4884 69.6325V31.4141C50.4819 29.4156 48.8634 27.7972 46.865 27.7907Z" fill="black"/>
<path d="M10.6234 27.7907H46.865C48.8661 27.7907 50.4883 29.4129 50.4883 31.4141V67.6557C50.4883 69.6568 48.8661 71.279 46.865 71.279H10.6234C8.62223 71.2791 7 69.6569 7 67.6557V31.4141C7 29.4129 8.62223 27.7907 10.6234 27.7907Z" fill="url(#paint0_linear_223_964)"/>
<path d="M18.2219 61.3124L25.8442 49.5013L18.8604 37.7555H24.4783L28.2895 45.2671C28.6414 45.9807 28.8825 46.5105 29.013 46.8603H29.0624C29.3128 46.291 29.5763 45.7382 29.8531 45.2018L33.9271 37.7594H39.0845L31.9227 49.4361L39.2664 61.3123H33.7789L29.3767 53.0673C29.1693 52.7165 28.9934 52.3481 28.8509 51.9663H28.7857C28.6567 52.3403 28.4856 52.6984 28.2757 53.0337L23.743 61.3124H18.2219Z" fill="white"/>
<path d="M88.3766 10H60.3721V29.7674H92V13.6234C92 11.6222 90.3777 10 88.3766 10Z" fill="#33C481"/>
<path d="M60.3721 49.5349H92V69.3023H60.3721V49.5349Z" fill="#107C41"/>
</g>
<defs>
<linearGradient id="paint0_linear_223_964" x1="14.5548" y1="24.9595" x2="42.9336" y2="74.1103" gradientUnits="userSpaceOnUse">
<stop stop-color="#18884F"/>
<stop offset="0.5" stop-color="#117E43"/>
<stop offset="1" stop-color="#0B6631"/>
</linearGradient>
<clipPath id="clip0_223_964">
<rect width="85" height="79.0698" fill="white" transform="translate(7 10)"/>
</clipPath>
</defs>
</svg>
