<svg width="100" height="100" viewBox="0 0 100 100" fill="none" xmlns="http://www.w3.org/2000/svg">
<rect width="100" height="100" rx="24" fill="white"/>
<g clip-path="url(#clip0_262_3)">
<path d="M92 51.5116C92.0046 50.847 91.6612 50.2284 91.0946 49.8808H91.0847L91.0491 49.861L61.5956 32.4262C61.4685 32.3402 61.3365 32.2617 61.2003 32.1909C60.0631 31.6042 58.7122 31.6042 57.5749 32.1909C57.4387 32.2617 57.3068 32.3402 57.1796 32.4262L27.7262 49.861L27.6906 49.8808C26.7904 50.4406 26.5145 51.6242 27.0743 52.5244C27.2392 52.7896 27.4664 53.0106 27.7361 53.1681L57.1896 70.603C57.3172 70.6882 57.4491 70.7667 57.5849 70.8383C58.7221 71.425 60.073 71.425 61.2103 70.8383C61.346 70.7667 61.478 70.6882 61.6056 70.603L91.0591 53.1681C91.6475 52.8251 92.0067 52.1927 92 51.5116Z" fill="#0A2767"/>
<path d="M31.1598 39.8706H50.4884V57.5881H31.1598V39.8706ZM88.0465 21.8605V13.7558C88.0929 11.7294 86.489 10.0486 84.4627 10H34.3048C32.2785 10.0486 30.6745 11.7294 30.721 13.7558V21.8605L60.3721 29.7674L88.0465 21.8605Z" fill="#0364B8"/>
<path d="M30.7209 21.8604H50.4884V39.6511H30.7209V21.8604Z" fill="#0078D4"/>
<path d="M70.2557 21.8604H50.4883V39.6511L70.2557 57.4418H88.0464V39.6511L70.2557 21.8604Z" fill="#28A8EA"/>
<path d="M50.4883 39.6511H70.2557V57.4418H50.4883V39.6511Z" fill="#0078D4"/>
<path d="M50.4883 57.4418H70.2557V75.2325H50.4883V57.4418Z" fill="#0364B8"/>
<path d="M31.1597 57.5881H50.4883V73.6946H31.1597V57.5881Z" fill="#14447D"/>
<path d="M70.2557 57.4418H88.0464V75.2325H70.2557V57.4418Z" fill="#0078D4"/>
<path d="M91.0946 53.0594L91.0571 53.0792L61.6036 69.6443C61.4751 69.7233 61.3446 69.7984 61.2082 69.8656C60.7079 70.1039 60.1646 70.2383 59.611 70.261L58.0019 69.3201C57.866 69.2518 57.734 69.1759 57.6066 69.0927L27.7578 52.0572H27.744L26.7675 51.5116V85.0451C26.7827 87.2824 28.6082 89.0839 30.8455 89.0697H87.9852C88.0188 89.0697 88.0484 89.0539 88.084 89.0539C88.5566 89.0237 89.0224 88.9265 89.4677 88.7653C89.6601 88.6838 89.8459 88.5873 90.0232 88.4767C90.1556 88.4016 90.3829 88.2375 90.3829 88.2375C91.3956 87.4882 91.9949 86.3048 91.9999 85.0451V51.5116C91.9993 52.153 91.6533 52.7444 91.0946 53.0594Z" fill="url(#paint0_linear_262_3)"/>
<path opacity="0.5" d="M90.4185 51.3792V53.435L59.6209 74.6395L27.736 52.071C27.736 52.0601 27.7271 52.0512 27.7162 52.0512L24.7906 50.2919V48.8094L25.9965 48.7896L28.5464 50.2524L28.6057 50.2722L28.8232 50.4105C28.8232 50.4105 58.7906 67.5094 58.8697 67.5489L60.0162 68.221C60.115 68.1814 60.2138 68.1419 60.3324 68.1023C60.3917 68.0628 90.0824 51.3593 90.0824 51.3593L90.4185 51.3792Z" fill="#0A2767"/>
<path d="M91.0946 53.0594L91.057 53.0811L61.6035 69.6462C61.475 69.7253 61.3446 69.8004 61.2082 69.8676C60.0643 70.4264 58.7267 70.4264 57.5828 69.8676C57.4474 69.8005 57.3154 69.7266 57.1875 69.6462L27.7341 53.0811L27.6985 53.0594C27.1299 52.7511 26.7734 52.1584 26.7675 51.5116V85.0451C26.7816 87.282 28.6065 89.0838 30.8433 89.0697C30.8433 89.0697 30.8434 89.0697 30.8435 89.0697H87.9239C90.1608 89.084 91.9857 87.2821 92 85.0452C92 85.0452 92 85.0452 92 85.0451V51.5116C91.9992 52.153 91.6533 52.7444 91.0946 53.0594Z" fill="#1490DF"/>
<path opacity="0.1" d="M62.0324 69.4011L61.5916 69.6482C61.4639 69.7295 61.3319 69.8041 61.1963 69.8716C60.7106 70.1099 60.1825 70.2497 59.6426 70.2827L70.8487 83.5348L90.3968 88.2454C90.9324 87.8408 91.3585 87.3087 91.6362 86.6976L62.0324 69.4011Z" fill="black"/>
<path opacity="0.05" d="M64.029 68.2783L61.5916 69.6482C61.4639 69.7295 61.3319 69.8041 61.1963 69.8716C60.7106 70.1099 60.1825 70.2497 59.6426 70.2827L64.8928 84.7584L90.4027 88.2394C91.4076 87.4849 91.9992 86.3017 91.9998 85.045V84.6121L64.029 68.2783Z" fill="black"/>
<path d="M30.8988 89.0697H87.918C88.7954 89.0741 89.6511 88.797 90.3592 88.279L58 69.324C57.864 69.2558 57.732 69.1799 57.6046 69.0967L27.7558 52.0611H27.742L26.7675 51.5116V84.9304C26.7652 87.2143 28.6149 89.0675 30.8988 89.0697Z" fill="#28A8EA"/>
<path opacity="0.1" d="M54.4419 29.4373V71.6013C54.4383 73.0796 53.5394 74.4084 52.1686 74.9617C51.7439 75.1442 51.2866 75.2384 50.8244 75.2385H26.7675V27.7907H30.721V25.814H50.8244C52.8214 25.8215 54.4375 27.4403 54.4419 29.4373Z" fill="black"/>
<path opacity="0.2" d="M52.4651 31.4141V73.5779C52.4701 74.0555 52.3689 74.5281 52.1686 74.9616C51.6196 76.3148 50.3079 77.2025 48.8477 77.2092H26.7675V27.7907H48.8477C49.4212 27.7849 49.9865 27.928 50.4884 28.2058C51.7001 28.8163 52.4647 30.0572 52.4651 31.4141Z" fill="black"/>
<path opacity="0.2" d="M52.4651 31.4141V69.6245C52.4555 71.6206 50.8438 73.2385 48.8477 73.2557H26.7675V27.7907H48.8477C49.4212 27.7849 49.9865 27.928 50.4884 28.2058C51.7001 28.8163 52.4647 30.0572 52.4651 31.4141Z" fill="black"/>
<path opacity="0.2" d="M50.4884 31.414V69.6245C50.4862 71.6237 48.8701 73.246 46.871 73.2557H26.7675V27.7907H46.8709C48.8699 27.7917 50.4894 29.4131 50.4883 31.4121C50.4884 31.4127 50.4884 31.4134 50.4884 31.414Z" fill="black"/>
<path d="M10.6234 27.7907H46.865C48.8661 27.7907 50.4883 29.4129 50.4883 31.414V67.6556C50.4883 69.6568 48.8661 71.279 46.865 71.279H10.6234C8.62221 71.279 7 69.6567 7 67.6556V31.414C7 29.4129 8.62226 27.7907 10.6234 27.7907Z" fill="url(#paint1_linear_262_3)"/>
<path d="M18.3248 42.9879C19.2178 41.0852 20.6593 39.4929 22.4641 38.4157C24.4629 37.2714 26.7386 36.7009 29.0408 36.7671C31.1745 36.7208 33.2799 37.2617 35.1271 38.3307C36.8639 39.3664 38.2627 40.884 39.1538 42.6992C40.1241 44.6995 40.6077 46.9009 40.5652 49.1237C40.6122 51.4467 40.1146 53.7485 39.1123 55.8446C38.2 57.7247 36.7568 59.2964 34.9611 60.3654C33.0427 61.4671 30.8591 62.0222 28.6474 61.9705C26.4681 62.0231 24.3162 61.4761 22.4266 60.3891C20.6748 59.352 19.2584 57.8327 18.3466 56.0126C17.3704 54.0412 16.8811 51.8647 16.9194 49.6653C16.8787 47.362 17.3592 45.0794 18.3248 42.9879ZM22.7369 53.7216C23.213 54.9244 24.0205 55.9676 25.0655 56.7302C26.1299 57.4741 27.4045 57.8579 28.7027 57.8253C30.0852 57.88 31.448 57.4831 32.585 56.6946C33.6168 55.9344 34.403 54.8884 34.8464 53.686C35.342 52.3431 35.5866 50.9206 35.5679 49.4894C35.5832 48.0444 35.3533 46.6074 34.8879 45.2394C34.4768 44.0043 33.716 42.9151 32.6977 42.1043C31.5892 41.2785 30.2301 40.8596 28.8489 40.9182C27.5226 40.8839 26.2195 41.2707 25.1268 42.0232C24.0641 42.789 23.2413 43.8414 22.7547 45.0575C21.6752 47.845 21.6695 50.9341 22.7388 53.7255L22.7369 53.7216Z" fill="white"/>
<path d="M70.2557 21.8604H88.0464V39.6511H70.2557V21.8604Z" fill="#50D9FF"/>
</g>
<defs>
<linearGradient id="paint0_linear_262_3" x1="59.3837" y1="51.5116" x2="59.3837" y2="89.0698" gradientUnits="userSpaceOnUse">
<stop stop-color="#35B8F1"/>
<stop offset="1" stop-color="#28A8EA"/>
</linearGradient>
<linearGradient id="paint1_linear_262_3" x1="14.5548" y1="24.9595" x2="42.9335" y2="74.1102" gradientUnits="userSpaceOnUse">
<stop stop-color="#1784D9"/>
<stop offset="0.5" stop-color="#107AD5"/>
<stop offset="1" stop-color="#0A63C9"/>
</linearGradient>
<clipPath id="clip0_262_3">
<rect width="85" height="79.0698" fill="white" transform="translate(7 10)"/>
</clipPath>
</defs>
</svg>
