<svg width="100" height="100" viewBox="0 0 100 100" fill="none" xmlns="http://www.w3.org/2000/svg">
<rect width="100" height="100" rx="24" fill="white"/>
<g clip-path="url(#clip0_268_86)">
<path d="M65.8512 18.9584H88.4909C90.4279 18.9584 92 20.5305 92 22.4675V77.7234C92 79.6604 90.4279 81.2325 88.4909 81.2325H65.8512C63.9143 81.2325 62.3422 79.6604 62.3422 77.7234V22.4675C62.3488 20.5305 63.9143 18.9584 65.8512 18.9584Z" fill="#038387"/>
<path d="M76.6902 88.2042H30.6613C28.6182 88.2042 26.9598 86.579 26.9598 84.5757V69.1531L56.1002 62.805L80.385 69.1531V84.5757C80.385 86.579 78.7267 88.2042 76.6902 88.2042Z" fill="#038387"/>
<path d="M76.5708 12H30.7806C28.6712 12 26.9598 13.6849 26.9664 15.7545V50.1021L54.4883 53.2795L80.3916 50.1021V15.7545C80.3916 13.6849 78.6802 12 76.5708 12Z" fill="#37C6D0"/>
<path d="M80.3916 50.1021H26.9664V69.1531H80.3916V50.1021Z" fill="#1A9BA1"/>
<path opacity="0.2" d="M51.7951 32.245V73.1199C51.8018 73.3255 51.7752 73.5378 51.7354 73.7434C51.4436 75.4747 49.9378 76.7483 48.1799 76.7417H26.9664V28.6232H48.1799C50.1766 28.6166 51.7951 30.2351 51.7951 32.2251C51.7951 32.2318 51.7951 32.2384 51.7951 32.245Z" fill="black"/>
<path opacity="0.1" d="M53.3473 32.245V70.0154C53.3208 72.8612 51.0257 75.1563 48.1799 75.1828H26.9664V27.071H48.1799C51.0257 27.0843 53.3341 29.3927 53.3473 32.245Z" fill="black"/>
<path opacity="0.2" d="M51.7951 32.245V70.0154C51.8018 72.0121 50.1832 73.6306 48.1932 73.6306C48.1866 73.6306 48.1866 73.6306 48.1799 73.6306H26.9664V28.6232H48.1799C50.1766 28.6166 51.7951 30.2351 51.7951 32.2251C51.7951 32.2318 51.7951 32.2384 51.7951 32.245Z" fill="black"/>
<path opacity="0.1" d="M50.2429 32.245V70.0154C50.2496 72.0121 48.631 73.6306 46.641 73.6306C46.6344 73.6306 46.6344 73.6306 46.6277 73.6306H26.9664V28.6232H46.6277C48.6244 28.6166 50.2429 30.2351 50.2429 32.2251C50.2429 32.2318 50.2429 32.2384 50.2429 32.245Z" fill="black"/>
<path d="M10.6218 28.4242H46.8334C48.8367 28.4242 50.4552 30.0428 50.4552 32.046V68.2576C50.4552 70.2609 48.8367 71.8794 46.8334 71.8794H10.6218C8.61854 71.8794 7 70.2609 7 68.2576V32.046C7 30.0494 8.61854 28.4242 10.6218 28.4242Z" fill="url(#paint0_linear_268_86)"/>
<path d="M29.0692 38.3278C31.3511 38.1753 33.6064 38.8519 35.4239 40.2383C36.9563 41.6512 37.7655 43.681 37.6262 45.7639C37.6528 47.2166 37.2747 48.6427 36.5384 49.8964C35.802 51.117 34.7208 52.0921 33.4406 52.709C31.9879 53.4055 30.3959 53.7504 28.7839 53.7106H24.3794V62.1217H19.8621V38.3278H29.0692ZM24.3728 50.0755H28.2665C29.507 50.1684 30.7342 49.7903 31.7026 49.0208C32.5185 48.2116 32.9431 47.0905 32.8635 45.943C32.8635 43.3228 31.3776 42.0094 28.4058 42.0094H24.3728V50.0755Z" fill="white"/>
<path opacity="0.2" d="M81.9703 18.9584H80.3916V81.2258H81.9703V18.9584Z" fill="black"/>
<path opacity="0.1" d="M83.5491 18.9584H81.9703V81.2258H83.5491V18.9584Z" fill="black"/>
</g>
<defs>
<linearGradient id="paint0_linear_268_86" x1="14.5495" y1="25.598" x2="42.9035" y2="74.7085" gradientUnits="userSpaceOnUse">
<stop stop-color="#058F92"/>
<stop offset="0.5" stop-color="#038489"/>
<stop offset="1" stop-color="#026D71"/>
</linearGradient>
<clipPath id="clip0_268_86">
<rect width="85" height="76.2042" fill="white" transform="translate(7 12)"/>
</clipPath>
</defs>
</svg>
