<svg width="100" height="100" viewBox="0 0 100 100" fill="none" xmlns="http://www.w3.org/2000/svg">
<rect width="100" height="100" rx="24" fill="white"/>
<g clip-path="url(#clip0_224_965)">
<path d="M58.3953 53.4884L52.4651 10H52.0223C30.4584 10.063 12.9931 27.5283 12.9302 49.0921V49.5349L58.3953 53.4884Z" fill="#ED6C47"/>
<path d="M52.9079 10H52.4651V49.5349L72.2325 57.4419L92 49.5349V49.0921C91.937 27.5283 74.4717 10.063 52.9079 10Z" fill="#FF8F6B"/>
<path d="M91.9999 49.5349V49.9698C91.938 71.5384 74.4686 89.0079 52.8999 89.0698H52.0302C30.4615 89.0079 12.9921 71.5384 12.9302 49.9698V49.5349H91.9999Z" fill="#D35230"/>
<path opacity="0.1" d="M54.4418 29.4314V71.6151C54.432 73.0809 53.5437 74.3977 52.1884 74.9558C51.7568 75.1383 51.293 75.2324 50.8244 75.2325H22.2605C21.707 74.6 21.1733 73.9279 20.6791 73.2558C15.6429 66.5375 12.9237 58.366 12.9302 49.9697V49.1C12.9187 41.5267 15.132 34.1168 19.2953 27.7906C19.7302 27.1186 20.1849 26.4465 20.6791 25.8139H50.8244C52.816 25.829 54.4268 27.4398 54.4418 29.4314Z" fill="black"/>
<path opacity="0.2" d="M52.4651 31.4082V73.5919C52.4651 74.0605 52.3709 74.5243 52.1884 74.9558C51.6303 76.3112 50.3135 77.1995 48.8477 77.2093H24.0593C23.4339 76.5744 22.8338 75.9149 22.2605 75.2326C21.707 74.6 21.1733 73.9279 20.6791 73.2558C15.6429 66.5376 12.9237 58.3661 12.9302 49.9698V49.1C12.9187 41.5268 15.132 34.1169 19.2953 27.7907H48.8477C50.8393 27.8058 52.4501 29.4166 52.4651 31.4082Z" fill="black"/>
<path opacity="0.2" d="M52.4651 31.4082V69.6384C52.4501 71.63 50.8393 73.2408 48.8477 73.2559H20.6791C15.6429 66.5376 12.9237 58.3661 12.9302 49.9698V49.1C12.9187 41.5268 15.132 34.1169 19.2953 27.7907H48.8476C50.8393 27.8057 52.4501 29.4165 52.4651 31.4082Z" fill="black"/>
<path opacity="0.2" d="M50.4884 31.4082V69.6384C50.4733 71.63 48.8625 73.2408 46.8709 73.2559H20.6791C15.6429 66.5376 12.9237 58.3661 12.9302 49.9698V49.1C12.9187 41.5268 15.132 34.1169 19.2953 27.7907H46.8709C48.8625 27.8057 50.4733 29.4165 50.4884 31.4082Z" fill="black"/>
<path d="M10.6234 27.7907H46.865C48.8661 27.7907 50.4883 29.413 50.4883 31.4141V67.6557C50.4883 69.6568 48.8661 71.2791 46.865 71.2791H10.6234C8.62226 71.2791 7 69.6568 7 67.6557V31.4141C7 29.413 8.62226 27.7907 10.6234 27.7907Z" fill="url(#paint0_linear_224_965)"/>
<path d="M29.1395 37.455C31.4987 37.2958 33.8376 37.9811 35.7379 39.3883C37.3228 40.8033 38.1697 42.868 38.0349 44.9884C38.0608 46.4624 37.668 47.9135 36.9022 49.1731C36.1269 50.4112 35.0099 51.3984 33.686 52.0157C32.1725 52.7196 30.5177 53.0672 28.8489 53.0318H24.2648V61.5515H19.5701V37.455H29.1395ZM24.2609 49.3511H28.3014C29.5823 49.4452 30.8533 49.0661 31.8734 48.2856C32.7171 47.4762 33.1594 46.3349 33.0812 45.1683C33.0812 42.5129 31.538 41.1852 28.4516 41.1852H24.261V49.3511H24.2609Z" fill="white"/>
</g>
<defs>
<linearGradient id="paint0_linear_224_965" x1="14.5548" y1="24.9595" x2="42.9336" y2="74.1103" gradientUnits="userSpaceOnUse">
<stop stop-color="#CA4C28"/>
<stop offset="0.5" stop-color="#C5401E"/>
<stop offset="1" stop-color="#B62F14"/>
</linearGradient>
<clipPath id="clip0_224_965">
<rect width="85" height="79.0698" fill="white" transform="translate(7 10)"/>
</clipPath>
</defs>
</svg>
