<svg width="100" height="100" viewBox="0 0 100 100" fill="none" xmlns="http://www.w3.org/2000/svg">
<rect width="100" height="100" rx="24" fill="white"/>
<g clip-path="url(#clip0_219_12)">
<path d="M49.5 92C72.9721 92 92 72.9721 92 49.5C92 26.0279 72.9721 7 49.5 7C26.0279 7 7 26.0279 7 49.5C7 72.9721 26.0279 92 49.5 92Z" fill="#004E8C"/>
<path opacity="0.1" d="M20.0422 18.9531C15.7218 22.8031 12.2331 27.4949 9.79003 32.7408C7.34697 37.9868 6.00099 43.6764 5.83459 49.4609C5.66819 55.2455 6.68488 61.0031 8.82234 66.3808C10.9598 71.7585 14.173 76.6431 18.265 80.735C22.357 84.827 27.2415 88.0402 32.6192 90.1777C37.9969 92.3151 43.7545 93.3318 49.5391 93.1654C55.3236 92.999 61.0132 91.6531 66.2592 89.21C71.5051 86.7669 76.1969 83.2783 80.0469 78.9578L20.0422 18.9531Z" fill="white"/>
<path d="M51.2133 32.7656L38.875 66.2344H34.5055L22.3665 32.7656H26.736L36.0329 59.3281C36.3535 60.2913 36.5803 61.2831 36.7102 62.2898H36.8032C36.9424 61.2568 37.1917 60.2417 37.5469 59.2617L47.0032 32.6992L51.2133 32.7656Z" fill="white"/>
<path d="M56.0344 66.2344V32.7656H65.5571C68.03 32.6333 70.4692 33.3867 72.4368 34.8906C73.2596 35.555 73.9179 36.4005 74.3602 37.3612C74.8025 38.3219 75.017 39.3717 74.9868 40.4289C75.0127 42.204 74.4577 43.939 73.4063 45.3695C72.3452 46.794 70.8558 47.8413 69.1563 48.3578V48.4508C71.2118 48.6164 73.1373 49.5225 74.5751 51.0008C75.9652 52.5331 76.6953 54.5517 76.6071 56.6187C76.6506 57.9359 76.3961 59.2459 75.8625 60.4509C75.329 61.6559 74.5302 62.7249 73.5258 63.5781C71.3523 65.3915 68.5851 66.3376 65.7563 66.2344H56.0344ZM60.0188 36.2984V47.1094H64.0032C65.8173 47.1947 67.6023 46.6295 69.0368 45.5156C69.6583 44.9742 70.1477 44.2978 70.4677 43.5381C70.7877 42.7785 70.9297 41.9558 70.8829 41.1328C70.8829 37.8833 68.7446 36.2586 64.468 36.2586L60.0188 36.2984ZM60.0188 50.6289V62.675H65.3313C67.2408 62.7857 69.1264 62.2059 70.6438 61.0414C71.2769 60.4865 71.7765 59.7957 72.1054 59.0207C72.4342 58.2458 72.5838 57.4065 72.543 56.5656C72.543 52.6167 69.8514 50.6422 64.468 50.6422L60.0188 50.6289Z" fill="white"/>
</g>
<defs>
<clipPath id="clip0_219_12">
<rect width="85" height="85" fill="white" transform="translate(7 7)"/>
</clipPath>
</defs>
</svg>
