<svg width="100" height="100" viewBox="0 0 100 100" fill="none" xmlns="http://www.w3.org/2000/svg">
<rect width="100" height="100" rx="24" fill="white"/>
<g clip-path="url(#clip0_267_84)">
<path d="M88.3456 87.172H40.0255C37.9952 87.172 36.371 85.5478 36.371 83.5175V62.4029L54.914 53.199L78.0589 62.4029H88.3456C90.3758 62.4029 92 64.0271 92 66.0573V83.5175C92 85.5478 90.3758 87.172 88.3456 87.172Z" fill="#185C37"/>
<path d="M64.1178 37.7691L42.4618 45.4841L17.828 37.7691V16.6545C17.828 14.6242 19.4522 13 21.4825 13H60.5987C62.629 13 64.2532 14.6242 64.2532 16.6545L64.1178 37.7691Z" fill="#33C481"/>
<path d="M17.828 37.7691H74.4044C76.4347 37.7691 78.0589 39.3933 78.0589 41.4236V62.5382H21.4825C19.4522 62.5382 17.828 60.914 17.828 58.8838V37.7691Z" fill="#21A366"/>
<path opacity="0.1" d="M36.371 76.3439H48.1465C49.906 76.3439 51.3949 75.1258 51.6656 73.3662V32.0844C51.6656 30.0541 50.0414 28.4299 48.1465 28.4299H17.828V58.7484C17.828 60.7787 19.4522 62.4029 21.4825 62.4029H36.371V76.3439Z" fill="black"/>
<path opacity="0.2" d="M48.1465 74.8551C50.9888 74.8551 53.2898 72.5541 53.2898 69.7118V32.0844C53.2898 29.242 50.9888 26.9411 48.1465 26.9411H17.828V58.8837C17.828 60.914 19.4522 62.5382 21.4825 62.5382H36.371V74.8551H48.1465Z" fill="black"/>
<path opacity="0.2" d="M48.1465 73.2309C50.1767 73.2309 51.8009 71.6067 51.8009 69.7118V32.0844C51.8009 30.0541 50.1767 28.4299 48.2818 28.4299H17.828V58.7484C17.828 60.7787 19.4522 62.4029 21.4825 62.4029H36.371V73.2309H48.1465Z" fill="black"/>
<path opacity="0.1" d="M46.6576 73.2309C48.6879 73.2309 50.3121 71.6067 50.3121 69.7118V32.0844C50.3121 30.0541 48.6879 28.4299 46.793 28.4299H17.828V58.7484C17.828 60.7787 19.4522 62.4029 21.4825 62.4029H36.371V73.2309H46.6576Z" fill="black"/>
<path d="M10.6545 28.4299H46.6576C48.6879 28.4299 50.3121 30.0541 50.3121 32.0844V68.0876C50.3121 70.1178 48.6879 71.742 46.6576 71.742H10.6545C8.6242 71.742 7 70.1178 7 68.0876V32.0844C7 30.0541 8.6242 28.4299 10.6545 28.4299Z" fill="url(#paint0_linear_267_84)"/>
<path d="M29.3328 38.0398C31.6338 37.9045 33.9347 38.5812 35.6943 39.9347C37.1831 41.4236 37.9952 43.4538 37.8599 45.4841C37.8599 46.9729 37.4538 48.3265 36.7771 49.68C35.965 50.8981 34.8822 51.8456 33.664 52.5223C32.1752 53.1991 30.551 53.6051 28.9267 53.4698H24.4602V61.9968H19.8583V38.0398H29.3328ZM24.5955 49.8153H28.5207C29.7388 49.9507 30.957 49.5446 32.0398 48.7325C32.8519 47.9204 33.258 46.8376 33.258 45.6194C33.258 42.9124 31.7691 41.6943 28.7914 41.6943H24.7309L24.5955 49.8153Z" fill="white"/>
</g>
<defs>
<linearGradient id="paint0_linear_267_84" x1="14.5313" y1="25.6201" x2="42.737" y2="74.476" gradientUnits="userSpaceOnUse">
<stop stop-color="#18884F"/>
<stop offset="0.5" stop-color="#117E43"/>
<stop offset="1" stop-color="#0B6631"/>
</linearGradient>
<clipPath id="clip0_267_84">
<rect width="85" height="74.172" fill="white" transform="translate(7 13)"/>
</clipPath>
</defs>
</svg>
