<svg width="100" height="100" viewBox="0 0 100 100" fill="none" xmlns="http://www.w3.org/2000/svg">
<rect width="100" height="100" rx="24" fill="white"/>
<g clip-path="url(#clip0_267_85)">
<path d="M50.4883 55.4497C63.589 55.4497 74.2092 44.8295 74.2092 31.7288C74.2092 18.6281 63.589 8.0079 50.4883 8.0079C37.3876 8.0079 26.7674 18.6281 26.7674 31.7288C26.7674 44.8295 37.3876 55.4497 50.4883 55.4497Z" fill="#036C70"/>
<path d="M70.2558 75.2172C82.2648 75.2172 92 65.482 92 53.473C92 41.464 82.2648 31.7288 70.2558 31.7288C58.2468 31.7288 48.5116 41.464 48.5116 53.473C48.5116 65.482 58.2468 75.2172 70.2558 75.2172Z" fill="#1A9BA1"/>
<path d="M53.4534 91.0311C62.7331 91.0311 70.2557 83.5085 70.2557 74.2288C70.2557 64.9492 62.7331 57.4265 53.4534 57.4265C44.1738 57.4265 36.6511 64.9492 36.6511 74.2288C36.6511 83.5085 44.1738 91.0311 53.4534 91.0311Z" fill="#37C6D0"/>
<path opacity="0.1" d="M54.4418 29.416V71.5997C54.432 73.0655 53.5438 74.3823 52.1883 74.9404C51.7568 75.1229 51.293 75.217 50.8244 75.2172H36.6709C36.6511 74.8811 36.6511 74.5648 36.6511 74.2288C36.6446 73.8988 36.6577 73.5688 36.6907 73.2404C37.0525 66.9217 40.9451 61.3466 46.7523 58.8299V55.1532C33.8282 53.1051 25.0113 40.9678 27.0594 28.0436C27.0736 27.9541 27.0883 27.8647 27.1035 27.7753C27.2019 27.1086 27.3405 26.4485 27.5186 25.7986H50.8244C52.8191 25.8062 54.4342 27.4213 54.4418 29.416Z" fill="black"/>
<path opacity="0.2" d="M48.8477 27.7753H27.1035C24.9069 40.6762 33.5844 52.9151 46.4852 55.1116C46.8758 55.1782 47.2681 55.2349 47.6616 55.2817C41.5337 58.1875 37.0682 66.4404 36.6887 73.2404C36.6558 73.5688 36.6426 73.8988 36.6491 74.2288C36.6491 74.5648 36.6491 74.8811 36.6689 75.2172C36.7046 75.8816 36.7905 76.5424 36.9258 77.1939H48.8456C50.3114 77.1841 51.6282 76.2958 52.1863 74.9404C52.3689 74.5089 52.463 74.045 52.4631 73.5765V31.3928C52.4555 29.3988 50.8416 27.784 48.8477 27.7753Z" fill="black"/>
<path opacity="0.2" d="M48.8477 27.7753H27.1035C24.9074 40.6774 33.5862 52.9168 46.4882 55.113C46.7522 55.1579 47.0168 55.1983 47.2821 55.2343C41.3519 58.3496 37.0623 66.5828 36.6907 73.2404H48.8477C50.8392 73.2254 52.45 71.6146 52.4651 69.623V31.3928C52.4575 29.3981 50.8424 27.7829 48.8477 27.7753Z" fill="black"/>
<path opacity="0.2" d="M46.8709 27.7753H27.1035C25.0298 39.955 32.6617 51.6841 44.6372 54.7223C40.1027 59.9031 37.3214 66.3844 36.6907 73.2404H46.871C48.8656 73.2329 50.4808 71.6177 50.4884 69.623V31.3928C50.4873 29.3954 48.8683 27.7764 46.8709 27.7753Z" fill="black"/>
<path d="M10.6234 27.7753H46.865C48.8661 27.7753 50.4883 29.3976 50.4883 31.3987V67.6403C50.4883 69.6414 48.8661 71.2637 46.865 71.2637H10.6234C8.62224 71.2637 7 69.6414 7 67.6403V31.3987C7 29.3976 8.62224 27.7753 10.6234 27.7753Z" fill="url(#paint0_linear_267_85)"/>
<path d="M23.1836 49.0767C22.3344 48.5135 21.6252 47.7636 21.11 46.8845C20.6108 45.9654 20.362 44.9313 20.3885 43.8858C20.344 42.4701 20.8217 41.0876 21.7307 40.0015C22.6858 38.914 23.9204 38.1086 25.3007 37.6728C26.8737 37.1551 28.5213 36.9 30.1773 36.9177C32.3549 36.8382 34.5296 37.1426 36.6017 37.8172V42.3637C35.7013 41.8183 34.7207 41.418 33.6959 41.1777C32.5838 40.9049 31.4428 40.7682 30.2978 40.7704C29.0905 40.7261 27.8908 40.98 26.8049 41.5097C26.3947 41.6867 26.0452 41.9796 25.7994 42.3526C25.5535 42.7256 25.4221 43.1623 25.4212 43.609C25.4178 44.1629 25.6306 44.6962 26.0142 45.0956C26.4674 45.5665 27.0035 45.9498 27.5957 46.2263C28.2546 46.5544 29.2429 46.9906 30.5608 47.5349C30.7059 47.5808 30.8473 47.6376 30.9838 47.7049C32.2808 48.2118 33.532 48.8288 34.7238 49.5492C35.6263 50.1057 36.3838 50.8686 36.9338 51.775C37.4977 52.8026 37.7711 53.9643 37.7245 55.1355C37.7889 56.5889 37.3443 58.0192 36.4673 59.1799C35.5932 60.247 34.4245 61.0335 33.1068 61.4413C31.5569 61.9271 29.9393 62.162 28.3152 62.1371C26.858 62.1437 25.403 62.0247 23.9664 61.7813C22.7533 61.5828 21.5694 61.2349 20.4418 60.7454V55.9519C21.5197 56.7217 22.7239 57.297 24 57.6519C25.2718 58.0482 26.5938 58.2599 27.9258 58.2805C29.1585 58.3586 30.3891 58.0974 31.4839 57.5254C31.8603 57.313 32.172 57.0024 32.3858 56.6268C32.5995 56.2511 32.7073 55.8245 32.6977 55.3925C32.7002 55.0892 32.642 54.7886 32.5266 54.5082C32.4112 54.2277 32.2408 53.9733 32.0256 53.7597C31.4848 53.2288 30.8587 52.7924 30.1734 52.4689C29.3827 52.0735 28.2184 51.5523 26.6805 50.9052C25.457 50.4134 24.2856 49.8008 23.1836 49.0767Z" fill="white"/>
</g>
<defs>
<linearGradient id="paint0_linear_267_85" x1="14.5548" y1="24.9441" x2="42.9336" y2="74.0949" gradientUnits="userSpaceOnUse">
<stop stop-color="#058F92"/>
<stop offset="0.5" stop-color="#038489"/>
<stop offset="1" stop-color="#026D71"/>
</linearGradient>
<clipPath id="clip0_267_85">
<rect width="85" height="83.198" fill="white" transform="translate(7 8)"/>
</clipPath>
</defs>
</svg>
