<svg width="100" height="100" viewBox="0 0 100 100" fill="none" xmlns="http://www.w3.org/2000/svg">
<rect width="100" height="100" rx="24" fill="white"/>
<path d="M7 38.0038H14.9743C15.6993 38.0038 17.8741 37.7621 18.8407 41.1452C19.5656 43.32 20.5322 46.703 21.9821 51.7776H22.4654C23.9152 46.4614 25.1235 42.8367 25.6068 41.1452C26.5733 37.7621 28.9898 38.0038 29.9564 38.0038H37.4474V61.2018H29.7147V47.428H29.2314L25.1235 61.2018H19.324L15.216 47.428H14.491V61.2018H7M40.5888 38.0038H48.3215V51.7776H49.0464L54.121 40.4202C55.0876 38.2454 57.2624 38.0038 57.2624 38.0038H64.5118V61.2018H56.7791V47.428H56.2958L51.2212 58.7853C50.2547 60.9602 47.8382 61.2018 47.8382 61.2018H40.5888M74.9026 54.1941V61.2018H67.6532V49.1195H91.3345C90.3679 52.0193 86.9849 54.1941 83.1185 54.1941" fill="#0F754E"/>
<path d="M91.8178 47.6695C92.7844 43.3199 89.8847 38.0037 83.6019 38.0037H67.1699C67.6532 43.0782 72.0028 47.6695 76.5941 47.6695" fill="url(#paint0_linear_154_684)"/>
<defs>
<linearGradient id="paint0_linear_154_684" x1="88.9181" y1="34.8623" x2="69.5864" y2="34.8623" gradientUnits="userSpaceOnUse">
<stop stop-color="#1F5CD7"/>
<stop offset="1" stop-color="#02AEFF"/>
</linearGradient>
</defs>
</svg>
