<svg width="100" height="100" viewBox="0 0 100 100" fill="none" xmlns="http://www.w3.org/2000/svg">
<rect width="100" height="100" rx="24" fill="white"/>
<path d="M68.4734 40.8263C63.9954 21.0716 54.6621 15.8127 52.2813 12.0951C51.2995 10.4575 50.4298 8.75521 49.6781 7C49.5524 8.75493 49.3213 9.86053 47.8296 11.1914C44.8345 13.8618 32.1142 24.2276 31.0437 46.6731C30.0463 67.6006 46.4286 80.5052 48.593 81.839C50.2573 82.6579 52.2842 81.8565 53.2728 81.1048C61.17 75.685 71.9599 61.2361 68.4822 40.8263" fill="#10AA50"/>
<path d="M50.3567 70.6952C49.9443 75.8751 49.6489 78.8848 48.6018 81.8448C48.6018 81.8448 49.2892 86.7762 49.7718 92H51.4799C51.8873 88.3214 52.5094 84.6698 53.343 81.0639C51.1318 79.9758 50.4416 75.2404 50.3567 70.6952Z" fill="#B8C4C2"/>
<path d="M53.3401 81.0668C51.1055 80.0343 50.4591 75.1995 50.3597 70.6952C50.9123 63.265 51.0734 55.8108 50.8423 48.3637C50.7253 44.456 50.8979 12.1712 49.88 7.44459C50.5763 9.04544 51.3785 10.5981 52.2813 12.0922C54.6622 15.8127 63.9984 21.0716 68.4735 40.8263C71.9599 61.201 61.2285 75.6119 53.3401 81.0668Z" fill="#12924F"/>
</svg>
