<svg width="100" height="100" viewBox="0 0 100 100" fill="none" xmlns="http://www.w3.org/2000/svg">
<rect width="100" height="100" rx="24" fill="#660066"/>
<path d="M36.8882 50.2331C37.0318 50.5458 37.167 50.8669 37.2938 51.1964C37.4179 50.864 37.5561 50.537 37.7078 50.2162C37.8515 49.9036 38.0036 49.5909 38.1557 49.2951L42.4146 40.8957C42.4906 40.752 42.5667 40.6422 42.6512 40.5577C42.7272 40.4816 42.8202 40.4225 42.9216 40.3802C43.023 40.338 43.1328 40.3211 43.2596 40.3211H46.6396V56.9341H43.2427V47.3685C43.2427 46.9038 43.268 46.4052 43.3103 45.8644L38.9077 54.4075C38.7725 54.6779 38.5866 54.8722 38.3585 55.0159C38.1303 55.1511 37.8599 55.2187 37.5642 55.2187H37.0403C36.7445 55.2187 36.4826 55.1511 36.246 55.0159C36.0178 54.8807 35.8319 54.6779 35.6967 54.4075L31.2604 45.8559C31.2942 46.1263 31.3111 46.3883 31.328 46.6502C31.3449 46.9122 31.3533 47.1573 31.3533 47.377V56.9341H27.9564V40.3211H31.3364C31.4632 40.3211 31.573 40.338 31.6744 40.3802C31.7758 40.4225 31.8603 40.4732 31.9448 40.5577C32.0209 40.6337 32.1054 40.752 32.1814 40.8957L36.4572 49.3374C36.6009 49.6247 36.753 49.9205 36.8882 50.2331ZM64.8666 48.6191C64.8666 49.3374 64.7905 50.0219 64.6469 50.681C64.4948 51.3401 64.2835 51.9569 64.0047 52.5315C63.7258 53.1062 63.3878 53.647 62.9738 54.1371C62.5681 54.6356 62.1034 55.0666 61.5879 55.4468L65.7961 60.0437H62.6273C62.171 60.0437 61.7569 59.9846 61.3851 59.8747C61.0133 59.7649 60.6838 59.5452 60.3965 59.2072L58.3346 56.8918C57.9966 56.9594 57.6586 57.0101 57.3122 57.0524C56.9657 57.0862 56.6108 57.1115 56.2474 57.1115C54.9546 57.1115 53.7716 56.8918 52.7068 56.4609C51.6421 56.0299 50.7295 55.4299 49.9774 54.661C49.2169 53.9005 48.6339 52.9963 48.2198 51.9654C47.8058 50.9345 47.5945 49.8106 47.5945 48.6107C47.5945 47.4108 47.8058 46.2953 48.2198 45.256C48.6339 44.2251 49.2169 43.3209 49.9774 42.5604C50.7379 41.7999 51.6421 41.1999 52.7068 40.7689C53.7716 40.338 54.9461 40.1183 56.2474 40.1183C57.5403 40.1183 58.7149 40.338 59.7796 40.7774C60.8443 41.2168 61.7485 41.8168 62.5006 42.5773C63.2526 43.3378 63.8357 44.2335 64.2497 45.2729C64.6638 46.3038 64.8666 47.4192 64.8666 48.6191ZM60.9204 48.6191C60.9204 47.7995 60.8105 47.0559 60.5993 46.3967C60.388 45.7376 60.0838 45.1799 59.6782 44.7236C59.281 44.2673 58.7909 43.9209 58.2163 43.6758C57.6417 43.4307 56.9826 43.3124 56.239 43.3124C55.4954 43.3124 54.8278 43.4307 54.2448 43.6758C53.6617 43.9209 53.1716 44.2673 52.7744 44.7236C52.3773 45.1799 52.0731 45.7376 51.8534 46.3967C51.6421 47.0559 51.5323 47.791 51.5323 48.6191C51.5323 49.4472 51.6421 50.1909 51.8534 50.85C52.0646 51.5091 52.3688 52.0668 52.7744 52.5231C53.1716 52.9794 53.6617 53.3259 54.2448 53.5709C54.8278 53.8075 55.4869 53.9343 56.239 53.9343C56.9742 53.9343 57.6333 53.816 58.2163 53.5709C58.7909 53.3343 59.281 52.9794 59.6782 52.5231C60.0754 52.0668 60.3796 51.5091 60.5993 50.85C60.819 50.1909 60.9204 49.4472 60.9204 48.6191ZM77.2461 40.3126V43.3716H72.7421V56.9341H68.8889V43.3716H64.3849V40.3126H77.2461ZM92 40.3126V43.3716H87.3271V56.9341H83.4738V43.3716H78.9699V40.3126H92Z" fill="white"/>
<path d="M7.00842 41.69V44.3096H7.05912C14.191 44.3096 20.0047 50.0557 20.0639 57.1369H22.6074C22.5398 48.6276 15.5769 41.7154 7.00842 41.69ZM7.00842 47.0981V49.7177H7.05912C11.1912 49.7177 14.5629 53.0386 14.622 57.1369H17.1655C17.1063 51.6105 12.5771 47.1235 7.00842 47.0981ZM24.1453 50.3599V45.0785C23.4947 44.1913 22.6919 43.1773 21.8891 42.3914C20.9934 41.5041 19.9456 40.7014 18.9316 40H13.3207C18.2387 41.7661 22.1849 45.5602 24.1453 50.3599Z" fill="#660066"/>
<path d="M7.0507 49.7177H7V56.275C7 56.7482 7.38871 57.1369 7.86191 57.1369H14.6136C14.5544 53.0386 11.1913 49.7177 7.0507 49.7177ZM7.0507 44.3096H7V47.0981C12.5686 47.1235 17.0979 51.6021 17.1571 57.1369H20.047C19.9963 50.0557 14.1911 44.3096 7.0507 44.3096ZM24.1453 56.2834V50.3599C22.1849 45.5602 18.2387 41.7661 13.3292 40H7.86191C7.38871 40 7 40.3887 7 40.8619V41.6985C15.5684 41.7238 22.5398 48.6276 22.5905 57.1453H23.2834C23.7651 57.1369 24.1453 56.7566 24.1453 56.2834ZM21.8892 42.3914C22.6835 43.1857 23.4947 44.1913 24.1453 45.0785V40.8535C24.1457 40.7413 24.1238 40.6302 24.0811 40.5265C24.0383 40.4228 23.9754 40.3285 23.8961 40.2492C23.8168 40.1699 23.7226 40.1071 23.6189 40.0643C23.5152 40.0215 23.404 39.9997 23.2919 40H18.9401C19.9541 40.7014 21.0019 41.5041 21.8892 42.3914Z" fill="white"/>
</svg>
