<svg width="100" height="100" viewBox="0 0 100 100" fill="none" xmlns="http://www.w3.org/2000/svg">
<rect width="100" height="100" rx="24" fill="white"/>
<path d="M27.4354 73.5887H24.1557C24.0397 68.0527 23.7202 62.8482 23.198 57.9713H23.1689L18.1754 73.5887H15.6783L10.7146 57.9713H10.686C10.3178 62.6536 10.0859 67.8594 9.98952 73.5887H7C7.19267 66.6217 7.67687 60.09 8.45071 53.9931H12.5157L17.2469 68.3918H17.276L22.0363 53.9931H25.9258C26.7776 61.1344 27.2808 67.6668 27.4354 73.5887ZM41.6592 59.1311C40.3239 66.3777 38.562 71.6431 36.3755 74.9298C34.6719 77.4598 32.8054 78.7261 30.7729 78.7261C30.231 78.7261 29.5624 78.5626 28.7702 78.2381V76.4908C29.1574 76.5466 29.6118 76.5783 30.134 76.5783C31.0834 76.5783 31.8465 76.3171 32.4283 75.7936C33.1242 75.1561 33.4721 74.4393 33.4721 73.6464C33.4721 73.1026 33.2009 71.991 32.6596 70.3077L29.0604 59.1304H32.2825L34.8658 67.4899C35.4463 69.3881 35.6884 70.7133 35.5915 71.4681C37.0042 67.6953 37.991 63.5814 38.5531 59.1298H41.6592V59.1311Z" fill="#5D87A1"/>
<path d="M85.3169 73.5888H76.0004V53.9931H79.1344V71.1766H85.3169V73.5888ZM73.5616 74.0622L69.9592 72.2845C70.2787 72.0221 70.5841 71.7381 70.8592 71.4092C72.3904 69.6106 73.1541 66.9506 73.1541 63.4275C73.1541 56.9446 70.6101 53.7015 65.5203 53.7015C63.0245 53.7015 61.0775 54.5242 59.6851 56.1701C58.1552 57.97 57.3915 60.6205 57.3915 64.1246C57.3915 67.5692 58.0683 70.096 59.4227 71.6988C60.6618 73.1508 62.5295 73.8778 65.0272 73.8778C65.9588 73.8778 66.8138 73.7637 67.5927 73.5336L72.2826 76.2639L73.5616 74.0622ZM61.8919 69.6676C61.0984 68.3912 60.7017 66.3416 60.7017 63.5155C60.7017 58.5816 62.2006 56.1118 65.2015 56.1118C66.7701 56.1118 67.9197 56.7025 68.6549 57.8813C69.4471 59.1596 69.8458 61.1909 69.8458 63.9776C69.8458 68.9521 68.3456 71.4396 65.3466 71.4396C63.7774 71.4403 62.6277 70.8515 61.8919 69.6676ZM56.0257 68.1573C56.0257 69.8191 55.416 71.1823 54.1979 72.2502C52.9785 73.3137 51.3434 73.8467 49.2944 73.8467C47.3778 73.8467 45.5196 73.2345 43.7209 72.0164L44.5632 70.3337C46.1109 71.1088 47.5122 71.4941 48.7702 71.4941C49.951 71.4941 50.8737 71.2324 51.543 70.7133C52.2116 70.1924 52.6103 69.4616 52.6103 68.5376C52.6103 67.3733 51.7984 66.3783 50.309 65.5449C48.9356 64.7907 46.1889 63.2139 46.1889 63.2139C44.7001 62.1288 43.9548 60.964 43.9548 59.0449C43.9548 57.4567 44.5106 56.1745 45.6229 55.1992C46.7364 54.22 48.1732 53.732 49.9345 53.732C51.7534 53.732 53.4069 54.2193 54.8963 55.1839L54.1408 56.8672C52.867 56.326 51.6095 56.0554 50.3692 56.0554C49.3647 56.0554 48.589 56.2969 48.0496 56.7817C47.5059 57.2646 47.1706 57.8826 47.1706 58.6406C47.1706 59.7991 47.9996 60.8068 49.5295 61.6567C50.9213 62.4121 53.7365 64.0162 53.7365 64.0162C55.2633 65.0993 56.0257 66.2535 56.0257 68.1573Z" fill="#F8981D"/>
<path d="M89.2513 47.4297C87.3563 47.3815 85.8891 47.5723 84.6577 48.0933C84.3022 48.2352 83.7368 48.2352 83.6874 48.6846C83.8794 48.8747 83.9016 49.1814 84.0683 49.4438C84.3522 49.9173 84.8472 50.5542 85.2991 50.8863C85.7953 51.2666 86.2935 51.643 86.8157 51.9745C87.7366 52.5443 88.7804 52.8757 89.6778 53.4436C90.2007 53.7738 90.7204 54.2009 91.2439 54.5565C91.5012 54.746 91.666 55.0534 92 55.1719V55.0996C91.8327 54.8867 91.7851 54.5787 91.621 54.3416L90.9099 53.6559C90.2229 52.7331 89.3692 51.9276 88.4483 51.2659C87.6903 50.7437 86.0324 50.0339 85.725 49.1605L85.6768 49.1124C86.1978 49.0636 86.8157 48.8747 87.3107 48.7296C88.1162 48.5173 88.8508 48.5654 89.6772 48.3531C90.0575 48.258 90.4346 48.1389 90.8161 48.0216V47.8081C90.3877 47.3815 90.0822 46.8149 89.6316 46.4119C88.4261 45.3706 87.0978 44.3521 85.725 43.4997C84.9898 43.025 84.0442 42.7195 83.2615 42.3158C82.9795 42.1732 82.5042 42.1028 82.3381 41.8658C81.9135 41.3448 81.6745 40.6591 81.3665 40.0424C80.6821 38.7413 80.0172 37.2975 79.4265 35.9216C78.9994 34.9988 78.7395 34.0773 78.2186 33.2236C75.7785 29.1992 73.1287 26.7617 69.0561 24.3692C68.1808 23.871 67.1395 23.6587 66.0273 23.3976L64.2508 23.3038C63.8718 23.1377 63.4922 22.6871 63.1613 22.4742C61.8101 21.6224 58.3313 19.7762 57.3376 22.2137C56.6975 23.7544 58.2844 25.2691 58.8295 26.0506C59.2319 26.5931 59.7535 27.2104 60.0349 27.8264C60.2016 28.2289 60.2485 28.656 60.4152 29.0813C60.7942 30.1232 61.1485 31.2824 61.6466 32.2546C61.9065 32.7502 62.1898 33.2712 62.5219 33.7199C62.712 33.9823 63.0428 34.0982 63.1151 34.526C62.7849 34.9976 62.7589 35.7093 62.5694 36.3012C61.7176 38.9764 62.0503 42.2904 63.2577 44.2564C63.6354 44.8483 64.5366 46.1514 65.7421 45.652C66.8094 45.2261 66.573 43.8768 66.8797 42.6935C66.95 42.4077 66.9038 42.2201 67.0457 42.0325V42.0787C67.3759 42.741 67.7093 43.3792 68.0154 44.0434C68.75 45.2026 70.0289 46.4106 71.0943 47.2136C71.6615 47.642 72.1109 48.3747 72.8213 48.6364V48.5654H72.7744C72.6306 48.3531 72.4202 48.258 72.2313 48.0933C71.8041 47.6667 71.3313 47.1458 70.9999 46.673C70.0074 45.3465 69.129 43.878 68.3494 42.3627C67.9679 41.6275 67.639 40.8239 67.3316 40.0899C67.1883 39.8067 67.1883 39.3795 66.9507 39.2369C66.5945 39.7572 66.0754 40.2078 65.8156 40.8454C65.365 41.8652 65.3181 43.1194 65.1508 44.4237L65.0576 44.4693C64.3034 44.2798 64.041 43.4997 63.7546 42.8374C63.0454 41.1553 62.9262 38.4554 63.5416 36.5148C63.7064 36.0186 64.4194 34.4557 64.1348 33.9829C63.9922 33.5297 63.5182 33.2718 63.2583 32.915C62.9528 32.4663 62.6182 31.8984 62.4053 31.4003C61.8374 30.075 61.5516 28.6066 60.94 27.282C60.6541 26.6647 60.1579 26.0259 59.7561 25.4574C59.3048 24.8185 58.8086 24.3685 58.4518 23.6112C58.3339 23.3507 58.1685 22.9248 58.358 22.6415C58.4042 22.4514 58.5006 22.3804 58.6894 22.3328C58.9962 22.0736 59.8727 22.4032 60.1801 22.5458C61.0578 22.9007 61.7918 23.2322 62.5244 23.7291C62.8559 23.9667 63.2114 24.4167 63.6367 24.5352H64.1348C64.8909 24.7 65.7433 24.5808 66.4551 24.7951C67.7093 25.1981 68.8457 25.7895 69.8648 26.4277C72.9658 28.3943 75.5231 31.1886 77.2495 34.526C77.5328 35.0698 77.6532 35.568 77.9118 36.1352C78.4106 37.2963 79.0273 38.4802 79.5222 39.6165C80.0198 40.7288 80.4938 41.8645 81.2043 42.7886C81.5586 43.2854 82.982 43.5459 83.6202 43.8064C84.0924 44.0187 84.8276 44.2076 85.2535 44.4681C86.059 44.9643 86.8614 45.5341 87.6187 46.0798C87.9958 46.3637 89.181 46.9556 89.2513 47.4297ZM65.1007 26.8548C64.7738 26.8514 64.448 26.8915 64.1317 26.974V27.0215H64.1773C64.3681 27.3999 64.6995 27.6623 64.9359 27.9925C65.1267 28.3721 65.2921 28.7485 65.4791 29.1275L65.5247 29.0806C65.8587 28.8442 66.0247 28.4653 66.0247 27.8968C65.8809 27.7294 65.8587 27.5659 65.7389 27.3999C65.5995 27.1628 65.2921 27.045 65.1007 26.8548Z" fill="#5D87A1"/>
</svg>
