<svg width="100" height="100" viewBox="0 0 100 100" fill="none" xmlns="http://www.w3.org/2000/svg">
<rect width="100" height="100" rx="24" fill="white"/>
<path fill-rule="evenodd" clip-rule="evenodd" d="M57.0489 8C56.4344 8 55.8637 8.1318 55.3368 8.30743C56.4564 9.05375 57.071 10.0416 57.3784 11.1609C57.4005 11.3148 57.4443 11.4245 57.466 11.5781C57.4881 11.7099 57.5102 11.8413 57.5102 11.9731C57.5978 13.905 57.0051 14.1462 56.5879 15.288C55.9513 16.7589 56.1269 18.3391 56.8953 19.6124C56.9612 19.7659 57.0489 19.9415 57.159 20.0951C56.3246 14.5416 60.9565 13.7073 61.8125 11.9731C61.8784 10.4584 60.627 9.44883 59.6395 8.74632C58.6951 8.17563 57.839 8 57.0489 8ZM64.0298 9.25112C63.9414 9.75626 64.0077 9.62445 63.9856 9.88772C63.9638 10.0633 63.9638 10.2828 63.9418 10.4584C63.8979 10.634 63.8541 10.8097 63.7882 10.9853C63.7441 11.1609 63.6785 11.3365 63.6126 11.5122C63.5246 11.6878 63.459 11.8417 63.3714 12.017C63.3052 12.105 63.2613 12.1926 63.1954 12.2806L63.0636 12.4779C62.9539 12.6318 62.8442 12.7854 62.7345 12.9172C62.6027 13.049 62.4933 13.2025 62.3394 13.3123V13.3343C62.2076 13.4441 62.0761 13.5755 61.9222 13.6856C61.4613 14.0365 60.9344 14.3001 60.4513 14.6293C60.2978 14.739 60.1442 14.827 60.0124 14.9588C59.8589 15.0685 59.7271 15.1782 59.5956 15.3097C59.4417 15.4415 59.332 15.5733 59.2002 15.7268C59.0905 15.8587 58.959 16.0122 58.871 16.1661C58.7613 16.3196 58.6516 16.4732 58.5636 16.6271C58.476 16.8027 58.4101 16.9562 58.3224 17.1319C58.2565 17.3075 58.1906 17.4614 58.1468 17.6366C58.0882 17.8175 58.0368 18.0006 57.9929 18.1856C57.9712 18.2732 57.9712 18.383 57.9491 18.471C57.927 18.5586 57.927 18.6466 57.9053 18.7342C57.9053 18.9098 57.8832 19.1076 57.8832 19.2832C57.8832 19.4146 57.8832 19.5464 57.9053 19.6783C57.9053 19.8539 57.9274 20.0295 57.9712 20.2269C57.9933 20.4025 58.0371 20.5781 58.0809 20.7537C58.1468 20.9294 58.1906 21.105 58.2565 21.2803C58.3007 21.3903 58.3662 21.5001 58.4101 21.5881L53.3614 19.6341C52.5054 19.3929 51.6711 19.1731 50.815 18.9757L49.4321 18.6462C48.1111 18.3829 46.7778 18.1851 45.4372 18.0538C45.3931 18.0538 45.371 18.0317 45.3271 18.0317C44.0101 17.8999 42.7148 17.8344 41.3978 17.8344C40.4321 17.8344 39.4663 17.8782 38.5223 17.9441C37.1831 18.0317 35.844 18.2073 34.5053 18.4268C34.1758 18.471 33.8463 18.5365 33.5174 18.6024C32.8367 18.7342 32.1783 18.8878 31.5417 19.0417L30.5539 19.3049C30.2244 19.4367 29.9173 19.5903 29.6098 19.7221L28.8856 20.0516C28.8414 20.0733 28.7976 20.0733 28.7759 20.0951C28.5564 20.2048 28.3587 20.2928 28.161 20.4025C28.0955 20.4246 28.0513 20.4467 28.0075 20.4684C27.7663 20.5781 27.5248 20.7096 27.3271 20.8196C27.1735 20.8856 27.0196 20.9732 26.8882 21.0391C26.8223 21.0833 26.7343 21.1271 26.6905 21.1488C26.4927 21.2585 26.2954 21.3683 26.1198 21.4783C25.922 21.5877 25.7464 21.6978 25.5929 21.8075C25.4393 21.9172 25.2854 22.0049 25.154 22.1146C25.1319 22.1367 25.1098 22.1367 25.0881 22.1588C24.9563 22.2464 24.8027 22.3561 24.6709 22.4658L24.6268 22.51L24.2979 22.7733C24.2538 22.795 24.2096 22.8392 24.1661 22.8609C24.0564 22.9489 23.9467 23.0586 23.8366 23.1463C23.8149 23.1904 23.7711 23.2122 23.749 23.2342C23.6172 23.3661 23.4857 23.4754 23.3539 23.6072C23.3318 23.6072 23.3318 23.6293 23.3097 23.6514C23.1783 23.7611 23.0465 23.8926 22.9147 24.0244C22.8929 24.0465 22.8929 24.0686 22.8708 24.0686C22.7557 24.1803 22.6459 24.2974 22.5417 24.4195C22.4975 24.4636 22.432 24.5074 22.3881 24.5513C22.2784 24.6831 22.1466 24.8145 22.0148 24.9463C21.9927 24.9905 21.9489 25.0122 21.9272 25.0561C21.7515 25.2317 21.5976 25.4073 21.422 25.5829L21.3565 25.6488C21.0052 26.0218 20.6319 26.3952 20.2368 26.7243C19.8476 27.0716 19.437 27.3942 19.0074 27.6901C18.5817 27.9887 18.1422 28.2671 17.6904 28.5244C17.2424 28.7702 16.7807 28.9901 16.3075 29.1831C15.8406 29.3814 15.3645 29.5571 14.8807 29.7096C13.9588 29.9073 13.0148 30.2803 12.2025 30.3462C12.0269 30.3462 11.8295 30.3904 11.6539 30.4121C11.4562 30.4563 11.2806 30.5001 11.105 30.5439L10.5784 30.7416C10.4024 30.8072 10.2268 30.8952 10.0512 30.9828C9.89765 31.0926 9.72203 31.1805 9.56848 31.2903C9.4146 31.4 9.26105 31.5315 9.12925 31.6636C8.9757 31.7733 8.82216 31.9269 8.69035 32.0587C8.55855 32.2122 8.42709 32.344 8.31702 32.4976C8.2073 32.6732 8.07583 32.8271 7.98785 33.0024C7.87813 33.1562 7.7684 33.3319 7.68076 33.5075C7.59244 33.7049 7.50514 33.8805 7.43923 34.0782C7.36994 34.2672 7.30403 34.4575 7.24153 34.6489C7.19771 34.8245 7.15388 35.0001 7.1318 35.1754C7.1318 35.1978 7.10972 35.2196 7.10972 35.2417C7.0659 35.439 7.0659 35.7026 7.04382 35.8341C7.02208 35.988 7 36.1195 7 36.2733C7 36.361 7 36.4707 7.02208 36.5587C7.04416 36.7122 7.06624 36.844 7.11006 36.9758C7.15388 37.1073 7.19771 37.2391 7.26361 37.3709V37.3927C7.32951 37.5245 7.41715 37.6563 7.5048 37.7881C7.59312 37.9195 7.68076 38.0513 7.79015 38.1831C7.90021 38.2929 8.03201 38.4243 8.16382 38.5344C8.29528 38.6659 8.42709 38.7756 8.58063 38.8856C9.10751 39.3466 9.23931 39.5002 9.91973 39.8514C10.0295 39.9173 10.1392 39.9611 10.271 40.027C10.2931 40.027 10.3148 40.0488 10.3369 40.0488C10.3369 40.0929 10.3369 40.1147 10.3586 40.1588C10.3807 40.3345 10.4245 40.5101 10.4687 40.6854C10.5105 40.8661 10.5692 41.0425 10.644 41.2123C10.7099 41.3441 10.754 41.4759 10.8196 41.6077C10.8417 41.6515 10.8638 41.6953 10.8855 41.7174C10.9735 41.893 11.0611 42.0466 11.1491 42.2001L11.4783 42.6611C11.588 42.7929 11.7195 42.9464 11.8516 43.0782C11.9831 43.21 12.1149 43.3194 12.2684 43.4516C12.2684 43.4516 12.2905 43.4733 12.3126 43.4733C12.4441 43.583 12.5759 43.6931 12.7077 43.7807C12.8612 43.8905 13.0148 43.9785 13.1904 44.0661C13.3443 44.1541 13.5199 44.2417 13.6955 44.3073C13.827 44.3735 13.9809 44.4173 14.1344 44.4612C14.1565 44.4832 14.1782 44.4832 14.2221 44.5053C14.3104 44.5271 14.4198 44.5491 14.5074 44.5709C14.4418 45.7564 14.4198 46.8758 14.5957 47.2708C14.7927 47.7101 15.7589 46.371 16.7246 44.8345C16.5928 46.3489 16.5052 48.1272 16.7246 48.6538C16.9662 49.2027 18.2832 47.4906 19.4246 45.6026C34.9883 42.0027 49.1909 52.759 50.6836 67.9491C50.3982 65.5784 47.4785 64.2613 46.1394 64.5905C45.481 66.215 44.3614 68.3004 42.5613 69.5957C42.7185 68.1298 42.6445 66.6483 42.3419 65.2054C41.8591 67.2249 40.9151 69.1126 39.6198 70.7371C37.5347 70.8906 35.4493 69.881 34.3517 68.3659C34.2638 68.3004 34.242 68.1689 34.1761 68.0806C34.1102 67.9271 34.0443 67.7735 34.0005 67.62C33.9364 67.4728 33.8921 67.3178 33.8687 67.159C33.8466 67.0051 33.8466 66.8516 33.8466 66.6759V66.3464C33.8687 66.1929 33.9125 66.0393 33.9563 65.8858C34.0005 65.7319 34.0443 65.5784 34.1102 65.4248C34.1979 65.2709 34.2638 65.1174 34.3735 64.9638C34.7468 63.9101 34.7468 63.054 34.0664 62.5492C33.9346 62.463 33.7949 62.3894 33.6492 62.3295C33.5613 62.3077 33.4515 62.2639 33.3639 62.2418C33.298 62.2197 33.2542 62.1976 33.1883 62.1759C33.0344 62.1317 32.8808 62.0879 32.7273 62.0662C32.5775 62.0228 32.4223 62.0006 32.2663 62.0003C32.1124 61.9782 31.9368 61.9561 31.7833 61.9561C31.6735 61.9561 31.5638 61.9785 31.4537 61.9785C31.2785 61.9785 31.1249 62.0003 30.9714 62.0441C30.8175 62.0662 30.6639 62.0883 30.5101 62.1321C30.3565 62.1762 30.2026 62.2201 30.0491 62.2856C29.8955 62.3515 29.7637 62.4174 29.6102 62.4833C29.4784 62.5492 29.3466 62.6369 29.193 62.7028C24.0785 66.0393 27.1297 73.8542 30.6198 76.1152C29.3028 76.3564 27.9637 76.6418 27.5907 76.9271L27.5465 76.9713C28.4909 77.542 29.4784 78.025 30.5101 78.4422C31.9151 78.9028 33.4077 79.32 34.0664 79.4956V79.5177C35.8851 79.8906 37.7448 80.0234 39.5981 79.9127C49.3224 79.2323 57.2908 71.8346 58.7396 62.0883C58.7837 62.2856 58.8276 62.4613 58.8714 62.659C58.9373 63.054 59.0249 63.4708 59.0687 63.8883V63.9101C59.1129 64.1078 59.1347 64.3055 59.1567 64.4808V64.5691C59.1788 64.7661 59.2009 64.9638 59.2009 65.1398C59.2226 65.381 59.2444 65.6222 59.2444 65.864V66.2153C59.2444 66.325 59.2665 66.4565 59.2665 66.5662C59.2665 66.698 59.2444 66.8298 59.2444 66.9616V67.2687C59.2444 67.4226 59.2223 67.5541 59.2223 67.7079C59.2223 67.7956 59.2223 67.8836 59.2006 67.9933C59.2006 68.1468 59.1785 68.3004 59.1785 68.476C59.1564 68.5419 59.1564 68.6078 59.1564 68.6737C59.1347 68.8493 59.1126 69.0032 59.0905 69.1785C59.0905 69.2444 59.0905 69.3103 59.0687 69.3762C59.0467 69.5957 59.0028 69.7934 58.9808 70.0128V70.0566C58.9369 70.2543 58.8931 70.4738 58.849 70.6715V70.7371L58.7175 71.3298C58.7175 71.3519 58.6954 71.3957 58.6954 71.4178C58.6513 71.6152 58.6074 71.8129 58.5419 72.0103V72.0762C58.476 72.296 58.4101 72.4933 58.3662 72.691C58.3442 72.7128 58.3442 72.7348 58.3442 72.7348L58.1465 73.3932C58.0588 73.613 57.9929 73.8103 57.9053 74.0298C57.8173 74.2496 57.7514 74.469 57.6637 74.6664C57.5758 74.8862 57.4881 75.0835 57.4001 75.303H57.3784C57.2901 75.5007 57.2028 75.7201 57.093 75.9178C57.071 75.9837 57.0489 76.0276 57.0271 76.0714C57.0051 76.0935 57.0051 76.1156 56.983 76.1373C55.5562 79.0129 53.4491 81.5372 50.8147 83.5129C50.6391 83.6226 50.4634 83.7541 50.2882 83.8862C50.244 83.93 50.1781 83.9518 50.1343 83.9959C49.9807 84.1057 49.8268 84.2154 49.6515 84.3251L49.7171 84.4569H49.7392L50.6611 84.3251H50.6832C51.2539 84.2371 51.8246 84.1274 52.3953 84.0177C52.5489 83.9956 52.7248 83.9518 52.8784 83.908C52.9881 83.8859 53.0757 83.8641 53.1855 83.8421C53.3393 83.8203 53.4929 83.7762 53.6464 83.7544C53.7782 83.7103 53.91 83.6885 54.0418 83.6447C56.237 83.1178 58.3662 82.3932 60.4079 81.5372C56.9174 86.3008 52.2414 90.1422 46.7756 92.6665C49.3003 92.4909 51.8246 92.074 54.2613 91.3715C63.1078 88.7592 70.5493 82.8104 75.0052 74.7982C74.1007 79.8806 72.0844 84.7003 69.1005 88.9128C71.2278 87.5095 73.1934 85.8752 74.9613 84.0398C79.8785 78.9031 83.1053 72.3836 84.2029 65.381C84.9517 68.855 85.1664 72.4229 84.8395 75.9617C100.688 53.8566 86.1565 30.9394 80.0759 24.9029C80.0541 24.8587 80.0321 24.837 80.0321 24.7931C80.0103 24.8149 80.0103 24.8149 80.0103 24.837C80.0103 24.8149 80.0103 24.8149 79.9882 24.7928C79.9882 25.0564 79.9662 25.3197 79.9441 25.5833C79.8785 26.0881 79.8126 26.5711 79.7246 27.0542C79.6149 27.5369 79.4834 28.02 79.3516 28.5027C79.1955 28.978 79.0198 29.4468 78.8251 29.9077C78.6232 30.3626 78.4034 30.8093 78.1661 31.2468C77.9249 31.6636 77.6613 32.1028 77.3759 32.4979C77.0936 32.9062 76.7932 33.3018 76.4757 33.6835C76.1466 34.0785 75.7956 34.4298 75.4444 34.7807C75.2377 34.9699 75.0254 35.153 74.8078 35.3297C74.6322 35.4832 74.4783 35.615 74.3027 35.7685C73.9076 36.076 73.5125 36.3613 73.0736 36.6246C72.6565 36.8882 72.2176 37.1515 71.7783 37.3713C71.3174 37.5907 70.8564 37.7881 70.3958 37.9858C69.9344 38.1614 69.4514 38.3153 68.9687 38.4468C68.4833 38.5774 67.9925 38.6874 67.4978 38.7763C66.993 38.8639 66.4882 38.9077 66.0051 38.9515C65.6539 38.9736 65.3026 38.9957 64.9514 38.9957C64.4466 38.9957 63.9418 38.9515 63.4587 38.9074C62.9539 38.8639 62.4491 38.798 61.9661 38.6883C61.4613 38.6 60.9782 38.4685 60.4952 38.315H60.4734C60.9565 38.2708 61.4392 38.227 61.9222 38.1393C62.4175 38.0528 62.9083 37.9428 63.3932 37.8098C63.8759 37.6794 64.352 37.5257 64.8199 37.3492C65.3026 37.1736 65.7636 36.9541 66.2025 36.7343C66.6638 36.5149 67.0809 36.2733 67.5198 36.0101C67.937 35.7247 68.3538 35.4394 68.7492 35.1319C69.1425 34.8262 69.5163 34.4963 69.8685 34.1441C70.2419 33.8146 70.571 33.4416 70.9002 33.0686C71.2211 32.6842 71.5286 32.2888 71.8222 31.883C71.8663 31.8175 71.9101 31.7295 71.954 31.6636C72.1734 31.3123 72.3929 30.9611 72.5906 30.6098C72.832 30.1747 73.0518 29.7279 73.2492 29.2711C73.4475 28.8116 73.6232 28.3427 73.7758 27.8661C73.9297 27.4051 74.0394 26.922 74.1491 26.4393C74.2371 25.9345 74.3247 25.4515 74.3686 24.9684C74.4127 24.4636 74.4565 23.9588 74.4565 23.4758C74.4565 23.1245 74.4345 22.7733 74.4124 22.422C74.3689 21.9172 74.303 21.4345 74.2371 20.9511C74.1506 20.456 74.0406 19.9653 73.9076 19.4805C73.754 19.0196 73.6005 18.5369 73.4249 18.0759C73.2492 17.6149 73.0298 17.1539 72.81 16.7147C72.5688 16.2758 72.3273 15.8369 72.0637 15.4198C71.7836 15.0084 71.4908 14.6058 71.1859 14.2125C70.8553 13.8338 70.5186 13.4605 70.176 13.0928C69.991 12.9045 69.8007 12.7215 69.6053 12.5442C68.6219 11.7805 67.6037 11.0626 66.5541 10.3929C66.4005 10.3049 66.2687 10.2393 66.1148 10.1734C65.3906 9.71243 64.7102 9.47057 64.0298 9.25112Z" fill="#E0234E"/>
</svg>
