<svg width="100" height="100" viewBox="0 0 100 100" fill="none" xmlns="http://www.w3.org/2000/svg">
<rect width="100" height="100" rx="24" fill="black"/>
<path fill-rule="evenodd" clip-rule="evenodd" d="M55.363 16.1289L55.3366 31.1194L55.3101 46.1099L54.0768 42.63C54.0764 42.6288 54.0749 42.6243 54.0744 42.6231L52.4807 75.996C54.0476 80.421 54.8872 82.7832 54.8966 82.7926C54.9089 82.805 55.8019 82.8588 56.881 82.9124C60.1503 83.0746 64.2017 83.4222 67.2751 83.8041C67.9867 83.8925 68.5991 83.9378 68.636 83.9048C68.6728 83.8717 68.6929 68.6086 68.6806 49.9868L68.6581 16.1289H55.363ZM31.3157 16.0843V49.9765C31.3157 68.6172 31.3339 83.887 31.3562 83.9094C31.3786 83.9317 32.533 83.8227 33.9216 83.6672C35.3102 83.5117 37.2293 83.3183 38.1863 83.2375C39.654 83.1136 44.0362 82.8318 44.5436 82.8287C44.6912 82.8278 44.7007 82.0662 44.7221 68.4734L44.7447 54.1191L45.805 57.119C45.9688 57.5826 46.0202 57.7274 46.1799 58.1791L47.7732 24.8145C47.4356 23.86 47.6126 24.3611 47.2257 23.2672C45.9239 19.5865 44.8192 16.4646 44.7707 16.3296L44.6826 16.0843H31.3157Z" fill="#B1060F" stroke="black" stroke-width="0.310123"/>
<path fill-rule="evenodd" clip-rule="evenodd" d="M31.3157 16.0843V35.1089L44.7176 70.6595C44.719 69.8448 44.7206 69.4047 44.7221 68.4734L44.7447 54.1191L45.805 57.119C51.707 73.8196 54.878 82.774 54.8966 82.7926C54.9089 82.805 55.8019 82.8588 56.881 82.9124C60.1503 83.0746 64.2017 83.4222 67.2751 83.8041C67.9867 83.8925 68.5991 83.9378 68.636 83.9048C68.6613 83.8821 68.6778 76.3982 68.6822 65.8406L55.343 27.4903L55.3366 31.1194L55.3101 46.1099L54.0768 42.63C52.8717 39.2297 52.0671 36.9557 47.2257 23.2672C45.9239 19.5865 44.8192 16.4646 44.7708 16.3296L44.6826 16.0843H31.3157Z" fill="url(#paint0_radial_175_1078)"/>
<path fill-rule="evenodd" clip-rule="evenodd" d="M31.316 16.0842L44.7447 54.1363V54.119L45.805 57.119C51.7071 73.8195 54.878 82.7739 54.8966 82.7926C54.909 82.8049 55.8019 82.8588 56.881 82.9123C60.1503 83.0746 64.2017 83.4222 67.2751 83.8041C67.983 83.892 68.5923 83.9372 68.6349 83.9052L55.3101 46.1029V46.1099L54.0768 42.6299C52.8717 39.2296 52.0671 36.9557 47.2257 23.2672C45.9239 19.5865 44.8192 16.4646 44.7708 16.3296L44.6827 16.0842L31.316 16.0842Z" fill="#E50914"/>
<path fill-rule="evenodd" clip-rule="evenodd" d="M55.363 16.1289L55.3366 31.1194L55.3101 46.1099L54.0768 42.63C54.0764 42.6288 54.0749 42.6243 54.0744 42.6231L52.4807 75.996C54.0476 80.421 54.8872 82.7832 54.8966 82.7926C54.9089 82.805 55.8019 82.8588 56.881 82.9124C60.1503 83.0746 64.2017 83.4222 67.2751 83.8041C67.9867 83.8925 68.5991 83.9378 68.636 83.9048C68.6728 83.8717 68.6929 68.6086 68.6806 49.9868L68.6581 16.1289H55.363ZM31.3157 16.0843V49.9765C31.3157 68.6172 31.3339 83.887 31.3562 83.9094C31.3786 83.9317 32.533 83.8227 33.9216 83.6672C35.3102 83.5117 37.2293 83.3183 38.1863 83.2375C39.654 83.1136 44.0362 82.8318 44.5436 82.8287C44.6912 82.8278 44.7007 82.0662 44.7221 68.4734L44.7447 54.1191L45.805 57.119C45.9688 57.5826 46.0202 57.7274 46.1799 58.1791L47.7732 24.8145C47.4356 23.86 47.6126 24.3611 47.2257 23.2672C45.9239 19.5865 44.8192 16.4646 44.7707 16.3296L44.6826 16.0843H31.3157Z" fill="#B1060F" stroke="black" stroke-width="0.310123"/>
<path fill-rule="evenodd" clip-rule="evenodd" d="M31.3157 16.0843V35.1089L44.7176 70.6595C44.719 69.8448 44.7206 69.4047 44.7221 68.4734L44.7447 54.1191L45.805 57.119C51.707 73.8196 54.878 82.774 54.8966 82.7926C54.9089 82.805 55.8019 82.8588 56.881 82.9124C60.1503 83.0746 64.2017 83.4222 67.2751 83.8041C67.9867 83.8925 68.5991 83.9378 68.636 83.9048C68.6613 83.8821 68.6778 76.3982 68.6822 65.8406L55.343 27.4903L55.3366 31.1194L55.3101 46.1099L54.0768 42.63C52.8717 39.2297 52.0671 36.9557 47.2257 23.2672C45.9239 19.5865 44.8192 16.4646 44.7708 16.3296L44.6826 16.0843H31.3157Z" fill="url(#paint1_radial_175_1078)"/>
<path fill-rule="evenodd" clip-rule="evenodd" d="M31.316 16.0842L44.7447 54.1363V54.119L45.805 57.119C51.7071 73.8195 54.878 82.7739 54.8966 82.7926C54.909 82.8049 55.8019 82.8588 56.881 82.9123C60.1503 83.0746 64.2017 83.4222 67.2751 83.8041C67.983 83.892 68.5923 83.9372 68.6349 83.9052L55.3101 46.1029V46.1099L54.0768 42.6299C52.8717 39.2296 52.0671 36.9557 47.2257 23.2672C45.9239 19.5865 44.8192 16.4646 44.7708 16.3296L44.6827 16.0842L31.316 16.0842Z" fill="#E50914"/>
<defs>
<radialGradient id="paint0_radial_175_1078" cx="0" cy="0" r="1" gradientUnits="userSpaceOnUse" gradientTransform="translate(49.3784 49.6055) rotate(-19.0977) scale(8.46935 310.224)">
<stop/>
<stop offset="1" stop-opacity="0"/>
</radialGradient>
<radialGradient id="paint1_radial_175_1078" cx="0" cy="0" r="1" gradientUnits="userSpaceOnUse" gradientTransform="translate(49.3784 49.6055) rotate(-19.0977) scale(8.46935 310.224)">
<stop/>
<stop offset="1" stop-opacity="0"/>
</radialGradient>
</defs>
</svg>
