<svg width="100" height="100" viewBox="0 0 100 100" fill="none" xmlns="http://www.w3.org/2000/svg">
<rect width="100" height="100" rx="24" fill="white"/>
<g clip-path="url(#clip0_264_8)">
<path d="M55.7255 83.3091C54.6374 83.3091 53.6359 82.8854 52.8944 82.2017C52.1241 82.8854 51.1515 83.2609 50.15 83.2609H50.1018C49.0233 83.2416 47.9641 82.7794 47.1937 81.9802C46.4137 81.1906 45.9804 80.1217 45.99 79.0528V78.6195L44.8537 80.9113L44.3723 81.8839C43.9678 82.712 43.1204 83.2416 42.1864 83.2416H32.5087C31.6324 83.2416 30.8235 82.7602 30.3902 82.0091L29.8991 81.1231L28.5894 78.8217V79.1106C28.5894 81.4024 26.7213 83.2705 24.4295 83.2705C23.3125 83.2705 22.2725 82.8372 21.4828 82.0476L15.3296 75.8943V79.1106C15.3296 81.4024 13.4614 83.2705 11.1696 83.2705C8.87776 83.2705 7 81.412 7 79.1106V65.8218C7 64.1366 8.0111 62.6248 9.57109 61.97C10.0815 61.7581 10.6111 61.6522 11.16 61.6522C12.277 61.6522 13.317 62.0855 14.1066 62.8752L20.2695 69.0381V65.8218C20.2695 63.53 22.1376 61.6618 24.4295 61.6618C26.7213 61.6618 28.5894 63.53 28.5894 65.8218V66.1781L29.8798 63.8381L30.3517 62.9618C30.7753 62.1818 31.5939 61.6811 32.4894 61.6811H42.5715C43.5056 61.6811 44.3434 62.2107 44.7478 63.0389L45.2293 64.0211C45.2582 64.0596 45.2678 64.1077 45.2871 64.1463L45.99 65.8314C45.99 64.7722 46.4234 63.7226 47.1937 62.9426C47.9737 62.1433 49.033 61.6811 50.1018 61.6618H50.15C51.1611 61.6618 52.1626 62.0566 52.9426 62.7692C53.6744 62.1048 54.6566 61.7004 55.7255 61.7004C58.0173 61.7004 59.8855 63.5685 59.8855 65.8603V69.0862L66.0484 62.9233C66.8284 62.1433 67.8876 61.7004 68.995 61.7004C69.5439 61.7004 70.0735 61.8063 70.5839 62.0181C71.0172 62.1915 71.412 62.4418 71.7491 62.75C72.5098 62.0663 73.4824 61.7004 74.5127 61.7004C75.6201 61.7004 76.6601 62.1241 77.4594 62.9137L81.1764 66.6114L84.8934 62.9137C85.683 62.1337 86.7326 61.7004 87.84 61.7004C88.9571 61.7004 90.0067 62.1337 90.7867 62.9329C92.4141 64.5603 92.4044 67.2085 90.7771 68.8262L87.0793 72.5047L90.7578 76.1736C92.3852 77.801 92.3948 80.4395 90.7674 82.0668C89.9874 82.8565 88.9282 83.2994 87.8208 83.2994C86.7038 83.2994 85.6638 82.8661 84.8741 82.0765L81.1764 78.3884L77.4883 82.0572C76.7083 82.8372 75.6587 83.2705 74.5416 83.2705C73.5402 83.2705 72.558 82.895 71.7972 82.2402C71.0654 82.9046 70.0832 83.3187 69.0047 83.3187C66.7128 83.3187 64.8447 81.4506 64.8447 79.1587V75.9328L58.6818 82.0957C57.8922 82.8757 56.8522 83.3091 55.7255 83.3091ZM73.1742 74.5847L75.2831 72.4854L73.1742 70.3862V74.5847Z" fill="white"/>
<path d="M24.4391 80.8535C23.9865 80.8535 23.5436 80.6802 23.2065 80.3432L12.9029 70.0299V79.1106C12.9029 80.0735 12.1229 80.8439 11.1696 80.8439C10.2163 80.8439 9.43628 80.0639 9.43628 79.1106V65.8218C9.43628 65.1188 9.85998 64.4833 10.5148 64.2137C11.1696 63.944 11.9111 64.0885 12.4118 64.5892L22.7058 74.8928V65.8218C22.7058 64.8588 23.4858 64.0885 24.4391 64.0885C25.4021 64.0885 26.1724 64.8685 26.1724 65.8218V79.1009C26.1821 80.0639 25.4021 80.8535 24.4391 80.8535ZM32.5087 64.1077L32.0272 65.0033L28.3294 71.7247L27.848 72.5721L28.3294 73.4195L32.0272 79.9291L32.5279 80.815H42.2153L42.6967 79.8328L45.4604 74.2573L46.7026 71.7343H43.9004L36.8323 71.7632C35.9079 71.744 35.0605 72.5914 35.0605 73.4966C35.0605 74.421 35.9079 75.2491 36.8323 75.2299L41.0982 75.201L40.0582 77.3099H34.5694L31.8442 72.5336L34.5887 67.5744H40.4242L41.7819 70.367H45.2871L43.0819 65.0707L42.6004 64.0885H32.5087M50.15 64.0789C49.2352 64.0885 48.4167 64.9263 48.4263 65.8411V70.3862H51.9122V65.8411C51.9218 64.9166 51.0744 64.0596 50.15 64.0789ZM55.7351 80.8824C54.7722 80.8824 54.0018 80.1024 54.0018 79.1491V65.8603C54.0018 64.8974 54.7818 64.127 55.7351 64.127C56.6981 64.127 57.4685 64.907 57.4685 65.8603V74.941L67.7721 64.6374C68.2728 64.1366 69.0143 63.9922 69.6691 64.2618C70.3239 64.5314 70.7476 65.167 70.7476 65.87V79.1491C70.7476 80.1121 69.9676 80.8824 69.0143 80.8824C68.0513 80.8824 67.281 80.1024 67.281 79.1491V70.0588L56.9677 80.372C56.6403 80.6994 56.1974 80.8824 55.7351 80.8824ZM83.6608 72.4855L89.0726 67.0833C89.7563 66.3996 89.7563 65.3018 89.0823 64.6181C88.3986 63.9344 87.3008 63.9344 86.6171 64.6085L81.1957 70.0203L75.7742 64.6085C75.0905 63.9248 73.9928 63.9248 73.3091 64.6181C72.6254 65.3018 72.6254 66.3996 73.3091 67.0833L78.7209 72.4855L73.3187 77.8684C72.635 78.5521 72.635 79.6498 73.3091 80.3335C73.6365 80.6609 74.0794 80.8535 74.5416 80.8439C74.9846 80.8439 75.4276 80.6706 75.7742 80.3335L81.186 74.941L86.5978 80.3335C86.9252 80.6609 87.3682 80.8439 87.8304 80.8439C88.2734 80.8439 88.726 80.6706 89.063 80.3335C89.7467 79.6498 89.7467 78.5521 89.0534 77.8684L83.6608 72.4855ZM50.15 80.8343C49.2352 80.8246 48.4167 79.9869 48.4263 79.0721V71.7825H51.9122V79.0721C51.9218 79.9965 51.0744 80.8439 50.15 80.8343Z" fill="#009900"/>
<path d="M66.135 64.0307C64.3343 64.0114 62.6395 63.3085 61.378 62.0374L39.5671 40.2361V57.2226C39.5671 60.9685 36.5145 64.0307 32.759 64.0307C29.0035 64.0307 25.9509 60.9781 25.9509 57.2226V23.8081C25.9509 21.0444 27.5976 18.5792 30.1494 17.52C30.9775 17.1733 31.8538 17 32.7494 17C34.5694 17 36.2834 17.7126 37.5642 18.9933L59.3847 40.7946V23.8081C59.3847 20.0526 62.4373 17 66.1832 17C69.9291 17 72.9913 20.0526 72.9913 23.8081V57.2322C72.9913 60.9781 69.9387 64.0403 66.1832 64.0403H66.135V64.0307Z" fill="white"/>
<path d="M66.1832 61.6041C65.0469 61.6041 63.9202 61.1611 63.0825 60.3233L37.1501 34.3813V57.2226C37.1501 59.6493 35.1857 61.6041 32.7687 61.6041C30.3516 61.6041 28.3872 59.6396 28.3872 57.2226V23.8081C28.3872 22.0266 29.4561 20.4377 31.0931 19.754C32.7301 19.0704 34.6175 19.4459 35.8694 20.7074L61.8017 46.6494V23.8081C61.8017 21.3814 63.7662 19.4266 66.1832 19.4266C68.6098 19.4266 70.5646 21.3911 70.5646 23.8081V57.2322C70.5646 59.6493 68.6098 61.6041 66.1832 61.6041Z" fill="#009900"/>
</g>
<defs>
<clipPath id="clip0_264_8">
<rect width="85" height="66.3091" fill="white" transform="translate(7 17)"/>
</clipPath>
</defs>
</svg>
