<svg width="100" height="100" viewBox="0 0 100 100" fill="none" xmlns="http://www.w3.org/2000/svg">
<rect width="100" height="100" rx="24" fill="#009900"/>
<path d="M7 57.6576V42.9358L21.7201 57.6576V42.9358" stroke="white" stroke-width="5" stroke-linecap="round" stroke-linejoin="round"/>
<path d="M30.6601 41.0242L30.1292 42.0136L26.0269 49.4702L25.496 50.4113L26.0269 51.3525L30.1292 58.5677L30.6842 59.5571H31.8184H40.2161H41.4227L41.9536 58.4712L45.0183 52.2936L46.3937 49.4943H43.2808L35.4381 49.5185C34.4182 49.504 33.4801 50.429 33.4801 51.449C33.4801 52.469 34.4182 53.3939 35.4381 53.3795L40.1679 53.3554L39.0095 55.6961H32.9284L29.912 50.3872L32.9526 44.8852H39.4215L40.9297 47.9801H44.8149L42.3655 42.1101L41.8346 41.0242H40.6281H31.8184H30.6601Z" fill="white"/>
<path d="M50.2172 41.0001C49.2064 41.0128 48.2982 41.944 48.3108 42.9548V47.9853H52.1718V42.9548C52.1846 41.9279 51.2441 40.9873 50.2172 41.0001Z" fill="white"/>
<path d="M71.1265 57.695V42.9731L56.4063 57.695V42.9731" stroke="white" stroke-width="5" stroke-linecap="round" stroke-linejoin="round"/>
<path d="M77.2454 42.9677L91.9827 57.6534" stroke="white" stroke-width="5" stroke-linecap="round" stroke-linejoin="round"/>
<path d="M92 42.9677L77.2626 57.6534" stroke="white" stroke-width="5" stroke-linecap="round" stroke-linejoin="round"/>
<path d="M50.2172 59.5699C49.2064 59.5573 48.2982 58.6261 48.3108 57.6153V49.5347H52.1718V57.6153C52.1846 58.6422 51.2441 59.5828 50.2172 59.5699Z" fill="white"/>
</svg>
