<svg width="100" height="100" viewBox="0 0 100 100" fill="none" xmlns="http://www.w3.org/2000/svg">
<rect width="100" height="100" rx="24" fill="#F2F2F2"/>
<g clip-path="url(#clip0_262_4)">
<path d="M47.376 52.9128V41.8617L37.8064 36.3399L28.2368 41.8617V52.9128L37.8064 58.4384L47.376 52.9128Z" fill="#3B8739"/>
<path d="M85.0609 51.2347L91.297 54.8366L85.0609 58.4384L75.4913 52.9128V41.8655L85.0609 36.3399L90.8586 39.6885C91.4482 42.1754 91.8073 44.7114 91.9395 47.2663L88.3944 49.3148V45.4673L85.0609 43.5436L81.7274 45.4673V49.3148L85.0609 51.2347Z" fill="#333333"/>
<path d="M86.9204 48.4606V46.3139L85.0647 45.2405L83.2052 46.3139V48.4606L85.0647 49.534L86.9204 48.4606Z" fill="#66A060"/>
<path d="M23.7165 41.8655V56.4353L17.333 52.7957V45.3237L14.147 43.4831L10.9609 45.3237V52.7919L7.33637 54.8592C7.11338 53.0829 7 51.2914 7 49.5C7 46.1741 7.38173 42.9351 8.1036 39.8283L14.147 36.3399L23.7165 41.8655Z" fill="#333333"/>
<path d="M37.8026 36.3362L47.3722 52.9091L37.8026 58.4347L28.2368 41.8617L37.8026 36.3362Z" fill="#6DA75D"/>
<path d="M28.2368 52.9128L31.5212 47.5536L28.2368 41.8617V52.9128Z" fill="#55A344"/>
<path d="M44.1823 47.3873L47.3722 41.8617L37.8064 36.3399L44.1823 47.3873Z" fill="#639D57"/>
<path d="M64.5347 23.5314V38.1919L61.3259 36.34L51.7563 41.8655V52.9167L61.3259 58.4422L70.8955 52.9167V26.9367L64.5347 23.5314ZM64.5158 49.2279L61.3259 51.0685L58.1361 49.2279V45.5467L61.3259 43.7061L64.5158 45.5467V49.2279Z" fill="#333333"/>
<path d="M53.8426 66.5529C53.8426 66.5529 53.6536 64.939 51.9264 64.939C50.1992 64.939 49.0162 65.1658 49.0162 66.122C49.0162 67.0782 52.3762 67.0782 53.6536 67.4562C54.9311 67.8303 56.0574 68.8092 55.4942 70.5364C54.9311 72.2636 53.2039 72.4526 50.5356 72.4526C47.8673 72.4526 47.2664 70.2378 47.2664 69.3723H48.7706C48.7706 69.3723 48.5816 70.7254 50.3466 70.9484C52.1116 71.1714 53.801 71.2999 54.0278 69.9355C54.3302 68.1327 48.317 69.0322 47.7917 67.2672C47.3457 65.7743 47.6027 63.8128 50.6074 63.5104C53.6121 63.208 55.2637 64.5384 55.2637 66.5151L53.8426 66.5529Z" fill="#66A060"/>
<path d="M39.3257 73.594L42.6478 75.5102C44.3183 76.474 46.4046 75.2683 46.4046 73.3408V63.7939H45.0516V72.9629C45.0516 74.0135 43.9139 74.6749 42.9993 74.1458L40.6825 72.8079V63.0229L49.1561 58.1323L57.6296 63.0229V72.8079L49.1561 77.6985L46.7145 76.2888L45.1196 76.9313L49.1561 79.2594L58.9826 73.5865V62.2405L49.1561 56.5676L39.3295 62.2405L39.3257 73.594Z" fill="#66A060"/>
</g>
<defs>
<clipPath id="clip0_262_4">
<rect width="85" height="85" fill="white" transform="translate(7 7)"/>
</clipPath>
</defs>
</svg>
