<svg width="100" height="100" viewBox="0 0 100 100" fill="none" xmlns="http://www.w3.org/2000/svg">
<rect width="100" height="100" rx="24" fill="white"/>
<path d="M49.0389 76.049C48.7507 76.049 48.4817 75.9722 48.2319 75.8377L45.6765 74.3198C45.2922 74.1085 45.4844 74.0316 45.5997 73.9932C46.1184 73.8203 46.2145 73.7818 46.7525 73.4744C46.8101 73.436 46.887 73.4552 46.9446 73.4936L48.9044 74.6657C48.9812 74.7041 49.0773 74.7041 49.1349 74.6657L56.8011 70.2274C56.8779 70.1889 56.9163 70.1121 56.9163 70.016V61.1587C56.9163 61.0626 56.8779 60.9857 56.8011 60.9473L49.1349 56.5282C49.0581 56.4898 48.962 56.4898 48.9044 56.5282L41.2382 60.9473C41.1614 60.9857 41.1229 61.0818 41.1229 61.1587V70.016C41.1229 70.0929 41.1614 70.1889 41.2382 70.2274L43.3325 71.4378C44.4661 72.0142 45.177 71.3417 45.177 70.6693V61.9272C45.177 61.8119 45.273 61.6966 45.4075 61.6966H46.3874C46.5027 61.6966 46.618 61.7927 46.618 61.9272V70.6693C46.618 72.1871 45.7918 73.0709 44.3508 73.0709C43.9089 73.0709 43.563 73.0709 42.5832 72.5906L40.5658 71.4378C40.0662 71.1496 39.7588 70.6116 39.7588 70.0352V61.1779C39.7588 60.6015 40.0662 60.0635 40.5658 59.7753L48.2319 55.337C48.7122 55.068 49.3655 55.068 49.8458 55.337L57.512 59.7753C58.0115 60.0635 58.3189 60.6015 58.3189 61.1779V70.0352C58.3189 70.6116 58.0115 71.1496 57.512 71.4378L49.8458 75.8761C49.596 75.9914 49.3078 76.049 49.0389 76.049ZM51.4021 69.9584C48.0398 69.9584 47.3481 68.4213 47.3481 67.1148C47.3481 66.9995 47.4441 66.8842 47.5786 66.8842H48.5777C48.693 66.8842 48.7891 66.9611 48.7891 67.0764C48.9428 68.0947 49.3847 68.5942 51.4213 68.5942C53.0352 68.5942 53.7269 68.2292 53.7269 67.3646C53.7269 66.865 53.5348 66.5 51.0178 66.2502C48.9236 66.0388 47.6171 65.5777 47.6171 63.9062C47.6171 62.3499 48.9236 61.4276 51.1139 61.4276C53.5732 61.4276 54.7837 62.273 54.9374 64.1175C54.9374 64.1752 54.9181 64.2328 54.8797 64.2904C54.8413 64.3289 54.7837 64.3673 54.726 64.3673H53.7269C53.6309 64.3673 53.5348 64.2904 53.5156 64.1944C53.285 63.1376 52.6894 62.7918 51.1139 62.7918C49.3463 62.7918 49.1349 63.4066 49.1349 63.8677C49.1349 64.4249 49.3847 64.5978 51.7672 64.9053C54.1304 65.2127 55.2448 65.6546 55.2448 67.3069C55.2256 68.9977 53.8422 69.9584 51.4021 69.9584Z" fill="#539E43"/>
<path d="M25.2527 41.4073C25.2527 41.0615 25.0606 40.7349 24.7532 40.5619L16.6067 35.8739C16.4722 35.797 16.3185 35.7586 16.1648 35.7394H16.0879C15.9342 35.7394 15.7805 35.797 15.646 35.8739L7.49955 40.5619C7.19213 40.7349 7 41.0615 7 41.4073L7.01921 54.0113C7.01921 54.1842 7.11528 54.3571 7.26899 54.434C7.42269 54.5301 7.61483 54.5301 7.74932 54.434L12.5911 51.6673C12.8985 51.4944 13.0906 51.1677 13.0906 50.8219V44.9234C13.0906 44.5775 13.2828 44.2509 13.5902 44.078L15.646 42.8868C15.7997 42.7907 15.9726 42.7523 16.1456 42.7523C16.3185 42.7523 16.4914 42.7907 16.6259 42.8868L18.6817 44.078C18.9892 44.2509 19.1813 44.5775 19.1813 44.9234V50.8219C19.1813 51.1677 19.3734 51.4944 19.6808 51.6673L24.5226 54.434C24.6763 54.5301 24.8684 54.5301 25.0222 54.434C25.1759 54.3571 25.2719 54.1842 25.2719 54.0113L25.2527 41.4073Z" fill="#333333"/>
<path d="M64.4096 24.0576C64.2559 23.9808 64.0637 23.9808 63.9292 24.0576C63.7755 24.1537 63.6795 24.3074 63.6795 24.4803V36.969C63.6795 37.0843 63.6218 37.1996 63.5065 37.2764C63.3912 37.3341 63.276 37.3341 63.1607 37.2764L61.1241 36.1044C60.8167 35.9315 60.4516 35.9315 60.1442 36.1044L51.9977 40.8117C51.6903 40.9846 51.4982 41.3113 51.4982 41.6571V51.0524C51.4982 51.3983 51.6903 51.7249 51.9977 51.8978L60.1442 56.6051C60.4516 56.778 60.8167 56.778 61.1241 56.6051L69.2705 51.8978C69.578 51.7249 69.7701 51.3983 69.7701 51.0524V27.6313C69.7701 27.2663 69.578 26.9396 69.2705 26.7667L64.4096 24.0576ZM63.6602 47.9591C63.6602 48.0552 63.6218 48.132 63.545 48.1704L60.759 49.7844C60.6822 49.8228 60.5861 49.8228 60.5092 49.7844L57.7233 48.1704C57.6465 48.132 57.608 48.0359 57.608 47.9591V44.7312C57.608 44.6352 57.6465 44.5583 57.7233 44.5199L60.5092 42.906C60.5861 42.8675 60.6822 42.8675 60.759 42.906L63.545 44.5199C63.6218 44.5583 63.6602 44.6544 63.6602 44.7312V47.9591Z" fill="#333333"/>
<path d="M91.5197 44.6544C91.8271 44.4815 92 44.1549 92 43.809V41.5226C92 41.1768 91.8079 40.8502 91.5197 40.6773L83.4308 35.9892C83.1234 35.8163 82.7584 35.8163 82.451 35.9892L74.3045 40.6965C73.9971 40.8694 73.8049 41.196 73.8049 41.5419V50.9372C73.8049 51.283 73.9971 51.6097 74.3045 51.7826L82.3933 56.3938C82.7007 56.5667 83.0658 56.5667 83.354 56.3938L88.2534 53.6655C88.4071 53.5886 88.5032 53.4157 88.5032 53.2428C88.5032 53.0699 88.4071 52.897 88.2534 52.8201L80.0685 48.1128C79.9148 48.0168 79.8187 47.8631 79.8187 47.6901V44.7505C79.8187 44.5776 79.9148 44.4046 80.0685 44.3278L82.6239 42.8676C82.7776 42.7715 82.9697 42.7715 83.1234 42.8676L85.6788 44.3278C85.8325 44.4239 85.9286 44.5776 85.9286 44.7505V47.0561C85.9286 47.229 86.0246 47.4019 86.1783 47.4788C86.3321 47.5749 86.5242 47.5749 86.6779 47.4788L91.5197 44.6544Z" fill="#333333"/>
<path d="M82.816 44.2126C82.8737 44.1742 82.9505 44.1742 83.0082 44.2126L84.5645 45.1156C84.6221 45.1541 84.6605 45.2117 84.6605 45.2885V47.0946C84.6605 47.1715 84.6221 47.2291 84.5645 47.2675L83.0082 48.1706C82.9505 48.209 82.8737 48.209 82.816 48.1706L81.2598 47.2675C81.2021 47.2291 81.1637 47.1715 81.1637 47.0946V45.2885C81.1637 45.2117 81.2021 45.1541 81.2598 45.1156L82.816 44.2126Z" fill="#539E43"/>
<path d="M38.875 36.0276C38.5676 35.8547 38.2025 35.8547 37.8951 36.0276L29.8063 40.6964C29.4988 40.8693 29.3259 41.196 29.3259 41.5418V50.8987C29.3259 51.2446 29.5181 51.5712 29.8063 51.7441L37.8951 56.413C38.2025 56.5859 38.5676 56.5859 38.875 56.413L46.9638 51.7441C47.2712 51.5712 47.4441 51.2446 47.4441 50.8987V41.5418C47.4441 41.196 47.252 40.8693 46.9638 40.6964L38.875 36.0276Z" fill="url(#paint0_linear_275_244)"/>
<mask id="mask0_275_244" style="mask-type:luminance" maskUnits="userSpaceOnUse" x="29" y="35" width="19" height="22">
<path d="M38.875 36.0276C38.5676 35.8547 38.2025 35.8547 37.8951 36.0276L29.8063 40.6964C29.4988 40.8693 29.3259 41.196 29.3259 41.5418V50.8987C29.3259 51.2446 29.5181 51.5712 29.8063 51.7441L37.8951 56.413C38.2025 56.5859 38.5676 56.5859 38.875 56.413L46.9638 51.7441C47.2712 51.5712 47.4441 51.2446 47.4441 50.8987V41.5418C47.4441 41.196 47.252 40.8693 46.9638 40.6964L38.875 36.0276Z" fill="white"/>
</mask>
<g mask="url(#mask0_275_244)">
<path d="M46.983 40.6964L38.8557 36.0276C38.7788 35.9892 38.6828 35.9507 38.6059 35.9315L29.4988 51.5328C29.5756 51.6288 29.6717 51.7057 29.7678 51.7633L37.895 56.4322C38.1256 56.5667 38.3946 56.6051 38.6444 56.5283L47.1943 40.8886C47.1367 40.8117 47.0598 40.7541 46.983 40.6964Z" fill="url(#paint1_linear_275_244)"/>
</g>
<mask id="mask1_275_244" style="mask-type:luminance" maskUnits="userSpaceOnUse" x="29" y="35" width="19" height="22">
<path d="M38.875 36.0276C38.5676 35.8547 38.2025 35.8547 37.8951 36.0276L29.8063 40.6964C29.4988 40.8693 29.3259 41.196 29.3259 41.5418V50.8987C29.3259 51.2446 29.5181 51.5712 29.8063 51.7441L37.8951 56.413C38.2025 56.5859 38.5676 56.5859 38.875 56.413L46.9638 51.7441C47.2712 51.5712 47.4441 51.2446 47.4441 50.8987V41.5418C47.4441 41.196 47.252 40.8693 46.9638 40.6964L38.875 36.0276Z" fill="white"/>
</mask>
<g mask="url(#mask1_275_244)">
<path fill-rule="evenodd" clip-rule="evenodd" d="M47.0021 51.7441C47.2327 51.6096 47.4056 51.379 47.4825 51.1293L38.5675 35.9123C38.3369 35.8738 38.0871 35.893 37.8758 36.0275L29.8062 40.6772L38.5098 56.5474C38.6251 56.5282 38.7596 56.4898 38.8749 56.4321L47.0021 51.7441Z" fill="url(#paint2_linear_275_244)"/>
<path fill-rule="evenodd" clip-rule="evenodd" d="M47.0022 51.7441L38.8941 56.4129C38.7788 56.4706 38.6635 56.509 38.5291 56.5282L38.6828 56.8164L47.6746 51.6096V51.4943L47.4441 51.11C47.4056 51.379 47.2327 51.6096 47.0022 51.7441Z" fill="url(#paint3_linear_275_244)"/>
<path fill-rule="evenodd" clip-rule="evenodd" d="M47.0022 51.7441L38.8941 56.4129C38.7788 56.4706 38.6635 56.509 38.5291 56.5282L38.6828 56.8164L47.6746 51.6096V51.4943L47.4441 51.11C47.4056 51.379 47.2327 51.6096 47.0022 51.7441Z" fill="url(#paint4_linear_275_244)"/>
</g>
<defs>
<linearGradient id="paint0_linear_275_244" x1="1264.78" y1="396.91" x2="378.131" y2="1790.04" gradientUnits="userSpaceOnUse">
<stop stop-color="#41873F"/>
<stop offset="0.3288" stop-color="#418B3D"/>
<stop offset="0.6352" stop-color="#419637"/>
<stop offset="0.9319" stop-color="#3FA92D"/>
<stop offset="1" stop-color="#3FAE2A"/>
</linearGradient>
<linearGradient id="paint1_linear_275_244" x1="795.3" y1="1174.39" x2="3015.77" y2="-31.9852" gradientUnits="userSpaceOnUse">
<stop offset="0.1376" stop-color="#41873F"/>
<stop offset="0.4032" stop-color="#54A044"/>
<stop offset="0.7136" stop-color="#66B848"/>
<stop offset="0.9081" stop-color="#6CC04A"/>
</linearGradient>
<linearGradient id="paint2_linear_275_244" x1="-47.7717" y1="1068.47" x2="1823.94" y2="1068.47" gradientUnits="userSpaceOnUse">
<stop offset="0.0919165" stop-color="#6CC04A"/>
<stop offset="0.2864" stop-color="#66B848"/>
<stop offset="0.5968" stop-color="#54A044"/>
<stop offset="0.8624" stop-color="#41873F"/>
</linearGradient>
<linearGradient id="paint3_linear_275_244" x1="-911.336" y1="338" x2="960.374" y2="338" gradientUnits="userSpaceOnUse">
<stop offset="0.0919165" stop-color="#6CC04A"/>
<stop offset="0.2864" stop-color="#66B848"/>
<stop offset="0.5968" stop-color="#54A044"/>
<stop offset="0.8624" stop-color="#41873F"/>
</linearGradient>
<linearGradient id="paint4_linear_275_244" x1="1233.06" y1="-1153.33" x2="758.884" y2="1331.35" gradientUnits="userSpaceOnUse">
<stop stop-color="#41873F"/>
<stop offset="0.3288" stop-color="#418B3D"/>
<stop offset="0.6352" stop-color="#419637"/>
<stop offset="0.9319" stop-color="#3FA92D"/>
<stop offset="1" stop-color="#3FAE2A"/>
</linearGradient>
</defs>
</svg>
