<svg width="100" height="100" viewBox="0 0 100 100" fill="none" xmlns="http://www.w3.org/2000/svg">
<rect width="100" height="100" rx="24" fill="#303030"/>
<path d="M49.6635 93C48.5334 93 47.3864 92.6964 46.3913 92.1229L35.9845 85.9666C34.4328 85.0895 35.1918 84.7859 35.6978 84.6172C37.7724 83.892 38.1941 83.7402 40.4036 82.4752C40.6397 82.3402 40.9433 82.3908 41.1795 82.5426L49.1743 87.2822C49.4611 87.4508 49.8659 87.4508 50.1357 87.2822L81.2886 69.3022C81.5754 69.1335 81.7609 68.7962 81.7609 68.4589V32.499C81.7609 32.1448 81.5753 31.8243 81.2718 31.6388L50.1357 13.6757C49.849 13.507 49.4611 13.507 49.1743 13.6757L18.0552 31.6556C17.7516 31.8243 17.566 32.1616 17.566 32.5158V68.4589C17.566 68.7962 17.7516 69.1335 18.0552 69.2853L26.5897 74.2104C31.2281 76.5212 34.0617 73.8056 34.0617 71.0564V35.5687C34.0617 35.0627 34.4665 34.6748 34.9725 34.6748H38.9193C39.4085 34.6748 39.8301 35.0627 39.8301 35.5687V71.0732C39.8301 77.2465 36.4568 80.7885 30.604 80.7885C28.7993 80.7885 27.3825 80.7885 23.4357 78.8319L15.2722 74.1261C13.2481 72.9623 12 70.7865 12 68.442V32.499C12 30.1713 13.2481 27.9787 15.2722 26.8149L46.3913 8.8349C48.3647 7.7217 50.9791 7.7217 52.9356 8.8349L84.0885 26.8317C86.1125 27.9955 87.3606 30.1713 87.3606 32.5158V68.4589C87.3606 70.7865 86.1125 72.9623 84.0885 74.143L52.9356 92.1229C51.9405 92.6964 50.8104 93 49.6635 93ZM74.8118 57.563C74.8118 50.8331 70.2578 49.0452 60.6943 47.7802C51.0128 46.4984 50.0345 45.8406 50.0345 43.5804C50.0345 41.7082 50.861 39.2119 58.0294 39.2119C64.4219 39.2119 66.7832 40.595 67.7615 44.9129C67.8458 45.3177 68.2169 45.6213 68.6386 45.6213H72.6866C72.9396 45.6213 73.1757 45.5201 73.3444 45.3346C73.513 45.149 73.5974 44.896 73.5805 44.643C72.9564 37.2048 68.0145 33.7471 58.0294 33.7471C49.1406 33.7471 43.8444 37.4915 43.8444 43.7828C43.8444 50.597 49.1237 52.4861 57.6414 53.3294C67.8458 54.3245 68.6386 55.8257 68.6386 57.8328C68.6386 61.3074 65.8387 62.7916 59.2775 62.7916C51.0297 62.7916 49.2249 60.717 48.6177 56.6184C48.5503 56.1799 48.1792 55.8594 47.7238 55.8594H43.6926C43.1866 55.8594 42.7987 56.2642 42.7987 56.7533C42.7987 61.9989 45.6492 68.2565 59.2944 68.2565C69.1446 68.2396 74.8118 64.3434 74.8118 57.563Z" fill="#69A063"/>
</svg>
