<svg width="100" height="100" viewBox="0 0 100 100" fill="none" xmlns="http://www.w3.org/2000/svg">
<rect width="100" height="100" rx="24" fill="white"/>
<g clip-path="url(#clip0_224_985)">
<path d="M8 33H93V61.3333H50.5V66.0556H31.6111V61.3333H8V33ZM12.7222 56.6111H22.1667V42.4444H26.8889V56.6111H31.6111V37.7222H12.7222V56.6111ZM36.3333 37.7222V61.3333H45.7778V56.6111H55.2222V37.7222H36.3333ZM45.7778 42.4444H50.5V51.8889H45.7778V42.4444ZM59.9444 37.7222V56.6111H69.3889V42.4444H74.1111V56.6111H78.8333V42.4444H83.5556V56.6111H88.2778V37.7222H59.9444Z" fill="#CB3837"/>
<path d="M12.7222 56.6111H22.1667V42.4445H26.8889V56.6111H31.6111V37.7222H12.7222V56.6111Z" fill="white"/>
<path d="M36.3333 37.7222V61.3333H45.7778V56.6111H55.2222V37.7222H36.3333ZM50.5 51.8889H45.7778V42.4445H50.5V51.8889Z" fill="white"/>
<path d="M59.9445 37.7222V56.6111H69.3889V42.4445H74.1111V56.6111H78.8333V42.4445H83.5556V56.6111H88.2778V37.7222H59.9445Z" fill="white"/>
</g>
<defs>
<clipPath id="clip0_224_985">
<rect width="85" height="33.0556" fill="white" transform="translate(8 33)"/>
</clipPath>
</defs>
</svg>
