<svg width="100" height="100" viewBox="0 0 100 100" fill="none" xmlns="http://www.w3.org/2000/svg">
<rect width="100" height="100" rx="24" fill="white"/>
<g clip-path="url(#clip0_264_4)">
<path d="M91.4068 79.61C91.4068 80.522 90.7371 81.1342 89.9443 81.1342V81.1286C89.129 81.1342 88.4717 80.522 88.4717 79.6103C88.4717 78.6987 89.129 78.0883 89.9443 78.0883C90.7373 78.0881 91.4068 78.6985 91.4068 79.61ZM92 79.61C92 78.3582 91.0278 77.6317 89.9443 77.6317C88.8533 77.6317 87.8811 78.3582 87.8811 79.61C87.8811 80.8609 88.8536 81.5903 89.9443 81.5903C91.0278 81.5903 92 80.8609 92 79.61ZM89.6033 79.7774H89.8234L90.3334 80.673H90.8933L90.3283 79.7397C90.6203 79.7189 90.8604 79.58 90.8604 79.187C90.8604 78.6985 90.5235 78.5418 89.9535 78.5418H89.1285V80.673H89.6028L89.6033 79.7774ZM89.6033 79.4166V78.9036H89.9332C90.1126 78.9036 90.3571 78.9181 90.3571 79.137C90.3571 79.375 90.2306 79.4166 90.019 79.4166H89.6033ZM78.1561 68.707L80.7192 75.7187H75.5137L78.1561 68.707ZM75.4111 65.9768L69.5045 80.9424H73.6752L74.6094 78.2978H81.5996L82.4838 80.9424H87.0116L81.061 65.9749L75.4111 65.9768ZM63.5526 80.9479H67.7842V65.9722L63.5519 65.9712L63.5526 80.9479ZM34.176 65.9712L30.6455 77.8407L27.2635 65.9722L22.6976 65.9712L27.5278 80.9479H33.6241L38.4932 65.9712H34.176ZM51.2807 69.2323H53.0997C55.738 69.2323 57.4447 70.4169 57.4447 73.491C57.4447 76.5656 55.738 77.7505 53.0997 77.7505H51.2807V69.2323ZM47.0847 65.9712V80.9479H53.9447C57.5997 80.9479 58.7935 80.3404 60.084 78.9776C60.9955 78.0206 61.5852 75.9201 61.5852 73.6245C61.5852 71.5188 61.0862 69.6415 60.2163 68.4719C58.6491 66.3804 56.3912 65.9712 53.0213 65.9712H47.0847ZM7 65.9504V80.9479H11.2674V69.5603L14.574 69.5612C15.6688 69.5612 16.4493 69.8343 16.9765 70.3973C17.6452 71.1095 17.9182 72.2593 17.9182 74.3626V80.9479H22.0534V72.6617C22.0534 66.7478 18.2839 65.9504 14.5957 65.9504H7ZM40.2742 65.9712L40.2759 80.9479H44.5056V65.9712H40.2742Z" fill="black"/>
<path d="M18.3725 36.1512C18.3725 36.1512 23.815 28.1211 34.682 27.2904V24.377C22.6455 25.3437 12.2223 35.5381 12.2223 35.5381C12.2223 35.5381 18.1258 52.6039 34.682 54.1667V51.0701C22.5323 49.5416 18.3725 36.1512 18.3725 36.1512ZM34.682 44.9117V47.7478C25.4995 46.1105 22.9507 36.5655 22.9507 36.5655C22.9507 36.5655 27.3596 31.6813 34.682 30.8893V34.0012C34.6765 34.0012 34.6726 33.9995 34.668 33.9995C30.8248 33.5383 27.8225 37.1285 27.8225 37.1285C27.8225 37.1285 29.5053 43.1723 34.682 44.9117ZM34.682 19.0037V24.377C35.0354 24.35 35.3887 24.327 35.744 24.3149C49.4282 23.8537 58.3445 35.5381 58.3445 35.5381C58.3445 35.5381 48.1039 47.9904 37.435 47.9904C36.4572 47.9904 35.5418 47.8997 34.682 47.7473V51.0701C35.4424 51.1678 36.2083 51.2172 36.975 51.2181C46.9031 51.2181 54.0828 46.1477 61.035 40.1468C62.1877 41.0699 66.9066 43.3157 67.8767 44.2986C61.2665 49.833 45.861 54.2942 37.1271 54.2942C36.2852 54.2942 35.4767 54.2434 34.682 54.1667V58.8356H72.4181V19.0037H34.682ZM34.682 30.8893V27.2904C35.0317 27.2659 35.3841 27.2473 35.744 27.2359C45.5843 26.9269 52.0402 35.6922 52.0402 35.6922C52.0402 35.6922 45.0672 45.3763 37.5907 45.3763C36.5147 45.3763 35.55 45.2033 34.6818 44.9114V34.0009C38.5127 34.4638 39.2837 36.156 41.5868 39.9954L46.7094 35.6762C46.7094 35.6762 42.9702 30.7722 36.6669 30.7722C35.9815 30.772 35.3258 30.8204 34.682 30.8893Z" fill="#77B900"/>
</g>
<defs>
<clipPath id="clip0_264_4">
<rect width="85" height="62.594" fill="white" transform="translate(7 19)"/>
</clipPath>
</defs>
</svg>
