<svg width="100" height="100" viewBox="0 0 100 100" fill="none" xmlns="http://www.w3.org/2000/svg">
<rect width="100" height="100" rx="24" fill="white"/>
<path d="M38.6912 38.7685V33.7004C39.1918 33.6691 39.6923 33.6378 40.1929 33.6378C54.0832 33.1999 63.187 45.5885 63.187 45.5885C63.187 45.5885 53.3636 59.2286 42.8208 59.2286C41.413 59.2286 40.0364 59.0096 38.7225 58.5716V43.1796C44.1347 43.8366 45.2297 46.2142 48.452 51.6264L55.6787 45.5572C55.6787 45.5572 50.3916 38.6434 41.5068 38.6434C40.5683 38.6121 39.6297 38.6746 38.6912 38.7685ZM38.6912 22V29.5708L40.1929 29.477C59.4954 28.82 72.1031 45.307 72.1031 45.307C72.1031 45.307 57.6496 62.8888 42.6018 62.8888C41.2878 62.8888 40.0051 62.7637 38.7225 62.5447V67.2374C39.7862 67.3625 40.8811 67.4564 41.9448 67.4564C55.9602 67.4564 66.0964 60.2922 75.9198 51.8454C77.5466 53.1594 84.2102 56.3191 85.5867 57.6956C76.2639 65.5167 54.5212 71.8049 42.1951 71.8049C41.0063 71.8049 39.88 71.7424 38.7538 71.6172V78.2183H92V22H38.6912ZM38.6912 58.5716V62.576C25.7394 60.2609 22.1417 46.7773 22.1417 46.7773C22.1417 46.7773 28.3673 39.8947 38.6912 38.7685V43.1483H38.6599C33.2477 42.4913 28.993 47.5594 28.993 47.5594C28.993 47.5594 31.4019 56.1001 38.6912 58.5716ZM15.6971 46.2142C15.6971 46.2142 23.3618 34.8892 38.7225 33.7004V29.5708C21.7037 30.9474 7 45.3382 7 45.3382C7 45.3382 15.3217 69.4273 38.6912 71.6172V67.2374C21.5473 65.11 15.6971 46.2142 15.6971 46.2142Z" fill="#76B900"/>
</svg>
