<svg width="100" height="100" viewBox="0 0 100 100" fill="none" xmlns="http://www.w3.org/2000/svg">
<rect width="100" height="100" rx="24" fill="white"/>
<path d="M36.3334 22.0002C20.6934 22.0001 8.00008 34.6933 8 50.3333C7.99992 65.9733 20.6931 78.6667 36.3331 78.6667C51.9732 78.6668 64.6665 65.9736 64.6666 50.3336C64.6667 34.6936 51.9735 22.0002 36.3334 22.0002ZM36.3333 58.8334C31.63 58.8334 27.8333 55.0365 27.8333 50.3334C27.8333 45.63 31.6301 41.8334 36.3333 41.8335C41.0366 41.8335 44.8333 45.6301 44.8333 50.3335C44.8333 55.0366 41.0365 58.8335 36.3333 58.8334Z" fill="#00AEEF"/>
<path d="M68.18 43.25C75.3779 45.321 83.8767 43.2501 83.8767 43.2501C81.4115 54.0169 73.5917 60.7599 62.3149 61.5816C57.98 71.6401 47.9783 78.6667 36.3334 78.6667L44.8335 51.6512C53.5711 23.8808 58.0494 21.9999 78.7719 22L93 22.0001C90.6199 32.4833 82.4175 40.4925 68.18 43.25Z" fill="#008CCF"/>
</svg>
