<svg width="100" height="100" viewBox="0 0 100 100" fill="none" xmlns="http://www.w3.org/2000/svg">
<rect width="100" height="100" rx="24" fill="white"/>
<path d="M49.6667 8C26.6562 8 8 26.6542 8 49.6667C8 65.0687 16.3792 78.4854 28.8062 85.6979L38.1937 69.4833C31.3583 65.5167 26.75 58.1375 26.75 49.6667C26.75 37.0104 37.0104 26.75 49.6667 26.75C62.3229 26.75 72.5833 37.0104 72.5833 49.6667C72.5833 58.1375 67.975 65.5167 61.1396 69.4833L70.5271 85.6979C82.9542 78.4854 91.3333 65.0687 91.3333 49.6667C91.3333 26.6542 72.6771 8 49.6667 8Z" fill="#FF9100"/>
<path d="M62.1666 49.6667C62.1666 42.7626 56.5687 37.1667 49.6666 37.1667C42.7645 37.1667 37.1666 42.7626 37.1666 49.6667C37.1666 54.9917 40.502 59.5272 45.1916 61.3272L39.8583 90.123C43.0104 90.8855 46.2833 91.3334 49.6666 91.3334C53.05 91.3334 56.3229 90.8855 59.4729 90.1251L54.1395 61.3292C58.8312 59.5272 62.1666 54.9917 62.1666 49.6667Z" fill="#1A237E"/>
</svg>
