<svg width="100" height="100" viewBox="0 0 100 100" fill="none" xmlns="http://www.w3.org/2000/svg">
<rect width="100" height="100" rx="24" fill="#2081E2"/>
<path d="M12.0576 55.6829L12.355 55.2154L30.29 27.1583C30.5521 26.7475 31.1684 26.79 31.3666 27.2362C34.3629 33.9512 36.9483 42.3025 35.7371 47.5016C35.2201 49.6408 33.8034 52.5379 32.2096 55.2154C32.0042 55.605 31.7776 55.9875 31.5367 56.3558C31.4233 56.5258 31.2321 56.625 31.0266 56.625H12.5817C12.0858 56.625 11.7954 56.0867 12.0576 55.6829Z" fill="white"/>
<path d="M92 60.8963V65.3375C92 65.5925 91.8442 65.8192 91.6175 65.9183C90.2292 66.5133 85.4763 68.695 83.5001 71.4433C78.4567 78.4629 74.6034 88.5001 65.99 88.5001H30.0562C17.3205 88.5001 7 78.1443 7 65.3658V64.955C7 64.615 7.27619 64.3388 7.61622 64.3388H27.648C28.0445 64.3388 28.3349 64.7071 28.2996 65.0967C28.1579 66.4 28.3988 67.7317 29.015 68.9429C30.205 71.3584 32.67 72.8672 35.3333 72.8672H45.25V65.1251H35.4466C34.9438 65.1251 34.6463 64.5441 34.9367 64.1334C35.0429 63.9704 35.1634 63.8005 35.2908 63.6093C36.2188 62.2917 37.5433 60.2447 38.8609 57.9142C39.7604 56.3418 40.6316 54.663 41.3329 52.9772C41.4747 52.6726 41.5879 52.3608 41.7012 52.0562C41.8925 51.5179 42.0909 51.015 42.2325 50.5121C42.3742 50.087 42.4874 49.6408 42.6008 49.2229C42.9338 47.792 43.0754 46.2762 43.0754 44.7038C43.0754 44.0876 43.0471 43.4429 42.9905 42.8267C42.9621 42.1538 42.8771 41.4808 42.792 40.8079C42.7354 40.2129 42.6292 39.625 42.5159 39.0087C42.3742 38.1092 42.1758 37.2167 41.9491 36.317L41.8712 35.9771C41.7012 35.3608 41.5596 34.773 41.3613 34.1567C40.8016 32.2229 40.1571 30.3388 39.4771 28.5751C39.2292 27.8738 38.9458 27.2009 38.6624 26.528C38.2446 25.5151 37.8195 24.5942 37.43 23.7229C37.2317 23.3262 37.0617 22.965 36.8917 22.5967C36.7004 22.1787 36.5022 21.7608 36.3037 21.3642C36.1621 21.0596 35.9991 20.7763 35.8858 20.4929L34.6746 18.2546C34.5046 17.95 34.7879 17.5887 35.1208 17.6808L42.7001 19.7349H42.7213C42.7354 19.7349 42.7425 19.7421 42.7496 19.7421L43.7483 20.0183L44.8463 20.3301L45.25 20.4433V15.9383C45.25 13.7637 46.9925 12 49.1459 12C50.2225 12 51.2 12.4392 51.9013 13.1545C52.6025 13.87 53.0416 14.8475 53.0416 15.9383V22.6251L53.8492 22.8516C53.913 22.873 53.9767 22.9013 54.0333 22.9437C54.2318 23.0925 54.515 23.312 54.8762 23.5813C55.1596 23.8079 55.4642 24.0842 55.8325 24.3676C56.562 24.9554 57.4334 25.7133 58.3896 26.5846C58.6446 26.8042 58.8925 27.0309 59.1192 27.2575C60.3518 28.405 61.733 29.7508 63.0505 31.2384C63.4188 31.6563 63.7801 32.0813 64.1483 32.5275C64.5166 32.9808 64.9063 33.427 65.2462 33.8734C65.6926 34.4684 66.1742 35.0846 66.5921 35.7292C66.7904 36.0338 67.0171 36.3454 67.2084 36.65C67.7467 37.4645 68.2213 38.3076 68.6747 39.1505C68.8659 39.54 69.0642 39.965 69.2342 40.3829C69.7371 41.5092 70.1338 42.6567 70.3887 43.8042C70.4666 44.0521 70.5233 44.3213 70.5517 44.5622V44.6188C70.6367 44.9587 70.6651 45.32 70.6933 45.6883C70.8067 46.8642 70.75 48.04 70.495 49.2229C70.3887 49.7259 70.2471 50.2004 70.0771 50.7034C69.9071 51.185 69.7371 51.6879 69.5176 52.1625C69.0926 53.147 68.5896 54.1317 67.9946 55.0525C67.8033 55.3925 67.5767 55.7538 67.35 56.0938C67.102 56.455 66.8471 56.795 66.6204 57.128C66.3088 57.553 65.9759 57.9992 65.6359 58.3959C65.3313 58.8138 65.0197 59.2317 64.6796 59.6C64.205 60.1596 63.7517 60.6909 63.277 61.2009C62.9938 61.5338 62.6892 61.8738 62.3775 62.1784C62.073 62.5183 61.7612 62.8229 61.4779 63.1063C61.0034 63.5809 60.6067 63.9492 60.2737 64.2537L59.4946 64.9692C59.3813 65.0684 59.2325 65.1251 59.0767 65.1251H53.0416V72.8672H60.635C62.335 72.8672 63.9501 72.265 65.2534 71.16C65.6996 70.7705 67.6475 69.0846 69.9496 66.5417C70.0275 66.4566 70.1267 66.3929 70.2401 66.3647L91.2138 60.3013C91.6034 60.188 92 60.4854 92 60.8963Z" fill="white"/>
</svg>
