<svg width="100" height="100" viewBox="0 0 100 100" fill="none" xmlns="http://www.w3.org/2000/svg">
<rect width="100" height="100" rx="24" fill="white"/>
<path fill-rule="evenodd" clip-rule="evenodd" d="M8.5178 41C9.37569 41 10.0356 41.6599 10.0356 42.5178V58.1578C10.0356 58.9497 9.37569 59.6756 8.5178 59.6756C7.65991 59.6756 7 58.9497 7 58.1578V42.5178C7 41.6599 7.65991 41 8.5178 41Z" fill="#FF1A24"/>
<path fill-rule="evenodd" clip-rule="evenodd" d="M14.589 41C15.4469 41 16.1068 41.6599 16.1068 42.5178V58.1578C16.1068 58.9497 15.4469 59.6756 14.589 59.6756C13.7971 59.6756 13.0712 58.9497 13.0712 58.1578V42.5178C13.0712 41.6599 13.7971 41 14.589 41Z" fill="#FF1A24"/>
<path fill-rule="evenodd" clip-rule="evenodd" d="M82.7581 57.0359H89.3573C91.073 57.0359 92.0629 55.98 91.9969 54.2643C91.9969 53.3404 91.733 52.4825 90.8751 51.8886C90.2152 51.4926 89.4893 51.2946 88.7633 51.0967L86.6516 50.5027C86.2557 50.3708 85.8597 50.3048 85.5298 50.0408C85.3318 49.8428 85.3318 49.7109 85.3318 49.5129C85.3318 49.0509 85.5298 48.853 86.0577 48.853H91.601V46.6752H85.7277C84.2759 46.6752 83.0221 47.0712 82.6921 48.721C82.5602 49.7109 82.6261 50.7667 83.3521 51.4926C83.946 52.0865 84.6719 52.3505 85.4638 52.6145L87.3775 53.0764C87.8395 53.2084 88.3014 53.3404 88.7633 53.5384C88.8953 53.6043 89.0933 53.6703 89.1593 53.8023C89.2253 54.0003 89.2913 54.3962 89.1593 54.5942C89.0273 54.7922 88.8293 54.8582 88.5654 54.8582H82.7581V57.0359Z" fill="black"/>
<path fill-rule="evenodd" clip-rule="evenodd" d="M73.2554 48.853C74.2453 48.853 75.3671 49.0509 75.4331 50.2388C75.4331 50.4368 75.4991 50.6347 75.2351 50.6347H71.0117C71.0117 50.1728 71.0777 49.7109 71.4077 49.3809C71.8036 48.919 72.5295 48.853 73.2554 48.853ZM72.5295 54.8582C71.9356 54.7922 71.4077 54.6602 71.1437 54.0663C71.0777 53.6703 71.0117 53.2744 71.0117 52.8784H76.423C77.2149 52.8784 77.8088 52.4825 78.0728 51.7566C78.2708 51.3606 78.2708 50.8987 78.2708 50.4368C78.2048 49.3149 77.9408 48.2591 77.0829 47.5331C75.9611 46.6753 74.5752 46.6093 73.2554 46.6093C71.8036 46.6093 70.3518 46.7413 69.2299 47.7971C68.2401 48.919 68.1741 50.3708 68.1741 51.7566C68.1741 52.4825 68.1741 53.1424 68.3061 53.8023C68.438 54.5942 68.636 55.3201 69.098 55.9141C69.6919 56.574 70.3518 56.8379 71.1437 56.9699C71.5396 57.0359 71.8696 57.0359 72.1995 57.0359H77.9408V54.8582H72.8595H72.5295Z" fill="black"/>
<path fill-rule="evenodd" clip-rule="evenodd" d="M40.1277 52.6145V54.6602C40.1277 54.8582 39.9297 54.8582 39.7318 54.8582H36.6962C36.1022 54.8582 35.9702 54.2643 35.9702 53.7363C35.9702 53.2084 36.0362 52.6805 36.7621 52.6145H40.1277ZM33.9245 46.6752V48.919H39.0718C39.3358 48.919 39.5998 48.9849 39.8637 49.1829C40.0617 49.4469 40.1277 49.7109 40.1277 49.9748V50.4368H36.1022C35.5083 50.4368 35.0464 50.5027 34.5184 50.7667C33.4626 51.4266 33.1986 52.4825 33.1986 53.6703C33.1986 54.8582 33.3966 56.178 34.5184 56.8379C35.0464 57.0359 35.5083 57.1019 36.1022 57.1019H40.7876C42.1074 57.1019 42.8334 56.508 42.8334 55.1881V50.0408C42.8334 49.3149 42.7014 48.655 42.3714 47.9951C41.7775 47.0712 40.8536 46.7412 39.7977 46.6752H33.9245Z" fill="black"/>
<path fill-rule="evenodd" clip-rule="evenodd" d="M23.6958 49.9748V46.5433C23.6958 46.4113 23.6958 46.2133 23.7618 46.1473C23.8938 46.0154 24.0258 46.0154 24.1577 46.0154H28.1172C29.0411 46.0154 29.635 46.2793 29.767 47.2032C29.899 47.7971 29.899 48.457 29.767 49.051C29.503 49.9089 28.8431 49.9748 28.1172 49.9748H23.6958ZM23.6958 57.1019V52.4825H29.5031C30.3609 52.4825 31.1528 52.2845 31.8127 51.6906C32.4727 51.0307 32.7366 50.1068 32.8686 49.1829C32.9346 48.3911 32.9346 47.5332 32.8686 46.7413C32.8026 46.1473 32.6706 45.5534 32.3407 44.9595C31.6148 43.8376 30.4929 43.5737 29.2391 43.5077H29.1071H22.9039C22.244 43.5077 21.5841 43.7057 21.1221 44.2336C20.7262 44.6955 20.7262 45.1575 20.7262 45.7514V57.1019H23.6958Z" fill="black"/>
<path fill-rule="evenodd" clip-rule="evenodd" d="M44.8131 47.7311C44.0212 48.589 43.8232 49.5789 43.8232 50.6347V57.0359H46.5289V51.2287C46.5949 50.7007 46.5949 50.1068 46.8588 49.6449C47.3208 48.9849 47.9807 48.853 48.6406 48.853H50.3564V46.6752H48.1127C46.8588 46.6752 45.737 46.8732 44.8131 47.7311Z" fill="black"/>
<path fill-rule="evenodd" clip-rule="evenodd" d="M81.7683 57.0359H79.0626V43.4417H81.7683V57.0359Z" fill="black"/>
<path fill-rule="evenodd" clip-rule="evenodd" d="M67.3821 57.0359H64.6105V43.5077H67.3821V57.0359Z" fill="black"/>
<path fill-rule="evenodd" clip-rule="evenodd" d="M63.6206 57.0359H60.9149V43.5077H63.6206V57.0359Z" fill="black"/>
<path fill-rule="evenodd" clip-rule="evenodd" d="M57.1535 52.6145V54.5942C57.1535 54.8582 57.0215 54.8582 56.8235 54.8582H53.7879C53.128 54.7922 53.062 54.2643 53.062 53.7363C53.062 53.1424 53.128 52.6145 53.8539 52.6145H57.1535ZM50.9503 46.6752V48.853H56.0976C56.4276 48.853 56.6915 48.919 56.8895 49.1829C57.1535 49.3809 57.1535 49.6449 57.1535 49.9748V50.3708H53.194C52.6001 50.3708 52.0721 50.4368 51.6102 50.7667C50.4883 51.4266 50.2904 52.4165 50.2244 53.6043C50.2904 54.7922 50.4223 56.112 51.6102 56.7719C52.0721 57.0359 52.6001 57.0359 53.194 57.0359H57.8794C59.1992 57.0359 59.9251 56.442 59.9251 55.1221V50.0408C59.8591 49.3149 59.7931 48.589 59.3972 47.9291C58.8692 47.0052 57.8794 46.6752 56.8895 46.6752H50.9503Z" fill="black"/>
</svg>
