<svg width="100" height="100" viewBox="0 0 100 100" fill="none" xmlns="http://www.w3.org/2000/svg">
<rect width="100" height="100" rx="24" fill="#F7931E"/>
<path d="M92 49.5C92 57.9057 89.5074 66.1226 84.8375 73.1117C80.1675 80.1008 73.5299 85.5481 65.764 88.7649C57.9982 91.9816 49.4529 92.8232 41.2087 91.1833C32.9645 89.5435 25.3917 85.4958 19.448 79.552C13.5042 73.6083 9.45652 66.0355 7.81664 57.7913C6.17677 49.5471 7.01841 41.0018 10.2351 33.2359C13.4519 25.4701 18.8992 18.8325 25.8883 14.1625C32.8774 9.49258 41.0943 7 49.5 7C60.7717 7 71.5817 11.4777 79.552 19.448C87.5223 27.4183 92 38.2283 92 49.5ZM66.8088 27.5859L67.4297 24.5977C67.475 24.439 67.4821 24.2718 67.4502 24.1098C67.4183 23.9479 67.3484 23.7958 67.2463 23.6662C67.1442 23.5365 67.0128 23.4329 66.8628 23.364C66.7129 23.295 66.5487 23.2626 66.3838 23.2695H64.3916C64.0152 23.2853 63.6542 23.4236 63.3635 23.6633C63.0729 23.9031 62.8684 24.2311 62.7813 24.5977L62.1471 27.5859H57.4986L58.1328 24.5977C58.1782 24.439 58.1852 24.2718 58.1533 24.1098C58.1214 23.9479 58.0516 23.7958 57.9495 23.6662C57.8473 23.5365 57.7159 23.4329 57.5659 23.364C57.416 23.295 57.2518 23.2626 57.0869 23.2695H55.0947C54.7183 23.2853 54.3573 23.4236 54.0667 23.6633C53.776 23.9031 53.5716 24.2311 53.4844 24.5977L52.8502 27.5859H26.9219L20.2813 35.5547H64.1094C65.1661 35.5547 66.1795 35.9745 66.9268 36.7217C67.674 37.4689 68.0938 38.4823 68.0938 39.5391V43.5234C68.0938 44.5802 67.674 45.5936 66.9268 46.3408C66.1795 47.088 65.1661 47.5078 64.1094 47.5078H43.6496L45.343 39.5391H34.718L26.9551 76.0625H37.5801L41.9563 55.4766H46.9367L46.3026 58.4648C46.2572 58.6235 46.2502 58.7907 46.2821 58.9527C46.3139 59.1146 46.3838 59.2666 46.4859 59.3963C46.588 59.526 46.7195 59.6296 46.8694 59.6985C47.0194 59.7675 47.1835 59.7998 47.3484 59.793H49.3406C49.7171 59.7771 50.078 59.6389 50.3687 59.3991C50.6594 59.1594 50.8638 58.8314 50.951 58.4648L51.5852 55.4766H56.2336L55.5994 58.4648C55.5541 58.6235 55.5471 58.7907 55.5789 58.9527C55.6108 59.1146 55.6807 59.2666 55.7828 59.3963C55.8849 59.526 56.0163 59.6296 56.1663 59.6985C56.3162 59.7675 56.4804 59.7998 56.6453 59.793H58.6375C59.0139 59.7771 59.3749 59.6389 59.6656 59.3991C59.9562 59.1594 60.1607 58.8314 60.2479 58.4648L60.882 55.4766H70.75C72.8634 55.4766 74.8903 54.637 76.3848 53.1426C77.8792 51.6481 78.7188 49.6212 78.7188 47.5078V35.5547C78.7188 33.4412 77.8792 31.4144 76.3848 29.9199C74.8903 28.4255 72.8634 27.5859 70.75 27.5859H66.8088Z" fill="white"/>
</svg>
