<svg width="100" height="100" viewBox="0 0 100 100" fill="none" xmlns="http://www.w3.org/2000/svg">
<rect width="100" height="100" rx="24" fill="white"/>
<path d="M42.0076 25.0015C41.4241 25.0014 40.8599 25.2096 40.4163 25.5886C39.9727 25.9676 39.6789 26.4924 39.5879 27.0687L35.5663 52.5687L31.8714 76.0001L31.8691 76.0198L31.8736 76.0001L35.5685 52.5687C35.7564 51.3778 36.7817 50.5015 37.9869 50.5015H49.7682C61.6249 50.5015 71.6884 41.8511 73.5263 30.1291C73.6664 29.2385 73.7413 28.3564 73.7583 27.4859V27.4845H73.757C70.7438 25.9037 67.2055 25.0015 63.3285 25.0015H42.0076Z" fill="#001C64"/>
<path d="M73.7574 27.4849C73.7409 28.3554 73.665 29.2384 73.5254 30.129C71.6875 41.851 61.624 50.5013 49.7673 50.5013H37.986C36.7808 50.5013 35.7555 51.3777 35.5676 52.5686L31.8727 76L29.5538 90.7008C29.5092 90.9847 29.5266 91.275 29.6048 91.5516C29.683 91.8282 29.8202 92.0846 30.007 92.3031C30.1938 92.5216 30.4257 92.697 30.6868 92.8173C30.9478 92.9376 31.2319 92.9999 31.5193 93H44.3072C44.8907 93 45.4549 92.7918 45.8985 92.4129C46.3421 92.0339 46.6359 91.5091 46.7269 90.9328L50.0957 69.5686C50.2844 68.3777 51.3103 67.5 52.5154 67.5H60.0454C71.9021 67.5 81.9642 58.8501 83.8021 47.129C85.1068 38.8079 80.9193 31.2382 73.7574 27.4849Z" fill="#0070E0"/>
<path d="M27.4786 8C26.895 8.00002 26.3305 8.20841 25.8869 8.58765C25.4433 8.96688 25.1496 9.49205 25.0588 10.0686L15.0244 73.6994C14.9795 73.9835 14.9967 74.2739 15.0749 74.5507C15.153 74.8274 15.2902 75.084 15.477 75.3026C15.6638 75.5213 15.8958 75.6968 16.157 75.8172C16.4181 75.9376 16.7023 76 16.9899 76H31.8709L35.5658 52.5686L39.5874 27.0686C39.6785 26.4923 39.9722 25.9674 40.4158 25.5885C40.8594 25.2095 41.4237 25.0013 42.0071 25.0013H63.3271C67.205 25.0013 70.7433 25.9049 73.7569 27.4835C73.9622 16.8119 65.1565 8 53.0482 8H27.4786Z" fill="#003087"/>
</svg>
