<svg width="100" height="100" viewBox="0 0 100 100" fill="none" xmlns="http://www.w3.org/2000/svg">
<rect width="100" height="100" rx="24" fill="#6082BB"/>
<path d="M20.8755 56.188C23.4096 56.188 25.3014 55.7133 26.4984 54.7776C27.6826 53.8515 28.5004 52.2469 28.9291 50.0087C29.3288 47.9167 29.1766 46.4559 28.4767 45.6676C27.7611 44.8624 26.214 44.4541 23.8784 44.4541H19.8287L17.5836 56.188H20.8755ZM7.62994 70.6421C7.44196 70.6421 7.26342 70.5568 7.14391 70.4091C7.02419 70.2617 6.97567 70.0676 7.01159 69.88L12.9615 38.7849C13.0191 38.4843 13.2785 38.2671 13.5801 38.2671H26.4036C30.4338 38.2671 33.4336 39.3786 35.3191 41.5712C37.2147 43.7752 37.8 46.8561 37.0588 50.7281C36.7572 52.3056 36.2384 53.7706 35.5169 55.0823C34.7946 56.3954 33.84 57.6104 32.6791 58.6942C31.2895 60.0152 29.7168 60.9731 28.0088 61.5368C26.3278 62.093 24.1691 62.375 21.5926 62.375H16.4L14.9172 70.1241C14.8596 70.4249 14.6004 70.6421 14.2988 70.6421H7.62994Z" fill="white"/>
<path d="M52.8716 62.375C52.6858 62.375 52.5098 62.2897 52.3918 62.142C52.2734 61.9946 52.2255 61.8007 52.2609 61.613L54.8592 47.8546C55.1063 46.5461 55.0454 45.607 54.6877 45.2102C54.4687 44.9676 53.8111 44.5608 51.8664 44.5608H47.1592L43.8925 61.857C43.8357 62.1578 43.5796 62.375 43.2819 62.375H36.7505C36.5647 62.375 36.3887 62.2897 36.2705 62.142C36.1523 61.9946 36.1044 61.8005 36.1399 61.613L42.0135 30.5178C42.0703 30.2172 42.3264 30 42.6242 30H49.1555C49.3413 30 49.5173 30.0853 49.6355 30.2328C49.7537 30.3804 49.8016 30.5743 49.7662 30.7621L48.3487 38.2671H53.4125C57.2702 38.2671 59.886 38.9669 61.4096 40.4065C62.9626 41.8752 63.4472 44.2235 62.8501 47.3869L60.1172 61.857C60.0604 62.1578 59.8046 62.375 59.5066 62.375H52.8716Z" fill="white"/>
<path d="M74.8727 56.188C77.504 56.188 79.4684 55.7133 80.7113 54.7776C81.941 53.8517 82.7902 52.2471 83.2356 50.0087C83.6506 47.9167 83.4925 46.4559 82.7656 45.6676C82.0225 44.8624 80.416 44.4541 77.9908 44.4541H73.7857L71.4545 56.188H74.8727ZM61.1191 70.6421C60.924 70.6421 60.7386 70.5568 60.6145 70.4091C60.4902 70.2617 60.4396 70.0676 60.4768 69.88L66.6551 38.7849C66.715 38.4843 66.9842 38.2671 67.2976 38.2671H80.613C84.798 38.2671 87.9126 39.3786 89.8707 41.5712C91.839 43.775 92.4466 46.8559 91.6772 50.7281C91.3636 52.3056 90.8251 53.7706 90.0759 55.0823C89.3259 56.3954 88.3346 57.6104 87.1292 58.6942C85.6863 60.0152 84.0532 60.9731 82.2796 61.5368C80.5342 62.093 78.2927 62.375 75.6173 62.375H70.2253L68.6862 70.1241C68.6262 70.4249 68.3571 70.6421 68.0437 70.6421H61.1191Z" fill="white"/>
</svg>
