<svg width="100" height="100" viewBox="0 0 100 100" fill="none" xmlns="http://www.w3.org/2000/svg">
<rect width="100" height="100" rx="24" fill="white"/>
<path d="M50.5621 8C27.055 8 8 27.0081 8 50.454C8 68.4421 19.2121 83.8058 35.0469 89.986C34.6741 86.625 34.3404 81.4754 35.1925 77.8062C35.97 74.4877 40.1843 56.7085 40.1843 56.7085C40.1843 56.7085 38.9097 54.1585 38.9097 50.4008C38.9097 44.511 42.343 40.091 46.607 40.091C50.2426 40.091 51.9965 42.8146 51.9965 46.0694C51.9965 49.7137 49.6781 55.1608 48.4745 60.2077C47.4626 64.4329 50.6047 67.8754 54.7765 67.8754C62.3317 67.8754 68.1543 59.9244 68.1543 48.4423C68.1543 38.3096 60.8299 31.1979 50.374 31.1979C38.2671 31.1979 31.1699 40.2717 31.1699 49.611C31.1699 53.2696 32.5687 57.2008 34.3262 59.3187C34.6777 59.7437 34.7238 60.1156 34.628 60.5406C34.3084 61.8687 33.5877 64.7871 33.4421 65.3679C33.254 66.1648 32.8315 66.3277 32.0184 65.9523C26.7106 63.5085 23.3803 55.7594 23.3803 49.4977C23.3803 36.1244 33.1368 23.8135 51.4994 23.8135C66.262 23.8135 77.7439 34.3217 77.7439 48.3325C77.7439 62.9773 68.4881 74.7604 55.6143 74.7604C51.3042 74.7604 47.2567 72.5327 45.8224 69.8765L43.1631 79.9631C42.208 83.6642 39.5985 88.2931 37.8446 91.1052C41.8317 92.3271 46.0318 93 50.4485 93C73.906 93 93 73.9989 93 50.546C93 27.0896 74.0196 8 50.5621 8Z" fill="url(#paint0_linear_175_777)"/>
<defs>
<linearGradient id="paint0_linear_175_777" x1="50.5" y1="8" x2="50.5" y2="93" gradientUnits="userSpaceOnUse">
<stop stop-color="#FF0027"/>
<stop offset="1" stop-color="#CC001F"/>
</linearGradient>
</defs>
</svg>
