<svg width="100" height="100" viewBox="0 0 100 100" fill="none" xmlns="http://www.w3.org/2000/svg">
<rect width="100" height="100" rx="24" fill="black"/>
<path d="M78.3063 46.3292H19.4544C17.6233 46.5349 16.6163 47.6544 16.4384 49.6977V83.5175C16.6139 85.5584 17.6192 86.6739 19.4381 86.8868H78.3201C80.1399 86.6739 81.1444 85.5575 81.3206 83.5175V49.6977C81.1436 47.6544 80.1358 46.5349 78.3063 46.3292Z" fill="#F7971D"/>
<path d="M75.3605 62.0791C74.3617 60.9759 73.0202 60.2676 71.5587 59.942C71.1401 59.831 70.6619 59.7518 70.1298 59.7282C68.1975 59.5527 65.7152 60.3255 64.5613 61.2941L64.8412 53.3755H60.1418V77.8919H64.5075V76.5414C65.5136 77.3517 67.1293 78.2925 69.5904 78.2925C69.6867 78.2925 69.7781 78.2917 69.8671 78.2901C69.9307 78.2917 69.9952 78.2925 70.0588 78.2925C72.1217 78.2925 73.8753 77.4732 75.3181 75.8347C76.7616 74.1945 77.4838 71.8607 77.4838 68.8284C77.4838 65.8956 76.7755 63.6467 75.3605 62.0791ZM71.5725 73.2512C70.843 74.1374 69.9593 74.5797 68.9221 74.5797C67.5724 74.5797 66.4912 73.9554 65.6776 72.7069C65.0983 71.8264 64.8078 70.4669 64.8078 68.6268C64.8078 66.843 65.1815 65.5137 65.9282 64.639C66.6756 63.7642 67.6116 63.326 68.7377 63.326C69.8867 63.326 70.8283 63.7748 71.5644 64.6716C72.2996 65.5692 72.6685 67.0331 72.6685 69.0609C72.6685 70.9688 72.3029 72.3642 71.5725 73.2512ZM52.5684 67.6231C52.5684 70.165 52.4517 71.762 52.2175 72.4148C51.9833 73.0668 51.5483 73.6135 50.9127 74.0525C50.2778 74.494 49.5581 74.7135 48.7559 74.7135C48.0533 74.7135 47.4731 74.5495 47.0162 74.2206C46.5592 73.8918 46.2434 73.4454 46.0712 72.8823C45.8982 72.3193 45.8126 70.7901 45.8126 68.2914V60.1313H41.1139V71.3694C41.1139 73.0415 41.3253 74.3512 41.7488 75.2994C42.1723 76.2468 42.8578 76.9828 43.8052 77.5067C44.7534 78.0306 45.8232 78.2925 47.0162 78.2925C47.1949 78.2925 47.372 78.286 47.5474 78.2738C47.5556 78.2738 47.5564 78.2738 47.5613 78.2721C50.552 78.1856 52.1098 76.8294 52.9029 75.9351V77.891H57.267V60.1313H52.5684V67.6231ZM37.2354 61.871C36.7948 61.2476 36.1403 60.7343 35.2713 60.3328C34.4846 59.9697 33.6123 59.7731 32.6527 59.738C32.6364 59.7371 32.6217 59.7355 32.6054 59.7347C30.6249 59.6294 28.092 60.2072 26.9096 61.3447V53.3755H22.2109V77.891H26.9096V68.9957C26.9096 67.5015 27.0524 66.3722 27.3363 65.6092C27.6211 64.8446 28.0691 64.2734 28.6828 63.8939C29.2956 63.5161 29.9916 63.326 30.7734 63.326C31.4523 63.326 32.0195 63.4737 32.4699 63.7691C32.9211 64.0645 33.2369 64.4635 33.4148 64.9645C33.5927 65.4672 33.6825 66.648 33.6825 68.5093V77.891H38.3811V67.473C38.3811 65.8793 38.2995 64.7026 38.1379 63.9453C37.9772 63.1856 37.6753 62.4953 37.2354 61.871Z" fill="black"/>
<path d="M84.6687 24.9108C84.4868 24.1372 84.1644 23.4445 83.7026 22.8349C83.2383 22.2253 82.5553 21.7235 81.6519 21.331C80.7486 20.9385 79.7522 20.7426 78.6612 20.7426C76.684 20.63 73.4746 21.3848 72.5052 22.9206V21.1637H67.9143V39.8439H72.8569V31.3843C72.8569 29.2969 72.9834 27.8656 73.2355 27.092C73.4869 26.3176 73.9536 25.6967 74.6342 25.2274C75.3139 24.7582 76.0818 24.5232 76.9378 24.5232C77.6061 24.5232 78.1781 24.6889 78.6531 25.0161C79.128 25.3441 79.4715 25.8052 79.6821 26.3968C79.8934 26.99 79.9987 28.294 79.9987 30.3104V39.8439H84.9413V28.2353C84.9413 26.7926 84.8507 25.6844 84.6687 24.9108ZM61.1177 20.8136C59.6554 21.0005 58.2576 22.1804 57.6455 22.932V21.1645H53.0546V39.8447H57.9972V34.0755C57.9972 30.8971 58.1352 28.8106 58.411 27.8134C58.686 26.8162 59.0646 26.1283 59.5452 25.7464C60.0259 25.3654 60.6126 25.1744 61.3046 25.1744C62.0194 25.1744 62.793 25.4437 63.6261 25.9831L65.157 21.6737C64.1133 21.0527 63.028 20.7426 61.9027 20.7426C61.631 20.7426 61.3698 20.7671 61.1177 20.8136ZM40.9588 20.7418C39.1293 20.7418 37.4728 21.1457 35.9901 21.956C34.5058 22.7639 33.3601 23.9365 32.5506 25.4731C31.7419 27.0096 31.3372 28.5984 31.3372 30.2402C31.3372 32.3864 31.7419 34.2069 32.5506 35.701C33.3601 37.1976 34.5409 38.3318 36.0954 39.1046C37.6491 39.8782 39.2819 40.2666 40.9939 40.2666C43.761 40.2666 46.0565 39.3372 47.8803 37.4783C49.7041 35.6194 50.6156 33.2774 50.6156 30.4499C50.6156 27.6486 49.7131 25.3294 47.9072 23.4942C46.1006 21.6598 43.7847 20.7418 40.9588 20.7418ZM44.2221 34.761C43.3481 35.7459 42.2661 36.2388 40.976 36.2388C39.6859 36.2388 38.6014 35.7459 37.7225 34.761C36.8429 33.7752 36.403 32.3562 36.403 30.5038C36.403 28.6514 36.8429 27.2316 37.7225 26.2466C38.6014 25.2625 39.6859 24.7697 40.976 24.7697C42.2661 24.7697 43.3481 25.2625 44.2221 26.2466C45.0952 27.2316 45.5326 28.64 45.5326 30.4687C45.5326 32.3456 45.0952 33.7752 44.2221 34.761ZM25.071 14.4446C24.1097 14.1859 22.046 14.057 18.8799 14.057H10.5247V39.8439H15.7309V30.117H19.1255C21.483 30.117 23.2831 29.9938 24.5259 29.7474C25.4415 29.5483 26.3407 29.1402 27.2261 28.525C28.1115 27.9097 28.841 27.0627 29.4163 25.9831C29.9908 24.9051 30.278 23.5734 30.278 21.9903C30.278 19.938 29.7794 18.2644 28.7831 16.9677C27.7859 15.6727 26.5488 14.8306 25.071 14.4446ZM24.3235 24.0663C23.931 24.6415 23.3892 25.0634 22.6972 25.3327C22.0052 25.602 20.6319 25.7366 18.5804 25.7366H15.7309V18.4194H18.2467C20.1227 18.4194 21.372 18.4782 21.993 18.5957C22.8376 18.7483 23.5353 19.1294 24.0869 19.7389C24.6369 20.3485 24.9135 21.1221 24.9135 22.0605C24.9135 22.8226 24.716 23.4918 24.3235 24.0663Z" fill="white"/>
</svg>
