<svg width="100" height="100" viewBox="0 0 100 100" fill="none" xmlns="http://www.w3.org/2000/svg">
<rect width="100" height="100" rx="24" fill="white"/>
<path d="M70.6729 68.6266C71.2081 64.1852 71.0479 63.5328 74.3799 64.2555L75.2237 64.3258C77.7862 64.443 81.1377 63.9196 83.1065 63.0094C87.3409 61.0563 89.8565 57.7946 85.6768 58.6539C76.1456 60.6071 75.4893 57.4 75.4893 57.4C85.5557 42.5681 89.7627 23.7361 86.1299 19.1267C76.2276 6.55647 59.0831 12.5018 58.794 12.6541L58.7042 12.6736C56.8214 12.283 54.712 12.0525 52.3448 12.0135C48.0324 11.9432 44.7589 13.1385 42.2785 15.0057C42.2785 15.0057 11.6926 2.49007 13.1145 30.7478C13.4192 36.7595 21.7902 76.2359 31.7746 64.3141C35.423 59.9547 38.9504 56.2672 38.9504 56.2672C40.7003 57.4235 42.798 58.0133 44.9972 57.7985L45.1691 57.6579C45.1144 58.1969 45.1378 58.7282 45.2355 59.3532C42.6652 62.2086 43.4191 62.7086 38.2785 63.7633C33.0754 64.8258 36.13 66.7242 38.1261 67.2203C40.5441 67.818 46.1417 68.6695 49.9269 63.4117L49.7745 64.0133C50.7824 64.8141 50.716 69.775 50.8566 73.3219C51.0011 76.8648 51.2394 80.1734 51.9659 82.1226C52.6964 84.0757 53.5519 89.0992 60.3136 87.6617C65.962 86.4585 70.2784 84.7281 70.6729 68.6266Z" fill="black" stroke="black" stroke-width="7.06244"/>
<path d="M85.677 58.6541C76.1457 60.6072 75.4895 57.4002 75.4895 57.4002C85.5559 42.5643 89.7629 23.7361 86.1301 19.1268C76.2278 6.55646 59.0832 12.5018 58.7942 12.6541L58.7043 12.6697C56.8215 12.283 54.7121 12.0526 52.345 12.0135C48.0325 11.9432 44.759 13.1346 42.2786 15.0057C42.2786 15.0057 11.6926 2.49005 13.1145 30.7479C13.4192 36.7596 21.7903 76.2361 31.7746 64.3143C35.4231 59.9549 38.9504 56.2674 38.9504 56.2674C40.7004 57.4236 42.7981 58.0135 44.9973 57.7986L45.1653 57.658C45.1145 58.1971 45.1379 58.7283 45.2356 59.3533C42.6614 62.2088 43.4192 62.7088 38.2746 63.7635C33.0715 64.826 36.1301 66.7244 38.1262 67.2205C40.5442 67.8182 46.1418 68.6697 49.9231 63.4119L49.7746 64.0135C50.7825 64.8143 51.4895 69.2283 51.3684 73.2283C51.2512 77.2322 51.1731 79.9783 51.966 82.1229C52.759 84.2713 53.552 89.0994 60.3137 87.6619C65.9621 86.4588 68.8879 83.3416 69.2942 78.1424C69.5832 74.4471 70.2356 74.994 70.2785 71.6893L70.802 70.1268C71.4075 65.119 70.8996 63.5018 74.3801 64.2518L75.2239 64.326C77.7864 64.4432 81.1379 63.9197 83.1067 63.0096C87.341 61.0565 89.8567 57.7947 85.677 58.6541Z" fill="#336791"/>
<path d="M50.3331 61.525C50.0713 70.8453 50.3995 80.2281 51.3174 82.5093C52.2354 84.7906 54.2002 89.2281 60.9619 87.7906C66.6104 86.5874 68.665 84.2593 69.5557 79.1226C70.2119 75.3414 71.4775 64.8414 71.6416 62.693" stroke="white" stroke-width="2.35414" stroke-linecap="round" stroke-linejoin="round"/>
<path d="M42.2316 14.7986C42.2316 14.7986 11.6262 2.37288 13.0481 30.6306C13.3488 36.6423 21.7238 76.1187 31.7082 64.1969C35.3566 59.8336 38.6535 56.4157 38.6535 56.4157" stroke="white" stroke-width="2.35414" stroke-linecap="round" stroke-linejoin="round"/>
<path d="M58.7628 12.5291C57.7042 12.8611 75.7861 5.96272 86.0635 19.0095C89.6963 23.6189 85.4893 42.447 75.4229 57.2829" stroke="white" stroke-width="2.35414" stroke-linecap="round" stroke-linejoin="round"/>
<path d="M75.4228 57.2829C75.4228 57.2829 76.0791 60.4899 85.6103 58.5329C89.7861 57.6774 87.2744 60.9391 83.04 62.8922C79.5634 64.4977 71.7705 64.9078 71.6416 62.693C71.3135 56.9782 75.7432 58.7125 75.4228 57.2829ZM75.4228 57.2829C75.1338 55.9938 73.1533 54.7282 71.8447 51.5719C70.7002 48.818 56.1573 27.6931 75.876 30.8298C76.5986 30.6814 70.7354 12.1971 52.2784 11.8963C33.8253 11.5955 34.4308 34.4392 34.4308 34.4392" stroke="white" stroke-width="2.35414" stroke-linecap="round" stroke-linejoin="bevel"/>
<path d="M45.169 59.236C42.5948 62.0914 43.3526 62.5914 38.2081 63.6461C33.005 64.7086 36.0636 66.607 38.0597 67.1031C40.4776 67.7008 46.0753 68.5523 49.8565 63.2946C51.0089 61.693 49.8487 59.1344 48.2667 58.486C47.505 58.1696 46.4815 57.775 45.169 59.236Z" stroke="white" stroke-width="2.35414" stroke-linecap="round" stroke-linejoin="round"/>
<path d="M44.9972 59.1852C44.7393 57.5094 45.5558 55.5094 46.4268 53.1735C47.7393 49.6696 50.7667 46.1618 48.3448 35.0407C46.5401 26.7517 34.4347 33.3142 34.4308 34.4392C34.423 35.5603 34.9777 40.1345 34.2277 45.4587C33.2472 52.4079 38.6769 58.2829 44.9268 57.6813" stroke="white" stroke-width="2.35414" stroke-linecap="round" stroke-linejoin="round"/>
<path d="M42.1182 34.2712C42.0636 34.654 42.8253 35.6775 43.8214 35.8142C44.8136 35.9509 45.6612 35.1501 45.7159 34.7673C45.7667 34.3845 45.0089 33.9626 44.0128 33.8259C43.0206 33.6853 42.1729 33.8884 42.1182 34.2712Z" fill="white" stroke="white" stroke-width="0.784709"/>
<path d="M72.3292 33.4861C72.38 33.8728 71.6221 34.8962 70.6261 35.0329C69.6339 35.1696 68.7862 34.3689 68.7315 33.9861C68.6768 33.6032 69.4386 33.1814 70.4307 33.0407C71.4268 32.904 72.2745 33.1032 72.3292 33.4861Z" fill="white" stroke="white" stroke-width="0.392354"/>
<path d="M75.876 30.8298C76.04 33.8415 75.2236 35.8923 75.1221 39.0993C74.9697 43.7556 77.3564 49.0876 73.7588 54.4274" stroke="white" stroke-width="2.35414" stroke-linecap="round" stroke-linejoin="round"/>
</svg>
