<svg width="100" height="100" viewBox="0 0 100 100" fill="none" xmlns="http://www.w3.org/2000/svg">
<rect width="100" height="100" rx="24" fill="white"/>
<path d="M49.5352 8.0007C46.0685 8.0168 42.758 8.31246 39.845 8.8279C31.2639 10.3439 29.7059 13.517 29.7059 19.3688V27.0973H49.9842V29.6735H29.7059H22.0956C16.2021 29.6735 11.0417 33.2158 9.42755 39.9544C7.56567 47.6785 7.48308 52.4985 9.42755 60.5636C10.869 66.567 14.3114 70.8446 20.2048 70.8446H27.177V61.5799C27.177 54.8867 32.9681 48.9828 39.845 48.9828H60.0997C65.7379 48.9828 70.2389 44.3405 70.2389 38.6782V19.3688C70.2389 13.8733 65.6028 9.74508 60.0997 8.8279C56.6162 8.24802 53.0018 7.98459 49.5352 8.0007ZM38.5688 14.2165C40.6634 14.2165 42.3739 15.955 42.3739 18.0926C42.3739 20.2226 40.6634 21.945 38.5688 21.945C36.4667 21.945 34.7636 20.2226 34.7636 18.0926C34.7636 15.955 36.4667 14.2165 38.5688 14.2165Z" fill="url(#paint0_linear_175_896)"/>
<path d="M72.7678 29.6735V38.6782C72.7678 45.6594 66.8491 51.5353 60.0998 51.5353H39.8451C34.297 51.5353 29.7059 56.2837 29.7059 61.8399V81.1492C29.7059 86.6448 34.4847 89.8772 39.8451 91.4538C46.2641 93.3413 52.4195 93.6824 60.0998 91.4538C65.2049 89.9757 70.239 87.001 70.239 81.1492V73.4208H49.9843V70.8446H70.239H80.3781C86.2716 70.8446 88.4677 66.7338 90.5173 60.5636C92.6344 54.2116 92.5443 48.103 90.5173 39.9544C89.0608 34.0875 86.2791 29.6735 80.3781 29.6735H72.7678ZM61.3761 78.5731C63.4782 78.5731 65.1812 80.2955 65.1812 82.4255C65.1812 84.5631 63.4782 86.3015 61.3761 86.3015C59.2814 86.3015 57.5709 84.5631 57.5709 82.4255C57.5709 80.2955 59.2814 78.5731 61.3761 78.5731Z" fill="url(#paint1_linear_175_896)"/>
<defs>
<linearGradient id="paint0_linear_175_896" x1="8" y1="8" x2="54.7596" y2="47.8457" gradientUnits="userSpaceOnUse">
<stop stop-color="#5A9FD4"/>
<stop offset="1" stop-color="#306998"/>
</linearGradient>
<linearGradient id="paint1_linear_175_896" x1="60.8887" y1="81.7757" x2="44.1132" y2="58.2681" gradientUnits="userSpaceOnUse">
<stop stop-color="#FFD43B"/>
<stop offset="1" stop-color="#FFE873"/>
</linearGradient>
</defs>
</svg>
