<svg width="100" height="100" viewBox="0 0 100 100" fill="none" xmlns="http://www.w3.org/2000/svg">
<rect width="100" height="100" rx="24" fill="#3151D6"/>
<path d="M87.375 45.0387C87.375 23.8915 70.7752 8.00354 50.184 8.00354L50.191 8C29.5998 8 13 23.8879 13 45.0954C13 66.3596 29.5998 82.1908 50.191 82.1908C53.7008 82.1908 57.0938 81.7198 60.306 80.8308L64.3506 91.169C64.7685 92.2917 65.6008 93 67.0883 93H73.5129C75.0606 93 76.194 91.9942 75.475 90.0462L70.2369 76.5206C80.5325 70.0819 87.375 58.6813 87.375 45.0387ZM66.3765 66.6606L61.6731 54.5481C61.2552 53.5423 60.4229 52.6002 58.6379 52.6002H52.5073C50.9596 52.6002 49.7696 53.606 50.485 55.554L56.6758 71.4419C54.5545 71.9729 52.3742 72.2312 50.1875 72.2104C35.1319 72.2104 24.4219 60.4556 24.4219 45.099C24.4219 29.7423 35.1319 17.9875 50.1875 17.9875C65.2431 17.9875 75.9531 29.7423 75.9531 45.099C75.9531 54.0771 72.3265 61.7554 66.3765 66.6606Z" fill="white"/>
</svg>
