<svg width="100" height="100" viewBox="0 0 100 100" fill="none" xmlns="http://www.w3.org/2000/svg">
<rect width="100" height="100" rx="24" fill="#B92B27"/>
<path d="M52.5812 71.4815C49.9825 66.3668 46.9341 61.2007 40.9876 61.2007C39.8509 61.2007 38.7155 61.3891 37.6736 61.8646L35.6535 57.8217C38.1153 55.7095 42.0932 54.0349 47.2064 54.0349C55.1609 54.0349 59.2431 57.8664 62.4839 62.7575C64.4078 58.5818 65.3223 52.9428 65.3223 45.9531C65.3223 28.4983 59.8636 19.5359 47.1129 19.5359C34.5479 19.5359 29.119 28.4983 29.119 45.9531C29.119 63.3157 34.5479 72.186 47.1129 72.186C49.11 72.186 50.9188 71.9665 52.5812 71.4815ZM55.696 77.573C52.9416 78.3113 50.0151 78.7192 47.1129 78.7192C30.3817 78.7192 14 65.3683 14 45.9531C14 26.3536 30.3817 13 47.1129 13C64.1246 13 80.3492 26.2574 80.3492 45.9531C80.3492 56.9085 75.2373 65.8114 67.8072 71.5655C70.208 75.1626 72.6793 77.5513 76.1206 77.5513C79.8763 77.5513 81.3911 74.6491 81.6444 72.373H86.5355C86.8214 75.4038 85.3053 88 71.636 88C63.3564 88 58.9789 83.2011 55.696 77.573Z" fill="white"/>
</svg>
