<svg width="100" height="100" viewBox="0 0 100 100" fill="none" xmlns="http://www.w3.org/2000/svg">
<rect width="100" height="100" rx="24" fill="white"/>
<path d="M82.9839 42H59.415C58.8469 41.9998 58.3021 41.774 57.9004 41.3723C57.4986 40.9706 57.2728 40.4259 57.2725 39.8578V15.2945C57.2725 13.4755 55.7975 12 53.9794 12H45.5659C43.7466 12 42.2725 13.4755 42.2725 15.2945V39.709C42.2725 40.9757 41.2485 42.0053 39.9818 42.0108L32.258 42.0476C30.9805 42.0546 29.9427 41.0181 29.9452 39.7417L29.9931 15.3C29.9972 13.4783 28.5217 12 26.7 12H18.2934C16.4739 12 15 13.4755 15 15.2945V84.075C15 85.691 16.309 87 17.9236 87H82.9839C84.5999 87 85.9089 85.691 85.9089 84.075V44.925C85.9089 43.309 84.5999 42 82.9839 42ZM71.9315 67.8244C71.9315 69.942 70.2148 71.659 68.0972 71.659H61.4481C59.3302 71.659 57.6135 69.942 57.6135 67.8244V61.1753C57.6135 59.0575 59.3302 57.3407 61.4481 57.3407H68.0972C70.2148 57.3407 71.9315 59.0575 71.9315 61.1753V67.8244Z" fill="#FF6600"/>
</svg>
