<svg width="100" height="100" viewBox="0 0 100 100" fill="none" xmlns="http://www.w3.org/2000/svg">
<rect width="100" height="100" rx="24" fill="white"/>
<g clip-path="url(#clip0_264_5)">
<path d="M35.0115 7.00129C34.5819 7.01455 34.1192 7.17336 33.5942 7.5874C32.3089 7.09174 31.0619 6.91942 29.9471 7.92867C28.2257 7.7054 27.6663 8.16623 27.2424 8.70425C26.8645 8.69645 24.4148 8.31568 23.2912 9.9916C20.468 9.65761 19.5757 11.6522 20.5868 13.5124C20.01 14.4049 19.4125 15.2868 20.7609 16.9888C20.284 17.9364 20.5798 18.9646 21.7034 20.2088C21.4071 21.5414 21.9898 22.4813 23.0354 23.214C22.8397 25.0373 24.7075 26.0974 25.265 26.4751C25.4792 27.5374 25.9254 28.5401 28.0585 29.0942C28.4105 30.6776 29.6924 30.9511 30.934 31.2832C26.8307 33.6685 23.312 36.8064 23.3359 44.5064L22.7347 45.5785C18.0298 48.4397 13.7968 57.6359 20.4163 65.1105C20.8485 67.4503 21.5737 69.1309 22.2193 70.9908C23.1849 78.4857 29.487 81.9953 31.1494 82.4104C33.5851 84.2657 36.1793 86.0261 39.6902 87.2594C42.9992 90.6723 46.5844 91.9732 50.1892 91.9711C50.2422 91.9711 57.5388 90.6726 60.8483 87.2594C64.3587 86.0261 66.9529 84.2657 69.389 82.4104C71.0509 81.9953 77.3531 78.4857 78.3187 70.9908C78.9643 69.1309 79.6894 67.4503 80.1219 65.1105C86.7409 57.6352 82.5082 48.4386 77.8035 45.5775L77.2013 44.5053C77.2252 36.8062 73.7065 33.668 69.6032 31.2822C70.8446 30.95 72.127 30.6766 72.4784 29.0932C74.6115 28.5388 75.058 27.5363 75.2719 26.4741C75.8297 26.0964 77.6972 25.0362 77.502 23.2129C78.5471 22.4802 79.1301 21.5401 78.8335 20.2078C79.9574 18.9636 80.2529 17.9354 79.776 16.9875C81.1249 15.2866 80.5264 14.4047 79.9504 13.5121C80.9609 11.6519 80.0692 9.65709 77.2449 9.99134C76.1221 8.31542 73.6727 8.69593 73.2937 8.70373C72.8701 8.16597 72.3107 7.70514 70.5893 7.92841C69.4746 6.91916 68.228 7.09122 66.9422 7.58714C65.4155 6.38244 64.4055 7.34802 63.2514 7.7132C61.4029 7.10916 60.98 7.93646 60.0719 8.27357C58.056 7.84757 57.4434 8.77495 56.4773 9.75378L55.3529 9.73143C52.3124 11.5233 50.8018 15.172 50.2664 17.0478C49.731 15.1717 48.2237 11.523 45.1838 9.73143L44.0596 9.75378C43.092 8.77495 42.4796 7.84757 40.4637 8.27357C39.5553 7.93646 39.1343 7.10916 37.2842 7.7132C36.5268 7.47356 35.8302 6.97556 35.0102 7.00103L14.1409 43.6479" fill="black"/>
<path d="M28.9582 14.8842C37.0249 19.0431 41.7145 22.4074 44.2837 25.2727C42.9681 30.5461 36.1042 30.7868 33.5945 30.6389C34.1084 30.3998 34.5372 30.1131 34.6893 29.6731C34.0595 29.2255 31.8266 29.6258 30.2676 28.7501C30.8665 28.6259 31.1466 28.505 31.4266 28.0632C29.9539 27.5935 28.3674 27.1886 27.4343 26.4104C27.9377 26.4166 28.4079 26.5232 29.0655 26.067C27.7464 25.3562 26.3388 24.7927 25.245 23.706C25.927 23.6893 26.6623 23.6992 26.8763 23.4484C25.669 22.7004 24.6501 21.8686 23.8069 20.9587C24.7613 21.0738 25.1645 20.9748 25.3953 20.8084C24.4824 19.8735 23.3274 19.0842 22.7766 17.9322C23.4852 18.1766 24.1336 18.2701 24.601 17.9109C24.2909 17.2112 22.9622 16.7985 22.197 15.1634C22.9432 15.2359 23.7344 15.3261 23.8927 15.1634C23.5465 13.7526 22.9523 12.9593 22.3696 12.1375C23.9663 12.1138 26.3855 12.1437 26.2761 12.0088L25.2887 11.0001C26.8484 10.58 28.4443 11.0674 29.603 11.4292C30.1231 11.0188 29.5937 10.4997 28.9589 9.96977C30.2845 10.1468 31.4822 10.4514 32.565 10.8712C33.1433 10.349 32.1894 9.82656 31.7278 9.30439C33.7757 9.6927 34.6433 10.2388 35.5054 10.7854C36.131 10.1858 35.5413 9.67607 35.1192 9.15416C36.6633 9.72597 37.4587 10.4644 38.2958 11.1932C38.5797 10.8101 39.0171 10.5291 38.489 9.60485C39.5853 10.2367 40.411 10.9814 41.0218 11.8157C41.7002 11.3837 41.426 10.7932 41.4296 10.2487C42.5691 11.1755 43.2922 12.1619 44.1772 13.1249C44.3555 12.9949 44.5114 12.5549 44.6494 11.8586C47.3674 14.4954 51.2081 21.1375 45.6366 23.7709C40.895 19.8603 35.232 17.0176 28.9563 14.8853L28.9582 14.8842ZM71.7603 14.8842C63.6946 19.0436 59.005 22.4069 56.436 25.2727C57.7517 30.5461 64.6153 30.7868 67.125 30.6389C66.6111 30.3998 66.1823 30.1131 66.0305 29.6731C66.6603 29.2255 68.8932 29.6258 70.4519 28.7501C69.853 28.6259 69.5731 28.505 69.2929 28.0632C70.7659 27.5935 72.3524 27.1886 73.2852 26.4104C72.7818 26.4166 72.3116 26.5232 71.654 26.067C72.9733 25.3562 74.381 24.7927 75.4747 23.706C74.7925 23.6893 74.0572 23.6992 73.8435 23.4484C75.0508 22.7004 76.0697 21.8686 76.9128 20.9587C75.9582 21.0738 75.5553 20.9748 75.3245 20.8084C76.2371 19.8735 77.3924 19.0842 77.9431 17.9322C77.2343 18.1766 76.5859 18.2701 76.1185 17.9109C76.4286 17.2112 77.7576 16.7985 78.5225 15.1634C77.7765 15.2359 76.9851 15.3261 76.8268 15.1634C77.1738 13.752 77.768 12.9588 78.3507 12.1369C76.754 12.1133 74.3347 12.1432 74.4442 12.0083L75.4316 10.9993C73.8718 10.5795 72.276 11.0669 71.1173 11.4287C70.5972 11.0183 71.1264 10.4992 71.7611 9.96925C70.4358 10.146 69.2378 10.4509 68.1553 10.8706C67.5767 10.3485 68.5309 9.82604 68.9925 9.30387C66.9446 9.69218 66.077 10.2383 65.2146 10.7849C64.589 10.1852 65.179 9.67555 65.6011 9.15364C64.057 9.72545 63.2616 10.4639 62.4244 11.1927C62.1404 10.8096 61.7032 10.5286 62.2311 9.60433C61.135 10.2362 60.3093 10.9808 59.6985 11.8152C59.0201 11.3832 59.2943 10.7924 59.2907 10.2481C58.1512 11.175 57.4281 12.1611 56.5431 13.1243C56.3648 12.9944 56.2089 12.5544 56.0708 11.8578C53.3529 14.4949 49.5122 21.137 55.0837 23.7704C59.8227 19.8587 65.4855 17.0166 71.7613 14.8842H71.7603Z" fill="#75A928"/>
<path d="M60.1283 68.5822C60.1564 73.5032 55.853 77.5134 50.5167 77.5391C45.1801 77.5651 40.8313 73.597 40.8032 68.676C40.8029 68.6448 40.8029 68.6135 40.8032 68.5822C40.7751 63.6615 45.0783 59.6513 50.4148 59.6253C55.7514 59.5993 60.1 63.5674 60.1283 68.4884V68.5822ZM44.8747 43.1291C48.8785 45.7524 49.6002 51.6982 46.4867 56.4094C43.3732 61.1209 37.6037 62.8139 33.5999 60.1909C29.5962 57.5676 28.8747 51.6218 31.9879 46.9106C35.1015 42.1991 40.871 40.506 44.8747 43.1291ZM55.6809 42.6542C51.6775 45.2773 50.9557 51.2233 54.0689 55.9345C57.1825 60.646 62.952 62.3391 66.9557 59.7158C70.9595 57.0927 71.6812 51.1469 68.5677 46.4355C65.4545 41.7243 59.6849 40.0312 55.6809 42.6542ZM24.8645 47.4177C29.1871 46.259 26.3239 65.3005 22.8067 63.7382C18.9379 60.6265 17.6919 51.5137 24.8645 47.4177ZM74.8187 47.1804C70.4955 46.0219 73.3592 65.0643 76.8764 63.5019C80.7452 60.39 81.9913 51.2761 74.8187 47.1804ZM60.1317 33.0002C67.5915 31.7407 73.7988 36.1728 73.5482 44.2618C73.3028 47.3631 57.3834 33.4621 60.1317 33.0002ZM39.5205 32.7629C32.0602 31.5031 25.8535 35.9362 26.104 44.0248C26.3494 47.1258 42.2691 33.2248 39.5205 32.7629ZM50.2363 30.8765C45.7839 30.7606 41.5109 34.1808 41.5005 36.1647C41.4883 38.5751 45.0208 41.0433 50.2667 41.1059C55.6235 41.1441 59.0419 39.1303 59.059 36.6427C59.0788 33.8242 54.187 30.8331 50.2363 30.8765ZM50.5081 80.3069C54.3899 80.1375 59.5986 81.5571 59.609 83.4407C59.6735 85.2695 54.8851 89.4016 50.2508 89.3218C45.4512 89.5289 40.745 85.3903 40.8066 83.9559C40.7346 81.8527 46.6505 80.2105 50.5081 80.3069ZM36.1702 69.1449C38.9339 72.4744 40.194 78.3241 37.8875 80.0486C35.7055 81.3651 30.4066 80.8229 26.6405 75.4122C24.1003 70.8721 24.4276 66.2521 26.2111 64.8948C28.8781 63.2704 32.9988 65.4648 36.1705 69.1449H36.1702ZM64.2929 68.0894C61.3026 71.5918 59.6376 77.9799 61.8188 80.0374C63.9046 81.6359 69.5037 81.4124 73.6394 75.6737C76.6425 71.8195 75.6364 65.3827 73.9209 63.6735C71.3727 61.7026 67.7144 64.225 64.2929 68.0884V68.0894Z" fill="#BC1142"/>
</g>
<defs>
<clipPath id="clip0_264_5">
<rect width="66.538" height="85" fill="white" transform="translate(17 7)"/>
</clipPath>
</defs>
</svg>
