<svg width="100" height="100" viewBox="0 0 100 100" fill="none" xmlns="http://www.w3.org/2000/svg">
<rect width="100" height="100" rx="24" fill="#FF4438"/>
<path fill-rule="evenodd" clip-rule="evenodd" d="M82.2909 50.8125C82.2909 47.8448 84.4892 46.1228 87.2371 46.1228C89.2888 46.1228 91.1207 47.1121 92 49.5668C91.7435 50.8125 90.2047 52.2047 89.5453 52.4246C88.9957 51.2522 88.3728 50.556 87.7866 50.556C87.0539 50.556 87.0172 51.069 87.0172 51.7284C87.0172 52.1955 87.151 52.8834 87.3119 53.7112C87.5549 54.9615 87.8599 56.5309 87.8599 58.1401C87.8599 61.0711 85.8082 63.2328 82.6573 63.2328C79.7721 63.2328 78.1778 61.3414 77.4665 58.3198C75.5818 61.6972 72.8257 63.2328 70.7134 63.2328C67.411 63.2328 66.6338 60.7919 66.7121 58.3161C65.3852 60.6612 62.831 63.2328 60.3815 63.2328C57.8809 63.2328 56.9976 61.0563 57.2002 58.5215C55.702 61.3122 52.9919 63.2328 50.3793 63.2328C47.5442 63.2328 46.141 60.9806 46.5951 58.189C44.6878 60.5333 41.1374 63.2328 37.4461 63.2328C33.2373 63.2328 31.4053 60.9632 31.1882 58.1193C29.1568 61.375 26.4187 63.3427 23.1573 63.3427C18.4493 63.3427 16.7654 59.1561 16.5203 55.7315C14.7755 58.0681 12.8138 60.4923 10.4073 63.1961C10.1509 63.4526 9.93103 63.5991 9.67457 63.5991C8.8319 63.5991 7.10991 59.8621 7 58.4698C7.7231 57.3478 12.2812 52.3398 15.9509 48.3079C17.2409 46.8907 18.4211 45.594 19.2863 44.6291C17.0389 45.3073 14.7217 46.6597 11.7996 48.7608C11.2866 49.1272 9.85776 45.7931 9.8944 43.2284C13.2651 40.7371 18.3944 39.1616 22.5345 39.1616C28.3233 39.1616 31.6573 42.3858 31.6573 46.8556C31.6573 50.5927 28.5431 54.6961 24 54.8427C21.6377 54.904 20.1237 53.578 19.3494 51.9405C19.4419 54.473 20.7587 57.5905 24.2931 57.5905C28.1462 57.5905 29.9965 55.2646 32.7559 51.7958C32.9352 51.5704 33.1183 51.3403 33.306 51.1056C35.6509 48.2112 38.3621 45.6466 42.319 45.6466C44.7371 45.6466 46.3858 47.1487 46.3858 49.4203C46.3858 52.1681 43.1616 55.9784 38.6552 55.9784C37.8855 55.9784 37.1839 55.877 36.5917 55.6766C36.5768 55.7921 36.5668 55.9058 36.5668 56.0151C36.5668 57.2974 37.0431 58.0668 39.1315 58.0668C42.2091 58.0668 45.1034 56.2349 48.6207 51.9483C52.0647 47.7349 54.6659 45.903 57.4138 45.903C59.2687 45.903 60.6765 46.9083 61.2969 48.6014C64.9796 43.2825 68.1038 39.5139 70.75 37C73.3513 38.0991 75.2198 40.2608 74.7069 40.7004C72.7651 42.4591 66.2802 49.5302 63.7155 53.7435C63.056 54.8427 62.4332 56.0517 62.4332 56.6379C62.4332 57.1875 62.7629 57.3707 63.1293 57.3707C64.8898 57.3707 68.4176 53.2147 71.4645 49.6253C72.6026 48.2845 73.6736 47.0228 74.5603 46.0862C76.6121 46.9289 78.7004 48.7241 78.1875 49.347C75.4763 52.5711 73.4246 55.2091 73.4246 56.7112C73.4246 57.1142 73.5711 57.3707 74.1207 57.3707C75.1466 57.3707 76.0991 56.4547 77.6746 54.5129C78.0043 54.1099 78.4073 54.1099 78.6638 54.7328C79.3599 56.4181 80.3858 57.3341 81.1918 57.3341C82.1444 57.3341 82.6207 56.4914 82.6207 55.2091C82.6207 54.3327 82.5137 53.3138 82.4217 52.4365C82.3521 51.7733 82.2909 51.191 82.2909 50.8125ZM23.194 50.3362C25.1358 50.3362 27.2608 49.2737 27.2608 47.1121C27.2608 45.8002 26.4466 44.5908 24.2708 44.2226C24.156 44.4019 24.042 44.5802 23.9287 44.7574C22.8231 46.4858 21.7804 48.116 20.7281 49.7095C21.3586 50.0636 22.156 50.3362 23.194 50.3362ZM42.8319 50.9957C42.8319 50.4095 42.4655 50.0065 41.8793 50.0065C40.4094 50.0065 38.1923 52.0693 37.149 54.0613C37.5341 54.2101 37.9862 54.2931 38.472 54.2931C41.0733 54.2931 42.8319 52.3147 42.8319 50.9957ZM52.4677 56.3082C52.4677 56.9677 52.834 57.4073 53.6034 57.4073C55.9849 57.4073 58.9526 53.0841 58.9526 51.3254C58.9526 50.5927 58.5496 50.153 57.8901 50.153C55.7285 50.153 52.4677 54.2565 52.4677 56.3082ZM83.0599 43.0821C82.2172 44.4743 80.9349 46.0497 80.4586 46.526C78.2603 45.6101 76.2086 43.7782 76.5017 43.2653C77.3077 41.8364 78.6267 40.2976 79.103 39.8213C81.3012 40.7372 83.353 42.6058 83.0599 43.0821Z" fill="white"/>
</svg>
