<svg width="100" height="100" viewBox="0 0 100 100" fill="none" xmlns="http://www.w3.org/2000/svg">
<rect width="100" height="100" rx="24" fill="#764ABC"/>
<path d="M65.896 66.3567C69.0327 66.0319 71.4124 63.3279 71.3042 60.0826C71.1962 56.8377 68.4918 54.2415 65.2469 54.2415H65.0308C61.6772 54.3497 59.0814 57.162 59.1897 60.5152C59.2979 62.1379 59.9467 63.544 60.9202 64.5175C57.2426 71.7651 51.618 77.0653 43.1811 81.5003C37.4483 84.529 31.4993 85.6108 25.5502 84.8538C20.6827 84.2047 16.8969 82.0415 14.5169 78.4715C11.0558 73.1713 10.7314 67.4381 13.6519 61.7052C15.7072 57.5947 18.9518 54.5659 21.0071 53.0515C20.5744 51.6453 19.9253 49.2657 19.6009 47.5351C3.91675 58.8929 5.53939 74.253 10.2987 81.5003C13.8681 86.909 21.1153 90.2622 29.1196 90.2622C31.2828 90.2622 33.4459 90.0457 35.6095 89.5052C49.4548 86.8008 59.947 78.5797 65.896 66.3567ZM84.9334 52.9436C76.7126 43.3163 64.5981 38.0161 50.7527 38.0161H49.0222C48.0487 36.0691 45.9934 34.7709 43.722 34.7709H43.5055C40.1526 34.8791 37.5568 37.6914 37.6647 41.0449C37.773 44.2899 40.477 46.886 43.722 46.886H43.9381C46.3178 46.7778 48.3731 45.2634 49.2383 43.2081H51.1854C59.4061 43.2081 67.1939 45.5878 74.225 50.2392C79.6332 53.8089 83.5272 58.4603 85.6904 64.0849C87.5292 68.6281 87.4209 73.063 85.4739 76.8492C82.4455 82.582 77.3617 85.719 70.6554 85.719C66.3287 85.719 62.2184 84.4208 60.0549 83.4473C58.8653 84.529 56.7017 86.2596 55.1874 87.3417C59.8388 89.5049 64.5981 90.6949 69.141 90.6949C79.5249 90.6949 87.2048 84.9617 90.1253 79.2288C93.262 72.9548 93.0456 62.1379 84.9334 52.9436ZM29.9849 68.1951C30.0931 71.4404 32.7972 74.0362 36.0421 74.0362H36.2586C39.6118 73.9283 42.2076 71.1157 42.0993 67.7625C41.9914 64.5172 39.287 61.9214 36.0421 61.9214H35.826C35.6095 61.9214 35.2847 61.9214 35.0689 62.0293C30.634 54.6738 28.7952 46.6695 29.4443 38.0158C29.8766 31.5256 32.0401 25.9006 35.826 21.2492C38.9626 17.2469 45.0199 15.2999 49.1304 15.192C60.5958 14.9755 65.4631 29.2538 65.7878 34.987C67.1939 35.3114 69.5736 36.0688 71.1962 36.6096C69.898 19.0864 59.0814 10 48.6978 10C38.9626 10 29.9849 17.0311 26.4152 27.4154C21.4397 41.2611 24.6846 54.5659 30.7419 65.0584C30.2013 65.8154 29.8766 67.0051 29.9849 68.1951Z" fill="white"/>
</svg>
