<svg width="100" height="100" viewBox="0 0 100 100" fill="none" xmlns="http://www.w3.org/2000/svg">
<rect width="100" height="100" rx="24" fill="#EB0029"/>
<path d="M21.2797 38.0476L7 44.6606L10.5581 58.2013L13.2659 57.8688L12.5213 49.3548L13.4104 48.9587L14.9458 57.662L19.5737 57.0939L18.7509 47.6965L19.6315 47.3048L21.3201 56.8799L26.0014 56.3044L25.1008 46.0036L25.9912 45.6075L27.8374 56.079L32.4653 55.5107V40.8495L21.2797 38.0476ZM21.6151 58.5845L21.8507 59.9173L32.4655 61.687V57.2515L21.6209 58.5843L21.6151 58.5845ZM42.5047 55.8056V57.6316H44.7555C44.7558 58.002 44.6602 58.3661 44.4781 58.6885C44.2876 59.0097 44.0058 59.2669 43.6685 59.4273C43.2652 59.6116 42.8248 59.7005 42.3816 59.6874C41.8699 59.7017 41.3659 59.5606 40.9359 59.2828C40.516 58.9913 40.1919 58.5817 40.0048 58.1059C39.7716 57.511 39.66 56.8754 39.6767 56.2366C39.6597 55.6027 39.7739 54.9722 40.0121 54.3846C40.207 53.9163 40.5334 53.5145 40.9519 53.2279C41.3738 52.954 41.8687 52.8139 42.3716 52.8261C42.6334 52.8238 42.8942 52.8583 43.1464 52.9287C43.3709 52.993 43.5826 53.0951 43.7726 53.2308C43.9529 53.3608 44.1085 53.5218 44.2322 53.7065C44.3616 53.904 44.4592 54.1206 44.5214 54.3484H47.0182C46.9529 53.8244 46.7828 53.319 46.5181 52.8621C46.2546 52.4114 45.9088 52.0142 45.4987 51.6911C45.069 51.3552 44.5842 51.0964 44.066 50.9263C43.5031 50.7431 42.9143 50.6523 42.3225 50.6574C41.6299 50.6516 40.9427 50.7792 40.2984 51.0332C39.6794 51.2798 39.1196 51.6547 38.6561 52.1335C38.171 52.6394 37.7964 53.2405 37.5558 53.8988C37.2811 54.6605 37.1473 55.4659 37.1611 56.2755C37.1611 57.4264 37.3799 58.4187 37.8174 59.2522C38.2312 60.0553 38.8683 60.7216 39.6521 61.1708C40.4462 61.5945 41.3286 61.8262 42.2285 61.8473C43.1283 61.8684 44.0206 61.6783 44.8337 61.2922C45.5372 60.9353 46.123 60.3832 46.5209 59.702C46.9305 59.009 47.1349 58.1801 47.134 57.2153V55.8043L42.5047 55.8056ZM73.5926 61.7058V50.7991H81.0626V52.8172H76.0574V55.2402H80.1041V57.2585H76.0574V59.6874H81.0742V61.7057L73.5926 61.7058ZM88.3146 53.9999C88.3036 53.8124 88.2522 53.6296 88.1638 53.4638C88.0755 53.2981 87.9523 53.1535 87.8027 53.0399C87.5005 52.8101 87.0797 52.6958 86.5465 52.6958C86.2383 52.6855 85.931 52.7346 85.6414 52.8403C85.4228 52.92 85.231 53.0593 85.0875 53.2424C84.9633 53.4097 84.896 53.6124 84.8954 53.8207C84.8886 53.9868 84.9281 54.1515 85.0095 54.2964C85.0952 54.4404 85.2142 54.5618 85.3565 54.6505C85.5233 54.7587 85.703 54.8457 85.8914 54.9094C86.111 54.9859 86.3351 55.0492 86.5623 55.0988L87.5207 55.3215C87.9906 55.4214 88.4485 55.5706 88.887 55.7667C89.2673 55.9363 89.6186 56.1646 89.9279 56.4433C90.2111 56.7013 90.4368 57.016 90.5901 57.3671C90.7506 57.7459 90.8299 58.1542 90.823 58.5656C90.8392 59.1883 90.6602 59.8005 90.3111 60.3164C89.9421 60.8288 89.4324 61.2231 88.8437 61.4513C88.1097 61.7347 87.327 61.8703 86.5405 61.8503C85.7423 61.8674 84.9484 61.7294 84.2028 61.444C83.5749 61.2002 83.0349 60.773 82.6529 60.2182C82.2838 59.6726 82.091 58.9921 82.0746 58.1768H84.45C84.4531 58.4917 84.5524 58.7981 84.7346 59.055C84.9168 59.3118 85.1732 59.5068 85.4693 59.6138C85.8034 59.7407 86.1587 59.8025 86.516 59.7959C86.8439 59.803 87.1704 59.7496 87.4789 59.6383C87.7225 59.5523 87.9387 59.4026 88.1048 59.2048C88.2513 59.0206 88.3313 58.7924 88.3318 58.5571C88.3341 58.346 88.2614 58.141 88.1266 57.9786C87.9614 57.7984 87.7565 57.6593 87.528 57.5723C87.2054 57.4408 86.8721 57.3373 86.5318 57.2629L85.3651 56.981C84.4351 56.7593 83.7012 56.4095 83.1633 55.9314C82.6255 55.4534 82.3586 54.8057 82.3624 53.9883C82.3454 53.3612 82.5343 52.7458 82.9001 52.2362C83.2832 51.7179 83.7992 51.3128 84.3936 51.0637C85.079 50.773 85.8179 50.6296 86.5623 50.6429C87.3031 50.6263 88.0389 50.7698 88.7192 51.0637C89.297 51.3151 89.7931 51.7227 90.152 52.2406C90.4969 52.7594 90.6782 53.3698 90.6725 53.9928L88.3146 53.9999ZM71.8345 61.7058H69.3955V53.4144L69.1454 53.4115L66.6818 61.7058H64.2443L61.8473 53.4115L61.5364 53.4144V61.7058H59.0974V50.7991H63.2423L65.3359 58.1088H65.5888L67.6822 50.7991H71.8345V61.7058ZM55.2576 61.7058H57.8989L54.2369 50.8005H50.8899L47.222 61.7058H49.8677L50.5805 59.3144H54.5448L55.2576 61.7058ZM51.1473 57.412L52.3356 53.4144H52.7839L53.978 57.412H51.1473ZM91.4229 51.9528C91.3096 51.9524 91.1989 51.9188 91.1046 51.8561C91.0102 51.7934 90.9364 51.7043 90.8922 51.6C90.8624 51.5291 90.847 51.4529 90.847 51.376C90.847 51.299 90.8624 51.2228 90.8922 51.1519C90.921 51.0834 90.9627 51.021 91.0151 50.9683C91.0682 50.916 91.1304 50.8738 91.1987 50.8439C91.3425 50.7859 91.5031 50.7859 91.647 50.8439C91.7154 50.8735 91.7777 50.9157 91.8306 50.9683C91.8832 51.0211 91.9254 51.0834 91.9548 51.1519C91.9846 51.2228 92 51.299 92 51.376C92 51.4529 91.9846 51.5291 91.9548 51.6C91.9254 51.6685 91.8832 51.7308 91.8306 51.7836C91.778 51.8365 91.7156 51.8788 91.647 51.9081C91.576 51.9377 91.4998 51.9529 91.4229 51.9528ZM91.4229 51.7952C91.4975 51.7961 91.571 51.7766 91.6354 51.7389C91.6973 51.7042 91.7495 51.6545 91.7872 51.5944C91.8241 51.5302 91.8436 51.4574 91.8436 51.3833C91.8436 51.3092 91.8241 51.2364 91.7872 51.1721C91.7488 51.1121 91.6961 51.0625 91.6339 51.0276C91.5697 50.9907 91.4969 50.9713 91.4228 50.9713C91.3488 50.9713 91.276 50.9907 91.2118 51.0276C91.1528 51.0636 91.1032 51.1131 91.0673 51.1721C91.0293 51.236 91.0093 51.3089 91.0093 51.3832C91.0093 51.4575 91.0293 51.5304 91.0673 51.5942C91.1032 51.6532 91.1528 51.7028 91.2118 51.7387C91.2757 51.7763 91.3487 51.7958 91.4229 51.7952ZM91.2118 51.6289V51.0985H91.4691C91.5036 51.0978 91.5378 51.1052 91.5689 51.1201C91.5969 51.1335 91.6205 51.1545 91.6369 51.1808C91.6538 51.2097 91.6623 51.2427 91.6614 51.2762C91.6625 51.3098 91.6535 51.3431 91.6354 51.3715C91.6193 51.3983 91.595 51.4192 91.566 51.431C91.5343 51.4455 91.4996 51.4523 91.4647 51.4511H91.2913V51.3471H91.4358C91.4547 51.348 91.4733 51.3418 91.4878 51.3297C91.4947 51.3226 91.5001 51.3143 91.5036 51.305C91.5071 51.2958 91.5087 51.286 91.5082 51.2762C91.5089 51.2663 91.5075 51.2564 91.504 51.2471C91.5004 51.2379 91.4949 51.2295 91.4878 51.2226C91.4733 51.2105 91.4547 51.2043 91.4358 51.2053H91.3563V51.6289H91.2118ZM91.5574 51.386L91.6759 51.6291H91.5154L91.4069 51.386H91.5574ZM47.8293 38.1488H50.2943V49.0554H47.8293V38.1488ZM62.0005 43.6022C62.0005 44.7992 61.7735 45.8113 61.3195 46.6384C60.8977 47.4367 60.256 48.0975 59.4704 48.5424C58.6626 48.9733 57.7612 49.1987 56.8456 49.1987C55.9301 49.1987 55.0287 48.9733 54.2209 48.5424C53.435 48.0958 52.7934 47.4336 52.3718 46.634C51.9178 45.7993 51.6908 44.7872 51.6908 43.5978C51.6908 42.4084 51.9178 41.3941 52.3718 40.5546C52.7926 39.7586 53.4322 39.0995 54.2151 38.6548C55.0232 38.2249 55.9246 38 56.84 38C57.7553 38 58.6567 38.2249 59.4648 38.6548C60.2504 39.0998 60.892 39.7605 61.3137 40.5588C61.7677 41.3916 61.9947 42.4061 61.9947 43.6022M59.4863 43.6022C59.5051 42.9605 59.3954 42.3215 59.1639 41.7227C58.9807 41.2547 58.662 40.852 58.2487 40.5662C57.8259 40.3062 57.3392 40.1686 56.8428 40.1686C56.3465 40.1686 55.8598 40.3062 55.4369 40.5662C55.0231 40.8522 54.7035 41.2547 54.5188 41.7227C54.0839 42.938 54.0839 44.2664 54.5188 45.4817C54.7029 45.95 55.0225 46.3526 55.4368 46.6382C55.8597 46.8982 56.3464 47.0358 56.8428 47.0358C57.3392 47.0358 57.8259 46.8982 58.2487 46.6382C58.6625 46.3529 58.9813 45.95 59.1639 45.4817C59.3952 44.8829 59.5049 44.2439 59.4863 43.6022ZM42.649 45.2532L43.9155 49.0554H46.6204L45.2126 44.9598H43.3L43.1857 44.6069C43.55 44.5362 44.1732 44.4262 44.7254 44.0503C45.1122 43.7872 45.4294 43.4341 45.6498 43.0214C45.8702 42.6087 45.9871 42.1487 45.9905 41.6808C46.0071 41.0346 45.8439 40.3965 45.5191 39.8375C45.2018 39.2963 44.7308 38.8615 44.1659 38.5884C43.5036 38.2816 42.779 38.1331 42.0494 38.1545H37.6498V49.0554H40.1165V45.2532H42.649ZM42.6028 42.9965C42.267 43.1199 41.9107 43.1778 41.5532 43.167H40.116V40.1512H41.5488C41.9066 40.1409 42.2629 40.2019 42.597 40.3305C42.8612 40.4356 43.0843 40.6232 43.2331 40.8654C43.3849 41.1096 43.4603 41.3935 43.4499 41.6808C43.4617 41.9638 43.3871 42.2437 43.236 42.4832C43.0865 42.7187 42.8641 42.8989 42.6028 42.9965ZM62.233 38.1488V40.1729H66.4691L66.5847 40.5271C66.2262 40.5964 65.6205 40.7035 65.0768 41.062V49.0583H67.5158V40.1672H70.3524V38.1428L62.233 38.1488Z" fill="white"/>
</svg>
