<svg width="100" height="100" viewBox="0 0 100 100" fill="none" xmlns="http://www.w3.org/2000/svg">
<rect x="1" y="1" width="98" height="98" rx="23" fill="#FFAB00"/>
<rect x="1" y="1" width="98" height="98" rx="23" stroke="black" stroke-width="2"/>
<path d="M77.2284 62.5669H67.3622L65.6536 51.8188L59.315 62.4566H49.3386L55.4016 68.8503L50.441 79.5984L61.3544 73.0944L69.8977 79.7086L68.2993 68.8503" fill="white"/>
<path d="M84.1181 60.4173H69.1811L66.811 45.5354L58.1024 60.3071H56.4488C55.4567 58.5984 55.0709 56.1181 55.0709 54.5748C55.0709 52.0394 55.2362 49.5591 55.2362 46.3071C55.2362 42.0079 53.9685 39.748 50.6063 38.9213V38.811C57.7165 37.8189 60.9685 33.0787 60.9685 26.4646C60.9685 17.0394 54.685 15 46.4724 15H24.3701L15 59.315H26.7402L30.1575 43.1654H37.9843C42.1732 43.1654 43.8819 45.2047 43.8819 49.1181C43.8819 52.0945 43.5512 54.4646 43.5512 56.7244C43.5512 57.5512 43.7165 59.5354 44.3228 60.3071L52.811 69.2913L45.4803 85L61.1339 75.685L72.8189 84.6693L70.6693 69.8425L84.1181 60.4173ZM41.5118 34.8976H32.1417L34.4016 24.2047H43.1102C46.1968 24.2047 49.4488 25.0315 49.4488 28.7795C49.4488 33.5748 45.7559 34.8976 41.5118 34.8976ZM61.3543 73.0945L50.4409 79.5984L55.4567 68.9055L49.3937 62.5118H59.3701L65.6535 51.874L67.3622 62.622H77.2835L68.3543 68.8504L69.9528 79.7638L61.3543 73.0945Z" fill="#040301"/>
</svg>
