<svg width="100" height="100" viewBox="0 0 100 100" fill="none" xmlns="http://www.w3.org/2000/svg">
<g clip-path="url(#clip0_147_81)">
<rect width="100" height="100" rx="24" fill="white"/>
<g clip-path="url(#clip1_147_81)">
<path d="M81.25 0H18.75C8.39466 0 0 8.39466 0 18.75V81.25C0 91.6053 8.39466 100 18.75 100H81.25C91.6053 100 100 91.6053 100 81.25V18.75C100 8.39466 91.6053 0 81.25 0Z" fill="#FFA500"/>
<path d="M25 87.5C31.9036 87.5 37.5 81.9036 37.5 75C37.5 68.0964 31.9036 62.5 25 62.5C18.0964 62.5 12.5 68.0964 12.5 75C12.5 81.9036 18.0964 87.5 25 87.5Z" fill="white"/>
<path d="M12.5 50C22.4456 50 31.9839 53.9509 39.0165 60.9835C46.0491 68.0161 50 77.5544 50 87.5H62.5C62.5 74.2392 57.2322 61.5215 47.8553 52.1447C38.4785 42.7678 25.7608 37.5 12.5 37.5V50Z" fill="white"/>
<path d="M12.5 25C20.7076 25 28.8349 26.6166 36.4177 29.7575C44.0006 32.8984 50.8905 37.5022 56.6942 43.3058C62.4978 49.1095 67.1016 55.9994 70.2425 63.5823C73.3834 71.1651 75 79.2924 75 87.5H87.5C87.5 67.6088 79.5982 48.5322 65.533 34.467C51.4678 20.4018 32.3912 12.5 12.5 12.5V25Z" fill="white"/>
</g>
</g>
<defs>
<clipPath id="clip0_147_81">
<rect width="100" height="100" rx="24" fill="white"/>
</clipPath>
<clipPath id="clip1_147_81">
<rect width="100" height="100" fill="white"/>
</clipPath>
</defs>
</svg>
