<svg width="100" height="100" viewBox="0 0 100 100" fill="none" xmlns="http://www.w3.org/2000/svg">
<rect width="100" height="100" rx="24" fill="white"/>
<path d="M58.3403 54.976C61.6245 52.376 61.6245 47.3129 58.3403 44.6308C53.6658 40.7503 48.5379 37.4512 43.0688 34.8056C39.292 32.9993 35.0773 35.5172 34.4752 39.814C33.5447 46.3824 33.3805 53.0055 33.9826 59.3002C34.3931 63.6518 38.5531 66.2518 42.3846 64.5823C48.1085 62.1189 53.4751 58.8971 58.3403 55.0034V54.976ZM82.8897 35.8456C86.3684 39.6533 88.3019 44.6216 88.312 49.7792C88.3222 54.9367 86.4082 59.9126 82.9444 63.7339C70.5741 77.3862 54.4131 87.0389 36.5278 91.4579C31.9543 92.6025 27.1148 91.9192 23.037 89.5532C18.9591 87.1873 15.9641 83.3249 14.6879 78.7864C9.2964 60.3676 10.0901 39.5403 15.2901 21.0394C18.0269 11.3237 27.1679 5.22054 36.5826 7.46473C54.0161 11.6247 70.3824 22.3257 82.8897 35.8456Z" fill="#85C742"/>
</svg>
