<svg width="100" height="100" viewBox="0 0 100 100" fill="none" xmlns="http://www.w3.org/2000/svg">
<rect width="100" height="100" rx="24" fill="#0B1D38"/>
<path d="M65.6822 28.1786H17.74V79.906H31.0837V63.0773H56.6527L68.319 79.906H83.2604L70.3962 62.9999C74.3916 62.3796 77.2679 60.9059 79.0259 58.5794C80.7834 56.253 81.6626 52.5303 81.6626 47.5671V43.6894C81.6626 40.7423 81.3435 38.4158 80.7839 36.6322C80.2243 34.8485 79.2654 33.2972 77.9071 31.9014C76.4688 30.583 74.8711 29.6524 72.9532 29.0322C71.0354 28.4894 68.6382 28.1786 65.6822 28.1786ZM63.5249 51.6776H31.0837V39.5788H63.5249C65.3621 39.5788 66.6407 39.8887 67.2799 40.4319C67.9192 40.9747 68.319 41.9827 68.319 43.4565V47.7995C68.319 49.3503 67.9192 50.3583 67.2799 50.9011C66.6407 51.4439 65.3626 51.6767 63.5249 51.6767V51.6776Z" stroke="white" stroke-width="6.25" stroke-linecap="round" stroke-linejoin="round"/>
<path d="M80.5727 27.2923C83.0165 27.2923 84.9989 25.3103 84.9989 22.8653C84.9989 20.4202 83.0165 18.4382 80.5727 18.4382C78.1272 18.4382 76.1448 20.4202 76.1448 22.8653C76.1448 25.3103 78.1272 27.2923 80.5727 27.2923Z" fill="#F41240"/>
</svg>
