<svg width="100" height="100" viewBox="0 0 100 100" fill="none" xmlns="http://www.w3.org/2000/svg">
<rect width="100" height="100" rx="24" fill="white"/>
<g clip-path="url(#clip0_266_13)">
<path d="M42.3719 26.4913C45.1133 23.635 48.9298 21.8634 53.1507 21.8634C58.7617 21.8634 63.657 24.9922 66.264 29.6369C68.5294 28.6247 71.0371 28.0616 73.6754 28.0616C83.7954 28.0616 92 36.3377 92 46.5461C92 56.7557 83.7954 65.0318 73.6754 65.0318C72.4633 65.0325 71.2541 64.912 70.0659 64.6721C67.7702 68.7671 63.3955 71.5339 58.3742 71.5339C56.2722 71.5339 54.284 71.0484 52.5138 70.185C50.1866 75.6592 44.7645 79.4974 38.4452 79.4974C31.8643 79.4974 26.2558 75.3334 24.103 69.4936C23.1622 69.6934 22.1874 69.7976 21.1873 69.7976C13.352 69.7976 7 63.3803 7 55.4627C7 50.1569 9.85392 45.5241 14.0942 43.0456C13.2213 41.0369 12.7357 38.8199 12.7357 36.489C12.7357 27.3836 20.1278 20.0024 29.2453 20.0024C34.5984 20.0024 39.3557 22.5476 42.3719 26.4913Z" fill="#00A1E0"/>
<path d="M19.3114 50.8551C19.2582 50.9944 19.3308 51.0235 19.3478 51.0477C19.5076 51.1639 19.6699 51.2476 19.8333 51.3407C20.7003 51.8008 21.5189 51.9351 22.3749 51.9351C24.1185 51.9351 25.2009 51.0077 25.2009 49.5147V49.4857C25.2009 48.1053 23.9793 47.604 22.8326 47.242L22.6837 47.1936C21.8191 46.9126 21.0733 46.6706 21.0733 46.1014V46.0712C21.0733 45.5845 21.5092 45.226 22.1848 45.226C22.9356 45.226 23.8267 45.4755 24.4006 45.7927C24.4006 45.7927 24.5689 45.9017 24.6307 45.7382C24.6646 45.651 24.9552 44.8688 24.9855 44.7841C25.0182 44.692 24.9601 44.6242 24.9008 44.5879C24.2457 44.1895 23.34 43.9171 22.4028 43.9171L22.2285 43.9182C20.6326 43.9182 19.5187 44.8821 19.5187 46.2636V46.2927C19.5187 47.7493 20.7477 48.2215 21.8992 48.5509L22.0844 48.6078C22.9236 48.8657 23.6464 49.0872 23.6464 49.6782V49.7073C23.6464 50.2473 23.1767 50.6492 22.4187 50.6492C22.1244 50.6492 21.186 50.6432 20.1726 50.0026C20.0502 49.9311 19.9788 49.8791 19.8844 49.8222C19.8348 49.7907 19.7101 49.7362 19.6556 49.9009L19.3114 50.8551ZM44.8368 50.8551C44.7835 50.9944 44.8562 51.0235 44.8731 51.0477C45.0329 51.1639 45.1953 51.2476 45.3586 51.3407C46.2256 51.8008 47.0442 51.9351 47.9002 51.9351C49.6438 51.9351 50.7263 51.0077 50.7263 49.5147V49.4857C50.7263 48.1053 49.5046 47.604 48.3579 47.242L48.209 47.1936C47.3444 46.9126 46.5985 46.6706 46.5985 46.1014V46.0712C46.5985 45.5845 47.0344 45.226 47.71 45.226C48.4607 45.226 49.3519 45.4755 49.9259 45.7927C49.9259 45.7927 50.0942 45.9017 50.1559 45.7382C50.1898 45.651 50.4804 44.8688 50.5107 44.7841C50.5434 44.692 50.4853 44.6242 50.4259 44.5879C49.7709 44.1895 48.8651 43.9171 47.928 43.9171L47.7536 43.9182C46.1577 43.9182 45.0438 44.8821 45.0438 46.2636V46.2927C45.0438 47.7493 46.2728 48.2215 47.4243 48.5509L47.6095 48.6078C48.4487 48.8657 49.1728 49.0872 49.1728 49.6782V49.7073C49.1728 50.2473 48.7018 50.6492 47.9438 50.6492C47.6496 50.6492 46.7112 50.6432 45.6978 50.0026C45.5754 49.9311 45.5028 49.8815 45.4109 49.8222C45.3793 49.8016 45.2316 49.7447 45.1807 49.9009L44.8368 50.8551ZM62.2623 47.9308C62.2623 48.7747 62.1049 49.4394 61.7949 49.9093C61.4885 50.3742 61.0248 50.6007 60.3784 50.6007C59.7306 50.6007 59.2693 50.3754 58.9677 49.9093C58.6625 49.4407 58.5077 48.7747 58.5077 47.9308C58.5077 47.0881 58.6625 46.4245 58.9677 45.9595C59.2693 45.4995 59.7306 45.2754 60.3784 45.2754C61.0249 45.2754 61.4886 45.4995 61.7962 45.9595C62.105 46.4244 62.2623 47.088 62.2623 47.9308ZM63.7178 46.3664C63.5748 45.8832 63.3521 45.457 63.0555 45.1023C62.7588 44.7463 62.3835 44.4606 61.9378 44.2523C61.4934 44.0453 60.968 43.9399 60.3784 43.9399C59.7874 43.9399 59.2619 44.0453 58.8175 44.2523C58.372 44.4606 57.9966 44.7464 57.6988 45.1023C57.4033 45.4583 57.1805 45.8845 57.0365 46.3664C56.8948 46.847 56.8233 47.3725 56.8233 47.9308C56.8233 48.489 56.8948 49.0157 57.0365 49.4951C57.1805 49.9771 57.4022 50.4033 57.7 50.7593C57.9966 51.1153 58.3732 51.3998 58.8176 51.6019C59.2631 51.8042 59.7874 51.9071 60.3784 51.9071C60.9681 51.9071 61.4924 51.8042 61.9379 51.6019C62.3823 51.3998 62.7588 51.1152 63.0555 50.7593C63.3522 50.4045 63.5749 49.9783 63.7179 49.4951C63.8608 49.0145 63.9322 48.4877 63.9322 47.9308C63.9322 47.3738 63.8606 46.847 63.7178 46.3664ZM75.6694 50.3753C75.621 50.2336 75.4842 50.2869 75.4842 50.2869C75.2723 50.368 75.047 50.4431 74.8073 50.4806C74.5639 50.518 74.2963 50.5375 74.0093 50.5375C73.3047 50.5375 72.7453 50.328 72.3445 49.9139C71.9425 49.4998 71.7173 48.8303 71.7197 47.9246C71.7221 47.1 71.9207 46.48 72.2779 46.0079C72.6327 45.5381 73.1728 45.2971 73.8932 45.2971C74.4938 45.2971 74.9515 45.3661 75.4308 45.5174C75.4308 45.5174 75.5459 45.567 75.6003 45.4169C75.7274 45.0633 75.8219 44.8103 75.9575 44.4216C75.9963 44.3114 75.9019 44.2642 75.8679 44.2508C75.679 44.177 75.2334 44.0572 74.8968 44.0063C74.582 43.9579 74.2139 43.9325 73.8047 43.9325C73.1931 43.9325 72.6483 44.0366 72.1822 44.2449C71.7172 44.4519 71.3225 44.7376 71.0102 45.0937C70.6977 45.4497 70.4604 45.8758 70.3018 46.3577C70.1444 46.8384 70.0645 47.3663 70.0645 47.9246C70.0645 49.1317 70.3902 50.1076 71.0332 50.822C71.6773 51.5389 72.6448 51.9033 73.9065 51.9033C74.6524 51.9033 75.4176 51.752 75.9674 51.5352C75.9674 51.5352 76.0727 51.4844 76.0267 51.3622L75.6694 50.3753ZM78.2159 47.1223C78.2849 46.6537 78.4145 46.2638 78.6143 45.9599C78.9158 45.4986 79.3759 45.2456 80.0225 45.2456C80.6692 45.2456 81.0966 45.4998 81.4029 45.9599C81.6063 46.2638 81.6947 46.6707 81.7299 47.1223H78.2159ZM83.1161 46.0918C82.9927 45.6256 82.6863 45.1546 82.4853 44.9391C82.168 44.5977 81.8582 44.3592 81.5506 44.2259C81.1486 44.054 80.6666 43.9402 80.1388 43.9402C79.5237 43.9402 78.9654 44.0432 78.5126 44.2562C78.0586 44.4693 77.6773 44.76 77.3781 45.122C77.0789 45.4828 76.8538 45.9126 76.7109 46.4006C76.5668 46.8862 76.4941 47.4153 76.4941 47.9734C76.4941 48.5413 76.5693 49.0705 76.7182 49.5463C76.8683 50.0258 77.108 50.4484 77.4325 50.7982C77.7558 51.1506 78.1724 51.4267 78.6712 51.6191C79.1665 51.8105 79.7683 51.9098 80.4596 51.9085C81.8824 51.9036 82.6318 51.5865 82.9406 51.4157C82.9952 51.3855 83.0472 51.3322 82.9817 51.1797L82.6597 50.2775C82.6113 50.1432 82.4744 50.1928 82.4744 50.1928C82.122 50.3235 81.6209 50.5585 80.4523 50.5561C79.6883 50.5549 79.1216 50.3297 78.7668 49.9772C78.4024 49.6165 78.2244 49.0861 78.1929 48.3378L83.1197 48.3427C83.1197 48.3427 83.2492 48.3403 83.2627 48.2143C83.2675 48.1612 83.4322 47.2022 83.1161 46.0918ZM38.759 47.1223C38.8292 46.6537 38.9576 46.2638 39.1574 45.9599C39.4588 45.4986 39.919 45.2456 40.5655 45.2456C41.2121 45.2456 41.6395 45.4998 41.947 45.9599C42.1492 46.2638 42.2376 46.6707 42.2728 47.1223H38.759ZM43.6579 46.0918C43.5345 45.6256 43.2294 45.1546 43.0284 44.9391C42.7111 44.5977 42.4011 44.3592 42.0937 44.2259C41.6916 44.054 41.2098 43.9402 40.6818 43.9402C40.0679 43.9402 39.5085 44.0432 39.0557 44.2562C38.6017 44.4693 38.2202 44.76 37.9212 45.122C37.6221 45.4828 37.3969 45.9126 37.254 46.4006C37.1112 46.8862 37.0373 47.4153 37.0373 47.9734C37.0373 48.5413 37.1123 49.0705 37.2613 49.5463C37.4115 50.0258 37.6513 50.4484 37.9757 50.7982C38.299 51.1506 38.7155 51.4267 39.2144 51.6191C39.7097 51.8105 40.3114 51.9098 41.0028 51.9085C42.4255 51.9036 43.175 51.5865 43.4838 51.4157C43.5383 51.3855 43.5903 51.3322 43.525 51.1797L43.2041 50.2775C43.1544 50.1432 43.0177 50.1928 43.0177 50.1928C42.6653 50.3235 42.1652 50.5585 40.9944 50.5561C40.2316 50.5549 39.6649 50.3297 39.3101 49.9772C38.9456 49.6165 38.7677 49.0861 38.7361 48.3378L43.663 48.3427C43.663 48.3427 43.7925 48.3403 43.8058 48.2143C43.8105 48.1612 43.9751 47.2022 43.6579 46.0918ZM28.1097 50.3483C27.9171 50.1945 27.8905 50.1557 27.8251 50.0565C27.7282 49.9051 27.6786 49.6896 27.6786 49.4159C27.6786 48.9824 27.8215 48.6713 28.1182 48.4618C28.1146 48.4631 28.542 48.0925 29.5469 48.1058C30.2528 48.1155 30.8836 48.2196 30.8836 48.2196V50.4597H30.8848C30.8848 50.4597 30.2588 50.594 29.5541 50.6364C28.5516 50.697 28.106 50.3471 28.1097 50.3483ZM30.0699 46.8865C29.8702 46.872 29.611 46.8635 29.301 46.8635C28.8785 46.8635 28.4704 46.9167 28.0878 47.0197C27.7028 47.1226 27.3565 47.2837 27.0586 47.4967C26.7612 47.709 26.5167 47.987 26.3442 48.3091C26.1699 48.6337 26.0815 49.0163 26.0815 49.4449C26.0815 49.8808 26.1565 50.2598 26.3067 50.5699C26.4569 50.881 26.6736 51.1401 26.9496 51.34C27.2232 51.5397 27.5611 51.6862 27.9534 51.7746C28.3396 51.863 28.7779 51.9077 29.2575 51.9077C29.7624 51.9077 30.2661 51.8666 30.754 51.783C31.2371 51.7006 31.8304 51.5808 31.9951 51.5433C32.1105 51.5155 32.2256 51.486 32.3402 51.4549C32.4625 51.4247 32.4528 51.2938 32.4528 51.2938L32.4504 46.7884C32.4504 45.8003 32.1864 45.0677 31.667 44.6137C31.1499 44.1609 30.3883 43.9319 29.404 43.9319C29.0346 43.9319 28.4401 43.9829 28.0841 44.0543C28.0841 44.0543 27.0077 44.2626 26.5645 44.6089C26.5645 44.6089 26.4677 44.6695 26.521 44.8051L26.8697 45.7423C26.9133 45.8634 27.0308 45.8222 27.0308 45.8222C27.0308 45.8222 27.0683 45.8076 27.112 45.7822C28.0601 45.2664 29.2587 45.2822 29.2587 45.2822C29.7915 45.2822 30.2008 45.3887 30.4768 45.6005C30.7456 45.8064 30.8824 46.1175 30.8824 46.7738V46.9821C30.4586 46.9216 30.0699 46.8865 30.0699 46.8865ZM69.8071 44.3479C69.8446 44.2365 69.766 44.1832 69.7332 44.1711C69.6497 44.1384 69.2308 44.05 68.9074 44.0295C68.2888 43.9919 67.945 44.0961 67.6373 44.2341C67.3322 44.3721 66.9932 44.5948 66.8042 44.848V44.2486C66.8042 44.1651 66.7449 44.0985 66.6626 44.0985H65.3996C65.3174 44.0985 65.2581 44.165 65.2581 44.2486V51.5971C65.2581 51.6795 65.3259 51.7473 65.4082 51.7473H66.7026C66.7422 51.747 66.7801 51.7311 66.808 51.703C66.836 51.6748 66.8516 51.6367 66.8515 51.5971V47.9259C66.8515 47.4331 66.906 46.9416 67.015 46.6328C67.1215 46.3276 67.2668 46.0831 67.446 45.9074C67.6264 45.7331 67.831 45.6108 68.0551 45.5418C68.2839 45.4716 68.5369 45.4486 68.7162 45.4486C68.9741 45.4486 69.2574 45.5151 69.2574 45.5151C69.3518 45.526 69.4051 45.4679 69.4365 45.382C69.5213 45.1567 69.7611 44.4823 69.8071 44.3479Z" fill="white"/>
<path d="M57.6574 40.9422C57.5 40.8938 57.3571 40.861 57.1706 40.826C56.9816 40.7921 56.7565 40.7751 56.5011 40.7751C55.6098 40.7751 54.9075 41.0269 54.4148 41.5233C53.9244 42.0174 53.5913 42.7693 53.4242 43.7586L53.3637 44.0915H52.245C52.245 44.0915 52.1093 44.0867 52.0802 44.2345L51.8975 45.26C51.8841 45.3569 51.9266 45.4186 52.0573 45.4186H53.1458L52.0415 51.5841C51.9555 52.0806 51.8562 52.4887 51.746 52.7985C51.6382 53.1037 51.533 53.3325 51.4022 53.4996C51.2763 53.6595 51.1576 53.7781 50.9517 53.8471C50.7822 53.9041 50.5861 53.9307 50.3717 53.9307C50.253 53.9307 50.0945 53.9112 49.977 53.887C49.8608 53.864 49.799 53.8386 49.7106 53.801C49.7106 53.801 49.5835 53.7527 49.5326 53.8798C49.4926 53.9851 49.2021 54.783 49.1669 54.8812C49.1331 54.9792 49.1815 55.0555 49.2432 55.0785C49.3885 55.1294 49.4962 55.1632 49.6936 55.2105C49.9673 55.2747 50.1985 55.2783 50.4152 55.2783C50.868 55.2783 51.2821 55.2141 51.6249 55.0907C51.9688 54.9659 52.269 54.7491 52.5354 54.4562C52.8223 54.1389 53.0027 53.8071 53.1748 53.3531C53.3454 52.9051 53.4921 52.3481 53.6082 51.6992L54.7186 45.4186H56.341C56.341 45.4186 56.4778 45.4235 56.5058 45.2746L56.6897 44.2502C56.7019 44.1522 56.6607 44.0916 56.5287 44.0916H54.9534C54.9619 44.0566 55.0333 43.5019 55.2137 42.9801C55.2913 42.7586 55.4365 42.5781 55.5589 42.4546C55.68 42.3335 55.8192 42.2476 55.9719 42.1979C56.128 42.147 56.3061 42.1228 56.501 42.1228C56.6487 42.1228 56.7951 42.1398 56.9053 42.1627C57.0579 42.1955 57.1172 42.2124 57.1573 42.2246C57.3183 42.273 57.34 42.2258 57.3716 42.1484L57.7482 41.1143C57.7869 41.0027 57.6913 40.9555 57.6574 40.9422ZM35.6476 51.5975C35.6476 51.6798 35.5883 51.7465 35.5059 51.7465H34.1994C34.1171 51.7465 34.059 51.6798 34.059 51.5975V41.0827C34.059 41.0004 34.1171 40.9338 34.1994 40.9338H35.5059C35.5883 40.9338 35.6476 41.0004 35.6476 41.0827V51.5975Z" fill="white"/>
</g>
<defs>
<clipPath id="clip0_266_13">
<rect width="85" height="59.5" fill="white" transform="translate(7 20)"/>
</clipPath>
</defs>
</svg>
