<svg width="100" height="100" viewBox="0 0 100 100" fill="none" xmlns="http://www.w3.org/2000/svg">
<rect width="100" height="100" rx="24" fill="white"/>
<path d="M16 26.5017L26.2935 44.9007V56.1235L16.012 74.4863L16 26.5017Z" fill="#5B57A2"/>
<path d="M55.5228 38.2056L65.1682 32.2938L84.908 32.2754L55.5228 50.277V38.2056Z" fill="#D90751"/>
<path d="M55.4684 26.3933L55.5229 50.7529L45.2053 44.4133V8L55.4684 26.3933Z" fill="#FAB718"/>
<path d="M84.9081 32.2753L65.1676 32.2937L55.4684 26.3933L45.2053 8L84.9081 32.2753Z" fill="#ED6F26"/>
<path d="M55.5229 74.5882V62.7697L45.2053 56.5505L45.211 93L55.5229 74.5882Z" fill="#63B22F"/>
<path d="M65.1442 68.7304L26.2928 44.9007L16 26.5017L84.8663 68.7063L65.1442 68.7304Z" fill="#1487C9"/>
<path d="M45.2117 93L55.5222 74.5883L65.1435 68.7304L84.8656 68.7063L45.2117 93Z" fill="#017F36"/>
<path d="M16.012 74.4862L45.2895 56.5512L35.4465 50.512L26.2934 56.1234L16.012 74.4862Z" fill="#984995"/>
</svg>
