<svg width="100" height="100" viewBox="0 0 100 100" fill="none" xmlns="http://www.w3.org/2000/svg">
<rect width="100" height="100" rx="24" fill="white"/>
<path fill-rule="evenodd" clip-rule="evenodd" d="M23.0792 38.629C23.8207 39.651 30.0727 41.5787 39.3987 43.5866C48.7247 45.374 58.4234 52.4316 65.9659 50.2554C71.0678 48.7806 76.6025 35.6392 76.6025 33.6875V33.4871C76.6025 32.1245 75.5805 31.0303 73.8451 30.1206C66.7314 26.4856 65.3848 25.147 62.7477 25.8724C49.0573 29.6517 24.8867 27.72 23.0792 38.629Z" fill="#380D09"/>
<path fill-rule="evenodd" clip-rule="evenodd" d="M23.0792 65.3125C23.8207 66.3505 30.0727 68.2622 39.3987 70.2741C49.8188 72.1738 58.8803 78.3657 66.4268 76.1855C71.5287 74.7107 76.6025 62.3268 76.6025 60.371V60.1786C76.6025 58.82 75.5805 57.7219 73.8451 56.8162C68.4187 53.9306 61.2488 50.7525 58.6158 51.4779C44.9013 55.2491 26.57 56.0787 23.0792 65.3125Z" fill="#380D09"/>
<path fill-rule="evenodd" clip-rule="evenodd" d="M23.0031 44.3641V44.5564C22.999 44.4924 22.999 44.4281 23.0031 44.3641Z" fill="#555555"/>
<path fill-rule="evenodd" clip-rule="evenodd" d="M66.4068 12.1579C53.7985 15.801 33.7959 17.8569 23.0192 17.8569V38.4366C23.0226 38.5074 23.0494 38.5751 23.0953 38.629C30.4495 38.629 53.1533 36.2244 66.8517 32.4571C69.2407 31.849 71.5832 31.0709 73.8612 30.1286C75.5364 29.3752 76.6185 28.5816 76.6185 27.756V7C76.6025 8.95577 71.5087 10.6871 66.4068 12.1579Z" fill="#DE3423"/>
<path fill-rule="evenodd" clip-rule="evenodd" d="M66.4068 38.8454C58.8603 41.0216 48.6766 42.6408 39.3988 43.5866C33.1707 44.2238 27.3515 44.5565 23.0192 44.5565V65.1201C23.0226 65.1909 23.0494 65.2585 23.0953 65.3125C30.4495 65.3125 53.1533 62.9079 66.8517 59.1446C69.2402 58.5347 71.5826 57.7566 73.8612 56.8161C75.5364 56.0586 76.6185 55.2691 76.6185 54.4435V33.6875C76.6025 35.6393 71.5087 37.3706 66.4068 38.8454Z" fill="#DE3423"/>
<path fill-rule="evenodd" clip-rule="evenodd" d="M66.4068 65.549C58.8602 67.7252 48.6766 69.3403 39.3987 70.2901C33.1626 70.9273 27.3354 71.26 23.0031 71.26V92C30.2811 92 53.1011 89.6154 66.8356 85.8321C71.8974 84.4374 76.6024 82.8503 76.6024 81.127V60.371C76.6024 62.3428 71.5086 64.0581 66.4068 65.549Z" fill="#DE3423"/>
</svg>
