<svg width="100" height="100" viewBox="0 0 100 100" fill="none" xmlns="http://www.w3.org/2000/svg">
<rect width="100" height="100" rx="24" fill="#0070D1"/>
<path d="M9.71868 64.9938C6.53342 67.1113 7.60122 71.1526 14.3907 73.0643C21.5009 75.432 29.0842 76.0153 36.4728 74.7628C36.8978 74.7628 37.3228 74.5511 37.5316 74.5511V67.3291L30.311 69.6658C27.5507 70.5158 24.789 70.7246 22.0287 70.0908C19.9112 69.4541 20.3302 68.1791 22.8787 67.1173L37.5406 62.0142V54.1494L17.1525 61.1582C14.4933 62.0497 11.9863 63.3432 9.71868 64.9938ZM58.9905 33.1366V53.738C67.6978 57.985 74.4949 53.738 74.4949 42.6969C74.4949 31.4411 70.4596 26.3441 58.7788 22.3088C52.62 20.1913 46.2479 18.2735 39.8729 17V78.3731L54.739 82.8334V31.2248C54.739 28.888 54.739 27.1895 56.4375 27.8263C58.7788 28.4645 58.9905 30.7998 58.9905 33.1366ZM86.6007 60.1085C80.4419 57.991 73.8581 57.135 67.4861 57.7717C64.0876 57.9835 60.9023 58.8305 57.9288 59.8892L57.292 60.1009V68.3832L71.0964 63.2862C73.8566 62.4362 76.6184 62.2275 79.3787 62.8612C81.4961 63.498 81.0772 64.773 78.5286 65.8347L57.2905 73.6996V81.7701L86.6007 70.9378C88.7182 70.0878 90.636 69.026 92.3345 67.3275C93.8213 65.2055 93.1845 62.232 86.6007 60.1085Z" fill="white"/>
</svg>
