<svg width="100" height="100" viewBox="0 0 100 100" fill="none" xmlns="http://www.w3.org/2000/svg">
<rect width="100" height="100" rx="24" fill="#FF5500"/>
<path d="M11.5234 52.734L10.9374 57.0307L11.5234 61.3274C11.5234 61.718 12.1094 61.718 12.1094 61.3274L12.6954 57.0307L12.1094 52.734C12.1094 52.148 11.5234 52.148 11.5234 52.734ZM15.0387 50C15.0387 49.414 14.4527 49.414 14.4527 50L13.476 57.0314L14.2574 63.8674C14.2574 64.4534 15.0387 64.4534 15.0387 63.8674L15.82 57.0314L15.0387 50ZM26.562 44.1407L25.976 57.0314L26.3667 64.844C26.3667 66.4067 27.734 66.4067 27.734 64.844L28.5154 57.0314L27.734 44.1407C27.734 43.164 26.562 43.164 26.562 44.1407ZM20.5074 48.4374L19.7267 57.0314L20.3127 64.844C20.3127 66.016 21.2894 66.016 21.2894 64.844L22.0707 57.0314L21.2894 48.4374C21.2894 47.8514 20.5074 47.8514 20.5074 48.4374ZM34.1794 64.8434L34.7654 57.0307L34.1794 39.8434C34.1794 38.6714 32.812 38.6714 32.812 39.8434L32.226 57.0307L32.6167 64.8434C32.6167 66.406 34.1794 66.406 34.1794 64.8434ZM47.4607 64.8434L47.8514 57.0307L47.4607 37.1087C47.4607 35.7414 45.5074 35.7414 45.5074 37.1087L45.1167 57.0307L45.5074 64.8434C45.5074 66.406 47.4607 66.406 47.4607 64.8434ZM40.82 64.8434L41.406 57.0307L40.82 39.648C40.82 38.476 39.062 38.476 39.062 39.648L38.6714 57.0307L39.062 64.8434C39.062 66.406 40.82 66.406 40.82 64.8434ZM24.6094 64.8434L25.1954 57.0307L24.6094 49.0227C24.6094 48.4367 23.4374 48.4367 23.4374 49.0227L22.8514 57.0307L23.4374 64.8434C23.4374 66.2107 24.6094 66.2107 24.6094 64.8434ZM18.164 64.8434L18.9454 57.0307L18.164 48.632C18.164 48.046 17.3827 48.046 17.3827 48.632L16.6014 57.0307L17.3827 64.8434C17.3827 65.6247 18.164 65.6247 18.164 64.8434ZM42.3827 40.4294L41.992 57.0307L42.1874 64.8434C42.1874 66.406 44.1407 66.406 44.1407 64.8434L44.5314 57.0307L44.1407 40.4294C44.1407 39.062 42.3827 39.062 42.3827 40.4294ZM31.0547 64.8434L31.6407 57.0307L31.0547 41.2107C31.0547 40.0387 29.6874 40.0387 29.6874 41.2107L29.1014 57.0314L29.492 64.844C29.492 66.4067 31.0547 66.406 31.0547 64.8434ZM37.5 64.8434L38.086 57.0307L37.5 39.2574C37.5 38.0854 35.9374 38.0854 35.9374 39.2574L35.3514 57.0307L35.9374 64.8434C35.9374 66.406 37.5 66.406 37.5 64.8434ZM75.7814 47.4607C74.8047 36.328 63.2814 29.1014 52.7347 33.2027C51.9534 33.5934 51.758 33.7887 51.758 34.3747V64.8434C51.758 65.4294 52.1487 66.0154 52.7347 66.0154H79.4927C84.766 66.0154 89.0634 61.7187 89.0634 56.4447C89.0634 49.218 82.2274 45.312 75.782 47.46L75.7814 47.4607ZM48.828 35.3514L48.242 57.0314L48.828 64.844C48.828 66.4067 50.7814 66.4067 50.7814 64.844L51.3674 57.0314L50.7814 35.352C50.7814 33.9847 48.828 33.984 48.828 35.3514Z" fill="white"/>
</svg>
