<svg width="100" height="100" viewBox="0 0 100 100" fill="none" xmlns="http://www.w3.org/2000/svg">
<rect width="100" height="100" rx="24" fill="black"/>
<path d="M51.1861 7.03417C27.7311 6.10188 7.96258 24.3593 7.03417 47.8142C6.10187 71.2692 24.3632 91.0337 47.8143 91.966C71.2693 92.8983 91.0338 74.641 91.9661 51.1861C92.8945 27.7311 74.637 7.96258 51.1861 7.03417ZM69.1248 69.2918C68.5966 70.2242 67.5671 70.6905 66.5649 70.5506C66.2581 70.5078 65.9512 70.4068 65.6639 70.2436C60.0468 67.0466 53.9246 64.9646 47.4685 64.0556C41.0123 63.1466 34.5523 63.4613 28.271 64.9879C26.9075 65.318 25.5363 64.4828 25.2061 63.1194C24.8759 61.756 25.7111 60.3845 27.0746 60.0545C33.9814 58.3763 41.0823 58.0305 48.1754 59.0289C55.2686 60.0273 61.9967 62.3153 68.177 65.8309C69.3929 66.5262 69.8201 68.0722 69.1287 69.2918H69.1248ZM74.7108 58.1354C73.8445 59.7359 71.8402 60.3343 70.2398 59.468C63.6671 55.9135 56.5506 53.5789 49.0883 52.53C41.626 51.4814 34.1446 51.7648 26.8454 53.3691C26.4492 53.4546 26.0568 53.4701 25.6762 53.4157C24.3515 53.2292 23.2172 52.2427 22.9142 50.8558C22.5219 49.0768 23.6484 47.3171 25.4275 46.9246C33.4956 45.1493 41.7659 44.8348 50.009 45.9923C58.2482 47.15 66.1144 49.7294 73.3785 53.6605C74.9828 54.5268 75.5771 56.5272 74.7108 58.1315V58.1354ZM80.903 45.5612C80.0872 47.1306 78.3896 47.9424 76.7348 47.7093C76.2879 47.6471 75.8491 47.5072 75.4255 47.2899C67.7731 43.3082 59.53 40.6783 50.9258 39.4701C42.3216 38.2621 33.6705 38.5186 25.2178 40.2353C23.0191 40.6822 20.8787 39.2605 20.432 37.0656C19.9853 34.867 21.407 32.7267 23.6018 32.2798C32.9635 30.3803 42.5351 30.0968 52.0561 31.433C61.5773 32.7694 70.6981 35.6827 79.1743 40.0918C81.1631 41.1249 81.9361 43.5761 80.903 45.5651V45.5612Z" fill="#1ED760"/>
</svg>
