<svg width="100" height="100" viewBox="0 0 100 100" fill="none" xmlns="http://www.w3.org/2000/svg">
<rect width="100" height="100" rx="24" fill="#5FB832"/>
<path d="M84.1567 69.1238C73.6951 83.0625 51.3477 78.3576 37.02 79.0343C37.02 79.0343 34.4836 79.1754 31.9289 79.5959C31.9289 79.5959 32.8949 79.1839 34.1269 78.7591C44.1898 75.2792 48.9454 74.5799 55.0599 71.4392C66.5486 65.5541 77.9825 52.735 80.3089 39.4184C75.936 52.226 62.6361 63.2492 50.5262 67.7255C42.2374 70.7841 27.2478 73.7608 27.2456 73.762C27.2526 73.7726 26.6483 73.4482 26.6398 73.4412C16.4457 68.4815 16.1516 46.4028 34.666 39.2857C42.7835 36.1631 50.5481 37.8782 59.3234 35.7895C68.6828 33.5642 79.5227 26.5487 83.9286 17.3768C88.868 32.0275 94.8016 54.9486 84.1567 69.1238ZM84.3386 12.8369C83.0931 15.7958 81.5732 18.4621 79.821 20.847C72.1086 12.9317 61.3438 8 49.4452 8C26.0395 8 7 27.0417 7 50.443C7 62.7108 12.2364 73.7748 20.5849 81.53L21.5144 82.3535C19.9622 81.0877 19.7235 78.8083 20.9815 77.2547C22.2473 75.7004 24.5289 75.4596 26.0818 76.7183C27.6389 77.9799 27.8761 80.265 26.6154 81.8213C25.3593 83.3784 23.0736 83.6136 21.5186 82.357L22.1511 82.9172C29.5358 89.1351 39.0551 92.8909 49.4452 92.8909C71.8172 92.8909 90.1879 75.4807 91.7604 53.506C92.925 42.7466 89.747 29.0846 84.3386 12.8369Z" fill="white"/>
</svg>
