<svg width="100" height="100" viewBox="0 0 100 100" fill="none" xmlns="http://www.w3.org/2000/svg">
<rect width="100" height="100" rx="24" fill="white"/>
<path d="M39.3072 49.6091C38.1743 49.6091 37.2532 49.9445 36.547 50.6148C35.8408 51.2858 35.4826 52.1652 35.4826 53.2429C35.4826 53.8013 35.5715 54.3105 35.7468 54.7771C35.9221 55.2446 36.1949 55.6777 36.5617 56.0691C36.9284 56.4608 37.6625 56.9929 38.7566 57.6694C40.0991 58.489 40.9777 59.1541 41.3993 59.6735C41.8213 60.1924 42.0306 60.7362 42.0306 61.3031C42.0306 62.0622 41.7807 62.6682 41.2672 63.1237C40.7527 63.5794 40.0647 63.8064 39.2117 63.8064C38.312 63.8064 37.5283 63.4892 36.8553 62.8594C36.1823 62.2287 35.8426 61.3944 35.8349 60.3488H35.4165V64.1441H35.8349C35.9627 63.7847 36.1394 63.6008 36.3708 63.6008C36.4821 63.6008 36.7429 63.6776 37.149 63.8211C38.137 64.1726 38.9483 64.3423 39.5861 64.3423C40.6852 64.3423 41.6234 63.9573 42.405 63.1751C43.1855 62.3931 43.5796 61.45 43.5796 60.3488C43.5796 59.495 43.3194 58.7353 42.8088 58.0732C42.2981 57.4102 41.3051 56.639 39.821 55.7534C38.544 54.9862 37.7151 54.3613 37.3325 53.8742C36.9493 53.3877 36.7525 52.8497 36.7525 52.2592C36.7525 51.6205 36.9872 51.1075 37.4499 50.7249C37.9127 50.342 38.5191 50.1523 39.2778 50.1523C40.1317 50.1523 40.8435 50.4058 41.4067 50.9158C41.9693 51.4267 42.2946 52.1347 42.3903 53.0447H42.8088V49.7559H42.4197C42.3721 49.9236 42.3281 50.0308 42.2876 50.0789C42.2482 50.1268 42.1725 50.1523 42.06 50.1523C41.9246 50.1523 41.6833 50.0954 41.3406 49.9835C40.6065 49.7363 39.9297 49.6091 39.3072 49.6091ZM52.9832 49.6091C51.6028 49.6091 50.3496 49.9345 49.2174 50.5855C48.0833 51.2353 47.1857 52.1376 46.5232 53.2869C45.8611 54.4361 45.5322 55.6566 45.5322 56.9573C45.5322 58.7048 46.1042 60.2616 47.2573 61.6261C48.411 62.9898 49.7935 63.8395 51.3976 64.1661C51.7643 64.3572 52.2891 64.8505 52.9759 65.6489C53.7499 66.55 54.4047 67.1999 54.9432 67.5869C55.4812 67.9741 56.062 68.2579 56.6757 68.4458C57.29 68.6329 57.9542 68.7248 58.6724 68.7248C59.5421 68.7248 60.3209 68.5736 61.0068 68.2623L60.8526 67.8806C60.4545 68.0242 60.0299 68.0934 59.5827 68.0934C58.9757 68.0934 58.3623 67.8933 57.7474 67.4915C57.1335 67.0887 56.3656 66.3202 55.4498 65.1865C55.0193 64.6432 54.7221 64.3005 54.5542 64.1661C56.3092 63.8233 57.7524 62.9727 58.8779 61.6115C60.0032 60.2507 60.5663 58.6978 60.5663 56.9573C60.5663 54.8908 59.8311 53.154 58.3714 51.738C56.9106 50.3218 55.1141 49.6091 52.9832 49.6091ZM61.5207 49.6091L61.5427 50.0569C62.4617 50.0569 62.9765 50.3276 63.0916 50.8718C63.1345 51.0664 63.1541 51.4259 63.1577 51.9435L63.1503 61.8464C63.1427 62.586 63.0373 63.0582 62.8347 63.2632C62.6318 63.4666 62.2888 63.5941 61.7923 63.6449L61.7703 64.0927H70.9317L71.1666 61.8464H70.7482C70.6286 62.4583 70.3547 62.8967 69.9186 63.1457C69.4814 63.3965 68.7083 63.5201 67.5916 63.5201H66.7254C65.7205 63.5201 65.1391 63.1568 64.9856 62.4263C64.9539 62.2818 64.943 62.1268 64.9415 61.9565L64.9782 51.9435C64.978 51.2051 65.0713 50.7103 65.2645 50.468C65.4598 50.2266 65.8119 50.0916 66.3216 50.0569L66.2996 49.6091H61.5207ZM53.13 50.1523C54.6869 50.1523 55.958 50.7655 56.94 52.0022C57.9216 53.2394 58.4081 54.935 58.4081 57.0821C58.4081 59.1167 57.9145 60.7458 56.9253 61.9712C55.936 63.1961 54.6194 63.8064 52.9832 63.8064C51.4114 63.8064 50.1367 63.1771 49.1586 61.9124C48.1814 60.6477 47.6978 59.0058 47.6978 56.9867C47.6978 54.9119 48.1873 53.251 49.1733 52.0096C50.1587 50.7695 51.4783 50.1523 53.13 50.1523ZM74.1983 52.2812C73.9749 52.2812 73.8046 52.3567 73.6771 52.5088C73.5468 52.6603 73.5068 52.8438 73.5524 53.0667C73.5964 53.2829 73.7183 53.4724 73.9121 53.6319C74.1047 53.7913 74.3126 53.8742 74.536 53.8742C74.7521 53.8742 74.9169 53.7913 75.0352 53.6319C75.1535 53.4724 75.1897 53.2829 75.1453 53.0667C75.0998 52.8438 74.9821 52.6603 74.8003 52.5088C74.6165 52.3567 74.4145 52.2812 74.1983 52.2812ZM80.2399 53.8008C79.8602 55.2614 79.0372 56.0518 77.7734 56.1792L77.788 56.5976H79.2636L79.2342 61.5454C79.2365 62.3913 79.2624 62.9545 79.3223 63.2411C79.4676 63.9274 79.9157 64.2762 80.6657 64.2762C81.7506 64.2762 82.8888 63.6153 84.0792 62.2942L83.7195 61.9858C82.86 62.8559 82.1001 63.2925 81.4365 63.2925C81.0286 63.2925 80.7758 63.058 80.6803 62.5951C80.6542 62.4827 80.6436 62.3514 80.6436 62.1987L80.6583 56.5976H82.912L82.89 55.9296H80.6657V53.8008H80.2399ZM88.9535 55.6653C87.6929 55.6653 86.6676 56.2773 85.8703 57.4932C85.0772 58.7112 84.8318 60.0607 85.1436 61.5454C85.3271 62.415 85.6927 63.0891 86.2521 63.5641C86.8106 64.039 87.5191 64.2762 88.3662 64.2762C89.1549 64.2762 90.2531 64.0765 90.7153 63.6742C91.1787 63.2722 91.6056 62.6209 92 61.7289L91.6843 61.3986C91.0553 62.5558 89.786 63.1384 88.8287 63.1384C87.5126 63.1384 86.7066 62.4163 86.4062 60.9801C86.3672 60.7968 86.3381 60.5999 86.3181 60.3929C87.8838 60.145 89.0704 59.706 89.8711 59.0715C90.6713 58.4366 91.4747 57.7637 91.3246 57.0528C91.2353 56.6303 91.016 56.2982 90.6786 56.0471C90.3368 55.7961 89.4495 55.6653 88.9535 55.6653ZM75.1747 55.7167L72.4586 56.3407V56.8252L73.3982 56.7078C73.8533 56.7078 74.1211 56.9139 74.2057 57.3244C74.2342 57.4618 74.2521 57.6547 74.2571 57.897L74.2277 62.3382C74.2201 62.9528 74.152 63.31 74.0148 63.4173C73.8765 63.5248 73.5118 63.5788 72.921 63.5788L72.9064 63.9972H77.2155L77.2081 63.5788C76.6094 63.5788 76.2212 63.5316 76.0483 63.4393C75.8783 63.3477 75.7611 63.1809 75.7106 62.9255C75.6715 62.7414 75.6545 62.4242 75.6519 61.9858L75.6665 55.7167H75.1747ZM88.2635 56.5389C88.5257 56.5389 88.7791 56.6402 89.0343 56.8399C89.2859 57.0389 89.4392 57.2602 89.4894 57.5006C89.7352 58.6813 88.6884 59.4976 86.3328 59.9524C86.2656 59.0914 86.4147 58.3099 86.7953 57.6033C87.1729 56.8975 87.6647 56.5389 88.2635 56.5389Z" fill="#003B57"/>
<path d="M33.2231 32.6528H9.84838C8.28178 32.6528 7 33.9349 7 35.5014V61.2794C7 62.8458 8.28178 64.1276 9.84838 64.1276H25.2436C25.0689 56.4675 27.6847 41.6015 33.2231 32.6528Z" fill="#0F80CC"/>
<path d="M32.374 33.4839H9.84841C8.73603 33.4839 7.83081 34.3888 7.83081 35.5014V59.3986C12.9324 57.4407 20.5892 55.7513 25.8834 55.828C26.9473 50.2651 30.074 39.3632 32.374 33.4839Z" fill="url(#paint0_linear_218_138)"/>
<path d="M38.6754 31.8093C37.0745 30.3816 35.1362 30.9551 33.2232 32.6529C32.9392 32.9051 32.6559 33.1849 32.374 33.4839C29.1014 36.9555 26.0637 43.3861 25.12 48.2972C25.4876 49.0427 25.7748 49.9941 25.9639 50.7208C26.0124 50.9073 26.0561 51.0823 26.0911 51.2312C26.1742 51.5835 26.2188 51.812 26.2188 51.812C26.2188 51.812 26.1894 51.7009 26.069 51.3518C26.0461 51.2849 26.0206 51.2118 25.9903 51.1257C25.9774 51.0902 25.9595 51.047 25.9398 51.0009C25.7264 50.5047 25.1359 49.4573 24.876 49.0013C24.6537 49.657 24.4573 50.2704 24.2928 50.8254C25.0431 52.198 25.5003 54.5505 25.5003 54.5505C25.5003 54.5505 25.4606 54.398 25.2721 53.8659C25.1047 53.3953 24.2711 51.9347 24.0736 51.5932C23.7358 52.8402 23.6016 53.6822 23.7227 53.8871C23.9576 54.2843 24.1815 54.9697 24.378 55.7276C24.822 57.4351 25.1306 59.5137 25.1306 59.5137C25.1306 59.5137 25.1406 59.6514 25.1573 59.8634C25.0956 61.2973 25.1326 62.7839 25.2436 64.1277C25.3907 65.9064 25.6676 67.4345 26.0206 68.2523L26.2602 68.1217C25.7419 66.5105 25.5314 64.3989 25.6236 61.9638C25.7631 58.2417 26.6196 53.7529 28.2023 49.0744C30.8761 42.0119 34.5859 36.3453 37.9812 33.6392C34.8866 36.434 30.6982 45.4806 29.4444 48.8307C28.0405 52.5822 27.0457 56.1026 26.4461 59.4755C27.4805 56.3134 30.8253 54.9542 30.8253 54.9542C30.8253 54.9542 32.4659 52.931 34.383 50.0405C33.2346 50.3024 31.3489 50.7508 30.7173 51.0162C29.7856 51.407 29.5345 51.5404 29.5345 51.5404C29.5345 51.5404 32.5525 49.7025 35.1418 48.8703C38.7027 43.2619 42.5822 35.2944 38.6754 31.8093Z" fill="#003B57"/>
<defs>
<linearGradient id="paint0_linear_218_138" x1="21.9828" y1="34.0142" x2="21.9828" y2="57.9575" gradientUnits="userSpaceOnUse">
<stop stop-color="#97D9F6"/>
<stop offset="0.920245" stop-color="#0F80CC"/>
<stop offset="1" stop-color="#0F80CC"/>
</linearGradient>
</defs>
</svg>
