<svg width="100" height="100" viewBox="0 0 100 100" fill="none" xmlns="http://www.w3.org/2000/svg">
<rect width="100" height="100" rx="24" fill="#101D2E"/>
<path d="M9.733 62.7214C14.9844 80.2314 31.2261 93 50.4454 93C73.9173 93 92.9454 73.972 92.9454 50.5C92.9454 27.028 73.9173 8 50.4454 8C27.923 8 9.49261 25.522 8.03699 47.6764C10.7915 52.2943 11.8607 55.1511 9.73035 62.7214H9.733Z" fill="url(#paint0_linear_175_1044)"/>
<path d="M48.2553 39.8551L48.2593 40.065L37.8601 55.1724C36.176 55.0954 34.4866 55.3915 32.8823 56.0516C32.1838 56.3354 31.517 56.6915 30.8927 57.1141L8.05562 47.7017C8.05562 47.7017 7.52702 56.3956 9.72905 62.8742L25.8737 69.5361C26.6706 73.1592 29.1675 76.3361 32.8358 77.8634C35.7217 79.0625 38.9656 79.0672 41.855 77.8764C44.7444 76.6856 47.043 74.3966 48.246 71.5123C48.8878 69.9759 49.1974 68.3212 49.1544 66.6567L64.0201 56.025L64.3854 56.0317C73.2905 56.0317 80.5287 48.7722 80.5287 39.8551C80.5287 30.9381 73.3037 23.7051 64.3854 23.6865C55.4843 23.6865 48.242 30.9381 48.242 39.8551H48.2553ZM45.7584 70.4684C43.8273 75.1168 38.4989 77.3043 33.8677 75.3745C31.8126 74.5108 30.1468 72.9216 29.1874 70.9093L34.4428 73.0875C35.2547 73.4254 36.1251 73.6001 37.0045 73.6015C37.8839 73.6028 38.7549 73.431 39.5679 73.0956C40.3808 72.7602 41.1197 72.268 41.7423 71.647C42.3649 71.026 42.859 70.2883 43.1965 69.4763C43.8798 67.8354 43.8838 65.9905 43.2077 64.3466C42.5316 62.7028 41.2306 61.3946 39.5906 60.7093L34.1453 58.4582C36.2411 57.6613 38.6237 57.6347 40.8523 58.5604C43.1101 59.4941 44.8367 61.2525 45.7611 63.5011C46.6855 65.7496 46.6801 68.2292 45.7478 70.4684M64.4 50.6328C61.5465 50.6251 58.8123 49.4868 56.7964 47.4672C54.7806 45.4475 53.6473 42.7113 53.6448 39.8578C53.648 37.0047 54.7816 34.2691 56.7974 32.2501C58.8132 30.2311 61.5469 29.0931 64.4 29.0854C67.2535 29.0924 69.9879 30.23 72.0043 32.2492C74.0207 34.2683 75.1546 37.0042 75.1578 39.8578C75.1553 42.7118 74.0217 45.4484 72.0052 47.4681C69.9888 49.4878 67.254 50.6258 64.4 50.6328ZM56.3409 39.8405C56.3392 37.6965 57.1887 35.6395 58.7029 34.1216C60.217 32.6037 62.2719 31.7491 64.4159 31.7456C68.8718 31.7456 72.4962 35.3714 72.4962 39.8405C72.4973 41.985 71.6467 44.0421 70.1315 45.5595C68.6162 47.077 66.5604 47.9307 64.4159 47.9328C62.2722 47.9296 60.2173 47.0755 58.703 45.5581C57.1886 44.0408 56.3399 41.9843 56.3409 39.8405Z" fill="white"/>
<defs>
<linearGradient id="paint0_linear_175_1044" x1="4253.46" y1="8" x2="4253.46" y2="8508" gradientUnits="userSpaceOnUse">
<stop stop-color="#111D2E"/>
<stop offset="0.212" stop-color="#051839"/>
<stop offset="0.407" stop-color="#0A1B48"/>
<stop offset="0.581" stop-color="#132E62"/>
<stop offset="0.738" stop-color="#144B7E"/>
<stop offset="0.873" stop-color="#136497"/>
<stop offset="1" stop-color="#1387B8"/>
</linearGradient>
</defs>
</svg>
