<svg width="100" height="100" viewBox="0 0 100 100" fill="none" xmlns="http://www.w3.org/2000/svg">
<rect width="100" height="100" rx="24" fill="#635BFF"/>
<path fill-rule="evenodd" clip-rule="evenodd" d="M92 50.2751C92 44.2306 89.0722 39.4612 83.4764 39.4612C77.857 39.4612 74.457 44.2306 74.457 50.2278C74.457 57.3348 78.4709 60.9237 84.232 60.9237C87.0417 60.9237 89.1667 60.2862 90.7722 59.389V54.6667C89.1667 55.4695 87.325 55.9653 84.9875 55.9653C82.6972 55.9653 80.6667 55.1626 80.407 52.3765H91.9528C91.9528 52.0695 92 50.8417 92 50.2751ZM80.3361 48.032C80.3361 45.364 81.9653 44.2542 83.4528 44.2542C84.8931 44.2542 86.4278 45.364 86.4278 48.032H80.3361Z" fill="white"/>
<path fill-rule="evenodd" clip-rule="evenodd" d="M65.343 39.4612C63.0291 39.4612 61.5416 40.5473 60.7153 41.3028L60.4083 39.839H55.2139V67.3695L61.1166 66.1181L61.1403 59.4362C61.9903 60.0501 63.2416 60.9237 65.3194 60.9237C69.5458 60.9237 73.3944 57.5237 73.3944 50.039C73.3708 43.1917 69.475 39.4612 65.343 39.4612ZM63.9264 55.7292C62.5333 55.7292 61.7069 55.2334 61.1403 54.6195L61.1166 45.8598C61.7305 45.1751 62.5805 44.7028 63.9264 44.7028C66.075 44.7028 67.5625 47.1112 67.5625 50.2042C67.5625 53.3681 66.0986 55.7292 63.9264 55.7292Z" fill="white"/>
<path fill-rule="evenodd" clip-rule="evenodd" d="M47.0917 38.0681L53.0181 36.7931V32L47.0917 33.2514V38.0681Z" fill="white"/>
<path d="M53.0181 39.8625H47.0917V60.5223H53.0181V39.8625Z" fill="white"/>
<path fill-rule="evenodd" clip-rule="evenodd" d="M40.7403 41.6097L40.3625 39.8625H35.2625V60.5222H41.1653V46.5208C42.5583 44.7027 44.9195 45.0333 45.6514 45.293V39.8625C44.8958 39.5791 42.1333 39.0597 40.7403 41.6097Z" fill="white"/>
<path fill-rule="evenodd" clip-rule="evenodd" d="M28.9347 34.739L23.1736 35.9668L23.15 54.8793C23.15 58.3737 25.7709 60.9473 29.2653 60.9473C31.2014 60.9473 32.6181 60.5932 33.3972 60.1682V55.3751C32.6417 55.6821 28.9111 56.7682 28.9111 53.2737V44.8918H33.3972V39.8626H28.9111L28.9347 34.739Z" fill="white"/>
<path fill-rule="evenodd" clip-rule="evenodd" d="M12.9736 45.8598C12.9736 44.939 13.7292 44.5848 14.9806 44.5848C16.775 44.5848 19.0417 45.1278 20.8361 46.0959V40.5473C18.8764 39.7681 16.9403 39.4612 14.9806 39.4612C10.1875 39.4612 7 41.964 7 46.1431C7 52.6598 15.9722 51.6209 15.9722 54.4306C15.9722 55.5167 15.0278 55.8709 13.7056 55.8709C11.7458 55.8709 9.24306 55.0681 7.25972 53.982V59.6015C9.45556 60.5459 11.675 60.9473 13.7056 60.9473C18.6167 60.9473 21.9931 58.5153 21.9931 54.289C21.9694 47.2528 12.9736 48.5042 12.9736 45.8598Z" fill="white"/>
</svg>
