<svg width="100" height="100" viewBox="0 0 100 100" fill="none" xmlns="http://www.w3.org/2000/svg">
<rect width="100" height="100" rx="24" fill="black"/>
<path d="M9.244 17.448L7 19.896V25.438L9.006 27.206L11.012 28.94H24.68V32H13.12V31.15C13.12 30.3 13.086 30.3 10.06 30.3H7V36.76H9.346C11.488 36.76 11.726 36.692 12.27 35.876L12.848 34.992L13.766 35.876L14.684 36.76H30.052L32.126 34.618L34.2 32.51V27.07L32.024 25.098L29.814 23.16H16.52V19.76H26.72V21.8H32.84V15H30.664C28.658 15 28.42 15.068 27.808 15.918L27.094 16.87L26.142 15.918L25.156 15H11.488L9.244 17.448ZM35.9 17.89V20.78H38.28V32.204L40.592 34.482L42.904 36.76H56.504L58.782 34.448L61.06 32.136V20.78H63.1V15H52.56V17.89C52.56 20.746 52.56 20.78 53.41 20.78H54.26V31.32H47.12V20.78H49.16V15H35.9V17.89ZM64.8 17.89V20.78H67.18V31.32H64.8V36.76H78.4V31.32H77.21C76.02 31.32 76.02 31.32 76.02 29.79V28.26H88.804L90.402 26.628L92 24.996V18.876L90.028 16.938L88.056 15H64.8V17.89ZM83.432 22.548L83.33 24.35L79.692 24.452L76.02 24.554V20.78H83.534L83.432 22.548ZM7 41.35V44.24H9.38V54.78H7V60.56H31.684L32.942 59.268L34.2 57.976V50.36H27.4V54.78H18.22V51.38H22.13L22.028 49.34L21.892 47.3H18.22V44.24H27.4V48.66H34.2V40.976L32.908 39.718L31.616 38.46H7V41.35ZM67.792 41.214L64.8 43.968V55.018L67.826 57.806L70.8513 60.56H87.1033L89.5513 58.078L91.9993 55.63V51.04H85.1993V54.78H73.6393V44.24H85.1993V47.64H91.9993V38.46H89.4833C87.0693 38.46 86.9333 38.528 86.0833 39.514L85.1993 40.568L84.3153 39.514L83.432 38.46H70.75L67.792 41.214ZM7 64.98V67.7H9.38V78.58H7V84.02H31.99L33.112 82.66C34.2 81.368 34.2 81.334 34.2 77.594V73.82H27.4V78.58H18.22V75.18H21.96V71.1H18.22V67.7H27.4V72.46H34.2V68.686C34.2 64.946 34.2 64.9113 33.112 63.62L31.99 62.26H7V64.98ZM35.9 64.946V67.666L37.022 67.768L38.11 67.87L38.212 73.208L38.314 78.58H35.9V84.02H60.958L62.012 82.694L63.1 81.334V71.44H56.3V78.58H47.12V67.7H49.5V62.26H35.9V64.946ZM64.8 64.946V67.666L65.922 67.768L67.01 67.87L67.112 73.208L67.214 78.58H64.8V84.02H89.858L90.912 82.694L92 81.334V71.44H85.2V78.58H76.02V67.7H78.4V62.26H64.8V64.946ZM63.032 58.078C62.93 55.698 62.8963 55.63 62.012 55.528C61.094 55.426 61.06 55.3237 61.06 53.4537C61.06 51.516 61.06 51.4813 59.462 50.3593L57.898 49.2033L59.2237 48.0813C59.938 47.4693 60.6513 46.9593 60.8213 46.9593C60.9573 46.9593 61.0593 45.8373 61.0593 44.4773V41.9953L59.2573 40.2273L57.455 38.4593H35.9V44.24H38.28V54.78H35.9V60.56H48.82V57.67C48.82 54.814 48.82 54.78 47.97 54.78C47.188 54.78 47.12 54.678 47.12 53.08V51.38H51.88V58.044L53.172 59.302L54.464 60.56H63.134L63.032 58.078ZM51.88 47.8739H47.12V44.3675H51.88V47.8739Z" fill="white"/>
</svg>
