<svg width="100" height="100" viewBox="0 0 100 100" fill="none" xmlns="http://www.w3.org/2000/svg">
<rect width="100" height="100" rx="24" fill="white"/>
<g clip-path="url(#clip0_251_106)">
<path d="M20.6168 83.076H19.7231V82.3491H22.3442V83.0762H21.4463V85.3423H20.6167" fill="black"/>
<path d="M24.2149 82.3276H25.0147L26.2892 85.3424H25.3993L25.1858 84.8035H24.0267L23.8132 85.3424H22.9448L24.2149 82.3276ZM24.942 84.158L24.6086 83.3114L24.2705 84.158" fill="black"/>
<path d="M27.437 82.3491H28.2671V83.5638L29.3016 82.3491H30.2809L29.1477 83.6323L30.3197 85.343H29.3274L28.5707 84.2309L28.2671 84.5647V85.343H27.437" fill="black"/>
<path d="M31.4166 82.3491H33.8245V83.0509H32.2374V83.5082H33.6747V84.1623H32.2374V84.637H33.8456V85.343H31.4166" fill="black"/>
<path d="M35.0363 84.3587H36.4391V83.6489H35.0363V84.3587Z" fill="black"/>
<path d="M38.1082 83.076H37.2145V82.3491H39.8355V83.0762H38.9376V85.3423H38.108" fill="black"/>
<path d="M40.8555 82.3491H41.7327L42.2541 84.0809L42.8312 82.3406H43.5457L44.1229 84.0809L44.6444 82.3491H45.5041L44.5035 85.364H43.781L43.1823 83.6407L42.5793 85.364H41.8566" fill="black"/>
<path d="M46.4226 83.8545V83.846C46.4226 82.9861 47.1157 82.2893 48.039 82.2893C48.9627 82.2893 49.6467 82.978 49.6467 83.8372V83.8458C49.6467 84.7055 48.9537 85.4023 48.0303 85.4023C47.107 85.4023 46.4226 84.7142 46.4226 83.8545ZM48.7961 83.8545V83.846C48.7961 83.4099 48.4883 83.0378 48.0303 83.0378C47.5725 83.0378 47.2689 83.4057 47.2689 83.8372V83.8458C47.2689 84.2778 47.5812 84.6542 48.039 84.6542C48.4925 84.6542 48.7961 84.2865 48.7961 83.8545Z" fill="black"/>
<path d="M52.9945 85.3426H53.8241V82.3489H52.9945V85.3426Z" fill="black"/>
<path d="M55.2277 82.3491H56.0017L57.2335 83.9315V82.3491H58.0543V85.3428H57.3321L56.0486 83.7006V85.3428H55.2277" fill="black"/>
<path d="M60.174 83.076H59.2803V82.3491H61.9015V83.0762H61.0036V85.3423H60.174" fill="black"/>
<path d="M63.1222 82.3491H65.5303V83.0509H63.9432V83.5082H65.3803V84.1623H63.9432V84.637H65.5514V85.343H63.1221" fill="black"/>
<path d="M66.8363 82.3491H68.2521C68.7099 82.3491 69.0261 82.469 69.2272 82.6701C69.4025 82.8452 69.492 83.0718 69.492 83.3669V83.3754C69.492 83.8371 69.2483 84.1408 68.8766 84.2994L69.5906 85.343H68.6371L68.0336 84.4364H67.6664V85.343H66.8363V82.3491ZM68.2176 83.786C68.4958 83.786 68.6624 83.6489 68.6624 83.431V83.4225C68.6624 83.183 68.4873 83.0633 68.2133 83.0633H67.6664V83.7858" fill="black"/>
<path d="M71.7477 82.3276H72.5471L73.8214 85.3424H72.9321L72.7179 84.8035H71.5595L71.3453 85.3424H70.4777L71.7477 82.3276ZM72.4743 84.158L72.1409 83.3114L71.8033 84.158" fill="black"/>
<path d="M74.6792 83.8545V83.846C74.6792 82.9737 75.3463 82.2893 76.2529 82.2893C76.8645 82.2893 77.2583 82.546 77.5231 82.9095L76.8985 83.3928C76.7275 83.183 76.5313 83.0417 76.2444 83.0417C75.8253 83.0417 75.5304 83.4014 75.5304 83.8373V83.8458C75.5304 84.2951 75.8253 84.6457 76.2444 84.6457C76.5565 84.6457 76.7405 84.5 76.9201 84.2822L77.544 84.7271C77.262 85.1159 76.8817 85.4023 76.2228 85.4023C75.3674 85.4023 74.6792 84.7482 74.6792 83.8545Z" fill="black"/>
<path d="M79.4924 83.076H78.5988V82.3491H81.22V83.0762H80.3219V85.3423H79.4923" fill="black"/>
<path d="M82.4622 85.3426H83.2918V82.3489H82.4622V85.3426Z" fill="black"/>
<path d="M84.4603 82.3491H85.3841L86.0638 84.2438L86.7482 82.3491H87.6546L86.4402 85.3641H85.6706" fill="black"/>
<path d="M88.8026 82.3491H91.2107V83.0509H89.6235V83.5082H91.0607V84.1623H89.6235V84.637H91.2317V85.343H88.8026" fill="black"/>
<path d="M67.2817 63.5543L68.762 62.6266L83.4684 51.5913C88.4626 47.1415 91.6044 42.0463 91.5957 35.1953C91.5796 21.4938 80.8324 14.6557 68.149 14.671C62.2631 14.6781 57.1004 16.2596 52.983 19.1366L52.9767 14L7 14.0551L7.0187 29.6968L20.6699 29.6805L20.7289 79.0706L39.6884 79.048L39.6291 29.6575L44.7378 29.6512C43.8552 31.8452 43.2326 34.2441 42.9016 36.8274L58.9212 39.9563C59.1932 35.0492 60.8523 28.9367 66.7774 28.9301C70.6658 28.9252 72.9838 31.885 72.9881 35.588C72.9949 41.1425 68.3703 45.0366 64.4864 48.3738L42.9351 64.6017L42.9524 79.1367L91.2784 79.0787L92 63.5244" fill="black"/>
</g>
<defs>
<clipPath id="clip0_251_106">
<rect width="85" height="71.4024" fill="white" transform="translate(7 14)"/>
</clipPath>
</defs>
</svg>
