<svg width="100" height="100" viewBox="0 0 100 100" fill="none" xmlns="http://www.w3.org/2000/svg">
<rect width="100" height="100" rx="24" fill="#121212"/>
<path d="M78.1352 35C88.3783 35.0601 92 42.6358 92 50.3813C92 59.8108 87.0047 65.7928 76.2873 65.7971H62.4348V35H78.1352ZM75.77 57.9161C81.6707 57.9161 82.533 53.137 82.533 50.2501C82.533 48.3167 81.9232 42.937 75.0801 42.937H72.0681V57.9161H75.77Z" fill="#E62B1E"/>
<path d="M34.7149 35H61.2029V42.9678H45.1933V46.0833H61.2029V54.6954H45.1933V57.7745H61.2029V65.7971H34.7149V35Z" fill="#E62B1E"/>
<path d="M15.0565 42.958H7V35H33.4855V42.958H25.4838V65.8131H15.0565V42.958Z" fill="#E62B1E"/>
</svg>
