<svg width="100" height="100" viewBox="0 0 100 100" fill="none" xmlns="http://www.w3.org/2000/svg">
<rect width="100" height="100" rx="24" fill="#26A17B"/>
<path d="M57.39 52.35V52.34C56.96 52.37 54.74 52.5 49.8 52.5C45.85 52.5 43.08 52.39 42.1 52.34V52.35C26.91 51.68 15.58 49.04 15.58 45.87C15.58 42.71 26.92 40.06 42.1 39.39V49.72C43.09 49.79 45.94 49.96 49.87 49.96C54.59 49.96 56.95 49.76 57.39 49.72V39.4C72.55 40.08 83.85 42.72 83.85 45.88C83.85 49.04 72.54 51.68 57.39 52.36M57.39 38.33V29.09H78.54V15H20.96V29.09H42.11V38.33C24.92 39.12 12 42.52 12 46.6C12 50.68 24.93 54.08 42.11 54.88V84.5H57.4V54.88C74.56 54.09 87.46 50.69 87.46 46.61C87.46 42.54 74.56 39.13 57.4 38.34" fill="white"/>
</svg>
