<svg width="100" height="100" viewBox="0 0 100 100" fill="none" xmlns="http://www.w3.org/2000/svg">
<rect width="100" height="100" rx="24" fill="#464646"/>
<path d="M23.6321 45.9509H25.5841V50.8542H31.4717V45.9509H33.4394V57.7247H31.4717V52.823H25.5841V57.7247H23.6321V45.9509Z" fill="white"/>
<path d="M46.3764 57.7246L44.1037 53.8057H40.7789V57.7246H38.8264V45.9509H44.7141C45.7883 45.9509 46.7114 46.3353 47.4792 47.103C48.2493 47.8742 48.6329 48.7944 48.6329 49.8684C48.6329 50.6843 48.4005 51.4246 47.9374 52.0917C47.4837 52.7474 46.9085 53.2165 46.2061 53.5006L48.6329 57.7246L46.3764 57.7246ZM44.7141 47.9177H40.7789V51.8384H44.7141C45.2445 51.8384 45.7029 51.6442 46.0876 51.2618C46.4723 50.8763 46.665 50.4119 46.665 49.8686C46.665 49.3382 46.4723 48.8811 46.0876 48.4951C45.7031 48.1103 45.2448 47.9177 44.7141 47.9177Z" fill="white"/>
<path d="M61.8566 45.9509V47.9178H55.97V50.8704H61.8566V52.8229H55.97V55.7574H61.8566V57.7246H54.0216V45.9509L61.8566 45.9509Z" fill="white"/>
<path d="M74.8714 55.7481H69.4423L68.438 57.7244H66.2412L72.1478 45.6625L78.057 57.7244H75.8602L74.8714 55.7481ZM70.4106 53.7924H73.8863L72.1479 50.0719L70.4106 53.7924Z" fill="white"/>
<path d="M82.1951 45.9509H86.1124C86.917 45.9509 87.6736 46.1066 88.3875 46.4158C89.0988 46.7282 89.7251 47.1531 90.2624 47.6901C90.7992 48.2271 91.2209 48.8521 91.534 49.5637C91.8464 50.2773 92 51.0335 92 51.8383C92 52.64 91.8464 53.3976 91.534 54.111C91.2211 54.8244 90.8031 55.4487 90.2703 55.9852C89.7382 56.5235 89.1132 56.9465 88.3953 57.2573C87.677 57.5684 86.9172 57.7241 86.1127 57.7241H82.1953L82.1951 45.9509ZM86.1124 55.7573C86.6559 55.7573 87.166 55.6551 87.6398 55.4501C88.1142 55.2481 88.5309 54.9655 88.8873 54.6018C89.2442 54.2417 89.5239 53.8215 89.7272 53.3472C89.9306 52.8728 90.0336 52.3691 90.0336 51.8384C90.0336 51.3064 89.9306 50.8027 89.7272 50.3265C89.5239 49.8521 89.2419 49.4357 88.8807 49.0716C88.5172 48.7113 88.0989 48.4274 87.6243 48.2238C87.1497 48.0205 86.6462 47.9177 86.1124 47.9177H84.146V55.7573L86.1124 55.7573Z" fill="white"/>
<path d="M15.4665 57.7246H13.5032V47.9146H10.5548C9.68026 47.9146 8.964 48.628 8.964 49.5046C8.964 50.3797 9.68026 51.0931 10.5548 51.0931V53.0572C8.59525 53.0572 7 51.464 7 49.5049C7 47.5448 8.5953 45.9511 10.5546 45.9511H13.503V44.9573C13.503 43.3272 14.8299 42 16.4621 42C18.0907 42 19.416 43.3272 19.416 44.9573C19.416 46.5874 18.0907 47.9146 16.4621 47.9146H15.4662L15.4665 57.7246ZM15.4665 45.9509H16.4624C17.0106 45.9509 17.4544 45.5053 17.4544 44.9571C17.4544 44.4088 17.0107 43.9632 16.4624 43.9632C15.9125 43.9632 15.4665 44.4088 15.4665 44.9571V45.9509Z" fill="white"/>
</svg>
