<svg width="100" height="100" viewBox="0 0 100 100" fill="none" xmlns="http://www.w3.org/2000/svg">
<rect width="100" height="100" rx="24" fill="#33AADE"/>
<path d="M51.6975 78.4804C52.5743 78.1971 53.6444 77.4327 54.2177 76.6818C54.9146 75.7637 79.3254 30.8773 79.6469 29.9232C79.7926 29.4902 79.9423 28.7496 79.9805 28.2789C80.2377 25.0761 77.9203 21.9525 74.7265 21.198C73.6042 20.9282 26.3456 20.9381 25.2215 21.2034C22.8834 21.7551 21.0534 23.501 20.2292 25.9542C19.8956 26.947 19.9311 28.8153 20.3038 29.8886C20.6294 30.8252 45.0293 75.7155 45.7182 76.6449C47.055 78.4435 49.4897 79.1975 51.6984 78.4849L51.6975 78.4804ZM36.2313 49.1119L24.9364 27.8198C24.9355 27.0923 25.271 26.5419 25.9157 26.2146L26.4355 25.9502H47.5842L47.555 69.8707C47.5388 69.8685 42.4426 60.5268 36.2313 49.1119ZM52.5037 47.8142V25.9498H73.5354L74.0552 26.2141C74.7 26.5424 75.0354 27.0923 75.0345 27.8193C75.0336 28.3103 74.0579 30.1494 63.8107 48.9685L52.5455 69.6293C52.5221 69.6562 52.5032 59.8393 52.5032 47.8138L52.5037 47.8142Z" fill="white"/>
</svg>
