<svg width="100" height="100" viewBox="0 0 100 100" fill="none" xmlns="http://www.w3.org/2000/svg">
<rect width="100" height="100" rx="24" fill="#E60012"/>
<path d="M85.6553 71.6421V70.3452L16.0659 70.386V73.0035L85.6553 72.9548V71.6421ZM21.2978 32.2798V30.0118L16.5464 30.0564C15.9422 30.0564 15.9767 29.9267 15.9767 29.141L16.0273 26.0411L13.6268 26C12.8898 27.654 11.9744 28.7456 11.4537 28.9607L7 30.925V32.3231L8.66698 32.3643C9.40716 32.3643 9.71082 32.3231 9.71082 33.1962V42.3918C9.71082 45.1842 11.2333 47.2343 15.1641 47.3263C18.1185 47.4086 19.912 46.0987 21.1706 44.8749L20.8258 43.6979C20.2976 44.0524 19.8702 44.3558 19.1652 44.3558C15.811 44.3558 15.9011 41.737 15.9011 39.4276V33.1974C15.9011 32.2801 15.9767 32.2801 16.5939 32.2801L21.2978 32.2798ZM30.5434 47.1058C34.3834 46.9268 38.0843 46.1 38.0843 42.394C38.0843 39.6987 35.1252 37.9912 31.9873 36.6402C29.9753 35.8115 27.0592 34.5937 27.0592 33.6289C27.0592 32.4997 29.2797 30.3158 31.4148 32.06L35.1252 35.1599L36.8267 34.8056L35.8711 30.1905C34.9949 30.2317 34.3847 30.2779 31.1975 29.7477C27.272 29.185 22.6095 31.1499 22.6095 34.8056C22.6095 37.257 26.1459 38.9525 28.939 40.0846C30.4614 40.7371 33.1682 41.7 33.1682 43.1804C33.1682 44.6104 30.6341 45.0121 29.1984 45.0121C26.7561 45.0121 24.0488 41.7383 24.0488 41.7383H22.4419L23.3118 46.6282C23.6091 46.3625 24.7099 46.4008 24.9281 46.4954C25.7069 46.7933 28.5382 47.2355 30.5434 47.1058ZM40.3523 42.437C40.3523 45.1418 39.658 46.5776 37.4738 46.7041L37.5276 47.1457C41.1776 47.1043 44.8978 47.1457 48.4626 47.0635L48.5034 46.8354C46.8558 46.8354 45.5842 45.0925 45.5842 42.9223V35.6378C45.5842 33.8443 47.7649 32.7119 49.2471 32.8448C51.5502 33.0611 52.8215 34.5402 52.8215 35.8542V43.0048C52.8215 45.1858 52.168 46.5349 50.4687 46.6627V47.0644H60.4921V46.7573C59.0092 46.577 57.966 45.2219 57.966 43.1788V35.6713C57.966 34.0676 59.3597 32.976 61.8488 32.9352C64.0298 32.8909 65.3349 34.5073 65.3349 36.0351V42.8296C65.3349 45.1422 64.6387 46.5779 62.899 46.7582V47.0653C66.5587 47.1062 69.5637 47.1062 73.1792 47.0653V46.8373C71.2658 46.8373 70.6142 45.5784 70.6142 42.9248V35.4177C70.6142 32.9346 69.262 29.9679 65.4678 29.9679C62.899 29.9679 61.0109 31.2236 59.9354 31.5906C59.1921 31.8816 58.667 32.2358 58.4899 32.2358C58.1495 32.2358 57.7588 32.0176 57.272 31.4957C56.3547 30.5268 54.7032 29.9679 52.9543 29.9679C50.729 29.9679 48.5044 31.2236 47.4536 31.5906C47.3302 31.6254 46.5489 32.0176 46.454 32.0176C46.2832 32.0176 45.5842 32.0176 45.5842 31.9353C45.5842 29.8382 45.717 30.882 45.6313 29.4017H44.188C43.759 29.4017 43.0084 30.1893 42.1385 30.5277C41.0906 30.9737 38.9975 30.9276 38.134 31.1477V32.6287L40.3925 33.0621V35.9424L40.3523 42.437ZM83.4155 29.791C76.9627 29.791 72.0345 33.149 72.0345 38.9977C72.0345 43.9265 76.5227 47.4082 82.5422 47.4082C87.1224 47.4082 90.9135 44.0961 92 42.0024C92 41.3536 91.3487 41.0864 90.7414 41.0864C89.6912 42.6996 86.7286 43.9266 85.5124 43.875C78.2279 43.6125 77.0509 40.6925 76.9627 37.6433C76.8267 34.3286 80.407 31.4466 83.4595 31.6712C85.2407 31.7959 85.8572 34.711 87.4201 35.7624C87.91 36.0332 89.038 35.9826 89.7826 35.8542C90.3492 35.7624 91.8671 35.4164 91.8671 34.1078C91.8671 33.0203 90.5162 31.7955 89.2167 31.0111C87.91 30.4072 84.9841 29.791 83.4155 29.791Z" fill="white"/>
</svg>
