<svg width="100" height="100" viewBox="0 0 100 100" fill="none" xmlns="http://www.w3.org/2000/svg">
<rect width="100" height="100" rx="24" fill="#314358"/>
<path d="M73.1719 85.0469C71.0469 87.3125 65.3594 90 57.9531 90C39.0781 90 34.9844 76.125 34.9844 68.0312V45.5312H27.5625C26.7031 45.5312 26 44.8281 26 43.9688V33.3438C26 32.2188 26.7031 31.2188 27.7656 30.8438C37.4531 27.4375 40.5 18.9688 40.9375 12.5469C41.0625 10.8281 41.9531 10 43.4531 10H54.5312C55.3906 10 56.0938 10.7031 56.0938 11.5625V29.5625H69.0625C69.9219 29.5625 70.625 30.25 70.625 31.1094V43.875C70.625 44.7344 69.9219 45.4375 69.0625 45.4375H56.0313V66.25C56.0313 71.5938 59.7344 74.625 66.6562 71.8438C67.4063 71.5469 68.0625 71.3438 68.6406 71.5C69.1875 71.6406 69.5469 72.0312 69.7969 72.7344L73.2344 82.7812C73.5156 83.5625 73.75 84.4375 73.1719 85.0469Z" fill="white"/>
</svg>
