<svg width="100" height="100" viewBox="0 0 100 100" fill="none" xmlns="http://www.w3.org/2000/svg">
<rect width="100" height="100" rx="24" fill="black"/>
<path d="M7 72.8468V82.3345C7 86.1869 9.62608 88.6424 13.4507 88.6424C17.4738 88.6424 19.9362 86.053 19.9362 82.0747V72.8468H16.5311V81.9014C16.5311 84.0706 15.4387 85.4158 13.487 85.4158C11.3481 85.4158 10.4052 83.8688 10.4052 82.0747V72.8468H7ZM21.5918 72.9779V88.4876H27.0153C30.0191 88.4876 32.5715 86.9556 32.5715 83.917C32.5715 80.7453 29.7961 80.0423 29.7961 80.0423C29.7961 80.0423 31.8512 79.4714 31.8512 76.7579C31.8512 74.0461 29.2536 72.9779 27.0153 72.9779H21.5918ZM25.0224 75.9239H26.6687C27.8113 75.9239 28.5424 76.5257 28.5424 77.5729C28.5424 78.5096 27.9222 79.2164 26.7554 79.2164H25.0225V75.9239H25.0224ZM25.0224 81.6426H26.842C28.553 81.6426 29.1463 82.5215 29.1463 83.5704C29.1463 84.7909 28.3789 85.5064 27.0153 85.5064H25.0225V81.6427L25.0224 81.6426ZM33.8603 72.9768H37.2829V88.4865H33.8603V72.9768ZM71.2049 88.4865H67.7824V72.9768H78.5265V76.1828H71.2049V79.7353H77.8767V82.3345H71.2049V88.4865ZM79.783 72.9768V76.1828H84.2019V88.4865H87.6677V76.1828H92V72.9768H79.783ZM41.1901 83.3294L38.4712 85.3173C38.4712 85.3173 39.4107 88.7534 44.1207 88.7534C47.2572 88.7534 49.5652 86.923 49.5652 83.7051C49.5652 78.5192 42.3138 79.6193 42.3138 76.9523C42.3138 76.2505 42.938 75.6305 44.0899 75.6305C45.9382 75.6305 46.6406 77.4436 46.6406 77.4436L49.3603 75.5349C49.3603 75.5349 48.298 72.7033 44.2265 72.7033C40.8805 72.7033 39.1031 74.85 39.1031 77.0651C39.1031 82.3499 46.1433 81.2029 46.1433 83.9764C46.1433 84.9123 45.4057 85.6001 44.257 85.5922C41.9812 85.5922 41.1901 83.3294 41.1901 83.3294ZM58.4029 72.6961C54.3725 72.6961 52.576 74.884 52.576 74.884L53.0958 75.4038C53.0958 75.4038 50.4883 77.256 50.4883 81.2335C50.4883 85.8103 54.0181 88.75 58.4219 88.75C63.5387 88.75 66.442 84.9745 66.442 80.7298C66.442 76.2036 63.1274 72.6961 58.4029 72.6961ZM58.476 75.9156C61.2087 75.9156 62.9816 78.0043 62.9816 80.7163C62.9816 83.4002 61.2299 85.5469 58.476 85.5469C55.7552 85.5469 53.9677 83.6469 53.9677 81.1252C53.9677 78.8301 55.5219 77.8299 55.5219 77.8299L54.9587 77.2667C54.9587 77.2667 56.1571 75.9156 58.476 75.9156ZM47.9289 11C30.351 11 22.7638 26.6461 22.7638 26.6461L24.9971 28.245C24.9971 28.245 22.1866 33.5897 22.2644 40.445C22.2644 54.4394 33.4043 67.6222 49.8032 67.6222C64.701 67.6222 77.0074 55.4964 77.0074 40.4794C77.0074 20.8939 61.8195 11 47.9289 11H47.9289ZM48.0813 15.7743C61.8149 15.7743 72.4718 26.8413 72.4718 39.7071C72.4718 53.3458 62.214 62.8307 50.2607 62.8307C41.4633 62.8307 33.5273 56.1313 33.5273 46.946C33.5273 41.6408 36.3471 37.9421 39.5069 35.9709L39.9693 36.4726C39.1046 37.1492 36.6389 41.11 36.6389 45.0029C36.6389 52.2298 42.3062 57.2349 49.4465 57.2349C58.542 57.2349 64.6081 49.4772 64.6081 40.4697C64.6081 29.9895 55.3573 21.0921 44.2246 21.0921C38.067 21.0921 32.8408 23.7402 29.8378 26.078L29.3705 25.6549C33.2993 19.5972 40.1029 15.7743 48.0813 15.7743ZM43.9835 25.8C51.0878 25.8 58.0238 30.4999 59.7551 37.1712L59.1254 37.4098C56.0169 33.3048 50.9232 29.9028 44.9083 29.9028C33.8403 29.9028 28.0276 39.9603 28.881 48.3603L28.2292 48.599C28.2292 48.599 27.0067 45.9016 27.0067 42.703C27.0067 33.4406 34.6132 25.8 43.9835 25.8ZM48.6791 37.4245C52.0425 37.4245 54.7324 40.1507 54.7324 43.3869C54.7324 46.0649 53.0131 47.652 53.0131 47.652L55.0496 49.0761C55.0496 49.0761 53.0301 52.2467 48.9078 52.2467C44.9646 52.2467 41.4771 49.0639 41.4771 44.7839C41.4771 40.3738 45.2705 37.4245 48.6791 37.4245Z" fill="white"/>
</svg>
