<svg width="100" height="100" viewBox="0 0 100 100" fill="none" xmlns="http://www.w3.org/2000/svg">
<rect width="100" height="100" rx="24" fill="white"/>
<path d="M23.646 23H44.8617C47.8232 23 49.6652 25.4139 48.9743 28.3852L39.0969 70.7927C38.3998 73.7537 35.4347 76.1697 32.4711 76.1697H11.2575C8.30016 76.1697 6.45406 73.7537 7.14492 70.7927L17.0265 28.3852C17.7173 25.4139 20.6809 23 23.646 23Z" fill="#E21836"/>
<path d="M43.0964 23H67.4938C70.4548 23 69.1196 25.4139 68.4231 28.3852L58.5472 70.7927C57.8543 73.7537 58.0704 76.1697 55.1032 76.1697H30.7058C27.7386 76.1697 25.9023 73.7537 26.5994 70.7927L36.4747 28.3852C37.1759 25.4139 40.1333 23 43.0964 23Z" fill="#00447C"/>
<path d="M66.526 23H87.7417C90.7073 23 92.5493 25.4139 91.8527 28.3852L81.9769 70.7927C81.2798 73.7537 78.3126 76.1697 75.3475 76.1697H54.1417C51.1745 76.1697 49.3341 73.7537 50.0291 70.7927L59.9065 28.3852C60.5973 25.4139 63.5588 23 66.526 23Z" fill="#007B84"/>
<path d="M29.1868 36.5905C27.0051 36.6127 26.3607 36.5905 26.1549 36.5419C26.0758 36.9178 24.6036 43.7091 24.5994 43.7148C24.2825 45.0888 24.0518 46.0682 23.2684 46.7006C22.8237 47.0683 22.3045 47.2456 21.7026 47.2456C20.7351 47.2456 20.1714 46.7652 20.0768 45.8541L20.0587 45.5412C20.0587 45.5412 20.3534 43.7008 20.3534 43.6905C20.3534 43.6905 21.8986 37.5017 22.1752 36.6836C22.1897 36.637 22.1938 36.6127 22.1975 36.5905C19.1899 36.6169 18.6568 36.5905 18.6201 36.5419C18.5999 36.6086 18.5254 36.9923 18.5254 36.9923L16.9477 43.9677L16.8122 44.5592L16.55 46.4943C16.55 47.0683 16.6628 47.5368 16.8872 47.9329C17.606 49.189 19.6564 49.3772 20.8162 49.3772C22.3107 49.3772 23.7126 49.0597 24.6599 48.48C26.3044 47.5083 26.7346 45.9896 27.1183 44.6399L27.2962 43.9475C27.2962 43.9475 28.8879 37.5198 29.1583 36.6836C29.1687 36.637 29.1728 36.6127 29.1868 36.5905ZM34.6023 41.7758C34.2186 41.7758 33.5174 41.8689 32.8876 42.1776C32.659 42.295 32.4429 42.4305 32.2148 42.5654L32.4206 41.8224L32.3079 41.6972C30.9722 41.9677 30.6733 42.0039 29.4395 42.1776L29.3361 42.2464C29.1928 43.4342 29.0656 44.3273 28.5345 46.662C28.3323 47.5225 28.1224 48.3913 27.9119 49.2497L27.9688 49.3588C29.2332 49.2921 29.6168 49.2921 30.7157 49.3102L30.8047 49.2135C30.9443 48.4983 30.9624 48.3308 31.2716 46.8823C31.4169 46.1956 31.72 44.6866 31.8694 44.1494C32.144 44.0222 32.415 43.897 32.6735 43.897C33.2894 43.897 33.2144 44.4343 33.1906 44.6484C33.1643 45.0078 32.9398 46.1816 32.7097 47.1895L32.5561 47.84C32.4491 48.3204 32.3317 48.7874 32.2247 49.2636L32.2712 49.3588C33.5174 49.2921 33.8975 49.2921 34.9617 49.3102L35.0869 49.2135C35.2792 48.0965 35.3356 47.7976 35.6769 46.1713L35.8486 45.4241C36.1821 43.9617 36.3497 43.2201 36.0973 42.6161C35.8305 41.9392 35.1903 41.7758 34.6023 41.7758ZM40.6522 43.3069C39.9897 43.4341 39.5673 43.519 39.1474 43.5738C38.7311 43.6405 38.3252 43.701 37.685 43.7899L37.6343 43.8359L37.5877 43.8727C37.521 44.3494 37.4745 44.7616 37.3861 45.2461C37.3111 45.7472 37.1958 46.3165 37.0081 47.1346C36.8628 47.7608 36.7878 47.9791 36.705 48.1994C36.6244 48.4196 36.5354 48.6337 36.372 49.2496L36.4103 49.3065L36.4423 49.3587C37.0406 49.3303 37.4321 49.3101 37.8344 49.3065C38.2362 49.292 38.6525 49.3065 39.2968 49.3101L39.3532 49.2641L39.4137 49.2134C39.5068 48.658 39.5207 48.5086 39.5776 48.2376C39.634 47.947 39.7312 47.5447 39.9696 46.4701C40.0823 45.9654 40.208 45.4623 40.3248 44.9472C40.4464 44.4342 40.5736 43.929 40.6946 43.4243L40.6765 43.3633L40.6522 43.3069ZM40.6663 41.2425C40.0644 40.8873 39.0079 41 38.2969 41.4907C37.5879 41.9716 37.5072 42.6542 38.1071 43.0141C38.6987 43.3596 39.7593 43.2567 40.4641 42.7618C41.1715 42.2705 41.2599 41.5942 40.6663 41.2425ZM44.3065 49.4701C45.5243 49.4701 46.7726 49.1345 47.7122 48.1385C48.4351 47.3308 48.7666 46.129 48.8814 45.6341C49.2553 43.9938 48.9642 43.228 48.5986 42.7615C48.0432 42.0505 47.0617 41.8225 46.0435 41.8225C45.4312 41.8225 43.973 41.883 42.8338 42.9332C42.0157 43.6908 41.6377 44.7188 41.4096 45.7044C41.1795 46.7087 40.9148 48.5165 42.5773 49.1893C43.0903 49.4096 43.8297 49.4701 44.3065 49.4701ZM44.2114 45.7794C44.4922 44.5373 44.8236 43.4948 45.6696 43.4948C46.3326 43.4948 46.3807 44.2705 46.0859 45.5167C46.0332 45.7934 45.7911 46.8219 45.4638 47.2599C45.2352 47.5831 44.9648 47.7791 44.6659 47.7791C44.577 47.7791 44.048 47.7791 44.0397 46.9936C44.0355 46.6058 44.1147 46.2097 44.2114 45.7794ZM51.9257 49.3103L52.0208 49.2136C52.1558 48.4985 52.178 48.3304 52.4769 46.8825C52.6264 46.1957 52.9356 44.6868 53.0809 44.1495C53.356 44.0218 53.6223 43.8967 53.8892 43.8967C54.5009 43.8967 54.4264 44.4339 54.4021 44.648C54.3799 45.0079 54.1555 46.1813 53.9212 47.1891L53.7759 47.8396C53.6647 48.3206 53.5437 48.787 53.4367 49.2638L53.4832 49.3589C54.7336 49.2922 55.0992 49.2922 56.1696 49.3103L56.2989 49.2136C56.4866 48.0961 56.5373 47.7972 56.8889 46.1714L57.0565 45.4237C57.3916 43.9613 57.5612 43.2203 57.313 42.6163C57.0384 41.9394 56.3941 41.776 55.8144 41.776C55.4302 41.776 54.7253 41.8685 54.0991 42.1778C53.8752 42.2952 53.6508 42.4301 53.4305 42.5656L53.6223 41.8225L53.5194 41.6968C52.1842 41.9678 51.8791 42.004 50.6469 42.1778L50.5522 42.2465C50.4028 43.4344 50.2812 44.3269 49.7502 46.6622C49.548 47.5227 49.338 48.3914 49.1281 49.2498L49.1844 49.3589C50.4509 49.2922 50.8289 49.2922 51.9257 49.3103ZM61.1125 49.3587C61.1911 48.975 61.658 46.7007 61.6622 46.7007C61.6622 46.7007 62.0598 45.032 62.0841 44.9715C62.0841 44.9715 62.2093 44.7977 62.3344 44.7289H62.5185C64.2555 44.7289 66.2169 44.7289 67.7543 43.598C68.8004 42.8223 69.5156 41.6769 69.8346 40.2849C69.9174 39.9436 69.9784 39.5376 69.9784 39.1317C69.9784 38.5986 69.8713 38.0711 69.5621 37.659C68.7782 36.5622 67.217 36.542 65.4149 36.5337C65.4092 36.5337 64.5265 36.542 64.5265 36.542C62.2196 36.5704 61.2945 36.5622 60.9144 36.5156C60.8823 36.6837 60.8218 36.9826 60.8218 36.9826C60.8218 36.9826 59.9955 40.8123 59.9955 40.8185C59.9955 40.8185 58.0181 48.961 57.925 49.3447C59.9391 49.3204 60.765 49.3204 61.1125 49.3587ZM62.6436 42.5555C62.6436 42.5555 63.5222 38.7335 63.5181 38.748L63.5465 38.552L63.5589 38.4026L63.91 38.4388C63.91 38.4388 65.722 38.5944 65.7644 38.5986C66.4796 38.8752 66.7743 39.5883 66.5685 40.5191C66.3808 41.3698 65.8291 42.0849 65.1201 42.4304C64.5363 42.7231 63.8211 42.7474 63.0842 42.7474H62.6074L62.6436 42.5555ZM68.1139 45.8502C67.8817 46.84 67.6149 48.6478 69.2691 49.2921C69.7966 49.5165 70.2692 49.5833 70.7496 49.5589C71.2569 49.5315 71.727 49.2771 72.1624 48.911C72.1231 49.0615 72.0838 49.212 72.0445 49.363L72.1194 49.4597C73.3093 49.4095 73.6785 49.4095 74.9677 49.4193L75.0846 49.3304C75.2728 48.2238 75.4502 47.1492 75.9394 45.0321C76.1778 44.0181 76.4156 43.0138 76.6602 42.0039L76.622 41.8927C75.2909 42.1394 74.9351 42.1921 73.6548 42.3736L73.5575 42.4528C73.5446 42.5557 73.5312 42.6544 73.5188 42.7532C73.3197 42.4316 73.0311 42.157 72.5859 41.9858C72.0165 41.7619 70.6793 42.0505 69.5297 43.0971C68.722 43.8443 68.3342 44.8682 68.1139 45.8502ZM70.9094 45.9107C71.1943 44.6908 71.5217 43.6587 72.3697 43.6587C72.906 43.6587 73.1883 44.1536 73.1309 44.9975C73.0854 45.208 73.0363 45.4298 72.9778 45.6806C72.893 46.0431 72.801 46.4025 72.7115 46.7624C72.6205 47.0085 72.5145 47.2407 72.3982 47.3953C72.1799 47.7046 71.6608 47.8964 71.3619 47.8964C71.2771 47.8964 70.7537 47.8964 70.7356 47.1249C70.7315 46.7407 70.8106 46.3451 70.9094 45.9107ZM85.5078 41.8829L85.4049 41.7655C84.0878 42.0323 83.8494 42.0747 82.6394 42.2381L82.5504 42.3271C82.5463 42.3415 82.5426 42.3638 82.5364 42.3839L82.5323 42.3638C81.6315 44.4421 81.6579 43.9937 80.9246 45.6299C80.9205 45.5554 80.9205 45.5089 80.9163 45.4297L80.7327 41.8829L80.6174 41.7655C79.2378 42.0323 79.2052 42.0747 77.931 42.2381L77.8317 42.3271C77.8178 42.3695 77.8178 42.416 77.8095 42.4667L77.8178 42.4848C77.9771 43.2987 77.9388 43.1172 78.0986 44.4017C78.173 45.0321 78.2723 45.6661 78.3468 46.2887C78.4725 47.3307 78.5428 47.8436 78.6964 49.4338C77.8359 50.8538 77.6321 51.391 76.8037 52.6373L76.8094 52.6497L76.2261 53.5722C76.1594 53.6694 76.0989 53.7361 76.0141 53.7646C75.921 53.8106 75.8 53.8189 75.6319 53.8189H75.3087L74.8283 55.4168L76.4764 55.4452C77.4439 55.4411 78.052 54.9886 78.3794 54.3805L79.4157 52.6047H79.3991L79.5082 52.4796C80.2053 50.9789 85.5078 41.8829 85.5078 41.8829ZM68.1138 62.8686H67.4147L70.0023 54.3099H70.8607L71.1333 53.4282L71.1596 54.4087C71.1276 55.0147 71.6043 55.552 72.8568 55.463H74.3052L74.8037 53.815H74.2587C73.9453 53.815 73.8 53.7359 73.8181 53.5663L73.7917 52.5688H71.1095V52.5739C70.2423 52.592 67.6526 52.6572 67.1282 52.7968C66.4937 52.9602 65.8251 53.4411 65.8251 53.4411L66.0878 52.5584H63.5787L63.0559 54.3099L60.4336 62.9995H59.9248L59.4258 64.6356H64.4232L64.2556 65.1812H66.7181L66.8815 64.6356H67.5724L68.1138 62.8686ZM66.0635 56.0489C65.6617 56.1601 64.9139 56.4973 64.9139 56.4973L65.5789 54.3099H67.5724L67.0915 55.9036C67.0915 55.9036 66.4756 55.9398 66.0635 56.0489ZM66.1017 59.1739C66.1017 59.1739 65.4755 59.2525 65.0634 59.3455C64.6574 59.4686 63.8962 59.8564 63.8962 59.8564L64.583 57.5801H66.5868L66.1017 59.1739ZM64.9848 62.8888H62.9851L63.5648 60.9677H65.5582L64.9848 62.8888ZM69.8004 57.5801H72.6828L72.2686 58.9215H69.348L68.9095 60.388H71.465L69.53 63.1127C69.3945 63.3128 69.273 63.3837 69.138 63.4401C69.0025 63.5088 68.8246 63.5895 68.6188 63.5895H67.9099L67.4228 65.1957H69.2771C70.241 65.1957 70.8104 64.7571 71.2308 64.1816L72.5577 62.3655L72.8426 64.2095C72.9031 64.5549 73.1513 64.7571 73.3194 64.8357C73.5051 64.9288 73.6969 65.0886 73.9679 65.1124C74.2585 65.1248 74.4684 65.1346 74.6081 65.1346H75.5192L76.0663 63.3371H75.7069C75.5006 63.3371 75.1453 63.3025 75.0848 63.2379C75.0243 63.1593 75.0243 63.0383 74.9918 62.8542L74.7027 61.006H73.519L74.0382 60.388H76.9532L77.4015 58.9215H74.7027L75.1231 57.5801H77.8136L78.3127 55.9259H70.2912L69.8004 57.5801ZM45.4556 63.2623L46.1284 61.0243H48.8934L49.3986 59.3597H46.631L47.0535 57.9821H49.758L50.2591 56.3702H43.4922L43.0014 57.9821H44.5388L44.1287 59.3597H42.5872L42.0763 61.0527H43.6132L42.7165 64.0137C42.5955 64.4057 42.7734 64.5551 42.8861 64.7371C43.0014 64.9145 43.1183 65.0319 43.381 65.0986C43.6519 65.1591 43.8376 65.1953 44.0899 65.1953H47.2071L47.7625 63.3513L46.3808 63.541C46.1139 63.541 45.375 63.509 45.4556 63.2623ZM45.7728 52.5483L45.0721 53.8147C44.9221 54.0914 44.7872 54.2631 44.6656 54.3422C44.5586 54.4089 44.3466 54.4368 44.0394 54.4368H43.6738L43.1851 56.057H44.3993C44.9832 56.057 45.4315 55.8429 45.6456 55.7358C45.8757 55.6128 45.9362 55.6831 46.1141 55.5114L46.5242 55.1561H50.3156L50.8188 53.4693H48.0434L48.528 52.5483H45.7728ZM51.3702 63.2948C51.3056 63.2018 51.3521 63.0378 51.4509 62.6965L52.4872 59.2665H56.1737C56.711 59.2588 57.0988 59.2526 57.3512 59.2345C57.6222 59.206 57.9169 59.1093 58.238 58.9356C58.5695 58.7535 58.7391 58.5617 58.8824 58.3414C59.0421 58.1216 59.2986 57.6407 59.5189 56.8992L60.8215 52.5585L56.9959 52.5808C56.9959 52.5808 55.8179 52.7545 55.2993 52.9464C54.776 53.1604 54.0282 53.7582 54.0282 53.7582L54.3736 52.5683H52.0104L48.7019 63.541C48.5845 63.9671 48.5059 64.2763 48.4878 64.462C48.4816 64.6621 48.7402 64.8602 48.9077 65.0096C49.1058 65.159 49.3985 65.1347 49.6793 65.159C49.9746 65.1813 50.3944 65.1952 50.9741 65.1952H52.7902L53.3477 63.3129L51.7219 63.4665C51.5481 63.4665 51.4225 63.3734 51.3702 63.2948ZM53.1558 56.9499H57.028L56.7818 57.7214C56.7472 57.7395 56.6645 57.6831 56.2704 57.7297H52.9174L53.1558 56.9499ZM53.9315 54.3622H57.8362L57.5554 55.2915C57.5554 55.2915 55.715 55.2734 55.4203 55.3277C54.1234 55.5521 53.3658 56.245 53.3658 56.245L53.9315 54.3622ZM56.8685 60.305C56.8364 60.4204 56.7858 60.4907 56.7149 60.5434C56.6363 60.5941 56.5091 60.6122 56.3193 60.6122H55.7676L55.8001 59.6726H53.5052L53.4121 64.2661C53.4085 64.5976 53.4406 64.7895 53.6831 64.943C53.9256 65.1349 54.6728 65.1592 55.6786 65.1592H57.1167L57.6359 63.4398L56.384 63.5086L55.9677 63.5329C55.9108 63.5086 55.8565 63.4863 55.796 63.4258C55.7433 63.3736 55.6543 63.4057 55.6688 63.0742L55.6786 61.8967L56.9916 61.8424C57.7005 61.8424 58.0036 61.6118 58.2621 61.392C58.5088 61.1816 58.5895 60.9395 58.6825 60.6122L58.9028 59.5697H57.0986L56.8685 60.305Z" fill="#FEFEFE"/>
</svg>
