<svg width="100" height="100" viewBox="0 0 100 100" fill="none" xmlns="http://www.w3.org/2000/svg">
<rect width="100" height="100" rx="24" fill="white"/>
<path d="M87.2604 67.5V27.8333L52.9062 8V23.2292L66.3646 31.0208C66.8958 31.375 66.8958 32.0833 66.3646 32.2604L50.4271 41.4688C49.8958 41.8229 49.3646 41.6458 49.0104 41.4688L33.0729 32.2604C32.5417 32.0833 32.5417 31.1979 33.0729 31.0208L46.5312 23.2292V8L12 27.8333V67.5L25.1042 59.8854V44.3021C25.1042 43.7708 25.8125 43.4167 26.1667 43.5938L42.1042 52.8021C42.6354 53.1563 42.8125 53.5104 42.8125 54.0417V72.4583C42.8125 72.9896 42.1042 73.3438 41.75 73.1667L28.2917 65.375L15.1875 72.9896L49.5417 93L83.8958 73.1667L70.7917 65.5521L57.3333 73.3438C56.8021 73.6979 56.2708 73.3438 56.2708 72.6354V54.2188C56.2708 53.6875 56.625 53.1562 56.9792 52.9792L72.9167 43.7708C73.4479 43.4167 73.9792 43.7708 73.9792 44.4792V60.0625L87.2604 67.5Z" fill="#4C4C4C"/>
<path d="M49.5417 92.9999L83.8959 73.1666L70.7917 65.552L57.3334 73.3437C56.8021 73.6978 56.2709 73.3437 56.2709 72.6353V54.2187C56.2709 53.6874 56.625 53.1562 56.9792 52.9791L72.9167 43.7708C73.4479 43.4166 73.9792 43.7708 73.9792 44.4791V60.0624L87.0834 67.677V27.8333L49.5417 49.6145V92.9999Z" fill="black"/>
<path d="M52.9063 8V23.2292L66.3646 31.0208C66.8958 31.375 66.8958 32.0833 66.3646 32.2604L50.4271 41.4688C49.8958 41.8229 49.3646 41.6458 49.0104 41.4688L33.0729 32.2604C32.5417 32.0833 32.5417 31.1979 33.0729 31.0208L46.5312 23.2292V8L12 27.8333L49.5417 49.6146L87.0833 27.8333L52.9063 8Z" fill="#808080"/>
<path d="M41.9271 73.3437L28.4688 65.552L15.3646 73.1666L49.7188 92.9999V49.6145L12 27.8333V67.4999L25.1042 59.8853V44.302C25.1042 43.7708 25.8125 43.4166 26.1667 43.5937L42.1042 52.802C42.6354 53.1562 42.8125 53.5103 42.8125 54.0416V72.4583C42.9896 73.1666 42.4583 73.6978 41.9271 73.3437Z" fill="#4C4C4C"/>
</svg>
