<svg width="100" height="100" viewBox="0 0 100 100" fill="none" xmlns="http://www.w3.org/2000/svg">
<rect width="100" height="100" rx="24" fill="black"/>
<path fill-rule="evenodd" clip-rule="evenodd" d="M74.7519 56.6117C74.0195 60.1458 70.7591 69.2103 60.368 74.1204L56.198 69.4292L49.1612 76.5077C45.1545 76.4539 41.2146 75.4742 37.6492 73.6454C34.0838 71.8166 30.9896 69.1882 28.6083 65.9655C29.357 66.1984 30.1301 66.3435 30.9123 66.3981C32.0642 66.419 33.3126 65.9968 33.3126 64.0525V44.9618C33.3298 44.4705 33.2316 43.9821 33.0258 43.5357C32.82 43.0893 32.5123 42.6974 32.1276 42.3915C31.7428 42.0855 31.2917 41.8741 30.8104 41.7742C30.3291 41.6742 29.8311 41.6886 29.3563 41.8161C26.0985 42.5614 23.4923 50.6955 23.4923 50.6955C23.4561 46.9393 24.2384 43.2202 25.7849 39.7969C27.3313 36.3736 29.6048 33.3282 32.4473 30.8724C37.3002 26.7598 42.0409 25.3368 45.6427 24.7791C42.0852 26.8067 40.0836 30.1166 40.0836 32.8949C40.0836 37.349 42.7733 36.8225 43.5708 36.1657V61.9467C43.7056 62.2706 43.8807 62.5762 44.092 62.8563C44.4483 63.3489 44.9175 63.749 45.4603 64.0229C46.0031 64.2968 46.6037 64.4366 47.2117 64.4304C49.9066 64.4304 53.4015 61.3551 53.4015 61.3551V40.4791C53.4015 38.355 51.8013 35.7878 50.1985 34.9121C50.1985 34.9121 53.1644 34.3909 55.4579 36.1397C55.888 35.6129 56.3456 35.1092 56.8287 34.6306C62.1611 29.3921 67.1938 27.9065 71.3846 27.1612C71.3846 27.1612 63.7561 33.1555 63.7561 41.1827C63.7561 47.1589 63.9099 61.7304 63.9099 61.7304C66.7481 64.4565 70.952 60.5211 74.7519 56.6117Z" fill="white"/>
<path fill-rule="evenodd" clip-rule="evenodd" d="M49.4974 8C41.0917 8.00052 32.8749 10.4936 25.8861 15.164C18.8973 19.8344 13.4504 26.4723 10.2341 34.2384C7.01789 42.0044 6.17678 50.5498 7.81715 58.7939C9.45753 67.038 13.5057 74.6105 19.4498 80.5539C25.3939 86.4972 32.9669 90.5445 41.2112 92.1839C49.4555 93.8232 58.0008 92.9811 65.7665 89.7639C73.5321 86.5467 80.1694 81.0989 84.8389 74.1096C89.5084 67.1202 92.0005 58.9031 92 50.4974C92 44.9161 90.9006 39.3895 88.7646 34.2331C86.6286 29.0768 83.4978 24.3917 79.551 20.4454C75.6042 16.499 70.9187 13.3688 65.762 11.2334C60.6054 9.09804 55.0787 7.99932 49.4974 8ZM49.4974 91.2981C41.4277 91.2986 33.539 88.9061 26.829 84.4232C20.119 79.9403 14.8891 73.5683 11.8006 66.1129C8.71208 58.6576 7.90372 50.4539 9.47773 42.5392C11.0517 34.6244 14.9374 27.3542 20.6434 21.6478C26.3494 15.9415 33.6194 12.0553 41.534 10.4808C49.4486 8.90631 57.6524 9.71415 65.1079 12.8022C72.5635 15.8902 78.9358 21.1197 83.4192 27.8294C87.9025 34.5391 90.2955 42.4277 90.2955 50.4974C90.2955 61.318 85.9972 71.6954 78.3462 79.3469C70.6951 86.9985 60.318 91.2974 49.4974 91.2981Z" fill="white"/>
</svg>
