<svg width="100" height="100" viewBox="0 0 100 100" fill="none" xmlns="http://www.w3.org/2000/svg">
<rect width="100" height="100" rx="24" fill="white"/>
<path d="M19.4483 56.5095C19.4483 56.5095 17.8797 48.7136 26.176 39.2723C34.4731 29.8313 40.6981 26.3982 47.4213 24.6099C47.4213 24.6099 47.4156 24.6133 47.4096 24.6168C47.4182 24.6145 47.4267 24.6121 47.4351 24.6099C47.4351 24.6099 42.1537 27.6859 42.1537 32.3343C42.1537 33.6836 42.3689 34.6107 42.6669 35.2301C43.0624 36.0528 43.6888 36.3326 44.2512 36.3353C44.7251 36.338 45.0024 36.1432 45.602 35.9104V61.0862C45.602 61.0862 45.6669 61.4921 46.0312 61.973C46.5559 62.6646 47.3807 63.5087 48.93 63.5173C51.573 63.5003 54.8973 60.5149 54.8973 60.5149V40.1306C54.8973 38.0569 53.4132 35.5534 51.8405 34.6945C51.8405 34.6945 52.0547 34.681 52.4016 34.6812C53.44 34.6809 55.6676 34.7996 56.9088 35.7479C57.2536 35.3483 62.8185 29.0515 72.7207 27.1139C72.7207 27.1139 72.7189 27.1159 72.7159 27.1195C72.725 27.1177 72.7339 27.1157 72.743 27.1139C72.743 27.1139 67.266 33.563 65.5494 36.7612C65.2443 36.7794 65.1997 42.8288 65.2506 48.8736C65.2999 54.7086 65.4384 60.5404 65.5188 60.9438C65.5188 60.9438 66.1032 61.8125 67.5913 61.82C69.2699 61.8285 72.0985 60.7413 76.5332 56.0797C76.5332 56.0797 76.4163 56.3452 76.1809 56.8155C74.91 59.3549 70.1877 67.8681 61.7995 72.8161L61.799 72.8157C61.7987 72.8158 61.7984 72.816 61.7983 72.8161L56.3575 68.2145L56.2185 68.0985L50.2846 74.3904C50.2846 74.3904 50.2811 74.3901 50.2756 74.3895L50.2748 74.3904C50.2748 74.3904 36.7469 73.246 31.0967 65.0928C31.0967 65.0928 31.1073 65.0967 31.1234 65.1026C31.121 65.0993 31.1186 65.0961 31.1163 65.0928C31.1163 65.0928 31.9719 65.4258 32.9376 65.4439C34.0691 65.4646 35.2572 65.0513 35.2572 63.1607V43.993C35.2572 43.0141 34.5833 41.9161 33.104 41.9203C31.7736 41.9237 29.8636 42.8189 27.2555 45.4949C21.7482 51.1448 19.4611 56.5095 19.4611 56.5095C19.4611 56.5095 19.4596 56.5022 19.4572 56.4891C19.4518 56.5017 19.4483 56.5095 19.4483 56.5095ZM49.5 89.0066C60.0526 89.0066 69.9736 84.8972 77.4353 77.4355C84.8972 69.9736 89.0065 60.0527 89.0065 49.5001C89.0065 38.9476 84.8972 29.0266 77.4353 21.5648C69.9736 14.1031 60.0526 9.99364 49.5 9.99364C38.9475 9.99364 29.0265 14.1031 21.5647 21.5648C14.1029 29.0266 9.99353 38.9476 9.99353 49.5001C9.99353 60.0527 14.1029 69.9736 21.5647 77.4355C29.0265 84.8972 38.9475 89.0066 49.5 89.0066Z" fill="black"/>
<path d="M49.5 8.17489C72.3232 8.17489 90.8252 26.6769 90.8252 49.5001C90.8252 72.3233 72.3232 90.8253 49.5 90.8253C26.6768 90.8253 8.1748 72.3233 8.1748 49.5001C8.1748 26.6769 26.6768 8.17489 49.5 8.17489ZM49.5 92.0002C60.8522 92.0002 71.5249 87.5794 79.5521 79.5522C87.5793 71.525 92 60.8523 92 49.5001C92 38.148 87.5793 27.4752 79.5521 19.448C71.5249 11.4207 60.8522 7.00008 49.5 7.00008C38.1478 7.00008 27.4751 11.4207 19.4479 19.448C11.4207 27.4752 7 38.148 7 49.5001C7 60.8523 11.4207 71.525 19.4479 79.5522C27.4751 87.5794 38.1478 92.0002 49.5 92.0002Z" fill="black"/>
</svg>
