<svg width="100" height="100" viewBox="0 0 100 100" fill="none" xmlns="http://www.w3.org/2000/svg">
<rect width="100" height="100" rx="24" fill="#6FDA44"/>
<path d="M72.7249 25.1413C63.6158 25.1853 56.6889 31.2118 54.0973 40.814C49.7487 34.1204 46.3556 26.4646 44.4092 20L34.8202 20.044L34.9391 45.4598C34.9497 47.8763 34.0003 50.1981 32.2996 51.9149C30.599 53.6316 28.2862 54.6029 25.8697 54.6151C23.4533 54.6256 21.1315 53.6762 19.4147 51.9756C17.698 50.2749 16.7267 47.9622 16.7145 45.5457L16.5934 20.1299L7 20.1739L7.1189 45.5898C7.16954 56.1366 15.596 64.4947 25.9094 64.4441C36.2228 64.3934 44.5766 55.9626 44.5281 45.4136L44.5061 41.098C46.4393 44.9226 48.8569 48.9872 51.5145 52.574L45.6511 80.654L55.4801 80.61L59.7076 60.2078C63.5542 62.5901 67.8544 64.0059 72.9098 63.9817C83.461 63.9311 92.0548 55.2624 91.9997 44.2312C91.9596 39.1488 89.9105 34.2886 86.2997 30.7116C82.6889 27.1347 77.8096 25.1314 72.7271 25.1391L72.7249 25.1413ZM72.8614 54.1549C69.0258 54.1725 65.1836 52.5123 62.0547 49.8877L62.9949 46.0499V45.8298C63.6995 41.7475 65.8177 34.7853 73.0133 34.7545C75.5504 34.7503 77.9865 35.7483 79.7915 37.5314C81.5964 39.3145 82.624 41.7383 82.6507 44.2753C82.435 49.7909 77.9014 54.1285 72.8636 54.1527L72.8614 54.1549Z" fill="white"/>
</svg>
