<svg width="100" height="100" viewBox="0 0 100 100" fill="none" xmlns="http://www.w3.org/2000/svg">
<rect width="100" height="100" rx="24" fill="#76B83F"/>
<circle cx="49.5" cy="50.5" r="41.5" fill="white"/>
<path fill-rule="evenodd" clip-rule="evenodd" d="M55.4638 92.6609C71.214 90.4447 84.1898 79.5924 89.4598 65.0456C89.0441 65.1998 88.5368 65.3819 87.9311 65.5641C80.8456 67.6566 75.8744 63.9116 74.8717 63.2641C73.8689 62.6233 72.7945 61.5611 72.5939 61.6169C71.9458 65.6332 68.2802 71.2102 59.913 73.7402C55.331 75.1294 50.3983 75.1613 46.8788 73.1871L48.0396 76.1013C48.5044 77.2632 49.284 79.1696 49.7675 80.3263C49.7675 80.3263 52.8075 87.5717 55.4638 92.6609Z" fill="#76B83F"/>
<path fill-rule="evenodd" clip-rule="evenodd" d="M16.6435 33.1492L29.1837 30.8107C30.3259 30.6019 31.5916 31.2507 31.9927 32.2518L40.6082 53.7742C41.7809 56.0183 42.02 56.5142 42.7837 57.4714C42.7837 57.4714 48.7323 65.9719 57.8008 63.8953C63.9155 62.4967 66.7709 57.9022 66.9648 54.6331C67.1654 53.5841 66.852 52.264 66.3074 51.0316L55.9879 27.6785C55.5735 26.7372 56.0649 25.8133 57.0716 25.6205L67.5293 23.6702C68.4882 23.4987 69.6131 24.0943 70.0315 25.005L81.4613 49.5001C81.9222 50.4799 82.8559 52.0247 83.5425 52.9247C83.5425 52.9247 85.9198 56.3427 89.7289 55.694C90.6706 55.694 91.7437 55.1834 91.7437 55.1834C91.911 53.6586 92 52.1124 92 50.541C92 27.0443 72.9706 8 49.4947 8C26.0254 8 7 27.0443 7 50.541C7 69.3952 19.2546 85.3792 36.2267 90.9602C35.0805 88.5991 33.9211 85.9894 32.9715 83.4409L15.1374 35.4704C14.7456 34.4175 15.4323 33.3765 16.6435 33.1492Z" fill="#76B83F"/>
</svg>
