<svg width="100" height="100" viewBox="0 0 100 100" fill="none" xmlns="http://www.w3.org/2000/svg">
<rect width="100" height="100" rx="24" fill="white"/>
<path d="M7 61.6789V38H92V61.6789H7ZM21.773 42.8569L18.9407 53.5828L16.1083 42.8569H13.4765L17.726 57.0226H20.1554L24.4049 42.8569H21.773ZM36.5461 42.8569H33.1064L28.8569 57.0226H31.6892L32.5594 53.5828H36.8906L37.7608 57.0226H40.5932L36.5461 42.8569ZM56.3785 54.5951H50.3069V42.8569H47.675V57.0226H49.0922H50.3069H56.3785V54.5951ZM68.3191 42.8569L65.4868 53.5828L62.6544 42.8569H60.0226L64.2721 57.0226H66.7015L70.951 42.8569H68.3191ZM82.8897 50.7505H79.0451V48.5235H82.4848V46.7015H79.0451V44.677H82.8897V42.8549H79.0451H77.0206V52.5686H79.0451H82.8897V50.7505ZM34.726 45.0838L36.3242 51.3578H33.1258L34.726 45.0838Z" fill="#F74843"/>
</svg>
