<svg width="100" height="100" viewBox="0 0 100 100" fill="none" xmlns="http://www.w3.org/2000/svg">
<rect width="100" height="100" rx="24" fill="#1434CB"/>
<path d="M62.364 36C56.3289 36 50.9354 39.1286 50.9354 44.9076C50.9354 51.5357 60.5006 51.9934 60.5006 55.3237C60.5006 56.7259 58.8942 57.9809 56.1494 57.9809C52.2551 57.9809 49.3443 56.2273 49.3443 56.2273L48.0986 62.0599C48.0986 62.0599 51.4519 63.5412 55.9035 63.5412C62.5019 63.5412 67.6946 60.2595 67.6946 54.3809C67.6946 47.3767 58.0893 46.9326 58.0893 43.8423C58.0893 42.7438 59.4082 41.5407 62.1445 41.5407C65.2322 41.5407 67.7508 42.8162 67.7508 42.8162L68.97 37.1835C68.97 37.1835 66.2286 36 62.3632 36H62.364ZM7.14635 36.4254L7 37.2754C7 37.2754 9.53894 37.74 11.826 38.6674C14.7708 39.7301 14.9801 40.3495 15.4762 42.2708L20.8799 63.1022H28.1241L39.2838 36.4254H32.0567L24.8857 54.563L21.9597 39.1881C21.6916 37.4286 20.332 36.4246 18.6686 36.4246H7.1472L7.14635 36.4254ZM42.1903 36.4254L36.5211 63.1022H43.413L49.0618 36.4254H42.1903ZM80.6284 36.4254C78.9667 36.4254 78.086 37.3154 77.4402 38.8699L67.3432 63.1022H74.5703L75.9683 59.0632H84.7729L85.6229 63.1022H92L86.4371 36.4254H80.6284ZM81.5686 43.633L83.711 53.6432H77.972L81.5694 43.633H81.5686Z" fill="white"/>
</svg>
