<svg width="100" height="100" viewBox="0 0 100 100" fill="none" xmlns="http://www.w3.org/2000/svg">
<rect width="100" height="100" rx="24" fill="#AC162C"/>
<path d="M58.0094 62.2034H54.6802V51.4788C55.7462 52.0744 57.1484 53.17 58.0094 54.226V62.2034Z" fill="white"/>
<path d="M29.9647 62.2034H25.8154L20.4033 45.3741H24.1754L27.8983 57.1711H27.945L31.7171 45.3741H35.5138L29.9647 62.2034Z" fill="white"/>
<path d="M46.6931 62.2034H43.5278V60.5039H43.4581C43.0358 61.2118 42.4905 61.7249 41.818 62.0384C41.1464 62.3527 40.4568 62.5094 39.7516 62.5094C38.8578 62.5094 38.128 62.3915 37.5622 62.1563C36.9922 61.9212 36.5453 61.5863 36.2173 61.1581C35.8885 60.7259 35.6581 60.2012 35.5252 59.5742C35.3932 58.9538 35.3268 58.2625 35.3268 57.5118V50.0128H38.6561V56.8931C38.6561 57.8995 38.8127 58.6502 39.1251 59.1452C39.4375 59.641 39.9943 59.8877 40.7897 59.8877C41.6918 59.8877 42.3478 59.6171 42.7578 59.0743C43.1645 58.5314 43.3671 57.6388 43.3671 56.4014V50.0161H46.6963V62.2256L46.6931 62.2034Z" fill="white"/>
<path d="M66.7016 49.9939L62.1095 54.5313L67.1936 62.2035H63.1755L58.5834 54.8612V54.3663L62.7655 49.9939H66.7016Z" fill="white"/>
<path d="M67.8496 53.7888C67.8963 53.0034 68.0923 52.3533 68.4359 51.8336C68.7795 51.3139 69.2165 50.9014 69.7479 50.5879C70.2793 50.2744 70.8795 50.0492 71.5437 49.9164C72.2071 49.7827 72.8722 49.7159 73.5446 49.7159C74.1539 49.7159 74.7746 49.7588 75.3978 49.8454C76.0235 49.9321 76.595 50.1012 77.1117 50.3528C77.6266 50.6044 78.0465 50.9542 78.3745 51.4005C78.7025 51.8485 78.8665 52.44 78.8665 53.1824V59.5264C78.8665 60.0767 78.8977 60.6071 78.96 61.1104C79.0223 61.6136 79.1322 61.9931 79.2888 62.2406H75.9103C75.848 62.0525 75.7972 61.8594 75.7578 61.6631C75.7193 61.4668 75.6914 61.2671 75.6758 61.0617C75.1444 61.6128 74.5196 61.9939 73.798 62.2167C73.0796 62.4361 72.3465 62.5466 71.5921 62.5466C71.014 62.5466 70.4769 62.4757 69.9767 62.3346C69.4765 62.1936 69.0419 61.9733 68.6646 61.6746C68.2891 61.376 67.9955 60.999 67.7872 60.5444C67.5765 60.0891 67.4707 59.5462 67.4707 58.9193C67.4707 58.2279 67.5921 57.6571 67.834 57.2116C68.0767 56.7636 68.3883 56.4064 68.7688 56.1391C69.1517 55.8718 69.5888 55.6714 70.0808 55.5377C70.5728 55.4041 71.0648 55.2976 71.5651 55.2193C72.0653 55.1417 72.5573 55.0782 73.0411 55.0312C73.5249 54.9842 73.9513 54.9132 74.3285 54.8192C74.7041 54.7243 75.0001 54.5873 75.2223 54.4059C75.4413 54.2252 75.543 53.962 75.5274 53.6164C75.5274 53.255 75.4683 52.9679 75.3511 52.7584C75.2338 52.5489 75.078 52.3814 74.8828 52.2634C74.6877 52.1454 74.4614 52.0671 74.2031 52.0275C73.9447 51.9879 73.6684 51.9681 73.3748 51.9681C72.7188 51.9681 72.2022 52.1091 71.825 52.3929C71.4502 52.6759 71.2313 53.147 71.169 53.8119H67.8397L67.8496 53.7888ZM75.5331 56.2637C75.3921 56.3899 75.2166 56.4872 75.0059 56.5582C74.7951 56.63 74.5688 56.6885 74.3261 56.7356C74.0841 56.7826 73.8299 56.8222 73.5651 56.8535C73.2994 56.8849 73.0337 56.9237 72.768 56.9715C72.5179 57.0185 72.2719 57.0821 72.03 57.1596C71.7881 57.2388 71.5765 57.3444 71.397 57.478C71.2174 57.6117 71.073 57.7808 70.9632 57.9846C70.8541 58.1892 70.7992 58.4482 70.7992 58.7625C70.7992 59.0612 70.8541 59.3128 70.9632 59.5165C71.073 59.7211 71.2215 59.882 71.4084 60C71.5962 60.1179 71.8143 60.2004 72.0644 60.2475C72.3146 60.2945 72.572 60.3176 72.8377 60.3176C73.4937 60.3176 74.0021 60.2079 74.363 59.9884C74.7221 59.7681 74.9886 59.505 75.1592 59.1981C75.3306 58.892 75.4372 58.5818 75.4749 58.2659C75.5143 57.9516 75.5331 57.7 75.5339 57.5119V56.2579L75.5331 56.2637Z" fill="white"/>
<path d="M80.6419 49.9939H83.8072V51.6934H83.8769C84.2983 50.9864 84.8445 50.4724 85.5169 50.1507C86.1885 49.8281 86.8781 49.6672 87.5751 49.6672C88.469 49.6672 89.1988 49.7893 89.7646 50.0327C90.3345 50.2769 90.7814 50.6143 91.1094 51.0474C91.4374 51.4797 91.6678 52.0044 91.8007 52.6231C91.9335 53.2443 92 53.9348 92 54.6855V62.1845H88.6707V55.3042C88.6707 54.2978 88.5141 53.5471 88.2025 53.0521C87.8892 52.5571 87.3332 52.3096 86.5378 52.3096C85.6358 52.3096 84.9798 52.581 84.5698 53.123C84.163 53.6642 83.9605 54.5585 83.9605 55.7959V62.1812H80.6312V49.9716L80.6419 49.9939Z" fill="white"/>
<path d="M48.8252 47.9315V62.2034H52.1545V49.7464C51.0884 49.0881 49.9732 48.4677 48.8252 47.8985V47.9315Z" fill="white"/>
<path d="M14.8765 48.5089C16.8035 42.8249 28.3248 40.7377 40.625 43.8561C48.0052 45.7205 53.9913 49.3422 58.0094 52.9308C56.2218 48.179 47.5952 41.3812 35.6229 39.0713C22.1746 36.4479 8.80832 38.7537 7.16828 44.7718C5.97926 49.1194 11.2028 54.1765 19.3046 57.7238C15.6801 54.7704 13.9088 51.4458 14.9093 48.4842L14.8765 48.5089Z" fill="white"/>
<path d="M58.0094 50.9014V45.4071H54.6802V47.0735C56.0988 48.3522 57.2222 49.6474 58.0094 50.9014Z" fill="white"/>
</svg>
