<svg width="100" height="100" viewBox="0 0 100 100" fill="none" xmlns="http://www.w3.org/2000/svg">
<rect width="100" height="100" rx="24" fill="white"/>
<g clip-path="url(#clip0_204_5038)">
<path d="M58.0784 13C58.0784 13.1324 58.0784 13.2647 58.0784 13.4044C58.0784 18.1544 54.2279 22.0037 49.4792 22.0037C44.7292 22.0037 40.8799 18.1532 40.8799 13.4044C40.8799 13.2647 40.8799 13.1324 40.8799 13H12V88H87V13H58.0784Z" fill="#654FF0"/>
<path d="M29.4216 53.4179H34.3922L37.7856 71.4902H37.8469L41.9253 53.4179H46.5748L50.2586 71.712H50.3309L54.1986 53.4179H59.0736L52.739 79.9731H47.8064L44.1532 61.9008H44.0577L40.1471 79.9731H35.1226L29.4216 53.4179ZM64.6778 53.4179H72.5135L80.2954 79.9731H75.168L73.4756 74.0637H64.5491L63.2427 79.9731H58.2488L64.6778 53.4179ZM67.6606 59.9633L65.4927 69.7059H72.2403L69.7513 59.9633H67.6606Z" fill="white"/>
</g>
<defs>
<clipPath id="clip0_204_5038">
<rect width="75" height="75" fill="white" transform="translate(12 13)"/>
</clipPath>
</defs>
</svg>
