<svg width="100" height="100" viewBox="0 0 100 100" fill="none" xmlns="http://www.w3.org/2000/svg">
<rect width="100" height="100" rx="24" fill="white"/>
<path d="M73.4078 22V23.4907C71.4415 23.84 69.9531 24.4578 68.9428 25.3441C67.4953 26.6603 65.7887 28.6748 64.669 31.3877L41.8889 77.8827H40.3732L17.5042 30.7833C16.4392 28.3659 14.9912 26.8886 14.5543 26.3514C13.8715 25.5187 13.0318 24.8674 12.035 24.3973C11.0382 23.9273 9.69318 23.6251 8 23.4907V22H30.2521V23.4907C27.685 23.7325 26.4612 24.1623 25.6965 24.78C24.9318 25.3979 24.5495 26.1902 24.5495 27.1572C24.5495 28.5002 25.1776 30.5953 26.4339 33.4425L43.3226 65.4733L59.8353 33.8454C61.1188 30.7296 62.1836 28.5674 62.1837 27.3586C62.1836 26.5797 61.7876 25.8343 60.9957 25.1225C60.2037 24.4108 59.3075 23.9071 57.4232 23.6116C57.2866 23.5848 57.0545 23.5445 56.7268 23.4907V22H73.4078Z" fill="black"/>
<path d="M93.0001 22V23.4907C91.0338 23.84 89.5454 24.4578 88.535 25.3441C87.0876 26.6603 85.3809 28.6748 84.2613 31.3877L64.269 77.8827H62.7533L41.6267 30.7833C40.5616 28.3659 39.1137 26.8886 38.6767 26.3514C37.994 25.5187 37.1542 24.8674 36.1574 24.3973C35.1606 23.9273 34.2576 23.6251 32.5645 23.4907V22H54.3746V23.4907C51.8075 23.7325 50.5836 24.1623 49.819 24.78C49.0543 25.3979 48.672 26.1902 48.672 27.1572C48.672 28.5002 49.3001 30.5953 50.5563 33.4425L65.7027 65.4733L79.4275 33.8454C80.711 30.7296 81.7759 28.5674 81.7759 27.3586C81.7759 26.5797 81.3799 25.8343 80.588 25.1225C79.796 24.4108 78.4578 23.9071 76.5735 23.6116C76.4369 23.5848 76.2048 23.5445 75.8771 23.4907V22H93.0001Z" fill="black"/>
</svg>
