<svg width="100" height="100" viewBox="0 0 100 100" fill="none" xmlns="http://www.w3.org/2000/svg">
<rect width="100" height="100" rx="24" fill="black"/>
<path d="M78.7064 43.6465V55.3972H84.4966C86.1145 55.3972 87.0511 55.1417 87.7323 54.5457C88.5838 53.7793 89.0096 52.4169 89.0096 49.5218C89.0096 46.6267 88.5838 45.2643 87.7323 44.498C87.0511 43.9019 86.1145 43.6465 84.4966 43.6465H78.7064ZM86.6254 49.5218C86.6254 52.0763 86.4551 52.6724 85.9442 53.013C85.6036 53.2684 85.1778 53.3536 84.3263 53.3536H81.0906V45.6049H84.3263C85.1778 45.6049 85.6036 45.6049 85.9442 45.9455C86.4551 46.3713 86.6254 46.9673 86.6254 49.5218ZM91.9898 57.9946H75.0021V41.0068H91.9898V57.9946ZM61.1233 45.6049V43.6465H71.171V47.3931H69.0416V45.6049H64.9544V48.4149H68.1901V50.2882H64.9544V53.4387H69.1274V51.3951H71.2555V55.3972H61.124V53.4387H62.7412V45.6049H61.1233ZM52.0123 52.3318C52.0123 53.609 52.0968 54.5457 52.2671 55.312H54.5668C54.481 54.716 54.3965 53.609 54.3965 52.1615C54.3107 50.4585 53.7998 50.203 52.6077 49.9476C53.9701 49.6921 54.5668 49.0961 54.5668 46.9673C54.5668 45.2643 54.3107 44.5831 53.7998 44.1574C53.4592 43.8168 52.8638 43.6465 51.9265 43.6465H44.7739V55.3972H47.1581V50.7991H50.4796C51.1608 50.7991 51.4156 50.8842 51.6717 51.0545C51.9278 51.2248 52.0123 51.4803 52.0123 52.3318ZM47.1581 48.9258V45.6901H50.9905C51.5014 45.6901 51.6717 45.7752 51.7562 45.8604C51.9265 46.0307 52.0968 46.2861 52.0968 47.3079C52.0968 48.3297 51.9265 48.6703 51.7562 48.8406C51.6717 48.9258 51.5014 49.0109 50.9905 49.0109L47.1581 48.9258ZM57.9728 57.9946H40.9428V41.0068H57.9299V57.9946H57.9728ZM36.515 53.4387V55.3972H28.4251V53.4387H31.3202V45.6049H28.4251V43.6465H36.5143V45.6049H33.6192V53.4387H36.515ZM22.8481 43.6465H20.6342L19.0164 52.9278L17.1431 44.3277C17.0579 43.7316 16.8025 43.6465 16.2916 43.6465H15.0995C14.5886 43.6465 14.3331 43.8168 14.248 44.3277L12.3747 52.9278L10.7568 43.6465H8.37265L10.6717 54.8011C10.7568 55.312 10.9271 55.3972 11.5232 55.3972H13.141C13.6519 55.3972 13.8222 55.312 13.9925 54.8011L15.7807 46.7119L17.5688 54.8011C17.654 55.312 17.8243 55.3972 18.4203 55.3972H19.953C20.4639 55.3972 20.7194 55.312 20.8045 54.8011L22.8481 43.6465ZM24.0402 57.9946H7.01025V41.0068H23.998V57.9946H24.0402Z" fill="white"/>
</svg>
