<svg width="100" height="100" viewBox="0 0 100 100" fill="none" xmlns="http://www.w3.org/2000/svg">
<rect width="100" height="100" rx="24" fill="#88171A"/>
<path d="M57.3115 16.9079C57.5861 16.9266 57.9057 16.6784 58.4412 16.4447C57.9136 16.2175 57.5988 15.9758 57.3251 15.9933C57.0429 16.0112 56.5907 16.2855 56.5978 16.4404C56.6054 16.6113 57.0319 16.889 57.3115 16.9079Z" fill="#871719"/>
<path d="M57.8073 17.0356C58.0819 17.0543 58.4015 16.8061 58.937 16.5724C58.4094 16.3451 58.0946 16.1035 57.8209 16.121C57.5387 16.1389 57.0865 16.4131 57.0936 16.5681C57.1012 16.739 57.5277 17.0166 57.8073 17.0356Z" fill="#871719"/>
<path d="M91.9263 49.242C91.9263 49.242 93.8926 8 48.565 8C8.47897 8 7.22663 47.5618 7.22663 47.5618C7.22663 47.5618 1.33018 93 49.4886 93C95.6776 93 91.9263 49.242 91.9263 49.242Z" fill="#871719"/>
<path d="M44.927 56.6852C44.1827 57.0791 43.6095 57.3692 43.0485 57.6817C40.7535 58.9601 38.7912 60.6338 37.2277 62.7443C36.7223 63.4269 36.3749 63.4818 35.6051 63.0109C25.5926 56.8881 24.9492 41.5221 35.8836 34.8326C44.3884 29.6294 55.2537 32.8096 59.3252 40.6344C60.0967 42.1174 60.1947 44.4002 59.7063 45.956C58.019 51.3265 54.0353 54.3387 48.5676 55.6182C50.1795 54.2384 51.4627 52.6735 51.871 50.5111C52.2824 48.3331 51.8472 46.3637 50.5841 44.5736C48.665 41.8547 44.9548 40.7361 41.8543 41.9134C38.488 43.1915 36.6438 46.2637 36.9764 50.0402C37.2852 53.5482 39.9469 55.8216 44.927 56.6852Z" fill="white"/>
<path d="M23.5787 74.217C24.3828 68.7906 30.7371 63.7938 36.1105 64.3638C34.4462 66.6146 33.6775 69.1607 33.4919 71.7002C31.7064 72.0291 30.0237 72.2504 28.39 72.6649C26.7815 73.0732 25.2229 73.6779 23.5787 74.217Z" fill="white"/>
<path d="M59.0738 15.6245C59.3744 15.3944 59.6844 15.2012 60.0575 15.5089C60.27 15.6837 60.4763 15.8651 60.7336 16.0846C60.4143 16.2532 60.155 16.3952 59.8906 16.5286C59.5206 16.7151 59.2441 16.5904 59.0203 16.2957C58.8384 16.0566 58.8058 15.8297 59.0738 15.6245ZM63.4505 60.3345C62.9977 59.943 62.7107 59.9432 62.1797 60.2829C60.378 61.4355 58.534 62.5275 56.6601 63.5588C55.5857 64.1499 54.4223 64.5786 53.0751 65.1807C53.5377 65.2999 53.7602 65.356 53.982 65.415C59.0185 66.7551 61.7091 71.1766 60.5171 76.1287C59.4572 80.5328 54.9864 83.3486 50.6537 82.6057C47.0418 81.9863 43.8885 78.9869 43.3621 75.3931C42.7881 71.4763 44.7388 67.7094 48.2094 66.1312C50.1343 65.256 52.1112 64.4941 54.0316 63.6096C56.215 62.6034 58.5757 61.809 60.482 60.409C65.2136 56.9348 68.1354 52.1513 69.2747 46.3775C69.9569 42.9189 69.9107 39.4755 68.3286 36.1917C67.1142 33.6714 65.1216 31.8405 62.9807 30.17C60.7778 28.4507 58.4454 26.8964 56.2524 25.1652C55.6588 24.6968 55.2581 23.8888 54.9836 23.1564C54.8671 22.8461 55.2457 22.0043 55.499 21.9587C56.8437 21.7173 58.2178 21.5932 59.5861 21.5414C61.1654 21.4819 62.7492 21.5323 64.3308 21.5533C64.6736 21.5575 65.1391 21.5133 65.3363 21.7068C66.1554 22.5124 66.798 21.9941 67.3667 21.4643C67.8452 21.0186 68.1864 20.425 68.5669 19.9249C68.336 19.891 67.8622 19.7717 67.386 19.7603C65.7956 19.7226 64.2033 19.747 62.6138 19.6887C62.3304 19.6782 62.0576 19.3866 61.7802 19.2248C62.0723 19.1089 62.3633 18.8948 62.6565 18.8919C65.3998 18.8661 68.1436 18.8766 70.8894 18.8766C70.8925 17.4492 68.9848 15.4948 67.2899 14.9649C67.2772 15.1581 67.2653 15.3381 67.2528 15.5299C65.5686 15.5698 63.9157 15.5384 62.414 14.74C62.0185 14.5294 61.7598 14.0617 61.4377 13.7123C61.0322 13.2729 60.6996 12.7073 60.2054 12.4206C59.1922 11.8324 58.0861 11.4062 57.029 10.8914C53.2723 9.06167 49.3047 9.12598 45.0434 9.51614C47.5909 10.1089 49.8912 10.6444 52.1919 11.1799C52.1656 11.3198 52.1395 11.4595 52.1131 11.5995C49.0361 12.0117 46.1252 10.8832 43.1156 10.4653C44.2062 11.1039 45.3112 11.6978 46.4527 12.2101C47.613 12.7306 48.8089 13.1706 50.0051 13.6525C48.4853 14.951 46.9604 15.2358 45.0502 14.7995C44.0058 14.5609 42.9011 14.4339 41.8349 14.4861C40.7336 14.5399 39.6244 14.8111 38.6242 15.4795C39.6952 16.0223 40.6821 16.4728 41.6131 17.0185C41.997 17.2438 42.4373 17.626 42.5444 18.0204C42.8005 18.9647 42.8748 19.9587 43.0224 20.9333C41.2691 21.132 38.1856 22.915 37.5626 24.0755C40.2576 24.5943 43.1918 23.967 45.7628 25.7035C44.9159 26.3444 42.9439 27.1414 42.2206 27.6889C43.1148 27.9232 45.1868 27.8087 45.9974 27.7537C46.6799 27.7073 46.995 27.6906 47.2747 27.9209L55.2083 34.1319C56.0424 34.8045 59.4115 37.9934 60.291 39.998C61.0399 41.7045 61.1314 43.1566 61.1311 43.5107C61.1305 44.4613 61.0141 45.95 60.3601 47.6103C60.0856 48.3076 59.2801 49.852 57.6183 51.6526C55.0428 54.4426 51.7298 55.9508 48.1068 56.6979C39.6827 58.4348 32.6833 67.4309 34.6592 77.3484C36.9661 88.9271 49.7459 95.1958 60.1896 89.6881C66.9397 86.1283 70.5188 79.1827 69.56 71.6222C68.9805 67.0549 66.9142 63.3294 63.4505 60.3345Z" fill="white"/>
</svg>
