<svg width="100" height="100" viewBox="0 0 100 100" fill="none" xmlns="http://www.w3.org/2000/svg">
<rect width="100" height="100" rx="24" fill="white"/>
<path fill-rule="evenodd" clip-rule="evenodd" d="M85.8639 39.921C86.0383 38.4129 86.1559 36.5312 86.7494 35.2376C87.1956 36.5797 87.3457 38.316 88.2644 39.3261C89.4543 39.0459 90.7756 39.1137 92.0001 39.3772C91.2668 40.3457 89.6688 41.0029 88.7141 41.6255C89.8625 42.594 90.4228 43.7216 91.0523 45.0637C89.3851 45.0319 87.8632 43.5833 86.5765 42.8016C85.4696 44.0537 84.6879 45.2712 83.0622 45.7209C83.6482 44.4688 85.02 43.3896 85.1929 42.089C83.8924 41.6041 82.2805 40.5671 81.4365 39.5156C82.7786 39.5958 84.5219 39.7674 85.8639 39.9244" fill="#AF0084"/>
<path fill-rule="evenodd" clip-rule="evenodd" d="M87.2475 49.4675C87.3748 48.3745 87.4605 47.0047 87.8895 46.0639C88.2139 47.0393 88.3232 48.2984 88.9894 49.0317C89.8472 48.8283 90.8157 48.8767 91.7012 49.0683C91.1678 49.767 90.0132 50.2513 89.3214 50.7009C90.1585 51.3996 90.5667 52.2229 91.0163 53.1983C89.8057 53.1747 88.6988 52.1191 87.7649 51.5587C86.9625 52.465 86.3952 53.3505 85.2122 53.6756C85.6377 52.7694 86.6373 51.9807 86.7549 51.0399C85.8141 50.6885 84.645 49.9331 84.0293 49.1721C84.9978 49.2323 86.2707 49.3568 87.2392 49.4696" fill="#98C000"/>
<path fill-rule="evenodd" clip-rule="evenodd" d="M83.0967 57.0081C83.1839 56.2471 83.2434 55.3063 83.5402 54.656C83.7636 55.3298 83.8397 56.1987 84.3011 56.7037C84.8961 56.5633 85.5602 56.5972 86.1759 56.73C85.8064 57.2135 85.0067 57.5463 84.5294 57.8576C85.1064 58.3425 85.3872 58.9091 85.6985 59.5801C84.8615 59.5656 84.1005 58.8399 83.4502 58.4456C82.8933 59.073 82.5025 59.6839 81.6862 59.9122C81.9802 59.2854 82.6685 58.7431 82.7515 58.0928C82.1012 57.8493 81.2919 57.3318 80.8699 56.7992C81.5416 56.8407 82.4195 56.9264 83.0905 57.0053" fill="#F08400"/>
<path fill-rule="evenodd" clip-rule="evenodd" d="M21.0437 56.5237C20.3526 56.5237 12.5348 64.1334 11.7738 65.0327C11.1388 65.7383 10.7915 67.0388 9.69849 67.1841C8.53629 67.3405 8.27341 66.8887 7.71307 66.015C7.18385 65.1849 6.54395 63.7114 7.46887 63.1095C8.36127 62.536 19.4367 52.3869 19.7826 51.9718C20.2129 51.5353 19.7397 50.4499 19.5343 48.8103C19.27 46.7073 19.1358 44.7772 19.2977 42.695C19.463 40.5574 19.9749 37.9217 20.5291 35.8463C20.8701 34.5804 20.6729 32.0761 22.4384 32C22.7988 32.0851 25.5168 33.9647 24.7835 36.4413C23.7251 39.9901 22.7082 43.9817 23.0195 47.7865C23.0797 48.5198 23.375 49.1562 23.8427 48.8173C28.8581 45.2338 36.7099 41.346 38.716 40.6542C39.6845 40.3457 40.6738 40.1049 41.6769 39.979C42.3963 40.0641 42.9428 40.74 43.5101 41.2173C46.3533 43.6524 40.8329 52.2859 40.3625 54.9146C40.8045 54.9146 41.2826 54.245 42.1265 53.4827C43.0259 52.6663 44.4233 51.3796 45.454 50.3835C47.0313 49.2005 48.4079 48.1144 50.4072 47.8584C55.2151 47.2483 53.7762 54.1675 52.6901 56.6441C53.3106 56.6441 54.8277 54.9008 56.0383 53.7524C56.6492 53.1734 57.325 52.5626 57.9407 51.9953C58.674 51.3215 59.013 50.9715 59.5664 51.2413C59.9372 51.3478 61.5449 52.3205 61.6348 53.8078C61.7102 55.0115 61.2163 56.1944 60.9742 57.3497C60.7729 58.3182 60.8227 61.4658 62.1295 61.4728C62.6448 61.1006 63.3193 60.9408 63.935 60.8384C64.9243 60.671 64.8759 60.992 65.6922 61.2964C66.972 61.7716 65.8174 63.5862 65.1443 64.2572C64.238 65.1565 62.9444 65.7514 61.6508 65.7307C60.2257 65.7065 59.105 64.8314 58.4616 63.6C58.1109 62.9241 57.6592 60.4316 57.4862 59.6914C57.3119 58.965 57.4634 58.0934 56.6907 58.8336C54.5115 60.9297 52.2632 62.8805 50.0495 64.949C47.6075 67.2249 45.2762 64.0981 45.719 61.5454C46.1555 59.0481 48.3132 55.9973 48.7006 53.5207C47.6698 53.5207 45.9334 55.3193 45.2762 56.0595C44.2109 57.2633 43.0279 58.5984 41.8242 59.8644C40.6136 61.1372 39.5759 62.3064 38.3584 63.5723C37.4798 64.4855 36.4767 65.786 34.9963 65.869C34.27 65.7542 33.1078 64.5408 32.9071 62.9981C32.7439 61.7114 33.0697 60.2933 33.563 59.1103C34.988 55.686 38.8966 48.4568 39.8098 44.8596C37.935 45.0401 29.9864 48.7128 24.7289 53.0918C23.2069 54.3439 24.612 56.6406 25.2484 58.1695C25.9298 59.8021 27.9394 62.756 28.5413 63.261C30.1186 64.5685 28.8588 65.7238 27.2961 65.6408C26.6327 65.171 25.8295 64.6653 25.2069 64.0427C24.5303 63.3675 23.9478 62.5969 23.4152 61.8083C22.336 60.2102 21.3052 58.3632 21.0285 56.4262" fill="#005FAD"/>
<path fill-rule="evenodd" clip-rule="evenodd" d="M77.5625 36.0331C77.1156 34.3798 75.0444 36.9048 74.0067 38.2399C71.1358 41.9341 68.5209 49.4468 68.0989 50.8304C66.8122 55.0779 66.3141 60.3078 69.0951 64.0435C70.7138 66.2226 73.564 66.3886 76.3588 65.5861C77.7977 65.1718 79.2435 64.1403 79.7347 63.0127C80.1415 62.0788 80.3524 60.3355 78.2958 61.6637C77.5002 62.1784 76.0406 62.7429 73.4256 62.7014C72.5471 62.6869 71.1081 61.4285 70.7207 60.128C70.04 58.0111 70.3299 55.1817 70.3299 55.1817C70.9248 51.5291 72.6197 47.5721 74.107 44.2515C74.6847 42.9717 76.4453 39.7757 77.1024 38.7588C77.1024 38.7588 77.9464 37.4305 77.5687 36.0193L77.5625 36.0331Z" fill="#005FAD"/>
</svg>
