<svg width="100" height="100" viewBox="0 0 100 100" fill="none" xmlns="http://www.w3.org/2000/svg">
<rect width="100" height="100" rx="24" fill="#00396F"/>
<path d="M45.4416 52.1814H49.5555L50.7578 59.581L52.0922 52.1814H54.957L56.3944 59.581L57.7032 52.1814H61.5502L58.4208 63.3745H54.797L53.6428 57.5241L52.2765 63.3745H48.7769L45.4416 52.1814ZM71.2474 52.208H75.6286L77.3917 58.9934L79.3686 52.128H83.5359L79.3646 63.3746H75.4334L71.2474 52.208ZM84.5509 52.2081V63.3743H92V60.5162H88.4247V59.1804H91.657V56.2951H88.4247V55.0396H91.9509V52.2081H84.5509ZM65.7043 59.3273L66.786 55.4004L67.6078 59.3273H65.7043ZM69.0568 52.1814H64.5222L60.4469 63.3745H64.7477L65.1299 61.8252H68.2888L68.6208 63.3745H73.0332L69.0568 52.1814ZM39.1638 59.875L37.0269 63.3477H27.7303L32.8861 55.3604H28.1228L30.1077 52.1815H39.1638L34.3285 59.875H39.1638ZM33.8517 47.2661C27.9206 47.2661 23.1124 52.0739 23.1124 58.005C23.1124 63.9361 27.9206 68.7442 33.8517 68.7442C39.7824 68.7442 44.5905 63.9361 44.5905 58.005C44.5905 52.0739 39.7824 47.2661 33.8517 47.2661ZM33.6073 34.5335V31C18.9017 31.0651 7 43.0036 7 57.7246C7 57.7916 7.00465 57.8577 7.00531 57.9248H10.5285C10.5713 45.1276 20.851 34.748 33.6073 34.5335ZM33.6073 41.9035V38.3724C33.5805 38.372 33.5542 38.37 33.5273 38.37C22.7718 38.37 14.0527 47.0892 14.0527 57.8447C14.0527 57.8716 14.0547 57.8981 14.0547 57.9247H17.5858C17.7346 49.1415 24.8238 42.0523 33.6073 41.9035Z" fill="white"/>
</svg>
