<svg width="100" height="100" viewBox="0 0 100 100" fill="none" xmlns="http://www.w3.org/2000/svg">
<rect width="100" height="100" rx="24" fill="#EC0B43"/>
<path d="M66.5893 20.308C76.3536 22.9387 76.9593 27.0336 78.3278 31.035C72.5371 37.036 35.3688 75.3625 35.3688 75.3625C35.3688 75.3625 58.5334 77.8636 85.2786 73.2311C85.2765 73.2927 85.2744 73.3331 85.2723 73.3926C89.5116 66.7796 92 58.9362 92 50.5C92 27.0272 72.9728 8 49.5 8C37.5278 8 26.7307 12.9682 19.0063 20.9349C31.4142 18.8885 55.6413 17.3564 66.5893 20.308Z" fill="white"/>
<path d="M29.7885 78.7306C25.5767 77.9932 20.838 74.2022 19.7861 67.4638C22.8397 64.8309 62.2733 23.8865 62.2733 23.8865C47.3814 22.9855 31.3142 22.8983 15.0197 25.7225C9.992 32.7031 7 41.2435 7 50.4999C7 73.9727 26.0272 92.9999 49.5 92.9999C62.6176 92.9999 74.3391 87.0499 82.1357 77.7106C73.9077 78.8262 47.9211 81.8841 29.7885 78.7306Z" fill="white"/>
</svg>
