<svg width="100" height="100" viewBox="0 0 100 100" fill="none" xmlns="http://www.w3.org/2000/svg">
<rect width="100" height="100" rx="24" fill="white"/>
<rect x="5" y="51" width="44" height="44" rx="14" fill="#FA0F00"/>
<path d="M40.1223 76.457C38.0792 74.3355 32.5007 75.1999 31.165 75.357C29.2009 73.4712 27.8652 71.1926 27.3938 70.407C28.1009 68.2855 28.5721 66.1641 28.6509 63.8857C28.6509 61.9213 27.8652 59.8 25.665 59.8C24.8794 59.8 24.1721 60.2713 23.7792 60.8999C22.8365 62.55 23.2292 65.85 24.7221 69.2286C23.8579 71.6642 23.0721 74.0213 20.8721 78.1857C18.5936 79.1283 13.8007 81.3284 13.4078 83.6857C13.2507 84.3926 13.4863 85.1 14.0363 85.6499C14.5863 86.1213 15.2934 86.357 16.0007 86.357C18.9078 86.357 21.7363 82.35 23.7007 78.9712C25.3507 78.4213 27.9436 77.6355 30.5365 77.1641C33.6007 79.8355 36.2721 80.2283 37.6865 80.2283C39.5721 80.2283 40.2794 79.4426 40.515 78.7353C40.9078 77.9499 40.6721 77.0855 40.1223 76.457ZM38.1578 77.7928C38.0792 78.3428 37.3723 78.8926 36.115 78.5784C34.6221 78.1857 33.2865 77.4784 32.1079 76.5355C33.1294 76.3783 35.4078 76.1426 37.0579 76.457C37.6865 76.6141 38.315 77.007 38.1578 77.7928ZM25.0365 61.607C25.1936 61.3713 25.4294 61.2142 25.665 61.2142C26.3721 61.2142 26.5292 62.0784 26.5292 62.7857C26.4507 64.4359 26.1363 66.0857 25.5865 67.6571C24.4078 64.5142 24.6436 62.3141 25.0365 61.607ZM24.8794 76.8499C25.5079 75.5928 26.3723 73.3926 26.6865 72.4497C27.3936 73.6281 28.5721 75.0426 29.2009 75.6712C29.2009 75.7499 26.765 76.2212 24.8794 76.8499ZM20.2436 79.9928C18.4365 82.9784 16.5507 84.8641 15.5292 84.8641C15.3721 84.8641 15.2149 84.7855 15.0578 84.707C14.822 84.5497 14.7434 84.3141 14.822 83.9999C15.0578 82.8999 17.1007 81.407 20.2436 79.9928Z" fill="white"/>
<rect x="51" y="51" width="44" height="44" rx="14" fill="#2396ED"/>
<path d="M91.148 69.6593C90.3058 69.075 88.3758 68.8558 86.8669 69.148C86.6915 67.6871 85.8844 66.4088 84.4808 65.2767L83.6737 64.6923L83.1122 65.5323C82.4104 66.628 82.0595 68.1619 82.1648 69.6228C82.1999 70.1341 82.3753 71.0471 82.9017 71.8506C82.4104 72.1428 81.3928 72.508 80.0593 72.508H54.6887L54.6185 72.8002C54.3729 74.2611 54.3729 78.8263 57.2503 82.3324C59.426 84.9985 62.6543 86.3498 66.9003 86.3498C76.0941 86.3498 82.9017 81.9307 86.0949 73.9324C87.3582 73.9689 90.0602 73.9324 91.4287 71.1932C91.4638 71.1202 91.534 70.9741 91.7796 70.4263L91.92 70.1341L91.148 69.6593ZM74.9712 59.3601H71.1112V63.0123H74.9712V59.3601ZM74.9712 63.7427H71.1112V67.3949H74.9712V63.7427ZM70.4094 63.7427H66.5494V67.3949H70.4094V63.7427ZM65.8476 63.7427H61.9876V67.3949H65.8476V63.7427ZM61.2858 68.1254H57.4258V71.7776H61.2858V68.1254ZM65.8476 68.1254H61.9876V71.7776H65.8476V68.1254ZM70.4094 68.1254H66.5494V71.7776H70.4094V68.1254ZM74.9712 68.1254H71.1112V71.7776H74.9712V68.1254ZM79.533 68.1254H75.673V71.7776H79.533V68.1254Z" fill="white"/>
<rect x="51" y="5" width="44" height="44" rx="14" fill="url(#paint0_linear_304_2)"/>
<path d="M86.2239 21.4008C86.0197 21.5592 82.4149 23.5904 82.4149 28.1071C82.4149 33.3313 87.0019 35.1794 87.1392 35.2252C87.1181 35.3379 86.4105 37.7563 84.7207 40.2206C83.214 42.3891 81.6404 44.5541 79.2466 44.5541C76.8527 44.5541 76.2367 43.1636 73.4732 43.1636C70.7801 43.1636 69.8226 44.5999 67.6329 44.5999C65.4433 44.5999 63.9154 42.5933 62.1588 40.1291C60.124 37.2353 58.48 32.7398 58.48 28.4732C58.48 21.6296 62.9297 18.0001 67.309 18.0001C69.636 18.0001 71.5757 19.528 73.0367 19.528C74.4272 19.528 76.5957 17.9086 79.243 17.9086C80.2463 17.9086 83.8512 18.0001 86.2239 21.4008ZM77.9863 15.0113C79.0811 13.7123 79.8556 11.9099 79.8556 10.1075C79.8556 9.85755 79.8345 9.60408 79.7887 9.3999C78.0074 9.46679 75.8881 10.5863 74.6103 12.0683C73.607 13.2089 72.6705 15.0113 72.6705 16.8384C72.6705 17.113 72.7163 17.3876 72.7374 17.4756C72.8501 17.4967 73.0331 17.5214 73.2162 17.5214C74.8144 17.5214 76.8246 16.4512 77.9863 15.0113Z" fill="white"/>
<rect x="5" y="5" width="44" height="44" rx="14" fill="#34A853"/>
<path d="M45.8513 37.2234C45.8398 37.1432 45.8283 37.0745 45.8169 36.9943C45.7366 36.5244 45.645 36.0546 45.5304 35.5847C45.3356 34.7711 45.0834 33.9804 44.7855 33.224C44.5334 32.5708 44.2469 31.9405 43.926 31.3332C43.5135 30.5539 43.0551 29.7976 42.5394 29.0756C41.9091 28.1932 41.2101 27.3796 40.4537 26.6118C40.1328 26.2909 39.8005 25.9815 39.4567 25.695C38.7118 25.0532 37.9211 24.4688 37.0846 23.9531C37.096 23.9416 37.096 23.9302 37.1075 23.9187C37.4856 23.2541 37.8753 22.6008 38.2534 21.9362C38.6316 21.2944 38.9983 20.6527 39.3765 19.9995C39.6401 19.5411 39.9151 19.0713 40.1787 18.6129C40.2474 18.4983 40.2933 18.3951 40.3277 18.2691C40.4308 17.9482 40.4423 17.6044 40.3506 17.2835C40.3277 17.2033 40.3047 17.1231 40.2704 17.0543C40.236 16.9741 40.2016 16.9054 40.1558 16.8366C40.0183 16.596 39.812 16.3897 39.5484 16.2407C39.3192 16.1032 39.0671 16.023 38.8035 16C38.6889 15.9886 38.5858 15.9886 38.4712 16C38.3795 16.0115 38.2878 16.023 38.2076 16.0459C37.8867 16.1261 37.6003 16.298 37.3711 16.5501C37.2908 16.6418 37.2106 16.7449 37.1533 16.8481C36.8897 17.3065 36.6147 17.7763 36.3511 18.2347L35.2281 20.1714C34.8499 20.8361 34.4603 21.4893 34.0821 22.1539C34.0363 22.2227 34.0019 22.3029 33.9561 22.3717C33.8988 22.3487 33.8415 22.3258 33.7842 22.3029C31.6756 21.5007 29.3951 21.0652 27 21.0652C26.9312 21.0652 26.874 21.0652 26.8052 21.0652C24.6851 21.0882 22.6453 21.4549 20.7315 22.1195C20.5138 22.1998 20.2961 22.28 20.0783 22.3602C20.044 22.2914 19.9981 22.2227 19.9637 22.1539C19.5856 21.4893 19.1959 20.8361 18.8178 20.1714C18.4396 19.5296 18.0729 18.8879 17.6947 18.2347C17.4311 17.7763 17.1561 17.3065 16.8925 16.8481C16.8238 16.7335 16.755 16.6418 16.6748 16.5501C16.4456 16.298 16.1476 16.1261 15.8382 16.0459C15.7466 16.023 15.6549 16.0115 15.5747 16C15.4601 15.9886 15.3569 15.9886 15.2423 16C14.9788 16.023 14.7266 16.1032 14.4974 16.2407C14.2453 16.3897 14.0391 16.596 13.8901 16.8366C13.8442 16.9054 13.8099 16.9741 13.7755 17.0543C13.7411 17.1346 13.7182 17.2033 13.6953 17.2835C13.615 17.6044 13.615 17.9367 13.7182 18.2691C13.7526 18.3837 13.8099 18.4983 13.8672 18.6129C14.1307 19.0713 14.4058 19.5411 14.6693 19.9995C15.0475 20.6412 15.4142 21.283 15.7924 21.9362C16.1706 22.6008 16.5602 23.2541 16.9384 23.9187L16.9498 23.9302C16.182 24.4115 15.4486 24.9386 14.7496 25.5231C14.337 25.8669 13.9359 26.2336 13.5578 26.6118C12.79 27.3681 12.1024 28.1932 11.4721 29.0756C10.9564 29.7976 10.498 30.5424 10.0855 31.3332C9.76458 31.9405 9.47809 32.5708 9.22597 33.224C8.92802 33.9918 8.67591 34.7825 8.48109 35.5847C8.3665 36.0431 8.27482 36.5129 8.1946 36.9943C8.18314 37.0745 8.17168 37.1432 8.16022 37.2234C8.11438 37.4985 8.08 37.7735 8.04562 38.06H45.92C45.92 37.7735 45.8856 37.4985 45.8513 37.2234Z" fill="#202124"/>
<path d="M36.8668 32.8116C37.6232 32.3073 37.7378 31.1384 37.1075 30.2102C36.4886 29.2705 35.3656 28.9267 34.6093 29.4309C33.8529 29.9352 33.7383 31.1041 34.3686 32.0323C34.9874 32.972 36.1105 33.3158 36.8668 32.8116Z" fill="#34A853"/>
<path d="M19.7002 32.0438C20.319 31.1041 20.2158 29.9466 19.4595 29.4424C18.7032 28.9382 17.5801 29.282 16.9613 30.2217C16.3425 31.1614 16.4456 32.3188 17.2019 32.823C17.9583 33.3273 19.0699 32.972 19.7002 32.0438Z" fill="#34A853"/>
<defs>
<linearGradient id="paint0_linear_304_2" x1="73" y1="5" x2="73" y2="49" gradientUnits="userSpaceOnUse">
<stop stop-color="#3D3D3D"/>
<stop offset="1" stop-color="#030303"/>
</linearGradient>
</defs>
</svg>