<svg width="100" height="100" viewBox="0 0 100 100" fill="none" xmlns="http://www.w3.org/2000/svg">
<rect width="100" height="100" rx="24" fill="white"/>
<path d="M50 20.0001L27.2174 17.477L10 10.0001H29.9993L50 20.0015" fill="#FBC707"/>
<path d="M50 20.0001L73.3044 17.9987L90 10.0001H69.9993L50 20.0015" fill="#FBC707"/>
<path d="M50 79.9988L71.7391 80.7814L90 89.9988H69.9993L50 79.997" fill="#F68712"/>
<path d="M50 79.9986H28.087L10 89.9985H29.9993L50 79.9968" fill="#F25C19"/>
<path d="M19.9996 49.9996V71.042L10 89.9985V69.9993L19.9996 49.9991" fill="#FFF200"/>
<path d="M19.9996 49.9998L18.3478 29.1292L10 10.0001V29.9993L19.9996 49.9992" fill="#FFF200"/>
<path d="M79.998 49.9998L82.1733 28.0857L89.9994 10.0001V29.9993L79.998 49.9992" fill="#F1471D"/>
<path d="M79.998 49.9998L81.8255 73.4771L89.9994 89.9988V69.9995L79.998 49.9993" fill="#F1471D"/>
<path d="M10 10.0001L50 20.0001L43.5652 45.477L19.9996 49.9998L10 10.0022" fill="#FAB20B"/>
<path d="M90.0001 10.0001L79.9987 49.9998L53.1305 45.128L50 19.9989L90.0001 10.0022" fill="#F47216"/>
<path d="M90 89.9988L50 79.9988L54.5217 53.479L79.9986 50.0018L90 89.9964" fill="#F25C19"/>
<path d="M10 89.9985L19.9996 49.9996L44.0869 55.3899L50 79.9985L10 89.9961" fill="#F89C0E"/>
<path d="M50.0004 20.0002L20 49.9998L50.0004 79.9988L79.999 49.9998L50.0004 20.0015" fill="#F68712"/>
</svg>
